<?xml version="1.0" encoding="UTF-8"?>
<svg id="Layer_2" data-name="Layer 2" xmlns="http://www.w3.org/2000/svg" viewBox="0 0 432 288">
  <defs>
    <style>
      .cls-1 {
        fill: #fff;
      }
    </style>
  </defs>
  <path class="cls-1" d="M88.67,257.17V12.8h243.89v263.56H95.9l.08-1.3c-.47-.44-.84-1-1.16-1.46-.23-.33-1.46-.09-1.27-.85l.27-1.09c-.59-.01-.95-.02-1.24-.19-.43-.24-.21-.84-.22-1.28-.05-1.25-.71-2.49-1.26-3.57.12-.43.29-1.09.3-1.49-1.85-1.9-.21-2.66-1.76-3.88.03-.53.19-1.25-.43-1.55l-.52.37v-2.4s.41-.2.33-.26l-.33-.26ZM254.94,15.55c0-.11-.09-.19-.19-.19s-.19.09-.19.19.09.19.19.19.19-.09.19-.19ZM180.05,49.65c-1.6-2.64-1.39-5.72-.02-8.4-2.11,2.64-2,6.64.11,9.29.63.79,1.21,1.55.82,2.62l-.73.26c.52.53.4,1.79,1.07,1.56l.26-1.34c.26.25.56.95.56,1.28,0,.12-.33.35-.51.47l.71,1.38.76,1.28c.42.7.88,4.29,1.7,4.77l-.02-1.08c-.27-.48-.86-2.33-1-3.1l1.27,1.02c1.1-.33,1.44-1.44,1.83-2.37.32-.74.8-1.48,1.19-2.19.3-.55.43-1.04,1.08-1.34.44-.2.66-1.09.97-1.36.6-.42,1.26-.64,1.41-1.4l.29-1.47,1.27,1.54c.4-2.16-.73-2.93.54-5.12.44-.77.85-1.42,1.82-1.64-.12-.43-.89-.8-1.11-.54-.03.49-.23,1.11-.68,1.04-.19-.03-.18-.61-.1-.78.38-.77.13-1.43.01-2.13-.77-4.47-4.12-3.06-3.94-5.6.21-2.97,1.09-4.56,3.81-5.9.75-.37,1.77,0,2.25-.78l-2.91.45c-1.8.28-3.08,1.5-4.29,2.66s-.44,3.02-.84,3.52-2.12.08-3.45.34c-2.53.5-1.05.53-3.08,1.18-.78.25-1.74.52-2.33,1.02l-.85.73-.94,1.93-.55,1.47c-.6.52-.58,1.03-.53,1.76.09,1.57.01,3.1.9,4.47l.68,1.05,1.35,1.91c.06.08.55.13.52.03-.23-.73-.5-.46-1.31-1.89-1.46-2.57-1.18-5.92.61-8.33,1.43-1.92,1.82-1.28,3.18-2.48,1.01-.89,2.33-1.48,3.7-1.67.82-.11,3.56-.52,3.71.2-.78.52-1.03,1.07-.86,1.94l-1.01.96c.66.64.25,1.16.12,1.77-.16.72-.04,1.3-.74,1.89.16.44.63.97,1.08,1.43-1.69-.6-2.7.13-2.99-1.34l.75-.48c-.33-.54-3.77-2.98-3.72-2.02l.04.77c-.26.55-1.33,1.19-1.29,1.91l.15,2.63.65,3.83c-.65-.33-.92-.94-1.33-1.6ZM192.33,33.27c0-.13-.11-.24-.24-.24s-.24.11-.24.24.11.24.24.24.24-.11.24-.24ZM204.2,33.46c.02.16.17.54.2.45l.1-.35c.02-.06-.31-.16-.3-.1ZM201.67,47.94c-.13-1.02-.38-1.51-.74-2.21-.51-1-.26-2.21-.19-3.26.13-1.87.91-3.15,2.08-4.47,1.69-1.89,3.87-2.74,6.64-2.16-1.14-1.05-2.57-.75-3.92-.93l-.66.72c-.53.24-1.33.43-1.73.83-2.94,3-2.91,3.79-3.16,7.72-.15,2.28.92,1.89.65,3.08l1.03.69ZM220.48,39.97c-1.57-.75-3.95-.48-5.27.47.29.41.9.35,1.34.16,2.41-1.04,2.93.11,3.93-.63ZM180.43,40.58l-.26.4s.16.05.2.01.13-.13.17-.17-.07-.29-.1-.25ZM232.64,67.73c.04-.92-.85-1.02-1.24-1.37-.25-.22-.57-.61-.82-.69l-1.71-.57c-.79.37-1.43.44-2.29.39-2.59-.14-3.79.78-4.59.77-.73-.02-1.29-.09-1.97.62-1.68-1.37-1.3-.67-1.49-2.15s-.17-1.94.55-2.93c.52-.71.67-1.89,1.18-2.49,2.29-2.42,5.29-3.08,8.58-2.25l-1.21-1.24c-.53-.54-.88-1.43-1.21-2.16-.79-1.73-.56-3.65.05-5.41,1.28-3.69,4.88-5.58,8.47-5.1-.51-.31-1.37-.72-1.94-.67-2.29.21-5.5.63-6.53,2.92.72,3.5-1.21.63-.82,7.3.05.85.26,1.71.1,2.53-3.69.25-4.17.17-6.55,2.41-.26.24-.82.54-1.04.78-.13,1.3-.38,2.51-.72,3.75-.19.69-.08,1.36-.07,2.04l.06,3.41c.19.4.63,1.14.86,1.48.57.24.96.48,1.38.89s1.26.25,1.74.37c3.36.85,3.63.7,7,.14,1.25-.21,2.29-.52,2.71-1.74.62.09,1.49-.24,1.52-1.03ZM228.44,54.32c-.73-2.05-.73-4.09.14-5.95s2.34-3.52,4.38-4.04c1.27-.32,2.38-.1,3.69.02-1.37-.75-3.09-.71-4.58-.36-2.07.49-3.56,2.24-4.29,4.23-.62,1.67-.57,5.74-.21,5.79l.3.04c.39.82.69,1.6,1.23,2.36.06-.82-.41-1.37-.66-2.09ZM211.22,51.09c-.1.02.14.33.24.3l.27-.1c.06-.02-.03-.29-.1-.28l-.41.08ZM211.96,52.12l.31.38s.14.01.14-.05c0-.12,0-.48-.06-.41-.03.05-.42.03-.39.08ZM196.25,57.76l-1.18-1.96c-.18-.3-.6-.72-.72-1.06l-.73-2.03c-.28.92-.03,1.72.31,2.53l.67,1.63,1.66.89ZM168.53,65.71c-.14-.36.08-1.66.05-2.16-.04-.66-.11-1.16.07-1.86-.19-.22-.85-.05-1.16.22l-.91.82c-.41.37-.68.74-1.32.66l1.14-1.14c1.92-1.91,1.87-2.12,4.84-2.85l3.17.28c-1.13-.6-3.78-1.4-4.8-1.04-4.39,1.6-2.36,2.88-5.22,4.31l.36.66c.07.13-.28.45-.34.61-.22.59-.33,1.31-.42,2-.34,2.43-1.76,4.85,1.45,6.39-.7-1.86-1.83-1.59-.99-4.55l.57,2.52.89,2.25,1.25.86c.26-.38-.08-.64-.48-.91l.54-1.17c.39-2.03,2.25-3.5,1.3-5.93ZM250.04,61.12c-.05.06-.04.37.03.4s.31.09.31.02l-.04-.41c0-.08-.25-.06-.3,0ZM232.31,61.81c0-.11-.09-.19-.19-.19s-.19.09-.19.19.09.19.19.19.19-.09.19-.19ZM237.17,76.19c-.06-.99-.57-1.55-.76-2.27-.83-3.26.3-6.63,3.2-8.52,2.03-1.33,4.33-.89,5.89-1.08.69-.08-1.43-.8-5.69.35-1.39.38-2.36,1.12-3.08,2.31-.62,1.01-1.44,2.3-1.37,3.56l.12,2.09c.04.69.26,1.25.59,1.8l1.09,1.77ZM248.83,65.3l-1.67-.65c-.16.24.08.51.32.65.47.27.89.76,1.36,0ZM249.84,66.54c0,.15.05.5.14.45.06-.03.34-.04.31-.11l-.15-.39c-.02-.06-.31-.02-.31.04ZM178.14,73.76l2.27-.9c-.9-.12-1.67.21-2.45.56l-.33.15c-.07.03-.01.28.06.28s.35-.05.44-.08ZM175.51,84.16c-1.36-2.64-1.28-5.85.38-8.35.37-.56.97-1.05,1.41-1.6-.62-.19-.91.16-1.31.55-1.97,1.95-2.35,2.84-2.19,5.86.1,1.91,1.16,3.64,2.45,5.09.4-.75-.49-1.07-.74-1.56ZM217.22,76.78c-.1,0,.15.39.22.32l.2-.21s.08-.16.02-.15l-.43.04ZM190.67,80.66c0-.06-.05-.11-.11-.11s-.11.05-.11.11.05.11.11.11.11-.05.11-.11ZM228.77,91.34c.5-2.67.24-2.16,1.25-4.25.85-1.76,4.23-3.62,5.77-3.54l3.05.15c-1.34-.51-2.29-1.04-3.84-1.06-4.28-.07-6.84,3.66-7.16,7.08l-.25,2.7c-.12,1.29-.91,2.53-.39,3.93.22-1.28.3-2.32.93-3.51l.37,1.24c.39,1.29,1.24,2.29,2.16,3.39l.18-.56c.04-.12-2.67-2.36-2.07-5.57ZM174.82,109.92c.16-.41-.14-.6-.33-.92l-.83-1.45c-.75-1.31-1.27-2.85-.95-4.4l.3-1.41c.98.01.62-1.22.89-1.64,1.9-3.07,6.42-3.98,9.61-3.21.58.14.96.74,1.71.5-1.06-.74-3.38-1.88-4.63-1.5-.26-.19-.64-.51-.88-.59-.21-.06-.65.17-.9.3-.5.24-1.16.33-1.69.54-1.19.48-2.37,1.04-3.46,1.63-.51.28-.77,1.16-1.53.79-.08.27-.15.55-.24.5s-.31-.22-.38-.35c-.97-1.93-1.3-4.36-.6-6.57.6-1.88,1.88-3.74,3.87-4.38-2.54,1.95-4.33,4.75-3.56,7.89.03-2.09.26-3.77,1.41-5.4.93-1.32,1.96-2.21,3.5-2.85l-1.3.28,1.19-.73c.71.21,1.12.27,1.78-.17l-.92-.78-2.04.56c-.96.26-3,1.23-3.58,1.99-.55.71-1.09,1.62-1.41,2.49-.57,1.55-.69,3.5-.08,5l1.05,2.6c-.53.95-1.13,1.86-1.49,2.79-.25.66.55,1.52-.22,2.23l-1.7-.41c-2.04-.49-4.42.06-6.01,1.65-.87.87-1.69,1.8-2.17,2.93l-.82,1.94c-.87,2.07-.69,1.21-.61,4.44.02.69.46,1.1.83,1.56.55.66,1.01,1.22,1.79,1.5l-.3-.84.86-.28-1.59-.67c-.8-2.56-.45-4.5.72-6.83s3.37-3.79,5.98-4.23c1.39-.23,2.71.08,4.04.47,2.93.87,1.82,3.16,4.67,5.05ZM262.12,100.85c-.44-3.02-.31-5.23,1.7-7.48s4.52-2.87,7.49-2.71c-1.34-1.11-5.08-.66-6.54.41-.57.41-1.29,1.09-1.64,1.66l-.73,1.2c-1.07,1.76-1.07,3.76-.84,5.77.1.88.12,1.84.85,2.42.34-.44-.22-.83-.28-1.27ZM253.22,91.97c0-.11-.09-.19-.19-.19s-.19.09-.19.19.09.19.19.19.19-.09.19-.19ZM248.02,95.42l1.56-.31c.93-.18,1.53.09,2.29.6.75-.24,2.25.24,2.08-.21-.25-.65-1.04-.58-2.26-1.45-.72-.52-1.29-.43-2.07-.39-1.97.11-3.59.62-5.14,1.76-.63.47-.85.64-1,1.51-.13.79-.51,1.65-.72,2.41l1.39-1.53c.89-.98,2.58-2.14,3.87-2.4ZM171.34,96.05c-.02-.19,0-.12,0,.07.04.4.04.37,0-.07ZM228.17,99.71c-.43-.97-.59-2.02-.93-3.15-.25,1.55.06,3.16,1.23,4.3.06-.44-.12-.74-.3-1.15ZM255.11,96.94c0-.06-.05-.11-.11-.11s-.11.05-.11.11.05.11.11.11.11-.05.11-.11ZM171.71,97.81c.04-.34.04-.64,0-.88-.04.34-.04.64,0,.88ZM232.31,98.23c.03.08.2.35.22.3.02-.06.05-.15.06-.2s-.3-.14-.28-.09ZM233.05,98.39l.19.28c.04.06.29-.04.27-.11l-.09-.25c-.02-.06-.41.01-.37.07ZM234.18,99.34c0-.15-.12-.27-.27-.27s-.27.12-.27.27.12.27.27.27.27-.12.27-.27ZM244.23,108.44c-.34-.91-.98-1.23-1.56-2.48-.25-.54.04-1.5-.16-2.07-.86-2.55.56-3.19-.18-3.75l-1.3,1.25c-.98.94-.24,3.6-.08,3.84l.86,1.26c.58.85,1.54,1.42,2.42,1.96ZM244.46,120.09l.53.23c.12.05.32-.5.47-.58,1.09-.57,2.89-.66,4.28-.5-.25-.94-2.98-1.35-3.81-1.28-1.05.08-2.14.14-2.98.79-.57.44-1.22,1.01-1.64,1.59-.82,1.12-3.44,5.95-1.37,6.77-.06-2.59,2.15-6.1,4.53-7.02ZM306.97,120.04c-.3-.36-.84-.14-1.33.2.11.14.49.31.73.33.18.02.59-.32.59-.53ZM165.68,124.91c.12-.37.7-.88.96-1.22,1.16-1.55,2.7-2.6,4.69-2.71,1.18-.06,2.49-.09,3.61.31l1.99.7c-.29-.45-.65-.6-1.11-.86-2.2-1.22-4.9-1.51-7.2-.31l-1.6.83c-.53.27-1.76,2.14-2.15,2.8-.23.4-.05,1.37.02,1.85.56-.31.57-.7.79-1.39ZM149.67,132.72c-1.83-3.27-1.47-6.66.79-9.3.85-.98,1.72-1.55,2.99-1.99,1.88-.65,4.02-.91,6-.26.54.18,1.1.94,1.8.35-4.75-1.97-3.97-.89-6.59-.87-.85,0-1.51.3-2.26.53-.67.21-1.35.28-1.89.76-.68.6-1.48,1.16-1.97,1.94-.99,1.59-1.28,3.23-.99,5.12.14.91,1.11,3.47,2.12,3.73ZM164.81,120.46c-.05.07-.23.31-.15.3.05,0,.33-.02.38-.02s.03-.08,0-.13-.2-.2-.23-.16ZM165.67,121.05c-.44-.04-.47-.05-.07,0,.19.02.26.02.07,0ZM225.03,125.09c-.41.3-.68.83-.94,1.16-.77.98-1.27,1.91-1.11,3.22.31,2.55,1.54,4.83,3.23,6.79.3.34.5.77,1.04.66-1.5-1.59-2.11-3.27-2.51-5.23-.82-4.08,2.61-7.72,6.15-8.25.74-.11,1.53-.03,2.22-.07,2.28-.13,1.06.62,3.12.42-1.09-.71-2.4-1.25-3.77-1.37-.52-.05-1.21.09-1.69-.08-2.85-1.06-5.05.53-7.37,2.09l-.74.27c-.6,1.11-1.43,1.87-2.46,2.7-.69,2.72-.14,2.97.4,4.17l1.12,2.48c.36.81,1.17,1.45,2.06,1.83-1.08-1.55-1.9-2.81-2.3-4.53-.67-2.88.79-5.73,3.2-7.22,1.97-1.22,4.21-2.01,6.51-1.2-2.67.18-4.01.59-6.18,2.16ZM205.58,136.46c-.47-2.78,1.69-6.08,3.94-7.11,1.13-.52,2.25-1,3.5-1.29,1.85-.43,4.87,1.19,4.63.69-.04-.09-.17-.47-.26-.5l-2.02-.62c-1.74-.53-3.25-.27-4.74.61l-3.12,1.85c-.19.12-.52.35-.64.54-1.45,2.27-1.9,2.07-2.25,3.99-.25,1.39-.05,2.9.67,4.01.5.76.79,1.69,1.7,1.96-.74-1.44-1.32-2.63-1.42-4.14ZM178.84,132.92l.39-1.49c-.62-.1-1.07.15-1.62.67l-1.1-1.14-3.26-.91c-.41-.11-.65,0-1.09-.04l-1.52-.13c-.45-.04-1.92.5-4.08-.12-.69-.2-1.65.45-2.02,1.01-.54.81.22,1.28.63,1.75.82.97,1.68,1.64,2.92,1.97l1.33.36c1.29.35,2.65.32,3.92.06.17.16.54.44.74.37s.51-.42.7-.53c.51-.05,1.36-.22,1.87-.48,1.71-.88.2-.92,2.21-1.35ZM171.53,149.45c-.14-.11-.46-.31-.59-.22-.11.07-.34.24-.45.31l-1.26.71c.29-1.92.73-4.09,2.1-5.65.7-.81,1.61-1.64,2.5-2.24,1.36-.93,3.23-1.04,4.81-1.03.82,0,1.33.81,2.16.37-1.37-.46-2.52-.67-3.94-.8.29-2.81,1.12-4.95,3.52-6.45,3.37-2.12,5.4-1.21,9.04.05-.96-.94-2.28-1.22-3.58-1.53-1.89-.45-3.77-.49-5.68-.05-.42.1-.88.52-1.24.74-2.58,1.54-3.32,3.16-3.32,6.38l-3.09.56c-.46.08-1.26.56-1.73.76-.22.1-.53.65-.72.78-1.62,1.1-2.42,3.87-2.6,5.87-.1,1.06.53,2.41,1.01,3.3.07.13.13.55.17.65s.2.09.38.14l.98,1.5c.27.41.49.84,1.02.94-.55-1.16-1.03-2.02-1.37-3.1l2.82-1.59c.07-.04.02-.51-.05-.48l-.3.15c-.12.06-.25.19-.31.14l-.25-.2ZM189.77,137.56c2-2,3.81-1.46,4.49-1.58.87-.15,1.42-1,2.6-.53l1.55.61c1.67.66.87.14,1.45,1.12.07.11.43-.07.62-.19-4.77-4.29-6.69-1.8-8.35-1.69-.67.05-1.03.32-1.54.67-2,1.37-4.97,2.1-4.52,5.94.2,1.74.63,3.27,1.61,4.73.43.64.9,1.45,1.84,1.27-1.03-1.81-2.18-5.77-1.45-7.45.98-2.25-1.11-.11,1.69-2.91ZM218.83,144.88c.69-2.27,1.63-3.07,3.48-4.3.45-.3.8-.82,1.4-.81,1.62.01,1.01-.78,2.59-.57l2.95.4c-.18-.37-2.29-1.39-2.39-1.4l-2.8-.27-2.37,1.02c-.96,1.65-2.02,3.02-3.57,4.19-.54,2.07-.69,4.19-.45,6.38l.69,1.49c.5,1.08,1.5,1.8,2.36,2.57.42.37.84.82,1.3.25l-1.01-.67.19-.42c-.67-.33-1.25-.63-1.71-.96.02-.43-.28-.67-.39-.98-.81-2.17-.92-3.79-.27-5.91ZM195.4,140.01l.92-1.96c-.91.79-1.24,1.95-1.39,3.13.44-.17.28-.76.47-1.17ZM195.02,141.51q0-.21,0,0,0,.4,0,0ZM196.89,141.55l.18.3s.28-.04.25-.08l-.15-.18s-.3-.08-.27-.03ZM182.49,142.55c-.54-.49-1.03-.69-1.6-.7.3.6.96.89,1.6.7ZM261.16,149.06c.46-2.19.93-2.74,2.99-4.33,1.48-1.14,3.34-1.93,5.24-1.68.62.08,1.16.16,1.83.16-2.28-1.76-7.13-1.56-9.23.22-.94.8-1.87,1.56-2.38,2.77-.15.35.06,1.06.09,1.48.09,1.17-.1,2.4.13,3.49.28,1.33.78,2.47,1.63,3.57-.66-2.02-.72-3.68-.3-5.69ZM195.13,142.53c0-.06-.05-.11-.11-.11s-.11.05-.11.11.05.11.11.11.11-.05.11-.11ZM185.87,144.58c0-.11-.09-.19-.19-.19s-.19.09-.19.19.09.19.19.19.19-.09.19-.19ZM171.9,149.3c0-.06-.05-.11-.11-.11s-.11.05-.11.11.05.11.11.11.11-.05.11-.11ZM276.91,151.91c-.02-.19,0-.12,0,.07.04.4.04.37,0-.07ZM172.92,154.46l-.18-.67c-.02-.07.1-.2.17-.29.03-.04.07.22.1.26l.26.26c.14-.21-.09-.7-.35-.89-.18-.14-.68-.12-.73.05.1.19.23.33.18.39l-.26.29c-.15.17-.23.68-.1.87.11.15.55.2.66.12l-.34-.25s.11-.14.16-.14h.43ZM276.53,154.06c.06-.1-.15-.45-.23-.41l-.32.18c-.43.24-.72.96-.31,1.54l.86-1.31ZM172.2,155.18c-.27-.28-.72-.44-1.06-.46.08.51.72,1.11,1.06.46ZM177.58,156.37c.05-.21-.36-.64-.55-.56-.57.24-.93.73-.92,1.03,0,.13.2.28.29.43l-.5-.08c-.08-.01-.12.19-.11.26.08.42,1.54,0,1.79-1.08ZM273.78,156.78l-.17.41c-.03.08.37.11.39.02l.08-.31c.01-.06-.27-.18-.29-.13ZM180.71,157.26c-.14-.21-.69-.2-.7,0,.05.23.7.22.7,0ZM271.05,158.49c.41.12.72.15.74.02l.07-.37-.81.35ZM124.43,161.46c0-.06-.05-.11-.11-.11s-.11.05-.11.11.05.11.11.11.11-.05.11-.11ZM250.72,169.92c-.02-1.26.46-2.78,1.25-3.8.73-.94,1.58-2.05,2.54-2.61,1.31-.77,2.82-1.09,4.26-1.16,1.13-.06,2.2.4,3.36.53-4.09-2.02-4.82-.75-7.61-.26-.91.16-1.08.33-1.58,1.06l-1.17,1.74c-1.1,1.64-1.74,4.55-1.01,6.42.03-.61-.03-1.23-.04-1.93ZM160.32,173.43c.1-3.75,3.02-6.51,6.48-7.44,2.01-.54,4.07-.05,6.06.67-1.59-1.23-3.57-1.86-5.67-1.91-2.87-.07-5.68,1.7-6.8,4.39-.83,1.99-.91,4.9-.14,6.85l.07-2.55ZM268.33,166.46c1.12.11,2.13.34,3.23.51-1.13-.93-2.7-1.02-4-1.29l-1.34.33c-.16.04-.2.57-.08.68.45.38,1.55-.29,2.18-.23ZM179.12,169.27c.13-.58.12-.94,0-1.41-.25.47-.26.97,0,1.41ZM251.51,173.72c0-.06-.05-.11-.11-.11s-.11.05-.11.11.05.11.11.11.11-.05.11-.11ZM255.52,176.75c-.23.25.04.98.39,1.14,1.89.86,3.78.67,5.72-.02,3.03-1.07,5.41-4.31,4.38-4.02-.1.03-.11.05-.28.23l-1.86,1.4c-.67.5-1.23.74-2.06,1.02l-1.18.4c-.4.14-1.08.88-1.57.78-1.71-.34-1.58-.64-3.54-.92ZM251.91,175.1c.32-.63.02-.93-.46-1,.07.37.25.75.46,1ZM258.95,192.08c-1.14.08-2.03-.25-3.02-.45l-1.52-.31.31-.76c-.59.05-.95.27-1.25.78l-1.62-.26c-1.02-.16-1.2,1.12-1.55,1.63l-1.2,1.75c-1.03-2.31-.63-4.66.23-6.78.49.77.81,1.34,1.7,1.45l-1.18-1.81c-.68-1.05-.82-2.55-.84-3.82-.01-.65.27-1.27.41-1.84.66-2.6,1.62-3.84,4-5.23l-.82-.65c-.33,1.19-.15.05-1.96,2.36-.72.91-1.16,1.66-1.5,2.77-.66,2.18-1.28,4.38.03,6.55-1.13,2-1.6,4.25-1.08,6.54-1.68,2.64-.11,9.7,2.6,11.64-1.07-2.14-1.42-4.29-.92-6.56.41-1.85,1.56-3.21,2.89-4.49.42-.4.81-1.29,1.41-1.4l2.36-.43c3.65-.66.92-.11,4.2-.18-.38-.67-1-.53-1.68-.48ZM139.42,179.39c.5-.51,1.12-.84,1.78-1.11,3.25-1.33,4.9-.76,8.15.6-1.68-2.18-5.11-2.75-7.49-1.94-2.25.76-4.15,3.28-5.24,5.3-.71,1.32-1.7,5.23-.78,6.68.15-.6.28-1.26.25-1.75-.24-3.32,1.06-5.46,3.34-7.78ZM261.52,210.59c.32-.75.51-1.37,1.07-1.93l.27,2.27c.08.69.49,1.55.81,2.16-.73-2.14-.93-3.9-.37-5.98.33-1.21.94-2.54,1.86-3.42,2.92-2.77,5.6-3.18,9.48-2.41-2.06-1.56-3.45-2.13-6.18-2.16-1.41-.02-2.92.83-3.27.57-.18-.13-.71-3.96,1.15-6.36.54-.7,1.37-1.62,2.13-2.02l2.5-1.31c1.4-.73,5.1-.33,6.79.52l-1.56-1.16c-.43-1.75-.08-3.37.49-5.04.6-1.78,2.07-3.24,3.67-4.16,1.09-.62,2.15-.58,3.29-.58,2.29,0,.92.8,3.72.87-.8-.63-1.65-.8-2.53-1.08-3-.94-7.73-.74-9.41,2.37-.63,1.17-1.35,3.25-1.03,4.58.15.62.27,1.27.19,1.78-1.95-.61-4.4-1.14-6.15-.89-.86.12-1.35.63-1.87,1.28-.28.35-1.3.63-1.34,1.15l-.15,1.67c-2.54,5.34.49,3.82-.68,6.71.26.43.49,1.17.38,1.69-4.29,3.3-2.3,7.67-3.48,8.61-.62.5-.89.67-1.01,1.51-.07.51-.3,1.18-.2,1.72l.62,3.39c.24,1.29,2.52,4.95,2.37,3.76-.06-.42-1.79-1.95-1.96-4.94-.07-1.19-.1-2.05.38-3.17ZM111.33,189.41l-.16.31c-.04.07.32.11.34.03l.1-.31s-.09-.03-.28-.03ZM251.49,189.41c.03.1.24.5.26.41l.09-.44c.01-.06-.37-.03-.35.03ZM262.43,190.47l-1.19.45c.45.2.98.1,1.19-.45ZM277.96,190.56c.04.05.24.34.2.29s.14-.26.08-.27-.31-.08-.28-.02ZM146.84,209.59c1.49-2.26,3.88-2.11,4.56-2.46.99-.51,1.93-.53,2.9-.22,1.27.41,2.33.88,3.44,1.76-.77-1.42-2.03-2.34-3.45-3.1-.69-.37-1.63-.08-2.62-.21.53-.85,1.02-1.59,1.62-2.41.38-.52,1.22-.88,1.74-1.28,2-1.52,5.84-1.93,8.1-.61l.76-.06c-1-1.08-2.32-1.34-3.75-1.25-3.97.27-2.76.34-6.49,1.9-.64.27-.94.84-1.36,1.35l-1.49,1.81c-.43.53-3.33,2.46-4.1,3.67l-2.42,3.8c-.06,2.4-.62,1.52-.18,3.77.19.97.16,1.91.77,2.76l-.15-1.92c-.1-1.33-.36-2.73.2-4,.21-.47.5-1.17.76-1.56l1.17-1.78ZM267.79,221.27c2.45.59,4.62.03,6.56-1.33-2.71-.68-2.69,1.28-5.05.3-.53.32-.94.55-1.5,1.03ZM148.57,237.02c-1.65-1.92-3.46-2.03-5.69-2.38l-1.95.77c-.73.29-1.48.69-2.15,1.01l-1.12-.6-.68.92-1.02,1.39c-.71-2.33-.84-4.85.16-7.01,1.03-2.21,2.66-3.95,4.89-4.87.91-.37,1.92-.41,2.91-.54s1.97.14,3.05.22c-1.41-.88-5.97-.77-7.41-.13-1.85.82-3.19,2.13-4.27,3.81-.32.49-.49.88-.53,1.53-.06,1.21-.32,2.48-.04,3.63l.69,2.88c-.91,1.92-1.61,5.26-.45,7.25-.38-3.17.66-5.85,2.76-8.08l.39-.42c.09-.09.28.41.42.47.63.26,1.8-.43,2.54-.62.8-.21,1.68-.52,2.43-.61,1.86-.21,3.53.8,5.06,1.38ZM277.37,254.72c.88-.08,1.82-.03,2.71.04.74.06,1.44.4,2.26.53-.27-.47-.7-.65-1.21-.87-.8-.36-1.66-.94-2.56-1-2.52-.17-3.51-.11-5.64,1.28-1.25.82-2.49,2.36-2.8,3.87-.58,2.86-.69,3.29-.38,6.15l.16-2c.12-1.4.39-2.91,1.19-4.1,1.43-2.13,3.78-3.67,6.27-3.89Z"/>
  <path d="M95.9,276.36h-7.23v-16.28l.52-.37c.62.3.46,1.02.43,1.55,1.55,1.22-.09,1.97,1.76,3.88-.01.4-.18,1.06-.3,1.49.55,1.08,1.21,2.31,1.26,3.57.02.44-.2,1.04.22,1.28.3.17.65.18,1.24.19l-.27,1.09c-.19.76,1.04.52,1.27.85.32.46.69,1.01,1.16,1.46l-.08,1.3Z"/>
  <path d="M88.67,257.68v-.51l.33.26c.08.06-.32.25-.33.26Z"/>
  <g>
    <path d="M148.57,237.02c-1.53-.58-3.2-1.59-5.06-1.38-.75.09-1.63.4-2.43.61-.74.19-1.91.88-2.54.62-.14-.06-.34-.56-.42-.47l-.39.42c-2.11,2.24-3.14,4.92-2.76,8.08-1.16-2-.46-5.33.45-7.25l-.69-2.88c-.28-1.15-.02-2.42.04-3.63.03-.65.21-1.04.53-1.53,1.08-1.68,2.41-3,4.27-3.81,1.45-.64,6.01-.75,7.41.13-1.07-.08-2.05-.35-3.05-.22s-2.01.17-2.91.54c-2.23.92-3.86,2.67-4.89,4.87-1.01,2.17-.87,4.69-.16,7.01l1.02-1.39.68-.92,1.12.6c.67-.31,1.42-.72,2.15-1.01l1.95-.77c2.23.35,4.04.46,5.69,2.38Z"/>
    <path d="M146.84,209.59l-1.17,1.78c-.26.39-.55,1.09-.76,1.56-.56,1.27-.3,2.67-.2,4l.15,1.92c-.61-.85-.58-1.79-.77-2.76-.44-2.25.12-1.37.18-3.77l2.42-3.8c.77-1.21,3.67-3.15,4.1-3.67l1.49-1.81c.42-.52.72-1.08,1.36-1.35,3.73-1.57,2.51-1.64,6.49-1.9,1.44-.1,2.75.17,3.75,1.25l-.76.06c-2.26-1.32-6.1-.91-8.1.61-.52.4-1.36.75-1.74,1.28-.6.82-1.09,1.56-1.62,2.41.99.13,1.94-.16,2.62.21,1.42.76,2.68,1.68,3.45,3.1-1.11-.88-2.17-1.36-3.44-1.76-.97-.31-1.92-.29-2.9.22-.68.35-3.07.19-4.56,2.46Z"/>
  </g>
  <path d="M261.16,149.06c-.42,2.01-.36,3.67.3,5.69-.85-1.1-1.35-2.25-1.63-3.57-.23-1.09-.04-2.32-.13-3.49-.03-.42-.24-1.13-.09-1.48.51-1.21,1.43-1.97,2.38-2.77,2.1-1.79,6.95-1.98,9.23-.22-.66,0-1.21-.08-1.83-.16-1.9-.25-3.77.54-5.24,1.68-2.06,1.59-2.53,2.14-2.99,4.33Z"/>
  <path d="M228.17,99.71c.18.41.37.71.3,1.15-1.17-1.13-1.48-2.75-1.23-4.3.34,1.13.49,2.18.93,3.15Z"/>
  <path d="M306.97,120.04c0,.21-.41.55-.59.53-.25-.02-.62-.19-.73-.33.49-.33,1.02-.56,1.33-.2Z"/>
  <path d="M179.12,169.27c-.26-.44-.25-.94,0-1.41.12.47.13.83,0,1.41Z"/>
  <path d="M250.04,61.12c.05-.06.29-.08.3,0l.04.41c0,.08-.23,0-.31-.02s-.08-.33-.03-.4Z"/>
  <path d="M251.91,175.1c-.2-.25-.38-.63-.46-1,.48.07.77.37.46,1Z"/>
  <path d="M111.33,189.41c.19,0,.29-.02.28.03l-.1.31c-.02.07-.38.03-.34-.03l.16-.31Z"/>
  <g>
    <path d="M237.17,76.19l-1.09-1.77c-.34-.55-.55-1.11-.59-1.8l-.12-2.09c-.07-1.26.75-2.55,1.37-3.56.72-1.18,1.69-1.93,3.08-2.31,4.26-1.15,6.38-.43,5.69-.35-1.56.19-3.86-.25-5.89,1.08-2.89,1.89-4.03,5.26-3.2,8.52.18.72.69,1.29.76,2.27Z"/>
    <path d="M248.83,65.3c-.46.76-.88.27-1.36,0-.24-.14-.47-.41-.32-.65l1.67.65Z"/>
    <path d="M249.84,66.54c0-.06.28-.1.31-.04l.15.39c.02.06-.26.07-.31.11-.09.05-.13-.3-.14-.45Z"/>
  </g>
  <path d="M217.22,76.78l.43-.04c.06,0,.03.11-.02.15l-.2.21c-.07.07-.32-.31-.22-.32Z"/>
  <circle cx="254.75" cy="15.55" r=".19"/>
  <circle cx="253.03" cy="91.97" r=".19"/>
  <g>
    <path d="M276.53,154.06l-.86,1.31c-.41-.58-.12-1.29.31-1.54l.32-.18c.08-.05.29.31.23.41Z"/>
    <path d="M271.05,158.49l.81-.35-.07.37c-.02.14-.34.1-.74-.02Z"/>
    <path d="M273.78,156.78c.02-.06.31.07.29.13l-.08.31c-.02.09-.42.06-.39-.02l.17-.41Z"/>
    <path d="M276.91,151.91c.04.44.05.47,0,.07-.02-.19-.02-.26,0-.07Z"/>
  </g>
  <g>
    <path d="M261.52,210.59c-.48,1.13-.45,1.98-.38,3.17.17,2.99,1.91,4.52,1.96,4.94.16,1.19-2.13-2.47-2.37-3.76l-.62-3.39c-.1-.53.13-1.21.2-1.72.12-.84.39-1.02,1.01-1.51,1.18-.95-.81-5.32,3.48-8.61.11-.52-.12-1.26-.38-1.69,1.17-2.88-1.87-1.37.68-6.71l.15-1.67c.05-.52,1.06-.8,1.34-1.15.52-.65,1.01-1.16,1.87-1.28,1.75-.25,4.2.28,6.15.89.08-.51-.05-1.16-.19-1.78-.31-1.33.4-3.41,1.03-4.58,1.68-3.1,6.41-3.31,9.41-2.37.88.28,1.73.45,2.53,1.08-2.8-.07-1.43-.88-3.72-.87-1.14,0-2.2-.04-3.29.58-1.61.92-3.07,2.37-3.67,4.16-.56,1.67-.92,3.29-.49,5.04l1.56,1.16c-1.69-.85-5.4-1.25-6.79-.52l-2.5,1.31c-.77.4-1.59,1.32-2.13,2.02-1.86,2.4-1.33,6.23-1.15,6.36.35.26,1.85-.59,3.27-.57,2.74.04,4.12.61,6.18,2.16-3.88-.77-6.56-.37-9.48,2.41-.92.88-1.54,2.21-1.86,3.42-.56,2.08-.36,3.84.37,5.98-.33-.61-.73-1.47-.81-2.16l-.27-2.27c-.56.57-.75,1.19-1.07,1.93Z"/>
    <path d="M258.95,192.08c.68-.05,1.3-.19,1.68.48-3.28.07-.55-.48-4.2.18l-2.36.43c-.6.11-.99,1-1.41,1.4-1.33,1.29-2.48,2.64-2.89,4.49-.5,2.27-.15,4.42.92,6.56-2.71-1.94-4.28-9-2.6-11.64-.52-2.29-.05-4.54,1.08-6.54-1.32-2.17-.69-4.37-.03-6.55.34-1.11.78-1.85,1.5-2.77,1.81-2.31,1.64-1.17,1.96-2.36l.82.65c-2.37,1.4-3.34,2.63-4,5.23-.14.57-.42,1.19-.41,1.84.02,1.27.16,2.78.84,3.82l1.18,1.81c-.89-.11-1.22-.68-1.7-1.45-.86,2.12-1.26,4.47-.23,6.78l1.2-1.75c.35-.51.53-1.79,1.55-1.63l1.62.26c.31-.51.66-.73,1.25-.78l-.31.76,1.52.31c.99.2,1.88.54,3.02.45Z"/>
    <path d="M267.79,221.27c.56-.47.98-.71,1.5-1.03,2.37.98,2.34-.98,5.05-.3-1.93,1.37-4.1,1.92-6.56,1.33Z"/>
    <path d="M277.96,190.56c-.04-.06.21.01.28.02s-.12.21-.08.27-.16-.23-.2-.29Z"/>
    <g>
      <path d="M268.33,166.46c-.63-.06-1.73.6-2.18.23-.13-.11-.08-.64.08-.68l1.34-.33c1.3.27,2.87.36,4,1.29-1.1-.17-2.11-.4-3.23-.51Z"/>
      <g>
        <path d="M262.43,190.47c-.21.55-.74.66-1.19.45l1.19-.45Z"/>
        <path d="M251.49,189.41c-.02-.05.36-.08.35-.03l-.09.44c-.02.08-.23-.31-.26-.41Z"/>
      </g>
      <g>
        <path d="M255.52,176.75c1.97.28,1.84.58,3.54.92.49.1,1.17-.65,1.57-.78l1.18-.4c.82-.28,1.39-.51,2.06-1.02l1.86-1.4c.17-.17.18-.2.28-.23,1.03-.29-1.36,2.95-4.38,4.02-1.94.69-3.83.88-5.72.02-.35-.16-.62-.89-.39-1.14Z"/>
        <path d="M250.72,169.92c.01.7.08,1.32.04,1.93-.73-1.87-.09-4.78,1.01-6.42l1.17-1.74c.49-.73.66-.9,1.58-1.06,2.79-.49,3.52-1.77,7.61.26-1.16-.14-2.24-.59-3.36-.53-1.45.07-2.95.39-4.26,1.16-.95.56-1.81,1.66-2.54,2.61-.79,1.02-1.27,2.54-1.25,3.8Z"/>
        <circle cx="251.41" cy="173.72" r=".11"/>
      </g>
    </g>
  </g>
  <circle cx="124.32" cy="161.46" r=".11"/>
  <g>
    <path d="M262.12,100.85c.06.44.63.84.28,1.27-.73-.58-.75-1.53-.85-2.42-.23-2.01-.22-4.01.84-5.77l.73-1.2c.34-.57,1.07-1.25,1.64-1.66,1.46-1.07,5.21-1.51,6.54-.41-2.97-.16-5.54.54-7.49,2.71s-2.15,4.46-1.7,7.48Z"/>
    <g>
      <g>
        <path d="M228.77,91.34c-.6,3.2,2.11,5.44,2.07,5.57l-.18.56c-.92-1.09-1.78-2.1-2.16-3.39l-.37-1.24c-.63,1.2-.71,2.24-.93,3.51-.52-1.4.27-2.64.39-3.93l.25-2.7c.32-3.43,2.88-7.15,7.16-7.08,1.55.02,2.5.55,3.84,1.06l-3.05-.15c-1.55-.07-4.92,1.78-5.77,3.54-1.01,2.09-.75,1.58-1.25,4.25Z"/>
        <circle cx="233.9" cy="99.34" r=".27"/>
        <path d="M233.05,98.39c-.04-.06.34-.14.37-.07l.09.25c.02.06-.23.16-.27.11l-.19-.28Z"/>
        <path d="M232.31,98.23s.29.04.28.09-.04.14-.06.2c-.02.05-.19-.22-.22-.3Z"/>
      </g>
      <g>
        <path d="M248.02,95.42c-1.29.26-2.98,1.42-3.87,2.4l-1.39,1.53c.21-.76.59-1.63.72-2.41.14-.87.36-1.04,1-1.51,1.55-1.14,3.17-1.65,5.14-1.76.78-.04,1.35-.13,2.07.39,1.22.87,2.01.8,2.26,1.45.17.45-1.33-.03-2.08.21-.77-.52-1.37-.79-2.29-.6l-1.56.31Z"/>
        <path d="M244.23,108.44c-.88-.53-1.85-1.11-2.42-1.96l-.86-1.26c-.16-.24-.9-2.9.08-3.84l1.3-1.25c.75.56-.67,1.2.18,3.75.19.57-.1,1.53.16,2.07.58,1.25,1.22,1.57,1.56,2.48Z"/>
        <circle cx="255" cy="96.94" r=".11"/>
      </g>
    </g>
  </g>
  <g>
    <path d="M211.96,52.12s.35-.03.39-.08c.05-.07.06.28.06.41,0,.06-.1.1-.14.05l-.31-.38Z"/>
    <g>
      <path d="M201.67,47.94l-1.03-.69c.28-1.18-.79-.8-.65-3.08.25-3.93.22-4.71,3.16-7.72.39-.4,1.19-.59,1.73-.83l.66-.72c1.35.18,2.78-.11,3.92.93-2.77-.58-4.96.27-6.64,2.16-1.17,1.32-1.96,2.6-2.08,4.47-.07,1.06-.32,2.26.19,3.26.36.71.61,1.2.74,2.21Z"/>
      <path d="M220.48,39.97c-1,.74-1.52-.41-3.93.63-.44.19-1.05.24-1.34-.16,1.31-.95,3.7-1.22,5.27-.47Z"/>
      <path d="M211.22,51.09l.41-.08c.07-.01.16.25.1.28l-.27.1c-.1.04-.34-.28-.24-.3Z"/>
      <g>
        <circle cx="192.09" cy="33.27" r=".24"/>
        <path d="M204.2,33.46c0-.06.32.04.3.1l-.1.35c-.03.09-.18-.29-.2-.45Z"/>
      </g>
    </g>
    <g>
      <g>
        <path d="M180.05,49.65c.41.66.68,1.27,1.33,1.6l-.65-3.83-.15-2.63c-.04-.71,1.02-1.36,1.29-1.91l-.04-.77c-.05-.96,3.39,1.48,3.72,2.02l-.75.48c.3,1.47,1.3.74,2.99,1.34-.46-.47-.93-1-1.08-1.43.7-.59.58-1.17.74-1.89.13-.61.54-1.13-.12-1.77l1.01-.96c-.17-.87.09-1.42.86-1.94-.15-.72-2.89-.31-3.71-.2-1.36.19-2.69.78-3.7,1.67-1.36,1.2-1.75.56-3.18,2.48-1.79,2.41-2.07,5.76-.61,8.33.81,1.43,1.08,1.16,1.31,1.89.03.1-.46.06-.52-.03l-1.35-1.91-.68-1.05c-.89-1.37-.81-2.9-.9-4.47-.04-.73-.06-1.24.53-1.76l.55-1.47.94-1.93.85-.73c.59-.5,1.55-.77,2.33-1.02,2.03-.65.54-.68,3.08-1.18,1.33-.26,3.06.13,3.45-.34s-.39-2.34.84-3.52,2.49-2.38,4.29-2.66l2.91-.45c-.49.78-1.51.41-2.25.78-2.72,1.35-3.59,2.93-3.81,5.9-.18,2.53,3.17,1.12,3.94,5.6.12.7.36,1.37-.01,2.13-.08.17-.09.76.1.78.46.07.66-.55.68-1.04.23-.27,1,.11,1.11.54-.97.23-1.37.87-1.82,1.64-1.27,2.19-.14,2.97-.54,5.12l-1.27-1.54-.29,1.47c-.15.76-.81.98-1.41,1.4-.31.28-.53,1.16-.97,1.36-.65.3-.77.79-1.08,1.34-.39.71-.88,1.45-1.19,2.19-.4.93-.73,2.04-1.83,2.37l-1.27-1.02c.14.77.73,2.62,1,3.1l.02,1.08c-.82-.48-1.28-4.07-1.7-4.77l-.76-1.28-.71-1.38c.18-.12.51-.35.51-.47,0-.33-.3-1.03-.56-1.28l-.26,1.34c-.67.23-.55-1.04-1.07-1.56l.73-.26c.39-1.07-.2-1.84-.82-2.62-2.11-2.66-2.22-6.65-.11-9.29-1.37,2.68-1.58,5.76.02,8.4Z"/>
        <path d="M196.25,57.76l-1.66-.89-.67-1.63c-.34-.81-.59-1.61-.31-2.53l.73,2.03c.12.34.54.76.72,1.06l1.18,1.96Z"/>
      </g>
      <path d="M180.43,40.58s.14.21.1.25-.13.13-.17.17-.23.03-.2-.01l.26-.4Z"/>
    </g>
    <g>
      <path d="M228.44,54.32c.25.72.72,1.27.66,2.09-.54-.76-.84-1.53-1.23-2.36l-.3-.04c-.36-.05-.41-4.12.21-5.79.74-1.99,2.23-3.74,4.29-4.23,1.48-.35,3.21-.38,4.58.36-1.31-.12-2.42-.34-3.69-.02-2.04.51-3.49,2.14-4.38,4.04s-.87,3.89-.14,5.95Z"/>
      <g>
        <path d="M232.64,67.73c-.03.79-.9,1.12-1.52,1.03-.42,1.22-1.47,1.53-2.71,1.74-3.37.57-3.63.71-7-.14-.48-.12-1.31.06-1.74-.37s-.81-.65-1.38-.89c-.23-.34-.67-1.08-.86-1.48l-.06-3.41c-.01-.68-.12-1.35.07-2.04.34-1.24.59-2.45.72-3.75.22-.24.78-.54,1.04-.78,2.38-2.24,2.87-2.15,6.55-2.41.15-.82-.05-1.68-.1-2.53-.39-6.66,1.54-3.8.82-7.3,1.02-2.29,4.24-2.71,6.53-2.92.56-.05,1.42.36,1.94.67-3.59-.48-7.18,1.41-8.47,5.1-.61,1.76-.84,3.67-.05,5.41.33.72.68,1.61,1.21,2.16l1.21,1.24c-3.29-.83-6.28-.17-8.58,2.25-.51.61-.66,1.79-1.18,2.49-.73.99-.74,1.51-.55,2.93s-.19.78,1.49,2.15c.67-.71,1.24-.64,1.97-.62.8.02,2-.91,4.59-.77.86.05,1.5-.03,2.29-.39l1.71.57c.24.08.57.47.82.69.39.35,1.28.45,1.24,1.37ZM219.07,67.4l-.31.63.38.19.31-.63-.38-.19Z"/>
        <circle cx="232.12" cy="61.81" r=".19"/>
        <rect class="cls-1" x="218.76" y="67.59" width=".7" height=".43" transform="translate(62.02 234.93) rotate(-63.97)"/>
      </g>
    </g>
  </g>
  <path d="M277.37,254.72c-2.49.23-4.84,1.76-6.27,3.89-.8,1.19-1.07,2.7-1.19,4.1l-.16,2c-.31-2.86-.2-3.29.38-6.15.31-1.51,1.55-3.05,2.8-3.87,2.13-1.39,3.11-1.45,5.64-1.28.9.06,1.76.64,2.56,1,.51.23.94.41,1.21.87-.82-.13-1.52-.47-2.26-.53-.88-.07-1.82-.12-2.71-.04Z"/>
  <g>
    <g>
      <path d="M149.67,132.72c-1.01-.26-1.98-2.82-2.12-3.73-.28-1.89,0-3.53.99-5.12.48-.78,1.28-1.34,1.97-1.94.54-.48,1.22-.55,1.89-.76.75-.23,1.42-.53,2.26-.53,2.62-.02,1.83-1.1,6.59.87-.7.59-1.26-.17-1.8-.35-1.98-.66-4.12-.39-6,.26-1.27.44-2.15,1.01-2.99,1.99-2.26,2.64-2.62,6.03-.79,9.3Z"/>
      <g>
        <path d="M178.84,132.92c-2.01.43-.5.48-2.21,1.35-.51.26-1.36.43-1.87.48-.19.1-.51.46-.7.53s-.57-.21-.74-.37c-1.27.27-2.63.29-3.92-.06l-1.33-.36c-1.24-.34-2.09-1-2.92-1.97-.4-.48-1.17-.94-.63-1.75.37-.56,1.33-1.2,2.02-1.01,2.16.62,3.63.08,4.08.12l1.52.13c.44.04.68-.07,1.09.04l3.26.91,1.1,1.14c.55-.52,1-.77,1.62-.67l-.39,1.49Z"/>
        <path d="M165.68,124.91c-.23.7-.23,1.08-.79,1.39-.07-.48-.25-1.46-.02-1.85.39-.65,1.62-2.52,2.15-2.8l1.6-.83c2.3-1.2,5.01-.91,7.2.31.46.26.82.41,1.11.86l-1.99-.7c-1.12-.39-2.44-.37-3.61-.31-1.99.11-3.52,1.16-4.69,2.71-.25.34-.84.85-.96,1.22Z"/>
      </g>
    </g>
    <path d="M165.67,121.05c.19.02.12,0-.07,0-.4-.04-.37-.04.07,0Z"/>
    <g>
      <path d="M171.53,149.45l.25.2c.06.05.19-.08.31-.14l.3-.15c.07-.03.11.44.05.48l-2.82,1.59c.34,1.07.82,1.93,1.37,3.1-.53-.1-.75-.53-1.02-.94l-.98-1.5c-.18-.05-.34-.04-.38-.14s-.1-.52-.17-.65c-.47-.89-1.1-2.24-1.01-3.3.18-2,.99-4.76,2.6-5.87.2-.13.5-.68.72-.78.47-.2,1.27-.68,1.73-.76l3.09-.56c0-3.22.73-4.84,3.32-6.38.36-.22.82-.64,1.24-.74,1.92-.44,3.79-.4,5.68.05,1.3.31,2.61.58,3.58,1.53-3.64-1.26-5.67-2.17-9.04-.05-2.39,1.5-3.23,3.64-3.52,6.45,1.41.13,2.57.35,3.94.8-.83.44-1.34-.36-2.16-.37-1.58-.01-3.45.09-4.81,1.03-.88.61-1.79,1.44-2.5,2.24-1.36,1.56-1.8,3.72-2.1,5.65l1.26-.71c.11-.06.35-.24.45-.31.13-.09.45.11.59.22Z"/>
      <circle cx="185.68" cy="144.58" r=".19"/>
      <g>
        <path d="M177.58,156.37c-.25,1.08-1.71,1.49-1.79,1.08-.02-.08.03-.27.11-.26l.5.08c-.09-.15-.29-.29-.29-.43-.01-.3.36-.78.92-1.03.19-.08.6.35.55.56Z"/>
        <path d="M172.92,154.46h-.43c-.05,0-.2.1-.16.13l.34.25c-.1.08-.55.03-.66-.12-.13-.18-.05-.7.1-.87l.26-.29c.05-.05-.08-.2-.18-.39.05-.17.55-.18.73-.05.25.19.49.68.35.89l-.26-.26s-.07-.3-.1-.26c-.06.08-.19.22-.17.29l.18.67Z"/>
        <path d="M182.49,142.55c-.64.19-1.3-.09-1.6-.7.57,0,1.06.2,1.6.7Z"/>
        <path d="M172.2,155.18c-.34.64-.98.05-1.06-.46.34.02.79.18,1.06.46Z"/>
        <path d="M180.71,157.26c0,.22-.65.23-.7,0,.01-.2.56-.21.7,0Z"/>
        <circle cx="171.8" cy="149.3" r=".11"/>
      </g>
      <g>
        <path d="M189.77,137.56c-2.8,2.8-.7.66-1.69,2.91-.73,1.68.42,5.63,1.45,7.45-.94.18-1.41-.63-1.84-1.27-.98-1.46-1.41-3-1.61-4.73-.45-3.84,2.52-4.57,4.52-5.94.51-.35.87-.62,1.54-.67,1.65-.12,3.57-2.6,8.35,1.69-.19.13-.56.3-.62.19-.59-.98.21-.47-1.45-1.12l-1.55-.61c-1.19-.47-1.73.38-2.6.53-.68.12-2.49-.42-4.49,1.58Z"/>
        <path d="M195.4,140.01c-.19.41-.04,1-.47,1.17.15-1.18.48-2.34,1.39-3.13l-.92,1.96Z"/>
        <path d="M196.89,141.55s.24-.01.27.03l.15.18s-.22.13-.25.08l-.18-.3Z"/>
        <path d="M195.02,141.51q0,.4,0,0,0-.21,0,0Z"/>
        <circle cx="195.02" cy="142.53" r=".11"/>
      </g>
    </g>
    <g>
      <path d="M164.81,120.46s.2.11.23.16.05.12,0,.13c-.05,0-.33.01-.38.02-.08,0,.1-.24.15-.3Z"/>
      <g>
        <g>
          <path d="M174.82,109.92c-2.85-1.89-1.74-4.18-4.67-5.05-1.33-.39-2.65-.7-4.04-.47-2.61.44-4.79,1.85-5.98,4.23s-1.52,4.27-.72,6.83l1.59.67-.86.28.3.84c-.78-.28-1.24-.83-1.79-1.5-.38-.45-.82-.87-.83-1.56-.08-3.23-.26-2.37.61-4.44l.82-1.94c.47-1.13,1.3-2.06,2.17-2.93,1.59-1.59,3.97-2.14,6.01-1.65l1.7.41c.77-.71-.03-1.57.22-2.23.36-.92.95-1.84,1.49-2.79l-1.05-2.6c-.61-1.5-.49-3.44.08-5,.32-.87.87-1.78,1.41-2.49.58-.76,2.63-1.72,3.58-1.99l2.04-.56.92.78c-.66.44-1.07.38-1.78.17l-1.19.73,1.3-.28c-1.54.64-2.58,1.53-3.5,2.85-1.15,1.63-1.38,3.31-1.41,5.4-.77-3.14,1.02-5.95,3.56-7.89-2,.64-3.27,2.5-3.87,4.38-.7,2.21-.38,4.64.6,6.57.07.13.29.3.38.35s.16-.23.24-.5c.76.37,1.01-.51,1.53-.79,1.09-.59,2.27-1.15,3.46-1.63.53-.21,1.19-.3,1.69-.54.25-.12.69-.36.9-.3.24.07.62.39.88.59,1.25-.38,3.57.75,4.63,1.5-.75.24-1.13-.36-1.71-.5-3.2-.77-7.71.15-9.61,3.21-.26.42.1,1.65-.89,1.64l-.3,1.41c-.33,1.55.19,3.1.95,4.4l.83,1.45c.19.33.49.52.33.92ZM180.22,96.13c.02.1.06.31.12.25l.19-.22s-.32-.08-.31-.02Z"/>
          <g>
            <path d="M171.71,97.81c-.05-.24-.05-.54,0-.88.05.24.05.54,0,.88Z"/>
            <path d="M171.34,96.05c.04.44.05.47,0,.07-.02-.19-.02-.26,0-.07Z"/>
          </g>
          <path class="cls-1" d="M180.22,96.13c0-.05.35-.02.31.02l-.19.22c-.06.06-.1-.15-.12-.25Z"/>
        </g>
        <g>
          <g>
            <path d="M175.51,84.16c.25.49,1.15.81.74,1.56-1.29-1.45-2.35-3.18-2.45-5.09-.16-3.02.22-3.91,2.19-5.86.39-.39.69-.74,1.31-.55-.44.54-1.04,1.03-1.41,1.6-1.66,2.5-1.74,5.71-.38,8.35Z"/>
            <path d="M178.14,73.76c-.09.03-.36.07-.44.08s-.13-.24-.06-.28l.33-.15c.77-.35,1.55-.68,2.45-.56l-2.27.9Z"/>
            <circle cx="190.56" cy="80.66" r=".11"/>
          </g>
          <g>
            <path d="M168.53,65.71c.95,2.43-.92,3.9-1.3,5.93l-.54,1.17c.4.27.74.53.48.91l-1.25-.86-.89-2.25-.57-2.52c-.85,2.96.29,2.69.99,4.55-3.21-1.54-1.79-3.96-1.45-6.39.1-.69.2-1.42.42-2,.06-.15.41-.47.34-.61l-.36-.66c2.87-1.43.83-2.72,5.22-4.31,1.02-.37,3.67.44,4.8,1.04l-3.17-.28c-2.97.73-2.91.94-4.84,2.85l-1.14,1.14c.64.08.91-.28,1.32-.66l.91-.82c.3-.27.97-.44,1.16-.22-.18.69-.12,1.2-.07,1.86.03.5-.19,1.8-.05,2.16ZM164.9,66.06l.52-1.59c-.83-.47-1.29,2.55-.95,3.07l.43-1.48Z"/>
            <path class="cls-1" d="M164.9,66.06l-.43,1.48c-.34-.52.12-3.54.95-3.07l-.52,1.59Z"/>
          </g>
        </g>
      </g>
    </g>
  </g>
  <g>
    <path d="M218.83,144.88c-.65,2.13-.54,3.75.27,5.91.11.3.41.55.39.98.47.32,1.04.62,1.71.96l-.19.42,1.01.67c-.46.56-.88.12-1.3-.25-.86-.77-1.86-1.49-2.36-2.57l-.69-1.49c-.25-2.19-.09-4.31.45-6.38,1.54-1.17,2.61-2.54,3.57-4.19l2.37-1.02,2.8.27c.1,0,2.21,1.03,2.39,1.4l-2.95-.4c-1.57-.21-.96.59-2.59.57-.6,0-.96.52-1.4.81-1.85,1.23-2.78,2.03-3.48,4.3Z"/>
    <g>
      <g>
        <path d="M225.03,125.09c2.17-1.58,3.51-1.98,6.18-2.16-2.3-.81-4.54-.02-6.51,1.2-2.41,1.49-3.88,4.34-3.2,7.22.4,1.72,1.22,2.98,2.3,4.53-.9-.38-1.7-1.02-2.06-1.83l-1.12-2.48c-.54-1.2-1.09-1.46-.4-4.17,1.03-.82,1.86-1.59,2.46-2.7l.74-.27c2.32-1.56,4.51-3.15,7.37-2.09.48.18,1.17.04,1.69.08,1.36.12,2.68.66,3.77,1.37-2.06.21-.84-.55-3.12-.42-.69.04-1.48-.04-2.22.07-3.54.53-6.97,4.16-6.15,8.25.39,1.96,1,3.64,2.51,5.23-.54.12-.75-.31-1.04-.66-1.69-1.96-2.92-4.24-3.23-6.79-.16-1.31.33-2.25,1.11-3.22.27-.34.53-.86.94-1.16Z"/>
        <path d="M244.46,120.09c-2.38.92-4.59,4.43-4.53,7.02-2.07-.82.55-5.65,1.37-6.77.43-.58,1.07-1.14,1.64-1.59.84-.65,1.93-.71,2.98-.79.84-.07,3.56.34,3.81,1.28-1.39-.16-3.19-.07-4.28.5-.15.08-.35.63-.47.58l-.53-.23Z"/>
      </g>
      <path d="M205.58,136.46c.1,1.5.68,2.7,1.42,4.14-.9-.26-1.2-1.19-1.7-1.96-.73-1.12-.92-2.62-.67-4.01.34-1.92.79-1.73,2.25-3.99.12-.19.45-.42.64-.54l3.12-1.85c1.49-.89,3-1.15,4.74-.61l2.02.62c.1.03.22.41.26.5.24.5-2.78-1.12-4.63-.69-1.25.29-2.37.77-3.5,1.29-2.25,1.03-4.41,4.34-3.94,7.11Z"/>
    </g>
  </g>
  <g>
    <path d="M160.32,173.43l-.07,2.55c-.77-1.95-.69-4.86.14-6.85,1.12-2.68,3.93-4.45,6.8-4.39,2.09.05,4.08.67,5.67,1.91-2-.72-4.06-1.21-6.06-.67-3.46.93-6.38,3.69-6.48,7.44Z"/>
    <path d="M139.42,179.39c-2.28,2.31-3.58,4.45-3.34,7.78.04.49-.1,1.14-.25,1.75-.92-1.45.07-5.36.78-6.68,1.1-2.02,3-4.54,5.24-5.3,2.38-.81,5.81-.24,7.49,1.94-3.24-1.36-4.9-1.93-8.15-.6-.66.27-1.28.6-1.78,1.11Z"/>
  </g>
</svg>