<?xml version="1.0" encoding="UTF-8"?>
<svg id="Layer_2" data-name="Layer 2" xmlns="http://www.w3.org/2000/svg" viewBox="0 0 432 288">
  <defs>
    <style>
      .cls-1 {
        fill: #fff;
      }
    </style>
  </defs>
  <path class="cls-1" d="M-.07,287.63V-.37h432v288H-.07ZM173.04,167.81l-1.01,1.23c.2.02-.04,0-.28-.03l.07-.87-.34.64c-.05.1-.08.44-.17.48l-.41.15c-.12.04-.36.26-.45.35-.06.06.06.4.14.37l.45-.16c.07-.02.42-.06.38,0l-.27.38c-.24.33-.68,1.02-1.03,1.09-.46.09-1.19.02-1.52-.17l.98-.93c-.18.17.66-2.02.39-1.08.05-.19-.77,0-.86-.72l-.33.03c-.07,0-.31,0-.27-.05l.28-.35c.5-.14.76-.37.17-.32l-.65-.32c-.12-.06-.42.23-.47.35l.35.45c.21,0,.02,0-.54,0-.29.34-.59.83-1,1.66l.95-.08-.64.92-1.56-.98c.39.79.64,1.15.72,1.58.06.31-.44.8-.64,1.12l-.91,1.48-1.92,3.11-1.73-1.03,1.18,1.48-1.7,1.58c-.4.37-.67,1.15-1.36,1.4-.34.13-.59.62-.54.91l.13.64c.05.27-1.01.04-.89.33.03.08.14.35.18.41l.27.41c-.06-.09-2.03,3.07-2.54,3.57-.14.24-.41.79-.55,1.06-.08.15-.62.23-.74.11l-.41-.45c-.15-.17-.25-.34-.33-.25l-.24.25c-.14.14,1.16.85.92,1.14-1.59,1.89-.79.46-1.38,2.24-.05.16-.54.43-.43.55l.53.58c-.5.07-1.11-.05-1.32.2l-.96,1.19-.24-.5c.27-.43.21-.46-.08-.29l-.76,1.53c1.88,1.14,1.34-.06,2,.84.57.77-1.3,1.27-.49,1.96.53-.26.85-.6,1.29-1.14.97.31,2.15,1.08,2.86,1.73l-.87,1.19c-.43.6-.79,1.28-1.17,1.91l-1.62,2.71-1.38-1.34c-.55-.53-1.12-.16-.58-.5l1.09-.37-.44-.34c-.78.25-1.4.14-1.97-.24l-1.25-.82c.32.96.79,1.98,1.29,2.89.67-.09,1.66.06,2.08.41l-.33.43c-.05.07-.09.1-.03.13l.49.16c.09.03.38-.22.41-.32.01-.04,1-.42-1.57,3.85l-.91,1.52c-2.31-1.36-2.63-1.51-2.68-3.87-.31,0-.43,0-.34,0l-.41,4.05-.52,6.15-.32,3.35-.3,4.04c-.1,1.31-.53,2.45-1.38,3.4-1.66,1.87-3.18,3.71-4.44,5.89-.48.83-.45,2.03-.72,2.91-.98,3.22-.77,5.05.43,8.32l.86,2.35c1.75,4.77.9,4.91-.35,10.42l4.85.69c.88.12,1.96.12,2.83-.33.29-.46.13-1.61-.16-2.1l-2.01-3.38c-.31-.52.05-1.37.59-1.48,1.66-.34,2.74.5,3.99,1.27,2.2,1.35,5.37,2.38,7.91,2.95l3.91.87c1.23.27,2.33.94,3.46,1.49.56.27,1.72.25,1.84,1.1.18,1.28-1.76,2.26-1.06,3.57.89.02,2.29-.19,2.59-.78.67-1.3.26-2.7.44-4.03l.31-2.38.48-3.52c.44-3.19.83-3.85,1.34-7.32.36-2.45,1.23-4.83,2.28-7.11,2.32-5.04.99-3.92,2.03-8.94l1.42-3.42c.06-.15.36-.43.45-.56.07-.1-.15-.48-.13-.6l.26-1.35c.03-.17.63-.39.68-.22l.27.93c-.15,0,.04,0,.39.02l.69-.81c.78-.93,1.06-1.41,1.05-2.73l1.15-3.03c.07-.18.37-.46.67-.69.4.64.09,1.54-.21,2.34,2.37-1.57,1.04.11,3.68-2.76.45-2.04,2.03-2.74,3.7-3.57s3.09-1.83,5.1-1.53c.65-.36,1.73-.95,2.25-1.31.74-.81,1.16-1.48,2.44-1.54l.08-.3-.45-.38c-.05-.04-.24-.15-.31-.2-.1-.07-.19-.57-.07-.54l.37.08.21-.22,1.58-1.66.04-.51c0-.11.41-.18.49-.27l1.84-1.91,1.55.43c0-.11-.01.34-.02.55l-3,2.02c-.16.11-.2.39-.22.92-.01.02.14-.19.32-.44l2.67-1.99c.18-.13.63-.15.68.04.05.21.16.73.24.93.47,1.15.68,2.69,1.03,3.85.56,1.83,3.08.64,4.25.25l5.8-1.91c4.6-1.52,1.53-1.58,5.59-3.44,1.24.86,1.34,2.46,3.18,2,.41-.11.98-.65,1.26-1.04-.21-.5-.31-.74-.2-.46-.43.62-.76.99-1.14,1.17-.33.15-1.31.03-1.48-.29-.49-.91-.63-1.98-.75-2.86l-.55-.1c-.12-.02-.04-.45-.02-.59.08-.65.36.23,1.24.61.65.28,2.44-2.93,2.93-2.49.4-.05.63-.07.49-.06l-1.06-1.56c.59-.21,1.28-.4,2.31-.62l-.06-1.51c-.01-.37.67-.86,1.22-.94-.22,3.38-1.09,2.35-1.72,5.67l-.12.65c-.01.08.15.03.31.01l.63-1.35c.48-1.01,1.33-1.85,2.63-1.86l-1.38,6.68c-.24,1.18-.36,2.39-.51,3.59l-.48,3.86-1.69,10.52-.47,3.39c.37.75,1.54,1.37,2.27,1.82.93.57,1.85,1.53,2.86,1.82,1.51.45,2.85.92,4.24,1.58,0,.91,0,1.76-.12,2.52l-.79,5.22c-.14.92-.2,2.62.04,3.46l1.28,4.55,1.38,1.88c.08.11.27.36.27.36,0,.24.26-.68.23-.72l-1.58-2.37c-.41-.62-.76-1.99-.56-2.71l.97-3.48c-.98,1.01-.73,2.21-1.45,3.38-1.06-4.06.47-1.18.64-4.16l.1-1.83c.01-.22.39-.63.59-.69s.71.12.68.32l-.13.88c-.07.47-.32,2.59.09.41l.72-1.09c.13-.19.05-.8.13-1.05.25-.83.62-1.72.58-2.46l-.87,2.21-.17.43c-.04.09-.47.01-.55-.04l-.75-.56c-.14-.1.3-.59.36-.76l.66-1.73.11-1.22c0-.1.44-.42.53-.36s.14.1.42.28l.78-1.12c.19.33.08.92-.08,1.53l-.14.52c-.02.07.16.06.19,0l.21-.45c.27-.58,1.09-1.57,1.7-1.38s1.43.4,1.83.61l2.52,1.37c.17.1.29.19.27.12s-.08-.54-.14-.57l-2.76-1.45c-.18-.1-.45-.48-.5-.67-.26-.92.38-.11,1.64-1.09.76-.58,1.52-.88,2.28-.88.27,0,.62.5.85.88l.65-.85c2.4,1.55,3.13.66,3.95,2.19.06.12.44.36.5.22l.45-.98.24.57.75.03c.8.03-.71.64-.08,1.93l.78-1.24,1.5.56c.21.08.53.22.69.3.11.05-.31.46-.36.58l-1.19,3.27c-.06.18-.19.41-.27.53-.05.09-.28.1-.72.21-.06-.1-.05-.08.22.34-.17.45-.55,1.2-.76,1.76l-.19.52c-.05.13-.48.22-.54.34l-.53,1.04c-.12.23-.07.71-.04,1.19l-1.05.28c.59-.16-1.78.65-.27.39l.2.42-1.3-.1c1.31,2.33.16.67.58,2.06.02.06-.01.05-.39.07l-.53,1.96c-.21.77-.89,1.79-1.28,2.44.26-.44-2.32,5.45-2.83,5.97-.5.51-1.48,1.21-2.1,1.69-.06-1.53-.71-2.67-2.06-3.22l1.9,3.63c.37.72.66,1.35,1.12,2l.7.98c.96-.32-.43.48,1.11,1.51,1.07.72,1.49,1.72,2.1,2.79.28.49.79,1.06.96,1.61,1.39,4.66,2.09,4.03,4.53,8.21.81,1.38,2.44,1.71,3.69,2.57l1.92,1.32,2.92.44c1.11.17,4.18.46,5.15,0,.42-.37,1.2-1.18,1.74-1.04,1.93.49,3.58.65,5.51.81.8.06,1.18,0,1.87-.43l2.73-1.69,1.99-16.46.24-3.35.4-3.86,1.24-11.97.44-4.1c.94-8.68,2.79-8.61-.41-18.48-.56-1.71-1.09-3.29-1.47-5.04-.88-4.12-2.04-7.96-3.34-11.99l-5.55-17.23c-1.03-3.19-1.96-6.79-2.24-10.07l-.22-2.65-.21-2.89-.6-6.05c-.25-2.51.07-8.67.07-8.72-.15-.98-.1-1.77-.03-2.75.28-4.18.97-3.1,1.54-6.63,1.07-.28,1.75-.95,1.82-2.09l2.05-1.25c.72.95,1.15,1.88,1.89,2.57s1.6,1.22,2.13,2.19c.51.92,1.12,1.7,1.89,2.42l.44.41c.65.61-1.59-4.77-1.71-5.1l-3.23-8.73c-1.87-5.06-2.7-10.27-4.51-15.44l-5.04-14.41c-1.2-3.43-2.47-6.71-3.89-10.05-.69-1.62-.71-2.88-.69-4.6.03-1.63-1.31-3.35-2.03-4.85l-3.89-8.11-2.95-6.16c-.94-1.96-2.13-3.56-3.24-5.43l-7.06-11.9-4.69-8.04c-.83-1.41-2.23-2.47-3.66-3.26-2.13-1.17-3.99-2.44-5.88-3.96l-.92-.74.52-1.87c-.43.17-.89.34-1.15.39-.47-2.23,1.3-2.06,1.15-3.2-.04-.32-.41-.86-.6-1.21l-.81-1.56.25-.3c.09-.11.11-.14.05-.14-1.41-.04-.82-1.3-3.05-3.55-.36.11-.81.44-1.24.79l1.56.17c-.37.32-.98.74-1.26,1.06l-1.92,2.22c-.6.69-.88,2.12-2.07,2.09-.89-.85-1.99-2.06-3.03-2.78-.3-.21-1.03.37-1.1.7-.07.38-.07,1.19.22,1.37l1.36.84c.9-.48,1.8-.17,2.17.83l-2.08,1.98c-.3.28-.68,1.09-.96,1.42-1.08,1.31-4.99,6.28-4.73,7.64l1.84,9.77c-1.92-1.71-4.04-3.46-5.56-5.14-.1-.12-.29-.54-.43-.57-.59-.15-1.04-1.12-.9-1.78-.23-.37-.66-1.03-.81-1.43l-.6-1.62c-.05-.13-.31-.41-.24-.5l.31-.45-.78-.76c-.09.12-.65.5-.91.41-.22-.08-.55-.47-.78-.6-.83-.46-1.64-.99-2.5-1.63l-2.92-2.2c-.14-.11-.26-.76-.42-.74l-.59.07-.96-1.88c-.14-.27.06-1.02.26-1.09l-2.73-1.12c-1.89-.78-2.61-2.78-1.59-4.63.32-.58.2-1.59.27-2.18.2-1.64-.03-2.58-1.47-3.46.24.15-4.98-3.52-4.48-3.1-1.55-1.3-3-2.7-5.22-2.28.38,1.01,1.29,1.38,2.15,1.45.08.23.08.5.22.51l.72.03c.97.05,2.17.72,2.93,1.42-2.78,2.24-2.56,2.06-2.17,5.49l.12,1.1c.04.35-1.4.4-1.42,1.04l-.05,1.19-2.49-1.52-1.52.23.08,1.31c1.55,2.66-.32,2.96.12,4.57l-1.64.2c-.12.01-.33.61-.25.69l.32.34c.09.09.27-.22.35-.28l.44.09c.08.02.02.19-.02.3l-.35.8c-.06.13-.62.09-.68.05,0-.22.11-.66-.04-.71l-.64-.18c.03-.55-.02-1.04-.42-1.67l-.4,1.2c-.04.11-.02.37-.1.36l-.59-.06,1.98,1.48c-.48.23-.59.27-.69.17l-.6-.61-.95,1.05c-.56-.5.52-3.81,1.1-4.07-.8-.14-.69-.21,0-.35-.3-3.52.61-2.71,1.09-5.9l.74.37-.16-1.54c.41-.53.58-1.06.72-1.78.28.08.86.34.82.17-.03-.13-.05-.85-.16-.92l-4.97-2.89-4.74-3.69c-.81.55-1.22,1.91-.78,2.59.38.08,1.22.05,1.31.33l.36,1.11.17-.73,1.25,1.95c-1.01-.2-1.75-.53-2.52-.99-.08-.06-.17-.12-.16-.05,0,.07.05.32.07.41l.87,3.14,1.41,5.38c.27-.15.6-.44.79-.39l.78.23c.53-.37,1.48-.46,2.01.07l.58.43c.14.11-.04.69-.09.89-.92,3.56.07,1.87-1.31,5.08l-1.46-1.93-.66.14c.6,2.13,2.3,2.22,1.96,3.33-.62-.59-.92-.83-1.62-1.2v1.53c.12.5.15.53.09.03l.24-.82c.03-.09.33.18.31.27l-.51,2.04c.47.06.68-.01.71.14l.16.75c.11.51-.4,1.18-.41,1.58-.03.76.07,2.13.13,2.88l.25,3.48c-.7.38-1.57.71-2.42.97l-.36-3.74-.25,3.33-.92-.11c-.11-.01-.03.27,0,.67l-3.24.22-.17.15-.26-1.04c-.16.57-.02,1.7.29,2.16.06.09.45.21.37.29l-.22.21c-.35.35-.46-.76-2.42-.45-.13.02-.59-.09-.51,0,.54.7-.6,1.24-.25,1.61l.67.71c.06.06.29.22.37.2l.37-.1c.07-.02-.16-.16-.47-.39l.28-.23c.54-.24.97-.4,1.59-.55l-.26,1.27-.3-.48c-.04-.06-.09.27-.13.33l-.18.32c.39.06,1.13.12,1.13.42v1.04s-.66-.39-.66-.39c-.09-.05-.2.28-.14.36l.3.38c-.22.56-.28.82.27.22.39.46.4,1.07.46,1.76.08.85.15,1.49-.7,1.9-.93.45-1.11-.9-1.98-1.11-.09-.02-.1.19-.04.25l.32.35-.18,1.78,4.62-2.21c-.5-.2-1.02.02-1.46.32l-.25-2.65.67-.32c-.91-.39-1.22-1.72-.75-2.52.63.25.71.18.11-.33.5.01.74.09.85-.09l.56-.93.58.72.82-.28c.24-.08-1.03-1.21-.62-1.31l.81-.18c.31-.04.27.03-.23.52.45.63.9,1.2,1.37,1.73.12.15.29.41.33.31.03-.06.22-.29.21-.37l-.18-1.4,1.18-.38-1.38-1.19,2.3-1.05c-.01.89-.06,1.15.15,1.79.32,1,.87,4.72-.08,5.21.82-.42.61,1.64.84,2.9l.4,2.15-.65-.09c-.07,0-.06.12-.03.19l.11.36c-.71-.26-2.13.6-2.74,1.42l-.17-2.04c-.54,3.83-3.09,1.43-3.92,4.09-.53-.38-.12-1.34-.23-1.77-.35-1.29-.39-2.3-.12-3.79-.04.03-.38.42-.43.52l-.05,2.54c0,.22-.57.69-.47.88.09.15.42.55.44.73l.25,2.1c-2.07-3.15-3.63-2.23-3.53-2.09.98,1.29.23,2.06,3.12,4.9,4.95,4.88,5.73,10.11,7.71,12.9.93,1.32,3.14-.11,4.01.18.57.19.62,2.28,2.18,3.8l-.4,3.55c-.01.1.34.49.29.57l-.26.38-.81,5.61c-.03.21.35.7.46.82s-.47.3-.68.39c.43.4.5,1.1.12,1.65l.07,1.14c-.21.1-.64.21-.55.38l.45.93c-.79,2.36-1.23,4.86-1.09,7.48-.89.78-2.07.58-3.06.89-1.31.42-2.52,1.37-3.77,1.91-.41.18-.91.3-1.14.48s-.24,1.01-.16,1.3c.36,1.38.62,2.65.84,3.99l.44,2.71c.22,1.33.86,2.64,1.25,3.87.27-3.43-.01-1.09-.62-3.64-.18-.77-.44-1.45.03-2.16,1.61,2.29,2.66,4.34,2.89,7.17.03.39-.15,1.24-.13,1.78l-1.95-1.22,1.06,1.71-.96,1.56,1.11-.83.35,1.14c.4-.87.4-1.32.28-2.12l.64.06c.25.03.41,3.2.12,3.74l-.81-1.95c.06,1.44.82,3.04.33,4.49l-.59,1.77.75-.99c.13,1.4-1.09,2.19-.15,2.11l-.06,2.68c-1.42,2.69.58,1.74-1.02,3.69-.33-1.04-.38-1.67-.95-2.25l.69,2.55c-1.23,1.09.23,1.47-2.32,3.14l-2.19-1.84-1.22-.43.25-2.34c-.92.22-1.77.8-2.25,1.78l-.98,1.98c-.13.27.12,1.1-.12,1.3l-.93.77c-.7,1.43-.13,1.21-1.85,1.74.42,1.43.97,2.8,1.63,4.05,2.72,1.19,3.54,2.73,6.6,4.26.45.88-1.22,1.32.43,2.89l-.39-1.49,1.36-.21c.24-.04.42-.6.48-.87l1.36-5.66.8.94c-.47.81-.58,1.48-.83,2.32l-1.14,3.77c-.16.09-.67.35-.52.33.99-.1-.78,3.24-.29,3.81.88-.75,2.25-.47,3.12-.92l5.92-4.37,1.62.69v1.16s-1.29,1.04-1.29,1.04l2.07-.36.64-.73c.12-.14.53.35.65.38.83-.93,1.69-1.66,2.78-1.96l-.13.86c-.02.17.54.41.57.58.52,3.89,2.41,2.62.96,4.92,1.1,1.56-.75,1.91.71,3.2.37.32.65.64.95,1.01l-.88-.09,1.94,2.11c-.74,1.35-1.44,2.79-2.33,4.1-2.53,3.71-1.59,3.23-2.69,5.31-.5.94-1.1,2.06-1.18,3.09l.14.56c.02.09-.47.26-.49.35l-.26,1.61c-.03.17.07.72-.08.81l-.41.26.11,1.68c.6,1.05.69,2.28-.41,3.01.6.24.83.33.38.19l-.65.51c-.08.06.17.17.27.17l.63-.02-.87,1.32c.51-.05.79-.03.71.13-.57,1.09-1.22.71-.78.97l.49.3c.08.05.22.28.26.36-.21-.43,3.4-1.39,4.97-3.3.3-.36.42-.48.79-.79l.59-.98,1.4.86,1.26-1.76c.24-.09.43-.12.51-.25s.21-.64.32-.75l1.13-1.13-1.08.39c-.21.07-.54-.28-.7-.53-.15-.38-.09-.78-.31-.85l-1.04-.31c-.35-.81.19-2,.75-2.71.4-.5.54-1.56,1.29-2,.12-.32.31-.89.36-1.17l.12-.7c.24-1.39,2.51,2.59,2.78,2.4.44-.76-2.84-3.27-1.45-3.72.82-.26,2.69-1.09,2.68-1.8v-1.1s.97,1.34.97,1.34c.72.99,2.02,1.85,1.5,3.3,1.47-.96,1.93,1.44,3.8.57.36,2.32-11.8,10.42-12.78,10.85l-1.82.79-2.37,1.74-6.43,4.18c0-.61-.1-.94-.37-1.29l-1.15-1.54c.08-.23.25-.63.14-.63h-.52s-1.43-1.87-1.43-1.87l.49,2.07-1.87,1-2.02.26c-.14.02-.56-.08-.7-.11-.09-.02-.18.28-.11.33l.46.36c-.37.08-.81.06-1.3-.12l-.41.52c-.11.14-.56.01-.75-.02-.51.74-1.13,1.38-1.83,1.96l.68.18c.08.02-.16.32-.25.3l-.43-.08c-.32-.06-.95.12-1.19.37l-1.16,1.18c-.12-.22-.44-.77-.62-.67l-.98.56-.47-1.16c-.67-.6-1.12-1.05-1.75-1.75-1.15.56-2.19,1.62-3.02,2.77l-3.92,5.46c-2.71,3.78-5.77,7.18-8.32,10.93l-.59-.79c.27-1.3-.06-3.58.08-4.4l.42-2.53c.26.35.54.85.73.94l1.93.92-.82,1.67,1.91-1.45-.4-.47.96-.96.7-.04c.16,0,.18-.61.11-.57-.34.1-.68.24-.64.12.02-.08.05-.57.09-.64l1.72-2.74c.36.31,1.15.64,1.68.52-.6-.69-1.42-1.11-1.07-1.73l1.38-2.49,1.04-2.13c.17-.36.52-.66,1.02-1.07l-1.7-.94c-.18-.1-.47-.43-.57-.59-.38-.64.67-.8,1.36-1.9-.04-.06.25.43.35.32l.4-.46c.52-.6,1.02-.87,1.84-.78l-1.09,1.81c-.44.73-.95,1.35-.84,2.23l1.75-2.69c.51.22.46.09.12-.37.38-.79,1.64-1.65,2.37-1.53.1.02.34.57.34.67,0,.07.14-.25.2-.28l.29-.17c.71.48,1.26.89,2.09.93l-1.85-1.4c1.59-.06,2.71-.49,3.37-1.75l.14-.78c.14-.76,2.44-.31,3.51.67-.2.32-.38.7-.34.87l2.96-4.37c.69-1.02,2.02-1.67,1.76-3.04,1.01.71,1.7,1.08,2.75,1.36l-1.24-1.29-.79-.17c.78-.28,1.29-.65,1.71-1.21l.5-.06c.1-.01.04-.23-.06-.49-.78.19-.39-.04.02-.23l.7-.21c.13-.04-.31-.37-.47-.51.95-.18,1.79-.68,2.25-1.75l2.25.09-1.87-1.27.95-.4-1.14-1.01-.39.63c-.06.1-.42-.27-.35-.35l.28-.31c.12-.13.34-.64.48-.54l.49.33,1.23-.43c.28-.74.75-1.07,1.38-1.5l1.68-1.17c.15-.1.75-.27.65-.4l-.4-.47c.47-.4,1-.97,1.39-1.58l1.46-2.29.42.91c.46-.23.64-.87.18-1.03l-.84-.28c.08-.27.25-1.09-.04-1.09l-1.14.02c-.82.02-1.82-.05-2.67-.15-.91.73-2.23,1.82-3.92,2.12l1.05.29c-.13.44-1.12.15-1.43-.12-.22-.2-.17-.6-.14-1.02l-.75.37c-.14.07-.42-.35-.57-.45l-2.48-1.62-3.15-1.97c.27,1.42,3.55,1.8,2.4,3.22ZM168.59,138.66c-.05-.11-.12-.52-.14-.68-.01-.08.03-.05-.6.03-.03.15.08,1.05.23,1.43.11.26.4.32,1.03.42l-.52-1.2ZM150.33,199.54c.11-.07.48-.14.61-.18.08-.03.1-.35.08-.33l-.75-.2c-.47-.13,1.3-1.48.44-1.7l-1.2,1.74c-.23.33-.57.59-1.07.92.06.11.64.55.88.4l1.02-.65ZM242.29,237.46c1.22.53,2.37,1.07,3.93,1.46-.91-.58-1.93-.99-3.02-1.52l-2.09-1.02c-.42,0-.76.02-.37.22.51.28,1.12.34,1.16.64l.16,1.27.22-1.04Z"/>
  <path d="M173.04,167.81c1.16-1.42-2.12-1.8-2.4-3.22l3.15,1.97,2.48,1.62c.15.1.43.52.57.45l.75-.37c-.02.42-.08.82.14,1.02.31.27,1.3.56,1.43.12l-1.05-.29c1.69-.31,3.01-1.39,3.92-2.12.85.09,1.84.16,2.67.15l1.14-.02c.28,0,.12.82.04,1.09l.84.28c.46.15.28.8-.18,1.03l-.42-.91-1.46,2.29c-.39.61-.92,1.17-1.39,1.58l.4.47c.11.13-.5.3-.65.4l-1.68,1.17c-.63.44-1.1.76-1.38,1.5l-1.23.43-.49-.33c-.14-.1-.37.41-.48.54l-.28.31c-.07.08.29.45.35.35l.39-.63,1.14,1.01-.95.4,1.87,1.27-2.25-.09c-.45,1.07-1.3,1.57-2.25,1.75.16.13.59.47.47.51l-.7.21c-.41.2-.81.43-.02.23.1.26.16.48.06.49l-.5.06c-.42.56-.94.93-1.71,1.21l.79.17,1.24,1.29c-1.06-.28-1.74-.66-2.75-1.36.26,1.37-1.07,2.02-1.76,3.04l-2.96,4.37c-.03-.16.14-.54.34-.87-1.06-.98-3.37-1.43-3.51-.67l-.14.78c-.66,1.27-1.78,1.69-3.37,1.75l1.85,1.4c-.83-.04-1.39-.46-2.09-.93l-.29.17c-.06.03-.2.35-.2.28,0-.1-.24-.65-.34-.67-.73-.12-1.99.74-2.37,1.53.34.46.39.58-.12.37l-1.75,2.69c-.11-.88.4-1.5.84-2.23l1.09-1.81c-.83-.09-1.32.18-1.84.78l-.4.46c-.09.11-.39-.37-.35-.32-.69,1.1-1.73,1.26-1.36,1.9.1.16.39.49.57.59l1.7.94c-.5.42-.85.71-1.02,1.07l-1.04,2.13-1.38,2.49c-.35.63.47,1.04,1.07,1.73-.53.12-1.33-.21-1.68-.52l-1.72,2.74c-.05.07-.07.56-.09.64-.04.12.3-.02.64-.12.07-.05.05.56-.11.57l-.7.04-.96.96.4.47-1.91,1.45.82-1.67-1.93-.92c-.19-.09-.46-.59-.73-.94l-.42,2.53c-.14.83.19,3.1-.08,4.4l.59.79c2.55-3.75,5.61-7.15,8.32-10.93l3.92-5.46c.83-1.15,1.87-2.21,3.02-2.77.63.71,1.08,1.15,1.75,1.75l.47,1.16.98-.56c.18-.11.5.45.62.67l1.16-1.18c.24-.25.86-.43,1.19-.37l.43.08c.08.02.33-.28.25-.3l-.68-.18c.7-.58,1.33-1.23,1.83-1.96.19.03.65.15.75.02l.41-.52c.49.18.93.2,1.3.12l-.46-.36c-.07-.06.02-.35.11-.33.13.03.56.13.7.11l2.02-.26,1.87-1-.49-2.07,1.43,1.86h.52c.1.01-.06.41-.14.64l1.15,1.54c.27.36.37.68.37,1.29l6.43-4.18,2.37-1.74,1.82-.79c.99-.43,13.14-8.52,12.78-10.85-1.87.87-2.33-1.53-3.8-.57.53-1.45-.78-2.31-1.5-3.3l-.98-1.34v1.1c0,.71-1.86,1.54-2.68,1.8-1.39.45,1.89,2.97,1.45,3.72-.27.19-2.55-3.79-2.78-2.4l-.12.7c-.05.28-.24.85-.36,1.17-.74.44-.89,1.5-1.29,2-.56.71-1.11,1.9-.75,2.71l1.04.31c.22.06.15.46.31.85.17.25.5.61.7.53l1.08-.39-1.13,1.13c-.11.11-.24.62-.32.75s-.26.16-.51.25l-1.26,1.76-1.4-.86-.59.98c-.37.31-.5.43-.79.79-1.57,1.91-5.17,2.87-4.97,3.3-.04-.09-.18-.31-.26-.36l-.49-.3c-.43-.27.21.12.78-.97.08-.16-.2-.18-.71-.13l.87-1.32-.63.02c-.1,0-.35-.1-.27-.17l.65-.51c.44.14.22.05-.38-.19,1.09-.73,1-1.95.41-3.01l-.11-1.68.41-.26c.15-.09.05-.64.08-.81l.26-1.61c.02-.09.51-.26.49-.35l-.14-.56c.08-1.03.68-2.15,1.18-3.09,1.1-2.07.16-1.6,2.69-5.31.89-1.3,1.59-2.74,2.33-4.1l-1.94-2.11.88.09c-.3-.37-.58-.69-.95-1.01-1.47-1.29.38-1.64-.71-3.2,1.45-2.3-.43-1.03-.96-4.92-.02-.17-.59-.41-.57-.58l.13-.86c-1.09.31-1.95,1.03-2.78,1.96-.12-.03-.53-.51-.65-.38l-.64.73-2.07.36,1.31-1.04v-1.16s-1.63-.69-1.63-.69l-5.92,4.37c-.86.45-2.23.17-3.12.92-.49-.56,1.28-3.91.29-3.81-.15.02.36-.24.52-.33l1.14-3.77c.25-.83.37-1.5.83-2.32l-.8-.94-1.36,5.66c-.06.27-.25.83-.48.87l-1.36.21.39,1.49c-1.65-1.56.01-2.01-.43-2.89-3.05-1.53-3.87-3.06-6.6-4.26-.67-1.25-1.21-2.62-1.63-4.05,1.71-.53,1.15-.32,1.85-1.74l.93-.77c.24-.2-.02-1.03.12-1.3l.98-1.98c.49-.98,1.33-1.57,2.25-1.78l-.25,2.34,1.22.43,2.19,1.84c2.54-1.68,1.09-2.05,2.32-3.14l-.69-2.55c.57.58.62,1.21.95,2.25,1.61-1.95-.39-1,1.02-3.69l.06-2.68c-.94.08.28-.7.15-2.11l-.75.99.59-1.77c.49-1.45-.27-3.05-.33-4.49l.81,1.95c.29-.54.13-3.72-.12-3.74l-.64-.06c.12.8.13,1.26-.28,2.12l-.35-1.14-1.11.83.96-1.56-1.06-1.71,1.95,1.22c-.01-.53.17-1.38.13-1.78-.23-2.83-1.28-4.88-2.89-7.17-.47.71-.21,1.39-.03,2.16.6,2.55.89.21.62,3.64-.39-1.23-1.03-2.55-1.25-3.87l-.44-2.71c-.22-1.35-.48-2.62-.84-3.99-.08-.3-.07-1.12.16-1.3s.73-.31,1.14-.48c1.25-.54,2.46-1.49,3.77-1.91.99-.31,2.17-.11,3.06-.89-.15-2.62.3-5.12,1.09-7.48l-.45-.93c-.08-.17.35-.28.55-.38l-.07-1.14c.38-.56.31-1.26-.12-1.65.21-.08.79-.26.68-.39s-.49-.61-.46-.82l.81-5.61.26-.38c.05-.08-.3-.48-.29-.57l.4-3.55c-1.56-1.52-1.6-3.61-2.18-3.8-.87-.29-3.08,1.14-4.01-.18-1.98-2.79-2.76-8.03-7.71-12.9-2.89-2.84-2.14-3.6-3.12-4.9-.11-.14,1.45-1.07,3.53,2.09l-.25-2.1c-.02-.18-.36-.57-.44-.73-.11-.19.46-.66.47-.88l.05-2.54c.06-.1.39-.49.43-.52-.26,1.48-.23,2.49.12,3.79.12.43-.3,1.38.23,1.77.83-2.66,3.38-.25,3.92-4.09l.17,2.04c.61-.83,2.04-1.69,2.74-1.42l-.11-.36c-.02-.07-.04-.2.03-.19l.65.09-.4-2.15c-.23-1.26-.03-3.31-.84-2.9.95-.48.4-4.2.08-5.21-.21-.65-.16-.9-.15-1.79l-2.3,1.05,1.38,1.19-1.18.38.18,1.4c.01.08-.18.31-.21.37-.04.1-.2-.17-.33-.31-.47-.53-.92-1.1-1.37-1.73.5-.49.54-.56.23-.52l-.81.18c-.41.09.86,1.22.62,1.31l-.82.28-.58-.72-.56.93c-.11.18-.35.11-.85.09.6.5.52.58-.11.33-.47.79-.16,2.13.75,2.52l-.67.32.25,2.65c.44-.29.97-.52,1.46-.32l-4.62,2.21.18-1.78-.32-.35c-.06-.06-.05-.27.04-.25.88.21,1.05,1.56,1.98,1.11.86-.41.78-1.04.7-1.9-.06-.69-.08-1.3-.46-1.76-.55.6-.5.34-.27-.22l-.3-.38c-.06-.08.05-.41.14-.36l.66.39v-1.04c0-.3-.73-.36-1.12-.42l.18-.32c.04-.06.09-.4.13-.33l.3.48.26-1.27c-.62.14-1.04.3-1.59.55l-.28.23c.31.23.54.37.47.39l-.37.1c-.08.02-.31-.14-.37-.2l-.67-.71c-.35-.37.78-.91.25-1.61-.07-.09.38.01.51,0,1.95-.31,2.06.8,2.42.45l.22-.21c.08-.07-.31-.2-.37-.29-.31-.46-.45-1.59-.29-2.16l.26,1.04.17-.15,3.24-.22c-.04-.4-.11-.69,0-.67l.92.11.25-3.33.36,3.74c.85-.26,1.72-.59,2.42-.97l-.25-3.48c-.06-.76-.16-2.12-.13-2.88.02-.41.52-1.08.41-1.58l-.16-.75c-.03-.15-.24-.08-.71-.14l.51-2.04c.02-.09-.28-.37-.31-.27l-.24.82c.06.5.03.47-.1-.03v-1.53c.72.37,1.01.61,1.63,1.2.34-1.12-1.36-1.21-1.96-3.33l.66-.14,1.46,1.93c1.39-3.21.39-1.52,1.31-5.08.05-.19.23-.78.09-.89l-.58-.43c-.53-.53-1.48-.44-2.01-.07l-.78-.23c-.19-.05-.52.23-.79.39l-1.41-5.38-.87-3.14c-.03-.1-.07-.35-.07-.41,0-.07.08,0,.16.05.78.47,1.52.8,2.52.99l-1.25-1.95-.17.73-.36-1.11c-.09-.28-.93-.25-1.31-.33-.44-.68-.03-2.03.78-2.59l4.74,3.69,4.97,2.89c.11.06.13.79.16.92.04.17-.54-.09-.82-.17-.15.72-.31,1.25-.72,1.78l.16,1.54-.74-.37c-.47,3.18-1.39,2.38-1.09,5.9-.69.14-.79.21,0,.35-.58.26-1.66,3.57-1.1,4.07l.95-1.05.6.61c.1.1.21.06.69-.17l-1.98-1.48.59.06c.08,0,.06-.24.1-.36l.4-1.2c.4.64.45,1.12.42,1.67l.64.18c.15.04.05.48.04.71.07.04.63.08.68-.05l.35-.8c.05-.11.1-.28.02-.3l-.44-.09c-.08.06-.26.37-.35.28l-.32-.34c-.08-.08.14-.68.25-.69l1.64-.2c-.43-1.61,1.44-1.91-.12-4.57l-.08-1.31,1.52-.23,2.49,1.52.05-1.19c.03-.64,1.46-.69,1.42-1.04l-.12-1.1c-.39-3.43-.62-3.25,2.17-5.49-.76-.7-1.96-1.37-2.93-1.42l-.72-.03c-.14,0-.14-.28-.22-.51-.86-.07-1.76-.44-2.15-1.45,2.21-.42,3.67.98,5.22,2.28-.51-.43,4.71,3.24,4.48,3.1,1.43.88,1.66,1.82,1.47,3.46-.07.58.05,1.59-.27,2.18-1.02,1.85-.31,3.85,1.59,4.63l2.73,1.12c-.19.07-.4.82-.26,1.09l.96,1.88.59-.07c.15-.02.27.63.42.74l2.92,2.2c.85.64,1.67,1.17,2.5,1.63.23.13.56.52.78.6.26.09.82-.28.91-.41l.78.76-.31.45c-.07.09.2.38.24.5l.6,1.62c.15.4.58,1.06.81,1.43-.14.66.31,1.63.9,1.78.15.04.33.46.43.57,1.52,1.69,3.64,3.43,5.56,5.14l-1.84-9.77c-.26-1.36,3.66-6.34,4.73-7.64.27-.33.66-1.14.96-1.42l2.08-1.98c-.37-1-1.27-1.32-2.17-.83l-1.36-.84c-.29-.18-.29-.99-.22-1.37.07-.33.8-.91,1.1-.7,1.04.72,2.14,1.93,3.03,2.78,1.19.03,1.47-1.4,2.07-2.09l1.92-2.22c.28-.32.89-.74,1.26-1.06l-1.56-.17c.42-.35.88-.67,1.24-.79,2.22,2.25,1.64,3.51,3.05,3.55.07,0,.04.03-.05.14l-.25.3.81,1.56c.18.36.56.89.6,1.21.15,1.15-1.62.97-1.15,3.2.26-.06.72-.23,1.15-.39l-.52,1.87.92.74c1.89,1.51,3.76,2.79,5.88,3.96,1.43.79,2.83,1.84,3.66,3.26l4.69,8.04,7.06,11.9c1.11,1.87,2.3,3.47,3.24,5.43l2.95,6.16,3.89,8.11c.72,1.5,2.06,3.22,2.03,4.85-.03,1.73,0,2.99.69,4.6,1.41,3.33,2.68,6.61,3.89,10.05l5.04,14.41c1.81,5.16,2.64,10.38,4.51,15.44l3.23,8.73c.12.32,2.36,5.7,1.71,5.1l-.44-.41c-.77-.72-1.39-1.5-1.89-2.42-.54-.97-1.36-1.47-2.13-2.19s-1.16-1.63-1.89-2.57l-2.05,1.25c-.07,1.13-.76,1.8-1.82,2.09-.57,3.53-1.26,2.45-1.54,6.63-.06.97-.12,1.76.03,2.75,0,.04-.32,6.21-.07,8.72l.6,6.05.21,2.89.22,2.65c.28,3.28,1.21,6.87,2.24,10.07l5.55,17.23c1.3,4.04,2.45,7.87,3.34,11.99.37,1.74.91,3.32,1.47,5.04,3.21,9.88,1.35,9.8.41,18.48l-.44,4.1-1.24,11.97-.4,3.86-.24,3.35-1.99,16.46-2.73,1.69c-.69.43-1.07.5-1.87.43-1.93-.15-3.58-.32-5.51-.81-.54-.14-1.32.67-1.74,1.04-.97.46-4.04.17-5.15,0l-2.92-.44-1.92-1.32c-1.25-.86-2.88-1.19-3.69-2.57-2.44-4.18-3.14-3.56-4.53-8.21-.17-.55-.68-1.13-.96-1.61-.61-1.07-1.03-2.07-2.1-2.79-1.55-1.04-.16-1.83-1.11-1.51l-.7-.98c-.46-.64-.74-1.28-1.12-2l-1.9-3.63c1.35.55,2,1.69,2.06,3.22.63-.49,1.6-1.18,2.1-1.69.51-.52,3.09-6.41,2.83-5.97.39-.65,1.07-1.67,1.28-2.44l.53-1.96c.38-.02.41,0,.39-.07-.43-1.39.72.27-.58-2.06l1.3.1-.2-.42c-1.52.26.86-.55.27-.39l1.05-.28c-.03-.48-.07-.96.04-1.19l.53-1.04c.06-.12.49-.21.54-.34l.19-.52c.21-.57.58-1.32.76-1.76-.27-.43-.28-.44-.22-.34.44-.11.66-.12.72-.21.07-.12.2-.35.27-.53l1.19-3.27c.05-.13.47-.53.36-.58-.15-.07-.48-.22-.69-.3l-1.5-.56-.78,1.24c-.63-1.29.88-1.89.08-1.93l-.75-.03-.24-.57-.45.98c-.06.13-.43-.1-.5-.22-.82-1.53-1.55-.64-3.95-2.19l-.65.85c-.23-.37-.59-.88-.85-.88-.76,0-1.52.29-2.28.88-1.26.97-1.9.17-1.64,1.09.05.18.31.57.5.67l2.76,1.45c.07.04.12.5.14.57s-.1-.02-.27-.12l-2.52-1.37c-.4-.22-1.21-.42-1.83-.61s-1.43.8-1.7,1.38l-.21.45c-.03.06-.21.08-.19,0l.14-.52c.16-.6.27-1.2.08-1.53l-.78,1.12c-.28-.18-.34-.21-.42-.28s-.52.25-.53.36l-.11,1.22-.66,1.73c-.06.17-.5.66-.36.76l.75.56c.08.06.51.14.55.04l.17-.43.87-2.21c.04.75-.33,1.63-.58,2.46-.08.25,0,.85-.13,1.05l-.72,1.09c-.41,2.18-.16.06-.09-.41l.13-.88c.03-.21-.48-.38-.68-.32s-.58.47-.59.69l-.1,1.83c-.17,2.98-1.7.1-.64,4.16.72-1.18.47-2.37,1.45-3.38l-.97,3.48c-.2.72.15,2.09.56,2.71l1.58,2.37s-.22.97-.23.72c0,0-.19-.25-.27-.36l-1.38-1.88-1.28-4.55c-.24-.84-.18-2.54-.04-3.46l.79-5.22c.11-.76.13-1.6.12-2.52-1.39-.67-2.73-1.14-4.24-1.58-1.01-.3-1.92-1.25-2.86-1.82-.73-.45-1.9-1.06-2.27-1.82l.47-3.39,1.69-10.52.48-3.86c.15-1.19.27-2.4.51-3.59l1.38-6.68c-1.29,0-2.15.85-2.63,1.86l-.63,1.35c-.15.02-.32.07-.31-.01l.12-.65c.63-3.32,1.5-2.29,1.72-5.67-.55.08-1.23.57-1.22.94l.06,1.51c-1.03.21-1.71.4-2.31.62l1.06,1.56c.15-.02-.09,0-.49.06-.5-.43-2.29,2.78-2.93,2.49-.89-.39-1.17-1.26-1.24-.61-.02.15-.1.57.02.59l.55.1c.12.89.25,1.96.75,2.86.17.32,1.15.44,1.48.29.38-.18.71-.55,1.14-1.17-.12-.28-.02-.04.2.46-.28.39-.85.93-1.26,1.04-1.84.47-1.94-1.14-3.18-2-4.06,1.86-.99,1.92-5.59,3.44l-5.8,1.91c-1.17.39-3.69,1.58-4.25-.25-.36-1.16-.57-2.7-1.03-3.85-.08-.2-.19-.72-.24-.93-.05-.19-.5-.18-.68-.04l-2.67,1.99c-.18.25-.34.45-.32.44.03-.54.07-.82.22-.92l3-2.02c0-.2.02-.66.02-.55l-1.55-.43-1.84,1.91c-.08.08-.48.16-.49.27l-.04.51-1.58,1.66-.21.22-.37-.08c-.12-.03-.04.48.07.54.07.04.26.15.31.2l.45.38-.08.3c-1.28.06-1.69.72-2.44,1.54-.52.36-1.6.95-2.25,1.31-2.01-.31-3.49.72-5.1,1.53s-3.25,1.53-3.7,3.57c-2.64,2.87-1.3,1.19-3.68,2.76.29-.79.6-1.69.21-2.34-.3.23-.6.51-.67.69l-1.15,3.03c0,1.32-.27,1.81-1.05,2.73l-.69.81c-.35-.01-.54-.02-.39-.02l-.27-.93c-.05-.17-.64.04-.68.22l-.26,1.35c-.02.12.2.49.13.6-.09.13-.39.42-.45.56l-1.42,3.42c-1.04,5.02.29,3.9-2.03,8.94-1.05,2.28-1.92,4.66-2.28,7.11-.51,3.47-.9,4.13-1.34,7.32l-.48,3.52-.31,2.38c-.17,1.33.24,2.73-.44,4.03-.31.59-1.7.79-2.59.78-.7-1.31,1.25-2.28,1.06-3.57-.12-.84-1.28-.82-1.84-1.1-1.14-.55-2.23-1.22-3.46-1.49l-3.91-.87c-2.54-.56-5.72-1.59-7.91-2.95-1.25-.77-2.33-1.61-3.99-1.27-.54.11-.9.96-.59,1.48l2.01,3.38c.29.48.45,1.63.16,2.1-.88.45-1.96.46-2.83.33l-4.85-.69c1.25-5.51,2.1-5.65.35-10.42l-.86-2.35c-1.2-3.27-1.41-5.1-.43-8.32.27-.88.23-2.08.72-2.91,1.26-2.17,2.78-4.02,4.44-5.89.85-.95,1.28-2.09,1.38-3.4l.3-4.04.32-3.35.52-6.15.41-4.05c-.09,0,.03,0,.34,0,.05,2.36.37,2.5,2.68,3.87l.91-1.52c2.57-4.27,1.58-3.89,1.57-3.85-.03.1-.32.35-.41.32l-.49-.16c-.06-.02-.03-.06.03-.13l.33-.43c-.42-.35-1.41-.5-2.08-.41-.5-.91-.97-1.92-1.29-2.89l1.25.82c.57.37,1.19.49,1.97.24l.44.34-1.09.37c-.55.34.03-.03.58.5l1.38,1.34,1.62-2.71c.38-.64.73-1.32,1.17-1.91l.87-1.19c-.71-.65-1.89-1.42-2.86-1.73-.44.54-.76.89-1.29,1.14-.81-.69,1.06-1.19.49-1.96-.67-.9-.13.31-2-.84l.76-1.53c.3-.17.35-.14.08.29l.24.5.96-1.19c.2-.25.81-.13,1.32-.2l-.53-.58c-.11-.12.38-.4.43-.55.59-1.79-.2-.35,1.38-2.24.24-.29-1.05-1-.92-1.14l.24-.25c.08-.09.18.08.33.25l.41.45c.11.13.66.04.74-.11.14-.27.41-.82.55-1.06.51-.5,2.47-3.66,2.54-3.57l-.27-.41c-.05-.07-.15-.34-.18-.41-.12-.29.94-.05.89-.33l-.13-.64c-.06-.29.2-.79.54-.91.68-.25.96-1.03,1.36-1.4l1.7-1.58-1.18-1.48,1.73,1.03,1.92-3.11.91-1.48c.19-.32.7-.81.64-1.12-.09-.43-.33-.79-.72-1.58l1.56.98.64-.92-.95.08c.41-.82.71-1.31,1-1.66.56,0,.75,0,.54,0l-.35-.45c.06-.12.35-.41.47-.35l.65.32c.59-.06.33.17-.17.32l-.28.35c-.04.05.19.05.27.05l.33-.03c.09.71.92.53.86.72.27-.94-.57,1.25-.39,1.08l-.98.93c.34.19,1.06.26,1.52.17.35-.07.79-.76,1.03-1.09l.27-.38c.04-.06-.31-.02-.38,0l-.45.16c-.08.03-.19-.31-.14-.37.09-.08.33-.3.45-.35l.41-.15c.09-.03.12-.38.17-.48l.34-.64-.07.87c.24.03.48.06.28.03l1.01-1.23ZM184.65,28.57l-1.58-3c-.04-.08-.64-.04-.61.05l.14.4c-.18.31-.33,1.06-.09,1.31.59.62,1.21,1.05,2.14,1.25ZM211.63,55.43l-4.01-2.1c-.71-.37-1.51-.42-2.51-.43-.02.06.08.44.22.52l.64.36,3.39,2.09c.18.11.39.7.58.66.14-.03.53-.15.65-.25l1.04-.85ZM211.52,59.1l1.24-1.24c.4-.4.29-1.75-.36-2.21-.56-.4-1.33,3.18-.88,3.44ZM204.67,76.65c-1.08-2.89-1.69-2.62-1.21-4.96l1.91-2.13c1.35-1.51-1.28-3.12-2.16-4.32-1.46-1.99-2.8-3.77-4.64-5.55l-.62.58,2.74,8.67c.27.86,1.18,1.94,1.18,2.83v7.23c-.01.55-.16,1.32-.23,1.93l-.46,3.9,5.23-1.94c.35-2.14-.94-4.13-1.72-6.24ZM173.38,62.2c1.28-.43,2.31-.83,3.15-1.93l-2,.5c-.6.15-1.11.72-1.16,1.43ZM205.07,162.51c2.7-1.05,5.29-1.62,8.27-1.82.38-1.53.75-3.2.91-4.75-.54-2.58-1.92-4.18-1.11-6.77.11-.34-.63-.93-.76-1.28-.44-1.16-.04-2.81.07-4.12l.34-4.1c.13-1.56.16-3.23-.08-4.76.65-.58,1.33-1.33,1.7-2.16l1.01-2.31c1.95-4.47.07-2.51-.21-7.51-.05-.91.3-2.01.05-2.85-.33-1.12-.72-2.26-.61-3.37l.25-2.48c.45-4.35,1.78-3.62.73-7.01l-2.7-8.78c-.4-1.3-.91-2.56-1.53-3.8-1.33-.35-2.71,1.52-3.14,2.78-.99,2.91-.76,5.74.39,8.66-2.21,1.95-5.52.27-7.4,2.62l-.22,3.53c-.18,2.83-.14,5.6-.03,8.46.25,6.28.64,3.57-2.35,8.85-1.26,2.23-2.71,4.39-3.32,6.94-.46,1.88-.05,3.93.04,5.83l.21,4.57.27,4.31.21,2.19.15,5.47c.02.82.14,1.59.14,2.44s.31,1.23,1.03,1.63c.98.54,1.78.45,2.86.37,1.64-.13,3.24-.15,4.82-.76ZM184.88,105.75c.87-.76,1.55-1.64,2.28-2.39l1.41-1.46c.57-.59,1.36-.95,1.61-1.8-.62.48-1.22.93-1.73,1.42l-1.35,1.3c-2.07,2-4.09,3.87-5.93,6.14l3.7-3.22ZM171.36,116.9l-.82-3c-.44-.38-1.08-.81-1.77-1.16l1.26,1.95c.47.72.62,1.73,1.33,2.21ZM180.5,123.19l-.65-1c.55-.63.93-1.37,1.04-2.09-.92-.22-1.53-.25-2.26-.15l-.84-.88-.5.92.13-1.26c.02-.19-.4-.38-.57-.45s-.59.36-.57.6c.08.77,1.02,1.91,1.78,2.16l-.15,1.2c-.05.43,1.68.46,1.42.74l-.45.48.99.59c.58-.36,1.24-.91,1.41-1.66l-.79.78ZM181,128.55c.01-.13-.5-.53-.58-.43s-.36.4-.39.53l-.4,1.57c.66-.35,1.31-1.14,1.36-1.67ZM249.64,138.19c.09-.03.28-.13.35-.12l.46.11-1.41-4.7c-.39.44-.63.91-.55,1.18,1.07.79,1.22,2.26,1.15,3.52ZM252.44,145.52l-1.89-6.93c0-.09-.88.24-.83.43l.49.95c.11.21-.11.53-.31.89l.61-.18c.26-.08-.91,4.19,1.94,4.84ZM194.3,146.64l-.2-.71c-.03-.11.48-.49.42-.59-.16-.27-.64-.66-.96-.87-.23-.15-.93.16-1.09.5l1.91,3.78-.07-2.1ZM249.36,156.59c-.02,1.41-1.42.91-1.84,1.96l.44,1.72c-.68-.65-.93-.9-1.66-.51s-.43,3.78.13,4.87c.98-.5,1.85-1.07,2.5-1.73l-.21-.92.43.59c.07.09.13.03.52-.13l-.14-2.71c-.04-.16-.46-.61-.31-.66.11-.04.54-.21.68-.17l3.62.91-.95.56,2.06.81,1.12-.27-.07-1.1c1.08.11,1.76-.05,1.9-.92l-2.31-.06.1-2.2c.02-.43.23-.94.53-1.49l-2.22-.29c.72-.83,1.39-1.08,2.33-1.54.46-.37-.83-.06-.93-.34l-1.58-4.41c-.36-1.01-.48-2.03-1.1-2.82-.31-.4-1.34.3-1.44.79-.11.57,0,.92.41,1.52s-.51,1.74-1.22,2.02c.03.1.27.38.4.3l.56-.41-.58,1.57-.62.11c-.1.02.17.47.27.47h1.51c-.07-1.18-.28-2.02.31-3.09l.41,1.69.19-2.44.35,4.03,1.02.18-.96.28s-.19,2.36.23,2.84l1.64-.1c-.49,1.36-.66,3.02,0,4.34-.26-.06-.97-.35-1.13-.53-.01-.98-1.12-3.31-1.16-3.21l.28-.67-.98-2.31-.48,1.73.36.62-1.54.24-.88.89ZM172.68,149.02c-.18-.32-1.39-.11-1.47.24-.09.4.29.99.62,1.25.36-.5.57-.82.85-1.49ZM227.05,155.18c.14-2.43-.25-.21-.8-2.57-.03-.12-.36.13-.5.24-.1.07.03.21.17.47.38,1.12.86,2.24,1.64,3.12l1.17,1.3c.07-1.26-.93-1.75-1.68-2.55ZM204.65,176.12c.14.65.16,1.16.38,1.24l.94.36c-.67.07-1.88,0-1.79.84.11,1,.77,1.96,1.26,2.84l.99,1.75.41.82c.08.15.57.12.63-.12l1.17-4.65c1.07.56-.53,1.87.33,3.24.35-.25.53-.41.51-.57l-.1-.72.48.86c.1.19.69-.05.94-.11l4.9-1.12-1.47-7.1c-1.14.31-1.75.51-2.8.45.84-.36,1.6-.6,2.59-.89l-.67-4.35c1.17,1.27.06,2.12,1.43,4.2l5.72-1.55-1.51-6.66c-.59.09-.78.16-1.42-.05l1.36-.28-.58-3.48c-.11-.65-1.02-.78-1.47-.5-.36.22-1.28-.71-.99-.9.45-.12.86-.17.84-.32l-.07-.5c.33-.18.8-.39.8-.61s-.1-.74-.31-.76l-.96-.07.84-.39c.16-.08.19-.43.33-.98-.11-.12.37.4.5.54.71.35,2.02-.54,1.81-1.26-.23-.5-1.23-.65-1.74-.68l.37-.36c.08-.07.24-.45.14-.41l-.54.19c-.61.21-1.44.43-2.2.65-.45.63-.94,2.7-1.13,3.5l-.57,2.46c-.4,1.73-.73,3.33-.9,5.34,1.58-.38,2.91-.92,4.56-.98-1.27.5-3.02,1.02-4.13,1.37-.3.09-.23.75-.32,1.2l-.47-1.14-1.05,2.64c-.27-.62-.27-1.53.08-2.06.39-.58.31-1.18.47-1.76l.6-2.22.4-1.84c-2.44.68-3.33.53-3.66,2.99l2.2.83c-.9.03-1.46-.08-2.38-.32-1.08,1.85-1.08,3.89-2.2,6l.9.8-.97.22-2.33,4.2,1.1-3.71c.2-.23.34-.34.23-.38l-.5-.19c-.43.42-1.1.84-1.71,1.01.11.17.42.94.36.97l-.83.08c-.16.01-.46.52-.33.61l.67.45c-.38.42-.52,1.56-.21,1.97.12.15.76.06.84-.11l.23-.51ZM228.28,158.3c-.22-.79-.8-1.72-1.53-2.14-.47.46-.28,1.28.08,1.58.27.22.71.33,1.45.56ZM235.23,164.34c-.24-.19-.31-.62-.47-1-.4-.95-1.42-1.81-2.14-2.55-.68-.7-1.01-1.72-2.4-1.43.65,1.7,1.87,3.25,3.25,4.62l1.59,1.57c.16.16.58.44.79.42s.53-.26.85-.48l-1.46-1.15ZM219.48,164.33l3.73-1.15-.55-.8c-.13-.2-.94.14-1.12,0l-2.8-2.13.09,2.16c.11.08.52.37.48.37-.03,0-.22.29-.26.34l.43,1.2ZM226.9,168.03c-.06-.65-.38-1.37-.48-1.85l-.48-2.23-.42.8-.8-.52.39-.29c.09-.07-.18-.5-.29-.5-1.07.02-4.38.86-5.36,1.36l.97,4.35.49,2.3,2.93-.75,3.23-.85-.18-1.82ZM231.1,168.72l.51-1.25c1-.92,1.57-2.03,1.24-3.5-.17-.76-1.37-.18-1.9-.28-.93-.17-2.22-.2-3.07.07-.25.08-1-.1-1.07.12-.05.19-.11.6-.08.82l.22,1.82c.08.64.65,3.09.95,2.77l-.34.37c2.12.13,1.78-2.38,3.54-.93ZM190.05,164.68l-.03-.93-2.22,1.78c.4.48,1.16.62,1.56.36.29-.19.52-.75.69-1.2ZM252.35,173.22l.98-.98.11-.6c.02-.1.57-.25.56-.35-.07-1.41-.86-.47-.88-3.58.64-.41.65-1.07.36-1.78-.57.16-1.31,1.25-1.1,1.83l.92,2.56-.57-.02c-.11,0-.23.29-.32.43l-.83,1.31.78,1.18ZM173.94,169.88c.94.14,1.45.25,1.78.15.36-.11.81-.67.82-1.01l-1.83-.52c-.04-.32,0-.74-.2-.83l-.82-.37-.86,1.55,1.18.1c.24.02.79-.31.88-.08l.33.8-1.01-.25c-.16-.04-.36.5-.27.47ZM230.6,172.31l.72-.81-1.12-1.87-2.22.33.23,2.06c.3.09.65.2.4.12-.23.39-.36.55-.25.6s.47.24.37.18c-.07-.04.17-.56.25-.57l1.61-.06ZM202.14,173.64c.71-1.18,1.32-2.42.56-3.8l-.48,1.26-1.13-.43c-.39.93.82,1.33,1.04,2.97ZM223.36,174.77l.86,1.06c.62-.58,1.13-.99,1.78-1.46l-.06-.53c-.01-.12.55-.11.66-.18l1.25-.78-.63-2.68-1.74.51-3.59.88c-.28.07-.74.72-.81.98l.95,2.62,1.32-.42ZM220.39,179.54c.14-.25.34-.78.57-.8l.83-.06-.48-.49c-.06-.06.22-.12.3-.12l.47.03-.76-3.3c-.15-.67-.35-1.23-.9-1.51.2-.31.42-.83.44-1.27-.95.04-1.74.29-2.6.53l-3.69,1.06c.91,2.82.59,3.93,1.51,6.88.86-.1,1.44-.22,2.22-.42l2.09-.53ZM260.66,176.24c.12.06.13-.4.07-.54l-.25-.58c.89.33.85,1.26,1.05,2.24l.27-1.75-1.99-2.34c-.23.58-.56,1-1.31,1.67.07.07.61.45.99.72-.03.19-.21.47-.35.48l-.9.1,1.82.53-.28-.54c-.05-.09.2-.36.29-.31l.6.32ZM263.82,178.32c-.65-.97-1.07-1.47-1.67-1.96.37.86.6,1.07.44,1.69-.08.33.89.56,1.23.28ZM218.53,183.67c-.9-.35-1.32-.48-1.63-.94l1.12.08c.19.01.25-.57.29-.67.14.16.42.52.46.41s.19-.54.27-.64l1.26-1.75c-.67.28-1.06.5-1.54.76l-1.2.63c0,.08-.04-.54-.2-.51l-1.08.19.77,2.88,1.49-.42ZM255.3,186.24c.98,1.42,2.27.77,3.09,2.09l-2.93-1.16c-.16.06-.58.27-.62.15l-.19-.56-1.13,2.02c.86.11,2.08.43,3.01.32l2.22-.26,2.5-.25c.47-.05.98-.09,1.42-.17l1.09-.2c.3-1.33.82-2.95.96-4.39l.34-3.43-1.88,1.26,1.12.63c-.7.06-1.66.12-2.1.25l-.96,2.02.03-1.76-1.14.39c-.07.02-.45-.07-.53-.08-.07-.01-.03.12.02.17l.3.35c.09.1.26.41.32.53.04.08-.29.11-.37.08s-.35-.1-.44-.12h-1.74c.24.13-.36,3.44-.58,2.31l-1.78-.19ZM211.82,189.6c.11.22,2.45-1.59,2.43-1.26l.03-.42,1.34-.91-1.45-.7c.04.4.22.86.06.84-.24-.03-.88-.12-.74-.1.22-.77.25-.91.34-1.64l.95.14.28-.59c.07-.14.45-.05.58-.13l.91-.54-.77-2.94-6.11,1.29c-.3.06-1.04.32-1.2.56s-.21.71-.31,1.12c-.74,1.56-.94,3.21-.83,4.94l-.47,1.42c.99-.23,1.77-.4,2.69-.7l1.17-.37s.05-.47-.09-.51l-.77-.25.64-.49-.21-2.22.46,1.07.65,1.82.47-.42c.06-.05.09.27.07.34l-.13.65ZM253.06,188.26l-1.99-.15.5-.57c.08-.09-.52-.5-.59-.4-.24.34-.55,1.12-.69,1.59l1.83.34c.34.06,1.03-.59.94-.81ZM240.83,215.83c-.06-.16-.57-.47-.65-.38l-.29.33-.47.54c-.1.12.11.55,0,.66l-.53.52c-.12.12.19.67.11.82-.21.4-.67,1.18-.91,1.6l2.34.2c-.57.28-.87.4-1.26.51l-2.63.48c-.16.15-.49.61-.68.52l-1.12-.54.14,2.38c-.19.24,0,.29.48.32l1.86-.26c2,.18,7.11.55,8.85.99l2.87.72c.8.2,1.68.23,2.58.37,2.36.35,7.34,2.2,9.15.18l.49-2.08c-.37-.78.1-3.49.28-4.25l.51-2.14c.16-.69.33-1.25.55-1.92.23-.7.6-5.31.45-6.13l-1.19.12,1.22-.69c-.24-1.67-.07-3.28-.24-5.02l-.32-3.23c-.02-.16.08-.55.1-.69s-.51-.13-.84-.17c.78-.79.89-2.03.94-3.29l.1-2.32.29-2.24c-.34.09-.65.21-.65.12l.03-.43c0-.18,0-.43,0-.32.57-.06.59-.04.66-.17.08-.17.21-.41.09-.41l-.77-.02.4-.99-2.63,1.98c-.53.4-.84.61-.93,1.39-.06.54.07,1.08.36,1.41l-.75.32c.06-.57.08-1.02,0-1.69l-1.59.81-1.98,1.01,2.51.05-3.75,1.4c0,.81.49,1.91.42,2.55l-.25,2.1c-.06.51-.73,1.83.23,1.8l2.4-.08-2.31.74c-.24.08-.37.81-.44,1.1l-.42-.84c-.24-.48-4.24,1.05-5.78.96l.59,1.68-.68.72-.2,4-.65-4.18-.91,1.11-.61,1.28c-.43-.58-.37-.31-.18.19l-.02.85c0,.36-1.32.11-1.56.67-.13.29-.27.86-.24.93,2.51.25,2.13-.41,3.6-.08l-4.66,1.07.43.14c.09.03.22.27.13.29l-.62.15.33,1.07-1.09,1.68c.8.18.77.24.06.35l.33,6.46c-.86-2.62-.38-5.19-1.09-7.07ZM212.3,196.5l-2.27-1.05,1.79-.39c-.32-.68-.71-1.04-1.31-1.44l.51-.64-.93-.43c.05-.34.12-.54.06-.64l-.37-.62,1.21.42-.73-1.13.65.14c.09.02.19-.4.1-.39l-.48.07-1.42.2c-.54.08-1.48.43-1.97.64l-.42,1.67.07,1.48c.07,1.45.15,2.68.47,4.26l2.27-.57-.68-.82,1.2-.02-.56.75c2.3.02,1.58-.77,2.9-.59l-.09-.9ZM204.53,196.23l-1.93,3.3c.1.1,1-.01,1.18-.24-.05.07.97-2.89.75-3.06ZM212.44,200.56c.17,0,.55-.38.41-.45l-.62-.33.69-.53c.13-.1-.24-.59-.31-.74l-.24-.53c.28.61-1.66-.13-2.78.82.05.16.78.19.97.35.44.36,1.19,1.43,1.88,1.42ZM219.19,199.43c-.2-.09-.55-.45-.67-.37l-.53.35c-.09.06-.29.51-.38.44l-.46-.38c-.36-.3-.71-.72-1.04-1.14-.36-.17-1.15.48-1.38,1.17l2.81,1.07c.69-.87,1.58-.84,2.31-.2.1-.32.19-.56.05-.62l-.7-.31ZM248.46,203.42c1.5.2,4.43-.17,5.16-.4.23-.07-.15-.7-.22-.95l-.36-1.22-.89-.92.07,1.3c-.3.07-.9.09-1,.3l-.35.78c-.08.18-.72.03-.91.03l-1.5,1.08ZM205.65,206.4l2.4-1.26c-.47-.41-1.1-.86-1.4-.94-.56.54-.99.73-1.59.8.36.35.59.81.58,1.4ZM180.89,213.27c-.05.12-.09.59,0,.54s.39-.2.44-.35l2.1-5.63c-.14.11-.71.77-.83,1.08l-1.7,4.36ZM233.67,222.47l.42,1.06c.27-.84.24-1.69-.02-2.3-1.42,0-2.53.04-3.92-.11,1.34-.37,2.36-.41,3.92-.44l-.24-1.9c-.25.14-.52.26-.49.37l.21.63-.88.14c-.4-.43-.55-1.27-.43-1.99-.72.26-1.33.43-1.96.6l-1.55.41-.7,2.21.93.11-1.8.99-.57.31c-.13.07-.02.46.08.57s.57.3.71.24l2.33-1.07c1.17.51,2.75.64,3.93.17ZM281.91,225.48c.15.28.35.66.43.55l.31-.42c.2-.27.41-1.01.24-1.28-.19-.29-.86-.55-1.05-.46l.65.91-.92-.14c-.15-.02-.34.53-.21.59l.55.26ZM246.7,260.54l.55-2.66-.92-1.01-.72,1.37s-.61-.1-.55.01c.05.09.25.52.32.6l1.31,1.68Z"/>
  <path d="M150.33,199.54l-1.02.65c-.23.15-.81-.29-.88-.4.5-.33.84-.59,1.07-.92l1.2-1.74c.87.22-.9,1.57-.44,1.7l.75.2s0,.3-.08.33c-.12.04-.5.11-.61.18Z"/>
  <path d="M168.59,138.66l.52,1.2c-.64-.1-.92-.15-1.03-.42-.15-.38-.26-1.28-.23-1.43.63-.08.59-.11.6-.03.02.16.09.57.14.68Z"/>
  <path class="cls-1" d="M205.07,162.51c-1.58.61-3.18.63-4.82.76-1.08.09-1.89.18-2.86-.37-.72-.4-1.02-.8-1.03-1.63s-.12-1.62-.14-2.44l-.15-5.47-.21-2.19-.27-4.31-.21-4.57c-.09-1.9-.49-3.94-.04-5.83.62-2.55,2.06-4.7,3.32-6.94,2.99-5.28,2.6-2.57,2.35-8.85-.11-2.85-.15-5.63.03-8.46l.22-3.53c1.88-2.36,5.19-.67,7.4-2.62-1.16-2.92-1.39-5.75-.39-8.66.43-1.25,1.8-3.12,3.14-2.78.61,1.25,1.13,2.5,1.53,3.8l2.7,8.78c1.04,3.39-.29,2.67-.73,7.01l-.25,2.48c-.11,1.11.27,2.24.61,3.37.25.84-.1,1.94-.05,2.85.28,5.01,2.17,3.04.21,7.51l-1.01,2.31c-.36.84-1.05,1.59-1.7,2.16.24,1.53.2,3.2.08,4.76l-.34,4.1c-.11,1.31-.51,2.97-.07,4.12.13.35.87.93.76,1.28-.82,2.59.56,4.19,1.11,6.77-.16,1.55-.53,3.22-.91,4.75-2.98.2-5.57.78-8.27,1.82Z"/>
  <path class="cls-1" d="M240.83,215.83c.71,1.88.23,4.44,1.09,7.07l-.33-6.46c.71-.11.74-.17-.06-.35l1.09-1.68-.33-1.07.62-.15c.09-.02-.04-.26-.13-.29l-.43-.14,4.66-1.07c-1.47-.33-1.09.34-3.6.08-.03-.07.11-.63.24-.93.25-.56,1.55-.31,1.56-.67l.02-.85c-.19-.5-.25-.77.18-.19l.61-1.28.91-1.11.65,4.18.2-4,.68-.72-.59-1.68c1.54.09,5.54-1.44,5.78-.96l.42.84c.07-.29.2-1.03.44-1.1l2.31-.74-2.4.08c-.95.03-.29-1.3-.23-1.8l.25-2.1c.08-.64-.42-1.74-.42-2.55l3.75-1.4-2.51-.05,1.98-1.01,1.59-.81c.09.67.07,1.11,0,1.69l.75-.32c-.29-.34-.42-.87-.36-1.41.09-.77.4-.99.93-1.39l2.63-1.98-.4.99.77.02c.11,0,0,.25-.09.41-.07.13-.09.11-.66.17,0-.11,0,.14,0,.32l-.03.43c0,.09.31-.03.65-.12l-.29,2.24-.1,2.32c-.05,1.26-.16,2.5-.94,3.29.34.05.86.03.84.17s-.12.54-.1.69l.32,3.23c.17,1.74,0,3.35.24,5.02l-1.22.69,1.19-.12c.15.82-.22,5.42-.45,6.13s-.39,1.23-.55,1.92l-.51,2.14c-.18.76-.66,3.47-.28,4.25l-.49,2.08c-1.81,2.02-6.78.18-9.15-.18-.9-.14-1.78-.16-2.58-.37l-2.87-.72c-1.74-.43-6.86-.8-8.85-.99l-1.86.26c-.49-.03-.68-.08-.48-.32l-.14-2.38,1.12.54c.19.09.51-.37.68-.52l2.63-.48c.39-.11.69-.23,1.26-.51l-2.34-.2c.24-.42.7-1.21.91-1.6.08-.15-.23-.7-.11-.82l.53-.52c.11-.11-.1-.54,0-.66l.47-.54.29-.33c.08-.1.59.22.65.38Z"/>
  <path class="cls-1" d="M204.65,176.12l-.23.51c-.08.17-.73.26-.84.11-.31-.41-.17-1.55.21-1.97l-.67-.45c-.13-.09.17-.6.33-.61l.83-.08c.06-.03-.25-.8-.36-.97.6-.17,1.28-.59,1.71-1.01l.5.19c.11.04-.02.15-.23.38l-1.1,3.71,2.33-4.2.97-.22-.9-.8c1.12-2.11,1.12-4.16,2.2-6,.92.24,1.48.35,2.38.32l-2.2-.83c.32-2.46,1.21-2.31,3.66-2.99l-.4,1.84-.6,2.22c-.16.58-.08,1.18-.47,1.76-.35.52-.35,1.44-.08,2.06l1.05-2.64.47,1.14c.09-.45.02-1.1.32-1.2,1.11-.35,2.86-.87,4.13-1.37-1.65.07-2.97.61-4.56.98.18-2.01.5-3.6.9-5.34l.57-2.46c.19-.8.68-2.87,1.13-3.5.76-.21,1.59-.43,2.2-.65l.54-.19c.1-.04-.06.34-.14.41l-.37.36c.51.03,1.51.18,1.74.68.2.72-1.11,1.61-1.81,1.26-.14-.14-.61-.67-.5-.54-.14.54-.16.9-.33.98l-.84.39.96.07c.21.02.3.54.31.76s-.46.43-.8.61l.07.5c.02.15-.38.2-.84.32-.29.19.63,1.12.99.9.45-.28,1.36-.15,1.47.5l.58,3.48-1.36.28c.64.21.83.14,1.42.05l1.51,6.66-5.72,1.55c-1.36-2.08-.26-2.93-1.43-4.2l.67,4.35c-1,.29-1.75.53-2.59.89,1.06.06,1.66-.14,2.8-.45l1.47,7.1-4.9,1.12c-.26.06-.84.3-.94.11l-.48-.86.1.72c.02.15-.16.32-.51.57-.86-1.37.74-2.68-.33-3.24l-1.17,4.65c-.06.24-.55.28-.63.12l-.41-.82-.99-1.75c-.5-.88-1.15-1.84-1.26-2.84-.09-.85,1.12-.77,1.79-.84l-.94-.36c-.22-.08-.24-.59-.38-1.24Z"/>
  <path class="cls-1" d="M204.67,76.65c.79,2.11,2.08,4.1,1.72,6.24l-5.23,1.94.46-3.9c.07-.6.22-1.38.22-1.93v-7.23c.01-.89-.89-1.98-1.16-2.83l-2.74-8.67.62-.58c1.85,1.78,3.19,3.56,4.64,5.55.88,1.2,3.51,2.82,2.16,4.32l-1.91,2.13c-.47,2.34.13,2.07,1.21,4.96Z"/>
  <path class="cls-1" d="M249.36,156.59l.88-.89,1.54-.24-.36-.62.48-1.73.98,2.31-.28.67c.04-.1,1.15,2.23,1.16,3.21.17.19.87.47,1.13.53-.65-1.33-.49-2.98,0-4.34l-1.64.1c-.42-.48-.28-2.82-.23-2.84l.96-.28-1.02-.18-.35-4.03-.19,2.44-.41-1.69c-.59,1.07-.38,1.91-.31,3.08h-1.51c-.1.01-.37-.44-.27-.46l.62-.11.58-1.57-.56.41c-.12.09-.37-.2-.4-.3.71-.28,1.64-1.41,1.22-2.02s-.52-.95-.41-1.52c.09-.49,1.13-1.19,1.44-.79.61.79.73,1.81,1.1,2.82l1.58,4.41c.1.28,1.39-.03.93.34-.94.46-1.61.71-2.33,1.54l2.22.29c-.3.55-.51,1.06-.53,1.49l-.1,2.2,2.31.06c-.15.88-.82,1.04-1.9.92l.07,1.1-1.12.27-2.06-.81.95-.56-3.62-.91c-.14-.04-.57.13-.68.17-.15.06.27.5.31.66l.14,2.71c-.39.16-.45.22-.52.13l-.43-.59.21.92c-.65.67-1.51,1.24-2.5,1.73-.56-1.09-.84-4.49-.13-4.87s.98-.14,1.66.51l-.44-1.72c.42-1.05,1.82-.55,1.84-1.96Z"/>
  <path class="cls-1" d="M211.82,189.6l.13-.65c.02-.08-.01-.4-.07-.34l-.47.42-.65-1.82-.46-1.07.21,2.22-.64.49.77.25c.14.04.13.55.09.51l-1.17.37c-.92.29-1.7.46-2.69.7l.47-1.42c-.11-1.74.09-3.38.83-4.94.1-.42.15-.88.31-1.12s.91-.5,1.2-.56l6.11-1.29.77,2.94-.91.54c-.13.08-.52,0-.58.13l-.28.59-.95-.14c-.1.73-.12.87-.34,1.64-.14-.02.51.07.74.1.16.02-.02-.43-.06-.84l1.45.7-1.34.91-.03.42c.03-.33-2.32,1.48-2.43,1.26Z"/>
  <path class="cls-1" d="M255.3,186.24l1.78.19c.22,1.13.82-2.18.58-2.31h1.74c.1.02.36.09.44.12s.42,0,.37-.08c-.06-.12-.23-.43-.32-.53l-.3-.35c-.05-.06-.09-.18-.02-.17.08.01.46.1.53.08l1.14-.39-.03,1.76.96-2.02c.44-.13,1.4-.19,2.1-.25l-1.12-.63,1.88-1.26-.34,3.43c-.14,1.44-.66,3.06-.96,4.39l-1.09.2c-.44.08-.95.13-1.42.17l-2.5.25-2.22.26c-.93.11-2.16-.21-3.01-.32l1.13-2.02.19.56c.04.12.46-.09.62-.15l2.93,1.16c-.82-1.31-2.1-.67-3.09-2.09Z"/>
  <path class="cls-1" d="M220.39,179.54l-2.09.53c-.78.2-1.36.32-2.22.42-.92-2.95-.61-4.06-1.51-6.88l3.69-1.06c.86-.25,1.65-.5,2.6-.53-.03.43-.25.96-.44,1.27.54.28.74.85.9,1.51l.76,3.3-.47-.03c-.07,0-.35.06-.3.12l.48.49-.83.06c-.23.02-.43.55-.57.8Z"/>
  <path class="cls-1" d="M226.9,168.03l.18,1.82-3.23.85-2.93.75-.49-2.3-.97-4.35c.97-.5,4.29-1.35,5.36-1.36.11,0,.39.43.29.5l-.39.29.8.52.42-.8.48,2.23c.1.48.41,1.2.48,1.85Z"/>
  <path class="cls-1" d="M212.3,196.5l.09.9c-1.32-.18-.59.6-2.9.59l.56-.75-1.2.02.68.82-2.27.57c-.32-1.58-.4-2.81-.47-4.26l-.07-1.48.42-1.67c.49-.21,1.44-.56,1.97-.64l1.42-.2.48-.07c.09-.01,0,.4-.1.39l-.65-.14.73,1.13-1.21-.42.37.62c.06.1,0,.3-.06.64l.93.43-.51.64c.6.4.99.77,1.31,1.44l-1.79.39,2.27,1.05Z"/>
  <path class="cls-1" d="M231.1,168.72c-1.76-1.45-1.42,1.06-3.54.93l.34-.37c-.3.33-.87-2.12-.95-2.77l-.22-1.82c-.03-.22.03-.63.08-.82.07-.23.82-.05,1.07-.12.84-.26,2.13-.24,3.07-.07.53.1,1.73-.48,1.9.28.34,1.48-.24,2.58-1.24,3.5l-.51,1.25Z"/>
  <path class="cls-1" d="M223.36,174.77l-1.32.42-.95-2.62c.07-.26.53-.91.81-.98l3.59-.88,1.74-.51.63,2.68-1.25.78c-.11.07-.67.06-.66.18l.06.53c-.65.47-1.16.87-1.78,1.46l-.86-1.06Z"/>
  <path class="cls-1" d="M233.67,222.47c-1.19.47-2.76.34-3.93-.17l-2.33,1.07c-.13.06-.61-.13-.71-.24s-.2-.5-.08-.57l.57-.31,1.8-.99-.93-.11.7-2.21,1.55-.41c.63-.17,1.23-.34,1.96-.6-.13.71.03,1.56.43,1.99l.88-.14-.21-.63c-.04-.11.24-.23.49-.37l.24,1.9c-1.56.02-2.59.07-3.92.44,1.39.15,2.5.11,3.92.11.26.61.29,1.46.02,2.3l-.42-1.06Z"/>
  <path class="cls-1" d="M180.5,123.19l.79-.78c-.18.75-.83,1.3-1.41,1.66l-.99-.59.45-.48c.26-.28-1.48-.31-1.42-.74l.15-1.2c-.77-.26-1.7-1.4-1.78-2.16-.02-.24.39-.67.57-.6s.59.26.57.45l-.13,1.26.5-.92.84.88c.73-.1,1.34-.07,2.26.15-.11.73-.49,1.46-1.04,2.09l.65,1Z"/>
  <path class="cls-1" d="M235.23,164.34l1.46,1.15c-.32.22-.64.46-.85.48s-.63-.27-.79-.42l-1.59-1.57c-1.38-1.36-2.6-2.92-3.25-4.62,1.39-.29,1.72.74,2.4,1.43.72.74,1.74,1.61,2.14,2.55.16.38.23.82.47,1Z"/>
  <path class="cls-1" d="M219.48,164.33l-.43-1.2c.04-.05.24-.34.26-.34.04,0-.37-.29-.48-.37l-.09-2.16,2.8,2.13c.18.14.99-.2,1.12,0l.55.8-3.73,1.15Z"/>
  <path class="cls-1" d="M211.63,55.43l-1.04.85c-.12.1-.51.22-.65.25-.19.05-.4-.54-.58-.66l-3.39-2.09-.64-.36c-.14-.08-.24-.46-.22-.52,1.01.02,1.81.06,2.51.43l4.01,2.1Z"/>
  <path class="cls-1" d="M248.46,203.42l1.5-1.08c.2,0,.83.16.91-.03l.35-.78c.1-.21.7-.24,1-.3l-.07-1.3.89.92.36,1.22c.07.24.44.87.22.95-.73.23-3.66.6-5.16.4Z"/>
  <path class="cls-1" d="M230.6,172.31l-1.61.06c-.08,0-.32.53-.25.57.1.06-.26-.13-.37-.18s.03-.21.25-.6c.25.08-.11-.03-.4-.12l-.23-2.06,2.22-.33,1.12,1.87-.72.81Z"/>
  <path class="cls-1" d="M252.44,145.52c-2.84-.65-1.68-4.92-1.94-4.84l-.61.18c.19-.36.41-.68.31-.89l-.49-.95c-.04-.19.84-.53.83-.43l1.89,6.93Z"/>
  <path class="cls-1" d="M218.53,183.67l-1.49.42-.77-2.88,1.08-.19c.16-.03.2.6.2.51l1.2-.63c.48-.25.87-.48,1.54-.76l-1.26,1.75c-.07.1-.23.53-.27.64s-.31-.25-.46-.41c-.04.1-.11.68-.29.67l-1.12-.08c.31.46.73.59,1.63.94Z"/>
  <path class="cls-1" d="M260.66,176.24l-.6-.32c-.09-.05-.34.21-.29.31l.28.54-1.82-.53.9-.1c.15-.02.32-.29.35-.48-.39-.27-.93-.65-.99-.72.75-.67,1.08-1.09,1.31-1.67l1.99,2.34-.27,1.75c-.2-.98-.16-1.92-1.05-2.24l.25.58c.06.14.05.6-.07.54Z"/>
  <path class="cls-1" d="M184.88,105.75l-3.7,3.22c1.84-2.27,3.86-4.14,5.93-6.14l1.35-1.3c.5-.49,1.1-.94,1.73-1.42-.25.85-1.04,1.21-1.61,1.8l-1.41,1.46c-.73.76-1.41,1.64-2.28,2.39Z"/>
  <path class="cls-1" d="M219.19,199.43l.7.31c.14.06.05.3-.05.62-.73-.63-1.63-.67-2.31.2l-2.81-1.07c.24-.7,1.02-1.34,1.38-1.17.33.43.67.84,1.04,1.14l.46.38c.09.07.29-.38.38-.44l.53-.35c.12-.08.47.28.67.37Z"/>
  <path class="cls-1" d="M212.44,200.56c-.7.02-1.44-1.06-1.88-1.42-.2-.16-.92-.19-.97-.35,1.12-.95,3.06-.21,2.78-.82l.24.53c.07.15.44.63.31.74l-.69.53.62.33c.13.07-.24.45-.41.45Z"/>
  <path class="cls-1" d="M252.35,173.22l-.78-1.18.83-1.31c.09-.14.21-.44.32-.43l.57.02-.92-2.56c-.21-.59.53-1.67,1.1-1.83.29.71.28,1.37-.36,1.78.02,3.11.82,2.17.88,3.58,0,.1-.54.25-.56.35l-.11.6-.98.98Z"/>
  <path class="cls-1" d="M194.3,146.64l.07,2.1-1.91-3.78c.16-.34.86-.64,1.09-.5.33.21.8.6.96.87.06.1-.45.48-.42.59l.2.71Z"/>
  <path class="cls-1" d="M246.7,260.54l-1.31-1.68c-.07-.08-.27-.52-.32-.6-.06-.12.54.03.55-.01l.72-1.37.92,1.01-.55,2.66Z"/>
  <path class="cls-1" d="M202.14,173.64c-.22-1.64-1.43-2.04-1.04-2.97l1.13.43.48-1.26c.75,1.38.15,2.62-.56,3.8Z"/>
  <path class="cls-1" d="M211.52,59.1c-.46-.26.32-3.84.88-3.44.65.46.76,1.81.36,2.21l-1.24,1.24Z"/>
  <path class="cls-1" d="M184.65,28.57c-.93-.19-1.54-.63-2.14-1.25-.24-.25-.09-1,.09-1.31l-.14-.4c-.03-.09.56-.13.61-.05l1.58,3Z"/>
  <path class="cls-1" d="M205.65,206.4c0-.59-.22-1.06-.58-1.4.6-.08,1.03-.27,1.59-.8.3.09.93.53,1.4.94l-2.4,1.26Z"/>
  <path class="cls-1" d="M227.05,155.18c.75.8,1.75,1.29,1.68,2.55l-1.17-1.3c-.79-.87-1.26-1.99-1.64-3.12-.13-.25-.26-.39-.17-.47.15-.11.48-.36.5-.24.54,2.36.93.14.8,2.57Z"/>
  <path class="cls-1" d="M253.06,188.26c.09.22-.6.88-.94.81l-1.83-.34c.14-.47.45-1.25.69-1.59.07-.1.67.31.59.4l-.5.57,1.99.15Z"/>
  <path class="cls-1" d="M249.64,138.19c.07-1.27-.08-2.73-1.15-3.52-.07-.27.17-.74.55-1.18l1.41,4.7-.46-.11c-.07-.02-.26.09-.35.12Z"/>
  <path class="cls-1" d="M190.05,164.68c-.18.45-.4,1.01-.69,1.2-.4.26-1.15.12-1.56-.36l2.22-1.78.03.93Z"/>
  <path class="cls-1" d="M180.89,213.27l1.7-4.36c.12-.31.7-.97.83-1.08l-2.1,5.63c-.05.15-.35.3-.44.35s-.04-.42,0-.54Z"/>
  <path class="cls-1" d="M171.36,116.9c-.71-.49-.86-1.49-1.33-2.21l-1.26-1.95c.69.35,1.33.78,1.77,1.16l.82,3Z"/>
  <path class="cls-1" d="M173.38,62.2c.04-.7.55-1.28,1.16-1.43l2-.5c-.84,1.1-1.88,1.5-3.15,1.93Z"/>
  <path class="cls-1" d="M204.53,196.23c.22.18-.8,3.13-.75,3.06-.18.23-1.08.34-1.18.24l1.93-3.3Z"/>
  <path class="cls-1" d="M228.28,158.3c-.74-.24-1.18-.34-1.45-.56-.36-.3-.55-1.12-.08-1.58.73.42,1.31,1.35,1.53,2.14Z"/>
  <path class="cls-1" d="M281.91,225.48l-.55-.26c-.14-.06.06-.61.21-.59l.92.14-.65-.91c.19-.09.86.16,1.05.46.18.28-.03,1.01-.24,1.28l-.31.42c-.08.11-.28-.27-.43-.55Z"/>
  <path class="cls-1" d="M172.68,149.02c-.28.67-.49.99-.85,1.49-.33-.27-.71-.85-.62-1.25.08-.35,1.29-.56,1.47-.24Z"/>
  <path class="cls-1" d="M181,128.55c-.06.53-.7,1.32-1.36,1.67l.4-1.57c.03-.13.31-.43.39-.53s.59.3.58.43Z"/>
  <path class="cls-1" d="M263.82,178.32c-.34.29-1.31.06-1.23-.28.16-.62-.07-.83-.44-1.69.59.49,1.01.99,1.67,1.96Z"/>
  <path class="cls-1" d="M173.94,169.88c-.08.03.11-.51.27-.47l1.01.25-.33-.8c-.09-.22-.64.1-.88.08l-1.18-.1.86-1.55.82.37c.2.09.16.51.2.83l1.83.52c0,.34-.45.91-.82,1.01-.33.1-.84-.01-1.78-.15Z"/>
  <path d="M242.29,237.46l-.22,1.04-.16-1.27c-.04-.3-.65-.36-1.16-.64-.39-.2-.05-.22.37-.22l2.09,1.02c1.09.53,2.11.94,3.02,1.52-1.56-.39-2.71-.93-3.93-1.46Z"/>
</svg>