<?xml version="1.0" encoding="UTF-8"?>
<svg id="Layer_2" data-name="Layer 2" xmlns="http://www.w3.org/2000/svg" viewBox="0 0 432 288">
  <defs>
    <style>
      .cls-1 {
        fill: #fff;
      }
    </style>
  </defs>
  <path class="cls-1" d="M81.96,3.97h266.64M218.14,64.46l-.26-.97.07-2.33c.05-1.77.3-3.35.18-5.11l-.1-1.42c0-.14.27-.47.36-.58.06-.07.44.3.41.4-.23.82.19,2.25.25,3.22l.35,5.55.47,2.86c.3,1.82.32,3.57-.04,5.38-.23,1.16.69,1.96,1.85,2.06l2.75.24c1.62-.79.97-2.71.9-4l-.26-5.08c-.06-1.23.21-2.44.44-3.78.93,0,.49,2.81,1.92,3.18.99.26,2.45.25,3.36-.05s.38-1.74.49-2.36c.18-.95.05-1.79-.61-2.52.23-.28.62-.61.69-.84.15-.53-.46-.07-.51-1.77l-.08-2.71-.05-3.34.78-.34c.08-.03-.11-.27-.19-.3l-.46-.23c-.22-.11-.15-.84.07-.95s.74-.28,1.01-.35c.07.94.15,1.74.14,2.52l-.09,5.06c-.02,1.33-.19,2.65-.14,4l.11,3.34c.04,1.15.22,2.04,1,2.8.62.61,2.05.81,2.92.38l1.52-2.42c-1.36-1.02-1.47-2.47-.77-3.63-.62-.44-.74-.83-.83-1.44l-.25-1.49c-.04-.23.81-.4.92-.19l.37.69.55-.56c-.52-.17-1.03-.55-1.4-1.04s-.01-1.47-.13-1.94c-.28-1.04-.33-1.69-.22-2.75.21-2.08.07-4.21,0-6.32l-.28-8.39c-.09-2.61.26-4.89-.55-7.8l-.39-1.39c-.12-.44-.1-.94-.31-1.13-.6-.52-3.2-.09-3.35.61l-.51,2.34c-.53,2.43-.26,4.77-1.09,5.36-.58.42,0-3.42-3.97-3.16l-.99,1.7c-.26.45-.58,1.33-.75,1.78.13,1.79.02,3.49-.24,5.2l-.41,2.62c-.49-.34-1.1-.91-1-1.28l.4-1.43-.99-3.33c-.15-.52-.97-1.16-1.36-.95-2.04,1.09-3.16-.12-3.59,1.64-.83,3.39.1,4.34-.91,5.35-.59-1.55-1.07-2.81-2.54-3.55l-3.5,1.07-.94,6.49c-1.16-.07-2.08-.09-2.82-.71s-1.07-1.49-1.04-2.61c-.19-.15-.99-.31-1.31-.21s-.69.71-.92,1.04l-1.72.44-1.24.55c.25.07,1.03.68.84.93l-.84,1.12c.46.16,1.03.4,1.21.77.22.45.29,1.28.2,1.67l-.45,2.06c-.34,1.55.4,3.77.7,6.05l.39,2.92c.15,1.11.04,2.17-.52,2.99,1.13.91.64,2.21-.01,3.33-.02,1.42.15,3.2.52,4.64.34,1.33,2.21,1.93,3.38,1.64,1.94-.49,1.8-3.36,2.37-2.84l.66.59c1.08.98,3.36.5,3.89-.28.21-.3.28-1.07.14-1.39-.73-1.67-.23-3.15-.05-4.85.09-.82-.56-1.64.52-2.41.17.69.22,1.46.21,2.3l-.03,3.33c0,.56.54,1.8,1.11,1.9l3.3.56c2.04.35.85-7.71,1.28-6.15ZM244.59,81.26c-.36-.16-.85-.19-.86-.39s.06-.74.17-.91c1.61-2.67-.28-2.11-.15-4.03l1.63-1.17c.66-.48,2.13-.32,2.61-1.22.75-1.4-.26-3.56.09-5.04l1.08,1.95c1.02-.27,1.49.15,2.19.65.48.25,1.62-.79,1.69-1.37.11-.93.05-2.04-.23-2.85-.43-1.23-.27-2.18-.16-3.46.13-1.56.33-3.54.58-5.05-.62-2.1.24-2.48.37-2.27.05.08.35.44.35.53l.2,4.2.15,3.66.39,3.58.19,4.94c.03.79,1.08,1.92,1.95,1.9,1.51-.03,3.28-1.42,2.81-2.96-.34-1.1-1.2-2.18-1.32-3.86l-.17-2.42-.37-4.74c-.07-.93-.05-1.79-.07-2.74-.04-1.92-.57-4.04-.68-5.98-.09-1.65-.03-3.39-.29-4.98l-.74-4.57c-.94.15-2.36,2.04-2.68,1.37l-.4-.8c-1.96-.7-2.1,2.69-2.48,2.25-.05-.06-.35-.3-.37-.38l-.57-2.47-2.55-.38-.44,1.7c-.07.27-.52.8-.73.66-.99-.64-.18-1.83-1.69-2.75-.71-.43-1.36-.29-2.26-.26-2.65.1-.76.07-3.52,2.9-.6,4.47.77,4.74.52,7.8-.09,1.1.39,2.48.48,3.64l.61,7.81.34,3.23c.28,2.66.18,5.25.09,7.92l-1.63-.52c-1.21.52-2.31.34-3.57.18-2.73-.36-1.64-.44-5.16-.81-.85-.09-2.03.31-2.94.52s-1.7.95-1.92,1.76.43,1.72.75,2.46c.44,1.03.85,1.49,1.82,2.01,3.22,1.73,3.64-.15,4.82,1.75-.99.35-2.02.32-3,.03-1.28-.38-3.91,0-4.93.69-.32,2.26.1,2.68,2.16,4.15l.73.52c.16.12-.2.71-.38.82l-1.37.83c.38,1.04.84,2.15,1.49,2.97.65-.06,1.31-.12,1.92.28l-2.82.97-2.06,1.54c-.51.45.42,2.12,1.12,2.34,1.93.6,2.96-.18,5.87-.17.92,0,2.26-.24,2.86.59.49.68.96,1.04,1.6,1.66,1.43,1.38,4.08,2.27,5.61.27.69-.91,1.41-2.1,2.07-3.11.21-.32.41-1.07.71-1.23.87-.48,1.82-1.04,2.53-1.52-.26-1.41.15-2.28,1.14-2.95-.09-.39-.29-1.02-.07-1.16l.89-.57c.68-.44.24-1.59.11-2.32-.25-1.49-.46-2.96-1.22-4.27l-2.89-1.3ZM187.95,66.92c1.56-.41,2.49-1.26,2.68-2.74l1.98.19,1.21-1.95-.13-1.77c-.04-.59-.19-1.12-.39-1.72-.67-2.03-2.51-3.53-4.73-2.79l-1.65-2.68c-.54-.88-2.59-1.46-3.47-.77s-1.59,1.29-2.6,1.39c-1.47.15-1.35,1.19-1.61,2-.36,1.08-.06,1.63.06,2.67.19,1.68.2,3.51.26,5.22s.69,4.1,2.75,4.11c1.45,0,2.45-1.5,3.06-2.69.54.87,1.57,1.78,2.59,1.51ZM187.7,101.46l8.45-.62c.8-.06,1.6-.46,2.43-.46l7.22.02c1.08,0,2.68-.63,2.79-1.87s-.28-2.93-.38-3.99c-.02-.24.5-.77.39-.93l-.51-.72c-.66-.94.24-2.39.1-3.17-.25-1.49-2.2-1.58-3.36-1.57-.67,0-4.51-.1-3.42-1.43l1.2-1.46c2.19-2.67,1.75-3.05,1.16-6.51-.43-2.54-3.34-2.68-5.3-2.65-3.98.06-4.44-.58-8.53-.42-.81.03-1.69-.17-2.51.25-.75.38-1.79.93-2.41,1.38-.4.28-.68,1.49-.43,1.9.26.44.6,1,.83,1.43l-3.02,1.06c.5.82.33,1.73.22,2.62,2.25,1.09,4.83,1.3,7.34.71l3.66-.86c1.03-.24,1.84-1.09,3.18-.18l-1.94,1.76c-1.07.97-2.5,1.97-3.77,2.63-.53.28-1.76.31-2.34.54l-3.82,1.56c-1.37.56-2.86,1.13-3.32,2.74.95,1.29,3.35,2.66,3.6,3.54.2.71-2.04-.32-4.56,1.86-.34.3-.68.56-.76.83s.14.99.33,1.21c1.76,2.07,6.34.91,7.47.83ZM276.95,114.63c.84.73,2.68-.4,2.95-1.21l.84-2.52c.27-.82.42-2.1.48-2.99l.46-6.53.78-5.02c.12-.77-.07-1.75-.19-2.64-.08-.59-1.35-1.24-1.65-1.79-.37-.68-.57-1.43-.79-2.23-.27-.96-1.27-2.27-2.46-1.88l-3.17,1.04v2.74c-.56.17-1.16-.51-1.54-.85-.42.07-1.13.2-1.51.16s-.74-.83-.67-1.19c.59-3,.07-7.13-.53-10.21-.17-.86-.37-2.09-.84-2.72-.93-1.25-2.35-.53-3.19.17-.51.43-1.21.58-1.1,1.39.14,1.09.46,2.31.35,3.26-.09.76-.29,1.38-.16,2.13.36,2.1-1,2.09,1,3.53.07,3.07.48,2.18.45,4.81-.01.74.3,1.99.07,2.58-.35.81-.41,1.23-.11,2.07.09.48-.21,1.49-.25,2.05l-.19,2.66c-.07.98-.12,2.26-1.02,3.25.2,1.15.69,2.93,1.69,3.78,4.23-.07,1.96,3.31,6.91,1.96.18.74.47,1.64,1.01,2.11l2.39,2.07ZM167.67,105.87c.42-.21.91-1.29,1.34-1.28.9.21,1.82.07,2.56-.39l1.04-.64-.86-1.61c1.73-2.23-.09-4.66,1.33-5.86,3.24-2.73,1.92-2.31,2.05-3.57l.51-4.78c.09-.81.16-1.78-.3-2.48-.3-.46-1.22-1.05-1.75-.92l-1.19.29c.08-2.62.51-1.26-.51-4.3-.37-1.11-1.64-.48-2.33-.28l-2.42.7c-2.17.13-4.28,1.3-3.87,3.76.26,1.57.28,3.83.12,5.39l-.42,4.04c-.32,3.11.06,2.26-1.4,3.31l1.04-.12-.25,4.53c-.04.76.27,1.35.51,2.01.35.96.41,2.19,1.12,2.98l1.8.1,1.85-.91ZM252,118.57c2.44.64,3.36-1.04,4.19-.95.19.02.64.41.84.42.96.05,2.04-2.61,2.32-3.85,1.29.76,3.39.37,3.94-1.34.18-.55,0-1.63-.02-2.27l-.06-3.11c-.03-1.26-.55-1.22,0-4.67.15-.9-.21-2.32,0-3.18.32-1.27-.21-1.69-.59-2.75s-.47-3.05-2.12-2.91c-2.72,2.04-.72-2.96-4.35-5.72l-1.91-.12c-.18.7-.77,1.38-1.59,1.85l-.08,2.53c-2.48,1.67-3.46.31-4.33,3.28l-.35,1.2c-.19.4-1.07,1-1.49,1.22-.27.14-.32.82-.2,1.12.31.73,1.71.87,1.21,1.46-1.82.9-1.55,3.6-1.18,5.28.22.98.19,2.71.15,3.64-.01.19-.45.55-.4.7.61,1.81-.06.42.39,3.8.12.92.26,1.39.93,1.87,1.11.8,2.36,1.06,3.49.15l1.2,2.36ZM151.37,138.94l.4-1.11c1.14-.67,1.83-2.17,1.01-3.33l-1.42-.52c.66-.11,1.25-.04,1.89,0l1.29-1.54c-.05-.99-.3-2.29.05-3.24.51-1.35.1-2.64.22-4,.05-.57.44-1.53.43-2.18l-.02-2.93c0-.98.11-2.37.44-3.23.47-1.21.25-1.82.09-3-.19-1.38-.17-2.88-1.22-4,.23-.34.61-.72.62-.95s-.17-.68-.29-1.07l1.48-.62-1.12-.44c-.55-1.16-.87-2.61-.21-3.94-1.09-1.17-.21-2.77-.53-3.99-.35-1.33-1.49-2.52-.39-4.08-2.24,1.35.49,2.04-2.02,3.45.3.4.76,1.02.75,1.37s-.58.85-.95,1.19c1.21,1.7.6,4.16-1.29,5.33.7.17,1.21.38,1.31.98.1.63-.12,1.18-.35,1.71l.3,1.46-3.13.84c-.96-.71-2.04-.9-3.24-.18-1,.6-1.81,2.48-1.82,3.7l-.05,4.95.21,7.02c.04,1.33.12,2.57.05,3.9l-.08,1.57-.18,1.73c-.14,1.35-.71,2.94.01,4.21,1.2,2.11,3.84,2.39,5.91,1.44.49-.22,1.38-.35,1.86-.49ZM235.11,123.08l2.51-1.84.45-2.84c.13-.82.18-1.76.19-2.54l.04-2.25c.01-.73.12-1.64.1-2.32l-.11-3.02-1.91-1.82-2.48.22c-.23.27-.73.86-1.04.8-1.43-.27-.35-2.36-.91-4.07-1.01-.13-1.78-.28-2.59-.21l-2.89.26c-.16,1.03-.71,2.4-.78,3.4-.08,1.08-.17,1.84-.49,2.81-.28.85.57,2.19-.79,2.77l1.12,1.93c.16.27.32.6.39.8.06.16-.48.6-.49.77-.02.82.82,2.33,1.77,2.6,2.66.76,1.96-.18,3.94.15,1.05,3.5.64,2.72,3.95,4.4ZM164.9,128.34l1.6-.3c.5-.09,1.58-.13,2.04-.3,1.6-.59,3.14-1.18,4.64-1.9.98-.47,1.36-1.61,2.94-1.42,1.4.16,4.78-1.13,4.62-2.8-.08-.87-.02-1.43.13-2.32.11-.68-.9-1.77-1.3-2.58-.17-.73,4.3-.86,3.76-3.27l-.75-3.35c-.57-.31-2.12-1.01-2.85-.86-2.24.45-4.2.53-6.32-.04-2.49.96-4.05.56-6.86,1.31-1.01.27-1.86.83-3.02.45l-1.57.92c.11,2.46-.93,1.95-.33,4.22.19.72-.09,1.45-.58,1.97l-1.31,1.41c-.53.58-.95,1.34-1.51,2.19.86.9,1.8,1.63,2.9,1.95l-1.69.94-.72,1.81c1.3,1.84,4.27,2.32,6.17,1.97ZM194.44,140.69c.84-.71,1.42-2.4,1.12-3.39-.23-.74-.18-1.1-.2-1.83l-.12-4.29c-.11-3.89-1.12-3.39.32-5.36-.33-.45-.56-1.15-.51-1.76l.14-1.9c.09-1.17-.13-2.05-1.24-2.65-2.12-1.14-1.03-2.77-2.49-4.09-1-.9.13-1.76.23-2.43.19-1.19-1.29-1.67-2.15-1.87s-1.82.52-2.46,1.33c-.88,1.14-.44,2.73-.72,4.09-.16.78-.57,1.52-.4,2.37.19.97.28,1.97.08,2.92l-1.03,5.07c-.16.8-.14,1.38.04,2.21.23,1.07.38,2.22,1.68,2.45l-.04,2.9c0,.51-.01,1.34.19,1.79.16.34.82.65,1.28.75l2.48.53c.43.29-.32,1.39-.82,1.57.26.53.52,1.34.77,1.72.78,1.2,2.7.83,3.85-.14ZM264.24,133.85l2.87.3c1.44-.47,2.72-.72,3.57.77l2.99.11c1.28-.96,1.93-2.14,2.58-3.49,1.49-3.11-2.04-3.14.46-4.83l2.58-1.74,1.57-1.07c.19-1.38-.39-3.15-1.79-3.79-.89-.4-2.21-.06-3.18,0l-2.58.17c-.59.04-1.08.04-1.61.16l-3.68.84-2.01.72c-1.21.43-2.53,1.45-1.97,2.84.67,1.67,3.38,1.03,4.18,1.68,0,1.44-1.04,1.85-1.9,2.57-.93.77-1.77,1.23-2.94,1.75-.92.41-.25,2.89.86,3.01ZM248.18,145.44c.35.05,1.02-.33,1.33-.38,2.26-.39,4.63-1.63,6.22-3.27,2.41.67.64-2.24,3.88-2.26l-1.77-1.21c1.84-2.02,2.13-.77,4.3-3.36l-.38-2.94-2.03-1.28c1.4-.97,2.39-2.07,2.03-3.4s-1.64-1.92-2.9-1.93l-5.95-.05h-2.09c-3.34-.02-6.46-2.42-9.74.99l-1.1,1.14c-.95.98-2.15.7-4.8,3.27-.97.94.29,2.13.98,2.62,1.91,1.35.68.1,4.44.93,1.22.27,3.75-.09,3.12.55l-.45.46c-1.45,1.47-2.65,1.02-4.77,3.23-.31,1.74,1.54,2.13,2.22,2.94.86,1.03,1.16,2.13,2.5,2.7.66.28,1.44.72,2.16.83l2.81.42ZM159.26,152.8c1.68,3.5,5.03,2.22,8.19,2.25,1.58.02,2.99-.31,4.6-.45,2.89-.26,8.38,1.1,9.14-1.66.31-1.12-.02-2.63-.24-3.72-1.37-.09-1.99-1-1.84-2.22.14-1.06.29-2.21.39-3.22l.36-3.43c.11-1.05-1.13-2.06-1.08-3.21-1.07-.57-2.26-1.38-3.38-1.27l-3.33.33c-1.54.15-2.83.29-4.46.07l-2.51.81c-.7,1.19-1.8,1.51-3.27,1.63l-2.11,1.26.21,1.68-1.08,1.57c-.72.41-1.71.92-2.23,1.47-.42.44.02,1.83.46,2.22.51.44,1.28.68,2.14.96-.88,1.08-2.53.23-3.63,2.17l1.19,2,2.49.77ZM285.4,172.88c-.32-1.18-.78-1.74-1.77-2.45-2.09-1.51-1.1-.05-2.44-.95-.09-.06.22-.27.33-.26l.41.04.54-1.4c-.77-1.51-.55-5.39.12-6.83.75-1.61,2.14-3.72,1.69-6.36l-.29-1.67-.1-2.03c-.12-2.4,1.81.89,3.96-1.01.77-.69.69-1.74.46-2.9-.3-1.54,1.36-3.66-.04-4.46-.3-.17-.96-.12-1.44,0-1.69.44-.45,1.08-1.68,1.41-.15.04-.46-.37-.36-.48l.99-1.11c-.19-.6-.61-1.5-.98-1.9-1.9-.76-3.56.38-4.62,1.88-1.69,2.39-.7.11-.85,5.08l-.15,5.01c-.02.55.31,1.49.24,2.06l-.76,5.5c-.11.8.13,2.13.21,3.01.23,2.6-.28,1.02-.73,4.26-.08.59,1.03,1.54,1.35,2.02-2.19,3.17.04,7.28-1.63,10.89-.44.94-.92,2.35.42,3.05s2.96-.37,3.26-1.86c.63-.33,1.58.42,1.98.79.59-.6,1.28-1.21,2.01-1.76l.35-1.82c.12-.19.53-.51.46-.69-.82-2.27.08-1.29-.93-5.04ZM265.77,172.4c-2.1.88-1.4,0-4.88,1.42-2.32.95-4.51,1.78-6.94,2.41-.75.19-1.6.82-1.49,1.77.05.43.88.93,1.38,1.17,3.51,1.64,2.63.7,7.46-.08,1.1-.18,2.14-.36,3.33-.47,1.36-.13,2.92-.89,4.21-.81,1.13.07,1.45,0,2.35-.4,1.03-.46,2.03-.62,2.8-1.61.29-.37.88-.91.81-1.29-.19-1.1-1.07-2.61-2.34-3.29l1.6-1.75-.38-1.49-.14-2.09-.19-3.26c-.01-.18.36-.64.26-.77s-.52-.43-.51-.58c.03-.78.06-2.39.21-3.18l.48-2.41.39-1.23c-1.23-3.63.67-7.6-.99-10.08-.94-1.41-3.3-.28-4.45-.57-.24-.06-.3-.81-.51-.97-.57-.44-1.64-1.04-2.26-1.28l-2.05.58c-.62.17-1.05,1.51-1.26,2.11-.96,2.6-3.05.78-4.67,2.33l-1.57,1.5c-.85.32-1.47.59-1.87,1.24-.43.69-.43,1.4-.3,2.24l.39,2.51.58,5.52c.06.62.02,1.19-.21,1.67.5,1.07.39,2.42.44,3.73.02.66.31,1.51.2,2.18-.17,1.02.38,1.58,1.1,2.09,2.26,1.58,5.59-.7,5.84-1.62,1.08-4.01.23-.72.26-4.75,1.92-2.22.5-2.73,1.25-3.54.1-.1.39,0,.43.14.03.09.07.42.07.54l-.07,2.29-.57,1.28c.66,1.09,1.71,2.11,3,2.25l2.15-.58c-1.08,1.59-1.03,2.51-.39,3.83.54,1.11,1.03,2.19,2.68,1.91-.18.25-.29.49-.42.47l-.49-.09c-.61-.11-1.82-.17-2.36.05l-2.34.98ZM212.23,174.54l1.54-.58c1.36-.51,5.61-2.41,6.36-3.92l-2.12-2.67c-.33-.42-1.42-.8-1.94-1.13-.76-.47,1.04-2.14-.1-3.57-1.06-1.35-2.59-.27-3.37-1.23-.72-.88.07-1.57-.26-4.88-.11-1.07-.1-2.2-.13-3.31l-.07-2.17-.13-4.82-.58-2.13c-.37-.14-1.44-.17-2.07-.14-2.76.13-1.34,1.9-2.95,4.05-.26-1.08-.12-2.22-.64-2.96-.56-.8-2.01-.51-2.77-.16-1.69.77-1.8-2.02-3.54-1.87-1.07.5-1.49.63-2.61.21l.78.82c.48.51-.99,1.59-.69,2.65.44,1.56.07,2.88.12,4.36l.23,6.27c.04,1.08-.18,2.25-.52,3.22l1.72,1.37,2.83.31c-.74,1.32-4.26-.37-6.01,2.56l.15,2.02c-1.39.57-3.17.68-4.08,1.75-.82.96.57,2.51,1.47,2.82l1.63.55c1.84-.6,5.25-.97,7.31-.94l-1.33,1.43c-.17.36-.1,1.31.02,1.69,3.17,2.47,8.2,1.75,11.74.42ZM189.09,165.63c.54-.02,1.38-.62,1.63-1.31.54-1.51-.42-5.93-.22-6.93l1.01-5.06.26-1.23c-1.64-2.74-3.8-1.79-6.19-1.31l-.57,1.82c.11,1.96.51,4.04.04,6.03-.59,2.49,1.85,2.1.93,5.3-.12.41,1.69,2.75,3.11,2.7ZM246.07,178.01c.38-.93.85-2.23.96-3.08.08-.63-.22-1.03.51-1.34.66-.28,2.08-1.21,1.86-2-.89-3.17.53-1.89-.61-8.11-.67-3.61.29-4.86-.31-6.79l-.7-2.26-1.48-.97c-.18-1.24-.46-2.9-1.43-3.65-1.77-1.38-3.56-.21-4.61,1.16-.56.72-1.43,1.37-2.07,2.04-1.53,1.6-.57,3.75-.58,3.61.07,1.63-.27,9.35-.46,11.04-.56,5.03,1.55,4.82,1.52,5.15l-.05.69-.13,1.66c-.09,1.09,1.07,2.31,1.78,2.99l1.2-.2c1.42.73,3.12.99,4.59.05ZM224.69,180.18c.27,1.57.41,3.13.56,4.75.1,1.13-.03,2.4.46,3.41.23.4,1.04,1.09,1.34,1.37,1.73-1.02,3.9-.95,3.53-3.18-.14-.85-.24-2.09-.55-2.84l-.77-1.88c-.35-.86-.2-1.87.4-2.47l1.49.73,1.78-1.13c-1.5-2.38,2.43-2.18.29-4.67-.08-1.01.65-2.33.91-3.36l.6-2.36c.17-.66-.06-1.78.04-2.45.08-.36.55-1.1.48-1.49-.89-5.34.16-2.48-.2-4.85-.11-.73.25-1.46.26-1.96.02-.98.11-1.76.5-2.53l.12-2.28c.03-.5.16-1.38-.09-1.71-1.3-1.1-3.95-1.09-4.76.5l-1.2,2.35c-.15.3-.39.77-.6.96l-.48.44c-.22.2.77.84.5,1.34l-.35.66c.43.36.91,1.41.32,1.64-.59-.09-1.75-.54-2.3-.32-1.47.57-1.49,2.13-1.23,3.72-1.16-.83-1.1-2.41-1.16-3.63l-.17-3.21-.06-2.77c-.01-.63-.39-1.47-.81-1.73-1.23-.76-3.9-.43-5.16,1.74-.46.78-1.5,1.61-1.41,2.61l.5,6c.07.88-.36,1.51.7,2.23.8.54,2.03.64,3.07.95.73.22,1.51.91,2.4.72.53-.11,1.23-.68,1.73-1.15,1.33.46.61,1.93.62,2.79,0,.64-.01,1.28-.05,1.96l.3,1.42-2.02.04c-.71.02-1.68.64-2.08,1.14-.43.53-.74,1.97-.29,2.38l1.27.97c1.48,1.12.99,1.77,1.57,5.15ZM165.69,184.34c-.03-.26-.49-.78-.55-1.04-.55-2.31-.54-7.35-.36-9.91l.3-4.28c.12-1.75,1.08-7.38-.55-8.63-.96-.73-5.78-.1-5.89,2.61l-.13,2.96-.23,6.05c0,.15-.7.52-.71.4l-.03-.54-.17-3.05c-.05-.86.14-1.89.17-2.72.14-3.95,1.61-3.22-.27-5.23-.28-.3-.75-1.19-.94-1.33l-.85.83c-.7.68-1.39-1.26-1.6-2.4l-.6-3.42c-.2-1.14.08-2.57-.5-3.65-.9-.46-2.39-.04-3.3.44l-1.35,1.77.83,3.57-1.15,1.35c.22.3.62.86.41.97l-.78.38c-.07.04-.26.19-.31.25-.05.06-.05.21.03.2l.49-.05c.21-.02.85-.33.91-.13l.26.86c.16.51-1.43.07-1.99,1.99-.16.55.48,1.54.86,1.98.15.2-.49.82-.52,1.09l-.31,3.21.26,2.53c.11,1.08.13,1.89.15,3l.06,2.53.45,1.85c.16.67,1.65,1.28,2.37,1.4.94.16,1.71-.53,2.09-1.29l1.65-.44c3.49,2.49,5.52,1.1,6.29,4.66.11.51.69,1.57,1,2.01,1.23,1.72,4.57,0,4.49-.8ZM175.15,170.2l2.8-.51c1.18-.22,2.39-.51,3.61-.37,1.58.18,3.13-.33,3.82-1.96-1.14-2.17-1.74-1.17-3.94-3.67-.34-.39-.75-.86-1.09-.98-.4-.14-1.1.15-1.53.28l-2.86.83c-.51.15-1.31.99-1.76,1.24-1.09-.34-1.84-.22-2.73.17l-2.06.92c-.12.55-.28,2.33.3,2.73,2.82,1.97,2.27,1.9,5.44,1.32ZM164.34,207.73c1.25,1.39,2.88.73,4.26.58l5.76-.6c1.1-.12,1.35-1.17,1.66-1.9.15-.36.57-.94.47-1.22-.49-1.29-2.9-.58-4.17-1.68l1.89-.87,3.37-2.55c.26-.69.65-2.07.52-2.72-.34-1.75-1.98-2.14-3.57-2.33,1.21-.5,2.67-.51,3.9-.92,1.58-.53,2.69-1.46,4.3-2.22l-.1,1.63c-.12,1.88.17,3.79.26,5.69.06,1.29-.04,2.56.31,3.77.86.22,1.75.6,2.38.6l2.09.02c.35,0,1.04-.2,1.18-.43-.14-1.14.2-2.1,1.03-2.84l.17-1.81c.21-2.23-1.31-2,1.08-4.09-.32-.38-.71-.93-.73-1.32s.49-1.13.52-1.52l.39-6.76.15-2.72c.06-1.08.16-5.12-1.91-4.4-.48.17-1.19.37-1.59.3-1.35-2.89-3.54-.78-3.97-1.47l-.46-.72c-1.25-1.96-.54-3.62-1.57-3.8l-2.06-.36c-2.01.51-3.94.59-5.93.34-1.74,1.13-4.18-.05-5.86,1.94-.36.42-.27,1.9.23,2.16l2.25,1.17h2.29s2.05,1.22,2.05,1.22c.66.39,1.57.89,2.35.86,2.13-.09,3.9-.12,6.2.04l-.56,6.5c-.25,2.87.71,2.99.15,3.85-1.08-.52-1.96-.7-3.04-1.02-3.05-.91-3.3-.24-6.56.4-1.25.25-2.58.5-3.88.64-.9.1-1.96-.17-2.9.05-1.33.31-2.63.44-3.87,1.03-.77.36-1.05,2.01-.51,2.72.32.43,1.09.66,1.83,1.1-2.5.64-2.67-.45-4.41.48-.93.5-1.85,1.2-2.5,1.97l1.35,2.04c.17.26,1,.46,1.08.76.07.25-.08.67-.25,1.19-.33.94,1.11,1.01,2.22,2.1l2.57-.81c.7-.22,1.27-.39,1.83.12-.82.42-1.39.69-2.06.93-1.2.44-1.64,1.55-1.02,2.75.32.61.93,1.58,1.41,2.12ZM199.68,187.64c.33-.8-.1-2.06-.04-2.99.11-1.63.43-3.33-.24-4.98-.56-1.37-2.47-1.11-3.41-.27-1.01.9-1.46,1.86-1.04,3.24l.62,2.03c-1.34.47-1.42,1.36-1.1,2.52.16.59.43,1.35.84,1.64.83.6,3.74.38,4.39-1.19ZM250.63,248.94l-1.99.02-2.28,1.25c-1.31.72-2.45,1.43-3.37,2.62,3.02,3.26,1.24,1.02,4.11,3.18.53.4,1.72.55,2.53.86-.79.84-2.14,1.17-2.26,2.22-.23,1.99,3.75,2.92,5.12,3.22,1.01-.16,5.06-1.47,5.31-.37l.18.77.39-.9c.09-.2.82-.04,1,.09.87.67,2.1.32,3,.37,1.82.1,3.47,1.18,5.28.25,1.95-1.31,2.34-4.1,4.38-3.78,1.01.16,1.91-.16,2.97-.45.56-.15,1.2-.23,1.71-.51.91-.51,1.87-1.02,2.49-1.78.2-.25.31-1.19.05-1.37-1.04-.75-2.7-.46-2.53-1.34.08-.39.65-.93.54-1.25-.44-1.27-2.73-2.84-3.93-3.28-1.75-.64-3.56,0-5.09.82-.22.12-.88.02-.8-.19.43-1.11,1.14-.87.96-1.21l-.29-.56c-.09-.18-.27-.74-.09-.82,1.27-.56,2.38-.34,3.38-.21,2.16.27,2.08-.48,5.07.3,1.29.33,2.72.77,4.01.98,1.61.27,2.52-1.71,3.31-2.65.45-.54,1.4-.99,1.44-1.59.12-1.4.42-2.54.98-3.69.75-1.53.32-3.04.28-4.65l-.12-5.69-.17-2.7-.24-2.39c-.13-1.29-.23-2.69-.4-3.88l-1.54-1.65-1.73-.27c.04-.73.21-1.48.45-2.17-.23-1.63.23-4.44-.86-5.62-.93-1-3.84.43-4.25,1.39-.15.35.03,1.26.25,1.58.67.95.21,1.78.11,2.68-.07.61-.1,1.24-.23,1.8l-.74,3.13-.66,2.38c-.2.72-.1,1.4-.97,1.66l-1.03-2.01c.19-.8.37-2.3-.45-2.78-1.05-.62-2.61-.4-4-.67l2.18-2.56-1.14-1.61c-.44-.62-1.57-.86-2.39-.61-.89.27-1.81-.13-2.63-.18-1.25-.08-2.29,1.23-3.67.3.7-.85,1.39-1.13,2.31-1.43,4.04-1.31,1.31,0,5.62-3.31l.3-1.52h1.7c-.55.73-.29,4.99.3,5.55.76.57,2.12-.02,2.66-.65.51-.6,1-1.97.47-2.61l-.62-.74c-.1-.12.38-.37.61-.51.43-.27.37-.74.34-1.34-.09-1.98.66-3.87,1.28-5.74.8-2.42,1.34-.19,1-3.38.52-1.53.6-3.06.31-4.73l-.88-5.11c-.24-1.41-.22-3.01-.72-4.28-.57-.29-1.04-.54-1.57-1.02-.29-.25-1,.02-1.49.16l-1.83.27c.75,2.48-.79,4.09-.98,3.65-.05-.12-.16-.52-.13-.65l.46-2.08c.31-1.39.43-2.79-.58-3.93l-2.08.51c-.58,1.27-.37,3.35-1.01,3.73-.94.56-2.01-.81-3.65.26l.5,2.75c-.54,1.82-.34,3.58.4,5.62-.5.42-1.69.64-2.48.75l-3.35.46c-.72.1-1.44.6-2.18.06,2.15-1.08,3.84-2.06,5.68-3.41-.18-.97-.3-1.96-.74-2.84-.79-1.57-6.5,2.06-8.7,1.2.98-.64,1.94-.95,3-1.28l2.79-.87c.81-.25,1.74-.75,2.6-1.11.02-.45.13-1.31.07-1.73-.51-3.39-6.45-1.12-8.43-.95s-4.03-.28-5.56,1.39c-.29.36-.7,1.15-.96,1.63l1.02,1.12-1.27.81c-.51.32-1.63.93-1.94.45l-.44-2.76c-.44-2.74-.13-5.39-1.06-8.1-.33-.97-3.97-.28-4.05,1.1-.04.73-.09,1.57-.07,2.07.21,1,.31,1.7.39,2.77l.27-.77.44.88c.34.68-1.21-.41-.91,2.37l.21,1.9c.02.2.55.61.46.78l-.45.8c.07,1.16.45,2.82.38,4.08-.13,2.49.02,4.37-.34,6.22l-.48,2.39c-.3,1.52.19,2.39.38,3.73.22,1.57-.1,3.54-.13,5.22-.01.59-.66,1.23-.3,1.92.65,1.25,2.69,1.9,4.07,1.03l1.04.05c.22-1.58-.15-2.7-1.45-3.53.14-.6.41-1.38.45-1.86l.31-4.33c.15-2.07.38-4.13.98-6.05l.59-1.89c.47,1.97,2.57,1.56,4.39,3.24.65-.71,1.55-.8,2.51-.8l2.29.02c.41,0,1.25-.33,1.71-.31,3.59.18,4.24-1.7,8.97-1.45.55,1.43.89,3.23-.49,4.03l.87.22c.15.04-.03.61-.02.78l.11,2c-1.57.75-3.11.92-4.86,1.01-.98.05-2.09.54-3.1.65-1.84.21-3.79.27-5.22,1.49l-1.56,1.34-.42,2.09,3.2,1.68,2.34.26c-1.64,2.1-3.95,2.81-3.9,4.54.03,1.07,1.92,1.69,1.77,2.63-.08.49-.26,1.02-.49,1.71.98.79,4.46,1.33,5.96,1.42,1.1.06,2.23-.92,3.44-.02-2.66.98-2.96.65-5.22,1.21l-2.89.71c-1,.25-1.77.55-2.76,1.03-1.08-2.25-.25-1.53-1.05-2.92l-.98-1.72c-.44-.77-1.11-2.04-2.25-1.83-2.62.49-3.17,1.6-5.4,2.27l-1.38,3.97c.99,1.57,1.78,2.98,2.87,4.47.5.69,1.66,1.71,1.39,2.57-.1.23-.73.58-.66.79s.37.69.42.94c.2,1.07.39,2.75,1.75,3.02,1.91.38,2.76,1.51,4.47.79.87-.37,1.48-1.53,1.5-2.42s.19-1.91.09-2.61c-.1-.75-.29-1.33-.24-2.11.06-1.01.84-2.41,1.98-2.14,1.63.39,2.57.33,4.27.11l2.84-.36c1.25-.16,3.02-1.15,4.19-.44l2.33,1.4c1.18.71,2.31,1.18,2.96,2.56l-1.06,2.77-1.23-1.82c-1.32-1.35-3-.99-4.62-.56-.39.1-1.4-.14-1.72.15-1.88,1.7-1.07.33-4.17,2.13-1.48.85-3.11,1.37-4.31,2.62-.13.73.46,1.81,1,2.11.69.38,1.51.45,2.29.25,2.94-.77,1.82-.13,3.54-.78.88-.33,2.12-.47,2.81-1.02,2.89-2.3,2.78.02,5.9-3.14,2.13,1.81.62,1.92,2.69,1.92.94,0,2.65-.03,2.81-1.27.1-.81-.35-2.45,1.04-2.61.89-.1,1.74,1.25,2.35,1.69,1.44,1.04,2.96.32,4.02-.84.34.09.52.71.45,1.03l-.55,2.33c-2.13-.53-4.08-1.02-6.18-.43l-2.45.69c-1.01.28-2.27.38-3.02,1.05l-2.36,2.1c-.64.57-2.24.96-3.07.92l-4.16-.23c-3.71-.2-3.29-.14-6.85.96-.51.16-1.18.98-1.55,1.44.74,1.19,1.97,1.84,3.37,1.88l4.04.13c-.39.35-.9.66-1.34.74-1.48.24-2.2,1.53-1.85,2.87l1.87,1.21c-1.15.53-2.01.03-3.03-.48l-1.7-.12c-.33-.73-.43-1.58-.51-2.59-.49-.27-1.61-.56-2.34-.55ZM155.24,216.82c.11-1.06.34-2.44,1.05-3.07.54-.48,1.36-.96.7-1.68-.44-.49-.41-1.04-.39-1.78.01-.85-.08-1.47.8-2.08l-.46-2.31c-.16-.82.35-2.06.29-2.94-.09-1.22-.16-2.38-.32-3.56-.08-.59-.43-1.34-.37-1.94l.13-1.46c.23-2.63.04-3.29-.95-5.35-.51-1.07-1.58-1.52-2.67-1.39-.28-.05-.66-.79-.54-1.04l.53-1.11c.26-.55-.33-1.88-.88-2.23-.59-.38-2.2-.16-2.57.39l-1.21,1.8c.6,2.39.34,4.78-.79,6.82.78,1.27.74,2.48.29,3.72.04.68.11,1.62.07,2.32l-.24,3.75c-.3,4.65.39,3.35.47,7.43.04,1.72-.06,5.3-.61,6.55-.16.38-.02,1.37.23,1.69.66.83,2.75-.3,4.3,3.97l1.94,1.14c.31-.25.93-.87,1.2-1.21-.16-.95.22-2.05.51-2.83.17-2.78-.67-1.95-.49-3.6ZM157.34,230.81c2.25.11,4.4-.11,6.69-.29l4.54-.37c2.58-.21,4.87-.28,7.49-.09,1,.07,2.43-1.36,3.58-.49.92.7,1.75,1.54,3.27,1.1l-.26,5.42c-.05,1.03-.26,2,.36,2.88.42.6,1.35,1,2.31,1.31.37,1.62,1.09,3.54,2.76,4.28.37.16,1.33-.07,1.51-.43.7-1.36-.99-2.36.51-4-.54-.45-.62-1-.54-1.8l.24-2.36c.46-.89.63-1.57.49-2.51l.59-1.44c-.37-.95-.31-1.96.36-2.6-1.19-1.29.33-4.72-.57-6.32.3-.45.86-1.16.6-1.87-.13-.34.16-1.07.15-1.41l-.11-3.95c-.01-.49-.4-1.5-.6-2.09-.38-1.13-3.24.68-3.28.09l-.59-2.81c-.19-.91-2.21-.2-2.45-1.89-.09-.65-.6-1.25-1.33-1.07-.84.21-2.3.85-2.71,1.78-.59,1.34.24,3.22.13,4.7l-.38,4.81c-.09,1.21.49,2.81.14,3.96-.25.85-1.42-.98-1.53-.42l-.08.43c.78.11,1.8.88,1.44,1.85-1.11.31-4.98,1.26-5.9.63-.16-.65.57-1.36,1.1-1.66-.33-.37-.79-1-.96-1.54-.65-1.98-1.92-.51-3.88-1-.06-1.28.96-1.15,1.51-1.61.81-.67,1.7-1.46,2.53-2.22.24-1.13-.54-2.73-1.65-3.21-1.32-.57-2.76.25-3.97.67-3.73,1.28-1.25,1.02-4.77,1.34-.77.07-1.67.04-2.4-.04l-2.12.56c-.78.2-1.39.67-2.31.54l-.81,2.32c-.25.71.43,1.19.98,1.51,2.24,1.31,3.95-.19,3.46.9-.1.21-.42.62-.67.73l-1.84.84c-1.16.53-2.36,1.65-3.36,2.55,1.69,2.53.29,2.07,2.35,4.27ZM147.36,224.57l2.54-.17c.2-.01.68-.32.65-.49s-.17-.65-.34-.59c-2.59.89-.33.49-3.19.93-.41.06-.2.18.33.33ZM144.46,224.64c.82.18,1.75.22,2.18-.5-3.94.39-1.97-.54-5.09-.19-.2.02-.72-.48-.88-.36s-.45.57-.64.63l-1.5.5c2.05.23,4.36-.43,5.93-.08ZM151.32,225.87c.31-.01.57-.69.52-.96-.04-.22-.53-.56-.75-.53-.65.11-.3,1.51.23,1.48ZM145.47,231.02c.99-.53,1.99-1.04,2.41-2.15l-2.32.26c-.98.11-2.11-.23-2.81.79,1.22-.06,2.17-.14,2.72,1.09ZM174.58,246.11c1.46.59,2.45-3.87,2.04-5.23l1.65-.47c.58-.86-.06-2-.91-2.54-.99-.63-.8-2.3-1.55-3.02-4.03-3.81-.45-1.35-5.57-3.55-1,.89-1.88,1.39-3.09,1.84-.17,3.79-.46,2.3.68,5.43.29.81,2.77-.4,3.09.26l.48,1c.6,1.26-.34,2.41-.05,4.96l3.23,1.3ZM157.46,255.98l2.06-.54c.66-.17,1.13-.21,1.81,0-.01-.07,0-.57.13-.62,4.28-1.77.69-.03,3.75-1.02.34-.11.62-.27.74-.16s.32.64.49.68c.86.2,2.46.66,3.42.99,1.97.68,1.56-.3,4.68.14.98,1.54,2.58,1.55,4.21,1.49,1.31-.05,3.12.53,4.26-.47.17-.15.41-.69.59-.64l1,.26c-.02-.09-.19-.56-.29-.72l-.56-.94c-.33-.23-.88-.83-.95-1.3-.1-.73,1.46-.77,3.41-2.83.86-.91,1.46-1.96.63-3.04-.73-.94-1.57-.98-2.79-.82-1.36.18-2.4.95-3.58,1.73l-1.73,1.13c-.99.65-2.44,1.08-3.66,1.38-.97.24-2.33-.35-3.17,0-1.75.71-1.46-.19-4.87-.93l.72-3.22c-.39-.8-1.08-2.08-1.76-2.82s-2.24-1.54-1.55-2.76c.62-.53,1.95-1.87.86-2.72-.32-.25-1.4-.25-1.37-1.01l1.7-1.25c.49-1.02.55-2.34-.15-3.31l-1.57-.88-2.69,1.09c-1.21.49-2.5,1.16-3.54,1.82l-1.54.98c-1.61,1.02-3.19,1.74-4.94,2.53-.89.4-1.74,1.27-2.56,1.9-1.39,1.07.07,1.77-1.27,4.08l.77,1.43s.31-.39.22-.53l-.41-.68c-.11-.18.17-.71.39-.72l.82-.05c.22-.01,1,.26.89.44-.82,1.3-.59.27-1.46,1.57-.58.87,2.7,3.13,3.41,3.04,1.29-.27,2.4-.46,3.55-.09,1.03-1.39,3-1.48,4.68-1.1.22.03.27-.59.29-.92.11-.37,1.47-.41,1.83-.12.32.26.45,1.04.56,1.58l.72-.48-.19,1.24c-.03.17.31.49.44.72l-1.77.98c-.34.19-1.12.25-1.68.35-.41.07-1.35.59-1.69.37-.31-.2-.93-.64-1.14-.8.29-.55.43-.86.26-1.31-.27.45-.51.91-.57,1.18l-.21,1.08c-.05.27-.86.4-1.15.46l-2.67.55-3.76.86c-1.55.36-5.41.79-5.68,2.27-.8,4.34,9.34,1.58,11.39,1.06l2.25-.58ZM154.12,233.6c-2.16.83-1.33-.21-3.27-.91l-.33,1.34c1.41-.42,1.87,1,2.75.38.36-.25.8-.66.85-.82ZM146.76,235.54l1.91-.27-.07-1.43-2.48.31.65,1.38ZM154.19,251.01l.72.19,2.11-1.68c-.93-.58-1.27.21-1.8.85-.8.97-1.91-.95-1.73.18l.09.52c.02.1.52-.09.62-.06ZM162.7,261.99"/>
  <path d="M145.47,231.02c-.55-1.23-1.49-1.15-2.72-1.09.7-1.02,1.83-.68,2.81-.79l2.32-.26c-.42,1.11-1.41,1.62-2.41,2.15Z"/>
  <path d="M144.46,224.64c-1.57-.35-3.88.31-5.93.08l1.5-.5c.19-.06.47-.51.64-.63s.68.38.88.36c3.12-.35,1.15.58,5.09.19-.44.72-1.36.69-2.18.5Z"/>
  <polygon points="146.76 235.54 146.11 234.16 148.6 233.84 148.67 235.27 146.76 235.54"/>
  <path d="M154.12,233.6c-.05.15-.49.56-.85.82-.88.62-1.35-.8-2.75-.38l.33-1.34c1.94.69,1.11,1.74,3.27.91Z"/>
  <path d="M147.36,224.57c-.53-.15-.75-.27-.33-.33,2.86-.44.6-.03,3.19-.93.17-.06.3.42.34.59s-.45.48-.65.49l-2.54.17Z"/>
  <path d="M151.32,225.87c-.53.02-.88-1.38-.23-1.48.22-.04.7.31.75.53.05.27-.21.94-.52.96Z"/>
  <g>
    <path d="M165.69,184.34c.08.79-3.27,2.51-4.49.8-.31-.44-.89-1.49-1-2.01-.77-3.56-2.8-2.17-6.29-4.66l-1.65.44c-.38.76-1.15,1.45-2.09,1.29-.72-.12-2.2-.73-2.37-1.4l-.45-1.85-.06-2.53c-.02-1.11-.04-1.92-.15-3l-.26-2.53.31-3.21c.03-.27.66-.89.52-1.09-.38-.44-1.02-1.43-.86-1.98.56-1.92,2.15-1.48,1.99-1.99l-.26-.86c-.06-.2-.7.11-.91.13l-.49.05c-.08,0-.09-.14-.03-.2.05-.06.24-.21.31-.25l.78-.38c.21-.1-.19-.67-.41-.97l1.15-1.35-.83-3.57,1.35-1.77c.91-.48,2.4-.89,3.3-.44.58,1.08.3,2.51.5,3.65l.6,3.42c.2,1.14.9,3.08,1.6,2.4l.85-.83c.19.14.66,1.03.94,1.33,1.88,2,.41,1.28.27,5.23-.03.84-.22,1.86-.17,2.72l.17,3.05.03.54c0,.12.7-.26.71-.4l.23-6.05.13-2.96c.12-2.71,4.94-3.35,5.89-2.61,1.63,1.25.67,6.87.55,8.63l-.3,4.28c-.18,2.55-.19,7.6.36,9.91.06.26.53.78.55,1.04Z"/>
    <path d="M276.95,114.63l-2.39-2.07c-.55-.47-.84-1.38-1.01-2.11-4.96,1.34-2.69-2.03-6.91-1.96-1.01-.85-1.49-2.63-1.69-3.78.89-.99.95-2.27,1.02-3.25l.19-2.66c.04-.56.34-1.57.25-2.05-.3-.83-.24-1.26.11-2.07.22-.59-.09-1.85-.07-2.58.04-2.63-.38-1.74-.45-4.81-2-1.44-.64-1.43-1-3.53-.13-.76.07-1.38.16-2.13.12-.95-.21-2.18-.35-3.26-.11-.81.59-.96,1.1-1.39.85-.71,2.26-1.42,3.19-.17.47.63.67,1.86.84,2.72.6,3.07,1.12,7.2.53,10.21-.07.36.28,1.14.67,1.19s1.09-.09,1.51-.16c.38.34.98,1.01,1.54.85v-2.74s3.17-1.04,3.17-1.04c1.19-.39,2.19.91,2.46,1.88.22.8.43,1.55.79,2.23.29.55,1.56,1.2,1.65,1.79.12.89.31,1.86.19,2.64l-.78,5.02-.46,6.53c-.06.89-.21,2.17-.48,2.99l-.84,2.52c-.27.82-2.1,1.95-2.95,1.21Z"/>
    <path d="M252,118.57l-1.2-2.36c-1.13.91-2.38.65-3.49-.15-.67-.48-.81-.95-.93-1.87-.45-3.38.23-1.98-.39-3.8-.05-.15.39-.51.4-.7.05-.93.07-2.66-.15-3.64-.37-1.68-.64-4.38,1.18-5.28.5-.59-.9-.72-1.21-1.46-.13-.3-.07-.98.2-1.12.42-.22,1.3-.82,1.49-1.22l.35-1.2c.87-2.97,1.85-1.61,4.33-3.28l.08-2.53c.82-.47,1.42-1.15,1.59-1.85l1.91.12c3.63,2.76,1.63,7.77,4.35,5.72,1.65-.13,1.73,1.82,2.12,2.91s.92,1.48.59,2.75c-.22.86.14,2.28,0,3.18-.56,3.45-.03,3.42,0,4.67l.06,3.11c.01.65.19,1.73.02,2.27-.55,1.71-2.65,2.1-3.94,1.34-.27,1.24-1.36,3.89-2.32,3.85-.2-.01-.65-.4-.84-.42-.84-.09-1.75,1.59-4.19.95Z"/>
    <path d="M159.26,152.8l-2.49-.77-1.19-2c1.1-1.93,2.75-1.09,3.63-2.17-.86-.28-1.63-.52-2.14-.96-.44-.38-.88-1.77-.46-2.22.52-.54,1.51-1.06,2.23-1.47l1.08-1.57-.21-1.68,2.11-1.26c1.47-.12,2.56-.44,3.27-1.63l2.51-.81c1.63.22,2.92.09,4.46-.07l3.33-.33c1.12-.11,2.32.69,3.38,1.27-.05,1.15,1.19,2.16,1.08,3.21l-.36,3.43c-.1,1.01-.25,2.16-.39,3.22-.16,1.22.46,2.13,1.84,2.22.22,1.1.55,2.61.24,3.72-.76,2.76-6.24,1.4-9.14,1.66-1.61.14-3.02.47-4.6.45-3.15-.03-6.5,1.25-8.19-2.25Z"/>
    <path d="M155.24,216.82c-.17,1.65.66.82.49,3.6-.29.78-.67,1.88-.51,2.83-.27.35-.89.96-1.2,1.21l-1.94-1.14c-1.55-4.28-3.63-3.14-4.3-3.97-.25-.32-.4-1.31-.23-1.69.55-1.25.64-4.83.61-6.55-.08-4.08-.77-2.79-.47-7.43l.24-3.75c.05-.7-.03-1.64-.07-2.32.45-1.24.49-2.45-.29-3.72,1.14-2.04,1.39-4.43.79-6.82l1.21-1.8c.38-.56,1.98-.77,2.57-.39.54.35,1.14,1.68.88,2.23l-.53,1.11c-.12.25.26.99.54,1.04,1.09-.12,2.16.32,2.67,1.39.99,2.07,1.17,2.72.95,5.35l-.13,1.46c-.05.6.29,1.34.37,1.94.16,1.17.23,2.33.32,3.56.06.88-.45,2.12-.29,2.94l.46,2.31c-.88.61-.78,1.23-.8,2.08-.01.74-.05,1.29.39,1.78.66.72-.17,1.2-.7,1.68-.71.63-.94,2.02-1.05,3.07Z"/>
    <path d="M246.07,178.01c-1.47.95-3.16.69-4.59-.05l-1.2.2c-.7-.68-1.86-1.91-1.78-2.99l.13-1.66.05-.69c.02-.33-2.08-.12-1.52-5.15.19-1.69.53-9.41.46-11.04,0,.14-.95-2.01.58-3.61.64-.67,1.51-1.32,2.07-2.04,1.06-1.37,2.84-2.55,4.61-1.16.96.75,1.25,2.42,1.43,3.65l1.48.97.7,2.26c.6,1.93-.36,3.18.31,6.79,1.15,6.22-.28,4.94.61,8.11.22.79-1.2,1.72-1.86,2-.73.31-.43.71-.51,1.34-.11.85-.58,2.15-.96,3.08Z"/>
    <g>
      <path d="M151.37,138.94c-.48.14-1.37.27-1.86.49-2.07.95-4.72.67-5.91-1.44-.72-1.27-.15-2.87-.01-4.21l.18-1.73.08-1.57c.07-1.33-.01-2.56-.05-3.9l-.21-7.02.05-4.95c.01-1.22.82-3.1,1.82-3.7,1.2-.72,2.28-.54,3.24.18l3.13-.84-.3-1.46c.22-.53.45-1.08.35-1.71-.1-.59-.61-.81-1.31-.98,1.9-1.17,2.51-3.63,1.29-5.33.38-.34.94-.83.95-1.19s-.45-.96-.75-1.37c2.51-1.41-.22-2.1,2.02-3.45-1.09,1.56.04,2.76.39,4.08.32,1.21-.56,2.82.53,3.99-.66,1.33-.34,2.78.21,3.94l1.12.44-1.48.62c.12.39.3.84.29,1.07s-.39.61-.62.95c1.05,1.12,1.03,2.62,1.22,4,.16,1.18.38,1.79-.09,3-.33.86-.45,2.25-.44,3.23l.02,2.93c0,.65-.38,1.61-.43,2.18-.12,1.36.29,2.65-.22,4-.35.94-.1,2.24-.05,3.24l-1.29,1.54c-.64-.05-1.23-.12-1.89,0l1.42.52c.83,1.16.13,2.66-1.01,3.33l-.4,1.11Z"/>
      <g>
        <path d="M164.9,128.34c-1.9.35-4.87-.13-6.17-1.97l.72-1.81,1.69-.94c-1.11-.31-2.05-1.05-2.9-1.95.56-.85.98-1.61,1.51-2.19l1.31-1.41c.48-.52.77-1.24.58-1.97-.6-2.27.43-1.77.33-4.22l1.57-.92c1.17.37,2.02-.19,3.02-.45,2.82-.75,4.37-.35,6.86-1.31,2.12.57,4.08.49,6.32.04.73-.15,2.28.55,2.85.86l.75,3.35c.54,2.41-3.93,2.53-3.76,3.27.4.81,1.42,1.9,1.3,2.58-.15.89-.21,1.45-.13,2.32.16,1.67-3.22,2.97-4.62,2.8-1.58-.19-1.96.95-2.94,1.42-1.5.72-3.04,1.31-4.64,1.9-.47.17-1.54.21-2.04.3l-1.6.3Z"/>
        <path d="M167.67,105.87l-1.85.91-1.8-.1c-.72-.8-.78-2.02-1.12-2.98-.24-.67-.55-1.26-.51-2.01l.25-4.53-1.04.12c1.46-1.04,1.08-.2,1.4-3.31l.42-4.04c.16-1.56.14-3.82-.12-5.39-.41-2.46,1.7-3.63,3.87-3.76l2.42-.7c.68-.2,1.96-.83,2.33.28,1.02,3.03.59,1.67.51,4.3l1.19-.29c.53-.13,1.45.46,1.75.92.46.7.38,1.68.3,2.48l-.51,4.78c-.13,1.26,1.19.83-2.05,3.57-1.41,1.19.4,3.62-1.33,5.86l.86,1.61-1.04.64c-.75.46-1.66.59-2.56.39-.43-.01-.92,1.07-1.34,1.28Z"/>
      </g>
    </g>
    <g>
      <path d="M265.77,172.4l2.34-.98c.54-.22,1.74-.16,2.36-.05l.49.09c.12.02.24-.22.42-.47-1.65.28-2.14-.8-2.68-1.91-.64-1.32-.69-2.24.39-3.83l-2.15.58c-1.28-.14-2.34-1.16-3-2.25l.57-1.28.07-2.29c0-.12-.04-.45-.07-.54-.04-.13-.33-.24-.43-.14-.76.8.67,1.31-1.25,3.54-.03,4.03.82.74-.26,4.75-.25.92-3.58,3.2-5.84,1.62-.73-.51-1.27-1.06-1.1-2.09.11-.67-.18-1.52-.2-2.18-.04-1.3.07-2.66-.44-3.73.23-.48.27-1.06.21-1.67l-.58-5.52-.39-2.51c-.13-.85-.13-1.56.3-2.24.4-.65,1.02-.92,1.87-1.24l1.57-1.5c1.63-1.55,3.72.27,4.67-2.33.22-.59.65-1.93,1.26-2.11l2.05-.58c.62.24,1.69.84,2.26,1.28.2.16.27.91.51.97,1.15.3,3.51-.84,4.45.57,1.66,2.49-.25,6.45.99,10.08l-.39,1.23-.48,2.41c-.16.79-.18,2.4-.21,3.18,0,.16.41.46.51.58s-.27.59-.26.77l.19,3.26.14,2.09.38,1.49-1.6,1.75c1.27.68,2.16,2.19,2.34,3.29.06.38-.53.91-.81,1.29-.77.99-1.77,1.15-2.8,1.61-.9.4-1.21.47-2.35.4-1.28-.08-2.85.68-4.21.81-1.19.11-2.24.29-3.33.47-4.82.77-3.94,1.71-7.46.08-.5-.23-1.33-.73-1.38-1.17-.11-.95.75-1.58,1.49-1.77,2.43-.63,4.61-1.46,6.94-2.41,3.48-1.42,2.78-.55,4.88-1.42Z"/>
      <path d="M285.4,172.88c1.01,3.75.11,2.77.93,5.04.07.19-.34.5-.46.69l-.35,1.82c-.72.55-1.42,1.16-2.01,1.76-.4-.37-1.36-1.12-1.98-.79-.31,1.49-1.94,2.57-3.26,1.86s-.85-2.11-.42-3.05c1.67-3.61-.56-7.72,1.63-10.89-.32-.48-1.43-1.42-1.35-2.02.45-3.24.95-1.66.73-4.26-.08-.88-.32-2.21-.21-3.01l.76-5.5c.08-.57-.25-1.5-.24-2.06l.15-5.01c.15-4.97-.85-2.69.85-5.08,1.06-1.49,2.72-2.64,4.62-1.88.38.39.79,1.3.98,1.9l-.99,1.11c-.1.11.22.52.36.48,1.23-.32-.01-.97,1.68-1.41.48-.12,1.14-.17,1.44,0,1.4.8-.25,2.92.04,4.46.22,1.16.31,2.21-.46,2.9-2.15,1.91-4.08-1.39-3.96,1.01l.1,2.03.29,1.67c.45,2.63-.94,4.75-1.69,6.36-.67,1.45-.89,5.33-.12,6.83l-.54,1.4-.41-.04c-.11-.01-.42.2-.33.26,1.34.9.34-.56,2.44.95.99.71,1.45,1.27,1.77,2.45Z"/>
    </g>
    <path d="M194.44,140.69c-1.15.98-3.07,1.35-3.85.14-.25-.38-.51-1.19-.77-1.72.5-.19,1.25-1.28.82-1.57l-2.48-.53c-.46-.1-1.12-.41-1.28-.75-.2-.45-.2-1.28-.19-1.79l.04-2.9c-1.3-.23-1.46-1.38-1.68-2.45-.18-.83-.2-1.41-.04-2.21l1.03-5.07c.19-.95.11-1.95-.08-2.92-.17-.85.24-1.59.4-2.37.28-1.36-.16-2.95.72-4.09.63-.82,1.56-1.54,2.46-1.33s2.33.68,2.15,1.87c-.1.67-1.23,1.52-.23,2.43,1.46,1.32.37,2.95,2.49,4.09,1.11.6,1.33,1.48,1.24,2.65l-.14,1.9c-.05.61.18,1.31.51,1.76-1.44,1.97-.43,1.47-.32,5.36l.12,4.29c.02.73-.03,1.09.2,1.83.3.99-.28,2.68-1.12,3.39Z"/>
    <path d="M235.11,123.08c-3.31-1.68-2.91-.91-3.95-4.4-1.98-.33-1.29.61-3.94-.15-.95-.27-1.79-1.78-1.77-2.6,0-.17.55-.61.49-.77-.08-.2-.23-.52-.39-.8l-1.12-1.93c1.36-.58.51-1.92.79-2.77.32-.97.41-1.73.49-2.81.07-1,.62-2.37.78-3.4l2.89-.26c.82-.07,1.59.08,2.59.21.55,1.72-.53,3.8.91,4.07.31.06.8-.52,1.04-.8l2.48-.22,1.91,1.82.11,3.02c.02.67-.08,1.58-.1,2.32l-.04,2.25c-.01.78-.06,1.72-.19,2.54l-.45,2.84-2.51,1.84Z"/>
    <g>
      <path d="M187.7,101.46c-1.12.08-5.7,1.24-7.47-.83-.19-.22-.42-.95-.33-1.21s.42-.53.76-.83c2.52-2.17,4.76-1.15,4.56-1.86-.25-.88-2.65-2.25-3.6-3.54.46-1.61,1.96-2.19,3.32-2.74l3.82-1.56c.58-.23,1.8-.26,2.34-.54,1.27-.66,2.7-1.66,3.77-2.63l1.94-1.76c-1.35-.91-2.15-.07-3.18.18l-3.66.86c-2.51.59-5.08.39-7.34-.71.12-.89.28-1.8-.22-2.62l3.02-1.06c-.23-.42-.56-.99-.83-1.43-.25-.41.03-1.61.43-1.9.63-.45,1.66-1,2.41-1.38.82-.41,1.7-.22,2.51-.25,4.09-.16,4.55.48,8.53.42,1.96-.03,4.86.11,5.3,2.65.59,3.47,1.02,3.85-1.16,6.51l-1.2,1.46c-1.09,1.33,2.75,1.43,3.42,1.43,1.16,0,3.1.08,3.36,1.57.13.79-.76,2.24-.1,3.17l.51.72c.12.17-.41.7-.39.93.1,1.06.49,2.81.38,3.99-.11,1.24-1.71,1.88-2.79,1.87l-7.22-.02c-.83,0-1.63.4-2.43.46l-8.45.62Z"/>
      <path d="M187.95,66.92c-1.02.27-2.06-.64-2.59-1.51-.62,1.19-1.62,2.7-3.06,2.69-2.06,0-2.69-2.38-2.75-4.11s-.07-3.54-.26-5.22c-.12-1.04-.42-1.59-.06-2.67.27-.81.14-1.85,1.61-2,1.02-.1,1.77-.72,2.6-1.39s2.93-.12,3.47.77l1.65,2.68c2.23-.74,4.06.76,4.73,2.79.2.6.35,1.13.39,1.72l.13,1.77-1.21,1.95-1.98-.19c-.19,1.48-1.12,2.32-2.68,2.74Z"/>
    </g>
    <g>
      <path d="M157.34,230.81c-2.07-2.2-.66-1.74-2.35-4.27.99-.89,2.19-2.02,3.36-2.55l1.84-.84c.24-.11.57-.52.67-.73.49-1.09-1.22.42-3.46-.9-.55-.32-1.23-.81-.98-1.51l.81-2.32c.92.13,1.53-.33,2.31-.54l2.12-.56c.73.08,1.63.11,2.4.04,3.52-.32,1.03-.06,4.77-1.34,1.2-.41,2.65-1.23,3.97-.67,1.12.48,1.89,2.08,1.65,3.21-.82.76-1.72,1.55-2.53,2.22-.55.45-1.56.32-1.51,1.61,1.97.5,3.24-.97,3.88,1,.18.53.63,1.17.96,1.54-.53.3-1.26,1.01-1.1,1.66.92.63,4.79-.31,5.9-.63.36-.98-.66-1.74-1.44-1.85l.08-.43c.11-.56,1.27,1.26,1.53.42.35-1.16-.23-2.76-.14-3.96l.38-4.81c.12-1.49-.72-3.37-.13-4.7.41-.93,1.87-1.57,2.71-1.78.73-.18,1.24.42,1.33,1.07.24,1.69,2.26.97,2.45,1.89l.59,2.81c.04.59,2.9-1.23,3.28-.09.2.59.59,1.6.6,2.09l.11,3.95c0,.34-.28,1.07-.15,1.41.26.71-.3,1.42-.6,1.87.9,1.6-.61,5.03.57,6.32-.67.64-.73,1.65-.36,2.6l-.59,1.44c.15.94-.03,1.62-.49,2.51l-.24,2.36c-.08.79,0,1.35.54,1.8-1.5,1.64.19,2.64-.51,4-.18.35-1.14.59-1.51.43-1.67-.74-2.39-2.66-2.76-4.28-.96-.32-1.9-.72-2.31-1.31-.62-.89-.41-1.85-.36-2.88l.26-5.42c-1.52.43-2.35-.4-3.27-1.1-1.15-.87-2.58.56-3.58.49-2.62-.19-4.91-.12-7.49.09l-4.54.37c-2.29.19-4.44.4-6.69.29Z"/>
      <g>
        <path d="M157.46,255.98l-2.25.58c-2.05.53-12.19,3.28-11.39-1.06.27-1.47,4.13-1.91,5.68-2.27l3.76-.86,2.67-.55c.28-.06,1.09-.19,1.15-.46l.21-1.08c.05-.26.3-.72.57-1.18.17.44.03.75-.26,1.31.21.16.83.61,1.14.8.35.22,1.29-.3,1.69-.37.56-.1,1.33-.16,1.68-.35l1.77-.98c-.13-.23-.47-.55-.44-.72l.19-1.24-.72.48c-.11-.54-.24-1.32-.56-1.58-.36-.29-1.72-.25-1.83.12-.02.33-.07.96-.29.92-1.68-.38-3.65-.29-4.68,1.1-1.16-.37-2.27-.17-3.55.09-.7.09-3.99-2.17-3.41-3.04.87-1.31.63-.27,1.46-1.57.11-.18-.67-.45-.89-.44l-.82.05c-.22.01-.5.54-.39.72l.41.68c.08.14-.24.58-.22.53l-.77-1.43c1.34-2.31-.12-3.02,1.27-4.08.82-.63,1.68-1.5,2.56-1.9,1.75-.79,3.33-1.5,4.94-2.53l1.54-.98c1.04-.66,2.33-1.33,3.54-1.82l2.69-1.09,1.57.88c.69.97.63,2.29.15,3.31l-1.7,1.25c-.03.77,1.05.76,1.37,1.01,1.09.85-.24,2.18-.86,2.72-.7,1.22.89,2.04,1.55,2.76s1.37,2.03,1.76,2.82l-.72,3.22c3.41.74,3.12,1.64,4.87.93.84-.34,2.2.24,3.17,0,1.22-.3,2.67-.73,3.66-1.38l1.73-1.13c1.18-.77,2.22-1.55,3.58-1.73,1.23-.16,2.07-.13,2.79.82.83,1.08.22,2.13-.63,3.04-1.95,2.07-3.52,2.11-3.41,2.83.07.47.62,1.07.95,1.3l.56.94c.1.16.26.64.29.72l-1-.26c-.18-.05-.42.5-.59.64-1.15,1-2.95.43-4.26.47-1.63.06-3.23.05-4.21-1.49-3.12-.44-2.71.54-4.68-.14-.96-.33-2.56-.79-3.42-.99-.17-.04-.36-.57-.49-.68s-.4.05-.74.16c-3.06.99.53-.75-3.75,1.02-.13.05-.14.55-.13.62-.68-.21-1.14-.18-1.81,0l-2.06.54Z"/>
        <path d="M174.58,246.11l-3.23-1.3c-.29-2.56.65-3.71.05-4.96l-.48-1c-.32-.66-2.79.54-3.09-.26-1.14-3.13-.86-1.64-.68-5.43,1.2-.45,2.09-.95,3.09-1.84,5.12,2.19,1.55-.27,5.57,3.55.75.71.56,2.39,1.55,3.02.85.55,1.5,1.68.91,2.54l-1.65.47c.41,1.35-.58,5.82-2.04,5.23Z"/>
      </g>
    </g>
    <path d="M189.09,165.63c-1.42.06-3.23-2.29-3.11-2.7.92-3.2-1.52-2.82-.93-5.3.47-1.99.07-4.07-.04-6.03l.57-1.82c2.39-.48,4.55-1.42,6.19,1.31l-.26,1.23-1.01,5.06c-.2,1,.76,5.42.22,6.93-.25.69-1.09,1.29-1.63,1.31Z"/>
    <g>
      <path d="M164.34,207.73c-.48-.54-1.1-1.51-1.41-2.12-.62-1.2-.17-2.31,1.02-2.75.67-.25,1.24-.51,2.06-.93-.56-.51-1.13-.34-1.83-.12l-2.57.81c-1.11-1.1-2.54-1.16-2.22-2.1.18-.51.32-.93.25-1.19-.08-.3-.91-.5-1.08-.76l-1.35-2.04c.65-.77,1.57-1.48,2.5-1.97,1.73-.93,1.91.16,4.41-.48-.74-.44-1.51-.67-1.83-1.1-.53-.71-.26-2.35.51-2.72,1.24-.59,2.54-.72,3.87-1.03.94-.22,2,.05,2.9-.05,1.3-.14,2.63-.39,3.88-.64,3.26-.65,3.51-1.31,6.56-.4,1.08.32,1.96.5,3.04,1.02.56-.87-.4-.98-.15-3.85l.56-6.5c-2.3-.15-4.07-.13-6.2-.04-.78.03-1.68-.46-2.35-.86l-2.05-1.22h-2.29s-2.25-1.17-2.25-1.17c-.5-.26-.58-1.73-.23-2.16,1.68-1.99,4.12-.81,5.86-1.94,1.99.26,3.93.17,5.93-.34l2.06.36c1.02.18.31,1.84,1.57,3.8l.46.72c.44.68,2.62-1.42,3.97,1.47.4.08,1.12-.13,1.59-.3,2.07-.72,1.97,3.32,1.91,4.4l-.15,2.72-.39,6.76c-.02.39-.54,1.14-.52,1.52s.41.94.73,1.32c-2.39,2.09-.87,1.86-1.08,4.09l-.17,1.81c-.83.73-1.17,1.7-1.03,2.84-.14.23-.83.43-1.18.43l-2.09-.02c-.64,0-1.52-.38-2.38-.6-.35-1.21-.24-2.48-.31-3.77-.09-1.9-.38-3.81-.26-5.69l.1-1.63c-1.6.75-2.72,1.69-4.3,2.22-1.23.41-2.69.42-3.9.92,1.59.2,3.22.59,3.57,2.33.13.65-.26,2.03-.52,2.72l-3.37,2.55-1.89.87c1.27,1.1,3.68.38,4.17,1.68.11.29-.31.86-.47,1.22-.31.73-.55,1.79-1.66,1.9l-5.76.6c-1.39.14-3.01.81-4.26-.58Z"/>
      <path d="M175.15,170.2c-3.17.58-2.62.66-5.44-1.32-.58-.41-.42-2.18-.3-2.73l2.06-.92c.89-.4,1.64-.52,2.73-.17.45-.24,1.25-1.09,1.76-1.24l2.86-.83c.43-.13,1.13-.42,1.53-.28.34.12.75.58,1.09.98,2.2,2.51,2.81,1.5,3.94,3.67-.69,1.63-2.24,2.14-3.82,1.96-1.22-.14-2.43.16-3.61.37l-2.8.51Z"/>
    </g>
    <path d="M199.68,187.64c-.65,1.58-3.55,1.79-4.39,1.19-.41-.29-.68-1.05-.84-1.64-.31-1.16-.23-2.06,1.1-2.52l-.62-2.03c-.42-1.37.03-2.34,1.04-3.24.94-.84,2.86-1.11,3.41.27.67,1.65.35,3.36.24,4.98-.06.92.37,2.19.04,2.99Z"/>
    <path d="M154.19,251.01c-.1-.03-.6.16-.62.06l-.09-.52c-.18-1.13.93.79,1.73-.18.53-.64.87-1.43,1.8-.85l-2.11,1.68-.72-.19Z"/>
    <g>
      <path d="M250.63,248.94c.73,0,1.85.28,2.34.55.08,1.01.18,1.86.51,2.59l1.7.12c1.01.51,1.88,1.01,3.03.48l-1.87-1.21c-.36-1.34.36-2.63,1.85-2.87.44-.07.95-.39,1.34-.74l-4.04-.13c-1.4-.04-2.63-.69-3.37-1.88.37-.46,1.03-1.28,1.55-1.44,3.56-1.1,3.13-1.16,6.85-.96l4.16.23c.82.04,2.43-.35,3.07-.92l2.36-2.1c.75-.67,2.01-.76,3.02-1.05l2.45-.69c2.1-.59,4.05-.1,6.18.43l.55-2.33c.08-.32-.1-.94-.45-1.03-1.06,1.16-2.58,1.88-4.02.84-.61-.44-1.46-1.79-2.35-1.69-1.4.16-.94,1.81-1.04,2.61-.16,1.25-1.87,1.27-2.81,1.27-2.08,0-.56-.1-2.69-1.92-3.11,3.16-3.01.84-5.9,3.14-.69.55-1.94.69-2.81,1.02-1.72.65-.6,0-3.54.78-.78.21-1.6.13-2.29-.25-.55-.3-1.14-1.38-1-2.11,1.2-1.26,2.83-1.77,4.31-2.62,3.1-1.79,2.29-.42,4.17-2.13.32-.29,1.33-.05,1.72-.15,1.62-.43,3.3-.79,4.62.56l1.23,1.82,1.06-2.77c-.65-1.38-1.78-1.85-2.96-2.56l-2.33-1.4c-1.18-.71-2.94.29-4.19.44l-2.84.36c-1.7.21-2.65.28-4.27-.11-1.14-.27-1.92,1.12-1.98,2.14-.05.78.14,1.36.24,2.11.09.69-.07,1.72-.09,2.61s-.63,2.06-1.5,2.42c-1.71.72-2.56-.41-4.47-.79-1.36-.27-1.55-1.95-1.75-3.02-.05-.24-.35-.72-.42-.94s.56-.56.66-.79c.27-.86-.89-1.88-1.39-2.57-1.09-1.49-1.88-2.89-2.87-4.47l1.38-3.97c2.23-.68,2.78-1.78,5.4-2.27,1.14-.22,1.81,1.06,2.25,1.83l.98,1.72c.8,1.4-.03.67,1.05,2.92.99-.48,1.76-.79,2.76-1.03l2.89-.71c2.27-.56,2.56-.23,5.22-1.21-1.21-.9-2.35.08-3.44.02-1.5-.09-4.98-.63-5.96-1.42.23-.7.41-1.23.49-1.71.15-.94-1.73-1.56-1.77-2.63-.05-1.73,2.26-2.44,3.9-4.54l-2.34-.26-3.2-1.68.42-2.09,1.56-1.34c1.43-1.23,3.38-1.29,5.22-1.49,1.01-.11,2.11-.6,3.1-.65,1.75-.1,3.29-.27,4.86-1.01l-.11-2c0-.17.17-.74.02-.78l-.87-.22c1.38-.8,1.04-2.6.49-4.03-4.73-.25-5.38,1.63-8.97,1.45-.45-.02-1.29.31-1.71.31l-2.29-.02c-.96,0-1.86.09-2.51.8-1.81-1.68-3.92-1.27-4.39-3.24l-.59,1.89c-.6,1.91-.83,3.98-.98,6.05l-.31,4.33c-.03.48-.31,1.26-.45,1.86,1.31.82,1.68,1.95,1.45,3.53l-1.04-.05c-1.38.87-3.42.22-4.07-1.03-.36-.69.29-1.33.3-1.92.03-1.69.35-3.65.13-5.22-.19-1.34-.68-2.2-.38-3.73l.48-2.39c.37-1.85.21-3.72.34-6.22.07-1.26-.31-2.92-.38-4.08l.45-.8c.1-.17-.44-.58-.46-.78l-.21-1.9c-.3-2.78,1.25-1.69.91-2.37l-.44-.88-.27.77c-.08-1.07-.17-1.77-.39-2.77-.02-.5.02-1.34.07-2.07.08-1.38,3.72-2.07,4.05-1.1.93,2.71.62,5.36,1.06,8.1l.44,2.76c.31.49,1.43-.13,1.94-.45l1.27-.81-1.02-1.12c.26-.48.67-1.27.96-1.63,1.53-1.68,3.68-1.23,5.56-1.39,1.97-.17,7.92-2.43,8.43.95.06.42-.05,1.29-.07,1.73-.86.37-1.79.86-2.6,1.11l-2.79.87c-1.06.33-2.03.63-3,1.28,2.2.87,7.91-2.77,8.7-1.2.44.88.57,1.87.74,2.84-1.84,1.36-3.53,2.33-5.68,3.41.74.53,1.45.04,2.18-.06l3.35-.46c.79-.11,1.99-.33,2.48-.75-.74-2.04-.94-3.8-.4-5.62l-.5-2.75c1.64-1.07,2.71.31,3.65-.26.64-.38.43-2.46,1.01-3.73l2.08-.51c1.01,1.13.89,2.53.58,3.93l-.46,2.08c-.03.13.08.53.13.65.18.44,1.73-1.17.98-3.65l1.83-.27c.49-.14,1.2-.42,1.49-.16.53.48,1,.73,1.57,1.02.5,1.27.48,2.87.72,4.28l.88,5.11c.29,1.67.21,3.2-.31,4.73.34,3.19-.2.96-1,3.38-.62,1.86-1.37,3.76-1.28,5.74.03.6.09,1.07-.34,1.34-.23.14-.71.39-.61.51l.62.74c.53.64.04,2.01-.47,2.61-.54.63-1.89,1.22-2.66.65-.6-.57-.86-4.82-.3-5.56h-1.7s-.3,1.54-.3,1.54c-4.31,3.31-1.58,2-5.62,3.31-.92.3-1.61.59-2.31,1.43,1.38.93,2.42-.38,3.67-.3.82.05,1.74.45,2.63.18.82-.25,1.95-.01,2.39.61l1.14,1.61-2.18,2.56c1.39.27,2.94.05,4,.67.83.48.65,1.98.45,2.78l1.03,2.01c.87-.27.77-.94.97-1.66l.66-2.38.74-3.13c.13-.56.16-1.19.23-1.8.1-.9.56-1.73-.11-2.68-.22-.31-.4-1.22-.25-1.58.41-.96,3.32-2.4,4.25-1.39,1.09,1.18.63,4,.86,5.62-.25.69-.41,1.44-.45,2.17l1.73.27,1.54,1.65c.17,1.19.27,2.6.4,3.88l.24,2.39.17,2.7.12,5.69c.03,1.61.46,3.12-.28,4.65-.56,1.14-.86,2.29-.98,3.69-.05.6-1,1.06-1.44,1.59-.78.94-1.7,2.92-3.31,2.65-1.28-.22-2.72-.65-4.01-.98-2.99-.78-2.92-.04-5.07-.3-1-.12-2.11-.35-3.38.21-.18.08,0,.64.09.82l.29.56c.18.35-.53.1-.96,1.21-.08.21.58.31.8.19,1.53-.82,3.34-1.46,5.09-.82,1.2.44,3.49,2.01,3.93,3.28.11.32-.46.85-.54,1.25-.17.88,1.49.58,2.53,1.34.25.18.14,1.13-.05,1.37-.62.77-1.58,1.28-2.49,1.78-.52.29-1.16.36-1.71.51-1.06.29-1.95.6-2.97.45-2.04-.32-2.43,2.47-4.38,3.78-1.81.93-3.47-.14-5.28-.25-.9-.05-2.13.3-3-.37-.18-.14-.91-.29-1-.09l-.39.9-.18-.77c-.25-1.1-4.3.21-5.31.37-1.37-.3-5.35-1.23-5.12-3.22.12-1.04,1.47-1.38,2.26-2.22-.81-.31-2-.47-2.53-.86-2.87-2.16-1.09.07-4.11-3.18.92-1.18,2.06-1.9,3.37-2.62l2.28-1.25,1.99-.02ZM274.6,198.18l-.17-3.14c0-.17-.17-.62-.28-.53s-.47.44-.49.57l-.56,3.94c-.07.48.04.93.15,1.31l.24.79c.37,1.21,1.23-.5,1.1-2.95ZM246.77,195.52c-.61-.15-1.78-.07-1.99.37-.12.25.3.9.58.91.73.03,1.86-1.07,1.41-1.28ZM269.58,207.64l3.73-2.17c.01-.73,0-1.48.16-1.86l.76-1.85c-2.71.73-2,1.21-4.74,2.07.51,2.56-.58,2.69.09,3.81ZM270.21,254.55l1.52-1.9c-1.94.11-3.4.19-5.03-.21-.21-.52-.39-1.21-.59-1.95-.75.16-1.7.51-2.57.93l1.18,2.53.19,1.92c2-.94,3.26-1.33,5.31-1.31Z"/>
      <path class="cls-1" d="M270.21,254.55c-2.05-.02-3.3.37-5.31,1.31l-.19-1.92-1.18-2.53c.87-.42,1.83-.77,2.57-.93.2.75.38,1.43.59,1.95,1.63.4,3.1.32,5.03.21l-1.52,1.9Z"/>
      <g>
        <path class="cls-1" d="M269.58,207.64c-.67-1.13.42-1.25-.09-3.81,2.74-.86,2.03-1.34,4.74-2.07l-.76,1.85c-.15.38-.15,1.13-.16,1.86l-3.73,2.17Z"/>
        <path class="cls-1" d="M274.6,198.18c.13,2.45-.73,4.16-1.1,2.95l-.24-.79c-.12-.38-.22-.83-.15-1.31l.56-3.94c.02-.13.38-.48.49-.57s.27.35.28.53l.17,3.14Z"/>
        <path class="cls-1" d="M246.77,195.52c.45.21-.68,1.3-1.41,1.28-.28-.01-.7-.65-.58-.91.21-.44,1.38-.52,1.99-.37Z"/>
      </g>
    </g>
    <g>
      <path d="M218.14,64.46c-.42-1.57.76,6.49-1.28,6.15l-3.3-.56c-.57-.1-1.12-1.34-1.11-1.9l.03-3.33c0-.84-.04-1.61-.21-2.3-1.08.77-.44,1.59-.52,2.41-.18,1.7-.67,3.18.05,4.85.14.33.07,1.09-.14,1.39-.53.77-2.81,1.26-3.89.28l-.66-.59c-.57-.52-.43,2.34-2.37,2.84-1.17.3-3.04-.31-3.38-1.64-.37-1.44-.54-3.22-.52-4.64.65-1.12,1.15-2.42.01-3.33.55-.82.67-1.88.52-2.99l-.39-2.92c-.3-2.28-1.04-4.5-.7-6.05l.45-2.06c.09-.39.02-1.22-.2-1.67-.18-.37-.75-.6-1.21-.77l.84-1.12c.19-.26-.59-.86-.84-.93l1.24-.55,1.72-.44c.23-.33.6-.95.92-1.04s1.12.07,1.31.21c-.02,1.12.32,2,1.04,2.61s1.66.64,2.82.71l.94-6.49,3.5-1.07c1.48.74,1.95,2,2.54,3.55,1.01-1.02.08-1.96.91-5.35.43-1.76,1.56-.55,3.59-1.64.39-.21,1.21.43,1.36.95l.99,3.33-.4,1.43c-.1.37.51.94,1,1.28l.41-2.62c.27-1.71.37-3.42.24-5.2.18-.45.49-1.33.75-1.78l.99-1.7c3.98-.26,3.39,3.58,3.97,3.16.83-.59.56-2.93,1.09-5.36l.51-2.34c.15-.7,2.75-1.13,3.35-.61.21.19.19.69.31,1.13l.39,1.39c.81,2.91.46,5.19.55,7.8l.28,8.39c.07,2.12.21,4.24,0,6.32-.11,1.06-.05,1.7.22,2.75.12.46-.23,1.45.13,1.94s.88.87,1.4,1.04l-.55.56-.37-.69c-.12-.21-.96-.04-.92.19l.25,1.49c.09.61.21,1,.83,1.44-.71,1.16-.6,2.61.77,3.63l-1.52,2.42c-.87.43-2.3.23-2.92-.38-.78-.77-.96-1.65-1-2.8l-.11-3.34c-.04-1.35.12-2.67.14-4l.09-5.06c.01-.78-.07-1.59-.14-2.52-.27.07-.79.24-1.01.35s-.29.84-.07.95l.46.23c.08.04.26.27.19.3l-.78.34.05,3.34.08,2.71c.05,1.69.65,1.24.51,1.77-.07.24-.46.56-.69.84.66.73.79,1.57.61,2.52-.12.62.44,2.06-.49,2.36s-2.38.31-3.36.05c-1.43-.38-.99-3.18-1.92-3.18-.24,1.34-.51,2.55-.44,3.78l.26,5.08c.07,1.29.71,3.21-.9,4l-2.75-.24c-1.16-.1-2.08-.9-1.85-2.06.35-1.81.34-3.55.04-5.38l-.47-2.86-.35-5.55c-.06-.97-.48-2.4-.25-3.22.03-.11-.36-.48-.41-.4-.09.11-.37.44-.36.58l.1,1.42c.12,1.76-.13,3.34-.18,5.11l-.07,2.33.26.97ZM230.64,41.94c.12.83.38,1.68,1.23,1.83v-7.69c-.92.39-.99.95-.93,1.75.21,2.89-.78.72-.3,4.12ZM225.11,58.57c.02.78.09,1.41.99,1.48.11-1.66.38-3.22.25-4.78l-.56-6.89c-.14-1.67.24-4.9-.57-5.26-1.28,1.33-.87,6.34-.18,7.68l.05,2.86-.03,2.63.05,2.28ZM231.91,48.19l.09-3.47c0-.15-.29-.7-.41-.66l-.51.18c-.31,1.3-.34,2.74.83,3.96Z"/>
      <path class="cls-1" d="M225.11,58.57l-.05-2.28.03-2.63-.05-2.86c-.69-1.34-1.1-6.35.18-7.68.81.36.43,3.59.57,5.26l.56,6.89c.13,1.56-.15,3.13-.25,4.78-.9-.08-.97-.71-.99-1.48Z"/>
      <g>
        <path class="cls-1" d="M230.64,41.94c-.49-3.4.51-1.23.3-4.12-.06-.8.01-1.36.93-1.75v7.69c-.85-.14-1.11-.99-1.23-1.83Z"/>
        <path class="cls-1" d="M231.91,48.19c-1.16-1.21-1.13-2.65-.83-3.96l.51-.18c.13-.04.42.51.41.66l-.09,3.47Z"/>
      </g>
    </g>
    <g>
      <path d="M244.59,81.26l2.89,1.3c.76,1.3.97,2.77,1.22,4.27.12.73.56,1.89-.11,2.32l-.89.57c-.22.14-.02.77.07,1.16-.99.67-1.4,1.54-1.14,2.95-.71.49-1.66,1.04-2.53,1.52-.29.16-.5.91-.71,1.23-.66,1.01-1.37,2.2-2.07,3.11-1.54,2.01-4.18,1.11-5.61-.27-.64-.61-1.11-.98-1.6-1.66-.6-.83-1.95-.59-2.86-.59-2.91-.01-3.94.77-5.87.17-.71-.22-1.63-1.88-1.12-2.34l2.06-1.54,2.82-.97c-.61-.4-1.27-.34-1.92-.28-.65-.82-1.11-1.93-1.49-2.97l1.37-.83c.18-.11.54-.7.38-.82l-.73-.52c-2.06-1.47-2.48-1.89-2.16-4.15,1.02-.69,3.66-1.07,4.93-.69.98.3,2.01.32,3-.03-1.17-1.9-1.59-.02-4.82-1.75-.97-.52-1.38-.99-1.82-2.01-.32-.74-.97-1.63-.75-2.46s.99-1.55,1.92-1.76,2.09-.61,2.94-.52c3.51.37,2.43.45,5.16.81,1.27.17,2.37.34,3.57-.18l1.63.52c.08-2.67.19-5.27-.09-7.92l-.34-3.23-.61-7.81c-.09-1.16-.57-2.54-.48-3.64.26-3.06-1.12-3.32-.52-7.8,2.77-2.83.87-2.8,3.52-2.9.9-.03,1.55-.18,2.26.26,1.51.92.71,2.11,1.69,2.75.21.14.66-.38.73-.66l.44-1.7,2.55.38.57,2.47c.02.08.32.32.37.38.38.43.52-2.95,2.48-2.25l.4.8c.33.67,1.75-1.22,2.68-1.37l.74,4.57c.26,1.59.2,3.34.29,4.98.1,1.94.63,4.06.68,5.98.02.95,0,1.82.07,2.74l.37,4.74.17,2.42c.12,1.67.98,2.76,1.32,3.86.47,1.53-1.3,2.93-2.81,2.96-.87.02-1.92-1.11-1.95-1.9l-.19-4.94-.39-3.58-.15-3.66-.2-4.2c0-.09-.31-.45-.35-.53-.12-.2-.99.17-.37,2.27-.25,1.52-.45,3.49-.58,5.05-.11,1.29-.27,2.23.16,3.46.28.81.35,1.92.23,2.85-.07.58-1.21,1.62-1.69,1.37-.7-.5-1.17-.91-2.19-.65l-1.08-1.95c-.35,1.48.65,3.63-.09,5.04-.48.9-1.95.74-2.61,1.22l-1.63,1.17c-.13,1.92,1.77,1.36.15,4.03-.1.17-.18.72-.17.91s.5.22.86.39ZM248.31,64.94c.16-.91-.11-2.08-.32-2.87.22.03.71-3.62.71-3.39l.06-2.62-.12-6.53c-.06-3.32-1.11-3.1-1.11-2.48l.03,3.87c0,.71.14,1.61.05,2.17-.15.95-.19,1.58-.18,2.5l.06,3.86c-.29,1.4-.35,6.83.44,7.72l.38-2.22Z"/>
      <path class="cls-1" d="M248.31,64.94l-.38,2.22c-.79-.89-.72-6.32-.44-7.72l-.06-3.86c-.02-.92.03-1.55.18-2.5.09-.55-.04-1.45-.05-2.17l-.03-3.87c0-.62,1.05-.84,1.11,2.48l.12,6.53-.06,2.62c0-.23-.48,3.42-.71,3.39.21.79.48,1.96.32,2.87Z"/>
    </g>
    <g>
      <path d="M212.23,174.54c-3.54,1.33-8.58,2.05-11.74-.42-.12-.38-.19-1.32-.02-1.69l1.33-1.43c-2.06-.03-5.47.34-7.31.94l-1.63-.55c-.9-.3-2.29-1.85-1.47-2.82.91-1.07,2.69-1.18,4.08-1.75l-.15-2.02c1.75-2.93,5.28-1.24,6.01-2.56l-2.83-.31-1.72-1.37c.34-.97.56-2.14.52-3.22l-.23-6.27c-.06-1.48.32-2.79-.12-4.36-.3-1.06,1.17-2.15.69-2.65l-.78-.82c1.12.43,1.55.29,2.61-.21,1.74-.15,1.85,2.64,3.54,1.87.76-.35,2.21-.63,2.77.16.52.74.38,1.89.64,2.96,1.61-2.16.19-3.93,2.95-4.05.62-.03,1.7,0,2.07.14l.58,2.13.13,4.82.07,2.17c.03,1.11.03,2.24.13,3.31.33,3.3-.46,4,.26,4.88.78.96,2.31-.11,3.37,1.23,1.14,1.44-.66,3.1.1,3.57.52.33,1.61.71,1.94,1.13l2.12,2.67c-.75,1.51-5,3.41-6.36,3.92l-1.54.58ZM209.98,162.28l-.99-1.37c.04-1.09-.35-2.1-.91-2.88l.15-1.62c.02-.21-1-.17-.97.04l.12.89c-.58,3.1-1.38,2.03-1.02,3.82l-1.08,1.45c.83.11,1.78.06,2.72-.06l1.99-.26Z"/>
      <path class="cls-1" d="M209.98,162.28l-1.99.26c-.94.12-1.88.18-2.72.06l1.08-1.45c-.36-1.79.45-.72,1.02-3.82l-.12-.89c-.03-.2.99-.25.97-.04l-.15,1.62c.56.78.95,1.79.91,2.88l.99,1.37Z"/>
    </g>
    <g>
      <path d="M264.24,133.85c-1.1-.12-1.77-2.6-.86-3.01,1.16-.52,2.01-.98,2.94-1.75.86-.72,1.9-1.13,1.9-2.57-.81-.65-3.52,0-4.18-1.68-.55-1.39.77-2.4,1.97-2.84l2.01-.72,3.68-.84c.53-.12,1.02-.13,1.61-.16l2.58-.17c.97-.06,2.29-.41,3.18,0,1.39.64,1.97,2.41,1.79,3.79l-1.57,1.07-2.58,1.74c-2.5,1.69,1.03,1.72-.46,4.83-.64,1.35-1.3,2.53-2.58,3.49l-2.99-.11c-.85-1.49-2.13-1.24-3.57-.77l-2.87-.3Z"/>
      <g>
        <path d="M248.18,145.44l-2.81-.42c-.72-.11-1.49-.55-2.16-.83-1.34-.57-1.64-1.67-2.5-2.7-.68-.81-2.53-1.2-2.22-2.94,2.12-2.21,3.32-1.77,4.77-3.23l.45-.46c.63-.64-1.9-.28-3.12-.55-3.75-.83-2.53.42-4.44-.93-.69-.49-1.95-1.68-.98-2.62,2.65-2.57,3.85-2.29,4.8-3.27l1.1-1.14c3.28-3.41,6.4-1.01,9.74-1h2.09s5.95.06,5.95.06c1.27.01,2.53.56,2.9,1.93s-.63,2.42-2.03,3.4l2.03,1.28.38,2.94c-2.17,2.6-2.46,1.34-4.3,3.36l1.77,1.21c-3.24.03-1.47,2.93-3.88,2.26-1.59,1.64-3.96,2.88-6.22,3.27-.31.05-.98.43-1.33.38ZM251.85,130.82c-.71-.87-1.36-.59-2.1-.73-1.03-.34-2.29-.65-3.37-.36-1.02.89,5.32,1.62,5.48,1.08Z"/>
        <path class="cls-1" d="M251.85,130.82c-.16.54-6.5-.19-5.48-1.08,1.08-.29,2.35.02,3.37.36.74.14,1.4-.14,2.1.73Z"/>
      </g>
    </g>
    <g>
      <path d="M224.69,180.18c-.58-3.38-.09-4.02-1.57-5.15l-1.27-.97c-.45-.41-.14-1.84.29-2.38.4-.5,1.37-1.13,2.08-1.14l2.02-.04-.3-1.42c.04-.68.06-1.32.05-1.96,0-.86.71-2.33-.62-2.79-.51.47-1.2,1.04-1.73,1.15-.89.18-1.67-.5-2.4-.72-1.04-.32-2.27-.41-3.07-.95-1.06-.72-.62-1.35-.7-2.23l-.5-6c-.08-.99.96-1.82,1.41-2.61,1.27-2.17,3.93-2.51,5.16-1.74.42.26.8,1.1.81,1.73l.06,2.77.17,3.21c.07,1.22,0,2.8,1.16,3.63-.26-1.59-.24-3.15,1.23-3.72.55-.21,1.71.24,2.3.32.59-.24.11-1.28-.32-1.64l.35-.66c.27-.49-.72-1.13-.5-1.34l.48-.44c.21-.19.44-.66.6-.96l1.2-2.35c.81-1.6,3.46-1.6,4.76-.5.26.33.12,1.21.09,1.71l-.12,2.28c-.39.77-.48,1.55-.5,2.53,0,.5-.37,1.23-.26,1.96.36,2.37-.68-.49.2,4.85.06.39-.4,1.13-.48,1.49-.1.67.13,1.79-.04,2.45l-.6,2.36c-.26,1.03-.99,2.35-.91,3.36,2.14,2.49-1.8,2.3-.29,4.67l-1.78,1.13-1.49-.73c-.6.61-.75,1.62-.4,2.47l.77,1.88c.31.75.41,1.99.55,2.84.37,2.23-1.81,2.16-3.53,3.18-.3-.28-1.12-.97-1.34-1.37-.49-1.01-.36-2.28-.46-3.41-.15-1.61-.29-3.17-.56-4.75ZM229.85,179.06l-.12-3.5.03-2.67-1.57.1c-.32.02-.8.72-.7,1.01l.37,1.06c.78,2.27-.13,3.86,2,3.98Z"/>
      <path class="cls-1" d="M229.85,179.06c-2.13-.13-1.22-1.72-2-3.98l-.37-1.06c-.1-.29.39-.99.7-1.01l1.57-.1-.03,2.67.12,3.5Z"/>
    </g>
  </g>
</svg>