<?xml version="1.0" encoding="UTF-8"?>
<svg id="Layer_2" data-name="Layer 2" xmlns="http://www.w3.org/2000/svg" viewBox="0 0 432 288">
  <defs>
    <style>
      .cls-1 {
        fill: #fff;
      }
    </style>
  </defs>
  <path d="M78.04,51.11c-.56-.21-1.09-.43-1.49-.51l.34-.81c.08-.11.37-.06.55-.04l1.03.17-.42,1.17Z"/>
  <path d="M235.53-.02c-.05.16-.49.48-.71.49l-3.9.09c-.25,0-.9.4-1.12.35-.59-.11-1.78-.07-2.5-.04l-5.05.23c-1.33.06-2.53.43-3.85.45l-2.45.04-3.01.05-4.11.47-7.15.21-2.7.09,3.56,5.02c1.56,2.21,2.97,4.57,4.74,6.64,1.64,1.03,3.6,1.69,5.35,2.64,6.27,3.43,11.53,8.16,15.89,13.8,5.4,6.97,7.54,11.04,10.73,19.54l7.81-5.54c1.75-1.24,3.5-2.23,5.38-3.29,2.94-1.68,5.72-3.44,8.82-4.81l2.58-1.15,4.32-1.93c2.09-.93,9.76-3.55,12.11-4.19,5.95-1.63,11.82-2.53,17.92-3.23,1.44-.17,3.18-.5,4.17-1.52,2.17-2.24,3.19-5.13,3.88-8.09s1.36-5.64,1.75-8.6c.44-3.31,1.11-1.38.83-2.88-.03-.15.6.02.75.15l4.77,3.78c-.62,1.36-2-.33-2.87.07-.33.15-.37.89-.42,1.36-.16,1.6-.37,3.13-.62,4.74-.23,1.45-1.81,7.06.74,7.27.47.04,1.08.17,1.21.47.65,1.54-2.57,5.26-2.94,6.03-.7,1.47-2.37,4.2-3.78,4.38-1.96.25-1.39-3.09-4.46-2.91-.93.05-2.07.11-3.07.24l-4.21.56-4.36.78c-1.72.31-3.46.65-5.06,1.12l-3.29.98-4.06,1.32c-.75.24-1.48.5-2.2.81l-3.99,1.71c-2.15.92-4.28,1.81-6.27,2.9l-4.07,2.22-3.97,2.23c-2.55,1.43-4.98,3.07-7.33,4.82l-5.39,4.02c-1.04.78-1.8,1.66-3.11,2.27l1.1,7.47c.22,1.46-.22,3.66.48,4.93l4.58,7.64c6.04,10.08,11.85,20.11,17.3,30.55l10.99,21.05c.68,1.3,1.39,2.39,2.17,3.69,9.49,2.08,18.73,4.25,28.07,6.89l14.29,4.04c3.75,1.06,7.65,1.13,11.52,1.69l4.32.62,3.67.53,2.57.42,4.67.62,14.09,2.25,4.59.72,19.74,3.54,7.22,1.53,6.18,1.23,4.51.87,2.13.42,17.97,3.22,5.57,1.11,1.89.34v13.82l-6.98,6.12,6.98,3.12v10.13l-14.68-6.44c-1.01.71-1.86,1.38-2.76,2.16l-12,10.36-11.89,10.18-3.36,2.88-4.32,3.6-2.28,1.98c-2.14,1.86-4.46,3.46-6.53,5.48.76.45,5.49-2.53,5.32-2.7l.86.83,1.21-1.09c1.37.64,2.16-.54,3.15-.94,1.57-.63,2.89-1.31,4.35-2.17,1.02-.6,2.4-.55,3.34-1.76.45-.59,1.27-.75,1.98-.92l4.61-1.09c2.3-.54,5.19-2.7,7.77-3.11,1.08-.86,2.15-1.39,3.36-1.91l2.25-.96c1.76-.76,3.19-1.95,4.81-2.84l1.61-.88,2.64-1.39c.66-.35,1.5-.53,2.21-.82.63-.25,1.34-.71,2.01-.92,3.14-.99,3.42-.63,6.32-1.83v6.45c-2.22,1.39-2.14,1.01-4.68,1.88-1.22.41-2.43,1.58-3.64,1.88-1.41.35-2.46.6-3.65,1.44-1.02.71-2.57.91-3.6,1.54l-1.91,1.17c-.56.34-1.79.6-3.83,1.66l-2.77,1.44c-.62.32-1.46,1.14-2.01,1.54-2.07-.3-1.14.75-5.15,2.65-.99.47-1.88,1.08-2.79,1.62l-2.85,1.65-2.52,1.52-2,1.17-1.5.04c-.36,0-.53.89-.75,1.25-.94.32-2.37.64-3.18,1.21l-1.68,1.19c-.97.68-1.98,1.11-3.18,1.14-.32,1.42-2.44,4.2-3.99,4.36-1.66,2.89-1.22-.31-3.12,4.37-.59,1.46-.46,4.14-.93,4.59l-1.21,1.14-1.57,1.51c-.14.14-.71.23-.88.33s-.21.58-.31.84c-.91.39-2.12-.32-2.84-.86-.27-.21-.97-.45-1.28-.61s-.23-1.01-.44-1.29c-.36-.5-.93-1.14-1.47-1.76-.33-.38-1.12.28-1.5.38-1.33.36-2.8.76-4.05,1.52-.02,2.14.1,4.04.15,6.12l.23,9.49.18,3.02.45,5.7.36,5.34c.25,3.76.62,7.41,1.15,11.05h-10.43l-.38-2.91c-.15-1.12-.31-2.13-.4-3.31-.22-3.16-.62-4.81-.72-7.42l-.12-3.24-.31-6.21-.19-3.73-.17-4.56c-.03-.71,0-2.28-1.14-2.25-.71.3-1.89.96-2.63,1.43-2.54,1.59-2.19-.04-2.96,1.59l-2.05.12c-.41.88-2.96,2.27-3.87,2.65-3.54,1.48-2.62,1.47-4,2.39s-1.83.89-3.44,2.1c-.51.38-1.53.65-2.16,1.02-2.97,1.74-1.52,1.12-4.12,2.63-1.58.92-3.01,1.82-4.68,2.48-.6.24-1.49.5-1.97.75l-3.03,1.62c-.72.39-1.3.84-2.03,1.25l-5.21,2.98c-.96.55-1.61,1.06-2.59,1.48-3.3,1.4-1.78,1.03-4.51,2.2-1.75.74-3.36,1.58-5.44,1.53-.48-.01-1.09.94-1.53,1.03l-2.42.48c-.04-1.82,1.7-2.17,2.61-3.18l2.7-2.99c.9-.99,1.83-2.03,2.9-2.8l4.42-3.18c-.78-.74-1.4-.3-2.12-.02-1.56.62-3.18.91-4.79,1.45-6.99,2.35-13.96,4.19-21.37,4.9-16.71,1.59-31.17-3.79-44.64-13.17l-3.27-2.28c-6.71-4.67-13.02-9.81-18.82-15.58l-2.03-2.02-5.36-5.51-3.56-3.9-3.73-3.95-3.47-3.74c-1.04-1.12-2.11-2.21-3.31-3.16-2.39,1.09-2.14,2.23-4.65,3.95-1.1-.4-1.61.33-2.33.57-1.48.49-3.4.16-4.79.11-1.44,1.53-2.04-.1-4.08.42.12,1.81-.61,2.58-1.67,3.4-.75.58-1.32,1.02-2.23.63l-2.08.98c-1.1,2.27-.98.31-5.53,2.32-.59.26-1.36,1.27-1.95,1.38l-2.7.49c-.63,1-1.14,1.68-1.82,2.55-2.74,3.51-.84-.27-3.12,4.45-.62,1.29-1.91,8.45-2.78,9.41-.44.48-.73.89-.38,1.45s-.32,1.07-.36,1.41l-.48,4.7c-.11,1.08.25,2.1-.06,3.23-.37,1.35,1.2,2.59-.88,5.31l.46,1.6-1.12.43c.16.42.46.91.35,1.12l-.45.87.95,1.09c.21.24-.51.81-.58,1.13-.07.36-.02,1.19-.21,1.52-.4.71-.13,1.56.17,2.09l-.31.91c-.07.2.4.49.55.75,1.3,2.29.46,2.79.3,4.78H-1.14V-.02h236.67ZM172.6,9.66l.54,5.23c8.4-3.67,12.56-4.41,21.85-3.9-1.44-1.96-2.66-3.51-4.09-5.17-3.79-4.4-1.49-1.86-5.78-2.87l-1.22.56c-1.12-.58-2.33-.32-3.23.3-.24-.1-.61-.19-.81-.15-2.37.43-4.83.38-7.53.07,0,1.84.06,3.93.27,5.93ZM61.92,29.2l-.06-2.13-.48-5.05-1.25-12.86c-.54.01-1.66.73-1.67,1.25-.06,2.14.07,4.19.14,6.36.21,6.29.92,12.77,2.95,18.7.08.24.35.5.49.56.09.04.44-.25.43-.35l-.24-2.4-.3-4.08ZM179.37,128.53l2.5-.92c-1.55-5.21-1.19-8.66.15-13.71.84-3.16,2.73-4.91,4.57-7.62l1.42-2.09,2.21-3.03,2.84-3.84c.39-.52.76-1.05,1.18-1.56l5.3-6.41,3.18-3.75,1.54-1.66,4.82-5.36,2.65-2.82,1.58-1.65,2.69-2.97,2.25-2.29,4.88-4.76,2.46-2.27c.55-.51,1.03-.91,1.61-1.53l-10.01-16.17-10.2-15.82-4.54-6.89c-11.58-3.35-18.09-2.71-28.53,3.13l.67,5.94,1.43,16.19.53,6.4.96,12.98.54,6.14.76,11.26.25,5.11.23,4.42c.2,3.9.3,9.39-.21,13.28-.11.84-1.09,1.16-1.87,1.28-3.34.52-6.48,1.03-9.83,1.37l-16.78,1.69-4.02.48c-.04,1.25.18,2.65.34,3.94l.53,4.22.52,3.69c.39,2.81,1.07,5.49,1.78,8.22l1.67,6.45c.23.89.13,1.87.88,2.56l9.39-4.38,17.68-7.22ZM164.35,51.3c.04-.15.3-.61.46-.63l1.91-.25c.87-.11,1.77-.23,2.38-.27l-2.12,1.8c.27.45.9.79,1.43.82l-.43-.99c.14-.09.9-.35,1.06-.14l.56.75.63-.84c.17-.23.9.13,1.07.37s.37.92.24,1.1l-1.36.71-1.31,2.22c.4.52.94-.48,1.28-.58l1.7-.5c.74-.22,2.23-.49,2.27-1.33,0-.11-.29-.44-.27-.54s.18-.35.18-.45l-.14-1.54c-.02-.22-.47-.71-.34-.89l.56-.78-1.15-1.51c1.78-1.45.89-3.73.68-5.88l-.55-5.69c-.04-.46,0-1.29-.29-1.51-.26-.2-.78-.39-.82-.62-.03-.18.2-.58.32-.74l.33-.46c.62-.88-1.35-.22-1.91,1.64l.43.59c.07.1-.23.47-.33.4l-.49-.39-1.27-1-.94,1.39c-.07.11-.52.28-.65.31-.09.02-.04-.25-.03-.36v-.32s-1.32-.3-1.32-.3l-.99.35.07-.79c.01-.12-.37-.28-.46-.33l.42-.98c-.88.59-1.37,1.25-1.56,1.85.21.31.48.63.38.77-.08.1-.4.26-.5.19l-.62-.42-1.91,2.39c-2.31,2.89-4.02,6.24-5.48,9.66l-.71,1.68c-.66,1.55-1.28,2.7-1.76,4.64l1.85-1.47.84.31c.24-.21,1.22-.38,1.11-.13l-.42.93c-.07.15.16.39.4.58.35-1.66,1.66-2.1,3.1-1.87,2.76.44,1.75,1.23,4.31.06l2.4-.08c.1-.41-.09-.89-.34-.95-.92-.21-2.08.88-1.87.05ZM105.69,47.1c.11-.41.18-.77,0-.82-.15-.04-.6-.21-.63-.07l-.13.7-.21,1.12-1.32-.52,1.57-1.56c.36-.36.86-.58,1.32-.56l-.11,1.09c.76-.21,1.45-.38,1.63,0,.14.31.2.93.25,1.36l.96-.43c.19-.08.34.63.13.65-.42.05-1.21.25-1.52.38l1.55.89c.21.12.69.62.63.86l-.23.92c.26,0,.9-.14,1.09-.37.53-.65-.17-1.89.45-2.43.24-.2,1.09-.27,1.19.04.11.35.53.86.88.97.23.07-.11.9-.34.84l-1.03-.27c-.14.51.7,1.18,1.12.9l1.24-.8c.1.35.15.7.33.77l.86.35c.13.05,0,.55.05.68s.33.27.43.17l.43-.44c.49-.5,1.27-1.25,1.46-1.82l-.43-.98c-.09-.2.48-.54.73-.71.19-.13.84.07.79.29-.12.64-.83,1.67-.38,1.54l.67-.19c.19-.05.61-.28.59-.45l-.1-1,1.04.35c-.78.68-1.24,1.45-.64,2.09.63-.51,1.14-.8,2.06-.56.57-.55,1.28-1.59,1.78-2.37.49.29,1.08.44,1.59.22,1.24-.54.34-2.19,1.52-2.4l1.75.86c-.09-.52-.15-1.05.13-1.21.34-.19.91-.25.95,0,.06.37.2.88.34.82.46-.33,3-.35,2.15-.97-.13-.09-.4-.24-.57-.29l-1.67-.5c1.99-1.89,2.64.36,3.14-.38l.5-.74-1.37-.44,1.75-2.06c.13-.16-.16-.72-.36-.79-1.13-.4-1.04,1.27-2.84.16l-.37,1.27c-1.74.58-1.9-2.33-2.6-1.64-.06.59-.44,1.63-.79,1.36-.7-.53-1.18-.92-1.86-1.33l-1.46,2.49c-.81-.46-1.41-.69-2.36-.51l-.15-1.44h-.78c-.31,0,.19,1.98-.8,2.22-.36.08-.74-.1-1.64-.24.51.52,1.18,1.04,1.83,1.51l-1.64.69-.87-1.56c-.21-.38-.18-1.39-.06-1.85.05-.2-.62-.37-.72-.19-.84,1.53.66.44-1,3.12l-.37.6c-.88,1.42.4-2.07-.84-2.17-.39,1.12-.76,2.64-.36,3.8l.67,1.98c.06.17.56.56.57.72l-2.85-.72c.29-.91,1.32.19,1.33-.4.02-1.1-1.02-.47-.88-1.12l.19-.88c.03-.15-.27-.5-.35-.64s.63-.35.62-.51l-.05-2.01-1.61,1.34.47.86c-.27.33-.55.58-.46.73l.46.72c.08.12-.45.25-.56.16l-.37-.32c-.14-.12-.69-.32-.63-.5l.3-.97-1.52.09-.15,1.18c-.79-1.01-1.5-1.15-2.64-1.08l-.92.05c-.08,0-.67-1.34-.61-1.46l.36-.74c.08-.17-.65-.21-.74-.04l-.37.62c-.4.67.37,2.53-.45,2.27-1.38-.43-.49-.95-1.64-.74-.19.03-.15.48-.1.81.11.75-.5.94-1.38,1.27-.39.14.12,1.18.62,1.41.33.15.8-.23,1.57-.58.09.28-.14,1.07-.45,1.15l-1.3.36c.54.56,1.07.63,1.81.63,2.36-.01,1.4-1.3,3.06-.99.23.04.91-.05.83-.24-.46-1.1-1.33-.66-1.11-1.45ZM102,41.77c-.04.12-.08.65.04.61l.5-.16c.12-.04-.02-.33-.11-.42-.06-.06-.4-.11-.43-.03ZM109.07,44.14l1.23-.13-1.07-1.66c-.11-.17-.64-.26-.71-.11l-.31.65-1.02.96c.64.21,1.26.36,1.88.3ZM99.22,42.83c-.37-.51-.67-.78-.79-.65l-.45.47,1.24.18ZM102.2,43.52c-.84-.3-1.19-.29-1.48-.02-.17.16,0,.85.24.85.52,0,1.03-.48,1.25-.83ZM68.28,44.53l.41-.44c.07-.08-.31-.19-.39-.14l-.55.34c-.1-.22.09.18.14.29.03.07.2.01.4-.04ZM85.02,44.53c0-.29-.23-.52-.52-.52s-.52.23-.52.52.23.52.52.52.52-.23.52-.52ZM88.39,49.41c3.14-.57,3.66-3.23,4.71-3.09.25.03.59.52.82.7.79.6,2.12.09,2.62-.86.17.1.38.37.33.5l-.28.7,1.87-.54c-.13-1.37-2.47-2.28-2.8-2.15-.26.1-.59.42-1,.78l-.38-1.61c-.39.39-.57,1.17-.53,1.63.02.24-.45.75-.66.65-1.27-.59-1.45-.97-1.91-.68-.37.23-.69.74-.57,1.1l1.38-.56-1.01,1.76-.98.09c-.24.02-.58.6-.71.72l-1.02-.45.13,1.33ZM68.77,46.5l-.52,1.16c1.19-.69,2.35-1.64,2.87-2.99-.57-.75-1.57-.18-1.99.44l-2.42,1.07,2.06.33ZM86.71,45.21l.76-.42c.09-.05,0-.53-.09-.59-.37-.27-1.52.03-1.63.79-.04.28.75.34.96.22ZM81.85,44.51c-.08.16-.17.5-.03.5h.59c.11,0,.01-.26-.05-.34s-.46-.25-.5-.16ZM76.55,50.61c.07.28.29.75.5.97.26.28.9.01,1-.47l1.48-.68c-.03-.27-.24-.76-.11-.88.16-.15.68-.36.85-.5.13-.11-.16-.66-.11-.82s.34-.28.6-.43l-.32-.48c-.09-.14.39-.67.23-.7l-.89-.17c-.22-.04-.4-.56-.41-.78l-.03-.43c0-.13-.54.04-.59.16l-.95,2.22-.84.69c-.42,1.27-1.9,2.77-2.96,2.86-.62.05-.41-.73-1.28-1.29-.17-.11-.73.11-.71.31.03.28.02.86-.18.87-.97.07-.82-.84-1.55-1.1-.2-.07-.62.32-.79.47l-.47.41c-.13.11-.42-.59-.39-.79.15-1.07,1.45-1.47,2.57-1.22l2.1.46c.41.11.4-1.32-.02-1.32l-1.37-.02c.23-.72.8-.85,1.47-.66l1.06-1.36c-.91-.41-1.68.17-2.06.87l-1.03-.08c-.04.51-.11.9-.32,1.24s-.83,0-1.22-.27c-3.34,2.21-.41,1.31-2.66,2.96l1.34,1.16.34.29c.1.09.37-.29.42-.37l.15-.57c.04-.14.72.03.66.15l-.35.75c-.09.19.31.63.53.7.69.23,1.45-.47,1.65-1.13,2.72,1.49,2.88-1.36,4.69-1.04ZM99.72,45.3c-.15-.09-.32.47-.19.58.15.12.37.36.43.25.09-.15.31-.48.19-.55l-.44-.27ZM63.72,47.19l-.46-1.9c-.72.75-.65,1.84.46,1.9ZM85.19,49.91c.29.35.53.71.62.59l.47-.62c.09-.12-.13-.61,0-.7l.59-.41c-.15-.22-.39-.58-.5-.8s.27-.81.4-1.1l-1.93-.55c-.18-.05-.62-.1-.78-.1s-.22.49-.12.6l.42.48c-.32.3-.79.75-.78.74l2.3.34c-1.25,1.2-3.38,1.16-2.96,2.46l2.29-.94ZM127.03,46.57c-.11.1-.13.39,0,.47.1.06.58.2.57.08l-.04-.47c-.01-.11-.44-.16-.52-.08ZM75.14,48.47l.3-.59c.07-.13-.5-.55-.6-.43l-1.04,1.24c.25.13.67.29.85.23.14-.05.42-.31.48-.44ZM96.82,48.93c-.3-.24-.88-.59-1.15-.7-.15-.06-.48.39-.4.52l.35.54c.2.3.57.63.83.56.23-.06.55-.77.36-.92ZM91.42,51.19c-.2-.5-.47-.92-.42-1.15s.24-.56.47-1.06c-.84.14-2.19.72-2.47,1.6-.06.19.61.38.75.25l.47-.43c.33.47.83.83,1.2.79ZM100.63,49.88c-.11-.44-.84-.51-1.21-.31l-2.11,1.15c1.13.33,2.42.13,3.32-.85ZM81.69,50.68c.24-.2.42-.3.39-.4l-.2-.59c-.52-.01-1.49.38-1.72.77.27.73,1.04.62,1.53.22ZM95.35,51.21c-.13-.3-1.07.12-1.04.47.02.27.31.78.57.79.37.03.69-.74.48-1.26ZM148.82,158.69c.7-1.14.18-1.74-.05-2.57l-1.96-6.9-1.93-6.94-1.17-5.22-2.01-10.18-1.54-9.43-.95-6.47-.26-2.99-.22-2.48-.24-3.23c-.33-4.38-.55-8.66-.41-12.97l.18-5.89.21-2.5.26-3.74c.19-2.72.54-5.42,1.06-8.09l1.05-5.44.6-3.08c.26-1.34.64-2.68,1.03-3.98l.71-2.35c.31-1.04.95-2.06.29-3.21l-1.13,2.68-.67,1.91c-1.91,5.45-3.12,10.98-4.21,16.6-.64,3.31.08,2.04-.54,5.7-.45,2.67-.71,5.17-.81,7.84l-.16,4.47-.07,3.59v4s.05,2.98.05,2.98c0,.79.08,1.65.13,2.49l.2,3.72,1.4,10.93.54,2.98,1.55,8.95,1.46,6.73.79,3.1,1.2,4.46c1.58,5.88,2.26,8.76,5.65,14.53ZM111.97,51.85c-.85-.63-1.75-.35-2.34.2.8.35,1.71.47,2.34-.2ZM113.81,51.98c0-.2-.16-.36-.36-.36s-.36.16-.36.36.16.36.36.36.36-.16.36-.36ZM114.23,53.72c.8.32,1.29-.47,1.02-1.14l-1.02,1.14ZM160.17,55.06c0-.28-.23-.51-.51-.51s-.51.23-.51.51.23.51.51.51.51-.23.51-.51ZM161.07,54.39l.04.72c0,.1.41-.04.41-.14v-.48c.02-.1-.46-.19-.45-.1ZM162.79,55.26c0-.2-.16-.37-.37-.37s-.37.16-.37.37.16.37.37.37.37-.16.37-.37ZM166,55.57c0-.23-.19-.42-.42-.42s-.42.19-.42.42.19.42.42.42.42-.19.42-.42ZM173.34,55.41c-.15.28-.02.87.19.67l.5-.48c.15-.14-.62-.32-.68-.2ZM159,56.16l-1.17-.26c.21.43.6.9.75.73.14-.15.47-.53.42-.47ZM160.36,57.53c.32-.19.68-.86.57-1.17-.62.12-.82.7-.57,1.17ZM197.48,109.73c-.66.99-1.73,2.32-1.96,3.23l-.8,3.08c-1.04,4-.12,4.55-.51,5.99l-.41,1.53-.08.67c-.02.17.71.32.88.29,5.64-1,11.37-1.57,17.07-1.34,1.47.06,1.95-.58,2.63-1.66,2.97-4.74,5.99-9.29,8.64-14.22,3.03-5.62,5.39-11.19,7.36-17.26,2.08-6.4,3.33-12.74,3.28-19.59l-2.38-3.78c-.16-.26-.76-.71-.98-.58-.19.11-.51.4-.73.62l-8.35,8.52-10.16,11.48-7.57,9.27c-.56.68-3.55,4.55-3.1,5.21l1.85-1.03c.49.68,1.1.95,2.03,1.06l1.4,1.85c-.45.48-.99.96-1.47,1.36-2.88,2.4-1.73.52-5.38,4.07-.3.29-1.04.9-1.28,1.26ZM236.26,124.58c9.94.97,19.36,2.58,29.42,4.31l-10.12-19.55c-3.94-7.61-7.7-15.07-12.09-22.39-.65-1.25-1.3-2.32-2.24-3.5-3.36,14.52-9.15,27.15-17.04,39.68.76.42,1.56.54,2.39.5l9.68.94ZM267.86,128.64c.45.84,1.21,1.26,2,.76l-1.87-3.23-3.35-6.6c-2.21-4.35-4.51-8.42-6.51-12.89-1.11-2.47-2.36-4.79-3.74-7.08l-1.38-2.27c-.06-.1-.3-.33-.38-.38-.07-.05-.14-.02-.2.05-.05.07-.07.57-.02.66l3.9,7.85,4.27,9.46c.85,1.88,1.76,3.66,2.76,5.45l2.06,3.67,2.46,4.54ZM114.55,139.52c.46-.27.99-.46,1.35-.22.96.66-.32,1.8.92,2.13.21.05.63-.17.79-.33l1.48-1.49.8.77c.11.11.67-.15.75,0l.41.78c.08.15.5-.13.87-.29l1.45,1.27c1.13.07,1.6,1.28,1.48,2.08-.03.22.76.44.79.24l.13-.78c.38-2.3.88.9,3.04.52l.79-1.35.7,1.33,1.09-.13c.47.41,1.12.58,1.59.25,1.85-1.29,2.12.77,3.89-.35.28-.17,1.01-.19,1.12.07.42.99-1.06,1.39.63,3.78,1.16-.55,1.15-1.83.67-2.86l1.44-.91c.82-.52.62-1.44.08-2.18-.07-.48-.03-1.54-.16-2.01l-.67-2.35-.15-2.41c-.04-.58-.64-1.43-.75-2.07l-.44-2.52-.83-5.11-.44-3.13-.84-6.1-.49-4.01-4.14.45-4.42.49-5.18.56-3.76.38-5.44.54-7.16.71-4.26.42-8.21.89c-1.91.21-6.12-.05-4.9,1.33,2.47.17.52.27,2.55,1.53.19.12-1.01,1.31,2.86,4.13.5.37.36,1.13.4,1.63l.18,2.34c1.33.14,2.46.66,2.83,1.87.07.21.5.58.44.77l-.36,1.03,1.68.2c.33.04.31.93.37,1.52l2.37-1.1-.24,2.01,1.66-.93.18,1.37c.03.22.35.94.51.78l.57-.59c.12-.13.55-.53.63-.37l.27.56c.1.19.1.93.31.9l1.03-.17.26,1.76,2.61-1.2c.6.45.62,1.45.38,2.33l2.62-.1c.59-.02,1.43.93,1.86,1.33ZM185.38,126.61c-.24-.29-1.01-.28-1.03,0,.08.35.99.32,1.03,0ZM204.4,135.5l2.28-2.97c-1.99-.1-3.49.03-5.24.31-1.63.18-3.2.37-4.93.93,2.6,1.46,5.18,1.51,7.89,1.73ZM248.17,136.66l3.02.23c2.08.16,4.01.36,5.99.05-3.42-1-6.65-1.43-10.09-1.84l-16.31-1.96-4.42-.32c-2.79-.2-5.4-.36-8.19-.37-.79.96-1.36,1.76-1.94,3.08l8.53.19,4.68.28,8.7.23,3.46.26,6.58.2ZM221.77,140.66c1.95.09,3.84-.62,5.47-1.46-.8-.96-1.8-1.24-2.84-1.03-.72-.23-1.47-.41-2.23-.48l-4.97-.5c-1.49-.15-2.98,0-4.43-.03-1.59-.03-3,.05-4.52.67-.45.18-1.36.49-1.46.96-.14.67.92,1.21,1.49,1.2,2.55-.02,4.91.19,7.41.75,3.8.84,2.31-.27,6.08-.09ZM170.26,153.83l.79-.39c.68-.34-.56,1.56,1.77,2.6.26.12.68.72.92.61l1-.46.46,1.23,2.02-.05c.3-3.13,1.08-.39,2.98-3.12.16-.22.8-.44.77-.7l-.13-1.04c-.05-.37-.22-.98-.34-1.37,1.17-2.77.41-3.12.98-5.63.1-.42-.23-1.45.08-1.83.74-.9.47-2.36.72-3.37.23-.92,2.02-1.4,1.49-3.15-3.18,1.1-6.41,2.17-9.51,3.62l-7.47,3.48-3.41,1.78c-1.52.8-3.1,1.43-4.52,2.62l1.81.31-.57,1.49c-.06.15.42.39.57.39.13,0,.84-1.71.93-1.03l.09.66c.05.36.24.85.52.95.38.14.98-.28,1.02-.63l.19-1.61,1.58,1.08,1.77,1.19.54,1.16c.4-.27,1.17-.56,1.42-.27.4.46,1.06,1.63,1.53,1.48ZM195.48,146.57c.87-1.09,2.25-2.41,1.37-2.46l-.8-.05c-2.06-.95-.23-.37-2.86-.47-.48-.02.45.95.2,2.94-.37,2.93-.86,1.74-.63,2.86.02.12.52-.06.61-.17l2.11-2.65ZM141.46,145.93c.22-.11.33-.83.13-.97-.16-.11-.61-.19-.78-.09l-.54.29c-.12.07.77.99,1.2.77ZM212.31,241.97c5.07,4.62,14.37,12.54,20.07,15.94l4.81,2.87c6.33,3.78,15.91,7.1,23.31,7.51l3.6.2c3.64.2,6.27-.32,9.85-.83,2.53-.36,4.86-.87,7.26-1.71s4.85-1.32,7.18-2.31l8.72-3.7,4.16-1.84,5.63-2.75c2.52-1.23,4.89-2.48,7.35-3.79l4.9-2.61,9.94-5.94,5.64-3.51,6.39-3.98c-3.61-7.61-9.22-14.12-14.66-20.53l-9.24-10.9-14.89-18.11c-5.92-7.2-11.02-14.81-16.19-22.5l-4.91-7.29-4.78-7.46c-1.78-.43-3.81-.45-5.63-.61l-4.5-.39-3.98-.2-4.47-.25-4.23-.23-5.45-.3-3.75-.21-6.95-.14-6.46-.28-2.59-.1-7.75-.19-9.72-.2c-.87-.02-1.95-.58-2.58.3-.45.63-.91,1.25-1.39,1.85l-5.27,6.64-7.77,9.43c-.5.6.82,2.98.82,4.27.41-.44.66-.71.84-.86.15-.13.59.48.6.67l.12,1.61c-.37.34-.73.65-.85.92-.1.22.3.9.26,1.14l-.3,1.73.74-.02c.12,0,.41.41.33.49l-1.19,1.2c-1.35,1.36.22,3,1.28,3.99l-.42,1.94c-.04.18-.23.55-.27.7-.08.27,1.04,1.06.88,1.22l-.58.55c-.17.16-.66.77-.45.89l.75.43c.13.08.58.24.47.32l-.36.28c-.42.32-.87.83-.91,1.27-.06.65.36,1.1.83,1.42-.78,2.4.1,1.29-.71,3.72l1.36,1.14c.17.86-.34,1.77-1.04,2.38l.1,1.71c-.49.36-.91.71-.94,1.04-.03.41.27,1.1.6,1.11s.94.06.83.08c-.8,1.64-.15,2.69-.7,2.96l-.83.41c.51.46,1.03,1.02.89,1.45-.53,1.59-.25,2.81-.13,4.25.08.92.11,1.8.32,2.88l-.67,2.08-.75-.2c-.54-.14.26,1.46.04,1.74l-.58.77c-.12.16-.34.58-.44.74s-.61-.17-.85-.26l-1,.96c-.52-.21-1.18-.23-1.47.34l6.99,9.32c2.53,3.37,11.38,12.29,14.74,15.35ZM289.1,162.71c-.08-1.91-1.39-2.79-2.15-4.01l-3.28-5.26-2.76-4.27c-.12-.18-.96-.25-.92-.07.03.14.12.51.23.69l2.38,3.99c1.09,1.83,2.28,3.49,3.48,5.24.9,1.33,1.75,2.64,3.02,3.69ZM390.15,197.67l8.59-7.16,7.63-6.41-7.26-3.33-8.76-3.7c-12.23-5.17-58.66-22.61-69.77-24.02l-4.81-.61-6.47-.71-2.59-.32-9.07-1.01-2.99-.28-2.73-.22c-1.31-.1-2.28-.41-3.78-.36,1.03,1.74,1.79,2.83,2.73,4.22l1.19,1.76,8.05,11.53,3.99,5.44,1.54,2.25c5.03,7.37,10.95,13.88,16.77,20.67l10.92,12.73c4.71,5.49,9.53,10.76,13.32,16.91l2.87,4.65c7-4.64,13.19-9.62,19.57-14.69l6.41-5.1,14.67-12.25ZM156.73,152.55c-.08-.52.42-1.2.02-1.64-.35-.39-.84-.82-1.34-.63-.32,1.15.14,2.35.51,3.44l1.26,3.7c.06.19.56.61.63.45.59-1.41-.68-2.57-1.1-5.32ZM158.56,152.17l-.09-1.49c-.29.17-.65.6-.6.84.04.2.35.43.69.65ZM158.39,159.02l-.44.26.77,1.28.44-.26-.77-1.28ZM413.27,168.95l-3.55-.53-9.21-1.87-4.91-.92-5.98-1.21-6.63-1.29c-1.68-.33-3.17-.9-5.06-.93,1.89.94,3.57,1.56,5.55,2.32,10.36,3.98,20.37,8.29,30.7,12.91l7.83-6.76c-1.04-.38-1.78-.38-2.69-.44l-3.69-.81-2.36-.47ZM335.47,219.67c-2-.8,1.19,3.64,2.41,3.55-.27-1.03-1.49-3.18-2.41-3.55ZM1.04,263.64c.61.24.92.38,1.05.23l.43-.54c.62-.78,1.12-1.45,1.4-2.51-.89.14-1.37.68-1.85,1.36l-1.03,1.46ZM.15,264.96l.04.71c0,.1.41-.04.41-.14v-.48c.02-.1-.46-.19-.45-.09Z"/>
  <path d="M428.74-.02l.15.52c.05.18.61.24.75.12.13-.1-.08-.56-.16-.64h.99v57.17l-3.09-3.41c-.28-.79-.71-1.19-1.17-1.84l-1.83-2.62-1.31-2.21c-4.58-4.35-3.06-3.33-4.17-6.4-.36-1-.29-1.8-.07-2.89-1.43.03-2.64-1.73-2.37-2.73.06-.23.83-.83.65-.97l-.67-.52c-.21-.16-.77-.47-.7-.7l.27-.97c.08-.27-.84-.37-1.03-.16l-.77.86c.57.55.31.37-.1.08l.41-3.32c.08-.64-.23-1.15.53-1.7l-2.54-1.52c-.91-.54-1.09-2-.89-3.01l2,.22c.82-.57,1.57-1.37,1.52-2.6-1.31.14-2.39,1.71-3.29,1.43-.33-.1-.64-.99-.59-1.56.01-.11.28-.2.37-.12s.32.54.43.51c.78-.15,2.27-1,2.26-2.11l-2.66-.78c.17-.41.46-.96.24-1.09l-.93-.57c-.31-.19-.73-1.15-1.13-.84-.3.23-.55.52-1.04,1.03l-.1-1.12-.17-1.89-1.08-1.73c-.46-.74-1.08-1.33-1.6-1.94-.66-.77-1.06-1.54-2.24-1.78-.36-.07-1.09-.35-1.21-.66s-.2-.98-.24-1.29c-.52.07-.94.12-1.17.11-.18-.01-.34-.64-.48-.75l-1.43-1.05,1.12-1.57-1.67-.09.41-.97-1.42-1.29c-.24-.22-1.2-.14-1.07-.64h32.28ZM422.22.88c0-.31-.25-.55-.55-.55s-.55.25-.55.55.25.55.55.55.55-.25.55-.55ZM418.65,1.92l-.35-.76c-.05-.12-.44-.03-.5.01l.11,1.32c.01.17.46.39.57.27s.24-.68.17-.84ZM402.89,3.63l-1.56-.58c-.27.12-.23,1.03.1,1.15.34.13.96-.15,1.47-.58ZM425.84,5.04c.16-.19.18-.84.13-1.1-.05-.23-.54-.5-.76-.36-.38.25-.78.83-.65,1.14.19.43,1.01.64,1.27.32ZM422.4,5.81c-.11-.86-.46-1.6-1.44-1.28l.52,2.15c.06.23,1.08.4,1.05.16l-.13-1.03ZM429.31,8.98c.72-.46.58-1.88-.08-1.99-.41-.07-1.07.86-1.02,1.27.05.35.79.92,1.1.72ZM425.97,9.43c-.02-.37-.3-1.1-.48-1.34-.16-.2-.77-.14-.87-.07.89,1.85-.33,2.15.69,2.73.19.11.75-.05.74-.26l-.07-1.06ZM429.65,14.59c.29-1.58-.33-2.81-1.38-3.51-.2.19-.54.7-.44.89l.46.85c.4.73.56,1.6,1.36,1.77ZM414.07,26.45l1.63-.95c.21-.12.27-.93.04-.97-1.44-.29-.45,1.13-2.45.68l.78,1.23ZM415.85,29.67l-.46.57.77.63.46-.57-.77-.63Z"/>
  <path d="M312.77-.02c-1.05,2.33,13.56,11.2,15.77,12.54l14.36,8.73c4.99,3.03,9.83,5.9,15,8.56l8.32,4.61,4.94,2.52,9.67,4.95,6.31,3.38c4.39,2.35,8.53,4.78,12.86,7.24l4.65,2.64,13.92,8.18,11.92,6.43v2.49c-1.37-.17-5.8-2.89-5.57-2.79l-1.73-.74-1.41-.9-1.99-1.23-2.03-1.22-2.24-1.29-2.77-1.48-2.75-1.68-4.63-2.82c-.61-.37-1.44-.65-2.06-1.12-1.31-.98-4.14-2.24-5.97-3.43-1.49-.97-2.94-1.71-4.46-2.6l-2.62-1.54c-1.25-.73-2.45-1.51-3.6-2.34-2.42-.57-4.07-2.1-6.17-2.95-.74-.3-1.46-.53-2.13-.89l-3.74-1.98-2.24-1.19c-1.23-.65-2.29-1.33-3.39-2.15-.68-.25-1.93-.56-2.69-.96l-5.76-2.96c-.93-.48-1.74-1.01-2.66-1.59-1.9-1.19-3.9-2.2-5.9-3.26l-2.94-1.55-2.54-1.41c-1.53-.85-2.94-1.84-4.46-2.79-1.14-.71-2.41-1.3-3.56-2.13l-1.58-1.15c-.76-.55-3.01-2-3.75-2.4l-5.77-3.21c-2.86-1.59-2.54-1.82-5.04-3.43-.53-.34-.9-.69-1.39-1.13-2.85-2.51-4.53-2.8-6.94-4.68l-2.09-1.62-1.73-1.3c-.89-.67-1.6-1.44-2.12-2.36h4.72Z"/>
  <path d="M430.48,74.89v2.92c-1.78-1.04-3.66-1.94-5.58-3l-3.34-1.84-4.33-2.42-3.32-1.85-11.81-7.3c-.68-.42-1.21-.72-1.94-1.07-1.48-.71-2.79-1.85-4.22-2.65l-2.41-1.35-2.76-1.66-3.61-2.12c-1.78-1.04-1.26-.61-3.25-1.76l-1.9-1.09-1.98-1.01-9.99-5.4-4.66-2.32-8.57-4.79-5.28-2.88c-2.19-1.19-4.21-2.43-6.33-3.7l-8.66-5.2c-.95-.57-1.85-1.42-2.83-1.88-1.34-.63-2.62-1.27-3.69-2.27l-4.05-2.12c-2.87-1.5-5.72-3.45-8.13-5.59l-1.56-1.39c1.15-.67,1.69.18,2.47.64l13.15,7.72,8.02,4.91c2.9,1.77,5.75,3.33,8.73,4.95l1.59.87,6.77,3.91,7.88,4.08,6.5,3.6,8.5,4.23c1.83.91,3.47,1.87,5.24,2.91l13.01,7.62c2.35,1.38,4.62,2.6,6.9,4.08.93.61,1.81,1.35,2.8,1.91l8.71,4.93,2.81,1.67c3.6,2.14,7.6,3.77,11.11,5.7Z"/>
  <path class="cls-1" d="M429.49-.02c.08.08.29.53.16.64-.14.12-.7.06-.75-.12l-.15-.52h.75Z"/>
  <path d="M237.52-.02l-.86.38c-.14.06-.62.14-.63,0V-.02s1.49,0,1.49,0Z"/>
  <path class="cls-1" d="M164.35,51.3c-.21.83.95-.26,1.87-.05.25.06.44.54.34.95l-2.4.08c-2.56,1.17-1.56.38-4.31-.06-1.44-.23-2.75.21-3.1,1.87-.24-.19-.47-.42-.4-.58l.42-.93c.11-.25-.86-.08-1.11.13l-.84-.31-1.85,1.47c.47-1.94,1.1-3.09,1.76-4.64l.71-1.68c1.46-3.43,3.16-6.77,5.48-9.66l1.91-2.39.62.42c.11.07.42-.09.5-.19.11-.13-.17-.46-.38-.77.19-.6.68-1.27,1.56-1.85l-.42.98c.09.05.47.2.46.33l-.07.79.99-.35,1.32.3v.32c0,.11-.06.38.03.36.13-.03.58-.2.65-.31l.94-1.39,1.27,1,.49.39c.1.08.4-.29.33-.4l-.43-.59c.56-1.86,2.54-2.52,1.91-1.64l-.33.46c-.12.17-.35.56-.32.74.04.23.56.42.82.62.28.22.24,1.05.29,1.51l.55,5.69c.21,2.16,1.1,4.44-.68,5.88l1.15,1.51-.56.78c-.13.18.32.67.34.89l.14,1.54c0,.11-.15.35-.18.45s.27.43.27.54c-.04.85-1.53,1.12-2.27,1.33l-1.7.5c-.34.1-.88,1.09-1.28.58l1.31-2.22,1.36-.71c.13-.18-.07-.86-.24-1.1s-.9-.6-1.07-.37l-.63.84-.56-.75c-.15-.21-.92.05-1.06.14l.43.99c-.52-.03-1.16-.37-1.43-.82l2.12-1.8c-.61.04-1.51.16-2.38.27l-1.91.25c-.16.02-.42.48-.46.63ZM158.74,51.14l-.3-2.54-1.57,1.08,1.87,1.47ZM155.58,51.66c.13.01.29-.54.14-.53-.1,0-.49.01-.56.07l-.35.31c-.06.06.58.12.78.14Z"/>
  <path class="cls-1" d="M148.82,158.69c-3.39-5.77-4.07-8.65-5.65-14.53l-1.2-4.46-.79-3.1-1.46-6.73-1.55-8.95-.54-2.98-1.4-10.93-.2-3.72c-.05-.84-.12-1.7-.13-2.49l-.03-2.98v-4s.05-3.59.05-3.59l.16-4.47c.09-2.67.35-5.17.81-7.84.62-3.66-.1-2.39.54-5.7,1.08-5.62,2.3-11.15,4.21-16.6l.67-1.91,1.13-2.68c.66,1.15.02,2.17-.29,3.21l-.71,2.35c-.39,1.3-.77,2.64-1.03,3.98l-.6,3.08-1.05,5.44c-.51,2.67-.87,5.37-1.06,8.09l-.26,3.74-.21,2.5-.18,5.89c-.13,4.31.08,8.59.41,12.97l.24,3.23.22,2.48.26,2.99.95,6.47,1.54,9.43,2.01,10.18,1.17,5.22,1.93,6.94,1.96,6.9c.24.83.76,1.43.05,2.57Z"/>
  <path class="cls-1" d="M105.69,47.1c-.22.79.65.35,1.11,1.45.08.19-.6.28-.83.24-1.66-.31-.7.98-3.06.99-.74,0-1.27-.07-1.81-.63l1.3-.36c.31-.09.54-.88.45-1.15-.77.35-1.24.73-1.57.58-.49-.22-1-1.26-.62-1.41.88-.33,1.49-.52,1.38-1.27-.05-.33-.08-.78.1-.81,1.15-.2.26.31,1.64.74.83.26.06-1.6.45-2.27l.37-.62c.1-.16.83-.13.74.04l-.36.74c-.06.12.53,1.46.61,1.46l.92-.05c1.15-.07,1.85.08,2.64,1.08l.15-1.18,1.52-.09-.3.97c-.05.17.49.37.63.5l.37.32c.11.09.63-.04.56-.16l-.46-.72c-.1-.15.19-.41.46-.73l-.47-.86,1.61-1.34.05,2.01c0,.15-.7.37-.62.51s.38.49.35.64l-.19.88c-.14.65.9.02.88,1.12-.01.6-1.04-.51-1.33.4l2.85.72c-.01-.17-.52-.56-.57-.72l-.67-1.98c-.39-1.16-.02-2.68.36-3.8,1.24.1-.04,3.59.84,2.17l.37-.6c1.66-2.68.16-1.59,1-3.12.1-.18.77,0,.72.19-.12.46-.15,1.47.06,1.85l.87,1.56,1.64-.69c-.65-.47-1.32-.99-1.83-1.51.9.14,1.28.33,1.64.24,1-.24.49-2.22.8-2.22h.78s.15,1.44.15,1.44c.95-.17,1.56.05,2.36.51l1.46-2.49c.68.41,1.16.79,1.86,1.33.35.27.74-.77.79-1.36.7-.69.87,2.21,2.6,1.64l.37-1.27c1.79,1.11,1.7-.55,2.84-.16.2.07.49.63.36.79l-1.75,2.06,1.37.44-.5.74c-.5.74-1.14-1.51-3.14.38l1.67.5c.18.05.45.2.57.29.86.62-1.68.64-2.15.97-.14.05-.28-.45-.34-.82-.04-.25-.61-.2-.95,0-.28.16-.22.69-.13,1.21l-1.75-.86c-1.18.21-.28,1.86-1.52,2.4-.51.22-1.1.07-1.59-.22-.5.78-1.21,1.82-1.78,2.37-.92-.24-1.43.05-2.06.56-.6-.64-.14-1.41.64-2.09l-1.04-.35.1,1c.02.17-.4.4-.59.45l-.67.19c-.45.13.26-.9.38-1.54.04-.23-.6-.43-.79-.29-.25.17-.82.51-.73.71l.43.98c-.19.57-.97,1.32-1.46,1.82l-.43.44c-.1.1-.38-.04-.43-.17s.08-.62-.05-.68l-.86-.35c-.18-.07-.23-.42-.33-.77l-1.24.8c-.42.27-1.26-.39-1.12-.9l1.03.27c.23.06.57-.77.34-.84-.35-.11-.77-.62-.88-.97-.1-.31-.96-.24-1.19-.04-.62.54.08,1.78-.45,2.43-.19.23-.83.38-1.09.37l.23-.92c.06-.24-.42-.74-.63-.86l-1.55-.89c.31-.14,1.09-.33,1.52-.38.21-.03.06-.74-.13-.65l-.96.43c-.05-.43-.1-1.05-.25-1.36-.18-.39-.87-.22-1.63,0l.11-1.09c-.46-.02-.96.2-1.32.56l-1.57,1.56,1.32.52.21-1.12.13-.7c.03-.14.48.02.63.07.18.05.12.41,0,.82ZM126.79,41.56c0-.22-.18-.39-.39-.39s-.39.18-.39.39.18.39.39.39.39-.18.39-.39ZM125.88,42.65l-1.34-.38c-.22-.06-.43.3-.63.72.69.27,1.29.29,1.97-.35ZM121.9,43.72c-.24-.16-.5-.27-.57-.16l-.24.42c-.47.39-.86.6-1.04,1.23.64-.43,1.11-.84,1.85-1.49ZM117.06,46.42l-.19.58c-.04.11.42.1.47-.01l.2-.46c.03-.07-.45-.19-.47-.11Z"/>
  <path class="cls-1" d="M248.17,136.66l-6.58-.2-3.46-.26-8.7-.23-4.68-.28-8.53-.19c.59-1.32,1.15-2.11,1.94-3.08,2.79.02,5.4.17,8.19.37l4.42.32,16.31,1.96c3.44.41,6.68.84,10.09,1.84-1.98.31-3.91.11-5.99-.05l-3.02-.23Z"/>
  <path class="cls-1" d="M221.77,140.66c-3.78-.18-2.29.93-6.08.09-2.5-.55-4.86-.77-7.41-.75-.57,0-1.63-.54-1.49-1.2.1-.48,1.01-.78,1.46-.96,1.51-.62,2.93-.7,4.52-.67,1.44.03,2.94-.12,4.43.03l4.97.5c.77.08,1.51.25,2.23.48,1.04-.21,2.04.08,2.84,1.03-1.62.84-3.52,1.55-5.47,1.46Z"/>
  <path class="cls-1" d="M61.92,29.2l.3,4.08.24,2.4c0,.1-.34.39-.43.35-.14-.06-.4-.31-.49-.56-2.03-5.93-2.75-12.41-2.95-18.7-.07-2.17-.2-4.22-.14-6.36.02-.53,1.13-1.24,1.67-1.25l1.25,12.86.48,5.05.06,2.13Z"/>
  <path class="cls-1" d="M267.86,128.64l-2.46-4.54-2.06-3.67c-1-1.79-1.91-3.57-2.76-5.45l-4.27-9.46-3.9-7.85c-.05-.1-.03-.6.02-.66.06-.07.13-.1.2-.05.07.05.32.28.38.38l1.38,2.27c1.39,2.29,2.64,4.61,3.74,7.08,2,4.46,4.3,8.53,6.51,12.89l3.35,6.6,1.87,3.23c-.79.5-1.55.08-2-.76Z"/>
  <path class="cls-1" d="M78.04,51.11c-.09.48-.73.74-1,.47-.21-.22-.43-.69-.5-.97.4.07.94.3,1.49.51Z"/>
  <path class="cls-1" d="M78.04,51.11l.42-1.17-1.03-.17c-.18-.03-.47-.08-.55.04l-.34.81c-1.81-.32-1.97,2.53-4.69,1.04-.2.67-.96,1.36-1.65,1.13-.22-.07-.62-.52-.53-.7l.35-.75c.06-.12-.62-.29-.66-.15l-.15.57c-.05.08-.32.46-.42.37l-.34-.29-1.34-1.16c2.24-1.65-.68-.75,2.66-2.96.39.27,1.02.6,1.22.27s.27-.73.32-1.24l1.03.08c.39-.7,1.16-1.28,2.06-.87l-1.06,1.36c-.67-.19-1.24-.06-1.47.66l1.37.02c.42,0,.43,1.43.02,1.32l-2.1-.46c-1.12-.24-2.42.15-2.57,1.22-.03.2.26.91.39.79l.47-.41c.17-.15.59-.54.79-.47.73.26.58,1.17,1.55,1.1.2-.02.21-.59.18-.87-.02-.2.54-.42.71-.31.87.56.66,1.34,1.28,1.29,1.07-.09,2.54-1.59,2.96-2.86l.84-.69.95-2.22c.05-.12.58-.28.59-.16l.03.43c.02.23.19.74.41.78l.89.17c.16.03-.32.56-.23.7l.32.48c-.26.15-.55.26-.6.43s.24.71.11.82c-.17.14-.69.36-.85.5-.13.12.08.61.11.88l-1.48.68Z"/>
  <path class="cls-1" d="M204.4,135.5c-2.71-.22-5.29-.27-7.89-1.73,1.74-.56,3.3-.75,4.93-.93,1.74-.28,3.25-.41,5.24-.31l-2.28,2.97Z"/>
  <path class="cls-1" d="M289.1,162.71c-1.27-1.05-2.11-2.37-3.02-3.69-1.2-1.75-2.39-3.42-3.48-5.24l-2.38-3.99c-.11-.18-.2-.56-.23-.69-.04-.18.8-.11.92.07l2.76,4.27,3.28,5.26c.76,1.22,2.07,2.1,2.15,4.01Z"/>
  <path class="cls-1" d="M88.39,49.41l-.13-1.33,1.02.45c.13-.12.46-.69.71-.72l.98-.09,1.01-1.76-1.38.56c-.12-.36.2-.87.57-1.1.46-.29.64.09,1.91.68.22.1.69-.4.66-.65-.04-.46.14-1.24.53-1.63l.38,1.61c.42-.35.74-.67,1-.78.34-.13,2.67.78,2.8,2.15l-1.87.54.28-.7c.05-.13-.16-.4-.33-.5-.5.95-1.83,1.46-2.62.86-.24-.18-.57-.67-.82-.7-1.05-.13-1.57,2.53-4.71,3.09ZM95.92,46.38s-.25-.33-.36-.48c-.1-.13-.49.32-.62.48h.98Z"/>
  <path class="cls-1" d="M195.48,146.57l-2.11,2.65c-.09.11-.59.29-.61.17-.23-1.12.26.07.63-2.86.25-1.98-.68-2.96-.2-2.94,2.63.1.8-.48,2.86.47l.8.05c.87.05-.51,1.37-1.37,2.46Z"/>
  <path class="cls-1" d="M85.19,49.91l-2.29.94c-.42-1.3,1.71-1.26,2.96-2.46l-2.3-.34s.46-.44.78-.74l-.42-.48c-.1-.12-.03-.6.12-.6s.6.05.78.1l1.93.55c-.13.29-.51.88-.4,1.1s.35.57.5.8l-.59.41c-.13.09.1.57,0,.7l-.47.62c-.09.12-.33-.24-.62-.59Z"/>
  <path class="cls-1" d="M68.77,46.5l-2.06-.33,2.42-1.07c.42-.62,1.42-1.19,1.99-.44-.52,1.35-1.68,2.3-2.87,2.99l.52-1.16Z"/>
  <path class="cls-1" d="M335.47,219.67c.92.37,2.14,2.51,2.41,3.55-1.23.09-4.42-4.35-2.41-3.55Z"/>
  <path class="cls-1" d="M109.07,44.14c-.62.06-1.23-.08-1.88-.3l1.02-.96.31-.65c.07-.15.6-.06.71.11l1.07,1.66-1.23.13Z"/>
  <path class="cls-1" d="M1.04,263.64l1.03-1.46c.48-.68.96-1.22,1.85-1.36-.29,1.06-.78,1.74-1.4,2.51l-.43.54c-.12.15-.43,0-1.05-.23Z"/>
  <path class="cls-1" d="M91.42,51.19c-.37.04-.87-.32-1.2-.79l-.47.43c-.14.13-.81-.06-.75-.25.27-.88,1.63-1.46,2.47-1.6-.23.5-.42.83-.47,1.06s.22.65.42,1.15Z"/>
  <path class="cls-1" d="M100.63,49.88c-.9.97-2.19,1.18-3.32.85l2.11-1.15c.38-.21,1.11-.14,1.21.31Z"/>
  <path class="cls-1" d="M81.69,50.68c-.5.4-1.26.51-1.53-.22.24-.39,1.21-.78,1.72-.77l.2.59c.03.1-.14.2-.39.4Z"/>
  <path class="cls-1" d="M96.82,48.93c.19.15-.13.86-.36.92-.26.06-.63-.26-.83-.56l-.35-.54c-.08-.13.25-.58.4-.52.27.11.84.46,1.15.7Z"/>
  <path class="cls-1" d="M75.14,48.47c-.07.13-.34.4-.48.44-.19.06-.6-.09-.85-.23l1.04-1.24c.1-.12.67.3.6.43l-.3.59Z"/>
  <path class="cls-1" d="M86.71,45.21c-.21.12-1,.06-.96-.22.11-.76,1.26-1.05,1.63-.79.08.06.18.54.09.59l-.76.42Z"/>
  <path class="cls-1" d="M95.35,51.21c.22.52-.1,1.29-.48,1.26-.26-.02-.54-.53-.57-.79-.03-.35.92-.77,1.04-.47Z"/>
  <path class="cls-1" d="M111.97,51.85c-.63.67-1.54.55-2.34.2.59-.55,1.49-.83,2.34-.2Z"/>
  <path class="cls-1" d="M102.2,43.52c-.22.36-.73.83-1.25.83-.24,0-.41-.69-.24-.85.29-.27.64-.28,1.48.02Z"/>
  <path class="cls-1" d="M63.72,47.19c-1.11-.06-1.18-1.15-.46-1.9l.46,1.9Z"/>
  <circle class="cls-1" cx="159.65" cy="55.06" r=".51"/>
  <circle class="cls-1" cx="84.5" cy="44.53" r=".52"/>
  <path class="cls-1" d="M99.22,42.83l-1.24-.18.45-.47c.12-.13.42.14.79.65Z"/>
  <g>
    <path class="cls-1" d="M114.55,139.52c-.43-.41-1.27-1.36-1.86-1.33l-2.62.1c.23-.88.21-1.88-.38-2.33l-2.61,1.2-.26-1.76-1.03.17c-.21.03-.21-.71-.31-.9l-.27-.56c-.08-.16-.51.24-.63.37l-.57.59c-.15.16-.48-.56-.51-.78l-.18-1.37-1.66.93.24-2.01-2.37,1.1c-.06-.59-.04-1.49-.37-1.52l-1.68-.2.36-1.03c.07-.19-.37-.56-.44-.77-.37-1.21-1.51-1.73-2.83-1.87l-.18-2.34c-.04-.49.1-1.26-.4-1.63-3.87-2.82-2.68-4.01-2.86-4.13-2.03-1.26-.08-1.35-2.55-1.53-1.22-1.39,2.99-1.12,4.9-1.33l8.21-.89,4.26-.42,7.16-.71,5.44-.54,3.76-.38,5.18-.56,4.42-.49,4.14-.45.49,4.01.84,6.1.44,3.13.83,5.11.44,2.52c.11.65.72,1.49.75,2.07l.15,2.41.67,2.35c.13.48.09,1.53.16,2.01.54.74.74,1.66-.08,2.18l-1.44.91c.48,1.03.48,2.3-.67,2.86-1.69-2.39-.22-2.79-.63-3.78-.11-.27-.84-.24-1.12-.07-1.77,1.11-2.04-.95-3.89.35-.47.33-1.12.16-1.59-.25l-1.09.13-.7-1.33-.79,1.35c-2.16.38-2.66-2.82-3.04-.52l-.13.78c-.03.2-.83-.02-.79-.24.12-.8-.35-2.01-1.48-2.08l-1.45-1.27c-.38.17-.79.45-.87.29l-.41-.78c-.07-.14-.63.11-.75,0l-.8-.77-1.48,1.49c-.16.16-.58.38-.79.33-1.24-.33.04-1.47-.92-2.13-.36-.24-.88-.06-1.35.22Z"/>
    <path class="cls-1" d="M141.46,145.93c-.43.22-1.32-.7-1.2-.77l.54-.29c.18-.09.62-.02.78.09.21.14.1.86-.13.97Z"/>
    <g>
      <path class="cls-1" d="M236.03-.02v.39c0,.13.49.06.63,0l.86-.38h70.53c.52.92,1.23,1.69,2.12,2.36l1.73,1.3,2.09,1.62c2.41,1.88,4.1,2.16,6.94,4.68.49.44.86.79,1.39,1.13,2.5,1.61,2.18,1.84,5.04,3.43l5.77,3.21c.73.41,2.98,1.85,3.75,2.4l1.58,1.15c1.16.84,2.42,1.42,3.56,2.13,1.52.95,2.94,1.94,4.46,2.79l2.54,1.41,2.94,1.55c2,1.06,4,2.06,5.9,3.26.92.58,1.73,1.11,2.66,1.59l5.76,2.96c.76.39,2.02.71,2.69.96,1.1.83,2.16,1.5,3.39,2.15l2.24,1.19,3.74,1.98c.67.35,1.39.59,2.13.89,2.11.85,3.75,2.38,6.17,2.95,1.15.82,2.35,1.6,3.6,2.34l2.62,1.54c1.52.89,2.98,1.63,4.46,2.6,1.83,1.2,4.66,2.45,5.97,3.43.63.47,1.45.75,2.06,1.12l4.63,2.82,2.75,1.68,2.77,1.48,2.24,1.29,2.03,1.22,1.99,1.23,1.41.9,1.73.74c-.23-.1,4.2,2.63,5.57,2.79v2.64c-3.51-1.93-7.51-3.55-11.11-5.7l-2.81-1.67-8.71-4.93c-.99-.56-1.86-1.3-2.8-1.91-2.28-1.48-4.55-2.7-6.9-4.08l-13.01-7.62c-1.77-1.04-3.41-1.99-5.24-2.91l-8.5-4.23-6.5-3.6-7.88-4.08-6.77-3.91-1.59-.87c-2.98-1.63-5.83-3.18-8.73-4.95l-8.02-4.91-13.15-7.72c-.79-.46-1.32-1.31-2.47-.64l1.56,1.39c2.41,2.14,5.25,4.09,8.13,5.59l4.05,2.12c1.07,1.01,2.35,1.65,3.69,2.27.98.46,1.88,1.3,2.83,1.88l8.66,5.2c2.12,1.28,4.14,2.51,6.33,3.7l5.28,2.88,8.57,4.79,4.66,2.32,9.99,5.4,1.98,1.01,1.9,1.09c1.99,1.15,1.48.71,3.25,1.76l3.61,2.12,2.76,1.66,2.41,1.35c1.43.8,2.75,1.95,4.22,2.65.73.35,1.26.65,1.94,1.07l11.81,7.3,3.32,1.85,4.33,2.42,3.34,1.84c1.92,1.06,3.8,1.95,5.58,3v83.65l-1.89-.34-5.57-1.11-17.97-3.22-2.13-.42-4.51-.87-6.18-1.23-7.22-1.53-19.74-3.54-4.59-.72-14.09-2.25-4.67-.62-2.57-.42-3.67-.53-4.32-.62c-3.87-.56-7.77-.63-11.52-1.69l-14.29-4.04c-9.34-2.64-18.58-4.8-28.07-6.89-.78-1.3-1.49-2.39-2.17-3.69l-10.99-21.05c-5.45-10.45-11.25-20.47-17.3-30.55l-4.58-7.64c-.7-1.27-.27-3.47-.48-4.93l-1.1-7.47c1.31-.6,2.06-1.49,3.11-2.27l5.39-4.02c2.35-1.75,4.78-3.39,7.33-4.82l3.97-2.23,4.07-2.22c2-1.09,4.12-1.98,6.27-2.9l3.99-1.71c.72-.31,1.45-.57,2.2-.81l4.06-1.32,3.29-.98c1.6-.48,3.34-.82,5.06-1.12l4.36-.78,4.21-.56c.99-.13,2.14-.19,3.07-.24,3.07-.18,2.49,3.16,4.46,2.91,1.41-.18,3.08-2.91,3.78-4.38.37-.77,3.59-4.49,2.94-6.03-.13-.3-.73-.43-1.21-.47-2.55-.2-.97-5.82-.74-7.27.25-1.61.46-3.13.62-4.74.05-.47.09-1.21.42-1.36.86-.4,2.25,1.29,2.87-.07l-4.77-3.78c-.15-.12-.78-.3-.75-.15.28,1.49-.39-.43-.83,2.88-.39,2.96-1.08,5.72-1.75,8.6s-1.72,5.86-3.88,8.09c-.99,1.02-2.73,1.35-4.17,1.52-6.1.7-11.97,1.6-17.92,3.23-2.35.64-10.02,3.26-12.11,4.19l-4.32,1.93-2.58,1.15c-3.1,1.38-5.89,3.13-8.82,4.81-1.88,1.06-3.64,2.05-5.38,3.29l-7.81,5.54c-3.19-8.5-5.34-12.57-10.73-19.54-4.37-5.64-9.62-10.37-15.89-13.8-1.75-.95-3.71-1.62-5.35-2.64-1.77-2.07-3.18-4.43-4.74-6.64l-3.56-5.02,2.7-.09,7.15-.21,4.11-.47,3.01-.05,2.45-.04c1.32-.02,2.52-.39,3.85-.45l5.05-.23c.73-.03,1.91-.08,2.5.04.22.04.87-.35,1.12-.35l3.9-.09c.22,0,.66-.32.71-.49h.5Z"/>
      <path class="cls-1" d="M347.27,288.02h-207.68c.16-1.99,1-2.48-.3-4.78-.15-.26-.61-.56-.55-.75l.31-.91c-.3-.53-.57-1.37-.17-2.09.19-.33.13-1.16.21-1.52.06-.31.79-.88.58-1.13l-.95-1.09.45-.87c.11-.21-.18-.71-.35-1.12l1.12-.43-.46-1.6c2.08-2.72.51-3.96.88-5.31.31-1.13-.05-2.15.06-3.23l.48-4.7c.03-.34.69-.88.36-1.41-.35-.56-.06-.97.38-1.45.87-.95,2.16-8.12,2.78-9.41,2.28-4.72.38-.95,3.12-4.45.68-.87,1.19-1.56,1.82-2.55l2.7-.49c.59-.11,1.36-1.12,1.95-1.38,4.55-2.01,4.43-.06,5.53-2.32l2.08-.98c.9.39,1.48-.05,2.23-.63,1.06-.82,1.8-1.59,1.67-3.4,2.05-.52,2.64,1.1,4.08-.42,1.39.06,3.3.39,4.79-.11.72-.24,1.23-.97,2.33-.57,2.51-1.72,2.26-2.86,4.65-3.95,1.2.95,2.27,2.04,3.31,3.16l3.47,3.74,3.73,3.95,3.56,3.9,5.36,5.51,2.03,2.02c5.8,5.77,12.11,10.91,18.82,15.58l3.27,2.28c13.47,9.38,27.92,14.76,44.64,13.17,7.41-.7,14.37-2.55,21.37-4.9,1.61-.54,3.23-.83,4.79-1.45.71-.28,1.33-.72,2.12.02l-4.42,3.18c-1.07.77-2,1.81-2.9,2.8l-2.7,2.99c-.91,1.01-2.65,1.36-2.61,3.18l2.42-.48c.43-.09,1.05-1.04,1.53-1.03,2.08.04,3.69-.79,5.44-1.53,2.74-1.16,1.21-.79,4.51-2.2.97-.41,1.63-.93,2.59-1.48l5.21-2.98c.73-.42,1.31-.87,2.03-1.25l3.03-1.62c.48-.26,1.37-.52,1.97-.75,1.68-.66,3.1-1.56,4.68-2.48,2.6-1.51,1.15-.89,4.12-2.63.63-.37,1.65-.64,2.16-1.02,1.61-1.2,2.07-1.18,3.44-2.1s.47-.91,4-2.39c.91-.38,3.46-1.77,3.87-2.65l2.05-.12c.77-1.63.42,0,2.96-1.59.74-.46,1.92-1.13,2.63-1.43,1.13-.03,1.11,1.54,1.14,2.25l.17,4.56.19,3.73.31,6.21.12,3.24c.1,2.61.5,4.26.72,7.42.08,1.18.25,2.19.4,3.31l.38,2.91Z"/>
      <path class="cls-1" d="M430.48,206.82v81.2h-72.77c-.53-3.64-.9-7.29-1.15-11.05l-.36-5.34-.45-5.7-.18-3.02-.23-9.49c-.05-2.08-.17-3.98-.15-6.12,1.25-.76,2.72-1.16,4.05-1.52.38-.1,1.18-.76,1.5-.38.54.62,1.11,1.26,1.47,1.76.2.28.13,1.13.44,1.29s1.01.41,1.28.61c.72.54,1.93,1.25,2.84.86.1-.26.14-.74.31-.84s.74-.19.88-.33l1.57-1.51,1.21-1.14c.47-.45.34-3.13.93-4.59,1.9-4.68,1.46-1.47,3.12-4.37,1.54-.16,3.67-2.94,3.99-4.36,1.2-.03,2.22-.46,3.18-1.14l1.68-1.19c.81-.57,2.24-.9,3.18-1.21.22-.36.39-1.24.75-1.25l1.5-.04,2-1.17,2.52-1.52,2.85-1.65c.92-.53,1.8-1.14,2.79-1.62,4.02-1.9,3.08-2.95,5.15-2.65.56-.4,1.4-1.22,2.01-1.54l2.77-1.44c2.04-1.06,3.27-1.31,3.83-1.66l1.91-1.17c1.03-.63,2.58-.83,3.6-1.54,1.19-.83,2.24-1.09,3.65-1.44,1.21-.3,2.43-1.47,3.64-1.88,2.54-.87,2.46-.49,4.68-1.88Z"/>
      <path class="cls-1" d="M396.46-.02c-.13.5.83.42,1.07.64l1.42,1.29-.41.97,1.67.09-1.12,1.57,1.43,1.05c.15.11.3.74.48.75.23.01.64-.04,1.17-.11.04.31.13.98.24,1.29s.84.58,1.21.66c1.18.24,1.58,1.01,2.24,1.78.51.6,1.13,1.19,1.6,1.94l1.08,1.73.17,1.89.1,1.12c.5-.51.74-.8,1.04-1.03.41-.31.83.65,1.13.84l.93.57c.22.13-.07.68-.24,1.09l2.66.78c0,1.11-1.48,1.96-2.26,2.11-.11.02-.34-.44-.43-.51s-.36,0-.37.12c-.05.57.25,1.46.59,1.56.9.28,1.98-1.29,3.29-1.43.05,1.24-.7,2.04-1.52,2.6l-2-.22c-.2,1-.02,2.46.89,3.01l2.54,1.52c-.75.55-.45,1.06-.53,1.7l-.41,3.32c.41.28.67.47.1-.08l.77-.86c.19-.21,1.11-.11,1.03.16l-.27.97c-.06.23.5.54.7.7l.67.52c.19.14-.59.74-.65.97-.26,1,.95,2.76,2.37,2.73-.22,1.09-.29,1.89.07,2.89,1.11,3.07-.4,2.04,4.17,6.4l1.31,2.21,1.83,2.62c.46.65.89,1.05,1.17,1.84l3.09,3.41v12.61l-11.92-6.43-13.92-8.18-4.65-2.64c-4.33-2.46-8.47-4.89-12.86-7.24l-6.31-3.38-9.67-4.95-4.94-2.52-8.32-4.61c-5.17-2.65-10.01-5.53-15-8.56l-14.36-8.73c-2.21-1.34-16.81-10.22-15.77-12.54h83.69ZM407.81,13.59l-.99-.45-.4,1.57,1.39-1.13Z"/>
      <path class="cls-1" d="M430.48,194.66v5.71c-2.91,1.2-3.18.84-6.32,1.83-.67.21-1.38.66-2.01.92-.72.29-1.56.47-2.21.82l-2.64,1.39-1.61.88c-1.62.89-3.05,2.08-4.81,2.84l-2.25.96c-1.21.52-2.28,1.05-3.36,1.91-2.59.42-5.47,2.57-7.77,3.11l-4.61,1.09c-.72.17-1.53.34-1.98.92-.93,1.21-2.32,1.16-3.34,1.76-1.46.86-2.78,1.54-4.35,2.17-1,.4-1.78,1.57-3.15.94l-1.21,1.09-.86-.83c.17.16-4.56,3.15-5.32,2.7,2.07-2.03,4.39-3.62,6.53-5.48l2.28-1.98,4.32-3.6,3.36-2.88,11.89-10.18,12-10.36c.9-.78,1.75-1.44,2.76-2.16l14.68,6.44Z"/>
      <polygon class="cls-1" points="430.48 184.53 423.5 181.4 430.48 175.28 430.48 184.53"/>
      <path class="cls-1" d="M212.31,241.97c-3.35-3.05-12.21-11.97-14.74-15.35l-6.99-9.32c.29-.58.95-.55,1.47-.34l1-.96c.24.09.75.42.85.26s.32-.58.44-.74l.58-.77c.21-.28-.58-1.88-.04-1.74l.75.2.67-2.08c-.21-1.08-.24-1.96-.32-2.88-.12-1.44-.4-2.66.13-4.25.14-.42-.38-.99-.89-1.45l.83-.41c.55-.27-.1-1.32.7-2.96.12-.02-.49-.08-.83-.08s-.63-.7-.6-1.11c.02-.32.45-.68.94-1.04l-.1-1.71c.7-.61,1.21-1.52,1.04-2.38l-1.36-1.14c.81-2.43-.07-1.32.71-3.72-.48-.32-.89-.77-.83-1.42.04-.44.49-.95.91-1.27l.36-.28c.1-.08-.34-.24-.47-.32l-.75-.43c-.21-.12.27-.73.45-.89l.58-.55c.17-.16-.96-.95-.88-1.22.05-.15.24-.52.27-.7l.42-1.94c-1.05-.99-2.63-2.63-1.28-3.99l1.19-1.2c.08-.08-.21-.5-.33-.49l-.74.02.3-1.73c.04-.24-.36-.91-.26-1.14.12-.27.48-.58.85-.92l-.12-1.61c-.01-.2-.45-.8-.6-.67-.18.15-.43.42-.84.86,0-1.3-1.31-3.67-.82-4.27l7.77-9.43,5.27-6.64c.48-.61.95-1.23,1.39-1.85.63-.88,1.71-.32,2.58-.3l9.72.2,7.75.19,2.59.1,6.46.28,6.95.14,3.75.21,5.45.3,4.23.23,4.47.25,3.98.2,4.5.39c1.81.16,3.84.18,5.63.61l4.78,7.46,4.91,7.29c5.18,7.69,10.27,15.3,16.19,22.5l14.89,18.11,9.24,10.9c5.43,6.41,11.05,12.92,14.66,20.53l-6.39,3.98-5.64,3.51-9.94,5.94-4.9,2.61c-2.47,1.31-4.84,2.56-7.35,3.79l-5.63,2.75-4.16,1.84-8.72,3.7c-2.33.99-4.78,1.48-7.18,2.31s-4.73,1.34-7.26,1.71c-3.58.51-6.21,1.03-9.85.83l-3.6-.2c-7.4-.41-16.99-3.72-23.31-7.51l-4.81-2.87c-5.7-3.41-15-11.32-20.07-15.94Z"/>
      <path class="cls-1" d="M390.15,197.67l-14.67,12.25-6.41,5.1c-6.38,5.07-12.57,10.05-19.57,14.69l-2.87-4.65c-3.79-6.15-8.61-11.41-13.32-16.91l-10.92-12.73c-5.82-6.79-11.74-13.3-16.77-20.67l-1.54-2.25-3.99-5.44-8.05-11.53-1.19-1.76c-.94-1.39-1.7-2.48-2.73-4.22,1.49-.05,2.47.26,3.78.36l2.73.22,2.99.28,9.07,1.01,2.59.32,6.47.71,4.81.61c11.11,1.41,57.53,18.85,69.77,24.02l8.76,3.7,7.26,3.33-7.63,6.41-8.59,7.16Z"/>
      <path class="cls-1" d="M179.37,128.53l-17.68,7.22-9.39,4.38c-.75-.69-.65-1.67-.88-2.56l-1.67-6.45c-.71-2.73-1.38-5.41-1.78-8.22l-.52-3.69-.53-4.22c-.16-1.29-.38-2.69-.34-3.94l4.02-.48,16.78-1.69c3.35-.34,6.49-.85,9.83-1.37.78-.12,1.76-.45,1.87-1.28.51-3.89.41-9.38.21-13.28l-.23-4.42-.25-5.11-.76-11.26-.54-6.14-.96-12.98-.53-6.4-1.43-16.19-.67-5.94c10.44-5.84,16.95-6.48,28.53-3.13l4.54,6.89,10.2,15.82,10.01,16.17c-.59.62-1.06,1.02-1.61,1.53l-2.46,2.27-4.88,4.76-2.25,2.29-2.69,2.97-1.58,1.65-2.65,2.82-4.82,5.36-1.54,1.66-3.18,3.75-5.3,6.41c-.42.51-.8,1.04-1.18,1.56l-2.84,3.84-2.21,3.03-1.42,2.09c-1.84,2.71-3.72,4.45-4.57,7.62-1.34,5.06-1.7,8.51-.15,13.71l-2.5.92Z"/>
      <path class="cls-1" d="M197.48,109.73c.24-.36.98-.97,1.28-1.26,3.65-3.55,2.5-1.67,5.38-4.07.48-.4,1.01-.88,1.47-1.36l-1.4-1.85c-.93-.11-1.54-.38-2.03-1.06l-1.85,1.03c-.45-.65,2.54-4.52,3.1-5.21l7.57-9.27,10.16-11.48,8.35-8.52c.22-.22.54-.51.73-.62.23-.13.82.32.98.58l2.38,3.78c.04,6.85-1.2,13.19-3.28,19.59-1.97,6.07-4.33,11.63-7.36,17.26-2.66,4.93-5.68,9.48-8.64,14.22-.68,1.08-1.16,1.72-2.63,1.66-5.7-.23-11.43.35-17.07,1.34-.17.03-.9-.12-.88-.29l.08-.67.41-1.53c.39-1.45-.53-2,.51-5.99l.8-3.08c.24-.91,1.31-2.24,1.96-3.23Z"/>
      <path class="cls-1" d="M236.26,124.58l-9.68-.94c-.83.04-1.63-.08-2.39-.5,7.89-12.53,13.69-25.15,17.04-39.68.94,1.18,1.59,2.25,2.24,3.5,4.39,7.32,8.15,14.78,12.09,22.39l10.12,19.55c-10.06-1.74-19.48-3.35-29.42-4.31Z"/>
      <path class="cls-1" d="M170.26,153.83c-.47.15-1.13-1.02-1.53-1.48-.25-.29-1.02,0-1.42.27l-.54-1.16-1.77-1.19-1.58-1.08-.19,1.61c-.04.35-.65.77-1.02.63-.28-.11-.48-.59-.52-.95l-.09-.66c-.09-.68-.8,1.03-.93,1.03-.15,0-.62-.24-.57-.39l.57-1.49-1.81-.31c1.42-1.19,3-1.82,4.52-2.62l3.41-1.78,7.47-3.48c3.1-1.44,6.33-2.52,9.51-3.62.53,1.75-1.26,2.22-1.49,3.15-.25,1.02.01,2.47-.72,3.37-.31.38.01,1.41-.08,1.83-.57,2.51.19,2.86-.98,5.63.12.39.29,1,.34,1.37l.13,1.04c.03.26-.61.48-.77.7-1.91,2.72-2.69-.02-2.98,3.12l-2.02.05-.46-1.23-1,.46c-.24.11-.66-.49-.92-.61-2.33-1.04-1.09-2.94-1.77-2.6l-.79.39Z"/>
      <path class="cls-1" d="M413.27,168.95l2.36.47,3.69.81c.91.06,1.65.06,2.69.44l-7.83,6.76c-10.33-4.62-20.34-8.93-30.7-12.91-1.98-.76-3.65-1.38-5.55-2.32,1.89.03,3.38.6,5.06.93l6.63,1.29,5.98,1.21,4.91.92,9.21,1.87,3.55.53Z"/>
      <path class="cls-1" d="M172.6,9.66c-.21-2-.28-4.09-.27-5.93,2.71.31,5.16.36,7.53-.07.2-.04.57.06.81.15.89-.62,2.11-.88,3.23-.3l1.22-.56c4.29,1,1.99-1.53,5.78,2.87,1.43,1.66,2.65,3.21,4.09,5.17-9.29-.51-13.44.23-21.85,3.9l-.54-5.23Z"/>
      <path class="cls-1" d="M156.73,152.55c.42,2.74,1.69,3.91,1.1,5.32-.07.17-.57-.26-.63-.45l-1.26-3.7c-.37-1.09-.83-2.29-.51-3.44.5-.19.99.25,1.34.63.4.44-.1,1.12-.02,1.64Z"/>
      <path class="cls-1" d="M158.56,152.17c-.34-.22-.64-.45-.69-.65-.05-.24.31-.67.6-.84l.09,1.49Z"/>
      <rect class="cls-1" x="158.3" y="159.04" width=".51" height="1.49" transform="translate(-59.62 104.36) rotate(-30.97)"/>
    </g>
  </g>
  <path class="cls-1" d="M160.36,57.53c-.25-.47-.04-1.05.57-1.17.11.31-.26.98-.57,1.17Z"/>
  <path class="cls-1" d="M114.23,53.72l1.02-1.14c.27.67-.22,1.45-1.02,1.14Z"/>
  <path class="cls-1" d="M159,56.16c.05-.06-.28.31-.42.47-.15.17-.54-.3-.75-.73l1.17.26Z"/>
  <path class="cls-1" d="M81.85,44.51c.04-.09.44.08.5.16s.16.35.05.35h-.59c-.14,0-.04-.34.03-.51Z"/>
  <circle class="cls-1" cx="165.58" cy="55.57" r=".42"/>
  <path class="cls-1" d="M127.03,46.57c.08-.08.51-.03.52.08l.04.47c.01.11-.47-.02-.57-.08-.13-.08-.11-.36,0-.47Z"/>
  <path class="cls-1" d="M185.38,126.61c-.04.32-.95.35-1.03,0,.02-.28.79-.29,1.03,0Z"/>
  <circle class="cls-1" cx="162.43" cy="55.26" r=".37"/>
  <path class="cls-1" d="M99.72,45.3l.44.27c.11.07-.1.4-.19.55-.07.11-.29-.12-.43-.25-.13-.11.04-.67.19-.58Z"/>
  <path class="cls-1" d="M102,41.77c.03-.08.37-.03.43.03.09.09.23.39.11.42l-.5.16c-.12.04-.08-.49-.04-.61Z"/>
  <path class="cls-1" d="M68.28,44.53c-.19.05-.36.1-.4.04-.05-.11-.24-.5-.14-.29l.55-.34c.09-.05.46.07.39.14l-.41.44Z"/>
  <path class="cls-1" d="M173.34,55.41c.07-.13.83.06.68.2l-.5.48c-.2.19-.33-.39-.19-.67Z"/>
  <circle class="cls-1" cx="113.45" cy="51.98" r=".36"/>
  <path class="cls-1" d="M161.07,54.39c0-.1.47,0,.47.1v.48c-.02.1-.42.23-.43.14l-.04-.72Z"/>
  <path class="cls-1" d="M.15,264.96c0-.1.47,0,.47.09v.48c-.02.1-.42.24-.43.14l-.04-.71Z"/>
  <polygon points="407.81 13.59 406.42 14.72 406.82 13.14 407.81 13.59"/>
  <path class="cls-1" d="M429.65,14.59c-.8-.17-.96-1.04-1.36-1.77l-.46-.85c-.1-.19.24-.7.44-.89,1.05.7,1.67,1.93,1.38,3.51Z"/>
  <path class="cls-1" d="M425.97,9.43l.07,1.06c.01.21-.55.37-.74.26-1.01-.57.2-.88-.69-2.73.11-.08.72-.13.87.07.19.24.46.97.48,1.34Z"/>
  <path class="cls-1" d="M422.4,5.81l.13,1.03c.03.24-1,.07-1.05-.16l-.52-2.15c.98-.32,1.33.42,1.44,1.28Z"/>
  <path class="cls-1" d="M414.07,26.45l-.78-1.23c2,.44,1.01-.97,2.45-.68.23.05.17.85-.04.97l-1.63.95Z"/>
  <path class="cls-1" d="M429.31,8.98c-.31.2-1.05-.37-1.1-.72-.05-.4.61-1.33,1.02-1.27.66.11.8,1.53.08,1.99Z"/>
  <path class="cls-1" d="M425.84,5.04c-.26.32-1.08.11-1.27-.32-.13-.31.26-.88.65-1.14.22-.15.71.12.76.36.05.26.02.91-.13,1.1Z"/>
  <path class="cls-1" d="M402.89,3.63c-.51.43-1.13.71-1.47.58s-.36-1.03-.1-1.15l1.56.58Z"/>
  <path class="cls-1" d="M418.65,1.92c.07.16-.06.71-.17.84s-.55-.1-.57-.27l-.11-1.32c.06-.04.45-.13.5-.01l.35.76Z"/>
  <circle class="cls-1" cx="421.67" cy=".88" r=".55"/>
  <rect class="cls-1" x="415.65" y="29.77" width=".73" height="1" transform="translate(130.34 334.19) rotate(-50.93)"/>
  <polygon points="158.74 51.14 156.87 49.68 158.44 48.6 158.74 51.14"/>
  <path d="M155.58,51.66c-.19-.02-.84-.09-.78-.14l.35-.31c.07-.06.46-.07.56-.07.15-.01,0,.54-.14.53Z"/>
  <path d="M125.88,42.65c-.69.64-1.28.62-1.97.35.2-.42.42-.78.63-.72l1.34.38Z"/>
  <path d="M121.9,43.72c-.74.65-1.21,1.06-1.85,1.49.18-.64.57-.84,1.04-1.23l.24-.42c.06-.11.32,0,.57.16Z"/>
  <circle cx="126.4" cy="41.56" r=".39"/>
  <path d="M117.06,46.42c.03-.08.51.04.47.11l-.2.46c-.05.11-.5.13-.47.01l.19-.58Z"/>
  <path d="M95.92,46.38h-.98c.13-.16.52-.61.62-.48.11.14.37.48.36.48Z"/>
</svg>