<?xml version="1.0" encoding="UTF-8"?>
<svg id="Layer_2" data-name="Layer 2" xmlns="http://www.w3.org/2000/svg" viewBox="0 0 432 288">
  <defs>
    <style>
      .cls-1 {
        fill: #fff;
      }
    </style>
  </defs>
  <path class="cls-1" d="M75.37-.25h253.49v288.29H75.37V-.25ZM247.83,29.84c1.17-.35,1.85-3.57,1.01-5.28-.25-.52-1.04-1.11-1.45-.76l-1.69,1.42.02,2.03c0-.48.82,2.98,2.1,2.59ZM165.6,229.8l.51-2.29c.15-.68.62-1.71.81-2.29l.56-5.89c.09-.93.09-2.05.02-3l-.23-3.25c-.22-3.07-1.48-3.29-1.04-8.45.07-.78.03-1.45,0-2.22l-.19-4.23c-.02-.56-.08-1.52,0-2.04l.73-5.13c.31-2.2.81-4.07,1.61-6.08,1.09-2.76.08-1.37,1.45-3.49-.23-1.06.2-1.66.79-2.55.45-.69.74-2.14,1.06-2.91,1.01-.53,1.38-1.15,1.88-2.17.58-1.17,1.2-2.35,1.86-3.5,2.92-5.12,1.49-2.39,3.47-4.7.66-.77,1.32-.86,2.18-1.03.94-.19,4.81-1.92,4.12-.94l-.4.57c-.12.18.57.53.72.37l.71-.72c.63-.65,1.6,0,2.37.03,4.15.2,2.97.74,6.64.59l.69-.51c.13-.09.52.17.69.29,1.38,1.03,2.93.52,2.94.49l.31-.82,1.43-.16c.23-.03.75-.53.91-.38l.64.59c1.2-.14,2.62-.24,3.89-.51,1.15-.25,2.24-.32,3.04.32l3.39-1.67c.54-.27,1.19-.54,1.81-.75.08-.47.21-1.63.77-1.96l2.84-1.67c.76-.44,3.52-.5,5.12-.81.76-.15,1.43-.34,2.17-.3l2.18.11c.92.05,1.73.17,2.25,1.15.47.89.32,2.31.32,3.33,1,1.79,1.43,3.73.58,5.67l.79.76c-.3,2.51.71,3.65.2,4.63,1.14,1.52-.34.91.35,2.47-1.32,3.52,1.19,2.8-.15,5.46l2.61,2.27c2.5,2.18,2.04,13.43,2.95,17.61l2.03,9.37c.2.93.47,1.72.75,2.6l2.51,7.88c.63,1.99,1.4,4.1,1.42,6.22,0,.96-1.57.33-2.02-.04-1.78-1.45-3.73-2.86-5.23-4.57l-1.13-1.29c-.4,1.02.38,3.34.63,3.72l1.03,1.59c-.72.84-.63,1.53-.16,2.4l.14,1.89c1.24,1.19,1.44,2.47,1.42,4.11.39,2.13,3.15,5.06,1.98,6.72l.55,1.4c1.64.28-.16,1.09,1.56,2.54,1.17,1,.66,1.96,1.7,2.5l.62.32c.09.05-.08.36-.1.44,1.54,2.07.13.81,1.7,3.19,1.06.72,2.24,1.64,3.32,2.56.4.34,1.35.47,1.91.72.73.33,1.57,1.39,2.38,1.14.5-.15,1.15-.45,1.47-.3s.73.5,1.11.78c.3.22,1.11-.28,1.53-.53,1.18.47,2.39-.02,3.43-.96s2.98-1.71,3.39-3.03c.47-1.49.6-2.67,1.79-3.84l1.04-2.44.48-1.46,1.42-3.26c.24-.56,1.02-1.44,1.21-2.04-.32-1.16-.11-2.11.45-3.06-.43-4.02.41-2.18.34-3.82l-.24-5.84c.65-.67,1.94-1.77,1.61-2.83-.34-.44-.68-.98-.84-1.43-.14-.21-.88-.66-.89-.97-.09-3.06-.13-2.53.69-3.42.11-.12-.39-.48-.44-.64l-.56-1.89c-.06-.19-.25-.56-.13-.6l.6-.19c.14-.05.2-.58,0-.48-.51-.1-1.1-.25-1.03-.44l.25-.69c.18-.48.19-1.27-.2-1.23l-.65-.26c.57-.24,1.12-.44,1.1-.76s-.36-.85-.5-1.03c.3-.31.9-.96.88-1.35-.06-1.24-2.82-1.13-2.32-2.36l.65-1.59c.13-.33.25-.9.12-1.16-.11-.22-.77-.25-1.06-.26l-.95-.03c-.5-.02.27-2.24-1.75-2.89l-.1-2.3-.9-2.36c-.2,0-.6.03-.63-.1l-.14-.59-.31-1.31c1.06.28,1.54.36,2.23-.29l-.36-.48c-.59.3-1.31.35-1.39.02l-.3-1.3c-.58-2.54-1.52-2.81-1.3-3.25l.8-1.64c.35-.26.87-.68.84-.98-.02-.19-.24-.6-.34-.54-.07.04-.21.15-.33.25l-.4.32c-.09.07-.36-.22-.34-.33.4-2.07,2.78-5.43,4.3-7.18.52-.6.9-.83,1.68-.81,1.14.03,2.14.23,2.8,1.32l1.08-.14c.81.66,1.84.57,2.67.01l1.09.31c.6-.4,1.39-.33,1.94-.08,1.47.66,2.37-.52,3.38-.97.96-.43,1.67-.46,2.3-1.39.26-.38,1.13-.96,1.35-1.37l1.98-3.72c.58-1.09,1.24-2.19,1.59-3.38,1.78-6.05.82-6.46.03-12.49-.2-1.52-.8-3.56,1.17-4.41,1.77-.77,2.5-1.42,4.5-2.47l2-1.06c1.13-.12,4.07-2.11,5.18-2.37l3.23-.77c2.84-.68,3.62,1.53,3.92,1.8.59.54,2.08,1.08,2.44,1.95.04.09.31.26.35.19s.18-.28.23-.34l-.07-1.2c-.01-.2-.59-.26-.78-.37-1.72-2.07-.76-2.8-2.69-3.72-.29-.14-.92-.62-1.26-.63l-3.64-.11c1.75.05-4.19.34-2.59.67-1.36-.3-2.66.38-3.9.89-1.1.45-1.98.84-2.89,1.44l-2.13,1.41-2.33.84c-1.19.43-2.9,1.43-3.95.34-2.11-2.18-1.89-2.86-4.17-5.23-.68-.7-1.35-1.78-2.09-2.34l-2.84-2.14c-.88-.66-1.82-1.33-2.72-1.92l-1.33-.87c-3.49-2.28-5.09-1.83-8.61-2.23-1.83-.21-2.95.43-3.66,2.16-.29.72-1.35,1.79-2.12,1.62-1.76-.41-2.75-2.21-4.33-2.76-1.02-.35-1.66-.55-2.6-1.28-1.18-.92-2.8-2.23-3.61-3.48-.1-.16-.75-.23-.77-.41l-.09-.79c-.05-.43-.4-1.15-.61-1.66l-.58-1.38-1.53-3.29c.19-.36.76-1.3.54-1.74-.15-.3-1.04-.5-1.43-.58l-1.1-2.16c-.2-.4-.96-1.17-.91-1.6l.26-2.24c-.53-.37-1.19-.87-1.48-1.23-.18-5.24-1.07-1.69-1.18-5.82-.01-.39-.24-1.14-.21-1.62.13-1.8.72-3.48,1.52-5.11.41-.83.18-1.52-.09-2.38l-.73-2.3c-.21-.67-.59-1.19-.75-1.88-.23-.99-.25-2.24-.55-3.07-.82-2.26-2.31-7.2-1.98-9.65l1.28-9.39c.06-.42.24-.89.06-1.22-.45-.82-.02-1.44.58-1.92l2.75-2.18c.5-.4.53-.57.9-1.37.32-.68,1.29-1.83,1.92-2.33s1.26-.75,1.54-1.63c.05-.16-.02-.76-.18-.74l-.54.04c-.49.33-1.63.17-1.49-.49.07-.31.53-.88.4-1.11l-.45-.8c-2.15-3.83-2.52-5.26-6.25-8.36-1.33-1.11-2.68-1.67-3.07-3.63-.13-.63-2.5-3.81-3.47-3.33-.07,1.46-2.59,1.74-2.1,4.49.15.86.7,2.13-.47,2.71-.51.25-1.33-.68-1.77-.87-.83-.37-1.95-.54-2.5-1.28l-2.74-3.69c-.27-.36-.77-.83-1.09-1.2-1.57-1.8-4.72-2.86-6.44-1.33-.21.19-.94.22-1.19.37l-3.18,2c-.61.38-1.38,1.05-1.91,1.28l-3.42,1.53c-2.19-.03-.5.53-2.92,1.2-.83.23-1.7.42-2.41.68-3.19,1.15-3.07.45-5.5,1.76-4.11,2.22-2.19.37-5.46,2.49-.53.34-1.16.81-1.65,1.08l-1.89,1.04c-2.65,1.46-1.56,1.24-3.25,2.29l-2.1,2.21c-.48.5-.69.92-1.39,1.34-.59.36-1.3,1.5-1.72,2.01-.08.09-.65-.12-.67,0-.14,1.15-.76-.1-.93,1.62-.07.67-.39,1.13-.61,1.62l-.75,1.72c-.37.84-1.84,2.83-2,3.28l-1.36,3.86c-.8,2.27-1.27.19-1.71,4.15-1.24.73-1.54,1.91-1.7,3.08-.38.52-.8,1.19-1.1,1.78l-1.33,2.64c-.23.09-.67.15-.74.32s-.19.64-.27.82l-.72,1.44s-.49-.04-.46.09l.18.66-1.59,2.09c-.48.63-.53,2.04-1.23,2.63-.56.48-.73.85-.75,1.75h-1.19s-.82,2.13-.82,2.13c-.18.47.04,1.41-.92,1.7-1.43.44-.39,2.11-2.41,3.19l-.69,1.59c-.58,1.35-1.02,2.36-2.07,3.47-.41.43-.73,1.62-1.31,1.83-2.98,1.09.13,2.57-2.4,4.04-1.28.74-1.42,2.43-2.05,3.61l-.93,1.74c-.38.72-.52,1.33-.54,2.28l-.73,1.56c-.08.17-.14.43-.24.42l-.56-.03-.02,2.49c-1.42.61-1.32,2.26-2,3.24-.45.66-.8.99-1.04,1.72l-1.21,3.73c-.4,1.23-.59,2.25-1.26,3.42-.24.41-.66,1.29-.81,1.73l-1.05,2.99c-.34.97-.7,2.04-1.13,2.92-.52,1.04-1.74,3.25-1.16,4.54-1.69.93-2.26,4.47-2.3,4.45l.78.42-1.01.59s-.5,1.86-.55,2.21l-.09.54c-.2,1.23-.3-1.08-.65-.75-.09.09-.4.36-.33.47l.55.85c.13.2-.35.74-.26.95l.31.72c.07.15-.33.39-.54.56l-.38,1.62c-.03.15-.46.48-.4.63l.23.62-.39,1.77c-.97.82-1.12,2.09-.96,3.3-.33.48-.68,1-.43,1.84.18.59-.67,1.63-.78,2.24-.15.83-.28,1.3-.69,1.98l-.11,1.72c-.03.46-.18,1.21-.27,1.83l-.72-.06.43.89c.08.17-.58.58-.58.81l.05,3.41c-.17.14-.59.52-.6.7l-.13,2.25-.05,1.63.25.91c.06.22-.53.47-.77.63-.16.11.07.74-.03.9-.32.54-1.2,1.57-1.49,2.14l-.45,2.49-.42,4.93c-.22.43-1.2.76-.34,1.47l1.32-1.35-1.86,5.7c-.28.86-.99,1.7,0,2.56l1.36-4.94,1.01-3.16c1.38-4.33,2.54-8.59,4.01-12.9.74-2.15,1.27-4.22,1.86-6.4l2.94-10.73c-.06-.13-.3-.5-.37-.41l-.47.61c-.02-1.6.6-3.76,1.19-5.53s1.01-3.73,2.08-5.35c0,.91-.4,1.56.48,2.02l3.37-8.6c.26.8-1.28,5.03-1.69,6.15-.58,1.57-.94,3.1-1.42,4.77l-6.98,24.25-2.9,9.13c-1.45,4.57-2.61,9.09-3.28,13.84l-1.44,10.15c-.45,3.21.18,4.84.6,7.78.2,1.39.91,2.41,1.74,3.44,2.23,2.76,1.09,1.13,3.61,3.7,1.06,1.08,1.86,1.12.8,4.76,2.48,2.26,1.33,4.18,2.14,7.35.03.24.6.47.9.58l-.81,2.32c-.19.55,1.02,1.32,1.31,1.79.85,1.4,1.47,1.84,1.36,2.17l-.37,1.05c.25-.05.53-.41.68-.32l.74.46c.19.12.76.41.83.21l.27-.74c.01-.21-.03-.36.05-.37l.51-.11c.27-.06,1.04.3.93.55-.09.21-.36.55-.61.88.02.28.81,1.19,1.25,1.14l2.24-.24.22,1.45.63-.09c.52-.08-.39-.78,1.27-1.94.42-.29,1.33-.77,1.55-1.18l.9-1.72.6-.99c.13-.21.77,0,.99-.11l1.46-.76.11-1.32c.92.5,1.26.87,1.84.74.46-.1.94-.61,1.13-1.04l.47-1.07,1.12.94c.7-.41,1.42-.42,2.21-.17l.99-.71c.27.39.71,1.06,1,.97.31-.1.82-.29,1.29-.47.07,1.33-1.61,1.21-2.14,1.88-.5.64-1.29,1.19-2.04,1.65l-1.15,2.12,1.25,1.12c-1.46,1.2-.05,3.36.45,3.35,1.08-.03.45-2.05.62-2.72.39-.03,1.04-.03,1.11-.29l.26-.96,1.33-1.81c.23-.31.97-.38,1.52-.46l.07-2.48c.05-1.68,2.54-1.96,2.2-3.23-.42-1.55-.38-1.84-.95-2.12-.14-.07-.37.43-.52.5-1.65.72-2.35,1.64-2.69,1.31l-.7-.68c-.66,2.38-1.46,1.1-5.39,1.54-.38.04-1.11-.93-.9-1.25.36-.56,1.12-1.29,1.55-1.57.5.17,1.26.37,1.56.37l.23-1.44c.06-.38-.44-1.22-.3-1.49.86-.56,1.06-1.05,1.54-2.09l.19,1.18s.61.02.79-.06c.41-.19.09-.99.42-2.73.06-.34-.76-.68-1.18-.92l.89-.63c.14-.1-.21-.53-.18-.66l.63-1.28c.54-1.1,2.12-1.28,2.25-2.2.01-.08-.18-.08-.25-.06l-.4.13-.59.18c-.12.04-.23-.46-.13-.53l.31-.23c.78-.18,2.25-.59,2.61-1.29l.83-1.62.45.72c.09.14.51.04.7.05.39.54,1.16.93,1.86,1.15l-1.08.52c-.24.12-.27.9-.19,1.02l.97-.2c.16-.03.05.6-.12.63-.36.07-1.06.15-1.21.39-.31.52-.66,2.03-.09,2.84l-.94,1.23,1.02.57c-1.05,1.18-1.51,2.91-.44,4.12-.7.54-.91,1.17-.92,1.97v.7c0,.1.46.01.5-.08l.18-.49c.15-.42.65-1.04,1.07-1.12.35-.06,1,.49,1.29.75.1.1.62-.28.53-.38l-.53-.62,1.06-2.2c.86-1.79-.6-.59.29-3.6,2.51-1.45.12-4.96,2.5-5.79.95-.33,1.5-.95,1.72-1.95ZM259.82,109.25c-.22,1.06,1.05,1.71,1.39,1.59.66-.23.87-2.77.23-3.81.07-.29.52-1.01.35-1.26l-.66-.98,1.23-1.08c-1.43-.77-2.61-2.11-3.09-3.4l-.77-2.06c-.16-.43-1.02-1.13-1.44-.82l-1.11.82.92.73c.59.47-2.24,3.15-2.59,2.75-.14-.16-.35-.63-.39-.85l-.39-2.39-.39-2.36.75-1.05-1.63-3.71c.1-.39.36-.83.16-.98l-.87-.65-.37-.28c-.07-.05.35-.17.45-.19l1.33-.22c.72-.12,1.29-.24,1.92-.67l-1.33-.08c-.23-.01-.55-.37-.73-.5-.35.25-1.07.74-1.32.51-.19-.17-.4-.86-.59-.8l-.88.29c-.35.12-1.02.36-1.12.65s-.05.95-.17,1.23c-.19.44-.45,1.04-.55,1.42l-.51,1.97-.5,2.03c-.16.65-.77,1.11-1.33,1.31.02.5-.09,1.15-.45,1.65-.24.33-.15,1.18-.21,1.62-.1.71-.07,1.21.01,1.97.25,2.23.63,1.24,1.01,4.26-1,1.36-.39,2.55.11,3.51.17.32.37,1.04.65,1.3l1.16,1.11-.51.65c.28-.35.36,3.15,2.63,2.91,1.74-3.54-.29-5.69,1.24-7.76.61-.83,1.1-2.39,2.2-2.62.61-.13,1.43.17,2.21-.08,1.94,1.56.77,1.88,1.24,2.2.18.12.6.39.77.54,1.71,1.52,2.22.23,2.08.87l-.15.71ZM257.24,87.84c-.72-.25-1.14-.11-1.4.32-.14.23-.23.64-.26,1.02l1.67-1.34ZM259.54,88.55c-.49-.52-1.78-.62-2.29-.27.38,1.09,2.1,1.35,2.29.27ZM263,117.89c0-.2-.16-.36-.36-.36s-.36.16-.36.36.16.36.36.36.36-.16.36-.36ZM247.5,118.83c-.13.03.19.46.32.41.09-.04.27-.11.37-.14.09-.03-.05-.4-.14-.38l-.56.11ZM185.83,166.1c0-.21-.17-.37-.37-.37s-.37.17-.37.37.17.37.37.37.37-.17.37-.37ZM186.66,175.76c0-.21-.17-.38-.38-.38s-.38.17-.38.38.17.38.38.38.38-.17.38-.38ZM286.06,177.03c.2-.04.26-.57.23-.76-.03-.15-.52-.14-.66-.07-.2.12.2.88.43.83ZM185.02,182.58l-.48.79.48.29.48-.79-.48-.29ZM266.39,183.27l-.72.4.32.57.72-.4-.32-.57ZM169.86,184.73c.2-.15-.06-.78-.33-1.04-.12.04-.35.53-.35.75,0,.18.54.4.69.29ZM234.16,202.48c-.11,1.04-.07,1.85.09,2.86l.58,3.44c-.38.34-.99.74-.88,1.06l.44,1.22.54,2.74,1.11.3c.13.4.39.8.66,1.2.48.71-1.74,1.5-.71,2.61.71.76,4.08,4.25,4.94,3.31.73-.8-.65-5.58-1.02-6.93-1.74-6.34-2.93-12.57-3.64-19.11-.3-2.78-.62-5.39-1.4-8.04-.42-1.42-1.59-2.65-2.57-3.75-.92.78,0,1.47-.1,2.04-.16.82-.28,1.53-.35,2.4l.72-.3c.12.2.26.49.41.48l.51-.06c.16.88.47,2.3.74,3.04.07.18.7.45.6.6l-.39.6c-.47.71-.66-1.81-2.3-2.07-.37.45,0,1.18.36,1.45-.54,1.41.16,1.19.04,3.31l.93-.45c1,1.77,1.07,3.69,1.16,5.7.06,1.29.38,2.45.55,3.79l-1.01-1.41ZM279.81,188.96l-1.6-1.01c-.29-.18-1.21-.08-1.58-.05-.2.01-.22.73-.04.83.94.49.86-.51,1.72.55.22.26.71.55.99.55s.69-.68.51-.87ZM283.65,191.43c-.56-.7-1.53-.61-1.74-.22.02.15.14.58.22.85l1.51-.63ZM233.76,198.71c.53-.68.35-2.53-.67-2.71-.55.18-.16,1.12-.12,1.57l.07.86c.02.18.57.46.71.28ZM233.03,202c.72-.97.42-2.13-.28-2.73l.28,2.73ZM233.22,203.15c.2-.18.52-.48.43-.57l-.45-.38.03.95ZM188.71,210.52l-.59.6.37.37.59-.6-.37-.37ZM117.1,213.63c.64-.93.4-1.86.21-2.75l-.21,2.75ZM212.81,212.4c.63-.44.36-.94-.11-.97l.11.97ZM209.28,212.38c-.29,0-.68.11-.84.27-.29.28-.32.59.03,1.06l.81-1.33ZM202.4,214.45c.2-.2.2-.96,0-.97-.39.09-.38.94,0,.97ZM192.91,214.34c0-.19-.15-.34-.34-.34s-.34.15-.34.34.15.34.34.34.34-.15.34-.34ZM176.48,214.93c.11-.12-.17-.63-.3-.56l-.52.3-.06.6c-.01.13.43.16.51.06l.36-.41ZM172.02,214.77c-.14.03.19.46.32.41l.38-.14c.09-.03-.04-.4-.14-.38l-.56.11ZM185.06,214.72l-.55.37.41.63.55-.37-.41-.63ZM189.07,218.86c.37-.04.66-.12.62-.25l-.17-.61c-.3.22-.69.88-.45.86ZM189.33,221.22c.57-.57.65-.83.36-1.01-.2-.13-.58-.27-.73-.28l.37,1.29ZM240.5,222.87c.65.29,1.37.35,1.7.04.24-.22.34-1.02.24-1.18l-1.94,1.13ZM221.18,221.99l-.98.04c.24.24.49.52.57.42l.4-.47ZM190.6,239.69c-.14.03.19.46.32.41l.37-.14c.09-.03-.04-.4-.13-.38l-.56.11ZM217.91,242.55c0-.2-.17-.37-.37-.37s-.37.17-.37.37.17.37.37.37.37-.17.37-.37ZM155.67,242.83l-.67.07.11.99.67-.07-.11-.99ZM160.95,248.12l-.31-2.41c-1.06.42-1.35,1.41-1.32,2.14l.74-.13c.07-.01.45,1.2.56,1,.06-.11.35-.48.34-.61ZM169.41,245.91l-.74.02.03.93.74-.02-.03-.93ZM171.57,246.35c0-.21-.17-.37-.37-.37s-.37.17-.37.37.17.37.37.37.37-.17.37-.37ZM178.38,245.86l-.78.61.37.47.78-.61-.37-.47ZM191.57,247.39l.04.68c0,.09.39-.04.39-.13v-.46c.02-.09-.43-.18-.43-.09ZM160.36,250.41c.39-.24.52-.91.11-.92-.24,0-.21.78-.11.92ZM192.01,249.57c-.14.03.19.46.32.41l.37-.14c.09-.03-.04-.4-.14-.38l-.56.11ZM223.08,250.69l.04.68c0,.09.39-.04.39-.13v-.46c.02-.09-.43-.18-.43-.08ZM192.41,253.1l-.58.62.42.39.58-.62-.42-.39ZM159.83,254.68l.04.68c0,.09.39-.04.39-.13v-.46c.02-.09-.44-.18-.43-.08ZM146.73,255.87l-.31.57c-.06.11.46.07.58.08s.05-.34-.01-.44c-.04-.07-.23-.27-.26-.21ZM159.78,256.62l-.39.42.59.55.39-.42-.59-.55ZM160.77,259c0-.2-.16-.36-.36-.36s-.36.16-.36.36.16.36.36.36.36-.16.36-.36ZM129.45,260.52c.3-.18.29-.94,0-.95-.3.06-.28.97,0,.95ZM193.67,265.16c0-.22-.18-.39-.39-.39s-.39.18-.39.39.18.39.39.39.39-.18.39-.39ZM161.95,266.43l.23-.84c.04-.15-.74-.16-.71,0,.03.21.28.62.49.85ZM162.35,267.88c.17-.15-.52-.79-.66-.7-.22.46-.39.98-.49,1.53.36-.24.9-.61,1.15-.82ZM194.56,275.2c0-.19-.15-.34-.34-.34s-.34.15-.34.34.15.34.34.34.34-.15.34-.34ZM162.41,275.38l.04.67c0,.09.39-.04.39-.13v-.46c.02-.09-.44-.17-.43-.08ZM194.77,276.65l-.63.13.14.71.63-.13-.14-.71ZM162.6,278.09c.28-.21.48-.38.5-.51s-.27-.48-.36-.39l-.43.41c-.06.05-.11.39-.14.47s.36.08.43.03ZM175.29,277.1l-.36.44.62.51.36-.44-.62-.51ZM177.59,277l-.53.56.47.45.53-.56-.47-.45ZM163.36,280c.22-.19.17-1.07.02-1.22l-.76.71c-.17.16.53.69.74.51ZM152.45,279.43c0-.19-.16-.35-.35-.35s-.35.16-.35.35.16.35.35.35.35-.16.35-.35ZM142.05,279.83c-.21.12-.72.53-.54.6l.56.22c.13.05.35-.32.38-.46s-.27-.43-.39-.36ZM134.45,281.05c0-.22-.17-.39-.39-.39s-.39.17-.39.39.17.39.39.39.39-.17.39-.39ZM163.31,282.16c.3-.18.28-.94,0-.96-.31.06-.29.97,0,.96ZM163.56,283.69c0-.19-.16-.35-.35-.35s-.35.16-.35.35.16.35.35.35.35-.16.35-.35ZM163.33,285.92c.26-.18.24-.95,0-.96-.35.07-.33.96,0,.96ZM131.9,285.6l-.6.14.22.94.6-.14-.22-.94ZM195.53,286.93c0-.2-.17-.37-.37-.37s-.37.17-.37.37.17.37.37.37.37-.17.37-.37ZM163.32,287.19c-.13.03.19.46.32.41l.37-.14c.09-.03-.04-.4-.14-.38l-.56.11Z"/>
  <path d="M259.82,109.25l.15-.71c.14-.64-.37.65-2.08-.87-.17-.15-.59-.42-.77-.54-.46-.32.71-.64-1.24-2.2-.78.26-1.6-.04-2.21.08-1.1.23-1.59,1.79-2.2,2.62-1.53,2.07.5,4.23-1.24,7.76-2.27.24-2.35-3.26-2.63-2.91l.51-.65-1.16-1.11c-.28-.27-.48-.98-.65-1.3-.5-.96-1.1-2.14-.11-3.51-.38-3.02-.76-2.03-1.01-4.26-.08-.75-.11-1.25-.01-1.97.06-.44-.03-1.29.21-1.62.36-.5.47-1.15.45-1.65.56-.2,1.17-.66,1.33-1.31l.5-2.03.51-1.97c.1-.38.35-.98.55-1.42.12-.28.07-.94.17-1.23s.77-.53,1.12-.65l.88-.29c.19-.06.4.62.59.8.25.23.97-.26,1.32-.51.18.13.5.49.73.5l1.33.08c-.64.43-1.2.55-1.92.67l-1.33.22c-.1.02-.52.13-.45.19l.37.28.87.65c.2.15-.06.59-.16.98l1.63,3.71-.75,1.05.39,2.36.39,2.39c.04.22.25.69.39.85.36.4,3.18-2.28,2.59-2.75l-.92-.73,1.11-.82c.42-.31,1.28.39,1.44.82l.77,2.06c.48,1.3,1.66,2.64,3.09,3.4l-1.23,1.08.66.98c.17.25-.28.97-.35,1.26.64,1.04.43,3.58-.23,3.81-.34.12-1.62-.53-1.39-1.59Z"/>
  <path d="M247.83,29.84c-1.28.38-2.11-3.07-2.1-2.59l-.02-2.03,1.69-1.42c.41-.35,1.19.24,1.45.76.84,1.71.15,4.93-1.01,5.28Z"/>
  <path d="M160.95,248.12c.02.12-.27.5-.34.61-.11.19-.49-1.02-.56-1l-.74.13c-.03-.73.26-1.71,1.32-2.14l.31,2.41Z"/>
  <path d="M259.54,88.55c-.19,1.07-1.91.82-2.29-.27.51-.35,1.8-.24,2.29.27Z"/>
  <path d="M257.24,87.84l-1.67,1.34c.03-.39.12-.79.26-1.02.26-.43.69-.57,1.4-.32Z"/>
  <path d="M162.35,267.88c-.25.21-.79.58-1.15.82.1-.54.27-1.07.49-1.53.14-.08.84.56.66.7Z"/>
  <path d="M163.36,280c-.21.18-.91-.35-.74-.51l.76-.71c.15.15.2,1.03-.02,1.22Z"/>
  <path d="M189.33,221.22l-.37-1.29c.14,0,.53.15.73.28.29.19.21.44-.36,1.01Z"/>
  <path d="M162.6,278.09c-.07.05-.45.05-.43-.03s.08-.41.14-.47l.43-.41c.09-.09.38.26.36.39s-.21.3-.5.51Z"/>
  <path d="M176.48,214.93l-.36.41c-.08.09-.52.06-.51-.06l.06-.6.52-.3c.13-.08.41.43.3.56Z"/>
  <path d="M209.28,212.38l-.81,1.33c-.35-.47-.32-.78-.03-1.06.16-.16.55-.26.84-.27Z"/>
  <path d="M169.86,184.73c-.14.11-.69-.11-.69-.29,0-.22.24-.72.35-.75.27.26.54.89.33,1.04Z"/>
  <rect x="168.68" y="245.92" width=".75" height=".93" transform="translate(-7.83 5.56) rotate(-1.84)"/>
  <path d="M286.06,177.03c-.23.05-.63-.71-.43-.83.13-.07.63-.08.66.07.03.2-.03.72-.23.76Z"/>
  <path d="M161.95,266.43c-.21-.23-.46-.64-.49-.85-.02-.16.76-.15.71,0l-.23.84Z"/>
  <rect x="131.41" y="285.66" width=".61" height=".96" transform="translate(-61.59 37.43) rotate(-13.14)"/>
  <path d="M142.05,279.83c.12-.06.41.22.39.36s-.25.51-.38.46l-.56-.22c-.18-.07.33-.48.54-.6Z"/>
  <rect x="184.56" y="182.84" width=".93" height=".56" transform="translate(-67.74 245.39) rotate(-58.54)"/>
  <rect x="177.69" y="246.1" width=".99" height=".59" transform="translate(-114.15 162.72) rotate(-38.16)"/>
  <rect x="194.21" y="276.71" width=".64" height=".72" transform="translate(-51.25 44.26) rotate(-11.48)"/>
  <circle cx="171.2" cy="246.35" r=".37"/>
  <circle cx="186.28" cy="175.76" r=".38"/>
  <path d="M202.4,214.45c-.39-.04-.4-.88,0-.97.2.02.21.78,0,.97Z"/>
  <path d="M129.45,260.52c-.28.01-.3-.9,0-.95.28.01.3.77,0,.95Z"/>
  <circle cx="152.1" cy="279.43" r=".35"/>
  <path d="M163.33,285.92c-.33,0-.35-.89,0-.96.24.02.26.78,0,.96Z"/>
  <rect x="184.66" y="214.84" width=".66" height=".75" transform="translate(-88.09 137.98) rotate(-33.53)"/>
  <path d="M189.07,218.86c-.24.02.15-.64.45-.86l.17.61c.04.13-.25.21-.62.25Z"/>
  <circle cx="134.06" cy="281.05" r=".39"/>
  <circle cx="217.54" cy="242.55" r=".37"/>
  <circle cx="262.65" cy="117.89" r=".36"/>
  <path d="M163.31,282.16c-.29.01-.31-.89,0-.96.28.02.3.78,0,.96Z"/>
  <circle cx="160.41" cy="259" r=".36"/>
  <rect x="175.14" y="277.17" width=".57" height=".81" transform="translate(-150.51 237.69) rotate(-50.73)"/>
  <path d="M212.81,212.4l-.11-.97c.47.04.75.53.11.97Z"/>
  <rect x="188.18" y="210.75" width=".84" height=".53" transform="translate(-94.08 197.31) rotate(-45.43)"/>
  <circle cx="185.45" cy="166.1" r=".37"/>
  <path d="M160.36,250.41c-.1-.14-.14-.92.11-.92.41,0,.28.68-.11.92Z"/>
  <circle cx="195.16" cy="286.93" r=".37"/>
  <rect x="191.9" y="253.32" width=".85" height=".57" transform="translate(-124.09 219.18) rotate(-46.61)"/>
  <circle cx="193.28" cy="265.16" r=".39"/>
  <rect x="159.59" y="256.7" width=".58" height=".81" transform="translate(-137.31 199.3) rotate(-47.12)"/>
  <circle cx="192.57" cy="214.34" r=".34"/>
  <path d="M159.83,254.68c0-.09.45,0,.44.08v.46c-.02.09-.4.22-.4.13l-.04-.68Z"/>
  <path d="M223.08,250.69c0-.09.45,0,.44.08v.46c-.02.09-.4.22-.4.13l-.04-.68Z"/>
  <path d="M192.01,249.57l.56-.11c.09-.02.23.35.14.38l-.37.14c-.13.05-.46-.38-.32-.41Z"/>
  <circle cx="194.22" cy="275.2" r=".34"/>
  <path d="M162.41,275.38c0-.09.45-.01.44.08v.46c-.02.09-.4.22-.4.13l-.04-.67Z"/>
  <path d="M191.57,247.39c0-.09.45,0,.44.09v.46c-.02.09-.4.22-.4.13l-.04-.68Z"/>
  <path d="M190.6,239.69l.56-.11c.09-.02.22.35.13.38l-.37.14c-.13.05-.46-.38-.32-.41Z"/>
  <path d="M221.18,221.99l-.4.47c-.08.09-.34-.19-.57-.42l.98-.04Z"/>
  <rect x="177.18" y="277.18" width=".77" height=".65" transform="translate(-146.14 216.23) rotate(-46.67)"/>
  <path d="M172.02,214.77l.56-.11c.09-.02.22.35.14.38l-.38.14c-.13.05-.46-.38-.32-.41Z"/>
  <circle cx="163.21" cy="283.69" r=".35"/>
  <path d="M247.5,118.83l.56-.11c.09-.02.22.35.14.38-.1.03-.29.1-.37.14-.13.06-.46-.38-.32-.41Z"/>
  <path d="M163.32,287.19l.56-.11c.09-.02.22.35.14.38l-.37.14c-.13.05-.45-.38-.32-.41Z"/>
  <path class="cls-1" d="M202.83,122.04c.06-1.31,2.91-4.8,3.23-5.56l1.54-3.69c.28-.68.62-1.24,1.03-1.85,1.87-2.81,1.12-.28,2.57-5.02.49-.57,3.6.67,3.77,1.95.02.18.65.02.65.15v.68c.34.23.86.54,1.07.8s.08,1.11.11,1.45c.09.92.9,1.64-.12,2.4l.81,1.27c.12.19.83,0,.92-.22s.2-.8.15-1.07l-.55-2.83c-.29-1.49-1.13-3.05-1.93-4.31-.44-.7-.84-1.19-.97-2.05,3.21,1.88,4.27,8.7,4.04,12.01l-.63.29c-.14.06-.14.6.01.58l.85-.09c.2-.02.04.62-.05.83-.08.19-.51.1-.78.01l-.64-.21c-.17-.06-.02.6.04.8.52,1.79,1.7,6.7,3.11,7.43.23.12.8-.49.87-.77.42-1.69.43-3.63.03-5.4l-1.61-7.12c-.59-2.59-1.43-5.02-2.85-7.28-2.03-3.24-3.9-1.58-4.07-3.39,2.81-1.47,5.47,3.59,6.25,5.82l1.22,3.51c1.26,3.62,2.07,7.28,2.76,11.06.28,1.53.1,3.48-.57,4.65-.59,1.03-1.3,1.32-2.45.98l.82,2.6c.12.39.18,1,.19,1.34.29.53.62,1.22.83,1.89l.51,1.61.62,1.98c.31,1,.63,2.2.33,3.15-2.27.36-4.03.93-6.14,1.47l-3.98,1.02c-.31.07-.59-.49-1.01-1.01l-.54,1.23c-1.83.79-4.41.86-6.29-.09-2.49-1.26-1.16.35-5.86-2.34l-3.11-1.78c-3.13-1.79.5-.09-3.62-2.81-.99-.65-1.43-2.18-.5-3.14,2.09-2.16,4.04-4.33,5.85-6.82.24-.33.82-.67,1.22-.85.34-1.4,1.63-2.43,2.86-3.3ZM217.78,117.1c.05-.58-.09-.92-.32-.91-.09.33.07.74.32.91ZM217.01,119.22c.29-.4.24-1.01-.32-1.15l.32,1.15ZM217.55,120.86c.04-.56-.1-.93-.32-.9-.11.32.06.74.32.9ZM204.24,122.12c.46-.26.43-1.18.1-1.2l-.6.63c-.13.13.33.66.5.57ZM211.56,127.23l.04.68c0,.09.39-.04.39-.13v-.46c.02-.09-.43-.19-.43-.09ZM212.9,141.32v-.98s-.47.42-.47.42c-.09.08.19.32.47.56Z"/>
  <g>
    <path d="M165.6,229.8c-.22,1-.77,1.62-1.72,1.95-2.38.83,0,4.34-2.5,5.79-.89,3.01.57,1.81-.29,3.6l-1.06,2.2.53.62c.09.11-.43.48-.53.38-.29-.26-.94-.81-1.29-.75-.42.07-.91.7-1.07,1.12l-.18.49c-.03.1-.5.18-.5.08v-.7c.02-.8.22-1.43.93-1.97-1.07-1.21-.61-2.94.44-4.12l-1.02-.57.94-1.23c-.57-.81-.22-2.32.09-2.84.15-.24.85-.33,1.21-.39.16-.03.27-.66.12-.63l-.97.2c-.08-.11-.05-.9.19-1.02l1.08-.52c-.71-.22-1.47-.61-1.86-1.15-.19-.01-.61.08-.7-.05l-.45-.72-.83,1.62c-.36.7-1.83,1.11-2.61,1.29l-.31.23c-.1.08,0,.57.13.53l.59-.18.4-.13c.07-.02.26-.02.25.06-.13.92-1.71,1.1-2.25,2.2l-.63,1.28c-.03.12.31.56.18.66l-.89.63c.42.24,1.24.58,1.18.92-.33,1.74-.01,2.53-.42,2.73-.18.09-.76.11-.79.06l-.19-1.18c-.48,1.04-.68,1.53-1.54,2.09-.14.27.36,1.12.3,1.49l-.23,1.44c-.3,0-1.06-.2-1.56-.37-.43.29-1.19,1.02-1.55,1.57-.21.32.52,1.29.9,1.25,3.93-.44,4.73.84,5.39-1.54l.7.68c.34.33,1.03-.6,2.69-1.31.16-.07.38-.56.52-.5.57.27.53.57.95,2.12.35,1.27-2.15,1.55-2.2,3.23l-.07,2.48c-.56.07-1.29.15-1.52.46l-1.33,1.81-.26.96c-.07.26-.72.27-1.11.29-.17.67.46,2.69-.62,2.72-.49.01-1.9-2.14-.45-3.35l-1.25-1.12,1.15-2.12c.76-.46,1.54-1.01,2.04-1.65.53-.68,2.21-.55,2.14-1.88-.46.17-.97.37-1.29.47-.29.09-.72-.58-1-.97l-.99.71c-.78-.26-1.5-.24-2.21.17l-1.12-.94-.47,1.07c-.19.43-.67.94-1.13,1.04-.58.12-.92-.24-1.84-.74l-.11,1.32-1.46.76c-.22.11-.86-.1-.99.11l-.6.99-.9,1.72c-.22.41-1.13.89-1.55,1.18-1.66,1.16-.76,1.86-1.27,1.94l-.63.09-.22-1.45-2.24.24c-.44.05-1.24-.86-1.25-1.14.26-.33.52-.67.61-.88.11-.25-.66-.61-.93-.55l-.51.11c-.08.02-.04.16-.05.37l-.27.74c-.07.2-.64-.09-.83-.21l-.74-.46c-.14-.09-.43.27-.68.32l.37-1.05c.11-.33-.51-.76-1.36-2.17-.29-.47-1.5-1.24-1.31-1.79l.81-2.32c-.31-.11-.87-.34-.9-.58-.81-3.17.34-5.09-2.14-7.35,1.06-3.64.26-3.68-.8-4.76-2.52-2.57-1.38-.93-3.61-3.7-.83-1.03-1.54-2.05-1.74-3.44-.42-2.94-1.05-4.57-.6-7.78l1.44-10.15c.67-4.76,1.83-9.27,3.28-13.84l2.9-9.13,6.98-24.25c.48-1.67.84-3.2,1.42-4.77.41-1.11,1.95-5.35,1.69-6.15l-3.37,8.6c-.88-.46-.48-1.12-.48-2.02-1.06,1.62-1.46,3.51-2.08,5.35s-1.21,3.93-1.19,5.53l.47-.61c.07-.09.31.27.37.41l-2.94,10.73c-.6,2.18-1.13,4.24-1.86,6.4-1.48,4.31-2.63,8.57-4.01,12.9l-1.01,3.16-1.36,4.94c-.98-.86-.27-1.7,0-2.56l1.86-5.7-1.32,1.35c-.86-.71.11-1.04.34-1.47l.42-4.93.45-2.49c.29-.57,1.17-1.6,1.49-2.14.1-.16-.13-.8.03-.9.23-.16.83-.41.77-.63l-.25-.91.05-1.63.13-2.25c.01-.18.42-.56.6-.7l-.05-3.41c0-.22.66-.63.58-.81l-.43-.89.72.06c.09-.62.24-1.37.27-1.83l.11-1.72c.41-.68.55-1.15.69-1.98.11-.62.96-1.66.78-2.24-.26-.84.1-1.35.43-1.84-.16-1.21-.01-2.48.96-3.3l.39-1.77-.23-.62c-.05-.14.37-.48.4-.63l.38-1.62c.21-.17.61-.41.54-.56l-.31-.72c-.09-.22.39-.75.26-.95l-.55-.85c-.07-.11.24-.38.33-.47.35-.34.45,1.98.65.75l.09-.54c.05-.34.59-2.23.55-2.21l1.01-.59-.78-.42s.61-3.52,2.3-4.45c-.58-1.29.65-3.5,1.16-4.54.43-.87.79-1.94,1.13-2.92l1.05-2.99c.16-.44.57-1.32.81-1.73.68-1.17.87-2.19,1.26-3.42l1.21-3.73c.24-.73.58-1.06,1.04-1.72.68-.98.58-2.63,2-3.24l.02-2.49.56.03c.1,0,.16-.25.24-.42l.73-1.56c.02-.94.16-1.56.54-2.28l.93-1.74c.63-1.18.77-2.86,2.05-3.61,2.52-1.47-.58-2.95,2.4-4.04.58-.21.9-1.39,1.31-1.83,1.05-1.11,1.49-2.12,2.07-3.47l.69-1.59c2.02-1.08.98-2.75,2.41-3.19.95-.3.73-1.23.92-1.7l.82-2.14h1.19c.02-.89.19-1.26.75-1.74.7-.59.75-2,1.23-2.63l1.59-2.09-.18-.66c-.03-.12.42-.06.46-.09l.72-1.44c.09-.18.21-.65.27-.82s.51-.23.74-.32l1.33-2.64c.29-.59.72-1.25,1.1-1.78.16-1.17.46-2.35,1.7-3.08.45-3.96.91-1.88,1.71-4.15l1.36-3.86c.16-.45,1.64-2.45,2-3.28l.75-1.72c.22-.5.54-.96.61-1.62.17-1.72.79-.47.93-1.62.01-.12.59.09.67,0,.42-.5,1.13-1.65,1.72-2.01.69-.42.91-.84,1.39-1.34l2.1-2.21c1.69-1.05.6-.83,3.25-2.29l1.89-1.04c.5-.27,1.13-.74,1.65-1.08,3.27-2.13,1.35-.28,5.46-2.49,2.44-1.31,2.31-.62,5.5-1.76.71-.26,1.58-.45,2.41-.68,2.42-.67.73-1.23,2.92-1.2l3.42-1.53c.52-.23,1.29-.9,1.91-1.28l3.18-2c.25-.16.98-.19,1.19-.37,1.73-1.53,4.87-.47,6.44,1.33.32.37.82.83,1.09,1.2l2.74,3.69c.55.74,1.67.92,2.5,1.28.44.19,1.26,1.13,1.77.87,1.17-.59.63-1.85.47-2.71-.49-2.75,2.02-3.03,2.1-4.49.96-.48,3.34,2.7,3.47,3.33.39,1.96,1.74,2.53,3.07,3.63,3.74,3.11,4.1,4.54,6.25,8.36l.45.8c.13.23-.33.8-.4,1.11-.14.66,1,.82,1.49.49l.54-.04c.17-.01.24.58.18.74-.28.88-.89,1.13-1.54,1.63s-1.61,1.65-1.92,2.33c-.37.8-.4.97-.9,1.37l-2.75,2.18c-.6.48-1.03,1.1-.58,1.92.18.33,0,.81-.06,1.22l-1.28,9.39c-.33,2.46,1.16,7.39,1.98,9.65.3.84.32,2.08.55,3.07.16.68.54,1.21.75,1.88l.73,2.3c.27.86.5,1.55.09,2.38-.8,1.63-1.4,3.31-1.52,5.11-.03.47.2,1.22.21,1.62.11,4.14,1,.59,1.18,5.82.29.37.95.86,1.48,1.23l-.26,2.24c-.05.43.7,1.21.91,1.6l1.1,2.16c.39.08,1.28.28,1.43.58.22.44-.35,1.39-.54,1.74l1.53,3.29.58,1.38c.21.51.56,1.23.61,1.66l.09.79c.02.17.67.25.77.41.81,1.24,2.42,2.56,3.61,3.48.94.73,1.58.93,2.6,1.28,1.58.55,2.57,2.35,4.33,2.76.77.18,1.83-.9,2.12-1.62.71-1.73,1.83-2.37,3.66-2.16,3.52.4,5.12-.05,8.61,2.23l1.33.87c.9.59,1.84,1.25,2.72,1.92l2.84,2.14c.74.56,1.41,1.64,2.09,2.34,2.28,2.37,2.06,3.05,4.17,5.23,1.05,1.08,2.76.09,3.95-.34l2.33-.84,2.13-1.41c.9-.6,1.79-1,2.89-1.44,1.24-.5,2.54-1.19,3.9-.89-1.6-.33,4.34-.61,2.59-.67l3.64.11c.34.01.97.49,1.26.63,1.94.92.97,1.65,2.69,3.72.19.11.77.16.78.37l.07,1.2c-.04.07-.19.28-.23.34s-.32-.11-.35-.19c-.36-.87-1.84-1.42-2.44-1.95-.3-.27-1.09-2.48-3.92-1.8l-3.23.77c-1.11.26-4.05,2.25-5.18,2.37l-2,1.06c-1.99,1.05-2.73,1.7-4.5,2.47-1.96.86-1.37,2.9-1.17,4.41.79,6.03,1.75,6.45-.03,12.49-.35,1.2-1.01,2.29-1.59,3.38l-1.98,3.72c-.22.41-1.09.99-1.35,1.37-.63.93-1.34.96-2.3,1.39-1.01.45-1.91,1.63-3.38.97-.56-.25-1.34-.32-1.94.08l-1.09-.31c-.83.56-1.85.65-2.67-.01l-1.08.14c-.66-1.09-1.66-1.29-2.8-1.32-.78-.02-1.16.21-1.68.81-1.52,1.74-3.9,5.11-4.3,7.18-.02.11.25.4.34.33l.4-.32c.12-.09.26-.2.33-.25.1-.06.32.35.34.54.04.3-.49.72-.84.98l-.8,1.64c-.22.45.72.71,1.3,3.25l.3,1.3c.08.33.8.28,1.39-.02l.36.48c-.7.65-1.17.56-2.23.29l.31,1.31.14.59c.03.13.43.09.63.1l.9,2.36.1,2.3c2.03.65,1.25,2.87,1.75,2.89l.95.03c.29,0,.96.04,1.06.26.13.27.01.84-.12,1.16l-.65,1.59c-.5,1.24,2.26,1.12,2.32,2.36.02.39-.58,1.04-.88,1.35.14.19.48.73.5,1.03.02.32-.54.52-1.1.76l.65.26c.39-.04.37.75.2,1.23l-.25.69c-.07.2.52.34,1.03.44.19-.1.14.43,0,.48l-.6.19c-.13.04.07.41.13.6l.56,1.89c.05.16.55.52.44.64-.82.89-.78.36-.69,3.42,0,.31.75.76.89.97.16.44.5.99.84,1.43.33,1.06-.96,2.16-1.61,2.83l.24,5.84c.07,1.64-.77-.2-.34,3.82-.56.96-.77,1.9-.45,3.06-.19.6-.96,1.48-1.21,2.04l-1.42,3.26-.48,1.46-1.04,2.44c-1.18,1.17-1.32,2.35-1.79,3.84-.41,1.32-2.4,2.14-3.39,3.03-1.04.93-2.25,1.42-3.43.96-.42.25-1.23.75-1.53.53-.38-.29-.8-.64-1.11-.78s-.97.15-1.47.3c-.81.25-1.65-.82-2.38-1.14-.56-.25-1.51-.37-1.91-.72-1.07-.92-2.26-1.84-3.32-2.56-1.58-2.38-.16-1.12-1.7-3.19.02-.09.19-.4.1-.44l-.62-.32c-1.05-.54-.53-1.51-1.7-2.5-1.71-1.45.08-2.26-1.56-2.54l-.55-1.4c1.17-1.67-1.59-4.59-1.98-6.72.02-1.64-.18-2.92-1.42-4.11l-.14-1.89c-.48-.87-.57-1.55.16-2.4l-1.03-1.59c-.25-.38-1.03-2.7-.63-3.72l1.13,1.29c1.5,1.7,3.45,3.12,5.23,4.57.45.37,2.03.99,2.02.04-.02-2.12-.79-4.23-1.42-6.22l-2.51-7.88c-.28-.88-.55-1.67-.75-2.6l-2.03-9.37c-.9-4.18-.44-15.43-2.95-17.61l-2.61-2.27c1.35-2.66-1.16-1.94.15-5.46-.68-1.56.8-.94-.35-2.47.51-.99-.5-2.13-.2-4.63l-.79-.76c.85-1.94.42-3.87-.58-5.67,0-1.02.15-2.43-.32-3.33-.52-.98-1.34-1.1-2.25-1.15l-2.18-.11c-.74-.04-1.42.16-2.17.3-1.6.31-4.36.37-5.12.81l-2.84,1.67c-.56.33-.69,1.49-.77,1.96-.62.21-1.27.48-1.81.75l-3.39,1.67c-.8-.64-1.89-.57-3.04-.32-1.26.27-2.68.36-3.89.51l-.64-.59c-.16-.15-.68.35-.91.38l-1.43.16-.31.82s-1.56.54-2.94-.49c-.16-.12-.56-.38-.69-.29l-.69.51c-3.67.16-2.49-.38-6.64-.59-.77-.04-1.74-.68-2.37-.03l-.71.72c-.15.16-.84-.19-.72-.37l.4-.57c.68-.99-3.18.75-4.12.94-.86.17-1.52.26-2.18,1.03-1.98,2.31-.55-.42-3.47,4.7-.66,1.15-1.28,2.33-1.86,3.5-.5,1.01-.87,1.64-1.88,2.17-.32.77-.61,2.23-1.06,2.91-.59.89-1.02,1.49-.79,2.55-1.37,2.12-.36.73-1.45,3.49-.79,2.01-1.29,3.88-1.61,6.08l-.73,5.13c-.07.52-.02,1.47,0,2.04l.19,4.23c.03.77.07,1.43,0,2.22-.44,5.15.82,5.37,1.04,8.45l.23,3.25c.07.95.07,2.07-.02,3l-.56,5.89c-.19.57-.66,1.61-.81,2.29l-.51,2.29ZM224.26,86.25c.16-.69-.37-1.69-.41-2.3l-.21-2.68-1.26-.31c-.12-.13.33-.82.56-1.17.17-.25-.48-.82-.68-1.08.19-2.1.5-4.83-1.15-6.51-3.07.08-2.34,4.77-2.18,7.02.08,1.1.34,1.82.85,2.76.34.62.14,1.99.71,2.59.43.45,1.02,1.01,1.06,1.52.09,1.31,1.18,1.71,1.99,2.24.21.14.45.89.66.76l.78-.46c-1.13-.73-.94-1.39-.71-2.38ZM225.86,90.18c0-.19-.15-.34-.34-.34s-.34.15-.34.34.15.34.34.34.34-.15.34-.34ZM202.83,122.04c-1.23.87-2.52,1.89-2.86,3.3-.4.17-.98.52-1.22.85-1.81,2.49-3.75,4.66-5.85,6.82-.93.96-.5,2.48.5,3.14,4.12,2.72.49,1.02,3.62,2.81l3.11,1.78c4.69,2.69,3.37,1.08,5.86,2.34,1.88.95,4.46.88,6.29.09l.54-1.23c.41.51.7,1.07,1.01,1.01l3.98-1.02c2.11-.54,3.87-1.11,6.14-1.47.3-.95-.02-2.15-.33-3.15l-.62-1.98-.51-1.61c-.21-.66-.54-1.36-.83-1.89,0-.33-.06-.94-.19-1.34l-.82-2.6c1.15.34,1.86.05,2.45-.98.68-1.17.85-3.12.57-4.65-.69-3.79-1.5-7.45-2.76-11.06l-1.22-3.51c-.78-2.24-3.44-7.29-6.25-5.82.17,1.81,2.03.14,4.07,3.39,1.41,2.25,2.26,4.68,2.85,7.28l1.61,7.12c.4,1.76.39,3.71-.03,5.4-.07.28-.64.89-.87.77-1.41-.73-2.6-5.64-3.11-7.43-.06-.2-.21-.86-.04-.8l.64.21c.27.09.69.18.78-.01.09-.21.25-.85.05-.83l-.85.09c-.15.02-.15-.52-.01-.58l.63-.29c.23-3.32-.83-10.14-4.04-12.01.12.86.52,1.35.97,2.05.8,1.26,1.64,2.82,1.93,4.31l.55,2.83c.05.27-.06.85-.15,1.07s-.8.41-.92.22l-.81-1.27c1.01-.76.2-1.48.12-2.4-.03-.34.09-1.18-.11-1.45s-.73-.58-1.07-.8v-.68c0-.13-.62.03-.64-.15-.16-1.28-3.28-2.52-3.77-1.95-1.45,4.75-.71,2.21-2.57,5.02-.41.62-.75,1.18-1.03,1.85l-1.54,3.69c-.32.76-3.17,4.24-3.23,5.56ZM220.39,116.38l-.47.77.5.3.47-.77-.5-.3ZM218.87,120.01l.92-.21c.21-.05.31-.73.36-.95l.48.37c.09.07.42-.31.34-.4l-.38-.47c-.14-.17-.82-.09-.9.12l-.36.93-.55-1.04.1,1.65ZM139.72,134.94c1.06-.78.85-2.41,1.98-2.57l-1.38,4.01c-.52,1.52-.92,2.93-1.08,4.57.75-1.15,1.01-2.28,1.49-3.49,1.57-3.98,3.42-7.74,5.19-11.64.76-1.68,1.61-3.15,2.13-5.01-1.57,1.85-2.28,3.99-3.46,5.99l-1.4,2.36.05-1.46c-.88.44-1.05,1.37-1.24,1.99-2.5,1.04-.99,2.74-1.7,3.05l-.73.32c-.42.18-.2,1.24.14,1.89ZM138.55,136.7l.03-1.58c-.27.33-.44.62-.49.91-.03.2.23.55.46.67ZM228.25,149.78c-.99-.61-1.86-.87-2.96-.79-.38.03-.45,1.09-.23,1.24l.68-.29c.46.33.93.59,1.4.61.39.02.99-.36,1.11-.78ZM135.93,151.59c.29-.61.4-1.1.21-1.28-.29.61-.4,1.1-.21,1.28ZM120.19,198.49l.81-3.56c.2-.88.84-1.58.56-2.6-.75.69-2.31,5.1-1.37,6.16ZM159.89,228.24l1.35-.52c-.72-1.32.87-3.62-.33-4.48-.47-.34-1.09.32-1.04.88.09,1.05-1.91,1.22-.93,2.02l.64.52c-.26.36-.66.69-.57.93.13.34.62.73.88.63Z"/>
    <path d="M117.1,213.63l.21-2.75c.19.88.43,1.82-.21,2.75Z"/>
    <path d="M146.73,255.87c.04-.07.22.14.26.21.06.1.13.45.01.44s-.64.03-.58-.08l.31-.57Z"/>
    <path class="cls-1" d="M224.26,86.25c-.24.99-.42,1.64.71,2.38l-.78.46c-.21.13-.45-.63-.66-.76-.8-.52-1.9-.93-1.99-2.24-.03-.51-.63-1.07-1.06-1.52-.57-.59-.37-1.96-.71-2.59-.51-.94-.77-1.66-.85-2.76-.16-2.25-.89-6.94,2.18-7.02,1.66,1.68,1.35,4.41,1.15,6.51.2.26.85.83.68,1.08-.23.35-.68,1.04-.56,1.17l1.26.31.21,2.68c.05.61.58,1.61.41,2.3Z"/>
    <path class="cls-1" d="M139.72,134.94c-.34-.65-.55-1.71-.14-1.89l.73-.32c.71-.31-.79-2.01,1.7-3.05.18-.62.36-1.55,1.24-1.99l-.05,1.46,1.4-2.36c1.18-1.99,1.89-4.13,3.46-5.99-.52,1.86-1.37,3.34-2.13,5.01-1.78,3.9-3.62,7.66-5.19,11.64-.48,1.21-.74,2.34-1.49,3.49.16-1.63.56-3.05,1.08-4.57l1.38-4.01c-1.13.16-.92,1.79-1.98,2.57Z"/>
    <path class="cls-1" d="M159.89,228.24c-.25.1-.75-.28-.88-.63-.09-.24.31-.57.57-.93l-.64-.52c-.98-.8,1.02-.97.93-2.02-.05-.56.57-1.22,1.04-.88,1.19.85-.4,3.15.33,4.48l-1.35.52Z"/>
    <path class="cls-1" d="M120.19,198.49c-.94-1.06.62-5.47,1.37-6.16.28,1.02-.36,1.72-.56,2.6l-.81,3.56Z"/>
    <path class="cls-1" d="M218.87,120.01l-.1-1.65.55,1.04.36-.93c.08-.21.76-.29.9-.12l.38.47c.07.09-.25.47-.34.4l-.48-.37c-.05.22-.15.9-.36.95l-.92.21Z"/>
    <path class="cls-1" d="M138.55,136.7c-.23-.12-.49-.47-.46-.67.05-.29.22-.57.49-.91l-.03,1.58Z"/>
    <rect class="cls-1" x="219.95" y="116.63" width=".9" height=".59" transform="translate(6.42 245.22) rotate(-58.89)"/>
    <path class="cls-1" d="M135.93,151.59c-.19-.17-.07-.67.21-1.28.18.18.07.67-.21,1.28Z"/>
    <circle class="cls-1" cx="225.52" cy="90.18" r=".34"/>
    <path d="M217.01,119.22l-.32-1.15c.56.15.62.76.32,1.15Z"/>
    <path d="M217.55,120.86c-.25-.16-.42-.58-.32-.9.21-.03.35.34.32.9Z"/>
    <path d="M217.78,117.1c-.24-.16-.41-.58-.32-.91.23-.01.36.33.32.91Z"/>
    <rect x="155.05" y="242.86" width=".67" height=".99" transform="translate(-25.02 17.93) rotate(-6.11)"/>
    <g>
      <path d="M234.16,202.48l1.01,1.41c-.17-1.33-.49-2.49-.55-3.79-.09-2.01-.16-3.94-1.16-5.7l-.93.45c.12-2.12-.58-1.9-.04-3.31-.35-.27-.73-1-.36-1.45,1.63.26,1.83,2.78,2.3,2.07l.39-.6c.1-.15-.53-.42-.6-.6-.27-.74-.58-2.16-.74-3.04l-.51.06c-.14.02-.28-.28-.41-.48l-.72.3c.08-.86.19-1.57.35-2.4.11-.57-.82-1.26.1-2.04.98,1.09,2.15,2.32,2.57,3.75.78,2.65,1.1,5.27,1.4,8.04.71,6.53,1.9,12.77,3.64,19.11.37,1.36,1.75,6.13,1.02,6.93-.86.94-4.23-2.54-4.94-3.31-1.03-1.11,1.19-1.91.71-2.61-.27-.4-.53-.8-.66-1.2l-1.11-.3-.54-2.74-.44-1.22c-.11-.31.5-.72.88-1.06l-.58-3.44c-.17-1-.21-1.82-.09-2.86ZM235.46,195.56l-.31-1.54c-.1-.52-.32-1.18-.5-1.77-.92,1.17-.25,2.33.21,3.47l.25.63c.04.1.49-.03.47-.14l-.13-.66ZM235.65,200.76c.7-.87.34-1.82-.39-2.35l.39,2.35ZM236.01,202.71l.04.68c0,.09.39-.04.39-.13v-.46c.02-.09-.43-.18-.43-.09ZM235.66,207.17c.1-.9-.03-1.65-.32-2.4-.1.9.03,1.65.32,2.4ZM237.14,207.77c.34-.81.09-1.27-.15-1.83l-.26-1.31c-.56.64-.21,1.16.04,1.71l.36,1.44ZM235.26,212.32c.06.23.21.46.33.52.92.48,1.13-3.01.46-3.4l-.35,1.8-.61-1.07c-.07-.12-.27-.34-.36-.43-.06-.06-.06.39-.03.48l.55,2.09Z"/>
      <path d="M279.81,188.96c.18.19-.23.87-.51.87s-.78-.29-.99-.55c-.86-1.06-.78-.06-1.72-.55-.18-.09-.16-.82.04-.83.37-.02,1.29-.13,1.58.05l1.6,1.01Z"/>
      <path d="M233.76,198.71c-.14.18-.69-.09-.71-.28l-.07-.86c-.04-.45-.43-1.39.12-1.57,1.02.19,1.2,2.03.67,2.71Z"/>
      <path d="M240.5,222.87l1.94-1.13c.11.16,0,.95-.24,1.18-.33.31-1.06.25-1.7-.04Z"/>
      <path d="M283.65,191.43l-1.51.63c-.08-.28-.2-.7-.22-.85.21-.39,1.18-.48,1.74.22Z"/>
      <path d="M233.03,202l-.28-2.73c.7.61,1,1.76.28,2.73Z"/>
      <rect x="265.78" y="183.43" width=".82" height=".66" transform="translate(-55.84 153.46) rotate(-29.24)"/>
      <path d="M233.22,203.15l-.03-.95.45.38c.1.08-.22.38-.43.57Z"/>
      <path class="cls-1" d="M228.25,149.78c-.13.42-.72.8-1.11.78-.47-.02-.95-.28-1.4-.61l-.68.29c-.22-.15-.14-1.22.23-1.24,1.1-.08,1.97.18,2.96.79Z"/>
      <path class="cls-1" d="M235.26,212.32l-.55-2.09c-.02-.09-.03-.54.03-.48.09.09.28.3.36.43l.61,1.07.35-1.8c.67.39.46,3.88-.46,3.4-.12-.06-.27-.29-.33-.52Z"/>
      <path class="cls-1" d="M235.46,195.56l.13.66c.02.11-.43.24-.47.14l-.25-.63c-.46-1.14-1.13-2.3-.21-3.47.18.59.39,1.25.5,1.77l.31,1.54Z"/>
      <path class="cls-1" d="M235.65,200.76l-.39-2.35c.72.52,1.08,1.48.39,2.35Z"/>
      <path class="cls-1" d="M235.66,207.17c-.29-.75-.42-1.51-.32-2.4.29.75.42,1.51.32,2.4Z"/>
      <path class="cls-1" d="M237.14,207.77l-.36-1.44c-.25-.55-.6-1.07-.04-1.71l.26,1.31c.23.56.48,1.03.15,1.83Z"/>
      <path class="cls-1" d="M236.01,202.71c0-.09.45,0,.44.09v.46c-.02.09-.4.22-.4.13l-.04-.68Z"/>
    </g>
  </g>
  <path d="M204.24,122.12c-.16.09-.62-.44-.5-.57l.6-.63c.34.02.36.94-.1,1.2Z"/>
  <path d="M212.9,141.32c-.28-.24-.56-.48-.47-.56l.46-.42v.98Z"/>
  <path d="M211.56,127.23c0-.09.45,0,.44.09v.46c-.02.09-.4.22-.4.13l-.04-.68Z"/>
</svg>