<?xml version="1.0" encoding="UTF-8"?>
<svg id="Layer_2" data-name="Layer 2" xmlns="http://www.w3.org/2000/svg" viewBox="0 0 432 288">
  <defs>
    <style>
      .cls-1 {
        fill: #fff;
      }
    </style>
  </defs>
  <path class="cls-1" d="M328.28-5.92v286.08h-190.08V-6.16h.24l.32.24h189.52ZM256.46,114.88c-.45.15-.94.21-1.24.18.12.51.13,1.65-.42,1.88.25-4.17-2.11-2.14-.86-3.32-1.04-.23-1.37-.86-1.36-2.26-.82-.28-3.43.59-3.59.11l-.21-.66c-.07-.23-.11-.78-.3-.8l-.94-.12c-1.32-.17-1.8-1.04-2.06-2.24-.34.07-1.15,0-1.42-.44-.22-.36-.42-.72-.37-.93.04-.17.5-.48.76-.54,1.97-.44,3.91-2,5.44-3.51l2.65-2.62c.63-.63.95-.98,1.18-2.04.18-.82,1.33-1.75,1.58-2.57.18-1.43.49-2.8.95-4.11l-.61-1.63c-.1-.25-.53-.52-.76-.7l-1.51-1.18c-.38-.3-.29.86-.5.32l-.18-.47c-.59.19-1.24.35-1.99.52-1.02.24-2.31,1.2-3.17.13.51-.74.25-2.14.1-2.81-.06-.28.4-.93.45-1.21s-.47-.76-.76-.74c-.36.02-.99.1-1.01-.13l-.08-.88c-.02-.26-.53-.86-.3-.97l1.04-.51c.91-.45-.46-3.13-.7-4.18-.85-1.25-.4-2.39-.61-3.65l-.62-3.62c-.16-.95-.76-2.12-1.42-2.79l-1.91-.58-1.36.86c.84,3.25.08,2.62,1.15,5.84-.39.35-.89.64-.88.91,0,.23.07.73.1.98,0,.09-.22.27-.3.29s-.3-.02-.28-.11l.08-.44.48-2.59c.09-.49-.14-1.51-.21-2.16l-.28.99-.79-4.57c-.63-.31-.59-.14-.35.31.08,1.15.38,2.39.35,3.43-.02.75,0,1.09.07,1.77l.26,2.35c.3,2.65-1.3,2.9-.55,3.04l.72.14c-.16,1.83-.25,3.73-.73,5.28-.17.54-.25,1.06-.38,2.1.04.03-.49-.39-.68-.54s-.05-.75.08-1.07l.55-1.3.36-1.94c-1.7-.74-.62-1.68-2.15-2.03l.58-2.66c.32.24.57.51.72.42l.55-.35c.18-.11.54.23.87.41-.24-1.43-.4-2.82-.76-4.1-.21-.73-.41-1.38-.42-2.11l-.58-1.34c-.17-.67-.35-1.21-.65-1.82l-1.99-4.12c-.25-.51.04-1.72-.07-2.27-1.39-2.15-.98-4.62-3.23-5.48.1-.45.15-.87-.02-.9-.48-.07-.8-.15-.85-.47-.04-.22.3-.56.5-.75-.09-.3-.26-.92-.31-1.17.71,1.17,1.13,1.69,2.24,1.58.14.3.52.66.84.58l-.67-.95c-.26-.37-.49-.75-.84-1.33,1.88.97,2.62,2.93,3.37,4.85l1.34,3.41c.44,1.12.56,2.23.88,3.48.35,1.35,1.31,2.74,1.76,4,.03-1.3,1.49-2.74,2.69-2.95l.02-1.62c0-.21.03-.77-.14-.82l-.73-.22c-.23-.07-.65-.29-.82-.45-.19-.18.06-1.7.93-2.29.16-.48-.71-1.46-1.01-1.98-.2-1.14-.33-2.37-1.75-2.69-.49-.11-.27-.98-.48-1.26l-1-1.32c-.23-.31-.85-.89-1.18-1.03l-1.9-.3,1.31-.57c.22-.09.2-.8.08-1.01s-.66-.5-.91-.49l-1.94.12v1.21c-.01.21-.58.2-.96.34l.43,1.6-1.43-1.82-.3,2-1.19-2.3c-.13-.25-.19-1.08-.45-1.1l-1-.05-.22-.78c-.74,0-1.52-.06-2.37-.36.13-.61.42-1.16.75-1.64l-1.15-.85c.23-.61.81-1.24,1.52-1.22l.45-.75,1.93.8-.49.65c-.09.12.47.43.53.58l.74,2.03c-.14.34-.33.86-.36,1.14-.16,1.55,3.72-.22,3.88-1.77l-.89-.09c.46-.46.81-.76.97-1.03.13-.22-.73-2.41-1.04-2.15l-.5,1.57c-.31-.72-.2-.9-.06-1.67l-2.67.35-1.4-2.51.46-.55c.08-.09-.24-.37-.36-.35-.26.05-1.37.44-1.48.85.16.33.51.7.37.83l-.71.66-.86-.8.63-.71c.24-.27-1.42-1.24-1.18-1.78l1.62,1.05.03-1.33c.01-.51-1.3-1.11-1.7-.8-1.62,1.24-1.77-.03-2.46,1-.19.28-.18.77-.06,1.29l1.23-.91,1.18,1.58-2.13-.67,1.42,1.2c-3.41-.37-2.93-3.78-4.95-4.03-.25-.4-.57-1.54-1.03-1.72-.15-.06-.74-.05-.9-.05s-.09-.49-.09-.64l1.53.25c.53.09.88.28,1.36-.2-1.26-.7-2.59-1.06-4.06-.94l-.83-.75c-.41.18-1.23.37-1.56.16-.16-.11-.46-.77-.63-.66l-.51.34-.9-1,.98-.38c-.03-.22-.32-1.33-.41-1.55-.67-.02-1.01-.07-1.59-.28-.66-.24.19,2.71-.58,1.49l-.27-.43c-.1-.16-.24-.5-.14-.62l.36-.41-.64-.51c-.1-.08.06-.46.04-.59l-.12-.76c-.07-.45-1.41.33-1.98-1.36l-2.11-.43c-.19-.04.04-.88.2-.76l.79.59,1.92-.39-.49-.8,1.94.7c.04.47.1.94.25.86.11-.06.48-.31.61-.31.65.03,1.37,1.23,1.26,2.06-.05.38.79,1.03,1.14.94.31-.09.7-.46,1.01-.77l.36.33c.07.06.12.08.14,0l.14-.56c.15-.6.09-1.33-.49-1.68-.41-.25-.94-.13-1.52.07-1.47-.34.04-2.15-3.76-1.69-.31-.3-1.06-.79-1.47-.85-.11-.01-.23.54-.21.51l-1.67-.83c0,.69.01,1.06-.07,1.39-.2.77-2.27-.16-2.46-.78.54-.37.68-.44.79-.61.08-.13,0-.63-.16-.63l-.87.03c-.8.03-2.09.65-2.85.23-2.6-1.44-3.41-1.31-6.62-.94-.63.07-1.84-.81-2.39-.01l-.78,1.15-.52-1.16c-.96-.1-2.07.24-2.59.78.55.35.84.55,1.23.86l.96.76-1.62.53-.07-.58c0-.08-.36-.07-.41-.14l-.92-1.22-.38.56c-.07.1-.4-.12-.54-.14l-1.14-.17c.49,1.81,2.22,1.17,2.07,1.76-.44,1.71-.68,1.36-.5,2,.07.25.73.74.9.55l.76-.87c1.32.14,2.71.07,4.24-.03-.78.48-1.89.53-2.82.46l-.4.78c-.09.17-.62.14-.89.17-2.52.26-1.8-1.86-3.73-2.06,0-.21-.05-.83-.08-.91-.79.11-1.18-.15-1.76-.79-.46.94-1.3,1.27-2.32,1.09l-1.88,1.96c-.43-.12-1.04-.34-1.16-.1l-.49,1.02-1.3-.23c-.47,1.05-2.26,1.97-3.43,2.03-.15,1.03-1.71,1.86-1.41,2.4l.6,1.08-2.08-.18c-1.28-.11-1.82,2.65-1.85,3.97,0,.29-.34,1.06-.59.97-.2-.07-.56-.3-.9-.5l-.3.95.84.61c.16.11.49-.12.92-.31l.77,1.24-.5,1.02c-.08.16.33.58.32.52l1.24-1.06c.38-.32.01-1.53-.26-2l.42-1.69c.08-.33.8-.7,1.13-.66l1.34.17c.06-.86.54-1.38,1.08-1.8l-.92-.16c.25-.92.56-1.52,1.3-1.95l3.01-1.73c1.15.1,1.96-.22,2.61-1.1.65-.13,2.21.17,2.55.76.14.57.33,1.34.79,1.49l2.43-1.36c.12-.07.58-.18.7-.21s-.23-.34-.35-.31l-.4.11c-.16.04-.62.08-.79.09-.16.01-.1-.56-.09-.82.74.03,1.43-.02,2.38-.11-.02.15-.29.77-.13.91l.75.63c.31.26,1.02.68,1.37.6.31-.07.72-.59.92-.93l1.06-1.81c1.06-.33,2.51-.53,3.45-.28.36.48.7,1,1,1.23s1.41.14,1.52-.17l.31-2.03-1.56-.05-.02-.73c-.85-2.35,1.22-.67,1.74-2.66.21.13.57.45.71.37l.65-.39,2.05,1.75-.49.69c1.26.39,1.62,1.28,1.35,2.52,1.75-1,3.23-1.17,4.64-.15l.77-.88.37.56c.28-.23.56-.48.64-.33l.27.56c.23.47-1.49.18-1.03.6l.37.35c.56.91,1.4,1.5,2.38,1.88l.51.95-1.2,1.23.73,1.46c1.54.36,2.73,1.21,3.98,2.33.63.23,1.72-.35,2.37-.74l-.4.98c-.08.19.31.63.36.74-.24.17-.79.5-.69.69.64,1.18,1.53-.05,3.37,1.84l-.49-1.72,1.31,1.37-.1.84c.31-.06.8-.29.94-.14l.66.7c.48.51.62,1.22.42,1.9,2.26,2.07,1.33,2.63,3.91,4.55l.86,1.78,1.79,3.51c1.54,3.02.32,1.87.61,4.22.47.02,1.14-.07,1.27.14l.44.73c.08.14.3.35.23.43l-.32.4,1.71,1.87.42,2.84c-.26.04-.67.1-.71-.06l-.21-.84c-.11,1.96-.08,4.05.39,6.04l.51,2.18c.11.45.45.89-.12,1.3-.77-1.65-.69-3.39-.97-5.1l-.6-3.73-.34.35s-1.87-1.11-1.46-1.58l.64.63c.1.1.39-.02.53-.12.12-.08.06-.39.04-.59l-.05-.45c0-.1-.52.08-.57,0l-.88-1.78-.46,2.43c-.14-.64-.24-1.39-.29-1.95l-1.02-.92c.27,1.5.97,4.18,1.75,5.97l.37-.77c.22.43.13,1.02-.02,1.49.08,1.9,1.14,3.61.91,5.51l-1.33-5.28c-.37-1.48-.92-2.8-1.56-4.06-.2.67-.21.74-.49.21l-.18,1.68-.39-.59c-.06-.1-.31.11-.33.17-.04.43-.13.97-.23,1.47-.28,1.39.84,2.76,1.78,3.49,1.92-1.78-.61.99.87,2.61-.23.48-.27.87-.12,1.33l.71,2.15c.9.33,1.49.75,2.02,1.32l.23-.72c.09.34.09.87.27.92l.86.24c.22.52.18.66-.25.23-.83.03-1.6-.31-1.97-.85-.15-.21-.97-.4-.96-.16.11,1.55.78,1.6.4,2.01-.15.16-.63.48-.78.68-.42.6.55,1.59.98,2.08.12.36.13,1.29.4,1.52.38.32,1.39,1.22,1.04,1.55l-.7.67c-.12.11.05.46.13.85l-1.43.45c-.01,1.06-.24,2.29-.8,3.23-.15.25-.92.22-1.09.1l.06.81c-1.01-.9-1.57-.97-2.46-.24-.47.39-1.24.39-1.81.57l-1.59.52c-1.68,1.77-3.06-.32-3.3.44l-.26.8c-.08.24-.29.87-.53.91l-.93.14c.49.64.3,1.04.29,1.78l-.04,2.55c.75.99,1.23,2.24,2.25,3.76-.24-.36,2.7,2.64,2.26,2.28,1.43,1.17,3.24,2.05,3.73,3.81l-.44.41c-.08.08.41.49.53.49l2.47-.02c.41.92.85,1.25,1.74,1.32,2.11.17,2.45.44,3.36-.47.06-.06,1.56,1.91,2.43.62.52-.77,1.13-1.57,1.76-2.25l1.52.05c.96.03,2.61.85,3.47,1.3.17.09.27.75.45.75s.71-.14.89-.09l2.66.66c.74.18,1.51.54,1.88.85-.57.4-.69.46-.81.62-.09.12,0,.63.16.62l.86-.03c.35-.01,1.28,0,1.39.33l.42,1.23,3.39.54,1.33,1.82c3.48,1.3.81,1.74,3.61,2.97.27.12.47.31.61.22.1-.07.34-.43.24-.5l-.48-.36c-.43-.32-.86-.68-.62-1,.85.59,1.71,1.34,2.26.71-.39-.39-.8-.8-.94-1.09s.21-.93.46-1.33c-.1-.25-.78-.8-1.09-.69ZM216.41,28.63c.25-.02.18-1.11-.11-1.2-.24-.08-.56-.12-.96-.16l-.75.05c-.16,0-.17.67-.19.97l2.01.34ZM216.29,31.15l1.58-1.27c-2.32-.88-4.11-.29-5.09-.94l-.02.87,2.39.33c-.02.12-.31.75-.14.87l.76.57.48.36c.27.2-.07-.71.04-.79ZM155.57,72.79c.03-.86.24-2.14,1.03-2.41l1.69-.57-1.1-2.62-.87,1.9-2.82.38.39,1.29c-.3.61-.34,1.77.36,2.14.38.2.79.42.98.61.71.68-1.01,1.18-.75,1.69l.42.86c.05.14-.47.22-.59.1l-.43-.42-.43-.42c-.06-.06-.1.26-.08.34l.08.42c-.1.03-.38-.18-.4-.32-.01-.09-.01-.48-.1-.5l-1.14-.36c-.65-.21.28-1.64-.8-2.43l-.25,1.36c.22.54.36,1.01.34,1.59-1.17-1.09-.25-2.04-.97-4.56-.1-.36-.12-1.18.11-1.41.54-.38,1.14-.87,1.49-1.26-.51-.26-.93-.4-.84-.56l.38-.71c.04-.08.11-.4.13-.51.02-.08-.19-.09-.24-.02l-.35.56s-.39-.33-.55-.47c-.42-.35,1.11-1.49.57-1.78l-.82-.1c-.2-.03.02-.3.33-.41v-2.29s-1.11,2.73-1.11,2.73c1.17-4.32-1.62-5.32.59-6.19l.21-1.7c.36-.86.48-1.59.65-2.47l.6-3.03c.45.23,1.08.1,1.29-.21-.24-.39-.49-.69-.5-.92,0-.18.23-.54.37-.74l1.05-1.58c.13-.2.62-.44.71-.64.08-.16-.14-.63-.12-.82l.35-2.94-1.32-.82,1.05-.79-.51-1.53-1.49-3.05-1.43-.43c-.13-.04.03-.71.06-.59.03.09.38-.29.35-.38-.13-.43-1.14-.76-1.6-.72l-.06-.84c-.01-.16-.59-.31-.76-.31l-2.37-.04c-.39,0-1.12-.69-1.43-.93l-1.19,1-1.34-1.66-.96.08c-.31-1.17-1.2-2.06-2.36-1.96l-.64-1v39.42c0,.27.57.14.51.26s-.49.62-.49.76l-.02,6.23c0,.43,1.42,2.01,1.75,1.74l.59-.49.99,1.79-.33-4.62c-.08-1.08-.13-2.19.76-2.99-.25,2.21-.15,4.1-.08,6.24.08,2.41.77,1.53.88,3.53,0,.16-.63.17-.66.01l-.45-1.85c-.21.4-.41.82-.52,1.09-.08.19.54.52.58.72-.13.95-1.99.58-1.49,3.45s.95,1.24,1.46,3.47l-.85-.86c-.14-.14-.69.07-.86.07l-.64-1.57c-.23-.57-.51-1.13-.96-1.58-.59,2.11.17,3.67.87,5.36l-.49.65-.18-.69c-.02-.08-.38.38-.38.48v8.34c4.43.7,3.28,1.88,6.09,3.02l-.02.62c.7-.64,3.16-.14,3.75.16,2.64-.89,3.53-1.98,6.12-2.54.08-.72.45-1.02,1.01-1.29.59-.29.79-1.46,1.64-1.01l.21-1.56c.31-.22.67-.39.63-.58l-.15-.66-1.12.53c.32-1.73,3.2-.65,3.23-1.68l.03-1.12c.02-.66.43-1.48.63-2.13l.87-.15c-.29-.4-.35-.69-.18-.96.22-.34.51-.7.86-.31,1.06-1.84,2.07-2.62,2.16-5.36-.35-.76-.8-1.73-1.23-2.42-.21-.29-.58-.74-.66-1.08l-.52-2.06-.24.73-1.91-.92c-.04-.74-.17-1.04-.6-1.44-.68-.62-1.75.62-2.08,0-.08-.15-.22-.56-.26-.74l-.35-1.93c-.39.05-.82.16-.81,0l.02-.69ZM223.8,37l-1.37-2.31c.54.06,1.18.18,1.19-.08l.07-1.27-2.26-.87c0,.15.1.62.19.88l.18.53c.03.1-.25.07-.35.02-.06-.03-.2-.28-.24-.22-.08.13-.32.51-.25.42.37-.54,1.01,2.86,2.84,2.9ZM164.54,42.88l1.54-2.42c-.27-.02-.7.06-.69-.08l.08-.6c.03-.25-.3-.68-.54-.76-.22-.08-.96.1-.88.29l.63,1.38c-.49.78-1.25,1.51-1.97,1.95l.32.62c.04.08.27-.11.3-.19l.17-.5c.05.15.87.58,1.04.31ZM157.32,61.41c.13-.62.1-.95.26-.94.17.01.56.28.64.45l1.04,2.09-.37-2.75c-.39-2.87-1.31-2.13-.37-2.82.2-.15.46-.06.9.14.58-.28.87-1.32.94-2.07.24.04.81.31.81.11l-.03-1.01c.06-.43.26-.8.14-1.05-.15-.32-.53-.58-1.04-.95-.03.02.43-.31.65-.46.14-.1.46.24.73.42.36-.21.63-1.09.39-1.56-.18-.34-.82-.66-1.25-.9l.62-.54c.12-.11-.06-.58.01-.75l1.14-2.66c.64.45,2.2.87,2.86.01l.29-2.51.3-2.05-.81.99c-.83,2.34-2.29,2.05-4.57,2.8-.19.06-.64.62-.49.75l.61.52-1.85,1.17c.71.12.96.02,1.41-.15.09.25-.28.82-.63,1.22-.31.36.22,1.42.36,1.88-.37.27-1.13.82-1.02,1.17.16.49.33.94.62,1.69l-1.41.56c.64,1.27.52,2.54-.46,3.23-.24-.22-.5-.55-.59-.44l-.41.48c-.07.08.29.39.29.5l.02,1.73c0,.68-.42,1.52.27,1.69ZM197.51,72.99l1.69.67-.85-1.91c-.24-.54-.31-1.52-.35-2.28l-2.3-.75c-.17-.05-.71-.11-.69.04l.06.51c2.65.04-.05,1.43,2.33,2.65l-.36.57c-.06.09.36.44.47.49ZM201.17,75.92c.6.84,1.42,1.83,2.49,2.22-.22-1.95-1.43-3.32-2.91-4.26l-1.05.92-.62-.06c-.89-.08,1.17,1.28,1.14,1.29l.95-.11ZM225.88,85.43l.1-5.98c0-.46.08-1,.05-1.46-.72,1.56-.29,4.08-.53,6.06-.07.6-.1,1.16.37,1.39ZM224.39,84.13l-.26-3.26c-.16,2.03-.22,4,.07,6.19.2-.95.27-1.94.19-2.93ZM206.25,81.97c-.53-.55-1.98-.85-2.55-.46-.06.04-.31.47-.3.48,0,0,.28.18.33.22l2.52-.23ZM211.41,85.93l1.37-1.71c-.09-.3-1.06-1.03-1.39-.8l-1.33.92,1.35,1.59ZM213.13,90.55c0,.13.31.47.44.45s.35-.18.32-.31c-.02-.09-.07-.37-.09-.48.19-.62.29-1.36.08-1.88-.39.23-.74.49-.74.71v1.5ZM212.35,92.23c-.58-.21-.69-.18-.74-.3l-.34-.73c-.38.62-.69,1.44,0,2.04l1.09-1.01ZM210.31,108.94c.86-.86-.91-.6.87-3.26.53-.79-.28-1.89-.15-2.64.16-.95.71-1.95.74-2.96.01-.44-.8-1.04-1.12-1.15l-.82,2.82.74.33c-.88-.39.45,3.41-2.53,4.88,1.05,1.28,1.01-.43,2.28,1.98ZM257.21,111.9l-.8-1.01c-.8.21-1.23-.09-2.04-.47.49.67,1.1,1.68,1.7,2.11l2.29,1.06c.18.08.64-.02.65-.19.02-.56-1.02-1.31-1.8-1.5ZM313.05,239.09c.17-1.93-1.23-2.67-2.44-3.57-2.94-2.19-3.88-2.47-6.99-2.3l-1.87.11c-.44.02-1.49.51-1.83.19-1.81-1.69-.76-2.63-2.92-3.87-.24-.14-.61-.72-.48-.94s.41-.69.4-.67l.77.87c.19-.98.27-1.96.72-2.52.19-.24,1.09-.27,1.18-.55.38-1.13.36-2.24-.98-2.8-.59-.25-2.65-1.15-2.86-1.56-.24-.47-.25-1.31-.13-1.71l.53-1.83c1.2-.25,2.45-.87,3.31.48-.3-3.04,1.65-1.86,2.44-4.36l.99.13c.08-.94-.6-1.49-1.54-1.81l.62-1.72,1.65.72-.53-1.34c-.18-.46,2.31-1.66,2.26-3.61,0-.34-.48-.81-.72-1.12-.07-.13.16-.63.03-.71l-.57-.37,1.17-1.04c.14-.13.43-.75.26-.83l-.84-.37c.5-.4,1.81-.55,2.54-.49.25.02.5-.58.66-.78,1.31-1.56.58-1.34.52-4.21-.03-1.25,1.76-1.01,1.87-1.6l.18-.96.81-1.39c.69-1.19.54-3.22.09-4.69l1.61-.7c.19-.2-.57-2.35-.67-2.38l-.77-.19.5-1.25c-.57.55-1.25.9-1.85.85-.07-1.21.99-1.9,1.81-1.74.18.24.43.81.67.79.21-.02.75-.06.74-.06-.64-2.75,1.79-1.05-.25-3.38-.12-.14.52-.46.63-.61.49-.71-.21-1.78-.57-2.49-.26-.52-.58-.97-1.08-.93-2.01.15-.12,2.17-.39,3.98-.43.68-.94,1.14-.78,1.98l-1.46,1.28c-.85-.58-1.2-1.22-1.35-2.13l-.29-1.8c-.52.34-1.05.67-1.28.5-.27-.2.26-.8.61-.97-.35-.36-1.36-1.21-1.35-1.77l.03-1.97c.44.28,1.28.41,1.76.17-.32-.45-.6-1.16-.2-1.75.68.68.89,1.26,1.2,2.17l.64-.79.65.46c.11.08.1-.53.12-.39.9-.25,1.38-.39,2.1-.67l-1.88-.9-.15.5c-.2.67-1.54-1.06-2.51-1.17-.2.35-.37.84-.59.83l-1.02-.05c-.49-.03-1.13,0-1.43-.18-.26-.17-.4-.93-.57-1.24l-.99-1.81c-.05-.09.08-.48.12-.59.04-.1.17.06.33.19l.26.22c.2-.3.37-.65.52-.65h.83c.15-.36-1.74-3.78-2.59-3.42-.04.65-.13,1.63.06,2.28l.42,1.47-2.13-1.25-.86-1.29.68-1.85c.39.74.77-.33.61-.52-1.12-1.28-1.16-.02-1.96-3.13l-1.87-1c-.18-.36-.33-.77-.53-.9-.16-.1-.61-.07-1.01-.06l.64,1.66,1.28-.19-.96.91.84,1.09c.76.21,1.57.42,1.79,1.15-.98-.32-2.03-.77-2.62-1.14-.3-.79-1.3-1.24-1.58-1.75l-1.21-2.22c-.41-.75-.84-1.15-1.68-1.54l-1.16-2.23c-.06.76-.7,1.2-1.69,1.58-.45-1.6,1.13-1.33.89-2.28-1.77-.06-2.01-3.2-2.32-2.85l.47-.53c.05-.05.19-.33.22-.4.03-.06-.15-.07-.22-.07l-.31.02-.81-1.85c-.23-.52-.63-1.55-1.13-1.45-.19.04-.75.53-.79.35-.03-.14-.12-.55-.14-.7l-.8-1.21.75-.09c.11-.01.03-.56,0-.56-.44.14-1.15-.11-1.44-.54,1-1.17.4-2.26-.21-3.31-.47-.8-.89-1.55-1.81-1.71l-.42-1.16-1.02.89.11-1.91c.03-.61.4-1.23.98-1.61l-.91-1.3-1.34-1.92-.54,1.55c-.2.33-1.58-.12-1.48-.46.35-.69.8-1.3.63-1.73-.25-.63-.73-1.12-1.28-1.28-1.15-.33-1.32-1.34-.99-2.22l-.73-.55c-.14-.1.29-.55.36-.7l.4-.93c.07-.17-.35-.56-.41-.59-.33.35-.95.84-1.06.58-.21-.48-.44-1.2-.72-1.4s-.8-.27-1.32-.36l-.9-1.4.86-.12c1.1-.15-2.26-1.13-2.61-1.51s-2.24-3-2.22-2.11c0-.11,0-.35.07-.42l.3-.32-2.79-3.35-2.21-1.02-.36-.61c-.04-.07-.26.12-.29.21l-.15.55-.57-.56c-.08-.08-.32-.4-.22-.42l.29-.06.43-.09c-.54-1.09-.37.14-2.47-1.33-.34.54,1.5,2.95,1.91,3.39l1.03,1.12.15-1.06c.39.68.4,1.2.31,1.89,1.32.44,2.61,1.13,3.24,2.43l-2.46-1.33c-.31-.07-.92-.29-1.16-.55-.1-.12-.52.31-.42.41s.26.14.49.23c.13.23.34.69.54.67l.7-.05c.28.54.71.93,1.26.98,2.3,1.73.58,1.31,2.76,2.26l.69,1.35c.39.75.66,1.47,1.48,1.75s.44,1.68,1.7,2.45c1.15,6.59,3.04,1.69,2.7,6.4l1.48,1.7c.24.27,1.09.49,1.12.85.04.48-.34,1.04-.77,1.2-.53.2-.92.36-1.2.03-.38-.45-.36-.67-.07-1.27-.21-.35-1.04-.51-1.67-.48.15-.31.65-.76.51-.92l-.57-.65c-.11-.12-.64.32-.56.45l.4.62c.06.1-.4.42-.26.29l-1.05-1.32.21-.99.63.36c-.33.58-.06.17.24-.3l-1.21-.97c-.79-.63-1.09-1.37-1.53-2.06l-1.27-2.01c-.5-.22-1.43.54-1.8,1.09l-.29-.44c-.05-.07-.31.14-.35.21l.99,1.85c.23.44,1.28,2.56,1.97,2.3.24-.09.84-.44.95-.25l.43.71c.2.33.47.8.53,1.08s-.31.81-.52,1.11l1.79,1.85c.17.17.59-.21.9-.63.14-.02.77.31,1,.53.28.27-.17.96-.1,1.28l.21,1.01c.11.51,1.94.28,2.74,1.04l-1.03.25c.73,1.44.33,2.69-.59,3.93l1.47.52.06,1.44c.04.86-.33,1.95-.42,2.9-.15,1.49,2.22,2.42,2.94,3.66l-1.08.54c-.2.1.24.91.46.97l2.38.63c1.2.32,2.27,1.69,1.49,2.86-.16.24-.63.6-.72.86-.07.21.17.72.32.91l1.07,1.35,1.36,1.72c.11-.63,3-.03,2.99.04l-.05.51-1.21-.14c-.29-.03-.67.63-.68.96,0,.24.63.61.84.52s.58-.38.73-.58l.7-.96c.45.36.96.84,1.2,1.32l1.19,2.39c.38.76.34,1.79,1.44,1.99l-.61.94c-.32.49,2.41,1.64,3.07,3.48.07.19-.16.93-.33.93l-.81-.02c.03.43,1.3,2.22.52,2.54l-.84.34,1.35,1.94c.38.54.31,2.1-.03,2.66-.23.38-.52.89-.39,1.18.21.44.82.61,1.19.45l.9-.39c-.41.85-.78,1.29-.53,1.88.23.55.55.79,1.25,1.16l-.81,1.18c-.18.26-.76.61-1.05.59s-.69-.26-1.09-.51l-1.17,2.22,1.76,2.9c-1.15,2.19-.63,3.17-1.69,4.25-.5.52-1.15,1.19-1.72,1.31l-1.55.34,1.16,2.07c-2.36.05-.88,1.45-2.41,1.65-.14.92-.5,2.06-1.31,2.78l.24,1.67-1.84,1.43c-1.09.84-.85,2.01-.26,3.03-1.67,2.12.14.36-1.77,4.06-.39.75-1.26,2.87-1.43,3.5l-.82,3.12c-.13.48-.07,1.5-.23,1.95-.38.99-.86,1.96-.85,2.97l.02,2.74c.38.37,1.41.35,1.92-.13l1.4.85c.85.52-.05,1.71-.14,2.31-.24,1.47.29,2.95-.93,4.1l-.49-1.47c-.33,2.57.55,4.05-1.18,6.39-.71.97-1.92,1.89-2.45,3.01l-1.27,2.69c-.8,1.69.79,5.02,2.01,6.11.73.65,1.24,1.51,1.88,2.2,1.64,1.77,4.12,2.42,6.24,3.35,1.57.68,3.04,1.08,4.76,1.03l2.62-.08c.51-.02,1.07-.17,1.57-.25l3.67-.6-1.08-.4c.42-.16.92-.77,1.17-1.22.78.13,1.81.25,2.46-.3s1.12-1.15,1.18-2.16l1.46-.42c-.15-.3-.31-.62-.26-.51.59-.11,1.21-.16,1.31-.42l.41-1.1.35.88c.07.17.51-.07.69-.23.02-.06-.52-.36-.42-.48l.41-.47c.16-.18.65-.58.83-.44l.66.51.58-1.54c.3-.08.78-.21.99-.41,1.04-1.01-.94-1.94-.21-2.55.49-.41,1.1-.81,1.53-.99.66-.26,1-1.31.57-1.94l.76-1.3c-.02-1.25.1-2.37.59-3.51l-.75-2.12c.46.35.6.45.35.12ZM263.36,123.3l-.1-1.71-1.35-.43c.26-.52.45-.9.42-.85-.68.06-1.27.12-1.43-.15-.13-.23-.12-.74-.13-1.16,0-.36-.78-.63-1.29-.79l.9-.73c-.69-.26-1.17-.31-1.56-.01-.45.34-.81.97-.67,1.34.23.61.33,1.06.43,1.67l2.49,2.12-.06.84c2.25,1.46,1.77,3.27,3.95,3.47l.34-3.03-1.94-.56ZM147.18,125.38l.88-1.06c-.16-.7-1.48-1.19-2.04-.86-.21.12-.5.68-.7.59l-.85-.42c-.04.25.31,1.43.73,1.52l1.97.24ZM218.87,156.31c.59,0,1.03-.17,1.69-.65l1.34.96c.1-.1.32-.42.38-.34s.25.29.34.34l1.38.71,2.31,1.13,3.27-2.01c-.69,1.35-1.87,1.62-3.01,2.5,2.17,2.31,4.06,4.63,3.65,8.12-1.01-.32-.39-1.05-.47-1.55-.56-3.23-3.63-7.47-6.77-7.82.44,1.05,1.41,1.4,1.77,2.01l2.64,4.4c.59.98,1.3,1.76,1.71,2.9s1.41,2.09,2.1,3.09l-.16,1.98c-1.35,1.79-5.06.8-6.74.14l-1.21-.47c.58.83.69,1.21.54,2.24-.19,1.31,3.39,1.27,2.37,2.91-.15.24-.36,1.01-.15,1.21s.5.42.82.65l-.36.72-.46-.7c.08.12-1.38.69-1.16,1.5.14.49,1.58,1.62,1.59,1.59l.5-.68c2.12,1.43-.84,2.54.94,4.19l1.86,1.73c.21.2.63.55.85.65.19.08.52-.22.81-.39l2.46,1.26c.42-.08,1.68-.65,2.19-.16.7.66,1.41,1.73,2.18,2.06l1.52-.47c-.03-.66-.05-1.58.39-1.91.41-.31,1.1-.2,1.68-.14l2.6-.88c2.19,2.35,2.15.58,2.76,1.6-.62.12-1.2.14-1.5.78,2.3-.48,4.17-1.71,6.19-2.97,1.65-1.02,3.38-2.31,4.24-4.09.54-1.11.61-2.16,1.82-2.95l.16,1.16c.31.03,1.95-2.15,2.27-2.96l1.69-.76-.91-.44c-.15-.07.25-.73.42-.75.46-.04,1.37.03,1.93.08.63-1.54,2.41-1.14,2.16-1.55l-.46-.74c3.54-.72,1.37-.91,3.78-2.11l-.67-.67,2.08-2.43c-.26-.55-.36-1.07-.32-1.57l-3.06-2.04c-.8.3-1.41.45-2.51.61l.35-.31,2.57-.69,3.32,2.3c.2.14.89,0,.9-.19l.03-.49-.91-.11c-.16-.02.14-.71.08-.87-.27-.76-1.5-1.89-2.22-2.33-.17-.26-.47-1.22-.8-1.11l-1.8.58c-1.09,1.53-2.8,2.27-4.4,3.04l-1.04.5c-.22.1-.45-.31-.71-.51-.47-.04-1.25-.12-1.34-.46-.1-.35-.23-.88-.32-1.27.72.53,1.31,1.35,2.11,1.32.49-.02,1.34-.05,1.7-.17,2.18-.71,3.79-2.45,4.62-4.45-.2,0-.69.09-.66-.05l.14-.66c-1.06.01-1.41.84-1.86,1.86l.26-1.59h-.33c-.16.28-.41.75-.54.64-1.5-1.27.13-1.26-2.25-1.62.15,1.23.21,2.49.1,3.78-.18-1.47-.35-2.65-.71-3.91l-1.61,1.78c-.43.47-.64,1.09-.95,1.86-.28-.35.08-2.13-.33-3.87-.61.56-.69,1.37-.43,2.18l-2.01-1.14c-.12.68-.28,1.36-.26,1.83l.1,2.24-.6-1.54c-.19.03-.8.43-1.11.67l-1.82-.64c-.88-.31-1.64-.68-2.46-1.09l1.02,2.12c-2.27-1.21-.29-2.28-3.64-3.95l-.66.8-1.03-1.46c1.29-.15-.99-1.36-.32-2.35.91-1.35,1.67-.33,2.88-1.47l-2.17-.34c-.12-.35-.35-.91-.6-1-.28-.1-.81.03-.97.19l.91.34c.18.07.23.48.29.85l-1.51-.85c-1.02-.25-2.22-.7-2.54-1.7.13-.2.47-.55.38-.68l-.33-.52c-.26-.42-.73-1.02-1.04-1.34l-1.53,1.23,1.32,1.63c2.67,3.29,1.33,4.73.27,8.17-.25-1.1,1.02-3.7.84-5.07-.59-1.54-1.37-2.68-2.5-3.6-.16,1.14-.21,1.86-.61,2.98l-.32-1.21c.39-.63.67-1.44.61-2.17l-3.71-2.6c1.11,3.63.38,3.25.77,6.64l-1.27-1.35-.7-1.18c-1.01-.59-1.9-1.32-2.68-2.15-3.35.02-1.56-1.18-5.13-1.8-.9-.16-1.38-.8-2.03-1.32l-1.55-1.26c-.98.09-2.25.2-3.16.1l3.77-.92c-.22-.44-.56-1.09-.32-1.2l.95-.43.98-2.48c1.06.48,1.6.68,2.49.98s1.11,1.72,1.06,2.69l1.4.47.09-1.19.57,1.26c.13-1.01.06-1.88-.1-2.94.16.13.63.54.83.44l.92-.49c.82-.44,1.26,1.92,1.53,1.91l1.13,1.02c.28.25,1.19.7.99,1.02l-.75,1.19c1.45,1.16,2.55.94,3.93.37.14-.06-.28-.48-.3-.6l-.03-2.22.91,3.03c.04.13.47-.09.42-.21l-.28-.63.9.1.08,1.27,1.08-.19c.25-.05-.05,1.57.32,1.58h.78c.26.02.84-.07.93-.3s.13-.77.17-1.06l.22-1.26c-.97-.51-1.23-1.13-.89-2.22-.59-.44-1.48-.9-2.2-1.25l-1.45-.68c-.39-.64-.86-1.21-1.84-1.36l-1.29-1.8-1.58,1.8c-.09.11-.31.46-.39.58-.05.08-.35-.23-.31-.3.33-.41.86-1.41.63-1.85l-.33.73-.2-1c-.07-.35-5.19-1.08-5.24-1.17l-.28-.51-.43.69c-.08.12-.4-.46-.5-.37-.29.28-1.44.64-1.53.26-.07-.31.03-1.06-.19-1.04l-.86.08c-.49.04-1.09-.06-1.56-.16-2.52,1.65-1.61-.13-3.08,1.09-.23.19-.53.49-.68.42l-.61-.3-2.52.32c-1,.13-1.74.41-2.81.51-1.25.12-2.75.44-3.91.63-.36-.31-1.07-.87-1.42-.72l-1.28.55-2.44,1.01c.37.45.61.85.63,1.2l.03.71c-.01-.24-1.14,1.29-2.92.75-.11-.03-.46.43-.55.35s-.35-.24-.32-.36l.11-.48c.4-1.72,2.12-.54,2.3-2.06l-1.17.53c-.86-1.4-2.23-.92-3.43-.62-.91.22-1.54.33-2.3.98l-2.02.84c-2.18-.29-3.88.99-4.84,2.8-.74.17-1.47.64-1.69,1.47l-1.01,1.18c-.73-.32-1.25-.07-1.57.53-.08.14-.23.54-.32.47s-.4-.31-.5-.37c-.3-.16-1.14.16-1.19.51l-.22,1.57-.43-.87c-.1-.2-.77-.04-.92.13l-1.36,1.71c-1.06-.1-1.5.5-1.63,1.28l-.98.85c-.22-.69-.53-.98-1.21-1.04-.22-.02-.58-.2-.8-.34l-.31,1.57-1.57-1.7c-.35-.38-.66-.9-1.09-1.3-1.85-1.73-2.68-1.54-2.26-2.7.09-.25.84-.01,1.09-.14,1.17-1.31-.8-2.86-.61-3.29l.39-.89c-1.14-1.44-1.44-2.71-2.69-4.08l-1.91-.71.75-.61-.67-.85c-.61-.77-1.63.19-2.2.8-.34.03-.6-.8-.44-1.12.11-.22.33-.53.57-.85.32-.45.12-1.76-.38-2l-2.43-1.18c-.17-.08-.56-.46-.53-.62l.16-.78c-1.13.27-1.5-.42-1.75-1.31-.4-1.42,2.3-1.75,1.14-2.22l-.5-.2-1.23-1.37c-.37.48-.64.89-.93.98-.18.06-.45-.6-.34-.75l.38-.56c.16-.23-.03-.9-.27-1.05s-.96-.18-1.24-.29c-1.06-.42-2.24-.69-3.1.16-.15.15-.34.56-.39.74s.4.61.57.55c2.62-.79,2.25,1.31,4.17,2.91l1.04-.68.23,1.13c.59-.17.16.31.02.37l-.69.3c.13.62.54,1.62.86,2.19-.9.4-1.44.37-2.02-.27-.47-.53-1.02.4-1.41.62-1.35.76-2.25,2.25-1.67,3.68.07.18.69.55.74.36l.23-.84c.3-.05,1.08-.22,1.45-.21l2.56.08-.77-1c0-.08.45-.24.55-.14l.35.38.7-.68c.85.68,1.09,1.91,1.13,2.97,1.77.84,3.26,2.33,3.8,4.14l1.4.81-1.2.37c-.03.33.11,1.32.3,1.69,1.03.04,1.51.85,1.4,1.75-.02.16-.2.79-.33.7l-.76-.55-.28,1.56-1.19.94-.5-.56c-.1-.12.35-.58.33-.74-.05-.48-.99-1.02-1.53-1.01-.49.01-1.3.38-1.61.69l-.49.47c-.3.29-1.08-1.16-1.95-1.19-.45,1.17-2.86.93-3.69.73.22-.33.57-.67.5-.88-.07-.2-.9-1.85-1.9-1.46-.57.22-.85.76-.59,1.27l.31.6c.06.11-.25.43-.36.37l-.51-.29c-.09-.05-.48-.09-.61-.1-.11,0-.04.24.05.3.07.04.34.17.41.22l1.91,1.28c.12.08.07.86-.06.81l-.53-.21-.6-.24c.02.3.54,1.06.93,1.27.45.25,1.45-.13,1.88-.25l1.38.78c1.99,3.15,4.13,0,6.56,1.94-.78.6-1.31,1.6-.64,2.21l1.29,1.19-1.77-.19c.31.95,1.11,1.38,2.19,1.82-.52.05-1.49.04-1.95-.08-.54-.79-1.02-1.35-1.88-1.62-.7-.22-1.36-.16-1.72.57-.21.42-.48.74-.85.76-1.65.09.65-2.6-1.82-3.95l.89-.66c-.9-1.39-3.54-1.39-4.22-.82-.59.5.34.9-.18,1.67-.07.1-.4.08-.45-.03s-.15-.55-.27-.52c-.33.08-1.37.24-1.37-.1v-1.13c-.02-.56-1.93-.29-2.46-1.82l-1.97-.15c-.03.78.18,1.79.72,2.1.27.04.95-.02,1.05.2.22.5.74,1.36,1.04,1.69l-1.31.65c-.22.11-.79.36-.75.59l.18,1.26c-.27.4-2.21-1.31-2.07-.63l.14.68-3.37-.7c-.22-.05-.76.18-.86,0l-.5-.92,1.17-.42c-.36-.63-.65-1.36-.94-1.7-.58-.68-1.99-.83-2.6-.3l-.04,4.96c0,.32.24,1.02.53,1.1,1.53.41.84-.37,3.87.47.51.14,1.51.05,2.06.17.94.2,1.5.37,2.35-.05.63-.3.97-1.14,1.38-1.96.48-.97.14,1.91,4.36.17l.16,2.58c.01.21.37.75.57.78s.7-.17.88-.07c.2.11.53.75.73.65l.73-.36c1.44-.71,2.92.8,4.27.6,1.43-.21,2.94-.47,4.41.32,1.88.15,4.11-.84,4.85-.17.14,1.27.74,2.17,1.75,2.61-.9,1.5-.75,3.33.3,4.61l-.96,1.96c-.23-.45-1.07-1.18-1.38-.91l-1.65,1.45c.01.49.03,1.43-.37,1.61-.56.26-1.5.7-1.82,1.05l-.86,1.72.25,1.77-2.3.08v1.36c.01.42.1.83.26,1.16l-.84.03c.23.7.31,1-.19,1.42-.3.26-.63.19-.98-.16l.1,1.97c-.72,0-.76.1-.51.32,1.14,1.45-1.28-.08-1.83,1.59l.62.21c.07.02.04.11-.02.15l-.48.3c-.06.04-.01.07.06.15l.38.41c-.49.17-1.45.47-1.88.7-.65.34-1.24,4.21-1.14,4.89-.55.16-1.65.52-1.97.85.17,1.53.35-.26-1.44,2.18l-1.51,2.06,1.39.6c.07.03-.16.7-.33.63l-.8-.34c-.49-.21-1.77-.03-2.1.38-.39.48-.75,1-1.28,1.28l.67-1.88-2.01,2.6,3.32.21c-2.48,1.51-3.16-.48-5.3,1.89l-3.05,3.38,1.55.86c-1.66.19-1.28-.74-3.21-.44-.25.85-.67,1.27-1.33,1.56l.77.28-1.04,1.28.02,4.52c0,.37.64.98.91,1.13l-.93.16.02,13.08c.64-.23,1.24-.52,1.41-.86l-.93-3.25c-.05-.19-.07-.78.11-.86l.65-.29c.11-.48.17-.92.44-1.12s1.07-.37,1.33-.24c.94.45,2.51.69,3.19-.29.6-.87.06-1.83-.28-2.96.2-.3,3.64-.13,3.15-.8l-.45-.61c-.1-.13-.26-.57-.29-.75s.45-.4.6-.31l.66.36,3-.13,2.69-.12c.22-1.21,1.47-1.03,2.13-1.54.96-.74,1.91-1.41,3.11-1.92,1.74-1.37,2.16-3.05,3.62-3.57.32-.11.71-.95.44-1.14s-.79-.56-.69-.77c.42-.89,1.37-.93,1.14-1.17l-.34-.35c.58-.02,1.68-.19,1.66-.63-.01-.37-.36-1.07-.14-1.13l1.18-.33-.89-1.44c-.1-.16-.68-.6-.56-.55l1.18-.64c.26-.14.09-1.1.27-1.36.65-.92,2.97-.1,4.76-1.05l.36-.8c.08-.17.7.07.88,0,.55-.25.68-1.58.14-2.1.46-.1,1.04-.19,1.27-.35.19-.14.22-.72.28-.94l1.09,1.62,2.14-.82c.74-.28,1.82,0,2.55.1l2.66.4c.22.03.79.31.75.52l-.18.8,1.28-.11c1.74.8,3.68.63,5.47.56.22.05.68.35.84.21l.64-.53c.07-.06.39-.12.36-.03l-.16.54c.73-.2,1.35.61,1.84.97,1.39.2,2.75-.95,3.97-1.42l1.57-.61,1.82-.46-.35-.5,3.61-.91.95-1.65c.54-.94,2.38-6.44,2.73-6.93.48-.65,1.21-1.08,1.44-2.03.12-.49,1.08-.86,1.6-1.08-.23-.34-.64-.73-.54-.93l.35-.72c.09-.18-.25-.71-.33-.75l-.63.51s-1.42-.67-1.01-1.34c.13-.21.57-.31.95-.34l1.31-1.83c-.4-1.1-1-1.95-1.68-2.66-.37.29-.62.42-.63.61-.01.14.08.59.06.72l-.23,1.59-1.07.6.52-1.27-.99.08c-.18.22-.37.59-.52.53l-.64-.27c-.24-.1-.8-.24-.99-.09-.15.12-.21.58-.23.84l-.06.73c-.01.13-.38.18-.41.13.24-1.07-.02-2.36-1.04-2.39-1.31,1.85-1.82.52-4.07.99l-.34-1.71,1.02.76.79-1.31c-2.03-.34-.89-.45-2.5-1.97-.04-.1.65-.21.91-.15.22.05.59.18.6.07l.05-.46c.24-.28.65-.93.5-1.2-.25-.48-.77-.61-1.67-1.29-.41-.31,1.4-.86-.52-3.25l2.29-2.43c-.97-.74-.7-1.4-.5-2.16l.48-1.79-.51-.44c-.29-.25,2.09-.38,2.39-.97,1.58-2.15,1.11.07,3.04-1.49l.61.41c.1.07.37-.32.5-.41.76-.49,1.88-.11,2.71-.25l1.95-.32c.24-.04.84-.28.84-.5v-.95s.01-1.61.01-1.61c.71.13,1.13.05,1.46-.3l1.33-1.37,2.01,1.54c.42.32,1.36.66,1.79.94l1.34.02ZM264.92,129.56c-.09-.8-.18-1.05-.02-1.11l.56-.21-.54-.84c-.11-.16-.58-.06-.79-.09l-1.61-.91-.14,2.24c1.68-.88,1.65,1.04,2.54.92ZM153.22,129.28l.72-1.35-2.28-.04c-.35,0-.99.9-.67.83.98.15,1.34.23,2.22.55ZM141.25,140.18c-.17-.93-.22-1.62.28-2.3-.75-.86-1.87-1.58-3.06-2.18l-.03,3.33c1,.55,1.94,1,2.81,1.15ZM141.35,142.11c.03-.37-.86-.9-1.39-1.18-.2-.31-.56-.96-.88-1.16l-.56-.34c-.16-.1.43,2.47,1.23,2.54l1.59.14ZM151.31,148.75c-1.2-.8-1.91-1.32-2.61-2.12.81.16,1.78.87,2.38.41.3-.22.34-1.21.36-1.64l.8.59c.15.11.56-.16.74-.21l.48-.13c.08-.02.07-.42.06-.43-.33-.06-.86-.09-.98-.29l-.44-.7c-.99-.02-1.78-.75-2.41-1.41l-1.37-1.46c-.36.71-.52,1.73-.48,2.73.45-.19.56-.33.71-.22.19.14.6.59.45.7l-.66.5c-.17.13-.36.61-.23.77l.7.78-2.77-.52.82.7c.38.62,1.11.87,1.84,1.32.79.48,1.64,1.37,2.6.64ZM233.28,151.37l1.09.56-.29-1.84c-.14-.87-.49-1.54-1.32-1.96l-.76-.39.05.75c0,.12-.37.39-.5.41l-1.73.24c-.01.31.29,1.1.6,1.18l1.07.27c.18.05.49.66.65.56l.69-.44-.03.64c0,.07.12.03.22,0,.05-.01.22-.01.26,0ZM245.6,153.34c.54.28,1.81.35,2.03-.07.4-.8-.35-1.58-.96-2.11l-.47.67c.11.62-.14.98-.6,1.52ZM260.11,158.51l-1.82-.05c-.01.32.07.95.25,1.66l1.57-1.6ZM254.67,159.31l-.55.93c-.05.09-.42-.49-.52-.45l-2.19.72c-.83.14-1.6-1.31-2.04-1.93l-.45,1.39,4.13,2.03,1.65-.82-.02-1.88ZM224.6,160.99l-1.48-1.89c-.09-.12-.81-.08-.79.07.01.1.03.33.12.35l.61.13c0,1.26,1.2,2.18,1.07,2.22l.49-.19c.11-.04.06-.59-.03-.7ZM168.65,167.87c-.29-1.53-1.61-2.48-2.9-2.87l2.9,2.87ZM229.53,172.27c1.05-.09,1.17-1.2,1.08-1.7-.23-1.29-.99-1.76-2.42-1.67l-.44,1.74-2.65-.41c.69-.62.99-.97,1.24-1.6-.52.09-.81.16-1.14.1-.96-.16-1.58.43-1.65,1.34l1.11.52-.31,1.05c1.76.31,3.53.77,5.18.62ZM211.42,181.39c.25.12.45-4.15-.13-4.27-.14,0-.55.31-.48.51.06.16.41.62.42.78l.2,2.97Z"/>
  <path d="M218.87,156.31l-1.34-.02c-.43-.28-1.37-.62-1.79-.94l-2.01-1.54-1.33,1.37c-.33.34-.76.42-1.46.3v1.61s-.01.95-.01.95c0,.22-.6.46-.84.5l-1.95.32c-.82.13-1.95-.24-2.71.25-.13.08-.4.47-.5.41l-.61-.41c-1.93,1.56-1.46-.66-3.04,1.49-.3.59-2.68.72-2.39.97l.51.44-.48,1.79c-.2.76-.47,1.41.5,2.16l-2.29,2.43c1.92,2.39.11,2.94.52,3.25.9.68,1.42.81,1.67,1.29.15.28-.27.93-.5,1.2l-.05.46c-.01.1-.38-.02-.6-.07-.27-.06-.95.06-.91.15,1.61,1.52.47,1.63,2.5,1.97l-.79,1.31-1.02-.76.34,1.71c2.25-.47,2.77.86,4.07-.99,1.02.03,1.28,1.32,1.04,2.39.03.04.4,0,.41-.13l.06-.73c.02-.25.08-.71.23-.84.19-.16.75-.01.99.09l.64.27c.16.07.35-.31.52-.53l.99-.08-.52,1.27,1.07-.6.23-1.59c.02-.13-.07-.58-.06-.72.01-.19.26-.33.63-.61.68.71,1.28,1.56,1.68,2.66l-1.31,1.83c-.38.02-.82.12-.95.34-.41.67,1.03,1.33,1.01,1.34l.63-.51c.08.05.42.58.33.75l-.35.72c-.1.2.31.59.54.93-.52.22-1.48.59-1.6,1.08-.23.95-.96,1.37-1.44,2.03-.35.48-2.19,5.99-2.73,6.93l-.95,1.65-3.61.91.35.5-1.82.46-1.57.61c-1.21.47-2.58,1.62-3.97,1.42-.48-.35-1.11-1.16-1.84-.97l.16-.54c.03-.09-.29-.03-.36.03l-.64.53c-.16.14-.62-.16-.84-.21-1.8.06-3.73.24-5.47-.56l-1.28.11.18-.8c.05-.21-.52-.49-.75-.52l-2.66-.4c-.72-.11-1.81-.39-2.55-.1l-2.14.82-1.09-1.62c-.07.23-.09.81-.28.94-.23.16-.81.25-1.27.35.54.52.41,1.85-.14,2.1-.17.08-.8-.16-.88,0l-.36.8c-1.79.95-4.11.13-4.76,1.05-.18.25-.01,1.22-.27,1.36l-1.18.64c-.12-.05.46.39.56.55l.89,1.44-1.18.33c-.22.06.13.76.14,1.13.02.45-1.08.61-1.66.63l.34.35c.23.24-.72.28-1.14,1.17-.1.21.41.57.69.77s-.12,1.03-.44,1.14c-1.45.52-1.88,2.21-3.62,3.57-1.2.51-2.14,1.18-3.11,1.92-.66.51-1.91.32-2.13,1.54l-2.69.12-3,.13-.66-.36c-.15-.08-.64.15-.6.31s.19.61.29.75l.45.61c.49.67-2.96.5-3.15.8.34,1.13.87,2.09.28,2.96-.68.98-2.25.74-3.19.29-.26-.13-1.07.05-1.33.24s-.33.64-.44,1.12l-.65.29c-.18.08-.17.66-.11.86l.93,3.25c-.17.34-.77.63-1.41.86l-.02-13.08.93-.16c-.27-.14-.9-.75-.91-1.13l-.02-4.52,1.04-1.28-.77-.28c.66-.29,1.08-.71,1.33-1.56,1.93-.3,1.54.64,3.21.44l-1.55-.86,3.05-3.38c2.13-2.36,2.82-.37,5.3-1.89l-3.32-.21,2.01-2.6-.67,1.88c.53-.27.89-.8,1.28-1.28.33-.41,1.62-.59,2.1-.38l.8.34c.17.07.4-.6.33-.63l-1.39-.6,1.51-2.06c1.79-2.44,1.61-.65,1.44-2.18.32-.33,1.42-.69,1.97-.85-.1-.67.49-4.55,1.14-4.89.44-.24,1.39-.53,1.88-.7l-.38-.41c-.07-.08-.12-.11-.06-.15l.48-.3c.06-.04.09-.13.02-.15l-.62-.21c.55-1.67,2.97-.13,1.83-1.59-.25-.21-.2-.31.51-.32l-.1-1.97c.35.34.68.41.98.16.5-.43.42-.73.19-1.42l.84-.03c-.16-.33-.25-.75-.25-1.16v-1.36s2.29-.08,2.29-.08l-.25-1.77.86-1.72c.32-.34,1.26-.79,1.82-1.05.39-.18.38-1.12.37-1.61l1.65-1.45c.31-.27,1.15.47,1.38.91l.96-1.96c-1.05-1.28-1.19-3.11-.3-4.61-1.01-.44-1.61-1.34-1.75-2.61-.73-.67-2.97.32-4.85.17-1.47-.8-2.98-.53-4.41-.32-1.35.2-2.83-1.31-4.27-.6l-.73.36c-.2.1-.53-.54-.73-.65-.18-.1-.68.1-.88.07s-.55-.58-.57-.78l-.16-2.58c-4.21,1.74-3.88-1.15-4.36-.17-.41.82-.75,1.66-1.38,1.96-.86.41-1.41.25-2.35.05-.56-.12-1.55-.03-2.06-.17-3.03-.84-2.34-.06-3.87-.47-.29-.08-.53-.78-.53-1.1l.04-4.96c.61-.53,2.02-.38,2.6.3.29.34.58,1.07.94,1.7l-1.17.42.5.92c.1.18.64-.04.86,0l3.37.7-.14-.68c-.14-.68,1.8,1.03,2.07.63l-.18-1.26c-.03-.23.53-.47.75-.59l1.31-.65c-.31-.33-.82-1.2-1.04-1.69-.1-.21-.78-.15-1.05-.2-.54-.31-.75-1.32-.72-2.1l1.97.15c.54,1.53,2.45,1.25,2.45,1.82v1.13c.01.34,1.05.18,1.38.1.12-.03.22.41.27.52s.38.13.45.03c.52-.77-.41-1.17.18-1.67.68-.58,3.32-.57,4.22.82l-.89.66c2.47,1.35.17,4.04,1.82,3.95.37-.02.64-.34.85-.76.36-.74,1.02-.79,1.72-.57.86.27,1.34.82,1.88,1.62.47.12,1.43.13,1.95.08-1.08-.45-1.88-.87-2.19-1.82l1.77.19-1.29-1.19c-.66-.61-.13-1.62.64-2.21-2.43-1.95-4.57,1.21-6.56-1.94l-1.38-.78c-.43.12-1.43.5-1.88.25-.39-.21-.9-.97-.93-1.27l.6.24.53.21c.13.05.18-.74.06-.81l-1.91-1.28c-.07-.05-.34-.19-.41-.22-.1-.05-.16-.3-.05-.3.13,0,.52.04.61.1l.51.29c.11.06.42-.25.36-.37l-.31-.6c-.27-.51.02-1.05.59-1.27,1-.39,1.83,1.26,1.9,1.46.08.21-.28.55-.5.88.82.2,3.24.44,3.69-.73.87.02,1.65,1.47,1.95,1.19l.49-.47c.32-.31,1.12-.67,1.61-.69.53-.01,1.48.52,1.53,1.01.02.15-.44.62-.33.74l.5.56,1.19-.94.28-1.56.76.55c.13.09.31-.54.33-.7.1-.9-.37-1.71-1.4-1.75-.19-.38-.33-1.36-.3-1.69l1.2-.37-1.4-.81c-.54-1.81-2.03-3.3-3.8-4.14-.04-1.07-.28-2.29-1.13-2.97l-.7.68-.35-.38c-.09-.1-.54.06-.55.14l.77,1-2.56-.08c-.37-.01-1.15.17-1.45.21l-.23.84c-.05.19-.67-.19-.74-.36-.58-1.43.31-2.92,1.67-3.68.39-.22.94-1.15,1.41-.62.58.64,1.12.67,2.02.27-.32-.57-.74-1.57-.86-2.19l.69-.3c.14-.06.58-.54-.02-.37l-.23-1.13-1.04.68c-1.92-1.6-1.55-3.7-4.17-2.91-.17.06-.62-.37-.57-.55s.24-.59.39-.74c.86-.86,2.04-.58,3.1-.16.28.11.99.13,1.24.29s.43.82.27,1.05l-.38.56c-.11.16.16.81.34.75.29-.09.56-.5.93-.98l1.23,1.37.5.2c1.16.47-1.54.81-1.14,2.22.25.89.61,1.58,1.75,1.31l-.16.78c-.03.16.36.54.53.62l2.43,1.18c.49.24.7,1.56.38,2-.23.32-.46.64-.57.85-.16.32.1,1.15.44,1.12.58-.62,1.59-1.58,2.2-.8l.67.85-.75.61,1.91.71c1.25,1.37,1.55,2.64,2.69,4.08l-.39.89c-.19.43,1.78,1.98.61,3.29-.24.13-.99-.11-1.09.14-.42,1.16.4.97,2.26,2.7.43.4.74.93,1.09,1.3l1.57,1.7.31-1.57c.22.14.58.32.8.34.68.06,1,.35,1.21,1.04l.98-.85c.13-.79.57-1.38,1.63-1.28l1.36-1.71c.14-.18.82-.34.92-.13l.43.87.22-1.57c.05-.35.89-.66,1.19-.51.1.05.41.3.5.37s.24-.32.32-.47c.32-.6.84-.85,1.57-.53l1.01-1.18c.22-.83.94-1.29,1.69-1.47.97-1.8,2.67-3.09,4.84-2.8l2.02-.84c.76-.66,1.38-.76,2.3-.98,1.2-.29,2.57-.78,3.43.62l1.17-.53c-.18,1.52-1.9.34-2.3,2.06l-.11.48c-.03.11.22.28.32.36s.44-.39.55-.35c1.79.53,2.91-.99,2.92-.75l-.03-.71c-.02-.35-.25-.75-.63-1.2l2.44-1.01,1.28-.55c.35-.15,1.05.41,1.42.72,1.16-.19,2.66-.51,3.91-.63,1.07-.11,1.81-.39,2.81-.51l2.52-.32.61.3c.15.07.45-.23.68-.42,1.47-1.21.56.56,3.08-1.09.48.1,1.08.21,1.56.16l.86-.08c.21-.02.11.73.19,1.04.09.38,1.24.02,1.53-.26.1-.1.43.49.5.37l.43-.69.28.51c.05.1,5.17.82,5.24,1.17l.2,1,.33-.73c.23.44-.3,1.44-.63,1.85-.04.07.26.38.31.3.07-.12.29-.47.39-.58l1.58-1.8,1.29,1.8c.98.15,1.45.72,1.84,1.36l1.45.68c.73.34,1.62.8,2.2,1.25-.35,1.09-.09,1.72.89,2.22l-.22,1.26c-.04.29-.08.83-.17,1.06s-.67.32-.93.31h-.78c-.37-.02-.07-1.64-.32-1.59l-1.08.19-.08-1.27-.9-.1.28.63c.06.13-.38.34-.42.21l-.91-3.03.03,2.22c.03.12.45.54.3.6-1.38.57-2.48.79-3.93-.37l.75-1.19c.2-.32-.71-.77-.99-1.02l-1.13-1.02c-.26,0-.71-2.35-1.53-1.91l-.92.49c-.19.1-.67-.31-.83-.44.16,1.05.22,1.92.1,2.94l-.57-1.26-.09,1.19-1.4-.47c.05-.97-.18-2.39-1.06-2.69s-1.43-.5-2.49-.98l-.98,2.48-.95.43c-.24.11.1.76.32,1.2l-3.77.92c.92.1,2.18,0,3.16-.1l1.55,1.26c.65.53,1.13,1.17,2.03,1.32,3.57.63,1.77,1.82,5.13,1.8.78.83,1.67,1.56,2.68,2.15l.7,1.18,1.27,1.35c-.39-3.39.34-3.01-.77-6.64l3.71,2.6c.06.73-.21,1.54-.61,2.17l.32,1.21c.4-1.12.45-1.85.61-2.98,1.13.92,1.91,2.06,2.5,3.6.18,1.37-1.09,3.97-.84,5.07,1.06-3.44,2.4-4.88-.27-8.17l-1.32-1.63,1.53-1.23c.31.32.78.93,1.04,1.34l.33.52c.08.13-.25.48-.38.68.32,1,1.53,1.44,2.54,1.7l1.51.85c-.05-.37-.11-.79-.29-.85l-.91-.34c.15-.16.68-.3.97-.19.25.09.48.65.6,1l2.17.34c-1.2,1.14-1.97.11-2.88,1.47-.67,1,1.61,2.2.32,2.35l1.03,1.46.66-.8c3.35,1.67,1.37,2.74,3.64,3.95l-1.02-2.12c.82.41,1.57.78,2.46,1.09l1.82.64c.31-.24.93-.64,1.11-.67l.6,1.54-.1-2.24c-.02-.47.14-1.16.26-1.83l2.01,1.14c-.26-.82-.18-1.63.43-2.18.41,1.73.06,3.52.33,3.87.31-.77.52-1.38.95-1.86l1.61-1.78c.36,1.25.53,2.44.71,3.91.1-1.29.04-2.55-.1-3.78,2.38.36.75.35,2.25,1.62.13.11.38-.36.54-.63h.33s-.26,1.58-.26,1.58c.45-1.02.8-1.85,1.86-1.86l-.14.66c-.03.13.46.04.66.05-.83,2-2.44,3.74-4.62,4.45-.36.12-1.21.15-1.7.17-.79.02-1.39-.79-2.11-1.32.09.39.22.92.32,1.27s.87.41,1.34.46c.26.21.49.62.71.51l1.04-.5c1.6-.77,3.31-1.51,4.4-3.04l1.8-.58c.33-.1.63.86.8,1.11.73.43,1.95,1.57,2.22,2.33.06.16-.24.85-.08.87l.91.11-.03.49c-.01.19-.71.33-.9.19l-3.32-2.3-2.57.69-.35.31c1.1-.16,1.7-.31,2.51-.61l3.06,2.04c-.04.5.06,1.02.32,1.57l-2.08,2.43.67.67c-2.41,1.2-.23,1.39-3.78,2.11l.46.74c.25.4-1.54,0-2.16,1.55-.57-.05-1.48-.12-1.93-.08-.16.01-.56.68-.42.75l.91.44-1.69.76c-.32.81-1.96,2.99-2.27,2.96l-.16-1.16c-1.21.79-1.28,1.84-1.82,2.95-.87,1.78-2.6,3.07-4.24,4.09-2.02,1.26-3.89,2.49-6.19,2.97.3-.64.88-.66,1.5-.78-.61-1.03-.57.75-2.76-1.6l-2.6.88c-.58-.06-1.27-.17-1.68.14-.44.34-.42,1.25-.39,1.91l-1.52.47c-.78-.34-1.49-1.4-2.18-2.06-.51-.49-1.77.08-2.19.16l-2.46-1.26c-.29.16-.62.47-.81.39-.23-.1-.64-.45-.85-.65l-1.86-1.73c-1.78-1.66,1.18-2.76-.94-4.19l-.5.68s-1.46-1.1-1.59-1.59c-.22-.81,1.23-1.38,1.16-1.5l.46.7.36-.72c-.32-.23-.62-.45-.82-.65s0-.97.15-1.21c1.02-1.64-2.57-1.59-2.37-2.91.15-1.03.05-1.41-.54-2.24l1.21.47c1.68.66,5.39,1.65,6.74-.14l.16-1.98c-.69-1-1.69-1.97-2.1-3.09s-1.12-1.91-1.71-2.9l-2.64-4.4c-.36-.61-1.34-.96-1.77-2.01,3.14.35,6.21,4.59,6.77,7.82.09.5-.53,1.23.47,1.55.41-3.5-1.48-5.81-3.65-8.12,1.15-.88,2.32-1.15,3.01-2.5l-3.27,2.01-2.31-1.13-1.38-.71c-.09-.05-.28-.26-.34-.34s-.28.24-.38.34l-1.34-.96c-.66.48-1.1.66-1.69.65ZM209.3,141.96c-1.44-.11-1.66-.08-2.52-.33l-.73.92c1.45-.19,2.3-.34,3.25-.59ZM200.17,146.45c.12-.02.46-.15.57-.19s-.26-.42-.36-.36l-.4.23c-.43.25-1.01.16-1.31-.31-.2-.32-.73-.87-1.05-.89-.76-.04-1.62,1.01-1.53,1.69.24,1.72-.61,2.22-1.92,3.47l2.29-.94c2.4-1.45,1.1-2.2,3.71-2.71ZM191.06,150.38c1.23.4,1.92-.03,2.74-.68l.5-.4c.1-.08-.24-.3-.37-.31l-.51-.04.14-.77c.03-.18-.58-.43-.79-.35-.34.14.04,1.03.26,1.4-.28.28-1.01.24-1.62.07l-.34,1.08ZM216.36,149.2c.1-.28.14-.56.02-.59l-.55-.13c-1.01-.23-3.79.24-4.35.99,1.75-.38,3.22-.71,4.87-.27ZM200.02,156c1.56-1.14,3.04-2.05,4.78-2.81.22-.3-.65-1.59-1.1-1.37l-2.76,1.38c.13.63.28,1.43-.03,1.6l-.92.48c-.15.08-.05.54.03.72ZM220.43,154.93l-1.38-.05c-.21,0-.61.27-.59.45.02.23.14.66.32.6l.7-.2c.43-.12,1.04-.35.95-.81ZM239.07,160.88l.2-2.32c-1.07-.36-1.85-.87-2.5-1.63-.39.43-.76,1.34-.44,1.85.24.38.72.85,1.11,1.26.21.22.35.94.64.93s.96-.07.98-.1ZM259.82,171.54c.79-.21.97-.95,1.18-1.59l1-3.04c-1.69,1.69-.4,2.29-2.18,4.64ZM267.01,170.87c-.02-1.27-3.05-3.48-3.98-3.65l3.54,3.1-1.48,2.04c.77-.04,1.93-.79,1.92-1.5ZM231.9,173.76l1.63,1.66c.4-1.12-.75-2.49-1.69-2.36-.27.04-.79.65-1.04.61-.22-.03-.55-.17-.92-.31-.41-.15-1.19.72-1.25.99,2.64-.79.19.63,3.28-.59ZM258.35,179.32l1.24-1.66c-.79-.35-1.08.2-1.4.73l-.41.68c-.07.11.5.36.57.26ZM206.9,183.68c.12.35,1.25-4.26.26-3.79-.14.07-.46.24-.33.21,1.11-.26-1.42,1.75.07,3.58ZM254.23,182.83c1.2-1.53-1.99-2.89-2.05-2.89-.26,0-.69.29-1.26.6l1.15.15c.76.56,1.51,1.35,2.16,2.15ZM248.8,187.52c.07-.27.12-.6.26-.58l.7.11c-.19-.3-.43-.64-.66-.89l-.89-.98c-.4-.78-.64-2.27-1.49-2.7l-2.03-1.02c.03.38.15.63.05.69l-.61.33,1.93.13c.81.4,1.83,1.97,1.43,2.78s-.92,1.61-.38,2.35l1.68-.24ZM253.11,182.59c-.47-.33-1.05-.27-1.39.11-.38.43-.75,1.04-.79,1.55-.03.39.45,1.18.87,1.17.94-.02,1.92-2.39,1.31-2.83ZM240.83,184.49l-.72.43-1.91-1.42-.03.94c1.17.14,1.73.86,1.73,1.98l.94-1.93ZM182.7,185.43c.27-.24.46-.39.39-.43-.05-.03-.19-.13-.17-.12.01,0-.27.16-.33.2-.16.11-.63-.17-.62-.36l.05-.98c-.48.28-.88.99-.59,1.48.18.32.72.69,1.24,1.09l.03-.89ZM159.49,204.41l1.24-1.25.47-1.13-1.52-.24-1.49,1.08c1.09,1.16-.64.62-.31,2.15.66-.38,1.06-.55,1.6-.61ZM146.04,206.05c.42.05.75-1.31.54-1.67-.18-.31-.56-.67-.85-.9-.58,1.01-.88,2.33.31,2.57ZM150.67,211.96c.29.26,1.09.32,1.49-.04l3.57-3.2c2.43-2.18.93-4.54.79-3.36l-.06.51c-.13,1.05-1.1,1.71-2.18,1.94l.22.92c-2.97,1.34-1.38,2.83-3.82,3.22Z"/>
  <path d="M313.05,239.09c.25.32.11.23-.35-.12l.75,2.12c-.49,1.14-.61,2.26-.59,3.51l-.76,1.3c.43.64.09,1.68-.57,1.94-.43.17-1.04.58-1.53.99-.73.61,1.25,1.53.21,2.55-.21.2-.69.33-.99.41l-.58,1.54-.66-.51c-.18-.14-.68.27-.83.44l-.41.47c-.1.12.43.42.42.48-.18.16-.63.4-.69.23l-.35-.88-.41,1.1c-.1.26-.71.31-1.31.42-.05-.11.11.22.26.51l-1.46.42c-.06,1-.52,1.59-1.18,2.16s-1.68.43-2.46.3c-.25.45-.75,1.06-1.17,1.22l1.08.4-3.67.6c-.5.08-1.06.23-1.57.25l-2.62.08c-1.72.06-3.19-.34-4.76-1.03-2.12-.92-4.6-1.58-6.24-3.35-.64-.69-1.15-1.54-1.88-2.2-1.22-1.09-2.81-4.42-2.01-6.11l1.27-2.69c.53-1.12,1.73-2.04,2.45-3.01,1.73-2.35.85-3.82,1.18-6.39l.49,1.47c1.22-1.15.69-2.63.93-4.1.1-.59.99-1.79.14-2.31l-1.4-.85c-.5.48-1.54.5-1.92.13l-.02-2.74c0-1.01.48-1.98.85-2.97.15-.45.1-1.47.23-1.95l.82-3.12c.16-.63,1.04-2.75,1.43-3.5,1.91-3.7.1-1.94,1.77-4.06-.59-1.02-.83-2.19.26-3.03l1.84-1.43-.24-1.67c.81-.72,1.17-1.86,1.31-2.78,1.53-.19.05-1.6,2.41-1.65l-1.16-2.07,1.55-.34c.57-.13,1.22-.79,1.72-1.31,1.05-1.09.54-2.06,1.69-4.25l-1.76-2.9,1.17-2.22c.4.25.81.49,1.09.51s.87-.33,1.05-.59l.81-1.18c-.7-.37-1.01-.6-1.25-1.16-.25-.59.12-1.03.53-1.88l-.9.39c-.37.16-.98-.01-1.19-.45-.13-.29.16-.8.39-1.18.34-.57.41-2.12.03-2.66l-1.35-1.94.84-.34c.78-.32-.49-2.11-.52-2.54l.81.02c.17,0,.4-.74.33-.93-.66-1.84-3.39-2.99-3.07-3.48l.61-.94c-1.1-.21-1.06-1.23-1.44-1.99l-1.19-2.39c-.24-.48-.75-.96-1.2-1.32l-.7.96c-.15.2-.52.49-.73.58s-.85-.28-.84-.52c0-.33.39-1,.68-.96l1.21.14.05-.51c0-.08-2.88-.67-2.99-.04l-1.36-1.72-1.07-1.35c-.15-.19-.39-.7-.32-.91.08-.25.56-.62.72-.86.78-1.17-.28-2.54-1.49-2.86l-2.38-.63c-.22-.06-.66-.87-.46-.97l1.08-.54c-.72-1.24-3.09-2.16-2.94-3.66.1-.95.46-2.04.42-2.9l-.06-1.44-1.47-.52c.92-1.23,1.32-2.48.59-3.93l1.03-.25c-.8-.76-2.63-.53-2.74-1.04l-.21-1.01c-.07-.32.39-1.01.1-1.28-.23-.22-.87-.55-1-.53-.31.43-.73.8-.9.63l-1.79-1.85c.21-.3.58-.83.52-1.11s-.33-.75-.53-1.08l-.43-.71c-.11-.19-.71.16-.95.25-.69.26-1.74-1.86-1.97-2.3l-.99-1.85c.04-.06.3-.28.35-.21l.29.44c.37-.55,1.3-1.31,1.8-1.09l1.27,2.01c.44.7.74,1.43,1.53,2.06l1.21.97c-.31.47-.57.88-.24.3l-.63-.36-.21.99,1.05,1.32c-.14.13.32-.19.26-.29l-.4-.62c-.08-.13.45-.57.56-.45l.57.65c.14.16-.36.61-.51.92.63-.03,1.46.13,1.67.48-.28.6-.31.82.07,1.27.28.33.66.16,1.2-.03.43-.16.81-.73.77-1.2-.03-.36-.88-.58-1.12-.85l-1.48-1.7c.34-4.71-1.54.2-2.7-6.4-1.27-.77-.85-2.16-1.7-2.45s-1.09-1-1.48-1.75l-.69-1.35c-2.18-.95-.47-.53-2.76-2.26-.56-.04-.99-.43-1.26-.98l-.7.05c-.2.02-.41-.44-.54-.67-.23-.09-.38-.13-.49-.23s.31-.53.42-.41c.23.27.85.48,1.16.55l2.46,1.33c-.63-1.31-1.92-1.99-3.24-2.43.1-.7.08-1.21-.31-1.89l-.15,1.06-1.03-1.12c-.41-.44-2.25-2.85-1.91-3.39,2.09,1.47,1.93.24,2.47,1.33l-.43.09-.29.06c-.1.02.14.34.22.42l.57.56.15-.55c.02-.09.24-.29.29-.21l.36.61,2.21,1.02,2.79,3.35-.3.32c-.07.07-.07.31-.07.42-.02-.89,1.87,1.74,2.22,2.11s3.71,1.35,2.61,1.51l-.86.12.9,1.4c.51.09,1.04.17,1.32.36s.51.92.72,1.4c.11.26.73-.23,1.06-.58.06.03.49.42.41.59l-.4.93c-.07.16-.5.6-.36.7l.73.55c-.33.89-.16,1.89.99,2.22.55.16,1.03.64,1.28,1.28.17.43-.27,1.05-.63,1.73-.1.34,1.27.8,1.48.46l.54-1.55,1.34,1.92.91,1.3c-.57.39-.94,1.01-.98,1.61l-.11,1.91,1.02-.89.42,1.16c.92.16,1.34.91,1.81,1.71.61,1.05,1.21,2.14.21,3.31.29.43,1,.68,1.44.54.03,0,.1.54,0,.56l-.75.09.8,1.21c.02.16.11.57.14.7.04.18.6-.31.79-.35.5-.1.9.93,1.13,1.45l.81,1.85.31-.02c.07,0,.25,0,.22.07-.03.07-.17.34-.22.4l-.47.53c.31-.35.55,2.78,2.32,2.85.25.95-1.34.68-.89,2.28.99-.37,1.64-.82,1.69-1.58l1.16,2.23c.85.4,1.27.79,1.68,1.54l1.21,2.22c.28.51,1.28.96,1.58,1.75.59.37,1.64.82,2.62,1.14-.21-.73-1.02-.94-1.79-1.15l-.84-1.09.96-.91-1.28.19-.64-1.66c.4-.01.85-.05,1.01.06.2.13.35.54.53.9l1.87,1c.8,3.1.84,1.85,1.96,3.13.17.19-.21,1.26-.61.52l-.68,1.85.86,1.29,2.13,1.25-.42-1.47c-.19-.65-.1-1.63-.06-2.28.85-.36,2.75,3.07,2.59,3.41h-.83c-.15.02-.32.37-.52.66l-.26-.22c-.16-.13-.29-.29-.33-.19-.05.11-.18.5-.12.59l.99,1.81c.17.32.31,1.08.57,1.24.3.19.94.16,1.43.18l1.02.05c.23.01.4-.48.59-.83.98.11,2.31,1.85,2.51,1.17l.15-.5,1.88.9c-.71.28-1.2.43-2.1.67-.03-.14-.02.47-.12.39l-.65-.46-.64.79c-.31-.91-.53-1.49-1.2-2.17-.4.59-.12,1.29.2,1.75-.48.23-1.32.1-1.76-.17l-.03,1.97c0,.55,1.01,1.41,1.35,1.77-.35.17-.88.77-.61.97.23.17.77-.16,1.28-.5l.29,1.8c.15.91.49,1.55,1.35,2.13l1.46-1.28c-.16-.84.35-1.3.78-1.98.27-1.81-1.62-3.83.39-3.98.5-.04.82.41,1.08.93.36.71,1.06,1.77.57,2.49-.11.16-.75.48-.63.61,2.04,2.33-.38.63.25,3.38.01,0-.52.04-.74.06-.24.02-.49-.55-.67-.79-.82-.16-1.88.53-1.81,1.74.6.04,1.29-.31,1.85-.85l-.5,1.25.77.19c.11.03.86,2.18.67,2.38l-1.61.7c.45,1.47.6,3.49-.09,4.69l-.81,1.39-.18.96c-.11.58-1.9.35-1.87,1.6.06,2.87.79,2.65-.52,4.21-.16.2-.42.8-.66.78-.74-.07-2.04.09-2.54.49l.84.37c.17.08-.11.7-.26.83l-1.17,1.04.57.37c.13.08-.1.58-.03.71.24.3.71.78.72,1.12.05,1.94-2.44,3.14-2.26,3.61l.53,1.34-1.65-.72-.62,1.72c.94.32,1.62.86,1.54,1.81l-.99-.13c-.79,2.5-2.74,1.32-2.44,4.36-.86-1.35-2.1-.73-3.31-.48l-.53,1.83c-.12.4-.11,1.24.13,1.71.21.41,2.28,1.31,2.86,1.56,1.34.57,1.36,1.68.98,2.8-.09.28-.99.31-1.18.55-.45.56-.53,1.54-.72,2.52l-.77-.87s-.28.46-.4.67c-.13.22.23.8.48.94,2.16,1.23,1.11,2.18,2.92,3.87.34.32,1.39-.17,1.83-.19l1.87-.11c3.11-.18,4.05.11,6.99,2.3,1.2.9,2.61,1.64,2.44,3.57ZM281.96,150.93c-.21-.44-.41-.93-.61-1.27l-.93-1.62-.3,2.18.39-.37c.29-.27.57,1.4,1.45,1.09ZM279.52,151.17c.41-.91-.19-1.28-.59-1.61-.24-.2-.94.28-.97.63.3.46,1.12.89,1.55.98ZM290.33,162.81l-.05,1.6c0,.21.29.75.47.7.18-.05.54-.19.68-.29.49-.33-.83-1.95-1.1-2.02ZM306.37,190.49c.21.06.68-.49.71-.69l.34-1.81-2.13.62c.22.77.57,1.73,1.07,1.87ZM310.37,190.07l-1.56-.45c-.21-.06-.58.37-.65.56s.05.74.23.7c.61-.06,1.72.28,1.97-.81ZM306.09,193.78c.28-.18.16-1.27.14-1.63,0-.24-.66-.68-.82-.51l-.55.61-1.06.74.89,1.66,1.4-.87ZM306.33,196.81c.18-.17.14-.85-.1-.94-.19-.07-.74-.13-.95-.08-1.03.28-1.51,1.87-1.09,2.77.28.59,1.08-.78,2.14-1.75Z"/>
  <path d="M256.46,114.88c.31-.11.99.45,1.09.69-.25.4-.6,1.04-.46,1.33s.55.7.94,1.09c-.55.63-1.41-.12-2.26-.71-.24.32.19.68.62,1l.48.36c.1.07-.14.43-.24.5-.14.09-.34-.1-.61-.22-2.8-1.23-.13-1.67-3.61-2.97l-1.33-1.82-3.39-.54-.42-1.23c-.11-.32-1.05-.34-1.39-.33l-.86.03c-.15,0-.25-.5-.16-.62.12-.16.24-.22.81-.62-.37-.31-1.14-.67-1.88-.85l-2.66-.66c-.17-.04-.7.09-.89.09s-.28-.66-.45-.75c-.86-.46-2.5-1.27-3.47-1.3l-1.52-.05c-.64.68-1.25,1.49-1.76,2.25-.87,1.3-2.37-.68-2.43-.62-.91.92-1.25.64-3.36.47-.89-.07-1.33-.4-1.74-1.32l-2.47.02c-.11,0-.61-.42-.53-.49l.44-.41c-.49-1.77-2.3-2.64-3.73-3.81.44.36-2.5-2.64-2.26-2.28-1.02-1.52-1.5-2.77-2.25-3.76l.04-2.55c.01-.74.2-1.15-.29-1.78l.93-.14c.23-.03.45-.67.53-.91l.26-.8c.25-.76,1.63,1.33,3.3-.44l1.59-.52c.57-.18,1.34-.18,1.81-.57.88-.73,1.45-.66,2.46.24l-.06-.81c.17.12.94.15,1.09-.1.56-.95.79-2.17.8-3.23l1.43-.45c-.09-.38-.25-.73-.13-.85l.7-.67c.35-.33-.66-1.23-1.04-1.55-.28-.23-.29-1.17-.4-1.52-.43-.5-1.4-1.48-.98-2.08.14-.2.63-.52.78-.68.37-.4-.3-.46-.4-2.01-.02-.24.81-.06.96.16.37.54,1.14.88,1.97.85.43.43.47.28.25-.23l-.86-.24c-.19-.05-.18-.58-.27-.92l-.23.72c-.53-.56-1.12-.98-2.02-1.32l-.71-2.15c-.15-.46-.11-.85.12-1.33-1.48-1.62,1.04-4.39-.87-2.61-.94-.73-2.05-2.11-1.78-3.49.1-.5.2-1.04.23-1.47.03-.07.27-.27.33-.17l.39.59.18-1.68c.28.52.29.46.49-.21.64,1.26,1.18,2.58,1.56,4.06l1.33,5.28c.22-1.9-.83-3.61-.91-5.51.15-.48.24-1.07.02-1.49l-.37.77c-.79-1.79-1.49-4.47-1.75-5.97l1.02.92c.05.56.15,1.31.29,1.95l.46-2.43.88,1.78c.04.09.56-.09.57,0l.05.45c.02.21.08.51-.04.59-.15.1-.43.22-.53.12l-.64-.63c-.41.47,1.48,1.56,1.46,1.58l.34-.35.6,3.73c.28,1.7.19,3.44.97,5.1.57-.41.22-.85.12-1.3l-.51-2.18c-.46-1.99-.49-4.09-.39-6.04l.21.84c.04.16.45.1.71.06l-.42-2.84-1.71-1.87.32-.4c.06-.08-.15-.29-.23-.43l-.44-.73c-.13-.21-.8-.12-1.27-.14-.28-2.36.93-1.2-.61-4.22l-1.79-3.51-.86-1.78c-2.58-1.92-1.66-2.49-3.91-4.55.2-.68.06-1.39-.42-1.9l-.66-.7c-.14-.15-.63.07-.94.14l.1-.84-1.31-1.37.49,1.72c-1.84-1.89-2.73-.65-3.37-1.84-.1-.19.45-.52.69-.69-.05-.11-.44-.55-.36-.74l.4-.98c-.65.39-1.74.97-2.37.74-1.25-1.12-2.43-1.97-3.98-2.33l-.73-1.46,1.2-1.23-.51-.95c-.98-.38-1.82-.97-2.38-1.88l-.37-.35c-.46-.42,1.26-.13,1.03-.6l-.27-.56c-.07-.15-.36.1-.64.33l-.37-.56-.77.88c-1.41-1.02-2.89-.85-4.64.15.27-1.24-.09-2.13-1.35-2.52l.49-.69-2.05-1.75-.65.39c-.13.08-.49-.23-.71-.37-.51,1.99-2.58.32-1.74,2.66l.02.73,1.56.05-.31,2.03c-.11.31-1.22.4-1.52.17s-.64-.75-1-1.23c-.94-.24-2.39-.05-3.45.28l-1.06,1.81c-.2.34-.61.86-.92.93-.36.08-1.06-.34-1.37-.6l-.75-.63c-.16-.14.11-.76.13-.91-.94.09-1.64.14-2.38.11,0,.26-.07.83.09.82.18-.01.64-.05.79-.09l.4-.11c.12-.03.47.28.35.31s-.58.14-.7.21l-2.43,1.36c-.46-.14-.65-.92-.79-1.49-.34-.59-1.89-.89-2.55-.76-.65.88-1.46,1.2-2.61,1.1l-3.01,1.73c-.74.42-1.05,1.03-1.3,1.95l.92.16c-.55.41-1.02.93-1.08,1.8l-1.34-.17c-.33-.04-1.05.33-1.13.66l-.42,1.69c.27.47.63,1.68.26,2l-1.24,1.06c.01.06-.4-.36-.32-.52l.5-1.02-.77-1.24c-.43.19-.76.42-.92.31l-.84-.61.3-.95c.33.2.69.43.9.5.24.08.58-.68.59-.97.03-1.33.57-4.09,1.85-3.97l2.08.18-.6-1.08c-.3-.54,1.26-1.37,1.41-2.4,1.17-.06,2.96-.98,3.43-2.03l1.3.23.49-1.02c.11-.24.72-.02,1.16.1l1.88-1.96c1.02.17,1.85-.16,2.32-1.09.58.64.96.9,1.76.79.03.08.08.7.08.91,1.93.2,1.21,2.33,3.73,2.06.27-.03.8,0,.89-.17l.4-.78c.93.07,2.04.03,2.82-.46-1.53.1-2.93.17-4.24.03l-.76.87c-.17.19-.83-.3-.9-.55-.18-.64.06-.29.5-2,.15-.59-1.58.05-2.07-1.76l1.14.17c.14.02.47.25.54.14l.38-.56.92,1.22c.05.07.4.06.41.14l.07.58,1.62-.53-.96-.76c-.39-.31-.68-.51-1.23-.86.52-.53,1.63-.88,2.59-.78l.52,1.16.78-1.15c.55-.8,1.76.08,2.39.01,3.21-.36,4.02-.5,6.62.94.77.42,2.06-.2,2.85-.23l.87-.03c.16,0,.24.5.16.63-.1.17-.25.24-.79.61.19.62,2.26,1.54,2.46.78.09-.33.07-.71.07-1.39l1.67.83s.1-.52.21-.51c.41.05,1.16.54,1.47.85,3.8-.47,2.29,1.35,3.76,1.69.58-.19,1.11-.32,1.52-.07.58.35.64,1.08.49,1.68l-.14.56c-.02.07-.06.06-.14,0l-.36-.33c-.31.31-.7.68-1.01.77-.35.1-1.19-.56-1.14-.94.11-.84-.61-2.03-1.26-2.06-.13,0-.5.24-.61.31-.15.09-.21-.39-.25-.86l-1.94-.7.49.8-1.92.39-.79-.59c-.16-.12-.39.72-.2.76l2.11.43c.57,1.69,1.91.91,1.98,1.36l.12.76c.02.13-.14.52-.04.59l.64.51-.36.41c-.11.12.04.46.14.62l.27.43c.77,1.22-.08-1.72.58-1.49.58.21.91.26,1.59.28.08.22.38,1.33.41,1.55l-.98.38.9,1,.51-.34c.16-.11.46.56.63.66.33.21,1.15.03,1.56-.16l.83.75c1.47-.13,2.8.23,4.06.94-.49.48-.83.29-1.36.2l-1.53-.25c0,.15-.07.63.09.64s.75,0,.9.05c.46.17.78,1.32,1.03,1.72,2.03.25,1.54,3.66,4.95,4.03l-1.42-1.2,2.13.67-1.18-1.58-1.23.91c-.12-.52-.13-1.01.06-1.29.69-1.03.83.25,2.46-1,.41-.31,1.71.28,1.7.8l-.03,1.33-1.62-1.05c-.24.54,1.42,1.51,1.18,1.78l-.63.71.86.8.71-.66c.15-.13-.21-.5-.37-.83.11-.41,1.22-.8,1.48-.85.12-.02.44.25.36.35l-.46.55,1.4,2.51,2.67-.35c-.14.77-.25.95.06,1.67l.5-1.57c.3-.25,1.17,1.93,1.04,2.15-.16.27-.51.57-.97,1.03l.89.09c-.16,1.55-4.04,3.31-3.88,1.77.03-.28.22-.8.36-1.14l-.74-2.03c-.06-.15-.62-.46-.53-.58l.49-.65-1.93-.8-.45.75c-.71-.02-1.29.61-1.52,1.22l1.15.85c-.32.47-.62,1.03-.75,1.64.85.29,1.63.36,2.37.36l.22.78,1,.05c.26.01.32.85.45,1.1l1.19,2.3.3-2,1.43,1.82-.43-1.6c.37-.13.94-.13.94-.34v-1.21s1.95-.12,1.95-.12c.25-.01.79.28.91.49s.14.92-.08,1.01l-1.31.57,1.9.3c.33.14.95.73,1.18,1.03l1,1.32c.21.27,0,1.15.48,1.26,1.41.32,1.55,1.55,1.75,2.69.3.51,1.17,1.49,1.01,1.98-.87.59-1.12,2.11-.93,2.29.17.16.59.38.82.45l.73.22c.17.05.15.61.14.82l-.02,1.62c-1.19.21-2.66,1.66-2.69,2.95-.45-1.26-1.41-2.66-1.76-4-.32-1.25-.44-2.35-.88-3.48l-1.34-3.41c-.75-1.92-1.49-3.88-3.37-4.85.35.58.58.96.84,1.33l.67.95c-.33.07-.7-.29-.84-.58-1.12.12-1.54-.41-2.24-1.58.05.24.22.86.31,1.17-.21.19-.54.53-.5.75.06.31.38.4.85.47.16.03.11.45.02.9,2.26.87,1.84,3.34,3.23,5.48.11.55-.18,1.76.07,2.27l1.99,4.12c.29.61.47,1.15.65,1.82l.58,1.34c0,.73.21,1.38.42,2.11.36,1.28.53,2.67.76,4.1-.32-.18-.69-.52-.87-.41l-.55.35c-.14.09-.4-.19-.72-.42l-.58,2.66c1.54.35.45,1.29,2.15,2.03l-.36,1.94-.55,1.3c-.13.32-.28.91-.08,1.07s.72.57.68.54c.13-1.04.21-1.55.38-2.1.48-1.55.58-3.45.73-5.28l-.72-.14c-.74-.15.85-.39.55-3.04l-.26-2.35c-.08-.68-.08-1.03-.07-1.77.03-1.03-.27-2.28-.35-3.43-.24-.45-.28-.62.35-.31l.79,4.57.28-.99c.07.65.3,1.68.21,2.16l-.48,2.59-.08.44c-.01.08.2.12.28.11s.31-.2.3-.29c-.03-.25-.09-.75-.1-.98,0-.27.49-.56.88-.91-1.07-3.22-.31-2.59-1.15-5.84l1.36-.86,1.91.58c.66.67,1.26,1.84,1.42,2.79l.62,3.62c.22,1.26-.24,2.4.61,3.65.24,1.05,1.61,3.73.7,4.18l-1.04.51c-.23.11.28.72.3.97l.08.88c.02.23.65.15,1.01.13.29-.02.81.46.76.74s-.51.94-.45,1.21c.15.68.41,2.07-.1,2.81.85,1.06,2.15.11,3.17-.13.74-.18,1.39-.33,1.99-.52l.18.47c.21.54.13-.62.5-.32l1.51,1.18c.23.18.66.44.76.7l.61,1.63c-.46,1.31-.76,2.68-.95,4.11-.25.82-1.39,1.75-1.58,2.57-.24,1.06-.55,1.42-1.18,2.04l-2.65,2.62c-1.53,1.51-3.46,3.06-5.44,3.51-.26.06-.71.37-.76.54-.05.22.15.58.37.93.27.44,1.08.51,1.42.44.26,1.2.74,2.08,2.06,2.24l.94.12c.19.02.23.57.3.8l.21.66c.16.49,2.76-.39,3.59-.11,0,1.4.32,2.03,1.36,2.26-1.24,1.18,1.12-.85.86,3.32.55-.23.54-1.37.42-1.88.31.03.79-.02,1.24-.18ZM181.36,26.97l.5.53.58-.99-.94-1.77-1.19.91.5.47c.08.08-.36.26-.46.34l-.45.37c-.11.09-.01.64.13.61,1.26-.25,1.08-.73,1.32-.47ZM231.15,67.12c.11.56.24,1.13.28,1.22l2.03-.68c.31-.17-.22-.98-.31-1.35-.22-.97-.54-1.92-1.14-2.64-.08.48-.2,1.04-.04,1.16l.68.51c-.19.69-.07,1.38.44,1.75l-1.2.62-1.27-3.3.52,2.7ZM245.17,83.11c.22-.07.43-.63.26-.73s-.51-.12-.84-.18l-1.53-.27-1.86-.33c-.23.19-.2,1.09-.19,1.41l-.16.95c.9.02,1.55-.02,2.2-.21l2.11-.63ZM245.21,88.5c-.39-.49-.65-1.25-.82-1.72l-1.01-1.25c-.08-.1-.4-.32-.51-.35s-.25.15-.26.27c0,.08.11.46.16.53l2.21,3.04c.05.07.65,0,.6-.06l-.36-.46ZM241.13,87.73c-.53-.84-1.01-.83-1.5-.63.05-.61.15-1.1-.12-1.75-.37.91-.52,1.65-.65,2.67l2.27-.29ZM232.9,106.42c.41.21,1.27-.11,1.46-.46.09-.15.19-.58.23-.74.03-.13-.42-.12-.53-.03l-.29.22c-.43-.19-1.22-.44-1.57-.41l-.8.66c-.16.13-.32-.3-.46-.59l-1.86-.18c-.16-.02-.83.19-.73.32l.43.52-1.28.35,3.51,1.37c.14.05.61.07.66-.07l.22-.65c.05-.16.24-.71.38-.64l.62.32ZM229.2,108.27c.18-.14-.06-.78-.29-.88l-2.23-1c-.41-.19-.78-1.05-1.56-.99-.48.03-1.2.54-1.2,1.12l.94-.44c.53-.25,3.23,3.07,4.34,2.2ZM240.55,107.4c.11.17.78.49,1.04.38.21-.1.59-.43.71-.63l.86-1.33-3.22.71-.84-.68.52,1.1c-.21.05-.79.11-.72.2l.22.28c.43.53.87-.79,2.64-.34-.35.32-.38.36-.5.36l-.71-.04Z"/>
  <path d="M155.57,72.79l-.02.69c0,.15.42.05.81,0l.35,1.93c.03.18.17.59.26.74.33.61,1.4-.63,2.08,0,.43.39.56.7.6,1.44l1.91.92.24-.73.52,2.06c.09.34.46.8.66,1.08.43.69.88,1.66,1.23,2.42-.09,2.75-1.1,3.53-2.16,5.36-.36-.39-.64-.02-.86.31-.18.27-.12.56.18.96l-.87.15c-.2.66-.61,1.47-.63,2.13l-.03,1.12c-.03,1.03-2.91-.05-3.23,1.68l1.12-.53.15.66c.04.19-.32.36-.63.58l-.21,1.56c-.85-.44-1.05.73-1.64,1.01s-.93.57-1.01,1.29c-2.58.56-3.48,1.66-6.12,2.54-.59-.3-3.04-.8-3.75-.16l.02-.62c-2.81-1.14-1.66-2.33-6.1-3.02v-8.34c.02-.11.37-.57.39-.48l.18.69.49-.65c-.7-1.69-1.45-3.25-.87-5.36.44.45.72,1.01.96,1.58l.64,1.57c.17,0,.72-.21.86-.07l.85.86c-.52-2.22-.95-.52-1.46-3.47s1.36-2.5,1.49-3.45c-.04-.2-.66-.53-.58-.72.11-.27.31-.69.52-1.09l.45,1.85c.04.15.67.15.66-.01-.12-2-.8-1.12-.88-3.53-.07-2.14-.17-4.03.08-6.24-.89.81-.84,1.91-.76,2.99l.33,4.62-.99-1.79-.59.49c-.33.27-1.75-1.31-1.75-1.74l.02-6.23c0-.14.43-.65.49-.76s-.51,0-.51-.26V29.39s.64,1,.64,1c1.17-.1,2.06.79,2.36,1.96l.96-.08,1.34,1.66,1.19-1c.31.23,1.04.92,1.43.93l2.37.04c.17,0,.75.15.76.31l.06.84c.46-.04,1.47.29,1.6.72.03.09-.33.48-.35.38-.04-.13-.2.55-.06.59l1.43.43,1.49,3.05.51,1.53-1.05.79,1.32.82-.35,2.94c-.02.19.19.67.12.82-.1.2-.58.44-.71.64l-1.05,1.58c-.14.21-.38.56-.37.74.01.23.26.52.5.92-.21.31-.84.45-1.29.21l-.6,3.03c-.17.88-.29,1.61-.65,2.47l-.21,1.7c-2.21.87.57,1.86-.59,6.19l1.12-2.73v2.29c-.32.11-.55.38-.34.41l.82.1c.54.29-.99,1.42-.57,1.78.16.13.56.47.55.47l.35-.56c.04-.07.25-.06.24.02-.02.11-.09.43-.13.51l-.38.71c-.08.16.33.3.84.56-.36.39-.95.88-1.49,1.26-.24.24-.22,1.05-.11,1.41.72,2.52-.2,3.47.97,4.56.02-.58-.12-1.05-.34-1.59l.25-1.36c1.08.79.15,2.23.8,2.43l1.14.36c.09.03.09.41.1.5.02.14.31.35.4.32l-.08-.42c-.02-.08.02-.4.08-.34l.43.42.43.42c.11.11.64.03.59-.1l-.42-.86c-.25-.51,1.46-1,.75-1.69-.19-.19-.6-.41-.98-.61-.69-.36-.66-1.53-.36-2.14l-.39-1.29,2.82-.38.87-1.9,1.1,2.62-1.69.57c-.78.27-1,1.54-1.03,2.41ZM151.24,43.28c.06-.61.13-1.19-.17-1.76-.19-.37-.86-.61-1.48-.84l-.34-1.75.7-.37c.12-.07-.15-.63-.25-.65l-1.19,1.01-3.19-.44c-.73-.02-.93-3.12-1.72-2.35-.41.4.18,1.1.58,1.22l-.46.77s1.25,1.52,1.97,1.77c1.85,3.73-.35.18,1.69,4.49.37.77.06,2.08.84,2.76l1.73-.72c.5-.21,1.02-.33,1.06-.79l.22-2.35ZM144.66,42.09l-.79.12.83-1.35c-.5-.58-1.18-.95-1.92-.99l.96.88-3.21,1.53c.69.69,1.09,1.14,1.5,1.72l1.29.34c1.7.45-.09-1.31,1.33-2.26ZM144.83,76.81l-.32-1.78c-.21-.68-.24-1.35-.27-2.03-.14-3.42,1.73-3.73,1.54-4.22l-.21-.53-1.47,1.94c-.1.14-.46.4-.58.49-.08.07.43.36.43.47v2.29c0,1.29.06,2.51.88,3.37Z"/>
  <path d="M157.32,61.41c-.69-.16-.27-1.01-.27-1.69l-.02-1.73c0-.1-.36-.42-.29-.5l.41-.48c.09-.11.35.22.59.44.98-.7,1.1-1.97.46-3.23l1.41-.56c-.29-.75-.47-1.2-.62-1.69-.11-.36.64-.91,1.02-1.17-.14-.45-.67-1.52-.36-1.88.35-.41.72-.98.63-1.22-.46.17-.71.27-1.41.15l1.85-1.17-.61-.52c-.15-.13.29-.69.49-.75,2.28-.75,3.74-.46,4.57-2.8l.81-.99-.3,2.05-.29,2.51c-.65.86-2.22.44-2.86-.01l-1.14,2.66c-.07.17.11.65-.01.75l-.62.54c.43.24,1.07.56,1.25.9.25.47-.03,1.35-.39,1.56-.27-.18-.59-.52-.73-.42-.21.15-.68.48-.65.46.51.37.88.63,1.04.95.12.25-.08.63-.14,1.05l.03,1.01c0,.2-.57-.07-.81-.11-.07.75-.36,1.79-.94,2.07-.44-.2-.7-.29-.9-.14-.95.69-.02-.05.37,2.82l.37,2.75-1.04-2.09c-.09-.17-.47-.44-.64-.45-.16-.01-.13.32-.26.94Z"/>
  <path d="M263.36,123.3l1.94.56-.34,3.03c-2.18-.19-1.7-2-3.95-3.47l.06-.84-2.49-2.12c-.11-.61-.2-1.05-.43-1.67-.14-.37.22-.99.67-1.34.39-.3.87-.24,1.56.01l-.9.73c.51.16,1.29.43,1.29.79,0,.41,0,.93.13,1.16.16.27.74.21,1.43.15.02-.05-.16.33-.42.85l1.35.43.1,1.71Z"/>
  <path d="M229.53,172.27c-1.65.15-3.42-.31-5.18-.62l.31-1.05-1.11-.52c.07-.91.7-1.49,1.65-1.34.32.05.62-.01,1.14-.1-.25.63-.55.99-1.24,1.6l2.65.41.44-1.74c1.43-.09,2.19.38,2.42,1.67.09.51-.03,1.61-1.08,1.7Z"/>
  <path d="M151.31,148.75c-.96.73-1.81-.16-2.6-.64-.73-.44-1.46-.7-1.84-1.32l-.82-.7,2.77.52-.7-.78c-.14-.15.06-.64.23-.77l.66-.5c.15-.11-.26-.56-.45-.7-.15-.11-.26.03-.71.22-.04-.99.12-2.02.48-2.73l1.37,1.46c.62.67,1.42,1.39,2.41,1.41l.44.7c.12.2.65.23.98.29.02.02.02.41-.06.43l-.48.13c-.18.05-.59.32-.74.21l-.8-.59c-.02.43-.06,1.42-.36,1.64-.6.46-1.56-.25-2.38-.41.69.8,1.41,1.32,2.61,2.12Z"/>
  <path d="M210.31,108.94c-1.27-2.41-1.23-.69-2.28-1.98,2.98-1.47,1.64-5.27,2.53-4.88l-.74-.33.82-2.82c.32.11,1.13.71,1.12,1.15-.03,1.01-.58,2.01-.74,2.96-.12.75.68,1.85.15,2.64-1.78,2.66,0,2.4-.87,3.26Z"/>
  <path d="M233.28,151.37s-.21-.02-.26,0c-.09.03-.22.06-.22,0l.03-.64-.69.44c-.16.1-.47-.51-.65-.56l-1.07-.27c-.31-.08-.61-.87-.6-1.18l1.73-.24c.13-.02.5-.28.5-.41l-.05-.75.76.39c.82.41,1.18,1.09,1.32,1.96l.29,1.84-1.09-.56Z"/>
  <path d="M141.25,140.18c-.88-.15-1.81-.6-2.81-1.15l.03-3.33c1.19.6,2.31,1.32,3.06,2.18-.5.68-.45,1.37-.28,2.3Z"/>
  <path d="M254.67,159.31l.02,1.88-1.65.82-4.13-2.03.45-1.39c.44.62,1.21,2.06,2.04,1.93l2.19-.72c.11-.04.47.55.52.45l.55-.93Z"/>
  <path d="M201.17,75.92l-.95.11s-2.03-1.37-1.14-1.29l.62.06,1.05-.92c1.48.94,2.69,2.31,2.91,4.26-1.07-.39-1.89-1.38-2.49-2.22Z"/>
  <path d="M197.51,72.99c-.11-.04-.53-.4-.47-.49l.36-.57c-2.38-1.22.32-2.61-2.33-2.65l-.06-.51c-.02-.16.52-.1.69-.04l2.3.75c.03.76.11,1.75.35,2.28l.85,1.91-1.69-.67Z"/>
  <path d="M216.29,31.15c-.11.09.23,1-.04.79l-.48-.36-.76-.57c-.17-.13.11-.76.14-.87l-2.39-.33.02-.87c.98.65,2.77.06,5.09.94l-1.58,1.27Z"/>
  <path d="M164.54,42.88c-.17.27-1-.15-1.04-.31l-.17.5c-.03.09-.26.28-.3.19l-.32-.62c.71-.44,1.48-1.17,1.97-1.95l-.63-1.38c-.09-.19.66-.37.88-.29.24.09.58.51.54.76l-.08.6c-.02.14.41.05.69.08l-1.54,2.42Z"/>
  <path d="M257.21,111.9c.78.19,1.82.94,1.8,1.5,0,.17-.47.27-.65.19l-2.29-1.06c-.6-.43-1.21-1.44-1.7-2.11.81.38,1.23.68,2.04.47l.8,1.01Z"/>
  <path d="M147.18,125.38l-1.97-.24c-.42-.09-.77-1.27-.73-1.52l.85.42c.19.09.49-.47.7-.59.56-.32,1.87.16,2.04.86l-.88,1.06Z"/>
  <path d="M264.92,129.56c-.89.12-.86-1.8-2.54-.92l.14-2.24,1.61.91c.21.03.69-.07.79.09l.54.84-.56.21c-.16.06-.07.31.02,1.11Z"/>
  <path d="M211.41,85.93l-1.35-1.59,1.33-.92c.33-.23,1.3.5,1.39.8l-1.37,1.71Z"/>
  <path d="M223.8,37c-1.83-.04-2.46-3.44-2.84-2.9-.07.09.17-.29.25-.42.04-.06.18.18.24.22.09.05.38.08.35-.02l-.18-.53c-.09-.27-.2-.73-.19-.88l2.26.87-.07,1.27c-.02.26-.65.14-1.19.08l1.37,2.31Z"/>
  <path d="M245.6,153.34c.46-.54.71-.9.6-1.52l.47-.67c.6.54,1.36,1.32.96,2.11-.21.42-1.49.35-2.03.07Z"/>
  <path d="M141.35,142.11l-1.59-.14c-.8-.07-1.39-2.64-1.23-2.54l.56.34c.32.2.68.85.88,1.16.53.28,1.42.81,1.39,1.18Z"/>
  <path d="M153.22,129.28c-.89-.32-1.24-.4-2.22-.55-.32.07.32-.84.67-.83l2.28.04-.72,1.35Z"/>
  <path d="M225.88,85.43c-.47-.23-.44-.79-.37-1.39.24-1.98-.19-4.5.53-6.06.02.46-.05,1.01-.05,1.46l-.1,5.98Z"/>
  <path d="M216.41,28.63l-2.01-.34c.02-.31.03-.96.19-.97l.75-.05c.4.05.72.09.96.16.28.09.36,1.18.11,1.2Z"/>
  <path d="M224.6,160.99c.09.12.14.66.03.7l-.49.19c.13-.05-1.07-.97-1.07-2.22l-.61-.13c-.1-.02-.11-.25-.12-.35-.02-.15.7-.19.79-.07l1.48,1.89Z"/>
  <path d="M224.39,84.13c.08.99.01,1.98-.19,2.93-.29-2.19-.23-4.16-.07-6.19l.26,3.26Z"/>
  <path d="M213.13,90.55v-1.5c.02-.22.36-.48.75-.71.2.52.1,1.26-.08,1.88.02.1.08.39.09.48.02.13-.19.29-.32.31s-.44-.32-.44-.45Z"/>
  <path d="M260.11,158.51l-1.57,1.6c-.18-.71-.26-1.34-.25-1.66l1.82.05Z"/>
  <path d="M206.25,81.97l-2.52.23c-.05-.04-.32-.21-.33-.22,0,0,.24-.43.3-.48.57-.39,2.02-.09,2.55.46Z"/>
  <path d="M168.65,167.87l-2.9-2.87c1.29.39,2.6,1.34,2.9,2.87Z"/>
  <path d="M211.42,181.39l-.2-2.97c-.01-.16-.36-.63-.42-.78-.07-.19.34-.52.48-.51.58.12.39,4.39.13,4.27Z"/>
  <path d="M212.35,92.23l-1.09,1.01c-.69-.6-.38-1.43,0-2.04l.34.73c.06.12.17.1.74.3Z"/>
  <path class="cls-1" d="M200.17,146.45c-2.61.51-1.31,1.26-3.71,2.71l-2.29.94c1.31-1.25,2.16-1.75,1.92-3.47-.09-.69.77-1.73,1.53-1.69.33.02.86.57,1.05.89.29.47.88.56,1.31.31l.4-.23c.1-.06.47.32.36.36s-.46.17-.57.19Z"/>
  <path class="cls-1" d="M150.67,211.96c2.44-.4.85-1.88,3.82-3.22l-.22-.92c1.08-.23,2.05-.89,2.18-1.94l.06-.51c.15-1.18,1.65,1.18-.79,3.36l-3.57,3.2c-.41.36-1.2.3-1.49.04Z"/>
  <path class="cls-1" d="M200.02,156c-.09-.19-.18-.64-.03-.72l.92-.48c.31-.17.16-.97.03-1.6l2.76-1.38c.45-.22,1.31,1.07,1.1,1.37-1.74.76-3.21,1.67-4.78,2.81Z"/>
  <path class="cls-1" d="M248.8,187.52l-1.68.24c-.55-.75-.04-1.51.38-2.35s-.62-2.39-1.43-2.78l-1.93-.13.61-.33c.11-.06-.01-.31-.05-.69l2.03,1.02c.85.43,1.09,1.91,1.49,2.7l.89.98c.22.25.47.59.66.89l-.7-.11c-.14-.02-.19.31-.26.58Z"/>
  <path class="cls-1" d="M239.07,160.88s-.7.09-.98.1-.42-.71-.64-.93c-.4-.41-.88-.88-1.11-1.26-.32-.51.05-1.42.44-1.85.65.75,1.43,1.26,2.5,1.63l-.2,2.32Z"/>
  <path class="cls-1" d="M159.49,204.41c-.54.06-.94.23-1.6.61-.33-1.54,1.39-.99.31-2.15l1.49-1.08,1.52.24-.47,1.13-1.24,1.25Z"/>
  <path class="cls-1" d="M253.11,182.59c.61.44-.36,2.81-1.31,2.83-.42,0-.9-.77-.87-1.17.04-.51.41-1.12.79-1.55.33-.38.92-.44,1.39-.11Z"/>
  <path class="cls-1" d="M231.9,173.76c-3.09,1.23-.64-.2-3.28.59.07-.27.85-1.15,1.25-.99.37.14.7.28.92.31.26.04.77-.57,1.04-.61.94-.13,2.09,1.24,1.69,2.36l-1.63-1.66Z"/>
  <path class="cls-1" d="M191.06,150.38l.34-1.08c.61.16,1.34.21,1.62-.07-.21-.37-.6-1.26-.26-1.4.21-.08.82.17.79.35l-.14.77.51.04c.13.01.47.22.37.31l-.5.4c-.82.66-1.51,1.09-2.74.68Z"/>
  <path class="cls-1" d="M267.01,170.87c.01.7-1.15,1.46-1.92,1.5l1.48-2.04-3.54-3.1c.93.16,3.96,2.38,3.98,3.65Z"/>
  <path class="cls-1" d="M254.23,182.83c-.66-.8-1.4-1.59-2.16-2.15l-1.15-.15c.57-.31.99-.59,1.26-.6.07,0,3.25,1.36,2.05,2.89Z"/>
  <path class="cls-1" d="M146.04,206.05c-1.19-.24-.89-1.56-.31-2.57.29.23.67.59.85.9.21.36-.12,1.72-.54,1.67Z"/>
  <path class="cls-1" d="M206.9,183.68c-1.49-1.83,1.04-3.83-.07-3.58-.13.03.19-.14.33-.21,1-.47-.13,4.14-.26,3.79Z"/>
  <path class="cls-1" d="M216.36,149.2c-1.65-.44-3.12-.11-4.87.27.56-.75,3.34-1.22,4.35-.99l.55.13c.12.03.07.31-.02.59Z"/>
  <path class="cls-1" d="M182.7,185.43l-.03.89c-.52-.4-1.06-.77-1.24-1.09-.29-.5.11-1.21.59-1.48l-.05.98c0,.19.46.46.62.36.06-.04.34-.2.33-.2-.01,0,.13.09.17.12.07.05-.12.19-.39.43Z"/>
  <path class="cls-1" d="M240.83,184.49l-.94,1.93c0-1.12-.56-1.84-1.73-1.98l.03-.94,1.91,1.42.72-.43Z"/>
  <path class="cls-1" d="M259.82,171.54c1.77-2.34.48-2.95,2.18-4.64l-1,3.04c-.21.64-.39,1.38-1.18,1.59Z"/>
  <path class="cls-1" d="M209.3,141.96c-.95.25-1.8.4-3.25.59l.73-.92c.87.25,1.09.22,2.52.33Z"/>
  <path class="cls-1" d="M258.35,179.32c-.08.1-.64-.15-.57-.26l.41-.68c.32-.53.61-1.08,1.4-.73l-1.24,1.66Z"/>
  <path class="cls-1" d="M220.43,154.93c.08.46-.52.68-.95.81l-.7.2c-.19.05-.3-.38-.32-.6-.02-.18.38-.45.59-.45l1.38.05Z"/>
  <path class="cls-1" d="M306.09,193.78l-1.4.87-.89-1.66,1.06-.74.55-.61c.16-.18.81.27.82.51.01.36.14,1.46-.14,1.63Z"/>
  <path class="cls-1" d="M306.33,196.81c-1.06.97-1.86,2.35-2.14,1.75-.42-.9.06-2.49,1.09-2.77.21-.06.76,0,.95.08.24.09.28.77.1.94Z"/>
  <path class="cls-1" d="M306.37,190.49c-.5-.14-.86-1.1-1.07-1.87l2.13-.62-.34,1.81c-.04.19-.51.75-.71.69Z"/>
  <path class="cls-1" d="M310.37,190.07c-.25,1.09-1.36.75-1.97.81-.18.04-.3-.51-.23-.7s.44-.61.65-.56l1.56.45Z"/>
  <path class="cls-1" d="M281.96,150.93c-.88.31-1.16-1.36-1.45-1.09l-.39.37.3-2.18.93,1.62c.2.34.4.84.61,1.27Z"/>
  <path class="cls-1" d="M290.33,162.81c.27.07,1.59,1.69,1.1,2.02-.15.1-.5.23-.68.29s-.47-.5-.47-.7l.05-1.6Z"/>
  <path class="cls-1" d="M279.52,151.17c-.44-.09-1.25-.52-1.55-.98.03-.36.73-.83.97-.63.39.33.99.7.59,1.61Z"/>
  <path class="cls-1" d="M232.9,106.42l-.62-.32c-.15-.07-.33.48-.38.64l-.22.65c-.05.14-.52.12-.66.07l-3.51-1.37,1.28-.35-.43-.52c-.11-.13.56-.33.73-.32l1.86.18c.15.29.31.72.46.59l.8-.66c.35-.03,1.14.23,1.57.41l.29-.22c.11-.08.56-.1.53.03-.03.16-.14.58-.23.74-.2.35-1.05.67-1.46.46Z"/>
  <path class="cls-1" d="M245.17,83.11l-2.11.63c-.65.19-1.3.23-2.2.21l.16-.95c0-.32-.04-1.22.19-1.41l1.86.33,1.53.27c.33.06.67.07.84.18s-.04.66-.26.73Z"/>
  <path class="cls-1" d="M229.2,108.27c-1.12.87-3.81-2.45-4.34-2.2l-.94.44c0-.57.72-1.09,1.2-1.12.79-.05,1.15.81,1.56.99l2.23,1c.23.1.47.74.29.88Z"/>
  <path class="cls-1" d="M231.15,67.12l-.52-2.7,1.27,3.3,1.2-.62c-.51-.37-.63-1.06-.44-1.75l-.68-.51c-.16-.12-.03-.68.04-1.16.6.72.92,1.67,1.14,2.64.09.37.61,1.18.31,1.35l-2.03.68c-.04-.1-.17-.67-.28-1.22Z"/>
  <path class="cls-1" d="M181.36,26.97c-.24-.26-.07.22-1.32.47-.14.03-.24-.52-.13-.61l.45-.37c.1-.08.54-.26.46-.34l-.5-.47,1.19-.91.94,1.77-.58.99-.5-.53Z"/>
  <path class="cls-1" d="M240.55,107.4l.71.04c.12,0,.15-.04.5-.36-1.77-.46-2.21.87-2.64.34l-.22-.28c-.08-.1.51-.16.72-.2l-.52-1.1.84.68,3.22-.71-.86,1.33c-.13.2-.5.53-.71.63-.25.12-.92-.21-1.04-.38Z"/>
  <path class="cls-1" d="M245.21,88.5l.36.46c.05.06-.55.12-.6.06l-2.21-3.04c-.05-.07-.16-.45-.16-.53,0-.12.14-.3.26-.27s.43.25.51.35l1.01,1.25c.17.48.44,1.23.82,1.72Z"/>
  <path class="cls-1" d="M241.13,87.73l-2.27.29c.13-1.02.29-1.76.65-2.67.27.65.17,1.13.12,1.75.49-.19.97-.21,1.5.63Z"/>
  <path class="cls-1" d="M151.24,43.28l-.22,2.35c-.04.46-.56.59-1.06.79l-1.73.72c-.79-.68-.48-1.99-.84-2.76-2.04-4.3.15-.76-1.69-4.49-.71-.25-1.97-1.77-1.97-1.77l.46-.77c-.4-.13-.99-.83-.58-1.22.79-.77.99,2.33,1.72,2.35l3.19.44,1.19-1.01c.1.01.37.58.25.65l-.7.37.34,1.75c.62.23,1.29.47,1.48.84.3.58.23,1.15.17,1.76Z"/>
  <path class="cls-1" d="M144.66,42.09c-1.42.95.38,2.71-1.33,2.26l-1.29-.34c-.42-.58-.81-1.03-1.5-1.72l3.21-1.53-.96-.88c.73.04,1.42.41,1.92.99l-.83,1.35.79-.12Z"/>
  <path class="cls-1" d="M144.83,76.81c-.82-.86-.89-2.08-.89-3.37v-2.29c0-.11-.51-.4-.43-.47.11-.1.47-.36.58-.49l1.47-1.94.21.53c.2.49-1.68.8-1.54,4.22.03.69.06,1.35.27,2.03l.32,1.78Z"/>
</svg>