<?xml version="1.0" encoding="UTF-8"?>
<svg id="Layer_2" data-name="Layer 2" xmlns="http://www.w3.org/2000/svg" viewBox="0 0 432 288">
  <defs>
    <style>
      .cls-1 {
        fill: #fff;
      }
    </style>
  </defs>
  <path class="cls-1" d="M-1.04,288.15V.15h432v288H-1.04ZM203.33,212.54c0,.35.06.5-.05.49l-.56-.02.18-.52-3.07-.74c-.15-.04-.59-.02-.73-.02-.09,0,.12-.27.18-.33l.47-.44-.84.07c-.98-.68-1.9-.98-3.37-.71-.01.1-.17-.15-.38-.54,1.51-1.18,2.6.88,3.5-.87l-1.38-.12c-.18-.02-.74-.64-.43-.4,3.88.22.53-.54,3.32.29.15.04.43-.21.59-.28,1.82.1,3.64.29,5.55.51l22.04,2.46,7.98.94,36.12,4.37,15.5,1.83,14.81,1.75,5.27.66c1.13.14,2.03.2,3.26.42l-.65-.85c.06-.1.21-.34.19-.34-.03,0,.22.05.34.08l1.48.36-.26.84,3.29.35,5.33.72c.17.02.47.08.61.1.08.02.06.2-.02.24-1.17.56-3.15,1.77-4.21,2.62-1.12.89-1.91,1.44-3.37,1.27l-8.62-.99-7.44-.93-8.9-.97c.61.71.85.99.86,1.79,0,.4,1.08.1,1.28-.38.1-.22.69-.6.72-.39l.11.75c.02.13-.14.64-.02.59.08-.04.31-.11.4-.1l.87.14.14-.48.18-.62c.03-.08.2-.06.23.02l.21.52c.08.2.13.54.1.71,0,.03-.2.27-.18.3l.37.42s-.25,0-.34-.02l-.42-.1.26.42c.12.06.14.49-.02.57l-.67.33c.8.15,1.27.27,1.72.72l-1.97-.07c.1.29.14.44.14.43.32.04.64.08.57.1l-.34.11c-.06.02-.34.13-.38.19l-.89,1.07s.45.43.59.55l-.95,2.15c-.07.16-.39.49-.48.39l-.46-.48-.86-.23c1.24-.58-1.48-1.36-1.78-2.89-.17-.83-.96-1.03-1.62-.89l2.38,2.85c.58.69,1.31,1.55,1.79,2.27.29.43,1.55.51,1.78.11.55-.97,1.1-2.13,2.16-2.33l-.28.67c-.18.44.18.17.78-.19.12-.07.43.31.32.39l-.47.35c-.2.15-.6.65-.43.82.14.14.66.53.86.53,2.21,0,4.81-.01,7.01-.13,3-.16,5.79-.23,8.83-.04,2.85.18,5.97,1.66,7.84,3.7,2.68,2.9,6.2,8.66,8.35,9.97.69.42,1.77,1.08,2.45,1.28,2.27.66,4.23,2.32,4.03,4.8-.03.4,1.5,1.97,1.03,1.6l3.7,2.97c.27.22,1.05.55,1.42.55,1.84.01,3.95.08,5.85.13l8.59.25,8.45.23,8.59.25,7.95.23c1.74.05,3.39.15,5.18.08l-15.65-19.91L234.72,70.45l-.36-2.25c-1.49,1.33-2.95,2.08-4.62,2.9-1.9.94.13,2.13-1.61,3.41l-3.9,2.87-9.31,7.21-5.28,3.84-3.43,2.6-9.2,6.86-8.35,6.06-8.72,6.38-5.79,4.29-7.64,5.56-4.27,3.16-3.76,2.8-28.63,20.49-10.52,7.54-24.05,17.17-5.75,4.15-9.16,6.65-1.95,1.41-2.07,1.53-1.66,1.22-4.99,3.66-2.79,2.03-6.2,4.57-10.33,7.69c-.46.34-1.03,1.02-1.31,1.41l-.42,1.45c.27.82,1.18,2,1.74,2.77l6.33,8.78c.83,1.15,1.8,2.09,3.09,2.69l7.89,3.64c.79.36,2.27.99,3.07.41l10.99-8.02,12.66-9.42,7.07-5.42c-.33-.56-.53-.94-.75-1.4l-.29-.6c-.06-.13.45-.15.53-.27s.18.05.45.38l.38.41c.27.29-.12-1.5.38-1.22l.56.31c.66-.03,1.37.06,1.82.56-.81.28-1.52.19-2.19-.13l-.38.61.98.53-1.74-.12c.13.38,1.09.99,1.54.88.11-.03.43-.35.49-.44-.43.69,3.87,1.1,4.4,1.15l10.69,1.14,3,.38,2.43.23,5.45.53,1.89.08c.6.02,1.42.48,1.95.19l-.69-.26c-.1-.04.2-.37.3-.33l1.64.57c-.48.3-.54.37-.05.32l7.5.77,5.27.43c2.13.17,4.2,1.1,4.4.07.02-.11.35.55.46.56l2.83.16,1.1.23c.25.05.55-.48.91-.94.87,1.07,1.81,1.26,3.04,1.39l9.12.96,13.2,1.46,13.2,1.44,9.13.98c.13,0,.44-.29.62-.54-.41-.38-1.08-.49-1.71-.46ZM72.43,177.74l-1.3-.63c.81-.64,1.67-1.19,2.69-1.69l-.45.79c-.07.12.1.56.17.65l1.49-1.13c.29-.21.29-1.01.12-1.49-1.27,1.11-2.66.48-3.85,1.02-1.83.84-3.65,2.6-5.02,3.95l-.5,1.72c1.79-1.31,3.39-2.54,5.1-3.48l1.56.28ZM283.86,223.19l-2.9-.37c.23.55.66,1.1,1.07,1.39.52-.75.92-.83,1.83-1.02ZM350.47,277.06c-.44-.44-1.55-.72-2.55-.48.35.52,1.01.87,1.63,1.07l.63.2c.13.04.39-.69.3-.79Z"/>
  <path d="M72.43,177.74l-1.56-.28c-1.71.94-3.31,2.17-5.1,3.48l.5-1.72c1.37-1.35,3.19-3.11,5.02-3.95,1.19-.55,2.59.09,3.85-1.02.17.48.17,1.28-.12,1.49l-1.49,1.13c-.07-.09-.24-.52-.17-.65l.45-.79c-1.02.5-1.88,1.04-2.69,1.69l1.3.63Z"/>
  <path d="M350.47,277.06c.09.09-.17.83-.3.79l-.63-.2c-.62-.2-1.27-.55-1.63-1.07,1-.24,2.11.04,2.55.48Z"/>
  <g>
    <path d="M203.33,212.54c.63-.04,1.3.08,1.71.46-.19.24-.5.53-.62.54l-9.13-.98-13.2-1.44-13.2-1.46-9.12-.96c-1.23-.13-2.17-.31-3.04-1.39-.35.46-.65.99-.91.94l-1.1-.23-2.83-.16c-.11,0-.44-.67-.46-.56-.2,1.03-2.27.1-4.4-.07l-5.27-.43-7.5-.77c-.49.04-.44-.02.05-.32l-1.64-.57c-.1-.03-.4.3-.3.33l.69.26c-.53.28-1.35-.17-1.95-.19l-1.89-.08-5.45-.53-2.43-.23-3-.38-10.69-1.14c-.52-.06-4.83-.46-4.4-1.15-.06.09-.38.41-.49.44-.45.11-1.41-.5-1.54-.88l1.74.12-.98-.53.38-.61c.67.32,1.38.41,2.19.13-.45-.5-1.15-.59-1.82-.56l-.56-.31c-.5-.28-.11,1.51-.38,1.22l-.38-.41c-.27-.33-.38-.49-.45-.38s-.59.15-.53.27l.29.6c.22.46.42.84.75,1.4l-7.07,5.42-12.66,9.42-10.99,8.02c-.8.59-2.28-.05-3.07-.41l-7.89-3.64c-1.29-.59-2.26-1.53-3.09-2.69l-6.33-8.78c-.56-.77-1.47-1.95-1.74-2.77l.42-1.45c.29-.39.86-1.07,1.31-1.41l10.33-7.69,6.2-4.57,2.79-2.03,4.99-3.66,1.66-1.22,2.07-1.53,1.95-1.41,9.16-6.65,5.75-4.15,24.05-17.17,10.52-7.54,28.63-20.49,3.76-2.8,4.27-3.16,7.64-5.56,5.79-4.29,8.72-6.38,8.35-6.06,9.2-6.86,3.43-2.6,5.28-3.84,9.31-7.21,3.9-2.87c1.74-1.28-.29-2.47,1.61-3.41,1.66-.83,3.13-1.57,4.62-2.9l.36,2.25,134.31,170.38,15.65,19.91c-1.8.06-3.45-.03-5.18-.08l-7.95-.23-8.59-.25-8.45-.23-8.59-.25c-1.9-.05-4.01-.12-5.85-.13-.38,0-1.15-.33-1.42-.55l-3.7-2.97c.47.37-1.07-1.2-1.03-1.6.21-2.48-1.76-4.14-4.03-4.8-.68-.2-1.76-.86-2.45-1.28-2.15-1.31-5.67-7.06-8.35-9.97-1.87-2.03-4.99-3.52-7.84-3.7-3.04-.19-5.84-.12-8.83.04-2.2.12-4.81.13-7.01.13-.2,0-.72-.38-.86-.53-.17-.17.23-.68.43-.82l.47-.35c.11-.08-.21-.46-.32-.39-.6.36-.97.63-.78.19l.28-.67c-1.05.2-1.6,1.37-2.16,2.33-.23.4-1.49.32-1.78-.11-.48-.72-1.22-1.58-1.79-2.27l-2.38-2.85c.66-.14,1.45.06,1.62.89.31,1.52,3.03,2.31,1.78,2.89l.86.23.46.48c.09.1.41-.23.48-.39l.95-2.15c-.14-.13-.64-.6-.59-.55l.89-1.07c.04-.05.32-.17.38-.19l.34-.11c.07-.02-.25-.06-.57-.1,0,0-.04-.14-.14-.43l1.97.07c-.45-.45-.92-.57-1.72-.72l.67-.33c.16-.08.13-.51.02-.57l-.26-.42.42.1c.08.02.38.07.34.02l-.37-.42s.18-.26.18-.3c.03-.17-.02-.51-.1-.71l-.21-.52c-.03-.08-.21-.11-.23-.02l-.18.62-.14.48-.87-.14c-.09-.01-.32.06-.4.1-.12.05.04-.46.02-.59l-.11-.75c-.03-.21-.63.17-.72.39-.21.48-1.28.78-1.28.38-.01-.8-.26-1.08-.86-1.79l8.9.97,7.44.93,8.62.99c1.47.17,2.25-.38,3.37-1.27,1.06-.84,3.03-2.05,4.21-2.62.08-.04.1-.22.02-.24-.13-.03-.44-.08-.61-.1l-5.33-.72-3.29-.35.26-.84-1.48-.36c-.11-.03-.36-.08-.34-.08.02,0-.13.24-.19.34l.65.85c-1.23-.22-2.14-.28-3.26-.42l-5.27-.66-14.81-1.75-15.5-1.83-36.12-4.37-7.98-.94-22.04-2.46c-1.91-.21-3.73-.41-5.55-.51-.16.07-.44.33-.59.28-2.8-.82.55-.06-3.32-.29-.31-.24.25.38.43.4l1.38.12c-.9,1.75-1.99-.31-3.5.87.21.39.37.64.38.54,1.46-.27,2.39.03,3.37.71l.84-.07-.47.44c-.06.06-.27.32-.18.33.13,0,.57-.01.73.02l3.07.74-.18.52.56.02c.11,0,.04-.15.05-.49ZM171.55,184.53l.4-1.83c.06-.26-.12-.79-.33-.89s-.61.27-.82.61c-.04,0-.46.02-.45.02-.67-2.07-.96-.04-2.52-2.57l-1.21.7,1.21,1.12-.94.25c-.44-.36-.8-.57-1.52-.91-.04,0,.12-.7.22-.94.08-.21.61-.3.88-.39l1.57-.53-.8-.52c-.16-.1-.47.18-.8.31-.24-.11-.71-.56-.67-.84l.18-1.19c-.64.26-1.37,1.46-.98,2.02l.59.57c.08.08-.1.33-.21.33s-.48,0-.6,0l-1.4-.91-1.29,2.32c-.06.11-.15.4-.18.5s.37.1.45.04c.16-.11.49-.68.64-.58l.82.56-1.99.86c-.7.3-1.52,1.68-2.25,2.07-.15.08-.82.08-.8-.07.02-.1.07-.53.11-.64l.86-1.95.94-1.4c.81-1.2.69-2.38.83-3.84.1-1.06.67-2.39,1.03-3.39.4-1.11,1.51-.95,2.3-.52.12.06.67.08.64.21l-.16.66c-.56,2.23,1.5-1.21,1.56-.33-.46.99-.77,1.79-.62,2.68.36-.93.66-1.73,1.09-2.54l3.08,1.05.42,1.07.36-.78,3.02.82-.98,1.91c-.26.52-.71,1.09-1.05,1.51-1.61-.35-2.8-1.33-3.05-2.92l-1.21,1.19,2.33,1.53-.17,1.21c.84.38,1.11.55,1.74,1.03l1.59-2.22,1.6-1.95c.62-.76,1.41-.68,2.11-.4.24.09,1.08.52.86.74l-3.43,3.47-1.22.72,1.19-.06c.01.5-2.4,2.08-1.11,2.36,2.15.47.82.95,1.71,1.31.3.12,1.14-.05,1.49.03.78.18,2.07.48,2.85-.38l-2.01-.74.58-1.25c-1.24-.1-1.66.52-3.03,1,.31-1.16,3.63-3.98,3.81-4.55s.32-1.09.53-1.39c.18-.28.97-.29,1.28-.19l.69.23c.14.05.03.76-.08.87l-1.63,1.59c.21.51,2.06,1.3,2.06.84,0-.16-.03-.59-.01-.78.07-.97,2.38-.43,2.62-.72l.71-.83c.14,1.23.54,2.13,1.49,3.06l-1.23,1.64c.07.91-.6,1.39-.82,2.01l-.75,2.13,49.85,5.56,24.61,2.78,30.03,3.39c-1.46-.64-2.88-.62-4.36-.78l-2.12-.23-3.26-.43c-.73-.1-1.59-.36-2.29-.67-2.07.4-1.26.28-3.63-.28l14.35-.15c3.22-.03,4.37-.24,7.56-1.15-.71-1.77-2.44-3.88-3.77-5.35l-1.61-1.78-3.1-3.38-1.71-1.89-2.52-3.01c-1.11-1.33-2.29-2.47-3.58-3.61l-2.04-1.81-3.49-3.2c.83-.44,1.65-1.09,2.23-1.74l.93.09.11-.61c.02-.1.21.09.49.34l.46-.1-24.03-27.61c-.36.6.2.83.47,1.3-.27.79-1.75-.38-1.72.26l.04.78-2.13-2.62c-3.82-4.7-9.09-10.47-14.78-12.82l-4.25-1.76-8.22-9.75-2.3-2.74-10.34,7.8-31.99,23.84-4.28,3.2-2.33,1.74-1.81,1.32c-.11.08-.45.19-.53.1s-.2-.32-.11-.39l.4-.32c.32-.25.46-.73.6-1.45.03-.07.49.2.9.47-.06.1.45-.59.27-.68l-.64-.32,1.08-.57c-.33-.3-.98-.66-.83-.87l.78-1.08c-1.03.5-1.56.89-2.55,1.83l-.49-1.52-1.54.44-.45,2.29c-.54-.75-.74-1.31-.78-2.03l1.21-.44-.83-.3c.51-.6.89-1.03,1.24-1.52l.36-.5c.05-.07.09.23.08.32l-.07.5c1.12-.21.26-1.37.82-1.43l.72-.07-1.6-.73c.17-.16.48-.47.32-.32l-1.58-.33-1.31,1.03c-.13.11-.39.51-.26.59l.67.45c-.38.01-.89,0-1.22-.02-.27,1.3-3.84.61-1.78,1.17l.65.18c-.04.26-.68.74-1.04.73-.25,0-.46-.13-.87-.32l-2.73,2.11-2.22,1.7c-.79.6-1.49.7-2.6,1.63l-.07.77c0,.07-.21-.19-.27-.24l-.28-.24-.29.56c-.05.1-.31.04-.54.03l-.51,1.65c-.47-.3-.76-.6-.92-.48l-.77.6c-.8.62-1.67,1.2-2.38,1.9-.51.49-.94.86-1.55,1.18-.01-.02.22.3.3.4-.39.98-1.4.93-2.21,1.29-.29.13-3.86,2.24-1.91,1.68l.53-.15v.65c0,.1.48.09.49,0l.07-.4,1.81-1.1,1.36-1.04c.82-.63,1.66-1.23,2.58-1.21l-.48.86c-.07.13.25.39.39.38s.63-.12.75-.23l2.53-2.19c.24-.21.72-.24,1.23-.18-.87,1.01-1.62,1.78-2.57,2.73s-2.56,1.03-2.51,1.66l.1,1.03c-.44-.09-.9-.19-.97.01-.1.3-.15.76-.29.73l-.77-.14c-.18-.03-.47.03-.54.18-.05.11-.23.43-.1.42l.69-.05c2.62-.18,1.53-1.06,4.97-1.72-.05,1.26-1.18,1.16-1.85,1.28l-.83.75-.97.93.74.58c.62.49-1.33.66-1.38,1.24-.03.03-.41.03-.42.14l-.04.54c-.02.34-.25.98-.63,1.12-.29.11-.69-.05-1.07-.14-.16-.04-.28-.27-.22-.58.09-.52,1.08-.05.56-.7-.07-.09-.34-.24-.4-.14-.04.06-.21.37-.27.42l-1.7,1.32c-.18.14-.5.5-.41.65l.47.85c-.24-.1-.69-.59-.97-.97l-1.12,1.15c.86,1.61,1.36.14,2.31,1.35l-1.61.32-1.74,1.66-2.77,2.33c-.91.77-1.65,1.19-2.73,1.71-.93.45-1.84,1.6-2.74,2.17-.81.5-1.43.92-2.11,1.49l7.87.92,10.43,1.15c.2.02.74-.1.91-.19.95-.51-1.17-2.23,2.44-4.49.45-.28,1.15-.89,1.53-1.2,1.93-2.5,4.62-4.54,7.16-6.36.49-.1,1.65.29,1.82.43l-1.19.94c-1.01.79-2.07,1.91-3.1,2.55-1.14.71-2.03,1.19-2.95,2.24l-1.05,1.21c-.23.27-1.05.27-1.23.78l-1.48,4.22c1.05.18,2.15.41,3.35.52l4.55.45,3.16.21,2.41.43,4.69.37.06-1.26c.01-.24.26-.73.46-.84.78-.44,1.03,1.61,2.48.72ZM230.63,116.74c-.15-.36-.8-.53-1.15-.27l2.02,2.35-.87-2.08ZM231.4,119.1c-.26-.33-1.32-.08-1.59-.32l-1.1-.99c.04-.21.15-.56.04-.54-1.62.4-.18-.24-.18,1.68l.97.18c.41.56.87,1.03,1.63,1.54.23-.37.49-1.24.24-1.55ZM228.8,123.52l.12-1.45c.01-.16-.35-.68-.48-.59l-.46.32-.48-1.31-2.02-1.07.51.83c.07,0-.29.02-.41.03-.1,0-.04.34.05.37l.45.16c0,.3-.08.8.13.97.27.22.8.47,1.12.63l1.46,1.1ZM235.21,127.8c.06-.13.13-.52.06-.68l-1.42-3.41-2.31-1.63c-.15-.11-.55.18-.55.34l.03.77c-.54.25-1.12-.53-1.43-1.27-.86.57.56,4.41,1.83,3.69.72-.41-1.03-.62-1.38-1.59,1.47.26,1.95,1.38,2.49,2.54l.2.43c.03.07-.19.02-.27.02h-.51c.54.44,2.87,1.7,3.26.79ZM187.02,137.04c.24.02.69.15.77,0l.33-.55.4-.67c.09-.14-.24-.49-.29-.49l-1.34,1.15c-.45.19-.74.4-1.03.92l.66.15c.12.03.34-.54.49-.52ZM182.41,140.84c.26.06.64.2.62.09-.01-.08-.09-.39-.1-.46l.37-1.14c.07-.51-2.18,2.42-1.8,2.41l.91-.24c.16-.04.01-.49,0-.66ZM178.71,143.82l1.27-.91s.25.25.32.19l.38-.34c.22-.2.67-.41.64-.62l-.1-.8c-.02-.14.37-.55.27-.66l-.46-.51c-.28.37-.76.62-1.29.74l.22.47c.03.07.05.06.12,0l.47-.37c.12.76-.4,1.48-1.28,1.66l-.56,1.14ZM138.75,173.29l-1.33-.07.09,1.1c.61.23,1.73-.45,1.24-1.03ZM180.74,184.35c.21.05.76.08.76-.09v-.79c-.01-.3.02-1.16-.25-1.32-.43-.26-1.37.22-1.82.75l.94.76-.34.38c-.05.06-.05.14.03.16l.69.16ZM112.24,199.8c-3.28-2.19-3.21-.39-4.62-1.02-.87-.39-1.56-.72-2.4-.33-.72-.33-2.01-.38-2.88-.17l-.51-.47c-.72.12-1.75.13-2.43-.22l-.82.77c.47.1,1.05.19,1.67.27l1.86.23c.63.08,1.73.18,2.26.38.19.07.4.66.58.62l.61-.12-.48-.28c-.7-.4,1.8-.1,1.69-.12,1.79.31,3.68.71,5.49.46ZM293.42,200.08l-.95-1.27c-.42-.55-1.17-1.06-1.96-1.41l1.85,2.09c-1.15-.11-2.11-.2-3.28-.03l4.33.61ZM114.25,200.27c-.48-1.34-1.77-1.33-2.63-1.3,1.01.7,1.74,1.12,2.63,1.3ZM164.68,206.98c-.36-.46-.85-.97-1.13-1.1-1.8-.26-3.58-.46-5.32-.63l-6.39-.63-4.57-.55c.18.02-4.23-.02-5.07-.53,2.98-.4,3.98.07,6.31.22,2.86.17,3.22.49,6.14.73l6.36.54c.64.05,1.27.07,1.92.18l3.31.59-.45-.57c-.1-.12.59-.23.68-.36s.29.43.4.58l2.25.56-1.53-.8c-.05-.14-.03-.49-.19-.51l-.91-.09-3.09-.32-5.79-.64-4.32-.46-9.13-.98-12.23-1.24-3.85-.4-13.96-1.49c.73.67,1.65,1.12,2.47,1.41.3-.35.84-.83,1.04-.6l.88,1.01c.38.44,3.97-1,5.58.77.05.06-.14.11-.22.12l-.63.07c-.01.33.91.95,1.34,1.04.2.04.5-.53.49-.59.69.71,2.57.87,3.41.54l.98.54c.22.12.72-.37,1-.34l2.26.24c1.07.12,2.22.85,3.4.75,1.04-.09,2.25.39,3.29.36,3.37-.09,1.65.12,4.63.71.18.04.37-.46.48-.66,1.75,1.64,2.95-.17,4.36,2.14.1-.48.15-1.08.4-1.05,2.71.35,3.21-.24,5.35.67l.47-.55c1.11.39,2.05.62,3.24.73l3.42.3c.07,0,.29.27.35.31.05.03.17,0,.18-.07l.06-.42,2.35.46ZM109.23,202.19c.16.03.3-.49.17-.56l-.59-.31c-.47-.24-.75-.54-.86-1.15l-1.6-.2c.22,1.47,3.06.81,1.58,1.95l1.29.27ZM111.77,201.02c.18-.66-2.6-1.09-2.52-.79.54.73,1.17,1.2,1.71,1.28-.22-.47-.41-.9-.39-.86l1.2.37ZM87.96,202.15c0-.25-.03-.54.12-.55l.81-.06c-1.31-.74-1.93-1.35-2.83-.61-.13.11.27.59.42.65l1.48.57ZM122.32,201.8c-.86-.18-1.81-.32-2.79-.21.36.52,1.24,1.13,1.67.94l1.12-.73ZM170.71,207.42l.6-.78-3.43-.34-3.77-.37c1.33.95,3.05,1.67,4.11,1.52,1.32-1.17,2.04.56,2.5-.03ZM81.77,210.41c-.7.03-1.33.1-2.08.21l-.56.19c-.14.05-.19.78-.31.86l-3.16,1.93c-.56.34-.9.65-1.55,1.22,1.63,1.04,6.87-2.75,7.66-4.4ZM282.54,215.36l-3.99-.59-2.43-.2c1.12.83,2.4.53,3.64.67.94.1,1.83.69,2.78.12ZM285.71,215.98l1.88.3c-.53-.67-1.16-.54-1.82-.62l-3.19-.38c.57.43,1.13.55,1.99.71,1.81.33-.52.55,2.64.88l-1.49-.88ZM308.03,218.24l-1.87-.19-7.67-.96-3.85-.48c-1.28-.16-2.45-.28-3.62-.14l2.25.3,4.3.59,6.99.81c2.37.28,4.62.86,7.31.77-1.14-.41-2.38-.57-3.84-.72ZM317.42,219.74c-1.85-.6-3.28-.68-4.95-.76,1.7.81,3.42.83,4.95.76ZM337.04,244.88c-.86-1.44.72-1.05-1.48-3.19-.92-.9-1.8-2.18-2.9-2.75l-1.81-.94c-.86,1.89.61,3.48,1.75,4.79,1.05,1.2,2.98,3.17,4.44,2.09ZM348.42,254.06c-.95,0-1.6.13-2.31.57-.37.18-1.28.29-1.68.33l-.7-.89-1.04.52c-.21-.5-.18-.41-.21-.52s-.59,0-.55.11c.05.11.22.51.21.5l-1.7-.63-1.83-.76c.27,1.14,3.05,3.52,4.21,3.24l3.95-.95c2.17-.52,5.2-.66,6.01-1.37l-2.55-.36c-.44-.06-1.35.21-1.82.21Z"/>
    <path d="M283.86,223.19c-.91.18-1.31.27-1.83,1.02-.41-.29-.83-.84-1.07-1.39l2.9.37Z"/>
    <path class="cls-1" d="M164.68,206.98l-2.35-.46-.06.42c0,.07-.12.1-.18.07-.06-.04-.28-.3-.35-.31l-3.42-.3c-1.2-.1-2.13-.34-3.24-.73l-.47.55c-2.14-.91-2.64-.32-5.35-.67-.26-.03-.3.57-.4,1.05-1.41-2.32-2.61-.51-4.36-2.14-.11.2-.3.7-.48.66-2.97-.59-1.26-.8-4.63-.71-1.03.03-2.25-.45-3.29-.36-1.18.1-2.33-.64-3.4-.75l-2.26-.24c-.28-.03-.78.46-1,.34l-.98-.54c-.84.34-2.72.18-3.41-.54.01.07-.28.64-.49.59-.44-.09-1.36-.71-1.34-1.04l.63-.07c.08,0,.28-.06.22-.12-1.61-1.77-5.2-.33-5.58-.77l-.88-1.01c-.2-.23-.74.25-1.04.6-.82-.28-1.74-.74-2.47-1.41l13.96,1.49,3.85.4,12.23,1.24,9.13.98,4.32.46,5.79.64,3.09.32.91.09c.16.02.14.37.19.51l1.53.8-2.25-.56c-.11-.14-.32-.71-.4-.58s-.77.23-.68.36l.45.57-3.31-.59c-.65-.12-1.28-.13-1.92-.18l-6.36-.54c-2.92-.25-3.28-.56-6.14-.73-2.33-.14-3.33-.62-6.31-.22.85.51,5.25.55,5.07.53l4.57.55,6.39.63c1.75.17,3.52.37,5.32.63.29.13.77.64,1.13,1.1ZM135.84,202.43c-.89-.16-1.98-.17-2.97-.29l-2.28-.28c-.4.22-.32.12.12-.29l-2.27.08c-1.28.04-2.57-.55-3.96,0l10.69,1.27,5.36.72c.35.05,1.24-.24,1.46-.31-.73-.13-1.6-.39-2.13-.44l-1.91-.15c-.73-.06-1.38-.18-2.12-.31Z"/>
    <path class="cls-1" d="M337.04,244.88c-1.46,1.07-3.39-.89-4.44-2.09-1.14-1.31-2.6-2.9-1.75-4.79l1.81.94c1.11.57,1.98,1.85,2.9,2.75,2.2,2.14.62,1.75,1.48,3.19Z"/>
    <path class="cls-1" d="M348.42,254.06c.48,0,1.38-.27,1.82-.21l2.55.36c-.81.71-3.84.85-6.01,1.37l-3.95.95c-1.16.28-3.94-2.09-4.21-3.24l1.83.76,1.7.63s-.17-.39-.21-.5c-.04-.1.52-.21.55-.11s0,.02.21.52l1.04-.52.7.89c.4-.04,1.31-.15,1.68-.33.71-.44,1.36-.57,2.31-.57Z"/>
    <path class="cls-1" d="M112.24,199.8c-1.81.25-3.7-.15-5.49-.46.11.02-2.4-.28-1.69.12l.48.28-.61.12c-.19.04-.4-.55-.58-.62-.53-.2-1.63-.3-2.26-.38l-1.86-.23c-.62-.08-1.2-.18-1.67-.27l.82-.77c.68.35,1.71.34,2.43.22l.51.47c.87-.21,2.16-.16,2.88.17.84-.39,1.54-.06,2.4.33,1.41.63,1.35-1.17,4.62,1.02Z"/>
    <path class="cls-1" d="M81.77,210.41c-.79,1.65-6.02,5.43-7.66,4.4.65-.57.98-.87,1.55-1.22l3.16-1.93c.13-.08.17-.81.31-.86l.56-.19c.75-.11,1.38-.18,2.08-.21Z"/>
    <path class="cls-1" d="M170.71,207.42c-.46.6-1.18-1.13-2.5.03-1.06.15-2.78-.57-4.11-1.52l3.77.37,3.43.34-.6.78Z"/>
    <path class="cls-1" d="M308.03,218.24c1.45.15,2.69.31,3.84.72-2.69.09-4.94-.5-7.31-.77l-6.99-.81-4.3-.59-2.25-.3c1.16-.14,2.34-.02,3.62.14l3.85.48,7.67.96,1.87.19Z"/>
    <path class="cls-1" d="M231.4,119.1c.25.31,0,1.18-.24,1.55-.76-.51-1.21-.98-1.63-1.54l-.97-.18c0-1.93-1.45-1.29.18-1.68.11-.03,0,.32-.04.54l1.1.99c.28.25,1.33,0,1.59.32Z"/>
    <path class="cls-1" d="M293.42,200.08l-4.33-.61c1.16-.17,2.13-.07,3.28.03l-1.85-2.09c.79.35,1.55.85,1.96,1.41l.95,1.27Z"/>
    <path class="cls-1" d="M285.71,215.98l1.49.88c-3.16-.33-.83-.54-2.64-.88-.86-.16-1.41-.28-1.99-.71l3.19.38c.66.08,1.29-.05,1.82.62l-1.88-.3Z"/>
    <path class="cls-1" d="M109.23,202.19l-1.29-.27c1.48-1.14-1.36-.48-1.58-1.95l1.6.2c.11.6.39.9.86,1.15l.59.31c.13.07-.01.59-.17.56Z"/>
    <path class="cls-1" d="M282.54,215.36c-.96.56-1.84-.02-2.78-.12-1.24-.13-2.52.17-3.64-.67l2.43.2,3.99.59Z"/>
    <path class="cls-1" d="M87.96,202.15l-1.48-.57c-.15-.06-.56-.54-.42-.65.9-.74,1.53-.13,2.83.61l-.81.06c-.15.01-.12.31-.12.55Z"/>
    <path class="cls-1" d="M317.42,219.74c-1.53.08-3.25.05-4.95-.76,1.67.08,3.11.16,4.95.76Z"/>
    <path class="cls-1" d="M122.32,201.8l-1.12.73c-.43.19-1.31-.43-1.67-.94.98-.11,1.93.03,2.79.21Z"/>
    <path class="cls-1" d="M111.77,201.02l-1.2-.37s.18.38.39.86c-.54-.08-1.17-.55-1.71-1.28-.09-.29,2.69.14,2.52.79Z"/>
    <path class="cls-1" d="M114.25,200.27c-.89-.18-1.62-.6-2.63-1.3.86-.03,2.15-.04,2.63,1.3Z"/>
    <path class="cls-1" d="M230.63,116.74l.87,2.08-2.02-2.35c.34-.27,1-.09,1.15.27Z"/>
    <path d="M135.84,202.43c.73.13,1.39.25,2.12.31l1.91.15c.53.04,1.4.31,2.13.44-.22.07-1.11.36-1.46.31l-5.36-.72-10.69-1.27c1.39-.54,2.68.05,3.96,0l2.27-.08c-.44.4-.52.5-.12.29l2.28.28c.99.12,2.07.13,2.97.29Z"/>
    <g>
      <path class="cls-1" d="M171.55,184.53c-1.45.9-1.69-1.16-2.48-.72-.2.11-.45.6-.46.84l-.06,1.26-4.69-.37-2.41-.43-3.16-.21-4.55-.45c-1.19-.12-2.29-.34-3.35-.52l1.48-4.22c.18-.5,1-.51,1.23-.78l1.05-1.21c.92-1.05,1.81-1.53,2.95-2.24,1.03-.65,2.09-1.76,3.1-2.55l1.19-.94c-.17-.14-1.33-.53-1.82-.43-2.54,1.81-5.23,3.85-7.16,6.36-.38.31-1.07.91-1.53,1.2-3.62,2.26-1.5,3.98-2.44,4.49-.17.09-.71.22-.91.19l-10.43-1.15-7.87-.92c.69-.57,1.3-.99,2.11-1.49.9-.56,1.81-1.72,2.74-2.17,1.07-.52,1.82-.94,2.73-1.71l2.77-2.33,1.74-1.66,1.61-.32c-.95-1.22-1.45.26-2.31-1.35l1.12-1.15c.28.38.73.87.97.97l-.47-.85c-.09-.16.24-.52.41-.65l1.7-1.32c.06-.05.23-.35.27-.42.06-.1.33.05.4.14.53.66-.46.18-.56.7-.05.3.06.54.22.58.37.09.78.25,1.07.14.38-.14.6-.78.63-1.12l.04-.54c0-.1.39-.1.42-.14.06-.57,2.01-.75,1.38-1.24l-.74-.58.97-.93.83-.75c.67-.12,1.8-.02,1.85-1.28-3.44.66-2.34,1.54-4.97,1.72l-.69.05c-.13,0,.05-.31.1-.42.07-.15.36-.22.54-.18l.77.14c.14.03.19-.44.29-.73.07-.2.53-.1.97-.01l-.1-1.03c-.06-.62,1.58-.75,2.51-1.66s1.7-1.72,2.57-2.73c-.51-.06-1-.02-1.23.18l-2.53,2.19c-.13.11-.61.21-.75.23s-.46-.25-.39-.38l.48-.86c-.92-.02-1.75.58-2.58,1.21l-1.36,1.04-1.81,1.1-.07.4c-.02.1-.5.11-.5,0v-.65s-.52.15-.52.15c-1.95.57,1.62-1.55,1.91-1.68.81-.36,1.82-.3,2.21-1.29-.08-.1-.31-.42-.3-.4.62-.33,1.05-.69,1.55-1.18.71-.69,1.58-1.28,2.38-1.9l.77-.6c.16-.12.45.17.92.48l.51-1.65c.23.01.49.07.54-.03l.29-.56.28.24c.06.05.26.31.27.24l.07-.77c1.12-.94,1.82-1.03,2.6-1.63l2.22-1.7,2.73-2.11c.41.19.63.31.87.32.36.01,1-.47,1.04-.73l-.65-.18c-2.06-.57,1.51.13,1.78-1.17.33.03.84.03,1.22.02l-.67-.45c-.13-.09.12-.49.26-.59l1.31-1.03,1.58.33c.16-.16-.16.15-.32.32l1.6.73-.72.07c-.57.06.29,1.22-.82,1.43l.07-.5c.01-.09-.03-.39-.08-.32l-.36.5c-.36.49-.73.92-1.24,1.52l.83.3-1.21.44c.04.72.24,1.28.78,2.03l.45-2.29,1.54-.44.49,1.52c.99-.94,1.52-1.33,2.55-1.83l-.78,1.08c-.15.21.5.57.83.87l-1.08.57.64.32c.18.09-.33.78-.27.68-.41-.27-.87-.54-.9-.47-.14.72-.28,1.2-.6,1.45l-.4.32c-.09.07.03.3.11.39s.42-.02.53-.1l1.81-1.32,2.33-1.74,4.28-3.2,31.99-23.84,10.34-7.8,2.3,2.74,8.22,9.75,4.25,1.76c5.69,2.35,10.96,8.12,14.78,12.82l2.13,2.62-.04-.78c-.03-.64,1.45.53,1.72-.26-.28-.47-.84-.7-.47-1.3l24.03,27.61-.46.1c-.28-.25-.47-.45-.49-.34l-.11.61-.93-.09c-.59.65-1.41,1.3-2.23,1.74l3.49,3.2,2.04,1.81c1.29,1.14,2.47,2.29,3.58,3.61l2.52,3.01,1.71,1.89,3.1,3.38,1.61,1.78c1.33,1.47,3.06,3.57,3.77,5.35-3.2.91-4.34,1.12-7.56,1.15l-14.35.15c2.37.56,1.56.68,3.63.28.7.31,1.56.57,2.29.67l3.26.43,2.12.23c1.48.16,2.91.14,4.36.78l-30.03-3.39-24.61-2.78-49.85-5.56.75-2.13c.22-.61.88-1.09.82-2.01l1.23-1.64c-.95-.93-1.35-1.83-1.49-3.06l-.71.83c-.25.29-2.55-.25-2.62.72-.01.19.01.61.01.78,0,.46-1.84-.33-2.06-.84l1.63-1.59c.11-.11.22-.82.08-.87l-.69-.23c-.31-.1-1.09-.09-1.28.19-.2.31-.34.81-.53,1.39s-3.5,3.38-3.81,4.55c1.37-.48,1.79-1.1,3.03-1l-.58,1.25,2.01.74c-.78.87-2.08.56-2.85.38-.35-.08-1.19.09-1.49-.03-.9-.35.44-.83-1.71-1.31-1.29-.29,1.12-1.87,1.11-2.36l-1.19.06,1.22-.72,3.43-3.47c.22-.22-.62-.65-.86-.74-.71-.28-1.49-.35-2.11.4l-1.6,1.95-1.59,2.22c-.62-.48-.9-.65-1.74-1.03l.17-1.21-2.33-1.53,1.21-1.19c.25,1.59,1.44,2.57,3.05,2.92.34-.42.79-.99,1.05-1.51l.98-1.91-3.02-.82-.36.78-.42-1.07-3.08-1.05c-.43.81-.73,1.61-1.09,2.54-.16-.89.16-1.69.62-2.68-.06-.87-2.12,2.56-1.56.33l.16-.66c.03-.13-.52-.15-.64-.21-.79-.43-1.9-.58-2.3.52-.37,1-.93,2.33-1.03,3.39-.14,1.46-.03,2.63-.83,3.84l-.94,1.4-.86,1.95c-.05.11-.1.53-.11.64-.02.16.65.15.8.07.72-.39,1.54-1.77,2.25-2.07l1.99-.86-.82-.56c-.16-.11-.49.47-.64.58-.09.06-.48.06-.45-.04s.11-.39.18-.5l1.29-2.32,1.4.91c.12,0,.49,0,.6,0s.29-.25.21-.33l-.59-.57c-.4-.56.34-1.76.98-2.02l-.18,1.19c-.04.27.43.72.67.84.33-.13.64-.41.8-.31l.8.52-1.57.53c-.27.09-.79.18-.88.39-.1.25-.25.95-.22.94.73.34,1.08.55,1.52.91l.94-.25-1.21-1.12,1.21-.7c1.57,2.53,1.85.5,2.52,2.57,0,0,.41-.02.45-.02.21-.34.61-.72.82-.61s.39.63.33.89l-.4,1.83ZM153.62,155.17c.06-.14-.62-.39-.83-.22l-3.25,2.61c.86.71.98-.61,1.41-.56l.81.34c.55.23-.56-1.24,1.86-2.16ZM151.84,162.34c.16-.88.66-1.38,1.36-1.71l.55-.26c.07-.03-.17-.29-.25-.29h-.37c-.97.09-2,.81-2.42,1.53l1.12.72ZM136.23,180.95c.58.3.49.32-.18.48l.87.67c.2.15.94-.24,1.14-.41l5.1-4.21,3.74-3.21,3.62-3.11c.67-.58,1.08-1.06,1.61-1.83.37-.54,1.6-.92,2.11-1.38l1.94-1.71,4.32-3.76c-.5-.94-4.87,3.15-6,3.96l-2.12,1.52-1.25,1.1c-2.5,2.2-5.34,3.8-7.73,5.94-.71.64-1.53,1.05-2.31,1.65l-1.5,1.16c-.53.41-3.07,2.38-2.22,2.94l-1.14.2ZM154.41,163.07c-.02-.17-.46-.53-.57-.4-.1.12-.33.44-.42.58l-.78,1.36c.3.16,1.84-1.01,1.77-1.55ZM156.9,180.45l.42-.42-.29-1.87-.86.49.74,1.79ZM154.62,182.76l.49-1.81c.08-.28-.02-.78-.22-1.03-1.4,1.09-1.41,3.2.05,4.32.05-.35-.4-1.15-.32-1.48ZM165.5,185.16l-.16-1.76,1.53-.26-1.55-1.01-1.65,1.19-.24,1.15c.59-.09,1.07-.22,1.26-.05l.82.74ZM236.89,189.15c2.59-1.7,3.64-3.02,5.97-4.67.33-.23.48-.65.33-.99l-2.55,2.17-2.11,1.73c-.64.53-1.47.84-1.64,1.76Z"/>
      <path class="cls-1" d="M235.21,127.8c-.39.91-2.72-.35-3.26-.78h.51c.08,0,.31.04.27-.03l-.2-.43c-.54-1.16-1.02-2.27-2.49-2.54.34.96,2.1,1.17,1.38,1.59-1.26.73-2.69-3.11-1.83-3.69.32.74.89,1.51,1.43,1.27l-.03-.77c0-.15.4-.44.55-.34l2.31,1.63,1.42,3.41c.07.16,0,.55-.06.68Z"/>
      <path class="cls-1" d="M228.8,123.52l-1.46-1.1c-.32-.15-.85-.41-1.12-.63-.22-.17-.13-.67-.13-.97l-.45-.16c-.09-.03-.15-.36-.05-.37.11,0,.48-.04.41-.03l-.51-.83,2.02,1.07.48,1.31.46-.32c.13-.09.49.44.48.59l-.12,1.45Z"/>
      <path class="cls-1" d="M180.74,184.35l-.69-.16c-.08-.02-.08-.11-.03-.16l.34-.38-.94-.76c.45-.53,1.38-1.01,1.82-.75.27.16.24,1.02.24,1.32v.79c.01.17-.54.14-.75.09Z"/>
      <path class="cls-1" d="M178.71,143.82l.56-1.14c.88-.18,1.4-.9,1.28-1.66l-.47.37c-.07.06-.09.07-.12,0l-.22-.47c.53-.13,1.02-.37,1.29-.74l.46.51c.1.11-.29.52-.27.66l.1.8c.03.21-.42.42-.64.62l-.38.34c-.07.06-.33-.2-.32-.19l-1.27.91Z"/>
      <path class="cls-1" d="M187.02,137.04c-.15-.01-.38.55-.49.52l-.66-.15c.29-.52.58-.73,1.03-.92l1.34-1.15c.05,0,.37.34.29.49l-.4.67-.33.55c-.09.14-.53,0-.77,0Z"/>
      <path class="cls-1" d="M182.41,140.84c0,.17.15.62,0,.66l-.91.24c-.38,0,1.87-2.92,1.8-2.41l-.37,1.14c.02.07.09.38.1.46.02.11-.36-.03-.62-.09Z"/>
      <path class="cls-1" d="M138.75,173.29c.5.58-.63,1.26-1.24,1.03l-.09-1.1,1.33.07Z"/>
      <path d="M136.23,180.95l1.14-.2c-.85-.56,1.69-2.53,2.22-2.94l1.5-1.16c.78-.6,1.59-1.01,2.31-1.65,2.4-2.14,5.24-3.74,7.73-5.94l1.25-1.1,2.12-1.52c1.13-.82,5.5-4.91,6-3.96l-4.32,3.76-1.94,1.71c-.51.45-1.74.83-2.11,1.38-.53.78-.94,1.26-1.61,1.83l-3.62,3.11-3.74,3.21-5.1,4.21c-.21.17-.94.56-1.14.41l-.87-.67c.67-.17.77-.18.18-.48Z"/>
      <path d="M165.5,185.16l-.82-.74c-.19-.17-.67-.04-1.26.05l.24-1.15,1.65-1.19,1.55,1.01-1.53.26.16,1.76Z"/>
      <path d="M236.89,189.15c.17-.92,1-1.23,1.64-1.76l2.11-1.73,2.55-2.17c.15.34,0,.76-.33.99-2.33,1.65-3.38,2.96-5.97,4.67Z"/>
      <path d="M154.62,182.76c-.09.33.37,1.13.32,1.48-1.46-1.12-1.45-3.23-.05-4.32.2.26.29.75.22,1.03l-.49,1.81Z"/>
      <path d="M153.62,155.17c-2.42.92-1.32,2.39-1.86,2.16l-.81-.34c-.43-.05-.55,1.27-1.41.56l3.25-2.61c.21-.17.89.08.83.22Z"/>
      <path d="M151.84,162.34l-1.12-.72c.42-.71,1.44-1.44,2.42-1.51h.37c.08-.02.32.24.25.28l-.55.26c-.7.32-1.2.82-1.36,1.71Z"/>
      <polygon points="156.9 180.45 156.16 178.66 157.03 178.17 157.32 180.04 156.9 180.45"/>
      <path d="M154.41,163.07c.07.54-1.47,1.71-1.77,1.55l.78-1.36c.08-.14.32-.46.42-.58.11-.13.55.23.57.4Z"/>
    </g>
  </g>
</svg>