<?xml version="1.0" encoding="UTF-8"?>
<svg id="Layer_2" data-name="Layer 2" xmlns="http://www.w3.org/2000/svg" viewBox="0 0 432 288">
  <defs>
    <style>
      .cls-1 {
        fill: #fff;
      }
    </style>
  </defs>
  <path class="cls-1" d="M88.44-46.13,242.66,80.3c-.46-1.88-.48-4.02.14-6l-.43-1.41c.26-.79.69-1.85.26-2.58-1.33-2.23.86-3.75.94-3.72.5.22,1.27,1.6,3.46.19l.82.78.54-1.4c-.62-1.03-1.13-2.32-1.41-3.6-.04-.18-.59-.19-.79-.13l-1.17-.7c-.4.21-.77.43-.98.33-.85-.43-.6-1.7-.06-2.5l-.55-.99c.51-.96.46.07,2.1-.5.36-.12.82-.41.9-.73.33-1.42-.9-.15-1.64-1.02-.32-.38-1.06-.57-1.47-.31-.61.39-1.22.19-1.69-.05-.31-.16-1.15-.29-1.26-.59-.34-.9-.24-2.09-.37-2.99-.27-.23-.62-.66-.71-1.04l-2.03-.69c-.59-.37-.58-1.65-.59-2.34-.08-4.23.98-4.65.77-6-.28-1.8.98-1.91.42-4.38l-.41-1.78-.58-.9c-.2-.31.09-1.06.45-1.16.29-.07.75.23,1.07.37.73.32,1.29.61,1.6,1.39,2.94-.39,2.33-3.05,4.7-1.84.16.08,2.46.12,2.58-2,.03-.58-.3-1.37-.83-1.72-.81-.53-.87-1.2-1.11-2.05-.23-.8-.49-1.49.15-2.23,1.34-1.56,1.45-4.84,1.08-6.72-.16-.82-1.17-1.61-1.97-1.67-3.97-.28-3.34,1.4-4.5,1.73l-2.51.71c-1.57.45-1.73,2.14-1.84,3.6l-.17,2.16c-.21,2.73-.86,2.99-.49,4.31.07.25-.1.76-.25.93-.83.98-2.11-1.69-2.06-2.51l.16-2.75c.08-1.33,1.49-1.23,2.04-4.02.58-2.99-4.65-1.24-6.17-.38-.16.09-.58.12-.71,0s-.24-.55-.24-.74l.03-1.68c.01-.62-.49-.81-1.01-.92-1.02-.21-1.78-.06-2.46.76s-1.87,1.59-1.98,2.67c-.08.78-.23,2.24-.54,2.73s-1.88.6-2.08-.14c-.11-.38.01-.93.25-1.16l1.04-1.06c.33-.34.31-.97.07-1.36l-1.34-2.1c-.68-1.06-2.16-.96-3.09-.3l-1.33.4c-.27.23-.64.56-.88.53-.2-.02-.52-.3-.72-.53-.9-1.06-2.98.25-3.82.93-.46.37-.72,1.23-.86,1.78l-.26,1.03c-.05.21-.1.55-.24.52-.1-.02-.38-.19-.42-.29l-.75-1.56c-.34-.71-1.25-.6-1.86-.54-.98.09-1.67.27-2.3.9-1.42,1.42.07,2.18-1.21,3.64-.48.55-.77.61-1.44.69-1.41.18-2.65,1.38-3.05,2.73.72,3.48-.22,2.51,0,5.86.39.35,1,.91,1.45,1.02l2.74.67c.17.04.3.5.23.62-.12.2-.29.5-.29.66s.41.37.5.52c.58,1.05,1.77,1.12,2.76,1.37,1.38.35,2.61.57,3.98-.06l1.21-.56c.12-.06.37-.36.29-.45l-.33-.42c-.2-.74-.73-1.91-1.67-2.34l-.81-1.34c-.73-1.2-.22-2.45.12-3.73s.03-4.45,1.19-4.31c-.31,3.2.96,5.7.54,8.24.41,1.01,1.67.56,2.22,1.45.62.99,1.5,1.69,2.64,1.88l1.74-1.11c.09-.06.44.1.48.21.19.58-.23,1.96-.98,1.97-.69,0-1.36-.17-1.94.29-.34.27-.6.89-.83,1.46-.28.66-.86,1.56-.9,2.24,1.28,3.37-.79,2.41-.23,5.17.14.68.19,1.68-.08,2.25-.69,1.46-.7,2.88-.37,4.51-2.57.62-.92-.53-2.95.75-1.07.68-1.07,1.31-1.29,2.43l-.35,1.81c-.13.65-.31,1.27-.34,1.97l-.09,2.44c-.03.66-.3,1.22-.06,1.96.28.9-1.69.57-2.98.73-.67.08-.97,1.07-1.33,1.45-.68.72-1.19,1.18-1.02,2.26s.17,2.11.21,3.21c.03.75.2,1.55.07,2.29-.1.62-.61,1.52-.43,2.1.79,2.67,0,4.11-.04,6.72.1.94.37,1.89.03,2.89-.23.66-.09,1.26-.06,1.99.08,1.91.06,4.26.02,5.96,0,.27-.67.41-.77.24s-.22-.67-.12-.85c.33-.59.1-1.24.05-1.86-.15-2.17-.15-4.38-.02-6.56.12-2.04.21-1.91-.52-4.2-.98-.3-2.36-.05-3.01.84-.71.96.71,1.53.46,1.99l-.36.66-.69,1.27c-.08,1.57.08,3.13-.41,4.63-.24.73-.16,1.61-.02,2.36,0-.05-.24,5.13-.47,5.84h-.48c-.17-.89-.24-1.41-.3-2.13-.05-.54-1.03-1.11-1.54-.96-2.03.58-1.1,1.2-3.15,2.26-.56.29-.1,1.12-.15,1.59-.11,1.01-.55,2.09.18,2.96,1.55,1.88-.37.83.13,2.88.08.33-.11,1.02-.08,1.36.15,1.73.26,3.42-.16,5.05l-1.86,1.06c-1.74.99-1.66.58-2.28,2.86.2,1.12.42,2.1.47,3.18.04.74-.53,1.67-.44,2.38.14,1.12.15,2.02.05,3.09-.27,3-.47,1.79-.58,4.3-.05,1.07-.19,2.18-.15,3.22.07,1.8.07,3.44.05,5.22,0-.13.3,6.56-.6,4.92-.34-.62-1.05-1.7-1.6-2.01-2.97.24-2.12-2.22-5.39-1.2-1.9.6-3.06,1.42-3.91,3.32l-.66,1.49c-.16.35-1.2.47-1.12,1.06l.37,2.59c.11.79.21,1.03-.13,1.85-.18.44-.84,4.16-.36,4.81.36.49.71,1.13,1.02,1.49,1.09,1.28,3.19.93,4.28-.03l1.11-.98c.2-.18.73-.28,1.07-.19l-.24,2.75.46,1.43c-.55.71-.56,2.63-.44,3.54.64,5.09-.33,1.08-.04,5.47l.11,1.68c.03.4-.21,1.18-.31,1.61.41,1.34-.12,2.93.11,4.2.18,1.04.18,1.49-.12,2.55-.49,1.73,0,3.74-.24,5.56-.71,5.3-.09,4.62-.39,8.84l-.39,5.39c-.04.49-.16,1.2-.13,1.61.06,1.1.18,1.98-.12,3.02s-.07,2.17-.02,3.28c.03.59-.25,1.39-.25,1.98,0,1.21-.08,2.34-.2,3.56l-.17,1.77c-1.08-.75-.93-1.64-.59-2.59.53-1.54-.91-1.84.17-5.37.23-.75.25-1.75.29-2.59.13-2.44.4-2.26.21-5.03-.05-.67-.14-1.26-.09-1.97l.15-2.12c.02-.28.33-.91.17-1.14-.4-.61-.38-1.16-.34-1.8l.16-2.79c.06-1.04.91-.72-.67-2.79-1.09-.77-2.61-.46-3.83.04l-1.06,2.35c-.17.37-.44,1.22-.45,1.62l.31,1.78c.2,1.16-.16,3.84-.11,5.33l.07,2.24c.05,1.4.33,2.86.04,4.19-.12.55-.21.78-.02,1.31.36,1.01-.03,2.19.04,3.22l.16,2.12c.03.37-.1,1.05-.12,1.53l-.17,3.43c-.04.83-.28,1.84-.05,2.61.49,1.6.01,3.02-.41,2.77l-2.11-1.23c-.38-.22-1.2-.63-1.63-.28-.54.44-1.22,1.02-1.54,1.6-.25.45-.57,1.42-.58,1.88l-.05,1.98-.04,1.76c.9.78.47,1.92.25,2.9-.2.93.03,1.84-.73,2.6-.34.34-.71,1.33-1.17,1.43l-1.94.4c.2.37.42.65.32.81-.09.13-.34.41-.45.55-1.07,1.28-1.1,2.87-.82,4.44.18,1-.29,3.56-.25,4.82.06,1.82.1,3.54.06,5.33-.02.67.13,1.4-.14,2.06-.87-.26-1.7-.72-2.51-.48l-2.06.61c.07.47.01.9-.24,1.41l.84,1.93c-.16.63-.29,1.15-.36,1.71l-.49,3.62c-.16,1.23.16,2.67-.13,3.83-.26,1.02-.31,1.69.04,2.64.4,1.11.95,2.02,2.18,2.16,3.23.36,3.13-2.01,4.83-4.24l-.17-.89c-.03-.18.32-.52.51-.55l2.68-.39c.51,1.33,1.57,2.1,2.85,2.51.84.27,1.3.01,1.87-.65l.64-.54c.36-.3-.52-1.62.15-2.12.93-.69,3.07,1.27,4.73-.08.77-.62-.13-2.62,1.06-2.44.74.11-.09,1.96-.14,3.11-.14,3.32-.67,1.62.42,4.79l1.34.32c.49.12,1.29.32,1.78.13.36-.14.72-.75.84-1.24l.73-3.13.49-2.53c.16-.8-.15-1.91.08-2.76.78-2.95.06-4.09-.36-6.01-.18-.85-.14-1.99-.21-2.87l-.19-2.52c-.05-.68-.27-1.22-.32-1.87l-.18-2.57c-.06-.8.15-1.43.32-2.07.07-.36.08-1.17.05-1.53l-.14-2.22c-.05-.73-.04-1.39,0-2.14l.07-1.39c.04-.82-.05-1.52.18-2.44l-1.16-1.68.56-1.37c.36-.88.24-1.61-.36-2.45,1.72-1.97.55-2.05.68-4.76.03-.57.59-1.6.15-2.02-.93-.89-.42-1.64-.39-2.53.02-.83.02-1.69.1-2.56.03-.32-.19-1.06-.08-1.38,1.52-4.42-.82-2.71.5-5.42.24-.49.53-1.44.58-2,.24-3.11.51-.5.44-6.09,0-.67-.28-1.49-.25-2.1l.1-1.9c.02-.35.25-.79.48-1.12l.07-2.6c0-.31.54-1.02.78-.63.3.49.2,1.34.04,1.9-.19.67.22,1.44.19,1.97-.08,1.35-.12,2.6-.26,3.95l-.44,4.27.1,3.03c.03.93-.03,1.64-.08,2.65l-.21,3.96c-.02.34-.8.89-.56,1.2s.53.69.51.93c-.02.21-.38.52-.56.66l-.35.27c-.26.19.87.72.88,1.21.02,1.19-.02,2.89-.07,4.16l-.16,4.58c-.03.84-.44,2.05.38,2.79.49.44,1.74.97,2.45.9s1.45-.4,2.03-.6c.04-2.01,1.7-2.66.44-4.13l-.1-1.61c-.38-.86-.35-1.5-.24-2.39l.27-2.17-.68-1.36.39-3.04c.16-1.23.08-2.39-.06-3.66-.08-.73.39-1.74.25-2.42-.17-.84-.23-1.43-.18-2.22l.21-3.05.17-2.47c.23-3.35-.9-3.09.14-4.62l.14-1,2.19-.06.1-1.2,1.01-.94c-.15-.97-.07-1.87.29-2.79.69-1.74-.82-1.63-.47-2.77.56-1.81.51-2.65.51-4.4,0-1.99.73-1.4.41-4.51-.08-.72-.03-1.31,0-2.03l.12-4.98.38-3.6c.16-1.54.36-2.94.26-4.53.1,1.69.63-7.36.35-5.75l.55-3.16c.02-.12-.39-2.1-.2-2.64.08-.22.93-.32.93-.09l.04,4.83c0,.67.49,1.31,1.14,1.52.41.13,1.39.2,1.79-.03,2.42-1.41,2.78-3.34,3.02-3.52.12-.09.43.33.45.49l.19,2.43c.09,1.12-.07,2.47.13,3.5.19.3.63.9.77,1.2l.59,1.26c.34.72.75,1.47,1.13,2.17l1.67.35c1.48.31,2.26-.72,2.77.03.15.22.12.76.07,1.1-.27,1.82,3,2.85,4.22,2.26l.9-.88c.17-.93.58-1.87,1.19-2.66l1.64.88c.5.27.94.56,1.52.48.35-.05.89-.37,1.15-.72l.93-1.27c.23-.32.53-.69.78-.98.54-.65,1.2-.42,1.82-.18.45.08,1.45-.08,1.85-.32l1.53-.9c.34-.2.77-.37,1.09-.28.84.25-.35,1.73.31,2.97.33.63.91.55,1.41.61,1.7.21,3.05-.16,4.24-1.43.41-.17.92.41,1.14.75,1.45,2.19,1.85,2.89,4.22,3.32.6.11,1.22.78,1.87.13l1.21-1.22.59-2.74c-1.62-2.75-.99-5.84-.79-8.71.05-.75-.11-1.6-.14-2.49l-2-.63c-2.39-.75-.91-3.9-.67-5.86l.61-4.9.62-.13c.16.85.25,1.64.32,2.56.05.74.53,1.48.73,2.2.82,2.97,1.1,1.7,1.98,5.03.35,2.47-1.02,5.45-.04,7.82.4.98.17,2.06.12,3.08-.12,3.1-.37,2.19.55,3.23.45.51.7.92,1.43.94,2.45.07,2.87-1.62,3.12-1.29l.27.36c.01.38-.16,1.18-.11,1.55l.32,2.94c.06.58.11,1.38.08,1.9-.24,4.35.83,2.45,0,5.82l.58,1.49,2.29,1.12.83.08c.93.09.57.59.65,2.52.02.58-.24,1.56.02,2,.52.88.9,2.74.8,3.52-.23,1.85.43,3.38.77,5.07.57,2.9,1.35,2.01,3.55,2.97-.03.44-.14,1-.12,1.3l.12,2.01.07,1.62.14,2.14c.06.86.05,1.65.04,2.51l-.02,1.98c0,.42-.03,1.17.04,1.54l.35,1.82c.16.84.25,1.68.28,2.47.01.27.19.81.03.99-.21.24-.47.59-.46.8.01.17.21.5.34.66,1.99,2.44,4.57.1,4.72,1.12.16,1.15.2,2.01.14,3l-.1,1.42c-.06.89.02,1.74.07,2.64.02.38-.33,1.26.2,1.43.86.26,1.82.53,2.51.92l.35,2.25c.09.55-.45,2.49-.18,5.31l.12,1.23c.12,1.25.16,2.36-.1,3.62l.39,1.4c-.27,1.91,1.1,2.48.43,4.76-.2.66-.18,1.09-.13,1.75l.21,3.39c.03.55.19,1.12.31,1.68.14.68-.36,1.65.03,2.38.26.5,1.26.55,1.75.81,1.39.73,2.88.43,3.76-.82.17-.24.73-.37,1-.25.22.1.37.58.24.8l-.54.86c-.05.08-.27.3-.2.35l.33.27.67.56c.32.27-.78,1.49-.06,1.92.21.13.73.4,1.03.39l3.15-.06c.54-.01,1.27-.36,1.56-.66.38-.38.48-1.01.47-1.57-.06-2.62-.1-.38-.46-2.85-.08-.55-.02-1.15-.04-1.68l-.06-2.49c1.1,0,1.66.39,2.39,1.02l1.34,1.15c.09.07,2.11.67,3.43.44,3.3-.58,3.31.98,5.09-1.14.73-.86-.25-2.55-.26-2.6-.19-.93-.33-1.57-.8-2.36-.84-1.43-.23-4.7.23-6.26.19-.65-.62-1.76-1.35-1.69l-2.33.22c-.32.03-.84.14-1.07.04s-.53-.61-.54-.88l-.11-2.79c-.11-2.73,1.54-1.74.94-3.56-.35-1.07-3.17-1.06-4.62.04-1.14.86-1.2-2.7-1.12-2.09l-.27-1.93.2-2.16c.11-1.17-.13-2.32-.35-3.5l-.49-2.74c-.21-1.17-.73-2.26-2.2-2.34-.6-.03-.8-.61-1.07-1.1l-.89-1.64c-.18-.33-.77-.75-1.11-.76-.4-.01-.94.33-1.34.45l-1.42.41.44,2.17c.16.76.62,1.62.57,2.46-.12,1.71-.08,3.34.03,5.09l.18,3.06c.1,1.68.88,3.68-1.24,4.28-.8.23-.98.75-1.72.24-.09-.06.02-.19.15-.41l.22-2.3c.26-2.76-.69-1.38.67-4.3-1.05-.88-.97-2.58-.59-3.83.17-.55.12-1.02.09-1.6-.08-1.61-.07-3.2-.04-4.83l.03-1.78.18-3.25c.04-.7.46-1.62.39-2.35-.11-1.11-.02-1.97.16-3.11.22-1.35-.19-1.79.5-4.5l.77-3.01.48-2.6c.28-1.55.48-3.14.92-4.66.3-1.04.71-1.92.44-3.06l-1.19-1.15c-.91.16-2.16.41-2.71.95,0,1.06-1.45,2.66-1.98,2.52-.2-.05-.54-.5-.53-.72l.15-2.52c.04-.65.59-3.54.79-4.11.26-.76.26-1.35.24-2.15.96-2.76-.26-1.44.88-3.62.01-.35,0-1.03.1-1.4.45-1.88.63-3.5.44-5.33-.14-1.28.29-2.48.11-4.21-.63-.66-1.61-.71-2.49-.73-1.56-.03-2.57,1.17-2.96,2.41l-.59,1.89c.23.37.62.95.52,1.43-.51,2.36-.61,4.62-.84,6.99-.07.76-.3,1.57-.3,2.37l.02,2.18c.01,1.57-.9,2.96-.68,3.52.42,1.05-.04,1.99-.05,2.89-.01.98-.05,1.8-.2,2.77-.23,1.49-.05,3.09-.14,4.62l-.18,2.88c-.04.62.1,1.15.03,1.81l-.17,1.73c-.07.72.11,1.3.08,2.02l-.06,1.53c0,.07-.25.26-.32.25s-.27-.15-.27-.22v-.49s-.1-2.76-.1-2.76c-.42-.62-.66-1.02-.28-1.75.5-.97.09-2.12.08-3.21,0-.34.33-1.04.24-1.41l-.43-1.81c-.08-.33.02-.74.14-1.09.34-1,.09-2.15.03-3.24-.06-1.14-.06-2.26,0-3.41.05-.83.62-1.82.42-2.63-.18-.69-.36-1.34-.32-2.03l.14-2.53.2-3.58c.05-.96.17-1.79.33-2.74.14-.85-.29-2,.35-2.78.3-.36.55-.78.45-1.3l-.41-2.33c1.17-3.67.32-6.25-.2-9.45l-.4-2.44c-1.32-.66-2.84-.27-3.64.93l-1.07,1.6c-.06.1-.37.27-.46.2-.42-.33.12-1.88.16-2.2.11-.89.19-1.78.24-2.66l.16-2.73c0-.11.16-3.61.71-3.15l.21.18c1.28,1.08,1.27,1.84,4.09,1.63.92-.42,1.64-1.11,2.57-1.7.36-.91.73-3.62-.13-4.69-1.42-1.77,1.05-2.46.65-3.24-.15-.3-3.64-2.72-4.24-2.22-.36.03-1.02.75-1.48.47-.5-1.36-.56-2.65-.58-4.15,0-.76-1.38-1.15-2.64-.85s-2.3,1.2-2.51,2.66l-.63,4.33c-.1.7-.33,3.8-.32,4.43.02,1.02.01,1.91-.05,2.92l-.19,3.04-.19,3.24c-.05.84.04,1.85-.12,2.62-.88,4.05.03,2.84-.3,6.13-.02.2-.63.35-.75.21-.09-.11-.32-.45-.33-.63l-.02-4.9c0-.51-.16-1.17-.12-1.6.13-1.37.74-2.76.42-4.11-.7-2.95.13-3.11,0-4.34-.23-2.06.13-3.82.53-5.77l.54-2.69.34-1.82c.08-.42.38-1.16.4-1.54.12-2.04.11-3.95.04-5.94-.02-.62-.2-1.2.02-1.8.2-.57.3-1.32.08-1.83-.92-2.11.04-2.84-.73-3.49s-4.62-.03-5.01,2.19c-1.49-.08.12-6.93.43-7.74.96-2.49.44-2.68.83-4.92M245.13,99.37c-1.08-.19-.64-1.69-.62-2.4l.12-4.49M167.83,188.79c-.85-.84-1.63-1.17-2.71-.91l1.29,1.79,1.42-.88ZM161.42,231.48l-1.34-.11.05.74c.01.17.57.17.74.07s.33-.34.55-.7ZM155.49,232.58c.14-.5-.42-1.06-.82-.93-.24.08-.2.7-.05.93s.77.36.87,0ZM262.88,250.68c-.49.13-.71.64-.48.85.24.22.57.39.78.41.36.03.5-.48.47-.9-.02-.23-.4-.46-.78-.35Z"/>
  <path d="M248.93,108.27c-.39,2.24.12,2.43-.83,4.92-.31.81-1.92,7.66-.43,7.74.39-2.22,4.23-2.85,5.01-2.19s-.19,1.39.73,3.49c.22.51.12,1.26-.08,1.83-.21.6-.04,1.18-.02,1.8.08,2,.08,3.9-.04,5.94-.02.38-.32,1.12-.4,1.54l-.34,1.82-.54,2.69c-.39,1.96-.76,3.71-.53,5.77.14,1.23-.69,1.39,0,4.34.32,1.36-.29,2.74-.42,4.11-.04.42.12,1.09.12,1.6l.02,4.9c0,.18.23.52.33.63.12.14.73,0,.75-.21.33-3.29-.57-2.08.3-6.13.17-.77.07-1.77.12-2.62l.19-3.24.19-3.04c.06-1,.07-1.9.05-2.92-.01-.62.22-3.72.32-4.43l.63-4.33c.21-1.46,1.24-2.36,2.51-2.66s2.63.09,2.64.85c.02,1.5.08,2.79.58,4.15.47.28,1.13-.44,1.48-.47.6-.5,4.09,1.92,4.24,2.22.39.78-2.08,1.46-.65,3.24.86,1.07.49,3.77.13,4.69-.93.58-1.65,1.27-2.57,1.7-2.82.21-2.81-.55-4.09-1.63l-.21-.18c-.55-.47-.7,3.03-.71,3.15l-.16,2.73c-.05.88-.13,1.77-.24,2.66-.04.31-.58,1.86-.16,2.2.09.07.4-.1.46-.2l1.07-1.6c.8-1.21,2.32-1.59,3.64-.93l.4,2.44c.52,3.21,1.37,5.78.2,9.45l.41,2.33c.09.52-.16.94-.45,1.3-.64.77-.21,1.92-.35,2.78-.16.95-.27,1.78-.33,2.74l-.2,3.58-.14,2.53c-.04.69.14,1.33.32,2.03.21.8-.37,1.8-.42,2.63-.07,1.15-.07,2.27,0,3.41s.32,2.24-.03,3.24c-.12.35-.22.77-.14,1.09l.43,1.81c.09.37-.24,1.07-.24,1.41,0,1.09.42,2.24-.08,3.21-.37.72-.14,1.13.28,1.75l.08,2.76v.49c.02.07.21.21.28.22s.32-.17.32-.25l.06-1.53c.03-.73-.16-1.31-.08-2.02l.17-1.73c.07-.66-.07-1.2-.03-1.81l.18-2.88c.1-1.53-.08-3.13.14-4.62.15-.97.19-1.79.2-2.77.01-.9.47-1.83.05-2.89-.22-.56.69-1.95.68-3.52l-.02-2.18c0-.81.22-1.62.3-2.37.24-2.37.33-4.63.84-6.99.1-.48-.29-1.06-.52-1.43l.59-1.89c.39-1.24,1.4-2.45,2.96-2.41.88.02,1.86.07,2.49.73.18,1.73-.25,2.93-.11,4.21.19,1.83,0,3.46-.44,5.33-.09.37-.09,1.05-.1,1.4-1.14,2.18.08.86-.88,3.62.02.8.03,1.39-.24,2.15-.2.57-.75,3.46-.79,4.11l-.15,2.52c-.01.22.33.67.53.72.53.14,1.98-1.46,1.98-2.52.56-.54,1.8-.79,2.71-.95l1.19,1.15c.27,1.15-.13,2.02-.44,3.06-.44,1.52-.64,3.11-.92,4.66l-.48,2.6-.77,3.01c-.69,2.71-.27,3.15-.5,4.5-.19,1.14-.28,2-.16,3.11.08.73-.35,1.65-.39,2.35l-.18,3.25-.03,1.78c-.03,1.63-.05,3.22.04,4.83.03.58.08,1.05-.09,1.6-.38,1.25-.45,2.95.59,3.83-1.36,2.92-.41,1.54-.67,4.3l-.22,2.3c-.13.22-.23.35-.15.41.74.51.92-.02,1.72-.24,2.11-.59,1.34-2.59,1.24-4.28l-.18-3.06c-.1-1.75-.14-3.38-.03-5.09.06-.84-.41-1.7-.57-2.46l-.44-2.17,1.42-.41c.4-.12.94-.46,1.34-.45.34.01.93.43,1.11.76l.89,1.64c.26.48.46,1.06,1.07,1.1,1.47.08,1.99,1.17,2.2,2.34l.49,2.74c.21,1.19.45,2.34.35,3.5l-.2,2.16.27,1.93c-.08-.61-.02,2.95,1.12,2.09,1.44-1.1,4.27-1.11,4.62-.04.6,1.83-1.05.84-.94,3.56l.11,2.79c.01.27.31.78.54.88s.76-.01,1.07-.04l2.33-.22c.73-.07,1.55,1.04,1.35,1.69-.46,1.56-1.07,4.83-.23,6.26.46.79.61,1.44.8,2.36.01.05.99,1.73.26,2.6-1.78,2.12-1.79.56-5.09,1.14-1.31.23-3.34-.37-3.43-.44l-1.34-1.15c-.74-.63-1.3-1.03-2.39-1.02l.06,2.49c.01.53-.04,1.13.04,1.68.36,2.46.41.23.46,2.85.01.56-.09,1.19-.47,1.57-.3.3-1.03.65-1.56.66l-3.15.06c-.3,0-.82-.26-1.03-.39-.72-.43.39-1.66.06-1.92l-.67-.56-.33-.27c-.07-.06.15-.28.2-.35l.54-.86c.13-.22-.02-.7-.24-.8-.26-.11-.82,0-1,.25-.88,1.25-2.36,1.54-3.76.82-.48-.25-1.48-.3-1.75-.81-.38-.73.11-1.7-.03-2.38-.12-.56-.27-1.13-.31-1.68l-.21-3.39c-.04-.66-.06-1.09.13-1.75.68-2.28-.69-2.85-.43-4.76l-.39-1.4c.26-1.26.22-2.38.1-3.62l-.12-1.23c-.27-2.82.26-4.76.18-5.31l-.35-2.25c-.69-.4-1.66-.66-2.51-.92-.53-.16-.18-1.05-.2-1.43-.06-.91-.13-1.76-.07-2.64l.1-1.42c.07-.99.03-1.85-.14-3-.15-1.02-2.73,1.31-4.72-1.12-.13-.16-.33-.49-.34-.66-.01-.21.25-.56.46-.8.16-.19-.02-.72-.03-.99-.03-.79-.12-1.62-.28-2.47l-.35-1.82c-.07-.37-.04-1.12-.04-1.54l.02-1.98c.01-.86.01-1.65-.04-2.51l-.14-2.14-.07-1.62-.12-2.01c-.02-.29.09-.86.12-1.3-2.2-.96-2.99-.07-3.55-2.97-.33-1.69-1-3.22-.77-5.07.1-.78-.28-2.64-.8-3.52-.26-.44,0-1.43-.02-2-.07-1.92.28-2.42-.65-2.52l-.83-.08-2.29-1.12-.58-1.49c.83-3.38-.24-1.47,0-5.82.03-.52-.01-1.33-.08-1.9l-.32-2.94c-.04-.38.12-1.18.11-1.55l-.27-.36c-.25-.33-.67,1.36-3.12,1.29-.73-.02-.98-.42-1.43-.94-.91-1.04-.67-.12-.55-3.23.04-1.02.28-2.1-.12-3.08-.98-2.37.4-5.35.04-7.82-.88-3.33-1.16-2.06-1.98-5.03-.2-.71-.68-1.46-.73-2.2-.07-.92-.16-1.7-.32-2.56l-.62.13-.61,4.9c-.24,1.96-1.71,5.11.67,5.86l2,.63c.03.89.19,1.74.14,2.49-.2,2.87-.83,5.96.79,8.71l-.59,2.74-1.21,1.22c-.65.65-1.27-.02-1.87-.13-2.37-.43-2.76-1.13-4.22-3.32-.23-.34-.73-.92-1.14-.75-1.19,1.28-2.54,1.64-4.24,1.43-.5-.06-1.08.02-1.41-.61-.65-1.24.54-2.72-.31-2.97-.32-.09-.75.08-1.09.28l-1.53.9c-.41.24-1.41.4-1.85.32-.63-.24-1.29-.47-1.82.18-.24.3-.55.67-.78.98l-.93,1.27c-.25.34-.8.67-1.15.72-.58.08-1.02-.21-1.52-.48l-1.64-.88c-.61.79-1.02,1.73-1.19,2.66l-.9.88c-1.22.59-4.49-.44-4.22-2.26.05-.34.09-.88-.07-1.1-.51-.75-1.29.29-2.77-.03l-1.67-.35c-.38-.7-.79-1.45-1.13-2.17l-.59-1.26c-.14-.3-.58-.9-.77-1.2-.21-1.03-.05-2.37-.13-3.5l-.19-2.43c-.01-.16-.32-.58-.45-.49-.24.17-.6,2.11-3.02,3.52-.4.23-1.38.16-1.79.03-.66-.21-1.14-.85-1.14-1.52l-.04-4.83c0-.23-.85-.13-.93.09-.19.54.22,2.53.2,2.64l-.55,3.16c.28-1.61-.25,7.44-.35,5.75.1,1.59-.1,2.99-.26,4.53l-.38,3.6-.12,4.98c-.02.72-.07,1.31,0,2.03.33,3.11-.41,2.52-.41,4.51,0,1.76.05,2.59-.51,4.4-.35,1.14,1.16,1.03.47,2.77-.37.92-.45,1.82-.29,2.79l-1.01.94-.1,1.2-2.19.06-.14,1c-1.04,1.52.09,1.27-.14,4.62l-.17,2.47-.21,3.05c-.05.79,0,1.38.18,2.22.14.68-.33,1.69-.25,2.42.14,1.27.22,2.43.06,3.66l-.39,3.04.68,1.36-.27,2.17c-.11.89-.14,1.54.24,2.39l.1,1.61c1.26,1.47-.4,2.11-.44,4.13-.58.2-1.32.52-2.03.6s-1.96-.45-2.45-.9c-.82-.73-.41-1.95-.38-2.79l.16-4.58c.04-1.27.09-2.97.07-4.16,0-.49-1.13-1.01-.88-1.21l.35-.27c.19-.14.54-.45.56-.66.02-.24-.26-.61-.51-.93s.54-.86.56-1.2l.21-3.96c.05-1.01.11-1.72.08-2.65l-.1-3.03.44-4.27c.14-1.35.18-2.61.26-3.95.03-.53-.38-1.3-.19-1.97.16-.56.26-1.4-.04-1.9-.23-.39-.77.33-.78.63l-.07,2.6c-.23.33-.46.77-.48,1.12l-.1,1.9c-.03.61.24,1.43.25,2.1.06,5.58-.2,2.97-.44,6.09-.04.56-.33,1.51-.58,2-1.32,2.7,1.02,1-.5,5.42-.11.32.1,1.06.08,1.38-.07.87-.07,1.73-.1,2.56-.02.89-.53,1.64.39,2.53.44.42-.12,1.46-.15,2.02-.12,2.72,1.04,2.79-.68,4.76.6.84.72,1.57.36,2.45l-.56,1.37,1.16,1.68c-.23.93-.14,1.62-.18,2.44l-.07,1.39c-.04.75-.04,1.41,0,2.14l.14,2.22c.02.36.02,1.17-.05,1.53-.17.63-.38,1.26-.32,2.07l.18,2.57c.05.66.27,1.19.32,1.87l.19,2.52c.07.87.02,2.01.21,2.87.41,1.91,1.14,3.05.36,6.01-.23.86.08,1.97-.08,2.76l-.49,2.53-.73,3.13c-.11.49-.48,1.1-.84,1.24-.49.19-1.29-.02-1.78-.13l-1.34-.32c-1.09-3.17-.55-1.46-.42-4.79.05-1.15.88-3,.14-3.11-1.19-.18-.3,1.81-1.06,2.44-1.66,1.35-3.8-.61-4.73.08-.67.5.21,1.81-.15,2.12l-.64.54c-.56.66-1.02.93-1.87.65-1.28-.41-2.35-1.18-2.85-2.51l-2.68.39c-.19.03-.55.37-.51.55l.17.89c-1.7,2.23-1.6,4.6-4.83,4.24-1.24-.14-1.78-1.05-2.18-2.16-.34-.95-.29-1.62-.04-2.64.29-1.15-.03-2.6.13-3.83l.49-3.62c.07-.56.2-1.08.36-1.71l-.84-1.93c.25-.51.31-.95.24-1.41l2.06-.61c.8-.24,1.63.22,2.51.48.27-.65.13-1.39.14-2.06.04-1.79,0-3.5-.06-5.33-.04-1.26.43-3.83.25-4.82-.29-1.57-.25-3.16.82-4.44.12-.14.36-.42.45-.55.11-.16-.12-.44-.32-.81l1.94-.4c.46-.09.83-1.09,1.17-1.43.76-.77.53-1.67.73-2.6.21-.99.65-2.12-.25-2.9l.04-1.76.05-1.98c.01-.47.33-1.43.58-1.88.32-.58,1-1.15,1.54-1.6.42-.35,1.25.06,1.63.28l2.11,1.23c.42.25.9-1.18.41-2.77-.24-.78,0-1.78.05-2.61l.17-3.43c.02-.48.15-1.16.12-1.53l-.16-2.12c-.08-1.02.31-2.21-.04-3.22-.19-.53-.1-.76.02-1.31.29-1.33,0-2.79-.04-4.19l-.07-2.24c-.05-1.49.31-4.16.11-5.33l-.31-1.78c.01-.4.28-1.25.45-1.62l1.06-2.35c1.23-.51,2.74-.81,3.83-.04,1.58,2.06.73,1.75.67,2.79l-.16,2.79c-.04.64-.05,1.19.34,1.8.15.24-.15.86-.17,1.14l-.15,2.12c-.05.71.05,1.3.09,1.97.19,2.78-.08,2.6-.21,5.03-.04.84-.07,1.84-.29,2.59-1.08,3.53.37,3.84-.17,5.37-.33.96-.49,1.84.59,2.59l.17-1.77c.11-1.22.19-2.35.2-3.56,0-.6.28-1.4.25-1.98-.05-1.11-.27-2.24.02-3.28s.17-1.93.12-3.02c-.02-.41.1-1.13.13-1.61l.39-5.39c.31-4.22-.32-3.54.39-8.84.24-1.81-.25-3.82.24-5.56.3-1.05.3-1.5.12-2.55-.22-1.26.31-2.86-.11-4.2.1-.42.34-1.21.31-1.61l-.11-1.68c-.28-4.39.69-.38.04-5.47-.12-.91-.11-2.83.44-3.54l-.46-1.43.24-2.75c-.34-.09-.86.01-1.07.19l-1.11.98c-1.08.95-3.18,1.3-4.28.03-.31-.36-.66-1-1.02-1.49-.48-.65.17-4.38.36-4.81.35-.82.24-1.05.13-1.85l-.37-2.59c-.08-.59.97-.71,1.12-1.06l.66-1.49c.85-1.9,2-2.72,3.91-3.32,3.27-1.02,2.42,1.44,5.39,1.2.55.31,1.26,1.39,1.6,2.01.89,1.63.6-5.06.6-4.92.02-1.78.02-3.42-.05-5.22-.04-1.04.1-2.15.15-3.22.12-2.51.32-1.3.58-4.3.1-1.06.09-1.96-.05-3.09-.09-.7.48-1.64.44-2.38-.06-1.08-.27-2.06-.47-3.18.62-2.28.55-1.87,2.28-2.86l1.86-1.06c.43-1.63.31-3.32.16-5.05-.03-.34.16-1.04.08-1.36-.5-2.05,1.43-1-.13-2.88-.73-.88-.29-1.95-.18-2.96.05-.47-.41-1.3.15-1.59,2.05-1.06,1.12-1.67,3.15-2.26.51-.15,1.49.42,1.54.96.07.72.13,1.24.3,2.12h.48c.23-.7.46-5.89.47-5.84-.14-.75-.22-1.63.02-2.36.5-1.5.34-3.05.41-4.63l.69-1.27.36-.66c.25-.46-1.17-1.03-.46-1.99.65-.89,2.04-1.14,3.01-.84.72,2.29.64,2.16.52,4.2-.13,2.18-.13,4.39.02,6.56.04.62.28,1.27-.05,1.86-.1.18.02.69.12.85s.77.03.77-.24c.04-1.7.06-4.05-.02-5.96-.03-.72-.17-1.33.06-1.99.35-1.01.07-1.96-.03-2.89.04-2.61.83-4.05.04-6.72-.17-.59.33-1.49.43-2.1.13-.75-.05-1.54-.07-2.29-.04-1.1-.04-2.18-.21-3.21-.18-1.08.34-1.54,1.02-2.26.36-.38.66-1.37,1.33-1.45,1.29-.16,3.26.17,2.98-.73-.23-.74.04-1.3.06-1.96l.09-2.44c.03-.69.21-1.31.34-1.97l.35-1.81c.22-1.12.22-1.76,1.29-2.43,2.03-1.28.38-.14,2.95-.75-.33-1.63-.32-3.06.37-4.51.27-.57.22-1.57.08-2.25-.56-2.76,1.51-1.8.23-5.17.04-.68.62-1.58.9-2.24.24-.57.49-1.19.83-1.46.58-.46,1.25-.28,1.94-.29.74,0,1.17-1.38.98-1.97-.04-.11-.39-.27-.48-.21l-1.74,1.11c-1.13-.19-2.02-.89-2.64-1.88-.55-.88-1.81-.44-2.22-1.45.41-2.54-.85-5.04-.54-8.24-1.16-.14-.84,3.01-1.19,4.31s-.85,2.53-.12,3.73l.81,1.34c.94.43,1.47,1.6,1.67,2.34l.33.42c.08.1-.17.4-.29.45l-1.21.56c-1.37.64-2.6.41-3.98.06-.99-.25-2.18-.32-2.76-1.37-.08-.15-.49-.36-.5-.52s.16-.45.29-.66c.07-.12-.05-.58-.23-.62l-2.74-.67c-.45-.11-1.05-.67-1.45-1.02-.22-3.35.72-2.38,0-5.86.4-1.36,1.64-2.55,3.05-2.73.67-.09.95-.14,1.44-.69,1.28-1.46-.2-2.22,1.21-3.64.64-.64,1.32-.82,2.3-.9.62-.06,1.52-.17,1.86.54l.75,1.56c.05.1.32.27.42.29.14.03.19-.31.24-.52l.26-1.03c.14-.55.4-1.41.86-1.78.84-.68,2.93-1.99,3.82-.93.2.23.52.51.72.53.24.03.61-.31.88-.53l1.33-.4c.93-.66,2.41-.77,3.09.3l1.34,2.1c.24.38.26,1.02-.07,1.36l-1.04,1.06c-.23.24-.35.78-.25,1.16.21.73,1.78.65,2.08.14s.45-1.96.54-2.73c.11-1.07,1.33-1.88,1.98-2.67s1.43-.97,2.46-.76c.52.11,1.02.3,1.01.92l-.03,1.68c0,.19.11.62.24.74s.54.09.71,0c1.53-.86,6.76-2.61,6.17.38-.55,2.79-1.96,2.69-2.04,4.02l-.16,2.75c-.05.83,1.23,3.49,2.06,2.51.15-.17.31-.68.25-.93-.36-1.32.28-1.58.49-4.31l.17-2.16c.11-1.47.27-3.15,1.84-3.6l2.51-.71c1.15-.33.53-2.01,4.5-1.73.81.06,1.81.85,1.97,1.67.37,1.88.25,5.15-1.08,6.72-.64.74-.37,1.44-.15,2.23.24.85.31,1.51,1.11,2.05.54.35.86,1.14.83,1.72-.11,2.12-2.41,2.08-2.58,2-2.37-1.22-1.76,1.45-4.7,1.84-.31-.78-.87-1.07-1.6-1.39-.32-.14-.79-.45-1.07-.37-.36.09-.66.84-.45,1.16l.58.9.41,1.78c.56,2.46-.7,2.57-.42,4.38.21,1.35-.86,1.77-.77,6,.01.69,0,1.96.59,2.34l2.03.69c.08.38.43.81.71,1.04.14.9.04,2.09.37,2.99.11.3.95.43,1.26.59.47.24,1.08.44,1.69.05.41-.26,1.15-.06,1.47.31.74.87,1.97-.4,1.64,1.02-.07.32-.54.61-.9.73-1.64.57-1.58-.46-2.1.5l.55.99c-.54.8-.79,2.07.06,2.5.21.11.58-.12.98-.33l1.17.7c.21-.06.75-.05.79.13.28,1.28.8,2.57,1.41,3.6l-.54,1.4-.82-.78c-2.19,1.41-2.96.03-3.46-.19-.08-.03-2.27,1.48-.94,3.72.43.72,0,1.79-.26,2.58l.43,1.41c-.62,1.98-.6,4.12-.14,6M244.64,92.48l-.12,4.49c-.02.71-.46,2.21.62,2.4M216.56,34.17c1.02-.73,0-.71-1.14-1.99-.12-.14-.52-.24-.58-.08-.05.12,0,.51.11.6l1.62,1.47ZM222.72,69.1c-.1-.49-.06-.97-.1-1.47l-.21-2.95.05-1.72c.54-1.15.38-2.13.33-3.37l-.08-1.92c.53-1.05.77-2.11.59-3.33-.1-.69.28-1.68.21-2.38-.2-2.18.28-1.13,0-3.47-.23-1.91.11-3.17,0-5.54-.03-.7.1-1.22.33-1.96.18-.61.45-5.75-.04-6.63.33-.32.77-.83.7-1.19-.07-.41-.37-1.15-.72-1.17-.91-.04-1.17.88-1.48,1.44-.33.6-.51,1.05-.64,1.72-.18.91-.75,1.98-.19,2.84.48.74.1,1.2.03,1.92-.11,1.02-.18,2.12-.22,3.17l-.13,3.32c-.11,2.8.08,3.91,0,6.41l-.09,2.77c-.75.9-.93,2.21.04,3.02-.02,1.71.49,3.56-.1,5.17l-.66,1.82-.08,1.94-.13,3.24c-.03.69.46,2.75,1.22,2.59,1.47-.32,1.64-2.89,1.37-4.24ZM230.3,70.44c.28-.89.35-1.54.15-2.45-.25-1.15.14-2.39.23-3.58l.53-6.94c.03-.46-.07-1.14,0-1.63l.36-2.4.16-3.26c.04-.86.25-1.6-.62-2.12.41-1.1.88-2.22,1.05-3.34l.32-2.08c.26-1.71-.91-1.73-.19-4.63.07-.27.11-.82.23-1.03.14-.24.44-.57.39-.76-.21-.77-1.29-.33-2.27-1.64-.32-.43-1.33-.73-1.63-.26l-.18,3.59c-.06,1.27.25,2.58-.66,3.71.65,2.2-.15,5.81-.15,7,.03,4.7-.17,1.58-.65,5.75.16.75.46,1.54.27,2.31-.33,1.28-.28,2.5-.38,3.81-.08,1.11-.11,2.11.03,3.23.28,2.27-.23,1.69-.25,3.64-.01,1.4-.25,2.87.1,4.25.16.63.59,1.29.27,1.87-.27.49-.24.8-.04,1.29.24.58.51,1.02,1.15,1.02,1.59-.01,1.22-3.55,1.79-5.36ZM216.2,54.97c-.35,0-.76.4-.76.64l.08,2.67c1.27.35.71-2.6.68-3.31ZM214.79,72.8c.99-.34.73-.99.83-1.6l.36-2.27.15-7.48c0-.44.2-1.17-.02-1.52-.12-.19-.78-.16-.91.02s-.27.63-.27.89l-.05,2.52c-.02,1.12.18,2.03-.25,3.15-.16.43.09,1.23.1,1.73l.06,4.57ZM222.78,77.24c.15-.39.17-1.44,0-1.85-.25-.61-1.38-1.38-2.02-1.33-1.18.1-.82,2.14.2,3.08.41.38,1.49.82,1.83.1ZM207.52,150.02l.17-1.54c.11-.95.1-1.81.04-2.76-.08-1.29.65-2.6,1.53-3.44.97-.93,2.24-1.07,3.43-.41,1.97-.54,2.02-1.9,4.17-1.22l2.16.68c.59-2.01-.34-3.69,2.53-4.96.85-.38,2.01-.76,2.82.03.36.35.59,1.32,1.37,1.21.3-.09.27-.84,0-1.21-.15-.21.04-.67.06-.89.09-1.09.6-1.78,1.58-2.29.71-.37,1.61-.83,2.47-.68.8.14,1.24.98,1.36,1.66l.35,1.84c.18.98.3,2.55.54,2.57.86.05.3-.62,1.99-1.17,1.14-.37,2.61-.78,3.54.19.28.29.39.92.92.96.23-.98.43-1.86.38-2.73-.18-2.94,0-3.58.02-6.19,0-.94-.22-1.15-1-1.61-.72-.42-1.6-1.13-2.29-1.67l-.16-3.59c-.09-1.89-.9-.42-.09-4.53.16-.83.22-1.63.26-2.47l.17-3.43c.17-3.35-.1-2.21-2.85-5.23-.13-.31.11-1.07.08-1.39l-.18-1.95c-.08-.81-.12-1.53-.12-2.35,0-2.12-.36-.72-.45-3.33-1.14-.11-2.04-.27-3.12-.69.74-1.44.04-2.39-.29-3.51-.23-.79-.17-1.53-1.2-1.85l.49-3.15c.12-.75-.21-1.33.25-2.04.22-.34.32-1.13.32-1.58.03-2.47.94-3.15.54-6.58-.19-.18-.73.08-.84.37-.46,1.26-2.29,2.05-3.29,1.06-.69-.68-1.43-1.54-2.52-.97l-.39,1.54-1.23,1.25c-1.34.48-3.92-1.16-4.49-.41-.64.84.88,1.63-.09,3.79-.41.91-.33,1.95-.49,2.94-.13.83-.77,1.67-1.16,2.39-.48.89-1.11,1.53-2.2,1.57l-1.87.06c-.67,2.67-.46,3.8-.44,6.57,0,1.06.03,2.13.42,3.1-.11.43-.25,1.08-.3,1.58l-.19,1.85c-.08.75-.48,1.64-.28,2.52.49,2.13.08,4.35-1.82,5.7-.83.59-2.26.42-3.11-.04-.27-.14-.53-.29-.71-.36s-.53.27-.65.45c-.41.65-.06,1.38.23,2.1.32.79-.28,1.9-.36,2.74l-.25,2.86c-.07.79.14,1.57.27,2.35.09.58-.29,1.5-.24,2.09l.23,2.52c.07.74.1,1.39,0,2.12l.77,1.33c0,.26-.13.88-.02,1.13.28.65.1,1.44.16,2.16l.23,2.96c.03.41-.45,2.75-.53,4.18-.05.99-.63,1.78-1.6,2.03l-2.14.57c-.5.13-1.56.12-1.34.92.73,2.7.08,4.46.57,5.86.05.13.59.09.58-.05v-.52c-.11-3.31-.4-2.07,1.26-4.92.64-1.09,1.84-1.63,3-.93l1,.6c.67,1.7,1.21,5.02.74,6.91.23.01.58-.1.6-.25l.08-.51c.45-.51.54-1.13.63-1.92ZM205.64,83.03c.84-.38.63-2.67.4-2.76-.18-.07-.59,0-.77.07s-.23.57-.17.77l.54,1.92ZM206.05,89.09c-.01-1.03-.01-1.67-.19-2.52-.63.76-1.12,1.84-.68,2.44.14.18.72.26.87.09ZM232.37,93.37c.02-.42-.05-.96-.23-.94-.21.03-.62.11-.68.29-.04.14.09.44.21.66.09.15.69.17.7-.01ZM200.47,97.4c-.13-.05-.39-.14-.56-.18-.57.38-1.03,1.66-.14,2.07.61.28,1.18-1.69.7-1.89ZM204.96,100.17c-.02-.17-.16-.61-.29-.56l-.51.19c-.27.1-.55.71-.54.99,0,.25.48.68.72.63.57-.11.67-.74.63-1.25ZM204.23,104.14c.22.05.39-.61.41-.83s-.32-.62-.63-.62c-.22,0-.42.59-.41.8s.33.57.63.65ZM246.89,127.57c1.24-.27.83-2.36.53-2.27-.85.26-.47,1.72-.53,2.27ZM247.32,130.67c.02-.77.09-1.44-.73-1.35-.08.43-.22,1.27-.24,1.68,0,.2.46.65.6.52.17-.16.36-.58.37-.86ZM246.48,141.65c.93-.97.52-1.92.66-2.88.15-1.04.13-2,.04-3.04l-.16-1.8c-1.42.56-.35,1.51-1.26,3.18-.13.24.04,4.24.72,4.54ZM246.73,152.59l.08-2.32c.02-.58.02-1.07.01-1.7l-.1-5.77c0-.11-.23-.5-.32-.46-.71.28-.9,1.05-.81,1.61l.3,1.78c.14.84.35,1.53.07,2.38s-1.05,4.79.76,4.48ZM219.17,153.66c-.07-.32.09-1.05.07-1.4-.1-1.98.11-1.82.12-3.44l.02-1.99-.22-1.75c-.09-.7.53-1.59-.29-2.11-.47.38-.52,1.25-.59,1.87l-.4,3.42c-.11.92-.33,1.71-.13,2.73.76,3.88-.52,4.81.64,5.72,1.41-.23,1.06-1.81.78-3.06ZM225.54,155.95c.95-.75.46-1.68.5-2.52l.12-2.64c.03-.62.03-1.19.02-1.8l-.08-3.25c-1.8.11-.31,1.75-.99,2.96l-.23,1.29c-.49,2.79.17,1.13-.37,4.11l1.04,1.84ZM256.78,161.8c.51-.88.79-1.92.4-2.8-.68-.41-1.17,2.48-.4,2.8ZM257.06,169.66c.54-.82.17-1.92.21-2.75l.14-2.62c.02-.41.39-1.51-.53-1.4-.5.06-.55,1.28-.41,1.79.16.57-.06,1.34.04,1.84.45,2.35-.66,1.81-.17,3.08.06.16.6.25.72.07ZM257.51,174.13l-.37-2.8c-.02-.12-.46-.25-.56-.21l-.27,1.93c-.13.95-.32,2.45.36,3.03.31.26.83-1.69.83-1.95ZM182.69,184.25c.12-.17.19-.64.18-.84,0-.19-.51-.35-.69-.25-.74.42-.67,1.81-.36,2.35.05.09.47.14.51.05.43-.83-.38-.21.37-1.31ZM267.48,193.13c.75-.53.82-1.18.88-1.93l.16-2.16c.03-.38.22-1.11-.19-1.35-.31-.12-.95.29-1.3.53-.46,2.02.95,2.41.43,2.98-.58.63-.77,1.33.02,1.93ZM176.32,216.42c.13-.7.12-1.78-.22-2.2-.07-.09-.61-.06-.63.06l-.07.38-.27,1.71c-.12.79-.08,1.5.84,1.92l.35-1.86ZM175.84,224.17c.13-.64.16-1.69,0-2.22-.03-.12-.55-.1-.56.03l-.04.62c-.04.66-.11,1.32.59,1.57ZM175.38,231.54c.97-.42.56-4.09.41-4.99-.06-.33.27-1.01-.09-1.35-.84.21-.38,1.01-.94,2.24.25.57.91,1.37.34,1.98-.53.56-.71,1.95.28,2.11ZM175.59,248.75c.59-.26.34-.54.33-.89l-.14-6.01c-.03-1.19-.06-2.16.11-3.33.1-.68-.05-1.5.13-2.33l-.42-1.86c-.12-.54.36-1.08-.69-1.45-.12.78-.21,1.51-.25,2.3l-.34,5.92c-.04.63-.79,1.29-.17,2.07.9,1.14-.13,2.13.45,3.42l.97,2.16Z"/>
  <path d="M167.83,188.79l-1.42.88-1.29-1.79c1.07-.26,1.86.07,2.71.91Z"/>
  <path d="M262.88,250.68c.38-.1.76.13.78.35.03.42-.11.93-.47.9-.22-.02-.55-.19-.78-.41s0-.71.48-.85Z"/>
  <path d="M155.49,232.58c-.1.36-.71.24-.87,0s-.18-.86.05-.93c.39-.13.96.43.82.93Z"/>
  <path d="M161.42,231.48c-.22.37-.37.6-.55.7s-.73.1-.74-.07l-.05-.74,1.34.11Z"/>
  <path class="cls-1" d="M207.52,150.02c-.09.79-.18,1.41-.63,1.92l-.08.51c-.02.14-.37.26-.6.25.47-1.89-.06-5.21-.74-6.91l-1-.6c-1.16-.7-2.37-.16-3,.93-1.66,2.85-1.37,1.61-1.27,4.92v.52c.02.14-.52.18-.57.05-.49-1.4.16-3.15-.57-5.86-.22-.81.84-.79,1.34-.92l2.14-.57c.97-.26,1.55-1.05,1.6-2.03.08-1.44.56-3.77.53-4.18l-.23-2.96c-.06-.72.12-1.5-.16-2.16-.11-.25.03-.87.02-1.13l-.77-1.33c.1-.74.07-1.38,0-2.12l-.23-2.52c-.06-.6.33-1.51.24-2.09-.12-.79-.33-1.57-.27-2.35l.25-2.86c.07-.84.68-1.95.36-2.74-.29-.72-.64-1.45-.23-2.1.11-.18.48-.53.65-.45s.44.22.71.36c.85.46,2.28.63,3.11.04,1.9-1.34,2.31-3.57,1.82-5.7-.2-.88.2-1.77.28-2.52l.19-1.85c.05-.5.19-1.14.3-1.58-.38-.97-.41-2.04-.42-3.1-.02-2.77-.24-3.91.44-6.57l1.87-.06c1.09-.04,1.72-.67,2.2-1.57.39-.72,1.03-1.56,1.16-2.39.16-.99.08-2.03.49-2.94.97-2.16-.55-2.95.09-3.79.57-.75,3.15.89,4.49.41l1.23-1.25.39-1.54c1.09-.57,1.83.29,2.52.97,1,.99,2.83.2,3.29-1.06.11-.29.64-.55.84-.37.4,3.43-.51,4.1-.54,6.58,0,.45-.1,1.24-.32,1.58-.46.71-.14,1.29-.25,2.04l-.49,3.15c1.04.33.97,1.07,1.2,1.85.33,1.12,1.03,2.07.29,3.51,1.08.41,1.98.58,3.12.69.08,2.61.44,1.21.45,3.33,0,.82.05,1.55.12,2.35l.18,1.95c.03.32-.21,1.08-.08,1.39,2.75,3.02,3.02,1.88,2.85,5.23l-.17,3.43c-.04.84-.1,1.64-.26,2.47-.8,4.11,0,2.63.09,4.53l.16,3.59c.69.54,1.57,1.25,2.29,1.67.78.46,1,.67,1,1.61,0,2.61-.2,3.25-.02,6.19.05.87-.15,1.75-.38,2.73-.53-.04-.65-.67-.92-.96-.93-.97-2.4-.56-3.54-.19-1.68.55-1.13,1.22-1.99,1.17-.24-.01-.36-1.59-.54-2.57l-.35-1.84c-.13-.68-.56-1.52-1.36-1.66-.87-.15-1.77.31-2.47.68-.98.51-1.48,1.2-1.58,2.29-.02.22-.21.69-.06.89.27.37.29,1.11,0,1.21-.78.11-1.01-.85-1.37-1.21-.81-.79-1.97-.4-2.82-.03-2.87,1.27-1.93,2.95-2.53,4.96l-2.16-.68c-2.15-.68-2.2.68-4.17,1.22-1.19-.66-2.46-.51-3.43.41-.88.85-1.61,2.16-1.53,3.44.06.95.06,1.81-.04,2.76l-.17,1.54Z"/>
  <path class="cls-1" d="M230.3,70.44c-.57,1.81-.19,5.35-1.79,5.36-.63,0-.91-.43-1.15-1.02-.2-.5-.23-.8.04-1.29.32-.58-.11-1.25-.27-1.87-.35-1.38-.11-2.85-.1-4.25.02-1.95.53-1.38.25-3.64-.14-1.12-.11-2.12-.03-3.23.09-1.31.05-2.53.38-3.81.2-.77-.11-1.56-.27-2.31.48-4.18.68-1.06.65-5.75,0-1.2.8-4.81.15-7,.91-1.13.6-2.44.66-3.71l.18-3.59c.3-.47,1.3-.17,1.63.26.98,1.31,2.06.86,2.27,1.64.05.2-.25.52-.39.76-.12.2-.16.76-.23,1.03-.72,2.9.45,2.93.19,4.63l-.32,2.08c-.17,1.12-.64,2.24-1.05,3.34.86.52.66,1.26.62,2.12l-.16,3.26-.36,2.4c-.07.49.03,1.17,0,1.63l-.53,6.94c-.09,1.19-.47,2.42-.23,3.58.19.91.12,1.57-.15,2.45Z"/>
  <path class="cls-1" d="M222.72,69.1c.27,1.36.1,3.93-1.37,4.24-.76.16-1.25-1.89-1.22-2.59l.13-3.24.08-1.94.66-1.82c.59-1.61.08-3.46.1-5.17-.98-.8-.79-2.12-.04-3.02l.09-2.77c.08-2.5-.11-3.6,0-6.41l.13-3.32c.04-1.04.11-2.15.22-3.17.07-.72.46-1.18-.03-1.92-.56-.85.01-1.93.19-2.84.13-.68.31-1.12.64-1.72.31-.56.57-1.48,1.48-1.44.35.02.64.76.72,1.17.07.37-.37.87-.7,1.19.5.88.23,6.02.04,6.63-.22.74-.36,1.26-.33,1.96.11,2.37-.22,3.63,0,5.54.28,2.34-.2,1.29,0,3.47.06.71-.31,1.7-.21,2.38.18,1.22-.06,2.27-.59,3.33l.08,1.92c.05,1.24.21,2.22-.33,3.37l-.05,1.72.21,2.95c.04.5,0,.98.1,1.47Z"/>
  <path class="cls-1" d="M175.59,248.75l-.97-2.16c-.58-1.29.46-2.28-.45-3.42-.62-.78.13-1.44.17-2.07l.34-5.92c.04-.79.13-1.53.25-2.3,1.04.38.57.91.69,1.45l.42,1.86c-.18.82-.03,1.65-.13,2.33-.17,1.17-.14,2.14-.11,3.33l.14,6.01c0,.35.26.63-.33.89Z"/>
  <path class="cls-1" d="M219.17,153.66c.27,1.24.63,2.83-.78,3.06-1.16-.91.12-1.83-.64-5.72-.2-1.02.02-1.8.13-2.73l.4-3.42c.07-.62.12-1.49.59-1.87.83.52.2,1.41.29,2.11l.22,1.75-.02,1.99c-.02,1.62-.23,1.46-.12,3.44.02.36-.14,1.08-.07,1.4Z"/>
  <path class="cls-1" d="M214.79,72.8l-.06-4.57c0-.49-.27-1.3-.1-1.73.43-1.12.22-2.03.25-3.15l.05-2.52c0-.26.14-.71.27-.89s.79-.21.91-.02c.23.35.03,1.08.02,1.52l-.15,7.48-.36,2.27c-.1.61.16,1.26-.83,1.6Z"/>
  <path class="cls-1" d="M225.54,155.95l-1.04-1.84c.54-2.98-.11-1.32.37-4.11l.23-1.29c.69-1.22-.81-2.85.99-2.96l.08,3.25c.02.61,0,1.17-.02,1.8l-.12,2.64c-.04.83.45,1.77-.5,2.52Z"/>
  <path class="cls-1" d="M246.73,152.59c-1.81.31-1.04-3.62-.76-4.48s.07-1.54-.07-2.38l-.3-1.78c-.09-.56.1-1.33.81-1.61.09-.04.32.35.32.46l.1,5.77c.01.63,0,1.11-.01,1.7l-.08,2.32Z"/>
  <path class="cls-1" d="M246.48,141.65c-.68-.3-.85-4.3-.72-4.54.91-1.68-.15-2.62,1.26-3.18l.16,1.8c.09,1.04.11,2-.04,3.04-.14.97.27,1.92-.66,2.88Z"/>
  <path class="cls-1" d="M222.78,77.24c-.34.72-1.42.28-1.83-.1-1.01-.93-1.38-2.98-.2-3.08.65-.05,1.77.72,2.02,1.33.17.41.15,1.46,0,1.85Z"/>
  <path class="cls-1" d="M267.48,193.13c-.78-.6-.59-1.3-.02-1.93.53-.57-.88-.96-.43-2.98.35-.25.98-.66,1.3-.53.4.23.21.97.19,1.35l-.16,2.16c-.06.75-.13,1.4-.88,1.93Z"/>
  <path class="cls-1" d="M257.06,169.66c-.12.18-.66.09-.72-.07-.48-1.27.62-.73.17-3.08-.09-.5.13-1.26-.04-1.84-.14-.51-.09-1.73.41-1.79.91-.11.55.99.53,1.4l-.14,2.62c-.04.83.33,1.94-.21,2.75Z"/>
  <path class="cls-1" d="M175.38,231.54c-1-.16-.81-1.55-.28-2.11.57-.61-.09-1.41-.34-1.98.57-1.23.1-2.03.94-2.24.36.34.03,1.02.09,1.35.15.89.56,4.56-.41,4.99Z"/>
  <path class="cls-1" d="M257.51,174.13c0,.26-.53,2.21-.83,1.95-.68-.58-.5-2.08-.36-3.03l.27-1.93c.1-.05.54.09.56.21l.37,2.8Z"/>
  <path class="cls-1" d="M176.32,216.42l-.35,1.86c-.92-.42-.96-1.13-.84-1.92l.27-1.71.07-.38c.02-.12.56-.15.63-.06.34.42.35,1.5.22,2.2Z"/>
  <path class="cls-1" d="M216.2,54.97c.03.71.59,3.66-.68,3.31l-.08-2.67c0-.24.41-.63.76-.64Z"/>
  <path class="cls-1" d="M205.64,83.03l-.54-1.92c-.05-.2,0-.69.17-.77s.59-.14.77-.07c.23.09.44,2.38-.4,2.76Z"/>
  <path class="cls-1" d="M200.47,97.4c.47.2-.1,2.17-.7,1.89-.89-.41-.43-1.7.14-2.07.17.05.43.13.56.18Z"/>
  <path class="cls-1" d="M182.69,184.25c-.74,1.09.06.48-.37,1.31-.05.09-.46.04-.51-.05-.31-.54-.38-1.93.36-2.35.18-.1.68.06.69.25,0,.2-.06.67-.18.84Z"/>
  <path class="cls-1" d="M206.05,89.09c-.15.17-.73.1-.87-.09-.45-.6.05-1.68.68-2.44.18.86.18,1.5.19,2.52Z"/>
  <path class="cls-1" d="M204.96,100.17c.05.52-.06,1.14-.63,1.25-.25.05-.72-.38-.72-.63,0-.28.27-.9.54-.99l.51-.19c.14-.05.28.38.29.56Z"/>
  <path class="cls-1" d="M256.78,161.8c-.77-.31-.28-3.2.4-2.8.39.87.11,1.92-.4,2.8Z"/>
  <path class="cls-1" d="M247.32,130.67c0,.27-.2.69-.37.86-.14.14-.61-.32-.6-.52.02-.42.16-1.25.24-1.68.83-.09.75.57.73,1.35Z"/>
  <path class="cls-1" d="M216.56,34.17l-1.62-1.47c-.1-.1-.15-.48-.11-.6.06-.15.46-.05.58.08,1.14,1.28,2.16,1.26,1.14,1.99Z"/>
  <path class="cls-1" d="M246.89,127.57c.05-.56-.33-2.02.53-2.27.31-.09.71,2-.53,2.27Z"/>
  <path class="cls-1" d="M175.84,224.17c-.7-.25-.63-.91-.59-1.57l.04-.62c0-.12.53-.15.56-.03.15.52.12,1.57,0,2.22Z"/>
  <path class="cls-1" d="M204.23,104.14c-.3-.07-.62-.43-.63-.65s.19-.8.41-.8c.32,0,.65.39.63.62s-.19.89-.41.83Z"/>
  <path class="cls-1" d="M232.37,93.37c0,.18-.61.16-.7.01-.12-.22-.26-.51-.21-.66.05-.18.47-.26.68-.29.18-.03.25.51.23.94Z"/>
</svg>