<?xml version="1.0" encoding="UTF-8"?>
<svg id="Layer_2" data-name="Layer 2" xmlns="http://www.w3.org/2000/svg" viewBox="0 0 432 288">
  <defs>
    <style>
      .cls-1 {
        fill: #fff;
      }
    </style>
  </defs>
  <g>
    <path class="cls-1" d="M295.21,95.06c-.69-.34-1.76.32-2.08.89.36.26.81.66.72.89-.11.28-.54.78-.87.93-.47.21-1.2-.1-1.6-.11-.52,0-1.66.24-2.03-.17l.41-3.19c1.82.86-.62,3.01,1.07,3.19,1.03-1.51,2.17-3.03,3.91-3.3l-.72-.59c-.22-.18,2.12-1.41,2.3-3.11.02-.21-.53-.57-.66-.45l-.73.66-.3-1.22-.78,1.42.64.97c.15.23-.64.63-.81.85l-1.49,1.9c-.35-.35-.76-.96-.79-1.35-.03-.49.54-1.15,1.09-1.78-1.38-.3-1.95.76-2.62,2.26-.36-1.34-.12-2.63,1.35-3.3s.1-2.4,1.93-2.51l.19,1.91c.34-1.1.7-1.88,1.68-2.59l-.44-1.56c.75-.76,1.27-1.51,1.19-2.61-.07-1,1.42-2.22,2.32-2.25l-1.37,1.97c1.32.44,1.39-.71,1.69-1.46.59-1.5.65-2.32-.55-4.04l1.4.1c-.29-2.31,1.23-2.87.98-3.23l-.59-.85c.77-.45.79-1.47,1.16-2.33l1.44-3.41c.27-.63.1-1.87.27-2.51.45-1.71,1.39-3.28,1.34-5.11-.04-1.6.81-3.03,1.16-4.52l1.76-7.4c.4-1.68.75-3.35,1.39-4.78s.95-3.08,1.19-4.61c.76.15,1.56.28,2.29.34-.25-1.13-.66-2.53-.13-3.27.36-.52,1.6-.46,1.4-1.3l-1.49-.4c-.36.94-.61,1.63-1.08,2.54-.08-2.45.24-4.6,1.06-6.68,1.55-3.92.09-2.63,1.74-5l-.03,4.34.04,2.14c.01.63.81,1.7.94,2.31.15.71-.93,1.78-.95,2.4l-.11,3.2,2.46.82c.45.15.86,1.29,1.53,1.1s.95-.73,1.38-1.36c1.63-2.34.7-2.96,1.17-2.93l1.05.06,1.09.05c.24.01.22-.67.31-1.21.07-.43,1.06-.62,1.56-.45.47.16.82,1.53.37,1.86-1.35.97-1.3,3.39-.52,4.23.08.08.65.28.76.33s-.11.39-.22.37l-.58-.06c-.24.24-1.13,1.05-1.28,1.49l-1.07,3.1-.94,2.56c.13,2.65.49,4.08-1.52,5.6-.23.18-.2,1.1-.38,1.34-.3.4-1.99,1.09-2.4,1.16.03,0-2.93-1.2-2.89-3.23-.73.24-1.42.88-2.06,1.75l-1.07-1.37-.57,2.34c.74.72.34,1.7.24,2.49.55.89,1.3,2.47.9,3.49-.33.07-1.34,0-1.32.23l.08,1.13c-.94.5-1.3,1.41-1.38,2.54-.06.91.64,2.01,1.42,2.64l1.19-.81c.28-.19-.18-1.13-.18-1.49.24-.79.72-2.32,1.28-2.81l1.67-1.47,1.08,1.23c.39.44-.69,1.26-.79,1.7l-.59,2.69-.68,3.22c-.05.23-.88.38-1.04.56-.7.77.73,3.5-2.27,4.18-1.36.3-1.81,1.49-1.48,2.8l-1.02.99-.51,2.3c-.05.23.13.9.12,1.13-.02.29-.54.56-.9.77l-1.1.63c-.26.15.02,1.26-.17,1.5l-1.56,1.95c-.22-.49-.67-1.26-1.06-1.51-.61.67-.78,1.84-.59,2.46.53,1.7-.92,2.05-1.28,3.04-.45,1.26-.59,2.68-1.36,3.96l-2.76-1.37ZM296.18,89.44c.76-1.38,1.06-2.7.81-4.2.11-2.41-2.17,6.66-.81,4.2Z"/>
    <path class="cls-1" d="M242.61,144.88c-.11.56-1.24,1.02-1.95,1.29l.47-2.9,1.18,1.38-.15-2.75c-.11-1.9,0-3.92.64-5.76l.85-2.46,1.17-6.48.67-2.1,1.27-5.72c.03-.15,1.17-.28,1.02-.32s-.45-.7-.43-.87l.71-4.65c.09-.63.65-1.51.75-1.98.53-2.52.98-4.9,1.57-7.33l1.66-6.81c.19-.79.54-1.48.67-2.29.33-2.11.67-4.13,1.21-6.19.26-.98.68-1.95.76-3.04s.86-2.26,1.03-3.11l.96-4.86c.74-3.77.99-3.3,1.82-8.5.16-.97.69-1.92.88-2.72l1.02-4.27.37,1.13c.06.19.74.03.95.06.33.04.32,1.21.01,1.36l-1.25.6c-.58.28-.58,1.17-.36,1.14l.9-.12-.9,5.43c-.12.76-.63,1.73-.85,2.46-.6,2.01-.62,4.27-1.35,6.22-.28.73-.5,1.3-.63,2.07-.35,2.17-.93,4.15-1.39,6.27l-1.54,6.96-1.56,6.73c-.07.29-.45.93-.54,1.14l-.98,5.26-.75,2.59c-.68,2.36-.83,4.64-1.65,6.97-.48,1.36-.53,3.07-1.01,4.61l-.73,2.33-1.14,5.81-.62,2.06-.87,4.01c-.22,1.02-.82,1.94-1.03,3l-.86,4.34Z"/>
    <path class="cls-1" d="M263.24,58.66c.1.06-.47.35-.56.42-.13.12-.13.68-.26.85l-1.84,2.42c-.44-1.26.34-2.07.57-3.04l1.05-4.31c.19.22.51.72.63.61l.66-.61.11.72c.09.57-1.31-.91-1.73,2.76.33-.08,1.06-.01,1.37.18Z"/>
    <path class="cls-1" d="M287.94,99.99l-2.4,2.36c-.25-1.51.9-2.54,2.39-3.14v.78Z"/>
    <path class="cls-1" d="M315.15,59.89l-.6,1.15c-.11.22-1.03-.1-1.05-.35-.06-.62.78-1.95,1.66-2.03.18.09.13.95-.02,1.23Z"/>
    <path class="cls-1" d="M279.25,134.14c.16.62-1.98,1.3-2.57.61l2.33-1.54.24.94Z"/>
    <path class="cls-1" d="M293.34,83.39l-.3.61c-.09.18-.81.12-.76-.07.27-1.21,1.09-2.05,2.78-2.02l-.32,1.6-.9-.8c-.14-.12-.29.25-.5.68Z"/>
    <g>
      <path class="cls-1" d="M267.88,193.62c-2.71-.62-4.92-1.97-7.4-3.11l-9.71-4.49c-1.12-.52-2.67-.83-3.69-1.49l-9.35-6.08c-.29-.19-.52-1.01-.45-1.29,2.33,1.44,4.51,2.74,6.75,4.3.59.41,1.26,1.16,1.94,1.48l5.94,2.79,9.01,4.3c2.37,1.13,4.65,2.08,6.97,3.59Z"/>
      <path class="cls-1" d="M132.85,128.72c-.73.71-2.24.75-3.49.43l1.32-.81c.63-.39,1.77-.66,2.17.38Z"/>
    </g>
  </g>
  <g>
    <path d="M230.87-1.35c-.17.99-.93,1.75-1.55,2.64l-1.88,2.65-5.55,7.54-58,79.12-1.97,2.67-1.8,2.43-1.65,2.27-1.68,2.26-1.67,2.28-2.15,2.98-7.1,9.58-1.55,2.11c-.65.89-1.34,1.79-1.69,2.83,1.82.74,3.2,1.17,4.3,2.65.48.64.34,2.02.18,2.82l15.64,7.56,7.03,3.35,30.99,14.42,1.85.86,7.79,3.51,6.07,2.77,8.26,3.89c.14.06.69.07.79.08,3.22.53-8.93-4.34-6.97-4.39l15.59,7.02.59-2.85.76-1.91c-.54,1.34,3.35-15.18,3.28-14.85l1.17-5.87c.14-.69.53-1.33.66-2.06l1.03-5.61c.18-.96.64-1.78.82-2.78l.75-4.08c.67-3.61.72-.1,1.65-7.13.11-.81.6-1.69.86-2.49.45-1.37.39-3.02.7-4.42l.75-3.33c.16-.72.65-1.67.8-2.48l.75-4.08c.09-.5.65-1.41.72-2,.24-1.95.34-3.86.99-5.63l.9-2.46c.04-.11-.11-.71-.14-.82-.04-.17-.37.04-.78.18l-1.01,5.75c-1.17,6.65-3.59,3.91-3.52,5.35.06,1.27,1.12,1.35.46,2.38-.16.26-.54.72-.4.83l.89.66-1.25,7.72c-.16.99-.64,2.23-.89,3.29l-.69,2.95c-.18.76-.66,1.91-.96,2.69-.46.22-1.3.52-1.39.93-.13.58.29,1.48.73,1.88l-.17,2.89c-.03.45-.53,1.38-.61,1.82-.41,2.26-.95,4.64-1.58,6.85-.34,1.2-.78,2.57-.96,3.59-.22,1.24-.13,2.23-.98,3.29-.24.3-.54,1.02-.84,1.19-.36.2-1.05,0-1.22-.37-1.01-2.18-.35-4.9.09-7.16.26-1.31-1.35-3.2.26-4.42l-.46-2.61c-.29.15-1.38.32-1.78.15s-.75-.69-.99-1.14c.17-.21.47-.65.66-.59l.94.29c.52.16,1.15.33,1.52.31s.97-.94.97-1.31c-.05-2.21-3.78-2.56-2.26-4.17.62.33,2.07.81,2.35.21l1.39-3,1.06-.3c.23-.07-.32-.72-.38-.96l.44-2.2c2.48-1.61-.1-4.19,1.33-4.94.55-.29,1.33-.84,1.32-1.4,0-.45-.52-1.08-.93-1.51.53-.49,1.19-1.09,1.45-1.5.4-.63-.05-1.47-.58-2.09l1.3-1.29c2.07-4.09.23-3.47,1.71-5.26.08-.09.27-.47.31-.58.07-.16-.33-.42-.51-.39-.77.13-.41,1.49-.87,1.29l-.79-.35c-.45-.2-.99-.45-1.33-.55-.37-.1-.8,1.06-.66,1.42.55,1.49.67,3.49-.86,4.07l-1.26.48c-.32.12-.62-.82-.72-1.33-.09-.42-1.57-.16-1.37.22,1.12,2.17-1.43,3.24-2.07,3.75-1.05.84-2.12,1.48-3.6,1.91.67,1.9,1.85,4.33-.22,5.7l-1.94-.69-.58,1.61,1.07.83c-.87.86-1.56,1.82-1.6,2.72,2.91,4.21-1.75,4.73.13,7.01l1.69-1.53c-.27-1.55.14-3.26,1.78-3.94.3-.12.62.62.61.94-.02.57-.67.71-1.45.82l-.26,5.52c-.06,1.19.64,2.87-.7,3.69-2.31,1.42-.52,1.87-2.03,5.22-2.87,2.62.08,3.02-2.29,5.61-.39-.01-1.1-.44-1.4-.76-.29-.31-.22-.96-.23-1.73-1.48.9-1.45,4.54-2.35,5.82.08-1.66.47-3.04.76-4.62l1.05-5.89.81-2.51.75-3.86c.13-.69.58-1.61.74-2.25.59-2.44.69-4.99,1.45-7.41.22-.71.47-1.36.6-2.08l.76-4.03c.21-1.09.55-2.13.78-3.18l1.75-8.03c.37-1.72.98-5.65,1.67-6.23-.32.21,3.62-16.77,2.99-15.1l.69-1.84,1.03-5.48.78-2.57,1.09-5.89.69-2.59c.52-1.95.91-3.83,1.34-5.79l1.8-8.14,1.85-8.47,1.63-7.26.98-4.02.89-3.59c.65-2.63,1.09-5.24,1.68-7.86l1.83-8.15,1.69-8.03c.15-.72.37-1.34.46-1.93h175.99v286.55h-100.5l.04-1.29c.02-.69,2.18-.03,2.26-1.98.06-1.49-1.96-2.34-1.03-2.97,1.77-1.19,3.5-2.89,4.63-4.64-.1,2.44-.12.89-.62,3.15-.04.17.43.63.55.5s.56-.59.61-.79l1.54-5.92c.45-1.74,1.24-3.35,1.38-5.17l.81-1.32.89-3.93c.39-1.7,1.47-2.79,1.52-6.31-.44.63-.7,1.32-.93,2.13l-1.04,3.59c-.17.57-.57,1.85-.97,2.32l-1.83,2.18c-.65.77-.24,2.28,0,3.46l-2.52-.53c-.59-1.02-.68-2.62-.34-3.63.73.42,2,.82,2.18.01.26-1.11-.98-1.2-1.73-1.37l-.82-.19c-.54-.12.95-3.56.99-3.67,1.12-2.95-.36-8.84,1.58-10.24l2.48-1.78c-.76-3.25,3.06-2.48-.09-6.65-.18-.39.41-1.22.86-1.71.07-.07-.44-.73-.69-.77-1.58-.28-.19,1.06-3.85.33-.93-.19-2.13.89-2.38,2s.95,2.33,1.92,3.24l-1.52,1.62,1.28.81c.17.11.47,2.5-.6,3.52-.95.9-.97,1.69-1.16,3.07-.21,1.6-3.18,1.38-3.43,4.95.75.84,1.83,2.53.71,3.39-.86.66-2.79,1.11-3.42,1.87-.2.92-.61,1.68-.63,2.42l-.23,7.55-.8,1.79c-.53,1.18-1.47,2.21-2.19,3.28-.38.57.01,1.72-.95,2.29l-1.09-2.24c-1.31.93-2.61,2.97-1.6,4.51.71,1.08,2.26,2.63,2.03,3.16h-5.23c-.22-.73.45-1.44.9-1.88l.67-5.04c.15-1.16.19-2.02.93-3.02l.38-2.04c.62-.86.74-1.8.45-2.81.54-.13,1.23-.29,1.53-.46.33-.18-.13-1.17-.17-1.56-.09-.8,1.11-2.15.72-3.18-.98-2.58,1.52-4.53.63-4.74l-.6-.14-1.08,4.79c-.17.77-.6,1.39-.81,2.17l-1.59,5.92c-.48,1.8-1.01,3.52-1.34,5.41-.55,3.15-.58-.33-1.53,5.11-.1.6-.3,1.12-.63,1.44h-.96c.37-1.77.85-3.57,1.36-5.4l1.28-4.64c.36-1.3.85-2.54,1.14-3.91s.82-2.58,1.16-3.94l1.29-5.17c.26-1.02.69-1.96.92-3,.31-1.4.59-2.81,1-4.13l.95-2.99.97-3.21,1.63-6.28,1.81-6.36,1.81-6.63c.42-1.54.81-2.93,1.2-4.77l-25.24-12.2-43.62-20.71c-.22-.11-.98-.25-1.22-.32-.75-.61-2.15-1.33-2.93-.78,1.14.54,1.44,1,2,1.93.51.85,1.78,1.92.27,3.12v-1.46c.01-.31-.72-.46-1.35-.6l.31-1.29-.96,1.14c.35.68.5,1.01.62,1.47l-1.92-1.37.34,1.29-.2,1.57c1.4-.21,1.99-.24,3.18-.17l-.42,1.43c.9.91.72,2.23.35,3.05,0,.44.28,1.58.09,1.95s-.68.62-1.44,1.13l-.54-2.02c.93-.87,1.34-2.67-.17-3.15.16.87.43,1.87.27,2.35-.06.18-.79-.13-.91.03l-.55.76c-.3.41-.49.89-.59,1.41l-.5.67c-.18.24,1.08,2.01,2.75,1.72l-1.63,1.54c-.33-1.25-1.21-2.28-2.08-2.17-.24.03-.71.67-.7.88.02.26.59.34.86.37l.73,2.12c-.31-.02-.82-.3-1.29-.67-.06.13-.31.92-.15,1.17s.85.41,1.22.52c.33.1.02,1.25-.32,1.16l-1.6-.42,1.14,1.37-.78,1.29c-.08.13-.53.25-.69.29-.15.04-.03-.46.03-.89l-.7-.16c-.26.34-.43.56-.43.55l-.73-.5-.3,1.11c-.08.29.6.71.67,1l.55,2.38c-2.53,2.23-.04,3.94-.95,4.95l-.48-.79c-.08-.14-.59-.05-.63.11-.08.31-.19,1.02-.39,1.02l-.8.02c-1.41.74-.44,2.15-.6,3.24-.15,1.01-.43,1.68.62,2.68l-1.02,1.1c.16.36-.1,3.45-.14,3.7-.08.49-1.59,1.11-1.5,1.45l.43,1.52-1.02,1.22-1.4,1.9c.13,1.23-.26,2.17-1.45,2.87.79.62,1.26,1.1,1.66,2.17l-2.09.49-1.03-1.51c-.33.33-.7,1.3-.52,1.64s.58.62,1.17,1.16l-1.3,1.43c.07.7.47,2.04.08,2.48l-1.14,1.28c-.25.28.14.96.23,1.5.17.93-.58,2.1-.8,2.95l-.72,2.81c-.15.61-.69,1.31-1.06,1.78l-.16,1.79c-.04.43-1.47.31-1.72.4l-.84,2.61c-.05.17-.16.61-.2.75-.05.21.64.4.74.29l.46-1.95c.08-.34,0-1.42.35-1.35,1.1.23,1.5,1.38,1.31,2.09l-.45,1.73-1.37-1,.77,2.34c.24.73-.88,4.06-1.83,3.74-.28-.09-.38-.69-.55-1.26l-1.05,1.54c-.06.09-.11.62-.11.75s.46.27.52.16l.52-.98,1.63,1.19c-.74,1.28-1.62,1.19-2.92.6-.38,1.44-.58,2.75-.52,4.05l.42-.7c.51-.84-.59-.26.57.28l.75.35c.63.29-1.71,1.09-2.13,2.61-.38-.34-.66-.4-.69,0l-.51,3.71c-.06.42-.33,1.2-.43,1.62h-18.87c.69-4.85,1.69-7.4,2.62-12.61.14-.78.47-1.55.64-2.32l1.63-7.44,1.56-6.66,1.78-7.87,1.84-8.46,1.86-8.45,1.5-6.85c.36-1.63.84-3.16,1.09-4.87.19-1.24.65-2.34.91-3.55l1.54-6.97c.58-2.62.83-5.23,1.67-7.8l.74-2.26c.63-1.92.63-3.94,1.12-5.84.24-.91.6-1.84.77-2.85l.65-4.08.51-.35c.1-.07-.1-.44-.2-.5-.16-.09-.52.24-.86.6l-.27-2.11-.49,1.37c-.75,1.18-.91,2.65-.5,3.87-.39.62-.79,1.49-.92,2.36-.13.92-.56,1.63-.75,2.48l-1.66,7.41c-.42,1.88-.92,3.67-1.19,5.6-.14,1.01-.52,1.83-.72,2.82l-1.19,5.86c-.16.78-.7,1.65-.85,2.51l-.96,5.68-.74,1.98-.89,5.5c-.11.66-.49,1.36-.64,2l-1.6,6.86c-.55,2.37-1.02,4.69-1.39,7.19-.1.68-.49,1.38-.64,2.04l-1.33,5.63c-.57,2.4-1.12,5.12-1.51,7.53-1.3,2.75-.91,4.71-1.99,8.3-.8,2.64-.89,5.2-1.71,7.82l-.64,2.04-.77,4.4h-2.07c-.02-.1.32-.75.38-1.03l1.4-6.82c.28-1.37.74-2.65,1-4.07s.66-2.55.92-3.86l1.54-7.57,1.96-8.9c1.54-6.96,3.32-14.14,4.61-20.95.17-.9.49-1.7.68-2.57l1.64-7.46,1.59-6.99c.17-.76.53-1.6.68-2.39l1.18-6.35.71-2,.7-4.33c.68-.92,1.75-6.05,2.1-7.61l1.62-7.31.68-2.63,1.22-5.71c.11-.51.53-1.35.77-2.17,1.33-.59,3.57,2.95,4.02.84l-48.21-22.64-44.03-20.96c-2.36,1.91-6.6.41-9.23-1.26-.88.82-1.64,1.84-2.46,2.94l-21.4,28.77-2.35,3.12-1.67,2.29-15.69,20.94-1.59,2.12-3.51,4.58-2.09,2.74-1.7,2.25-1.71,2.25-1.48,1.82-1.72,2.28-1.98,2.77-1.86,2.49-12.9,17.05-2.2,2.92-9.12,12.09-1.94,2.57-1.71,2.25-5.5,7.24-1.33,1.72-1.94,2.53-1.7,2.28-1.35,2.53-2.02,2.57-1.9,2.4c-1.52,1.92-2.12,4.11-4.48,4.11l-2.21,2.63-5.14.45-.9-1.55c-1.29-.14-2.36-.5-3.04-1.35-.81-1-.54-2.01-.69-3.25-.58-4.8-.31-1.1-1.78-4.96-1.7-.2-3.77.06-5.6.21l-3.67.29-3.32.16v-25.75l.94-1.52,1.9-3.53c.63-1.17,1.44-2.13,2.15-3.34l1.44-2.43c.79-1.34,1.96-2.57,2.65-3.91.5-.97.84-1.67,1.56-2.46l.43-1.74c3.7-3.25,2.95-4.94,5.37-8.35,1.61-.55,1.69-2.97,2.37-4.17.76-1.33,3.08-2.02,2.8-4.08-.06-.45.89-1.05,1.11-1.39l3.36-5.11,1.76-3.1c.45-.79,1.56-1.93,1.7-2.68.28-1.53,1.05-1.83,1.85-2.89,1.02-1.35,3.15-4.79,3.72-6.41.51-1.43.88-1.83,1.81-2.91,1.28-1.46,2.69-3.68,3.38-5.44.47-1.21.71-1.98,1.72-2.75.44-.34,1.14-1.36,1.44-1.84l2.16-3.56,1.6-2.65,1.85-3.08,1.9-3.19,1.61-2.6,1.77-2.86,1.83-3.03,1.83-3.02c.41-.68,1-1.57,1.3-2.21.5-1.08.69-1.89,1.77-2.57l1.2-2.3c.06-.11.69-.39.61-.49l-.48-.61c1.43-.16,1.16-1.81,1.78-2.58,1.27-1.58,2.43-3.11,3.43-4.84,2.51-4.36.47-2.1,3.54-6.1.68-.88,1.17-1.86,1.73-2.81s1.37-1.28.91-2.79c-.16-.52.98-1.13,1.36-1.51l1.74-1.74c-.22-.19-.72-.57-.58-.62,1.87-.68,1.03-1.02,1.95-2.13,3.77-4.52-1.03-3.22,3.86-6.19.87-.53.62-2.31,1.11-2.85.72-.8,1.34-1.58,1.89-2.35.98-1.38,1.88-2.28,1.47-4.35-.12-.64,1.41-1.22,2.16-1.48,1.79-.62-.23-4.33,2.38-5,1.2-.31,2.3-1.76,1.8-2.8-.18-.37.82-.88,1.31-1.16l4.01-6.52c.54-.88.87-1.67,1.51-2.53,1.48-1.99-1.2-2.54,2.05-4.35.85-.47,1.54-1.58,2.08-2.46l2.16-3.53,1.92-3.25c.43-.72.96-1.18.76-2.25-.1-.56.19-1.7.57-2.12.3-.33.89-.38,1.71-.54l.28-2.73c.43-.38,1.83-.88,2.13-1.4l1.46-2.5c.17-.3.73-.85.59-1.11l-.66-1.25c.43-.44,1.41-1.39,2.04-1.65,1.47-.6,1.16-2.17,1.8-3.26.77-1.31,3.09-2.15,2.65-4.27-.18-.86-.16-1.95.93-2.36,1.56-.6,2.95-2.18,2.92-3.97,0-.52-.33-1.74-.01-2.13,1.14-1.44,3.64-.94,3.13-2.94-.33-1.29.32-1.81,1.37-2.35,1.34-.68,1.86-2.36,2.68-3.56.71-1.05,1.15-1.97.99-3.31-.59-4.85,4.41-3.5,5.58-7.68.56-2.02,1.79-3.52,3.08-5.18.5-.65,1.04-1.66,1.51-2.4l1.54-2.42,1.45-2.47c.47-.8.92-1.46,1.06-2.27h84.21ZM139.62,28.95l3.66-5.37,2.37-3.9,1.81-3.04,1.51-2.43,1.42-1.94c.99-1.36,1.53-2.84,2.23-4.36.15-.33.85-.52.63-1.36-1.84,2.13-3.98,5.19-5.72,8.15l-1.61,2.73-1.62,2.51c-.56.87-1.07,1.82-1.63,2.61-.51.73-1.06,1.4-1.48,2.15l-1.33,2.35c-.36.63-.63,1.28-.25,1.9ZM133.04,21.1c.97-.74,1.7-1.79,1.73-2.93-1.4.55-2.13,1.5-1.73,2.93ZM167.55,24.39c.14-.18.1-.26-.09-.26-1.72.67-2.27,2.24-1.94,3.61.59-1.31,1.07-2.09,2.03-3.35ZM295.21,95.06l2.76,1.37c.76-1.29.91-2.71,1.36-3.96.36-.99,1.81-1.35,1.28-3.04-.19-.62-.02-1.79.59-2.46.39.25.84,1.01,1.06,1.51l1.56-1.95c.19-.24-.1-1.35.17-1.5l1.1-.63c.36-.21.88-.48.9-.77.02-.23-.17-.9-.12-1.13l.51-2.3,1.02-.99c-.34-1.31.12-2.5,1.48-2.8,3.01-.67,1.57-3.4,2.27-4.18.16-.17.99-.33,1.04-.56l.68-3.22.59-2.69c.1-.44,1.17-1.26.79-1.7l-1.08-1.23-1.67,1.47c-.56.49-1.04,2.02-1.28,2.81,0,.36.46,1.29.18,1.49l-1.19.81c-.78-.63-1.48-1.73-1.42-2.64.07-1.14.44-2.04,1.38-2.54l-.08-1.13c-.02-.24.99-.16,1.32-.23.4-1.03-.35-2.6-.9-3.49.1-.79.49-1.76-.24-2.49l.57-2.34,1.07,1.37c.65-.86,1.33-1.5,2.06-1.75-.04,2.02,2.92,3.22,2.89,3.23.41-.07,2.09-.76,2.4-1.16.18-.24.15-1.16.38-1.34,2.01-1.53,1.65-2.95,1.52-5.6l.94-2.56,1.07-3.1c.15-.44,1.04-1.25,1.28-1.49l.58.06c.11.01.32-.33.22-.37s-.68-.25-.76-.33c-.79-.84-.84-3.26.52-4.23.45-.33.11-1.7-.37-1.86-.5-.17-1.49.02-1.56.45-.09.54-.07,1.22-.31,1.21l-1.09-.05-1.05-.06c-.46-.03.46.59-1.17,2.93-.43.62-.75,1.18-1.38,1.36-.67.19-1.08-.95-1.53-1.1l-2.46-.82.11-3.2c.02-.63,1.1-1.69.95-2.4-.13-.62-.93-1.68-.94-2.31l-.04-2.14.03-4.34c-1.66,2.38-.19,1.09-1.74,5-.82,2.08-1.14,4.24-1.06,6.68.47-.9.72-1.59,1.08-2.54l1.49.4c.19.84-1.04.78-1.4,1.3-.53.75-.11,2.14.13,3.27-.72-.06-1.53-.19-2.29-.34-.24,1.54-.57,3.23-1.19,4.61s-.99,3.1-1.39,4.78l-1.76,7.4c-.35,1.49-1.21,2.92-1.16,4.52.05,1.83-.9,3.4-1.34,5.11-.17.64,0,1.88-.27,2.51l-1.44,3.41c-.36.86-.38,1.88-1.16,2.33l.59.85c.25.36-1.27.92-.98,3.23l-1.4-.1c1.2,1.73,1.14,2.54.55,4.04-.3.75-.36,1.9-1.69,1.46l1.37-1.97c-.91.02-2.4,1.25-2.32,2.25.08,1.1-.44,1.85-1.19,2.61l.44,1.56c-.98.72-1.34,1.5-1.68,2.59l-.19-1.91c-1.83.11-.52,1.88-1.93,2.51s-1.71,1.95-1.35,3.3c.67-1.5,1.24-2.56,2.62-2.26-.55.62-1.13,1.29-1.09,1.78.03.39.44,1,.79,1.35l1.49-1.9c.17-.22.96-.62.81-.85l-.64-.97.78-1.42.3,1.22.73-.66c.13-.11.68.24.66.45-.18,1.7-2.52,2.93-2.3,3.11l.72.59c-1.74.27-2.88,1.78-3.91,3.3-1.69-.18.75-2.33-1.07-3.19l-.41,3.19c.37.41,1.51.16,2.03.17.4,0,1.13.32,1.6.11.34-.15.76-.65.87-.93.09-.23-.35-.63-.72-.89.32-.57,1.39-1.23,2.08-.89ZM380.29,28.9c-.79-.57-2.4-.23-2.49.69-.06.66,1.3,1.02,1.88.87.46-.12,1.01-1.28.61-1.57ZM382.01,45.51l1.76-7.2-1.34-.24c-.24-.04-.21-.9,0-1l1.01-.44c-.2-.47-.55-1.31-.62-1.77s.73-1.18.93-1.63c.06-.14-.61-.52-.71-.38l-.47.64c-1.74,2.39-1.06-1.71-2.41-3.01-2.36,2.09-2.2.41-6.23.44.13,1.57.7,2.79.9,4.05l1.17,7.48c.08.49.46,1.3.58,1.8.5,2.02.47,4.24,1.15,6.17,1,2.88.5,3.74,1.32,3.96,1.51-2.24,1.91-4.43,2.27-6.92.08-.57.56-1.43.69-1.95ZM132.04,41.5c.39-.45.76-1.37,1.11-1.91l1.67-2.59,2.15-3.55c.4-.66.89-1.23.95-2.02-1.38.38-1.71,1.48-2.38,2.54l-1.65,2.58-1.54,2.41-1.82,3.27c-.38.69-.96,1.4-1.44,2.13l1.06.14c-.05,0,.81-1.73,1.89-2.98ZM126.77,46.85l3-.96c.45-1.51-4.97-.12-3.69.81.09.07.58.19.69.15ZM127.65,47.06c-.59.69-1.16,1.37-1.49,1.93l-1.68,2.94c-.21,1.98,5.1-5.48,3.17-4.87ZM135.99,53.32c2.63,1.08,3.98-.86,4.35-2.93l-.99.82c-.2.16-.91-.1-1.31-.17l-2.05,2.28ZM118.47,62.73l1.45-1.84c.4-.72.85-1.64,1.29-2.29l1.37-2.04,2.25-3.21c-1.1-.41-2.07-.04-3.03.59,1.56,2.23-1.42,2.97-2.08,6.16-.82.58-1.86,1.46-1.24,2.63ZM272.9,167.03c-.11.22.69.97.84.75s.29-.54.63-1.29l1.21.87c.2-1.39.36-2.44.74-3.51.27.99.12,1.76-.11,2.7l-.56,2.35-.77-1.24c-1.09,2.04.37,3.14-.29,3.78l-.61.59c1.95,2.03-.57.57-2.61,3.25l-.84-2.24c-.19.62-.18,1.1-.14,1.71l.07.9c.02.3-1.24.13-1.32.47l-.1.46,2.6,1.3.58-.8c.07-.1.31.29.3.42l-.02.72,63.15,27.72c.76-.72,1.11-1.61,1.29-2.57.22-1.18,2.49-10.14,2.51-10.18l.7-1.44,1.22-5.2.85-2.41,1.01-5.04c.1-.5.78-1.44.7-1.91l-1.97-.88-1.41,2.14-2.54.31c-1.1.55-2.44,1.19-3.67.51-.22-.76-.13-1.79,0-2.81l-2.27-.52c-.58-.22-.15-1.89-.1-2.53l.18-2.38,2.47-2.07c1.96,1.94,2.89-.69,6.35.52l.34,1.41c.06.27.65.25.96.36l1.22.9c.08-1.09.14-1.79,1.11-1.79.17.39.29,1.57.04,1.91-.72.51-1.28,1.35-.57,2.27,1.98-1.18,1.62-4.52,2.65-7.05.75-1.84,1.07-3.62,1.64-5.5.2-.67.75-1.6.93-2.38l.91-3.96c-.21.89,2.35-7.16,2.11-6.26l1.4-5.3c.22-.82.6-1.53.77-2.35,1.36-6.5.98-2.97,1.91-6.51,1.08-4.12.14-5.54-.2-10.37-.09-1.23-2.48,1.42-2.84.47l-.48-1.25c-2.65-1.43-.97-1.89-2.87-3.3,1.14-1.35,4.59.78,4.59-.33v-1.28c0-3.76-1.75-4.86-1.21-5.23l.63-.43c.18-.13.25-.62.23-.85-.01-.22-.6-.12-.85-.05l-2.33.62.37-1.16c-.1-.97-1.24-1.51-2.46-1.4l-.04-1.46c-.8-.51-1.45-2.62-.29-2.99.92-.29,2.09-.47,2.51-1.06.49-.67.68-1.65.34-2.29-.76-1.41-.75-2.95-1.14-4.47-.13-.49-.51-1.31-.58-1.82l-.91-6.83c-.13-.99-.36-1.77-.73-2.71-.82-2.05-.6-4.52-1.25-6.61-.54-1.73-1.02-3.21-1.15-4.98-.37-5.37-.89-2.15-1.34-5.8l-.34-2.81c-.69-5.61-.88-1.42-1.48-6.38l-.61-4.98c-.07-.57-1.03-1.76-1.54-1.47l-3.12,1.79-1.15-.98-1.58,3.36c-.42.89-1.01,1.79-1.56,2.65l-1.74,2.75c-.69,1.1-1.26,2.18-1.87,3.38-.44.88-1.9,1.68-1.26,2.74l2.33-.1c-.34,1.41-.26,1.7-.46,2.78l-.7,3.75c-.05.24.35.89.43,1.12s-.5.85-.73.75c-.76-.32-.67-1.83-.97-2.37-.98-.99-1.75-1.86-1.07-3.68-2,.12-1.13,2.59-3.76,4.51l-.59,1.82c-.08.26-.86.64-.81.9l.23,1.18-.89-.19c-.8,1.12-1.23,2.81-1.97,4.11l-1.29,2.29c-.43.76-.9,1.31-1.33,1.91-.5.69-.45,2.56-.93,3.41-2.59,4.64-.55,3.66-3,5.78l1.31.58-1.26,1.39c.94.87,1.81,1.24,2.8,1.27.23.35.62,1.04.97,1.07.4.03,1.21-.41,1.71,0l-5.46,1.1c-.27.06-.6.94-.37,1.03l1.04.41c.52.37.6.56.03.57l-2.8.88c.29.19,1.09,1.55.7,1.88-.62.52-1.54.97-2.31,1.4l.12,2.25c.03.51-1.32.8-2.1.95,1.36,1.33.86,3.17.06,4.01-.2.21-.15,1.05-.38,1.15-2.96,1.29-3.89,4.61-5.32,6.92-1.8,2.9-3.44,4.27-4.26,8.64l-1.72.42c.28,1.01.5,2.06,0,2.93-.95,1.61-2.8,1.11-3.19,1.9-.49,1,2.34.08,2.44.86l.28,2.27c-1.6.85-2.57,2.4-2.97,4.1-.74-.17-1.55-.36-1.85-.12-.94.73-.76,3.16-2.01,3.54-3.1.94-1.64-6.72-1.61-5.66l-.06-1.97c-.03-.85.47-2.35,0-2.87-.56-.61-.97-.99-1.13-1.4-.14-.37.07-1.52.44-1.5l1.22.08c.49.03.65-1.99,2.69-2.58.22-.06.42-.93.21-1.03l-.93-.4-1.25-.52c-.92-.38-1.22,1.68-1.52,1.54l-1.06-.51c-.56.39.08,1.98-.56,2.22l-.98.38.75.63c.15.13.04.68-.12.8s-.68-.01-.74-.02c-.04.96-.28,1.93-.49,3.02-.13.68-.02,1.85-.25,2.56l-.74,2.33c-.31.97-.34,2.48-.94,3.36-.33.49-1.45.79-1.19,1.48l.67,1.79c-.58.91-.86,2.03-1.06,3.14l-.73,4.02c-.14.78-3.12.4-3.12.44l.15-1.01c.09-.58.16-1.2.18-1.56l-1.65,1.93c-.39.46-.73,1.53-.33,1.52l1.64-.94-.26,2.82c-.02.22-.41.64-.38.82.4,2.13-.55.48.55,2.36.24.4-.1,1.55-.56,1.42-.29-.08-.57-.22-1.13-.46l-.9,1.73ZM263.24,58.66c-.3-.2-1.04-.26-1.37-.18.42-3.67,1.81-2.18,1.73-2.76l-.11-.72-.66.61c-.12.11-.44-.39-.63-.61l-1.05,4.31c-.24.97-1.01,1.78-.57,3.04l1.84-2.42c.13-.17.12-.73.26-.85.09-.08.66-.36.56-.42ZM315.15,59.89c.15-.28.19-1.14.02-1.23-.88.08-1.72,1.41-1.66,2.03.02.25.94.57,1.05.35l.6-1.15ZM242.61,144.88l.86-4.34c.21-1.06.81-1.98,1.03-3l.87-4.01.62-2.06,1.14-5.81.73-2.33c.48-1.54.53-3.24,1.01-4.61.82-2.34.97-4.62,1.65-6.97l.75-2.59.98-5.26c.09-.21.47-.85.54-1.14l1.56-6.73,1.54-6.96c.47-2.11,1.04-4.1,1.39-6.27.13-.77.35-1.35.63-2.07.74-1.95.76-4.21,1.35-6.22.22-.73.72-1.71.85-2.46l.9-5.43-.9.12c-.22.03-.22-.86.36-1.14l1.25-.6c.3-.15.32-1.32-.01-1.36-.22-.03-.89.14-.95-.06l-.37-1.13-1.02,4.27c-.19.8-.72,1.75-.88,2.72-.83,5.19-1.08,4.72-1.82,8.5l-.96,4.86c-.17.85-.94,1.98-1.03,3.11s-.5,2.06-.76,3.04c-.54,2.06-.88,4.08-1.21,6.19-.13.81-.48,1.51-.67,2.29l-1.66,6.81c-.59,2.43-1.03,4.81-1.57,7.33-.1.47-.66,1.36-.75,1.98l-.71,4.65c-.03.17.28.83.43.87s-.99.17-1.02.32l-1.27,5.72-.67,2.1-1.17,6.48-.85,2.46c-.64,1.84-.74,3.86-.64,5.76l.15,2.75-1.18-1.38-.47,2.9c.72-.26,1.84-.73,1.95-1.29ZM133.51,76.02c.56-.64,1.11-1.45.88-2.13-1.17,1.03-2.25,1.73-1.89,3.29l1.01-1.16ZM293.34,83.39c.21-.43.36-.81.5-.68l.9.8.32-1.6c-1.69-.02-2.51.82-2.78,2.02-.04.19.68.25.76.07l.3-.61ZM287.94,99.99v-.78c-1.5.59-2.65,1.63-2.4,3.14l2.4-2.36ZM234.46,105.58l-2.87-.05,1.52,2.02,1.35-1.97ZM281.34,127.56c0-.34,0-.86-.03-1.13s-.87-.15-1.11-.02c-.27.15-.73,2.99-.74,2.53l.06,2.93c.51-.13.93-.33.98-.11l.27,1.11c.08.31.5-.8.59-1.13,3.88-1.9,1.04-1.56,2.68-3.11l1.82-1.72.79-1.25c1.58-.72,3.5-6.06,3.99-7.65.23-.72,1.38-1.77,1.06-2.49l-.56-1.26c-.12-.26.85-.67.9-.93l-.37-3.14,1.88-2.56c-.61-.21-1.53-.05-1.76.53l-.61,1.58c-.21.54-.63,1.23-.66,1.86-.14,2.58-.51,2.67-2.79,3.44-.39-.72-.54-.99-.74-1.18.06.86.09,1.3.21,1.87,1.23,5.44-1.19,1.37-.95,5.21l-1.73,1.97c.1-1.06.58-1.88.96-2.63-.03-.32-.79-.85-1.16-.73s-.9.87-.98,1.25l-.26,1.21c-.09.4,1.33.95,1.14,1.28l-.3.52c-.15.26-.63,1.1-.35,1.23l1.09.5c.23.11.58.47.56.71s-.4.91-.59.76l-.74-.57c-.21-.16-.92-.76-1.02-.52l-.41.91-.34.75c-.07.16-.74.03-.8-.02ZM284.78,112.41c-.33-.6-1.35-.53-1.71.05-.24.39-.19,1.27.05,1.56.73-.83.89-.99,1.66-1.61ZM282.3,119.1l-1.5,1.34.76-3.02c-.59.39-1.3.89-1.7,1.39-.59.74.74,1.9.77,2.62.04,1.04.58,5.36,1.55,4.44l.74-.7c-3.61-1.77,1.03-3.35-.61-6.07ZM276.09,123.99c.2-.26.48-.5.35-.55-1.33-.51-1.89.49-1.88.5l.48,1.39,1.06-1.35ZM278.8,127.43l1.21-2.4c-.27-.55-2.01,1.1-2.05,1.81-.02.28.8.67.85.59ZM132.85,128.72c-.39-1.04-1.53-.77-2.17-.38l-1.32.81c1.25.32,2.76.29,3.49-.43ZM86.58,131.2c-.16.09-.75.38-.8.56l-.76,2.49c2.32-1.77,2.07-3.32,1.56-3.05ZM279.25,134.14l-.24-.94-2.33,1.54c.6.69,2.73.02,2.57-.61ZM92.4,137.64c2.21.28,3.11-1.19,3.82-2.49.18-.12.84-.31.76-.48-.75-1.61-4.15,2.14-4.58,2.97ZM17.79,244.74c.75-1.07,1.48-2.35,2.04-3.45l1.42-1.93,2.65-3.57c.61-.82,1.1-1.5,1.65-2.37l1.27-2.01c.49-.78,1.08-1.35,1.62-2.11l1.39-1.93c.82-1.14,1.51-2.29,2.29-3.47l1.69-2.54c.56-.84,1.07-1.71,1.64-2.69.34-.59,1.49-1.09,1.42-2.16-.02-.44.84-.92,1.1-1.28l2.8-3.85c.55-.76.75-1.55,1.39-2.37l1.61-2.04c.08-1,2.06-2.97,2.76-4.01l2.22-3.27,1.71-2.8-2.04-.38c.42-1.8,1.57-3.12,3.43-3.54l.19,1.69,3.2-4.33-1.19-.27.38-1.03c.06-.16-.36-.31-.52-.24l-.63.29-.56.26c-.11.05.1.33.22.37l.7.26c-.6.79-2.29.67-3.14-.2-1.09-1.12,1.69-1.93,2.22-4.34.65-.97,2.33,1.17,2.9-.03.72-1.52.61-.43,2.32-1.52.98-.63-2.38-.07-2.77-1.7,2.68,0,2.06-.87,3.48-.44.56.17,1.17.31,1.56.27s1.28-.92,1-1.24c-.36-.42-1.62-.38-2.13-.39-.46,0-.88-1.26-.71-1.6,2.32-1.77-.26-1.57,1.42-4.11,1.39.48,2.59.18,3.76-.99l-2.37-1.07c.48-.61.89-1.12,1.12-1.66.48-1.13,1.4-1.95,2-2.9l2.94-4.68c.54-.86,1.35-1.8,1.82-2.6,1.88-3.19,3.76-6.09,5.72-9.17l2.77-4.35,1.13-1.75,5.56-8.71.72-1.09c.14-.21-.48-.89-.71-.89l-2.12,3.12-2.16,3.4-2.26,3.49-1.47,2.15-1.75,2.85-1.43,2.16-2.16,3.33-1.64,2.53-1.8,2.74-1.81,2.84-1.72,2.43-3.99,6.31-2.26,3.4-1.39,1.98-1.58,2.34-2.24,3.46-1.71,2.57-8.27,12.38-4.48,6.74-6.21,9.26-2.28,3.37-2.12,3.18-3.23,4.87-1.02,1.65c-.59.96-1.2,1.86-1.85,2.79l-1.72,2.44c-.79,1.13-1.69,2.41-2.55,3.51-.28.36-.63,1.2-.92,1.53-.65.72-1.18,1.44-1.57,2.18,1.46-.29,2.67-.6,2.96.66-3.22,1.48.18,3.76-3.88,3.55-2.02-.1-3.3,1.94-3.7,3.78l2.1,2.1c-.19.48-.3,1.08-.57,1.17l-1.39.45.88,1.27c-.41.52-.81.99-1.18,1.18-.39.2-1.63,0-1.58-.4.08-.6.21-1.07.02-1.26-1.14-1.11-3.23,2.08-3.63,2.66l-1.6,2.35c-.71,1.04-1.32,2.03-2,3.19-.4.68-2,1.6-.92,2.42l2.53-.12c1.58-1.32,2.07.04,3.72-1.28-.18-3.08.89-.76,3.4-4.82l2.19-3.54c.47-.76.77-1.16,1.35-1.99l4.54-6.44ZM89.1,142.3c2.12,1.44,3.73-1.49,3.94-2.79-.44.19-.75.41-1.08.66l-2.86,2.13ZM290.96,141.76c-.81.02-1.63.22-1.76-.09l-.65-1.5c.29-.42-.19-.21-.76.16l.67,3.94h3.16c.09-.86-.04-2.44-.66-2.5ZM239.48,157.83l.48-2.03c.21-.88.51-1.64.8-2.52.54-1.65.66-3.57,1.01-5.27.33-.18.65-1.17.34-1.17l-1.45-.02-.75,2.11c-.49,1.4-1.45,6.71-1.16,8.12-.55.39-1.11,1.13-.98,1.83l1.71-1.04ZM80.03,153.74c-1.05-.79-2.49-.87-3.23.43,1.05.21,2.27.3,3.23-.43ZM272.28,157.89c1.45-.45,2.32-1.52,2.16-2.92l-1.84.76-.32,2.16ZM267.02,162.17l-.68-.78c-.72.93-.72,2.08.34,2.78l.33-2ZM236.2,165.31c.17.3,1.18.51,1.51.49.34-1.37.51-2.51.26-3.96l-.72,3.35-.62-2c-.34.64-.66,1.7-.43,2.11ZM269,173.34c.31-.18-1.03-.77-1.28-.52-.21.22-.39.53-.73,1.06-.29.45-1.56.71-1.86.34.48-.21,1.31-.47,1.43-.77l.25-2.79-1.31-.79c1.82-.96,2.57-2.3,2.21-3.9l1.17-.04c-.44-.6-.93-1.06-1.2-1.13l-.69,1.99c-1.59,1.07-2.96,4.35-3.23,6.22l-.99-.17c-.17-.03-.26.71-.13.83s.43.36.63.45l4.89,2.1c1.12-.24-.95-1.84-.28-2.23l1.12-.66ZM68.04,167.4l-.68.06c-.31.03-.94.55-1.05.85s0,.92.2,1.12c1.38-.23,1.82-2.06,1.53-2.03ZM64.26,179.52c2.02,1.52,3.88-3.42,4.31-4.52,1.6-1.37,2.91-3.07,3.39-5.21-1.81-.05-1.04,1.14-3.94,4.43-.31.35-.74,1.14-1.06,1.57l-2.71,3.73ZM56.22,175.22c1.27-.94,1.73-1.7,2.61-2.69l-.1-.8c-.02-.16-.78.2-.86.34l-1.65,3.15ZM267.88,193.62c-2.32-1.51-4.6-2.46-6.97-3.59l-9.01-4.3-5.94-2.79c-.67-.32-1.35-1.07-1.94-1.48-2.23-1.56-4.41-2.86-6.75-4.3-.07.28.16,1.1.45,1.29l9.35,6.08c1.02.66,2.57.98,3.69,1.49l9.71,4.49c2.48,1.14,4.69,2.5,7.4,3.11ZM83.57,181.23c-1.03-1.11-2.2-.47-2.91.44.98.25,2,.39,2.91-.44ZM64.79,181.23c-.89-.54-2.05-.13-2.37,1.16l1.6.09c.35.02.62-.73.77-1.24ZM58.75,187.6c2.02-.27,2.62-2,2.72-3.67-1.1,1.19-2.04,2.27-2.72,3.67ZM53.43,198.02c.28-.18.67-.86.51-1.11s-.76-.58-1.04-.49c-.34.11-1.71,1.96-1.3,2.76l1.82-1.16ZM48.65,204.51c1.09-2.85,2.41-1.71,1.86-3.99-1.5.63-1.67,1.84-2.38,2.78l-4.98,6.67c1.46.45,1.55-.94,2.2-1.56.69-.65,3.1-3.39,3.3-3.9ZM35.11,222.5c1.4-.8,2.15-2.11,3-3.44-.17-.24-.32-.51-.51-.45-.14.04-.68.41-.75.56l-1.74,3.33ZM58.44,222.8c.72-.55,1.06-1.56.52-2.34-.32-.46-1.42-.87-1.82-.42-.53.6-.97,1.06-1.08,1.45-.19.69.99,2.39,1.6,1.92l.78-.6ZM49.19,225.85c.02.31,1.01.17,1.21-.07s.45-.89.28-1.26c-.21-.45-1.57-.02-1.49,1.32ZM29.82,231.11l2.54-3.61c.5-.71,2.05-1.45,1.85-2.47-.05-.24-.71-.51-.85-.33l-.64.86c-.89,1.21-1.67,2.32-2.38,3.6-.35.62-1.34.95-.53,1.94ZM52.96,231.81c.5-.86.86-1.77,1.18-2.65.22-.59.59-1.1.56-1.85-.04-.93-.46-2.14-1.06-2.56-.23-.16-1.07.06-1.19.28-.47.84,1.87,2.5.39,4.07l-1.52,1.61,1.64,1.09ZM51.07,228.56c.44.12.78.16.86-.04.06-.17.35-.69.19-.74l-.86-.29c-.6-.2-1.62-.51-2.18-.41-.46.08-1.09.89-1.38,1.33-.18.28.06,1.11.37,1.15,1.55.17,1.01-1.54,2.99-1ZM35.47,248.11c-.37-.2-.34-1.37.02-1.47,1.38-.37,1.51,1.05,2.09.6l.84-.64,2.17-.12c-.14-.44-.09-1.75.23-1.54l.9.6c.82.54,2.43-2.01,2.76-2.74l.8-.15c.81-.15-.03-2.32,1.5-4.81-2.58-1.23-2.37,1.86-6.2.76.56-1.02,1.32-1.55,2.25-2.16l-1.18-1.48,2.09-.38.39,2.17,2.2-.46c.2.79.67,1.48,1.49,1.25.91-.26,1.25-.72,1.12-1.72l1.51-2.08-1.62-.38-1.28-.29,1.56-.69c.32-.14.27-1.2-.02-1.4-.53-.37-1.5.06-2.2.53l-1.73-1.05-.8,1.63-2.8.57-.55,1.29c-.19.45-2.84,0-2.22.95l.65,1.01-2.03,1.11c-.94-.34-1.74-.42-2.27.17.8.65,1.48,1.28,2.14,1.68l1.74,1.05c.23,0,.65-.14,1.25-.35-.02-.1.07.45.1.65.02.13-.36.25-.55.33l-1.65.64c-.99-.14-2.2-.19-3.16.31-.31.17.44,1.1.78,1.3-.83.39-1.38.84-1.64,1.72l-1.92,1.66,2.21.86-2.5,1.15-.24,2.45c-.43.02-1.12,0-1.05.15l.28.6c.33.7,1.77-1.06,2.66-.46.55.37,1.22.74,1.7.73.37,0,1.07-.52,1.18-.9.32-1.11,0-2.11-1.02-2.66ZM324.16,255.64c1.51-2.9.43-4.06,2.42-6.25-.1-.28-.27-1.37-.01-1.69l2.45-3.04c.88.21,1.87.27,2.22-.12,1.5-1.65-1.55-2.91-1.55-5.87,0-4.83.91-3.45.75-6.8-.74,3.01-1.43,3.55-1.99,6.01l-.71,3.12c-.07.33-.47.99-.55,1.28-.98,3.38-.82,4.59-1.9,7.14-.72,1.69-.96,3.63-1.58,5.38s-.81,3.41-1.04,5.3c1.96-2.55-.52-.59,1.5-4.45ZM20.64,245.6c1.01-1.18,2.73-3.46,3.39-5.02.42-.98.58-1.48,1.5-1.78.71-3.05,3.32-3.35,2.24-5.58-1.19.89-1.59,2.09-2.39,3.21l-1.63,2.3-1.79,2.76-1.84,2.67c-.22.32-.45.79-.53,1.05-.07.22.86.6,1.05.39ZM30.13,244.31c-.2-1.96-5.56-1.41-4.57.43l4.57-.43ZM344.37,247.94l1.07-1.95c2.48-4.53-2.28-3.29-1.07,1.95ZM29.65,248.16c.47-.06.76-1.38.62-1.81-.12-.38-.66-.98-1-1.11-1.1.38-1.88.48-3.11.43l.1,1.45c-2.51,1.53,2.62,1.14,3.41,1.04ZM15.22,252.79l1.42-1.37c.19-.18.36-.87.11-.9-.86-.11-.87.17-2.32,1.78-.13.15-.22.87-.02.84s.65-.19.81-.34ZM30.92,266.79l1.42-1.39c.2-.2.33-1.06.04-1.1-.22-.03-1.03-.13-1.15.05l-1.38,1.98c-.12.17.13.99.33,1.03s.4-.23.75-.57Z"/>
    <path class="cls-1" d="M206.86,285.2H-.85v-18.48l3.32-.16,3.67-.29c1.83-.14,3.9-.41,5.6-.21,1.47,3.85,1.2.15,1.78,4.96.15,1.24-.13,2.25.69,3.25.69.85,1.75,1.21,3.04,1.35l.9,1.55,5.14-.45,2.21-2.63c2.36,0,2.97-2.19,4.48-4.11l1.9-2.4,2.02-2.57,1.35-2.53,1.7-2.28,1.94-2.53,1.33-1.72,5.5-7.24,1.71-2.25,1.94-2.57,9.12-12.09,2.2-2.92,12.9-17.05,1.86-2.49,1.98-2.77,1.72-2.28,1.48-1.82,1.71-2.25,1.7-2.25,2.09-2.74,3.51-4.58,1.59-2.12,15.69-20.94,1.67-2.29,2.35-3.12,21.4-28.77c.82-1.1,1.58-2.12,2.46-2.94,2.63,1.67,6.87,3.17,9.23,1.26l44.03,20.96,48.21,22.64c-.45,2.11-2.7-1.42-4.02-.84-.24.82-.67,1.66-.77,2.17l-1.22,5.71-.68,2.63-1.62,7.31c-.35,1.56-1.41,6.69-2.1,7.61l-.7,4.33-.71,2-1.18,6.35c-.15.79-.51,1.63-.68,2.39l-1.59,6.99-1.64,7.46c-.19.87-.51,1.67-.68,2.57-1.29,6.81-3.08,13.99-4.61,20.95l-1.96,8.9-1.54,7.57c-.27,1.32-.68,2.51-.92,3.86s-.72,2.69-1,4.07l-1.4,6.82c-.06.29-.4.94-.38,1.03Z"/>
    <path class="cls-1" d="M146.66-1.35c-.14.81-.59,1.47-1.06,2.27l-1.45,2.47-1.54,2.42c-.47.74-1,1.75-1.51,2.4-1.28,1.67-2.51,3.17-3.08,5.18-1.17,4.18-6.16,2.82-5.58,7.68.16,1.35-.28,2.27-.99,3.31-.81,1.2-1.34,2.88-2.68,3.56-1.06.54-1.7,1.06-1.37,2.35.51,2-1.98,1.51-3.13,2.94-.31.39,0,1.61.01,2.13.03,1.78-1.36,3.37-2.92,3.97-1.09.42-1.11,1.51-.93,2.36.43,2.11-1.88,2.95-2.65,4.27-.63,1.09-.32,2.66-1.8,3.26-.63.26-1.62,1.21-2.04,1.65l.66,1.25c.13.26-.42.81-.59,1.11l-1.46,2.5c-.3.52-1.7,1.02-2.13,1.4l-.28,2.73c-.82.16-1.4.21-1.71.54-.38.42-.67,1.56-.57,2.12.19,1.07-.34,1.53-.76,2.25l-1.92,3.25-2.16,3.53c-.53.87-1.23,1.99-2.08,2.46-3.25,1.81-.57,2.36-2.05,4.35-.64.86-.97,1.65-1.51,2.53l-4.01,6.52c-.49.28-1.49.78-1.31,1.16.5,1.05-.59,2.49-1.8,2.8-2.61.67-.59,4.38-2.38,5-.76.26-2.29.84-2.16,1.48.4,2.07-.5,2.97-1.47,4.35-.55.78-1.16,1.56-1.89,2.35-.49.54-.24,2.33-1.11,2.85-4.88,2.97-.09,1.67-3.86,6.19-.92,1.11-.09,1.45-1.95,2.13-.15.05.36.43.58.62l-1.74,1.74c-.38.38-1.52.99-1.36,1.51.46,1.51-.33,1.81-.91,2.79s-1.05,1.93-1.73,2.81c-3.07,4-1.04,1.74-3.54,6.1-1,1.73-2.16,3.26-3.43,4.84-.62.77-.34,2.42-1.78,2.58l.48.61c.08.1-.55.38-.61.49l-1.2,2.3c-1.07.68-1.27,1.5-1.77,2.57-.3.65-.89,1.53-1.3,2.21l-1.83,3.02-1.83,3.03-1.77,2.86-1.61,2.6-1.9,3.19-1.85,3.08-1.6,2.65-2.16,3.56c-.29.48-1,1.5-1.44,1.84-1.01.78-1.25,1.54-1.72,2.75-.69,1.76-2.1,3.98-3.38,5.44-.94,1.07-1.31,1.48-1.81,2.91-.58,1.62-2.71,5.06-3.72,6.41-.79,1.06-1.57,1.35-1.85,2.89-.14.75-1.25,1.89-1.7,2.68l-1.76,3.1-3.36,5.11c-.23.34-1.17.94-1.11,1.39.28,2.06-2.04,2.75-2.8,4.08-.68,1.2-.76,3.62-2.37,4.17-2.42,3.41-1.67,5.1-5.37,8.35l-.43,1.74c-.72.8-1.06,1.49-1.56,2.46-.69,1.34-1.86,2.58-2.65,3.91l-1.44,2.43c-.72,1.21-1.52,2.17-2.15,3.34l-1.9,3.53-.94,1.52V-1.35h147.52Z"/>
    <path class="cls-1" d="M254.5-1.35c-.09.6-.31,1.22-.46,1.93l-1.69,8.03-1.83,8.15c-.59,2.62-1.02,5.23-1.68,7.86l-.89,3.59-.98,4.02-1.63,7.26-1.85,8.47-1.8,8.14c-.43,1.96-.82,3.84-1.34,5.79l-.69,2.59-1.09,5.89-.78,2.57-1.03,5.48-.69,1.84c.63-1.67-3.31,15.31-2.99,15.1-.69.58-1.29,4.51-1.67,6.23l-1.75,8.03c-.23,1.05-.58,2.09-.78,3.18l-.76,4.03c-.14.72-.38,1.38-.6,2.08-.75,2.42-.86,4.97-1.45,7.41-.16.64-.61,1.56-.74,2.25l-.75,3.86-.81,2.51-1.05,5.89c-.28,1.58-.68,2.96-.76,4.62.9-1.28.87-4.92,2.35-5.82,0,.77-.06,1.42.23,1.73.3.33,1.01.75,1.4.76,2.37-2.59-.58-3,2.29-5.61,1.51-3.34-.27-3.8,2.03-5.22,1.34-.82.65-2.5.7-3.69l.26-5.52c.78-.11,1.42-.25,1.45-.82.01-.32-.31-1.06-.61-.94-1.64.68-2.06,2.39-1.78,3.94l-1.69,1.53c-1.88-2.28,2.78-2.8-.13-7.01.05-.9.73-1.86,1.6-2.72l-1.07-.83.58-1.61,1.94.69c2.07-1.37.89-3.81.22-5.7,1.48-.43,2.55-1.08,3.6-1.91.63-.51,3.19-1.58,2.07-3.75-.2-.39,1.29-.64,1.37-.22.1.51.41,1.45.72,1.33l1.26-.48c1.52-.58,1.41-2.58.86-4.07-.13-.37.29-1.53.66-1.42.34.1.87.35,1.33.55l.79.35c.46.2.09-1.15.87-1.29.18-.03.58.22.51.39-.05.11-.24.49-.31.58-1.48,1.79.36,1.17-1.71,5.26l-1.3,1.29c.54.62.98,1.46.58,2.09-.26.41-.92,1.01-1.45,1.5.41.43.93,1.06.93,1.51,0,.55-.77,1.11-1.32,1.4-1.43.75,1.14,3.33-1.33,4.94l-.44,2.2c.06.23.6.89.38.96l-1.06.3-1.39,3c-.28.6-1.73.11-2.35-.21-1.52,1.61,2.21,1.96,2.26,4.17,0,.38-.59,1.29-.97,1.31s-1-.15-1.52-.31l-.94-.29c-.19-.06-.49.39-.66.59.24.45.6.97.99,1.14s1.49,0,1.78-.15l.46,2.61c-1.6,1.22,0,3.11-.26,4.42-.44,2.25-1.1,4.98-.09,7.16.18.38.86.57,1.22.37.3-.17.6-.89.84-1.19.85-1.06.77-2.05.98-3.29.18-1.02.62-2.38.96-3.59.63-2.21,1.17-4.59,1.58-6.85.08-.44.59-1.37.61-1.82l.17-2.89c-.44-.4-.86-1.3-.73-1.88.09-.41.93-.7,1.39-.93.3-.78.78-1.93.96-2.69l.69-2.95c.25-1.06.73-2.31.89-3.29l1.25-7.72-.89-.66c-.14-.1.23-.57.4-.83.66-1.03-.41-1.12-.46-2.38-.06-1.45,2.36,1.29,3.52-5.35l1.01-5.75c.41-.14.74-.35.78-.18.03.12.18.71.14.82l-.9,2.46c-.65,1.77-.74,3.68-.99,5.63-.07.59-.63,1.5-.72,2l-.75,4.08c-.15.81-.64,1.76-.8,2.48l-.75,3.33c-.32,1.41-.25,3.05-.7,4.42-.26.8-.75,1.68-.86,2.49-.92,7.03-.98,3.52-1.65,7.13l-.75,4.08c-.18,1-.65,1.82-.82,2.78l-1.03,5.61c-.13.73-.53,1.37-.66,2.06l-1.17,5.87c.07-.33-3.82,16.19-3.28,14.85l-.76,1.91-.59,2.85-15.59-7.02c-1.96.05,10.19,4.92,6.97,4.39-.11-.02-.65-.02-.79-.08l-8.26-3.89-6.07-2.77-7.79-3.51-1.85-.86-30.99-14.42-7.03-3.35-15.64-7.56c.16-.8.3-2.18-.18-2.82-1.11-1.47-2.48-1.91-4.3-2.65.35-1.04,1.04-1.94,1.69-2.83l1.55-2.11,7.1-9.58,2.15-2.98,1.67-2.28,1.68-2.26,1.65-2.27,1.8-2.43,1.97-2.67L221.89,11.48l5.55-7.54,1.88-2.65c.63-.88,1.39-1.65,1.55-2.64h23.63ZM235.75,153.85c.16-.17-.11-1.06-.32-1.11-.41-.1-1.24-.11-1.33.2s-.02.93.12,1.23,1.22.03,1.53-.32ZM234.38,157.2c.36.19.97-.7.86-1.12-.1-.38-.73-1.04-1.1-.9-.73.29-.39,1.68.24,2.02Z"/>
    <path class="cls-1" d="M314.08,285.2h-84.29c.09-.42.37-1.2.43-1.62l.51-3.71c.03-.4.31-.34.69,0,.43-1.52,2.77-2.31,2.13-2.61l-.75-.35c-1.16-.54-.06-1.12-.57-.28l-.42.7c-.06-1.29.14-2.61.52-4.05,1.3.6,2.18.68,2.92-.6l-1.63-1.19-.52.98c-.06.11-.52-.03-.52-.16s.05-.66.11-.75l1.05-1.54c.17.57.27,1.16.55,1.26.95.32,2.07-3.01,1.83-3.74l-.77-2.34,1.37,1,.45-1.73c.19-.72-.22-1.86-1.31-2.09-.34-.07-.27,1.01-.35,1.35l-.46,1.95c-.1.1-.79-.09-.74-.29.03-.14.14-.58.2-.75l.84-2.61c.25-.09,1.68.02,1.72-.4l.16-1.79c.37-.47.9-1.18,1.06-1.78l.72-2.81c.22-.85.97-2.02.8-2.95-.1-.54-.48-1.23-.23-1.5l1.14-1.28c.39-.44-.01-1.78-.08-2.48l1.3-1.43c-.59-.54-1-.82-1.17-1.16s.19-1.31.52-1.64l1.03,1.51,2.09-.49c-.4-1.07-.87-1.55-1.66-2.17,1.19-.7,1.59-1.64,1.45-2.87l1.4-1.9,1.02-1.22-.43-1.52c-.09-.33,1.42-.95,1.5-1.45.04-.26.29-3.35.14-3.7l1.02-1.1c-1.06-1-.78-1.67-.62-2.68.17-1.09-.81-2.5.6-3.24l.8-.02c.2,0,.31-.72.39-1.02.04-.16.55-.25.63-.11l.48.79c.91-1.01-1.58-2.72.95-4.95l-.55-2.38c-.07-.29-.75-.71-.67-1l.3-1.11.73.5s.17-.22.43-.55l.7.16c-.06.43-.18.93-.03.89.16-.04.61-.16.69-.29l.78-1.29-1.14-1.37,1.6.42c.34.09.64-1.06.32-1.16-.36-.11-1.05-.27-1.22-.52s.09-1.04.15-1.17c.47.37.98.65,1.29.67l-.73-2.12c-.26-.03-.83-.11-.86-.37-.02-.21.45-.85.7-.88.87-.1,1.75.93,2.08,2.17l1.63-1.54c-1.67.29-2.93-1.48-2.75-1.72l.5-.67c.1-.52.29-1,.59-1.41l.55-.76c.11-.16.85.16.91-.03.16-.49-.11-1.49-.27-2.35,1.51.48,1.1,2.28.17,3.15l.54,2.02c.76-.52,1.25-.76,1.44-1.13s-.1-1.51-.09-1.95c.37-.82.54-2.14-.35-3.05l.42-1.43c-1.2-.07-1.78-.04-3.18.17l.2-1.57-.34-1.29,1.92,1.37c-.12-.46-.27-.79-.62-1.47l.96-1.14-.31,1.29c.62.15,1.36.29,1.36.6v1.46c1.5-1.21.23-2.27-.28-3.12-.56-.93-.85-1.39-2-1.93.78-.55,2.18.17,2.93.78.24.08,1,.22,1.22.32l43.62,20.71,25.24,12.2c-.4,1.85-.78,3.24-1.2,4.77l-1.81,6.63-1.81,6.36-1.63,6.28-.97,3.21-.95,2.99c-.42,1.31-.69,2.73-1,4.13-.23,1.04-.66,1.98-.92,3l-1.29,5.17c-.34,1.36-.86,2.54-1.16,3.94s-.79,2.62-1.14,3.91l-1.28,4.64c-.5,1.83-.98,3.63-1.36,5.4Z"/>
    <path class="cls-1" d="M329.99,285.2h-8.18c.23-.53-1.31-2.08-2.03-3.16-1.02-1.53.29-3.57,1.6-4.51l1.09,2.24c.96-.58.56-1.72.95-2.29.71-1.08,1.66-2.1,2.19-3.28l.8-1.79.23-7.55c.02-.74.43-1.5.63-2.42.62-.76,2.56-1.21,3.42-1.87,1.12-.86.05-2.54-.71-3.39.24-3.57,3.21-3.35,3.43-4.95.18-1.38.21-2.17,1.16-3.07,1.08-1.02.77-3.42.6-3.52l-1.28-.81,1.52-1.62c-.97-.91-2.18-2.09-1.92-3.24s1.45-2.18,2.38-2c3.66.73,2.27-.61,3.85-.33.24.04.76.7.69.77-.45.49-1.04,1.32-.86,1.71,3.15,4.17-.67,3.4.09,6.65l-2.48,1.78c-1.94,1.39-.45,7.29-1.58,10.24-.04.11-1.53,3.55-.99,3.67l.82.19c.75.17,1.99.26,1.73,1.37-.19.81-1.46.41-2.18-.01-.34,1.02-.25,2.62.34,3.63l2.52.53c-.24-1.19-.65-2.69,0-3.46l1.83-2.18c.4-.47.8-1.75.97-2.32l1.04-3.59c.23-.81.49-1.5.93-2.13-.05,3.52-1.13,4.61-1.52,6.31l-.89,3.93-.81,1.32c-.14,1.83-.93,3.43-1.38,5.17l-1.54,5.92c-.05.2-.49.67-.61.79s-.59-.33-.55-.5c.5-2.26.52-.71.62-3.15-1.13,1.75-2.86,3.45-4.63,4.64-.93.63,1.09,1.48,1.03,2.97-.08,1.95-2.24,1.29-2.26,1.98l-.04,1.29Z"/>
    <path class="cls-1" d="M210.92,285.2h-1.98l.77-4.4.64-2.04c.82-2.62.91-5.18,1.71-7.82,1.08-3.59.69-5.54,1.99-8.3.39-2.41.94-5.14,1.51-7.53l1.33-5.63c.16-.65.54-1.36.64-2.04.37-2.49.83-4.81,1.39-7.19l1.6-6.86c.15-.64.53-1.34.64-2l.89-5.5.74-1.98.96-5.68c.14-.86.69-1.73.85-2.51l1.19-5.86c.2-.99.58-1.81.72-2.82.27-1.94.77-3.73,1.19-5.6l1.66-7.41c.19-.85.61-1.56.75-2.48.13-.86.53-1.73.92-2.36-.41-1.22-.25-2.69.5-3.87l.49-1.37.27,2.11c.34-.36.7-.69.86-.6.11.06.31.43.2.5l-.51.35-.65,4.08c-.16,1.01-.53,1.94-.77,2.85-.49,1.89-.5,3.92-1.12,5.84l-.74,2.26c-.84,2.57-1.09,5.18-1.67,7.8l-1.54,6.97c-.27,1.21-.73,2.32-.91,3.55-.26,1.71-.74,3.24-1.09,4.87l-1.5,6.85-1.86,8.45-1.84,8.46-1.78,7.87-1.56,6.66-1.63,7.44c-.17.78-.5,1.55-.64,2.32-.93,5.21-1.92,7.76-2.62,12.61Z"/>
    <path class="cls-1" d="M316.58,285.2h-1.54c.33-.33.53-.85.63-1.44.96-5.44.98-1.96,1.53-5.11.33-1.89.86-3.62,1.34-5.41l1.59-5.92c.21-.78.63-1.4.81-2.17l1.08-4.79.6.14c.9.2-1.61,2.16-.63,4.74.39,1.02-.8,2.37-.72,3.18.04.38.51,1.37.17,1.56-.3.17-1,.33-1.53.46.29,1.01.16,1.95-.45,2.81l-.38,2.04c-.73,1-.77,1.86-.93,3.02l-.67,5.04c-.45.45-1.13,1.15-.9,1.88Z"/>
    <path class="cls-1" d="M272.9,167.03l.9-1.73c.56.25.85.38,1.13.46.46.13.8-1.02.56-1.42-1.1-1.88-.16-.23-.55-2.36-.03-.18.36-.6.38-.82l.26-2.82-1.64.94c-.4.02-.06-1.06.33-1.52l1.65-1.93c-.03.36-.1.98-.18,1.56l-.15,1.01s2.98.35,3.12-.44l.73-4.02c.2-1.11.48-2.23,1.06-3.14l-.67-1.79c-.26-.69.86-.99,1.19-1.48.6-.88.63-2.39.94-3.36l.74-2.33c.23-.72.12-1.89.25-2.56.21-1.09.45-2.06.49-3.02.07.01.58.14.74.02s.27-.67.12-.8l-.75-.63.98-.38c.63-.25,0-1.83.56-2.22l1.06.51c.29.14.59-1.92,1.52-1.54l1.25.52.93.4c.21.09.02.96-.21,1.03-2.04.59-2.21,2.61-2.69,2.58l-1.22-.08c-.37-.02-.59,1.13-.44,1.5.16.41.57.79,1.13,1.4.48.52-.02,2.02,0,2.87l.06,1.97c-.03-1.06-1.49,6.61,1.61,5.66,1.26-.38,1.07-2.81,2.01-3.54.31-.24,1.11-.05,1.85.12.39-1.7,1.37-3.25,2.97-4.1l-.28-2.27c-.09-.78-2.93.14-2.44-.86.39-.79,2.24-.29,3.19-1.9.51-.87.28-1.91,0-2.93l1.72-.42c.82-4.37,2.46-5.74,4.26-8.64,1.44-2.32,2.36-5.63,5.32-6.92.23-.1.17-.94.38-1.15.8-.84,1.29-2.68-.06-4.01.78-.16,2.13-.44,2.1-.95l-.12-2.25c.76-.43,1.69-.88,2.31-1.4.39-.33-.41-1.69-.7-1.88l2.8-.88c.57-.02.49-.21-.03-.57l-1.04-.41c-.23-.09.1-.97.37-1.03l5.46-1.1c-.5-.41-1.32.03-1.71,0-.36-.03-.75-.71-.97-1.07-1-.03-1.87-.4-2.8-1.27l1.26-1.39-1.31-.58c2.45-2.13.41-1.14,3-5.78.48-.86.43-2.73.93-3.41.43-.6.9-1.15,1.33-1.91l1.29-2.29c.73-1.3,1.17-2.99,1.97-4.11l.89.19-.23-1.18c-.05-.27.73-.65.81-.9l.59-1.82c2.63-1.93,1.76-4.39,3.76-4.51-.68,1.83.09,2.69,1.07,3.68.3.55.21,2.06.97,2.37.23.1.81-.52.73-.75s-.47-.88-.43-1.12l.7-3.75c.2-1.08.12-1.37.46-2.78l-2.33.1c-.64-1.05.82-1.86,1.26-2.74.6-1.2,1.17-2.28,1.87-3.38l1.74-2.75c.54-.86,1.14-1.76,1.56-2.65l1.58-3.36,1.15.98,3.12-1.79c.51-.29,1.47.89,1.54,1.47l.61,4.98c.6,4.96.79.77,1.48,6.38l.34,2.81c.45,3.65.97.42,1.34,5.8.12,1.78.6,3.25,1.15,4.98.66,2.1.44,4.57,1.25,6.61.37.94.6,1.72.73,2.71l.91,6.83c.07.51.45,1.33.58,1.82.39,1.51.38,3.05,1.14,4.47.34.64.15,1.62-.34,2.29-.43.59-1.6.77-2.51,1.06-1.16.37-.51,2.48.29,2.99l.04,1.46c1.22-.11,2.36.43,2.46,1.4l-.37,1.16,2.33-.62c.25-.07.84-.17.85.05.02.23-.05.73-.23.85l-.63.43c-.54.37,1.2,1.47,1.21,5.23v1.28c0,1.11-3.46-1.02-4.59.33,1.9,1.41.22,1.87,2.87,3.3l.48,1.25c.36.95,2.76-1.69,2.84-.47.34,4.84,1.29,6.25.2,10.37-.93,3.54-.56.01-1.91,6.51-.17.82-.55,1.53-.77,2.35l-1.4,5.3c.24-.91-2.31,7.15-2.11,6.26l-.91,3.96c-.18.78-.73,1.71-.93,2.38-.57,1.88-.89,3.66-1.64,5.5-1.03,2.53-.68,5.87-2.65,7.05-.71-.93-.15-1.76.57-2.27.25-.34.13-1.53-.04-1.91-.97,0-1.02.7-1.11,1.79l-1.22-.9c-.31-.11-.9-.1-.96-.36l-.34-1.41c-3.46-1.21-4.39,1.42-6.35-.52l-2.47,2.07-.18,2.38c-.05.64-.48,2.31.1,2.53l2.27.52c-.13,1.02-.22,2.05,0,2.81,1.23.67,2.57.04,3.67-.51l2.54-.31,1.41-2.14,1.97.88c.09.47-.59,1.41-.7,1.91l-1.01,5.04-.85,2.41-1.22,5.2-.7,1.44s-2.29,9.01-2.51,10.18c-.18.96-.53,1.85-1.29,2.57l-63.15-27.72.02-.72c0-.13-.23-.52-.3-.42l-.58.8-2.6-1.3.1-.46c.07-.34,1.34-.17,1.32-.47l-.07-.9c-.04-.62-.06-1.1.14-1.71l.84,2.24c2.03-2.68,4.56-1.22,2.61-3.25l.61-.59c.65-.64-.8-1.74.29-3.78l.77,1.24.56-2.35c.23-.94.38-1.71.11-2.7-.38,1.06-.55,2.12-.74,3.51l-1.21-.87c-.34.75-.49,1.08-.63,1.29s-.95-.54-.84-.75ZM330.92,128.49c.06.18.51.46.56.31l.21-.63c.55-1.66,2.05-1.31,1.97-1.45l.5.88-1.89,1.05c.75.51,2.24.23,2.76-.36.8-.89-1.87-1.64-1.67-2.46.13-.52.38-1.1.68-1.73-7.72-3.13-8.99.25-10.73.4-.49.04-1.35.27-1.51.61-.14.29-.23.87-.29,1.29l-.27,2.07-1.11,1.58,3.36,1.99-.2-3.01c-.05-.8,1.29-2.07,2.05-2.2.27-.04.89.62,1.13.49l1.09-.61c.21-.12.75-.33.94-.21,1.79,1.14,2.16,1.18,2.41,2ZM334.79,167.68c.27-.03.75-.32.92-.49,1.35-1.35-1.81-.21-2.73-2.42-.92-.22-2.31.49-3.23,1.15l.92,1.19,1.41.9,2.71-.32ZM345.16,167.56c.69-.21,1.05-.64,1.1-1.62-2.13.65-3.61,1.09-4.47,3.7l1.22.09c.66.05.64-1.7,2.16-2.17Z"/>
    <path class="cls-1" d="M17.79,244.74l-4.54,6.44c-.58.82-.88,1.23-1.35,1.99l-2.19,3.54c-2.51,4.06-3.58,1.74-3.4,4.82-1.65,1.33-2.14-.04-3.72,1.28l-2.53.12c-1.08-.82.52-1.74.92-2.42.69-1.16,1.29-2.16,2-3.19l1.6-2.35c.4-.58,2.49-3.78,3.63-2.66.19.19.07.66-.02,1.26-.06.41,1.18.61,1.58.4.37-.19.77-.66,1.18-1.18l-.88-1.27,1.39-.45c.27-.09.37-.69.57-1.17l-2.1-2.1c.4-1.84,1.68-3.89,3.7-3.78,4.06.21.66-2.07,3.88-3.55-.29-1.26-1.5-.95-2.96-.66.39-.73.92-1.45,1.57-2.18.3-.33.64-1.17.92-1.53.86-1.09,1.75-2.38,2.55-3.51l1.72-2.44c.65-.93,1.26-1.83,1.85-2.79l1.02-1.65,3.23-4.87,2.12-3.18,2.28-3.37,6.21-9.26,4.48-6.74,8.27-12.38,1.71-2.57,2.24-3.46,1.58-2.34,1.39-1.98,2.26-3.4,3.99-6.31,1.72-2.43,1.81-2.84,1.8-2.74,1.64-2.53,2.16-3.33,1.43-2.16,1.75-2.85,1.47-2.15,2.26-3.49,2.16-3.4,2.12-3.12c.23,0,.85.68.71.89l-.72,1.09-5.56,8.71-1.13,1.75-2.77,4.35c-1.96,3.08-3.84,5.98-5.72,9.17-.47.8-1.28,1.74-1.82,2.6l-2.94,4.68c-.6.95-1.52,1.77-2,2.9-.23.53-.64,1.04-1.12,1.66l2.37,1.07c-1.18,1.17-2.37,1.47-3.76.99-1.68,2.54.9,2.34-1.42,4.11-.17.34.25,1.59.71,1.6.51.01,1.78-.02,2.13.39.28.32-.6,1.21-1,1.24s-1-.1-1.56-.27c-1.42-.43-.8.44-3.48.44.39,1.63,3.76,1.07,2.77,1.7-1.71,1.09-1.6,0-2.32,1.52-.57,1.2-2.25-.94-2.9.03-.53,2.41-3.31,3.21-2.22,4.34.85.87,2.54.99,3.14.2l-.7-.26c-.11-.04-.33-.32-.22-.37l.56-.26.63-.29c.16-.07.58.08.52.24l-.38,1.03,1.19.27-3.2,4.33-.19-1.69c-1.86.42-3,1.74-3.43,3.54l2.04.38-1.71,2.8-2.22,3.27c-.71,1.04-2.68,3.01-2.76,4.01l-1.61,2.04c-.64.81-.84,1.6-1.39,2.37l-2.8,3.85c-.26.36-1.13.85-1.1,1.28.06,1.08-1.08,1.57-1.42,2.16-.57.99-1.08,1.85-1.64,2.69l-1.69,2.54c-.78,1.18-1.47,2.33-2.29,3.47l-1.39,1.93c-.54.75-1.12,1.33-1.62,2.11l-1.27,2.01c-.55.87-1.04,1.55-1.65,2.37l-2.65,3.57-1.42,1.93c-.57,1.1-1.29,2.38-2.04,3.45ZM34.52,217.27c-1.11-.48-1.94-.28-2.92.09l.43,1.22,2.49-1.31Z"/>
    <path class="cls-1" d="M35.47,248.11c1.01.54,1.33,1.55,1.02,2.66-.11.38-.81.89-1.18.9-.48,0-1.15-.35-1.7-.73-.89-.6-2.33,1.16-2.66.46l-.28-.6c-.07-.15.63-.13,1.05-.15l.24-2.45,2.5-1.15-2.21-.86,1.92-1.66c.27-.88.81-1.33,1.64-1.72-.34-.2-1.1-1.13-.78-1.3.96-.51,2.16-.46,3.16-.31l1.65-.64c.2-.08.57-.2.55-.33-.03-.21-.12-.75-.1-.65-.6.21-1.01.35-1.25.35l-1.74-1.05c-.66-.39-1.34-1.03-2.14-1.68.53-.58,1.33-.5,2.27-.17l2.03-1.11-.65-1.01c-.61-.95,2.03-.51,2.22-.95l.55-1.29,2.8-.57.8-1.63,1.73,1.05c.7-.47,1.67-.91,2.2-.53.29.2.35,1.26.02,1.4l-1.56.69,1.28.29,1.62.38-1.51,2.08c.13,1.01-.2,1.47-1.12,1.72-.82.23-1.29-.46-1.49-1.25l-2.2.46-.39-2.17-2.09.38,1.18,1.48c-.93.61-1.69,1.13-2.25,2.16,3.83,1.1,3.63-1.99,6.2-.76-1.53,2.5-.68,4.66-1.5,4.81l-.8.15c-.33.73-1.94,3.28-2.76,2.74l-.9-.6c-.32-.21-.37,1.1-.23,1.54l-2.17.12-.84.64c-.58.45-.71-.97-2.09-.6-.36.1-.39,1.27-.02,1.47Z"/>
    <path class="cls-1" d="M382.01,45.51c-.13.52-.61,1.38-.69,1.95-.36,2.49-.76,4.68-2.27,6.92-.82-.22-.32-1.08-1.32-3.96-.67-1.94-.64-4.15-1.15-6.17-.12-.5-.5-1.31-.58-1.8l-1.17-7.48c-.2-1.25-.77-2.48-.9-4.05,4.03-.04,3.87,1.65,6.23-.44,1.36,1.3.68,5.4,2.41,3.01l.47-.64c.1-.14.77.24.71.38-.2.45-1.01,1.18-.93,1.63s.43,1.31.62,1.77l-1.01.44c-.22.09-.24.95,0,1l1.34.24-1.76,7.2Z"/>
    <path class="cls-1" d="M281.34,127.56c.06.05.73.18.8.02l.34-.75.41-.91c.1-.24.81.36,1.02.52l.74.57c.19.15.57-.52.59-.76s-.32-.6-.56-.71l-1.09-.5c-.28-.13.2-.96.35-1.23l.3-.52c.19-.33-1.23-.87-1.14-1.28l.26-1.21c.08-.38.61-1.13.98-1.25s1.13.41,1.16.73c-.38.75-.86,1.57-.96,2.63l1.73-1.97c-.23-3.85,2.18.23.95-5.21-.13-.57-.16-1.02-.21-1.87.2.19.35.46.74,1.18,2.29-.77,2.65-.87,2.79-3.44.04-.64.45-1.33.66-1.86l.61-1.58c.23-.58,1.15-.74,1.76-.53l-1.88,2.56.37,3.14c-.05.26-1.01.67-.9.93l.56,1.26c.32.72-.84,1.77-1.06,2.49-.5,1.6-2.41,6.93-3.99,7.65l-.79,1.25-1.82,1.72c-1.64,1.55,1.19,1.22-2.68,3.11-.1.33-.52,1.44-.59,1.13l-.27-1.11c-.05-.22-.47-.02-.98.11l-.06-2.93c0,.46.47-2.38.74-2.53.24-.13,1.07-.25,1.11.02s.04.8.03,1.13Z"/>
    <path class="cls-1" d="M324.16,255.64c-2.02,3.86.46,1.9-1.5,4.45.23-1.89.45-3.62,1.04-5.3s.87-3.69,1.58-5.38c1.08-2.55.91-3.76,1.9-7.14.08-.29.48-.96.55-1.28l.71-3.12c.56-2.46,1.25-3,1.99-6.01.17,3.35-.75,1.98-.75,6.8,0,2.96,3.05,4.22,1.55,5.87-.35.39-1.34.33-2.22.12l-2.45,3.04c-.26.32-.09,1.41.01,1.69-1.99,2.19-.9,3.35-2.42,6.25Z"/>
    <path class="cls-1" d="M269,173.34l-1.12.66c-.66.39,1.4,1.99.28,2.23l-4.89-2.1c-.21-.09-.51-.33-.63-.45s-.04-.86.13-.83l.99.17c.28-1.87,1.64-5.15,3.23-6.22l.69-1.99c.27.08.77.54,1.2,1.13l-1.17.04c.36,1.6-.4,2.94-2.21,3.9l1.31.79-.25,2.79c-.12.3-.95.56-1.43.77.31.37,1.57.11,1.86-.34.34-.53.52-.85.73-1.06.26-.26,1.59.33,1.28.52Z"/>
    <path class="cls-1" d="M139.62,28.95c-.38-.62-.11-1.26.25-1.9l1.33-2.35c.42-.75.97-1.42,1.48-2.15.56-.8,1.07-1.75,1.63-2.61l1.62-2.51,1.61-2.73c1.74-2.96,3.88-6.01,5.72-8.15.22.84-.48,1.03-.63,1.36-.71,1.52-1.24,3-2.23,4.36l-1.42,1.94-1.51,2.43-1.81,3.04-2.37,3.9-3.66,5.37Z"/>
    <path class="cls-1" d="M20.64,245.6c-.18.21-1.12-.17-1.05-.39.08-.26.31-.74.53-1.05l1.84-2.67,1.79-2.76,1.63-2.3c.79-1.12,1.2-2.31,2.39-3.21,1.08,2.23-1.52,2.53-2.24,5.58-.92.3-1.08.8-1.5,1.78-.66,1.56-2.38,3.84-3.39,5.02Z"/>
    <path class="cls-1" d="M239.48,157.83l-1.71,1.04c-.13-.69.43-1.44.98-1.83-.29-1.41.67-6.72,1.16-8.12l.75-2.11,1.45.02c.31,0-.01.99-.34,1.17-.35,1.7-.47,3.62-1.01,5.27-.29.88-.59,1.64-.8,2.52l-.48,2.03Z"/>
    <path class="cls-1" d="M64.26,179.52l2.71-3.73c.31-.43.75-1.22,1.06-1.57,2.9-3.29,2.13-4.48,3.94-4.43-.48,2.15-1.8,3.84-3.39,5.21-.43,1.1-2.29,6.05-4.31,4.52Z"/>
    <path class="cls-1" d="M132.04,41.5c-1.07,1.25-1.94,2.97-1.89,2.98l-1.06-.14c.48-.73,1.06-1.44,1.44-2.13l1.82-3.27,1.54-2.41,1.65-2.58c.68-1.06,1.01-2.16,2.38-2.54-.06.79-.56,1.37-.95,2.02l-2.15,3.55-1.67,2.59c-.35.54-.72,1.46-1.11,1.91Z"/>
    <path class="cls-1" d="M282.3,119.1c1.64,2.72-3.01,4.31.61,6.07l-.74.7c-.98.93-1.51-3.4-1.55-4.44-.03-.73-1.35-1.88-.77-2.62.4-.5,1.11-1,1.7-1.39l-.76,3.02,1.5-1.34Z"/>
    <path class="cls-1" d="M52.96,231.81l-1.64-1.09,1.52-1.61c1.48-1.57-.86-3.23-.39-4.07.12-.22.96-.45,1.19-.28.6.42,1.02,1.63,1.06,2.56.03.74-.34,1.25-.56,1.85-.32.88-.67,1.79-1.18,2.65Z"/>
    <path class="cls-1" d="M29.65,248.16c-.79.1-5.91.49-3.41-1.04l-.1-1.45c1.24.04,2.01-.05,3.11-.43.34.13.88.73,1,1.11.14.43-.15,1.75-.62,1.81Z"/>
    <path class="cls-1" d="M48.65,204.51c-.19.5-2.6,3.25-3.3,3.9-.65.62-.74,2.01-2.2,1.56l4.98-6.67c.71-.95.88-2.15,2.38-2.78.56,2.28-.77,1.14-1.86,3.99Z"/>
    <path class="cls-1" d="M290.96,141.76c.61.06.75,1.64.66,2.48h-3.16s-.67-3.92-.67-3.92c.57-.37,1.05-.58.76-.16l.65,1.5c.14.32.95.11,1.76.09Z"/>
    <path class="cls-1" d="M118.47,62.73c-.62-1.17.42-2.06,1.24-2.63.66-3.19,3.65-3.93,2.08-6.16.96-.63,1.92-1.01,3.03-.59l-2.25,3.21-1.37,2.04c-.44.65-.89,1.57-1.29,2.29l-1.45,1.84Z"/>
    <path class="cls-1" d="M58.44,222.8l-.78.6c-.61.47-1.79-1.23-1.6-1.92.11-.39.55-.85,1.08-1.45.4-.45,1.5-.04,1.82.42.55.79.2,1.79-.52,2.34Z"/>
    <path class="cls-1" d="M51.07,228.56c-1.98-.54-1.44,1.18-2.99,1-.31-.03-.55-.86-.37-1.15.29-.45.92-1.25,1.38-1.33.57-.1,1.58.2,2.18.41l.86.29c.15.05-.13.57-.19.74-.07.2-.42.16-.86.04Z"/>
    <path class="cls-1" d="M29.82,231.11c-.81-.99.19-1.32.53-1.94.71-1.28,1.49-2.39,2.38-3.6l.64-.86c.13-.18.8.1.85.33.2,1.02-1.35,1.76-1.85,2.47l-2.54,3.61Z"/>
    <path class="cls-1" d="M30.13,244.31l-4.57.43c-.99-1.84,4.37-2.39,4.57-.43Z"/>
    <path class="cls-1" d="M135.99,53.32l2.05-2.28c.4.07,1.11.33,1.31.17l.99-.82c-.37,2.06-1.72,4.01-4.35,2.93Z"/>
    <path class="cls-1" d="M92.4,137.64c.43-.83,3.83-4.58,4.58-2.97.08.17-.58.36-.76.48-.71,1.3-1.6,2.77-3.82,2.49Z"/>
    <path class="cls-1" d="M344.37,247.94c-1.22-5.24,3.55-6.48,1.07-1.95l-1.07,1.95Z"/>
    <path class="cls-1" d="M89.1,142.3l2.86-2.13c.33-.25.64-.47,1.08-.66-.21,1.3-1.81,4.23-3.94,2.79Z"/>
    <path class="cls-1" d="M380.29,28.9c.4.29-.15,1.45-.61,1.57-.58.15-1.94-.21-1.88-.87.08-.93,1.7-1.26,2.49-.69Z"/>
    <path class="cls-1" d="M30.92,266.79c-.35.34-.55.61-.75.57s-.45-.86-.33-1.03l1.38-1.98c.12-.18.94-.07,1.15-.05.29.03.16.9-.04,1.1l-1.42,1.39Z"/>
    <path class="cls-1" d="M272.28,157.89l.32-2.16,1.84-.76c.16,1.4-.71,2.47-2.16,2.92Z"/>
    <path class="cls-1" d="M53.43,198.02l-1.82,1.16c-.42-.8.96-2.65,1.3-2.76.28-.09.87.25,1.04.49s-.23.93-.51,1.11Z"/>
    <path class="cls-1" d="M127.65,47.06c1.93-.61-3.38,6.85-3.17,4.87l1.68-2.94c.32-.56.9-1.24,1.49-1.93Z"/>
    <path class="cls-1" d="M126.77,46.85c-.11.03-.6-.09-.69-.15-1.28-.93,4.14-2.31,3.69-.81l-3,.96Z"/>
    <path class="cls-1" d="M236.2,165.31c-.23-.42.09-1.48.43-2.11l.62,2,.72-3.35c.25,1.45.08,2.59-.26,3.96-.34.02-1.35-.19-1.51-.49Z"/>
    <polygon class="cls-1" points="234.46 105.58 233.11 107.55 231.59 105.53 234.46 105.58"/>
    <path class="cls-1" d="M58.75,187.6c.68-1.4,1.62-2.48,2.72-3.67-.1,1.67-.69,3.4-2.72,3.67Z"/>
    <path class="cls-1" d="M35.11,222.5l1.74-3.33c.08-.15.61-.52.75-.56.19-.06.34.2.51.45-.86,1.33-1.61,2.64-3,3.44Z"/>
    <path class="cls-1" d="M80.03,153.74c-.96.74-2.19.64-3.23.43.74-1.3,2.19-1.22,3.23-.43Z"/>
    <path class="cls-1" d="M15.22,252.79c-.16.16-.61.32-.81.34s-.11-.69.02-.84c1.44-1.61,1.45-1.89,2.32-1.78.25.03.08.73-.11.9l-1.42,1.37Z"/>
    <path class="cls-1" d="M64.79,181.23c-.15.51-.42,1.26-.77,1.24l-1.6-.09c.32-1.29,1.48-1.7,2.37-1.16Z"/>
    <path class="cls-1" d="M83.57,181.23c-.92.83-1.93.69-2.91.44.72-.91,1.88-1.55,2.91-.44Z"/>
    <path class="cls-1" d="M68.04,167.4c.29-.03-.15,1.8-1.53,2.03-.19-.21-.3-.83-.2-1.12s.74-.82,1.05-.85l.68-.06Z"/>
    <path class="cls-1" d="M278.8,127.43c-.05.08-.86-.31-.85-.59.04-.71,1.78-2.36,2.05-1.81l-1.21,2.4Z"/>
    <path class="cls-1" d="M133.04,21.1c-.4-1.43.33-2.39,1.73-2.93-.04,1.15-.77,2.2-1.73,2.93Z"/>
    <path class="cls-1" d="M86.58,131.2c.51-.28.76,1.28-1.56,3.05l.76-2.49c.05-.17.64-.47.8-.56Z"/>
    <path class="cls-1" d="M276.09,123.99l-1.06,1.35-.48-1.39s.56-1.01,1.88-.5c.13.05-.15.29-.35.55Z"/>
    <path class="cls-1" d="M56.22,175.22l1.65-3.15c.08-.14.84-.51.86-.34l.1.8c-.88.99-1.34,1.75-2.61,2.69Z"/>
    <path class="cls-1" d="M133.51,76.02l-1.01,1.16c-.36-1.56.72-2.26,1.89-3.29.23.68-.32,1.49-.88,2.13Z"/>
    <path class="cls-1" d="M284.78,112.41c-.77.62-.93.78-1.66,1.61-.24-.29-.28-1.17-.05-1.56.35-.58,1.38-.64,1.71-.05Z"/>
    <path class="cls-1" d="M49.19,225.85c-.08-1.35,1.28-1.77,1.49-1.32.17.37-.09,1.02-.28,1.26s-1.19.38-1.21.07Z"/>
    <path class="cls-1" d="M167.55,24.39c-.96,1.25-1.44,2.04-2.03,3.35-.34-1.37.21-2.94,1.94-3.61.2,0,.23.09.09.26Z"/>
    <path class="cls-1" d="M267.02,162.17l-.33,2c-1.06-.7-1.06-1.86-.34-2.78l.68.78Z"/>
    <path d="M235.75,153.85c-.31.35-1.39.61-1.53.32s-.21-.91-.12-1.23.93-.29,1.33-.2c.21.05.47.94.32,1.11Z"/>
    <path d="M234.38,157.2c-.63-.33-.97-1.72-.24-2.02.36-.15.99.51,1.1.9.11.42-.5,1.31-.86,1.12Z"/>
    <path d="M330.92,128.49c-.25-.81-.61-.86-2.41-2-.19-.12-.73.09-.94.21l-1.09.61c-.24.13-.86-.53-1.13-.49-.76.13-2.1,1.4-2.05,2.2l.2,3.01-3.36-1.99,1.11-1.58.27-2.07c.05-.42.15-1,.29-1.29.16-.34,1.03-.57,1.51-.61,1.74-.15,3.01-3.53,10.73-.4-.3.63-.55,1.21-.68,1.73-.2.82,2.48,1.56,1.67,2.46-.53.59-2.01.87-2.76.36l1.89-1.05-.5-.88c.08.14-1.43-.21-1.97,1.45l-.21.63c-.05.15-.51-.13-.56-.31Z"/>
    <path d="M334.79,167.68l-2.71.32-1.41-.9-.92-1.19c.93-.65,2.31-1.37,3.23-1.15.93,2.21,4.08,1.07,2.73,2.42-.17.17-.65.46-.92.49Z"/>
    <path d="M345.16,167.56c-1.52.47-1.49,2.22-2.16,2.17l-1.22-.09c.86-2.61,2.34-3.04,4.47-3.7-.04.97-.41,1.4-1.1,1.62Z"/>
    <path d="M296.18,89.44c-1.36,2.46.93-6.6.81-4.2.25,1.5-.06,2.82-.81,4.2Z"/>
    <path d="M34.52,217.27l-2.49,1.31-.43-1.22c.98-.37,1.81-.56,2.92-.09Z"/>
  </g>
</svg>