<?xml version="1.0" encoding="UTF-8"?>
<svg id="Layer_2" data-name="Layer 2" xmlns="http://www.w3.org/2000/svg" viewBox="0 0 432 288">
  <defs>
    <style>
      .cls-1 {
        fill: #fff;
      }
    </style>
  </defs>
  <path class="cls-1" d="M4.29,285.48h-.24V-2.52h432V1.31c-.83.09-1.55.77-1.87,1.66.49.45,1.26.75,1.87.85v281.66h-168.87c-1.05-2.75-.09-2.86-.68-4.39l.98-.86-.91.16c-.16.03-.33-.31-.56-.69-2.16,1.09-4.62,1.8-6.61,3.3l-3.29,2.48h-18.56l1.95-5.58c-.51-.12-1.32-.29-1.66-.1l-3.57,2.02c-1.05.59-2.38,2.28-2.45,3.66h-3.3c0-.24.06-.76.27-.87.13-.07.61.06.71-.05l.37-.41.46.57c.08.09.2.02.45-.02h.55c.14.01.33-.55.21-.62l-.85-.46-.17-2.44c-.02-.23.26-.78.4-1.09l-1.83.49c.27-.59.21-.65-.54-.61l-1.46,3.84-.48,1.26c.08.02.41.09.42.1.03.03.09.23.12.29H55.72c.29-.53.58-1.1.82-1.77.16-.43.51-.79.72-1.17l5.41-9.7-1.7-1.18c-.65,1.3-1.05,2.12-1.65,3.16l-3.56,6.23c-.83,1.46-1.6,3.36-2.27,4.43h-12.68l-2.68-9.62-1.26-4.29-.71-2.5-4.04-14.44-1.39-5.09-1.58-5.57-1.57-5.77-1.79-6.63-.82-2.78c-.8-2.71,0-1.45.53-4.16l-1.4.45c-1.04.05-2.42-.55-3.07-1.53-.08-.67,1.01-.74,1.54-.88l10.47-2.72c1.62-.42,3.17-.79,4.74-1.27l2.75-.84,7.44-2.06,13.45-3.68,4.24-1.12c3.62-.96,7.09-2.05,10.78-2.85,1.63-.36,3.06-1.43,4.87-1.26.87.08,1.57-.51,2.33-.76l2.2-.72,3.87-.96c1.26-.31,2.45-.57,3.71-.95l2.18-.66c2.9-.87,2.38-.35,5.22-1.46l1.61,1.9c-.22,1.64-.47,3.21-.94,4.75l-.82,2.68c-.27.48-1.05,1.16-1.58,1.66l-1.09-2.43,1.45.43c-.21-1.04-.85-2.56-.27-3.51l1.8-2.97-3.78.9c-.35.08-.73,1.01-.51,1.28.11.14.55-.26.69-.39l.55-.53c.15-.15.59.56.56.76l-.3,2.01-1.8,2.26-.29,2.01.76.1c.21.03.16.75.14.96l-.06.9c-.03.42,2.35-.36,2.28.32-.65.05-1.6.24-2.01.53-.12.08-.08.67.06.66,1.91-.16.36-.46,2.49-.29l.63-.65,1.55,1.22c-.78.42-.63,1.34-.93,1.85l-1.3,2.23-3.03,5.36-1.93,3.61-1.76,3.09c-1.41,2.48-2.62,5.46-3.97,7.24-.5.66-.65,1.67-.94,2.4-1.2,1.24-3.27,5.79-3.41,6l-1.02,1.54c-.54.81-.79,2.13-1.64,2.94s.55.78-1.97,3.99c-.68.86-1.17,1.73-1.68,2.7l-.88,1.68-3.03,5.63c-.63,1.17-1.18,2.34-1.85,3.46l-.9,1.52-1.06,1.84c-.43.75-.6,1.55-.27,2.44,0,.34-.93.59-1.23.83-.6.47.38,1.22.95,1.3,1.14.17.83-.71,1.35-1.35l1.32-1.64c.09-.11.44-.38.56-.44s.23.09.66.38l1.39-2.46-.84.14c-.02-1.24.57-2.38,1.52-3.22,1.1-.97,1.02-2.76,1.77-3.83.45-.65,1.04-1.24,1.41-1.92l2.61-4.82,1.01-1.79,4.3-7.48,2.3-4.36,1.61-2.76c1.33-2.28,1.36-2.79,2.6-4.79l1.88-3.05c.1,1.06.86.76,1.38.71.34-.03.87-.72.75-1.05l-.62-1.67-1.32,1.99c.06-1.03.86-1.79,1.31-2.73l1.2-2.48,2.44-.64c-.19-.57-.36-1.19-.21-1.57.25-.61,1.05-.53,1.88-.34.47-.4-1.18-1.69-.59-2.14.22-.16.51-.31,1.17-.67l-.86-.91c-.19-.2.25-.85.42-.9.5.45,1.37,1.1,1.91,1.01l2.56-1.53c-.23-1.11-.49-1.76-1.03-2.76l1.98-.65c.23-.16.62-.42.81-.53s.5.33.73.63l1.26-.3-1.38-.73c-.27-.14-.38-.95-.33-1.27.13-.78,1.29-.6,1.79-.51.3.05.95-.25,1.22-.27l.88-.09c.21-.02.48-.57.43-.76-.16-.46-.23-.91-.2-1.55l-5.76,1.68c-1.06.31-2.16.53-3.16.91-.9.35-1.75.52-2.43-.12-.72-.68-.83-1.61-.22-2.57.26-.41.42-1.12.62-1.55.37-.8.61-1.41.84-2.27.55-2.12,1.39-4.17,1.43-6.33.01-.55-.14-1.51.34-1.77,1.18-.62,1.42-1.6.91-2.7l1.87-1.78,17.5-4.81-.82,3.62c.5-.07,1.2-.26,1.85-.44l6.46-1.8,6.96-1.91c3.39-.93,6.54-2.05,10.2-2.28-.36.54-3.95,1.48-4.49,1.63l-8.59,2.52-8.77,2.63-3.21.87c-.62.17-1.09.84-.89,1.41.89-.36,1.59-.59,2.46-.84l8-2.32,3.11-.81,6.41-1.71,18.35-5.32,3.14-.89,8.55-2.4,2.58-.75,7.68-2.3c2-.6,3.88-1.31,5.74-2.18-1.25-.08-2.19.49-3.25.77l-5.71,1.52-7.84,2.22-5.98,1.74-11.62,3.05c-.26.07-.81-.57-.62-.74l8.27-2.28,33.25-9.17,2.2-.44c1.75-.35,3.28-1.02,5.01-1.46l4.44-1.14c.1.12.24.28.17.31s-.39.2-.49.23l-3.04.75-4.4,1.3c-1.35.4-2.61.73-3.96,1.12l-5.96,1.73c.27.38.62.64.83.53,1.18-.62,2.17-.66,3.34-.94l3.23-.79,6.72-1.9c1.63-.46,3.18-.89,4.81-1.38l2.08-.62,7.19-2.03,7.68-2.13c2.07-.58,4-1.17,6.12-1.87.52-.17.36-.37-.06-.5l-4.33,1.05-2.32.56c-.8.19-1.61.35-2.31.27l2.65-.92,12.97-3.65c.75-.21,1.6-.68,2.28-1.05l.49-.27-.18,2.34-.06.78c-.01.16.58.16.74.21l.45.13c.72.21-.87-.89-.57-2.65.26-1.47,1.2-1.96,2.24-2.79.6-.48.98-.66,1.79-.89l7.79-2.22.28-.95c.05-.18.76.1.8.18-.77,1.04-1.46,1.95-1.89,3.19l18.55-5.24c.33-.09.89-.16,1.14-.07.29.1.55.82.5,1.25l-3.68,32.77-.45,4.12-.94,8.39-1.28,11.51-.48,4.08-.52,4.72-.67,6.3-.68,5.03-.11,2.08-.57.16.7-5.11,1.42-11.97.51-5.06.43-3.6,1.49-13.89.67-5.79,2.45-22.26.69-6.26.68-4.84c.05-.37-.09-.9-.46-.98-1.17-.28-.2.65-2.38.83-.65.05-1.28.27-1.89.43l-4.28,1.09c.24,1.37,1.56,1.22,2.35,1.8.86.63,1.7,1.24,2.61,1.76l1.4.81c.13,3.26-.5,4.25-.85,8.17l-.25,2.82-1.07,10.4-.67,6.5-1.15,11.45-1.69,17.53-.78,9.1-.25,4.59c-.07,1.37-1.07,6.33-.94,8.54.62.55.43.1.37-.37l.29-1.12c.15-.41.33-.86.26-.25-.1,1.3-.34,2.4-.13,3.47.27,1.33-.2,2.58-.41,3.92-.23,1.47-.26,3-.41,4.51l-.64,6.47-.98,8.15c-.3,2.53-1.55,1.04-1.5,2.75.02.84.61.86,1.44.97l1.42,1.34c1.53.25,2.61.91,3.82,1.79l1.9,1.37c.07-.82.22-1.54.7-2.01l.41-1.63c.2-.79-1.09-1.74.36-4.2.6-1.02.42-4.3.04-5.36-.41-1.17.91-4.6.95-5.51l.22-5.32.44-3.66c.08-.69.39-1.74.41-2.32.04-1.46.02-2.74.3-4.13.17-.85.26-1.98.26-2.8-.02-3,0,.16.79-3.53-.09-.51-.22-1.22-.26-1.79l-.27-3.87c-.04-.54.05-1.4.07-1.83.01-.25-.22-.88-.24-1.11s.59-.37.87-.51l.18-1.52c.17-.25.51-.69.64-.94.44-.79-1.02-1.59-.75-1.85l.61-.56c.43-.4-1.12-1.32-.35-1.98.68-.59.35-1.6.31-2.44-.1-2.25-.07-4.58-.06-6.81.36-.04,1.09,0,1.13-.24-.22,1.26.17-4.81.01-3.95l-1.44-.04c-.17,0-.17-.57-.02-.58.29-.03.95-.06.98-.26.19-1.28-1.17-3,.27-3.16s-.02-.12,1.39-2.81c-.92-.03-1.75-.69-1.94-1.78l1.53-.66.59-.25c.37-.16.72.95.87.71.05-.08.29-.44.25-.54l-.38-1.12c-.13-.37-.09-1.15-.15-1.65-.06-.55-.33-1.38-.19-1.87l.19-.72c.05-.17-.52-.4-.57-.57-.49-1.58.43-1.72-.24-2.55l-.4-.49c-.11-.13.44-.34.66-.44.74-.36-.3-1.11-.07-1.81,1.26-2.65-.1-2.87,1.31-3.14.18-.04.65-.22.58-.34l-.41-.71c-.53-.93-.53-1.93.42-2.48-.09-3.69.37-2.9.25-7.05-.03-.86.36-2.32.42-3.08.02-.3-.39-.99-.12-1.15.87-.51-.16-1.67.16-2.07l1.7-2.17c.69.02.75,0,.2-.07-.27-.29-.56-.56-.51-.72l.23-.87c.05-.18-.49-.44-.64-.6-.07-.82.66-1.78,1.32-2.41l.47-.44c.69-.65.43,1.49,1.91.88l-.38-.45c-.37-.44.89-.7,1.04-1.83l.77-5.86c.1-.76-.04-1.44.34-2.32,2.66,1.35,5.83,1.68,8.77,1.6.17,0,.64-.27.53-.3-.26-.07-.63-.17-.79-.19l-2.61-.24c-3.8-.35-1.96-.59-5.63-2.03-.89-.35-2.48.31-2.91,1.01-.15.25-.29.66-.4.58-.15-.11-.48-.48-.38-.64l.6-.95c-.55-.4-1.26-.3-1.97.02-.52.23-1.2.36-1.69.53l-2.12.77c-.98.35-1.91.57-2.99.65l-.89.24c-3.14.54.4.27-4.14,1.29-.78.17-1.23.29-1.88.85-.34.3-1.33.4-1.72.63l-2.45,1.42c-.82.47-1.83.65-2.7.68-.26.11-.85.33-1.12.41l-2.86.89c-1.02.32-1.93.29-2.9.63l-3.5,1.23c-.75.26-1.37-.17-1.95.59l-2.34-.08-1.23.94c-1.71.08-3.36.59-4.95,1.21l-3.16,1.24c-1,.39-3.2.65-4.6,1.12-1.29.43-2.6.83-3.95,1.15l-3.82.9c-3.76.89-2.08,1.93-3.99,1.3-.56-.19-1.42.44-2.1.6-.74.17-1.89.15-2.55.25-.64.62-1.05.77-1.84.78-1.25,0-2.5.57-3.72.91l-7.25,2.01-3.29.81c-.81.2-1.54.38-2.35.61l-1.83.52-6.33,1.6-4.91,1.22-2.03.56c-1.18.33-2.29.56-3.53.81-.66.14-1.56.64-2.21.69-.73.05-.99.16-1.62.43-.89.39-3.85,1.08-5.03,1.32-.83.17-1.88.77-2.65.88-3.08.41-.29.44-4.11,1.04l-1.51.24c-.86.14-1.61.53-2.31.72l-4.45,1.27c-1.16.33-2.51.12-3.67.63l-2.07.91c-1.5.13-2.57.37-3.87.97l-2.42.45c-.72.13-1.36.38-2.04.62-1.08.37-2.28.56-3.45.84l-2.46.6-2.34.59c-1.38.35-2.82.58-4.22,1.09-1.28.46-2.55.81-4.05,1.14.41-.09-5.17,1.68-4.51,1.38-1.21.55-2.18.73-3.46.8l-2.47.81c-2.75.9-1.78-.18-3.05.81-.08.06-.19-.09-.43-.32l-2.26.79-1.76.63c-2.83,1.02-3.66.51-6.34,1.61-.83.34-1.85.61-2.8.85l-3.1.78-2.68.7c-1.24.32-2.33.11-3.51.7-1.34.68-2.94.56-4.05,1l-1.82.72c-3.84,1.52-4.45.5-6.65,1.81-1.13.67-2.33.8-3.59,1.03-2.06.38-4.11.86-6.08,1.52l-1.88.63c-.61.2-1.26.34-1.93.5-.8.2-1.65.62-2.49.67-1.96.11-3.66.94-5.56,1.44-1.46.39-3.17.11-4.51,1.14-.5.38-1.23.32-1.82.47l-1.98.51-2.69.62c-2.74.63-.4.76-3.86.76.08-.81.24-1.43.47-2.17l1.87-5.83c1.66-5.18,1.01-5.23,3.87-5.83l4.73-1,5.01-1.21,2.03-.53c.58-.15,1.26-.42,1.93-.5,1.56-.2,2.9-.74,4.36-1.06l7.53-1.65,4.81-1.21,4.65-1.07,5.46-1.26,2.88-.73,2.34-.51,2.09-.64c3.55-1.09,3.8-.5,7.53-1.79.77-.27,1.76-.36,2.6-.56l10.27-2.42,6.71-1.62,8.39-2.01c.48-.11,1.52.13,1.89-.13.98-.7,1.8-.72,2.87-.94l1.95-.41,3.34-.74,3.61-.92,5.43-1.31,2.73-.62,4.2-1.05,7.77-1.82,3.21-.76,5.49-1.24,9.03-2.15,5.21-1.25,3.24-.86,2.33-.56,2.31-.56,3.73-.87c.95-.22,2.03-.61,3-.69,2.2-.16,4.04-1.11,6.11-1.53l6.02-1.22,2.82-.74,2.24-.66c1.25-.37,2.54-.24,3.83-1.02.93-.56,2.47-.31,3.46-.66.59-.21,1.03-.34,1.48-.31.21-.07.8-.37,1.1-.31.88.18,1.86-.38,2.7-.71.58-.23,1.66-.35,2.31-.5l2.21-.53,5.73-1.53,6.49-1.97c.32-.1,1.07.13,1.36.06l2.35-.57,2.63-.55c1.2-.25,2.42-.21,3.59-.52l4.38-1.16c-1.15.3,4.59-1.01,2.51-.87l2.3-.16c.19-.01.68-.22.83-.27.09.02.34.09.4.02,1.46-1.67,1.68.68,3.36-1.32.55-.03,1.51-.07,1.91-.34,2.33-1.54,1.29.21,3.15-.91.49.39,1.66.78,2.09.17.15-.21.17-1.07.43-1.05,1.34.09,1.82,1.42,4.03-.67l.98-.32c.12-.04.47.02.59.04.16.03.31-.32.32-.48,0-.16-.36-.51-.54-.5-1.65.16-4,.47-5.53,1.24-.79.4-1.22.32-2.02.44-.74.11-1.61.35-2.34.54l-6.09,1.6-.15-.8,1.42-.62c1.57-.69,4.29-2.14,5.77-3.03,2.38-1.43,4.63-1.15,6.67-2.62.87-.07,2.46-1.03,2.32-1.54-.25-.89-.93-.84-1.35-.84-.14,0-.03.26.05.77-.24.23-1.2.27-1.73.17l-.8.26c-.25.08-.78-.31-.99-.48-1.06-.82-2.06-.46-3.07-.24-2.95.63-.44,1.09-3.02,1.9l-2.99.94c-.82.26-1.42.61-2.48.59-1.6-.03-2.94-.21-4.52-.48-.74.03-2.21.34-2.96.55l-3.77,1.04c-1.02.28-2.19.37-3.31.76-1.04.37-2.18.44-3.32.55-1.44.13-2.74.57-4.08.87-.76.17-1.6.32-2.29.6-.11.04-.55.07-.56-.04l-.04-.54-.9.02c-.21,0-.51.43-.59.71-.22.75-1.24-.04-1.71,0-1.6.16-3.2.66-4.86,1.21l.52.4c.13.1.15.53.08.67-2.59.46-5.36,1.4-8.05,1.9l-6.13,1.14-5.99,1.46c-1.2.29-2.42.42-3.71.52-.5-.2-.48-.22.23-.54-.67-.01-1.3.08-2.13.22l.96.51-2.24.55.32-.8-2.03.5c.74.33,0,.51-.28.65-1.05.52.47-.88-2.76-.06l-4.82,1.23c-.57.15-1.44.21-2.08.32l-2.61.46c-.17.03-.68-.12-.78.02l-.44.65c-2.88-.1-2.85.72-5.56.88-1.54.87-1.48.28-3.59.95-1.25.4-2.43.57-3.8.56l-.99,1.03c-.42-.38-1.63-.89-1.9-.44l-1.15,1.93c-1.92.27-.18.56-2.8,1.83l-.99-.55c-.71-.4-1.21,1.22-1.42,1.2l-.83-.08-1.44-.14-1.74-.11c-.21-.01-.87-.29-.94-.1l-.34.93-1.19-.15c-.24.24-.51.53-.71.64s-.71-.29-1-.42c0,.18-6.48,2.04-5.55.95-1.14,1.33-1.98,1.27-3.73,1.68-.24.06-.57.79-.77.7l-.94-.44c-.8-.37-.78.82-1.21.85-.18.01-.7-.15-.87-.09-2.85.99-1.25-.32-3.95.38-.52.13-1.17.63-1.62.79l-3.3,1.19c-.4.14-1.26.18-1.67.26l-1.91.33-.71.12c-.2.03-.26.6-.38.84h-1.97c-.46.22-1.04.49-1.62.66-3.77,1.14-.23.23-4,.52-.99.08-2.49-.49-3.44-.05-1.23.57-2.21,1.49-3.68,1.27-1.3-.2-2.64-.05-3.75.56l-1.42.78c-.32.18-1.2.29-1.57.27l-3.34-.16-.94.93c-5.53-.7-3.92,1.12-5.43,1.31-.27.03-.65-.53-.9-.79l-2.02.44c-.15,1.2-4.93,1.43-5.68,1.47-.25.34-.6.44-1.07.5l-4.74.55.87,1.61-1.42,1.2c-.13.11-.67.33-.77.19l-.56-.77c-.05-.07-.15-.41-.08-.45l.38-.17.62-.28c.18-.08.2-.55.14-.74-.15-.5-3.38.86-4.56.27-.64.67-1.41.6-2.32.67-.63.05-1.46.82-2.14.42l-.55.54c-.2.2-.44-.64-3.09.62-.63.3-1.16.77-1.96.66s-1.25.19-1.86.55c-.33.2-.97.42-1.19.66l-.45.48c-.44.47-.13-.84-1.61-.87l-1.32-.03c-.62.46-1.5.69-2.27.52,0,.86-.02,1.72-.13,2.55l-.1.75c0-.07-1.09,1.07-2.87.27-1.47-.65-.67-1.33-1.31-1-.27.14-.92.45-1.18.58l.1.4c.27,1.05-1.71-.52-2.7,1.09l-2.6.02-.22-.77c-.05-.19-.64-.17-.84-.25-.98-.4-1.71-.45-2.81-.29-.77.11-2.4-.07-2.47,1.09-.19,3.28-1.4,1.8-1.88,4.92-.15.15-.97.1-1.06-.16-.55-1.53.55-.76.42-2.22-.04-.49.17-1,.56-1.39.32-.32.23-.88.37-1.29l.97-2.72-.53-.44c-.51,1.24-.88,2.17-1.28,3.34l-2.58,7.5-.9,2.67c-.32.96-.6,1.99-.85,3-.76,3.03-1.16,3.04-2.05,6.3-.28,1.01-.59,1.89-.94,2.86-1.07,2.91-1.47,4.3-3.51,6.86-1.33,1.67-1.43,1.09-2.92,1.58-.11.04-.58.01-.55-.1l.2-.61.14-.44c.35-1.12-2.6,1.11-2.95,1.4-.57.49-1.81.96-2.28.38-.43-.54-.88-1.17-1.58-.86l-1.55.68c-1.37.6-1.72-.87-2.34-1.5-.46-.48-.85,1.47-1.71,1.33-.32-.05-.23-.83-.02-1.26l-2.3-1.42c-.37-.35-.81-.92-1.23-.91-1.88.08-1.93,1-2.6,2.55-.06.15-.36.68-.48.58l-.58-.48c-.49-.4-1.2-1.06-1.22-1.63-.06-1.3,1.16-2.91,1-3.16l-.65-.98c-.08-.12-.36-.37-.48-.42s-.28.12-.26.24l.06.65c0,.09,0,.37.02.4l.25.53-.92.46c-.39.2.52,1.67-.44,1.65-.31,0-.81.44-.85.71l-.26,1.61c-.28.13-.95.36-.88.58l.4,1.21-.02,1.76c0,.62,0,.89-.51,1.44l.32,2.52-.95,2.41c-1.17,1.02-1.48,1.94-1.41,3.5l.07,1.67.02.56c0,.09.05.08.12,0l.34-.35c.22-.23,1.03-.18,1.36.07-.28.63-1.01.92-1.88,1v43.01s1.88,5.16,1.88,5.16c.59,1.62,1.23,3.13,1.48,4.72h-.48c-.83-2.63-1.64-5.64-2.8-8.2l-.08,8.2ZM275.24,92.4l3.48,1.76,15.7,7.27,3.63,1.63c1.32.59,2.68,1.04,4,1.79,2.61,1.48,3.89,1.11,6.96,3.39l3.63.26c1.03.07,2.11.12,3.03.02l.51-2.06-1.44-.92c-1.1-.7-2.26-1.26-3.66-.81l-1.02-1.21c-.72-.74.06,1.29-1.34,1.74l4.53,2.07c-.83.42-1.63.22-2.47-.17l-19.29-8.85-31.16-14.36c-1.7-.78-3.78-.83-6.85-2.93-.69-.47-1.14-.97-1.92-1.32l-11.17-5.01c-.95-.43-1.74-.71-2.67-1.24-3.84-2.2-7.9-3.75-11.95-5.6l-9.05-4.14-11.41-5.36-7.39-3.3-.76,1.35c-.1.08.7.15.75-.03l.16-.56,2.08,1.07c1.93.99,2.64,1.11,4.57,2.09l3.01,1.53,6.62,3.27c.86.42,1.55.89,2.48,1.17l1.68.51,2.76,1.28,7.76,3.5,2.03,1.08,5.13,2.58c.8.4,1.58.74,2.48,1.08,1.52.59,2.93,1.34,4.4,2.04l5.85,2.79c1.1.53,2.22.9,3.38,1.35l-.4,1,.97-.37c.57.27,1.67.46,2.12.8l1.7,1.26c.39.29,1.14.32,1.53.51l2.78,1.36,2.99,1.29c1.47.64,2.77,1.43,4.18,2.1l3.08,1.47,3.99,1.83ZM195.17,58.37c-1.1.37-2.73,2.37-3.23,3.13.51.16,4.4-3.52,3.23-3.13ZM198.25,61.53c-.03-.54.02-.96-.13-1.06l-.44-.32c-.17.46-.22.8-.38.77-.12-.02-.56-.11-.7-.12-.39,0,0,1.32.38,1.41.43.1,1.3-.28,1.27-.67ZM213.61,72.04l-1.16-.94c1.4.29,2.39.82,3.62,1.4l8.33,3.93,3.9,1.86,3.72,1.83,8.72,3.95c1.55.7,2.91,1.68,4.57,2.21,1.14.36,2.11,1.02,3.27,1.59l.45-1.56-28.85-13.31-11.64-5.3-5.48-2.44c-1.08-.48-1.92-1.45-2.09-2.45-.05-.3-.56-.79-.62-1.02s.24-.58.49-.93c.21-.31-.98-.76-1.24-.49-1.01,1.05,1.14,2.87,1.09,4.19-.39.13-1.29,1.72-1.17,1.81l.48.34c.21-.7.24-.8.09-.3l.1.71c.01.1.27.11.29.01l.14-.68c.49.29,1.03.62,1.57.85l4.74,1.99c.6.25,1.29.4,1.87.53-.62-.45-.8-.59-1.2-1.09,1.07.15,3.23,1.3,4.28,2.07l-1.96-.32,1.72.94c.24.24.69.88.99.81l.98-.21ZM225.45,65.28c-.82-.29-1.48-.67-2.16-.9l-3.73-1.28c-1.39-.48-2.99-.71-4.17-1.58-.71-.52-1.34-1.02-2.21-.36l16.09,7.39.28-1.64-2.42-1.03-1.68-.6ZM188.38,65.82c1.09-1.16,1.94-2.02,2.48-3.15l-1.39,1.25c-.51.46-1.77.96-1.1,1.9ZM196.88,70.59c.05-2.58,1.29-1.21,1.97-2.98.03-.07-.19-.04-.25.01l-.33.27c-.94.75-1.66,1.4-2.55,2.36l1.16.34ZM234.48,68.99c-2.65-1.62-1.2-.3-4.02.09l9.01,4.09c.98-1.62-3.19-3.08-4.98-4.18ZM247.09,75.93l-1.77-1.41c-.51-.4-3.95-1.72-4.96-.95l6.05,2.91c.17.08.5.09.63.07s.15-.54.04-.62ZM209,128.54l-2.64.56-4.14.84-3.34.5-3.43.58-4.55.84c-.89.16-1.68,0-2.54.7.54.12,1.35.31,1.78.22l4.3-.84,4.88-.7c2.52-.36,4.92-.81,7.39-1.41.49-.12.89-.1,1.42-.18l17.07-2.85,9.85-1.67,8.39-1.46,12.47-2.12,4.83-.79,16.08-2.84,10.98-2.01,4.63-.87,10.73-1.96,9.37-1.64,2.02-.34,4.39-.67c-1.34-.92-3-.8-4.29-.87-.1-.05-.42-.19-.43-.18,0,0-.14.2-.34.48l-1.05-.84c-1.59,0-3.21.22-4.9.74.53.1,1.26.21,1.66.18l3.29-.27c.3-.27.35-.13.25.43l-2.02.1c-1.35.5-2.57.7-3.95.92l-13.33,2.17-14.63,2.62-4.09.71-7.82,1.35-2.26.37-7,1.2-5.77.87c-1.21.18-2.36.57-3.57.52.57-.76,1.33-.92,2.16-1.05l3.44-.53,6.28-1.1,13.31-2.3,7.23-1.26,17.86-3.06,5.31-.87c2.15-.35.84.17,2.4-.09.08-.01-.01-.22-.09-.25l-.49-.16c-.97-.33-1.87-.03-2.88.14l-15.29,2.56-15.29,2.64-2.69.47-2.45.39-12.95,2.07-7.87,1.22-9.44,1.39c-1.93.28-3.7.67-5.63,1.1-1.43.32-2.96.41-4.41.65l-4.87.79c-1.2.19-2.99,1.16-3.68.52-.34-.13-.84.63-1.16.93-1.26,1.17-3.03-.92-4.89.13-.16.09-.58.1-.74.14-.12.04.08.69-.05.71l-2.55.41-3.75.55-5.19.77-3.46.43-2.78.38c.13.41-.01-.04-.13-.42,3.23-.18,3.3-.7,6.02-1.01.14-.02.61-.32.5-.36l-.67-.24c-.09.05.19-.1.63-.34-1.08.05-2.35.22-3.53.52-.74.19-1.13,1.3-2.3.58-.4.38-.35.32.05-.22l-12.42,1.7c-.79.11-1.56.15-2.32.29-1.88.35-3.7.63-5.61.89l-5.52.75-4.01.37-2.44.43-4.58.81c.59.36.42.31-.17,0-2.29.27-4.49.77-6.79,1.15l-2.16.36c-2.28.38-1.09.7-3.04.35l2.44-4.11,2.16-4.06,3.26-6.07,3.03-5.37c.44-.78,1.05-1.39,1.32-2.29.51-1.69,1.61-3.09,2.83-4.35l4.84-5,2.66-2.84c1.08-1.16,2.25-2.23,3.27-3.43.45-.53.84-1.04,1.32-1.55l1.87-1.96c.37-.39.31-1.51,1.44-1.46,1.3.06-.39-1.12,2.08-2.24l1.15-1.24c1.25-1.35.65-.16,2.7-2.55.5-.58.96-1.12,1.49-1.64l3.17-3.1,1.55-1.53c1.1-1.09,1.97-2.22,3.08-3.51l-.91-.17c-.25-.05-.56.58-.75.77l-7.47,7.68-17.39,17.84-6.22,6.28c-1.06,1.07-2.61,3.19-3.35,4.54l-1.46,2.64-4.84,8.91c.38,1.16,3.68-5.62,3.66-5.6.38-.79.97-1.56,1.67-2.21-.62,1.49-1.41,2.67-2.1,4.06l-2.04,4.1c-.24.48-.19.9-.63,1.24-.79.6-1.77,3.68-2.2,4.36-.75,1.2-1.42,2.27-1.83,3.69-3.11.99-3.96,1.24-7.07,1.51-.78.07-1.4-.59-2.26.43l-.33-.59,2.63-4.61,4.88-9.07,2.1-3.86,2.68-4.98,4.36-8.48-1.58-1.34-2.73,5.13-1.86,3.39-1.23,2.25c-.72,1.32-.22,2.67-.63,2.39l-.39-.26-.85,1.4-4.39,8.09-1.42,2.64-1.72,3.01-2.87,5.55c-1.22.21-2.45.47-3.69.6l-3.99.43c-1.18-3.36-1.57.99-4.84-.59-1.18,3.05-3.12,1.7-7.14,2.52l-2.74.56-7.87,1.25-3.25.44c-.8.11-1.65.26-2.44.46-.47.12-1.57-.21-2,.02-1.03.57-2.25.55-3.23.11-.7.25-1.71.37-2.57.5l-6.67,1.03-6.58,1.03-2.98.4-6.88.95-5.27.8c-2.39.36-3.77.4-5.76.76l-2.42.44-11.06,1.57c-.57.08-1.22.29-1.8.35-1.09.11-2.14.22-3.18.37l-3.83.56-8.68,1.25-3.41.44-3.74.75-12.44,1.7.05,2.88,7.38-1.23,4.31-.72,9.81-1.52,14.63-2.21c1.78-.27,3.49-.51,5.2-.84,1.07-.21,2.08-.42,3.21-.59l15.58-2.35,3.43-.61,4.29-.53c1.69-.21,3.24-.61,4.91-.84l4.92-.67,7.5-1.3,4.72-.76,2.53-.45,9.73-1.51c1.27-.2,2.51-.25,3.75-.56,2.9-.72,5.88-.84,8.83-1.38,1.13-.21,1.84.04,3.06.18s2.99-.39,4.31-.57l3.23-.45,4.12-.66,5.63-.87,2.73-.39,4.73-.68,3.84-.52,5.89-1.05c.81-.14,1.74-.04,2.63-.27,1.22-.32,3.03-.6,3.92.16-.48-.41,2.84-1.78,4.42-.98,1,.51,1.51.38,2.57.03.56-.18,1.55-.22,2.22-.38,1.85-.44,3.57-.65,5.44-.91l2.69-.37,2.93-.3,3.97-.92,9.58-1.5,7.86-1.3,7.29-1.17c1.11-.18,2.2-.63,3.36-.15-.92,1.17-2.17.62-3.29.83l-3.25.59ZM178.37,81l1.51-1.74c.13-.15.53-.44.43-.57s-.46-.53-.59-.42c-.1.08-.31.27-.41.39l-1.2,1.45.26.9ZM232.15,80.93c.14-.27-3.17-1.91-3.79-1.96.25.72.82,1.01,1.46,1.22l2.33.74ZM168.59,89.79l-3.58,3.67c-.15.15-.02.89.15.83,1.26-.45,3.31-3.25,4.59-4.52l5.53-5.53c.97-.97,1.86-1.94,2.71-2.96-.9-.32-1.99.27-1.9.92l.09.64c.02.11-.27.19-.35.11l-.29-.31c-3.46,2.78-1.5,2.43-3.59,3.83-.42.28-2.27,1.73-2.19,1.96l.19.51c-.62.08-.82.27-1.37.84ZM248.17,89.45c.3-.1.4-1.06.01-1.2-1.05-.36-2.15-.99-3.07-1.55-.99-.6-2.04-.83-3.04-1.32l-8.05-3.93c-.51-.25-1.23-.32-1.72-.1l2.06,1.01,3.18,1.59,6.29,3.08c1.48.72,2.94,1.39,4.33,2.41ZM172.31,82.06c-1.48.55-4.93,4.57-5.94,5.78.43.34,6.1-5.32,5.94-5.78ZM271.37,102.68l3.59,1.91,5.64,2.79,2.13,1.08c1.03.52,6.85,3.71,7.36,3.17-.07.07.29.43.46.4l10.48-1.83c-1.13-.35-2.36-.61-3.47-1.13l-11.09-5.17-5.29-2.42-26.24-12.36-5.12-2.58c-.07-.03-.23-.64-.27-.56s-.26.23-.24.32c.46,2.14-.35.53-.33,2.9.78.47,1.53.87,2.14,1.31,1.93,1.41,1.47-.68,3.27,1.74,1.01,1.37,2.98,1.08,4.43,1.87l3.47,1.9c-.08.5-.1,1.32.24,1.65.53.5,1,.68,1.64.98l1.59.75c.34.16.93.65,1.31.86l4.29,2.4ZM273.65,89.15l.51-1.6c-.28-.34-1.37-.99-1.88-.88l-2.69.59,4.06,1.89ZM285.55,93.5c-1.18-.55-2.2-1.28-3.29-1.97-1.03-.66-2.1-1.22-3-2.02-.83-.74-1.52-.59-2.49-.3l-2.74-.02,4.4,2.16,9.92,4.38c-.47-1.58-1.74-1.75-2.79-2.23ZM156.73,97.72l-4.44,4.44.24.24,4.44-4.44-.24-.24ZM256.77,113.1c.53-.19,1.24-.33,1.61-.63.36-.28.5-1.19.62-1.61.05-.18.61-.6.48-.74l-.77-.75,1.72-.44c-.06-.38-.17-.74-.03-.83l.82-.49-.44-2.21c.86-.86,1.59-1.83,1.78-3.09-1.49.11-1.77,1.32-1.78,2.46l-1.76.99-1.15,1.41,1.29,1.53c-.82.87-1.76.5-2.55.07l-3.07,3.74c1.52,1.28,2.46.84,3.22.57ZM281.77,112.56c-.21.08-.66.08-.66.24l-.02.8,5.93-.99c1.11-1.27-2.57-2.34-3.57-2.72-1.88-.72-1.37-.87-3.83-1.43-.48-.51-1.11-.86-1.91-.83-.08-.18-.15-.8-.35-.79s-.8.04-.76.04l.87,1.51,1.36.35c.05.44,0,1.26-.31,1.32-.26.05-.67-.12-1.19-.28-.21.14.24,1.27.64,1.44.24.1.79-.59,1.02-.69,1.28.32.38,2.63,1.07,1.93l.38-.38c.19-.19.71-.47.96-.36.2.09.39.64.39.86ZM150.14,111.75c.42-.59.76-1.19.99-1.79l.37-1.37c-.87.99-2.84,4.88-3.36,6.11,1.42-.56,1.27-1.94,1.99-2.95ZM255.4,117.79c-.48-.2-.95-.63-.9-1.24.04-.49.56-.78,1.2-1.2l-1.12-.23c-.33-.47-.74-1.07-1.12-1.26-1.7-.86-3.02,2.25-3.03,3.17,1.11-.03,1.88.67,2.65,1.05l2.32-.28ZM320.69,114.36c-.86-.11-1.92-.14-2.87.07l-6.24,1.41c3.41.02,6.09-.67,9.11-1.48ZM9.42,206.78c.18.14.94-.19.85-.38l-.46-.99,3.61,1.25c.24.08.96-.25.94-.48-.02-.18-.14-.62-.28-.74l-1.12-1.02c-.1-.09-.06-.74.06-.68l.4.2c1.08.53,2.33,1.26,3.49,1.22.47-.57,1.05-.44,1.6-.66l1.5-.58c.39-.15,1.2-.26,1.58-.45,1.34-.67,2.9-1.37,4.38-1.83l3.68-1.12c.17-.05.45-.44.62-.43,1.46.04-1.78,7.79-2.28,8.75-.58,1.1-1.19,1.81-1.92,2.84-1.57-.08-2.94-.34-4.4-.87-.17.13-.49.86-.4,1.17s.53.71.82,1.04l2.58,2.88c3.24.2,4.47-1.4,5.72-4.11.29-.62.59-1.22.82-1.84l1.14-3.2.92-2.67.87-2.84.65-1.88c.15-.43.38-1.06.5-1.51l.9-3.2c.24-.87.42-1.8.76-2.66.72-1.81,1.34-3.53,1.82-5.4l.72-2.78,1.87-1.23c.31-.2,1.08-.18,1.3-.46s.28-.96.31-1.47l1.18-.44c.53-.2,1.26-.36,1.72,0,.29.23.57.88.75,1.36.47-.09,1.62-.16,2.12-.36,1.61-.64,2.89-2.24,3.89-3.62-.16-1.2-3.04.41-3.64-.24,1.73-.93,3.38-1.24,5.19-1.57l2.22-.41,4.74-1.01c.38-.08,1.14.48,1.36.63.67,0,.6-.16.08-.55l2.14-.74c1.22-.42,2.76-.49,4.06-.73l3.24-.61,4.25-.82,1.09.48,12.75-2.46-.95-.27,1.98-.63c2.1-.66,4-.9,6.34-.61.48-.99,2.07-1.59,3.16-.96,1.16.67,1.36-.74,1.93-.85l7.18-1.36v.88s1.66-1.07,1.66-1.07c.28.13.79.46,1.04.4.2-.05.52-.62.73-.59l1.07.14c.16.02.19-.14.26-.58l1.06-.33c-.13.43-.25.67-.12.65.11-.01.47-.04.58-.06l1.77-.27c-.13.6-.38.99-.74,1.41-.54.62.19,1.18.64,1.34.88.3,1.2-.29,1.55-.92l1.37-2.44c.4-.7.95-.34,1.38-.46,2.45-.68,4.81-1.43,7.46-1.45l.85-.75c.67.64,1.31.33,2.14.16l8.88-1.83,5.91-1.17c.14-.03.62-.06.6-.17l-.08-.53c1.18.26,2.26.26,3.42,0l3.73-.83-.5-.54,2.61-.48c.09-.02.39.05.46.06s-.17.35-.25.36l-1.81.26.88.81c-.18.27,1.32-.53,1.26-.06-.02.11-.06.57-.16.63l-1.64,1.03c3.2.28,3.31-1.17,5.29-2.85l-1.01-.08s.1-.11.14-.15l3.69-.87,13.12-2.79,9.86-1.93,2.05-.58.46-.11c.08-.02-.14-.26-.23-.28-.25-.05-.82-.41-.68-.59,1.03-1.33,1.97-1.16,2.81-1.33,2.2-.44,3.69-.49,6.16-1.17l1.05.98c.02.16.08.76.06.54l3.83-.66,3.08-.54,2.07-.39c.88-.17,1.81-.5,2.54-.74l-.44-.61c-.07-.1.22-.32.34-.37l1.41-.7c.97-.48,2.36-.47,3.61-.61l-.2,1.36,4.2-.87,5.94-1.3,1.53-.34,11.13-2.18c.31-.06.88-.36,1.11-.45,1.82-.03,3.68-.4,5.42-1l1.67-.58c.83-.28,2.23.1,2.98-.64.47-.47.74-.42,1.49-.48.63-.05,1.66-.66,2.37-.8l2.24-.43,4.67-.87c.75-.14,1.77.57,2.64-.11.39-.31,1.51-.38,1.78.01l.56.82.04-.58c-.14-.25-.22-.87.01-.88l.95-.07c.5-.04,1.09-.2,1.56-.27l3.03-.48,3.99-.57,2.2-.57,3.66-.64c.26-.05.58-.63.81-.71,5.67-1.84,4.05.64,6.73-1.19.53-.07,1.34-.14,1.84-.25l3.38-.76c.03-.2.04-.31.08-.31,2.75.07-.45-.14,2.7-.48l1.04,1.35c.33.15.5.2.32.08l.16-.65,1.69-.79c-.35-.46-.57-.75-.49-.65l3.85-.75c.5-.1,1.27-.25,1.5.04-.2.78-.36,1.46-.09,1.84.66-.98.94-2.49,2.07-2.84.6-.19,5.73-1.42,6.03-1.46,3.06-.45,6.21-.51,8.83-2.16,2.22-1.41,3.03-3.89,2.55-6.41-1.39.19-2.52.35-3.72.59l-3.81.77-3.09.77-3.94.62-4.53.72c-1.51.24-2.98.69-4.58.82-.5-.17-.53-.2-.06-.37,3.34-.54,5.53-1.17,9.02-1.78.97-.17,1.8-.28,2.65-.67-.98-.34-1.71,0-2.56.14l-3.54.55-15.04,2.75-10.34,1.91-9.34,1.68-13.67,2.41c-1.66.29-3.21.59-4.82.98-2.41.59-3.32.31-5.45,1.64l-.07.68c-.01.12-.64,0-.71-.12-.4-.76-1.65-.89-2.64-.64l-2.32.59c-2.33.59-3.44.68-5.88.97-.86.1-1.83.55-2.73.7-.69.12-1.77-.09-2.54.1l-3.97.96c-.05.88.05,1.54.35,2.14-.66.17-1.4.38-1.9.48l-1.59.29-5.67,1.05c-.7.13-1.28.26-1.99.32s-1.6.36-2.37.47c-2.52.37-5.45,1.22-7.52,1.48-1.24.15-2.25.28-3.45.51l-8.28,1.58-6.12,1.04c-1.54.26-2.91.87-4.52.74-1.05-.09-2.02.69-2.73.77-1.33.15-2.5.15-3.77.59-.55.19-1.44.61-1.91.69l-2.34.39c-.25.04-.96-.21-1.13-.02l-.59.69c-1-.52-1.88-.3-2.95.09-2.17.8.82.67-2.99,1.15-.83-.85-4.72.18-5.58.73-.64.41-.87.44-1.7.43-.32,0-6.03-.09-5.58.76l.37.72c-.56.19-1.62-1.71-1.99-1.2l-.69.95-2.23.18c-2.62,2.05-.8.63-3.51,2-.36.18-.68-.4-.94-1.04-.35-.27-1.42.27-1.85.66l-1.15,1.05c-1.27,1.16-2.48-1.5-3.64-.94-.47.23-.69.65-.95,1.27-.46.24-1.59.69-2.2.7-1.53-.01-3.01-.59-4.34.07l-1.38.69c-4.04,2-2.48.33-4.68.31h-1.38c-2.44,2.42-2.59,2.04-6.03,1.81-.42.21-1.13.54-1.59.56-1.25.05-2.15.45-3.25.76l-1.39.39c-1.86.52-3.76.73-5.67,1.14-1.28.28-2.56.69-3.91.57-.39-.04-1.08.39-1.4.53l-2.65.09c-.55.02-1.52.73-2.05.68-1.88-.16-3.3.47-5.05.8l-2.74.53c-.73.14-1.5.44-2.15.53l-1.48.2c-2.91.39-.72.44-4.95,1.14l-2.39.39c-3.04.5-2.12.46-4.89.99l-2.35.45-2.63.51c-.8.15-1.61.34-2.43.4l-2.46.19c-.45.03-1.27.61-1.71.69l-2.95.52-2.28.52c-1.71.39-3.22.2-4.81,1.08-3.95-.18-2.62.75-4.65.62-1.48-.1-2.73.28-3.91.92-.44-.08-1.06-.07-1.55.04l-4.13.94c-.81.18-1.7.4-2.52.53-1.27.2-2.59,0-3.78.42-.98.35-1.88.52-2.95.71-1.4.24-2.89.91-4.27,1.06-.98.11-1.59.14-2.41.54-1.24.61-2.77.42-4.08.79-.87.25-1.54.32-2.44.4-.61.06-1.32.42-2.13.29l-1.57.85c-.46-.43-1.08-.49-1.47-.13l-1.04.95v5.16s1.38.37,1.38.37c-.07.65-.68.87-1.27,1.11-.15.98-.12,2.17,0,3.22l4.47-1.22v.82c0,.1.32.08.4.07-.06-.36.23-1.21.58-1.04.23.12.59.34.86.53,2.75-2.22,1.17.68,5.08-1.76l1.31.47,1.66-.78c.85-.4,1.64-.51,2.5-.7l2.44-.52c1.61-.35,3.2-.69,4.82-.92,3.7-.52,4.7-1.08,8.36-1.72-.11,1.26-.47,2.48-1.16,3.4l-11.14,2.35-2.24.47-3.35.7-2.37.49-2.89.49-3.43.73-1.81.43c-2.46.58-2.15.3-4.19,1.03v15.55s3.61.15,3.61.15c.2-.04.57-.4.73-.28l.79.59ZM183.59,118.02l.04-1.37h-1.43s.34,1.62.34,1.62l1.05-.24ZM179.43,119.4c-.08.2.03,1.04.13.53l4.3.3c.54-.5.98-1.33,1.01-2.2-.42.32-.79.9-1.02,1.31l-1.53-.27c-.75-.13-2.61-.43-2.9.32ZM300.56,141.19l1.22-3.3.71-1.74,1.72-4.41.64-1.61,1.34-3.08c-1.12.23-1.16,1.13-1.54,1.96l-1.37,3.05-.59,1.42c-.65,1.58-1.32,3.14-1.89,4.78-.95,2.73-1.38,3.03-1.65,3.89-.05.15.35.48.45.57.17-.38.78-1.08.95-1.53ZM292.18,139.72c-.57.35-.77.42-.84.54l-.39.73-.3-.99c-.37.26-.95.67-1.26.99l-.77.79.69.35c.14.07.08.41.09.6,2.02-.75,2.9,1.23,5.1-.17l1.53-.97c-.63,1.25-1.63,1.85-2.79,2.55,1.28,1.71,3.64-1.99,3.99-2.81l3.85-9.08c.33-.79.57-1.63.84-2.45-.78-.48-.47-1.12-.45-2.16l-.53.87c-.34.55-1.17-.59-1.92.31-.66.79-1.38,1.37-2.47,1.96l1.36,2.49c.54.99-1.58,1.47-1.94,1.72-.12.08.06.62.2.6l.94-.16-.23,1c-.06.26-.72.52-.97.46-.08-.02-.31-.41-.32-.34l-.08.47c-.1.57-.33,1.2-.66,1.63l-1.14-.59-.24.66c-.03.08-.31-.08-.34-.15l-.17-.41c-.05-.11-.29-.5-.35-.4l-.23.37c-.07.25-.05.52-.19.5l-.62-.08c-.17-.02-.61.04-.78.07s.19.62.28.69l1.14.39ZM187.37,132.54c-1.34-.08-2.58.17-3.59.86,1.31.47,2.55-.12,3.59-.86ZM4.39,136.53l2.25-1.7c.28-.22.29-1.17.05-1.14-.92.83-1.3,1.19-2.37,1.58l.07,1.26ZM22.59,160.02c.76.02,1.27-.07,1.78-.46l-.89-.3c-2.47.71-2.15-.11-4.71.45-1.06.23-1.98.4-3.04.57-.25.05-.62.38-.77.24l-.71-.65c.24-.95,2.51-1.25,3.48-1.16.67-.04,1.54-.29,2.27-.48l2.54-.66c.96-.25,1.68-.49,2.83.19.55-1.43,2.27-.68,3.08-.99,1.42-.53,2.41-.69,4-.71,1.09-.02,2.58-.65,3.75-.83l1.89-.3c.85-.13,1.76-.33,2.63-.53l1.82-.41c.08-.02.47-.28.39-.3l-.56-.12c-.38-.09-1.25.37-1.71.4-1.4.09-3.24.3-4.81.56l-4.99.82-6.4,1.07c-.63.11-1.15.21-1.59.62-1.54-.26-3.2.1-4.86.37l-13.62,2.27c-.07.63-.04,1.41.06,1.91.34-.21.79-.51.88-.36l.31.49-1.07.49c-.21.1-.24.89-.14.94.42-.17.7-.39.87-.3l.7.34c.16-.61,4-1.22,3.99-1.22,1.38.13,3.89.62,4.76-.51.26.07.78.13,1.03.09l1.59-.3c1.59-.3,3.2-.46,4.78-.59l.45-.62ZM237.76,168.06c.14-2.76,3.2-2.02,2.94-2.93l-.19-.66.27-.96-1.69.8c-.22-.16-.83-.45-.84-.28l-.03.71c-.71.1-1.75,1.33-1.27,2.07l.82,1.25ZM237.28,170.42c.24-.46.65-1.46.81-1.91.04-.12-.51-.39-.57-.28s-.17.3-.26.52l-.72,1.75c-.05.12.46.44.52.33l.22-.41ZM82.65,208.92c.99-.33,1.91-.66,2.92-.93l2.74-.73c1.01-.27,1.82-.42,2.9-.93-.44-.25-1.12-.49-1.44-.37-1.01.39-2.19.48-3.13.79-2.54.82-4.95,1.5-7.55,2.06-2.27.49-4.32,1.44-6.72,1.65l-.06,1.28c4.24-1.32,6.2-1.45,10.34-2.82ZM19.86,211.81c.86-.65,1.27-2.06.41-2.81l-.74.57c-.14.11.45.52.49.69,0,.16-.34.46-.49.39l-.78-.35c-.12-.05-.49-.06-.62-.05s-.19.44-.08.52c.86.59.75-.02,1.82,1.03ZM47,218.79c.98-.38,2.25-.29,2.97-.75,1.25-.81,2.37-.69,3.71-.98,1.64-.36,3.33-.71,4.93-1.28l2.38-.85,4.36-1.23c2.09-.59,2.32-.23,4.26-1.52l-1.83.04c-1.74.04-8.25,2.21-10.33,2.84l-4.03,1.24-5.59,1.69c-3.52,1.07-7.04,1.75-10.7,3.26,2.7.33,5.17-.65,7.6-1.59l2.26-.87ZM32.59,222.99c.65-.22,1.42-.25,1.68-1.03l-4.25,1.35c2.07.52,1.18.16,2.56-.32ZM103.15,230.53c-.09-.98-.8-1.75-1.49-1.47-.15,1.41,1.2,2.7,2.47,2.41l-.97-.94ZM80.37,244.72l4.61-8.34,3.43-6.17c-1.22.17-1.53,1.25-2.01,2.15l-5.78,10.69c-.3.55-.89,1.09-.24,1.66ZM70.07,263.12c.26-.48.47-.87.73-1.31l1.37-2.29,5.62-10.14-.78-.2c-.13-.03.24-.4.37-.37.08.02.2.09.61.29l.82-1.72c-.29-.09-.92-.22-1-.08l-1.26,2.18.13.58c.03.11-.56.26-.66.43l-6.55,11.85-1.61,2.86c-.08.15-.23.51-.1.58l.71.35,1.61-3ZM234.73,276.13c.95-.41,1.68-.25,2.74.29-.25-1.13-1.47-1.14-2.29-1.65l-5.78-3.62-3.65-2.36c-1.53-.99-3.03-2-4.67-2.72-1.54-.67-2.94-1.39-4.45-2.1l-3.59-1.67c-1.56-.72-2.45-2.52-4.37-3.16.27.53,1,1.67,1.39,2.12.15.18.96.2,1.02.34l.39.97,2,.8c.26,1.11,1.54,1.3,2.41,1.78l3.94,2.16.71-.31c.66-.29-.44.44.09.76l5.08,3.04,3.29,2.07c2.12,1.33,3.02,2.21,5.74,3.27ZM64.33,272.14c.29.1.79.16.81.01.24-1.64,1.86-1.4,2.12-3.83.02-.16.42-.56.31-.65l-.7-.59-1.48,2.52c-.12.2-.04.89-.02,1.01-.42.29-.99,1.01-1.04,1.53ZM173.37,274.29v-1.47s-1.37-.35-1.37-.35c-.63-.29-1.23-.53-1.87-.64.21.87.6,1.17,1.08,1.4l2.16,1.06ZM241.27,278.86c-.26-.4-.65-.89-.49-.97l.66-.3s-.2-.28-.28-.38c0,0-1.55,1.24-1.3,2.17l1.41-.52ZM166.42,278.89l.72-.2-.9-.6c-.95,2.24-3.4.83-2.75,2.46l2.92-1.65Z"/>
  <path d="M7.17,285.48h-2.88l.08-8.2c1.17,2.56,1.98,5.57,2.8,8.2Z"/>
  <path d="M285.55,93.5c1.04.48,2.32.64,2.79,2.23l-9.92-4.38-4.4-2.16,2.74.02c.97-.29,1.66-.44,2.49.3.9.8,1.97,1.36,3,2.02,1.09.69,2.11,1.42,3.29,1.97Z"/>
  <path d="M247.09,75.93c.11.09.1.6-.04.62s-.47.01-.63-.07l-6.05-2.91c1.01-.77,4.45.55,4.96.95l1.77,1.41Z"/>
  <path d="M273.65,89.15l-4.06-1.89,2.69-.59c.51-.11,1.6.54,1.88.88l-.51,1.6Z"/>
  <path d="M4.39,136.53l-.07-1.26c1.07-.4,1.45-.75,2.37-1.58.24-.03.24.93-.05,1.14l-2.25,1.7Z"/>
  <g>
    <path d="M267.19,285.48h-11.08l3.29-2.48c1.98-1.5,4.45-2.2,6.61-3.3.23.38.4.72.56.69l.91-.16-.98.86c.59,1.53-.37,1.63.68,4.39Z"/>
    <path d="M237.55,285.48h-5.73c.07-1.38,1.4-3.06,2.45-3.66l3.57-2.02c.34-.19,1.15-.03,1.66.1l-1.95,5.58Z"/>
    <path d="M228.52,285.48h-1.38c-.02-.06-.09-.26-.12-.29-.02-.02-.35-.09-.42-.1l.48-1.26,1.46-3.84c.75-.04.81.02.54.61l1.83-.49c-.14.32-.42.87-.4,1.09l.17,2.44.85.46c.12.06-.07.63-.21.63h-.55c-.25.03-.37.1-.45,0l-.46-.57-.37.41c-.1.11-.58-.02-.71.05-.2.11-.26.63-.27.87Z"/>
    <path d="M234.73,276.13c-2.72-1.05-3.62-1.94-5.74-3.27l-3.29-2.07-5.08-3.04c-.52-.31.58-1.05-.09-.76l-.71.31-3.94-2.16c-.87-.48-2.15-.66-2.41-1.78l-2-.8-.39-.97c-.06-.14-.87-.17-1.02-.34-.39-.45-1.11-1.59-1.39-2.12,1.92.64,2.81,2.43,4.37,3.16l3.59,1.67c1.52.71,2.91,1.42,4.45,2.1,1.64.72,3.14,1.73,4.67,2.72l3.65,2.36,5.78,3.62c.82.51,2.03.52,2.29,1.65-1.06-.53-1.79-.7-2.74-.29Z"/>
    <path d="M281.77,112.56c0-.22-.19-.77-.39-.86-.25-.11-.77.17-.96.36l-.38.38c-.69.7.21-1.62-1.07-1.93-.23.11-.78.8-1.02.69-.39-.17-.84-1.3-.64-1.44.52.16.93.33,1.19.28.3-.06.36-.87.31-1.32l-1.36-.35-.87-1.51s.56-.03.76-.04.27.61.35.79c.8-.02,1.44.33,1.91.83,2.46.56,1.96.7,3.83,1.43,1,.39,4.68,1.46,3.57,2.72l-5.93.99.02-.8c0-.16.45-.16.66-.24Z"/>
    <path d="M256.77,113.1c-.76.27-1.7.71-3.22-.57l3.07-3.74c.78.43,1.72.8,2.55-.07l-1.29-1.53,1.15-1.41,1.76-.99c0-1.14.29-2.35,1.78-2.46-.19,1.26-.92,2.24-1.78,3.09l.44,2.21-.82.49c-.14.08-.03.45.03.83l-1.72.44.77.75c.13.13-.43.55-.48.74-.12.41-.27,1.33-.62,1.61-.38.29-1.08.44-1.61.63Z"/>
    <path d="M255.4,117.79l-2.32.28c-.77-.37-1.54-1.08-2.65-1.05.01-.91,1.33-4.03,3.03-3.17.38.19.79.79,1.12,1.26l1.12.23c-.65.42-1.17.72-1.2,1.2-.05.61.42,1.04.9,1.24Z"/>
    <path d="M300.56,141.19c-.17.45-.78,1.15-.95,1.53-.1-.09-.49-.42-.45-.57.28-.86.7-1.16,1.65-3.89.57-1.64,1.24-3.2,1.89-4.78l.59-1.42,1.37-3.05c.37-.83.41-1.73,1.54-1.96l-1.34,3.08-.64,1.61-1.72,4.41-.71,1.74-1.22,3.3Z"/>
    <path d="M179.43,119.4c.29-.75,2.15-.45,2.9-.32l1.53.27c.23-.42.6-.99,1.02-1.31-.03.87-.47,1.7-1.01,2.2l-4.3-.3c-.11.51-.21-.34-.13-.53Z"/>
    <path d="M19.86,211.81c-1.06-1.06-.95-.45-1.82-1.03-.11-.08-.06-.5.08-.52s.5,0,.62.05l.78.35c.16.07.5-.23.49-.39-.04-.17-.62-.58-.49-.69l.74-.57c.86.74.45,2.15-.41,2.81Z"/>
    <path d="M241.27,278.86l-1.41.52c-.24-.92,1.31-2.16,1.3-2.17.07.1.29.4.28.38l-.66.3c-.16.07.23.57.49.97Z"/>
    <polygon points="183.59 118.02 182.54 118.26 182.19 116.65 183.63 116.65 183.59 118.02"/>
    <path class="cls-1" d="M188.48,157.73c1.49-.3,3.41-1,6.24-1.62l4.01-.88c1.22-.27,2.29-.38,3.53-.84.56-.2,1.74.07,2.31-.1l2.93-.85c.65-.19,1.34-.3,2.06-.62.65-.28,1.52-.37,2.18-.42,2.37-.17,1.55-1.41,3.18-.83,2.01-.73,4.08-1.14,6.18-1.7,3.62-.95,3.26-.6,6.76-1.55l4.57-1.25c.73-.2,1.4-.23,2.08-.4l3.28-.78c.67-.16.9-.2,1.55-.51,1.76-.84,3.7-.59,5.03-1.06l2.73-.96c.71-.25,1.72-.28,2.49-.44l2-.41c.52-.11,6.38-1.45,5.86-1.79l.63.4c1.06-.72,2.42-1.02,3.63-1.17,1.33-.17,2.4-.51,3.71-.28-.35.88-.96,1.48-1.87,1.74-3.3.93-6.56,1.87-9.92,2.66l-6.2,1.44-16.91,4.08-5.58,1.35-10.72,2.66c-1.16.29-2.34.7-3.5.86-1.61.21-3.01.58-4.59.95l-13.91,3.27-4.01,1.01c-1.31.33-2.72.52-4.05.78s-2.43.6-3.64.9l-3.33.83-3.07.73-4.62.98c-.22.05-.72-.05-.86-.22-.17-.21-.2-1.14.04-1.28.64-.39,2.08-.47,3.01-.43l.99-.66,1.96-.47,5.66-1.34,4.91-1.14,3.25-.65Z"/>
    <path class="cls-1" d="M134.69,170.98c.2-1.15,1.89-1.26,2.89-.99,1.61-.67,3.43-1.23,5.23-1.48.79-.11,1.63-.48,2.34-.63.98-.2,1.81-.39,2.74-.66l2.85-.82c.83-.24,2.07-.37,2.92-.49l.47.92c.28-.97.59-1.61,1.6-1.67l2.66-.17c.17-.01.65-.46.77-.36l.6.5.24-.51c.06-.13.3-.16.54-.23l2.22-.68c.63-.19,1.29-.3,1.98-.45l1.58-.34c.51-.11,1.21-.21,1.72-.24.18,1.4-.89,1.87-1.97,2.13l-2.15.51-3.61.67-8.08,1.98-2.94.73c-1.74.43-3.33.61-5.17.86l-1.64.23c-.61.08-1.08.11-1.72.14-.9.04-1.99.57-2.84.68-2.93.4-.65.3-2.56,1-.24.09-.71-.42-.66-.66Z"/>
    <path class="cls-1" d="M130.17,172.62l-3.16.62c-.05-.2.26-1.36.61-1.51.88-.38,2.43-.42,3.51-.4l-.06.93c-.01.2-.6.3-.91.36Z"/>
    <g>
      <path d="M40.8,285.48h-4.34l-2.27-7.06-1.82-6.1-3.94-12.39-1.17-3.34-1.23-4.07-2.52-7.82-1.84-5.85-2.89-9.62-1.38-3.88c-.48-1.36-.89-2.9-1.06-4.21l1.08-1.68c-.94-.51-1.74-.77-2.55-.86-.08-.1-.33-.57-.41-.48l-.31.36c-.08.09.21.38.3.46l.35.3c.08.07-1.08,1.17-1.74,1.59-1.22.77-.39,2.03-.51,3.02l-.29,2.41-.14.96c.08.66.09,1.59-.16,2.17-1.46.38-2.28,1.42-3.36,2.42-.77.72-1.48,1.75-1.05,2.82l-.43.85c.07.66-.01,1.61-.61,2.1-2.83,2.35-.48,2.39-1.31,4.58.78,1.9,2.68,3.91,2.8,5.87.14,2.09,1.73,4.52,2.04,5.15.7,1.4,1.54,3.52,3.02,5.14.27.37-.37,1.24-.86,1.6.07.18.49.76.76.75l1.14-.03c.27,0,.54.61.67.9.38.82.84,1.56,1.3,2.33.4.67.09,1.62,1.51,1.58l-.78,1.83c.26.94.56,2.18,1.01,3l1.13,2.03c.17.3,1.74,1.51,2.37,2.91l1.07,2.4c.08.17.49.48.59.61s-.27.47-.39.64l.7,1.71.52,1.33c-.41,2.55.74,2.48.61,2.81l-.31.78H7.65c-.26-1.59-.9-3.1-1.48-4.72l-1.87-5.16v-43.01c.87-.08,1.6-.37,1.88-1-.33-.24-1.14-.3-1.36-.07l-.34.35c-.07.08-.12.08-.12,0l-.02-.56-.07-1.67c-.07-1.56.24-2.48,1.41-3.5l.95-2.41-.32-2.52c.52-.55.5-.83.51-1.44l.02-1.76-.4-1.21c-.07-.22.6-.45.88-.58l.26-1.61c.04-.27.54-.72.85-.71.96.02.05-1.46.44-1.65l.92-.46-.25-.53s0-.31-.02-.4l-.06-.65c-.01-.12.15-.29.26-.24s.4.3.48.42l.65.98c.16.25-1.06,1.86-1,3.16.02.57.73,1.22,1.22,1.63l.58.48c.12.1.42-.44.48-.58.67-1.55.72-2.48,2.6-2.55.42-.02.86.56,1.23.91l2.3,1.42c-.2.43-.3,1.21.02,1.26.85.14,1.24-1.81,1.71-1.33.61.63.97,2.1,2.34,1.5l1.55-.68c.7-.31,1.15.32,1.58.86.46.58,1.7.11,2.28-.38.35-.3,3.3-2.52,2.95-1.4l-.14.44-.2.61c-.03.11.43.13.55.1,1.48-.49,1.59.09,2.92-1.58,2.04-2.56,2.44-3.95,3.51-6.86.35-.97.67-1.86.94-2.86.89-3.26,1.29-3.27,2.05-6.3.25-1.01.53-2.04.85-3l.9-2.67,2.58-7.5c.4-1.17.78-2.09,1.28-3.34l.53.44-.97,2.72c-.15.41-.05.98-.37,1.29-.4.39-.61.91-.56,1.39.13,1.46-.97.69-.42,2.22.09.26.91.32,1.06.16.48-3.12,1.69-1.65,1.88-4.92.07-1.17,1.7-.99,2.47-1.09,1.09-.15,1.83-.11,2.81.29.2.08.78.06.84.25l.22.77,2.6-.02c.99-1.61,2.97-.04,2.7-1.09l-.1-.4c.26-.13.91-.43,1.18-.58.64-.33-.16.34,1.31,1,1.78.79,2.88-.34,2.87-.27l.1-.75c.11-.83.14-1.69.13-2.55.78.18,1.65-.05,2.27-.52l1.32.03c1.48.03,1.17,1.35,1.61.87l.45-.48c.22-.24.86-.46,1.19-.66.61-.37,1.08-.67,1.86-.55s1.33-.36,1.96-.66c2.65-1.26,2.88-.42,3.09-.62l.55-.54c.68.4,1.51-.36,2.14-.42.91-.08,1.68,0,2.32-.67,1.18.58,4.41-.77,4.56-.27.06.19.04.66-.14.74l-.62.28-.38.17c-.08.04.02.37.08.45l.56.77c.1.14.64-.08.77-.19l1.42-1.2-.87-1.61,4.74-.55c.47-.05.82-.16,1.07-.5.75-.05,5.53-.27,5.68-1.47l2.02-.44c.25.27.64.83.9.79,1.51-.19-.1-2.01,5.43-1.31l.94-.93,3.34.16c.37.02,1.25-.1,1.57-.27l1.42-.78c1.1-.61,2.44-.76,3.75-.56,1.47.22,2.46-.7,3.68-1.27.95-.44,2.45.13,3.44.05,3.77-.29.23.62,4-.52.58-.17,1.17-.44,1.62-.67h1.97c.11-.23.18-.8.38-.83l.71-.12,1.91-.33c.41-.07,1.27-.11,1.67-.26l3.3-1.19c.45-.16,1.1-.66,1.62-.79,2.7-.69,1.1.62,3.95-.38.17-.06.69.1.87.09.43-.03.41-1.22,1.21-.85l.94.44c.2.09.53-.64.77-.7,1.75-.41,2.59-.35,3.73-1.68-.93,1.09,5.55-.77,5.55-.95.29.14.8.53,1,.42s.46-.4.71-.64l1.19.15.34-.93c.07-.19.72.09.94.1l1.74.11,1.44.14.83.08c.21.02.72-1.6,1.42-1.2l.99.55c2.63-1.26.89-1.56,2.8-1.83l1.15-1.93c.27-.45,1.48.05,1.9.44l.99-1.03c1.37,0,2.55-.16,3.8-.56,2.11-.67,2.06-.08,3.59-.95,2.72-.16,2.68-.98,5.56-.88l.44-.65c.1-.14.61.01.78-.02l2.61-.46c.65-.11,1.51-.17,2.08-.32l4.82-1.23c3.24-.83,1.71.58,2.76.06.28-.14,1.01-.32.28-.65l2.03-.5-.32.8,2.24-.55-.96-.51c.83-.14,1.46-.23,2.13-.22-.72.32-.74.34-.23.54,1.29-.1,2.51-.23,3.71-.52l5.99-1.46,6.13-1.14c2.69-.5,5.46-1.44,8.05-1.9.07-.13.05-.56-.08-.67l-.52-.4c1.66-.55,3.26-1.05,4.86-1.21.48-.05,1.49.75,1.71,0,.08-.28.38-.71.59-.71l.9-.02.04.54c0,.11.45.08.56.04.69-.27,1.53-.43,2.29-.6,1.34-.29,2.64-.73,4.08-.87,1.14-.11,2.28-.18,3.32-.55,1.12-.39,2.29-.47,3.31-.76l3.77-1.04c.75-.21,2.21-.52,2.96-.55,1.58.28,2.92.46,4.52.48,1.06.02,1.67-.34,2.48-.59l2.99-.94c2.58-.81.07-1.27,3.02-1.9,1.02-.22,2.02-.58,3.07.24.21.17.74.56.99.48l.8-.26c.52.1,1.48.07,1.73-.17-.09-.51-.19-.77-.05-.77.42,0,1.1-.05,1.35.84.14.51-1.45,1.47-2.32,1.54-2.04,1.47-4.29,1.18-6.67,2.62-1.48.89-4.2,2.34-5.77,3.03l-1.42.62.15.8,6.09-1.6c.72-.19,1.6-.43,2.34-.54.8-.12,1.23-.05,2.02-.44,1.53-.77,3.88-1.08,5.53-1.24.18-.02.54.34.54.5,0,.17-.16.51-.32.48-.12-.02-.47-.08-.59-.04l-.98.32c-2.21,2.09-2.69.76-4.03.67-.25-.02-.28.84-.43,1.05-.43.61-1.6.22-2.09-.17-1.87,1.12-.82-.63-3.15.91-.4.27-1.37.31-1.91.34-1.68,2-1.9-.35-3.36,1.32-.06.07-.31,0-.4-.02-.15.05-.63.26-.83.27l-2.3.16c2.09-.14-3.65,1.17-2.51.87l-4.38,1.16c-1.16.31-2.38.26-3.59.52l-2.63.55-2.35.57c-.29.07-1.04-.15-1.36-.06l-6.49,1.97-5.73,1.53-2.21.53c-.65.16-1.73.27-2.31.5-.84.33-1.82.89-2.7.71-.29-.06-.88.24-1.1.31-.46-.02-.89.1-1.48.31-.99.35-2.53.1-3.46.66-1.29.78-2.58.65-3.83,1.02l-2.24.66-2.82.74-6.02,1.22c-2.07.42-3.91,1.37-6.11,1.53-.98.07-2.05.47-3,.69l-3.73.87-2.31.56-2.33.56-3.24.86-5.21,1.25-9.03,2.15-5.49,1.24-3.21.76-7.77,1.82-4.2,1.05-2.73.62-5.43,1.31-3.61.92-3.34.74-1.95.41c-1.07.22-1.89.24-2.87.94-.37.26-1.41.02-1.89.13l-8.39,2.01-6.71,1.62-10.27,2.42c-.83.2-1.83.29-2.6.56-3.73,1.29-3.98.7-7.53,1.79l-2.09.64-2.34.51-2.88.73-5.46,1.26-4.65,1.07-4.81,1.21-7.53,1.65c-1.46.32-2.8.86-4.36,1.06-.67.09-1.35.35-1.93.5l-2.03.53-5.01,1.21-4.73,1c-2.85.6-2.2.65-3.87,5.83l-1.87,5.83c-.24.74-.39,1.36-.47,2.17,3.46,0,1.12-.13,3.86-.76l2.69-.62,1.98-.51c.59-.15,1.32-.09,1.82-.47,1.34-1.02,3.05-.75,4.51-1.14,1.9-.5,3.6-1.33,5.56-1.44.84-.05,1.69-.46,2.49-.67.66-.17,1.32-.3,1.93-.5l1.88-.63c1.97-.66,4.02-1.14,6.08-1.52,1.26-.23,2.46-.36,3.59-1.03,2.19-1.31,2.8-.29,6.65-1.81l1.82-.72c1.11-.44,2.71-.32,4.05-1,1.17-.6,2.26-.38,3.51-.7l2.68-.7,3.1-.78c.95-.24,1.97-.51,2.8-.85,2.68-1.11,3.51-.6,6.34-1.61l1.76-.63,2.26-.79c.23.23.35.38.43.32,1.27-.99.3.09,3.05-.81l2.47-.81c1.29-.07,2.25-.25,3.46-.8-.66.3,4.92-1.47,4.51-1.38,1.49-.33,2.76-.68,4.05-1.14,1.4-.5,2.84-.74,4.22-1.09l2.34-.59,2.46-.6c1.17-.28,2.37-.47,3.45-.84.68-.24,1.32-.49,2.04-.62l2.42-.45c1.3-.6,2.37-.83,3.87-.97l2.07-.91c1.16-.51,2.51-.3,3.67-.63l4.45-1.27c.69-.2,1.45-.59,2.31-.72l1.51-.24c3.82-.61,1.03-.63,4.11-1.04.77-.1,1.82-.71,2.65-.88,1.18-.24,4.14-.93,5.03-1.32.63-.28.9-.38,1.62-.43.65-.05,1.55-.55,2.21-.69,1.24-.26,2.34-.49,3.53-.81l2.03-.56,4.91-1.22,6.33-1.6,1.83-.52c.81-.23,1.54-.41,2.35-.61l3.29-.81,7.25-2.01c1.23-.34,2.47-.9,3.72-.91.79,0,1.2-.16,1.84-.78.67-.1,1.82-.08,2.55-.25.68-.16,1.54-.78,2.1-.6,1.91.63.23-.41,3.99-1.3l3.82-.9c1.35-.32,2.66-.71,3.95-1.15,1.4-.47,3.6-.72,4.6-1.12l3.16-1.24c1.58-.62,3.24-1.13,4.95-1.21l1.23-.94,2.34.08c.58-.76,1.2-.33,1.95-.59l3.5-1.23c.97-.34,1.87-.31,2.9-.63l2.86-.89c.26-.08.86-.3,1.12-.41.87-.03,1.88-.21,2.7-.68l2.45-1.42c.39-.23,1.38-.33,1.72-.63.65-.56,1.1-.68,1.88-.85,4.54-1.01,1-.75,4.14-1.29l.89-.24c1.08-.08,2.01-.3,2.99-.65l2.12-.77c.49-.18,1.17-.3,1.69-.53.7-.32,1.41-.42,1.97-.02l-.6.95c-.1.15.23.52.38.64.11.08.25-.33.4-.58.43-.7,2.03-1.36,2.91-1.01,3.67,1.43,1.82,1.67,5.63,2.03l2.61.24c.16.01.53.12.79.19.11.03-.36.3-.53.3-2.94.08-6.1-.25-8.77-1.6-.38.88-.24,1.56-.34,2.32l-.77,5.86c-.15,1.13-1.41,1.39-1.04,1.83l.38.45c-1.49.61-1.22-1.53-1.91-.88l-.47.44c-.66.63-1.39,1.59-1.32,2.41.15.17.69.42.64.6l-.23.87c-.04.16.25.43.51.72.54.06.49.08-.2.07l-1.7,2.17c-.32.4.71,1.56-.16,2.07-.27.16.14.84.12,1.15-.06.76-.44,2.23-.42,3.08.12,4.14-.34,3.35-.25,7.05-.95.55-.95,1.55-.42,2.48l.41.71c.07.13-.4.31-.58.34-1.41.27-.05.49-1.31,3.14-.23.7.81,1.45.07,1.81-.22.11-.77.31-.66.44l.4.49c.67.83-.25.97.24,2.55.05.17.62.39.57.57l-.19.72c-.13.49.13,1.32.19,1.87.06.5.03,1.28.15,1.65l.38,1.12c.03.1-.2.45-.25.54-.15.24-.5-.87-.87-.71l-.59.25-1.53.66c.18,1.08,1.02,1.74,1.94,1.78-1.41,2.69.02,2.66-1.39,2.81s-.08,1.88-.27,3.16c-.03.21-.69.23-.98.26-.15.02-.15.58.02.58l1.44.04c.16-.87-.23,5.21-.01,3.95-.04.23-.77.19-1.13.24-.02,2.22-.05,4.56.06,6.81.04.84.37,1.85-.31,2.44-.77.66.78,1.58.35,1.98l-.61.56c-.27.25,1.18,1.05.75,1.85-.14.25-.47.69-.64.94l-.18,1.52c-.28.14-.89.27-.87.51s.25.86.24,1.11c-.02.44-.11,1.3-.07,1.83l.27,3.87c.04.57.17,1.28.26,1.79-.8,3.68-.81.52-.79,3.53,0,.82-.09,1.95-.26,2.8-.27,1.4-.26,2.68-.3,4.13-.01.58-.32,1.63-.41,2.32l-.44,3.66-.22,5.32c-.04.91-1.36,4.34-.95,5.51.37,1.06.56,4.34-.04,5.36-1.45,2.46-.16,3.41-.36,4.2l-.41,1.63c-.48.47-.63,1.19-.7,2.01l-1.9-1.37c-1.21-.87-2.29-1.54-3.82-1.79l-1.42-1.34c-.83-.11-1.42-.13-1.44-.97-.04-1.71,1.2-.22,1.5-2.75l.98-8.15.64-6.47c.15-1.52.18-3.04.41-4.51.21-1.35.68-2.59.41-3.92-.22-1.07.03-2.17.13-3.47.07-.62-.11-.16-.26.25l-.29,1.12c.06.47.25.92-.37.37-.14-2.21.86-7.18.94-8.54l.25-4.59.78-9.1,1.69-17.53,1.15-11.45.67-6.5,1.07-10.4.25-2.82c.35-3.92.98-4.91.85-8.17l-1.4-.81c-.91-.53-1.76-1.14-2.61-1.76-.79-.58-2.11-.43-2.35-1.8l4.28-1.09c.61-.16,1.24-.37,1.89-.43,2.18-.18,1.21-1.11,2.38-.83.37.09.52.62.46.98l-.68,4.84-.69,6.26-2.45,22.26-.67,5.79-1.49,13.89-.43,3.6-.51,5.06-1.42,11.97-.7,5.11.57-.16.11-2.08.68-5.03.67-6.3.52-4.72.48-4.08,1.28-11.51.94-8.39.45-4.12,3.68-32.77c.05-.43-.21-1.15-.5-1.25-.24-.08-.81-.02-1.14.07l-18.55,5.24c.43-1.24,1.12-2.15,1.89-3.19-.04-.08-.75-.36-.8-.18l-.28.95-7.79,2.22c-.82.23-1.2.41-1.79.89-1.04.83-1.98,1.32-2.24,2.79-.31,1.76,1.29,2.86.57,2.65l-.45-.13c-.16-.05-.75-.05-.74-.21l.06-.78.18-2.34-.49.27c-.68.37-1.53.84-2.28,1.05l-12.97,3.65-2.65.92c.7.08,1.52-.08,2.31-.27l2.32-.56,4.33-1.05c.43.13.59.33.06.5-2.13.7-4.05,1.29-6.12,1.87l-7.68,2.13-7.19,2.03-2.08.62c-1.64.49-3.19.92-4.81,1.38l-6.72,1.9-3.23.79c-1.17.29-2.16.32-3.34.94-.21.11-.56-.16-.83-.53l5.96-1.73c1.34-.39,2.61-.72,3.96-1.12l4.4-1.3,3.04-.75c.1-.02.42-.19.49-.23s-.06-.19-.17-.31l-4.44,1.14c-1.72.44-3.25,1.11-5.01,1.46l-2.2.44-33.25,9.17-8.27,2.28c-.2.17.36.8.62.74l11.62-3.05,5.98-1.74,7.84-2.22,5.71-1.52c1.06-.28,2-.85,3.25-.77-1.86.87-3.74,1.59-5.74,2.18l-7.68,2.3-2.58.75-8.55,2.4-3.14.89-18.35,5.32-6.41,1.71-3.11.81-8,2.32c-.87.25-1.57.48-2.46.84-.2-.58.27-1.25.89-1.41l3.21-.87,8.77-2.63,8.59-2.52c.54-.16,4.14-1.09,4.49-1.63-3.66.23-6.82,1.36-10.2,2.28l-6.96,1.91-6.46,1.8c-.64.18-1.34.37-1.85.44l.82-3.62-17.5,4.81-1.87,1.78c.51,1.1.27,2.08-.91,2.7-.49.25-.33,1.21-.34,1.77-.04,2.17-.87,4.22-1.43,6.33-.23.86-.47,1.47-.84,2.27-.19.42-.36,1.14-.62,1.55-.61.95-.5,1.89.22,2.57.68.64,1.53.47,2.43.12,1-.39,2.1-.6,3.16-.91l5.76-1.68c-.03.64.03,1.09.2,1.55.05.18-.22.73-.43.76l-.88.09c-.28.03-.93.32-1.22.27-.5-.08-1.66-.26-1.79.51-.06.33.06,1.13.33,1.27l1.38.73-1.26.3c-.23-.3-.54-.73-.73-.63s-.58.37-.81.53l-1.98.65c.54,1,.79,1.64,1.03,2.76l-2.56,1.53c-.54.09-1.41-.56-1.91-1.01-.17.05-.61.7-.42.9l.86.91c-.66.36-.95.5-1.17.67-.6.45,1.06,1.74.59,2.14-.83-.19-1.63-.28-1.88.34-.15.38.02,1,.21,1.57l-2.44.64-1.2,2.48c-.46.94-1.25,1.7-1.31,2.73l1.32-1.99.62,1.67c.12.33-.41,1.02-.75,1.05-.52.05-1.28.35-1.38-.71l-1.88,3.05c-1.24,2-1.27,2.51-2.6,4.79l-1.61,2.76-2.3,4.36-4.3,7.48-1.01,1.79-2.61,4.82c-.37.69-.95,1.27-1.41,1.92-.74,1.07-.67,2.86-1.77,3.83-.95.85-1.55,1.99-1.52,3.22l.84-.14-1.39,2.46c-.43-.28-.54-.43-.66-.38s-.47.33-.56.44l-1.32,1.64c-.52.64-.2,1.53-1.35,1.35-.57-.09-1.54-.83-.95-1.3.3-.24,1.22-.49,1.23-.83-.33-.89-.16-1.69.27-2.44l1.06-1.84.9-1.52c.66-1.12,1.21-2.28,1.85-3.46l3.03-5.63.88-1.68c.51-.97,1.01-1.84,1.68-2.7,2.52-3.21,1.08-3.15,1.97-3.99s1.1-2.13,1.64-2.94l1.02-1.54c.14-.22,2.22-4.77,3.41-6,.29-.73.44-1.74.94-2.4,1.34-1.78,2.56-4.75,3.97-7.24l1.76-3.09,1.93-3.61,3.03-5.36,1.3-2.23c.3-.51.14-1.44.93-1.85l-1.55-1.22-.63.65c-2.13-.17-.58.13-2.49.29-.14.01-.18-.58-.06-.66.41-.29,1.36-.47,2.01-.53.08-.68-2.3.09-2.28-.32l.06-.9c.01-.21.07-.93-.14-.96l-.76-.1.29-2.01,1.8-2.26.3-2.01c.03-.2-.41-.9-.56-.76l-.55.53c-.14.13-.57.53-.69.39-.22-.27.16-1.2.51-1.28l3.78-.9-1.8,2.97c-.58.95.06,2.46.27,3.51l-1.45-.43,1.09,2.43c.52-.5,1.31-1.18,1.58-1.66l.82-2.68c.47-1.54.71-3.11.94-4.75l-1.61-1.9c-2.84,1.11-2.32.59-5.22,1.46l-2.18.66c-1.26.38-2.45.64-3.71.95l-3.87.96-2.2.72c-.76.25-1.46.84-2.33.76-1.81-.17-3.24.91-4.87,1.26-3.69.81-7.16,1.9-10.78,2.85l-4.24,1.12-13.45,3.68-7.44,2.06-2.75.84c-1.57.48-3.12.85-4.74,1.27l-10.47,2.72c-.53.14-1.61.21-1.54.88.65.98,2.03,1.58,3.07,1.53l1.4-.45c-.53,2.71-1.33,1.46-.53,4.16l.82,2.78,1.79,6.63,1.57,5.77,1.58,5.57,1.39,5.09,4.04,14.44.71,2.5,1.26,4.29,2.68,9.62ZM188.48,157.73l-3.25.65-4.91,1.14-5.66,1.34-1.96.47-.99.66c-.94-.04-2.38.04-3.01.43-.23.14-.21,1.07-.04,1.28.14.17.63.27.86.22l4.62-.98,3.07-.73,3.33-.83c1.21-.3,2.36-.65,3.64-.9s2.75-.45,4.05-.78l4.01-1.01,13.91-3.27c1.58-.37,2.97-.74,4.59-.95,1.17-.15,2.34-.57,3.5-.86l10.72-2.66,5.58-1.35,16.91-4.08,6.2-1.44c3.37-.78,6.62-1.72,9.92-2.66.91-.26,1.53-.86,1.87-1.74-1.31-.23-2.38.11-3.71.28-1.22.16-2.57.45-3.63,1.17l-.63-.4c.53.33-5.34,1.68-5.86,1.79l-2,.41c-.76.16-1.78.19-2.49.44l-2.73.96c-1.33.47-3.27.22-5.03,1.06-.66.31-.89.36-1.55.51l-3.28.78c-.69.16-1.36.2-2.08.4l-4.57,1.25c-3.5.96-3.15.6-6.76,1.55-2.1.55-4.17.96-6.18,1.7-1.62-.58-.81.67-3.18.83-.66.05-1.53.14-2.18.42-.72.32-1.41.43-2.06.62l-2.93.85c-.57.17-1.76-.1-2.31.1-1.25.45-2.31.57-3.53.84l-4.01.88c-2.83.62-4.75,1.33-6.24,1.62ZM270.31,153.41c-1.51.05-2.98.48-4.63,1.18,1.51-.13,3.03-.55,4.63-1.18ZM134.69,170.98c-.04.25.43.75.66.66,1.91-.7-.37-.6,2.56-1,.85-.12,1.94-.64,2.84-.68.65-.03,1.11-.06,1.72-.14l1.64-.23c1.84-.26,3.44-.43,5.17-.86l2.94-.73,8.08-1.98,3.61-.67,2.15-.51c1.08-.26,2.15-.73,1.97-2.13-.51.02-1.2.12-1.72.24l-1.58.34c-.68.15-1.35.26-1.98.45l-2.22.68c-.24.07-.48.1-.54.23l-.24.51-.6-.5c-.13-.11-.6.35-.77.36l-2.66.17c-1.01.06-1.32.7-1.6,1.67l-.47-.92c-.85.12-2.1.26-2.92.49l-2.85.82c-.93.27-1.76.45-2.74.66-.71.15-1.55.52-2.34.63-1.8.25-3.63.81-5.23,1.48-1-.27-2.69-.16-2.89.99ZM130.17,172.62c.31-.06.89-.16.91-.36l.06-.93c-1.09-.02-2.63.03-3.51.4-.35.15-.67,1.31-.61,1.51l3.16-.62ZM126.69,173.4c-1.11-1.26-2.8-.96-3.83-.02-.02.54,3.62.4,3.83.02ZM103.32,202.25l.79-3.45c-.89.42-1.75,1.05-2.24,1.67l1.46,1.78ZM264.21,241.41c.37-1.71.45-3.16.35-4.92-1.2.7-.78,4.01-.35,4.92ZM15.55,266.8l-1.2-2.68-.25-.54c-.04-.09-.59.26-.55.39.29,1.05,1.01,2.76,1.65,3.89.23-.02.47-.78.35-1.06Z"/>
      <path class="cls-1" d="M36.47,285.48h-12.35l.31-.78c.13-.33-1.02-.26-.61-2.81l-.52-1.33-.7-1.71c.12-.17.49-.51.39-.64s-.51-.44-.59-.61l-1.07-2.4c-.63-1.4-2.2-2.61-2.37-2.91l-1.13-2.03c-.45-.81-.75-2.05-1.01-3l.78-1.83c-1.42.05-1.1-.9-1.51-1.58-.46-.77-.91-1.51-1.3-2.33-.13-.29-.4-.91-.67-.9l-1.14.03c-.27,0-.69-.56-.76-.75.48-.36,1.12-1.23.86-1.6-1.47-1.62-2.32-3.73-3.02-5.14-.31-.62-1.9-3.06-2.04-5.15-.13-1.96-2.03-3.97-2.8-5.87.84-2.19-1.52-2.22,1.31-4.58.6-.5.68-1.44.61-2.1l.43-.85c-.43-1.07.27-2.1,1.05-2.82,1.07-1,1.89-2.04,3.36-2.42.24-.59.23-1.51.16-2.17l.14-.96.29-2.41c.12-.99-.71-2.25.51-3.02.66-.42,1.83-1.51,1.74-1.59l-.35-.3c-.09-.08-.38-.37-.3-.46l.31-.36c.08-.09.33.38.41.48.81.1,1.61.36,2.55.86l-1.08,1.68c.17,1.32.58,2.86,1.06,4.21l1.38,3.88,2.89,9.62,1.84,5.85,2.52,7.82,1.23,4.07,1.17,3.34,3.94,12.39,1.82,6.1,2.27,7.06ZM16.91,232.7c.19-.15.2-1-.04-1.08l-1.19-.42-.61,2.36c.86-.34,1.49-.57,1.84-.85Z"/>
      <path d="M292.18,139.72l-1.14-.39c-.09-.07-.45-.65-.28-.69s.61-.1.78-.07l.62.08c.13.02.12-.25.19-.5l.23-.37c.06-.1.3.28.35.4l.17.41c.03.08.31.23.34.15l.24-.66,1.14.59c.34-.43.56-1.05.66-1.63l.08-.47c.01-.08.25.32.32.34.26.05.91-.2.97-.46l.23-1-.94.16c-.14.03-.32-.51-.2-.6.36-.25,2.48-.74,1.94-1.72l-1.36-2.49c1.09-.6,1.81-1.17,2.47-1.96.75-.9,1.58.24,1.92-.31l.53-.87c-.02,1.03-.33,1.67.45,2.16-.26.82-.5,1.67-.84,2.45l-3.85,9.08c-.35.82-2.71,4.51-3.99,2.81,1.16-.7,2.16-1.3,2.79-2.55l-1.53.97c-2.2,1.4-3.08-.59-5.1.17,0-.19.05-.53-.09-.6l-.69-.35.77-.79c.31-.32.89-.73,1.26-.99l.3.99.39-.73c.06-.12.26-.18.84-.54Z"/>
      <path d="M47,218.79l-2.26.87c-2.43.94-4.9,1.92-7.6,1.59,3.66-1.51,7.18-2.2,10.7-3.26l5.59-1.69,4.03-1.24c2.07-.64,8.59-2.8,10.33-2.84l1.83-.04c-1.94,1.29-2.17.93-4.26,1.52l-4.36,1.23-2.38.85c-1.6.57-3.29.92-4.93,1.28-1.34.29-2.46.18-3.71.98-.72.47-2,.38-2.97.75Z"/>
      <path d="M82.65,208.92c-4.14,1.37-6.1,1.5-10.34,2.82l.06-1.28c2.4-.21,4.45-1.16,6.72-1.65,2.61-.56,5.01-1.24,7.55-2.06.94-.3,2.12-.4,3.13-.79.32-.12,1,.12,1.44.37-1.09.51-1.89.65-2.9.93l-2.74.73c-1.01.27-1.93.6-2.92.93Z"/>
      <path d="M237.76,168.06l-.82-1.25c-.49-.74.56-1.97,1.27-2.07l.03-.71c0-.17.62.12.84.28l1.69-.8-.27.96.19.66c.26.91-2.8.16-2.94,2.93Z"/>
      <path d="M173.37,274.29l-2.16-1.06c-.47-.23-.87-.53-1.08-1.4.64.11,1.24.35,1.87.64l1.36.35v1.47Z"/>
      <path d="M103.15,230.53l.97.94c-1.27.29-2.62-1-2.47-2.41.7-.28,1.41.5,1.49,1.47Z"/>
      <path d="M237.28,170.42l-.22.41c-.06.11-.57-.21-.52-.33l.72-1.75c.09-.22.19-.41.26-.52s.62.16.57.28c-.17.46-.57,1.46-.81,1.91Z"/>
      <path d="M32.59,222.99c-1.39.48-.49.85-2.56.32l4.25-1.35c-.26.78-1.04.8-1.68,1.03Z"/>
      <path d="M166.42,278.89l-2.92,1.65c-.65-1.63,1.8-.22,2.75-2.46l.9.6-.72.2Z"/>
      <path class="cls-1" d="M264.21,241.41c-.43-.91-.85-4.22.35-4.92.1,1.76.02,3.21-.35,4.92Z"/>
      <path class="cls-1" d="M270.31,153.41c-1.6.63-3.12,1.05-4.63,1.18,1.65-.69,3.12-1.12,4.63-1.18Z"/>
      <path d="M16.91,232.7c-.34.28-.98.52-1.84.85l.61-2.36,1.19.42c.23.08.22.93.04,1.08Z"/>
      <g>
        <path d="M55.72,285.48h-2.23c.67-1.07,1.44-2.97,2.27-4.43l3.56-6.23c.6-1.04,1-1.86,1.65-3.16l1.7,1.18-5.41,9.7c-.21.38-.56.74-.72,1.17-.24.67-.53,1.24-.82,1.77Z"/>
        <path d="M70.07,263.12l-1.61,3-.71-.35c-.13-.07.01-.43.1-.58l1.61-2.86,6.55-11.85c.09-.17.68-.32.66-.43l-.13-.58,1.26-2.18c.08-.14.71-.01,1,.08l-.82,1.72c-.41-.2-.53-.26-.61-.29-.13-.03-.5.34-.37.37l.78.2-5.62,10.14-1.37,2.29c-.26.43-.47.83-.73,1.31Z"/>
        <path d="M80.37,244.72c-.64-.58-.05-1.12.24-1.66l5.78-10.69c.48-.9.78-1.98,2.01-2.15l-3.43,6.17-4.61,8.34Z"/>
        <path d="M64.33,272.14c.06-.53.62-1.24,1.04-1.53-.02-.12-.1-.81.02-1.01l1.48-2.52.7.59c.12.1-.29.49-.31.65-.26,2.43-1.89,2.19-2.12,3.83-.02.15-.52.09-.81-.01Z"/>
        <path class="cls-1" d="M103.32,202.25l-1.46-1.78c.5-.62,1.36-1.26,2.24-1.67l-.79,3.45Z"/>
      </g>
    </g>
    <path class="cls-1" d="M15.55,266.8c.12.28-.12,1.04-.35,1.06-.64-1.12-1.36-2.84-1.65-3.89-.04-.13.51-.48.55-.39l.25.54,1.2,2.68Z"/>
    <path class="cls-1" d="M126.69,173.4c-.21.38-3.85.51-3.83-.02,1.03-.94,2.72-1.24,3.83.02Z"/>
    <g>
      <path d="M271.37,102.68l-4.29-2.4c-.38-.21-.97-.7-1.31-.86l-1.59-.75c-.64-.3-1.11-.48-1.64-.98-.35-.33-.32-1.15-.24-1.65l-3.47-1.9c-1.44-.79-3.42-.5-4.43-1.87-1.8-2.43-1.34-.33-3.27-1.74-.6-.44-1.36-.85-2.14-1.31-.02-2.38.79-.77.33-2.9-.02-.08.2-.24.24-.32s.21.53.27.56l5.12,2.58,26.24,12.36,5.29,2.42,11.09,5.17c1.11.52,2.34.78,3.47,1.13l-10.48,1.83c-.17.03-.53-.33-.46-.4-.52.54-6.33-2.65-7.36-3.17l-2.13-1.08-5.64-2.79-3.59-1.91Z"/>
      <path d="M275.24,92.4l-3.99-1.83-3.08-1.47c-1.42-.68-2.71-1.47-4.18-2.1l-2.99-1.29-2.78-1.36c-.39-.19-1.14-.22-1.53-.51l-1.7-1.26c-.45-.33-1.55-.53-2.12-.8l-.97.37.4-1c-1.16-.45-2.28-.82-3.38-1.35l-5.85-2.79c-1.47-.7-2.89-1.45-4.4-2.04-.89-.35-1.67-.68-2.48-1.08l-5.13-2.58-2.03-1.08-7.76-3.5-2.76-1.28-1.68-.51c-.93-.28-1.63-.75-2.48-1.17l-6.62-3.27-3.01-1.53c-1.93-.98-2.64-1.1-4.57-2.09l-2.08-1.07-.16.56c-.05.18-.85.11-.75.03l.76-1.35,7.39,3.3,11.41,5.36,9.05,4.14c4.04,1.85,8.1,3.4,11.95,5.6.93.53,1.72.81,2.67,1.24l11.17,5.01c.77.35,1.23.84,1.92,1.32,3.07,2.1,5.15,2.14,6.85,2.93l31.16,14.36,19.29,8.85c.85.39,1.64.59,2.47.17l-4.53-2.07c1.4-.44.61-2.47,1.34-1.74l1.02,1.21c1.4-.45,2.56.11,3.66.81l1.44.92-.51,2.06c-.91.1-1.99.06-3.03-.02l-3.63-.26c-3.06-2.28-4.34-1.92-6.96-3.39-1.33-.75-2.68-1.19-4-1.79l-3.63-1.63-15.7-7.27-3.48-1.76Z"/>
      <path d="M213.61,72.04l-.98.21c-.3.07-.75-.57-.99-.81l-1.72-.94,1.96.32c-1.04-.77-3.21-1.91-4.28-2.07.39.49.58.64,1.2,1.09-.57-.13-1.27-.28-1.87-.53l-4.74-1.99c-.55-.23-1.08-.56-1.57-.85l-.14.68c-.02.1-.27.09-.29-.01l-.1-.71c.15-.5.12-.4-.09.3l-.48-.34c-.13-.09.78-1.68,1.17-1.81.04-1.32-2.1-3.14-1.09-4.19.26-.27,1.46.18,1.24.49-.24.35-.55.7-.49.93s.57.72.62,1.02c.17,1,1.01,1.97,2.09,2.45l5.48,2.44,11.64,5.3,28.85,13.31-.45,1.56c-1.15-.57-2.13-1.23-3.27-1.59-1.66-.53-3.02-1.51-4.57-2.21l-8.72-3.95-3.72-1.83-3.9-1.86-8.33-3.93c-1.23-.58-2.22-1.1-3.62-1.4l1.16.94ZM205.96,68.02c-.86-.79-1.76-1.21-2.8-1.27.73.91,1.68,1.59,2.8,1.27Z"/>
      <path d="M225.45,65.28l1.68.6,2.42,1.03-.28,1.64-16.09-7.39c.87-.65,1.5-.16,2.21.36,1.18.87,2.78,1.1,4.17,1.58l3.73,1.28c.68.23,1.34.61,2.16.9Z"/>
      <path d="M234.48,68.99c1.79,1.09,5.97,2.56,4.98,4.18l-9.01-4.09c2.83-.39,1.37-1.71,4.02-.09Z"/>
      <path d="M168.59,89.79c.55-.57.75-.77,1.37-.84l-.19-.51c-.08-.23,1.77-1.68,2.19-1.96,2.09-1.4.12-1.05,3.59-3.83l.29.31c.08.08.36,0,.35-.11l-.09-.64c-.09-.65,1-1.24,1.9-.92-.85,1.02-1.74,1.99-2.71,2.96l-5.53,5.53c-1.27,1.27-3.32,4.08-4.59,4.52-.17.06-.3-.68-.15-.83l3.58-3.67Z"/>
      <path d="M248.17,89.45c-1.39-1.02-2.85-1.68-4.33-2.41l-6.29-3.08-3.18-1.59-2.06-1.01c.49-.22,1.21-.15,1.72.1l8.05,3.93c1,.49,2.05.73,3.04,1.32.93.56,2.03,1.19,3.07,1.55.38.13.28,1.1-.01,1.2Z"/>
      <path d="M172.31,82.06c.16.46-5.51,6.13-5.94,5.78,1-1.22,4.46-5.24,5.94-5.78Z"/>
      <path d="M150.14,111.75c-.72,1.01-.57,2.39-1.99,2.95.51-1.23,2.48-5.13,3.36-6.11l-.37,1.37c-.23.6-.57,1.2-.99,1.79Z"/>
      <path d="M198.25,61.53c.02.39-.84.77-1.27.67-.38-.09-.77-1.42-.38-1.41.14,0,.58.1.7.12.16.03.2-.31.38-.77l.44.32c.15.11.1.53.13,1.06Z"/>
      <path d="M178.37,81l-.26-.9,1.2-1.45c.1-.12.31-.31.41-.39.13-.1.49.29.59.42s-.3.42-.43.57l-1.51,1.74Z"/>
      <rect x="151.49" y="99.89" width="6.27" height=".34" transform="translate(-25.45 138.67) rotate(-45.01)"/>
      <path d="M232.15,80.93l-2.33-.74c-.64-.2-1.21-.5-1.46-1.22.63.05,3.94,1.69,3.79,1.96Z"/>
      <path d="M196.88,70.59l-1.16-.34c.88-.96,1.61-1.61,2.55-2.36l.33-.27c.06-.05.28-.08.25-.01-.68,1.76-1.92.4-1.97,2.98Z"/>
      <path d="M195.17,58.37c1.17-.4-2.72,3.28-3.23,3.13.5-.75,2.12-2.75,3.23-3.13Z"/>
      <path d="M188.38,65.82c-.67-.94.58-1.44,1.1-1.9l1.39-1.25c-.54,1.13-1.39,1.99-2.48,3.15Z"/>
      <path class="cls-1" d="M205.96,68.02c-1.12.32-2.07-.36-2.8-1.27,1.04.07,1.95.49,2.8,1.27Z"/>
      <g>
        <path d="M9.42,206.78l-.79-.59c-.16-.12-.53.25-.73.28l-3.61-.15v-15.55c2.04-.73,1.74-.45,4.19-1.03l1.81-.43,3.43-.73,2.89-.49,2.37-.49,3.35-.7,2.24-.47,11.14-2.35c.69-.92,1.05-2.14,1.16-3.4-3.65.65-4.66,1.2-8.36,1.72-1.62.23-3.2.57-4.82.92l-2.44.52c-.87.19-1.65.3-2.5.7l-1.66.78-1.31-.47c-3.92,2.44-2.33-.46-5.08,1.76-.28-.18-.63-.41-.86-.53-.35-.17-.64.67-.58,1.04-.09.02-.4.03-.4-.07v-.82s-4.46,1.22-4.46,1.22c-.11-1.05-.14-2.25,0-3.22.59-.24,1.2-.47,1.27-1.11l-1.37-.37v-5.16s1.04-.95,1.04-.95c.39-.35,1.02-.3,1.47.13l1.57-.85c.8.13,1.51-.24,2.13-.29.9-.08,1.57-.15,2.44-.4,1.31-.38,2.84-.19,4.08-.79.82-.4,1.44-.44,2.41-.54,1.39-.15,2.87-.82,4.27-1.06,1.06-.18,1.97-.35,2.95-.71,1.19-.42,2.51-.22,3.78-.42.82-.13,1.71-.35,2.52-.53l4.13-.94c.49-.11,1.11-.12,1.55-.04,1.17-.64,2.43-1.02,3.91-.92,2.02.13.7-.79,4.65-.62,1.59-.88,3.1-.69,4.81-1.08l2.28-.52,2.95-.52c.43-.08,1.26-.65,1.71-.69l2.46-.19c.82-.06,1.62-.25,2.43-.4l2.63-.51,2.35-.45c2.76-.53,1.85-.49,4.89-.99l2.39-.39c4.23-.69,2.04-.74,4.95-1.14l1.48-.2c.65-.09,1.42-.39,2.15-.53l2.74-.53c1.75-.34,3.16-.97,5.05-.8.53.05,1.5-.66,2.05-.68l2.65-.09c.31-.14,1.01-.56,1.4-.53,1.35.12,2.63-.29,3.91-.57,1.9-.41,3.81-.62,5.67-1.14l1.39-.39c1.1-.31,2-.71,3.25-.76.46-.02,1.17-.35,1.59-.56,3.44.23,3.6.61,6.03-1.82h1.38c2.2.03.64,1.7,4.68-.3l1.38-.69c1.33-.66,2.81-.08,4.34-.07.61,0,1.73-.46,2.2-.7.26-.62.48-1.05.95-1.27,1.16-.55,2.37,2.1,3.64.94l1.15-1.05c.43-.39,1.5-.93,1.85-.66.26.64.58,1.22.94,1.04,2.71-1.37.89.05,3.51-2l2.23-.18.69-.95c.37-.51,1.43,1.39,1.99,1.2l-.37-.72c-.44-.85,5.26-.77,5.58-.76.83,0,1.06-.02,1.7-.43.86-.55,4.75-1.57,5.58-.73,3.81-.49.82-.36,2.99-1.15,1.07-.39,1.96-.62,2.95-.09l.59-.69c.16-.19.88.06,1.13.02l2.34-.39c.48-.08,1.36-.5,1.91-.69,1.27-.44,2.45-.44,3.77-.59.71-.08,1.69-.86,2.73-.77,1.61.14,2.98-.47,4.52-.74l6.12-1.04,8.28-1.58c1.2-.23,2.21-.36,3.45-.51,2.07-.26,5-1.11,7.52-1.48.77-.11,1.64-.41,2.37-.47s1.29-.19,1.99-.32l5.67-1.05,1.59-.29c.5-.09,1.24-.3,1.9-.48-.3-.6-.4-1.25-.35-2.14l3.97-.96c.77-.18,1.85.02,2.54-.1.9-.16,1.88-.6,2.73-.7,2.44-.29,3.55-.38,5.88-.97l2.32-.59c.99-.25,2.24-.12,2.64.64.06.12.69.24.71.12l.07-.68c2.13-1.32,3.04-1.05,5.45-1.64,1.6-.39,3.16-.69,4.82-.98l13.67-2.41,9.34-1.68,10.34-1.91,15.04-2.75,3.54-.55c.86-.13,1.58-.47,2.56-.14-.84.39-1.67.51-2.65.67-3.5.61-5.69,1.23-9.02,1.78-.47.16-.43.2.06.37,1.6-.13,3.07-.58,4.58-.82l4.53-.72,3.94-.62,3.09-.77,3.81-.77c1.2-.24,2.34-.4,3.72-.59.47,2.52-.33,5.01-2.55,6.41-2.62,1.66-5.77,1.71-8.83,2.16-.3.05-5.43,1.28-6.03,1.46-1.13.35-1.42,1.85-2.07,2.84-.27-.38-.11-1.06.09-1.84-.23-.28-1-.13-1.5-.04l-3.85.75c-.07-.1.14.19.49.65l-1.69.79-.16.65c.18.12.01.07-.32-.08l-1.04-1.35c-3.15.34.05.55-2.7.48-.05,0-.05.11-.08.31l-3.38.76c-.5.11-1.31.18-1.84.25-2.68,1.83-1.06-.65-6.73,1.19-.23.07-.55.66-.81.71l-3.66.64-2.2.57-3.99.57-3.03.48c-.46.07-1.06.23-1.56.27l-.95.07c-.23.02-.15.64-.01.88l-.04.58-.56-.82c-.27-.39-1.38-.32-1.78-.01-.87.68-1.89-.04-2.64.11l-4.67.87-2.24.43c-.71.14-1.74.75-2.37.8-.75.06-1.02,0-1.49.48-.75.74-2.15.35-2.98.64l-1.67.58c-1.74.6-3.6.97-5.42,1-.23.09-.79.39-1.11.45l-11.13,2.18-1.53.34-5.94,1.3-4.2.87.2-1.36c-1.25.14-2.63.13-3.61.61l-1.41.7c-.11.06-.41.27-.34.37l.44.61c-.72.24-1.66.57-2.54.74l-2.07.39-3.08.54-3.83.66c.02.22-.04-.38-.06-.54l-1.05-.98c-2.47.68-3.97.73-6.16,1.17-.84.17-1.78,0-2.81,1.33-.14.17.43.54.68.59.08.02.31.26.23.28l-.46.11-2.05.58-9.86,1.93-13.12,2.79-3.69.87s-.17.17-.14.15l1.01.08c-1.98,1.68-2.09,3.13-5.29,2.85l1.64-1.03c.1-.06.15-.52.16-.63.06-.47-1.44.32-1.26.06l-.88-.81,1.81-.26c.08-.01.32-.36.25-.36s-.37-.08-.46-.06l-2.61.48.5.54-3.73.83c-1.16.26-2.24.26-3.42,0l.08.53c.02.11-.46.14-.6.17l-5.91,1.17-8.88,1.83c-.83.17-1.47.48-2.14-.16l-.85.75c-2.65.03-5.01.77-7.46,1.45-.43.12-.99-.24-1.38.46l-1.37,2.44c-.35.63-.67,1.22-1.55.92-.45-.15-1.18-.71-.64-1.34.36-.41.61-.8.74-1.41l-1.77.27c-.11.02-.47.05-.58.06-.14.01,0-.22.12-.65l-1.06.33c-.07.44-.09.6-.26.58l-1.07-.14c-.21-.03-.53.54-.73.59-.25.06-.76-.27-1.04-.4l-1.67,1.07v-.88s-7.17,1.36-7.17,1.36c-.57.11-.77,1.52-1.93.85-1.09-.63-2.67-.04-3.16.96-2.35-.28-4.24-.05-6.34.61l-1.98.63.95.27-12.75,2.46-1.09-.48-4.25.82-3.24.61c-1.3.25-2.84.31-4.06.73l-2.14.74c.52.39.59.54-.08.55-.22-.15-.98-.71-1.36-.63l-4.74,1.01-2.22.41c-1.81.33-3.46.64-5.19,1.57.6.65,3.48-.96,3.64.24-1,1.37-2.28,2.98-3.89,3.62-.51.2-1.66.27-2.12.36-.18-.47-.45-1.13-.75-1.36-.46-.37-1.19-.21-1.72,0l-1.18.44c-.03.5-.09,1.19-.31,1.47s-.99.26-1.3.46l-1.87,1.23-.72,2.78c-.48,1.87-1.1,3.58-1.82,5.4-.34.86-.52,1.79-.76,2.66l-.9,3.2c-.13.45-.35,1.08-.5,1.51l-.65,1.88-.87,2.84-.92,2.67-1.14,3.2c-.22.63-.53,1.22-.82,1.84-1.25,2.71-2.47,4.32-5.72,4.11l-2.58-2.88c-.29-.33-.73-.74-.82-1.04s.23-1.04.4-1.17c1.46.53,2.83.79,4.4.87.73-1.03,1.34-1.74,1.92-2.84.51-.96,3.74-8.72,2.28-8.75-.17,0-.45.38-.62.43l-3.68,1.12c-1.48.45-3.04,1.16-4.38,1.83-.38.19-1.19.3-1.58.45l-1.5.58c-.55.21-1.14.09-1.6.66-1.16.05-2.41-.69-3.49-1.22l-.4-.2c-.12-.06-.16.59-.06.68l1.12,1.02c.14.13.27.56.28.74.02.23-.7.56-.94.48l-3.61-1.25.46.99c.09.2-.67.52-.85.38ZM293.49,120.19l-.05-.75c-1.44.34-2.2.51-3.31,1l3.35-.25ZM23.11,179.49c-.61.3-1.42.25-1.98.09-.09,0-.25.49-.13.56s.44.19.6.21l1.46.23,6.87-1.66c.86-.21,4.31-.02,5.43-1.27.11-.12-.11-.72-.28-.74-.61-.08-1.72.46-2.37.62l-2.2.56c-.23-.09-.62-.3-.8-.19-2.75,1.67.34-.53-2.26.99l-.73-.37c-.16-.08-.47.1-.71.18l-1.43.46c-.33.11-.92.06-1.46.32ZM37.47,179.35c.98,1.28,5.01-.23,6.45-.68.89-.28,1.98.1,2.66-1.03-.57-.11-1.35.23-1.87.42-.97-.37-1.96.2-2.96.41l-3.37.73c-.22.05-.91-.14-.91.15Z"/>
        <path d="M209,128.54l3.25-.59c1.12-.2,2.37.35,3.29-.83-1.16-.49-2.25-.03-3.36.15l-7.29,1.17-7.86,1.3-9.58,1.5-3.97.92-2.93.3-2.69.37c-1.87.26-3.59.47-5.44.91-.67.16-1.66.19-2.22.38-1.06.35-1.57.49-2.57-.03-1.58-.8-4.9.57-4.42.98-.89-.76-2.71-.47-3.92-.16-.89.23-1.82.12-2.63.27l-5.89,1.05-3.84.52-4.73.68-2.73.39-5.63.87-4.12.66-3.23.45c-1.33.18-3.12.71-4.31.57s-1.93-.39-3.06-.18c-2.96.55-5.94.66-8.83,1.38-1.24.31-2.48.36-3.75.56l-9.73,1.51-2.53.45-4.72.76-7.5,1.3-4.92.67c-1.67.23-3.23.63-4.91.84l-4.29.53-3.43.61-15.58,2.35c-1.13.17-2.14.38-3.21.59-1.71.34-3.43.58-5.2.84l-14.63,2.21-9.81,1.52-4.31.72-7.38,1.23-.05-2.88,12.44-1.7,3.74-.75,3.41-.44,8.68-1.25,3.83-.56c1.04-.15,2.1-.26,3.18-.37.58-.06,1.22-.27,1.8-.35l11.06-1.57,2.42-.44c1.99-.36,3.37-.4,5.76-.76l5.27-.8,6.88-.95,2.98-.4,6.58-1.03,6.67-1.03c.87-.13,1.87-.25,2.57-.5.97.44,2.2.46,3.23-.11.42-.23,1.53.1,2-.02.79-.2,1.64-.35,2.44-.46l3.25-.44,7.87-1.25,2.74-.56c4.02-.83,5.96.53,7.14-2.52,3.27,1.58,3.66-2.77,4.84.59l3.99-.43c1.24-.13,2.47-.39,3.69-.6l2.87-5.55,1.72-3.01,1.42-2.64,4.39-8.09.85-1.4.39.26c.42.27-.09-1.07.63-2.39l1.23-2.25,1.86-3.39,2.73-5.13,1.58,1.34-4.36,8.48-2.68,4.98-2.1,3.86-4.88,9.07-2.63,4.61.33.59c.87-1.02,1.48-.36,2.26-.43,3.11-.27,3.95-.52,7.07-1.51.41-1.41,1.08-2.49,1.83-3.69.43-.68,1.41-3.76,2.2-4.36.44-.33.39-.76.63-1.24l2.04-4.1c.69-1.39,1.48-2.58,2.1-4.06-.7.65-1.29,1.42-1.67,2.21.01-.02-3.28,6.75-3.66,5.6l4.84-8.91,1.46-2.64c.74-1.35,2.29-3.46,3.35-4.54l6.22-6.28,17.39-17.84,7.47-7.68c.19-.19.5-.82.75-.77l.91.17c-1.11,1.29-1.98,2.42-3.08,3.51l-1.55,1.53-3.17,3.1c-.53.52-.99,1.06-1.49,1.64-2.05,2.39-1.46,1.2-2.7,2.55l-1.15,1.24c-2.47,1.12-.78,2.29-2.08,2.24-1.13-.05-1.07,1.07-1.44,1.46l-1.87,1.96c-.48.51-.87,1.02-1.32,1.55-1.03,1.2-2.19,2.28-3.27,3.43l-2.66,2.84-4.84,5c-1.22,1.26-2.32,2.66-2.83,4.35-.27.9-.88,1.51-1.32,2.29l-3.03,5.37-3.26,6.07-2.16,4.06-2.44,4.11c1.95.36.76.03,3.04-.35l2.16-.36c2.3-.38,4.5-.88,6.79-1.15.6.31.76.36.17,0l4.58-.81,2.44-.43,4.01-.37,5.52-.75c1.9-.26,3.73-.54,5.61-.89.75-.14,1.52-.18,2.32-.29l12.42-1.7c-.41.53-.45.59-.05.22,1.17.72,1.56-.39,2.3-.58,1.17-.3,2.45-.48,3.53-.52-.44.23-.72.39-.63.34l.67.24c.11.04-.36.35-.5.36-2.72.31-2.79.83-6.02,1.01.12.38.26.83.13.42l2.78-.38,3.46-.43,5.19-.77,3.75-.55,2.55-.41c.13-.02-.08-.68.05-.71.16-.04.58-.05.74-.14,1.86-1.05,3.63,1.04,4.89-.13.32-.29.82-1.05,1.16-.93.69.63,2.48-.33,3.68-.52l4.87-.79c1.45-.23,2.98-.33,4.41-.65,1.93-.43,3.7-.82,5.63-1.1l9.44-1.39,7.87-1.22,12.95-2.07,2.45-.39,2.69-.47,15.29-2.64,15.29-2.56c1.01-.17,1.9-.47,2.88-.14l.49.16c.08.03.17.23.09.25-1.56.25-.25-.26-2.4.09l-5.31.87-17.86,3.06-7.23,1.26-13.31,2.3-6.28,1.1-3.44.53c-.83.13-1.59.28-2.16,1.05,1.22.04,2.36-.34,3.57-.52l5.77-.87,7-1.2,2.26-.37,7.82-1.35,4.09-.71,14.63-2.62,13.33-2.17c1.39-.23,2.6-.43,3.95-.92l2.02-.1c.11-.56.06-.69-.25-.43l-3.29.27c-.41.03-1.14-.08-1.66-.18,1.69-.52,3.32-.74,4.9-.74l1.05.84c.2-.28.33-.48.34-.48.01,0,.33.13.43.18,1.29.07,2.96-.06,4.29.87l-4.39.67-2.02.34-9.37,1.64-10.73,1.96-4.63.87-10.98,2.01-16.08,2.84-4.83.79-12.47,2.12-8.39,1.46-9.85,1.67-17.07,2.85c-.53.09-.93.06-1.42.18-2.47.61-4.87,1.05-7.39,1.41l-4.88.7-4.3.84c-.42.08-1.24-.1-1.78-.22.86-.71,1.65-.54,2.54-.7l4.55-.84,3.43-.58,3.34-.5,4.14-.84,2.64-.56ZM192.03,128.91c.58-.06,1.31.04,1.17-.58l-7.47,1.3c2.24.77,4.1-.51,6.29-.72Z"/>
        <path d="M22.59,160.02l-.45.62c-1.58.12-3.19.28-4.78.59l-1.59.3c-.25.05-.77-.02-1.03-.09-.87,1.13-3.39.64-4.76.51.01,0-3.83.62-3.99,1.22l-.7-.34c-.18-.09-.45.14-.87.3-.11-.05-.08-.84.14-.94l1.07-.49-.31-.49c-.1-.15-.55.15-.88.36-.11-.5-.13-1.28-.06-1.91l13.62-2.27c1.66-.28,3.32-.63,4.86-.37.43-.41.96-.51,1.59-.62l6.4-1.07,4.99-.82c1.57-.26,3.4-.47,4.81-.56.46-.03,1.32-.48,1.71-.4l.56.12c.08.02-.31.28-.39.3l-1.82.41c-.87.2-1.79.39-2.63.53l-1.89.3c-1.16.18-2.66.81-3.75.83-1.59.03-2.58.18-4,.71-.81.31-2.53-.45-3.08.99-1.15-.69-1.86-.44-2.83-.19l-2.54.66c-.73.19-1.6.44-2.27.48-.97-.08-3.24.22-3.48,1.16l.71.65c.15.14.52-.19.77-.24,1.06-.17,1.98-.34,3.04-.57,2.57-.56,2.25.26,4.71-.45l.89.3c-.51.38-1.02.47-1.78.46ZM13.11,160.2l.56.24c-.45-.71-.82-.79-1.18-.72-.63.13-.89.14-1.05,1.05l1.67-.57Z"/>
        <path d="M320.69,114.36c-3.02.81-5.69,1.5-9.11,1.48l6.24-1.41c.95-.21,2-.18,2.87-.07Z"/>
        <path d="M187.37,132.54c-1.04.74-2.28,1.33-3.59.86,1.01-.69,2.24-.94,3.59-.86Z"/>
        <path class="cls-1" d="M23.11,179.49c.54-.27,1.14-.22,1.46-.32l1.43-.46c.24-.08.56-.26.71-.18l.73.37c2.61-1.53-.48.68,2.26-.99.18-.11.57.1.8.19l2.2-.56c.65-.17,1.77-.7,2.37-.62.17.02.39.62.28.74-1.11,1.25-4.57,1.06-5.43,1.27l-6.87,1.66-1.46-.23c-.16-.03-.47-.14-.6-.21s.04-.56.13-.56c.56.16,1.37.21,1.98-.09Z"/>
        <path class="cls-1" d="M37.47,179.35c0-.3.69-.1.91-.15l3.37-.73c1-.22,1.99-.78,2.96-.41.52-.19,1.31-.53,1.87-.42-.68,1.13-1.77.76-2.66,1.03-1.44.45-5.47,1.96-6.45.68Z"/>
        <path class="cls-1" d="M293.49,120.19l-3.35.25c1.11-.5,1.87-.66,3.31-1l.05.75Z"/>
        <path class="cls-1" d="M192.03,128.91c-2.2.21-4.05,1.48-6.29.72l7.47-1.3c.14.62-.59.52-1.17.58Z"/>
        <path class="cls-1" d="M13.11,160.2l-1.67.57c.16-.91.42-.92,1.05-1.05.36-.07.73,0,1.18.72l-.56-.24Z"/>
      </g>
    </g>
  </g>
</svg>