<?xml version="1.0" encoding="UTF-8"?>
<svg id="Layer_2" data-name="Layer 2" xmlns="http://www.w3.org/2000/svg" viewBox="0 0 432 288">
  <defs>
    <style>
      .cls-1 {
        fill: #fff;
      }
    </style>
  </defs>
  <path class="cls-1" d="M186.8,100.04c-.05.02-.13.01-.19.02-.24.97-.5,1.93-.78,2.89.88,1.18,1.32,2.7.94,4.34.36-.75.6-1.75.52-2.29-.73-4.59,2.15-3.19,1.09-6.36-.64.57-1.15,1.25-1.58,1.41Z"/>
  <path class="cls-1" d="M161.2,285.21c-6.55-.48-13.09-1.32-19.62-2.1,3.46,1.09,6.89,2.05,10.26,2.33,3.17.27,6.29.16,9.36-.23Z"/>
  <path class="cls-1" d="M263.23,228.05l-.74-7.57c-.15-1.51-.34-2.88-.86-4.29l-1.49-4.08c-1.41-3.86-1.01-8.23-3.73-12.55-.58-4.38.11-4.65-1.26-8.9-.79-2.47.18-6.17-1.9-7.04l.69-3.25c.33-1.58-2.23-7.2-2.29-7.68-.52-4.34-1.76-9.29-3.52-12.7-.22-.42-.12-1.42-.33-1.63-.26-.26-.99.32-1.38.57l-.77.49c-.15.1-.06-.73-.07-.99-.33-.18-1.46-.04-1.78.33-.32.37-.74,1.39-.95,1.87-1.87.63-5.03,3.55-5.11,5.66-.06,1.78.45,2.56,1.92,4.1l-3.24,1.41c-1.55.67-1.82,1.95-2.22,3.29-.15.51-.86,1.5-.85,1.98.01.54.57,1.3,1.12,2.06l-1.89,2.05.28,3.12c-2.27-.08-3.32,1.31-3.47,3.27l-2.21,1.85c-1.29,2.55-2.66,5.25-2.83,8.09-.1,1.6,1.38,3.4.51,4.9-1.2,2.06-1,4.18-1.39,6.17-.38,1.92-.56,3.68-.58,5.72-.02,2.14-1.85,4.07-1.02,6.72-.48.15-.96.26-1.43.35.15.73.31,1.46.45,2.19.17.91.11,1.74-.11,2.49,1.89-.63,3.82-.56,5.53-.02.24-.63.49-1.27.74-1.92-.25-.38-.45-.8-.6-1.24-.43-.82-.63-1.71-.59-2.66,0-.03,0-.06,0-.09.08-.61.16-1.22.25-1.83,0-.03.02-.07.03-.1.18-.61.42-1.23.77-1.77.07-.11.13-.19.2-.28.05-.1.09-.2.15-.3.36-.46.72-.93,1.08-1.39.2-.2.42-.38.65-.55,2.24-9.54,5.06-18.91,7.91-28.29,2.61-8.59,14.95-4.97,13.29,3.66-.65,3.4-.65,6.84-.65,10.29,0,.34-.03.65-.07.96.23,1.05.21,2.12-.18,3.12-.78,2.04-1.64,3.98-2.62,5.85,4.23-.44,8.42,4.36,7.3,9.05,1.19,1.23,1.93,2.63,2.27,4.12,1.33.38,2.61.94,3.79,2.02,2.48,2.26,2.47,5.91.86,8.58.09.62.05,1.3-.14,2.03-.44,1.69-1.16,3.18-2.08,4.52,1.05-.11,2.69-.51,3.05-1.23.4-1.66.77-3.04,1.49-4.44,1.02-1.99.26-4.06.06-6.11Z"/>
  <path class="cls-1" d="M189.14,235.09c.39.25.78.48,1.18.71-1.21-1.68-2.29-3.45-3.21-5.33-.22.9-.34,1.79-.19,2.53.13.68,1.02,1.32,2.22,2.09Z"/>
  <path class="cls-1" d="M204.45,165.36c-4.66-2.63.03-.57-5.33-4.21-.43-.29-.95-.88-1.34-1.08-.39-.2-1.72.39-1.68.82l.24,2.13c-1.14,1.92-1.57,3.89-2.56,5.9l-2.04,4.13-.41,3.11c-.99,1-1.44,1.87-1.84,3.08l-1.05,3.24-1.21,3.94c-.26.83-.5,1.54-.82,2.22.59-.14,1.2-.2,1.81-.19.4-.62.89-1.16,1.46-1.56.74-1.92,1.52-3.8,2.29-5.63,1.04-2.46,3.41-3.67,5.95-3.82.07-1.96.5-3.92,1.46-5.9,1.73-3.55,5.55-2.96,7.73-.71.01-.38.02-.76.02-1.15,0-1.4-1.55-3.67-2.7-4.32Z"/>
  <path class="cls-1" d="M173.27,231.18c.53-5.94,2.62-11.84,3.73-17.71.88-4.68,1.79-9.35,2.93-13.96-.59.48-1.14,1.24-1.53,2.54-.47,1.55-2.15,2.99-2.66,4.51l-1.29,3.87c-.47,1.41-.87,2.74-1.39,4.11l-1.85,4.83c-.3.78-1.16,2.02-1.63,2.72-.36,2.36-.21,4.98-.12,7.32l1.84,1.97c-1.33,4.32,1,3.52.99,5.73,0,.73-.29,1.51-.02,1.82.64.74,3.15,2.14,3.86,3.94.12.3-.56.82-.84,1.05l-.91.76c-.81.68,2.88,3.13,4.82,3.76,1.46.48,4.27,1.85,6.14,3.55,1.17-.54,2.36-1.05,3.54-1.57-8.01-4.45-16.59-8.15-15.61-19.23Z"/>
  <path class="cls-1" d="M201.76,44.73l-3.19-.83c-1.03-.27-2.1.26-3.03,1.06l-2.71-1.32c-.72-.35-1.75-1.1-2.46-1.53l-5.06.57c-1.93-.88-4.28-2.88-5.01-4.67.25-.8.7-1.36,1.26-1.76-.4-.07-.77-.17-1.12-.3-.53,1.19-1.06,2.39-1.53,3.61-.14.35-.26.7-.38,1.05,1.62.63,3.16,1.43,4.64,2.37.9.57,3.72,2.9,4.61,2.7,5.23-1.15,9.68,3.21,8.48,8.48-.9,3.97-2.99,7.42-4.17,11.28-1.24,4.07-.2,8.3-.53,12.48-.49,6.24-1.83,12.34-3.78,18.25l.68-.8c2.53-2.97,3.22-6.32,3.82-9.97.55-3.31,1.64-4.97,2.15-10.46.31-3.3.85-6.43,1.56-9.7l.64-2.96.86-4.49c.12-.61-.18-1.61-.48-2.26l1.55-.9c.79-3.39,1.68-6.55,3.18-9.9Z"/>
  <path class="cls-1" d="M167.3,160.58c-3.25,8.23-6.16,16.64-9.95,24.62,2.02,1.72,2.54,4.44,2.14,7.06,0,.06-.02.12-.03.18-.37,2.44-2.55,4.17-4.92,4.79.17,1.27-.02,2.64-.71,4.04-7.48,15.22-12.08,31.31-24.42,43.6-2.61,2.6-5.8,2.44-8.21.93-1.21,1.84-2.33,3.73-3.28,5.76-.65,1.39-1.54,2.33-2.54,2.89,0,.11,0,.22,0,.32,1.88.16,3.76.32,5.64.47.02-.08.03-.16.05-.23.78-2.63,6.29-3.53,8.8-3.86,2.42-.32,3.33-1.38,4.5-3.25,4.78-7.65,4.9-3.5,6.94-8.61.56-1.4,1.73-2.74,1.99-4.46.15-.98.59-2.04,1.01-2.93l2.24-4.74c.52-1.1.87-2.56,1.38-3.74l1.95-4.55,1.77-4.61c1.74-4.54,2.65-4.6,4.71-9.86l2.11-5.4c.8-2.03,1.08-4.19,2.35-6.13,1.22-1.88,1.74-4.34,2.81-6.37.84-1.59,1.37-3.1,1.89-4.8l1.13-3.65,1.46-2.68,1.5-4.78.98-2.99c.65-1.97,1.31-4.05,1.76-6.08.67-3.02,1.5-5.8,2.41-8.85l2.21-7.38c.68-2.28,1.36-4.56,1.82-6.89-4.03,7.29-7.4,14.94-11.49,22.18Z"/>
  <path class="cls-1" d="M184.24,116.06c-.13-.1-.33-.16-.55-.21-1.31,4.24-2.33,8.58-3.34,12.92.1.15.2.29.29.45.59-2.49,1.33-4.9,2.09-7.4.38-1.26.6-2.43,1.27-3.62.26-.46.68-1.83.24-2.14Z"/>
  <path class="cls-1" d="M259.43,94.93c-.42-.61-.77-1.32-1.03-2.15-2.06-6.57-4.07-12.9-4.74-19.79-.02-.23-.03-.45-.03-.66-1.53-1.36-2.93-3.28-3.21-5.08-.46-2.99-1.34-5.86-2.18-8.76-1.08-1.3-2.11-2.64-3.07-4.02-2.57-3.7.09-9.03,4.12-10.12,3.88-1.06,7.53-2.64,11.32-3.79.09-.32.19-.63.3-.93-.99.66-2.21.99-3.5.88-1.54-.13-2.78,1.07-3.99,1.45-2.03.63-3.78.96-5.62,2.08-2.27,1.39-4.89,3.36-4.58,6.27.73,6.75-1.61,4.57,2.83,8.83.71,1.08,1.2,2.56,1.63,3.78l1.34,3.88c1.73,5,1.29,7.91,2.7,10.5,1.48,2.72,1.36,5.94,2.21,8.81.92,3.11,1.38,6.02,1.92,9.24-.03-.16,1.42,5.61,1.72,6.99l1.22,5.53,1.06,5.38c.58,2.94.93,3.83,1.48,4.39-.04-1.26.02-2.56.22-3.92-.26-1.33-.51-2.66-.72-4.01-.33-2.16.09-4.05.97-5.59-.65-3.09-1.47-6.15-2.38-9.19Z"/>
  <path class="cls-1" d="M274.92,197.1c-1.62-9.63-1.05-19.46-2.74-29.17-1.97-11.37-6.94-22.01-5.7-33.6-.81-.57-1.48-1.41-1.85-2.6-.69-2.2-1.4-4.29-1.99-6.37-.34.03-.7.04-1.11,0l.38,2.41c-.72,1.54.12,2.51.38,3.96l2.45,14.16,1.22,4.39c.33,1.21.89,2.32.84,3.68-.06,1.69.38,3.2.55,4.83l.49,4.63.36,6.18.66,4.76c.22,1.59.47,2.34,1.31,3.66,1.51,2.39.14,5.63,2.95,8.29-2.5,2.55-.65,8.09,1.8,10.78Z"/>
  <path class="cls-1" d="M310.24,246.04c-1.56-5.71-3.94-8.86-8.63-12.5-10.26-7.96-19.61-14.53-24.3-27.21.01.08.03.16.03.24.12,1.79-.03,3.21.6,4.85.82,2.15,1.88,3.79,3.75,5.33,2.1,1.73,3.72,6.68,4.13,7.11.84.88,1.59,1.32,2.2,2.4.92,1.62,2.41,3.36,3.94,4.43,2.87,2.01,4.63,4.62,6.43,7.66l1.58.61c1.06,1.64,2.46,2.83,4.38,3.34l1.92,3.73c.33.65,1.96,1.35,2.47,1.96.61.73.91,1.67.96,2.64.63,0,1.27,0,1.9,0-.5-1.49-.95-3.02-1.38-4.59Z"/>
  <path class="cls-1" d="M224.88,152.8c-2.47-1.48-3.9-3.15-6.09-4.3l-6.8-3.57c-1.37-.72-2.58-1.63-3.86-2.45-1.41-.9-3.9-.5-4.81-2.47-.58-1.26.26-2.66,1.23-3.77l.28-2.86c1.25-1.28,1.38-2.47,1.51-4.14.26-3.34,2.1-6.39,4.03-9.1-.53-1.89,1.05-3.09,1.53-4.54l1.73-5.29c.55-1.68,1.06-3.29,2-4.78l2.29-3.63c.45-.71,2.75-.48,2.87-1.77.26-2.73,2.34-3.16,1.64-4.02-.26-.32-.91-.85-1.32-1.16-1.35-1.01.12-2.19.66-3.15.38-.68-.68-2.47,1.43-2.65.51.91.78,2.6.92,3.99l1.39,2.54c-1.75,1.64.99,6.52,2.2,8.09l1.94,2.52c3.44,4.47,6.4,2.49,6.14,7.26s1.09,9.41,2.7,14.01l1.45,4.14,2.07,5.63c-.45.83-1.93.92-3,1.17-1.16.28-2.32,1.64-3.35,2.32-.91.6-1.58,1.11-2.3,1.88-.92.97-2.54,1.84-3.27,2.86l-2.46,3.47-2.75,3.74Z"/>
  <g>
    <path class="cls-1" d="M160.99,249.19l-3.13-.16c-1.63-.26-1.1-2.48-.69-3.54s.69-3.55,2.48-2.87l4.66,5.2c-.15,1.16-1.95,1.44-3.32,1.37Z"/>
    <g>
      <path d="M308.76,248c-.51-.61-2.14-1.31-2.47-1.96l-1.92-3.73c-1.92-.51-3.32-1.7-4.38-3.34l-1.58-.61c-1.8-3.04-3.56-5.65-6.43-7.66-1.53-1.07-3.03-2.81-3.94-4.43-.61-1.07-1.35-1.51-2.2-2.4-.41-.43-2.03-5.38-4.13-7.11-1.87-1.54-2.93-3.18-3.75-5.33-.63-1.65-.48-3.06-.6-4.85,0-.07-.02-.16-.03-.24-.01-.04-.03-.07-.04-.1-1.11-3.02-1.84-6.07-2.36-9.14-2.45-2.69-4.3-8.23-1.8-10.79-2.8-2.66-1.44-5.91-2.95-8.29-.83-1.32-1.09-2.07-1.31-3.66l-.66-4.76-.36-6.18-.49-4.63c-.17-1.64-.6-3.14-.55-4.83.05-1.36-.51-2.47-.84-3.68l-1.22-4.39-2.45-14.16c-.25-1.45-1.1-2.42-.38-3.96l-.38-2.41c.41.03.77.02,1.11,0-.72-2.54-1.24-5.05-1.32-7.73-.55-.56-.9-1.45-1.48-4.39l-1.06-5.38-1.22-5.53c-.3-1.38-1.75-7.15-1.72-6.99-.54-3.22-.99-6.13-1.92-9.24-.85-2.87-.74-6.09-2.21-8.81-1.41-2.59-.97-5.5-2.7-10.5l-1.34-3.88c-.42-1.23-.92-2.7-1.63-3.78-4.43-4.26-2.1-2.08-2.83-8.83-.31-2.91,2.3-4.88,4.58-6.27,1.84-1.12,3.59-1.45,5.62-2.08,1.21-.38,2.45-1.58,3.99-1.45,1.29.11,2.51-.23,3.5-.88.4-1.09.92-2.04,1.55-2.85-.16-.56-.36-1.03-.58-1.44-26.12-.55-52.24-.79-78.33,1.02-.72.05-1.38,0-2-.09-.57.4-1.02.96-1.26,1.76.73,1.78,3.08,3.79,5.01,4.67l5.06-.57c.71.43,1.74,1.18,2.46,1.53l2.71,1.32c.92-.8,2-1.33,3.03-1.06l3.19.83c-1.49,3.35-2.38,6.51-3.18,9.9l-1.55.9c.3.65.59,1.65.48,2.26l-.86,4.49-.64,2.96c-.71,3.27-1.25,6.4-1.56,9.7-.51,5.49-1.6,7.16-2.15,10.46-.6,3.65-1.29,7-3.82,9.97l-.68.8c-.28.85-.58,1.7-.88,2.54-.1.45-.19.9-.3,1.34.06,0,.14,0,.19-.02.42-.16.94-.84,1.58-1.41,1.06,3.18-1.82,1.77-1.09,6.36.09.54-.16,1.54-.52,2.29-.07.33-.17.65-.31.99-1.07,2.48-1.97,5.01-2.77,7.59.22.05.42.11.55.21.43.31.02,1.68-.24,2.14-.67,1.19-.89,2.36-1.27,3.62-.76,2.49-1.5,4.9-2.09,7.4,1.01,1.76,1.13,4.04-.32,6.51-.52.89-1.02,1.78-1.52,2.68-.46,2.33-1.14,4.61-1.82,6.89l-2.21,7.38c-.91,3.05-1.74,5.82-2.41,8.85-.45,2.03-1.11,4.11-1.76,6.08l-.98,2.99-1.5,4.78-1.46,2.68-1.13,3.65c-.53,1.7-1.06,3.21-1.89,4.8-1.07,2.03-1.58,4.5-2.81,6.37-1.27,1.94-1.55,4.1-2.35,6.13l-2.11,5.4c-2.06,5.26-2.96,5.32-4.71,9.86l-1.77,4.61-1.95,4.55c-.51,1.18-.86,2.64-1.38,3.74l-2.24,4.74c-.42.89-.86,1.95-1.01,2.93-.26,1.72-1.43,3.06-1.99,4.46-2.04,5.11-2.16.96-6.94,8.61-1.17,1.87-2.08,2.93-4.5,3.25-2.51.33-8.02,1.24-8.8,3.86-.02.07-.04.15-.05.23,5.92.48,11.85.91,17.78,1.32,1.14-.77,2.58-1.24,4.32-1.24,12.16-.01,24.31-.23,36.46-.55,1.91-.96,3.83-1.88,5.76-2.77-1.87-1.7-4.68-3.07-6.14-3.55-1.94-.63-5.63-3.08-4.82-3.76l.91-.76c.28-.23.96-.75.84-1.05-.71-1.8-3.22-3.2-3.86-3.94-.27-.31.02-1.09.02-1.82,0-2.22-2.32-1.41-.99-5.73l-1.84-1.97c-.09-2.34-.24-4.96.12-7.32.47-.7,1.33-1.94,1.63-2.72l1.85-4.83c.52-1.36.92-2.7,1.39-4.11l1.29-3.87c.51-1.52,2.19-2.96,2.66-4.51.39-1.3.94-2.06,1.53-2.54.51-2.09,1.07-4.18,1.7-6.24.81-2.67,2.69-4.14,4.8-4.63.31-.68.56-1.39.82-2.22l1.21-3.94,1.05-3.24c.4-1.22.84-2.09,1.84-3.08l.41-3.11,2.04-4.13c.99-2,1.42-3.98,2.56-5.9l-.24-2.13c-.05-.43,1.28-1.01,1.68-.82.39.2.91.78,1.34,1.08,5.35,3.64.66,1.58,5.33,4.21,1.14.64,2.7,2.92,2.7,4.32,0,.39,0,.77-.02,1.15.85.87,1.46,1.99,1.58,3.23.26,2.56.66,5.09,1.14,7.6.25.58.4,1.25.39,2.01,1.05,5.02,2.44,9.96,3.89,14.9.43,1.25.81,2.52,1.14,3.81,1.89,6.3,3.78,12.6,5.14,19.02.47-.09.95-.2,1.43-.35-.82-2.65,1-4.57,1.02-6.72.02-2.05.2-3.8.58-5.72.39-1.99.19-4.12,1.39-6.17.87-1.5-.6-3.3-.51-4.9.17-2.84,1.55-5.54,2.83-8.09l2.21-1.85c.15-1.97,1.2-3.35,3.47-3.27l-.28-3.12,1.89-2.05c-.55-.76-1.11-1.51-1.12-2.06,0-.48.7-1.47.85-1.98.4-1.35.67-2.62,2.22-3.29l3.24-1.41c-1.47-1.54-1.98-2.32-1.92-4.1.08-2.11,3.24-5.03,5.11-5.66.22-.49.63-1.51.95-1.87.32-.37,1.45-.5,1.78-.33,0,.26-.08,1.08.07.99l.77-.49c.39-.25,1.12-.83,1.38-.57.21.21.11,1.21.33,1.63,1.76,3.4,3,8.35,3.52,12.7.06.48,2.63,6.1,2.29,7.68l-.69,3.25c2.08.87,1.11,4.57,1.9,7.04,1.36,4.25.68,4.52,1.26,8.9,2.72,4.32,2.32,8.69,3.73,12.55l1.49,4.08c.52,1.41.71,2.78.86,4.29l.74,7.57c.2,2.04.96,4.12-.06,6.11-.72,1.4-1.09,2.78-1.49,4.44-.36.71-2.01,1.12-3.05,1.23-3.87,5.63-11.36,8.58-17.74,12.06-.11.2-.21.41-.31.61.04.02.08.05.11.07,23.01-.91,46.02-1.73,69.04-1.92-.05-.97-.35-1.91-.96-2.64ZM160.99,249.19l-3.13-.16c-1.63-.26-1.1-2.48-.69-3.54.41-1.1.69-3.55,2.48-2.87l4.66,5.2c-.15,1.16-1.95,1.44-3.32,1.37ZM164.61,235.27l1.63-.38,1.06,3.39c-1.42.12-3.73-2.77-2.7-3.01ZM179.4,182.51c.85,3.93-2.75,3.42-1.69,7.03.69,2.36-1.31,3.87-1.92,5.79l-1.81,5.71c-.07.22-.7.87-.85.76l-.6-.46-.16,1.09c-.02.16-.96-.46-.86-.7l1.34-3.22c.4-.97.83-2.05,1.09-2.89l1.38-4.61c.36-1.22,1.05-2.39,1.5-3.55.43-1.11.74-2.42,1.16-3.61l1.23-3.47c.46-1.31.53-2.7,1.52-3.68l.79-1.92c1.18.47-.67,8.49-2.11,7.73ZM233.36,142.73c-.92.97-2.54,1.84-3.27,2.86l-2.46,3.47-2.75,3.74c-2.47-1.48-3.9-3.15-6.09-4.3l-6.8-3.57c-1.37-.72-2.58-1.63-3.86-2.45-1.41-.9-3.9-.5-4.81-2.47-.58-1.26.26-2.66,1.23-3.77l.28-2.86c1.25-1.28,1.38-2.47,1.51-4.14.26-3.34,2.1-6.39,4.03-9.1-.53-1.89,1.05-3.09,1.53-4.54l1.73-5.29c.55-1.68,1.06-3.29,2-4.78l2.29-3.63c.45-.71,2.75-.48,2.87-1.77.26-2.73,2.34-3.16,1.64-4.02-.26-.32-.91-.85-1.32-1.16-1.35-1.01.12-2.19.66-3.15.38-.68-.68-2.47,1.43-2.65.51.91.78,2.6.92,3.99l1.39,2.54c-1.75,1.64.99,6.52,2.2,8.09l1.94,2.52c3.44,4.47,6.4,2.49,6.14,7.26-.26,4.81,1.09,9.41,2.7,14.01l1.45,4.14,2.07,5.63c-.45.83-1.93.92-3,1.17-1.16.28-2.32,1.64-3.35,2.32-.91.6-1.58,1.11-2.3,1.88ZM240.96,145.82c-2.61,1.01-3.97,3.53-4.54,2.52-1.03-1.83,2.44-5.13,3.7-6.37.61-.6,1.4-1.59,2.35-1.83.51-.13,1.78,4.41-1.51,5.68Z"/>
      <path class="cls-1" d="M240.96,145.82c-2.61,1.01-3.97,3.53-4.54,2.52-1.03-1.83,2.44-5.13,3.7-6.37.61-.6,1.4-1.59,2.35-1.83.51-.13,1.78,4.41-1.51,5.68Z"/>
      <path class="cls-1" d="M171.5,201.74l1.34-3.22c.4-.97.83-2.05,1.09-2.89l1.38-4.61c.36-1.22,1.05-2.39,1.5-3.55s.74-2.42,1.16-3.61l1.23-3.47c.46-1.31.53-2.7,1.52-3.68l.79-1.92c1.18.47-.67,8.49-2.11,7.73.85,3.93-2.75,3.42-1.69,7.04.69,2.36-1.31,3.87-1.92,5.79l-1.81,5.71c-.07.22-.7.87-.85.76l-.6-.46-.16,1.09c-.02.16-.96-.46-.86-.7Z"/>
      <path class="cls-1" d="M167.31,238.27c-1.42.12-3.73-2.77-2.7-3.01l1.63-.38,1.06,3.39Z"/>
    </g>
  </g>
</svg>