<?xml version="1.0" encoding="UTF-8"?>
<svg id="Layer_2" data-name="Layer 2" xmlns="http://www.w3.org/2000/svg" viewBox="0 0 432 288">
  <defs>
    <style>
      .cls-1 {
        fill: #fff;
      }
    </style>
  </defs>
  <path class="cls-1" d="M342.67,8.21c-.92.04-2.05-.04-2.94.22l1.22-.15c-.5.09-1,.19-1.5.31-1.3.3-2.58.36-3.8.24-3.67.34-7.4-1.04-7.46-3.77,0-.16,0-.31,0-.46-.28-.38-.55-.78-.79-1.21-1.28.21-2.57.41-3.86.57-.57.14-1.15.28-1.73.4-14.82,3.11-30.33,2.17-45.34,1.74-21.27-.61-42.51-1.9-63.76-3.09-39.89-2.25-79.94-4.13-119.79-.67v284.85c13.42-.59,26.86-.89,40.3-1.02-5.92-1.66-11.68-4.08-17.04-6.99-11.96-6.49-1.29-24.72,10.66-18.23,1.58.86,3.19,1.66,4.81,2.38,0-.24,0-.47-.02-.69-.16-1.93-2.75-1.99-3.76-2.68l-3.11-2.11c-1.43-.97-2.84-4.26-4.9-6.67-2.92-3.41-1.98-4.02-2.87-7.54-.28-1.13-.46-2.08-.56-3.35-.1-1.3-.81-2.84-.79-4.01.08-4.06.85-7.62,2.16-11.32,1.43-4.06,2.2-4.4,4.6-7.22l1.78-2.09c1.06-1.24,2.23-1.04,3.65-1.2,1.26-.14,2.57-.42,4-.49,1.71-.09,3.91,1.35,3.78,3.09-.18,2.47-2.69,3.08-4.27,4.28-2.36,1.79-3.52,5.05-3.84,7.92-.63,5.64-.1,3.14,1.22,8.03.44,1.64,1.22,3.69,2.17,4.94,6.29,1.01,2.36,5.74,10.72,8.44,3.56,1.15,8.25,1.59,10.05-2.67l1.47-3.47c.52-1.22.96-2.11,1.38-3.36l1.54-4.52c.23-.67.71-1.54.89-2.24l.75-2.93c.25-.96.75-2.37,1.2-3.3.94-1.98,1.21-3.86,1.78-5.81.66-2.27,2.61-3.24.61-9.74-.67-2.16-1.41-4.28-1.59-6.51-.17-2.11-.72-3.59-1.82-5.38-.58-.95-.94-2.35-1.38-3.27-1.65-3.49-2.23-6.79-2.37-10.61-.12-3.34-.99-8.26,1.92-11.41.54-.58,2.53-.4,3.26-.04,1.18.58-.11,4.47-.03,7.18.08,2.55.18,4.94.45,7.53.13,1.24,3.13,7.63,4.92,8.05.28-1.1.58-1.91.59-2.77l.23-17.63c.04-2.75.07-5.56.44-8.17.32-2.28.56-4.03.26-6.32-.3-2.3-.15-9.03.33-10.88l3.6-13.88,2.89-10.21c.47-1.65.13-4.09.18-5.96l-4.56,1.43-6.19,1.91c-1.39.43-2.69,1.46-4.29,1.67-3.04.39-3.32,2.94-7.42,4.02l-2.19,2.06c-.98.92-2.86,1.66-3.52,2.84-.93,1.67-1.55,3.32-3.05,4.44-3.23,2.42-4.22,4.73-5.84,6.33l-3.64,3.6c-.95.93-3.37,1.85-4.76,2.62-.9.23-2.99-.17-3.76-.65-1.52-.94-1.57-3.52-.72-4.9l4.39-7.1c2.44-2.15,4.18-3.67,5.89-6.5,1.3-2.14,3.4-2.92,5.23-4.44l4.98-4.16,2.89-1.77c.91-.56,2.33-.58,3.1-1.63.78-1.06,1.86-2.49,3-2.89,6.15-2.18,9.04-1.27,12.96-2.51l4.1-1.3,2.86-.9c5.06-1.59,2-1.97,4.65-8.77.47-1.21.77-2.23,1.16-3.51.34-1.11.98-2.37,1.4-3.51l1.2-3.17c.34-.89.83-2.19,1.23-2.95l2.38-4.47,2.83-5.25,2.98-5.57c2.11-3.94,1.78-4.8,3.16-7.56l1.18-2.36,2.71-2.97c1.8-1.98,3.25-3.83,3.87-6.6.2-.88,1.18-1.79,1.52-2.65l1.96-4.95c.6-1.51,1.39-2.81,1.91-4.46.54-1.73.38-4.16,1.38-5.67,1.44-2.18,2.49-4.05,3.18-6.58.22-.75,1.78-1.5,2.39-2.01l3.47-2.89c1.01-.84,3.1-1.77,4.55-2.17l4.13-1.14c3.06-.84,4.85-1.06,7.67-3.7,2.98-2.79,5.51-3.35,9.6-5.51.86-.45,2.24-.65,2.99-1.35,1.09-1.02,2.16-.83,3.45-.3,1.34.54,2.83,1.93,2.01,3.57-1.25,2.49-4.61-.06-6.11,3.02l2.23,2.22,5.52.04c.56,0,1.37-.72,2.05-1.34,8.96,4.35,2.31-1.25,11.13,6.2,2.86,2.42,1.49,6.09.17,8.73.94,5.18-3.57,5.01-.77,9.28,1.33,2.03.37,3.88-.08,5.91-.54,2.47-1.01,5.28-.97,7.82l.08,5.39c.04,3.04.18,5.89-.05,8.93-.22,2.93-.16,5.82-.24,8.76l-.14,5.54-.27,12.76c-.04,1.98-.15,3.72.11,5.74.18,1.41.2,2.85.11,4.24l-.3,4.67c-.09,1.35-.21,2.6-.38,3.97-.25,1.97.09,4.3-.29,6.17-.62,3-.77,5.45.26,8.3,4.07,11.25,5.78,4.36,8.41,10.74.51,1.24,2.93,2.31,4.11,3.1,1.36.9,1.82,1.84,2.76,3.11.93,1.26,3.17,2.61,4.79,2.94,2.46.51,4.84.08,7.33-.08,3.6-.24,7.54-3.97,9.56-6.64l3.09-4.07c.36-.48.83-1.98.43-2.18-.88-.16-1.86-.29-2.28-.08-1.37.7-.19,3.03-2.43,3.49-.65.13-1.7-1.16-1.27-1.52,3.27-2.75,1.12-2.49,1.38-7.86-1.03-1.97-3.24-2.47-5.26-2.27-2.74.27-2.46-3.35-3.13-4.74-.8-1.65-3.37-.66-4.31.49-1.67,2.05-5.5,1.72-6.1,1.05-1.94-2.17,2.53-5.13,4.2-9.4.4-1.03,1.34-3.07,2.4-3.37l3.51-.97c1.77-.49,1.13-2.51,1.99-3.63,1.4-1.85,4.55-3.82,7.11-3.86,1.98-.03,3.94.54,5.91.8.84.6,2.07,1.89,2.88,2.69l2.53,2.46,4.12,1.23c2.4.72,3.6,2.47,4.4,4.56l1.01,2.61c.42,1.09.46,2.39.51,3.65l.24,5.61-.69,6.37c-.13,1.24-.8,2.27-1.28,3.32l-2.34,5.13c-.61,1.34-1.13,2.52-1.94,3.81l-1.37,2.16-2.17,3.27-1.25,2.64c-2.33,4.91-9.6,7.51-12.02,9.76-.63.58-1.71,1.33-2.47,1.57-3.3,1.04-7.14,2.89-9.58,2.96l-6.03.16-2.88.09c-1.78.06-3.45.17-5.27.13-5.74-.14-4.69-2.51-7.99-.68l.25,5.85c.07,1.7-.59,3.76.02,5.39l.98,2.62.47,1.24c.11.28-.82.95-.84,1.31-.55,9.89.6,9.13.65,17.85,0,1.33.84,3.27.6,4.58-.9,5.02.21,2.74.22,9.01,0,1.36.19,2.86.11,4.27-.1,1.9.72,3.13,1.17,4.87.78,3.01-.07,9.29.1,9.6.23.41,1.18,1.28,1.66,1.3,2.11.08,4.8-.25,6.96-.7,4.59-.95,3.03.78,10.88-2.2,1.57-.59,3.08-1.85,4.89-.9,1.11.59,3.01,1.85,2.92,3.69-.18,3.77-1.98,4.2-3.05,6.29-1.47,2.87-4.24,4.48-6.64,6.37-2.02,1.6-4.09,1.83-7.01,1.78l-5.5-.1c-1.55-.03-3.84-.78-5.58-1.15-1.18-.26-2.41-1.83-3.58-.22-.57.78-1.5,1.23-2.65,1.54-1.05.27-2.42,1.26-3.53,1.39-3.19.38-6.27-.05-9.39-.47l-1.15.42c-1.98-.37-7.76.11-9.65.55-5.61,1.33-9.41.48-13.45,2.78-.52-.31-1.24-.69-1.66-.79s-1.21.88-1.68.95c-1.19.19-2.91.27-4.23.37-1.65.12-4.76.51-5.59-1.06-1-1.91,1.12-4.04,1.97-5.08,3.15-3.85,6.59-3.13,12.93-6.32,4.19-2.11,8.72-3.65,13.26-5.03,3.93-1.19,2.03-10.05,2.06-11.46l.1-5.25c.04-2.03-.02-3.87.04-5.92.07-2.42-.32-5.26-.23-8.78l.18-7.1.03-4.36-.02-7.52c-.02-6.11.58-4.9.65-9.02l.11-6.72.4-5.82c.14-2.06.18-5.11.12-7.12-.01-.39-1.29-.73-1.5-.44-.85,1.13-.61,2.89-1.23,6.45-.24,1.39-.14,3.06-.24,4.52l-.36,5.01c-.18,2.53-.29,4.92-.26,7.49.03,2.9-.43,6.11-.43,9.95,0,2.19.08,4.22-.23,6.46-.25,1.78.18,3.9-.16,5.59-.4,1.97-.07,3.21.33,5.11.46,2.2-.17,4.84-.09,7.14.08,2.37.16,4.48-.4,6.85l1.49,4.21c-.39,1.03-1.04,2.59-1.56,3.61-.42.83-2.88.72-3.65.36-1.49-5.8-1.64-10.37-1.17-16.48.06-.72.48-1.76.46-2.5-.03-.95-.13-2.05-.08-2.85l.31-5.32.14-3.66.09-4.59.11-5.29c.03-1.44.06-2.82.18-4.33l.57-7.11c.16-1.95-.07-3.78.11-5.73l.49-5.34c.17-1.8-.16-4.52.47-6.94.43-1.66.44-4.17-.43-5.64-1.01-1.71-3.45-1.34-4.79-2.38l-7.82-6.07c-.87-.67-2.05-1.05-2.87-1.73-1.43-1.18-2.66-3.12-4.03-4.02-1.31-.87-2.42-1.36-3.45-2.4-3.59-3.64-4.95-5.42-7.4-9.94l-2.66-4.91c-.22-.4-.74-.96-1.09-.97-.35,0-.84.78-.86,1.16-.08,1.98-.48,3.59-.89,5.42-.42,1.85-.82,6.21-2.54,7.05-1.58.77-2.51-3.79-1.52-7.09.67-2.26.93-4.22.26-6.46l1.88-4.22c.2-.46-.26-1.61-.63-1.82-.38-.21-1.63.25-1.75.66l-.48,4.08c-1.23,1.7-1.7,3.48-1.97,5.55l-.9,6.77c-.21,1.6-.28,2.93-.59,4.4-.48,2.26-.9,4.41-1.24,6.71-.21,1.38.13,3.17-.15,4.51-1.24,5.85-1.38,15.03-1.19,21.01.03.96-.76,2.6-.64,3.6.51,4.44-.7,5.66-.03,11.81.22,2.01.12,3.75-.01,5.76l-.31,4.85-.35,5.35-.28,6.23c-.15,3.39-.96,6.04-1.58,10.24-.34,2.3-.73,7.48-1.19,8.6l-1.71,4.08-1.88,4.47-2.08,3.97c-.87,1.66-1.33,3.46-2.51,4.96l-2.83,3.59c-.9,1.14-1.66,2.01-2.74,2.99l-3.2,2.87c-.76.68-1.46,1.62-2.3,2.3-1.17.96-2.49,1.26-3.83,1.94-1.74.87-4.53,3.09-5.85,3.33-1.6.29-3.44.36-5.08.77,5.31-.28,10.53-1.96,15.44-5.61,4.6-3.42,11.81-.72,14.44,3.79,3.1,5.3.78,11.05-3.79,14.44-3.64,2.7-7.5,4.68-11.48,6.06,22.45.05,44.89.24,67.34.14.88-.15,1.77-.25,2.66-.28l2.54-.1c2.45-.09,4.61-.06,6.82.29,2.28-.02,4.56-.04,6.84-.07,31.74-.42,63.49-.07,95.05,3.23V8.13c-1.24,0-2.49.02-3.73.08ZM110.56,173.47c-5.7.26-10.55-5.03-10.56-10.56,0-1.56,0-3.12-.08-4.67-.03-.47-.2-1.27-.22-1.88-.05-.25-.1-.51-.17-.76-1.33-5.77,1.74-11.16,7.37-12.98,5.27-1.71,11.74,1.99,12.98,7.37.98,4.26,1.22,8.58,1.22,12.93,0,5.92-4.84,10.3-10.56,10.56ZM166.5,101.17c-2.56,1.29-5.08,2.65-7.53,4.13-1.31.79-2.6,1.62-3.86,2.49-.62.43-1.23.86-1.84,1.31-.16.13-.37.3-.67.54-4.58,3.74-10.36,4.19-14.93,0-3.91-3.59-4.3-11.42,0-14.93,5.66-4.61,11.65-8.49,18.17-11.77,5.28-2.67,11.19-1.26,14.44,3.79,2.96,4.59,1.15,11.95-3.79,14.44ZM343.03,262.64c-1.33-1.26-4.69-.8-4.94-3.91-.14-1.71.91-2.51,2.29-3.41,3.64-2.35,1.25.16,5.59-2.32l.07,10.05-3.01-.41Z"/>
  <path class="cls-1" d="M234.99,120.15l-3-2.11c-2.89-2.03-6.48-3.02-10.07-3.94-2.16-1.42-4.48-1.87-7.06-2.47l-5.49-1.27c-1.17-.27-2.11-1.29-1.62-2.63,1.06-2.87,2.18-5.7,3.72-8.42.77-1.36,2.52-2.45,3.54-3.53l1.78-1.88c.75-.79,1.05-1.77,1.47-2.81l2.57-6.27c6.89-4.59,2.97-7.02,8.94-9.36,1.68-2.29,3.69-4.39,6.26-5.69.53-2.68,3.02-3.05,4.83-4.26,1.27-.85,1.95-2.1,3.89-2.2.88-.04,1.84-.14,2.34.49,1.87,2.37-2.2,3.54-1.5,8.64l-3.23,4.19-.46,6.3c-.28,3.83.68,9.37.22,12.7l-.68,5.04c-.24,1.76-.11,3.75-.29,5.55l-.35,3.64-.37,3.91c-.09.96-.1,1.94-.13,2.9l-.17,5c-1.05,1.13-3.56-.42-5.14-1.54Z"/>
  <g>
    <path class="cls-1" d="M237.3,140.21c.14,3.48.15,6.8-.51,10.21-.47.9-2.99.61-3.49-.21-1.04-1.72-3.44-2.44-4.89-3.64l-4.87-4.05-3.53-3.19c-.84-.76-1.63-1.4-2.48-2.2l-2.94-2.76c-1.48-1.4-2.8-2.94-3.19-5.08l-1.21-1.95c.11-.78,1.77-.98,2.24-.52,1.41,1.38,2.86,1.77,4.56,2.39l6.26,2.27c1.31.48,2.75,1.93,4.07,2.5,1.88.82,9.91,4.78,9.96,6.24Z"/>
    <path class="cls-1" d="M306.21,134.42c-1.5.81-.14-3.68-1.8-5.73-.96-1.19-2.69-1.56-4.08-1.91l-.93-1.98c1.24-1.41,2.88-.22,5.59-.93,1.81,1.01,1.35,3.7,2.23,5.18.56.93,1.05,1.52,1.01,2.57-.04,1.11-.24,1.83-1.15,2.32l-.87.47Z"/>
    <path class="cls-1" d="M272.16,164.27c-1.17,2.71-9.17-.05-7.83-2.82,1.41-1.79,3.95.35,5.25,1.18l2.58,1.64Z"/>
    <g>
      <path d="M321.4,126.61c-.05-1.26-.09-2.56-.51-3.65l-1.01-2.61c-.8-2.08-2-3.84-4.4-4.56l-4.12-1.23-2.53-2.46c-.81-.79-2.05-2.09-2.88-2.69-1.97-.26-3.93-.83-5.91-.8-2.55.04-5.71,2.01-7.11,3.86-.85,1.12-.22,3.14-1.99,3.63l-3.51.97c-1.07.3-2,2.35-2.4,3.37-1.67,4.27-6.14,7.22-4.2,9.4.59.66,4.43,1,6.1-1.05.94-1.15,3.51-2.15,4.31-.49.67,1.39.39,5.01,3.13,4.74,2.02-.2,4.23.3,5.26,2.27-.26,5.37,1.88,5.1-1.38,7.86-.43.36.62,1.65,1.27,1.52,2.24-.46,1.06-2.79,2.43-3.49.42-.21,1.39-.08,2.28.08.41.21-.07,1.71-.43,2.18l-3.09,4.07c-2.02,2.67-5.96,6.4-9.56,6.64-2.48.16-4.87.59-7.33.08-1.62-.33-3.86-1.68-4.79-2.94-.94-1.27-1.41-2.2-2.76-3.11-1.19-.79-3.6-1.86-4.11-3.1-2.63-6.38-4.34.51-8.41-10.74-1.03-2.85-.88-5.3-.26-8.3.39-1.87.04-4.2.29-6.17.18-1.37.3-2.61.38-3.97l.3-4.67c.09-1.4.08-2.83-.11-4.24-.27-2.03-.16-3.77-.11-5.74l.27-12.76.14-5.54c.07-2.94.02-5.83.24-8.76.23-3.04.09-5.89.05-8.93l-.08-5.39c-.04-2.54.43-5.35.97-7.82.44-2.03,1.41-3.88.08-5.91-2.81-4.28,1.71-4.1.77-9.28,1.32-2.64,2.68-6.31-.17-8.73-8.82-7.46-2.17-1.85-11.13-6.2-.68.62-1.49,1.34-2.05,1.34l-5.52-.04-2.23-2.22c1.5-3.08,4.87-.53,6.11-3.02.82-1.64-.68-3.03-2.01-3.57-1.29-.52-2.35-.72-3.45.3-.75.7-2.13.9-2.99,1.35-4.09,2.17-6.62,2.73-9.6,5.51-2.82,2.64-4.61,2.86-7.67,3.7l-4.13,1.14c-1.45.4-3.54,1.32-4.55,2.17l-3.47,2.89c-.61.51-2.17,1.26-2.39,2.01-.69,2.53-1.73,4.4-3.18,6.58-1,1.51-.84,3.94-1.38,5.67-.52,1.66-1.31,2.95-1.91,4.46l-1.96,4.95c-.34.86-1.32,1.77-1.52,2.65-.62,2.77-2.07,4.62-3.87,6.6l-2.71,2.97-1.18,2.36c-1.38,2.76-1.05,3.62-3.16,7.56l-2.98,5.57-2.83,5.25-2.38,4.47c-.4.76-.9,2.06-1.23,2.95l-1.2,3.17c-.43,1.13-1.06,2.4-1.4,3.51-.4,1.28-.69,2.3-1.16,3.51-2.65,6.8.41,7.18-4.65,8.77l-2.86.9-4.1,1.3c-3.92,1.24-6.81.33-12.96,2.51-1.13.4-2.21,1.83-3,2.89-.77,1.05-2.18,1.07-3.1,1.63l-2.89,1.77-4.98,4.16c-1.82,1.52-3.93,2.3-5.23,4.44-1.71,2.82-3.45,4.34-5.89,6.5l-4.39,7.1c-.85,1.38-.8,3.96.72,4.9.78.48,2.86.88,3.76.65,1.38-.77,3.81-1.69,4.76-2.62l3.64-3.6c1.62-1.6,2.61-3.91,5.84-6.33,1.5-1.12,2.11-2.77,3.05-4.44.66-1.17,2.54-1.92,3.52-2.84l2.19-2.06c4.09-1.07,4.38-3.63,7.42-4.02,1.6-.2,2.9-1.24,4.29-1.67l6.19-1.91,4.56-1.43c-.06,1.87.28,4.31-.18,5.96l-2.89,10.21-3.6,13.88c-.48,1.85-.63,8.58-.33,10.88.3,2.29.06,4.04-.26,6.32-.37,2.62-.4,5.42-.44,8.17l-.23,17.63c-.01.86-.3,1.67-.59,2.77-1.79-.42-4.79-6.81-4.92-8.05-.27-2.59-.37-4.98-.45-7.53-.09-2.71,1.2-6.6.03-7.18-.73-.36-2.72-.54-3.26.04-2.91,3.14-2.04,8.07-1.92,11.41.14,3.82.71,7.12,2.37,10.61.44.92.8,2.33,1.38,3.27,1.09,1.8,1.65,3.28,1.82,5.38.18,2.23.92,4.34,1.59,6.51,2,6.5.05,7.47-.61,9.74-.57,1.96-.84,3.84-1.78,5.81-.44.93-.95,2.34-1.2,3.3l-.75,2.93c-.18.7-.66,1.57-.89,2.24l-1.54,4.52c-.42,1.25-.87,2.14-1.38,3.36l-1.47,3.47c-1.81,4.25-6.5,3.82-10.05,2.67-8.36-2.7-4.43-7.44-10.72-8.44-.95-1.25-1.73-3.3-2.17-4.94-1.32-4.9-1.85-2.39-1.22-8.03.32-2.88,1.48-6.13,3.84-7.92,1.58-1.2,4.09-1.81,4.27-4.28.13-1.73-2.07-3.18-3.78-3.09-1.43.08-2.74.36-4,.49-1.42.15-2.59-.05-3.65,1.2l-1.78,2.09c-2.4,2.82-3.17,3.16-4.6,7.22-1.31,3.71-2.07,7.26-2.16,11.32-.02,1.17.69,2.71.79,4.01.09,1.27.27,2.22.56,3.35.88,3.52-.06,4.13,2.87,7.54,2.06,2.41,3.47,5.69,4.9,6.67l3.11,2.11c1.01.69,3.61.74,3.76,2.68.02.22.02.45.02.69,6.15,2.74,12.57,4.4,18.86,4.07,1.64-.41,3.48-.48,5.08-.77,1.31-.24,4.11-2.45,5.85-3.33,1.34-.67,2.66-.98,3.83-1.94.84-.69,1.54-1.62,2.3-2.3l3.2-2.87c1.09-.97,1.84-1.84,2.74-2.99l2.83-3.59c1.18-1.5,1.64-3.3,2.51-4.96l2.08-3.97,1.88-4.47,1.71-4.08c.46-1.11.85-6.29,1.19-8.6.63-4.2,1.43-6.85,1.58-10.24l.28-6.23.35-5.35.31-4.85c.13-2.01.23-3.76.01-5.76-.67-6.15.55-7.37.03-11.81-.12-1,.67-2.64.64-3.6-.19-5.98-.05-15.16,1.19-21.01.28-1.34-.05-3.13.15-4.51.34-2.3.76-4.45,1.24-6.71.31-1.47.38-2.79.59-4.4l.9-6.77c.28-2.07.74-3.85,1.97-5.55l.48-4.08c.12-.41,1.37-.87,1.75-.66.38.21.84,1.36.63,1.82l-1.88,4.22c.67,2.24.41,4.2-.26,6.46-.99,3.3-.06,7.86,1.52,7.09,1.73-.84,2.12-5.2,2.54-7.05.41-1.83.81-3.44.89-5.42.02-.37.5-1.16.86-1.16.35,0,.87.57,1.09.97l2.66,4.91c2.45,4.52,3.81,6.3,7.4,9.94,1.02,1.04,2.14,1.53,3.45,2.4,1.36.9,2.6,2.84,4.03,4.02.83.68,2.01,1.06,2.87,1.73l7.82,6.07c1.34,1.04,3.78.67,4.79,2.38.87,1.47.86,3.98.43,5.64-.63,2.43-.31,5.15-.47,6.94l-.49,5.34c-.18,1.95.04,3.78-.11,5.73l-.57,7.11c-.12,1.52-.15,2.9-.18,4.33l-.11,5.29-.09,4.59-.14,3.66-.31,5.32c-.05.8.06,1.9.08,2.85.02.74-.41,1.78-.46,2.5-.48,6.11-.32,10.68,1.17,16.48.77.36,3.23.46,3.65-.36.52-1.02,1.17-2.57,1.56-3.61l-1.49-4.21c.56-2.38.48-4.48.4-6.85-.08-2.3.55-4.94.09-7.14-.4-1.91-.73-3.14-.33-5.11.35-1.7-.09-3.81.16-5.59.32-2.24.23-4.27.23-6.46,0-3.84.46-7.05.43-9.95-.03-2.57.08-4.96.26-7.49l.36-5.01c.1-1.46,0-3.13.24-4.52.62-3.56.38-5.33,1.23-6.45.21-.28,1.49.05,1.5.44.06,2.02.03,5.06-.12,7.12l-.4,5.82-.11,6.72c-.07,4.12-.67,2.92-.65,9.02l.02,7.52-.03,4.36-.18,7.1c-.09,3.53.3,6.36.23,8.78-.06,2.05,0,3.88-.04,5.92l-.1,5.25c-.03,1.41,1.87,10.26-2.06,11.46-4.54,1.38-9.07,2.92-13.26,5.03-6.34,3.19-9.78,2.48-12.93,6.32-.85,1.04-2.97,3.17-1.97,5.08.83,1.57,3.93,1.18,5.59,1.06,1.32-.1,3.05-.18,4.23-.37.47-.08,1.26-1.06,1.68-.95s1.14.48,1.66.79c4.04-2.3,7.83-1.45,13.45-2.78,1.89-.45,7.66-.92,9.65-.55l1.15-.42c3.12.41,6.2.85,9.39.47,1.11-.13,2.48-1.12,3.53-1.39,1.15-.3,2.08-.75,2.65-1.54,1.17-1.6,2.4-.03,3.58.22,1.74.38,4.03,1.13,5.58,1.15l5.5.1c2.92.05,4.99-.18,7.01-1.78,2.39-1.9,5.16-3.5,6.64-6.37,1.07-2.09,2.87-2.52,3.05-6.29.09-1.84-1.8-3.1-2.92-3.69-1.81-.96-3.32.3-4.89.9-7.85,2.97-6.29,1.24-10.88,2.2-2.16.45-4.85.78-6.96.7-.48-.02-1.43-.89-1.66-1.3-.17-.31.68-6.59-.1-9.6-.45-1.74-1.28-2.96-1.17-4.87.08-1.41-.11-2.91-.11-4.27,0-6.27-1.11-3.98-.22-9.01.23-1.31-.59-3.25-.6-4.58-.06-8.72-1.21-7.96-.65-17.85.02-.36.95-1.02.84-1.31l-.47-1.24-.98-2.62c-.61-1.63.05-3.69-.02-5.39l-.25-5.85c3.29-1.83,2.25.55,7.99.68,1.82.04,3.49-.07,5.27-.13l2.88-.09,6.03-.16c2.44-.07,6.28-1.92,9.58-2.96.76-.24,1.85-.99,2.47-1.57,2.43-2.26,9.7-4.85,12.02-9.76l1.25-2.64,2.17-3.27,1.37-2.16c.81-1.28,1.32-2.46,1.94-3.81l2.34-5.13c.48-1.05,1.15-2.08,1.28-3.32l.69-6.37-.24-5.61ZM213.41,76.7c.54-.67,1.86-.44,2.22.11.35.55.41,2.23-.36,2.34-.83.12-1.74.06-2.52-.05.03-.72.26-1.9.65-2.4ZM236.79,150.42c-.47.9-2.99.61-3.49-.21-1.04-1.72-3.44-2.44-4.89-3.64l-4.87-4.05-3.53-3.19c-.84-.76-1.63-1.4-2.48-2.2l-2.94-2.76c-1.48-1.4-2.8-2.94-3.19-5.08l-1.21-1.95c.11-.78,1.77-.98,2.24-.52,1.41,1.38,2.86,1.77,4.56,2.39l6.26,2.27c1.31.48,2.75,1.93,4.07,2.5,1.88.82,9.91,4.78,9.96,6.24.14,3.48.15,6.8-.51,10.21ZM245.6,72.45l-3.23,4.19-.46,6.3c-.28,3.83.68,9.37.22,12.7l-.68,5.04c-.24,1.76-.11,3.75-.29,5.55l-.35,3.64-.37,3.91c-.09.96-.1,1.94-.13,2.9l-.17,5c-1.05,1.13-3.56-.42-5.14-1.54l-3-2.11c-2.89-2.03-6.48-3.02-10.07-3.94-2.16-1.42-4.48-1.87-7.06-2.47l-5.49-1.27c-1.17-.27-2.11-1.29-1.62-2.63,1.06-2.87,2.18-5.7,3.72-8.42.77-1.36,2.52-2.45,3.54-3.53l1.78-1.88c.75-.79,1.05-1.77,1.47-2.81l2.57-6.27c6.89-4.59,2.97-7.02,8.94-9.36,1.68-2.29,3.69-4.39,6.26-5.69.53-2.68,3.02-3.05,4.83-4.26,1.27-.85,1.95-2.1,3.89-2.2.88-.04,1.84-.14,2.34.49,1.87,2.37-2.2,3.54-1.5,8.64ZM249.27,35.19c-3-2.04-3.86-1.31-4.52-2.51-.1-.18.42-.69.63-.72l2.59-.33c.65-.08,1.38-.15,1.79-.09.48.06,1.3,1.17,1.27,1.65l-1.77,2ZM257.45,234.64c-1.62-.31-2.5-1.96-2.96-3.27-.9-.26-2.04-.9-2.56-1.79-1.38-2.37.75-6.76,2.34-8.41l1.14,2.93c3.42,4.4.97,5.7,2.28,7.92l.81,1.37c.18.31-.64,1.33-1.04,1.25ZM264.34,161.45c1.41-1.79,3.95.35,5.25,1.18l2.58,1.64c-1.17,2.71-9.17-.05-7.83-2.82ZM307.08,133.95l-.87.47c-1.5.81-.14-3.68-1.8-5.73-.96-1.19-2.69-1.56-4.08-1.91l-.93-1.98c1.24-1.41,2.88-.22,5.59-.93,1.81,1.01,1.35,3.7,2.23,5.18.56.93,1.05,1.52,1.01,2.57-.04,1.11-.24,1.83-1.15,2.32Z"/>
      <path class="cls-1" d="M257.45,234.64c-1.62-.31-2.5-1.96-2.96-3.27-.9-.26-2.04-.9-2.56-1.79-1.38-2.37.75-6.76,2.34-8.41l1.14,2.93c3.42,4.4.97,5.7,2.28,7.92l.81,1.37c.18.31-.64,1.33-1.04,1.25Z"/>
      <path class="cls-1" d="M249.27,35.19c-3-2.04-3.86-1.31-4.52-2.51-.1-.18.42-.69.63-.72l2.59-.33c.65-.08,1.38-.15,1.79-.09.48.06,1.3,1.17,1.27,1.65l-1.77,2Z"/>
      <path class="cls-1" d="M215.28,79.15c-.83.12-1.74.06-2.52-.05.03-.72.26-1.9.65-2.4.54-.67,1.86-.44,2.22.11s.41,2.23-.36,2.34Z"/>
    </g>
  </g>
</svg>