<?xml version="1.0" encoding="UTF-8"?>
<svg id="Layer_2" data-name="Layer 2" xmlns="http://www.w3.org/2000/svg" viewBox="0 0 432 288">
  <defs>
    <style>
      .cls-1 {
        fill: #fff;
      }
    </style>
  </defs>
  <path class="cls-1" d="M4.54,287.16V-.84h432v288H4.54ZM232.81,138.91l-.69-.44,1.02-4.87c1.26,1.32,1.33,2.93,1.5,4.62.13,1.25.33,2.59.33,3.81,0,.69-.05,1.33,0,1.97l.22,2.45c.15,1.71.41,6.29,2.14,6.48,2.16.24,1.17-4.98.86-6.31-.1-.44.3-1.34.29-1.77l-.06-3.24c.7-.05,1.31-.06,1.45-.33.12-.22.26-.79.28-1.05l.21-2.49c.28-3.25,1.24-8.22,2.07-11.59.89.82.4,1.64.36,2.56l-.17,4.46c-.05,1.36-.02,2.55,0,3.9l.15,9.06.27,2.36.31,7.3.27,3.28.18,4.09.06,1.7.23,2.87.23,2.91.14,6.42.18,2.44c.24,3.25.8,6.31,1.51,9.51.12.54,1.36.8,1.59.37,1.11-2.18.11-4.41.17-6.6l.12-4.03c.05-1.75.36-3.56.62-5.32.22-.47.27-.47.26,0l.09,5.11.18,1.9c.17,1.8.22,3.38.63,5.14.28,1.18.16,2.98.16,3.82l.02,14.78v3.17c.03,2.67,1,7.75,1.54,10.53.07.38,1.04.64,1.32.47,1.7-1.03,1.14-4.53,1.54-5.95.31-1.09,2.01-4.57.97-6.26-.16-.29-.04-.72.23-.38l.43.59c.04.06.29-.18.38-.25l1.38-1.02c.23,2.9-.14,4.25,0,6.57.08,1.27.04,2.47-.02,3.78-.05,1.21.21,2.57.3,3.86l.19,2.9.24,3.6.14,5.01.18,2.72c.12,1.87.1,3.91,1.6,3.99.26.01.5-.42.74-.73.63-.84.42-1.46.36-2.42-.11-1.86-.2-5.69.07-7.43l.09-.54c.01-.08.08-.04.37.02.66,1.24.15,2.62.23,3.94l.18,2.87.25,3.36.17,3.36.15,3.35.23,4.44.2,8.64.23,4.57c.01.24.29.95.07,1.04l-.96.41c.16.82.55,1.91.85,2.88s.27,2.25.7,3.17c.46.99.55,1.83.52,2.9l-.13,4.82c-.04,1.44-.39,2.93,0,4.36.72.44,2.24.38,2.68-.18,1.06-1.33.21-2.67.12-4.05-.16-2.41-.16-4.83.01-7.23.12-1.62.24-3.26.02-4.87-.11-.76-.54-1.62-.37-2.43.85-4-.72-3.61.36-8.92l.38-1.87c-.04-.39.17.03.35.37l.39,4.21.33,3.1c.06.56-.86,1.82-.22,2.2,1.14.68,2.07,1.58,2.5,1.07.61-.72.05-3.11-.07-3.89l-.53-3.45-.87-5.27-.74-5.3c-.23-1.64-.24-3.17.03-4.82l-.21-1.85c.38-2.12.54-4.07.62-6.14l.2-5.27.53-5.4c.27-2.74.1-5.4.03-8.16-.02-.91-.54-1.95-.62-2.91-.16-1.82-.64-3.93-1.94-5.23-1.75-1.74-3.54,2.82-4.13,3.8-2.66,4.47-.74,4.94-2.27,7.76-.38-1.53.36-2.83.5-4.23l.73-7.46.2-5.1c.02-.55.1-1.08.02-1.59-.29-1.75.09-3.43.05-5.17-.01-.63-.63-5.69-1.15-6.23-.31-.31-1.28-.27-1.94-.3.06-1.78,1.36-1.85.96-3.88l-1.59-.43.26-3.83c.08-1.12.5-2.36.73-3.51.54-2.71-.11-5.47-.49-8.2-.24-1.72-.39-3.48-1.05-5.03-1.27-2.99-1.25-2.9-3.26-5.42l-2.12-.32c-1.07.99-1.84,2.12-2.45,3.39l-2.4,5.01c-.05-1.09-.08-2.23,0-3.4l.26-3.85.24-3.58.18-3.36.13-3.36.45-8.4c.12-2.13.17-4.1.27-6.32l.21-4.65c.03-.74.23-1.11.03-1.83-.44-1.55.22-3.23-.34-4.8-.4-1.14-2.79-2.66-4.77-1.98-2.04,1.52-2.14,3.79-3.22,4.63-.06.05-.18.04-.19-.04s-.05-.59-.01-.76c.58-2.71.66-6.44.81-9.38l.22-4.36.11-2.15-.04-2.91c-.04-2.63.48-7.62-1.48-10.13-2.55-1-5.36,2.83-6.33,4.91l-1.56,1.49c-.07.07-.39.16-.49.19s-.05-.3-.03-.44l.32-3.02.18-3.01c.11-1.83.37-3.49.47-5.33l.26-4.75c.11-1.98.18-3.66-.22-5.58-.57-2.71.87-5.7-1.54-6.4-1.53-.44-3.26,1.69-4.41,2.46-1,.66-1.9,1.2-2.83,2l-.35.3c-.06.05-.02-.44-.05-.52l-.51-1.44c-.03-2.08.71-4.14.85-6.19l.27-4.31.24-3.38c.04-.58.23-1.37.25-1.91.07-2.51.11-4.9-.04-7.37-.16-2.72-2.7-4.76-5.37-4.27-.51.09-1.42.96-1.6,1.48-.44,1.23-1.19,2.8-2.56,3.16.14-.8.24-1.47.37-2.04l.54-2.36c.59-2.57-.44-.93.91-6.71.49-2.12-.98.16-.12-5.61.33-2.2.32-4.18-.13-6.31l-.52-2.41c-.2-.94-.7-1.7-1.47-2.1-2.1-1.09-4.23,1.66-5.72,3.2-.2.21-1.86,2.73-1.98,3.4h-.45c-.37-3.93.51-4.09.52-7.81v-3.98c0-4.95.85-4-.81-8.95-.23-.69-.83-1.76-1.59-1.97-1.2-.33-3.2-.38-4.16.53-1.16,1.11-2.21,2.57-2.94,3.96l-1.23,2.35-.7-2.83c-.22-.88-.75-3.78-1.84-4.12-1.48-.47-3.82,1.87-4.66,2.94-.69.88-1.07,2.14-1.7,3.07-1.21-.36-2.2.11-2.5,1.18,1.6,3.43.18,8.72-1.12,12.29-.55,1.49,1.53.82,1.1,2.45l-2.13,7.97-.84,3c-.2.73-.51,1.31-1.05,1.96l1.23.97.66-.08c.47-.06.09,2.43.1,2.75l.1,2.68c.08,2.03.04,4.05.41,6.05.61.44,1.72.64,2.41.29.6-.31.52-1.42.32-2.01-.29-.84-.22-1.64-.12-2.48l.47-3.83c.06-.47,0-1.35.03-1.92l.19-5.17c.14-3.8-.7.34-.12-5.55l.41-4.15c.11-1.14.29-2.11.64-3.19l.84-2.58c.08-.16.26-.48.24-.38-.02.07.37.45.36.59l-.68,5.4c-.2,1.62-.06,3.16-.16,4.77l-.21,3.37c-.1,1.57-.3,3.1-.29,4.63l.13,12.85.04,1.95.16,9.58.4,3.9.07,15.5c0,.36.23,1.03.51,1.12s.96.08,1.46.05c.45-1.19.43-2.52.39-3.8l-.11-3.14-.16-4.77c-.02-.58-.12-1.2,0-1.72.46-1.94-.21-4.18-.55-5.99-.26-1.41-.05-3.06-.13-4.52-.07-1.15.59-1.94,1.64-2.2l.24-1.96c.61.69.51,1.32.41,2.1-.2,1.51,0,3.03.02,4.59l.23,16.05.2,8.29.16,3.35c.06,1.16.09,2.23.19,3.35l.21,2.4c.34,3.83.71,5.76,1.05,9.59l.47,5.3,1.12,9.37c.31,2.55.46,6.27.24,8.81l-.23,2.66c-.14,1.54-.25,3.02,0,4.56l.99,5.92c.05.28.43.92.25,1.07l-.68.57c.66.43,1.29,1.32,1.22,2.24l-.18,2.36c-.02.25.51.72.7.59.16-.11.46-.56.44-.8l-.21-4.02c-.05-.85-.25-1.88-.2-2.58.07-1.22.28-2.18.07-3.34-.22-1.23-.41-2.69-.44-3.86.8-1.06,1.17-2.02.85-3.31-.25-1.02,0-2.18.07-3.26.12-1.65.08-3.31-.01-4.95l-.1-1.82c-.13-2.46-.17-4.88.16-7.35l.37-2.71c.55.86.6,1.86.61,2.94l.07,6.66c0,.7.02,1.33,0,2.04-.16,5.97-.17,9.54.24,15.53l.54,7.9.43,6.49.2,2.39.25,3.13c.06.8.16,1.75.31,2.51l.74,3.65c.56,2.76.97,5.38,1.16,8.2l.2,2.89.23,2.62.2,2.44c.13,1.57.34,3.09.56,4.66l1.06,1.29.21,4.32c.23,4.66-.25,5.74-.21,10.02,1.47-.73,1.06-1.85,1.27-3.11l1.6-.32.1-5.13c.02-.75.19-1.55.32-2.46.51,1.85.79,4.88.88,7.02l.24,5.29c.04.82.15,1.77.26,2.59l.5,3.77c.39,2.96.78,5.78,1.35,8.74s1.6,5.84,1.81,8.84c.08,1.12.16,1.85.66,2.75.4.73.2,1.78,1.52,1.94l-.63.81c-.11.14.11.47.41.8l.41-1.46c.15-.51.66-1.3.95-1.8,1.46.77,1.42,1.96,1.61,3.21l.93,6,.91,5.26c.48,2.78.69,5.48,1.19,8.21.36,1.98.79,3.93.95,5.93.11,1.37.23,2.57.42,3.93.12.87.1,1.87.18,2.78l.23,2.67c.11,1.28.43,2.5.67,3.84.26,1.44,1.71.36,1.75,1.58.03.86.49,1.44,1.28,1.55,2.17.32,1.46-3.52,1.3-4.81-.32-2.48-.15-4.82-.12-7.29l.15-12.79c.04-3.78.38-1.85.28-4.94l-.19-6.09-.74-6.4c-.54-4.68.18-8.85-1.49-12.93-.51-1.25-.69-3.04-1.74-3.99-1.27-1.15-3.61-.54-4.35.82-.39.71-.61,1.05-1.1,1.66-.25-.93-.29-1.44-.32-2.24l-.11-3.13-.07-2.14-.21-3.6-.18-11.39-.22-5.86-.05-3.12c-.02-1.15,0-2.23.05-3.38l.14-3.36.05-2.38.05-3.8c.01-.99.07-1.99-.03-2.98l-.52-4.99c-.26-2.43.19-4.98-.69-7.31l-.94-2.47c-.25-.67-1.61-.11-2.12.09-3.7,1.41-2.52,4.85-4.65,6.9-.33-3.38.34-2.88.02-5.86-.45-4.2.35-2.81.18-5.65l-.15-2.55c-.1-1.68-.46-3.48-.72-5.13.37-.53.61-1.24.72-1.95l.98-6.09.93-.42c.2-.09.45.6.49.87l.74,4.18c.34,1.94.25,4.05.57,5.96l.69,4.13c.15.9.15,2.15.72,2.89.39.37,1.78.23,2.13-.03l.27-3.14c.07-.83-.5-1.73.01-2.57.32.69.59,1.52.92,1.91.35.43,1.95.13,2.12-.39.23-.71.04-1.99-.05-2.77l-.18-1.67c-.16-1.48-.13-2.84.02-4.34l-.09-1.48c.36.33.32.7.39,1.25l.89,7.49c.1.81.09,1.66.13,2.58.83.55,2.44.31,2.79-.74.11-.33-.07-1.34.23-1.49l1.16-.58c.16-1.04,0-2.32-.06-3.45l-.2-3.52c-.25-4.48.22-5.15.1-7.14,0-.16.7-.11.76.06.43,1.33.64,3.87.8,5.45l.33,3.24.21,2.64.24,3.12.25,3.13.21,2.21c.93.52,2.51.11,2.74-.98.4-1.89.24-5.96-.1-7.84-.27-1.49-.15-3.21-.12-4.74l1.18-.27-.34-2.58Z"/>
  <path d="M232.81,138.91l.34,2.58-1.18.27c-.02,1.53-.15,3.25.12,4.74.34,1.88.51,5.95.1,7.84-.23,1.09-1.82,1.5-2.74.98l-.21-2.21-.25-3.13-.24-3.12-.21-2.64-.33-3.24c-.16-1.58-.37-4.13-.8-5.45-.06-.18-.77-.22-.76-.06.11,1.99-.35,2.66-.1,7.14l.2,3.52c.06,1.13.22,2.4.06,3.45l-1.16.58c-.3.15-.12,1.16-.23,1.49-.35,1.05-1.96,1.29-2.79.74-.04-.92-.03-1.76-.13-2.58l-.89-7.49c-.07-.55-.02-.92-.39-1.25l.09,1.48c-.15,1.5-.18,2.86-.02,4.34l.18,1.67c.08.78.28,2.06.05,2.77-.17.52-1.76.82-2.12.39-.33-.4-.6-1.22-.92-1.91-.51.84.06,1.75-.01,2.57l-.27,3.14c-.35.26-1.74.4-2.13.03-.58-.73-.58-1.99-.72-2.89l-.69-4.13c-.32-1.91-.22-4.03-.57-5.96l-.74-4.18c-.05-.27-.3-.96-.49-.87l-.93.42-.98,6.09c-.11.71-.35,1.42-.72,1.95.26,1.64.62,3.44.72,5.13l.15,2.55c.17,2.84-.63,1.45-.18,5.65.32,2.98-.35,2.48-.02,5.86,2.13-2.05.95-5.49,4.65-6.9.51-.2,1.87-.76,2.12-.09l.94,2.47c.89,2.33.44,4.88.69,7.31l.52,4.99c.1.99.05,1.98.03,2.98l-.05,3.8-.05,2.38-.14,3.36c-.05,1.15-.07,2.23-.05,3.38l.05,3.12.22,5.86.18,11.39.21,3.6.07,2.14.11,3.13c.03.81.07,1.32.32,2.24.49-.61.71-.95,1.1-1.66.74-1.36,3.08-1.97,4.35-.82,1.05.95,1.23,2.74,1.74,3.99,1.67,4.09.95,8.26,1.49,12.93l.74,6.4.19,6.09c.09,3.09-.24,1.16-.28,4.94l-.15,12.79c-.03,2.48-.2,4.81.12,7.29.17,1.3.88,5.13-1.3,4.81-.78-.11-1.24-.69-1.28-1.55-.04-1.23-1.49-.15-1.75-1.58-.24-1.34-.56-2.56-.67-3.84l-.23-2.67c-.08-.9-.05-1.91-.18-2.78-.19-1.36-.31-2.56-.42-3.93-.16-2-.58-3.95-.95-5.93-.5-2.74-.71-5.43-1.19-8.21l-.91-5.26-.93-6c-.19-1.25-.15-2.44-1.61-3.21-.29.5-.81,1.29-.95,1.8l-.41,1.46c-.3-.34-.52-.66-.41-.8l.63-.81c-1.33-.16-1.12-1.21-1.52-1.94-.5-.9-.58-1.62-.66-2.75-.21-2.99-1.24-5.87-1.81-8.84s-.96-5.79-1.35-8.74l-.5-3.77c-.11-.82-.22-1.77-.26-2.59l-.24-5.29c-.1-2.14-.37-5.16-.88-7.02-.13.92-.31,1.71-.32,2.46l-.1,5.13-1.6.32c-.21,1.26.21,2.38-1.27,3.11-.04-4.28.44-5.36.21-10.02l-.21-4.32-1.06-1.29c-.22-1.57-.43-3.08-.56-4.66l-.2-2.44-.23-2.62-.2-2.89c-.19-2.82-.6-5.44-1.16-8.2l-.74-3.65c-.15-.76-.25-1.71-.31-2.51l-.25-3.13-.2-2.39-.43-6.49-.54-7.9c-.41-5.99-.4-9.55-.24-15.53.02-.71,0-1.34,0-2.04l-.07-6.66c-.01-1.08-.06-2.08-.61-2.94l-.37,2.71c-.34,2.47-.3,4.89-.16,7.35l.1,1.82c.09,1.63.13,3.3.01,4.95-.08,1.08-.32,2.24-.07,3.26.32,1.29-.05,2.25-.85,3.31.03,1.17.22,2.64.44,3.86.21,1.16,0,2.11-.07,3.34-.04.7.16,1.73.2,2.58l.21,4.02c.01.24-.29.69-.44.8-.19.14-.72-.34-.7-.59l.18-2.36c.07-.93-.56-1.81-1.22-2.24l.68-.57c.18-.15-.2-.79-.25-1.07l-.99-5.92c-.26-1.55-.14-3.02,0-4.56l.23-2.66c.22-2.54.07-6.26-.24-8.81l-1.12-9.37-.47-5.3c-.34-3.83-.71-5.76-1.05-9.59l-.21-2.4c-.1-1.13-.13-2.2-.19-3.35l-.16-3.35-.2-8.29-.23-16.05c-.02-1.55-.23-3.08-.02-4.59.11-.78.21-1.41-.41-2.1l-.24,1.96c-1.05.26-1.7,1.05-1.64,2.2.09,1.46-.13,3.11.13,4.52.34,1.82,1,4.06.55,5.99-.12.52-.03,1.14,0,1.72l.16,4.77.11,3.14c.05,1.28.07,2.61-.39,3.8-.49.03-1.17.04-1.46-.05s-.51-.76-.51-1.12l-.07-15.5-.4-3.9-.16-9.58-.04-1.95-.13-12.85c-.02-1.53.19-3.06.29-4.63l.21-3.37c.1-1.61-.04-3.14.16-4.77l.68-5.4c.02-.14-.37-.52-.36-.59.03-.11-.16.22-.24.38l-.84,2.58c-.35,1.08-.53,2.06-.64,3.19l-.41,4.15c-.58,5.88.26,1.74.12,5.55l-.19,5.17c-.02.56.03,1.45-.03,1.92l-.47,3.83c-.1.83-.17,1.64.12,2.48.2.59.29,1.7-.32,2.01-.69.35-1.8.15-2.41-.29-.37-2-.33-4.01-.41-6.05l-.1-2.68c-.01-.33.36-2.81-.1-2.75l-.66.08-1.23-.97c.54-.65.84-1.23,1.05-1.96l.84-3,2.13-7.97c.43-1.63-1.64-.96-1.1-2.45,1.3-3.57,2.71-8.85,1.12-12.29.31-1.07,1.29-1.54,2.5-1.18.63-.93,1.01-2.19,1.7-3.07.84-1.06,3.18-3.41,4.66-2.94,1.09.35,1.62,3.24,1.84,4.12l.7,2.83,1.23-2.35c.73-1.39,1.78-2.85,2.94-3.96.96-.92,2.96-.87,4.16-.53.76.21,1.36,1.28,1.59,1.97,1.66,4.96.82,4.01.81,8.95v3.98c0,3.72-.88,3.88-.52,7.8h.45c.12-.67,1.77-3.18,1.98-3.39,1.5-1.54,3.63-4.29,5.72-3.2.77.4,1.27,1.17,1.47,2.1l.52,2.41c.46,2.12.46,4.1.13,6.31-.86,5.77.62,3.49.12,5.61-1.35,5.78-.33,4.14-.91,6.71l-.54,2.36c-.13.57-.23,1.24-.37,2.04,1.37-.37,2.12-1.93,2.56-3.16.18-.51,1.09-1.38,1.6-1.48,2.67-.49,5.2,1.56,5.37,4.27.15,2.47.11,4.86.04,7.37-.02.55-.21,1.33-.25,1.91l-.24,3.38-.27,4.31c-.13,2.05-.88,4.11-.85,6.19l.51,1.44c.03.08-.01.57.05.52l.35-.3c.93-.8,1.83-1.34,2.83-2,1.16-.77,2.88-2.91,4.41-2.46,2.41.7.98,3.69,1.54,6.4.4,1.92.33,3.6.22,5.58l-.26,4.75c-.1,1.85-.36,3.5-.47,5.33l-.18,3.01-.32,3.02c-.01.14-.06.47.03.44s.42-.13.49-.19l1.56-1.49c.98-2.08,3.78-5.91,6.33-4.91,1.96,2.51,1.44,7.5,1.48,10.13l.04,2.91-.11,2.15-.22,4.36c-.15,2.95-.22,6.67-.81,9.38-.04.17,0,.69.01.76s.13.09.19.04c1.08-.84,1.18-3.11,3.22-4.63,1.98-.68,4.37.84,4.77,1.98.56,1.57-.1,3.25.34,4.8.2.72,0,1.09-.03,1.83l-.21,4.65c-.1,2.22-.15,4.18-.27,6.32l-.45,8.4-.13,3.36-.18,3.36-.24,3.58-.26,3.85c-.08,1.17-.05,2.3,0,3.4l2.4-5.01c.61-1.27,1.38-2.4,2.45-3.39l2.12.32c2.01,2.52,1.99,2.43,3.26,5.42.66,1.55.81,3.31,1.05,5.03.38,2.73,1.03,5.49.49,8.2-.23,1.16-.66,2.39-.73,3.51l-.26,3.83,1.59.43c.39,2.03-.9,2.09-.96,3.88.66.03,1.63,0,1.94.3.52.54,1.14,5.6,1.15,6.23.03,1.74-.34,3.42-.05,5.17.08.51,0,1.04-.02,1.59l-.2,5.1-.73,7.46c-.14,1.4-.88,2.7-.5,4.23,1.54-2.83-.38-3.29,2.27-7.76.59-.99,2.38-5.55,4.13-3.8,1.3,1.3,1.78,3.41,1.94,5.23.08.96.6,2,.62,2.91.06,2.76.23,5.42-.03,8.16l-.53,5.4-.2,5.27c-.08,2.07-.24,4.02-.62,6.14l.21,1.85c-.27,1.65-.26,3.18-.03,4.82l.74,5.3.87,5.27.53,3.45c.12.78.69,3.17.07,3.89-.43.51-1.36-.38-2.5-1.07-.64-.38.28-1.64.22-2.2l-.33-3.1-.39-4.21c-.18-.34-.39-.76-.35-.37l-.38,1.87c-1.08,5.31.49,4.92-.36,8.92-.17.81.26,1.67.37,2.43.22,1.6.1,3.25-.02,4.87-.18,2.4-.18,4.82-.01,7.23.09,1.37.94,2.72-.12,4.05-.45.56-1.96.61-2.68.18-.39-1.43-.04-2.92,0-4.36l.13-4.82c.03-1.07-.07-1.91-.52-2.9-.42-.92-.39-2.18-.7-3.17s-.69-2.05-.85-2.88l.96-.41c.22-.09-.06-.8-.07-1.04l-.23-4.57-.2-8.64-.23-4.44-.15-3.35-.17-3.36-.25-3.36-.18-2.87c-.08-1.32.43-2.69-.23-3.94-.29-.06-.36-.1-.37-.02l-.09.54c-.27,1.74-.18,5.57-.07,7.43.06.95.26,1.58-.36,2.42-.24.32-.48.75-.74.73-1.5-.08-1.48-2.12-1.6-3.99l-.18-2.72-.14-5.01-.24-3.6-.19-2.9c-.09-1.29-.35-2.64-.3-3.86.06-1.31.1-2.51.02-3.78-.14-2.32.24-3.68,0-6.57l-1.38,1.02c-.09.07-.34.31-.38.25l-.43-.59c-.27-.34-.39.09-.23.38,1.04,1.69-.66,5.17-.97,6.26-.4,1.41.16,4.92-1.54,5.95-.28.17-1.25-.09-1.32-.47-.54-2.78-1.51-7.86-1.52-10.53v-3.17s-.03-14.78-.03-14.78c0-.85.11-2.64-.16-3.82-.41-1.75-.46-3.33-.63-5.14l-.18-1.9-.09-5.11c0-.47-.04-.47-.26,0-.25,1.76-.56,3.58-.62,5.32l-.12,4.03c-.07,2.19.94,4.43-.17,6.6-.22.43-1.47.18-1.59-.37-.71-3.2-1.27-6.26-1.51-9.51l-.18-2.44-.14-6.42-.23-2.91-.23-2.87-.06-1.7-.18-4.09-.27-3.28-.31-7.3-.27-2.36-.15-9.06c-.02-1.35-.05-2.55,0-3.9l.17-4.46c.03-.93.53-1.75-.36-2.56-.83,3.38-1.79,8.34-2.07,11.59l-.21,2.49c-.02.26-.17.83-.28,1.05-.14.26-.75.27-1.45.33l.06,3.24c0,.43-.39,1.33-.29,1.77.31,1.33,1.3,6.55-.86,6.31-1.73-.19-1.99-4.77-2.14-6.48l-.22-2.45c-.06-.64,0-1.28,0-1.97,0-1.22-.2-2.56-.33-3.81-.17-1.7-.24-3.3-1.5-4.62l-1.02,4.87.69.44ZM195.79,44.87c.85-.9,2.72-1.56,3.84-1.21l1.72.55c-.1-1.5-.22-2.72-.18-4.07l.14-4.26.22-2.66.24-2.64.24-2.89.26-4.56.24-3.82.23-2.87c.09-1.18.26-2.04.06-3.34-.71.84-1.01,1.36-1.39,2.11l-1.13,2.24c-1.34,2.64-2.31,5.71-3.04,8.66l-.88,3.57-1.28.69c-.48,1.51.49,3.13.22,4.48-.26,1.27-.38,2.37-.48,3.6l-.39,4.53c-.11,1.24-.15,2.29-.06,3.61.79-.59.89-1.11,1.45-1.71ZM194.5,19.35l-.03-3.05c-.91.46-1.01.96-.96,1.71.03.43.44.91.99,1.34ZM227.3,92.66l.16-6.18c.04-1.36.19-2.54-.02-3.91-.42-2.8.54-3,.04-5.12l-1.74,4.25c-.87,2.13-1.36,4.4-2.02,6.63-.87,2.93-1.19,5.77-1.49,8.86-.4.57-1.35,1.13-2.04,1.52l-.07,6.69c0,.55-1.34,1.39-1.84,1.16-.59-.27-.9-1.35-.87-1.98.09-1.65.08-3.16.06-4.85-.02-1.32.07-2.74.12-4.15l.08-2.16.09-2.9.17-3.11.14-3.27.09-2.27.24-4.76.41-6.01.53-6.72.16-6.45.12-2.47c.01-.25-.1-.57-.31-.94-3.25,4.04-.9,5.56-3.62,7.15l-.47,3.65c-.08.65-1.67.83-2.14.75l-.95,6.07c-.33,2.08-.22,4.21-1.07,6.22-.17.41-.7.96-.97,1.43-.33.58-1.73,1.33-2.12.37-.62-1.53-.26-3.52-.08-5.19l.78-7.24.28-4.06.15-3.12.18-3.82.25-3.61.25-2.88.21-2.17.21-5.14.19-7.49.18-2.99c-1.26,0-1.54,1.1-1.9,2.01-.93,2.39-1.58,4.67-1.94,7.15-.19,1.25-.69,2.39-1.66,3.17-.65,2.43-1.52,4.78-1.65,7.33-.03.56.58,1.56.45,2.18-1.28,6.19,1.16,5.43.29,7.04-.52.97-.53,1.96-.63,3.05-.13,1.5-.45,2.93.35,4.29-.32,1.77-.8,3.55-.91,5.29l-.5,7.67-.15,5.7c-.02.66-.09,1.21-.02,1.84.31,2.79-.22,1.8.17,5.15.49,4.19-.52,2.4.22,4.59,1.3-1.72,4.17-1.45,5.13-.37.82.92.96,2.55,1.19,3.77l.72,3.85c.13.7.11,8.72,0,10.14l-.26,3.59c-.07.99-.23,1.38.62,2.1l-.17,2.35-.15,3.32-.25,2.65c-.12,1.32.02,4.24.58,5.64,1.32-1.62,1.03-4.49,2.51-4.69.61-.08,1.44.08,1.68.52,2.66,4.85.09,4.55,2.92,6.54.06-.65.1-1.33.24-1.78l1.98-6.21c.15-.46.98-1.02,1.4-1.13s1.36.37,1.51.81l1.62,4.54c1.24-2.22-.21-1.93,2.33-4.27.07-2.41.15-4.92.02-7.32l-.11-2.04c-.2-3.57-.2-7.1,0-10.67l.31-5.43.2-4.9c.05-1.19.49-5.03.55-7.25ZM203.54,42.55c.26-2.51.67-4.87,0-6.96-.03-.08-.37.36-.37.44l-.05,5.23c0,.62-.62,1.18.42,1.28ZM197.4,109.77c-.03-.34.46-1.1.54-1.43l.91-3.95c.07-.31-.35-.85-.65-1.06.2-2.05.13-4.36.07-6.47l-.07-2.31-.15-6.89-.23-3.36-.18-2.64-.17-2.43c-.12-1.7.04-3.48-.21-5.14-.14-.94-.08-1.66-.21-2.54l-.79-5.26-.11-5.38c0-.32-.54-.95-.79-.85-.27.11-.66.61-.65.95l.16,5.19.22,4.19.12,3.41v11.91c0,.58-.05,1.14-.03,1.7l.13,3.59.24,3.36.22,3.13.43,5.03.63,6.26c.13,1.27.22,2.41.46,3.76.76-.91.2-1.75.12-2.78ZM231.78,74.7c-.06-.99-.62-1.07-1.16-.98-.33.05-.76.52-.92.93l2.08.05ZM220.12,87.46l.9-4.09c.22-1-.05-1.9-.24-2.89-.15-.8.88-2-.53-2.57l-.24,3.77-.12,5.06c0,.13-.16.67-.19.78-.02.08.15.01.42-.07ZM201.77,100.04c.28-2.76.2-5.15.1-7.63l-.4,2.44c.06,1.75-.28,3.43.29,5.19ZM233.21,127.09c.53-.33,1.72-.94,1.73-1.51l.04-2.12c-3.09-.71-.18-2.67.01-6.58.12-2.37.11-4.72-.05-7.05l-.23-3.37c-.02-.26-.52-.74-.74-.64-.92.43-1.09,3.31-1.2,4.13l-.46,3.35c-.6,4.37-.64,5.98-.84,10.22-.93,1.78-1.18,4.73-.51,6.55,2.34.12,1.29-2.38,2.24-2.97ZM228.03,119.97l.98-3.17c.06-.19-.03-.66-.18-.77s-.6-.14-.71,0c-.08.11-.28.56-.27.71l.18,3.23ZM206.14,170.59c.37-2.53-.1-4.73-.26-6.92-.34-4.45,1.23-4.18.87-7.93-.06-.67.16-1.51.17-2.16l.18-6.81c.07-2.58.18-5.12.03-7.7-.1-1.78-.93-2.89-.65-6.27-1.22-1.15-1.1-2.39-1.21-3.95-.15-2.13-.56-4.33-.85-6.35-.57-.15-1.15-.28-1.19-.57l-.14-1.18-.34-2.92-.2,2.45v1.34c0,3.38.27,5.81-.02,9.34-.27,3.24.11,10.44.52,13.76.11.84.19,1.78.25,2.62l.26,4.31.21,2.92.15,4.23c.07,1.91,1.41,10.11,2.2,11.78ZM245.26,127.9c.26-3.68,1.65-4.99.01-4.57-1.44.37-.7,2.89-.69,3.41l.13,6.05c1.1-1.48.34-1.91.55-4.89ZM237.26,135.74c1.17-.95.45-1.84.74-2.8l-.12-1.96c-.56-.32-.81,4.52-.62,4.76ZM245.11,146.59l.57-4.46c.03-.2-.33-.68-.45-.81s-.57.38-.58.6l-.03,4.28.49.4ZM246.01,159.66l.09-2.88c0-.13-.3-.49-.39-.59s-.52.24-.49.37c.82,4.16-.01,3.24.6,6.77.07-1.31.14-2.27.19-3.67ZM253.96,159.73c.57-.32,1.18-1.64.59-1.96-1.03-.55-1.6.59-1.88,1.19l-.93,2.01,2.22-1.25ZM257.69,164.53l-.78-3.01-.83,2.07c-.1.25-.14.9-.08,1.05l1.69-.12ZM250.95,164.52l.36-2.51c-.79,1.65-1.36,3.31-1.73,5.24,1.34-.49,1.2-1.55,1.37-2.73ZM215.52,192.9c.14-2.42.19-4.47,0-6.58l-.26-2.88-.19-6.27c-.03-.84.14-1.56-.16-2.45l-.53,3-.32,1.92c-.22,1.3-.6,2.76-.22,4.05.28.95.99,1.99,1.04,2.93l.16,3c.06,1.17.25,2.23.48,3.27ZM208.31,178.24c-.03.1-.14.48-.13.58l.35,1.98c1.37-.65-.14-2.89-.22-2.57ZM214.33,216.23c.18,1.56.37,3,1.22,4.36.09-1.5.02-2.73-.03-4.1l-.26-6.42c-.11-2.65-.17-5.33-.03-7.96.07-1.42.54-2.64-.53-3.84-.74-.83-.61-2.63-.88-3.8-.16-.72-.26-1.34-.37-2.04l-.78-5.2c-.09-.59-.78-1.14-1.38-1.05-.16,4.16.85,7.42,1.15,11.3l.22,2.86.27,3.83.22,2.64.22,2.66c.28,3.3.59,3.59.96,6.75ZM259.16,193.18c.19-1.28,1.02-1.76,1.63-2.54.64-.83-.48-2.39-1.49-2.33l-.77,6.08c.38-.26.56-.7.63-1.21ZM253.08,205.26c.39-2.09.87-4.5,1.39-6.54.05-.19-.02-.93-.19-.9l-.92.14-.57-1.21c-.08-.16-.44-.63-.56-.51-.1.09-.37.52-.37.72v10.75c.01.67.23,1.33.35,2.03.21-.49.36-1.08.34-1.71-.04-1,.36-1.82.54-2.77ZM266.6,210.16c.45.1.99.38,1.6.68.12-.27-.58-4.42-1.57-4.73l-1.82,3.64c-1.23,2.46-1.72,5.19-1.34,7.9,1.08-1.54.57-8.05,3.14-7.5ZM268.59,215.58c-.02-.13-.1-.5-.11-.66l-.22-3.33c-.63.1-1.23,4.35-1.23,4.35.04.37,1.6-.1,1.56-.36ZM218.16,230.1l.29-5.05c-.59-.24-1.97.7-1.78,1.35.37,1.25.95,4.3,1.48,3.7ZM227.25,261.72l-.18-3.36-.23-3.83-.27-4.54-.21-3.13c-.21-3.14-1.25-9.98-1.85-13.22-.31-1.69-.78-3.18-.82-4.97,0-.29-.72-.68-1-.56-.65.29-1.24,2.03-.94,3.72.09.51.07,1.31.19,1.78.37,1.5.76,2.87.88,4.38.45,5.66,1.4,8.19,2.13,13.74l1.74,13.35c.18,1.34.04,2.61.82,3.77l-.2-3.29c-.15-2.49.05-1.69-.07-3.83Z"/>
  <path class="cls-1" d="M227.3,92.66c-.06,2.22-.5,6.06-.55,7.25l-.2,4.9-.31,5.43c-.2,3.57-.2,7.1,0,10.67l.11,2.04c.13,2.4.05,4.91-.02,7.32-2.53,2.34-1.09,2.05-2.33,4.27l-1.62-4.54c-.15-.43-1.09-.92-1.51-.81s-1.25.67-1.4,1.13l-1.98,6.21c-.14.45-.18,1.13-.24,1.78-2.83-1.99-.26-1.68-2.92-6.54-.24-.44-1.08-.6-1.68-.52-1.48.2-1.19,3.07-2.51,4.69-.56-1.41-.7-4.32-.58-5.64l.25-2.65.15-3.32.17-2.35c-.85-.72-.69-1.1-.62-2.1l.26-3.59c.1-1.41.13-9.43,0-10.14l-.72-3.85c-.23-1.22-.38-2.84-1.19-3.77-.96-1.09-3.83-1.35-5.13.37-.74-2.19.27-.4-.22-4.59-.39-3.35.13-2.36-.17-5.15-.07-.64,0-1.18.02-1.84l.15-5.7.5-7.67c.11-1.74.59-3.52.91-5.29-.81-1.36-.48-2.79-.35-4.29.09-1.09.11-2.08.63-3.05.87-1.61-1.57-.85-.29-7.04.13-.62-.48-1.63-.45-2.18.13-2.55,1-4.9,1.65-7.33.97-.79,1.48-1.92,1.66-3.17.37-2.49,1.02-4.77,1.94-7.15.35-.91.64-2,1.9-2.01l-.18,2.99-.19,7.49-.21,5.14-.21,2.17-.25,2.88-.25,3.61-.18,3.82-.15,3.12-.28,4.06-.78,7.24c-.18,1.66-.53,3.66.08,5.19.39.96,1.78.21,2.12-.37.27-.47.79-1.02.97-1.43.85-2.01.75-4.14,1.07-6.22l.95-6.07c.47.09,2.05-.1,2.14-.75l.47-3.65c2.73-1.59.38-3.11,3.62-7.15.21.37.32.69.31.94l-.12,2.47-.16,6.45-.53,6.72-.41,6.01-.24,4.76-.09,2.27-.14,3.27-.17,3.11-.09,2.9-.08,2.16c-.05,1.41-.14,2.83-.12,4.15.02,1.69.03,3.2-.06,4.85-.03.62.28,1.71.87,1.98.5.23,1.84-.6,1.84-1.16l.07-6.69c.69-.39,1.63-.95,2.04-1.52.29-3.09.62-5.93,1.49-8.86.66-2.23,1.14-4.5,2.02-6.63l1.74-4.25c.49,2.13-.46,2.33-.04,5.12.2,1.37.05,2.55.02,3.91l-.16,6.18Z"/>
  <path class="cls-1" d="M195.79,44.87c-.56.6-.66,1.12-1.45,1.71-.09-1.32-.05-2.37.06-3.61l.39-4.53c.11-1.24.22-2.33.48-3.6.27-1.35-.7-2.96-.22-4.48l1.28-.69.88-3.57c.73-2.96,1.7-6.02,3.04-8.66l1.13-2.24c.38-.75.68-1.27,1.39-2.11.2,1.3.04,2.16-.06,3.34l-.23,2.87-.24,3.82-.26,4.56-.24,2.89-.24,2.64-.22,2.66-.14,4.26c-.04,1.35.08,2.57.18,4.07l-1.72-.55c-1.12-.36-2.99.31-3.84,1.21Z"/>
  <path class="cls-1" d="M206.14,170.59c-.79-1.67-2.13-9.88-2.2-11.78l-.15-4.23-.21-2.92-.26-4.31c-.05-.84-.14-1.77-.25-2.62-.41-3.32-.79-10.52-.52-13.76.29-3.53.02-5.96.02-9.34v-1.34s.2-2.45.2-2.45l.34,2.92.14,1.18c.03.29.62.42,1.19.57.29,2.03.7,4.23.85,6.35.11,1.55,0,2.8,1.21,3.95-.29,3.37.55,4.49.65,6.27.14,2.59.04,5.12-.03,7.7l-.18,6.81c-.02.65-.24,1.49-.17,2.16.36,3.75-1.21,3.48-.87,7.93.17,2.19.64,4.39.26,6.92Z"/>
  <path class="cls-1" d="M197.4,109.77c.08,1.03.64,1.87-.12,2.78-.24-1.35-.33-2.49-.46-3.76l-.63-6.26-.43-5.03-.22-3.13-.24-3.36-.13-3.59c-.02-.56.02-1.12.02-1.7v-11.91s-.11-3.41-.11-3.41l-.22-4.19-.16-5.19c-.01-.34.38-.84.65-.95.25-.1.78.53.79.85l.11,5.38.79,5.26c.13.89.07,1.6.21,2.54.25,1.65.09,3.44.21,5.14l.17,2.43.18,2.64.23,3.36.15,6.89.07,2.31c.07,2.11.13,4.43-.07,6.47.3.21.72.74.65,1.06l-.91,3.95c-.08.33-.56,1.09-.54,1.43Z"/>
  <path class="cls-1" d="M227.25,261.72c.12,2.14-.09,1.34.07,3.83l.2,3.29c-.78-1.16-.65-2.43-.82-3.77l-1.74-13.35c-.72-5.55-1.68-8.07-2.13-13.74-.12-1.51-.51-2.88-.88-4.38-.11-.46-.1-1.27-.19-1.78-.31-1.68.29-3.43.94-3.72.28-.12.99.27,1,.56.04,1.79.51,3.28.82,4.97.59,3.24,1.64,10.08,1.85,13.22l.21,3.13.27,4.54.23,3.83.18,3.36Z"/>
  <path class="cls-1" d="M233.21,127.09c-.95.59.1,3.1-2.24,2.97-.67-1.82-.42-4.78.51-6.55.19-4.23.24-5.85.84-10.22l.46-3.35c.11-.82.28-3.7,1.2-4.13.22-.1.72.38.74.64l.23,3.37c.16,2.33.16,4.68.05,7.05-.19,3.91-3.11,5.87-.01,6.58l-.04,2.12c0,.57-1.2,1.18-1.73,1.51Z"/>
  <path class="cls-1" d="M214.33,216.23c-.37-3.16-.68-3.44-.96-6.75l-.22-2.66-.22-2.64-.27-3.83-.22-2.86c-.3-3.88-1.31-7.14-1.15-11.3.6-.09,1.3.45,1.38,1.05l.78,5.2c.1.7.2,1.32.37,2.04.26,1.17.13,2.97.88,3.8,1.07,1.2.6,2.42.53,3.84-.13,2.63-.08,5.31.03,7.96l.26,6.42c.06,1.36.12,2.6.03,4.1-.85-1.36-1.04-2.8-1.22-4.36Z"/>
  <path class="cls-1" d="M253.08,205.26c-.18.94-.57,1.77-.54,2.77.02.63-.12,1.22-.34,1.71-.12-.69-.34-1.36-.34-2.03v-10.75c-.01-.2.27-.64.36-.72.13-.12.49.35.56.51l.57,1.21.92-.14c.17-.03.24.71.19.9-.52,2.03-1,4.45-1.39,6.54Z"/>
  <path class="cls-1" d="M215.52,192.9c-.23-1.03-.42-2.1-.48-3.27l-.16-3c-.05-.94-.76-1.98-1.04-2.93-.38-1.29,0-2.75.22-4.05l.32-1.92.53-3c.31.89.14,1.6.16,2.45l.19,6.27.26,2.88c.19,2.1.14,4.15,0,6.58Z"/>
  <path class="cls-1" d="M266.6,210.16c-2.56-.56-2.05,5.95-3.14,7.5-.38-2.71.11-5.44,1.34-7.9l1.82-3.64c.98.3,1.69,4.45,1.57,4.73-.61-.3-1.15-.59-1.6-.68Z"/>
  <path class="cls-1" d="M245.26,127.9c-.21,2.98.55,3.41-.55,4.89l-.13-6.05c-.01-.51-.75-3.04.69-3.41,1.63-.42.25.88-.01,4.57Z"/>
  <path class="cls-1" d="M220.12,87.46c-.28.08-.44.15-.42.07.03-.12.18-.66.19-.78l.12-5.06.24-3.77c1.41.57.38,1.77.53,2.57.18.99.46,1.89.24,2.89l-.9,4.09Z"/>
  <path class="cls-1" d="M259.16,193.18c-.07.51-.25.95-.63,1.21l.77-6.08c1.01-.06,2.13,1.49,1.49,2.33-.6.79-1.44,1.26-1.63,2.54Z"/>
  <path class="cls-1" d="M218.16,230.1c-.53.6-1.12-2.45-1.48-3.7-.19-.65,1.19-1.59,1.78-1.35l-.29,5.05Z"/>
  <path class="cls-1" d="M253.96,159.73l-2.22,1.25.93-2.01c.28-.6.85-1.74,1.88-1.19.59.32-.02,1.64-.59,1.96Z"/>
  <path class="cls-1" d="M203.54,42.55c-1.04-.1-.43-.66-.42-1.28l.05-5.23c0-.08.34-.52.37-.44.67,2.08.27,4.45,0,6.96Z"/>
  <path class="cls-1" d="M268.59,215.58c.04.26-1.52.73-1.56.36,0,0,.6-4.26,1.23-4.35l.22,3.33c.01.16.09.53.11.66Z"/>
  <path class="cls-1" d="M245.11,146.59l-.49-.4.03-4.28c0-.22.45-.73.58-.6s.48.61.45.81l-.57,4.46Z"/>
  <path class="cls-1" d="M246.01,159.66c-.04,1.4-.12,2.37-.19,3.67-.62-3.53.21-2.61-.6-6.77-.03-.13.41-.47.49-.37s.39.46.39.59l-.09,2.88Z"/>
  <path class="cls-1" d="M201.77,100.04c-.57-1.76-.23-3.44-.29-5.19l.4-2.44c.09,2.47.17,4.87-.1,7.63Z"/>
  <path class="cls-1" d="M257.69,164.53l-1.69.12c-.06-.15-.02-.81.08-1.05l.83-2.07.78,3.01Z"/>
  <path class="cls-1" d="M250.95,164.52c-.17,1.19-.03,2.25-1.37,2.73.37-1.93.94-3.6,1.73-5.24l-.36,2.51Z"/>
  <path class="cls-1" d="M228.03,119.97l-.18-3.23c0-.15.19-.59.27-.71.11-.15.56-.11.71,0s.24.58.18.77l-.98,3.17Z"/>
  <path class="cls-1" d="M237.26,135.74c-.19-.23.06-5.07.62-4.76l.12,1.96c-.28.96.44,1.85-.74,2.8Z"/>
  <path class="cls-1" d="M194.5,19.35c-.55-.43-.96-.91-.99-1.34-.05-.76.05-1.26.96-1.71l.03,3.05Z"/>
  <path class="cls-1" d="M231.78,74.7l-2.08-.05c.15-.42.59-.88.92-.93.55-.08,1.1,0,1.16.98Z"/>
  <path class="cls-1" d="M208.31,178.24c.09-.32,1.59,1.92.22,2.57l-.35-1.98c-.02-.1.1-.48.13-.58Z"/>
</svg>