<?xml version="1.0" encoding="UTF-8"?>
<svg id="Layer_2" data-name="Layer 2" xmlns="http://www.w3.org/2000/svg" viewBox="0 0 432 288">
  <defs>
    <style>
      .cls-1 {
        fill: #fff;
      }
    </style>
  </defs>
  <path class="cls-1" d="M221.35-.15h210.85v288.33h-21.83c1.71-1.99,3.79-3.81,6.06-5.31,1.47-.96,2.59-2.07,3.95-3.14l2.73-2.15c.66-.52,1.18-.84,1.71-1.53.6-.79,1.69-1.25,2.44-1.85l3.78-3.01c.75-.6,1.31-1.25.59-2.33-1.09.73-2.11,1.36-3.09,2.14-.89.71-1.65,1.78-2.68,2.21s-1.98.92-2.66,1.86l-1.27.24c-.1.02-.51.26-.45.35l.29.47-1.82.31c-.53,1.41-1.59,2.14-2.96,2.55l-1.62.93c.45-1.54,1.49-2.89,2.77-3.74.65-.43,1.65-.14,1.4-1.48l1.66-.14c.8-1.7,2.62-3.3,4.38-4.24.78-.42,1.49-1.59,2.27-1.96,1.34-.63,2.2-1.4,3.13-2.47.47-.54.94-.74.94-1.69v-75.96c-1.14.54-2.69,2.36-4.54,3.04-3.32,1.22-.91,1.08-3.49,3.07l-2.81,2.18-2.73,2.03-2.95,2.29c-.31.24-.62,1.12-1.08,1.12-1.34-.01-1.62,1.18-2.37,1.72l-4.67,3.4c-.85.62-1.64,1.13-2.39,1.84l-3.29,3.11c-.84.8-2.16.73-2.59,2.21-.25.85-1.34.96-2.11,1.31-1.08.5-1.9,2.19-3.02,2.78-1.63.86-2.7,2.12-4.07,3.25-1.22,1-2.42,1.79-3.55,2.96-.63.65-1.66,1.26-2.43,1.81l-2.56,1.82-2.57,2.13c-.98.81-1.58,1.91-3.11,2.14-2.12,1.79-1.61,1.72-3.98,3.5l-2.83,2.12-4.11,3.35c-1.2.97-2.4,1.68-3.6,2.67l-1.87,1.55c-.67.56-1.51,1.45-2.19,1.88-1.26.81-2.39,1.33-3.51,2.3-.69.6-1.75,1.09-2.39,1.7l-1.75,1.69c-1.54,1.49-3.08,2.78-5,3.8-1.39.73-.98,1.44-3.91,3.6-.84.62-1.84,1.17-2.51,1.92-1.02,1.13-2.19,1.59-3.39,2.47l-2.37,1.73-2.8,2.62-2.1,1.53c-.98.71-2.08,1.06-2.76,2.27-1.07,1.92-5.98,3.38-7.35,6.16-4,1.88-1.65,1.12-4.59,3.18l-1.72,1.21c-.33.23-.82.77-1.18.97-2.53,1.39-1.42,1.59-4.12,3.51h-32.03l-.74-7.27-.96-9.44-.2-4.31c-.08-1.87-.41-3.59-.54-5.42l-.51-6.99-.28-4.24c-.08-1.21-.1-2.21.06-3.47l-.39-2.52-.39-2.46c-.29-1.82-.03-3.8-.24-5.61l-.56-4.67-2.28-23.39-1.32-11.72-.77-5.98-.71-4.45-2.89-17.88-1.05-6.79-1.18-6.43-1.21-5.53-.39-2.38-1.36-5.99-.99-4.57-.5-2.36c-.28-1.31-.75-2.52-.94-3.93-.18-1.3-1.04-2.69-1.03-3.99.02-4.05-1.93-4.68-1.2-5.17l.66-.44c-.24-.37-.45-1.01-.3-1.32s.85-.7,1.25-.68c1.21.08,1.59-.77,2.17-1.58,1.83-2.53,3.01-1.59,2.18-4.43l1.48-.21,2.12-1.3c.51-1.03.06-2.81-.3-3.83-.1-.27.23-.97.5-1.02s.78-.05,1.21-.06c.66-1.53,1.5-3,2.52-4.37l1.2-1.6c0-1.03.55-1.76,1.25-2.5l.94-1.94c-.49-.66-.54-1.27-.45-2.08l.28-2.41c.07-.62.24-1.63.44-2.12.75-.33,2.04-.9,1.74-1.73-.33-.92-1.57-1.56-2.13-2.38-.45-.65.33-2.58.81-2.91.79-.02,1.33-.05,1.74-.27l-.57-.96c-.12-.19-.77.1-1,.02-.33-.11-.32-1.11-.05-1.32.23-.18,1.07.15,1.33,0,3.72-2.14.67-.97,3-2.74-.3-.95-.55-2.43.04-3.3,1.16.53,2.9-.95,2.38-1.93-1.72-3.28-2.11-.69-2.29-3.66l-2.64.34c-.27.03-.87-.4-.8-.64.21-.73,1.84-1.12,2.63-1.71l2.18-1.65c.21-.16-.09-1-.35-1l-.93-.03c-.93-1.74-1.68-.89-3.6-3.3l1.38-1.12c-2.36-1.92-.09-2.44-1.81-3.49-.4-.24-.68-.47-.79-.7-.09-.19.15-.76.33-.85.32-.15.76-.29.75-.5,0-.16-.11-.64-.19-.79-1.53-3.04.92-.95-3.26-4.9l-1.56-.29.29-1.71-.52-.81c-.1-.16.37-.55.44-.6l1.28.98c.12-.47.07-1.18-.17-1.43-.2-.21-.95-.07-1.23.08-.97.53-1.68-.27-2.49-.6l-2.09-.87.82-.68c-.09-1.2.05-2.53.37-3.73l-1.25-.4-1.94,1.11c-.21.12-.61.56-.85.53-.19-.02-.42-.44-.53-.66l-1.05-2.1c-.09-.18-.08-.64.06-.77.11-.1.51-.13.58-.01l.34.56c.13.22.42.63.6.85.11.14.54-.34.7-.41.73.16,1.74.33,2.39-.14-2.53.4-3.72-1.68-3.6-1.88l.6-.98c-.69-.74-1.44-1.55-2.01-2.43l-1.05-.69.94-.63c.18-.12-.23-.71-.36-.7-.56.31-1.29.7-1.88.87-.14-.62.37-1.09.68-1.72.24-.48-1.12-1.1-1.63-1.25-.11-.03.02-.5.04-.62s-.47-.03-.51.08c-.03.08-.1.24-.24.54-1.12-.13-2.19-1.18-2.15-1.19l-.7.15c-.17.04-.56-.32-.46-.47.08-.11.46-.57.45-.7l-.27-3.41c-.05-.66-.28-1.95-.63-2.44l-1.81-2.08c-.18-.21-.21-1-.45-.95-.28.06-.87.26-1.1.22-.4-.07-1.12-.63-1.49-.47-.5.22-.93.62-1.53,1.15l-.91-2.52c-2.67.12-1.05-2.35-3.46-3.18l.5-.89c.11-.19-.66-.35-.93-.44l-.73-2.01-2.17-1.59c-.41-.3-1.56-.54-1.89-.91-2.75-3.16-2.67.3-4.68-1.28l-1.9-1.5c-.38-.3-.4-1.72-.85-1.79-.56,0-1.42.13-1.79-.02s-.65-.76-.91-1.15ZM297.03,1.67l2.71-.98c-1.05-.76-2.12-.21-2.97.46l-.46.36c-.09.07.22.34.33.3l.39-.14ZM290.52,4.09l-.38-3.1c-1.04,1.02-.78,2.54.38,3.1ZM247.43,14.23c.15-.1.42-.54.28-.63l-.56-.33c-.31-.18-.77-.5-.98-.71-.17-.17.02-.76.11-1.1.06-.2-.24-.79-.45-.77s-.5.17-.76.35l-1.13,1.12,1.14.59.88,2.5,1.47-1.04ZM255.32,16.16c-.23-.14-.81,0-1.01.18-.16.15-.14.7-.08.96s.66.98.82.78c.44-.58.75-1.63.27-1.92ZM311.13,21.17c.89-.27,1.41-.48,1.74-.47.29,0,.72.53,1.11.67.35.13.63-1.22.52-1.34-.83.52-3.44-.54-3.37,1.15ZM415.29,66.7l-3.33-.88-2.72.2c1.2.62,2.58.56,4,.49.73-.04,1.2,1.15,2.05.19ZM275.96,78.23l-2.01-.58c-.13.13-.36.61-.19.65.16.03.62.14.74.19l1.05.43c.19.08.5-.67.41-.68ZM378.04,125.73c.76-1.97-4.9-3.99-4.58-2.16l3.64,1.02c.33.48.7.96.94,1.14ZM431.69,142.73l.11-.89-1.48-.81c-.22.16-.72,1.1-.78,1.39l2.15.31ZM429.53,149.89c.33-.03-.12-.89-.55-1.06s-.95-.3-1.1.14c-.14.4-.25.85-.28,1.12l1.93-.21ZM431.81,151.84l-.02-1.27c-.01-.86-.52-1.81-1.31-1.87.43,1.43-.55,2.76.31,2.94l1.02.2ZM430.52,155.82l-1.91-2.51c-.98,1.15-1.39,2.01-1.69,3.21,1.46.38,2.6.4,3.6-.7ZM271.2,237.58c.14-.75.2-1.33-.44-1.76l-.81,2.44c-.09.29.99.72,1.05.43l.2-1.11Z"/>
  <path d="M410.37,288.18h-3.65c.62-1.32,2.53-1.42,3.16-2.45.19-.32-.05-1.14-.2-1.59-2.94-.77-3.54,2.71-7.18,4.05h-96.91c2.7-1.92,1.59-2.12,4.12-3.51.37-.2.85-.74,1.18-.97l1.72-1.21c2.94-2.07.59-1.31,4.59-3.18,1.37-2.78,6.28-4.24,7.35-6.16.68-1.21,1.78-1.56,2.76-2.27l2.1-1.53,2.8-2.62,2.37-1.73c1.2-.87,2.36-1.34,3.39-2.47.67-.74,1.67-1.3,2.51-1.92,2.93-2.16,2.52-2.86,3.91-3.6,1.92-1.02,3.46-2.31,5-3.8l1.75-1.69c.63-.61,1.7-1.1,2.39-1.7,1.12-.98,2.24-1.49,3.51-2.3.68-.43,1.52-1.32,2.19-1.88l1.87-1.55c1.19-.99,2.4-1.69,3.6-2.67l4.11-3.35,2.83-2.12c2.37-1.78,1.86-1.71,3.98-3.5,1.53-.23,2.13-1.33,3.11-2.14l2.57-2.13,2.56-1.82c.77-.55,1.8-1.16,2.43-1.81,1.13-1.17,2.33-1.96,3.55-2.96,1.38-1.13,2.44-2.39,4.07-3.25,1.12-.59,1.94-2.28,3.02-2.78.76-.35,1.86-.46,2.11-1.31.43-1.47,1.75-1.41,2.59-2.21l3.29-3.11c.76-.71,1.54-1.22,2.39-1.84l4.67-3.4c.74-.54,1.03-1.74,2.37-1.72.47,0,.78-.88,1.08-1.12l2.95-2.29,2.73-2.03,2.81-2.18c2.57-1.99.17-1.85,3.49-3.07,1.85-.68,3.4-2.5,4.53-3.04v75.96c0,.95-.46,1.15-.93,1.69-.94,1.07-1.79,1.84-3.13,2.47-.79.37-1.49,1.54-2.27,1.96-1.75.94-3.57,2.54-4.38,4.24l-1.66.14c.24,1.34-.75,1.05-1.4,1.48-1.28.85-2.33,2.2-2.77,3.74l1.62-.93c1.36-.41,2.43-1.14,2.96-2.55l1.82-.31-.29-.47c-.06-.09.35-.33.45-.35l1.27-.24c.68-.95,1.59-1.42,2.66-1.86s1.79-1.51,2.68-2.21c.98-.78,2-1.41,3.09-2.14.71,1.08.16,1.73-.59,2.33l-3.78,3.01c-.76.6-1.84,1.07-2.44,1.85-.53.69-1.05,1.01-1.71,1.53l-2.73,2.15c-1.36,1.07-2.49,2.18-3.95,3.14-2.27,1.5-4.36,3.32-6.06,5.31ZM413.75,282.07l.8-1.91c-1.19-.1-2.36.24-2.81,1.2.17.57,1.34.88,2.01.71Z"/>
  <path class="cls-1" d="M406.72,288.18h-4.23c3.64-1.33,4.24-4.81,7.18-4.05.16.45.4,1.27.2,1.59-.62,1.04-2.54,1.13-3.16,2.45Z"/>
  <path class="cls-1" d="M217.45-.15c-.21,1.28,1.46,1.92,1.01,2.36-1.33,1.33-.58,1.64-1.4,1.67-.91.02-1.61-1.45-1.3-1.72.25-.22.58-.44.65-.63.05-.14-.12-.56-.2-.7l-.58-.98h1.82Z"/>
  <path class="cls-1" d="M220.57-.15c.04.37.21.87.42,1.42.15.38-.94.86-1.36.62l.65-1.38-.75-.66h1.04Z"/>
  <path d="M60.75,235.88c-.5.18-1.24-.03-1.34-.33-.11-.34.31-1.07.73-1.17s1.13.1,1.29.37-.25.99-.68,1.14Z"/>
  <path d="M65.53,240.76c-.53.09-1.11-.02-1.21-.32-.15-.48.2-1.1.72-1.22.42-.09.98.04,1.11.31.18.38-.18,1.15-.63,1.22Z"/>
  <path d="M430.52,155.82c-1,1.1-2.14,1.08-3.6.7.31-1.21.71-2.06,1.69-3.21l1.91,2.51Z"/>
  <path d="M247.43,14.23l-1.47,1.04-.88-2.5-1.14-.59,1.13-1.12c.26-.17.55-.33.76-.35s.5.57.45.77c-.1.34-.29.93-.11,1.1.21.21.67.53.98.71l.56.33c.15.09-.13.52-.28.63Z"/>
  <path d="M378.04,125.73c-.24-.18-.6-.65-.94-1.14l-3.64-1.02c-.32-1.83,5.34.19,4.58,2.16Z"/>
  <path d="M415.29,66.7c-.85.96-1.31-.22-2.05-.19-1.42.07-2.8.13-4-.49l2.72-.2,3.33.88Z"/>
  <path d="M431.81,151.84l-1.02-.2c-.85-.17.12-1.51-.31-2.94.79.07,1.3,1.01,1.31,1.87l.02,1.27Z"/>
  <path d="M431.69,142.73l-2.15-.31c.06-.29.56-1.23.78-1.39l1.48.81-.11.89Z"/>
  <path d="M311.13,21.17c-.07-1.68,2.54-.62,3.37-1.15.11.13-.17,1.48-.52,1.34-.39-.15-.82-.67-1.11-.67-.34,0-.86.21-1.74.47Z"/>
  <path d="M271.2,237.58l-.2,1.11c-.05.29-1.14-.15-1.05-.43l.81-2.44c.64.43.58,1.01.44,1.76Z"/>
  <path d="M297.03,1.67l-.39.14c-.11.04-.42-.23-.33-.3l.46-.36c.85-.67,1.92-1.22,2.97-.46l-2.71.98Z"/>
  <path d="M429.53,149.89l-1.93.21c.03-.27.14-.72.28-1.12.15-.45.68-.3,1.1-.14s.87,1.02.55,1.06Z"/>
  <path d="M255.32,16.16c.48.29.17,1.34-.27,1.92-.15.2-.76-.53-.82-.78s-.08-.8.08-.96c.19-.19.78-.32,1.01-.18Z"/>
  <path d="M290.52,4.09c-1.17-.55-1.43-2.08-.38-3.1l.38,3.1Z"/>
  <path d="M275.96,78.23c.1.02-.22.76-.41.68l-1.05-.43c-.12-.05-.58-.16-.74-.19-.18-.03.06-.51.19-.65l2.01.58Z"/>
  <path class="cls-1" d="M252.22,34.9c-.35.4-.84.79-1.13.78-.34,0-.97-.41-1.23-.69l1.3-1.35c.37-.38,1.49.76,1.06,1.25Z"/>
  <path class="cls-1" d="M246.53,20.05l-1.71,1.33c-.36-.31-.64-1.06-.62-1.67.9-.54,1.58-.6,2.33.34Z"/>
  <path class="cls-1" d="M258.94,43.78c.12.45-.87.74-1.18.62l-.76-.29c-.15-.06-.03-.78.07-.9.33-.41,1.72.01,1.87.57Z"/>
  <path class="cls-1" d="M242.31,19.1l-1.2,1.8c-.71-1.36.15-2.19,1.14-2.85l.45.41c.11.1-.27.46-.39.64Z"/>
  <path class="cls-1" d="M251.39,30.75c-.72.16-1.22-1.58-.73-1.75,1.05-.35,1.59,1.56.73,1.75Z"/>
  <path class="cls-1" d="M237.23,77.05c.19.21.47.73.53.97s-.34.78-.6,1l-1.03-2.16c-.07-.14.3-.69.4-.59l.7.78Z"/>
  <path class="cls-1" d="M413.75,282.07c-.67.17-1.84-.14-2.01-.71.45-.97,1.62-1.3,2.81-1.2l-.8,1.91Z"/>
  <g>
    <path class="cls-1" d="M53.66-.15c-.38,1.1.54,2.54.77,3.71l.62,3.09.26,2.22.69,4.54.91,3.18c.33,1.17.37,2.34.61,3.51.47,2.29.92,4.51,1.54,6.79s1.13,4.42,1.58,6.71c.4,2,.76,3.91,1.39,5.89l.94,2.94.97,4.02,1.91,6.19.61,2.25,2.02,6.7c.44,1.45.99,2.71,1.34,4.2l.3,1.28,1.63,4.84.75,2.35,1.64,4.37,2.38,5.99,1.12,2.75c1.94,4.75,3.88,9.39,6.38,13.85l1.43,2.54c.75,1.33,1.32,2.93,2.3,4.17,1.17,1.48,2.9,5.13,4.52,7.07.47-1.78-1.06-2.48-1.66-3.62l-2.24-4.29c-.62-1.19-1.08-2.54-1.79-3.68-1.41-2.28-1.01-2.24-2.5-4.53-.42-.64-.55-1.1-.88-1.8l-2.85-6.05c-.6-1.29-1.19-2.79-1.8-3.99l-.6-2.17c-1.09-3.91-1.65-1.49-2.65-7.05-.13-.75-.32-1.17-1.08-1.38l.44-.6c.46-.62-1.95-1.38-.97-3.42l-1.09-1.36c.63-2.01-1.79-5.44-2.12-6.87l-.43-1.85-.67-2.24-.71-2.4-.6-2.02-1.49-4.7-.78-2.63c-.36-1.22-.76-2.24-1.27-3.38,0,0-1.07-3.37-.13-2.79l.64.39c.49.05.98-.99.91-1.51-.06-.45-.84-1.04-1.03-1.5-.54-1.33-.85-2.78-1.28-4.3-.48-1.71-3.29-2.7-1.18-3.84l-.91-.6c.28-.37.46-1,.31-1.37l-.91-2.38c-.35-.91-1.13-1.79-.29-2.75-1.76-1.27.09-2.95-.54-5.95-.3-1.45-1.46-2.84-1.56-4.16.39-1.75-.33-4.7-.87-6.39-.52-1.6-1.28-1.86-1.62-3.64.26-.74.41-1.34.41-1.95V-.15h155.22l.25,9.01c.04,1.52.23,2.75-.12,4.33-.28,1.24.6,3.13-.17,3.74-.69.55-2.47-.12-2.42,1.51l-1.46.57c-.31.44-.77.68-1.31.51-.7-.22-.15-3.02.43-4.16l1.02,1.28c.74.5,2.24-.37,2.36-1.09.04-.22-.17-.8-.11-.99.07-.24.56-.34,1.07-.52l.11-2.14c-.02-.17-.58-.43-.54-.6l.23-.99c.09-.37.23-.82.15-1.06-.1-.28-.65-.65-1.03-.87l-.57,3.75-2.22.95c-1-.32-1.46-.04-2.21.45-3.04,1.97-2.18,2.91-4.36,2.7l-.08,1.82-2.31.67,1.8.82-2.19,2.52c-.36.42-1.45-.74-1.47-1.35,0-.19-.46-.64-.62-.55s-.22.36-.36.87l-2.28.92.45-2.26-1.62,2.06c1.1,1.94-1.48,1.54-1.53,3.16-.19.31-1.3.11-1.62.05-1.57,2.5-3.54,1.89-3.67,3.61l-1.54.28c-.61,1.25-1.59,2.35-2.9,2.73.5.13.98.1,1.04.34.09.35-.15.82-.43,1.04l-1.79,1.4c-.35-.03-1.16-.16-1.52-.12-.96.1-1.24,2.15-2.46,3.32.29,2.07-2.81,3.18-2.24,3.23l-1.02-.09c-.42,2.97-2.91,2.57-2.61,3.29l.45,1.05c-.46,1.46-3.32.78-2.98,2.3.08.36.97.71,1.31.61.39-.11,1.07-.57,1.28-.92l1.07-1.76,2.66.7c1.69.45.29,1.68,3.42,3.5.9-.29,1.75-.45,2.65-.22l.43,2.37,1.45,1.31c-.82.55-1.19.77-1.8,1.59l2.92.39c1.37,1.81.8,5.06,2.99,4.84.13-.01.62-.56.68-.44.71,1.38.76,2.89,1.91,3.66s1.26,1.89,1.9,2.96c1.64,1.1,2.48,3.1,3.06,3.77,1.22,1.4,1.96,2.91,2.16,4.74.79.73,2.45,1.31,2.55,2.59.15,2.04.19.44,2.45,2.99.13.14.17.71.35.79s.66.18.79.32l.72.81c.19.21.8-.31,1.01-.55l.98.34c.14-.76.46-1.46,1.34-1.39-.92,2.61-1.62,4.85-2.19,7.36-.29,1.26-.28,2.77-.66,4-.71,2.28-1.44,4.4-1.95,6.71-.41,1.88-.89,3.65-1.41,5.52-.82,2.89-1.57,5.72-2.26,8.63l-1.26,5.28c.81-.34.74-3.67,2.1-4.05-.47,1.76-.89,3.13-1.36,4.67l-1.98,6.53c-1.01,3.35-1.97,6.53-2.48,10.02-.36,2.45-.81,4.79-.96,7.28-.19,3.22-2.41,4.81-2.21,9.67-.84.65-1.78,1.69-1.86,2.62l-1.42.32c0-.61.14-1.6.42-2.29l2.82-6.81c1.5-3.63.44-7.43,1.25-11.64l.7-3.68c.23-1.2.9-2.3.69-3.61-1.71,4.58-2.3,9.1-3.79,13.72l-1.02,3.17c-.84,2.61-2.07,4.88-3.48,7.17-1.12,1.82-2.47,3.06-4.01,4.31-1.42,1.15-2.57,1.99-4.62,2.05l-5.29.17-4.81.15c-4.4.13-8.75-.19-13.06-1.13-.72-.16-1.33-.48-1.95-.28l5.07,1.81c1.56.56,3.42.31,4.74,1.64l-4.47-.96c-1.22-.26-2.3-1.08-3.54-.62l2.79.66-.24.94c-.06.24.81.42,1.03.3l.5-.29c.1-.06.26.38.16.44l-.51.28c-.24.13-.64.2-1.31.32-.26-.38-.07-.03.05.19,1.18.31,2.22.57,3.27,1.15l-2.29-.13c-.13,0-.53.1-.64.13-.15.04.31.53.49.54l5.33.52c4.38.42,14.8,1.35,18.66.86,1.11-.14,2.21-1.17,3.38-.45.46.28,1.29.71,1.83.63l3.63-.5c-.25-1.82-1.64-3.49-1.36-4.37,1.49.16,2.85.12,3.98.54l2.28.84c.41-2.22.58-3.96.78-6.18,1.2-12.97,3.71-25.55,7.16-38.09.44-1.61.93-3.03,1.33-4.6l1.12-4.36c.57-2.24.93-4.51,1.69-6.73,1.63-4.73-.14-3.95,2.33-8.05l.27-1.36,1.56,1.28c.16.13.66.21.68.05s-.11-.57-.25-.69l-1.17-1.03,1.48-1.53.29,1.72c.41.85,1.88,1.1,2.43,1.67.43.44.7,1.28,1.29,1.62s.96,1.02,1.39,1.44l1.59,1.55c2.82,2.74,1,3.23,4.37,5.28.26.47.75,1.22,1.15,1.61l1.27,1.23c1.67-.63,3.1.12,4.55.74l3.85,1.64,1.67.71c.46.19.95.5,1.24.72-1.18.77-1.73-.02-2.41-.68l-2.38-.32-2.32-1.43-.53-.43c-.16-.13-.75.03-.95.21,1.03,1.58,1.75,2.87,1.93,4.91.61-.1,1.17-.69,1.59-1.49l2.6,1.69c-.2.66.04,2.23.68,2.35,1.16.21,1.9.57,2.71,1.17l1.92,1.41.67.49c.14.1-.3.53-.47.78,1.2.31,2.57.8,3.76.84.96.03,1.54.17,1.97,1.15.54.23,1.36.17,2.19-.04l-1.03-1.62c.19-.65.15-1.47-.27-2.11,0-.41-.04-.76.17-.89.29-.19.92.24.96.49.62,3.46,1.81,3.17.71,5.03,1.47,1.66,2.81,5.84,3.46,8.32.51,1.94.77,3.82,1.25,5.78l1.62,6.61,1.8,7.79c.39,1.69.59,3.39,1.06,5,.3,1.04.48,1.95.63,3.04l.66,4.82c.05.35.09,1.17-.18,1.2-1.28-.48-2.27.18-3.06.84-.68.56-2.35-.02-2.91,1.54-.49-.85-.74-1.39-1.15-1.43-.59-.06-1.23.09-1.73.28l.19,1.54c-.29.99-.15,1.6.16,2.58.22.7-1.2,1.08-1.82.84l-1.97-.79-3.78-.85c-.66-.15-1.91-.15-2.51.04l-2.04.64c-.28.09-.66.72-.94.76s-.77-.44-.82-.75c-.07-.4.45-.79.86-.89l.51-.12c.12-.03.33-.33.2-.35l-.63-.11c-2.73-.49-1.03-.81-3.83-.56l1.53,1.08-1.46.25c-.29.05-.88-.12-1.01-.37s.23-.67.56-1.02l-2.41-1.37c-2.03.18-3.52-.07-5.36-.62h-2.31s.41,1.83.41,1.83c1.11.06,1.94.45,2.43,1.33-.92.29-1.6-.2-2.06-.86l-.63.28c-.18.08-.53-.28-.86-.53l-.83.69c-1.21-.81-2.17-1.81-2.92-3.12l1.43-.45-3.36-.27-1.77-.24-3.86-.52c-2.79-.37-5.72-.72-8.48-.77-.32.7-.69,1.22-1.13,1.51l-.47.3c-.84.54,1.59,1.1,3.91-1.03.11-.1.91-.07.83.05l-.35.54c-.16.25-.36.57-.45.76-.11.22.72.39.96.31l.7-.22c.13-.04,0,.55.07.71,1.88,3.93.17,17.48-.69,22.43l-2.08,11.98-.83,4.43-1.45,7.39-.33,1.66-3.73,17.07-4.97,21.51-1.8,7.68-.84,3.46-.73,3-2.27,9.69c-.16.67-.44,1.36-.59,2.06l-.81,3.61-.97,3.92-.93,3.42H1.14V-.15h52.52ZM171.92,48.21l-1.81-.13,1.15,1.62c.17.23.95.22,1.18.06.2-.14.37-.64.29-.87s-.58-.66-.82-.68ZM172.9,54.65c.32.28,1.05-.97.96-1.4s-.79-.94-1.17-1.25l-.26-1.48-.85.81-1.71-1.27c.08.46.34,1.06.35,1.34l.04,2.27,1.49-.21,1.15,1.18ZM169.2,51.5c-.39.11-1.21.68-1.09.98.13.34.47.88.7,1.12.2.2,1.11-.08,1.05-.22-.32-.42-.67-.71-.66-.94v-.94ZM209.84,99.19c-.94-.59-1.79-.91-2.74-1.04.4,1.16,1.59,1.34,2.74,1.04ZM97.25,121.77c0-1.63-.38-2.66-1.24-3.79-.26.58-.35,1.62-.07,2l1.31,1.8ZM223.49,131.04c1.08-.05,1.53-.76,2.23-1.26,1.15-.83,3.69-2.3,2.91-3.96-.37-.78-3.13-2.41-3.4-1.57.95.63,2.47.99,2.74,2.04.45,1.71-3.42,2.81-4.47,4.76ZM105.82,129.99l-1.28.03c.59.83,1.13,1.57,2.14,1.78l-.87-1.82ZM225.96,137.85c1.44-.24,5.87-4.08,4.79-5.53-.58-.78-2.2-1.5-2.87-.94l1.42.47c.36.12.98.62,1,.99.02.31-.24,1.07-.49,1.31l-3.85,3.7ZM119.39,142.21c.71.47,1.01,1.05,1.98,1.18l-1.46-3.51c-1.04.76-1.64.71-2.84.56.48.7,1.48,1.2,2.32,1.77ZM133.64,150.27c-.41-.63-1.38-1.81-2.05-2.01l-2.5-.71c-1.83.38,3.98,2.7,4.55,2.72ZM232.97,150.4l-.03-1.02c0-.13-.31-.13-.45-.11-.79.44-1.62.85-1.85,1.56,1.02-.29,1.49-.42,2.33-.42ZM203.6,151.18c-.04-.63-.94-.49-1.33-.21-.26.18-.74.83-.59,1.11.23.45.87.62,1.2.49.43-.18.76-.58.72-1.38ZM206.09,157.5c.05-.33-.88-.69-1.11-.47s-.66.84-.68,1.17.89.5,1.15.33c.22-.15.59-.68.64-1.03ZM60.75,235.88c.43-.15.84-.87.68-1.14s-.87-.47-1.29-.37-.84.84-.73,1.17c.1.3.84.51,1.34.33ZM65.53,240.76c.45-.07.81-.84.63-1.22-.13-.27-.69-.4-1.11-.31-.53.11-.87.73-.72,1.22.09.3.67.41,1.21.32Z"/>
    <path d="M215.63-.15l.58.98c.08.14.25.56.2.7-.07.19-.39.41-.65.63-.31.26.39,1.74,1.3,1.72.81-.02.07-.34,1.4-1.67.45-.44-1.22-1.08-1.01-2.36h2.08l.75.66-.65,1.38c.42.24,1.51-.24,1.36-.62-.21-.54-.39-1.05-.42-1.42h.78c.26.39.55,1,.91,1.15s1.23.03,1.79.02c.45.06.47,1.48.85,1.79l1.9,1.5c2.01,1.58,1.93-1.87,4.68,1.28.33.38,1.47.61,1.89.91l2.17,1.59.73,2.01c.27.09,1.03.26.93.44l-.5.89c2.41.84.79,3.31,3.46,3.18l.91,2.52c.6-.53,1.03-.93,1.53-1.15.37-.16,1.09.4,1.49.47.24.04.82-.16,1.1-.22.23-.05.26.73.45.95l1.81,2.08c.35.49.58,1.78.63,2.44l.27,3.41c.01.13-.37.59-.45.7-.1.14.29.5.46.47l.7-.15s1.03,1.05,2.15,1.19c.14-.3.21-.46.24-.54.04-.11.53-.2.51-.08s-.16.58-.04.62c.52.15,1.87.77,1.63,1.25-.31.63-.82,1.1-.68,1.72.58-.18,1.32-.56,1.88-.87.12,0,.53.58.36.7l-.94.63,1.05.69c.57.88,1.32,1.69,2.01,2.43l-.6.98c-.12.2,1.07,2.28,3.6,1.88-.65.47-1.65.3-2.39.14-.16.07-.59.56-.7.41-.17-.22-.47-.63-.6-.85l-.34-.56c-.07-.12-.47-.08-.58.01-.14.13-.15.59-.06.77l1.05,2.1c.11.22.34.63.53.66.23.03.64-.41.85-.53l1.94-1.11,1.25.4c-.32,1.2-.45,2.52-.37,3.73l-.82.68,2.09.87c.81.34,1.51,1.13,2.49.6.28-.15,1.03-.3,1.23-.08.25.26.29.96.17,1.43l-1.28-.98c-.07.05-.54.44-.44.6l.52.81-.29,1.71,1.56.29c4.18,3.95,1.73,1.85,3.26,4.9.08.15.18.63.19.79,0,.21-.43.35-.75.5-.18.08-.41.66-.33.85.11.23.4.46.79.7,1.72,1.04-.55,1.57,1.81,3.49l-1.38,1.12c1.92,2.41,2.67,1.56,3.6,3.3l.93.03c.27,0,.57.84.35,1l-2.18,1.65c-.79.6-2.42.98-2.63,1.71-.07.24.53.68.8.64l2.64-.34c.18,2.97.57.38,2.29,3.66.51.98-1.22,2.46-2.38,1.93-.58.87-.34,2.35-.04,3.3-2.32,1.77.72.6-3,2.74-.26.15-1.1-.18-1.33,0-.27.21-.28,1.21.05,1.32.23.08.88-.21,1-.02l.57.96c-.42.22-.95.24-1.74.27-.49.33-1.26,2.25-.81,2.91.56.82,1.8,1.45,2.13,2.38.3.83-1,1.4-1.74,1.73-.2.49-.37,1.5-.44,2.12l-.28,2.41c-.09.81-.04,1.42.45,2.08l-.94,1.94c-.7.74-1.25,1.47-1.25,2.5l-1.2,1.6c-1.03,1.37-1.86,2.85-2.52,4.37-.42,0-.94.01-1.21.06s-.59.75-.5,1.02c.36,1.02.81,2.8.3,3.83l-2.12,1.3-1.48.21c.83,2.84-.34,1.9-2.18,4.43-.59.81-.97,1.66-2.17,1.58-.4-.03-1.11.37-1.25.68s.06.95.3,1.32l-.66.44c-.73.49,1.22,1.12,1.2,5.17,0,1.3.85,2.69,1.03,3.99.2,1.41.67,2.61.94,3.93l.5,2.36.99,4.57,1.36,5.99.39,2.38,1.21,5.53,1.18,6.43,1.05,6.79,2.89,17.88.71,4.45.77,5.98,1.32,11.72,2.28,23.39.56,4.67c.22,1.81-.04,3.79.24,5.61l.39,2.46.39,2.52c-.15,1.26-.13,2.26-.06,3.47l.28,4.24.51,6.99c.14,1.84.46,3.55.54,5.42l.2,4.31.96,9.44.74,7.27h-3.31c.08-1.24-.32-2.37-.39-3.69l-.28-4.83c-.06-1.01-.35-1.9-.45-2.88l-.28-2.64-.38-2.1c-.33-1.84.14-3.85-.16-5.68-.46-2.74-.6-5.3-.76-8.09l-.23-4.13-.27-4.45c-.19-3.08-.75-6.03-.75-8.06,0-.74-.17-1.47-.3-2.19-.15-.86.3-2.2-.13-3.04-.78-1.53-.2-2.86-.17-4.42.03-1.74-.86-3.62-.96-5.38l-.26-4.56c-.98-.76-3.66,1.12-3.15-.3.07-.18.37-.51.57-.59l2.69-1-.44-2.93-.6-4.89-.52-5.02-.75-6.16-.56-3.64-.76-6.99-.75-6.78c-1.1-1.46-3.67-1-3.62-2.67-.27-.75-5.26-2.5-4.72-3.08l1.27.14c.24.03.45-.39.66-.61,1.9.09,3.85.43,5.26,1.67.25-1.29-.07-2.36-.47-3.39-1.6-.12-6.41-1.69-6.64-2.95-.04-.22.63-.51.83-.43l2.92,1.04c.61.22,1.25.16,1.82-.07-1.02-.77-1.88-1.04-2.99-1.34l-2.85-.76c-.46-.12-1.21-.95-1.52-1.19-.47.15-1.07.29-1.64.26-.53-.03-1.23.19-1.75.21-1.6.09-3.21-.84-4.78-1.19l-3.47-.77c-.19-.04-.73.02-.79.17-.08.2.06.79.25.94l2.45,1.88c.59-.38,1.26-.45,1.79-.03,2.57,2.03,3.78,1.81,4.34,3.09-1.62-.24-2.86-.9-4.32-1.34-.77-.23-1.51-.36-2.1-1.22-.66-.97-1.6-1.74-2.7-1.35l.71.43c.63.38-.25.37-1.91,1.65-.51.39-2.07.31-2.71.23-.19-.03-.19-.83-.06-.69.62-.05,1.09-.15,1.66-.47l-1.97-1.46-1.37,1.45.35.63-1.46.88.38-1.06c.12-.35.27-.64.16-.83-.56-.89-1.67.68-2.12-.7l2.15-.42c.35-.07.79-.37.85-.66.07-.35-.54-.94-.84-.84l-2.43.86c-.41.15-1.21-.25-1.52.22-.52.8.68,2.47.67,4.48l-1.99-3.36.62-1.48c-.66-.75-1.25-1.24-2.33-1.65l1.02,2.34-2.03-.02-1.27-1.13-.41.7c-.29.48-1.11-.85-2.31-.3l-5.61-.73c-1.46-.19-.35-1.53-5.85.3l-.09,4.66c-.04,1.73-.13,3.48-.33,5.17-.19,1.59-.69,3.07-.66,4.74.02,1.28-.54,2.88-.38,4.04.22,1.61.07,2.59-.21,4.05l-1.92,9.84c-.08.43-.38.92-.6,1.16.04.51.05,1.35-.05,1.99l-.45,2.88c-.47,3-1.3.17-2.22,6.98l-.8,5.93-.69,4.08-.68,4.02-1.31,7.01c-.08.42-.71,1.06-.9,1.43-.66,1.35-.78,2.92-1.11,4.42-.07.3-.51,1.05-.27,1.23l.91.69c.25.19.02,1.14-.36,1.28-1.25.47-1.28,2.15-1.15,3.67l.21,2.34c.02.19.1.94-.08.92l-.83-.08c.48,1.09.81,2.97.1,3.65-.53.5-1.02-1.07-1.64-.8-.22.1-.43.67-.38.9s.62.34.9.45c1.47.55.86,2.1.64,3.21l-1.89,9.81c-.13.68-.43,1.26-.84,1.86l-.23,3.05-.95.67c.65,2.28.12,2.46-.58,5.44l-.8,3.39c-.28,1.19-.68,2.41-1.05,3.6l-.42,1.36h-5.67l.93-3.42.97-3.92.81-3.61c.16-.7.44-1.39.59-2.06l2.27-9.69.73-3,.84-3.46,1.8-7.68,4.97-21.51,3.73-17.07.33-1.66,1.45-7.39.83-4.43,2.08-11.98c.86-4.95,2.57-18.5.69-22.43-.07-.15.06-.74-.07-.71l-.7.22c-.24.08-1.08-.09-.96-.31.09-.18.29-.51.45-.76l.35-.54c.08-.12-.72-.15-.83-.05-2.32,2.13-4.75,1.56-3.91,1.03l.47-.3c.45-.29.82-.81,1.13-1.51,2.75.05,5.69.4,8.48.77l3.86.52,1.77.24,3.36.27-1.43.45c.75,1.31,1.71,2.31,2.92,3.12l.83-.69c.33.25.68.61.86.53l.63-.28c.45.66,1.14,1.15,2.06.86-.49-.88-1.32-1.27-2.43-1.33l-.41-1.84h2.31c1.84.55,3.33.8,5.36.62l2.41,1.37c-.34.34-.69.77-.56,1.02s.72.42,1.01.37l1.46-.25-1.53-1.08c2.8-.25,1.11.06,3.83.56l.63.11c.12.02-.08.32-.2.35l-.51.12c-.41.1-.93.5-.86.89.06.31.54.79.82.75s.66-.67.94-.76l2.04-.64c.6-.19,1.85-.18,2.51-.04l3.78.85,1.97.79c.62.25,2.04-.14,1.82-.84-.31-.99-.44-1.6-.16-2.58l-.19-1.54c.5-.19,1.13-.33,1.73-.28.41.04.66.59,1.15,1.43.56-1.57,2.23-.98,2.91-1.54.8-.66,1.79-1.32,3.06-.84.27-.02.23-.84.18-1.2l-.66-4.82c-.15-1.09-.33-2-.63-3.04-.46-1.62-.66-3.31-1.06-5l-1.8-7.79-1.62-6.61c-.48-1.96-.74-3.84-1.25-5.78-.65-2.49-1.99-6.66-3.46-8.32,1.1-1.86-.09-1.57-.71-5.03-.04-.25-.67-.67-.96-.49-.21.13-.17.48-.17.89.42.64.45,1.46.27,2.11l1.03,1.62c-.83.22-1.66.27-2.19.04-.42-.98-1.01-1.12-1.97-1.15-1.19-.04-2.56-.53-3.76-.84.17-.25.61-.68.47-.78l-.67-.49-1.92-1.41c-.81-.6-1.55-.96-2.71-1.17-.64-.12-.87-1.69-.68-2.35l-2.6-1.69c-.42.8-.98,1.39-1.59,1.49-.18-2.04-.9-3.34-1.93-4.91.2-.18.78-.34.95-.21l.53.43,2.32,1.43,2.38.32c.69.66,1.23,1.44,2.41.68-.29-.22-.78-.53-1.24-.72l-1.67-.71-3.85-1.64c-1.45-.62-2.88-1.37-4.55-.74l-1.27-1.23c-.4-.38-.88-1.14-1.15-1.61-3.36-2.05-1.55-2.54-4.37-5.28l-1.59-1.55c-.43-.42-.81-1.11-1.39-1.44s-.87-1.18-1.29-1.62c-.56-.57-2.02-.83-2.43-1.67l-.29-1.72-1.48,1.53,1.17,1.03c.14.13.28.53.25.69s-.52.08-.68-.05l-1.56-1.28-.27,1.36c-2.47,4.1-.7,3.32-2.33,8.05-.76,2.22-1.12,4.49-1.69,6.73l-1.12,4.36c-.4,1.56-.89,2.98-1.33,4.6-3.45,12.54-5.96,25.12-7.16,38.09-.21,2.22-.38,3.96-.78,6.18l-2.28-.84c-1.14-.42-2.49-.38-3.98-.54-.28.89,1.11,2.55,1.36,4.37l-3.63.5c-.54.07-1.37-.35-1.83-.63-1.17-.71-2.26.31-3.38.45-3.86.48-14.28-.44-18.66-.86l-5.33-.52c-.18-.02-.64-.51-.49-.54.11-.03.51-.14.64-.13l2.29.13c-1.04-.58-2.09-.84-3.27-1.15-.13-.22-.32-.57-.05-.19.67-.12,1.07-.19,1.31-.32l.51-.28c.1-.05-.06-.5-.16-.44l-.5.29c-.22.13-1.09-.06-1.03-.3l.24-.94-2.79-.66c1.24-.46,2.32.36,3.54.62l4.47.96c-1.32-1.33-3.18-1.08-4.74-1.64l-5.07-1.81c.62-.19,1.23.13,1.95.28,4.32.94,8.66,1.27,13.06,1.13l4.81-.15,5.29-.17c2.04-.06,3.2-.9,4.62-2.05,1.54-1.26,2.89-2.49,4.01-4.31,1.41-2.29,2.63-4.56,3.48-7.17l1.02-3.17c1.49-4.62,2.08-9.13,3.79-13.72.21,1.31-.46,2.41-.69,3.61l-.7,3.68c-.8,4.21.26,8.01-1.25,11.64l-2.82,6.81c-.29.69-.43,1.68-.42,2.29l1.42-.32c.08-.93,1.03-1.97,1.86-2.62-.21-4.86,2.02-6.45,2.21-9.67.15-2.5.6-4.83.96-7.28.51-3.49,1.46-6.67,2.48-10.02l1.98-6.53c.47-1.55.89-2.91,1.36-4.67-1.35.38-1.28,3.71-2.1,4.05l1.26-5.28c.7-2.91,1.44-5.74,2.26-8.63.53-1.86,1-3.63,1.41-5.52.51-2.32,1.24-4.43,1.95-6.71.38-1.22.37-2.74.66-4,.57-2.51,1.27-4.75,2.19-7.36-.87-.07-1.2.63-1.34,1.39l-.98-.34c-.21.23-.82.76-1.01.55l-.72-.81c-.13-.14-.61-.25-.79-.32s-.22-.64-.35-.79c-2.27-2.55-2.3-.95-2.45-2.99-.1-1.28-1.76-1.86-2.55-2.59-.2-1.83-.94-3.34-2.16-4.74-.59-.67-1.42-2.67-3.06-3.77-.64-1.07-.78-2.21-1.9-2.96s-1.2-2.28-1.91-3.66c-.06-.12-.55.43-.68.44-2.2.22-1.62-3.03-2.99-4.84l-2.92-.39c.62-.82.99-1.04,1.8-1.59l-1.45-1.31-.43-2.37c-.9-.23-1.75-.07-2.65.22-3.12-1.83-1.73-3.06-3.42-3.5l-2.66-.7-1.07,1.76c-.21.35-.89.81-1.28.92-.34.1-1.23-.26-1.31-.61-.34-1.52,2.51-.84,2.98-2.3l-.45-1.05c-.31-.72,2.18-.32,2.61-3.29l1.02.09c-.57-.05,2.54-1.16,2.24-3.23,1.22-1.17,1.5-3.22,2.46-3.32.35-.04,1.16.09,1.52.12l1.79-1.4c.27-.21.52-.69.43-1.04-.06-.24-.55-.21-1.04-.34,1.31-.38,2.29-1.48,2.9-2.73l1.54-.28c.13-1.72,2.1-1.11,3.67-3.61.32.06,1.43.26,1.62-.05.05-1.62,2.62-1.22,1.53-3.16l1.62-2.06-.45,2.26,2.28-.92c.15-.51.21-.78.36-.87s.61.36.62.55c.02.61,1.11,1.77,1.47,1.35l2.19-2.52-1.8-.82,2.31-.67.08-1.82c2.17.21,1.32-.73,4.36-2.7.75-.49,1.21-.77,2.21-.45l2.22-.95.57-3.75c.38.22.93.59,1.03.87.09.24-.06.69-.15,1.06l-.23.99c-.04.17.53.43.54.6l-.11,2.14c-.51.18-1,.28-1.07.52-.06.19.15.78.11.99-.12.72-1.63,1.59-2.36,1.09l-1.02-1.28c-.58,1.14-1.13,3.94-.43,4.16.54.17,1-.07,1.31-.51l1.46-.57c-.05-1.63,1.74-.96,2.42-1.51.77-.62-.11-2.5.17-3.74.36-1.58.17-2.81.12-4.33l-.25-9.01h3.9ZM242.31,19.1c.13-.19.5-.55.39-.64l-.45-.41c-.99.66-1.85,1.49-1.14,2.85l1.2-1.8ZM246.53,20.05c-.75-.94-1.43-.88-2.33-.34-.02.61.26,1.36.62,1.67l1.71-1.33ZM211.83,25.01l.09-3.06c0-.29-.91-.76-1.05-.51-.69,1.26.66.95.21,2.86-.06.26.39.65.75.71ZM211.17,28.99c.7-1.16.91-2.21.8-3.5-1.44.81-2.17,2.54-.8,3.5ZM251.39,30.75c.85-.19.32-2.1-.73-1.75-.49.17.01,1.91.73,1.75ZM208.55,37.06c.77.04,1.49.38,2,.84l1.42-.96c-.35-3.75,1.57-4.81.02-6.6l-1.95.31c-.24.04-.61.75-.83.66l-1.04-.44-2.09.25c1.13.22-1.18,5.73,2.47,5.94ZM252.22,34.9c.43-.49-.69-1.63-1.06-1.25l-1.3,1.35c.26.27.89.68,1.23.69.29,0,.78-.38,1.13-.78ZM211.55,41.43v-2.97s-2-.02-2-.02c-.14.49-1,.87-1.3.51-.19-.23-.28-.56-.52-1.13-.21-.06-.68.53-.59.78.1.27.5.67.83.88.76.47.42,1.66.76,2.35.61,1.25,1.35,2.37,2.08,3.5l1.05-2.25.44-.94c.08-.18-.63-.53-.75-.72ZM225.99,64.26c-.59-2.01-1.77-4.72-2.78-6.62l-1.2-2.27c-1.67-3.16-3.2-6.3-4.76-9.54l-1.42-2.95c-.27-.57-.55-1.02-.94-1.61-.7,1.24-.53,2.26-.16,3.36l1.27.34c1.51,4.17,3.32,7.95,5.29,11.89l3.79,7.57c.12.25.45.54.54.64s.4-.65.36-.81ZM258.94,43.78c-.15-.56-1.54-.98-1.87-.57-.1.13-.22.85-.07.9l.76.29c.32.12,1.3-.17,1.18-.62ZM210.48,56.51c.31-.73.38-1.51-.33-1.56l-.61,1.43c-.07.17.11.6.28.64s.58-.34.65-.5ZM230.99,76.91l-.72-2.31c-1.26-2.23-.53-2.7-1.79-4.72-.78.09-1.62,1.15-1.37,1.83,3.06-.24-.11,3.67,3.88,5.2ZM210.21,76.11c.04-.19-.36-.82-.53-.78l-.57.13c-.35.9-.63,1.56-.73,2.6.93-.32,1.7-1.33,1.83-1.95ZM237.23,77.05l-.7-.78c-.1-.11-.47.44-.4.59l1.03,2.16c.26-.21.67-.75.6-1s-.35-.77-.53-.97ZM204.79,78.41l.97-1.12-1.79-.31c-.16-.03-.8.03-.75.17l.22.62.3.79c.08.21.91.01,1.06-.16ZM232.36,80.8l-.57-.3c-.72.84-.59,2.13.07,2.81l.5-2.51ZM236.96,93.87c.7-1.31.21-2.25-.28-3.23l-.95-1.88c-.52-1.04-.97-1.92-1.56-2.94-.11,1.09.21,1.81.64,2.7l1.15,2.36c.45.92.36,1.99,1,2.98ZM242.31,107.31c-.23-1.05-.39-1.81-.72-2.63-1.17-2.91-.46-3.14-3.01-6.9.11,1.12.32,2.05.61,3.03.7,1.15,1.42,2.52,1.89,3.66-.58,1.08-1.28,2.02-1.1,3.23l2.33-.39ZM198.96,111.03c.74-1.24,1.23-2.43,1.3-3.74-1.1.93-1.57,2.25-1.3,3.74ZM244.62,114.46l-.85-3.04c-.29-1.04-.55-1.94-1.15-3.04-.46.93-.11,1.6.29,2.55l-.81,2.19c-.12.33-.34.68-.24.88.41.82,1.31-.71,2.76.46ZM249.1,117.84c1.15-1.18.69-1.83.18-2.67-.34-.56-.8-1.22-1.52-.75l1.09,1.13c-.02.92.06,1.65.25,2.28ZM185.82,159.61c.05-.56-.27-1.49-.62-1.45-.37.04-1.18.44-1.17.63l.81.36c.11.05-.14.53-.13.66,0,.18.46.3.64.31.12,0,.45-.37.47-.51ZM256.69,167.37c.24-.79.11-2.13-.57-2.63-.45-.33-1.82,1-1.41,1.35l1.98,1.28ZM210.21,167.59c-.72-1.94.52-1.16-.24-2.59-.3-.56-.59.56-1.5,2.14-.38.66,1.75.94,1.75.45ZM193.27,250.44c.39-.26.04-1.34.11-1.83.18-1.28.89-3.05.25-4.49-.76,2.21-1.77,4.22-2,6.34l-.31,2.83c2.5-.84-.13-1.44,1.95-2.84Z"/>
    <path class="cls-1" d="M270.25,288.18h-83.49l.42-1.36c.37-1.19.77-2.41,1.05-3.6l.8-3.39c.7-2.98,1.24-3.16.58-5.44l.95-.67.23-3.05c.4-.6.71-1.18.84-1.86l1.89-9.81c.21-1.11.83-2.67-.64-3.21-.28-.11-.85-.21-.9-.45s.16-.81.38-.9c.62-.27,1.11,1.3,1.64.8.71-.68.38-2.57-.1-3.65l.83.08c.19.02.1-.73.08-.92l-.21-2.34c-.14-1.52-.1-3.2,1.15-3.67.37-.14.61-1.09.36-1.28l-.91-.69c-.25-.18.2-.93.27-1.23.34-1.5.46-3.07,1.11-4.42.18-.37.82-1,.9-1.43l1.31-7.01.68-4.02.69-4.08.8-5.93c.91-6.81,1.75-3.98,2.22-6.98l.45-2.88c.1-.65.09-1.48.05-1.99.22-.24.52-.73.6-1.16l1.92-9.84c.28-1.45.43-2.44.21-4.05-.16-1.16.4-2.76.38-4.04-.03-1.67.47-3.16.66-4.74.2-1.69.3-3.44.33-5.17l.09-4.66c5.5-1.83,4.4-.49,5.85-.3l5.61.73c1.2-.55,2.03.78,2.31.3l.41-.7,1.27,1.13,2.03.02-1.02-2.34c1.09.42,1.68.9,2.33,1.65l-.62,1.48,1.99,3.36c0-2.01-1.19-3.68-.67-4.48.31-.47,1.1-.07,1.52-.22l2.43-.86c.3-.11.91.49.84.84-.05.29-.5.59-.85.66l-2.15.42c.45,1.38,1.56-.19,2.12.7.12.18-.03.48-.16.83l-.38,1.06,1.46-.88-.35-.63,1.37-1.45,1.97,1.46c-.57.31-1.04.42-1.66.47-.13-.14-.13.67.06.69.64.08,2.2.16,2.71-.23,1.66-1.28,2.54-1.27,1.91-1.65l-.71-.43c1.09-.39,2.04.38,2.7,1.35.58.86,1.33.99,2.1,1.22,1.46.44,2.7,1.1,4.32,1.34-.56-1.28-1.78-1.06-4.34-3.09-.53-.42-1.2-.36-1.79.03l-2.45-1.88c-.2-.15-.33-.74-.25-.94.06-.15.6-.21.79-.17l3.47.77c1.57.35,3.18,1.28,4.78,1.19.51-.03,1.21-.24,1.75-.21.57.03,1.16-.11,1.64-.26.31.24,1.06,1.07,1.52,1.19l2.85.76c1.11.3,1.97.56,2.99,1.34-.57.23-1.21.28-1.82.07l-2.92-1.04c-.21-.07-.87.21-.83.43.22,1.26,5.04,2.83,6.64,2.95.39,1.03.72,2.1.47,3.39-1.41-1.25-3.36-1.58-5.26-1.67-.21.23-.42.64-.66.61l-1.27-.14c-.54.58,4.45,2.33,4.72,3.08-.06,1.67,2.51,1.21,3.62,2.67l.75,6.78.76,6.99.56,3.64.75,6.16.52,5.02.6,4.89.44,2.93-2.69,1c-.2.08-.51.4-.57.59-.51,1.43,2.17-.46,3.15.3l.26,4.56c.1,1.76.99,3.64.96,5.38-.03,1.56-.61,2.88.17,4.42.43.84-.02,2.18.13,3.04.13.72.3,1.45.3,2.19,0,2.03.56,4.98.75,8.06l.27,4.45.23,4.13c.16,2.79.3,5.35.76,8.09.31,1.83-.16,3.84.16,5.68l.38,2.1.28,2.64c.1.98.39,1.88.45,2.88l.28,4.83c.08,1.32.47,2.45.39,3.69ZM241.94,174.27c-.56-.56-.89-.7-1.45-.99l-1.06-.55c-.26-.13-.85.87-.79,1.2,1.04.29,2.14.45,3.3.34Z"/>
    <path d="M56.52-.15v2.38c-.01.61-.16,1.21-.42,1.95.34,1.78,1.1,2.03,1.62,3.64.54,1.69,1.27,4.64.87,6.39.1,1.32,1.26,2.71,1.56,4.16.62,3-1.23,4.67.54,5.95-.84.96-.05,1.84.29,2.75l.91,2.38c.14.37-.04,1-.31,1.37l.91.6c-2.11,1.14.7,2.13,1.18,3.84.43,1.52.74,2.96,1.28,4.3.19.46.97,1.06,1.03,1.5.07.52-.42,1.56-.91,1.51l-.64-.39c-.94-.58.13,2.79.13,2.79.5,1.13.91,2.15,1.27,3.38l.78,2.63,1.49,4.7.6,2.02.71,2.4.67,2.24.43,1.85c.33,1.43,2.75,4.86,2.12,6.87l1.09,1.36c-.99,2.04,1.42,2.8.97,3.42l-.44.6c.77.2.95.62,1.08,1.38.99,5.56,1.56,3.14,2.65,7.05l.6,2.17c.61,1.2,1.2,2.71,1.8,3.99l2.85,6.05c.33.7.46,1.16.88,1.8,1.49,2.28,1.08,2.25,2.5,4.53.71,1.15,1.17,2.49,1.79,3.68l2.24,4.29c.6,1.14,2.13,1.84,1.66,3.62-1.62-1.94-3.35-5.6-4.52-7.07-.98-1.24-1.55-2.84-2.3-4.17l-1.43-2.54c-2.51-4.46-4.44-9.1-6.38-13.85l-1.12-2.75-2.38-5.99-1.64-4.37-.75-2.35-1.63-4.84-.3-1.28c-.35-1.49-.9-2.75-1.34-4.2l-2.02-6.7-.61-2.25-1.91-6.19-.97-4.02-.94-2.94c-.63-1.98-.99-3.89-1.39-5.89-.45-2.29-.98-4.48-1.58-6.71s-1.07-4.5-1.54-6.79c-.24-1.17-.28-2.34-.61-3.51l-.91-3.18-.69-4.54-.26-2.22-.62-3.09c-.23-1.17-1.15-2.61-.77-3.71h2.86Z"/>
    <path d="M172.9,54.65l-1.15-1.18-1.49.21-.04-2.27c0-.28-.27-.88-.35-1.34l1.71,1.27.85-.81.26,1.48c.37.3,1.08.82,1.17,1.25s-.64,1.68-.96,1.4Z"/>
    <path d="M223.49,131.04c1.05-1.95,4.92-3.05,4.47-4.76-.27-1.04-1.79-1.4-2.74-2.04.27-.84,3.04.79,3.4,1.57.78,1.66-1.76,3.14-2.91,3.96-.7.5-1.15,1.22-2.23,1.26Z"/>
    <path d="M225.96,137.85l3.85-3.7c.25-.24.51-1,.49-1.31-.02-.37-.64-.87-1-.99l-1.42-.47c.68-.57,2.29.16,2.87.94,1.08,1.44-3.35,5.28-4.79,5.53Z"/>
    <path d="M119.39,142.21c-.85-.57-1.85-1.07-2.32-1.77,1.2.14,1.81.19,2.84-.56l1.46,3.51c-.98-.13-1.28-.71-1.98-1.18Z"/>
    <path d="M133.64,150.27c-.57-.01-6.38-2.34-4.55-2.72l2.5.71c.67.19,1.64,1.38,2.05,2.01Z"/>
    <path d="M203.6,151.18c.05.8-.28,1.21-.72,1.38-.33.13-.97-.04-1.2-.49-.14-.28.34-.93.59-1.11.39-.27,1.29-.42,1.33.21Z"/>
    <path d="M171.92,48.21c.24.02.74.45.82.68s-.09.73-.29.87c-.24.16-1.01.18-1.18-.06l-1.15-1.62,1.81.13Z"/>
    <path d="M97.25,121.77l-1.31-1.8c-.27-.38-.19-1.42.07-2,.86,1.13,1.25,2.17,1.24,3.79Z"/>
    <path d="M206.09,157.5c-.05.35-.42.88-.64,1.03-.26.17-1.18-.01-1.15-.33.03-.33.46-.96.68-1.17s1.16.14,1.11.47Z"/>
    <path d="M169.2,51.5v.94c0,.24.34.52.66.94.05.14-.86.42-1.05.22-.23-.24-.57-.78-.7-1.12-.12-.31.71-.87,1.09-.98Z"/>
    <path d="M232.97,150.4c-.84,0-1.31.14-2.33.42.23-.7,1.06-1.12,1.85-1.56.14-.01.45-.02.45.11l.03,1.02Z"/>
    <path d="M209.84,99.19c-1.14.3-2.34.12-2.74-1.04.94.13,1.8.45,2.74,1.04Z"/>
    <path d="M105.82,129.99l.87,1.82c-1.01-.22-1.55-.95-2.14-1.78l1.28-.03Z"/>
    <path class="cls-1" d="M208.55,37.06c-3.65-.21-1.34-5.72-2.47-5.94l2.09-.25,1.04.44c.22.09.58-.62.83-.66l1.95-.31c1.55,1.79-.37,2.85-.02,6.6l-1.42.96c-.52-.46-1.23-.8-2-.84Z"/>
    <path class="cls-1" d="M225.99,64.26c.05.16-.28.91-.36.81s-.41-.39-.54-.64l-3.79-7.57c-1.97-3.94-3.78-7.72-5.29-11.89l-1.27-.34c-.37-1.11-.55-2.13.16-3.36.4.58.67,1.04.94,1.61l1.42,2.95c1.55,3.24,3.09,6.38,4.76,9.54l1.2,2.27c1,1.9,2.19,4.61,2.78,6.62Z"/>
    <path class="cls-1" d="M211.55,41.43c.12.19.83.55.75.72l-.44.94-1.05,2.25c-.73-1.14-1.46-2.25-2.08-3.5-.34-.69,0-1.88-.76-2.35-.33-.21-.72-.61-.83-.88-.1-.25.38-.85.59-.78.24.56.33.9.52,1.13.3.36,1.16-.03,1.3-.51l1.99.02v2.97Z"/>
    <path class="cls-1" d="M230.99,76.91c-3.99-1.53-.82-5.44-3.88-5.2-.25-.68.59-1.74,1.37-1.83,1.25,2.02.53,2.49,1.79,4.72l.72,2.31Z"/>
    <path class="cls-1" d="M193.27,250.44c-2.08,1.4.55,2-1.95,2.84l.31-2.83c.23-2.11,1.24-4.12,2-6.34.65,1.44-.06,3.22-.25,4.49-.07.49.27,1.57-.11,1.83Z"/>
    <path class="cls-1" d="M244.62,114.46c-1.45-1.16-2.35.36-2.76-.46-.1-.2.12-.55.24-.88l.81-2.19c-.4-.94-.75-1.62-.29-2.55.59,1.1.86,2,1.15,3.04l.85,3.04Z"/>
    <path class="cls-1" d="M242.31,107.31l-2.33.39c-.18-1.21.52-2.15,1.1-3.23-.47-1.14-1.19-2.51-1.89-3.66-.29-.98-.5-1.92-.61-3.03,2.55,3.76,1.84,3.99,3.01,6.9.33.82.49,1.58.72,2.63Z"/>
    <path class="cls-1" d="M236.96,93.87c-.64-.99-.55-2.06-1-2.98l-1.15-2.36c-.44-.89-.76-1.61-.64-2.7.59,1.02,1.04,1.9,1.56,2.94l.95,1.88c.49.97.99,1.91.28,3.23Z"/>
    <path class="cls-1" d="M210.21,167.59c0,.49-2.13.21-1.75-.45.91-1.58,1.2-2.7,1.5-2.14.77,1.42-.48.65.24,2.59Z"/>
    <path class="cls-1" d="M256.69,167.37l-1.98-1.28c-.4-.35.97-1.68,1.41-1.35.68.5.81,1.84.57,2.63Z"/>
    <path class="cls-1" d="M211.17,28.99c-1.38-.96-.64-2.7.8-3.5.11,1.3-.1,2.34-.8,3.5Z"/>
    <path class="cls-1" d="M204.79,78.41c-.15.17-.98.37-1.06.16l-.3-.79-.22-.62c-.05-.14.59-.2.75-.17l1.79.31-.97,1.12Z"/>
    <path class="cls-1" d="M210.21,76.11c-.13.62-.91,1.63-1.83,1.95.11-1.03.38-1.7.73-2.6l.57-.13c.18-.04.57.59.53.78Z"/>
    <path class="cls-1" d="M211.83,25.01c-.37-.07-.81-.46-.75-.71.45-1.91-.9-1.6-.21-2.86.14-.25,1.06.22,1.05.51l-.09,3.06Z"/>
    <path class="cls-1" d="M249.1,117.84c-.19-.63-.27-1.37-.25-2.28l-1.09-1.13c.72-.48,1.18.19,1.52.75.52.84.97,1.5-.18,2.67Z"/>
    <path class="cls-1" d="M198.96,111.03c-.28-1.48.2-2.81,1.3-3.74-.07,1.31-.55,2.49-1.3,3.74Z"/>
    <path class="cls-1" d="M232.36,80.8l-.5,2.51c-.65-.68-.78-1.97-.07-2.81l.57.3Z"/>
    <path class="cls-1" d="M185.82,159.61c-.01.15-.34.52-.47.51-.18,0-.64-.12-.64-.31,0-.14.25-.61.13-.66l-.81-.36c0-.19.8-.59,1.17-.63.35-.04.67.89.62,1.45Z"/>
    <path class="cls-1" d="M210.48,56.51c-.07.16-.48.54-.65.5s-.36-.47-.28-.64l.61-1.43c.71.05.64.83.33,1.56Z"/>
    <path d="M241.94,174.27c-1.16.1-2.26-.05-3.3-.34-.06-.33.53-1.34.79-1.2l1.06.55c.56.29.89.44,1.45.99Z"/>
  </g>
</svg>