<?xml version="1.0" encoding="UTF-8"?>
<svg id="Layer_2" data-name="Layer 2" xmlns="http://www.w3.org/2000/svg" viewBox="0 0 432 288">
  <defs>
    <style>
      .cls-1 {
        fill: #fff;
      }
    </style>
  </defs>
  <path class="cls-1" d="M275.49,122.79c-.92.87-1.44.99-2.7.71-.24-.05-.67-.34-.68-.55-.08-1.68.47.51,1.96-.11.27-.11.45-.76.42-1.05h.81c.19,0,.09.66.18.99Z"/>
  <path class="cls-1" d="M61.36,281.98V5.63h304.48v276.35H61.36ZM234.32,42.49c.14.91-.34.57-.58-.03.28-.49.88-1.2.76-1.56s-.49-1.12-.69-1.55c-.1-.21-.83-.31-.99-.14l-.65.67c.8.48,1.34.76,1.81,1.62-.52.17-1.87.2-2.05.07l-.05-1.37-2.21.04,3.44-2.51,1.82,1.9,1.71-1.59,1.3,1.56c.18.21.93-.04.88-.31-.04-.24-.07-.79-.27-.82l-1.2-.17.68-1.59-.06-.95c-.01-.2-.87.04-.8.22.06.14.03.67-.12.69-.39.04-1.52-.28-1.5.08l.07,1.62c.08.02-.71-.17-1.03-.24-1.51-.36,1.11-2.1.74-2.71l4.28.17c-1.1-1.04-1.91-1.79-1.63-3.17-1.95.49-.29,2.11-1.25,2.6l-1.99-1.51c-.19-.14-.75.32-.53.47.58.46.95.69.93.92s-.78.57-.91.36c-.3-.52-1.21-.87-2.09-1.07.54-1.47,1.04.2,2.38-1.59l1.67.53-1.23-1.13c.08-.16.45-.58.35-.74l-.49-.79c1.08.17,1.84.3,2.33-.1l-1.3-.49c.85-.23,1.29-.34,1.62-.29s.51,1.31.23,1.47l-1.87,1.02c1.14.52,2.77-1.32,3.08-.24l.33,1.18c.08.28,1.08-.13.95-.36l-.62-1.06c-.2-.35-.7-.79-1.14-1.19l.9-.9c.44,1.62,2.69,1.67,2.59,1.95l.33-.92c-.02-.07.16.58.22.81.25.93-2.57.33-2.11,1.53.12.31.52.67,1.04,1.13l-.7,1.33c.52.1,1.86.17,2.3-.21.24-.21.02-1.33-.28-1.44l-1.54-.58c.78-.39,1.61-.44,1.91-.76.26-.28.54-1.2.62-1.56-1.01-.7-1.7-1.26-2.61-2.04l-2.58-1.31c1.27-.64,1.91-.52,3.36-.34l-.91-1.58-.99.68c-.14.1-.52-.26-.48-.43s.18-.61.12-.78l-.3-.83c-.05-.15-.32.3-.32.46l.03.61c-.42-.11-1.05-.3-1.19-.61-.11-.25.05-1.13.16-1.09l3.02.42-3.03-1.73c-1.19-.68-2.89-.91-4.26-1.3-6.58-1.85-14.47-.53-20.4,2.55-3.2,1.67-5.74,3.78-7.93,6.72-2.49,3.36-5.12,6.89-5.74,11.28l-1.19,8.41c-1.06,7.52,3.52,14.1,8.27,19.21,1,1.07,1.7,2.37,3.06,3.21,11.11,6.84,23.46,8.41,34.28.23-.28-.32-.65-.61-.58-.79s.27-.74.35-.93l1.88-2.28-2.45-.34.46,1.56c.11.38-.18.69-.81.78.11-.97.08-1.65-.28-2.5.03-.1.39-.46.25-.57l-.66-.53c-.87.35-2.24-.1-2.52-.83l1.33-1.08c-.47-.27-.84-.47-.82-.47-.07,0-.6.75-.68.86-.06.09-.46-.02-.42-.12l.21-.56c.11-.28.59-1.03.37-1.23l-.9-.87.91-2.97-2.01-.7c-.06-.27-.02-.69-.24-.7l-1.34-.08.61-2.6c.06-.26-.79-.38-.97-.21s-.42.71-.25.89l.69.76-1.69,1.13.21-1.3-1.13-.83-.59,1.7-1.09-2.08,1.43-1.08-1.47-.63c-.1-.76-.28-2.03-.34-2.61-.02-.25.59-.79.65-.56.06.24.19.8.21,1.03l.05.73c.01.15.44-.23.61-.35l1.62-.1c.07.01.1.67-.04.89-.24.38-2.03.2-1.6.8.11.16.41.52.57.64l.67.51c.12.09.39-.33.36-.47l-.15-.86,1.95-.31c-.23.3-.57.53-.45.68l.4.52-1.24.42c.85.48,2.25-.08,2.34-.67.12-.83.22-2.04.51-2.59.27-.51.9-1.1.79-1.46-.3-.92-1.6-2.05-1.62-2.05l-1.14.12c-.24.03-.93.46-1.07.68-.1.17.14.39.32.6.36-.17,1.1-.65,1.12-.4l.15,1.29s.4-.21.44-.05c.04.18.18.46.07.48l-.67.11c-.14.02-.49.47-.35.51l.98.28-.53.52c-.18.17-1.12.08-1.09-.17l.15-.98c.04-.26-.06-1.23-.3-1.12l-1.29.64c-.31-.21-.72-1.39-.6-1.89s.97-1.27,1.38-1.65l-2.26-1.47c-.56.12-1.24.18-1.21-.34l2.3-.47,1.46-2.08c.08-.12-.07-.64-.11-.78s-.38.24-.63.52ZM244.57,30.38c.51-.08.87-.69.59-1.17-.25-.43-.66-.71-1.12-.95-.1-.13-.17-.45-.31-.43l-.78.13c-.49.19-.87.27-.76.46l.4.71c.08.14.52-.49.58-.57l1.4,1.83ZM245.51,33.97l1.56-1.02c.6.11,1.27.23.58-.42l-2.58-.48.13,1.07s-1.69.76-1.42,1.13l.47.64c.6.81,1.11,1.39,2.04,1.91l-.79-2.83ZM250.96,43.59c-.96-.92-.91-1.33-.58-2.29l-1.46-.94,1.1-1.25-1.4-.02c-.32,0-.47.73-.66,1.06l-.5-.05c-.1-.01-.17.38-.09.44l.49.35c.39.28,1.11.82,1.27,1.21s-.07,1.19-.15,1.99l1.97-.5ZM238.32,43.96c.22.04.86-.46.74-.66-1.03-1.67-.73-3.45-2.44-2.89l1.7,3.55ZM252.89,45.02c0-.3-.21-.89-.28-.52-1.05.04-1.49-.02-2.04-.17-1.29.74-2.07-.39-2.25.15l-.29.87,4.87-.33ZM251.15,51.26c-.21-.61-.49-1.62-.54-2.17-.03-.38-.93-.6-1.32-.69l.78,1.76c.13.29-.46.82-.72,1.1,1.18.6,2.32.83,3.82.92-.17-.58-.35-1.02-.61-1l-1.42.08ZM248.38,58.8c1.19-.33,2.04-.69,2.37-1.89l-1.59.35c-.58.72-1.16,1.19-1.81,1.65.02.08.36.44.46.36l.57-.46ZM245.59,60.24c-.79.39-1.02.59-1.19.49l-.81-.48c-.15-.09-.21.55-.05.63l.81.42-.32,2.59c.53.06,1.16-.25,1.14-.64l-.09-1.66c.25.11,1.01.62,1.2.98s-.35,1.16-.81,1.71l.89,1.17-1.62.82c-.4-.89-1-.96-2.04-1.12.57-.79,1-2.35.13-2.99-.7-.51-1.02-.89-1.39-1.78l-1.61,2.25c.1.35.46,1.19.67,1.53.18.29,1.19-.49,1.16-.84l-.11-1.21c.49.3.95.63.83.84l-.56.99.62,1.13c-.95.32-1.54.7-1.38,1.32,4.16-2.24,2.55,3.13,6.19,1.5-1.39-1.54-1.02-3.58.47-4.5-.5-.37-1.02-.62-.95-.89l.24-1.07-1.31-.29c-.24-.05-.09-.79-.12-.89ZM304.61,183.02l.68-.49c.21-.15.91.27.85.26l-.59,1.36,1.86.71,1.71-2.27-2.33-.87-1,.33c-.2.07-.05-.42.03-.84l-2.01.57-.42-2.34-.99.24c-.7.17-.88-1.37-1.33-1.27l-1.05.23c-.04-.13-.14-.85.01-.99l.67-.59,2.21-1.4c-.17-.21-1.43-1.11-1.62-.71l-.55,1.13c-.61,1.27-1.81-3.24-2.28-2.44l.35.93-1.18,1.47,1.47-.23c.3-.05.53.81.5,1.11s-.76.43-1.3.46c-.28-.35-.95-.99-1.3-.76-.48.32-1.07.47-1.56.17l2.18-2.06-.68-1.05c1.1-.66,2.53-1.19,3.73-1.55l.58-1.63c-.66.16-1.56.25-1.86.54-.26.25-.39.83-.75,1.63l-1.27-2.05c-.2-.32-1.29-.04-2.18.13-.16.05-.16-.8.09-.83l.89-.12c1.82-.24,3.14-.09,3.28-1.04.05-.35-.19-.82-.45-1.36l.93-1.08-1.31-1.66-.49.89c-.09.17-.68.02-.76.19l-.43.89c-.06.12.59.1.76.14.2.05.6.5.67.75.06.2-.27.53-.47.47-.15-.04-.43-.17-.54-.28l-1.41-1.53c.33-.76.6-1.99.4-2.94l-1.69-.16c-.26-.02-.54-.94-.3-1.05l.84-.37.78-.33c.13-.06.62.61.71.5l.67-.85c.16-.21,1.08-.26,1.12,0l.21,1.26,1.29-1.99-2.38-.26c-.1-.45.63-1.16,1.43-1.71-2.97-1.3-.21-3-2.32-4.1l-.35,3c.46.04,1.27,0,1.21.16l-.44,1.15c-.32-.17-1.08-1.03-1.52-1.57-.49.03-1.38.25-1.82-.36l1.8-.94-2.58-.71c-.15,0,.53-.81.85-.73s.83.32,1.36.58c-.04.07.27-.51.38-.73.1-.2-.66-.45-.84-.58l-.6-.42c-.19-.13-1.3,1.14-1.44.69l-.33-1.03c-.05-.16.74-.14,1.04-.16.37-.02.82-1.1.52-1.32l-1.36-.99-.21-1.26-1.17,1.01c-.23.2-.82-.61-.76-.91l.4-1.75c.06-.26,1,.13,1.05.39l.22,1.09,1.13-1.96,1.68-1.49-2.39.85c-.05.13-.13-.45-.02-.57l.7-.79-1.44-.46,1.78-1.96c.28.39,1.18,1.13,1.59.95l1.64-.73,2.01-.9c.17.1,1.08.75,1.14.5l.23-.87c.23-.11,1.37-.09,1.59.24l1.12,1.65-.12-3.69c-.57.33-1.03.61-1.3.74s-.6-.91-.32-.94c.56-.06,1.2-.23,1.34-.44l1.25-1.77-3.47-2.32c-.08.53-.31,1.21-.63,1.4s-.96-.57-1.19-.9c-.18-.25.28-.64.76-1l-4.26-1.28c-3.79-1.14-7.81-.88-11.72-1.05-.72-1.77,1.62-1.59,2.15-3.44l-2.58,1.5c-.9-.77-2.47-.65-3.15.14l2.51.27c-.46.57-1.34,1.3-1.8,1.11-.76-.5-1.69-1.07-2.33-1.03l-2.56.16.77-.39c.12-.06.33-.39.21-.46l-.84-.47c-.16-.09,0-.49.14-.81l1.85,1.48,2.92-1.89-.82-1.68,1.79.54,1.76-2.26-3.36,1.02.64-1.84-1.63-.24c-.09.85-.26,1.98-.43,2.35l-2.05-.87c-.33-.68-.74-1.78-.92-2.42l.72-.88c.19-.23.85.28,1.16.53.78-1.18,1.76-1.27,3.4-.55l-.38-2.1-.69.75c-.19.21-.89.04-1.14.17l-1.08.58c-.23.12-.66-.29-.99-.48l-2,.97c-1.17,0-.83,0-1.69-2.36.53.11.94.19,1.08.38l.51.71.4-1.72c1.08-.09.84-.48.1-.74-.7-.06-.96-.1-.19-.13.51-.34,1.29-.77,1.08-.99l-.83-.86,1.76-1.76-1.54.1c.75-.59.83-.88.08-1l-1.81.73.7-1.49c.13-.28-1.01-.6-1.37-.51l-3.68.9,1.6-2.03c.4.25,1.2.47,1.92.41l2.26-.2c.32-.03.63.9.7,1.13l1.64-.52c.32-.1,1.01-.71,1.29-.53l1.26.83,1.99-2.54c-.61-.13-1.11-.23-1.31.04l-.82,1.15-.57-.54c-.39.32-.84.79-1.04.63l-.72-.57c-.14.39-.65,1.13-.93.95l-.98-.64-1.87-1.07c-.29.25-.55.61-.69.48-.15-.15-.75-.52-.62-.66l.54-.58c.15-.16.74-.78.85-.59s.34,1.07.53.99l1.03-.44c.19-.08.36.1.96.48l.69-1.88h2.03s.82,1.86.82,1.86l.42-2.12-2.85-.65c-.84.13-2.09.68-2.51-.44l1.94.09c-.31-.46-1.1-1.21-.83-1.32l1.1-.43c.23-.09,1.04-.04,1.03.2l-.02.78-.02.63c0,.14.52-.2.56-.33l.45-1.36,1.03.32c.11.03.22-.4.16-.51l-.3-.54c-.11-.2-.37-.56-.24-.64.17-.09.36-.21.45-.09l.5.68.46-1.6c.27-.19.82-.48.71-.67l-.45-.72-.34-.54c-.08-.12-.54.05-.5.19l.21.76c.07.24,0,.72-.16.91-.12.15-.75.27-.82.09l-.33-.85c-.06-.16-.85-.07-.77.09l.36.73c.25.5.16,1.72-.32,1.99-.54.3-1.64-.18-1.68-.7-.07-1.01-.54-2.02-1.23-2.6,1.17,1.92-.37,3.72-.15,3.66l-.98.27c-.15.04-.49.5-.6.38l-.5-.5c-.12-.12.34-.62.5-.65l1.2-.22.18-2.9-1.95,3.05-2.21-1.04c-.26-.34.89-1.54,1.22-1.36l-.17.88c-.04.18.63.12.82.12.12,0,.06-.41.04-.62l-.22-2.41,1.16,2.03c.3-.32.88-.82.75-1.07l-.65-1.26,3.59-1.42-.49-1.74c-1.63,1.32-2.72,2.38-4.35,3.05l1.64-2.74c-1.3.03-2.17-.02-2.59-.18.14-1.11.2-1.59.06-2.53l-.96,2.01-.29-3.05c-.57.1-1.13.34-1.19.14l-.31-1.09c1.17.32,2.23.16,2.92-.48l-.67-1.02c-.09-.14.58-.56.72-.46l1.65,1.23-1.16,2.92.65.76c.08.1.44-.18.41-.3-.61-2.47,1.65-1.47.83-3.9-.18-.54-.89-1.03-1.63-1.41,2.8-.59.41-.45,2.85-1.19.14-.04.28.4.18.5l-.55.54,1.66.49c-.05-.79-.15-1.78.11-2.23l1.31-2.24c.57.5.85,1.6.69,2.59-.19.11,1.2.38,1.33.07l.51-1.25,1.58,1.41-1.74,1.81,2.53-.44c.21-.04.79-.74.6-.82-.15-.06-.61-.28-.67-.42l-.61-1.47c-.6-1.45-1.47-2.88-2.74-3.44-.32.71-.48,1.27-.79,1.35s-1.05-.09-1.27-.32-.15-1.17-.07-1.21l1.07.27c.18.05.2-.62.04-.71l-.56-.29c-1.18-.61-2.27-1.07-3.59-1.36-.77,1.02,3.27,1.76,2.22,2.01-.1.02-.55.37-.64.32l-2.88-1.45c.23-.68.33-1.55-.05-1.6l-1.31-.18.82.62c.08.06.03.21,0,.37l-1.32.27c-.27.05-.11-1.03-.08-1.54-3.81-1.87-12.09-.8-16.11.48-3.52,1.12-6.18,2.57-8.7,5.15-3.29,3.36-6.53,7.05-8.24,11.43-1.44,3.7-2.42,7.42-2.61,11.28-.2,4.26,1.23,8.08,2.71,11.91,1.39,3.6,3.42,6.5,6.38,8.95,1.15.95,2.34,2.29,3.57,3.01l3.78,2.2c1.24.72,2.73,1.58,4.15,2.08,2.66.94,5.84,1.44,8.66,1.23l7.31-.55c-1.05,1.6-2.3,2.39-3.63,3.64-2.92,2.74-5.6,6.2-6.97,10.04-.67,1.87-.93,3.78-1.44,5.78-1.61,6.3-1.62,13.34,1.56,19.18.9,1.64,2.4,3.22,3.57,4.69,2.76,3.46,9.42,9.84,13.98,10.25,2.69,2.03,4.4.81,5.42,1.98.17.19,0,.99-.2,1.14l-2.27,1.61c-2.72.38-4.81,1.91-6.86,3.71-6.36,5.59-9.98,11.84-11.18,20.39-.71,5.1-.04,9.87,2.03,14.58,3.69,8.42,3.58,7.34,10.4,12.82,4.92,3.95,6.67,4.59,12.71,5.8,2.79.56,5.21,1.03,8.05.68s5.32-.55,7.55-1.97c-1.02-.33-1.02-.43-.41-.68.47-.24.83-.41.88-.24l.24.79c1.85-.93,5.24-2.88,6.26-4.4.52-.78.8-2.35,1.15-3.54l2.37.1-1.31-1.37-1.54.93c-.51-1.59-3.44-.49-3.19-2.31,1.77.93,3.51-1.08,3.43-1.36s-.75-.87-.97-.69c-.58.48-.48,1.85-.97,1.34l-.7-.71-1.21.68c.14-.68.34-1.08.2-1.28l-.68-.95c1-.04,2.1.09,3.13.36.3.15.27-1.06-.05-1.21s-1.02-.04-1.48.02l-.21-.67c-.03-.1-.18-.14-.23-.05l-.36.57c-.39.63-1.64,1.25-1.93.75-.09-.16.53-.79.45-.96l-.32-.76,1.81-.49c.39-.11.74-1.25.32-1.61l-.95.92c-1.13-.26-2.72-.24-3.69.18.72.66,1.35,1.37,1.57,2.03.11.36-.99.76-1.26.52l-1.02-.88c-.64.38-1.46,1.05-2.17.15,1.84-.23,2.72-1.14,3.05-2.8l.37-1.9c.83-.77,1.67-2.4.77-3.29h-1.84s-.45.34-.45.34c-.38.3,1.55.15,2.09,1.88-1.39,1.55-4.7-2.37-3.61-2.25l1.3.15c.12.01,1.21-1.68.67-2.16l-1.05-.92c-.08-.06.55-.67.7-.51l.72.78c.26.23.51-.89.77-1.69.27.29.6,1,.92,1.85l1.55-.05-.76-1.39c-.12-.22.36-.8.5-1.09.11-.22,0-.75-.12-.96-1.04-1.74-.23,1.42-1.46,1.37-1.32-.06-.07-1-1.63-1.99-.41-.26-.65-.41-.49-.46l.67-.24c.32-.12,1.09-.32.95-.55-.69-1.13-1.34-.89-1-1.25l.79-.84-2.12-.17.53-1.72,1.82.59-.05.73c-.01.16.4.41.53.45.58-4.31.82-1.69,1.45-5.27l-2.24,2.46c.78,2.34-2.21-.68-3.64-.77-.29.74-.36,1.03-.55.96-.13-.04-.6-.19-.42-.14l.7-2.23c.63-.11,1.7-1.1,1.78-1.74-.91-.33-1.59-.55-2.08-.77-.43-.19-.62-1.53-.66-1.99l-.1-1.12c-.03-.35.67.08,1.62-.78s-2.08-.19-1.78-.88l.52-1.21c.1-.23.91.25,1.07.27l-.08-1c-.01-.17.49-.46.65-.52l1.77-.61c.16-.05.72.16.82.02l.45-.62c.69-.1,1.41-.42,2.03-.98l1.81.44c1.04.25,1.98,2.24,1.73,3l-1.01.21c-.27.06.79,1.78.41.81,1.68-.76,2.66-1.53,3.18-3.33l-1.94,1.59-.34-2.11,1.87-.27c-.77-.5-1.25-.82-1.61-1.23l-.52-.59c-.1-.11-.51.29-.42.42l.48.67c.15.2-.22.66-.42.79-.73.45-1.68-1.67-1.4-3.05-4.56-4.39-5.72-4.38-11.72-5.16-.32-.04-.94-.44-1.12-.67s.18-1.08.49-1.25l6.33-3.35c1.24-.66,2.66-.72,3.21-2.44-.67.33-1.66.94-2.21,1.33-.31.22-.96-.02-1.29-.23-.7.38-1.54,1.05-2.6.11l3.14-1.12c-.01-.23-.06-.97.21-1.15l1.18-.77-.64-.5ZM192.33,112.72c-.49.32-1.62-.93-1.56-1.42,1.55.12,2.86.22,3.53-1.01l.23,1.32,1.34-1.66c1.05.44,2.29.41,2.89-.5l-3.64.08c-.37-.74.48-2.06,1.08-2.05.17.55.39,1.28.63,1.15l.82-.47.76-.44c.11-.06-.19-.35-.3-.4l-.75-.36,1.92.22-.11-1.37,1.08.72c.19.13.69-.26.68-.48l-.04-.92,1.68-.08c.21.17.13,1.44-.3,1.68l-.65.37c-.12.07.34.4.45.32.61-.47,1.85-.88,3.07-1.2l-1.62-.48c-.35-.88-.73-1.53-1.44-2.38l.87-.83,1.57,1.52c.13.12.66.02.69-.14.04-.19.03-.55-.13-.59l-.68-.18c.41-.54.82-1.21,1-1.78-.92.46-1.64.85-2.37.79l-1.56-.13c-.44-.04-1.28.04-1.51.36-.2.26-.23,1.05-.17,1.34.86-.52,1.44-.44,2.22.36l-2.62,1.29c-.18-.59-.27-1.33-.51-1.23l-.87.36c-.2.08-.09.81-.04,1.13.06.43-1.31.96-1.64.67l-1.25-1.09c-.89.54-2.01,1.15-2.78-.05l3.34-1.75-.06,1.27,1.87-2.26-1.87-.81c-.77.77-1.33,1.04-2.16.96-.65-.06-1.12-.97-1.27-1.49l-2.16.12c.48-.96,1.05-1.65,1.83-2.24.37.46.75,1.03,1.14,1.15.34.1,1.26-.2,1.56-.44l2.53-1.97c-.2-.26-.69-.69-.66-.92.05-.33,1.13-2.79,2.22-3.03l-.92-.28c-.19-.06.04-.65.21-.75l.58-.33c.36-.2,1.25-.63,1.31-.49l-.06.97c0,.16.53,0,.75-.05l.69-.18c.11-.03.06.26.05.41l-.03.74,1.35-1.57-.07,2.45c1.22-.38,2.45-.69,3.03-.23l-.13,1.27c-.02.18.67.35.92.49-.14,1.08-.87,2.01-2.21,2.89l1.74,1.13c.43-1.07,3.08-.89,3.27-.53.23.45.55,1.29.54,1.39-.55.21-.75.24-.66.33l.67.72-1.48.29c.41.68,1.16,1.04,1.94,1.1l.68.05c.12,0,.28-.41.17-.47l-.63-.34,1.02-.68-1.3-.88,1.14-1.17.8,2.18-1.33,3.65c.45,0,1.07-.02.98.22l-.42,1.11c-.1.27.13,1-.15,1.09l-1.47.47c-.19.09.61.64.85.51l.8-.44c.31-.17,1.18-.88,1.39-.6l.91,1.19c.26.34-2.63,2.84-3.55,3.25l.84,1.09c.12-.63.3-1.46.51-1.29l.93.74,1.18-2.97.68,1.22c-.66,1.09-1.11,5.35-.33,6.73,1.78-9.64.16-21.59-8.14-28.23-1.92-1.54-4.16-2.76-6.17-4.1l-.57,1.6c-.09.25-1.14.41-1.11.15l.07-.78c.04-.42-2.64.34-1.02-.67.69.16,1.74.09,2.58-.36-.86-.83-8.26-3.1-8.69-3.16-3.08-.42-5.92-.31-8.99-.08-1.47.11-2.61.5-3.92,1.15-1.1.55-2.65.87-3.67,1.65-4.42,3.39-8.79,6.84-12.28,11.08-3.48,4.23-4.81,9.13-4.96,14.43-.14,4.84,1.08,9.08,3.28,13.34,1.54,2.98,2.84,5.18,5.3,7.59.71.69,1.13,1.25,1.71,2.19-1.47.15-2.56.17-3.96.03-6.29-.65-14.33-.15-19.41,3.72-.71.54-1.43,1.39-2.18,1.87-2.81,1.8-5.09,3.9-7.03,6.56-1.1,1.5-2.44,3.04-3.03,4.8-.97,2.87-1.92,5.41-3.13,8.14-1.06,2.39-1.31,5.2-.68,7.76.45,1.82,1.79,3.39,2.43,5.05.93,2.45,2.01,4.42,3.73,6.35,2,2.25,3.64,4.83,5.91,7,2.51,2.39,5.89,4.1,9.2,5.25,1.8.63,3.8,1.47,5.63,1.54l7.12.27c.44.02,1.36-.34,1.75-.42,5.69-1.14,8.78-3.3,12.86-6.87.96-.84,2.45-1.32,2.66-2.66-.92.66-1.43,1.36-2.31.52l1.83-1.67c.2-.2.88-.79.96-.54l.31.96,1.41-2.01c.37-.53.78-1.67.97-2.22l-.82-.56c-.16-.11.2-.87.26-.84l.83.98,1.55-3.64c.59-1.39,1-2.45,1.3-3.98,1.11-5.58,1.36-11-.25-16.45-1.85-6.22-3.89-6.8-7.34-12.59,6.71.97,13.96,1.47,19.73-2.13,1.55-.96,3.33-1.82,4.51-2.97l4.78-4.64c2.81-2.73,2.73-2.2,4.51-5.55l-1.26.03c-.18,0-.22-.62-.11-.76l.5-.68.81-1.98-.15-1.98c-.7-.28-1.43-.68-1.75-1.45-.44.89-.03,1.89,1.02,2.6.26.72-1.19,1.72-2.2,1.29-.74.23-1.09.62.25.51.93,1.66,1.9,3.3.76,4.7-.15.18-.61.57-.74.44l-.49-.48,1.48-1.69-1.2.11.56-2.11-.96,1.35-.52-1.38c-1.14.83.23,1.53.15,2.22l-.28,2.61c-.03.3-1.09.53-1.34.33s-.51-.74-.54-1.07.55-.81.84-.94l.62-.3c.1-.05.1-.32-.01-.32-1.84,0-1.77,1.43-3.77.32l1.46-2.22c-1.36.62-2.2,1.53-3.44.95-.23-.11-.97-.75-.74-.86l.8-.4c.44-.22.93-.47,1.13-.72.17-.2,0-.94-.1-1.17-.69.57-1.2,1.2-1.63,1.1l-1.81-.4c.36-.34.98-.83.95-1.17l-.24-2.25c-.41-.65-.9-1.56-1.25-2.34-.01.11-1.05.6-1.4.5s-.52-.62-.71-1.15l-.97.21.24-.78c.05-.16-.42-.51-.41-.48-.37,1.13-1.01,1.65-1.98,2.16l-2.13,1.11-.74-2.83,3.29-2.24c-.35.93-.55,1.8-.19,2.36l1.69-1.08c.36-.23,1.28-.48,1.83-.69l-1.47-2.35c-.82-.3-1.93.43-2.88,1.05ZM277.61,91.61c.02-.49-.04-.77.1-.84l.64-.27c.16-.07.32-.42.38-.59.04-.11-.56-.28-.65-.2l-1.89,1.62.22-1.68c-.72.28-1.47.58-1.3.81l.7.96-1.15,1.35,1.28.6.69-1.63c.11-.26.75-.13.98-.12ZM278.74,92.48l1.4-.56-.84-1.81c.23.54-3.34,3.48-1.38,2.7l.82-.32ZM283.76,92.33c-.23-.02-.1-.52-.05-1.01-1.01.32-2.31,1.2-1.66,2.45l.82-.92c.58-.65,1.21.34,1.53,0l.35-.37c.08-.08-.85-.15-1-.17ZM286.47,94.2c.61-.13,1.76-.95,1.59-1.9-5.36,1.62-3.56,3.3-3.48,3-.01.04.26-.33.35-.44l.64-.78c.11-.13.72.17.9.13ZM274.48,95.43l2.87-.6-.07-1.57-2.2.71-.6,1.46ZM200.47,100.38l.47,1.38c.53-.34.99-1.28.71-1.55l-1.14-1.08c-.25.09.14-.05.51-.18l.84-.26c.16-.05.04-.5-.11-.56l-.58-.24c-.41-.17-1.46-.27-1.58-.69l-.55-1.88c-2.24,2.41-.9,2.81-4.07,5.32.07.11.77.48.88.32l.57-.81,2.91,1.96c.35-.24.82-.56.73-.49l-.72-1.12c-.09-.14.57-.3.71-.4s.37.13.42.29ZM280.87,97.91c1.19-.66,1.3-.97.98-1.68-.17-.38-1.02-.85-1.21-.51-.38.66-.16,1.94.24,2.18ZM205.16,116.75l.94,1.3.67-2.75-1.03-1.81-1.39.62c-.45-.5-.84-1.49-.87-2.12l-.64.07c-.32.03-.27-1.75-.73-1.79l-1.41-.12c-.19-.02-.69-.15-.86-.2s-.28.71-.11.77l.58.2,1.34.47-1.58.3c.19-.04-.58,1.35,1.15,1.9.24.08.6-.57.42-.75l-.64-.68c-.13-.14.71-.44.84-.29l.4.49c.38.48.96,1.04,1.36,1.39l-.52.92c-.09.16.36.58.52.51l.85-.35c.43-.18,1.17-.3,1.51-.29-.24.79-1.08,1.76-.78,2.18ZM290.68,114.92c.42.08.9.14.88-.01l-.09-.66c-.08-.64.02-1.21.44-1.92l-.31-1.56c-.3.42-.43.54-.43.76-.06,2.65-.81.69-.74,2.92.58-.67.76-.87.25.46ZM200.07,118.65c1.06.89,4.28.24,3.85-.66l-1.36-2.85c-.4.76-.41,1.76-.1,2.72.02.66-1.51.65-2.39.79ZM212.65,115.92l-1.16.58c-.15.08-.35-.63-.48-.74-.14-.13-.76-.3-.74-.11.02.13.07.75.11.89l.83,2.5c1.06-.88,1.4-1.97,1.44-3.11ZM284.08,121.84c.44.23.85.61,1,.47l.84-.82c.16-.16-.16-.73-.38-.68l-1.43.33.68-1.09c.16-.25,1.05.11,1.15.06l-1.16-1.92-.68,1.39c-.38.77-.62,1.56-.86,2.53l-2.05-.21c.63.45,1.34,1.1,1.62.88l1.24-.94ZM204.85,121.39l1.56-1.18c-1.23-.16-2.36-.09-3.59.39.72.95,1.46,1.22,2.02.79ZM306.86,148.97c-.46.63-.65.83-.51.92.11.07.47.3.43.27l1.36-3.24c.27-.65,2.14-1.13,1.58-2.02l-2.09-1.64.65-.75-1.24-.4c-.25-.08-.23-.98-.49-.96l-1.15.12c-.55.06.37-2.09.06-2.22l-.68-.29-1.22,2.09,2.11,1.27c.33.1,1.01.13.97.41-.35,2.44-.63-.15-1.42,3.11l-.28,1.15c-.05.19.82.36.86.16l.21-.95c.14-.62.85-1.62,1.65-1.69.34.12.69,1.02.49,1.32l-.85,1.31c-.29.45-.6.87-.97,1.33l.53.71ZM245.04,168.74l2.31-1.42-2.82.02,1.48-2.3c-1.88-.84,1.8-3.42.06-3.22-.81.09-2.14,1.21-2.27,1.73.46.94.81,1.87.31,2.44-.45.51-1.35.87-1.8.86l-.3-.86c-.5-.19-1.23-.51-1.43-.82-.16-.26.08-1.06.37-.96.56.21,1.34.45,1.54.13l1.2-1.98c.08-.15-1.17-.37-1.23-.04l-.24,1.3-1.98.03.88-1.65-.99-.45c-.15-.07.16-.29.59-.75-1.49-.89-1.32.51-2.91-.51-.23-.14.33-.81.52-1.07l-2.39-2.63,1.54.13-.38-1.03c-.06-.16.24-.47.41-.43l1,.28.65-1.86-.85-1.69-1.66.59c.47-1.05,1.19-1.73,1.89-2.14l.67,1.95,1.74-1.27c.9-.65,1.29-1.12,1.37-2.3.32.08.86.98.66,1.19l-.78.87c-.03.22.26.94,0,.96l-1.08.09.59,1.07c.11.2-1.01.34-1.17.52-.39.41.36,1.51,1.15,1.83l-.87.58,1.63,1.63v-3.28c.01-.31.21-.86.37-1.14l1.22,2.75c.2.46.33,1.57.28,1.92-.66-.14-1.19-.4-1.28-.18l-.46,1.07c-.59-.03-1.31-.06-1.73.04-.36.09-.59,1.55-.24,1.41,1.63-.75,2.5-.95,3.39-1.95l.9,1.47.79-.74c.49-.46-1.47-.88-1.04-1.27.63-.57,1.15-1.01,1.91-1.52.27-.18,1.19.29,1.15.44l-1.01,1.1c-.15.17.46.8.45.73.27-.38.64-.88.89-1.05.23-.15.66.12,1.04.38,2.16,1.48.16,2.66,1.03,5.43l1.9-.14-.67-.8c-.11-.13.29-.44.4-.32,1.47,1.7-.42.57,1.48,2.4-.6.35-1.29.91-1.4,1.43-.2.92-.26,1.53.59,2.2.13-.55.05-1.21.34-1.24l1.62-.15-1.34,2.11,2.72,1.52-.99,1.7.78,1.59-.61,3.02,1.3-.84-.18,3.7c1.54-5.5,1.8-12.74-.7-18.3-1.68-3.74-4.23-6.85-6.8-10.17l-2.53-.78c.05-.16.48-.96.56-1.09l-2.01-1.62c-3.06-2.48-6.93-3.85-10.79-4.74-3.13-.72-6.13-.6-9.25-.32-3.37.3-5.24.76-8.31,2.25-2.15,1.04-4.06,2.17-5.83,3.73-1.18,1.03-2.46,2.02-3.35,3.25-1.91,2.65-3.95,5.1-5,8.26-2.19,6.58-2.46,13.61-.36,20.42,1.54,5,7.39,13.14,12.24,15.88l4.09,2.3c2.95,1.67,6.28,1.99,9.65,2.31,6.53.62,12.74-1.73,18.01-5.49,1.93-1.38,3.24-3.06,4.76-4.9l1.76-2.13c-4.1-.39,2.53-3.77,1.26-5.15l-1.11,1.54c-.26-.02-.94-.31-.96-.08l-.13,1.08c-.03.23-.84-.37-.75-.58l.35-.82c.05-.12.1-.51-.02-.49l-.64.12c-.26.05-1.02.38-.89.59l.64,1.04-.83.44c-.28.15.29,1.5-.85,2.8l-.56-1.8-2.6,1.12,1.75.37.34,1.65c.05.25-.37.92-.62.81-.2-.09-.83-.38-.78-.36l1.07-.8-3.11-.12.12-1.8,2.91-1.76c.31-.19.73-.42.92-.28l.78.57-.8-1.96-2.13,1.67c-.33-.66-.48-1.07-.76-1.21l-1.41-.69,2.58-.31c.24-.25-.21-1.72-.61-1.85-.3.5-.5,1.13-.71,1.03l-.8-.41c-.24-.12-.95-.23-1.22-.23s-.32.88-.34,1.11c.84.45.96,2.63.61,2.8-.24.12-.71.28-1.17.44l1.03-1.76c-.89-.56-1.87-.77-2.93-.72-.04-.08-.13-.81.06-.88l.88-.32c.57-.21,1.28-.53,1.65-.74-.41-.48-.87-1.04-1.14-.92l-1.16.53-2.55-1.08-.26-1.65c-.16-1.03.58-2.23,1.18-3.39l-.95.53-.03-2.03c.03-.39,1.24.19,1.67.5l.48-1.02c.1-.21.68.31.98.57l3.07-1.45-1.28-.68-1.88,1.38c-.81-3.41,2.23-.47,3.54-2.69l-1.29-1.19-1.97.75-1.28,2.5h-2.38c-.42-.45.54-1.57,1.33-1.55.74-.18.97-.49.02-.5-.47.28-.93-.31-.95-.73-.01-.25.29-.78.54-.82.86-.13.86.95,1.84.52.44-.19-1.21-1.84-.22-1.94l1.35-.13-.34,1.9,1.16-.25c.27-.06-.1-1-.06-1.15l2.31-1.3.92,1.74ZM302.39,150.13l.16-2.09-1.35-.33c-.24-.91-1.07-1.73-2.09-1.2l1.09.87-.72,1.11c.81-.33,1.61-.63,1.85-.21l1.05,1.84ZM311.25,148.59l-.33,2.33,1.11-1.11-.08-2.55-1.65,1c-.14.08.04.85.04,1.01,0,.11.28-.28.37-.34l.53-.34ZM299.46,156.55c.86.07.42-3.4-.02-3.58l1.19-.04-1.41-2.04c-.37-.54-1.54-.56-2.14-.04l-1.23-1.39c.81-.37,1.35-.44,1.43-.75.07-.25,0-1.08-.02-1.01-2.13,1.55-3.67.57-3.85,1.05l-.3.8c.78-.47,2.19-.08,2.53.72-.55.56-1.41,1.66-.72,2.36l3.25-1.41.72,1.86c-.74.29-.4.39.32.6-.27.95-.46,2,.25,2.87ZM308.54,153.35c-.12-.24-.31-1.23-.56-1.13-.28.11-.84.88-.68,1.14s.54.75.76,1.01c.39.27.77.57.89.38.17-.27.45-.8.25-.93l-.67-.47ZM312.62,152.96c-.94-.01-1.62.11-1.98.51-.6.68-.85,1.15-.27,2.13l2.24-2.65ZM303.6,158.48l.17-1.68c.05-.49-.3-1.3-.59-1.59l-1.56,2.54c.86,0,1.12.1,1.98.73ZM298.68,163.83c-.63-1.23-.51-1.05-.68-1.29-.13-.19-1.27-.21-1.27.02v1.25c.02.32.78.88,1.08.75s.88-.68.86-.73ZM248.91,164.86l-1.09,1.27-.3-1.18c-.13-.49-1.16,1.13-.81,1.35.5.3,2.08.59,2.52-.15.17-.3-.23-1.12-.31-1.28ZM251.48,173.36l1.95-2.52c.23-.3-.54-1.11-.77-.85l-1.97,2.15.78,1.22ZM244.34,176.31c-1.7-.48-2.24,1.44-4.72.05l1.64-1.05c.12-.08.13-.57,0-.56l-.66.05c-.59.05-1.38.28-1.55.72-.3.75-.02,1.29.53,1.67-.35.27-1.11,1.36-1.41,2.09-.14.34.42.92.8,1.17.28.19.87.06,1.49-.2-.84-.68-.46-1.97.27-2.58.51-.43,1.75-.23,2.07.33.36-1.11,2.32-1.48,1.56-1.69ZM254.43,178.85c-.2-.91.3-.09,1.24-1.65.49-.81-.96.74-2.4.39.53.69.73,1.44.45,2.24-.08-.02.56.16.79.23.2.06,0-.82-.08-1.21ZM251.61,179.73c-.07-.41-1.27-.41-1.46-.16l-.97,1.33c.57.53,2.6-.19,2.43-1.17ZM160.73,230.67c-.35-.2-1.29-.79-1.11-1.11l.66-1.16-1.89-1-.22,1.67c-1.36-1.27-4.26-.56-3.72-1.52l.61-1.08c-1.55.53-2.18,1.95-2.19,3.84l-1.77-.77.52,1.69c-.64.34-1.34.81-2.07,1.35-.13-.48-.96-1.65-1.4-1.76l-1.82.53,1.56-1.35-1.24-.69c1.94-.42,1.07.65,2.61.55-.05.46.1.98.54,1.3.35.25,1.06-.32.9-.64l-.48-.95c-.09-.18.69-.74.53-.86l-1.2-.88c-.47.55-1.2.94-1.71.71,1.04-.92,1.51-1.13,2.68-1.11l-1.65-1.12c.32-.13.69-.26.81-.15l.77.67,1.04-1.63c1.37.72,2.97.55,2.93-.73l-2.68.11c-.56.02-1.45.01-1.8-.28-.3-.25-.54-1-.71-1.54-.02,0-.51.29-.47.46l.25.96c.07.28-.91.14-1.13-.06s-.46-.75-.29-1,.76-.6,1.3-.87l-.39-.96c-.7.67-1.26,1.08-1.86,1.17-.44.06-1.37-.85-1.16-1.22l1.12-2.08c.21.67.42,1.1.31,1.29l-.52.96c.54,0,1.49-.56,1.48-1l-.03-1.53,1.28-.37c.26-.07-.04-.89.13-1.1s.73-.72.82-.53c.1.2.32.49.21.62l-.69.81,1.01-.12c.21-.02-.05.85-.14,1.05-.4.9-.15,1.46-.03,2.27l.38,2.53c2.23-.68,3.64.57,4.24-.5.18-.32-.59-1.43-.85-1.17l-1.05,1.04-2.13-.8,2.86-1.13c-.46-.33-.99-.76-1.26-.62l-1.19.59.9-1.42c0-.79.76-2.26,1.48-2.01.91.32,1.48.58,2.45.16l-2.62-1.25,4.65-.84c.95-.17,1.74-1.33,2.71-.14-.31.25-1.11.78-1.36,1.12l-1.22,1.62,1.44,1.32.37-.78c.05-.1-.12-.25-.26-.44l-.36-.49c-.07-.09.44-.37.55-.38l2.81-.22c-.55-1.19-.34-2.52.5-2.74.47-.12,1.68,1.02,1.43,1.44l-2.14,3.7c.51.71,1.4.78,2.06.41.5-.28.89-.93,1.22-1.71l-1.72.26c-.01.06.18-.72.28-1.11.07-.29,2.37.29,2.3.7-.04.27-.2.84-.31,1.16l-.63,1.84c-.4-.13-1.47-.14-1.69.18l.72,3.97c.45-1.27.63-1.79,1.57-2.32l.84-.47c.74-.42.28,1.75.9,1.41l.93-.52c.2-.11-.58-.71-.49-.92l.47-1.08c.12-.28-.36-1.09-.58-1.2-.49-.04-1.29-.19-1.3-.57,0-.32.31-.95.5-1.27l-.77-.44c-.15-.09-.11-.49.04-.56l.96-.42-1.6-1.15c-.06-.14-.26-.61-.24-.57.01.03-.47-.09-.5-.09-.15-1.13-1.05-2.14-1.81-3.02l-1.57-1.81c-2.4-2.78-5.24-4.58-8.64-5.98-3.81-1.57-9.68-3.26-13.75-2.76-2.82.35-5.56.92-8.27,1.6-2.14.53-3.1,2.35-4.65,3.32-7.95,4.98-12.97,12.59-14.39,21.81-.91,5.9-.06,11.15,2.6,16.51,1.65,3.32,3,6.46,6.07,8.88,1.58,1.25,2.97,3.05,4.85,3.98,2.31,1.15,4.75,1.73,7.17,2.52.8.26,1.68.69,2.53.81,8.89,1.29,9.96,2.08,18.07-2.06,7.99-4.08,13.33-11.74,15.66-20.11-1.2.39-.97,1.26-1.23,2.17-.15.53-.68,1.33-.87,1.79l-.55,1.33c-.13.33-1.35.35-1.33.19l.16-1.64-.81,1.79c-.22-.04-1.49-.44-1.51-.14l-.11,1.42c1.09-.47,1.84-.66,3.13-.57l-1.49,2.76c-.46.85-1.23,2-1.78,2.77-.99.84-3.32.36-4.07-.59-.18-.25-.55.31-.75.69-.1.2.59.39.97.56.15.07.23.58.28.82.03.18-.3.05-.86-.02-.55-.29-.96-.77-1.52-1.57l-.93,1.56c-.48.8-1.27,1.16-2.31,1.38-.05.94,1.36,1.95,2.41,1.97l.84.02c.18,0,.3.63.33.85-1.17.52-4.7-.85-4.74-1.03l-.27-1.14-2.37-.31,1.07-.96c.18-.16.39.43.56.68l2.02-.37c.16-.24.28-1.14.57-1.25l1.32-.48-1.06-.95c.25-.3.76-.78.64-.98l-.6-.98s.76-.17.99-.22c.21-.05.09.48.12.65l1.39-.18,1.59-1.74c-1.83-.13-4.52.64-5.06,1.84-.45-.94-.62-1.43-.43-2.39l-4.51-1.21,2.19-1.62-1.25-.28c-.12-.28.05-1.6.47-1.91.37-.27,1.33-.5,1.86-.67.11-1.08.1-1.98,1.24-2.54l-.84-.69c-.2-.17-.68.64-.74.9l-.24.95c-.34,1.34-1.1-1.91-1.65-1.75l-.4,1.1c-.19.53,1.67.97,1.13,1.28-.17.1-.41.3-.5.18-.06-.08-.33-.36-.45-.49l-1.21,3.13c-.08.09-.72-.11-.68-.3l.18-.78c.06-.24.47-.68.33-.88l-.69-.98,1.71-.61-.31-1.38c-.06-.26.57-.49.92-.78.45-.37-.25-1.99-.84-1.98-.94.01-2.13.6-2.77-.44l1.25-.15c.13-.59.77-1.44,1.24-1.54.86,2.88,1.55-1.48,2.76-1.04.38,1.18-.39,2.04-1.26,3.29.32.14,1.49.06,1.89-.21.32-.22.05-1.06-.11-1.67l1.89-.34c.52-1.14-2.52-2.26-.96-2.74l1.04-.32-.38-1.55c.5.05,1.06.07,1.14.33l.35,1.09,1.34-1.73c.19.18.48.46.46.47-.03.02-.3.33-.36.41l-.9,1.04c.7.31,1.5.34,1.91-.13.35-.39.69-.99.92-1.43l1.32,1.9c.11.21-.3,1.09-.06,1.06l1.07-.11c.24-.03,1.02-.59.81-.71l-.95-.53ZM307.37,204.78l.21-2.99c-1.07.34-2.12.85-2.64,1.93.65.02,1.22-.47,1.46-.77l.97,1.83ZM310.57,213.18c-.35-1.04-1.34-1.65-2.33-1.83-.21,1.55,1.62,2.49,2.58,2.5.15,0,.5-.62.34-.63l-.6-.03ZM310.84,219.34c.26-.06-.18-1.08-.4-.95l-1.03.62-1.18-.96-1.01,1.93,1.6,1.34.51-1.71c.1-.33,1.18-.21,1.52-.28ZM157.26,221.93l-.4-3.25-.99.61c-.18.11-.69-.43-1-.55-.4.28-.64,1.49-.54,2.11.08.46.8,1.21,1.26,1.18l1.67-.09ZM157.94,225.91c.3.03,1.15-.09,1.07-.38-.21-.82-.81-1.43-.84-1.44-.28-.15-.27,1.33-3.22,1.56l2.98.26ZM310.65,227.48c-.36-2.82.19.72-1.24-2.62l-.28-.65c-.05-.12-.31.22-.33.35l-.08.48c-.09.54-.15,1.51.21,1.83.32.29.98.46,1.71.61ZM165.56,226.98c.83.64,1.36,1.24,1.95,2.05l.39-2.38-1.04-1.95c-.22.17-.67.58-.54.77l.74,1.15-1.43-.17c-.12-.01-.77-.02-.68.05l.61.47ZM313.08,229.26l-.78-1.17c-.22-.33-.86.38-1.19.94l-1.55-1.17c-1.89.88-2.38-2.47-3.63-.75,2.05.26.77,2.25,4.82,2.17l-3.32,1.79,1,.05c.11,0,.07.14.06.3l-.11.91,2.29-2.4,2.41-.67ZM313.3,232.35c.25.11.45.27.57.19.08-.06.32-.36.31-.36l-.53-.3c.58-.41,1.07-.81,1.63-1.79l-3.41,1.89,1.43.38ZM156.89,233.51l.03-1.93-2.11,2.06c.47.86,1.15.37,2.08-.13ZM314.82,235.15c-.41-.37-.69-.56-.61-.63l.49-.43c.43-.38,1.05-1.17,1.23-1.6-.95-.47-1.53.35-1.81,1.06l-.45-.53-.68,1.6c.36.78.46,1.38.38,2.38l1.44-1.85ZM168.21,237.37c.12-.48.37-.84.21-1.03l-.67-.8c-.17-.2.2-1.03-.05-1.11l-1.06-.34c.09.68.21.98.05,1.12l-.62.51c.44.54.83,1.13,1.26,1.87l.4.71c.05.1.31-.26.34-.36l.14-.57ZM154.38,247.73c1.42-1.37-.83-2.19.21-2.61.2-.08.81-.15.83.06l.04.79c1.54-.58,2.65-1.92,2.88-3.61l-1.22-1.93.18,1.91-2.18.33c-.34.05-1.07.82-.81,1.01l.99.71-2.59,1.03,1.66,2.29ZM160.25,248.02l.71-1.19c.78-.23,1.52-1.3,1.2-2.07l-3.37,1.91c-.25.24,1.15,1.86,1.46,1.36ZM163.55,248.98l.03-1.31c-.5.04-.84.16-.95,0l-.48-.71-1.39,1.43,2.8.6Z"/>
  <path class="cls-1" d="M298.32,177.4l.91,1.16c.2.25-.2.9-.53,1.42l2.71.52c.15.03.29.94.4.83l.55-.55c1.84-1.83-.12,2.4.89,2.29l.57-.66c.11-.13.56-.57.61-.4l.17,1.01-1.15,1.2-4.81.67,1.87-1.79,1.24.99c.19.15.82-.53.81-.6l-1.99-1.99c-3.39-.39-1.04-1.28-3.15-1.31-.12-.29.17-1.6.41-2l-1.3-.69,1.77-.11Z"/>
  <path d="M304.61,183.02l-.17-1.01c-.05-.17-.5.27-.61.4l-.57.66c-1.01.11.95-4.13-.89-2.29l-.55.55c-.11.11-.24-.8-.4-.83l-2.71-.52c.33-.52.72-1.17.53-1.42l-.91-1.16c.54-.03,1.27-.16,1.3-.46s-.2-1.16-.5-1.11l-1.47.23,1.18-1.47-.35-.93c.47-.8,1.66,3.71,2.28,2.44l.55-1.13c.19-.4,1.45.5,1.62.71l-2.21,1.4-.67.59c-.15.14-.05.85-.01.99l1.05-.23c.45-.1.64,1.44,1.33,1.27l.99-.24.42,2.34,2.01-.57c-.07.43-.22.91-.03.84l1-.33,2.33.87-1.71,2.27-1.86-.71.59-1.36c.06.02-.64-.41-.85-.26l-.68.49Z"/>
  <path d="M275.49,122.79c-.1-.33,0-.99-.18-.99h-.81s2-.98,2-.98c.33.18.76.6.99.48l1.08-.58c.24-.13.95.03,1.14-.17l.69-.75.38,2.1c-1.64-.72-2.61-.63-3.4.55-.31-.24-.97-.76-1.16-.53l-.72.88Z"/>
  <path d="M274.49,121.8c.02.3-.16.95-.42,1.05-1.49.61-2.04-1.57-1.96.11.01.2.44.49.68.55,1.26.28,1.77.15,2.7-.71.19.64.6,1.74.92,2.42l2.05.87c.17-.36.34-1.5.43-2.35l1.63.24-.64,1.84,3.36-1.02-1.76,2.26-1.79-.54.82,1.68-2.92,1.89-1.85-1.48c-.14.32-.29.72-.14.81l.84.47c.12.07-.09.39-.21.46l-.77.39,2.56-.16c.64-.04,1.57.53,2.33,1.03.46.18,1.34-.54,1.8-1.11l-2.51-.27c.68-.79,2.25-.91,3.15-.14l2.58-1.5c-.52,1.85-2.87,1.67-2.15,3.44,3.91.17,7.93-.09,11.72,1.05l4.26,1.28c-.48.36-.94.75-.76,1,.24.33.88,1.09,1.19.9s.55-.88.63-1.4l3.47,2.32-1.25,1.77c-.15.21-.78.38-1.34.44-.28.03.06,1.07.32.94s.73-.4,1.3-.74l.12,3.69-1.12-1.65c-.22-.33-1.36-.35-1.59-.24l-.23.87c-.07.25-.97-.4-1.14-.5l-2.01.9-1.64.73c-.41.18-1.31-.56-1.59-.95l-1.78,1.96,1.44.46-.7.79c-.11.13-.04.7.02.57l2.39-.85-1.68,1.49-1.13,1.96-.22-1.09c-.05-.27-.99-.66-1.05-.39l-.4,1.75c-.07.3.53,1.11.76.91l1.17-1.01.21,1.26,1.36.99c.3.22-.15,1.3-.52,1.32-.3.02-1.09,0-1.04.16l.33,1.03c.14.45,1.25-.83,1.44-.69l.6.42c.19.13.95.38.84.58-.11.21-.41.79-.38.73-.53-.26-1.04-.5-1.36-.58s-.99.74-.85.73l2.58.71-1.8.94c.44.61,1.32.38,1.82.36.43.54,1.2,1.4,1.52,1.57l.44-1.15c.06-.16-.75-.13-1.21-.16l.35-3c2.11,1.1-.65,2.8,2.32,4.1-.8.55-1.53,1.26-1.43,1.71l2.38.26-1.29,1.99-.21-1.26c-.04-.25-.96-.2-1.12,0l-.67.85c-.09.11-.58-.56-.71-.5l-.78.33-.84.37c-.24.11.04,1.02.3,1.05l1.69.16c.2.95-.06,2.18-.4,2.94l1.41,1.53c.11.12.39.24.54.28.2.06.53-.27.47-.47-.08-.25-.47-.71-.67-.75-.17-.04-.82-.03-.76-.14l.43-.89c.08-.16.67-.02.76-.19l.49-.89,1.31,1.66-.93,1.08c.27.54.51,1.01.45,1.36-.14.94-1.46.8-3.28,1.04l-.89.12c-.24.03-.24.88-.09.83.9-.17,1.99-.44,2.18-.13l1.27,2.05c.36-.8.49-1.38.75-1.63.3-.29,1.21-.38,1.86-.54l-.58,1.63c-1.2.36-2.64.89-3.73,1.55l.68,1.05-2.18,2.06c.49.3,1.07.15,1.56-.17.34-.22,1.02.41,1.3.76l-1.77.11,1.3.69c-.23.4-.52,1.71-.41,2,2.11.03-.24.92,3.15,1.31l1.99,1.99c.01.08-.62.76-.81.6l-1.24-.99-1.87,1.79,4.81-.67,1.15-1.2.64.5-1.18.77c-.28.18-.23.93-.21,1.15l-3.14,1.12c1.06.94,1.89.27,2.6-.11.34.21.98.45,1.29.23.55-.39,1.54-1,2.21-1.33-.55,1.72-1.96,1.78-3.21,2.44l-6.33,3.35c-.31.16-.67,1.02-.49,1.25s.8.63,1.12.67c6.01.78,7.16.78,11.72,5.16-.28,1.38.67,3.5,1.4,3.05.21-.13.57-.59.42-.79l-.48-.67c-.09-.12.32-.53.42-.42l.52.59c.37.41.84.73,1.61,1.23l-1.87.27.34,2.11,1.94-1.59c-.52,1.8-1.51,2.57-3.18,3.33.38.96-.68-.75-.41-.81l1.01-.21c.26-.77-.69-2.75-1.73-3l-1.81-.44c-.62.56-1.33.88-2.03.98l-.45.62c-.1.14-.66-.08-.82-.02l-1.77.61c-.16.06-.67.35-.65.52l.08,1c-.17-.02-.97-.5-1.07-.27l-.52,1.21c-.3.7,2.71.05,1.78.88s-1.65.43-1.62.78l.1,1.12c.04.46.24,1.8.66,1.99.49.22,1.17.44,2.08.77-.08.64-1.15,1.62-1.78,1.74l-.7,2.23c-.18-.06.3.09.42.14.19.06.26-.23.55-.96,1.42.09,4.42,3.11,3.64.77l2.24-2.46c-.63,3.59-.87.97-1.45,5.27-.13-.04-.54-.29-.53-.45l.05-.73-1.82-.59-.53,1.72,2.12.17-.79.84c-.34.36.31.12,1,1.25.14.23-.63.43-.95.55l-.67.24c-.16.06.09.21.49.46,1.57.99.32,1.94,1.63,1.99,1.24.05.43-3.1,1.46-1.37.12.21.22.74.12.96-.14.29-.62.87-.5,1.09l.76,1.39-1.55.05c-.32-.85-.66-1.56-.92-1.85-.25.8-.51,1.92-.77,1.69l-.72-.78c-.15-.16-.78.45-.7.51l1.05.92c.54.48-.54,2.17-.67,2.16l-1.3-.15c-1.09-.13,2.22,3.79,3.61,2.25-.54-1.72-2.47-1.58-2.09-1.88l.45-.35h1.84c.91.9.06,2.53-.77,3.3l-.37,1.9c-.32,1.66-1.21,2.57-3.05,2.8.71.9,1.52.23,2.17-.15l1.02.88c.28.24,1.37-.17,1.26-.52-.21-.66-.84-1.36-1.57-2.03.96-.42,2.55-.43,3.69-.18l.95-.92c.42.36.07,1.5-.32,1.61l-1.81.49.32.76c.07.17-.55.8-.45.96.29.5,1.54-.12,1.93-.75l.36-.57c.05-.09.2-.05.23.05l.21.67c.47-.06,1.16-.17,1.48-.02s.35,1.36.05,1.21c-1.04-.27-2.13-.41-3.13-.36l.68.95c.14.2-.06.6-.2,1.28l1.21-.68.7.71c.5.51.39-.86.97-1.34.21-.18.89.43.97.69s-1.66,2.29-3.43,1.36c-.25,1.82,2.68.71,3.19,2.31l1.54-.93,1.31,1.37-2.37-.1c-.35,1.19-.62,2.76-1.15,3.54-1.02,1.52-4.41,3.47-6.26,4.4l-.24-.79c-.05-.17-.42,0-.88.24-.61.25-.61.35.41.68-2.23,1.42-4.78,1.63-7.55,1.97s-5.25-.12-8.05-.68c-6.05-1.21-7.79-1.85-12.71-5.8-6.82-5.48-6.7-4.4-10.4-12.82-2.07-4.72-2.74-9.48-2.03-14.58,1.2-8.55,4.81-14.79,11.18-20.39,2.06-1.81,4.14-3.33,6.86-3.71l2.27-1.61c.21-.15.37-.95.2-1.14-1.03-1.17-2.73.05-5.42-1.98-4.56-.41-11.22-6.78-13.98-10.25-1.16-1.46-2.67-3.04-3.57-4.69-3.18-5.83-3.17-12.87-1.56-19.18.51-1.99.78-3.91,1.44-5.78,1.37-3.83,4.05-7.29,6.97-10.04,1.33-1.25,2.58-2.04,3.63-3.64l-7.31.55c-2.82.21-6-.29-8.66-1.23-1.42-.5-2.91-1.36-4.15-2.08l-3.78-2.2c-1.24-.72-2.42-2.05-3.57-3.01-2.96-2.45-4.99-5.35-6.38-8.95-1.48-3.83-2.91-7.65-2.71-11.91.18-3.85,1.17-7.57,2.61-11.28,1.7-4.39,4.95-8.08,8.24-11.43,2.52-2.58,5.18-4.03,8.7-5.15,4.02-1.28,12.3-2.35,16.11-.48-.04.51-.19,1.6.08,1.54l1.32-.27c.04-.17.09-.31,0-.37l-.82-.62,1.31.18c.38.05.28.92.05,1.6l2.88,1.45c.09.05.54-.3.64-.32,1.05-.25-3-.99-2.22-2.01,1.32.29,2.41.75,3.59,1.36l.56.29c.17.09.14.75-.04.71l-1.07-.27c-.08.05-.16.98.07,1.21s.96.4,1.27.32.47-.64.79-1.35c1.27.55,2.14,1.99,2.74,3.44l.61,1.47c.06.15.52.36.67.42.2.08-.39.78-.6.82l-2.53.44,1.74-1.81-1.58-1.41-.51,1.25c-.13.31-1.52.03-1.33-.07.16-.99-.12-2.09-.69-2.59l-1.31,2.24c-.26.44-.16,1.44-.11,2.23l-1.66-.49.55-.54c.1-.1-.04-.54-.18-.5-2.44.74-.05.59-2.85,1.19.73.38,1.45.87,1.63,1.41.82,2.43-1.44,1.43-.83,3.9.03.12-.33.4-.41.3l-.65-.76,1.16-2.92-1.65-1.23c-.14-.1-.82.32-.72.46l.67,1.02c-.69.64-1.75.8-2.92.48l.31,1.09c.06.21.62-.04,1.19-.14l.29,3.05.96-2.01c.14.94.08,1.42-.06,2.53.42.16,1.29.2,2.59.18l-1.64,2.74c1.63-.67,2.73-1.72,4.35-3.05l.49,1.74-3.59,1.42.65,1.26c.13.25-.45.75-.75,1.07l-1.16-2.03.22,2.41c.02.21.09.62-.04.62-.19,0-.86.06-.82-.12l.17-.88c-.33-.18-1.49,1.02-1.22,1.36l2.21,1.04,1.95-3.05-.18,2.9-1.2.22c-.16.03-.62.53-.5.65l.5.5c.11.12.45-.34.6-.38l.98-.27c-.22.06,1.32-1.75.15-3.66.69.58,1.15,1.59,1.23,2.6.04.52,1.14,1,1.68.7.48-.26.57-1.49.32-1.99l-.36-.73c-.08-.16.7-.25.77-.09l.33.85c.07.17.7.05.82-.09.15-.2.23-.67.16-.91l-.21-.76c-.04-.14.43-.3.5-.19l.34.54.45.72c.12.19-.44.47-.71.67l-.46,1.6-.5-.68c-.09-.12-.29,0-.45.09-.13.07.13.43.24.64l.3.54c.06.11-.05.54-.16.51l-1.03-.32-.45,1.36c-.04.14-.57.48-.56.33l.02-.63.02-.78c0-.24-.8-.3-1.03-.2l-1.1.43c-.27.1.53.86.83,1.32l-1.94-.09c.42,1.12,1.67.57,2.51.44l2.85.65-.42,2.12-.82-1.86h-2.03s-.69,1.88-.69,1.88c-.6-.38-.77-.56-.96-.48l-1.03.44c-.2.09-.42-.8-.53-.99s-.7.43-.85.59l-.54.58c-.13.14.47.52.62.66.14.13.4-.23.69-.48l1.87,1.07.98.64c.28.18.79-.56.93-.95l.72.57c.2.16.65-.32,1.04-.63l.57.54.82-1.15c.19-.27.7-.16,1.31-.04l-1.99,2.54-1.26-.83c-.28-.18-.97.43-1.29.53l-1.64.52c-.07-.22-.38-1.15-.7-1.13l-2.26.2c-.72.06-1.52-.16-1.92-.41l-1.6,2.03,3.68-.9c.36-.09,1.5.23,1.37.51l-.7,1.49,1.81-.73c.76.11.67.41-.08,1l1.54-.1-1.76,1.76.83.86c.21.22-.57.65-1.08.99-.77.03-.51.08.19.13.73.26.98.66-.1.74l-.4,1.72-.51-.71c-.14-.2-.55-.27-1.08-.38.86,2.36.53,2.36,1.69,2.36ZM275.71,85.86l1.52-.36c.22-.05.03-.69.08-.88.28-.31.49-.45.36-.53-.08-.06-.38-.34-.39-.35.27.05-1.46,1.67-1.62.97l-.36-1.65c-.39,1.37-.82,2.89-2.62,2.95-.06.08-.03.54.14.58.11.03.54.09.67.11l1.61-.91c-.11.49-.29.95-.13.92.17-.03.88.04.83-.12s-.24-.69-.08-.73ZM270.66,98.04l.22-2.38c-.5.09-1.24.45-1.33.16l-.44-1.41-1.68,2.51c.46.45,1.99,1.01,3.22,1.12ZM270.67,100.69c.36-.36,1.51-.8,1.53-1.2l.1-1.67c.07,0,.64.07.57-.05l-.28-.52-1.33-1.23c.08.78.36,1.64.05,1.83l-1.3.83.15,1.36c.03.31-.74.59-1.02.83l1.16,1.01c.15.13.91-.18.85-.39s-.61-.67-.47-.8ZM274.33,106.13l-1.7-.71.56-1.16c-.86.06-1.07.84-1.27,1.56-.39,1.39-3.11-1.9-2.57-.26.04.11.18.67.26.76.63.73,3.74.43,4.71-.18ZM272.55,116.54c-.19.15-.56,1.17-.31,1.14l1.03-.09c.2-.02,0-.48-.05-.8.55-.3,1.07-.76.88-1.25-.2-.52-.57-.99-.96-1-.68-.02-.96.31-1.58,1.03.05.31.36.74.45.53.6-.45.72-.61.8-.48.15.24.34.45.21.54l-.49.37ZM296.65,141.8l-.91-1.85-.63.62c-.42.4-.77,1.25-.61,1.78l2.15-.54ZM293.24,161.85l2.55-1.14c-.36-.47-.76-.79-.71-1.02l.23-1.12-3.01,1.69.95,1.58ZM295.71,190.1c2.02.4,3.81-.26,4.72-1.86l-2.81,1.31c-.75.13-1.65.28-1.91.55ZM305.16,197.72c.27.32.92,1.08,1.12.76l.72-1.13c.16-.26-.74-.68-1.08-.77l-1.56-.4c-.21.52-.36,1.24-.67,1.3l-1.52.33c-.11.15.17.97-.06,1.07l-1.13.5,1.2.88c.25.18,1.23-.37,1.08-.63l-.49-.93c-.61-1.15,1.74-.1,2.41-.99ZM303.77,200.84c.19.25,1.21.24,1.56-.12.46-.47.33-1.6-.33-1.88-.29.19-.9.58-.89.58l-.34,1.42ZM301.27,227.49l1.82-2.34-2.01.04-1.02,2.15c.47.13,1.11.29,1.22.15ZM304.59,239.4l2.41-.86-2.17-1.46-1.26.92,1.03,1.4ZM308.46,240.58c-.27-.52-.58-1.1-.57-1.08-.71.5-.8.69-.99.6l-1.07-.5c-.22-.1-.28.85-.04.92l.96.29-1.11,1.13,2.82-1.37ZM308.12,244.52c-.21.24-.93.89-.75,1.13s.53.71.76.87,1.05-.35,1.23-.61l1.74-2.44c.21-.29.43-.76.49-1s-.79-.69-.92-.47l-.92,1.53c-.18-.21-.52-.7-.68-.61l-.74.4c-.25.21-.72.59-.58.48.11-.09.48.62.38.73Z"/>
  <path d="M192.33,112.72c.95-.62,2.06-1.35,2.88-1.05l1.47,2.35c-.55.22-1.47.46-1.83.69l-1.69,1.08c-.36-.56-.16-1.42.19-2.36l-3.29,2.24.74,2.83,2.13-1.11c.97-.51,1.61-1.03,1.98-2.16,0-.02.46.32.41.48l-.24.78.97-.21c.19.53.36,1.04.71,1.15s1.39-.39,1.4-.5c.35.78.84,1.7,1.25,2.34l.24,2.25c.04.34-.59.83-.95,1.17l1.81.4c.44.1.94-.54,1.63-1.1.1.23.27.97.1,1.17-.21.25-.7.51-1.13.72l-.8.4c-.22.11.51.76.74.86,1.24.57,2.08-.33,3.44-.95l-1.46,2.22c2,1.11,1.93-.32,3.77-.32.11,0,.12.27.01.32l-.62.3c-.29.14-.88.63-.84.94s.29.87.54,1.07,1.31-.03,1.34-.33l.28-2.61c.07-.69-1.29-1.39-.15-2.22l.52,1.38.96-1.35-.56,2.11,1.2-.11-1.48,1.69.49.48c.13.13.6-.26.74-.44,1.14-1.41.16-3.04-.76-4.7-1.34.11-.98-.28-.25-.51,1,.44,2.45-.56,2.2-1.29-1.05-.71-1.47-1.71-1.02-2.6.33.77,1.06,1.17,1.75,1.45l.15,1.98-.81,1.98-.5.68c-.11.15-.07.77.11.76l1.26-.03c-1.78,3.36-1.71,2.82-4.51,5.55l-4.78,4.64c-1.18,1.15-2.96,2.01-4.51,2.97-5.78,3.6-13.02,3.1-19.73,2.13,3.46,5.79,5.5,6.36,7.34,12.59,1.62,5.45,1.36,10.87.25,16.45-.3,1.53-.71,2.59-1.3,3.98l-1.55,3.64-.83-.98c-.06-.02-.42.73-.26.84l.82.56c-.2.55-.6,1.69-.97,2.22l-1.41,2.01-.31-.96c-.08-.25-.77.34-.96.54l-1.83,1.67c.87.84,1.39.14,2.31-.52-.21,1.34-1.7,1.82-2.66,2.66-4.08,3.57-7.17,5.73-12.86,6.87-.39.08-1.31.43-1.75.42l-7.12-.27c-1.83-.07-3.83-.91-5.63-1.54-3.31-1.15-6.7-2.86-9.2-5.25-2.27-2.17-3.9-4.75-5.91-7-1.72-1.93-2.8-3.9-3.73-6.35-.63-1.66-1.98-3.24-2.43-5.05-.63-2.56-.38-5.37.68-7.76,1.21-2.73,2.16-5.27,3.13-8.14.6-1.76,1.93-3.3,3.03-4.8,1.95-2.66,4.23-4.76,7.03-6.56.75-.48,1.47-1.33,2.18-1.87,5.08-3.87,13.13-4.37,19.41-3.72,1.4.14,2.49.13,3.96-.03-.58-.94-1.01-1.5-1.71-2.19-2.46-2.41-3.76-4.61-5.3-7.59-2.2-4.26-3.43-8.5-3.28-13.34.16-5.31,1.48-10.21,4.96-14.43,3.49-4.24,7.86-7.69,12.28-11.08,1.02-.78,2.57-1.11,3.67-1.65,1.31-.65,2.45-1.04,3.92-1.15,3.07-.23,5.92-.34,8.99.08.43.06,7.83,2.33,8.69,3.16-.84.45-1.9.52-2.58.36-1.63,1.01,1.06.25,1.02.67l-.07.78c-.02.26,1.02.1,1.11-.15l.57-1.6c2.01,1.34,4.25,2.56,6.17,4.1,8.3,6.64,9.92,18.59,8.14,28.23-.78-1.38-.33-5.64.33-6.73l-.68-1.22-1.18,2.97-.93-.74c-.21-.17-.39.66-.51,1.29l-.84-1.09c.92-.41,3.81-2.91,3.55-3.25l-.91-1.19c-.21-.28-1.09.44-1.39.6l-.8.44c-.24.13-1.04-.42-.85-.51l1.47-.47c.28-.09.05-.82.15-1.09l.42-1.11c.09-.24-.53-.22-.98-.22l1.33-3.65-.8-2.18-1.14,1.17,1.3.88-1.02.68.63.34c.11.06-.05.48-.17.47l-.68-.05c-.78-.06-1.54-.42-1.94-1.1l1.48-.29-.67-.72c-.09-.09.11-.12.66-.33.01-.1-.31-.95-.54-1.39-.19-.37-2.83-.54-3.27.53l-1.74-1.13c1.34-.89,2.07-1.81,2.21-2.89-.25-.14-.94-.3-.92-.49l.13-1.27c-.57-.46-1.8-.15-3.03.23l.07-2.45-1.35,1.57.03-.74c0-.15.06-.44-.05-.41l-.69.18c-.22.06-.76.21-.75.05l.06-.97c-.06-.14-.95.29-1.31.49l-.58.33c-.17.1-.4.69-.21.75l.92.28c-1.08.24-2.16,2.7-2.22,3.03-.04.24.46.66.66.92l-2.53,1.97c-.31.24-1.23.54-1.56.44-.39-.12-.78-.7-1.14-1.15-.78.58-1.35,1.27-1.83,2.24l2.16-.12c.15.52.62,1.42,1.27,1.49.83.08,1.4-.19,2.16-.96l1.87.81-1.87,2.26.06-1.27-3.34,1.75c.77,1.2,1.9.59,2.78.05l1.25,1.09c.33.29,1.71-.24,1.64-.67-.05-.32-.16-1.04.04-1.13l.87-.36c.24-.1.33.63.51,1.23l2.62-1.29c-.79-.8-1.37-.88-2.22-.36-.06-.3-.03-1.08.17-1.34.24-.32,1.08-.39,1.51-.36l1.56.13c.73.06,1.44-.33,2.37-.79-.18.57-.59,1.24-1,1.78l.68.18c.16.04.17.39.13.59-.04.16-.57.26-.69.14l-1.57-1.52-.87.83c.71.85,1.1,1.5,1.44,2.38l1.62.48c-1.23.33-2.46.73-3.07,1.2-.11.08-.56-.25-.45-.32l.65-.37c.42-.24.5-1.51.3-1.68l-1.68.08.04.92c0,.22-.49.61-.68.48l-1.08-.72.11,1.37-1.92-.22.75.36c.11.05.41.34.3.4l-.76.44-.82.47c-.23.13-.45-.6-.63-1.15-.6-.02-1.45,1.31-1.08,2.05l3.64-.08c-.6.92-1.84.94-2.89.5l-1.34,1.66-.23-1.32c-.66,1.24-1.98,1.14-3.53,1.01-.06.49,1.07,1.74,1.56,1.42ZM195.87,92.68c2.87-2.32,2.67-.86,3.6-1.97.13-.16-.33-.52-.52-.59-.94-.36-.26,1.02-3,.99l-.24.94c-1.19.15-.67.57.16.63ZM196.38,94.18l-.86-.18c3.4.71-5.54-2.04-3.63-1.53-.06.05-.46.37-.46.36,0,0,.5.25.6.31l2.43,1.57,1.83.51c-.01.17.08-.93.08-1.04ZM195.39,97.63l.78-1.97-1.54.18c-.33-.26-.84-.64-.92-.42l-.32.98c.85.17,1.08.36,1.99,1.22ZM192.43,96.35c-.39.26-1.15.79-1.2.84l-.97-1.27-.8,1.65c1.68-.76,2.81,1.88,3.61.23.17-.35-.3-1.68-.65-1.45ZM198.41,119.53l-.77-1.45-2.2-.79-.45,1.85,2.26-.16,1.16.56ZM198.99,121.54c.42-1.57-.68-.87-1.2-1.11-1.42-.65-2.78-1.17-3.99.24l.73,1.1,1.23-.97,3.24.74ZM197.76,126.57c.6.62,2.76-.01,2.47-.83l-1.67-1.49c-3.14-2.82-1.81-.24-4.01-1.96-.08-.07-.51.32-.38.5.1.13.46.66.5.82l.88,3.5c.05.19-.05.7-.09.87s.63.06.82.07-.04-.54-.19-.97l1.6-2.26c.32.57.22,1.12.06,1.74ZM202.1,131.61c.87-.5,1.72-1.2,1.94-1.74l1.02-2.5c-.9.26-1.92.65-2.5.59l-.9-.09c-1.71-.17,1.38.98,1.05,1.95l-.61,1.78ZM200.04,130.72l1.92-1.55-2.29.21c-.33.03-.78.97-.66,1.41.07.27,1.93,1.16,2.2.68l.54-.95-1.71.2ZM171.09,139.33l.31-1.42c.08-.36-.64-.89-1.01-.91s-1.13.56-1.31.99l2.01,1.34ZM174.59,140.2l-1.7-1.15c.05,1.86,1.8,2.94,3.63,2.53l-1.93-1.38ZM168.96,178.27l-1.14.48c-.23.1-.19.93.06.96s1,.27,1.03.02l.16-1.07.96.73c.18.14.29-.74.48-.87.73-.49-1.08.5-1.66-.89-.46-1.1,1.58.23,1.68-.31l.17-1,2.18.95.71-.02c.17,0,.39.62.24.69l-.71.32-.82.37c-.18.08-.11.73.09.75l.9.09c.16.02.17.41.06.52-.07.07-.45.35-.43.45l.39,1.9c.39-.29.84-.77,1.05-.64l1.14.76-.55-1.27,1.1-.59c.18-.1-.14-.76.05-.84.35-.15,1.07-.34,1.01-.56l-.22-.78,1.12.16c1.11-3.57,3.7-3.01,3.2-3.63l-.86-1.07,1.76-1.67-.89-.28c.27-.46.75-1.24.5-1.51-.21-.23-.74-.58-1.2-.9.09-.98,1.14-1.89,2.13-2.54l.55-.35c.11-.07-.37-.54-.46-.44-.55.57-2.29,1-2.92.02l.29-1.16c-.87-.17-2.12-1.72-1.66-2.07,1.75-1.31-.06,1.06,2.28,1.5l-.19,1.94,1.6-1.16c.14-.1.06-1.01-.11-.99l-.78.1c-.28.04-.04-1.02.24-1.06l1.22-.19c-.43-.56-.97-1.32-1.27-1.82l1.2.23c.17.03.2-.7.02-.73l-.72-.13c-.37-.07-.49-.09-.66-.15s-.29-.83-.11-.87l1.31-.27-1.64-1.57c-.22-.21-.4-1-.15-1.17l.95-.61.71-.46c.14-.09-.1-.36-.32-.67l-1.24,1.06.35-1.64-2.1.56,3.09-2.41-1.43.02c-.21,0-1.2-1.87-.75-1.96l1.21-.25c.49-.1,1.07-.26,1.32-.49.2-.18-.23-.94-.43-1.13-.11-.11-.5.29-.46.44l.18.77c-1.2-.18-2.19-.76-3.13-1.71l-.76-.76c-.17-.17,1.08-1.97.58-2.48l-.9-.9c.13-.4.36-.87.22-1.09-.19-.29-.6-.78-.83-.65l-.72.41c-.27.15,1.14,1.43.41,1.54-.13.02-.42.03-.45-.09l-.18-.85c-.74.68-.56,1.81.26,2.79-.87.47-2.35.66-2.82-.28l.91-.03c.15,0,.51-.34.42-.48l-1.12-1.87c-.2,1.34-3.68,2.04-2.77,2.64l.86.56c.4.26-.63,1.29-1.17,1.45l3.3,1.15c.27.09.78.39.98.54.15.11-.23.6-.37.73-.89.8-.96-1.49-4.07-1.09l-1.44-1.14-.58,1.35-1.18-1.25c.45-.34.97-.75,1.29-.92s1.05.25,1.51.42l.75-1.04-1.44-1.73,1.01.09c.17.02.18-.58.23-.98l1.67-.88c.21-.11.59-.75.8-.66l.98.41.63.27c.12.05.23-.44.12-.5l-.52-.27c-.3-.16-1.42-.14-1.38-.46l.21-1.44c-.11,0-.45.04-.52.15l-.33.5-2.04.72c.4.41.97.84.79,1.01l-.73.67c-.21.2-.85.6-1.09.44-.28-.18-1.45-1.03-1.45-1.15l-.05-1.21-1.97,1.95-.2-1.33c-.88.34-1.47.44-2.87.37.21.35.69.94,1.34,1.67l-1.51,1.24,1.46.56c.28.57,1.18.95,1.6.52.28-.29.45-1.2.09-1.31l-1.01-.33c-.1-.03.23-.33.33-.38.79-.41,1.44,1.04,2.09.39.29-.29.86-.86,1.14-.73l1.08.48-1.93.73c.11.76.06,1.64-.32,1.96-.55.47-2.66.57-3.2-.37l-.35-.61c-.12-.21-1.35.94.99,3.35.94-.59,1.69-.95,2.37-.41.5.39.38,1.43.08,2.19l1.1,1.23c-1.09.31-2.36.73-3.14,1.05l1.92,1.96,1.98-.62c.26-.08.48-.62.3-.75l-.87-.65,1.2.17c.03.14.21-.53.08-.66l-.73-.74,1.37-1.43c.59,1.16.65,1.6.4,2.42-1.34,4.3-2.53.93-3.12,4,1.94,1.39,3.02-1.87,3.7-.06l-2.4,1.21c-.64.32-2.24.14-2.87,1.06.09,2.67-3.79,2.8-2.07,3.48l1.22.48-1.95,1.14.11.86c.03.22-.46.58-.57.79-.58,1.12-.09,2.55,1.03,3.1l1.26-.51c.41.12,1.63.04,1.88-.34.21-.32.38-.76.63-1.3.28-.25.66-.48.68-.69l.05-.79.39-2.12c.04-.24.56-.85.39-1.02l-.62-.61c-.2-.2-.6-.63-.79-.53l-1.14.6.49-1.06c-.35-.63-.48-.95-.56-1.77l3.11,1.46c.05.08.19-.54.04-.62l-.87-.49.96-.89,1.69,1.98c.02.39-.95,1.01-1.57,1.23l.54,1.38,1.38.96-2.57-.1v3.77c.01.25.77.81.59.95-.26.21-.62.6-.83.49l-.84-.46c-.43-.24-1.4.66-1.61.91.74.14,1.2.28,1.78.61l2.06,1.17c-.96,1.49-2.08,1.54-3.42,1.59-3.04.1-2.67-.76-3.11-.04-.08.13.15.68.3.65l.74-.11,2.32,1.78-1.43.78c.59.44,1.42.3,2.21.01-.35-.83-.72-1.85-.86-2.5.64-.22,1.06-.45,1.08-.29l.11.73c.11.76.35,1.53.66,2.03-.1.04-1.05.68-.82.85l1.03.77ZM161.55,148.36l1.12-1.41c-1.02-.04-2.24.2-2.97.74s2.6,2.97,3.09,1.62l-1.25-.95ZM164.83,150.54c-1.72-.9-2.8.36-2.97,1.82,1.24-.15,2.37-.68,2.97-1.82ZM162.6,155.73c-.41-.48.94-.41,1.16-.22.17.16.58-.39.75-.61.14-.19-.25-.38-.69-.49l-2.48-.63c-1.08.09-2.34,1.18-2.33,2.49l1.5-.81c.75,1.41,2.33,2.47,3.93,1.49-.63-.41-1.42-.75-1.82-1.22ZM160.69,160.3c-.08.24,1.2-.02,1.18-.28l-.07-.96,1.16-.11c.21-.02.36-.85.16-.89-.22-.04-.81-.08-1.04-.03l-2.68.62c-.21.05-.64.27-.8.36-.11.06.28.54.4.5l2.2-.69-.51,1.47ZM169.71,181.77c-.43-.12-.78-.22-.71-.21l.54-1.22-1.86,1.13s.49.7.67.97.87.18,1.28.17l.96-.02c.13,0-.04-.58-.16-.61l-.71-.21ZM173.52,184.21l-1.57-.26c-.16-.03-.77-.27-.67-.41l.5-.69c.21-.29.34-.62.34-.85,0-.17-.76-.38-.83-.22-.22.52-.61,1.84-.67,2.11.9.66.95.8,1.26,1.51l1.64-1.19Z"/>
  <path d="M245.04,168.74l-.92-1.74-2.31,1.3c-.04.15.34,1.09.06,1.15l-1.16.25.34-1.9-1.35.13c-.99.1.65,1.75.22,1.94-.98.43-.99-.65-1.84-.52-.24.04-.55.58-.54.82.02.42.48,1.01.95.73.95,0,.72.33-.02.5-.78-.01-1.74,1.1-1.33,1.54h2.38s1.28-2.49,1.28-2.49l1.97-.75,1.29,1.19c-1.31,2.22-4.36-.72-3.54,2.69l1.88-1.38,1.28.68-3.07,1.45c-.3-.26-.88-.78-.98-.57l-.48,1.02c-.43-.31-1.65-.89-1.67-.5l.03,2.03.95-.53c-.59,1.16-1.34,2.36-1.18,3.39l.26,1.65,2.55,1.08,1.16-.53c.27-.12.73.44,1.14.92-.37.21-1.08.54-1.65.74l-.88.32c-.19.07-.1.8-.06.88,1.06-.05,2.03.16,2.93.72l-1.03,1.76c.46-.15.92-.31,1.17-.44.34-.17.22-2.35-.61-2.8.02-.23.07-1.11.34-1.11s.98.11,1.22.23l.8.41c.21.11.41-.52.71-1.03.4.13.85,1.6.61,1.85l-2.58.31,1.41.69c.28.14.43.54.76,1.21l2.13-1.67.8,1.96-.78-.57c-.2-.14-.61.09-.92.28l-2.91,1.76-.12,1.8,3.11.12-1.07.8s.58.27.78.36c.24.11.67-.56.62-.81l-.34-1.65-1.75-.37,2.6-1.12.56,1.8c1.14-1.3.57-2.66.85-2.8l.83-.44-.64-1.04c-.13-.22.63-.54.89-.59l.64-.12c.12-.02.07.37.02.49l-.35.82c-.09.21.72.81.75.58l.13-1.08c.03-.23.7.06.96.08l1.11-1.54c1.27,1.38-5.36,4.76-1.26,5.15l-1.76,2.13c-1.51,1.84-2.83,3.52-4.76,4.9-5.27,3.76-11.48,6.11-18.01,5.49-3.37-.32-6.7-.65-9.65-2.31l-4.09-2.3c-4.85-2.74-10.7-10.88-12.24-15.88-2.1-6.81-1.83-13.83.36-20.42,1.05-3.15,3.09-5.61,5-8.26.89-1.23,2.18-2.22,3.35-3.25,1.77-1.55,3.69-2.69,5.83-3.73,3.07-1.49,4.94-1.95,8.31-2.25,3.12-.28,6.12-.4,9.25.32,3.86.89,7.72,2.26,10.79,4.74l2.01,1.62c-.08.13-.51.93-.56,1.09l2.53.78c2.57,3.32,5.12,6.43,6.8,10.17,2.5,5.56,2.24,12.8.7,18.3l.18-3.7-1.3.84.61-3.02-.78-1.59.99-1.7-2.72-1.52,1.34-2.11-1.62.15c-.28.03-.2.69-.34,1.24-.85-.67-.79-1.27-.59-2.2.11-.52.8-1.08,1.4-1.43-1.9-1.83,0-.7-1.48-2.4-.11-.12-.51.18-.4.32l.67.8-1.9.14c-.87-2.77,1.13-3.95-1.03-5.43-.37-.26-.8-.53-1.04-.38-.25.16-.62.67-.89,1.05.01.06-.6-.57-.45-.73l1.01-1.1c.04-.15-.88-.62-1.15-.44-.76.5-1.28.95-1.91,1.52-.43.39,1.53.81,1.04,1.27l-.79.74-.9-1.47c-.89,1.01-1.75,1.2-3.39,1.95-.35.14-.12-1.33.24-1.41.42-.1,1.14-.07,1.73-.04l.46-1.07c.1-.22.63.04,1.28.18.05-.35-.07-1.47-.28-1.92l-1.22-2.75c-.16.28-.36.83-.36,1.14v3.28s-1.64-1.63-1.64-1.63l.87-.58c-.79-.32-1.54-1.42-1.15-1.83.17-.18,1.28-.32,1.17-.52l-.59-1.07,1.08-.09c.25-.02-.04-.74,0-.96l.78-.87c.2-.22-.34-1.11-.66-1.19-.08,1.17-.47,1.64-1.37,2.3l-1.74,1.27-.67-1.95c-.7.41-1.42,1.09-1.89,2.14l1.66-.59.85,1.69-.65,1.86-1-.28c-.16-.05-.47.27-.41.43l.38,1.03-1.54-.13,2.39,2.63c-.19.25-.75.92-.52,1.07,1.59,1.02,1.42-.38,2.91.51-.43.46-.74.68-.59.75l.99.45-.88,1.65,1.98-.03.24-1.3c.06-.33,1.31-.11,1.23.04l-1.2,1.98c-.19.32-.98.08-1.54-.13-.29-.11-.53.7-.37.96.19.31.93.62,1.43.82l.3.86c.45,0,1.35-.35,1.8-.86.5-.57.15-1.5-.31-2.44.13-.53,1.46-1.64,2.27-1.73,1.74-.2-1.94,2.37-.06,3.22l-1.48,2.3,2.82-.02-2.31,1.42Z"/>
  <path d="M160.73,230.67l.95.53c.21.12-.57.68-.81.71l-1.07.11c-.25.03.17-.85.06-1.06l-1.32-1.9c-.24.44-.58,1.04-.92,1.43-.41.47-1.22.43-1.91.13l.9-1.04c.07-.08.33-.39.36-.41.02-.01-.27-.29-.46-.47l-1.34,1.73-.35-1.09c-.08-.26-.64-.29-1.14-.33l.38,1.55-1.04.32c-1.57.48,1.48,1.6.96,2.74l-1.89.34c.16.62.43,1.45.11,1.67-.4.27-1.57.35-1.89.21.87-1.25,1.64-2.11,1.26-3.29-1.21-.44-1.9,3.92-2.76,1.04-.47.1-1.1.95-1.24,1.54l-1.25.15c.65,1.04,1.84.46,2.77.44.59,0,1.29,1.61.84,1.98-.35.29-.98.52-.92.78l.31,1.38-1.71.61.69.98c.14.2-.28.64-.33.88l-.18.78c-.04.19.6.39.68.3l1.21-3.13c.12.13.39.41.45.49.09.12.33-.08.5-.18.54-.31-1.32-.75-1.13-1.28l.4-1.1c.55-.16,1.31,3.09,1.65,1.75l.24-.95c.07-.26.54-1.07.74-.9l.84.69c-1.14.56-1.13,1.45-1.24,2.54-.53.18-1.49.4-1.86.67-.42.31-.6,1.63-.47,1.91l1.25.28-2.19,1.62,4.51,1.21c-.18.97-.01,1.45.43,2.39.54-1.2,3.24-1.96,5.06-1.84l-1.59,1.74-1.39.18c-.03-.17.09-.69-.12-.65-.24.05-1,.22-.99.22l.6.98c.12.2-.39.69-.64.98l1.06.95-1.32.48c-.29.11-.41,1-.57,1.25l-2.02.37c-.17-.25-.38-.84-.56-.68l-1.07.96,2.37.31.27,1.14c.04.17,3.58,1.55,4.74,1.03-.03-.23-.15-.85-.33-.85l-.84-.02c-1.05-.02-2.46-1.03-2.41-1.97,1.04-.22,1.84-.58,2.31-1.38l.93-1.56c.56.81.97,1.29,1.52,1.57.56.08.89.2.86.02-.05-.24-.12-.75-.28-.82-.37-.17-1.07-.36-.97-.56.19-.38.57-.94.75-.69.75.96,3.09,1.43,4.07.59.56-.78,1.32-1.92,1.78-2.77l1.49-2.76c-1.29-.09-2.04.09-3.13.57l.11-1.42c.02-.3,1.29.09,1.51.14l.81-1.79-.16,1.64c-.02.16,1.2.13,1.33-.19l.55-1.33c.19-.47.72-1.26.87-1.79.26-.91.03-1.78,1.23-2.17-2.33,8.36-7.67,16.03-15.66,20.11-8.12,4.14-9.19,3.36-18.07,2.06-.85-.12-1.73-.55-2.53-.81-2.42-.79-4.87-1.37-7.17-2.52-1.88-.94-3.27-2.73-4.85-3.98-3.07-2.42-4.42-5.56-6.07-8.88-2.67-5.36-3.51-10.61-2.6-16.51,1.42-9.22,6.44-16.83,14.39-21.81,1.56-.98,2.52-2.79,4.65-3.32,2.71-.68,5.44-1.25,8.27-1.6,4.07-.5,9.94,1.19,13.75,2.76,3.39,1.4,6.23,3.2,8.64,5.98l1.57,1.81c.76.88,1.66,1.89,1.81,3.02.03,0,.52.12.5.09-.02-.04.18.44.24.57l1.6,1.15-.96.42c-.16.07-.19.47-.04.56l.77.44c-.19.32-.51.95-.5,1.27,0,.38.81.53,1.3.57.22.11.7.92.58,1.2l-.47,1.08c-.09.21.69.8.49.92l-.93.52c-.61.34-.16-1.83-.9-1.41l-.84.47c-.93.53-1.12,1.05-1.57,2.32l-.72-3.97c.23-.31,1.3-.3,1.69-.18l.63-1.84c.11-.32.26-.89.31-1.16.07-.41-2.22-.99-2.3-.7-.1.39-.3,1.17-.28,1.11l1.72-.26c-.33.78-.72,1.43-1.22,1.71-.66.37-1.55.3-2.06-.41l2.14-3.7c.24-.42-.96-1.56-1.43-1.44-.84.22-1.05,1.56-.5,2.74l-2.81.22c-.11,0-.62.28-.55.38l.36.49c.14.19.3.34.26.44l-.37.78-1.44-1.32,1.22-1.62c.25-.33,1.05-.86,1.36-1.12-.97-1.19-1.77-.03-2.71.14l-4.65.84,2.62,1.25c-.97.42-1.54.16-2.45-.16-.72-.25-1.49,1.22-1.48,2.01l-.9,1.42,1.19-.59c.27-.13.8.29,1.26.62l-2.86,1.13,2.13.8,1.05-1.04c.26-.25,1.03.86.85,1.17-.6,1.07-2-.19-4.24.5l-.38-2.53c-.12-.81-.37-1.37.03-2.27.09-.2.35-1.07.14-1.05l-1.01.12.69-.81c.1-.12-.11-.41-.21-.62-.09-.19-.65.31-.82.53s.13,1.03-.13,1.1l-1.28.37.03,1.53c0,.43-.94,1-1.48,1l.52-.96c.1-.19-.1-.62-.31-1.29l-1.12,2.08c-.2.38.73,1.28,1.16,1.22.6-.08,1.16-.5,1.86-1.17l.39.96c-.55.27-1.13.63-1.3.87s.07.79.29,1,1.2.35,1.13.06l-.25-.96c-.04-.17.45-.45.47-.46.17.54.42,1.29.71,1.54.34.29,1.23.3,1.8.28l2.68-.11c.04,1.28-1.56,1.45-2.93.73l-1.04,1.63-.77-.67c-.12-.11-.49.01-.81.15l1.65,1.12c-1.18-.02-1.64.19-2.68,1.11.52.23,1.24-.16,1.71-.71l1.2.88c.16.11-.62.68-.53.86l.48.95c.16.32-.55.89-.9.64-.44-.32-.59-.84-.54-1.3-1.54.09-.67-.97-2.61-.55l1.24.69-1.56,1.35,1.82-.53c.44.11,1.27,1.28,1.4,1.76.73-.54,1.43-1.01,2.07-1.35l-.52-1.69,1.77.77c0-1.89.64-3.32,2.19-3.84l-.61,1.08c-.54.96,2.36.25,3.72,1.52l.22-1.67,1.89,1-.66,1.16c-.18.32.76.91,1.11,1.11ZM149.48,215.03c1.69-.24,2.05-.25,2.92.5l-.48.43s-1.38-.92-1.54-.35c-.05.2.16.75.4.9,1.07.72,2.65-.59,3.58-.75,1.21-.22,2.64,0,4.03-.78l1.42-3.06,1.49.17c-.45-.65-.79-1.32-1.16-1.3-.84.03-1.95,1.12-1.94,1.22l.08.76c-.57-.09-1.42-.25-1.78-.01-.33.22-.68.87-.87,1.48l1.88-1.02c.06-.14.64.76.42.87l-2.46,1.2-.72-1.02c-.12-.17-.66-.05-.83-.15l-.96-.9-1.05,1.18.06-1.01c-1.1.15-2.29.79-2.48,1.63ZM162.8,214.49c.54-.49-.43-2.35-1.43-1.95l.48.5c.22.23-.97.39-1.12.63-.34.52,1.37,1.46,2.07.82Z"/>
  <path d="M234.32,42.49c.25-.28.6-.66.63-.52s.19.66.11.78l-1.46,2.08-2.3.47c-.03.51.66.46,1.21.34l2.26,1.47c-.4.38-1.25,1.15-1.38,1.65s.29,1.69.6,1.89l1.29-.64c.23-.12.33.85.3,1.12l-.15.98c-.04.24.91.34,1.09.17l.53-.52-.98-.28c-.14-.04.2-.48.35-.51l.67-.11c.1-.02-.03-.3-.07-.48-.04-.16-.4.06-.44.05l-.15-1.29c-.03-.25-.76.23-1.12.4-.18-.21-.42-.43-.32-.6.14-.23.83-.66,1.07-.68l1.14-.12s1.32,1.13,1.62,2.05c.12.36-.51.95-.79,1.46-.29.54-.39,1.76-.51,2.59-.09.59-1.5,1.15-2.34.67l1.24-.42-.4-.52c-.12-.15.22-.38.45-.68l-1.95.31.15.86c.03.15-.24.56-.36.47l-.67-.51c-.16-.12-.46-.48-.57-.64-.43-.6,1.36-.42,1.6-.8.14-.22.11-.88.04-.89l-1.62.1c-.17.12-.59.5-.61.35l-.05-.73c-.02-.23-.14-.8-.21-1.03s-.68.31-.65.56c.06.58.24,1.85.34,2.61l1.47.63-1.43,1.08,1.09,2.08.59-1.7,1.13.83-.21,1.3,1.69-1.13-.69-.76c-.17-.18.08-.72.25-.89s1.03-.05.97.21l-.61,2.6,1.34.08c.22.01.18.43.24.7l2.01.7-.91,2.97.9.87c.21.21-.27.95-.37,1.23l-.21.56c-.04.11.35.22.42.12.08-.11.6-.86.68-.86-.02,0,.35.2.82.47l-1.33,1.08c.28.73,1.65,1.18,2.52.83l.66.53c.14.11-.22.47-.25.57.36.84.39,1.52.28,2.5.63-.09.92-.4.81-.78l-.46-1.56,2.45.34-1.88,2.28c-.08.19-.28.75-.35.93s.3.47.58.79c-10.82,8.18-23.17,6.61-34.28-.23-1.36-.84-2.06-2.14-3.06-3.21-4.75-5.11-9.33-11.69-8.27-19.21l1.19-8.41c.62-4.38,3.24-7.92,5.74-11.28,2.19-2.94,4.72-5.06,7.93-6.72,5.93-3.08,13.82-4.4,20.4-2.55,1.37.39,3.07.62,4.26,1.3l3.03,1.73-3.02-.42c-.12-.04-.27.84-.16,1.09.14.31.77.5,1.19.61l-.03-.61c0-.16.26-.61.32-.46l.3.83c.06.17-.08.61-.12.78s.33.53.48.43l.99-.68.91,1.58c-1.45-.18-2.09-.3-3.36.34l2.58,1.31c.91.78,1.6,1.34,2.61,2.04-.08.36-.36,1.27-.62,1.56-.29.32-1.12.36-1.91.76l1.54.58c.3.11.52,1.23.28,1.44-.44.38-1.78.31-2.3.21l.7-1.33c-.52-.46-.92-.82-1.04-1.13-.47-1.2,2.36-.61,2.11-1.53-.06-.23-.24-.89-.22-.81l-.33.92c.1-.28-2.15-.33-2.59-1.95l-.9.9c.44.39.93.84,1.14,1.19l.62,1.06c.13.23-.87.64-.95.36l-.33-1.18c-.3-1.08-1.94.76-3.08.24l1.87-1.02c.28-.16.1-1.43-.23-1.47s-.77.06-1.62.29l1.3.49c-.49.4-1.25.27-2.33.1l.49.79c.1.16-.27.58-.35.74l1.23,1.13-1.67-.53c-1.33,1.79-1.84.11-2.38,1.59.88.2,1.8.55,2.09,1.07.12.21.89-.12.91-.36s-.35-.47-.93-.92c-.22-.15.34-.61.53-.47l1.99,1.51c.96-.49-.71-2.11,1.25-2.6-.28,1.38.52,2.13,1.63,3.17l-4.28-.17c.37.62-2.25,2.36-.74,2.71.32.08,1.11.26,1.03.24l-.07-1.62c-.01-.36,1.11-.03,1.5-.08.15-.02.18-.55.12-.69-.07-.19.78-.42.8-.22l.06.95-.68,1.59,1.2.17c.2.03.23.58.27.82.05.27-.7.53-.88.31l-1.3-1.56-1.71,1.59-1.82-1.9-3.44,2.51,2.21-.04.05,1.37c.18.13,1.52.1,2.05-.07-.47-.86-1-1.15-1.81-1.62l.65-.67c.16-.17.89-.07.99.14.2.43.57,1.19.69,1.55s-.48,1.07-.76,1.56c.24.6.71.94.58.03ZM235.79,22.47c-.52.32-1.03.9-1.34,1.37l-1.05-1.51-.2.83c-.02.09-.21.33-.31.45l1.59,1.27,1.31-2.42ZM235.11,62.67s1.13-.28,1.35-.04l.9.93.75-1.48-1-.36c.05.02.45-.63.78-.64l.94-.05c.21-.01.19-.83.03-.71l-1.79-.13c-.22-.02-.66.55-.83.69-.12.11-.33-.45-.34-.61l-.08-1.4c-.01-.26-.88-.27-1.13-.18l-2.65.99c.78.74,1.91.83,2.8.39l1.24,1.04c-.54.66-1.58,1.44-1.78.95l-.35-.82c-.05-.12-.38.11-.51.16-.55.25,1.59,1.34,1.64,2.57.04.2.81-.07.69-.26l-.66-1.03ZM238.4,66.9l-1,.27.42-1.7-2.22.39c0-.32.1-.71-.06-.68-.22.04-.88.04-.81.19s.31.66.46.73l1.49.78c-.06.97-.02,2,.21,2.66.32-.11.89-.39.84-.57l-.27-.96c-.08-.28.47-.63.93-1.14Z"/>
  <path d="M306.86,148.97l-.53-.71c.37-.46.68-.88.97-1.33l.85-1.31c.2-.31-.15-1.21-.49-1.32-.8.07-1.51,1.07-1.65,1.69l-.21.95c-.04.2-.91.03-.86-.16l.28-1.15c.79-3.26,1.07-.67,1.42-3.11.04-.28-.64-.31-.97-.41l-2.11-1.27,1.22-2.09.68.29c.31.13-.61,2.28-.06,2.22l1.15-.12c.26-.03.24.88.49.96l1.24.4-.65.75,2.09,1.64c.57.9-1.3,1.37-1.58,2.02l-1.36,3.24s-.32-.21-.43-.27c-.14-.09.04-.29.51-.92Z"/>
  <path d="M299.46,156.55c-.71-.87-.52-1.92-.25-2.87-.72-.21-1.06-.31-.32-.6l-.72-1.86-3.25,1.41c-.69-.7.17-1.81.72-2.36-.34-.8-1.75-1.19-2.53-.72l.3-.8c.18-.48,1.72.5,3.85-1.05.02-.08.08.75.02,1.01-.08.31-.62.38-1.43.75l1.23,1.39c.61-.52,1.77-.5,2.14.04l1.41,2.04-1.19.04c.44.18.89,3.65.02,3.58Z"/>
  <path d="M245.59,60.24c.03.1-.12.83.12.89l1.31.29-.24,1.07c-.06.28.46.53.95.89-1.49.92-1.86,2.97-.47,4.5-3.64,1.63-2.03-3.73-6.19-1.5-.16-.62.43-1,1.38-1.32l-.62-1.13.56-.99c.12-.21-.34-.54-.83-.84l.11,1.21c.03.35-.98,1.14-1.16.84-.21-.34-.57-1.19-.67-1.53l1.61-2.25c.38.88.69,1.27,1.39,1.78.87.63.43,2.2-.13,2.99,1.04.16,1.65.23,2.04,1.12l1.62-.82-.89-1.17c.46-.55,1-1.35.81-1.71s-.95-.87-1.2-.98l.09,1.66c.02.39-.61.7-1.14.64l.32-2.59-.81-.42c-.15-.08-.1-.72.05-.63l.81.48c.17.1.41-.1,1.19-.49Z"/>
  <path d="M244.34,176.31c.77.21-1.2.58-1.56,1.69-.31-.56-1.55-.76-2.07-.33-.73.61-1.11,1.9-.27,2.58-.61.27-1.2.39-1.49.2-.38-.25-.94-.83-.8-1.17.3-.73,1.06-1.83,1.41-2.09-.55-.38-.82-.91-.53-1.67.17-.44.97-.67,1.55-.72l.66-.05c.14-.01.12.49,0,.56l-1.64,1.05c2.48,1.39,3.03-.53,4.72-.05Z"/>
  <path d="M157.26,221.93l-1.67.09c-.46.03-1.18-.72-1.26-1.18-.1-.62.13-1.83.54-2.11.31.12.83.66,1,.55l.99-.61.4,3.25Z"/>
  <path d="M154.38,247.73l-1.66-2.29,2.59-1.03-.99-.71c-.26-.19.47-.96.81-1.01l2.18-.33-.18-1.91,1.22,1.93c-.23,1.68-1.34,3.02-2.88,3.61l-.04-.79c-.01-.21-.63-.14-.83-.06-1.04.42,1.2,1.24-.21,2.61Z"/>
  <path d="M245.51,33.97l.79,2.83c-.94-.52-1.45-1.1-2.04-1.91l-.47-.64c-.27-.37,1.42-1.13,1.42-1.13l-.13-1.07,2.58.48c.69.65.02.53-.58.42l-1.56,1.02Z"/>
  <path d="M250.96,43.59l-1.97.5c.07-.8.31-1.6.15-1.99s-.88-.93-1.27-1.21l-.49-.35c-.09-.06-.02-.46.09-.44l.5.05c.18-.33.33-1.07.66-1.06l1.4.02-1.1,1.25,1.46.94c-.33.96-.38,1.37.58,2.29Z"/>
  <path d="M313.08,229.26l-2.41.67-2.29,2.4.11-.91c.02-.16.05-.3-.06-.3l-1-.05,3.32-1.79c-4.04.08-2.77-1.91-4.82-2.17,1.25-1.72,1.74,1.64,3.63.75l1.55,1.17c.33-.56.97-1.27,1.19-.94l.78,1.17Z"/>
  <path d="M284.08,121.84l-1.24.94c-.29.22-.99-.43-1.62-.88l2.05.21c.24-.97.48-1.77.86-2.53l.68-1.39,1.16,1.92c-.11.05-1-.31-1.15-.06l-.68,1.09,1.43-.33c.22-.05.55.51.38.68l-.84.82c-.15.14-.56-.24-1-.47Z"/>
  <path d="M277.61,91.61c-.23,0-.87-.14-.98.12l-.69,1.63-1.28-.6,1.15-1.35-.7-.96c-.17-.23.58-.54,1.3-.81l-.22,1.68,1.89-1.62c.09-.08.69.09.65.2-.06.17-.22.52-.38.59l-.64.27c-.15.06-.08.35-.1.84Z"/>
  <path d="M310.84,219.34c-.34.07-1.42-.05-1.52.28l-.51,1.71-1.6-1.34,1.01-1.93,1.18.96,1.03-.62c.22-.14.66.89.4.95Z"/>
  <path d="M314.82,235.15l-1.44,1.85c.07-1-.03-1.6-.38-2.38l.68-1.6.45.53c.28-.71.86-1.54,1.81-1.06-.17.43-.79,1.22-1.23,1.6l-.49.43c-.08.07.2.26.61.63Z"/>
  <path d="M160.25,248.02c-.3.51-1.7-1.12-1.46-1.36l3.37-1.91c.33.77-.42,1.84-1.2,2.07l-.71,1.19Z"/>
  <path d="M251.15,51.26l1.42-.08c.26-.02.44.42.61,1-1.5-.09-2.64-.33-3.82-.92.25-.28.85-.8.72-1.1l-.78-1.76c.39.09,1.29.31,1.32.69.05.55.33,1.56.54,2.17Z"/>
  <path d="M165.56,226.98l-.61-.47c-.09-.07.55-.07.68-.05l1.43.17-.74-1.15c-.12-.19.32-.59.54-.77l1.04,1.95-.39,2.38c-.59-.81-1.12-1.41-1.95-2.05Z"/>
  <path d="M168.21,237.37l-.14.57c-.03.11-.28.46-.34.36l-.4-.71c-.42-.74-.82-1.34-1.26-1.87l.62-.51c.17-.14.05-.44-.05-1.12l1.06.34c.25.08-.12.9.05,1.11l.67.8c.16.19-.09.55-.21,1.03Z"/>
  <path d="M286.47,94.2c-.18.04-.79-.27-.9-.13l-.64.78c-.09.11-.36.48-.35.44-.09.3-1.88-1.38,3.48-3,.17.95-.99,1.77-1.59,1.9Z"/>
  <path d="M251.48,173.36l-.78-1.22,1.97-2.15c.23-.25,1,.55.77.85l-1.95,2.52Z"/>
  <path d="M238.32,43.96l-1.7-3.55c1.71-.55,1.41,1.23,2.44,2.89.12.2-.52.7-.74.66Z"/>
  <path d="M302.39,150.13l-1.05-1.84c-.24-.42-1.04-.13-1.85.21l.72-1.11-1.09-.87c1.02-.53,1.85.29,2.09,1.2l1.35.33-.16,2.09Z"/>
  <polygon points="274.48 95.43 275.08 93.97 277.28 93.26 277.34 94.83 274.48 95.43"/>
  <path d="M303.6,158.48c-.86-.63-1.12-.73-1.98-.73l1.56-2.54c.29.29.64,1.09.59,1.59l-.17,1.68Z"/>
  <path d="M244.57,30.38l-1.4-1.83c-.06.08-.5.71-.58.57l-.4-.71c-.11-.19.27-.27.76-.46l.78-.13c.14-.02.22.3.31.43.46.23.87.52,1.12.95.28.48-.08,1.09-.59,1.17Z"/>
  <path d="M310.65,227.48c-.73-.14-1.39-.31-1.71-.61-.35-.32-.29-1.29-.21-1.83l.08-.48c.02-.13.28-.47.33-.35l.28.65c1.43,3.34.88-.2,1.24,2.62Z"/>
  <path d="M310.57,213.18l.6.03c.15,0-.19.63-.34.63-.96,0-2.79-.95-2.58-2.5.98.19,1.97.79,2.33,1.83Z"/>
  <path d="M311.25,148.59l-.53.34c-.09.06-.37.44-.37.34,0-.16-.17-.93-.04-1.01l1.65-1,.08,2.55-1.11,1.11.33-2.33Z"/>
  <path d="M307.37,204.78l-.97-1.83c-.24.3-.81.78-1.46.77.52-1.08,1.57-1.59,2.64-1.93l-.21,2.99Z"/>
  <path d="M252.89,45.02l-4.87.33.29-.87c.18-.54.97.59,2.25-.15.55.15.99.2,2.04.17.08-.36.29.22.28.52Z"/>
  <path d="M278.74,92.48l-.82.32c-1.96.78,1.61-2.15,1.38-2.7l.84,1.81-1.4.56Z"/>
  <path d="M298.68,163.83c.02.05-.57.61-.86.73s-1.07-.43-1.07-.75v-1.25c-.01-.23,1.13-.22,1.26-.02.16.24.05.06.68,1.29Z"/>
  <path d="M157.94,225.91l-2.98-.26c2.95-.24,2.94-1.71,3.22-1.56.03.02.63.62.84,1.44.07.29-.77.41-1.07.38Z"/>
  <path d="M163.55,248.98l-2.8-.6,1.39-1.43.48.71c.11.17.46.04.95,0l-.03,1.31Z"/>
  <path d="M312.62,152.96l-2.24,2.65c-.58-.98-.33-1.45.27-2.13.36-.4,1.04-.53,1.98-.51Z"/>
  <path d="M248.91,164.86c.08.17.49.99.31,1.28-.44.75-2.02.46-2.52.15-.35-.21.69-1.84.81-1.35l.3,1.18,1.09-1.27Z"/>
  <path d="M248.38,58.8l-.57.46c-.1.08-.44-.28-.46-.36.65-.46,1.23-.93,1.81-1.65l1.59-.35c-.33,1.21-1.18,1.56-2.37,1.89Z"/>
  <path d="M156.89,233.51c-.94.51-1.61.99-2.08.13l2.11-2.06-.03,1.93Z"/>
  <path d="M280.87,97.91c-.4-.24-.62-1.52-.24-2.18.2-.34,1.04.13,1.21.51.32.7.22,1.01-.98,1.68Z"/>
  <path d="M283.76,92.33c.15.01,1.07.09,1,.17l-.35.37c-.32.34-.96-.66-1.53,0l-.82.92c-.65-1.25.65-2.13,1.66-2.45-.05.49-.18.98.05,1.01Z"/>
  <path d="M254.43,178.85c.09.4.28,1.27.08,1.21-.23-.06-.87-.25-.79-.23.28-.8.08-1.55-.45-2.24,1.44.35,2.89-1.2,2.4-.39-.94,1.56-1.44.73-1.24,1.65Z"/>
  <path d="M308.54,153.35l.67.47c.19.13-.09.67-.25.93-.12.2-.5-.11-.89-.38-.22-.26-.6-.76-.76-1.01s.4-1.03.68-1.14c.25-.1.44.89.56,1.13Z"/>
  <path d="M290.68,114.92c.51-1.33.33-1.13-.25-.46-.07-2.23.67-.27.74-2.92,0-.22.13-.34.43-.76l.31,1.56c-.42.71-.52,1.28-.44,1.92l.09.66c.02.15-.46.09-.88.01Z"/>
  <path d="M313.3,232.35l-1.43-.38,3.41-1.89c-.55.98-1.04,1.38-1.63,1.79l.53.3s-.23.3-.31.36c-.12.09-.32-.08-.57-.19Z"/>
  <path d="M251.61,179.73c.17.98-1.85,1.71-2.43,1.17l.97-1.33c.19-.26,1.39-.25,1.46.16Z"/>
  <path class="cls-1" d="M308.12,244.52c.09-.11-.28-.82-.38-.73-.14.12.33-.27.58-.48l.74-.4c.16-.09.5.41.68.61l.92-1.53c.13-.22.98.22.92.47s-.28.71-.49,1l-1.74,2.44c-.18.26-1,.77-1.23.61s-.59-.64-.76-.87.54-.89.75-1.13Z"/>
  <path class="cls-1" d="M305.16,197.72c-.66.89-3.02-.16-2.41.99l.49.93c.14.27-.84.82-1.08.63l-1.2-.88,1.13-.5c.24-.1-.04-.92.06-1.07l1.52-.33c.32-.07.46-.78.67-1.3l1.56.4c.34.09,1.24.51,1.08.77l-.72,1.13c-.2.32-.85-.44-1.12-.76Z"/>
  <path class="cls-1" d="M270.67,100.69c-.13.13.4.6.47.8s-.69.52-.85.39l-1.16-1.01c.29-.23,1.06-.52,1.02-.83l-.15-1.36,1.3-.83c.31-.2.03-1.06-.05-1.83l1.33,1.23.28.52c.07.13-.5.05-.57.05l-.1,1.67c-.03.4-1.17.83-1.53,1.2Z"/>
  <path class="cls-1" d="M270.66,98.04c-1.23-.1-2.77-.67-3.22-1.12l1.68-2.51.44,1.41c.09.29.83-.08,1.33-.16l-.22,2.38Z"/>
  <path class="cls-1" d="M275.71,85.86c-.16.04.03.57.08.73s-.66.09-.83.12.02-.43.13-.92l-1.61.91c-.13-.02-.56-.08-.67-.11-.16-.04-.19-.5-.14-.58,1.81-.06,2.24-1.58,2.62-2.95l.36,1.65c.15.7,1.88-.92,1.62-.97.01,0,.31.29.39.35.12.08-.09.22-.36.53-.05.19.15.83-.08.88l-1.52.36Z"/>
  <path class="cls-1" d="M293.24,161.85l-.95-1.58,3.01-1.69-.23,1.12c-.05.23.35.55.71,1.02l-2.55,1.14Z"/>
  <path class="cls-1" d="M274.33,106.13c-.97.61-4.08.91-4.71.18-.08-.09-.22-.64-.26-.76-.55-1.64,2.17,1.64,2.57.26.2-.72.41-1.5,1.27-1.56l-.56,1.16,1.7.71Z"/>
  <path class="cls-1" d="M272.55,116.54l.49-.37c.12-.09-.06-.31-.21-.54-.08-.13-.21.02-.8.48-.09.2-.4-.22-.45-.53.61-.72.89-1.05,1.58-1.03.4.01.77.48.96,1,.19.5-.34.96-.88,1.25.05.32.24.78.05.8l-1.03.09c-.24.02.12-1,.31-1.14Z"/>
  <polygon class="cls-1" points="304.59 239.4 303.57 238 304.82 237.08 307 238.54 304.59 239.4"/>
  <path class="cls-1" d="M301.27,227.49c-.11.14-.75-.01-1.22-.15l1.02-2.15,2.01-.04-1.82,2.34Z"/>
  <path class="cls-1" d="M308.46,240.58l-2.82,1.37,1.11-1.13-.96-.29c-.24-.07-.19-1.03.04-.92l1.07.5c.19.09.27-.1.99-.6-.01-.02.3.56.57,1.08Z"/>
  <path class="cls-1" d="M295.71,190.1c.25-.27,1.15-.42,1.91-.55l2.81-1.31c-.91,1.6-2.7,2.26-4.72,1.86Z"/>
  <path class="cls-1" d="M303.77,200.84l.34-1.42s.6-.39.89-.58c.67.27.79,1.41.33,1.88-.35.36-1.37.36-1.56.12Z"/>
  <path class="cls-1" d="M296.65,141.8l-2.15.54c-.17-.53.19-1.37.61-1.78l.63-.62.91,1.85Z"/>
  <path class="cls-1" d="M168.96,178.27l-1.03-.77c-.23-.17.72-.81.82-.85-.31-.5-.54-1.27-.66-2.03l-.11-.73c-.02-.16-.44.07-1.08.29.14.65.51,1.68.86,2.5-.8.29-1.63.43-2.21-.01l1.43-.78-2.32-1.78-.74.11c-.15.02-.38-.52-.3-.65.44-.72.07.14,3.11.04,1.34-.04,2.46-.09,3.42-1.59l-2.06-1.17c-.58-.33-1.03-.47-1.78-.61.21-.25,1.18-1.15,1.61-.91l.84.46c.21.12.57-.28.83-.49.18-.14-.58-.7-.58-.95v-3.77s2.56.1,2.56.1l-1.38-.96-.54-1.38c.62-.22,1.59-.84,1.57-1.23l-1.69-1.98-.96.89.87.49c.15.09.02.7-.04.62l-3.11-1.46c.08.81.22,1.14.56,1.77l-.49,1.06,1.14-.6c.19-.1.59.33.79.53l.62.61c.17.17-.34.78-.39,1.02l-.39,2.12-.05.79c-.01.21-.39.44-.68.69-.25.54-.42.98-.63,1.3-.25.38-1.47.46-1.88.34l-1.26.51c-1.12-.56-1.61-1.99-1.03-3.1.11-.21.59-.56.57-.79l-.11-.86,1.95-1.14-1.22-.48c-1.71-.68,2.16-.81,2.07-3.48.63-.92,2.23-.74,2.87-1.06l2.4-1.21c-.68-1.82-1.77,1.45-3.7.06.59-3.06,1.78.3,3.12-4,.26-.82.2-1.25-.4-2.42l-1.37,1.43.73.74c.13.13-.06.8-.08.66l-1.2-.17.87.65c.18.13-.04.67-.3.75l-1.98.62-1.92-1.96c.78-.33,2.06-.74,3.14-1.05l-1.1-1.23c.3-.76.41-1.8-.08-2.19-.69-.54-1.43-.18-2.37.41-2.34-2.41-1.11-3.56-.99-3.35l.35.61c.54.94,2.65.84,3.2.37.38-.33.43-1.21.32-1.96l1.93-.73-1.08-.48c-.28-.13-.85.44-1.14.73-.65.65-1.3-.8-2.09-.39-.1.05-.43.35-.33.38l1.01.33c.36.12.19,1.02-.09,1.31-.42.43-1.32.05-1.6-.52l-1.46-.56,1.51-1.24c-.65-.72-1.13-1.32-1.34-1.67,1.4.06,1.99-.03,2.87-.37l.2,1.33,1.97-1.95.05,1.21c0,.12,1.18.97,1.45,1.15.24.16.88-.24,1.09-.44l.73-.67c.18-.17-.39-.6-.79-1.01l2.04-.72.33-.5c.07-.11.41-.14.52-.15l-.21,1.44c-.05.33,1.08.31,1.38.46l.52.27c.11.06,0,.55-.12.5l-.63-.27-.98-.41c-.22-.09-.6.55-.8.66l-1.67.88c-.05.4-.05.99-.23.98l-1.01-.09,1.44,1.73-.75,1.04c-.46-.17-1.2-.58-1.51-.42s-.84.57-1.29.92l1.18,1.25.58-1.35,1.44,1.14c3.11-.39,3.18,1.89,4.07,1.09.14-.13.52-.62.37-.73-.2-.15-.71-.45-.98-.54l-3.3-1.15c.53-.16,1.56-1.19,1.17-1.45l-.86-.56c-.91-.6,2.57-1.29,2.77-2.64l1.12,1.87c.08.14-.27.47-.42.48l-.91.03c.47.94,1.95.75,2.82.28-.82-.99-.99-2.11-.26-2.79l.18.85c.03.12.32.11.45.09.73-.11-.68-1.39-.41-1.54l.72-.41c.23-.13.64.36.83.65.14.22-.09.69-.22,1.09l.9.9c.51.51-.75,2.31-.58,2.48l.76.76c.95.96,1.94,1.53,3.13,1.71l-.18-.77c-.04-.15.35-.55.46-.44.2.19.63.95.43,1.13-.25.23-.82.39-1.32.49l-1.21.25c-.44.09.54,1.96.75,1.96l1.43-.02-3.09,2.41,2.1-.56-.35,1.64,1.24-1.06c.22.31.46.59.32.67l-.71.46-.95.61c-.26.17-.07.96.15,1.17l1.64,1.57-1.31.27c-.18.04-.07.81.11.87s.3.08.66.15l.72.13c.17.03.15.76-.02.73l-1.2-.23c.3.5.83,1.26,1.27,1.82l-1.22.19c-.28.04-.51,1.1-.24,1.06l.78-.1c.17-.02.24.89.11.99l-1.6,1.16.19-1.94c-2.34-.44-.52-2.81-2.28-1.5-.46.34.79,1.89,1.66,2.07l-.29,1.16c.62.98,2.37.55,2.92-.02.09-.09.57.37.46.44l-.55.35c-1,.65-2.04,1.55-2.13,2.54.46.32.99.67,1.2.9.25.27-.23,1.05-.5,1.51l.89.28-1.76,1.67.86,1.07c.5.62-2.09.06-3.2,3.63l-1.12-.16.22.78c.06.22-.66.42-1.01.56-.18.08.14.74-.05.84l-1.1.59.55,1.27-1.14-.76c-.2-.14-.65.34-1.05.64l-.39-1.9c-.02-.1.36-.38.43-.45.11-.11.1-.51-.06-.52l-.9-.09c-.2-.02-.27-.66-.09-.75l.82-.37.71-.32c.15-.07-.07-.7-.24-.69l-.71.02-2.18-.95-.17,1c-.09.54-2.14-.79-1.68.31.58,1.39,2.39.4,1.66.89-.19.13-.3,1.01-.48.87l-.96-.73-.16,1.07c-.04.25-.79,0-1.03-.02s-.29-.86-.06-.96l1.14-.48ZM177.8,148.61l-1.97-1.13c-.51.74-.39,1.06-.12,2.22l2.09-1.09ZM175.25,153.45c-.29-.07-.22-.74-.11-1.44-.03,0-1.13,0-1.05,0-.07.72-.28,1.36-.54,2.02l2.92.76.09-1.02c.02-.21-.78-.19-1.3-.31ZM175.28,157.86c.23.17.8.22,1.16.2.2-.01.29-.68.13-.83-.99-.39-1.86-.77-2.61-1.19l-.3.64,1.62,1.18ZM174.68,164.63l1.9-.65-3.41-.4c-.42-.05-1.05.48-1.4.91l1.86,1.2c.19.13,1.07.09,1.07-.14v-.93ZM162.96,166.99c1.73.19,3.86-.61,4.43-2.33l-.91-.05c-.15,0-.22-.36-.37-.75l-1.43,1.12c.1.67.14,1.21-.04,1.25-.66.07-1.2.23-1.68.76ZM170.6,169.12l3.45.96c.81.23,2.03-.81,2.84-1.16.38-.16,1.24-.19,1.46-.44s.37-.85.48-1.4l-3.01,1.61c-.09.05-.73-.17-.8-.24s0,.25.02.36l.12.58c.12-.34-4.51-.89-4.55-.28ZM179.34,173.02l-1.27-2.11c-.14.76-.09,1.36-.44,1.51-.39.16-1.39-.25-1.31-.57l.47-1.74-1.9,2.15c.36,1.17,4.74.42,4.13,1.13.1-.11.44-.53.31-.37ZM172.23,175.49l-2.88-1.61c-.09.84.03,1.68.27,2.53.45-.35.8-.74,1.11-.77l1.5-.15ZM177.42,177.47c.33-.07,1.06-.97.8-1.14l-.89-.58c-.2-.13-.47.48-.66.93-.09.22-.73.27-.99.12-.22-.12-.35-.46-.51-.88l-.78.25c-.15.05-.02.52.11.63.8.66,1.6.97,2.92.67Z"/>
  <path class="cls-1" d="M197.76,126.57c.16-.63.26-1.18-.06-1.74l-1.6,2.26c.15.43.38.98.19.97s-.86.11-.82-.07.14-.69.09-.87l-.88-3.5c-.04-.16-.41-.68-.5-.82-.13-.18.3-.56.38-.5,2.2,1.71.86-.86,4.01,1.96l1.67,1.49c.29.81-1.88,1.45-2.47.83Z"/>
  <path class="cls-1" d="M162.6,155.73c.4.47,1.19.81,1.82,1.22-1.6.98-3.17-.08-3.93-1.49l-1.5.81c0-1.31,1.26-2.4,2.33-2.49l2.48.63c.44.11.83.3.69.49-.17.23-.58.77-.75.61-.21-.19-1.57-.26-1.16.22Z"/>
  <path class="cls-1" d="M202.1,131.61l.61-1.78c.33-.98-2.76-2.13-1.05-1.95l.9.09c.58.06,1.61-.33,2.5-.59l-1.02,2.5c-.22.54-1.07,1.24-1.94,1.74Z"/>
  <path class="cls-1" d="M198.99,121.54l-3.24-.74-1.23.97-.73-1.1c1.21-1.4,2.57-.89,3.99-.24.52.24,1.62-.47,1.2,1.11Z"/>
  <path class="cls-1" d="M161.55,148.36l1.25.95c-.49,1.35-3.8-1.1-3.09-1.62s1.95-.78,2.97-.74l-1.12,1.41Z"/>
  <path class="cls-1" d="M196.38,94.18c0,.11-.1,1.21-.08,1.04l-1.83-.51-2.43-1.57c-.1-.07-.6-.32-.6-.31,0,0,.4-.32.46-.36-1.91-.51,7.03,2.25,3.63,1.53l.86.18Z"/>
  <path class="cls-1" d="M160.69,160.3l.51-1.47-2.2.69c-.12.04-.51-.44-.4-.5.16-.09.59-.31.8-.36l2.68-.62c.23-.05.82-.01,1.04.03.21.04.05.87-.16.89l-1.16.11.07.96c.02.27-1.27.52-1.18.28Z"/>
  <path class="cls-1" d="M192.43,96.35c.35-.23.82,1.09.65,1.45-.8,1.65-1.93-.99-3.61-.23l.8-1.65.97,1.27c.05-.04.81-.58,1.2-.84Z"/>
  <path class="cls-1" d="M200.04,130.72l1.71-.2-.54.95c-.28.48-2.13-.41-2.2-.68-.11-.44.33-1.38.66-1.41l2.29-.21-1.92,1.55Z"/>
  <path class="cls-1" d="M195.87,92.68c-.83-.06-1.35-.47-.16-.63l.24-.94c2.74.03,2.06-1.35,3-.99.19.07.66.43.52.59-.93,1.1-.73-.36-3.6,1.97Z"/>
  <path class="cls-1" d="M164.83,150.54c-.6,1.14-1.73,1.68-2.97,1.82.17-1.46,1.25-2.73,2.97-1.82Z"/>
  <polygon class="cls-1" points="198.41 119.53 197.25 118.97 194.99 119.13 195.44 117.29 197.64 118.08 198.41 119.53"/>
  <path class="cls-1" d="M173.52,184.21l-1.64,1.19c-.31-.71-.36-.84-1.26-1.51.06-.27.45-1.59.67-2.11.07-.16.82.05.83.22,0,.23-.13.56-.34.85l-.5.69c-.1.13.51.38.67.41l1.57.26Z"/>
  <path class="cls-1" d="M174.59,140.2l1.93,1.38c-1.82.41-3.58-.67-3.63-2.53l1.7,1.15Z"/>
  <path class="cls-1" d="M169.71,181.77l.71.21c.12.04.29.61.16.61l-.96.02c-.41,0-1.1.08-1.28-.17-.19-.27-.69-.98-.67-.97l1.86-1.13-.54,1.22c-.06-.02.28.08.71.21Z"/>
  <path class="cls-1" d="M171.09,139.33l-2.01-1.34c.17-.42.94-1,1.31-.99s1.09.54,1.01.91l-.31,1.42Z"/>
  <path class="cls-1" d="M195.39,97.63c-.91-.87-1.14-1.05-1.99-1.22l.32-.98c.07-.23.59.16.92.42l1.54-.18-.78,1.97Z"/>
  <path class="cls-1" d="M149.48,215.03c.2-.84,1.39-1.48,2.48-1.63l-.06,1.01,1.05-1.18.96.9c.17.1.71-.02.83.15l.72,1.02,2.46-1.2c.22-.11-.36-1.01-.42-.87l-1.88,1.02c.19-.61.54-1.26.87-1.48.35-.23,1.2-.07,1.78.01l-.08-.76c-.01-.09,1.1-1.19,1.94-1.22.37-.01.71.66,1.16,1.3l-1.49-.17-1.42,3.06c-1.39.79-2.81.56-4.03.78-.94.17-2.51,1.47-3.58.75-.24-.16-.45-.71-.4-.9.16-.58,1.57.32,1.54.35l.48-.43c-.87-.75-1.23-.74-2.92-.5Z"/>
  <path class="cls-1" d="M162.8,214.49c-.7.63-2.42-.31-2.07-.82.15-.23,1.35-.4,1.12-.63l-.48-.5c1-.4,1.98,1.46,1.43,1.95Z"/>
  <path class="cls-1" d="M235.11,62.67l.66,1.03c.12.19-.65.46-.69.26-.05-1.22-2.19-2.32-1.64-2.57.13-.06.46-.28.51-.16l.35.82c.21.49,1.25-.29,1.78-.95l-1.24-1.04c-.89.44-2.02.36-2.8-.39l2.65-.99c.25-.09,1.12-.08,1.13.18l.08,1.4c0,.16.21.72.34.61.17-.14.61-.7.83-.69l1.79.13c.16-.12.18.7-.03.71l-.94.05c-.33.02-.72.66-.78.64l1,.36-.75,1.48-.9-.93c-.22-.23-1.33,0-1.35.04Z"/>
  <path class="cls-1" d="M238.4,66.9c-.46.51-1.01.86-.93,1.14l.27.96c.05.17-.53.45-.84.57-.23-.66-.27-1.69-.21-2.66l-1.49-.78c-.15-.08-.39-.59-.46-.73s.59-.15.81-.19c.17-.03.06.35.06.68l2.22-.39-.42,1.7,1-.27Z"/>
  <path class="cls-1" d="M235.79,22.47l-1.31,2.42-1.59-1.27c.09-.12.28-.36.31-.45l.2-.83,1.05,1.51c.31-.47.83-1.05,1.34-1.37Z"/>
  <path d="M200.47,100.38c-.05-.16-.29-.39-.42-.29s-.8.26-.71.4l.72,1.12c.1-.07-.38.26-.73.49l-2.91-1.96-.57.81c-.11.16-.81-.21-.88-.32,3.17-2.51,1.83-2.91,4.07-5.32l.55,1.88c.12.41,1.18.52,1.58.69l.58.24c.14.06.26.52.11.56l-.84.26c-.37.13-.76.26-.51.18l1.14,1.08c.28.27-.18,1.2-.71,1.55l-.47-1.38Z"/>
  <path d="M205.16,116.75c-.3-.42.55-1.39.78-2.18-.33-.02-1.07.11-1.51.29l-.85.35c-.17.07-.61-.36-.52-.51l.52-.92c-.39-.35-.98-.92-1.36-1.39l-.4-.49c-.12-.15-.97.15-.84.29l.64.68c.17.18-.18.83-.42.75-1.73-.55-.96-1.93-1.15-1.9l1.58-.3-1.34-.47-.58-.2c-.17-.06-.06-.82.11-.77s.67.19.86.2l1.41.12c.46.04.41,1.82.73,1.79l.64-.07c.02.63.42,1.61.87,2.12l1.39-.62,1.03,1.81-.67,2.75-.94-1.3Z"/>
  <path d="M200.07,118.65c.88-.13,2.41-.13,2.39-.79-.32-.96-.3-1.96.1-2.72l1.36,2.85c.43.91-2.78,1.55-3.85.66Z"/>
  <path d="M212.65,115.92c-.04,1.15-.38,2.23-1.44,3.11l-.83-2.5c-.05-.14-.1-.76-.11-.89-.03-.19.59-.02.74.11.13.12.33.82.48.74l1.16-.58Z"/>
  <path d="M204.85,121.39c-.57.43-1.31.16-2.02-.79,1.22-.47,2.36-.55,3.59-.39l-1.56,1.18Z"/>
  <path d="M170.6,169.12c.04-.61,4.67-.06,4.55.28l-.12-.58c-.02-.11-.1-.43-.02-.36s.71.29.8.24l3.01-1.61c-.1.55-.26,1.16-.48,1.4s-1.08.28-1.46.44c-.81.35-2.03,1.39-2.84,1.16l-3.45-.96Z"/>
  <path d="M174.68,164.63v.93c.02.23-.86.26-1.06.14l-1.86-1.2c.35-.43.98-.95,1.4-.91l3.41.4-1.9.65Z"/>
  <path d="M162.96,166.99c.47-.53,1.01-.69,1.68-.76.18-.04.14-.58.04-1.25l1.43-1.12c.15.4.21.75.37.75l.91.05c-.56,1.72-2.7,2.52-4.43,2.33Z"/>
  <path d="M179.34,173.02c.13-.16-.21.25-.31.37.6-.71-3.78.04-4.13-1.13l1.9-2.15-.47,1.74c-.09.32.92.73,1.31.57.36-.14.3-.75.44-1.51l1.27,2.11Z"/>
  <path d="M175.25,153.45c.53.12,1.32.1,1.3.31l-.09,1.02-2.92-.76c.26-.66.46-1.29.54-2.02-.07,0,1.02,0,1.05,0-.11.7-.19,1.37.11,1.44Z"/>
  <path d="M177.42,177.47c-1.32.3-2.12,0-2.92-.67-.13-.1-.26-.58-.11-.63l.78-.25c.16.42.29.76.51.88.27.15.9.1.99-.12.19-.45.45-1.06.66-.93l.89.58c.26.17-.48,1.06-.8,1.14Z"/>
  <path d="M172.23,175.49l-1.5.15c-.31.03-.67.42-1.11.77-.24-.85-.36-1.68-.27-2.53l2.88,1.61Z"/>
  <path d="M175.28,157.86l-1.62-1.18.3-.64c.75.42,1.62.79,2.61,1.19.17.16.07.82-.13.83-.36.02-.93-.03-1.16-.2Z"/>
  <path d="M177.8,148.61l-2.09,1.09c-.27-1.16-.39-1.48.12-2.22l1.97,1.13Z"/>
</svg>