<?xml version="1.0" encoding="UTF-8"?>
<svg id="Layer_2" data-name="Layer 2" xmlns="http://www.w3.org/2000/svg" viewBox="0 0 432 288">
  <defs>
    <style>
      .cls-1 {
        fill: #fff;
      }
    </style>
  </defs>
  <path class="cls-1" d="M-.4,297.25V9.25h432v288H-.4ZM221.85,33.43l2.11,2.36c.43.48,1.3.8,1.75.61.57-.25,1.15-1.07,1.07-1.71l-.54-4.24c1.15,0,2.67-.52,2.62-1.52-.17-1.52-2.45-1.56-3.34-2.09-.8-1.2-1.23-3.06-2.93-3.36-.59.08-1.85.26-2.31.6-3,2.26-1.32,2.35-3.92,3.85-.85.49-1.6,1.17-2.51,1.97l2.77,1.36c1.39-.87,4.36,1.19,5.23,2.17ZM284.36,138.15c.39.06.39,1.21.51,1.62.47,1.58.84,3.61.63,5.37l-2,.69c-3.03,1.04-2.8,3.04-3.64,2.77l-.99-.32-1.8-.58c-.53-.69-1.02-1.44-1.74-1.91-.62-.4-1.9.05-2.49.49-.49.37-.92,1.41-1.05,2.17-.5,2.96-1.3,2.06-4.08,4.1-.27.2-.14,1.12.05,1.38s.74.56,1.07.53l1.78-.17.09,3.36c.03.95.86,1.52,1.79,1.95l-.29.34c-.54.17-1.39.37-1.7.67l-2.32,2.29c-.61.6-.85,1.28-.31,1.99.32.41,1.17.82,1.66.42.32-.26,1.01-.56,1.26-.33,2.25,2.08,4.58.97,5.06,1.56.09.12.14.65.06.81-1.31,2.51,2.65,4.2,1.16,4.24l-3.72.09c-2.36.05-3.09-.89-4.53.05-.49.32-.82,1.2-1.18,1.93-.72,1.49-1.31,2.88-1.69,4.54-.16.7-.75,1.24-1.45,1.35-1.23.18-1.75-1.75-2.83-1.69-1.28.08-2.09,2.07-3.19.85l-.11-2.53c-.48-.43-1.45-1.02-2.09-1.3-1.49.56-2.06,1.87-2.79,3.12l-2.21,1.78c-.8.65-1.44.49-2.29.04-.68-.36-1.45.35-1.41,1,.11,1.66,2.42,1.99,3.24,1.66.16-.07.72.26.68.44-.41,1.79-.85,3.83-1.36,5.51-.28.93-.83,1.75.29,2.35.58.31,1.58.24,2.03-.69.96-1.97,2.98-2.29,3.06-2.08.05.12.12.45.11.6-.47,4.5,2.23,3.19,1.44,5.05-.05.11-.08.56.01.52s.37-.11.43-.2l.29-.51c.17-.29.84-.62,1.16-.52.89.3.94,2.16.23,2.76-.33.28-1.16.46-1.49.19-.36-.3-.91-.61-1.23-.57s-.62.92-.91,1.01l-2.5.78c-.92.29-1.7.62-2.43,1.3-.34.32.1,1.78.57,1.72l2.83-.32.58-.07c.69-.09-.93,3.74.81,5.85.51.62,1.88.85,2.67.7.31-2.17-2.33-.97-1.84-5.64l.13-1.19c.03-.25.67-.3.92-.42l2.4-1.17.45.53c-.17,3.37.51,3.46.78,7.24l.2,2.81c.48.16,1.6.34,2.36.35,1.32-4.69-1.12-7.23-.61-10.83.69-.32,1.65-.63,2.09-1.1.34-.36.34-1.71-.02-2.05-.57-.54-1.82-.44-2.6-.41l-.48-2.66c-.16-.91-.21-1.54-1.01-2.04-.5-.31-1.55-.3-1.91.33-.22.39-.39.77-.62.82-1.1.22-2-2.53-1.45-2.97l2.16-1.73c.88-.71,1.74-1.28,2.48-2.09l.43-.47c.09-.09.41.27.44.41l.64,2.59.68,3.71,2.09.42c.81.16,1.55.56,2.48-.04,1.52-.98-2.17-3.13-2.35-5.18-.1-1.12.53-2.85,1.27-3.67.89-1,2.42-1.24,3.79-1.41.48,1.5,1.57,2.9.2,3.73-.28.17-.85.53-.8.81.37,2.03,1.14.66-.13,3.44.11.41.96.6,1.5.55.38-.04.76-.64,1.14-.91,1.17-.84,1.49-1.56,2.15-2.76.43-.8,1.5-1.62,2.05-2.44,1.02-1.52.65,1.56,1.05,4.1.22,1.42.35,2.62-.25,3.92-.18.39.25,1.32.63,1.4l2.19.5c1.24-.7,1.27-1.87.92-3.26.2-.11.79-.13.95.05.83.91-.09,1.37.11,3.65.03.38.74.96,1.11,1,1.61.21,2.62-2.88,2.35-4.49.39-.89,1.83-.65,2.52-.06l2.17-.3c.16-.02.7-.01.69.15l-.02.58c-.07,2.68.34,5,.74,7.76l-1.33-1.45c-.87-.5-2.45-.46-3.37-.02-3.81,1.82-3.26,3.02-4.11,3.54-.33.2-2.79-.98-4.41-.75-.75-1.72-.67-5.59-1.96-6.05-1.14-.41-2.91.58-3.49,1.86l-2.06,4.56c-3.15.89-2.66.57-4.81,2.43-.19.16-.47.73-.36.94.09.16.63.32.84.29l2.57-.31c1.62-.19-.32,2.76-.26,4.52-.08.12-.31.43-.39.52-1.44-.76-2.69-.57-3.84.26-2.62,1.9-3.21,4.93-3.3,8.07l-.08,2.6c-.01.46-.31,1.34-.44,1.99l.54.53,2.58-.52c.96-.19,1.78-.45,2.73-.62l2.29-.42.26,2.58c.05.5.64,1.72.21,1.97-2.25.95-3.99,3.54-5.45,5.26-1.13.51-2.71.63-3.7,1.85-.55.67-2.06.76-2.89,1.07l-2.12.78c-1.45.53-2.82.93-3.59,2.7,1.65,1.68,7.01-1.44,6.88-.74-.31,1.59-1.48,1.75-1.93,4.2-.38,2.11-1.12,3.83-1.95,5.78.74.31,1.96.44,2.61-.06,2.36-1.82.43-3.18,3.39-6.69.33-.38.74-.9,1.11-.96.41-.07,1.15.16,1.29.37l-.46,1.57c1.6.17,1.39,2.5,1.27,3.42-.25,1.88.1,3.77.8,5.52l.98.95c.1.1.43.46.32.54-1.8,1.32-2.89.45-5.06,3.26-2.92,3.78-2.97,7.19,0,3.39.98-1.25,1.76-2.35,3.04-3.31.89-.67,1.88,1.39,1.69,2.29-.21.98-2.04,1.13-1.6,2.28.3.79,2,0,2.69.63.79.71-.01,3.12,1.1,5.02l-.17,1.22c-.02.14.05.61.19.62s.44,0,.61-.02l2.05-.28c-.63-3.81-.99-3.24.34-7.22.5-.78,2.07-.74,2.87-.74,2.19,0,2.77-.83,3.91.23.22,1.84.38,3.79.73,5.55.78,3.89-.95,4.08-1.65,6.52-1.07,3.69-2.74,1.34-7.28,2.86-3.81,1.28-2.64,2.76-2.64,2.76l1.12-.15c.12-.02.56,0,.67,0,.08,0-.2.22-.24.28l-.22.35c-.36.57-.91,1.03-1.23,1.59l-1.24,2.17c-.36.62-2.03,3.16-.71,4.22.54.43,1.61.15,2.1-.25,1.57-1.27.35-2.96,2.83-5.24.46,1.02-.09,1.85-.15,2.74-.12,1.8.95,3.69,2.77,3.82,2.36.17,3.38-3.02,3.29-4.84-2.2-1.52-3.56,1.74-3.36.51l.13-.77.52-2.64c.16-.84.96-1.71.72-2.6-.14-.5-.07-1.17.25-1.28.27-.1,1.21-.1,1.36.15.6,1-.43,2.69.07,3.07l1.06.81c.7.53,1.33,1.22,2.04,1.24.74.03,1.88-.23,2.07-.83.21-.66.38-1.48.79-1.64l2.07-.8,3.55-1.39c2.15-.84.93,2.01,2.6,3.43,1.04-.08,2.21-1.01,2.36-1.98.1-.62-.46-1.82-.86-2.29-1.89-2.2.71-1.94-2.15-4.64-1.81-1.71-1.44-3.53-5.07-5.73-.82-.5-2.06-.16-3.07-.04-.36-.42-.46-1.22-.55-1.85l-.31-2.36-.49-3.67c-.05-.38,0-1.3.39-1.3.97-.01.3,1.27.48,1.74.41,1.08.76,2.02.74,3.17-.02,1.46,1.88,2.75,3.07,1.93.84-.57-.21-2.01-.89-2.19-.21-.06-.82-.55-.81-.76l.05-3.56c2.48-.75,1.41-1.47,2.92-1.44.32.68.54,1.8.69,2.63.38,2.04,1.03,3.9,1.84,5.82.47,1.14,2.49.56,3.21-.2.77-2.27,1.71-4.43,2.8-6.58,1.38.71,1.37,2.01,1.49,3.38l.27,2.87c.12,1.24.65,2.55.64,3.83-.02,1.68-.02,3.43.93,4.88.31.47,1.56.97,2.13.84.87-.2,2.01-.66,2.61-1.23.79-.74,1.11-4.61-1.01-4.97-.83-.14-1.32.14-1.76,1.14l-.45-.22c.7-1.79-.84-3.88.56-4.57l1.84-.9c.79-.39,2.02-1.5,1.15-2.41-.76-.8-2.33-.45-3.32-.19l-.14-4.24c-.05-1.53-1.5-2.62-2.64-2.8-.16-.02-.36-.54-.38-.69l-.2-2.18c-.06-.67-.07-1.67-.03-2.26l1.53-1.58c-.5-1.01-.93-2.28-1.91-2.76l-2.06-1c-.57-.27-1.11-1-1.57-1.03-.59-.04-1.28.35-1.83.69-.8.5-1.96.8-2.67,1.36l-2.99,2.38c-.8.64-.36.88-1.07,2.32-.86,1.73-1.53-5.81-1.55-6.22-.13-2.43,0-4.65-1.31-6.73-.65-1.02-2.37-.82-3.22-.52-.11.04-.23-.35-.25-.47l-.48-2c-.08-.34-.09-1.19.12-1.46.55-.69,2.66-.94,3.56-1.04.71-.08,1.09.79,1.02,1.28l-.26,1.81,2.23-.23c.02.84,1.42,3.83,1.62,3.98s1,.09,1.26-.01c1.1-.45,1.27-2.16.52-3.16-.98-1.3-1.65-2.94-1.12-4.63.3-.94,1.66-.91,2.46-1.11,1.27-.31,2.28-.49,3.71-.49l.66,3.94.74,4.06c.7,3.84-1.14,5.21,1.07,5.97.52.18,1.43-.37,1.62-1.11.41-1.55.02-3.16-.18-4.76l-.74-6.02c-.08-.67-.41-1.89.26-2.25.88-.49,1.77-1.36,1.14-2.27l-2.4-.78c-.16-1.12-.27-2.06-.55-2.94-1.31-4.02,2.42-2.89,1.45-5.3-.69-1.72-.99-3.38-1.36-5.2-.23-1.12-.63-2.28-.13-3.44l1.42-1.03c.25-.18.19-.96.02-1.21-.67-1-2.82-.68-2.28-2.69,1.04-.08,2.47-.55,2.98-1.43-.57-2.57-2.48-6.09-.24-7.82.59-.46.59-1.33.07-1.88-.59-.63-.66-1.27-.77-2.13l-.54-4.41-.39-4.46-.31-4.56-.23-3.12c-.19-2.52-1.89-4.14-.68-5.83.43-.59.91-1.7,1.2-2.32.11-.24.93-.62.79-.85-.37-.62-1.73-2.27-2.54-2-1.56,1.06-2.98,2.01-4.66,2.58-.03-1.64-.22-2.81-.1-4.02l.39-4.09c.32-3.35-.24-3.51.75-5.91.39-.94-.07-2.08-.24-3.09-.16-.95-.06-2.04-.16-3.02l-.3-3.09-.47-4.87c-.62-.97-2.18.49-3.61.62l-.25-3.4c-.05-.72-.88-1.91-.57-2.65.55-.58,1.37-1.28,1.73-1.9-.34-1.21-1.6-1.61-2.6-1.91l-1.34-5.11-1.9-4.88,3.09-.68c.15-1.52-.33-2.98-1.46-4.01l-.39-1.47c-.36-.51-.65-.99-.7-1.47-.03-.34.78-.82.92-1.15.92-2.16-.66-4.35-.84-5.49l-.77-4.77-1.08-5.63c-.81-1-2.6-1.26-3.9-1.51-.25-2.94-.81-5.69-1.26-8.51-.27-1.68-.06-3.07-1.03-4.61-.56-.9-.87-2.31-1.69-3.01-1.04-.88-2.22-.7-3.29.35-2.01-5.3.42-9.89-1.8-14.24-1.47-1.17-3.35-.51-4.6.57-2.21,1.92-3.47,1.08-6.09,2.33-.53.25-1.37.52-1.85.3-.24-.9-.43-1.73-.56-2.56-.58-3.77-1-2.35-.76-6.39l1.1-1.55c-1.42-1.46-4.41-.49-4.29-1.48.15-1.23,1.13-.81,2.11-1.66.32-.28,1.13-.6,1.31-.28.46.79,1.06,1.77,1.11,2.45-.44,2.12.81,8.88,2.46,9.58.47.2,1.66,0,1.81-.46.3-.95.07-2.02-.27-2.92-2.31-6-.22-6.67-2.94-11.41l-1.69-.24c-1.61.35-3.32.88-4.58,1.91-.86.7-1.23,2.29-2.13,2.81l-2.59.96-2.2-.85-.78-4.47c.83-.48,4.01-2.71,2.74-3.46-.71-.42-1.44-.5-2.25-.56.16-1.42,0-3.25-1.14-4.29-3.79-2.26-5.36,2.87-6.77.51-.49-.82-1.54-1.25-2.49-1.22-1.78.06-2.2,2.39-3.84,4.39-.84,1.03-1.68.56-2.65.36-.92-.19-2.06-.35-3-.6-.8-1.7-1.41-3.33-1.94-5.03-.31-.99-1.24-1.18-2-1.36-1.67-.39-2.61-.06-3.71,1.1-1.91,2.03-2.8,3.32-2.95,6.41-.03.36-.8.82-1.05,1.08-.38.4-.79,1.29-1.53.82-1.76-1.13.01-2.97-4.54-3.1-2.06-.06-2.07.47-4.62,1.69-1.38.66-1.56,2.46-2.5,3.43l-2.14,1.85c.97.97,1.71,1.78,2.63,2.52s2.04-.41,2.26-1.35l1.95-.97c.81-.4,1.66-.63,2.52-.83.58-.14,1.52-1.29,2.14-.91.5.3,1.47,1.13,1.76.74.61-.86.96-1.26,1.96-1.07l2.78.54c.22-1.17.76-1.48,1.44-2.12,1.8-1.66,1.05-.79,3.64-2,.19-.09.64.31.68.56l.6,3.26c.05.25-.01.96-.23,1.08-1.23.67-1.65.04-2.22.88-.15.23-.18.95.04,1.06l1.84.18c.21.87-.08,1.49-.42,2.27l-.97,2.23c-1.06-.03-1.17-1.3-1.78-1.78-.86-.66-2.19.18-3.07.41-1.81.47-1.71-3.22-3.9-3.46-1.2-.13-2.14.29-2.95.94-1.65,1.33-3.13,2.59-4.37,4.31-.44.61-.98,1.17-1.63,1.65l-1.92-3.59c-.43-.8-1.42-1.27-2.25-1.18-.96.11-1.46.71-2.04,1.53-.77,1.1-1.54,2.14-2.09,3.43l-3.13,7.35c-.13.29-1.06.58-1.02.9l.15,1.32c.08.65-.35,1.56-.64,2.33s.45,1.42,1.11,1.58,1.49-.16,1.84-.78l1.16-2.07c.24-.43.57-1.11.78-1.6l3.84-3.31c.54-.46.75-1.17,1.71-1.46l.18,4.17c.04,1.05.34,1.96-.83,2.46s-1.79,3.58-1.82,4.65l-.13,5.57c-.91.64-1.42,1.48-1.9,2.7-1.14-1.61-2.13-3.36-2.3-5.29-.04-.45,1.07-3.08-.25-3.55-1.15-.41-1.41,1.09-2.66.98-3.72-.35-4.65,1.93-6,4.56-.56,1.08-.46,2.8-1.32,3.68l-1.67,1.7c-1.81-.99-1.71-3.5-3.66-3.99-.8-.2-2.16-.21-2.72.5-.45.57-1.05,1.39-1.29,2.03l-1.45,3.92c-.49,1.33-.93,2.53-1.03,4-.14,1.96-.41,5.65,1.12,7.09l1.76,1.64c.27.25,1.08.68,1.39.5l1.41-.81c0,.85-.05,1.67-.17,2.59-.08.64.1,1.41.11,2.09l.05,4.53c.03,2.7-3.04,1.47-4.12,3.03-.32.47-.34,1.78.14,2.11.76.52,1.66.09,2.55-.06.88.71-1.88,3.04-.29,4.37.43.36,1.76.05,2.09-.38.2-1.44.41-3.04.93-4.39.34-.89,1.53-1.2,2.26-1.57l3.15-1.61c2.58,3.73-2.17,4-1.36,6.35.14.4,1.17.81,1.6.78l2.39-1.87c.87-.68,1.3-1.26,1.21-2.47s.93-4.52,1.7-5.51c1.08.58,1.82,1.14,2.71,1.85l2.15,1.7c1.54,1.21,4.09.19,4.4-.61.11-.3-.11-1.02-.32-1.29-.86-1.09-1.24-2.11-1.73-3.39-.33-.88-.8-1.64-1.26-2.65-.17-.39.55-1.09,1.02-1.34.63-.34.58-1.49.21-2.04-.92-1.36-2.85.06-3.11-.43l-.5-.93c-.47-.86-2.33-.5-2.87.28-.77,1.14-.82,3.02-2,3.77-.88.56-1.94.82-2.84,1.55-1.07.86-1.23-1.08-2.78-2.47-.66-.6-1.51-.06-2.13.72-.97-2.59-.07-5.12,1.7-7.03.2-.21.41-.94.69-.9,2.5.37,1.27,4.47,3.34,6.07.48-.15,1.37-.55,1.64-.9.68-1.28-.07-2.68-.52-3.83s-.8-2.22-1.89-3.02c-2.08-1.54.81-2.18-1.65-3.91-.46-.32-.71-1.31-.77-2.04l2.65.81.93-2.51c1.34-1.09,2.49-2.24,3.43-3.74.26-.41.85-.79,1.35-.82.79,1.66,1.4,3.28,1.77,5.02.21.96.94,1.25,2.01,1.39l-.15.49c-.18.58-3.1-1.32-4.39.75-.14.23-.19.9-.13,1.21,2.36,1.72,5.27-.13,5.52.85.35,1.38.07,1.66.92,2.48s1.71.65,2.5-.11c.35-.34.65-.89.67-1.39.02-.41-.45-.94-.94-1.16-.45-.2-.86-1.1-.4-1.39s1.13-.41,1.78-.47c1.01,1.47,1.46,5.06,2.58,5.29.65.14,2.1-.62,2.34-1.43.11-.38-.31-1.12-.51-1.58-.6-1.32-1.14-2.75-1.52-4.16-.09-.35.12-1.23-.14-1.46-.99-.89-1.75-.45-2.21-1.2-.15-.25-.07-1.03.06-1.27.92.15,1.75.46,2.44.8l.61.29c.68.33-.27-2.06,1.67-2.85.36-.15.71-.31.92-.21.98.48-.99,1.64-.5,3.52l2.58-.09c.96-.03,1.53-1.17,1.34-1.95l-.63-2.61c1.71-.26,3.05-.61,4.3-1.86l-1.23-1.72c-1.2-.13-3.07,1.29-3.6-.05-.96-2.39-2.52-4.09-4.49-5.64-.66-1.52-.77-3.52-1.04-5.19l-.44-2.74c.38.01.85.03.99.12,3.46,2.21,3.01.02,5.02.58.78,3.06-3.16,3.04-4.1,5.61-.34.93,1.33,1.8,1.91,1.39.36-.25.7-.46.92-.49s.54.52.6.76c.64,2.47,4.86,5.47,6.49,4.09.33-.28.42-1.52-.02-1.66-.49-.16-1.31.08-1.92.08-.74,0-2.06-.78-2.41-1.52-.49-1.01-.32-2.82.36-3.5.75-.76,1.57-1.13,2.36-1.61s1.49-.69,2.27-.23c.5.3.96,1.73.32,1.96-.58.2-1.02.32-1.65.7l4.04,4.15c.3.31-.17,1.08-.55,1.18-1.39.39-2.61,2.57-2.52,3.06.06.36.72,1.01,1.11,1.04l2.68.21c.63,1.22-2.11.61-3.32,3.74l-1.81,4.66c-1.26.17-4.41.97-4.21,2.4.12.87,2.72,1.5,3.98,1.39.6,1.21-.57,3.56.11,3.91.91.47,2.06.56,2.51-.17.2-.33.07-1.15-.18-1.53-.59-.91-.31-1.68,0-2.56.48-1.36,1.25-2.17,2.73-2.68.52-.18,1.52-.87,2.08-.57.35.19.51,1.32.28,1.63-.19.27-.71.48-1.13.75-.81,1.33-.22,3.27-.67,4.64-.75.75-1.85,1.44-2.1,2.7l-.52,2.58-3.63-.19c-1.33-2.99-1.02-3.03-3.29-5.33-.41-.41-2-.2-2.34.31-.36.55-.8,1.53-1.09,2.2l-1.32,3.02c-.69,1.59-.81,3.62-1.96,4.96-.32.37-.84.9-.99,1.33-.26.72,1.66,1.67,1.37,2.28-.43.89-1.17,1.77-.51,2.36.24.22.91.57,1.27.63.61.1,1.98-.79,2.01-1.5l.15-3.73c2.23-.02,4.33.24,6.41.95,1.06,2-1.15,3.42-.38,4.22.35.37,1.47.46,1.92.15,1.38-.94,1.07-2.31,1.78-2.39.28-.03.83.03,1.24.07,1.35-1.81.18-3.85,1.05-4.47.6-.42,1.04,1.87,2.5,1.95.43.02,1.05.32,1.16.66.09.3-.21.83-.43,1.18l-.43.69c-.19.31,2.04,2.96,3.56,1.79.86-.67,0-1.84-.45-2.37-1.12-1.33-1.26-2.99-1.84-4.49-.38-.98-.53-1.54-.46-2.57s-.3-2.2,0-3.26c.14-.48,1.22-.86,1.68-.82.5.04,1.28.47,1.59.92l1.37,2.05.56.81c.28.41-.81.91-.79,1.63,0,.23.37.65.61.81,1.09.7,2.34.18,3.42-.53.4,1.07-.31,1.45-1.21,1.8-.35.61-.82,1.67-1.03,2.45-.51,1.94,3.8,1.12,3.93,3.08.06.82.24,1.59.98,1.87,1.72.65,1.67-1.93,3.74-1.27l3.73,1.2c.67-.66,1.41-1.57,1.8-2.17-.85-.72-3.54-3.45-3.6-4.21l2.08.26c-.02-.83-.03-1.57-.11-2.43-.07-.79-1.27-2.01-2.01-2.11-.94-.13-2.11.18-2.59-.56-.73-1.11-1.27-2.22-2.25-3.17-.42-.41-1.81.02-2.21.44-.44.46-.61,1.23-.82,2.16l-1.56-1.31c-.44-.37-.88-.79-.68-1.38,1.01.01,2.06-.16,2.35-1.26l-.88-1.91-1.95-.68-.07-2.35c-.66-.69-3.11-4.12-1.5-4.43,1.23-.23,1.81-.64,2.83-1.51l.62,1.33,1.49,2.87c.79,1.51,2.49,2.4,1.71,3.28-.66.21-1.89.62-1.39,1.43.4.64,2.09,1.2,2.77.88.83-.38,1.66-.94,2.41-.32-.12,1.5-.48,2.84-.86,4.32.03.54,1.17.95,1.69.97.47.02,1.57-.3,1.68-.82.35-1.67-.04-3.57-.3-5.11.03-.26.94-.48,1.04-.24l.77,1.83c-.25.9-.97,2.45,0,3.13l2.84,2.01c.85.6,3.56,1.44,3.75-.02.05-.41-.28-1.09-.66-1.08-.52.01-1.26.08-1.41-.16l-.65-1.01,1.84.16c.35.03.52-1.16.25-1.35-.24-.16-.64-.37-1.03-.55l-.94-.42c-.21-.09.06-.76.09-1.01.23-1.75,1.74-2.51,3.41-2.41,1.4.09,2.42.17,3.36,1.32.57.7,1.38,1.64.83,2.8-.28.58-1.43.96-2.14,1.39,2.82,2.81-.65,1.82-1.37,6.95-.04.29-.39.86-.64.96-.79.33-1.23-1.1-2.27-.93-1.19.2-1.8,1.68-1.9,3.16-.35,5.15.46,4.94-2.63,7.63-.21.18-.14.91.05,1.1,1.02,1.04,2.26-.04,2.96,1.75.27.69.97,1.11,1.71,1.03,2.4-.28-.39-3.8.92-5.17,1.46-1.53,3.87,1.58,4.39,2.67l-2.17.9,1.4,1.37c.31.3-.18,1.07-.43,1.57-.34.67-.34,2.15-1.01,2.48-1.02.5-1.63.83-2.36,1.61-.38.41-1.04,1.33-.37,1.85.97.75,3-.95,3.15.86l.29,3.48c.02.26.49.79.37.97s-.49.36-.82.54c-.92.52-1.22,1.86-1.89,2.67-1.42,1.71-4.29,1.04-4.45,3.77.79.99,2.27,1.2,3.15.42s2.02-1.22,3.06-1.78c1.71-.93,3.38-1.84,5.26-2.52.89,2.17-.13,3.82-1.61,5.28-1.29,3.16-.06,3.62-2.27,6.1-.37.41-.19,1.29.34,1.59,1.3.72,1.47-2.21,3.26-2.84.08.93-.01,1.84.4,2.39.28.37,1.64.1,1.84-.36,1.34-3.1.25-6.51.91-7.09.2-.17,1.03-.2,1.29-.04.92.57.97,2.25.76,3.35-.26,1.35.08,2.85-.25,4.1-.13.5-.36.93-.16,1.36,1.45,3.12-2.09,2.4-1.19,5.49l-2.4,1.43c-.53.32-.77.92-.66,1.56.3,1.64,4.09.1,4.94-.14,1.33-.38,2.72-.63,3.97-1.11l2.42-.92.48,3.47-4.15,2.23c-.47.25-1.55.51-2.14.61-.63.11-1.85-.56-2.29.2-.25.44-.21,1.6.05,2.06.58,1.03,1.73.97,2.61.68,1.82-.59,3.45-.99,4.9-2.44.29-.29,1.24-.52,1.42-.33-.16.81-.31,1.59.01,2.06.98-.15,2.13-.43,2.83-1.05.65-.57.24-2,.02-2.74-.85-2.85-.12-4.06-.8-8.51-.34-2.21.02-5.56-2.56-6.58l1.41-1.16c.31-.49.13-1.95-.21-2.48l-1.32-2.06c-.33-.52-.57-.95-.58-1.55.85.13,2.45-.27,2.3-1.11-.13-.72-.46-1.57-.36-2.29.08-.53.81-1.07,1.44-1.38l2.35-1.13c.46.09.73,2.16,1.33,3.88.92,2.65-2.33,2.66-3.94,3.69-.98.63.97,3.5,1.63,3.59.55.08,1.43-.07,1.8-.37,2.86-2.27,4.05.06,6.82-2.37.13.37.28.95.41,1.46l1.52,5.86c.35,1.37.57,2.87,2.26,3.12.69.1,1.54-.04,1.88-.61.86-1.44-1.33-3.46-2.44-6.89-.06-.18.04-.97.14-.89,3.59,2.62,1.19.23,6.42,1.07ZM163.86,127.11c.17.94,1.65.72,2.14,1.53.16.27-.1,1.06-.35,1.27-.58.5-.81,1.77.06,1.98,1.31.32,2.68-1,2.93-2.28.16-.84.87-1.46,1.87-1.09.48,2.28-.44.97-.67,3.97l-.23,3.16,2.89-.07c.05-2.72-.07-4.28,1.1-6.82.42-.91,1.87-.88,2.65-1.17.91-.35,1.78-.65,2.78-.59.81,2.61-.61,4.11.62,6.05.16.24,1.1.33,1.26.09l.56-.84c1.65-2.49.08-7.22-.92-9.9-.57-1.53-.93-3.25-1.63-4.64-.59-1.17-2.68-.48-3.18.42l-1.89,3.42c-.69,1.25-1.13,2.72-1.7,4.08l-3.35.03c-.17-1.12-.31-2.17-.4-3.26l-.28-3.31c-.15-1.83-.5-3.38-.3-5.2.18-1.64-1.19-1.36-1.05-4.69-1.71-.42-1.98-2.02-2.27-3.52l-.45-2.35c-.18-.92-.87-1.43-1.84-1.35-.54.04-1.21.24-1.55.51-.3.24-.23,1.3-.53,1.62-.97,1.03-2.16,2.57-2.92,3.94-2.09,3.77-1.39,3.64-2.58,7.43-.29.91-.11,1.65.82,1.87,2.07.51,2.17-2.69,2.38-4.22l2.96-.15,2.43-.17-1.83,2.07c-.82.93-1.19,2.08-1.57,3.26-.98,3.08-.31,3.34-1.72,3.49l-2.82.3c-.39.04-1.04.6-1.15.95-.27.91.74,1.38.64,2.22-.03.28-3.25,1.85-3.47,7.23-.04.99-.84,1.84-1.61,2.27,1.19,2.04,0,2.46.82,3.98.77.32,2.3.46,2.7-.2s-.17-2.03.54-2.66c.74-.67,1.87-1.03,2.78-1.52.81-.44,1.62-.97,2.52-.74l.24,2.42c.08.83.57,2.34,1.74,2.09,1.47-.32,1.39-2.19,1.29-3.28l-.28-2.92-.69-5.87c-.06-.55-.59-1.68-.17-2.02l3.74-1.18c.14-.04.56-.04.69.03s.23.47.23.62l-.07,1.19c-.02.31-.05.71-.1.93-.08.36-2,.53-1.81,1.61ZM200.18,117.67c.08.57,1.44,1.14,2,.85,1.4-.71.77-2.68,1.65-2.86.23-.05.8.28.89.53.89,2.76,4.01,3.12,4.6,2.72.27-.18.78-.8.78-1.15-.04-2.95-2.96-3.92-1.85-6.21l3.14-1.59c.9-.46,1.15-1.13.96-2.36-3.55-.55-4.44,1.38-6.73.3-1.1-.52-1.86.59-2.72.96-2.67,1.15-4.9-.61-6.6,1.07-1.54-1.04-.39-1.49-2.95-2.58-.65-.28-1.38.24-1.78.66-.5.53-.56,1.13-.62,1.94-.26,3.28.21,4.12-1.29,4.43-1.33.27-2.81.74-3.78,1.68-.26.26-.11,1.21.17,1.38s.84.42,1.24.54l2.85.83c.82.24.45,2.53-1.71,3.46-.44.19-.92.68-1.01,1.04-.12.49.1,1.25.49,1.38,1.43.49,2.72.7,3.85-.44.76-.77,1.26-2.47,1.58-3.57.74-.76,1.89,1.73,4.63,2.65,1.1.37,2.13-.3,2.57-1.06.6-1.05.19-1.7-.2-2.64l-1.36-3.29c-.38-.91-1.03-2.03-1.04-3.02.31-.43,1.45-.59,1.86-.36,1.83,1.04.57,3.31.38,4.69ZM197.2,129.31l.92,3.05c.24.8.04,1.95.18,3.01l2.59-.32c1.25-1.15.53-2.42.19-3.68l-1.61-5.91c-.19-.7-1.88-1.48-2.56-1.23-1.97.72-3.7,2.37-4.63,4.25l-1.83,3.72c-.17.35-.19,1.28-.04,1.58l2.07.57c.51.61,1.07,1.04,1.65,1.22.49.14,1.8-.1,1.92-.59.36-1.47.62-2.91.76-4.35.05-.53-.7-1.12.4-1.31ZM187.43,135.5c.78-1.97,1.63-3.52,2.83-5.25.58-.85,1.46-2.19,1.44-3.12,0-.26-.8-.53-.99-.39s-.56.46-.68.67l-3.27,5.87c-.22.39-.37,1.11-.48,1.68-.07.37,1.01.91,1.15.53ZM189.28,180.73l.42,3.35.46,5.1c.06.66-.26,1.76-.36,2.56.23.35.85.96,1.19,1.22,2.59-.19,1.95-5.05,1.56-6.82.04.18-.45-5.36-.32-5.52l1.42-1.15c.31-.25.72-1.27.4-1.52-1.73-1.33-2.52.52-3.38-2.18-.29-.91-1.02-2-2.02-1.98-1.58.03-2.49,1.5-2.91,2.82-1.14,3.61-3.37,2.18-5.9,5.76l-1.07-3.6-1.09-3.44c-.65-2.06-1.3-4.04-2.63-5.81-.38-.51-2-.52-2.39-.03-.26.32-.76.82-.92.63l-1.04-2.81c-.67-1.81-1-3.52-1.71-5.3-.3-.76-.32-2.04.42-2.34l2.75-1.12c.2-.08.82-.23.9-.05,2.04,4.92-.1,5.53.56,6.59.33.52,1.75.37,2.18-.06.98-2.37.36-5.09.53-7.49.08-1.11.2-1.72-.02-2.79-.41-1.98.52-4.19,1-6.1l4.58-.14.99,3.21c.56,1.8-2.44,2.08-1.32,3.06.17.15.57.4.82.48l2.53.83.93-2.36c1.36-1.49,2.75-2.85,3.9-4.49.24-.34.55-.77.84-.67,1.52.55-.31,4.89,1.89,5.9.49.22,1.76.21,1.9-.3,1.09-3.89-1.39-7.07-1.14-9.97.46-.42.93-.92,1.09-1.36.14-.39-.1-1.45-.5-1.59-1.36-.34-2.82.43-3.7,1.39-2.04,2.23-2.68.11-5.01,1.98-.34.27-.76.83-.83,1.18-.06.3.54,1,.86,1.02l2.61.17c.38.02,0,1.07-.42,1.28-1.39.72-.83,2.25-2.22,2.35l-1.12-3.96-.88-2.39-1.36-4.15c-.32-.98-.69-2.31-2.08-2.31-3.05,0-3.89,5.92-4.42,8.27-.88-.03-1.72.14-2.58.45l-1.9.68c-.83.67-1.28,1.14-2.37,1.51.01-1.23.15-2,.22-3.1.08-1.24-.49-2.66-.64-4-.2-1.84-.99-3.55-1.65-5.25-2.87-.15-4.31,1.68-5.61,3.78l-1.57,2.52c-1.16.18-4.06.98-4.53,2.09-.35.81,1.04,1.75.67,1.99-.15.1-.59.29-.78.44-1.78,1.4-2.86,3.74-3.57,5.93-.3.92-.86,1.43-1.83,1.61-.61.11-.87,1.4-.24,1.7,2.61,1.28,5.59-.15,7.05-1.87.67-.79,1.09-1.42,2.02-2.1.73,1.35,1.28,2.52,1.7,3.85.11.37-.76.91-1.04,1.14-1.84,1.56-2.59,4.03-3.34,6.23-.33.96-1.05,1.87-1.02,2.84.01.44.15,1.28-.18,1.39-.42.14-1.2.22-1.37.51-.14.25-.28.9-.42,1.16-.51,1-.87,1.76-.96,2.87-.16,1.93-1.65.67-2.01,2.22-.31,1.33,1.58.83,1.68,1.74.11,1.01-.51,2-.61,2.86s1.86,1.33,2.32.55c.95-1.6-.02-3.55.8-4.07.49-.31,1.76-.82,2.08-.67.46.22-.29.6.75,3.1.52,1.24.84,2.33,1.92,3.24s-.99,1.87-.12,2.82c.23.25,1.16.48,1.46.31,2.26-1.29,2.32-4.91,3.66-6.42.99-.25,1.89.3,2.35,1.21.73,1.46.49,3.17.36,4.73-.05.66,1.06,1.87,1.76,1.67.56-.16,1.32-1.14,1.43-1.65.38-1.8-.33-3.36-.56-5.06-.14-1-.16-1.97-.46-2.9l-1.06-3.25c.56-.66,1.83-.14,2.17.67.43,1,.22,2.09-.29,3.16l.96,1.01.1,6.36c.02,1.38.23,2.55-1.58,3.35l1.71.98c-.2,3.47.62,2.93.51,5.26-.05,1.08.35,1.82,1.35,1.94.67.08,1.99-.41,1.71-1.36s-.9-2.03-.86-2.93c.06-1.21.01-2.19-.17-3.39-.1-.74,4.33-.59,4.47-.08-1.16-.11-2.53-.15-3.08.82-.19.34-.11,1.3.13,1.57.25.29,2.49,1.06,3.47-.82.13-.25.73-.64.98-.52s.54.64.6.93l1.12,5.02c.89.07,1.78,0,2.74-.21.33-1.06-1.13-2.63-.18-3.59l1.04,2.37c.25.49,1.77.39,2.08-.1.45-.7,0-1.46-.15-2.12-.53-2.2.22-4.39.27-6.59.05-2.01.98-4.03,3.13-3.84ZM237.21,173.39l-.77-3.65c-.18-.86-.68-2.41-.09-3.03,3.03-1.32,1.66-2.16,5.15-4.8,1.44-1.09,1.99-1.87,2.59-1.82.23.02.74.34.69.56s-.31.73-.5.91c-.63.58-.81,1.4-1.15,2.28-.66,1.69-4.6,4.64-2.9,6.1,1.24,1.06,4.13-1.23,4.05-.4-.13,1.29-.96,2.7-.27,3.77.41.63,2.14,1.23,2.75.82l3.05-2.07c.52-.35,1.05-.74,1.65-1.06.18.73.25,1.36.3,2l.24,2.68,1.79-.09c1.13-.87,1.56-2.4,1.03-3.82-.18-.47.22-1.29.32-1.75l.69-3.16c.26-1.2.61-2.26,1.2-3.36.97-1.8,2.98-1.48,5.08-1.43,1.18,1.52.97,3.27.83,4.99l-.18,2.38c-.03.41.02,1.21.23,1.49.29.38,2.36.94,3.24-.31.62-.88.02-2.25-.09-4.08l-.17-2.91c-.12-2.03-.97-3.62-3.15-4.23-1.92-.54-4.37-.52-6.19.53-2.28,1.31-2.07,4.05-2.88,3.76-.73-.26.2-2.31-1.95-3.63-1.11-.68-2.16-.46-3.65.13l-.11-3.96c-.01-.5-.38-1.29-.7-1.57s-1.47-.56-1.8-.25l-2.2,2.03-2.45,1.91c-1.07.84-1.99,1.63-2.86,2.67-.66.79-1.41,1.54-1.82,2.47-.27.6-.6,1.25-1.23,1.37l-.92-1.33c-1.15-.73-1.72-1.8-1.6-3.27l.16-1.96c.81-.61,1.31-1.91.36-2.55-1.04-.7-2.26-.09-3.25.23l-3.11,1.01c-.8.26-1.56.64-2.07,1.32l-1.97,2.61c-1.03,1.36-1.13,3.76-.62,5.38.27.87,1.85.43,2.45.23.81-.27.63-1.45,1.06-2.03.84-1.13,1.82-1.98,2.47-3.29.16-.33.86-.89,1.1-.65.84.83.4,2.03-.02,2.92l-2.24,4.73c-.38.81-.75,1.81-1.42,2.39-.59.51-1.38,1.02-1.71,1.64-.5.95-.95,1.83-1.33,2.76l-1.17,2.9c-.31.77-.31,1.55-1.06,2.13-.52.4-1.4,1.56-1.16,2.14.42,1.03,1.19,1.8.26,2.88-.89-1.53-1.47-3.43-.88-5.21s2.01-.67-.16-5.45c-1.01-2.23-1.73-7.45-1.82-9.93-1.24-.93.06-3.66-1.52-4.68-3.36-2.15-7.77,6.18-9.11,8.59-.69-.73-.3-1.6-.02-2.43-1.26-1.17-2.23-2.39-2.92-4.04-.29-.69-1.83-1.45-2.39-.74-1.16,1.46-2.19,2.98-3.16,4.53-.47.75-.41,1.57-1.55,2.12l-.42-2.98c-.25-1.81-.64-3.55-1.09-5.38-.5-2.02-1.96-4.18-3.7-5.3-.87-.56-2.17.67-2.41,1.38l-.83,2.39c-.29.85-.62,1.8-.98,2.61l-.96,2.16c-1.51,3.39-2.4,3.05-2.47,4.76-.05,1.23-.45,2.7.07,3.82.56,1.2,2.88.63,3.52-.26.5-.7-.66-1.8-.14-2.68.21-.35.78-.76,1.19-.88,3.19-.91,1.79.9,4.81-.69.15.2.05.77-.14.9l-.85.59c.3,1.11,1.34,2.08,2.48,2.46,1.94.64-.05,2.22.93,3.43.25.31.96.87,1.31.7l1.74-.82c.03-3.75.63-4.55,4.13-5.95.67.93.98,1.99,1.38,3.04l2.1,5.55-2.36-.14c-.49-1.44-.91-3-2.23-3.94-.63-.45-1.58.45-1.94.96-.81,1.13-.46,2.01-1.45,4.63-1.07,2.84-4.57,3.3-1.62,4.8.36,1.61-.51,4.02-1.26,5.66-.19.42.21,1.55.63,1.6,4.56-.24,2.03-9.9,6.08-8.75l.31,3.09c.07.64.24,1.96,1.1,2,.61.03,1.75-.79,2.15-1.34.32-.45.33-1.81.09-2.32l-1.16-2.46,2.92-1.76c.39-.24,1.16-.38,1.42-.68,1.36-1.58-2.27-5.35,1.72-8.88.61-.54,2.7-2.1,3.37-1.59.63.48,1.48,4.18,1.49,5.32-1.76.37-2.16,1.47-2.65,2.82-.42,1.18-1.04,2.51-1.6,3.58-1.13.29-4.9,1.86-3.53,3.19,1.01.98.95.25,2.12,1.06.33.23-.45,2.46-.12,3.52,1.08.98,2.68.87,3.59-.06s.31-1.61-.08-2.35c-.76-1.44.46-2.72,1.59-3.39,2.03-1.2.79.69,1.84,2.98,1.74,3.81.42,4.87,2.34,6.52l2.62-.37.11-2.24c.58-.07,1.38-.47,1.38-.98l.03-4.38c.67-.27,1.58-.48,2.34-.53l2.42-.18c.36,2.02.79,3.6.95,5.56.03.32-.48,2.74-.2,3.47.19.47,2.1.69,3.05-.36.5-.56.26-1.52.2-2.28-.14-1.84-.36-3.59-.82-5.42-.53-2.1,1.74-1.02,1.68-2.98-.03-1.18-2.7-.48-3.05-2.86-.47-3.2-1.91-4.06.46-5.39l1.89-2.14c.41-.47,1.64-.86,1.92-.12.85,2.27.96,4.55.91,6.97l1.65.59,1.68-1.28c.04-.81.06-1.77-.08-2.48ZM243.03,186.6c.18,1.13-.13,2.43.14,3.46.26.97,2.39,1.39,3.03.51.55-.75.78-1.96.96-2.77-1.89-.31-1.68-3.7-1.74-4.93-.08-1.59-.5-3.02-.77-4.6,1.19.18,1.98-.02,2.05-1.03.17-2.3-1.99-.99-2.73-2.72-.47-1.09-2.05-1.86-2.99-.92-.66.66-1.04,1.92-1.67,2.62-1.51,1.68-1.85.19-4.53,4.09-.25.36-.24,1.57.07,1.88.43.43,1.55.45,2.19.47-.35.55-1.08,1.77-.78,2.32.46.85,1.61.63,2.26.4.73-.27.94-.99,1.26-1.77.6-1.45,1.08-2.79,1.46-4.33h.64s1.15,7.29,1.15,7.29ZM189.91,277.18c1.37.23-.27,2.72,1.67,4.7.61.02,1.39.02,2.07-.03,1.96-.15.66-6.94-.34-8.21l2.61-1.11c.62-.26,1.31-1.38,1.62-2.21.15-.39-.64-.98-1.01-1.05-1.76-.34-3.12,2.87-8.06,1.18-1.19-.41-2.84,1.96-6.21,1.31-.16-1.2-.29-2.04-.5-3.11-.73-3.75.16-3.34-1.42-6.99-.58-1.34-1.12-2.25-2.28-3.58l3.4-1.22,1.1,2.07c.63,1.18.58,2.81.95,4.09.47,1.62.74,3.23.1,4.76-.18.42.08,1.43.46,1.56.98.32,3.05-.26,2.88-1.03l-.94-4.2c-.25-1.11.04-2.62-.43-3.66-.73-1.6-.64-3-.41-4.72.13-.99.12-2.01,1.37-2.35l.52,1.96c.92.39,1.22,1.04,1.53,1.9,1.16,3.26-.39,2.37,2.22,6.16,4.58-1.25-.51-5.47-.23-10.31.04-.76.73-3.35,1.29-4.05.12-.15.82.07.89.28.31.91.44,2.65.41,3.77-.03,1.22.11,2.25.17,3.39.1,2.08.08,4.13.03,6.18-.03,1.07-.75,1.65-1.62,2.04-.3.13-3.12,2.17-2.8,3.45.27,1.09,2.18,1.1,2.81.4.3-.33.94-.7,1.26-.59.27.09.64.42.98.72.92.83,2.79-.34,3.41-.94.5-.47-1.09-2.29-.84-2.98l1.93-2.49,1.9-2.49,1.64-1.46-.57-2.21c-.07-.25-.51-.64-.75-.63-1.48.08-.68.98-2.71,1.42.74,2.21-.5,2.31-2.11,4.1-.47.36.05-2.98.08-3.59.27-5.77.2-7.33-1.19-12.86l1.12-1.99-1.52-6.26c-.25-1.05-.28-2.21-.25-3.31.98-.13,1.74.19,2.73.79l1.37-1.86-1.11-2.43c-1.13.57-2.1.9-3.1.44-.88-.4-.89-1.66-1.18-2.4-.93-2.34-4.72.03-5.84,1.45-1.51,1.91-3.48.46-3.65,3.45.91.84,2.28.44,2.81,1.68-.18.22-.57.62-.44.66l.68.24c2.05.73,1.01-2.09,2.39-2.48.67-.19,1.92-.11,2.08.45.35,1.24.79,2.25.98,3.39l.47,2.93.64,2.93c-1.12.51-.78,1.71-.9,2.35-2.69,1.96-1.36,2.95-3.04,4.39l-1.12-3.34c-.39-.34-1.19-.59-1.86-.84-.53-.19-.92-1.22-1.28-1.72-1.14-1.62-1.74-3.28-2.38-5.12-1.24-3.59-1.68-5.05-1.71-9.11,0-.71-.39-1.89-.79-2.45-.85-1.19-.82-2.36-1.21-3.71l-1.65-5.69c1.44-.66,2.83-.83,4.21-.38l2.72,9.5,2,.31c.23-2.72-.51-2.87-.65-6.16-.05-1.2-.22-2.25-.4-3.38s-.16-2.06-1.03-2.98c-3.07-3.27.25-4.99-3.43-8.2l.93-2.83c.82-.52,2.26-.52,3.14-.16.69,3.26.45,1.45,1.79,4.77,1.75,4.36-.33,6.45-.57,10.63-.03.47,1.38.65,1.41.26l.25-3.86.18-1.96,1.86.24c.59,0,1.41-1,1.42-1.56.02-.71-.41-1.38-.78-2.04-.81-1.46-1.47-3.01-2.06-4.59-.11-.31-.12-1.03-.31-1.37-.17-.3-.41-1.01-.27-1.25s.53-.52.87-.74c.87-.57,1.12-1.53.43-2.32-.52-.6-1.41-.48-2.29.11l-.61-3.4c-.11-.6-1.1-.91-1.73-.93-.53-.02-1.2.38-1.68.87-3.14,3.23-2.35,4.86-4.97,5.35-2.01.38-3.51,1.63-3.66,3.78l-1.88,1.91c-1.31-1.89.05-1.77-1.41-4.27-.36-.61-.51-1.94-.26-2.56l1.87-1.58c.47-.4.57-1.39.01-1.74-1-.61-1.92-.02-2.96.67l-1.8-2.35c-1.18-1.54-2.83.16-4.03.65l-.91-3.88-1.11-2.32c-.31-.64-.72-1.35-1.11-1.98-.49-.8-1.65-.93-2.4-.65s-1.33.82-1.65,1.63l-1.43,3.66-3.2.05c-.34-3.12-1.25-4.38-2.26-7.92-.21-.72-.87-1.87-1.65-1.86-1.2.02-1.91,1.12-2.52,1.97-3.24,4.48-1.62,7.1-4.38,8.59-.7.38-1.27,1.72-.43,2.22.43.25,1.19.52,1.61.8.7.47,1.94.93,2.33.08-1.15-2.97,1.05-1.65,4.04-4.74.86,1.35,1.41,6.33,1.3,8.28l.69,1.55c-.66.68-1.05,1.16-1.41,1.88-2.43,4.79-1.52,3.76-3.54,4.69l-2.53,1.17c-1.08.5-1.63,1.39-1.33,2.54.12.47,1.28.76,1.7.55.55-.28,1.03-.39,1.42-.29-.56,1.05-.97,2.14-.08,2.87.42.35,1.59.06,2.06-.3.91-.67,1.13-3.02,2.05-4.54.43-.25,1.01-.58,1.32-.82l1.51-1.21c.5.79.39,1.44.6,2.22.65,2.4,1.09,4.87.85,7.42l-1.14.44c-.51.19-.26,1.52.06,1.97.28.39,1.3.98,1.67.66,1.81-1.57,4.04-1.71,4.52-1.03.14.21.17.73.19,1.08l.18,2.45c.08,1.16.07,2.37.08,3.55-.21-.01-.71-.14-.67-.31.03-.13.24-.58.22-.71l-.42-2.35-1.92-2.16c-1.46-.73-2.55.64-3.08,1.78l-2.07,4.4c-.97.6-2.31,1.17-3,2.04-.23.3-.14,1.3.11,1.55.91.91,2.1-.52,2.24,1.25l.24,2.88c.12,1.42,1,2.74,2.47,2.84.48-.44,3.14-3.46,2.13-3.72-1.29-.37-1.68-.96-1.8-2.23-.16-1.7.74-3.2,2.52-3.31.91,3.76,2.1,7.31,2.09,10.99.72.02,1.82.05,2.36-.23.43-.23.83-1.44.67-1.89l-.9-2.56c1-.84,1.35-1.73,1.6-2.88l.3-1.34c.13-.57.3-1.18.73-1.53.28-.23,1.06-.35,1.41-.16l.57,2.42,1.46,5c.4.43,1.87.46,2.26,0,.62-1.44.34-3.41-.55-4.56-2.27-2.96,2.49-2.91-.97-5.38l-.14-2.03-.25-3.82-1.75-.93c.59-1.31,1.9-1.98,3.22-1.94.35,1.89,1.03,3.49,1.69,5.26.55,1.48.6,3.26,1.79,4.47.91.92,2.16,1,3.62,1.14-.38.6-.85,1.17-1.36,1.8-4.16,5.09-1.96,6.39-3.33,7.15-.39.21-.32,1.12-.28,1.51.03.31-.68.69-.98.87-.98.59-1.84.68-2.96.97-1.85.48-3.67,2.25-4.57,3.86-.58,1.04-.67,1.83-2.15,1.87-.63.02-1.73.57-1.93,1.28-.15.55.66.66,1.11.81.48.17,1.1.67,1.62.97.29.17,1.09.21,1.31.46s.49,1,.47,1.24l-1.45.64-1.21,5.39c-.79.55-1.7,1.26-2.08,2.03l.21,1.88,1.88.02c.19,4.29-.31,3.23-.81,6.44-.17,1.09-.31,2.26.21,3.26.63.14,1.5.13,2.19.01.39-1.12.49-2.3.65-3.5s.68-2.27,1.03-3.46c.48-1.66-.68-3.32.08-5.28.05-.14.71-.18.72-.03.11,1.58,1.58,2.32.77,5.65-.41,1.68-.78,5.26-.72,7,.02.6-.4,1.6-.32,2.13l.38,2.57c.1.68.82.9,1.45.81,1.11-.15,1.26-1.57,1.28-3.15l.1-7.36c2.79,1.77.6,6.17.72,7.81.06.81.17,1.57.27,2.36.27,2.29,3.13.14,1.97,3.1-.34.88.21,2.08.92,2.5,2.72,1.64,2.81-.32,3.98.78-.49,1.49-1.94,4.32-2.82,5.74-.13.21-.25.68-.22.9.15.96,2.47.77,3.17.64,1.36-.93,2.25-2.4,2.57-3.93.19-.92.41-1.66-.71-2.16.25-2.1.95-3.02,1.8-5.59.18-.54-.76-1.64-1.29-1.37-2.55,1.3-1.8,3.63-4.86,2.36l-.75-1.56c-.54-1.11,1.8-1.39.84-2.17-.56-.45-.96-1.25-.81-1.87s.72-1.18,1.36-1.21c.24,1.69.95,3.05,2.43,3.42.39.1,1.26-.14,1.36-.46.09-.28-.08-.9-.07-1.22l.18-3.6c.06-1.1-.12-2.29.31-3.34.3-.74,1.74-.9,2.41-.63l.51,2.24c.2.89-.08,2.05.04,2.87l.41,2.74c.23,1.53,3.58-.3,3.6.33l-1.73,4.49c-.2.52-.03,1.67-.04,2.3l1.68.04c1.03.03,1.47-.78,1.46-1.69-.02-1.45.86-2.5,1.47-3.8.33-.7,1.25-2.18,2.14-1.2.5.56.44,1.98,1.73,2.19ZM257.97,263.94l1.43-3.58c.12-.3.2-.76.15-.98s-.65-.56-.83-.43c-.42.28-.82,1.32-1,1.83-1.3,1.17-1.23,3.83-.39,3.66.18-.04.58-.32.65-.51ZM259.42,266.44c-.07-.14.48-.4.56-.56l1.3-2.42c.12-.22-.66-.71-.79-.53-1.37,1.83-2.46,3.2-1.17,5.37.34.2,1.28.22,1.58.01-.11-1.15-.75-.46-1.47-1.88ZM266.23,277.79c.27-.56.09-1.76-.75-2.22l-.15,1.55c-.02.17.19.64.3.77.09.1.52.05.6-.11Z"/>
  <path d="M284.36,138.15c-5.23-.84-2.82,1.54-6.42-1.07-.1-.07-.2.72-.14.89,1.1,3.43,3.29,5.45,2.44,6.89-.34.57-1.2.71-1.88.61-1.69-.24-1.9-1.75-2.26-3.12l-1.52-5.86c-.13-.51-.28-1.09-.41-1.46-2.77,2.43-3.95.11-6.82,2.37-.37.3-1.25.44-1.8.37-.66-.09-2.6-2.96-1.63-3.59,1.61-1.04,4.86-1.05,3.94-3.69-.6-1.72-.87-3.78-1.33-3.88l-2.35,1.13c-.63.3-1.36.85-1.44,1.38-.1.72.23,1.57.36,2.29.15.85-1.44,1.25-2.3,1.11,0,.6.25,1.03.58,1.55l1.32,2.06c.34.53.52,1.99.21,2.48l-1.41,1.16c2.58,1.03,2.22,4.37,2.56,6.58.68,4.45-.05,5.66.8,8.51.22.74.63,2.17-.02,2.74-.71.62-1.85.9-2.83,1.05-.32-.48-.17-1.26-.01-2.06-.18-.18-1.12.04-1.42.33-1.45,1.45-3.08,1.85-4.9,2.44-.88.29-2.03.35-2.61-.68-.26-.46-.3-1.62-.05-2.06.44-.76,1.65-.09,2.29-.2.59-.1,1.67-.36,2.14-.61l4.15-2.23-.48-3.47-2.42.92c-1.25.48-2.65.73-3.97,1.11-.85.24-4.64,1.78-4.94.14-.12-.65.12-1.24.66-1.56l2.4-1.43c-.9-3.09,2.64-2.37,1.19-5.49-.2-.44.03-.87.16-1.36.32-1.25-.01-2.76.25-4.1.21-1.1.16-2.78-.76-3.35-.26-.16-1.09-.14-1.29.04-.66.57.43,3.98-.91,7.09-.2.46-1.56.73-1.84.36-.42-.55-.32-1.46-.4-2.39-1.8.63-1.96,3.57-3.26,2.84-.54-.3-.71-1.17-.34-1.59,2.21-2.47.98-2.93,2.27-6.1,1.48-1.45,2.5-3.11,1.61-5.28-1.88.68-3.55,1.59-5.26,2.52-1.04.56-2.16.99-3.06,1.78s-2.36.56-3.15-.42c.17-2.73,3.04-2.06,4.45-3.77.67-.8.97-2.15,1.89-2.67.33-.18.69-.37.82-.54s-.35-.71-.37-.97l-.29-3.48c-.15-1.81-2.18-.11-3.15-.86-.67-.52-.02-1.44.37-1.85.73-.78,1.34-1.11,2.36-1.61.67-.32.67-1.8,1.01-2.48.25-.5.74-1.26.43-1.57l-1.4-1.37,2.17-.9c-.52-1.08-2.93-4.19-4.39-2.67-1.31,1.37,1.48,4.89-.92,5.17-.74.09-1.45-.34-1.71-1.03-.7-1.79-1.94-.71-2.96-1.75-.19-.2-.26-.92-.05-1.1,3.09-2.69,2.28-2.48,2.63-7.63.1-1.48.71-2.97,1.9-3.16,1.03-.17,1.48,1.26,2.27.93.25-.1.6-.67.64-.96.72-5.13,4.19-4.15,1.37-6.95.71-.43,1.86-.81,2.14-1.39.55-1.16-.26-2.1-.83-2.8-.94-1.15-1.96-1.23-3.36-1.32-1.68-.1-3.18.66-3.41,2.41-.03.26-.3.92-.09,1.01l.94.42c.4.18.8.39,1.03.55.27.19.1,1.38-.25,1.35l-1.84-.16.65,1.01c.15.24.89.17,1.41.16.38-.01.71.66.66,1.08-.19,1.46-2.9.62-3.75.02l-2.84-2.01c-.96-.68-.24-2.23,0-3.13l-.77-1.83c-.1-.24-1.01-.02-1.04.24.26,1.54.65,3.44.3,5.11-.11.52-1.21.84-1.68.82-.52-.02-1.66-.43-1.69-.97.39-1.48.74-2.82.86-4.32-.75-.62-1.58-.06-2.41.32-.68.31-2.37-.24-2.77-.88-.5-.81.73-1.22,1.39-1.43.78-.88-.92-1.77-1.71-3.28l-1.49-2.87-.62-1.33c-1.03.88-1.6,1.28-2.83,1.51-1.61.31.84,3.74,1.5,4.43l.07,2.35,1.95.68.88,1.91c-.29,1.1-1.34,1.27-2.35,1.26-.2.59.24,1.01.68,1.38l1.56,1.31c.21-.93.38-1.7.82-2.16.4-.42,1.78-.85,2.21-.44.98.95,1.51,2.06,2.25,3.17.49.74,1.65.43,2.59.56.74.1,1.94,1.32,2.01,2.11.08.86.09,1.6.11,2.43l-2.08-.26c.06.76,2.74,3.49,3.6,4.21-.38.6-1.13,1.5-1.8,2.17l-3.73-1.2c-2.08-.67-2.02,1.92-3.74,1.27-.74-.28-.92-1.04-.98-1.87-.13-1.96-4.45-1.15-3.93-3.08.21-.78.68-1.84,1.03-2.45.9-.35,1.61-.73,1.21-1.8-1.08.72-2.33,1.23-3.42.53-.25-.16-.61-.57-.61-.81-.02-.72,1.07-1.22.79-1.63l-.56-.81-1.37-2.05c-.31-.46-1.09-.88-1.59-.92-.47-.04-1.54.34-1.68.82-.3,1.05.07,2.27,0,3.26s.08,1.59.46,2.57c.58,1.49.73,3.15,1.84,4.49.44.53,1.31,1.7.45,2.37-1.51,1.18-3.75-1.48-3.56-1.79l.43-.69c.22-.35.52-.88.43-1.18-.11-.34-.73-.64-1.16-.66-1.46-.08-1.9-2.37-2.5-1.95-.87.62.3,2.66-1.05,4.47-.41-.04-.96-.1-1.24-.07-.71.08-.4,1.44-1.78,2.39-.45.31-1.57.21-1.92-.15-.77-.81,1.44-2.22.38-4.22-2.08-.71-4.18-.97-6.41-.95l-.15,3.73c-.03.71-1.39,1.6-2.01,1.5-.36-.06-1.03-.41-1.27-.63-.66-.59.09-1.48.51-2.36.29-.61-1.63-1.55-1.37-2.28.15-.42.68-.96.99-1.33,1.15-1.33,1.26-3.36,1.96-4.96l1.32-3.02c.29-.67.74-1.66,1.09-2.2.33-.51,1.93-.72,2.34-.31,2.27,2.29,1.96,2.34,3.29,5.33l3.63.19.52-2.58c.25-1.26,1.35-1.95,2.1-2.7.45-1.37-.15-3.31.67-4.64.42-.27.93-.48,1.13-.75.22-.31.06-1.45-.28-1.63-.56-.3-1.56.39-2.08.57-1.48.52-2.24,1.32-2.73,2.68-.31.88-.6,1.65,0,2.56.25.38.38,1.21.18,1.53-.46.73-1.61.64-2.51.17-.68-.35.49-2.7-.11-3.91-1.27.11-3.86-.52-3.98-1.39-.2-1.44,2.95-2.23,4.21-2.4l1.81-4.66c1.22-3.13,3.95-2.53,3.32-3.74l-2.68-.21c-.38-.03-1.05-.68-1.11-1.04-.08-.49,1.13-2.66,2.52-3.06.39-.11.86-.87.55-1.18l-4.04-4.15c.63-.38,1.07-.5,1.65-.7.65-.23.19-1.66-.32-1.96-.77-.46-1.5-.22-2.27.23s-1.61.85-2.36,1.61c-.68.68-.84,2.49-.36,3.5.35.74,1.67,1.51,2.41,1.52.61,0,1.43-.24,1.92-.08.44.14.36,1.38.02,1.66-1.63,1.37-5.85-1.62-6.49-4.09-.06-.24-.38-.78-.6-.76s-.56.24-.92.49c-.58.41-2.25-.46-1.91-1.39.94-2.57,4.88-2.54,4.1-5.61-2.01-.56-1.55,1.64-5.02-.58-.14-.09-.61-.1-.99-.12l.44,2.74c.27,1.66.38,3.66,1.04,5.19,1.98,1.55,3.54,3.25,4.49,5.64.53,1.33,2.41-.08,3.6.05l1.23,1.72c-1.24,1.25-2.58,1.6-4.3,1.86l.63,2.61c.19.78-.38,1.91-1.34,1.95l-2.58.09c-.49-1.88,1.48-3.04.5-3.52-.21-.1-.56.06-.92.21-1.94.79-.99,3.18-1.67,2.85l-.61-.29c-.69-.33-1.52-.65-2.44-.8-.14.24-.22,1.02-.06,1.27.46.75,1.22.31,2.21,1.2.26.24.05,1.11.14,1.46.38,1.41.92,2.84,1.52,4.16.21.46.63,1.2.51,1.58-.24.81-1.69,1.57-2.34,1.43-1.12-.23-1.57-3.82-2.58-5.29-.65.05-1.33.18-1.78.47s-.05,1.19.4,1.39c.49.22.96.75.94,1.16-.02.5-.32,1.05-.67,1.39-.79.76-1.66.91-2.5.11s-.57-1.1-.92-2.48c-.25-.98-3.16.87-5.52-.85-.06-.31-.01-.98.13-1.21,1.3-2.08,4.21-.17,4.39-.75l.15-.49c-1.07-.14-1.8-.43-2.01-1.39-.38-1.74-.98-3.36-1.77-5.02-.51.03-1.1.41-1.35.82-.95,1.5-2.1,2.65-3.43,3.74l-.93,2.51-2.65-.81c.06.73.31,1.72.77,2.04,2.47,1.72-.43,2.37,1.65,3.91,1.09.8,1.42,1.82,1.89,3.02s1.2,2.55.52,3.83c-.27.35-1.16.75-1.64.9-2.08-1.6-.85-5.7-3.34-6.07-.28-.04-.49.68-.69.9-1.78,1.91-2.68,4.44-1.7,7.03.62-.79,1.47-1.32,2.13-.72,1.55,1.4,1.71,3.33,2.78,2.47.91-.73,1.96-.99,2.84-1.55,1.18-.75,1.22-2.63,2-3.77.53-.79,2.4-1.15,2.87-.28l.5.93c.26.49,2.19-.93,3.11.43.37.55.42,1.7-.21,2.04-.47.25-1.19.95-1.02,1.34.45,1.02.92,1.77,1.26,2.65.48,1.28.87,2.3,1.73,3.39.21.27.44.99.32,1.29-.31.8-2.86,1.82-4.4.61l-2.15-1.7c-.89-.71-1.64-1.27-2.71-1.85-.76,1-1.8,4.28-1.7,5.51s-.33,1.79-1.21,2.47l-2.39,1.87c-.43.03-1.46-.38-1.6-.78-.81-2.36,3.94-2.63,1.36-6.35l-3.15,1.61c-.73.37-1.91.68-2.26,1.57-.52,1.35-.74,2.96-.93,4.39-.33.43-1.66.74-2.09.38-1.59-1.33,1.17-3.66.29-4.37-.9.15-1.79.58-2.55.06-.49-.33-.47-1.64-.14-2.11,1.07-1.56,4.15-.32,4.12-3.03l-.05-4.53c0-.68-.19-1.46-.11-2.09.12-.92.16-1.74.17-2.59l-1.41.81c-.32.18-1.12-.25-1.39-.5l-1.76-1.64c-1.53-1.43-1.26-5.12-1.12-7.09.1-1.47.54-2.67,1.03-4l1.45-3.92c.24-.64.84-1.46,1.29-2.03.56-.71,1.92-.7,2.72-.5,1.95.49,1.85,3,3.66,3.99l1.67-1.7c.86-.87.76-2.6,1.32-3.68,1.35-2.63,2.28-4.91,6-4.56,1.26.12,1.51-1.39,2.66-.98,1.32.47.21,3.1.25,3.55.17,1.93,1.16,3.68,2.3,5.29.49-1.22.99-2.07,1.9-2.7l.13-5.57c.03-1.07.63-4.15,1.82-4.65s.88-1.41.83-2.46l-.18-4.17c-.96.29-1.18,1-1.71,1.46l-3.84,3.31c-.22.49-.54,1.17-.78,1.6l-1.16,2.07c-.35.62-1.17.94-1.84.78s-1.39-.8-1.11-1.58.71-1.68.64-2.33l-.15-1.32c-.04-.32.89-.61,1.02-.9l3.13-7.35c.55-1.29,1.32-2.34,2.09-3.43.58-.83,1.09-1.42,2.04-1.53.82-.09,1.82.37,2.25,1.18l1.92,3.59c.65-.48,1.19-1.04,1.63-1.65,1.23-1.72,2.71-2.98,4.37-4.31.81-.65,1.75-1.07,2.95-.94,2.19.24,2.09,3.93,3.9,3.46.88-.23,2.21-1.07,3.07-.41.62.47.72,1.74,1.78,1.78l.97-2.23c.34-.78.63-1.4.42-2.27l-1.84-.18c-.22-.12-.19-.84-.04-1.06.57-.84.99-.21,2.22-.88.22-.12.28-.82.23-1.08l-.6-3.26c-.04-.24-.49-.65-.68-.56-2.59,1.21-1.84.34-3.64,2-.68.63-1.22.95-1.44,2.12l-2.78-.54c-1.01-.2-1.35.21-1.96,1.07-.29.4-1.27-.43-1.76-.74-.62-.38-1.56.78-2.14.91-.86.2-1.71.43-2.52.83l-1.95.97c-.22.94-1.31,2.1-2.26,1.35s-1.66-1.55-2.63-2.52l2.14-1.85c.94-.97,1.12-2.77,2.5-3.43,2.55-1.22,2.56-1.75,4.62-1.69,4.55.13,2.78,1.96,4.54,3.1.74.48,1.15-.41,1.53-.82.25-.26,1.02-.72,1.05-1.08.15-3.09,1.04-4.38,2.95-6.41,1.09-1.16,2.03-1.49,3.71-1.1.76.18,1.69.37,2,1.36.53,1.7,1.14,3.34,1.94,5.03.94.25,2.09.42,3,.6.97.2,1.81.67,2.65-.36,1.64-2,2.06-4.34,3.84-4.39.95-.03,2.01.4,2.49,1.22,1.41,2.36,2.98-2.76,6.77-.51,1.14,1.04,1.3,2.87,1.14,4.29.81.06,1.54.14,2.25.56,1.27.75-1.91,2.98-2.74,3.46l.78,4.47,2.2.85,2.59-.96c.9-.51,1.27-2.1,2.13-2.81,1.26-1.02,2.97-1.56,4.58-1.91l1.69.24c2.72,4.74.63,5.41,2.94,11.41.35.9.57,1.97.27,2.92-.15.47-1.34.66-1.81.46-1.65-.7-2.9-7.45-2.46-9.58-.05-.69-.65-1.66-1.11-2.45-.18-.31-.99,0-1.31.28-.98.85-1.96.42-2.11,1.66-.12.99,2.87.02,4.29,1.48l-1.1,1.55c-.23,4.04.18,2.62.76,6.39.13.83.32,1.67.56,2.56.48.22,1.32-.04,1.85-.3,2.63-1.25,3.89-.41,6.09-2.33,1.25-1.09,3.13-1.75,4.6-.57,2.21,4.35-.21,8.94,1.8,14.24,1.07-1.05,2.25-1.23,3.29-.35.82.7,1.12,2.11,1.69,3.01.97,1.54.75,2.93,1.03,4.61.45,2.82,1.01,5.57,1.26,8.51,1.3.25,3.08.51,3.9,1.51l1.08,5.63.77,4.77c.19,1.14,1.77,3.33.84,5.49-.14.33-.95.8-.92,1.15.05.48.34.97.7,1.47l.39,1.47c1.13,1.03,1.61,2.48,1.46,4.01l-3.09.68,1.9,4.88,1.34,5.11c1,.3,2.26.7,2.6,1.91-.36.62-1.19,1.32-1.73,1.9-.31.74.51,1.93.57,2.65l.25,3.4c1.42-.14,2.98-1.59,3.61-.62l.47,4.87.3,3.09c.1.98,0,2.07.16,3.02.17,1.01.63,2.15.24,3.09-.99,2.4-.42,2.56-.75,5.91l-.39,4.09c-.12,1.21.07,2.38.1,4.02,1.68-.57,3.1-1.52,4.66-2.58.81-.28,2.17,1.38,2.54,2,.14.23-.68.61-.79.85-.29.62-.78,1.72-1.2,2.32-1.2,1.68.5,3.31.68,5.83l.23,3.12.31,4.56.39,4.46.54,4.41c.1.85.17,1.49.77,2.13.52.55.52,1.42-.07,1.88-2.24,1.74-.33,5.25.24,7.82-.51.88-1.93,1.35-2.98,1.43-.54,2.01,1.61,1.69,2.28,2.69.17.25.23,1.03-.02,1.21l-1.42,1.03c-.49,1.16-.09,2.32.13,3.44.37,1.82.67,3.48,1.36,5.2.97,2.41-2.76,1.28-1.45,5.3.28.87.39,1.81.55,2.94l2.4.78c.63.91-.26,1.79-1.14,2.27-.66.36-.34,1.58-.26,2.25l.74,6.02c.2,1.6.59,3.2.18,4.76-.19.74-1.11,1.29-1.62,1.11-2.21-.77-.38-2.13-1.07-5.97l-.74-4.06-.66-3.94c-1.43,0-2.44.19-3.71.49-.81.2-2.17.17-2.46,1.11-.53,1.69.14,3.33,1.12,4.63.75,1,.58,2.7-.52,3.16-.26.11-1.06.17-1.26.01s-1.6-3.14-1.62-3.98l-2.23.23.26-1.81c.07-.49-.31-1.36-1.02-1.28-.9.1-3.01.35-3.56,1.04-.21.27-.21,1.12-.12,1.46l.48,2c.03.12.14.51.25.47.85-.3,2.57-.5,3.22.52,1.32,2.07,1.18,4.3,1.31,6.73.02.4.69,7.94,1.55,6.22.72-1.44.27-1.68,1.07-2.32l2.99-2.38c.71-.57,1.87-.87,2.67-1.36.55-.34,1.24-.73,1.83-.69.46.03,1,.75,1.57,1.03l2.06,1c.98.47,1.41,1.75,1.91,2.76l-1.53,1.58c-.04.59-.03,1.6.03,2.26l.2,2.18c.01.15.22.67.38.69,1.13.18,2.59,1.27,2.64,2.8l.14,4.24c.99-.26,2.55-.61,3.32.19.86.91-.36,2.02-1.15,2.41l-1.84.9c-1.4.69.14,2.77-.56,4.57l.45.22c.44-1,.93-1.27,1.76-1.14,2.12.35,1.8,4.22,1.01,4.97-.6.56-1.74,1.03-2.61,1.23-.57.13-1.82-.37-2.13-.84-.95-1.45-.95-3.2-.93-4.88.01-1.29-.52-2.59-.64-3.83l-.27-2.87c-.13-1.37-.12-2.67-1.49-3.38-1.09,2.15-2.04,4.3-2.8,6.58-.72.76-2.74,1.33-3.21.2-.8-1.93-1.45-3.78-1.84-5.82-.16-.83-.38-1.95-.69-2.63-1.51-.03-.44.69-2.92,1.44l-.05,3.56c0,.21.6.71.81.76.68.18,1.72,1.61.89,2.19-1.2.82-3.09-.46-3.07-1.93.01-1.16-.33-2.09-.74-3.17-.18-.47.49-1.75-.48-1.74-.39,0-.44.93-.39,1.3l.49,3.67.31,2.36c.08.63.19,1.43.55,1.85,1.01-.12,2.24-.46,3.07.04,3.63,2.21,3.26,4.02,5.07,5.73,2.87,2.71.26,2.44,2.15,4.64.4.46.96,1.67.86,2.29-.15.97-1.32,1.9-2.36,1.98-1.67-1.42-.45-4.27-2.6-3.43l-3.55,1.39-2.07.8c-.41.16-.58.98-.79,1.64-.19.6-1.34.86-2.07.83s-1.34-.71-2.04-1.24l-1.06-.81c-.5-.38.54-2.07-.07-3.07-.15-.25-1.08-.25-1.36-.15-.32.12-.39.79-.25,1.28.25.89-.55,1.76-.72,2.6l-.52,2.64-.13.77c-.2,1.24,1.16-2.03,3.36-.51.09,1.82-.93,5.01-3.29,4.84-1.82-.13-2.89-2.03-2.77-3.82.06-.88.61-1.72.15-2.74-2.47,2.28-1.26,3.97-2.83,5.24-.49.4-1.56.68-2.1.25-1.32-1.06.35-3.59.71-4.22l1.24-2.17c.32-.56.87-1.02,1.23-1.59l.22-.35c.04-.06.32-.28.24-.28-.11,0-.55-.02-.67,0l-1.12.15s-1.16-1.48,2.64-2.76c4.54-1.53,6.21.83,7.28-2.86.7-2.44,2.44-2.63,1.65-6.52-.35-1.76-.52-3.71-.73-5.55-1.13-1.05-1.71-.23-3.91-.23-.8,0-2.36-.04-2.87.74-1.34,3.98-.97,3.41-.34,7.22l-2.05.28c-.18.02-.47.03-.61.02s-.21-.48-.19-.62l.17-1.22c-1.11-1.89-.31-4.3-1.1-5.02-.69-.62-2.39.16-2.69-.63-.44-1.15,1.39-1.3,1.6-2.28.2-.91-.8-2.96-1.69-2.29-1.28.96-2.06,2.06-3.04,3.31-2.96,3.81-2.92.39,0-3.39,2.17-2.81,3.26-1.94,5.06-3.26.11-.08-.22-.44-.32-.54l-.98-.95c-.69-1.76-1.05-3.64-.8-5.52.12-.92.33-3.25-1.27-3.42l.46-1.57c-.13-.21-.87-.44-1.29-.37-.37.06-.79.58-1.11.96-2.96,3.5-1.03,4.87-3.39,6.69-.65.5-1.87.37-2.61.06.84-1.95,1.57-3.67,1.95-5.78.44-2.45,1.62-2.62,1.93-4.2.13-.7-5.23,2.42-6.88.74.77-1.76,2.14-2.16,3.59-2.7l2.12-.78c.83-.3,2.34-.39,2.89-1.07.99-1.22,2.57-1.34,3.7-1.85,1.45-1.72,3.2-4.31,5.45-5.26.43-.24-.16-1.47-.21-1.97l-.26-2.58-2.29.42c-.95.17-1.77.43-2.73.62l-2.58.52-.54-.53c.13-.64.43-1.53.44-1.99l.08-2.6c.09-3.14.68-6.17,3.3-8.07,1.15-.83,2.4-1.02,3.84-.26.08-.09.31-.4.39-.52-.06-1.76,1.88-4.72.26-4.52l-2.57.31c-.2.02-.75-.13-.84-.29-.11-.2.17-.77.36-.94,2.16-1.86,1.67-1.54,4.81-2.43l2.06-4.56c.58-1.27,2.35-2.26,3.49-1.86,1.29.46,1.21,4.33,1.96,6.05,1.63-.23,4.09.94,4.41.75.85-.52.3-1.72,4.11-3.54.92-.44,2.5-.48,3.37.02l1.33,1.45c-.41-2.77-.81-5.08-.74-7.76l.02-.58c0-.16-.54-.17-.69-.15l-2.17.3c-.69-.59-2.13-.83-2.52.06.26,1.62-.74,4.7-2.35,4.49-.36-.05-1.07-.62-1.11-1-.2-2.27.71-2.73-.11-3.65-.16-.18-.75-.16-.95-.05.35,1.39.32,2.56-.92,3.26l-2.19-.5c-.39-.09-.81-1.02-.63-1.4.61-1.3.48-2.5.25-3.92-.4-2.53-.02-5.62-1.05-4.1-.55.82-1.62,1.64-2.05,2.44-.65,1.2-.98,1.92-2.15,2.76-.38.27-.76.88-1.14.91-.54.05-1.39-.14-1.5-.55,1.27-2.79.5-1.42.13-3.44-.05-.28.52-.64.8-.81,1.37-.83.28-2.24-.2-3.73-1.37.17-2.9.41-3.79,1.41-.74.83-1.36,2.55-1.27,3.67.18,2.05,3.87,4.21,2.35,5.18-.92.59-1.67.2-2.48.04l-2.09-.42-.68-3.71-.64-2.59c-.04-.14-.36-.51-.44-.41l-.43.47c-.74.81-1.59,1.38-2.48,2.09l-2.16,1.73c-.55.44.35,3.2,1.45,2.97.23-.05.4-.44.62-.82.36-.63,1.42-.64,1.91-.33.81.5.85,1.13,1.01,2.04l.48,2.66c.77-.02,2.03-.12,2.6.41.35.33.36,1.69.02,2.05-.45.47-1.41.78-2.09,1.1-.52,3.6,1.92,6.14.61,10.83-.76-.02-1.88-.19-2.36-.35l-.2-2.81c-.27-3.78-.95-3.87-.78-7.24l-.45-.53-2.4,1.17c-.25.12-.9.17-.92.42l-.13,1.19c-.49,4.67,2.15,3.48,1.84,5.64-.79.15-2.16-.07-2.67-.7-1.73-2.11-.11-5.94-.81-5.85l-.58.07-2.83.32c-.47.05-.91-1.4-.57-1.72.73-.68,1.5-1.01,2.43-1.3l2.5-.78c.29-.09.6-.97.91-1.01s.88.27,1.23.57c.32.27,1.15.09,1.49-.19.71-.6.66-2.46-.23-2.76-.32-.11-.98.22-1.16.52l-.29.51c-.05.09-.33.17-.43.2s-.06-.4-.01-.52c.8-1.86-1.91-.55-1.44-5.05.02-.15-.06-.48-.11-.6-.08-.21-2.1.11-3.06,2.08-.45.93-1.45,1-2.03.69-1.11-.6-.57-1.42-.29-2.35.51-1.68.95-3.71,1.36-5.51.04-.18-.52-.5-.68-.44-.82.33-3.12,0-3.24-1.66-.04-.65.73-1.36,1.41-1,.85.45,1.49.61,2.29-.04l2.21-1.78c.73-1.25,1.3-2.56,2.79-3.12.63.28,1.61.87,2.09,1.3l.11,2.53c1.09,1.21,1.9-.78,3.19-.85,1.07-.07,1.6,1.87,2.83,1.69.7-.1,1.29-.65,1.45-1.35.38-1.66.97-3.05,1.69-4.54.35-.73.68-1.61,1.18-1.93,1.44-.94,2.17,0,4.53-.05l3.72-.09c1.49-.03-2.47-1.73-1.16-4.24.09-.16.04-.69-.06-.81-.48-.6-2.81.51-5.06-1.56-.25-.23-.94.07-1.26.33-.49.4-1.34,0-1.66-.42-.54-.7-.3-1.39.31-1.99l2.32-2.29c.3-.3,1.15-.5,1.7-.67l.29-.34c-.93-.43-1.76-.99-1.79-1.95l-.09-3.36-1.78.17c-.33.03-.88-.27-1.07-.53s-.32-1.18-.05-1.38c2.79-2.04,3.59-1.15,4.08-4.1.13-.76.55-1.81,1.05-2.17.59-.44,1.87-.89,2.49-.49.72.47,1.21,1.22,1.74,1.91l1.8.58.99.32c.83.26.61-1.73,3.64-2.77l2-.69c.21-1.76-.16-3.78-.63-5.37-.12-.41-.12-1.55-.51-1.62ZM215.75,36.24l-.27-.66c-.14-.33-.41-.77-.65-.91-.95-.56-3.41,2.36-2.85,3.44.91.15,3.87-1.64,3.77-1.88ZM237.14,39.95l-.46-2.71c-.05-.3-1.19-.18-1.21.14-.05.91-.36,1.66-.93,2.72.69.13,1.88.15,2.59-.14ZM237.41,51.44c-.58-1.82-.86-3.16-.85-4.8l.02-3.33c0-.91-2.2-.74-2.7-2.54-.06-.13-.69-.02-.68.13.37,3.43,1.16,2.79,1.31,5.76.02.33.13.97-.12,1.05l-1,.35c-.25.09-.7.38-.7.62.02.84.95.35,2.31,1.7.65.64,1.44,1.49,2.4,1.07ZM201.84,41.97c-.37-1.05-1.11-.45-1.64-.29l-.67.2c-.14.04-.13.61-.02.66.6.15,1.99-.13,2.33-.58ZM222.62,41.66l-2.71-.19.17,3.05c.58-1.18,4.15-2.75,2.54-2.86ZM227.11,51.64c.04.2.3.57.48.6.89.15.19-3.09,3.33-3.8.25-.06.74-.46.68-.68-.24-.79-2.48-1.86-1-3.61.5-.59.78-2.72-.28-2.66l-2.54.14c-1.18.07-1.2.58-1.67,1.34-.33.54-1.25,1.6-1.84,1.82l-2.22.84c1.16,3.03,4.31,1.74,4.57,3.25l.48,2.76ZM205.55,50.25c-.09-.82-1.78-.62-1.79,0,0,.81,1.85.56,1.79,0ZM231.08,52.45c-.44-.32-1.08.71-1,1.15.21,1.09-.24,2.24-.55,3.21-.1.33.15,1.3-.27,1.44-.83.28-1.74.08-2.59-.05-.53.53-.84,2.21-1.65,2.42l-2.74.72c-.64-1,.14-2.27,1.21-2.89.38-.72.07-1.95-.25-2.76l-1.69-4.32c-.35-.28-1.29-.11-1.66.14l-2.19,1.49c-.5.34-.68,1.86-.42,2.41.18.37.69,1.13.53,1.45-.54.71-1.46,1.68-1.05,2.71.18.45,1.06.48,1.55.59,1.96.47,3.4,2.09,4.45,3.68,2.09-.46,4.35.51,4.62-1.21.58-3.8,3.53-3.36,5.57-5.2.13-1.87-.23-3.77-1.87-4.98ZM251.17,67.95c3.28-4.75,4.72-1.84,5.39-6.96-3.36.28-5.23,4.07-6.48,3.28-.55-.35-.73-.85-.89-1.47-.95-3.65-.43-2.36-.77-6.08-.19-2.05-.34-3.91-1.78-5.71l-1.17,2-1.81-.98c-.74,1.14-.28,2.38-.03,3.6.39,1.93.85,3.8,1.64,5.59.48,1.08.33,1.85-.55,2.8,1.12,1.74,1.11-.38,2.09,3.17,2.66-1.53,2.96.76,4.35.76ZM202.6,54.72c.95-1.04,2.24-1.66,3.49-2.63-2.21-.51-5.71,1.55-5.77,3.81,1.17.56,1.6-.43,2.28-1.17ZM194.27,55l-.56-2.21c-.08-.33-1.2-.08-1.36.25-.67,1.38-1.35,2.94-1.84,4.31.26.4,1.11.34,1.38.06l2.37-2.41ZM234.45,67.04c-1.27.37.37,1.72.35,3.79l4.58-.81.64-2.42c.8-3.03,2.89-2.71,2.75-3.56-.19-1.08-1.13-.43-1.93-2.47-.13-.34-.65-1.1-.52-1.42.2-.52.74-1.31,1.01-1.84.06-1.02-.35-2.34-.96-3.22-.28-.41-1.48-.33-2.01-.13-.16,1-.03,2.16.15,3.22-.54,1.34-3.21,1.28-2.19,3.62.66-.2,1.82-.52,2.42-.54.26,0,.59.65.57.9s-.3.71-.58.75l-3.08.42c-.7.1-1.61-.21-2.38,0,.21,1.58,4.05.52,4.68,2.3.49,1.39-.68,3.2-1.46,3.17-1.15-.05-.95-1.2-2.03-1.74ZM214.84,63.74c.24-.35.41-.74.41-.95l.08-3.75c.02-1.09-.4-2.25-1.18-2.84-.23-.17-1.03-.33-1.05-.08-.18,1.61,1.5,1.97.89,2.82-.38.54-.76,1.03-.71,1.48.04.39.46.97.66,1.39l.91,1.92ZM260.43,75.02l3.15-.71c.32-.41-.01-1.35-.48-1.72.55-4.21-.31-6.36-.54-9.82-.07-1.13.79-2.09-.31-3.1l-1.09,1.45c-2.05.26-3.34,2.06-2.88,4.09,1.1.1.72.89.88,1.58l1.11,4.62c.26,1.08.03,2.23.17,3.6ZM218.06,65.82c.85-.36,1.27-1.14.92-1.87-.21-.45-1.47-1.08-1.68-.5-.28.78-.47,1.63-.58,2.37.25.3.94.17,1.34,0ZM238.42,82.96c-1.14-.73.54-2.78,0-2.98l-.65-.24c-.39-.15-.85-.48-.98-.86-.53-1.57-.95-.21-3.06-.75-1.23-.31-1.92.16-2.25,1.37-.07.28-.38.77-.62.91-.86.48-2.57-1.42-2.7-2.6,1.04-1.3,1.76-.97,3.31-2.9,1.05-2.46.82-4.92.15-7.44-.1-.37-.16-1.02-.43-1.13-.23-.09-.78-.22-1.03-.25-1.75-.21-3.03.57-3.3,2.29-.12.74-.48,1.57-.77,2.27-.59,1.42-1.31,2.26-3.22,2.28.14.6,1.41,1.68,2.38,2.85.74.89,1.1,2.29,1.75,3.24l2.37,3.42c1.74,2.51,1.03,3.4,1.8,3.37.69-.02.78-3.02,3.15-3.25.43-.04.94.75,1.37.96,1.02.49,2.19.89,3.3,1.32.21-.17.58-.85.45-1.09s-.54-.47-1.04-.79ZM201.16,72.23l-.52-1.83c-.55-1.96-3.52-4.64-4.9-3.62-.29.43-.36,1.55-.51,2.1-.51,1.88-.51,3.57.37,5.39,1.01-.28,2.07-.53,2.93-.9l2.63-1.14ZM218.39,69.97c1.61-.43,2.65,2.09,4.45.4-.13-1.62-1.46-2.68-2.95-3.06l-3.94,2.44c-.15.09-.38.43-.43.54s.25.38.37.35l.42-.11,2.1-.56ZM244.29,68.78c-.07-.43-.32-1.23-.58-1.43-.34-.28-1.21.15-1.34.55-.1.3-.12.9-.02,1.29l1.94-.4ZM250.79,76.73c.33-.27,1.37-.02,1.64.26.9.95.11,1.93.68,3.09l2.14-.9c.79-.33,1.47-.03,2.68.45l-.27-3.01-.29-3.83-.23-3.09c-.28-.77-3.44.47-4.09,1.15-.78.81,1.03,3.07.03,3.32-.9.22-2.51-.11-2.9-.96-.27-.58-.4-1.52-.95-1.73-.33-.13-1.18.09-1.29.41-.41,1.19.93,4.91,1.05,7.06.53-.83,1.02-1.58,1.79-2.22ZM245.96,77.66l-.38-2.54c-.2-1.33-.51-2.5-1.07-3.8-1.22.23-2.42.45-3.12,1.51-.41.62-.39,2.15.01,2.83.31.53,1.47.67,1.94.92.9.48,1.52.79,2.62,1.08ZM220.55,78.23c.67-.42,1.18-.83,1.77-1.31-.87-1.23-2.38-3.62-3.72-3.32-.17.04-.47.52-.42.69l.94,2.77c.18.53.63,1.67,1.42,1.17ZM235.25,75.73c.41.06,1.09-.5,1.14-.88.04-.33-.34-1.2-.68-1.1-.74.24-1.52.89-1.91,1.78l1.45.2ZM214.79,78.25c-.17-.67-.41-1.56-.7-1.89-.53-.63-1.49.11-1.79.71l-.94,1.9c-.07.15.24.82.39.75,1.66-.78,1.67-.33,3.04-1.46ZM267.54,102.46c-.87-.1-2.06.63-2.9.71l-2.65.25c-1.14.11-2.34.07-3.5.07l-.81-1.21c.84-.48,2.99-3.21,1.86-3.98-2.63-1.78.53-1.19-.23-4.52-.38-.66-1.42.7-3.17,1.2-.53.15-1.76-.2-2.3-.34-.23-.06-.31-.84-.13-.98l.64-.51c.49-.39,1.17-1.04,1.65-1.38,1.57-.75,2.78-1.6,3.95-2.84.24-.26.98-.67,1.14-1.01l.97-1.9c.67-1.32,1.83-2.69,3.52-2.36s1.57,3.42,1.81,4.39l1.09,4.39,1.49-2.83c.32-.21.97-.57.96-.88s-.36-.97-.62-1.19c-.92-.8-.06-1.94-.05-2.87,0-.83-.07-1.87-.15-2.75l-.24-2.61c-.09-1.04-1.02-1.19-1.86-1.5-.68-.25-1.48-.56-2.17-.38-1.28.34-2.9,5.11-3.38,6.47-.41,1.16-2.4,1.48-3.45,1.03-.39-.17-.93-.79-1.03-1.11-.16-.69.03-1.61-.32-2.33-1.28,4.14-.09,5.62-.57,8.24-.17.92-1.33.99-2.02.7-1.6-.67.1-2.33-.73-3.15-.56-.55-1.26,1.01-2.46.04-.3-.24-.41-.82-.47-1.31l-.32-2.37c-.42-.4-1.92-.03-2.13.55-.32.84.19,1.81.72,2.38-.25,1.21-.08,2.28.25,3.59.32,1.24-.28,3.2.53,4.33,2.17,3.03,3.1,3.89,4.45,7.76.4,1.13.52,2.21.12,3.42l4.14,4.96c.15.44.07,1.54.3,1.9l1.48,2.26c.49.75.49,1.22,1.08,2.19l.57-1.91c.49-1.65,1.7-4.58,3.23-5.6.88-.59,1.91-.09,3.17.25l-.99-5.3c-.1-.51.5-1.83-.49-1.95ZM261.42,80.19l1.03-2.56c-.35-.11-1.51.1-1.69.55-.26.66.01,1.43.66,2.01ZM172.24,90.62c1.27-.71.36-5.61,3.1-5.95.35-.04.75-.89.6-1.18-.22-.46-2.09-2.43-2.99-3.66-.37-.51-.63-1.49-1.32-1.6-1.02.18-3.65,6.83-3.04,7.84l3.64-3.08c.37-.31,1.1-.46,1.53-.26.36.17.64,1.09.42,1.48-.88,1.63-2.92,2.38-4.35,4.63l-1.94-.54.51,2.75c.07.36.18.84.29,1.07.28.63,2.45-.89,3.55-1.51ZM246.11,83.01c.53.08,1.16.06,1.54-.19.33-.2.66-1.3.29-1.45-.56-.23-1.58-.18-2.24-.2l-1.95-2.68c-.35-.32-1.39.13-1.7.47s-.42,1.16-.48,1.72l-.21,2.14c1.18-.21,2.09-.24,3.2-.06l1.55.25ZM193.3,79.16c-.22-.35-1.17.08-1.29.49-.11.36.29,1.23.67,1.25.64.05.99-1.16.62-1.74ZM254.79,83.79c1,.21,1.19-1.72.55-2.18l-2.68,1.19c.79.49,1.33.83,2.13,1ZM261.76,95.43c1.28-.95,2.24-1.37,3.67-1.31l-.48-3.9c-.04-.32-.43-.91-.65-1.15l-1.54,2c-.73.94-2.33,3.29-1,4.36ZM275.22,93.88c-1.03-1.87.24-1.9-.4-4.33-1.55.08-2.07,1.15-2.96,1.93-.75.66-1.39,1.31-1.5,2.43l4.85-.02ZM204.64,94.46c-.1-.7-.2-1.42-.4-1.83-.21-.44-1.46,0-1.56.41l-.46,1.9,2.42-.48ZM277.35,102.48c.02-.07.23-.47.19-.53-1.37-1.95-.87-3.26-1.41-5.41-2.16-.13-3.96-.04-6.14.34-.19,1.31.02,2.42.49,3.65l.31.8c.26.69,1.98-1.68,4.28-.63,2.06.94,2.12,2.27,2.27,1.79ZM250.57,99.52c-.02-.94-2.19-3.33-2.96-2.33-.59.76-.88,1.68-.92,2.62,1.49-1.06,2.09-.96,3.88-.29ZM266.35,99.93c.03-.98-.39-2.75-1.47-2.82-1.31-.08-2.41,1.78-2.07,3.03.16.6,1.28.29,1.73.2l1.82-.4ZM188.53,102.74c.28-2.22.07-.73-1.05-3.41-.1-.24-.49-.77-.74-.78-.38-.02-1.79.61-1.88,1.72-.04.51.87.67,1.24.91l2.42,1.55ZM230.08,98.9c-.33-.38-1.59-.25-1.85.23-.79,1.41,0,2.95,1.43,3.39.69.21,1.37.38,2.15.43.84-.59-1.32-2.24-1.72-4.05ZM177.26,102.74l-.94-2.26c-.08-.2-.82-.05-.89.14-.38,1.06-.97,2.42-1.5,3.61,1.22-.03,2.35-.67,3.33-1.5ZM250.48,105.64c-.35-.14-.82-.94-.67-1.28s.99-.66,1.36-.65l.89.04c.1,0,.16-.54.09-.63-.61-.72-2.27-.62-3.33-.45-1.48.24.32-1-4.15,1.04,1.09,2.43,1.51,1.22,3.35,2.04.14.97.04,1.85-.08,2.83-.13,1.09,1.74,2.34,2.62,1.69.16-2.74,1.97-3.83-.08-4.64ZM273.24,102.8c-.62-.13-2.22.17-2.22.88v2.46c1.24.81.94-2.18,2.22-3.33ZM242.83,105.73c-.49-.84-1.05-1.26-1.64-1.5-.4.39-.36,1.4,0,1.74.33.32,1.8.25,1.64-.24ZM276.7,114.9c-.48-2.3-.8-8.29-1.88-9.02-.2-.13-.88.1-1.05.3-2.21,2.62.52,4.77-2.5,6.01.26,1.1,1.17,2.02,1.51,3.04l1.71,5.22c1.69-5.15,2.82-2.55,2.2-5.56ZM254.78,109.74c-.07-1.1-1.14-1.26-1.85-1.21-.05.46-.11,1.11-.1,1.45.41.44,1.98.33,1.94-.25ZM269.52,116.42c.69-1.2-.44-2.23-.91-3.16-.23-.45-.62-1-.99-1.14-.29-.11-.92.36-1.09.67l-1.41,2.44c-.19.33-.3,1.16-.02,1.36s3.58,1.28,4.43-.18ZM270.16,125.31c.32-1.3,2.09-1.16,1.75-2.33l-1.12-3.8c-1.94.54-3.35.77-5.16.56-.49-.06-1.54,0-1.85.36l-1.19,1.43c-.8.96-1.84,1.02-2.89.62-1.23-.47-2.54-.77-2.78-2.43l3.25-.53c-.11-.33-.4-.99-.65-1.4l-1.39-2.25c-.62-1-1.12-2.47-2.45-2.81-.93-.24-2.11-.12-3.2-.05-.17,1.36.46,2.26,1.04,3.41.33.83-.12,2.3.16,3.16l1.18,3.59c.44,1.33,1.05,2.29,2,3.33.29.32.8.94,1.16.87.31-.06.79-.62,1.08-.78,1.29-.7,2.47-1.38,2.92-2.86.31-1.03,1.26-1.14,2-1.6,1.2-.74,2.33-1.05,3.62-.45.44.2,1.69.43,1.72.9l.16,3.32c.05,1,.62,2.02.92,2.87l2.4-.87-2.67-2.25ZM251.14,116.11c.13-1.17.04-2.43-.44-3.14-.66-.51-2.17.47-1.85,1.22l2.29,1.92ZM252.08,122.84c-.14-.85-1.04-1.17-1.58-1.58-1.01-.76-2.15-1.67-3.33-.46l4,2.21c.21.11.96.07.92-.17ZM278.54,123.08c.45-.66-.27-1.93-.91-2.01-.86-.11-1.19,1.27-.89,1.77.23.39,1.55.61,1.8.24ZM251.15,126.54c.48-1-.74-1.26-1.22-1.61-.93-.66-1.39-2.15-2.81-2.01.44,5.5-2.35,2.32-1.53,5.8,1.95-.34,2.6-1.7,5.56-2.17ZM278.99,134.25c.45-.88.92-1.38,2.14-1.57l-1.01-5.04c-.25-1.25-1.37-1.77-2.52-1.66-.72.07-1.49.31-1.81.79-.25.38-.49,1.44-.38,1.9l1.68,6.76c.14.55.33,1.1.57,1.43l1.33-2.61ZM255.11,131.17c.62-.17,1.07-.62.98-1.2-.05-.33-.52-.66-.89-.97-.5-.43-.86-.89-1.45-.88s-1.14.37-1.51.86c-.2.27-.47,1.17-.21,1.36.66.48,2.01,1.12,3.07.83ZM259.82,136.98l-1.32-2.87c-.21-.46-.36-1.01-.58-1.65-.66.07-1.42.5-1.47,1.11s.46,1.18.96,1.62l.12,2.71,2.29-.93ZM258.08,142.38l1.3-2.18c-.08-.3-.6-.73-.88-.78-.24-.04-.86.16-.92.38l-.54,2.13c-.06.23.09.74.26.9.13.12.68-.28.78-.45ZM260.82,147.77c.6-1.31.55-3.13-.25-4.48-.32-.54-1.4-.62-1.84-.17l-3.49,3.5c-.69.69-.8,1.91-.54,2.81l6.12-1.66ZM286.01,169.21l.49-1.71c.09-.31.21-.91.23-1.24.01-.28-.78-.44-.92-.69-.25-.43-.67-1.08-1.09-.99-1.45.29-.29,1.58-1.72,3.55-.32.44-1.78.18-1.76-.36.06-2.45,1.27-4.07,2.92-5.71,1.88-1.88-.34-1.7.77-4.58l-.57-2.82c.49-2.14.95-4.21-.29-6.16-.8.56-1.75,1.28-2.24,2.1-2.04,3.4-.87,3.01-1.67,6.05-.49,1.83,2.12.62,1.46,3.8-.21,1.03-.74,1.29-1.41,2-.73.77-1.43,2.31-1.78,3.25l.9,2.31c.28.72,1.27,1.16.44,2.24-.44.57-1.27,1.06-2.15,1.45l1.31,1.19c.17.15.42.49.54.62.09.1.54-.12.61-.26.85-1.62,3.9-3.59,5.95-4.05ZM276.98,161.75c.42.01,1.11-.27,1.22-.53.53-1.23-.75-1.89-1.52-4.49l-1.04-3.49c-.08-.26-.56-.64-.78-.62s-.75.3-.89.54l-1.38,2.39c-.39.68-.12,1.41.6,1.79.26.14.73.67.65.94s-.41.66-.66,1c.52,1.41,1.9-1.05,3.8,2.46ZM289.46,164.09c.35.08.91-.48.91-.8,0-.31-.24-.96-.43-1.07l-1.46.78c-.18.1-.15.84.05.89l.92.2ZM280.88,186.16c.05.5.51,1.33.79,1.13,2.39-1.73,1.81.23,4.79-2.25.98-.81,1.81-1.22,3.07-1.35,3.06-.29,1.46-6.41,1.06-8.51-.59-3.07.22-3.38-.84-4.32-.23-.2-1.05-.12-1.03.18l.11,1.45c.02.29-.98.46-1.19.27l-.91-.8c-.43-.39-3.39,1.54-3.24,3.82-.94.38-2.02-.08-2.85-.98-1.59,3.53-.61,2.74-.47,4.24l.21,2.2.5,4.92ZM275.26,174.59c-.65-.28-1.92-.12-2.32.37-.14.17-.29.97-.11,1.07.38.22,2,.25,2.14-.24.07-.24.19-.76.29-1.21ZM269.95,177.78c.6-.96-.17-2.18-1.22-2.17l-.78,2.69c.64.05,1.71-.06,2-.52ZM277.54,180.01c.02-.3-.41-1.32-.82-1.38-1.02.17-1.95,1.52-2.03,2.54.98-.56,1.68-.86,2.85-1.16ZM259.08,182.67c.21.28,1.1-.2,1.21-.53.12-.37-.15-1.31-.64-1.2s-.92,1.25-.56,1.73ZM255.32,185.06c.41-1.15.5-2.17.47-3.38-.63-.14-1.27.16-1.41.74l-.81,3.28c.72.15,1.53-.01,1.75-.64ZM276.1,199.86c.35-.37-.61-3.1-.73-3.35-.08-.17-.68.31-.76.49l-1.2,2.86c.85.36,1.94.5,2.68,0ZM288.62,202.19l1.67-.36c.24-1.25-.63-2.57-1.86-2.7-.67.33-2.87,2.6-2.64,3.26,1.04.28,1.8.02,2.83-.2ZM283.91,218.04l.67,2.71.85-.05c.55-1.27,1.55-2.15,2.33-3.2,1.01-1.36.75-4.62,4.27-4-.21-4.07-1.32-4.64-1.33-8.74-.19-.26-4.48.85-4.35,1.16-.35,1.31-1.56,2.55-2.82,1.98-.72-.33-1.16-1.59-2.23-.85l.87,1.96c-.54,2.52-3.56,1.95-3.57,1.81,0-.1,0-.54-.03-.68l-1.48-6.12c-.09-.39-.01-1.14-.22-1.35s-.91-.09-1.27.05c-.82.3-1.66.24-2.41.23-1.04-.02-.28,1.25-.35,1.74-.14.98-.42,2.01-.75,2.97-.49.37-1.65.42-2.44.47.25.61.8,1.53.9,2.16l.93,6.24c1.01-.42,2.48-.25,2.7.64.26,1.12-1.12,1.5-1.86,1.96-.42,1.03-.42,5.54,1.17,5.97,1,.27,1.18-.76,1.32-1.41l.53-2.63c.22-1.09.79-2.2,1.16-3.31.43-1.31,1.03-2.73,2.34-3.41,1.75-.9,3.8.25,4.37,2.05.16.5.6,1.22.72,1.69ZM282.01,202.95c-.51-.21-1.35-.37-2.1-.48l.71,2.76c.58.57,2.05-2.02,1.39-2.29ZM267.83,217.34c.32,0,1.09-.38,1.09-.67-.04-1.47-.26-6.53-2.26-6.92-1.27,1.13-2.17,2.52-2.65,4.08-.86,1.05-1.1,2.25-.5,3.57l4.32-.07ZM281.46,222.58c.18-1.91-.08-4.89-1.87-5.16-.66-.1-.7.96-.83,1.36l-1.45,4.38c1.5.03,2.65-.15,4.15-.58ZM291.12,220.74c.27,0,.34-.78.23-.96l-.44-.72c-.08-.13-.72,0-.82.11l-1.49,1.54,2.52.03ZM268.47,236.76l3.99-3.91c.28-.96-1.6-5.36-2.39-5.28-1.29.13-1.3,1.6-1.89,2.13-1.42,1.27-1.13,2.2-.77,3.88.23,1.06-.43,2.62,0,3.78.38-.19.89-.43,1.06-.6ZM278.77,234.2c-1.31-.12-2.65.56-3.08,2,.67.18,3.71-.5,3.08-2ZM279.83,251.14c.07.23.88.48.99.32.73-1.04.16-1.38.48-2.79.28-1.21-.05-1.97-.24-3.07-.44-2.49-.79-5.1-1.45-7.69l-3.78,1.26c.12,2.54,1.08,2.84.61,5.03.41.03,1.4.17,1.68.46.48.5.27,1.57.47,2.23l1.23,4.24ZM269.33,255.11c1.32-3.28-.01-1.98,2.07-5.77l2.36-4.29,1.38-.49c-.85-.75-1.81-1.18-1.69-2.01.16-1.06.26-1.81.35-2.89-2.05-.69-4.31-1.13-6.18-.13-1.11.89-.29,2.65-.41,3.74-.14,1.38,0,2.45,1.11,3.36.31.26,1.31,1.86,1.05,2.42-.08.17-.48.38-.68.42l-1.92.37c2.63,2.51.41,2.29,2.56,5.27ZM291.66,253.17l2.46-2.41c-.2-1.02-.46-2.45-.84-3.48-1.31-3.49.11-.96-.97-3.81-.18-.47-.53-1.04-.85-1.24-.28-.18-1.12-.14-1.39.07l-3.04,2.41c.91,1.78.54,3.5,1.01,5.22l1.26,4.63c.21.76.21,1.41.75,2.06,1.36-1.36-.04-1.86,1.6-3.46ZM274.87,254.35c.92-.07,2.06-.04,2.52-.67-.3-1.67-.62-3.25-.47-4.88.07-.74-.59-1.94-1.42-1.62-.79.91-3.86,6.28-3.46,7.4l2.83-.23ZM280.66,273.23l1.91-.75,3.34-1.26c.29-.11,1.05-.22,1.06-.5.02-.69-1.42-4.62-3.66-5.25-1.01-.28-1.93,1.07-2.3,1.78l-1.01,1.98c-.48.94-.64,1.91-.9,2.96-.19.76-.51,1.43-.55,2.27.76-.39,1.44-.98,2.12-1.25Z"/>
  <path d="M189.91,277.18c-1.29-.22-1.23-1.63-1.73-2.19-.88-.98-1.81.5-2.14,1.2-.61,1.3-1.49,2.35-1.47,3.8,0,.92-.43,1.72-1.46,1.69l-1.68-.04c.02-.63-.16-1.79.04-2.3l1.73-4.49c-.03-.63-3.37,1.19-3.6-.33l-.41-2.74c-.12-.81.16-1.98-.04-2.87l-.51-2.24c-.67-.27-2.11-.11-2.41.63-.43,1.05-.25,2.24-.31,3.34l-.18,3.6c-.02.32.16.94.07,1.22-.1.32-.97.56-1.36.46-1.48-.37-2.19-1.73-2.43-3.42-.63.02-1.21.58-1.36,1.21s.26,1.42.81,1.87c.96.78-1.38,1.05-.84,2.17l.75,1.56c3.06,1.27,2.31-1.06,4.86-2.36.53-.27,1.47.83,1.29,1.37-.85,2.57-1.55,3.49-1.8,5.59,1.12.5.9,1.24.71,2.16-.32,1.53-1.21,3-2.57,3.93-.7.14-3.02.32-3.17-.64-.04-.22.09-.69.22-.9.88-1.42,2.33-4.25,2.82-5.74-1.17-1.09-1.27.86-3.98-.78-.71-.43-1.27-1.62-.92-2.5,1.16-2.97-1.7-.81-1.97-3.1-.09-.79-.21-1.55-.27-2.36-.11-1.64,2.07-6.04-.72-7.81l-.1,7.36c-.02,1.58-.17,3-1.28,3.15-.63.09-1.35-.13-1.45-.81l-.38-2.57c-.08-.53.34-1.53.32-2.13-.06-1.74.31-5.33.72-7,.81-3.33-.65-4.06-.77-5.65-.01-.15-.67-.11-.72.03-.76,1.96.41,3.62-.08,5.28-.35,1.19-.87,2.31-1.03,3.46s-.26,2.38-.65,3.5c-.69.12-1.56.13-2.19-.01-.52-1-.38-2.17-.21-3.26.5-3.21,1-2.15.81-6.44l-1.88-.02-.21-1.88c.38-.78,1.29-1.48,2.08-2.03l1.21-5.39,1.45-.64c.02-.24-.25-.99-.47-1.24s-1.02-.29-1.31-.46c-.52-.3-1.13-.81-1.62-.97-.44-.15-1.26-.26-1.11-.81.19-.71,1.3-1.26,1.93-1.28,1.48-.04,1.57-.83,2.15-1.87.9-1.62,2.73-3.38,4.57-3.86,1.12-.29,1.98-.38,2.96-.97.3-.18,1.01-.57.98-.87-.04-.39-.1-1.29.28-1.51,1.38-.76-.83-2.07,3.33-7.15.52-.63.98-1.2,1.36-1.8-1.46-.14-2.71-.22-3.62-1.14-1.2-1.21-1.24-2.99-1.79-4.47-.66-1.77-1.34-3.38-1.69-5.26-1.32-.04-2.63.63-3.22,1.94l1.75.93.25,3.82.14,2.03c3.46,2.47-1.3,2.42.97,5.38.88,1.15,1.17,3.12.55,4.56-.39.45-1.86.42-2.26,0l-1.46-5-.57-2.42c-.34-.19-1.12-.07-1.41.16-.43.35-.61.96-.73,1.53l-.3,1.34c-.26,1.15-.6,2.04-1.6,2.88l.9,2.56c.16.45-.24,1.66-.67,1.89-.54.28-1.64.25-2.36.23,0-3.69-1.19-7.23-2.09-10.99-1.78.11-2.68,1.61-2.52,3.31.12,1.27.5,1.86,1.8,2.23,1.01.26-1.64,3.28-2.13,3.72-1.47-.1-2.36-1.42-2.47-2.84l-.24-2.88c-.14-1.77-1.33-.35-2.24-1.25-.25-.25-.34-1.25-.11-1.55.68-.87,2.03-1.44,3-2.04l2.07-4.4c.53-1.14,1.62-2.51,3.08-1.78l1.92,2.16.42,2.35c.02.13-.19.58-.22.71-.04.17.47.3.67.31,0-1.19,0-2.4-.08-3.55l-.18-2.45c-.03-.35-.05-.88-.19-1.08-.48-.68-2.71-.54-4.52,1.03-.37.32-1.39-.26-1.67-.66-.32-.45-.57-1.78-.06-1.97l1.14-.44c.24-2.55-.2-5.01-.85-7.42-.21-.78-.09-1.43-.6-2.22l-1.51,1.21c-.3.24-.89.56-1.32.82-.92,1.53-1.14,3.88-2.05,4.54-.48.35-1.64.65-2.06.3-.89-.74-.48-1.82.08-2.87-.39-.11-.87,0-1.42.29-.42.21-1.57-.08-1.7-.55-.3-1.16.26-2.04,1.33-2.54l2.53-1.17c2.02-.93,1.11.1,3.54-4.69.36-.72.75-1.2,1.41-1.88l-.69-1.55c.11-1.95-.44-6.93-1.3-8.28-2.99,3.1-5.19,1.78-4.04,4.74-.39.85-1.63.39-2.33-.08-.42-.28-1.17-.54-1.61-.8-.84-.49-.26-1.84.43-2.22,2.76-1.49,1.14-4.11,4.38-8.59.61-.85,1.32-1.95,2.52-1.97.78-.01,1.45,1.13,1.65,1.86,1,3.54,1.92,4.8,2.26,7.92l3.2-.05,1.43-3.66c.32-.82.92-1.36,1.65-1.63s1.91-.15,2.4.65c.39.63.8,1.33,1.11,1.98l1.11,2.32.91,3.88c1.2-.48,2.85-2.19,4.03-.65l1.8,2.35c1.04-.7,1.96-1.28,2.96-.67.56.34.46,1.34-.01,1.74l-1.87,1.58c-.25.62-.09,1.96.26,2.56,1.47,2.5.1,2.38,1.41,4.27l1.88-1.91c.15-2.15,1.65-3.41,3.66-3.78,2.63-.49,1.84-2.12,4.97-5.35.48-.49,1.15-.89,1.68-.87.63.02,1.62.33,1.73.93l.61,3.4c.88-.59,1.77-.7,2.29-.11.69.8.44,1.76-.43,2.32-.34.22-.73.49-.87.74s.09.95.27,1.25c.19.34.2,1.06.31,1.37.59,1.58,1.25,3.13,2.06,4.59.37.66.79,1.32.78,2.04-.01.56-.84,1.56-1.42,1.56l-1.86-.24-.18,1.96-.25,3.86c-.03.4-1.44.21-1.41-.26.24-4.18,2.32-6.27.57-10.63-1.34-3.32-1.1-1.51-1.79-4.77-.87-.37-2.32-.36-3.14.16l-.93,2.83c3.68,3.21.36,4.93,3.43,8.2.87.92.84,1.83,1.03,2.98s.35,2.18.4,3.38c.13,3.29.88,3.44.65,6.16l-2-.31-2.72-9.5c-1.38-.45-2.77-.28-4.21.38l1.65,5.69c.39,1.34.35,2.51,1.21,3.71.4.56.79,1.74.79,2.45.03,4.05.47,5.52,1.71,9.11.64,1.84,1.23,3.5,2.38,5.12.36.51.75,1.53,1.28,1.72.68.24,1.47.5,1.86.84l1.12,3.34c1.68-1.44.35-2.43,3.04-4.39.12-.64-.22-1.85.9-2.35l-.64-2.93-.47-2.93c-.18-1.14-.63-2.14-.98-3.39-.16-.56-1.41-.64-2.08-.45-1.38.38-.35,3.21-2.39,2.48l-.68-.24c-.13-.05.26-.45.44-.66-.53-1.24-1.9-.84-2.81-1.68.17-2.98,2.14-1.53,3.65-3.45,1.12-1.42,4.91-3.79,5.84-1.45.29.74.31,2,1.18,2.4,1,.45,1.97.12,3.1-.44l1.11,2.43-1.37,1.86c-1-.59-1.75-.92-2.73-.79-.03,1.11,0,2.27.25,3.31l1.52,6.26-1.12,1.99c1.39,5.53,1.46,7.1,1.19,12.86-.03.61-.55,3.95-.08,3.59,1.61-1.79,2.85-1.89,2.11-4.1,2.03-.44,1.23-1.34,2.71-1.42.24-.01.68.37.75.63l.57,2.21-1.64,1.46-1.9,2.49-1.93,2.49c-.25.69,1.35,2.5.84,2.98-.63.6-2.49,1.77-3.41.94-.34-.31-.71-.63-.98-.72-.32-.11-.96.26-1.26.59-.62.7-2.54.69-2.81-.4-.32-1.29,2.5-3.32,2.8-3.45.87-.39,1.6-.97,1.62-2.04.05-2.04.07-4.1-.03-6.18-.06-1.14-.2-2.17-.17-3.39.03-1.11-.1-2.85-.41-3.77-.07-.21-.77-.43-.89-.28-.55.71-1.24,3.29-1.29,4.05-.28,4.85,4.81,9.07.23,10.31-2.61-3.79-1.06-2.9-2.22-6.16-.31-.86-.61-1.51-1.53-1.9l-.52-1.96c-1.25.34-1.24,1.35-1.37,2.35-.23,1.72-.32,3.12.41,4.72.47,1.04.18,2.54.43,3.66l.94,4.2c.17.76-1.9,1.35-2.88,1.03-.38-.13-.64-1.14-.46-1.56.64-1.53.37-3.14-.1-4.76-.37-1.28-.32-2.91-.95-4.09l-1.1-2.07-3.4,1.22c1.15,1.33,1.69,2.24,2.28,3.58,1.58,3.66.69,3.24,1.42,6.99.21,1.07.34,1.91.5,3.11,3.36.64,5.02-1.72,6.21-1.31,4.94,1.69,6.3-1.52,8.06-1.18.36.07,1.15.66,1.01,1.05-.31.83-1,1.95-1.62,2.21l-2.61,1.11c1,1.27,2.3,8.05.34,8.21-.68.05-1.46.05-2.07.03-1.94-1.98-.3-4.47-1.67-4.7ZM147.06,189.35l.07-1.67c0-.18-.45-.64-.59-.53-.1.08-.45.37-.5.49l-1.1,2.65c.81-.26,1.46-.53,2.12-.94ZM159.62,204.85c.59-.02,1.08-1.18.91-1.8l-1.56-.4c-.25-.06-.58-.64-.48-.87s.48-.78.73-.87l2.09-.79c-.05-1.59-.49-2.98-1.2-4.35l-.1-2.38c-.89-.78-1.52.22-2.03.49-2.12,1.13-1.27,1.64-1.91,6.59-.23,1.81,1.28.93,1.17,2.13-.02.23-.41.8-.67.85-.66.13-1.8-.27-2.59-.62-1.18.4.98,2.12.68,5.42,1.97-.09.56-3.22,4.95-3.4ZM153.1,197.64c.51-.92.85-2.1.68-2.97-.06-.3-.85-.31-1.08-.17-1.1.66-.23,1.85.41,3.14ZM153.38,201.76c-.09-1.53-.17-2.11-.43-3.57l-.98,2.22,1.42,1.35ZM165.35,211.5c.44-.67,1.43-1.29,2.13-1.25.79.05,1.95.92,2.07,1.62.21,1.23.41,2.23.93,3.22.18-1.15.22-2.04.74-2.86.3-.47.64-1.46.09-1.64-.83-.28-1.86-.5-2.09-1.34l-1.03-3.79-.78-3.63c-.17-.8-2.19-.23-2.58.07-.62.47.67,3.08-.26,4.33-.75,1-1.94.23-2.55-.38-.37-.37-1.56-.54-1.96-.61.41,1.3.45,2.13.56,3.29l.25,2.61c.38,3.93-.55,2.78.17,4.59.64-.07,1.75-.33,2.05-.78l2.25-3.45ZM177.24,214.22l2.34-.58c.29-1.41-.41-2.5-1.59-3.2-.55-.32.19-1.13.44-1.58.52-.96-.89-2.66-2.05-2.44-1.25.24-2.19,1.89-2.34,3.04-.47,3.39-2.33,1.79-.77,3.42.5.52,1.01,1.31,1.41,1.85.76,1.03,1.87-.34,2.56-.51ZM156.22,215.68c.24.47,1.81.85,1.85.21,0,.05.46-8.54-.5-6.68-.73,1.42-.08,2.17-.88,3.03-.55.59-.89.96-1.07,1.61-.13.47.22,1.09.6,1.82ZM176.58,225.16c-.22-.97-.34-1.55-.53-2.18l-.89-2.95c-.12-.39-.48-1.39-.89-1.38-.53.01-1.18.84-1.6,1.01-1.25.52-1.29-1.89-1.69-2.52-.07-.11-.47.14-.51.26-.18.49,1.02,4.23,1.43,4.98l1.23,2.27c1,.67,1.64,1.18,1.99,2.45.62-.46,1.59-1.39,1.46-1.94ZM160.84,223.11l1.29-4.02c-.31.01-1.14.24-1.52.49-.44.29-.57,3.34.23,3.53ZM173.37,235.3c1.78-.45,3.39-.89,5.16-1.67-.03-1.42-.24-2.64-.89-3.85-.14-.27-.97-.4-1.14-.16-.14.21-.41.79-.58.98l-2.72,3.01c-.75.82-1.71,1.14-2.21,2.29l2.38-.6ZM177.06,252.97l1.5-4.15c.22-.61.58-1.16.93-1.69.72-1.09,1.31-1.84,3.06-1.7l-1.58-3.57c-.38-.85-.78-1.88-1.04-2.75l-.84-2.81c-.7.35-1.25.73-1.75.87l-2.38.63c-.07,1.57.1,2.89.37,4.35l.45,2.43.71,4.55c.09.57.06,1.58.11,2.28.04.59-.62,1.35.47,1.56ZM173.8,249.15l-.6-1.93c-.05-.17-.79-.06-.78.12l.08.77c.07.68.47,1.51,1.3,1.04ZM165.58,254.61c.02-1.73-.21-3.21-1.19-4.65-.78.28-1.43.56-2.12.9.76.68,1.14.93,1.52,1.42l1.79,2.33ZM180.85,252.37c.19.25.84-.3.98-.66.11-.3-.2-1.08-.61-1-.62.12-.69,1.23-.37,1.65ZM173.52,257.01l1.42-.78-.88-2.25c-.34-.86-.45-1.42.25-2.47-4.29.09-2.26,2.76-4.84,3.8-.45.96-.82,3.86-.12,4.96,2.15-2.01,1.58-1.84,4.17-3.25ZM173.39,263.08l-.44-2.19c-1.59.54-1.63,1.74-1.59,3.03l1.83.76c.16-.39.31-1.05.2-1.6Z"/>
  <path d="M189.28,180.73c-2.16-.19-3.09,1.83-3.13,3.84-.05,2.2-.8,4.39-.27,6.59.16.66.6,1.42.15,2.12-.31.49-1.83.59-2.08.1l-1.04-2.37c-.95.96.51,2.53.18,3.59-.95.21-1.85.29-2.74.21l-1.12-5.02c-.06-.29-.36-.81-.6-.93s-.85.28-.98.52c-.97,1.87-3.21,1.11-3.47.82-.23-.27-.32-1.23-.13-1.57.55-.97,1.92-.92,3.08-.82-.14-.52-4.57-.67-4.47.08.19,1.2.23,2.18.17,3.39-.05.9.59,2.02.86,2.93s-1.04,1.44-1.71,1.36c-1.01-.12-1.4-.86-1.35-1.94.11-2.34-.71-1.79-.51-5.26l-1.71-.98c1.81-.81,1.6-1.98,1.58-3.35l-.1-6.36-.96-1.01c.51-1.07.72-2.16.29-3.16-.34-.8-1.61-1.33-2.17-.67l1.06,3.25c.3.93.33,1.9.46,2.9.23,1.7.94,3.26.56,5.06-.11.51-.86,1.49-1.43,1.65-.7.2-1.81-1.01-1.76-1.67.13-1.56.37-3.27-.36-4.73-.45-.91-1.35-1.46-2.35-1.21-1.33,1.51-1.4,5.14-3.66,6.42-.3.17-1.23-.06-1.46-.31-.87-.95,1.18-1.93.12-2.82s-1.4-1.99-1.92-3.24c-1.04-2.5-.29-2.88-.75-3.1-.31-.15-1.59.36-2.08.67-.83.52.15,2.47-.8,4.07-.46.78-2.41.28-2.32-.55s.72-1.86.61-2.86c-.1-.92-1.99-.41-1.68-1.74.36-1.56,1.85-.29,2.01-2.22.09-1.1.45-1.87.96-2.87.13-.26.27-.91.42-1.16.17-.29.95-.37,1.37-.51.33-.11.19-.95.18-1.39-.03-.97.7-1.87,1.02-2.84.75-2.2,1.51-4.67,3.34-6.23.28-.24,1.16-.78,1.04-1.14-.41-1.32-.97-2.5-1.7-3.85-.93.68-1.35,1.3-2.02,2.1-1.46,1.73-4.44,3.15-7.05,1.87-.62-.31-.37-1.59.24-1.7.96-.18,1.53-.69,1.83-1.61.71-2.19,1.79-4.53,3.57-5.93.19-.15.63-.34.78-.44.37-.24-1.01-1.18-.67-1.99.47-1.1,3.37-1.91,4.53-2.09l1.57-2.52c1.31-2.09,2.74-3.93,5.61-3.78.66,1.7,1.45,3.4,1.65,5.25.15,1.35.72,2.76.64,4-.07,1.1-.21,1.87-.22,3.1,1.09-.37,1.54-.84,2.37-1.51l1.9-.68c.86-.31,1.71-.48,2.58-.45.53-2.35,1.37-8.27,4.42-8.27,1.39,0,1.76,1.33,2.08,2.31l1.36,4.15.88,2.39,1.12,3.96c1.39-.1.83-1.63,2.22-2.35.42-.21.81-1.26.42-1.28l-2.61-.17c-.32-.02-.92-.72-.86-1.02.07-.35.49-.91.83-1.18,2.34-1.87,2.98.26,5.01-1.98.88-.97,2.34-1.74,3.7-1.39.4.14.64,1.2.5,1.59-.16.44-.63.95-1.09,1.36-.25,2.9,2.23,6.08,1.14,9.97-.14.51-1.41.52-1.9.3-2.2-1.01-.37-5.35-1.89-5.9-.29-.11-.61.33-.84.67-1.15,1.64-2.54,2.99-3.9,4.49l-.93,2.36-2.53-.83c-.25-.08-.65-.33-.82-.48-1.12-.98,1.88-1.26,1.32-3.06l-.99-3.21-4.58.14c-.48,1.91-1.41,4.11-1,6.1.22,1.07.09,1.68.02,2.79-.17,2.4.45,5.12-.53,7.49-.43.42-1.85.58-2.18.06-.67-1.06,1.48-1.67-.56-6.59-.08-.18-.7-.03-.9.05l-2.75,1.12c-.74.3-.72,1.59-.42,2.34.71,1.78,1.04,3.49,1.71,5.3l1.04,2.81c.17.19.66-.31.92-.63.39-.48,2.01-.48,2.39.03,1.33,1.78,1.98,3.75,2.63,5.81l1.09,3.44,1.07,3.6c2.53-3.58,4.77-2.15,5.9-5.76.42-1.33,1.33-2.79,2.91-2.82,1-.02,1.73,1.07,2.02,1.98.86,2.7,1.66.85,3.38,2.18.33.25-.09,1.27-.4,1.52l-1.42,1.15c-.13.16.36,5.7.32,5.52.39,1.76,1.03,6.63-1.56,6.82-.34-.26-.95-.87-1.19-1.22.09-.8.42-1.9.36-2.56l-.46-5.1-.42-3.35ZM165.16,142.11l-.51-1.95c-.47-.02-1.22.16-1.34.47l-.43,1.14,2.27.34ZM180.69,145.59l-.88-2.98c-.06-.2-.55-.69-.65-.55-1.11,1.4-.13,1.49-1.49,2.74-.21.19-.45.79-.24.91.61.35,2.47.4,3.27-.12ZM163.6,157.59c1.25-.29,1.9-.38,2.89-.44l.72-4.11c.13-.75.41-1.77.26-2.41-.86-.34-1.6-.92-1.6-1.85l-.02-3.38c0-.36-.32-1.06-.62-1.02-3.72,1.46-2.98-.6-5.27,2.37-1.94,2.52.55,3.35,1.71,6.16l1.27,3.08.67,1.59ZM174.25,151.78c.43-.64.57-1.7.37-2.47-.08-.32-.96-.13-1.16.12-.42.51.51,2.92.79,2.35ZM171.95,155.05l-1-2.75c-.07-.18-.51-.53-.65-.41-.1.09-.29.39-.33.55l-.96,3.87c.5.44,2.48-.06,2.98-.28.18-.08.06-.73-.03-.98ZM165.4,166.47l1.02-2.94c.23-.67.35-3.67-.55-3.36l-1.79.63,1.05,3.13c.24.7.24,1.39.02,2.23.03.03.36.46.24.31ZM158.6,174.47c.09.23.22.7.4.69,1.86-.12,2.9.39,3.8-.98l-1.46-1.23c-.3-.87.4-1.78,1.12-2.32l-.78-1.42c.96-3.25.42-2.81-.05-6.12-.87-.49-1.19.63-1.56,1.03l-3.65,3.88c-.63.67.76,2.14,1.26,2.28l1.72-2.99c.16-.29,1.04-.67,1.18-.37.52,1.08.79,2.66.1,3.59-1.65,2.22-2.8,2.16-2.09,3.96ZM177.69,185.03c-.43-2.16-.73-3.45-1.38-5.23l-1.94-5.31c-.07-.2-.67-.67-.76-.52-.07.11-.24.42-.25.55-.42,3.43-1.66,5.37-.83,9.79.9.33,1.91.49,2.85.56l2.3.16ZM183.12,183.72l-2.78-.1c-.36.45.08,1.67.68,2.12.44.32,1.48.77,1.94.49.72-.53.9-2.42.16-2.51Z"/>
  <path d="M237.21,173.39c.15.7.12,1.67.08,2.48l-1.68,1.28-1.65-.59c.05-2.41-.07-4.69-.91-6.97-.27-.74-1.51-.34-1.92.12l-1.89,2.14c-2.38,1.33-.93,2.18-.46,5.39.35,2.38,3.02,1.68,3.05,2.86.06,1.96-2.21.87-1.68,2.98.46,1.84.68,3.58.82,5.42.06.77.3,1.73-.2,2.28-.94,1.05-2.86.84-3.05.36-.29-.73.22-3.15.2-3.47-.16-1.97-.59-3.55-.95-5.56l-2.42.18c-.76.06-1.67.26-2.34.53l-.03,4.38c0,.51-.8.91-1.38.98l-.11,2.24-2.62.37c-1.92-1.65-.6-2.7-2.34-6.52-1.05-2.3.19-4.18-1.84-2.98-1.13.67-2.35,1.95-1.59,3.39.39.74.96,1.43.08,2.35s-2.5,1.04-3.59.06c-.33-1.07.45-3.29.12-3.52-1.17-.81-1.11-.08-2.12-1.06-1.37-1.33,2.4-2.9,3.53-3.19.56-1.08,1.18-2.41,1.6-3.58.49-1.35.89-2.46,2.65-2.82,0-1.14-.86-4.84-1.49-5.32-.66-.51-2.75,1.05-3.37,1.59-3.99,3.53-.36,7.3-1.72,8.88-.25.3-1.02.44-1.42.68l-2.92,1.76,1.16,2.46c.24.51.23,1.86-.09,2.32-.39.56-1.54,1.38-2.15,1.34-.86-.04-1.04-1.36-1.1-2l-.31-3.09c-4.05-1.15-1.52,8.51-6.08,8.75-.41-.04-.82-1.18-.63-1.6.75-1.64,1.62-4.05,1.26-5.66-2.95-1.5.54-1.96,1.62-4.8.99-2.62.64-3.5,1.45-4.63.36-.5,1.31-1.4,1.94-.96,1.32.94,1.74,2.51,2.23,3.94l2.36.14-2.1-5.55c-.39-1.05-.7-2.11-1.38-3.04-3.5,1.4-4.1,2.2-4.13,5.95l-1.74.82c-.35.17-1.06-.4-1.31-.7-.98-1.21,1.01-2.79-.93-3.43-1.14-.38-2.18-1.35-2.48-2.46l.85-.59c.19-.13.29-.7.14-.9-3.01,1.59-1.61-.22-4.81.69-.41.12-.98.53-1.19.88-.53.88.64,1.98.14,2.68-.63.89-2.96,1.46-3.52.26-.52-1.12-.12-2.59-.07-3.82.07-1.71.96-1.37,2.47-4.76l.96-2.16c.36-.81.68-1.76.98-2.61l.83-2.39c.24-.71,1.54-1.94,2.41-1.38,1.74,1.12,3.2,3.28,3.7,5.3.45,1.83.84,3.56,1.09,5.38l.42,2.98c1.14-.55,1.08-1.37,1.55-2.12.98-1.55,2-3.07,3.16-4.53.56-.71,2.11.05,2.39.74.68,1.64,1.66,2.87,2.92,4.04-.28.83-.68,1.7.02,2.43,1.34-2.41,5.75-10.74,9.11-8.59,1.58,1.01.28,3.74,1.52,4.68.09,2.48.81,7.7,1.82,9.93,2.18,4.78.77,3.62.16,5.45s0,3.68.88,5.21c.93-1.08.16-1.85-.26-2.88-.24-.58.64-1.74,1.16-2.14.75-.58.75-1.36,1.06-2.13l1.17-2.9c.38-.94.83-1.81,1.33-2.76.33-.62,1.12-1.13,1.71-1.64.67-.58,1.03-1.58,1.42-2.39l2.24-4.73c.42-.89.87-2.09.02-2.92-.25-.24-.94.32-1.1.65-.64,1.3-1.63,2.16-2.47,3.29-.42.57-.24,1.76-1.06,2.03-.61.2-2.18.64-2.45-.23-.51-1.63-.41-4.02.62-5.38l1.97-2.61c.51-.68,1.27-1.06,2.07-1.32l3.11-1.01c1-.32,2.22-.93,3.25-.23.95.64.45,1.94-.36,2.55l-.16,1.96c-.12,1.47.45,2.54,1.6,3.27l.92,1.33c.63-.12.96-.77,1.23-1.37.41-.93,1.16-1.69,1.82-2.47.87-1.05,1.79-1.83,2.86-2.67l2.45-1.91,2.2-2.03c.33-.31,1.48-.03,1.8.25s.69,1.07.7,1.57l.11,3.96c1.49-.59,2.53-.82,3.65-.13,2.15,1.32,1.22,3.37,1.95,3.63.8.29.59-2.45,2.88-3.76,1.82-1.04,4.27-1.07,6.19-.53,2.18.61,3.03,2.21,3.15,4.23l.17,2.91c.11,1.82.71,3.19.09,4.08-.88,1.25-2.94.7-3.24.31-.22-.28-.27-1.08-.23-1.49l.18-2.38c.13-1.72.34-3.47-.83-4.99-2.09-.05-4.1-.37-5.08,1.43-.59,1.09-.94,2.16-1.2,3.36l-.69,3.16c-.1.45-.5,1.28-.32,1.75.53,1.42.1,2.95-1.03,3.82l-1.79.09-.24-2.68c-.06-.64-.12-1.27-.3-2-.61.31-1.14.71-1.65,1.06l-3.05,2.07c-.61.41-2.35-.18-2.75-.82-.69-1.07.15-2.48.27-3.77.08-.83-2.81,1.46-4.05.4-1.71-1.46,2.24-4.41,2.9-6.1.34-.88.52-1.7,1.15-2.28.19-.18.46-.69.5-.91s-.47-.54-.69-.56c-.6-.06-1.14.72-2.59,1.82-3.49,2.64-2.12,3.47-5.15,4.8-.59.62-.09,2.17.09,3.03l.77,3.65ZM191.83,163.12c-.62-1.7-.95-3.17-1.42-4.01-.09-.16-.76.18-.84.36l-2.06,5.16c1.64-.16,2.79-.28,4.24-.09.24-.21.24-1.01.09-1.43ZM250.81,168.43c.15-.58.17-1.41.11-1.96l-.19-1.83c-.03-.28-.57-.75-.85-.76-1.79-.08-1.35,3.85-4.08,5.18-.67.32-.82,1.62-.13,1.84,1.58-1.01,3.26-1.89,5.14-2.47ZM225.79,179.11c.58-.16.15-1.68-.45-1.58-1.01.18-1.83.82-2.29,1.68.97.06,1.89.12,2.73-.11Z"/>
  <path d="M163.86,127.11c-.19-1.08,1.72-1.25,1.81-1.61.05-.22.08-.62.1-.93l.07-1.19c0-.15-.1-.55-.23-.62s-.55-.08-.69-.03l-3.74,1.18c-.41.34.11,1.46.17,2.02l.69,5.87.28,2.92c.1,1.09.18,2.97-1.29,3.28-1.17.25-1.65-1.26-1.74-2.09l-.24-2.42c-.9-.24-1.71.3-2.52.74-.91.5-2.04.85-2.78,1.52-.7.63-.12,1.98-.54,2.66s-1.93.52-2.7.2c-.82-1.52.37-1.94-.82-3.98.77-.43,1.57-1.28,1.61-2.27.22-5.37,3.43-6.94,3.47-7.23.09-.84-.91-1.31-.64-2.22.1-.35.75-.91,1.15-.95l2.82-.3c1.41-.15.74-.4,1.72-3.49.37-1.18.75-2.33,1.57-3.26l1.83-2.07-2.43.17-2.96.15c-.21,1.53-.31,4.73-2.38,4.22-.93-.23-1.1-.97-.82-1.87,1.19-3.79.49-3.66,2.58-7.43.76-1.37,1.95-2.91,2.92-3.94.3-.32.22-1.38.53-1.62.34-.27,1.01-.46,1.55-.51.97-.08,1.66.43,1.84,1.35l.45,2.35c.29,1.51.56,3.1,2.27,3.52-.15,3.33,1.23,3.05,1.05,4.69-.2,1.82.15,3.38.3,5.2l.28,3.31c.09,1.09.23,2.15.4,3.26l3.35-.03c.58-1.36,1.01-2.83,1.7-4.08l1.89-3.42c.5-.9,2.59-1.58,3.18-.42.7,1.39,1.06,3.1,1.63,4.64,1,2.67,2.56,7.41.92,9.9l-.56.84c-.16.24-1.1.16-1.26-.09-1.23-1.94.19-3.44-.62-6.05-1.01-.06-1.87.24-2.78.59-.78.3-2.23.27-2.65,1.17-1.18,2.54-1.05,4.09-1.1,6.82l-2.89.07.23-3.16c.22-3,1.15-1.7.67-3.97-1-.37-1.7.26-1.87,1.09-.25,1.28-1.61,2.6-2.93,2.28-.87-.21-.64-1.48-.06-1.98.24-.21.51-.99.35-1.27-.49-.81-1.97-.59-2.14-1.53ZM162.4,110.29c.11-1.36-.33-2.5-1.47-3.38l-1.7,3.21c.87.46,2.21.45,3.17.17ZM161.72,121.07c1.49-.13,2.46-.47,3.51-1,.35-1.39.15-3.18-.87-4.32-.76-.45-2.88,4.64-2.64,5.33ZM177.75,124.16c.23-.72-.26-1.72-.57-2.32-1.45.59-2.05,1.8-1.68,3.23.64.01,1.96-.02,2.25-.91ZM155.74,131.73c.03-.38.11-1.2.28-1.43.58-.76,1.62-2.03,1.28-3.17-.71.58-1.52,1.26-1.84,1.89l-1.35,2.64c-.13.26.49.69.81.68.27-.01.79-.32.82-.61Z"/>
  <path d="M200.18,117.67c.2-1.38,1.45-3.65-.38-4.69-.41-.23-1.54-.07-1.86.36.01.99.67,2.11,1.04,3.02l1.36,3.29c.39.94.8,1.59.2,2.64-.43.76-1.47,1.42-2.57,1.06-2.74-.92-3.89-3.41-4.63-2.65-.33,1.09-.82,2.8-1.58,3.57-1.13,1.14-2.42.93-3.85.44-.38-.13-.61-.89-.49-1.38.09-.37.57-.85,1.01-1.04,2.16-.93,2.52-3.23,1.71-3.46l-2.85-.83c-.4-.12-.96-.36-1.24-.54s-.44-1.13-.17-1.38c.97-.94,2.45-1.41,3.78-1.68,1.49-.3,1.02-1.14,1.29-4.43.07-.81.12-1.42.62-1.94.4-.43,1.14-.94,1.78-.66,2.56,1.09,1.41,1.53,2.95,2.58,1.7-1.68,3.92.08,6.6-1.07.86-.37,1.61-1.49,2.72-.96,2.3,1.09,3.18-.84,6.73-.3.19,1.24-.06,1.91-.96,2.36l-3.14,1.59c-1.12,2.29,1.8,3.26,1.85,6.21,0,.35-.51.97-.78,1.15-.59.4-3.72.04-4.6-2.72-.08-.25-.65-.58-.89-.53-.89.18-.25,2.14-1.65,2.86-.56.29-1.93-.28-2-.85ZM197.03,120.23c.42-1.12-.17-1.34-.42-1.98l-1.39-3.55c-1.66.52-1.74,1.88-1.51,3.47l3.32,2.06Z"/>
  <path d="M243.03,186.6l-1.15-7.3h-.64c-.37,1.55-.86,2.88-1.46,4.34-.32.77-.52,1.5-1.26,1.77-.64.23-1.79.46-2.26-.4-.3-.55.44-1.77.78-2.32-.64-.03-1.76-.05-2.19-.47-.31-.31-.32-1.52-.07-1.88,2.68-3.9,3.02-2.41,4.53-4.09.63-.7,1.01-1.97,1.67-2.62.94-.94,2.52-.17,2.99.92.74,1.73,2.89.42,2.73,2.72-.07,1.01-.86,1.21-2.05,1.03.27,1.58.69,3.01.77,4.6.06,1.22-.15,4.62,1.74,4.93-.18.81-.41,2.02-.96,2.77-.64.88-2.77.46-3.03-.51-.28-1.03.03-2.33-.14-3.46Z"/>
  <path d="M221.85,33.43c-.87-.98-3.84-3.04-5.23-2.17l-2.77-1.36c.91-.8,1.66-1.49,2.51-1.97,2.6-1.49.92-1.58,3.92-3.85.46-.34,1.72-.52,2.31-.6,1.7.3,2.13,2.16,2.93,3.36.88.52,3.16.57,3.34,2.09.04,1-1.48,1.51-2.62,1.52l.54,4.24c.08.64-.5,1.46-1.07,1.71-.45.2-1.33-.13-1.75-.61l-2.11-2.36ZM223,31.74c.51-.64.6-1.34.09-1.54-.55-.21-1.13-.02-1.8.39.67.53.98.73,1.71,1.16Z"/>
  <path d="M197.2,129.31c-1.1.19-.35.78-.4,1.31-.13,1.44-.39,2.88-.76,4.35-.12.49-1.44.74-1.92.59-.58-.17-1.13-.61-1.65-1.22l-2.07-.57c-.15-.3-.14-1.23.04-1.58l1.83-3.72c.92-1.88,2.65-3.53,4.63-4.25.68-.25,2.37.52,2.56,1.23l1.61,5.91c.34,1.26,1.06,2.53-.19,3.68l-2.59.32c-.13-1.05.06-2.21-.18-3.01l-.92-3.05Z"/>
  <path d="M187.43,135.5c-.15.37-1.23-.16-1.15-.53.11-.57.27-1.28.48-1.68l3.27-5.87c.12-.21.5-.54.68-.67s.99.12.99.39c.01.92-.86,2.27-1.44,3.12-1.19,1.73-2.05,3.28-2.83,5.25Z"/>
  <path d="M257.97,263.94c-.07.18-.47.47-.65.51-.84.17-.91-2.49.39-3.66.18-.51.58-1.55,1-1.83.19-.13.78.21.83.43s-.02.67-.15.98l-1.43,3.58Z"/>
  <path d="M259.42,266.44c.72,1.41,1.36.73,1.47,1.88-.3.21-1.24.19-1.58-.01-1.29-2.17-.19-3.54,1.17-5.37.14-.18.91.31.79.53l-1.3,2.42c-.08.15-.63.41-.56.56Z"/>
  <path d="M266.23,277.79c-.08.16-.51.21-.6.11-.11-.13-.32-.6-.3-.77l.15-1.55c.85.45,1.02,1.65.75,2.22Z"/>
  <path class="cls-1" d="M267.54,102.46c.99.11.39,1.43.49,1.95l.99,5.3c-1.26-.35-2.29-.84-3.17-.25-1.53,1.02-2.74,3.95-3.23,5.6l-.57,1.91c-.58-.97-.58-1.43-1.08-2.19l-1.48-2.26c-.24-.36-.15-1.46-.3-1.9l-4.14-4.96c.41-1.21.28-2.29-.12-3.42-1.35-3.87-2.28-4.73-4.45-7.76-.81-1.13-.21-3.09-.53-4.33-.34-1.3-.5-2.38-.25-3.59-.53-.56-1.03-1.53-.72-2.38.22-.58,1.71-.95,2.13-.55l.32,2.37c.06.48.17,1.06.47,1.31,1.2.97,1.9-.59,2.46-.04.83.83-.87,2.48.73,3.15.69.29,1.85.22,2.02-.7.48-2.62-.71-4.1.57-8.24.34.73.15,1.64.32,2.33.1.32.65.94,1.03,1.11,1.05.45,3.04.13,3.45-1.03.48-1.36,2.11-6.13,3.38-6.47.69-.18,1.49.13,2.17.38.83.31,1.76.46,1.86,1.5l.24,2.61c.08.88.15,1.92.15,2.75,0,.93-.87,2.07.05,2.87.26.23.62.87.62,1.19s-.65.68-.96.88l-1.49,2.83-1.09-4.39c-.24-.97-.06-4.05-1.81-4.39s-2.85,1.05-3.52,2.36l-.97,1.9c-.17.33-.9.75-1.14,1.01-1.17,1.24-2.38,2.09-3.95,2.84-.48.34-1.15.99-1.65,1.38l-.64.51c-.18.15-.1.93.13.98.53.14,1.77.49,2.3.34,1.75-.5,2.8-1.85,3.17-1.2.76,3.33-2.4,2.74.23,4.52,1.13.76-1.02,3.5-1.86,3.98l.81,1.21c1.16,0,2.36.04,3.5-.07l2.65-.25c.85-.08,2.04-.81,2.9-.71Z"/>
  <path class="cls-1" d="M283.91,218.04c-.11-.46-.56-1.18-.72-1.69-.57-1.8-2.62-2.95-4.37-2.05-1.31.68-1.91,2.1-2.34,3.41-.36,1.11-.94,2.22-1.16,3.31l-.53,2.63c-.13.65-.32,1.68-1.32,1.41-1.59-.43-1.59-4.94-1.17-5.97.75-.46,2.13-.84,1.86-1.96-.21-.9-1.68-1.06-2.7-.64l-.93-6.24c-.09-.62-.65-1.55-.9-2.16.79-.05,1.96-.1,2.44-.47.33-.96.61-1.99.75-2.97.07-.49-.7-1.76.35-1.74.75.01,1.59.08,2.41-.23.36-.13,1.06-.26,1.27-.05s.13.96.22,1.35l1.48,6.12c.03.14.02.57.03.68.01.14,3.03.72,3.57-1.81l-.87-1.96c1.07-.74,1.51.52,2.23.85,1.26.57,2.47-.68,2.82-1.98-.13-.31,4.17-1.42,4.35-1.16,0,4.11,1.12,4.68,1.33,8.74-3.52-.62-3.26,2.64-4.27,4-.78,1.05-1.78,1.94-2.33,3.2l-.85.05-.67-2.71Z"/>
  <path class="cls-1" d="M280.88,186.16l-.5-4.92-.21-2.2c-.15-1.5-1.12-.71.47-4.24.83.89,1.9,1.35,2.85.98-.15-2.28,2.8-4.2,3.24-3.82l.91.8c.21.19,1.22.01,1.19-.27l-.11-1.45c-.02-.3.8-.38,1.03-.18,1.07.94.25,1.25.84,4.32.4,2.1,2,8.21-1.06,8.51-1.26.12-2.09.53-3.07,1.35-2.99,2.48-2.4.52-4.79,2.25-.28.2-.74-.63-.79-1.13Z"/>
  <path class="cls-1" d="M238.42,82.96c.5.32.91.55,1.04.79s-.25.92-.45,1.09c-1.11-.43-2.28-.83-3.3-1.32-.44-.21-.94-1.01-1.37-.96-2.38.23-2.46,3.23-3.15,3.25-.77.02-.06-.86-1.8-3.37l-2.37-3.42c-.65-.94-1.01-2.34-1.75-3.24-.97-1.17-2.24-2.25-2.38-2.85,1.91-.02,2.63-.86,3.22-2.28.29-.7.65-1.53.77-2.27.27-1.72,1.55-2.5,3.3-2.29.25.03.8.16,1.03.25.27.11.33.76.43,1.13.66,2.52.9,4.98-.15,7.44-1.55,1.93-2.27,1.6-3.31,2.9.13,1.18,1.84,3.09,2.7,2.6.24-.14.55-.63.62-.91.33-1.21,1.02-1.68,2.25-1.37,2.12.54,2.53-.82,3.06.75.13.38.59.72.98.86l.65.24c.53.2-1.14,2.25,0,2.98Z"/>
  <path class="cls-1" d="M270.16,125.31l2.67,2.25-2.4.87c-.3-.85-.87-1.87-.92-2.87l-.16-3.32c-.02-.47-1.28-.69-1.72-.9-1.29-.6-2.43-.29-3.62.45-.74.46-1.69.57-2,1.6-.45,1.47-1.63,2.15-2.92,2.86-.29.16-.77.72-1.08.78-.36.07-.87-.55-1.16-.87-.95-1.04-1.57-2-2-3.33l-1.18-3.59c-.28-.86.18-2.33-.16-3.16-.57-1.15-1.21-2.05-1.04-3.41,1.09-.07,2.27-.19,3.2.05,1.33.34,1.83,1.81,2.45,2.81l1.39,2.25c.25.41.55,1.08.65,1.4l-3.25.53c.24,1.66,1.56,1.95,2.78,2.43,1.05.41,2.09.35,2.89-.62l1.19-1.43c.31-.37,1.36-.42,1.85-.36,1.8.21,3.22-.02,5.16-.56l1.12,3.8c.34,1.17-1.43,1.02-1.75,2.33Z"/>
  <path class="cls-1" d="M286.01,169.21c-2.05.46-5.1,2.43-5.95,4.05-.07.14-.52.37-.61.26-.12-.14-.37-.47-.54-.62l-1.31-1.19c.88-.39,1.71-.88,2.15-1.45.83-1.09-.16-1.52-.44-2.24l-.9-2.31c.35-.94,1.05-2.48,1.78-3.25.67-.71,1.2-.98,1.41-2,.65-3.18-1.95-1.97-1.46-3.8.81-3.04-.37-2.65,1.67-6.05.49-.82,1.44-1.54,2.24-2.1,1.24,1.95.78,4.03.29,6.16l.57,2.82c-1.12,2.88,1.11,2.7-.77,4.58-1.65,1.65-2.85,3.26-2.92,5.71-.01.54,1.44.79,1.76.36,1.44-1.97.28-3.26,1.72-3.55.42-.08.84.56,1.09.99.14.24.94.4.92.69-.02.32-.14.93-.23,1.24l-.49,1.71Z"/>
  <path class="cls-1" d="M231.08,52.45c1.64,1.21,2,3.11,1.87,4.98-2.04,1.84-4.98,1.4-5.57,5.2-.26,1.72-2.53.75-4.62,1.21-1.05-1.59-2.49-3.21-4.45-3.68-.49-.12-1.37-.14-1.55-.59-.41-1.03.51-2.01,1.05-2.71.16-.32-.35-1.07-.53-1.45-.26-.55-.07-2.07.42-2.41l2.19-1.49c.36-.25,1.3-.42,1.66-.14l1.69,4.32c.32.81.63,2.04.25,2.76-1.07.62-1.85,1.89-1.21,2.89l2.74-.72c.81-.21,1.13-1.89,1.65-2.42.86.13,1.77.33,2.59.05.42-.14.16-1.11.27-1.44.3-.97.75-2.12.55-3.21-.08-.44.55-1.47,1-1.15Z"/>
  <path class="cls-1" d="M251.17,67.95c-1.39,0-1.69-2.29-4.35-.76-.98-3.55-.97-1.43-2.09-3.17.88-.96,1.03-1.72.55-2.8-.8-1.79-1.26-3.66-1.64-5.59-.24-1.22-.7-2.46.03-3.6l1.81.98,1.17-2c1.43,1.8,1.59,3.65,1.78,5.71.34,3.72-.18,2.42.77,6.08.16.62.34,1.12.89,1.47,1.25.79,3.12-2.99,6.48-3.28-.67,5.12-2.1,2.2-5.39,6.96Z"/>
  <path class="cls-1" d="M269.33,255.11c-2.15-2.99.07-2.77-2.56-5.27l1.92-.37c.2-.04.6-.25.68-.42.27-.56-.73-2.16-1.05-2.42-1.1-.92-1.25-1.98-1.11-3.36.11-1.08-.7-2.84.41-3.74,1.87-.99,4.12-.56,6.18.13-.09,1.08-.2,1.83-.35,2.89-.12.82.84,1.25,1.69,2.01l-1.38.49-2.36,4.29c-2.08,3.8-.75,2.5-2.07,5.77Z"/>
  <path class="cls-1" d="M250.79,76.73c-.78.64-1.27,1.39-1.79,2.22-.12-2.15-1.46-5.87-1.05-7.06.11-.33.96-.54,1.29-.41.55.21.68,1.15.95,1.73.39.84,2,1.18,2.9.96,1-.24-.8-2.51-.03-3.32.65-.68,3.81-1.92,4.09-1.15l.23,3.09.29,3.83.27,3.01c-1.22-.48-1.89-.78-2.68-.45l-2.14.9c-.57-1.16.22-2.14-.68-3.09-.27-.29-1.32-.53-1.64-.26Z"/>
  <path class="cls-1" d="M234.45,67.04c1.08.54.88,1.69,2.03,1.74.78.03,1.95-1.77,1.46-3.17-.63-1.78-4.47-.73-4.68-2.3.78-.21,1.68.09,2.38,0l3.08-.42c.29-.04.57-.51.58-.75s-.31-.9-.57-.9c-.6.02-1.76.34-2.42.54-1.02-2.34,1.65-2.28,2.19-3.62-.19-1.06-.31-2.21-.15-3.22.53-.2,1.73-.28,2.01.13.61.88,1.02,2.21.96,3.22-.27.53-.81,1.32-1.01,1.84-.12.33.39,1.08.52,1.42.8,2.04,1.74,1.39,1.93,2.47.15.86-1.95.54-2.75,3.56l-.64,2.42-4.58.81c.02-2.07-1.62-3.41-.35-3.79Z"/>
  <path class="cls-1" d="M291.66,253.17c-1.63,1.6-.23,2.1-1.6,3.46-.54-.65-.55-1.3-.75-2.06l-1.26-4.63c-.47-1.73-.1-3.45-1.01-5.22l3.04-2.41c.26-.21,1.11-.24,1.39-.07.32.2.67.77.85,1.24,1.08,2.85-.34.32.97,3.81.38,1.03.64,2.45.84,3.48l-2.46,2.41Z"/>
  <path class="cls-1" d="M227.11,51.64l-.48-2.76c-.26-1.51-3.41-.22-4.57-3.25l2.22-.84c.59-.22,1.51-1.28,1.84-1.82.46-.76.48-1.27,1.67-1.34l2.54-.14c1.06-.06.78,2.07.28,2.66-1.49,1.74.75,2.82,1,3.61.07.22-.42.62-.68.68-3.14.71-2.44,3.95-3.33,3.8-.19-.03-.45-.4-.48-.6Z"/>
  <path class="cls-1" d="M260.43,75.02c-.14-1.37.09-2.52-.17-3.6l-1.11-4.62c-.17-.69.22-1.48-.88-1.58-.46-2.02.83-3.82,2.88-4.09l1.09-1.45c1.1,1.01.24,1.97.31,3.1.23,3.46,1.09,5.61.54,9.82.47.36.79,1.31.48,1.72l-3.15.71Z"/>
  <path class="cls-1" d="M172.24,90.62c-1.1.62-3.27,2.14-3.55,1.51-.1-.24-.22-.71-.29-1.07l-.51-2.75,1.94.54c1.43-2.26,3.47-3,4.35-4.63.21-.4-.07-1.32-.42-1.48-.43-.2-1.16-.05-1.53.26l-3.64,3.08c-.61-1.02,2.02-7.66,3.04-7.84.69.11.95,1.09,1.32,1.6.9,1.23,2.77,3.21,2.99,3.66.14.29-.26,1.14-.6,1.18-2.75.34-1.84,5.24-3.1,5.95Z"/>
  <path class="cls-1" d="M276.7,114.9c.62,3.01-.51.4-2.2,5.56l-1.71-5.22c-.34-1.02-1.25-1.95-1.51-3.04,3.02-1.23.29-3.38,2.5-6.01.17-.2.85-.43,1.05-.3,1.07.72,1.4,6.71,1.88,9.02Z"/>
  <path class="cls-1" d="M280.66,273.23c-.68.26-1.36.85-2.12,1.25.04-.85.36-1.51.55-2.27.26-1.05.42-2.02.9-2.96l1.01-1.98c.37-.72,1.29-2.07,2.3-1.78,2.24.62,3.67,4.55,3.66,5.25,0,.28-.76.39-1.06.5l-3.34,1.26-1.91.75Z"/>
  <path class="cls-1" d="M279.83,251.14l-1.23-4.24c-.19-.67.02-1.74-.47-2.23-.29-.3-1.28-.44-1.68-.46.47-2.19-.49-2.49-.61-5.03l3.78-1.26c.66,2.59,1.01,5.2,1.45,7.69.19,1.1.52,1.85.24,3.07-.32,1.4.24,1.75-.48,2.79-.11.16-.92-.08-.99-.32Z"/>
  <path class="cls-1" d="M278.99,134.25l-1.33,2.61c-.24-.32-.43-.87-.57-1.43l-1.68-6.76c-.12-.46.13-1.52.38-1.9.32-.48,1.1-.72,1.81-.79,1.15-.11,2.27.4,2.52,1.66l1.01,5.04c-1.22.19-1.69.69-2.14,1.57Z"/>
  <path class="cls-1" d="M201.16,72.23l-2.63,1.14c-.86.37-1.92.61-2.93.9-.87-1.81-.88-3.51-.37-5.39.15-.56.22-1.67.51-2.1,1.38-1.03,4.34,1.66,4.9,3.62l.52,1.83Z"/>
  <path class="cls-1" d="M268.47,236.76c-.17.17-.68.42-1.06.6-.43-1.16.23-2.72,0-3.78-.36-1.68-.65-2.61.77-3.88.59-.53.61-2,1.89-2.13.79-.08,2.67,4.32,2.39,5.28l-3.99,3.91Z"/>
  <path class="cls-1" d="M267.83,217.34l-4.32.07c-.6-1.32-.37-2.52.5-3.57.48-1.56,1.38-2.95,2.65-4.08,2,.39,2.22,5.45,2.26,6.92,0,.29-.76.66-1.09.67Z"/>
  <path class="cls-1" d="M250.48,105.64c2.05.81.24,1.9.08,4.64-.88.65-2.75-.6-2.62-1.69.11-.98.22-1.86.08-2.83-1.84-.81-2.26.39-3.35-2.04,4.48-2.03,2.68-.8,4.15-1.04,1.06-.17,2.71-.27,3.33.45.07.08.01.63-.09.63l-.89-.04c-.38-.02-1.22.31-1.36.65s.32,1.14.67,1.28Z"/>
  <path class="cls-1" d="M277.35,102.48c-.15.48-.21-.85-2.27-1.79-2.3-1.05-4.02,1.32-4.28.63l-.31-.8c-.47-1.23-.68-2.33-.49-3.65,2.18-.38,3.98-.46,6.14-.34.54,2.15.04,3.46,1.41,5.41.04.06-.17.46-.19.53Z"/>
  <path class="cls-1" d="M276.98,161.75c-1.9-3.52-3.28-1.05-3.8-2.46.25-.34.58-.73.66-1s-.39-.8-.65-.94c-.73-.38-.99-1.11-.6-1.79l1.38-2.39c.14-.24.66-.51.89-.54s.71.36.78.62l1.04,3.49c.77,2.6,2.05,3.25,1.52,4.49-.11.26-.8.54-1.22.53Z"/>
  <path class="cls-1" d="M260.82,147.77l-6.12,1.66c-.26-.9-.14-2.13.54-2.81l3.49-3.5c.44-.45,1.53-.36,1.84.17.8,1.35.85,3.17.25,4.48Z"/>
  <path class="cls-1" d="M274.87,254.35l-2.83.23c-.4-1.12,2.67-6.49,3.46-7.4.83-.32,1.49.88,1.42,1.62-.15,1.63.16,3.21.47,4.88-.45.63-1.6.6-2.52.67Z"/>
  <path class="cls-1" d="M237.41,51.44c-.96.42-1.76-.43-2.4-1.07-1.36-1.34-2.29-.86-2.31-1.7,0-.23.44-.53.7-.62l1-.35c.24-.09.13-.72.12-1.05-.14-2.96-.93-2.32-1.31-5.76-.01-.15.62-.26.68-.13.5,1.8,2.7,1.62,2.7,2.54l-.02,3.33c-.01,1.64.27,2.98.85,4.8Z"/>
  <path class="cls-1" d="M245.96,77.66c-1.11-.29-1.72-.59-2.62-1.08-.47-.25-1.63-.39-1.94-.92-.4-.69-.42-2.21-.01-2.83.7-1.06,1.9-1.28,3.12-1.51.56,1.3.87,2.47,1.07,3.8l.38,2.54Z"/>
  <path class="cls-1" d="M246.11,83.01l-1.55-.25c-1.1-.18-2.02-.15-3.2.06l.21-2.14c.06-.56.17-1.37.48-1.72s1.35-.8,1.7-.47l1.95,2.68c.66.02,1.68-.03,2.24.2.37.15.04,1.24-.29,1.45-.39.24-1.01.27-1.54.19Z"/>
  <path class="cls-1" d="M269.52,116.42c-.84,1.46-4.17.38-4.43.18s-.17-1.03.02-1.36l1.41-2.44c.18-.31.8-.78,1.09-.67.37.14.76.68.99,1.14.47.93,1.6,1.96.91,3.16Z"/>
  <path class="cls-1" d="M281.46,222.58c-1.5.43-2.64.61-4.15.58l1.45-4.38c.13-.4.17-1.46.83-1.36,1.79.27,2.05,3.24,1.87,5.16Z"/>
  <path class="cls-1" d="M251.15,126.54c-2.97.48-3.61,1.83-5.56,2.17-.82-3.48,1.97-.3,1.53-5.8,1.42-.14,1.88,1.35,2.81,2.01.48.34,1.7.61,1.22,1.61Z"/>
  <path class="cls-1" d="M261.76,95.43c-1.33-1.08.27-3.42,1-4.36l1.54-2c.22.23.61.82.65,1.15l.48,3.9c-1.43-.06-2.4.36-3.67,1.31Z"/>
  <path class="cls-1" d="M218.39,69.97l-2.1.56-.42.11c-.12.03-.42-.24-.37-.35s.28-.45.43-.54l3.94-2.44c1.49.38,2.82,1.44,2.95,3.06-1.8,1.7-2.84-.83-4.45-.4Z"/>
  <path class="cls-1" d="M275.22,93.88l-4.85.02c.1-1.11.74-1.77,1.5-2.43.89-.78,1.41-1.84,2.96-1.93.64,2.43-.63,2.46.4,4.33Z"/>
  <path class="cls-1" d="M220.55,78.23c-.79.49-1.24-.65-1.42-1.17l-.94-2.77c-.06-.16.25-.65.42-.69,1.34-.3,2.85,2.1,3.72,3.32-.6.48-1.11.9-1.77,1.31Z"/>
  <path class="cls-1" d="M230.08,98.9c.4,1.81,2.56,3.45,1.72,4.05-.78-.05-1.45-.22-2.15-.43-1.43-.44-2.22-1.98-1.43-3.39.27-.48,1.53-.61,1.85-.23Z"/>
  <path class="cls-1" d="M214.84,63.74l-.91-1.92c-.2-.42-.62-1-.66-1.39-.05-.45.33-.94.71-1.48.6-.85-1.07-1.21-.89-2.82.03-.25.83-.1,1.05.08.78.59,1.2,1.76,1.18,2.84l-.08,3.75c0,.21-.17.6-.41.95Z"/>
  <path class="cls-1" d="M194.27,55l-2.37,2.41c-.27.28-1.12.33-1.38-.06.48-1.37,1.16-2.93,1.84-4.31.16-.32,1.28-.58,1.36-.25l.56,2.21Z"/>
  <path class="cls-1" d="M288.62,202.19c-1.03.22-1.79.49-2.83.2-.23-.65,1.97-2.93,2.64-3.26,1.23.13,2.11,1.45,1.86,2.7l-1.67.36Z"/>
  <path class="cls-1" d="M255.11,131.17c-1.06.29-2.41-.36-3.07-.83-.27-.19,0-1.08.21-1.36.37-.49.94-.84,1.51-.86s.96.45,1.45.88c.36.31.84.64.89.97.08.58-.36,1.03-.98,1.2Z"/>
  <path class="cls-1" d="M266.35,99.93l-1.82.4c-.44.1-1.56.4-1.73-.2-.34-1.25.76-3.1,2.07-3.03,1.09.06,1.51,1.84,1.47,2.82Z"/>
  <path class="cls-1" d="M259.82,136.98l-2.29.93-.12-2.71c-.5-.45-1.02-1.04-.96-1.62.06-.62.81-1.04,1.47-1.11.23.64.37,1.19.58,1.65l1.32,2.87Z"/>
  <path class="cls-1" d="M188.53,102.74l-2.42-1.55c-.37-.24-1.28-.39-1.24-.91.09-1.11,1.5-1.74,1.88-1.72.25.01.64.54.74.78,1.12,2.68,1.34,1.19,1.05,3.41Z"/>
  <path class="cls-1" d="M202.6,54.72c-.68.75-1.11,1.74-2.28,1.17.06-2.26,3.55-4.31,5.77-3.81-1.25.97-2.54,1.59-3.49,2.63Z"/>
  <path class="cls-1" d="M215.75,36.24c.1.24-2.86,2.03-3.77,1.88-.56-1.08,1.9-4,2.85-3.44.24.14.52.58.65.91l.27.66Z"/>
  <path class="cls-1" d="M214.79,78.25c-1.37,1.13-1.38.68-3.04,1.46-.15.07-.46-.6-.39-.75l.94-1.9c.3-.6,1.27-1.35,1.79-.71.28.34.53,1.23.7,1.89Z"/>
  <path class="cls-1" d="M177.26,102.74c-.99.83-2.11,1.46-3.33,1.5.53-1.19,1.12-2.55,1.5-3.61.07-.2.81-.34.89-.14l.94,2.26Z"/>
  <path class="cls-1" d="M276.1,199.86c-.74.5-1.84.36-2.68,0l1.2-2.86c.07-.18.68-.65.76-.49.12.25,1.08,2.98.73,3.35Z"/>
  <path class="cls-1" d="M255.32,185.06c-.22.62-1.03.79-1.75.64l.81-3.28c.14-.58.78-.88,1.41-.74.03,1.21-.06,2.23-.47,3.38Z"/>
  <path class="cls-1" d="M250.57,99.52c-1.79-.67-2.39-.77-3.88.29.04-.94.33-1.86.92-2.62.77-1,2.94,1.39,2.96,2.33Z"/>
  <path class="cls-1" d="M252.08,122.84c.04.25-.71.29-.92.17l-4-2.21c1.19-1.22,2.33-.31,3.33.46.54.41,1.45.73,1.58,1.58Z"/>
  <path class="cls-1" d="M237.14,39.95c-.71.3-1.9.28-2.59.14.57-1.06.88-1.81.93-2.72.02-.31,1.15-.44,1.21-.14l.46,2.71Z"/>
  <path class="cls-1" d="M222.62,41.66c1.61.11-1.96,1.68-2.54,2.86l-.17-3.05,2.71.19Z"/>
  <path class="cls-1" d="M218.06,65.82c-.4.17-1.09.3-1.34,0,.11-.74.3-1.59.58-2.37.21-.58,1.47.05,1.68.5.35.74-.07,1.51-.92,1.87Z"/>
  <path class="cls-1" d="M251.14,116.11l-2.29-1.92c-.32-.75,1.2-1.73,1.85-1.22.48.71.57,1.97.44,3.14Z"/>
  <path class="cls-1" d="M258.08,142.38c-.1.17-.65.57-.78.45-.17-.16-.32-.68-.26-.9l.54-2.13c.06-.22.68-.42.92-.38.28.05.8.48.88.78l-1.3,2.18Z"/>
  <path class="cls-1" d="M273.24,102.8c-1.28,1.15-.98,4.14-2.21,3.33v-2.46c-.01-.7,1.59-1,2.21-.88Z"/>
  <path class="cls-1" d="M204.64,94.46l-2.42.48.46-1.9c.1-.42,1.36-.85,1.56-.41.2.41.3,1.13.4,1.83Z"/>
  <path class="cls-1" d="M269.95,177.78c-.29.46-1.36.57-2,.52l.78-2.69c1.04-.01,1.82,1.21,1.22,2.17Z"/>
  <path class="cls-1" d="M282.01,202.95c.66.27-.81,2.86-1.39,2.29l-.71-2.76c.75.1,1.59.26,2.1.48Z"/>
  <path class="cls-1" d="M254.79,83.79c-.8-.17-1.34-.51-2.13-1l2.68-1.19c.64.46.45,2.39-.55,2.18Z"/>
  <path class="cls-1" d="M278.77,234.2c.63,1.5-2.41,2.18-3.08,2,.43-1.44,1.77-2.12,3.08-2Z"/>
  <path class="cls-1" d="M278.54,123.08c-.25.37-1.57.15-1.8-.24-.3-.5.04-1.88.89-1.77.64.08,1.36,1.35.91,2.01Z"/>
  <path class="cls-1" d="M275.26,174.59c-.1.45-.22.97-.29,1.21-.14.49-1.75.45-2.14.24-.19-.11-.03-.9.11-1.07.4-.49,1.67-.66,2.32-.37Z"/>
  <path class="cls-1" d="M277.54,180.01c-1.17.3-1.87.6-2.85,1.16.07-1.02,1-2.37,2.03-2.54.41.06.85,1.08.82,1.38Z"/>
  <path class="cls-1" d="M235.25,75.73l-1.45-.2c.39-.89,1.16-1.55,1.91-1.78.34-.11.71.77.68,1.1-.04.39-.73.94-1.14.88Z"/>
  <path class="cls-1" d="M291.12,220.74l-2.52-.03,1.49-1.54c.1-.11.74-.24.82-.11l.44.72c.11.18.04.96-.23.96Z"/>
  <path class="cls-1" d="M244.29,68.78l-1.94.4c-.1-.39-.09-.99.02-1.29.14-.4,1-.83,1.34-.55.25.2.5,1,.58,1.43Z"/>
  <path class="cls-1" d="M254.78,109.74c.04.58-1.53.68-1.94.25-.01-.34.05-.99.1-1.45.71-.06,1.78.11,1.85,1.21Z"/>
  <path class="cls-1" d="M261.42,80.19c-.65-.58-.92-1.35-.66-2.01.18-.45,1.34-.66,1.69-.55l-1.03,2.56Z"/>
  <path class="cls-1" d="M289.46,164.09l-.92-.2c-.2-.04-.23-.79-.05-.89l1.46-.78c.19.11.43.77.43,1.07,0,.32-.56.88-.91.8Z"/>
  <path class="cls-1" d="M242.83,105.73c.16.49-1.31.57-1.64.24-.35-.35-.4-1.35,0-1.74.58.24,1.14.67,1.64,1.5Z"/>
  <path class="cls-1" d="M193.3,79.16c.36.58.01,1.78-.62,1.74-.38-.03-.78-.9-.67-1.25.12-.4,1.08-.83,1.29-.49Z"/>
  <path class="cls-1" d="M201.84,41.97c-.34.45-1.73.73-2.33.58-.11-.06-.12-.62.02-.66l.67-.2c.53-.16,1.27-.76,1.64.29Z"/>
  <path class="cls-1" d="M259.08,182.67c-.36-.48.05-1.62.56-1.73s.76.83.64,1.2c-.11.33-1,.81-1.21.53Z"/>
  <path class="cls-1" d="M205.55,50.25c.06.55-1.79.81-1.79,0,0-.62,1.7-.81,1.79,0Z"/>
  <path class="cls-1" d="M165.35,211.5l-2.25,3.45c-.29.45-1.41.7-2.05.78-.72-1.81.21-.67-.17-4.59l-.25-2.61c-.11-1.16-.15-1.99-.56-3.29.4.07,1.6.24,1.96.61.6.61,1.8,1.38,2.55.38.93-1.25-.36-3.86.26-4.33.39-.3,2.41-.87,2.58-.07l.78,3.63,1.03,3.79c.23.84,1.26,1.07,2.09,1.34.55.18.21,1.17-.09,1.64-.52.82-.56,1.71-.74,2.86-.52-.99-.72-1.99-.93-3.22-.12-.7-1.27-1.57-2.07-1.62-.7-.04-1.7.59-2.13,1.25Z"/>
  <path class="cls-1" d="M177.06,252.97c-1.09-.21-.43-.98-.47-1.56-.05-.7-.02-1.71-.11-2.28l-.71-4.55-.45-2.43c-.27-1.47-.44-2.79-.37-4.35l2.38-.63c.51-.13,1.06-.51,1.75-.87l.84,2.81c.26.87.66,1.89,1.04,2.75l1.58,3.57c-1.75-.14-2.34.61-3.06,1.7-.35.53-.7,1.08-.93,1.69l-1.5,4.15Z"/>
  <path class="cls-1" d="M159.62,204.85c-4.38.18-2.98,3.32-4.95,3.4.3-3.3-1.86-5.03-.68-5.42.78.34,1.93.74,2.59.62.26-.05.65-.62.67-.85.11-1.2-1.4-.32-1.17-2.13.63-4.95-.21-5.46,1.91-6.59.5-.27,1.14-1.26,2.03-.49l.1,2.38c.7,1.37,1.15,2.76,1.2,4.35l-2.09.79c-.24.09-.63.64-.73.87s.23.8.48.87l1.56.4c.18.61-.32,1.77-.91,1.8Z"/>
  <path class="cls-1" d="M177.24,214.22c-.68.17-1.79,1.54-2.56.51-.4-.54-.91-1.33-1.41-1.85-1.56-1.63.3-.03.77-3.42.16-1.15,1.09-2.8,2.34-3.04,1.16-.22,2.57,1.48,2.05,2.44-.25.46-.99,1.26-.44,1.58,1.19.7,1.88,1.78,1.59,3.2l-2.34.58Z"/>
  <path class="cls-1" d="M176.58,225.16c.12.55-.84,1.47-1.46,1.94-.35-1.28-.99-1.78-1.99-2.45l-1.23-2.27c-.41-.75-1.61-4.49-1.43-4.98.05-.13.44-.38.51-.26.4.63.44,3.04,1.69,2.52.42-.18,1.06-1,1.6-1.01.41,0,.77.99.89,1.38l.89,2.95c.19.63.31,1.21.53,2.18Z"/>
  <path class="cls-1" d="M173.52,257.01c-2.58,1.41-2.02,1.24-4.17,3.25-.7-1.1-.33-4,.12-4.96,2.59-1.04.56-3.71,4.84-3.8-.69,1.05-.58,1.61-.25,2.47l.88,2.25-1.42.78Z"/>
  <path class="cls-1" d="M173.37,235.3l-2.38.6c.5-1.15,1.47-1.47,2.21-2.29l2.72-3.01c.17-.19.44-.77.58-.98.17-.24.99-.11,1.14.16.65,1.21.86,2.43.89,3.85-1.77.79-3.38,1.22-5.16,1.67Z"/>
  <path class="cls-1" d="M156.22,215.68c-.38-.73-.73-1.35-.6-1.82.18-.66.53-1.02,1.07-1.61.8-.87.14-1.61.88-3.03.96-1.86.49,6.73.5,6.68-.04.64-1.6.26-1.85-.21Z"/>
  <path class="cls-1" d="M165.58,254.61l-1.79-2.33c-.38-.49-.76-.75-1.52-1.42.69-.34,1.34-.61,2.12-.9.98,1.44,1.21,2.92,1.19,4.65Z"/>
  <path class="cls-1" d="M173.39,263.08c.11.55-.03,1.22-.2,1.6l-1.83-.76c-.05-1.29,0-2.49,1.59-3.03l.44,2.19Z"/>
  <path class="cls-1" d="M160.84,223.11c-.8-.2-.66-3.24-.23-3.53.38-.25,1.21-.48,1.52-.49l-1.29,4.02Z"/>
  <path class="cls-1" d="M147.06,189.35c-.66.41-1.31.68-2.12.94l1.1-2.65c.05-.12.4-.41.5-.49.13-.11.59.35.59.53l-.07,1.67Z"/>
  <path class="cls-1" d="M153.1,197.64c-.64-1.28-1.51-2.48-.41-3.14.23-.14,1.02-.12,1.08.17.18.87-.17,2.04-.68,2.97Z"/>
  <path class="cls-1" d="M153.38,201.76l-1.42-1.35.98-2.22c.26,1.46.34,2.04.43,3.57Z"/>
  <path class="cls-1" d="M173.8,249.15c-.84.47-1.24-.36-1.3-1.04l-.08-.77c-.02-.18.72-.29.78-.12l.6,1.93Z"/>
  <path class="cls-1" d="M180.85,252.37c-.33-.43-.26-1.54.37-1.65.41-.08.72.7.61,1-.14.35-.79.9-.98.66Z"/>
  <path class="cls-1" d="M163.6,157.59l-.67-1.59-1.27-3.08c-1.16-2.81-3.65-3.65-1.71-6.16,2.29-2.97,1.54-.91,5.27-2.37.3-.05.62.66.62,1.02l.02,3.38c0,.93.74,1.51,1.6,1.85.16.64-.12,1.66-.26,2.41l-.72,4.11c-.99.06-1.65.15-2.89.44Z"/>
  <path class="cls-1" d="M177.69,185.03l-2.3-.16c-.94-.07-1.95-.23-2.85-.56-.83-4.42.41-6.37.83-9.79.02-.13.18-.44.25-.55.09-.15.69.32.76.52l1.94,5.31c.65,1.78.95,3.07,1.38,5.23Z"/>
  <path class="cls-1" d="M158.6,174.47c-.71-1.8.44-1.74,2.09-3.96.69-.93.42-2.51-.1-3.59-.15-.3-1.02.08-1.18.37l-1.72,2.99c-.5-.14-1.89-1.61-1.26-2.28l3.65-3.88c.37-.39.69-1.52,1.56-1.03.46,3.31,1,2.86.05,6.12l.78,1.42c-.72.54-1.42,1.45-1.12,2.32l1.46,1.23c-.9,1.37-1.94.86-3.8.98-.18.01-.31-.46-.4-.69Z"/>
  <path class="cls-1" d="M171.95,155.05c.09.25.21.9.03.98-.51.22-2.48.72-2.98.28l.96-3.87c.04-.15.23-.45.33-.55.14-.13.59.23.65.41l1,2.75Z"/>
  <path class="cls-1" d="M165.4,166.47c.12.16-.21-.27-.24-.31.21-.85.21-1.53-.02-2.23l-1.05-3.13,1.79-.63c.9-.32.78,2.68.55,3.36l-1.02,2.94Z"/>
  <path class="cls-1" d="M180.69,145.59c-.8.52-2.66.47-3.27.12-.21-.12.03-.72.24-.91,1.36-1.25.38-1.33,1.49-2.74.11-.14.59.35.65.55l.88,2.98Z"/>
  <path class="cls-1" d="M183.12,183.72c.73.08.56,1.98-.16,2.51-.46.28-1.5-.16-1.94-.49-.6-.45-1.04-1.66-.68-2.12l2.78.1Z"/>
  <path class="cls-1" d="M165.16,142.11l-2.27-.34.43-1.14c.12-.32.87-.49,1.34-.47l.51,1.95Z"/>
  <path class="cls-1" d="M174.25,151.78c-.28.57-1.21-1.84-.79-2.35.21-.25,1.08-.44,1.16-.12.2.77.05,1.84-.37,2.47Z"/>
  <path class="cls-1" d="M250.81,168.43c-1.87.58-3.56,1.46-5.14,2.47-.7-.22-.54-1.52.13-1.84,2.73-1.33,2.3-5.26,4.08-5.18.28.01.82.48.85.76l.19,1.83c.06.55.04,1.38-.11,1.96Z"/>
  <path class="cls-1" d="M191.83,163.12c.15.42.15,1.22-.09,1.43-1.44-.19-2.6-.07-4.24.09l2.06-5.16c.08-.19.75-.52.84-.36.48.84.81,2.32,1.42,4.01Z"/>
  <path class="cls-1" d="M225.79,179.11c-.84.23-1.76.17-2.73.11.45-.87,1.27-1.51,2.29-1.68.59-.1,1.03,1.42.45,1.58Z"/>
  <path class="cls-1" d="M161.72,121.07c-.24-.68,1.88-5.77,2.64-5.33,1.03,1.14,1.23,2.93.87,4.32-1.06.54-2.02.87-3.51,1Z"/>
  <path class="cls-1" d="M162.4,110.29c-.96.28-2.3.29-3.17-.17l1.7-3.21c1.14.89,1.58,2.02,1.47,3.38Z"/>
  <path class="cls-1" d="M155.74,131.73c-.03.29-.55.6-.82.61-.32.02-.95-.42-.81-.68l1.35-2.64c.32-.63,1.13-1.31,1.84-1.89.35,1.14-.7,2.41-1.28,3.17-.18.23-.25,1.04-.28,1.43Z"/>
  <path class="cls-1" d="M177.75,124.16c-.29.89-1.61.92-2.25.91-.37-1.42.23-2.64,1.68-3.23.31.6.8,1.6.57,2.32Z"/>
  <path class="cls-1" d="M197.03,120.23l-3.32-2.06c-.23-1.59-.15-2.95,1.51-3.47l1.39,3.55c.25.64.84.85.42,1.98Z"/>
  <path class="cls-1" d="M223,31.74c-.73-.43-1.04-.63-1.71-1.16.67-.4,1.25-.6,1.8-.39.52.2.43.9-.09,1.54Z"/>
</svg>