<?xml version="1.0" encoding="UTF-8"?>
<svg id="Layer_2" data-name="Layer 2" xmlns="http://www.w3.org/2000/svg" viewBox="0 0 432 288">
  <defs>
    <style>
      .cls-1 {
        fill: #fff;
      }
    </style>
  </defs>
  <path class="cls-1" d="M-.95,288.83V.83h432v288H-.95ZM295.92,199.71c.7-1.02,2.26-1.53,3.3-2.14,2.55-1.49,1.56-.24,4.57-1.7,4.83.01,7.99-1.26,12.44-1.75,2.17-.24,4.39-2.31,4.31-4.66l-1.24-2.82c-.38-.86-.87-1.69-1.4-2.43-.94-1.3-.97-2.87-1.46-4.37-.19-.58-.47-1.3-.7-1.89l-.75-1.94c-.64-1.68.52-2.14-.94-5.71s-.22-4.51-2.06-9.65c-.37-1.04-1.06-1.9-1.9-2.71-.51-.49-.9-1.2-1.36-1.75-1.38-1.68-3.48-2.45-5.29-3.54-4.55-2.75-3.27-4.17-5.31-7.39l-1.04-1.64-1.56-3.27c-.86-1.8-3.67-2.25-4.4-3.52l-1.57-2.73c-2-1.95-3.83-4.19-4.97-6.76-.25-.55-1.65-.92-1.3-.99.08-.01.39-.12.44-.18l.56-.55-1.15-.91c-.26-1.36-2.96-3.26-4.23-3.95-1.46-.8-2.33-2.17-3.02-3.85.53-1.02,1.41-2.33,2.18-3.31-.25-2.48,1.39-4.76.91-7.98-.29-1.97-.83-3.91-1.92-5.52-.77-1.14-1.94-1.88-2.84-2.96-1.3-1.58-3.12-3.29-5-4.08-.18-.08-.74.12-.77-.05l-.09-.64-.51-.23-.29-.53-.65-.28c-.13-.05-.1-.39-.18-.51l-1.42-.85.5-.73c.06-.09-.19-.27-.24-.28-.26,1.09-1.7-1.68-3.53-1.25-.02-.47-.13-.96-.3-1.18l-.42-.58c-.22-.31-1.17,1.15-1.92.62l.98-.93-.46-.16-1.38.39c-.34.09-1.05-.42-1.19-.8l2.17-3.29c1.98-3,4.97-4.14,5.75-4.97,1.07-1.12,2.08-2.02,3.21-3.06l.46-.43c.1-.09-.29-.43-.4-.37l-.48.26c-.52.28-1.94.15-1.9-.49l.11-1.52c-.42-.02-.11,0,.25.01l.86-.23c.49.17,1.03.16,1.46-.15.53-.38.39-.89.51-1.46l.27-1.35-1.13.03c-.16,0-.29-.53-.22-.56.26-.36.41-.57.24-.32.54.22.7.27.78.12s.04-.74-.08-.88l-2.15-2.51c-.08-.3-.14-.78-.25-.67-.08.09-.67.26-.73.15l-.69-1.24c-.08-.14-.68-.39-.57-.51.09-.09.37-.38.49-.36l1.44.24c.09.01.41-.35.49-.41.05-.04-.34-.05-.41-.05l-.39.02.35-1.11c-.74.12-1.27.23-1.87.39l-.48.13c-.31.08.54.99-.16,1.52-.19.14-.8.21-1.03.13-.89-.28-1.69-1.51-1.17-2.26,1.26-1.86-.49-.83.92-1.69.05-.03-.05-.1-.18-.25-.28-.41-.77-.94-1.13-.79-.47.2-.82.5-1,.94l1.05-.46s.08.17.28.56c-1.07.22-2.19.34-3.11.28l-.64-.59c-.41.42-.36.08-.27-.32l.59-.74c.48.66.72.99,1.66,1.07l-.6-.85.11-.51c.01-.07-.25-.03-.42-.05l-2.1-.18c-.47-.04-.85.01-1.28.47l1.62,1.43c-2.92.41-2.84.46-5.12-.85-.6-.35-1.06-.6-1.52-1.15l-.72.45-1.68-.63c.45-.53.47-.6.16-.56l-1.3.38c-2.1-1.01-.36,1.12-4.85-1.1-.17-.06.08-.7.16-.67.55.21,1.04.37,1.51.44-.85-.65-1.51-1.13-1.57-2.3l-2.28-1.1c-.41-.2-.76-.31-1.26-.41l-.32-1.15-.7.93c-.14.18-.61-.45-.75-.66-.41-.58-.56.13-1.39-.59-.06-.05-.06-.28,0-.25l.63.22c-.06.07.08-.1.3-.37-.35-.48-1.33-.27-2.06-.07-.11,0-.23-.59-.1-.71l.47-.44c-.1-.8.33-1.17.93-1.68.47-.4,1.01-.91,1.57-1.03,3.42-.73,4.39-4.8,3.33-7.27-.41-.96,1.08-1.55,1.33-2.23,1.42-6.39-2.99-4.84-3.24-7.47-.8.99-3.42.82-3.04.38.91-1.04,1.12.74,2.75-.98-.69-.35-1.43-.2-2.14.32l-2.49-.89c-.17-.06-.66-.57-.52-.67l.65-.48c.13-.09.39-.35.28-.41l-.41-.2-1.36-.69c0-.05,0,.11.02.32,0,.17-.16.58-.03.67l.53.38c-.02.38-.05.88.16,1.03l.85.59c-.44.08-1.18.48-1.15,1,1.48.45,1.44-1.12,2.47.24-1.14.08-2.06.04-3.26-.11l-3.72-.49c-.1-.01-.37-.4-.28-.41s.37-.06.47-.06l2.58-.04c.28.03.87.6,1.08.45l.75-.55-1.34-.45c-.27-.09-.32-.87-.55-1.05-.53-.41-1.58.27-2.12.67-1.52-.59-3.11-.79-4.75-.64l-1.74.16c-.4.04-1.02-.42-1.49-.59l-2.24-.84c-.17-.06-.69.45-.55.57l.48.42c.25.09.32.11.17.06l-.36.57,1.06-.22c.22-.05.56.29,1.04.6-1.21.32-2.58.14-3.63-.73-1.14-.94-2.37-.73-3.73-.96-.69-.11-1.6-.52-2.36-.36l-.5.11c-3.02.66,3.34.16,2.18.72-.89.43-1.6.43-2.5.02l-1.41-.64c-1.47-.67-3.63-1.72-5.04-1.05-.1.05-.52-.18-.43-.24l.64-.44s-.1-.09-.35-.3l-.3.02c-.26.31-.54.61-.59.6l-.8-.89c.12-.16.47-.5.34-.54l-.54-.16c-.17-.05-.7.38-.6.52l.35.48.36.49c.05.07-.29.14-.37.11l-.4-.19c-.27-.12-.52-.33-.67-.25l-.6.33c-.31.17-.96-.33-1.23-.73-.17-.26-.96-.42-1.21-.61-.71-.54-1.71-1.48-2.42-2.13-.46.83-1.38,1.46-2.27,1,.3-.34.77-1.26.49-1.47-.36-.27-1.37-.22-1.91-.07-.59.16-1.11,1.2-2.04.63-2.37-1.45-3.28-.3-3.64-.44-.11-.04-.28-.33-.17-.39l.43-.22c.09-.05.34-.38.24-.41-.99-.24-1.35.3-1.48.39-.65.43-1.54.32-2.44.28-.52-.02-2.35.39-2.25-.18l.09-.47-2.69-.35-.26.68s-.7-.72-.71-.67c-.08.42-1.47,1.81-2.75.85-.09-.36-.1-.34,0,.24l-1.16.18.16-1.28-1.02.88-1.24-.53c-.13-.06-.69-.1-.73.04l-.18.65-1.88.78c-.13.05-.49-.32-.36-.37s.55-.31.54-.44c0-.34-.9-.39-1.12.05-.14.28-.04.61.2,1.06l-1.36-.04c.09-.37.21-.68.11-.66l-.53.12c-.44.1-1.14.48-1.62.73-.85.07-1.74-.62-2.4-1.35l-.47.31.33.68c.44.14,0,.13-.35.11-1.02-.12-1.73-.4-2.55-1.06l.42,1.04c-1.04-.34-3.89.25-4.1-.37.03.07-.08.51-.16.54l-1.07.36c-1.37.46-2.82.4-4.2-.1-5.14-1.89-3.49-4.16-7.27-2.85l-2.05.71c-1.78.62,2.08,3.44-.96,7.17-1.54,1.9-2.12,1.92-2.93,3.25-1.58,2.6-3.46,1.5-4.67,3.96l.43.52c.05.05-.23.04-.3.02l-.47-.09c-.02.48.15.73.54.58l.97-.37c.37-.35.52-.44.03.29-.12-.05.09.04.4.17.27,0,.86.13.76.31l-.44.79c-.59-.09-.12,0,.32.09l.43-.7c.15.39.36.85.59.89l1.95.32-.6.42c-.22.12-.48.25-.25.13,2.31,1.49,2,2.35,4.93,2.96.72,1.19-.95,2.44-1.75,2.83-.18.09.14.78-.02.78l-1.02-.02c.05-.32-.01.07-.04.26.09.36.18,1.02-.03,1.19l-.54.44c-.07.05.21.33.26.34.41-.41.86-.75,1.32-.82s1.01.72.79,1.21c-.72,1.59-1.71,2.87-2.76,4.25-.52.68-1.19,1.91-2.08,1.76-.45-.3-.93-.61-1.31-.73l.47.94c-.57.04-1,.06-1.32.11-.26.04-.48.64-.63.97-.77,1.76-2.85.8-2.16,4.1l.31.43c.53-.28.49-.18.24.12l-.5,2.16c-.02.1.32.31.39.23l.33-.42.1,2.21-.8-1.48c-.21,1.08.47,1.68,1.06,2.2.87.79-.04,1.61-.2,2.38-.18.86-1.06,4.78.43,4.06l-.46-1.11c.55.12.92.47,1.17,1.1.18.48.16.54-.64.3-.21-.09-.17.31,0,.63,2.3.77,1.12-.69,3.71,1.16,1.95,1.39,2.05,3.89,2.19,3.76l-.33.29,1.07.73c.11.08.34.3.28.4-.99,1.51.62.41-.89,2.79l.87,3.32c-.21.32-.36.45-.28.57l.37.53-.71,1.53c.73.82.69,2.03-.35,2.52l1.22,1.01-1.29.3.38.14c.23.08.86.35.77.58l-.4,1.05c-.07.19.03.66.03.86,0,.16-.4.36-.59.47.34.52.58,1.07.59,1.78.02.84-.01.7-.82,1.63.05-.06.51.23.51.3l.17,2.14-1.25-.15,1.06.5c.23.11.11.83.14,1.11l.29,2.75-.6.26,1.02.39c-.55,3.09.53,4.01-.75,6.12l.97,2.48c-.24.11-.77.28-.68.36.07.07.17.19.25.21l.58.13c.27,1.44.38,3.12.75,4.55.59,2.33,1.55,3.21,1.14,4.01-.28.29-.32.34-.19.19.83.42,1.15.84,1,1.47-.47,0-.59.03-.12.21l.81,2.4,1.29.88-.44,2.1c.82,4.6-.77,2.61-.27,4.52.27,1.03.49,2.39,1.27,3.01,2.32,1.83.75,3.64,1.77,7,.14.47.91,1.32.94,1.65-.35.54-.5.86-.59,1.38l-.12.69c-.03.15.52.37.57.52.11.28.35.86.64.98,1.99.83,1.26,3.55,1.23,4.27l-.11,2.22c-.02.42-.26,1.04-.44,1.32.29.13.73.27.74.43l.02.5,1.55,1.04c.25.17.92.38.9.65l-.06.97c.33.36.62,1.02.48,1.48-.1.34-.62.89-.78,1.06.46.37.71.8,1,1.28.76,1.27,1.57,2.59,1.34,4.15-.04.25.29.85.09.95l-.85.43,1.18.06.25,2.2c.06.5.24,1.47.43,2.01l.57,1.63c.4,1.14,1.22,1.35.79,2.69-.03.11.51.2.56.3.59,1.14,1.11,2.87,1.48,4.17.3,1.06.64,1.8-.69,2.71l1,.03c.2,0,.43.49.56.72l.98,1.67c.32.55-.5,1.17.41,3.36,2.84,2.25,1.34,2.76,3.8,5.82.55.68,1.95.93,2.2,1.85.37,1.39,1.35,3.86,2.19,4.78l1.54,1.67c.73.79,2.19,1.32,3.15,1.78.22.38.77,1.11.92,1.5.71,1.87,1.37,6.72,1.17,8.55-.04.34-1.06.61-1.34.62l.82.64c.17.13-.07.76-.01,1.01.38,1.7.57,3.86.11,5.7s-.96,5.07-.93,7.01c.01.76-.52,1.38-.81,2.03-.57,1.29.26,2.88-.74,4.19-.62.82.76,2.34-3.11,6.3.11,1.82.12,3.68-.53,5.5-1.15,3.21.07,6.83-1.31,7.56l-1.66-.67c-1.35-.06-2.81.08-4-.34l-3.12-1.1c-.81-.28-1.57-1.41-2.62-1.58-.55-.09-2.79.49-2.77,1.72,0,.32.3.92.53,1.21l.96,1.25,3.56,1.35c2.02-.91,3.93-.67,5.93-.1,1.75.5,3.21,1.46,3.79,3.29l6.15-1.87c-.28-2.09-.33-3.85-.24-5.84.03-.8-.1-1.87.15-2.62l.49-1.46c.6-1.81.89-3.64,1.64-5.42l1.65-3.89c-.31.72,1.95-5.54,1.95-5.56l.68-1.84c-.57-3.35.87-3.87.07-6.54l.59-1.83c.67-2.08.78-4.07,1.05-6.21l.43-3.34c.41-3.24-.11-4.47,1.38-7.12.39-.7.5-1.55,1.15-2.06l1.17-.93-1.04-.45c.8-.53.98-.79,1.39-1.51s1.36-1.49,1.85-2.13c-.2-1.37,2.94-5.36,4.06-5.92l-1.09-2.41c-.22-.48-.51-1.11-.66-1.49l-1.18-2.15c-.37-.67-.6-1.14-.72-1.94l-.36-2.33c-.03-.2.23-.69.09-.79-.1-.08-.47-.28-.56-.39-.8-.92-.79-2.78.08-3.8l-.23-2.35c-.1-1.09-1.82-1.94-2.31-2.71-.07-2.46-1.69-.97.09-4.17-.23-.54-.44-1.45-.51-2.05-1.34-1.42-3.27-4.25-3.07-6.27l-.87-1.4.47-.71c-.25.38-1.62-1.59-.12-5s-2.46-4.75-1.67-7.08c2.12.57,2.88-.81,4.09-2.08,1.54-1.62,3.79-1.71,5.89-1.87,3.03-.22,3.05-2.09,6.02.1.91.67,2.34,1.06,3.61,1.12.71.03,1.97-.79,2.17-1.44l.88-2.88c.82-2.68,4.83-2.83,7.35-2.25,4.3.99,3.88-.05,6.58-2.76,1.45-1.45,3.27,2.06,5.15,1.1l1.67-.86c1.97-1.01,1.55-4.54,3.02-4.75,3.64-.53,4.14,2.47,7.99-1.21.92-.88,2.32-1.78,3.61-2.03,1.13-.22,2.51.6,3.47,1.04.17,1.36,0,3.02.8,4.03,1.26,1.6,2.01,3.16,1.57,5.38-.12.6.44,1.35.55,1.84l1.1,4.97c.09.41.47,1.15.5,1.54.14,1.58.36,2.92.75,4.33l-1.16-.5c.34.51.76.62,1.45.84l-.06,2.13c.21.18.61.63.71.9l1.21,3.41c.28.79-.31,5.32-.55,6.49-.31,1.54-.56,3.15.75,4.54.67.71.71,1.62,1.01,2.46.49,1.34.92,2.5.56,4.06.06.82.55,2.19.87,3.02,2.2,5.84.53,4.84.52,7.87,0,1.39-.53,2.9-.09,4.21.37,1.09,1.15,2.09,1.65,3.21,1.53,3.42,6.47,4.22,10.15,5.59.93.34,1.69,1.03,2.44,1.62,1.43,1.12,3.61.95,5.03,0,1.77-1.18,3.63-.7,5.08.69M152.96,19.78l-1.28-1.38h-1.57c.13.6.84.81,1.46.7.48.28.73.45,1.39.68ZM239.44,28.64l2.21-.04c.1,0,.41-.41.49-.34.92.78,2.24-.02,2.79-.8-.8.02-1.49.16-2.27.31l-1.83.35c-.2-.08-.61-.48-.73-.33l-.65.85ZM279.06,30.13c-1.31-.61-2.42-.07-3.26.62,1.2.14,2.29-.07,3.26-.62ZM94.27,36.67c-.44-.31-1.23-.65-1.72-.7l-2.28-.23c.97,1.04,2.3.52,4,.94ZM300.86,43.14c-.49-.23-.55-.25-.62-.18l-.27.25c-.31-.41-.78-.77-1.19-.7-.28.04-.67.58-.66.87s.35.85.67,1.09c.68-.27,1.49-.85,2.09-1.33ZM245.86,51.37l1.33.45.91-1.47-1.76-.79c-.13.13-.15.69.06.75l.88.25c.14.04-.18.44-.32.4l-.53-.14c-.21-.06-.77-.2-.8,0-.02.15.11.5.23.55ZM267.48,54.35l-1.13.37,1.12-1.35c-.14-.5-.19-.56-.26-.26l-2.27.86c-1.2.45-2.61-.94-3.59-.35-.08.05-.09.12,0,.14l.59.16c.26.07.2.91-.07.98-.22.06-.75.1-1.11.13l.15-1.1c-1.03.75-1.9.83-2.58.13l1.99-.71-1.11-1.21-1.03.89c.11.4.16,1.04-.16,1.15l-1.11.39,1.97.95c.33.16,1.13,0,1.27-.14.5,1.69,3.03.44,4.29-.02.63-.23,3-.16,2.92.27l-.12.63,1.22-.39-.97-1.52ZM269.53,52.59l-.71.21c-.45.13-.95.48-.96.86,0,.28.58.8.89.78.63-.04,1.55-2.08.78-1.85ZM288.33,58.86c.15.35.14.72.05,1.33l1.1.41-.07.57c-.02.15.46.33.5.3l.32-1.91.56-.72c.22.29.34.57.44.5l.45-.33c.07-.05-.42-.25-.42-.33-.01-.4.28-1.24.56-1.52.06-.06.66.07.62.15s-.1.27-.17.33l-.52.37c-.09-.03.4.12.57.18.12.04.4-.34.41-.47l.09-1.9-.96-1.15-1.37.15.55-1.21-1.73.03c.31.37.57,1.31.25,1.61l-1.42,1.36c.01-.59,0-.95-.07-1.35l.74-.92c-.78-.09-1.61.1-2.16.56-.38.32-.55,1.06-.78,1.84-2.28-.14-3.59-1-4.95-.63.04-.24.11-.67.08-.47-.95-.16-1.28-.3-1.97-.72-.58-.35-1.83.28-2.11.78l-.48-.95-2.31,1.36c.65.42,1.35.23,1.99-.45l1.35.64.7-.54c.1-.08.33.15.58.35l-1.24.85c1.04-.11,1.93-.34,2.87-.7l1.82.63.83-.13c.15-.02.08.54.09.55.47.02.76.06,1.43.22-.69.86-2.75,1.03-2.7,1.48l.07.57,1.47-.72.25.7c.04.11.38-.29.46-.37l1.3-1.32,2.92,1.01ZM291.35,62.68c1.66.32,3.13.54,4.75-.02-1.66-.89-1.68.35-2.13-.15-.1-.11-.33-.45-.21-.53l.59-.39-1.18-.25.83-.65c-.28-.36-.58-.77-.78-1.12-.15-.26.27-.9.57-.88l.81.04c.17,0,.26-.52.16-.65l-.38-.52c.55-1.47,2.87-1.11,2.23-1.99l-2.06.55c-1.04,2.04.21,1.41-2.16,2.86l.76,1.44c.23,0-.23.65-.47.6-.2-.04-.56-.21-.89-.35-.31-.04-.73.84-.52,1.04l.77-.43c.1-.06.48.52.37.56-4.11,1.41-1.18.91-1.57,1.09l.52-.23ZM272.37,63.34l1.69.25c.07.01.41-.26.35-.31l-.33-.27-1.27-.22,1.18-.92c.21-.16,0-.79-.03-1.12-.02-.17.37-.54.51-.45l.78.52c.1-.08.05-.83-.17-.89l-1.11-.25c-.05.1.2-.4.38-.78-.09-.04-.73-.1-.78-.31l-.21-.94-.51.95c-.11.2-.66-.36-.82-.52l-.86-.81c-.03.51.06.71-.05.82l-.61.6c1.7.71.51-.29,2.1.17.09.02.09.12.02.17l-.37.28-.47.36c-.09.07.38.29.5.28l1.69-.11c-.41.39-.78.41-1.53.53l1.02.71-.4.39c-.29.29-.89-.63-1.05-.39-.11.16-.37.47-.25.49,1.07.23.6.36.61.34-.68.97.23-.1-.01,1.4ZM269.5,60l-1.12-1.52c-.14-.19-.95-.16-1.12,0s-.31.6-.2.8.5.56.72.67c.18.1.58-.43.77-.35l.94.4ZM281.77,64.07c.05-.25.4-.63.7-.82l-.43-.5,1.76-.43-.88-.32c-.21-.08-.53.27-.91.55l-.28-.81c-.21.44-.56,1.22-.92,1.23-.45.01-1.03,0-1.67-.01l.21,1.31,1.16.44,1.01-.61-.14.64c-.02.07.24.07.26,0l.13-.67ZM289.14,63.99l.9-.83c-.56.11-1.18.41-1.51.67.4.75.57,1.6.31,2.12-.56.06-1.11.15-1.44.16l-2.51.07c-1.82.05-1.43,2.04-1.73,2.04-.1,0-.43-.03-.39-.13l.23-.5c.2-.43.18-1.3-.08-1.55l-1.52.87c-.28-1.43.99-1.36,1.71-1.94l.64-.52c.13-.1.36.14.63.38.06-.11.36-.53.21-.68l-.58-.57.83-.72c-1.64-.1-1.92,1.34-2.8,2.19-.68.65-1.3,1.38-1.52,2.53.11.39,1.04.41,1.54.21.8.61,1.93,2.45,2.98,1.27l.25-.57c.05-.11.64-.03.61.09l-.25.78,4.01-.52c.43-.06,1.14-.1,1.37-.36.21-.25.43-.99.19-1.19-.58-.5-.59-.85-.31-1.85.05-.17.79-.03.73.15-.1.28-.19,1.09.04,1.13.51,0,.96-1.44.52-1.57l-2.18-.64c-.12-.03-.52.07-.65.08s-.2-.39-.27-.58ZM303.8,64.36l-.85-.33c-.09-.04.03-.39.13-.37l.66.14c.02.06-.1-.29-.14-.4l-1-.38c-.15-.06-.44.37-.48.43l.75,1.62.93-.72ZM285.22,65.47l1.71.27c.11-.25.33-.96.38-1.31.03-.22-.77-.37-.94-.22l-.49.47c.58.05.6.02,1.24.2l-1.9.59ZM300.41,68.45l1.71-.73,1.26.88c.24-.85.2-1.71.04-2.45l.19-.91-1.52,1.2c.63.17.8.27,1.15.74l-1.92.46c-.24.06-.91-.13-.91.09s0,.73,0,.73ZM297.59,69.45c.45-.79.78-1.23,1.37-1.76l-1.92-.8-.8.21c.35.23,1.05.48,1.11.84l.23,1.5ZM135.05,87.01c-1.72-1.03-2.54-.77-4.67-1.52-.12-.04-.26.3-.36.5.69.34,1.52.29,2.28.37.94.09,1.9.82,2.75.65ZM289.22,122.06l4.27-4.25c-.21-.19-.78-.13-1.03.12l-4.3,4.29c-.19.19.31.7.54.74s.36-.73.53-.9ZM301,138.95c-1.3-.91-2.56-1.57-4.12-1.92,1.26.99,2.62,1.65,4.12,1.92ZM235.4,179.56l-3.49-.33c-.35.87,4.97.85,3.49.33ZM226.57,195l-3.28-.55c.76.83,2.29,1.27,3.28.55ZM164.2,243.05l.91-2.17c.09-.23-.34-1.05-.59-.95-.75.3-1.04,1.55-.98,2.34l.04.62c0,.1.58.25.61.15Z"/>
  <path class="cls-1" d="M290.23,59.56l-.83.43-1.07-1.13.4-.88s1.6,1,1.5,1.58Z"/>
  <path d="M275.63,201.28c-1.46-1.39-3.31-1.87-5.08-.69-1.42.95-3.6,1.11-5.03,0-.75-.59-1.52-1.28-2.44-1.62-3.68-1.36-8.62-2.16-10.15-5.59-.5-1.12-1.28-2.12-1.65-3.21-.45-1.31.08-2.82.09-4.21,0-3.03,1.67-2.03-.52-7.87-.31-.83-.8-2.2-.87-3.02.36-1.57-.07-2.72-.56-4.06-.3-.84-.34-1.75-1.01-2.46-1.31-1.39-1.05-3-.75-4.54.23-1.17.83-5.7.55-6.49l-1.21-3.41c-.1-.27-.5-.72-.71-.9l.06-2.13c-.69-.22-1.11-.34-1.45-.84l1.16.5c-.4-1.41-.62-2.75-.75-4.33-.03-.39-.41-1.13-.5-1.54l-1.1-4.97c-.11-.49-.67-1.24-.55-1.84.44-2.22-.31-3.79-1.57-5.38-.8-1.01-.63-2.67-.8-4.03-.96-.44-2.34-1.26-3.47-1.04-1.29.25-2.69,1.15-3.61,2.03-3.85,3.68-4.35.68-7.99,1.21-1.47.21-1.05,3.74-3.02,4.75l-1.67.86c-1.89.97-3.7-2.55-5.15-1.1-2.7,2.7-2.28,3.75-6.58,2.76-2.53-.58-6.53-.44-7.35,2.25l-.88,2.88c-.2.64-1.46,1.47-2.17,1.44-1.27-.06-2.69-.45-3.61-1.12-2.97-2.19-2.99-.32-6.02-.1-2.1.16-4.35.25-5.89,1.87-1.21,1.27-1.97,2.65-4.09,2.08-.8,2.33,3.09,3.84,1.67,7.08-1.5,3.41-.13,5.38.12,5l-.47.71.87,1.4c-.21,2.02,1.73,4.85,3.07,6.27.07.59.28,1.51.51,2.05-1.78,3.2-.16,1.7-.09,4.17.49.78,2.2,1.62,2.31,2.71l.23,2.35c-.87,1.01-.88,2.88-.08,3.8.09.1.46.31.56.39.14.1-.12.59-.09.79l.36,2.33c.12.8.35,1.27.72,1.94l1.18,2.15c.14.38.44,1.01.66,1.49l1.09,2.41c-1.12.56-4.26,4.55-4.06,5.92-.49.64-1.45,1.44-1.85,2.13s-.59.98-1.39,1.51l1.04.45-1.17.93c-.64.51-.75,1.36-1.15,2.06-1.49,2.66-.97,3.88-1.38,7.12l-.43,3.34c-.27,2.14-.38,4.13-1.05,6.21l-.59,1.83c.79,2.67-.64,3.2-.07,6.54l-.68,1.84s-2.26,6.28-1.95,5.56l-1.65,3.89c-.75,1.78-1.04,3.61-1.64,5.42l-.49,1.46c-.25.75-.12,1.82-.15,2.62-.08,1.99-.03,3.75.24,5.84l-6.15,1.87c-.58-1.83-2.04-2.79-3.79-3.29-2-.57-3.91-.81-5.93.1l-3.56-1.35-.96-1.25c-.23-.29-.52-.89-.53-1.21-.02-1.23,2.22-1.81,2.77-1.72,1.05.18,1.81,1.3,2.62,1.58l3.12,1.1c1.19.42,2.65.28,4,.34l1.66.67c1.38-.72.16-4.35,1.31-7.56.65-1.82.64-3.68.53-5.5,3.87-3.96,2.48-5.48,3.11-6.3,1-1.31.17-2.9.74-4.19.29-.65.82-1.27.81-2.03-.03-1.94.45-5.11.93-7.01s.27-3.99-.11-5.7c-.06-.25.18-.87.01-1.01l-.82-.64c.28-.01,1.3-.28,1.34-.62.2-1.83-.46-6.69-1.17-8.55-.15-.39-.7-1.12-.92-1.5-.96-.46-2.42-.99-3.15-1.78l-1.54-1.67c-.84-.91-1.82-3.39-2.19-4.78-.24-.91-1.65-1.17-2.2-1.85-2.46-3.05-.96-3.56-3.8-5.82-.91-2.19-.09-2.81-.41-3.36l-.98-1.67c-.13-.23-.37-.71-.56-.72l-1-.03c1.32-.9.99-1.64.69-2.71-.37-1.3-.9-3.03-1.48-4.17-.05-.1-.6-.19-.56-.3.42-1.33-.39-1.54-.79-2.69l-.57-1.63c-.19-.54-.37-1.5-.43-2.01l-.25-2.2-1.18-.06.85-.43c.2-.1-.13-.7-.09-.95.24-1.55-.58-2.87-1.34-4.15-.29-.48-.54-.9-1-1.28.17-.17.68-.72.78-1.06.14-.47-.16-1.12-.48-1.48l.06-.97c.02-.27-.65-.48-.9-.65l-1.55-1.04-.02-.5c0-.16-.45-.3-.74-.43.17-.28.42-.9.44-1.32l.11-2.22c.04-.71.76-3.44-1.23-4.27-.29-.12-.54-.69-.64-.98-.05-.14-.6-.37-.57-.52l.12-.69c.09-.51.24-.84.59-1.38-.03-.34-.8-1.19-.94-1.65-1.02-3.37.55-5.17-1.77-7-.78-.61-1-1.98-1.27-3.01-.5-1.91,1.09.08.27-4.52l.44-2.1-1.29-.88-.81-2.4c-.47-.18-.36-.22.12-.21.15-.63-.17-1.05-1-1.47-.14.15-.09.1.19-.19.41-.81-.54-1.68-1.14-4.01-.36-1.43-.48-3.11-.75-4.55l-.58-.13c-.08-.02-.17-.15-.25-.21-.09-.08.45-.25.68-.36l-.97-2.48c1.27-2.11.2-3.03.75-6.12l-1.02-.39.6-.26-.29-2.75c-.03-.29.08-1.01-.14-1.11l-1.06-.5,1.25.15-.17-2.14c0-.07-.46-.35-.51-.3.81-.94.84-.8.82-1.63-.02-.71-.25-1.26-.59-1.78.18-.12.58-.31.59-.47,0-.2-.1-.67-.03-.86l.4-1.05c.09-.23-.55-.49-.77-.58l-.38-.14,1.29-.3-1.22-1.01c1.04-.49,1.08-1.69.35-2.52l.71-1.53-.37-.53c-.08-.11.07-.25.28-.57l-.87-3.32c1.51-2.38-.1-1.28.89-2.79.06-.09-.17-.32-.28-.4l-1.07-.73.33-.29c-.14.13-.24-2.37-2.19-3.76-2.59-1.85-1.41-.39-3.71-1.16-.17-.32-.21-.72,0-.63.8.24.83.17.64-.3-.25-.63-.63-.98-1.17-1.1l.46,1.11c-1.49.72-.61-3.2-.43-4.06.16-.78,1.08-1.6.2-2.38-.59-.53-1.27-1.13-1.06-2.2l.8,1.48-.1-2.21-.33.42c-.06.08-.41-.13-.39-.23l.5-2.16c.25-.3.29-.39-.24-.12l-.31-.43c-.69-3.31,1.38-2.34,2.16-4.1.14-.33.37-.93.63-.97.32-.05.74-.08,1.32-.11l-.47-.94c.38.12.86.42,1.31.73.89.15,1.56-1.09,2.08-1.76,1.06-1.37,2.05-2.66,2.76-4.25.22-.49-.35-1.27-.79-1.21-.46.06-.91.41-1.32.82-.05,0-.32-.29-.26-.34l.54-.44c.21-.17.12-.83.03-1.19.03-.19.08-.58.04-.26l1.02.02c.16,0-.16-.69.02-.78.8-.39,2.47-1.64,1.75-2.83-2.93-.62-2.62-1.48-4.93-2.96-.23.12.03-.02.25-.13l.6-.42-1.95-.32c-.23-.04-.44-.51-.59-.89l-.43.7c-.44-.09-.91-.18-.32-.09l.44-.79c.1-.18-.49-.31-.76-.31-.31-.13-.52-.22-.4-.17.49-.73.34-.64-.03-.29l-.97.37c-.39.15-.56-.1-.54-.58l.47.09c.07.01.34.03.3-.02l-.43-.52c1.21-2.46,3.09-1.36,4.67-3.96.81-1.33,1.39-1.36,2.93-3.25,3.03-3.73-.82-6.55.96-7.17l2.05-.71c3.79-1.31,2.14.96,7.27,2.85,1.38.51,2.84.56,4.2.1l1.07-.36c.07-.02.18-.47.16-.54.22.62,3.06.03,4.1.37l-.42-1.04c.82.65,1.53.94,2.55,1.06.36.03.8.03.35-.11l-.33-.68.47-.31c.66.73,1.55,1.42,2.4,1.35.49-.25,1.19-.63,1.62-.73l.53-.12c.1-.02-.02.29-.11.66l1.36.04c-.24-.45-.34-.78-.2-1.06.22-.44,1.12-.39,1.12-.05,0,.13-.42.4-.54.44s.24.42.36.37l1.88-.78.18-.65c.04-.14.6-.1.73-.04l1.24.53,1.02-.88-.16,1.28,1.16-.18c-.1-.58-.09-.61,0-.24,1.28.96,2.68-.42,2.75-.85,0-.04.69.71.71.67l.26-.68,2.69.35-.09.47c-.11.57,1.73.16,2.25.18.9.04,1.79.15,2.44-.28.13-.08.49-.62,1.48-.39.1.02-.14.36-.24.41l-.43.22c-.11.06.06.34.17.39.35.14,1.27-1.01,3.64.44.93.57,1.44-.47,2.04-.63.54-.14,1.56-.2,1.91.07.29.22-.19,1.14-.49,1.47.88.46,1.81-.17,2.27-1,.7.65,1.71,1.59,2.42,2.13.25.19,1.03.35,1.21.61.27.4.93.9,1.23.73l.6-.33c.15-.08.4.12.67.25l.4.19c.07.03.41-.04.37-.11l-.36-.49-.35-.48c-.1-.14.43-.57.6-.52l.54.16c.14.04-.22.38-.34.54l.8.89c.05.01.33-.29.59-.6l.3-.02c.25.21.39.33.35.3l-.64.44c-.09.06.33.29.43.24,1.41-.67,3.58.38,5.04,1.05l1.41.64c.89.41,1.61.41,2.5-.02,1.16-.56-5.2-.06-2.18-.72l.5-.11c.76-.17,1.67.24,2.36.36,1.37.23,2.59.02,3.73.96,1.05.87,2.42,1.05,3.63.73-.48-.3-.82-.65-1.04-.6l-1.06.22.36-.57c.15.05.08.03-.17-.06l-.48-.42c-.14-.12.38-.64.55-.57l2.24.84c.47.18,1.09.63,1.49.59l1.74-.16c1.65-.15,3.23.06,4.75.64.55-.4,1.59-1.09,2.12-.67.23.18.28.96.55,1.05l1.34.45-.75.55c-.21.15-.81-.41-1.08-.45l-2.58.04c-.1,0-.38.05-.47.06s.18.4.28.41l3.72.49c1.2.16,2.12.19,3.26.11-1.03-1.37-.99.2-2.47-.24-.03-.52.71-.92,1.15-1l-.85-.59c-.21-.15-.18-.65-.16-1.03l-.53-.38c-.12-.09.03-.51.03-.67-.02-.21-.03-.37-.02-.32l1.36.69.41.2c.12.06-.15.32-.28.41l-.65.48c-.14.1.35.61.52.67l2.49.89c.7-.52,1.44-.67,2.14-.32-1.63,1.71-1.84-.07-2.75.98-.38.43,2.24.6,3.04-.38.25,2.63,4.66,1.09,3.24,7.47-.24.68-1.74,1.28-1.33,2.23,1.06,2.47.1,6.54-3.33,7.27-.56.12-1.1.63-1.57,1.03-.6.51-1.03.87-.93,1.68l-.47.44c-.13.12-.02.71.1.71.73-.2,1.71-.41,2.06.07-.22.27-.36.44-.3.37l-.63-.22c-.07-.03-.07.2,0,.25.84.72.98,0,1.39.59.15.21.61.84.75.66l.7-.93.32,1.15c.5.1.85.21,1.26.41l2.28,1.1c.06,1.17.72,1.65,1.57,2.3-.47-.07-.97-.23-1.51-.44-.09-.04-.34.61-.16.67,4.48,2.21,2.74.09,4.85,1.1l1.3-.38c.32-.04.29.03-.16.56l1.68.63.72-.45c.46.54.92.8,1.52,1.15,2.28,1.32,2.2,1.27,5.12.85l-1.62-1.43c.43-.46.81-.51,1.28-.47l2.1.18c.17.01.43-.02.42.05l-.11.51.6.85c-.95-.08-1.18-.41-1.66-1.07l-.59.74c-.09.4-.15.74.27.32l.64.59c.92.06,2.03-.05,3.11-.28-.19-.39-.3-.61-.28-.56l-1.05.46c.18-.44.53-.74,1-.94.36-.15.84.38,1.13.79.13.15.23.22.18.25-1.41.86.33-.17-.92,1.69-.51.76.28,1.98,1.17,2.26.23.07.84,0,1.03-.13.7-.52-.15-1.43.16-1.52l.48-.13c.59-.16,1.13-.27,1.87-.39l-.35,1.11.39-.02c.07,0,.46,0,.41.05-.08.06-.4.43-.49.41l-1.44-.24c-.12-.02-.41.27-.49.36-.12.12.49.37.57.51l.69,1.24c.06.1.65-.06.73-.15.11-.12.17.37.25.67l2.15,2.51c.12.14.15.73.08.88s-.24.1-.78-.12c.18-.24.03-.04-.24.32-.07.03.05.56.22.56l1.13-.03-.27,1.35c-.11.57.02,1.08-.51,1.46-.43.31-.97.32-1.46.15l-.86.23c-.35-.02-.66-.03-.25-.01l-.11,1.52c-.05.65,1.38.78,1.9.49l.48-.26c.12-.06.5.28.4.37l-.46.43c-1.13,1.04-2.14,1.94-3.21,3.06-.79.83-3.77,1.97-5.75,4.97l-2.17,3.29c.15.38.86.9,1.19.8l1.38-.39.46.16-.98.93c.76.53,1.7-.93,1.92-.62l.42.58c.17.23.28.72.3,1.18,1.83-.44,3.27,2.33,3.53,1.25.05.01.3.19.24.28l-.5.73,1.42.85c.08.12.05.46.18.51l.65.28.29.53.51.23.09.64c.02.17.59-.02.77.05,1.87.79,3.69,2.5,5,4.08.89,1.08,2.07,1.82,2.84,2.96,1.08,1.61,1.63,3.56,1.92,5.52.48,3.21-1.16,5.49-.91,7.98-.77.99-1.65,2.29-2.18,3.31.69,1.67,1.56,3.05,3.02,3.85,1.27.7,3.98,2.59,4.23,3.95l1.15.91-.56.55c-.06.06-.36.16-.44.18-.35.06,1.05.43,1.3.99,1.14,2.57,2.97,4.81,4.97,6.76l1.57,2.73c.73,1.27,3.54,1.72,4.4,3.52l1.56,3.27,1.04,1.64c2.03,3.22.76,4.64,5.31,7.39,1.81,1.09,3.91,1.87,5.29,3.54.46.56.85,1.26,1.36,1.75.84.8,1.53,1.67,1.9,2.71,1.85,5.14.59,6.05,2.06,9.65s.29,4.03.94,5.71l.75,1.94c.23.59.51,1.31.7,1.89.49,1.49.52,3.07,1.46,4.37.53.74,1.03,1.57,1.4,2.43l1.24,2.82c.08,2.36-2.14,4.43-4.31,4.66-4.45.49-7.61,1.76-12.44,1.75-3.01,1.46-2.01.22-4.57,1.7-1.04.6-2.6,1.12-3.3,2.14M162.16,37.77c-.28.06-.74.28-.72.11.02-.14.02-.73.13-.8l1.39-.91-1.1.09c-.45.04-.77-1.19-1.5-.88l.54,1.62c-.33.12-.93.23-.88.39l.25.79c.17.54.46,1.16.73,1.5l1.12-.58c-.11-.09-.55-.49-.43-.67l.47-.67ZM169.15,40.69c.31.19.99,0,1.11-.42-.26-.57-1.2-1.02-1.77-1.19.37-1.47-.31-.47-1.23-1.97l-.14.71c.12.08.7.37.59.54l-.49.77.8.19c.19.61.5.99,1.13,1.37ZM206.48,42.72l-.11-1.13c-.02-.18.56-.31.68-.17l.37.42.69-1.33.95.59c.14.09.32-.57.32-.75l-.05-1.87-1.23.09v-1.25s-.69.91-.69.91c-.28-.5-.69-1.01-1.08-1.12-.31-.09-1.04.6-.87.87s.44.67.27.73l-.71.25c-.14.05-.21.46-.07.46l.8.03c-.05.32-.49.88-.82.93l-2.01.26c.21.39.26.62.38.61l.58-.03.42,1.43,2.16.06ZM204.49,38.8c.34-.44.38-.94-.04-1.54l-.9,1.63c-.09.15.37.65.48.51l.47-.59ZM183.86,40.36l-3.5.89c1.25.06,2.56.42,3.5-.89ZM197.29,43.22l-1.09-.96c-.24.05-.82.64-.69.86.31.52,1.12.94,1.55.69.13-.08.34-.48.23-.58ZM226.06,45.26l.56.79c.08.12.33-.18.48-.29l1.74,1.28c.29-.53.3-.78.56-.81l1.36-.14c-.18-.2-.49-.44-.36-.57l.77-.74-1.09.35c-.11-.07-.28-.52-.19-.66l.46-.79c-.96-.29-1.93-.3-2.92-.14.06.35.25.77.08.89l-.65.47-.5.35c-.07.05-.13-.43-.18-.5l-.32-.47c-.05-.07-.24.12-.28.2l-.2.49-.39-.65c-.17-.29-1.02.73-.94.76l.59.26c.31.14.7.3.93.35.18.04.49-.4.5-.43ZM205.58,45.78c-1.17-.7-1.76-1.12-2.62-1.9l-2.44-.31,2.89,1.38c.78.37,1.34,1.36,2.17.83ZM172.82,51.43l.82.35c.12.05.63-.37.31-.26-.47-1-.07-1.86.41-2.76-.56-.02-1.29.66-1.25,1.24.01.18-.13.55-.23.71-.06.1-.3-.25-.29-.36l.03-.69c-.22,0-.78.49-.77.79.01.38.6.82.99.99ZM203.43,93.18l1.72.61-.45-1.13c-.45-.27,1.9-.04,1.49-.43.08.08.32.31.32.3l-1,.78,1.51.02-.15-.8c-.03-.16.27-.25.68-.58.04-.37-4.28-.15-1.83-.67l1.76.14c.1,0,.34.44.39.53s.18-.19.17-.28l-.02-.45,1.19.48-.87.75c-.16.14.1.69.28.61l1.89-.52.06-.48c.01-.11.5-.12.5,0l-.02.64.82-.65c.12.09.34.37.44.28l.46-.37c.17-.13.65-.47.82-.37l.58.35c-.01-.51-.09-1.24.25-1.36.42-.15,1.31-.03,1.26.24l-1.42.78,2.13.05c.09-.38.12-.79.3-.99.27-.3.94-.4,1.23-.23l-1.26.92.94.03c.22,0,.62.09.7-.04l.47-.74,1.62.38c1.67-1.23.2.43,3.32-.85l-1.43-.98c2.54,0,.75,1.6,2.97.62.16-.07.3-.6.15-.7-.16-.11-.52-.28-.65-.15l-.58.54v-.86c-.02-.75-2.59.04-2.81-.48,1.16-.7,2.34-.25,3.61.01.04-.18-.03-.81-.2-.8l-.84.07c-.58-1.24-1.86-1.77-3.25-1.76-.89,0-1.92-.27-2.88-.36-5.46-.5-1.76-1.46-5.89-2.37-.94-.21-1.78-.24-2.73-.25-3.5-.01-4.01-.13-7.42-1.24l-.7-1.68c.59-1.65.55-3.33.92-5.04l.67-3.08c.05-.23.24-.67.31-.89s-.36-.65-.58-.74c-3.51-1.47-2.67-.49-6.23-.6-3.3-.11.2-3.85-2.51-4.36.76-.15,1.72-3.54,1.7-4.24-.52-.49-.73-.94-1-1.53l-.72-1.6c.16-.09.75-.26.68-.35s-.26-.37-.35-.47l-1.03-1.15c-.18-.58-.44-1.34-.68-1.9-.6.7-.62.58-.54-.26l-2.14-.54c-.65-.16-1.39.05-2.05.15-.82.13-1.83.09-2.45.76-.72.78-2.37,2.55-3.36,2.54l-3.2-1.43-1.08.79c.25.79.7,1.58,1.19,2.21l.05.91c.71,1.3.05,1.34-.54,4.21-.19.92.1,1.39.4,2.19l1.06,2.78c-.14-.36.17,3.71,1.09,5.65l.92,1.92c1.4,2.92.61,3.37-1.43,6.95-1.48,2.6.18.98-2.46,4.24l-.07,1.78-.1,2.41c-.02.55.16,1.33.27,1.75-.26.66-.14,1.36.18,2.1l-.47,2.2c.83.45,1.28.7,2,1.24-1.12.65-1.95-1.73-2.92-.05-.22.38-.21.91.07,1.12.23.17,1.07.24,1.12-.04l.18-1,1.63.78.75-.18c.12-.03.04-.41-.04-.5l-.37-.42.85-.2.41.64c.06.1.36-.26.36-.38v-.52s-1.37-.69-1.37-.69c1.79-.7,1.16.55,3.72,1.32l.37-.37c.06-.06-.04-.32-.12-.32s-.33.02-.42,0l-1.33-.34c1.85-.73,2.38.85,3.89-.18.3-.06.88-.03.98-.21l.55-.96,1.25-.58c.23-.14.69.03.33.23-.7.22-.83.45-.29.59.47.09.72.15.89.12s.31-.56.21-.72l-.44-.69c.58.11,1.01.48,1.54,1l.28-.68c.34.09.68.25.76.11s.33-.59.18-.63l-.62-.18c-.72-.21-1.22-.38-1.73-.95.83-.02,1.32.09,2,.26,1.67.43,1.16,1.52,1.52.93l.32-.54c.08-.14.64-.14.51.02l.12.97c.02.14.5-.21.62-.27l.83-.44c.19-.1.71.47.96.43.79-.12,1.35-1.27,1.58-2.28l.56,1.73.77-.81c.49-.51,1.32,2.17,1.26.6l-.02-.57c0-.1.21-.36.27-.44.04-.06-.11-.13-.43-.4-.32.07-.13-.1.12-.22.58.11,1,.04,1.64-.16.02.08.02.41.18.43l.92.07c-.18.18-.53.53-.45.45ZM137.21,60.05l-1.89-.31c.31-.94.35-1.14.43-2.01l-1.47-.22c-.15.28-.33.85-.53.79l-.83-.25c-.18-.05-.69.02-.78.18s.01.44.07.74l.09.48c-.08-.4,2.15,1.8,3.04,1.42l1.87-.82ZM142.02,62.9l-.88-.9c-.13-.13-.02-.57.05-.7l1.35.57c.81.02,1.66.11,2.32.3.16.62.15.78.38.84.2.05.95-.4.83-.56-.3-.43-1.03-1.22-1.35-1.51.17-.21.44-.5.34-.63l-.33-.48c.07-.39.12-.79,0-1.04-.15-.3-.9-.46-1.2-.45.02-.17.06-.68.05-.56l-2.48.37c-2.1,2.27-1.97.44-2.62,1.17-.09.1-.09.45.02.52l.58.36c-4.7.81.95,1.62-3.16,1.09l-1.18.39,3.65.4c1.24.14,2.44.6,3.6.82ZM210.38,59.01c-.08,1-2.58,2.59-2.91,2.66-.37-.25,2.43-1.79,1.38-2.12l-.75-.23c-.18-.06-.32.53-.37.81-.03.18-.74.09-.76-.09l-.07-.71-.73.24c-.07.03-.16-.22-.11-.29l.31-.38c.11-.14.24-.73.06-.76s-.71.01-.73.19l-.06.63c-.07.43,0,1.19.29,1.43.07.06.52-.1.51-.01-.09.9.57.79.26,1.11l-.43.45c.67.02,1.59.08,2.07-.07l1.89-.58-.05-.89c-.01-.2.57-.3.99-.47l-.8-.95ZM153.91,60.32l-.5-1.33-1.85-.65.94,1.23-.41.73,1.82.02ZM166.93,60.24c-.01-.18-.84-.17-.85.03-.04.54.1,1.91.65,1.85l.21-1.88ZM157.38,60.83c-1.2-.47-2.15,1.04-2.4.55l-.46-.93-.33,1.62,1.9-.45.41.57c.08.11.42-.38.42-.41-.13-.25-.28-.44-.16-.53l.62-.42ZM168.16,65.43l.87-.66v.55c0,.07.16.24.18.22,1.71-.8.53.25,2.02-.9l.65-.5c.09-.07.32.4.32.47-.45.46-.94,1.32-.93,1.86l.62-.17c.59-.16-.77.7-.39.81.11.03.3.11.39.14.43.19.14-.57.94-.79.52-.14.48.92,1.16.95.12,0,.37-.21.34-.33l-.14-.59.93-.81-.58-.21c-.49-.18-.02.06.27-.47l.43-.76c.09-.17-.44-.68-.33-.84.28-.41.82-1.32.95-1.94.05-.23-.79-.61-.93-.41s-.37.85-.06.79.23.76,0,.75l-.87-.04c-.76-.04-1.12,1.05-.89,1.98l-.78-1.26c.09-.51.1-1.2-.12-1.23l-.33.78s-1.49-.09-1.36.42l.23.97c-.94-.86-3.85-.1-3.03-1.03.43-.49.92-1.08,1.11-1.52.09-.21-.82-.55-.75-.36l-.45,1.5-.6,2c.41,0,.7-.06.77.06l.34.55ZM197.61,63.11l1.48-.35,1.05,1.63,1.27-.98-.33-1.29c-.09-.37-.9-.91-1.11-1.06l-1.23.42.86.63c-1.16-.02-2.14.04-3.31.19,0,.5.09.84.28.51.32-.23.63-.5.69-.39s.22.7.35.67ZM152.31,64.6c.05.07.76-.08.71-.15-.05-.08-.08-.16-.16-.2l-.37-.23c-.08-.25-.06-.6-.22-.67l-.68-.3.67-.26c.11-.04-.05-.39-.08-.42l-.67.32c-.2.1-.67-1.3-1-1l-.75.68c.04.2-.07.04-.27-.38l-1.99.53.94.72c.17-.09.42-.26.49-.16l.27.35c.52-.18,1.31-.29,1.88-.12.45.13.97.92,1.23,1.29ZM208.57,63.85l-.05.75c.92-.24,1.95-.8,2.6-1.65l-.94-.1c-.11-.01.08-.44.05-.51-4.26,1.67-2.19.41-4.92.93,1.84.99,3.29.19,3.26.58ZM214.32,64.58l.88-.61-1.32-.73-1.22.65c.4.42.94.43,1.38-.01l.28.71ZM236.52,68.32l-.49.39.24-1.51-1.81.34c-.81.15-2.08-.06-2.83.2l-1.28,1.65c.01-.47.2-.92.04-.92-.18,0-.78-.06-.76.11l.07.73-.92-1-.14,2.43c-.48.02-.8-2.22-.67-2.3l.71-.44-1.2-1.35c0-.06.34-.41.48-.32l.47.32.87-.28c.06-.02.22-.42.26-.46s-.21-.02-.27,0l-.36.12.08-1.02c-.65.71-1.02,1.07-1.62,1.01.38-.89.63-1.34.36-2.03l-.92,1.71c-.59-.07-1.08.05-1.48.28l-.39-.63c-.08-.13-.4-.04-.62-.04l.46-1.19-1.41.82c-.58.34-1.97-.31-2.32-.73-.15.53-.81,1.27-1.25,1.19-.09-.06-.41-.44-.44-.34l-.14.49-.18.64c-.04.13-.59.04-.53-.08l.35-.77c.06-.13-.08-.26-.34-.61l-.63.85-.17-1.03-.34.69c-.08.15.19.43.39.74,0,.13-1.06.05-1.05-.24l.06-1.83-1.72.54,1.37.59c-.24.75-1.03.76-1.68.49l-.42-.17c-.08-.03-.17.3-.1.35l.35.25c.26.18.81.43.77.68l-.18,1.11.7-.5c.13-.09.45.33.42.32l-.42.5c-.06.07.28.12.36.08l.47-.19c.17.35.3.85.58.94s1.11,0,1.15-.29l.14-1.11.07-.66c.01-.11.31.06.45.15.1.06-.03.22-.1.34l-.19.29,1.42.57-1.47.64,1.66.28,1.46.21c.39.06,1.13.46,1.49.64.03.33-.04.67.13.66l.81-.02c.15,0,.5-.13.56-.03l.29.54.5-1.35,1.04,1s-.25.2-.36.2l-.69.03c.41.22.79.39,1.22.53l.89.28c.18-.37.51-.97.75-.89l.92.32c1.47.5,2.79,1.02,4.02,1.98l.85-.56-1.38-.97.52-.3c.1-.06.46.14.51.04l.34-.81c.05-.13.56-.01.57.13s.03.67.14.76l1.26.95.85-.73c-.13-.82.3-1.32.95-1.81l-1.5-1.59ZM212.2,67.86c.11.09.51-.13.49-.24l-.12-.48c.82.04.62-.47,1.13-1.64-.04-.39-1.01-.72-1.36-.53-.43.24-.71.68-.89,1.18l-.88.28,1.64,1.42ZM251.97,69.91c.42-.24.52-.29.6-.35,1.99-1.39-.54.72-.44.83l.42.44c-.11.17-.42.4-.33.51.98,1.21,2.55,1.02,3.99.87l-1.28-2.01,1.3-.07c.47-.02.97-.4,1-.81.02-.29-.45-1.01-.68-.83l-.52.4c-.65.51.16-.84.35-1.47l.23-.75c.04-.12-.28-.31-.38-.36-.34.5-1.08,1.36-1.07,1.87l.04,1.6c-.23.04-.66.04-.7.2l-.14.57c-.03.1-.34.34-.37.23l-.13-.56c-.1-.46.3-.9.83-1.18l-.39-.57c-.6.32-1.51-.15-1.98-.1l-2.42.27c-.18-.07-.05.56.13.57l.84.05,1.09.65ZM216.58,68.89l-1.12-.69-2.25,1.14,3.37-.45ZM266.88,70.82l.79-1.34c-1.16-.39-2.44-.51-2.4.67.6-.28,1.42-.58,1.61-.48v1.16ZM245.44,70.84c.94-.88,2.83.25,2.23-.86-.12-.23-.32-.58-.26-.48-.4.32-.73.64-.93.56l-.89-.37c-.04.27-.14,1.04-.15,1.15ZM264.46,70.85c-.55.39-.69.47-.51.27l.12-.87c.02-.13-.48-.15-.62-.13s-.27.25-.35.48c-.22.61-.33.98-.12,1.25.34.44.91.78,1.33.73l.15-1.71ZM151.86,105.28l-.98-1.11-1.46-1.21c.13.82.58,1.26,1.12,1.8l.54.59c.13.14.83-.04.78-.07ZM207.25,128.86l1.29-.76,1.46-.81c.06-.17.08-.4.2-.47l.5-.27,1.47-.95c.18-.12.5-.24.66-.28s.57.5.72.44l1.77-.65-.87-.69c-.14-.11.06-.75.24-.74l.9.08c.75.07,2.86-1.03,2.67-1.18l-.54-.43c-.1-.08-.28.6-.41.62-3.02.47-.76-.38-3.75,1.17-2.03,1.04-3.88,2.1-5.84,3.31-.38.24-1.78,2.4-3.48,3.11-2.69,1.12-9.93-.23-13-1.03l-4.36-1.14c-.85-.22-1.62-.52-2.41-.93-.14.09-.4.39-.53.31l-.48-.32c.7-.19.6-.22-.1-.23l-.42.87c-.49-.62-1.26-.65-2.06-.61l-1.6-.64-.58-1.07-.29.64c-.04.09-.42-.09-.48-.16l-.37-.5c-.17-.22-.38.31-1.14.04-.07-.03-.05-.3-.01-.31.27-.06.52-.11.5-.11s-.08-.3-.12-.47l2.69.47-2.89-1.43-1.33,1.2,1.14-.36c-.24.51-.68,1.15-1.03,1.3-1.5-.38-2.93-1-3.87-2.05.2-.32.48-.7.39-.93s-.51-.85-.72-.69l-.53.41s-.07-.21-.06-.28l.02-.27c-.76.22-1.89-.29-1.87-.5l.06-.58c-.93.48-1.28-.14-1.92-.65s-1.18-1.04-1.57-1.53c-.24-.3-.89-.75-1.01-1.12-.37-1.09-.87-1.4-2.01-1.81l1.15-.4-1.62-.47c-2.65-.77-2.3-2.31-4.25-2.35l6.11,5.61c3.31,3.03,7.04,5.88,10.95,8.22l.39.24c.07.04.02.12-.06.15l-.56.21c1.01-.03,1.93.05,2.86.57,1.58.88,3.12,1.52,4.82,2.18l.73.68c1.31-.04,2.48.53,3.56,1.12.44-.03,1.22-.03,1.63.09l1.53.44c.66.68,1.43.91,2.37.75l-.49-.45c1.27.25,2.34.49,3.51.59l4.91.41c-.3.53-.71.31-1.27.28l-3.03-.18c-.54-.03-.93-.09-1.5.24l3.87.16c1.02.04,1.85.18,3.12.33l-2.45,2.72c-.17.18-.33.77-.37,1.05-.9,1-1.74,2.45-2.21,3.75l.72.36c.08.04-.15.35-.23.36l-.74.09c-.1.01-.08.78.02.8.45.07,1.17-.02,1.89-.13l-.19.58c-.04.12.51.21.56.09.38-.99.15-.61.81-1.08l-1.9-.7c.84-.31,1.54-.59,1.95-1.03-1.08.03-1.42.74-2.21-.04.44-.14,1.06-.28,1.72-.41l1.45-1.82c1.79-.28,1.09-1.07,2.93-2.41l-.63-.2c-.09-.03-.2.36-.28.45-.18.22-.88.35-1.03.25.17-.27.57-.65.44-.75l-.66-.55c-.08-.48.71-1.17,1.16-1.48l1.78-1.23-.88-.45,2.23-.34c.49-.07,1.51-.4,1.96-.57.15-.06-.01-.71-.03-.77.19.01.56.12.68.02l.52-.47-1.02-.16c.33-.23.83-.49.71-.67l-.47-.71ZM248.85,116.94l3.47.18c.09,0,.44-.06.52-.07,2.55-.25-4.92-.75-3.99-.12ZM241.67,117.41c.5-.56.32-.56-.22-.43-1.11-.08-2.2-.1-3.26.08l-2.43.42c1.19.6,2.28.36,3.46.22l2.45-.29ZM266.72,118.7l.5.02c.08,0-.32-.34-.4-.34-5.34-.15-3.58-1.7-5.86-.55l1.72.22c.46.06,1.3.56,1.82.58l2.22.07ZM170.42,120.68l1.7.41c-.04-1.18-1.53-.67-1.98-1.33-.39-.56-.68-1.07-1.34-1.29-.53-.17-.96.16-1.39.77.68.08,1.16.13,1.8.03-.04-.25.43.34.48.56s-.14.54-.33,1.11l1.06-.26ZM262.99,120.39c-.57-.11-1.1-.17-1.75-.25l.5-.32-2.51-.16-4.8-.34c-.15-.36-.18-.56-.32-.53s-.53.33-.67.32l-1.33-.11c.53-.23.7-.25,1.02-.57l-3.71-.11.7.36c-2.28,1.38-3.67-.05-4.14.6-.05.07-.07.24.02.25l.6.05c.93.08,1.74.1,2.61.12l5.8.14,4.84.28c-.06,0,4.34,1.25,5.67.82-.72-1.41-1.69-.39-2.52-.55ZM240.12,120.34l-4.21-.3c0,.39-.01.57.11.61.14.04.64.12.83.1l3.27-.41ZM271.43,121.94l.54-.63s-.14-.17-.2-.19l-.27-.11c-.3-.11-.77-.3-1.04-.3s-.7.45-.96.67c-.1-.25-.69-.75-1.05-.7l-2.22.33.49-.61c-.5.19-.85.34-1.36.63,2.84.67,5.32,1.32,8.1,1.78,1.97.32,1.01.79,3.62.98l-1.6-.63.6-.43c.07-.05-.06-.33-.14-.34l-.6-.04c-2.47-.16-.42.69-3.92-.41ZM175.01,123.23c.24.02-.08-.76-.33-.85l-1.71-.64c-.15-.28-.25-.45-.42-.6s-.94.65-.77.8c.34.31,1.03.86,1.39,1.04l1.84.25ZM217.09,127.47c1.94-.78,2.82-1.73,5.26-2.63.09-.24.19-.52.15-.42-.37,1.03,5.76-1.61,5.31-1.42l-1.17-.03c-.33-.21-.92-.44-1.23-.54-1.06,1.63-1.48.23-3.49,1.81l-1.17.28c-.07.02-.37.24-.42.29-.05.05,0,.12.05.17l.33.27-3.22.79c-.83.2-1.71.29-2.04,1.14.78-.13,1.38-.59,1.65.29ZM204.25,135.57l-.64.6c-.1.1.17.55.31.57l1.4.23.96-1.75-.69-.24c-.14-.05.08-.56.11-.57l1.61.76,1.24-1.73,2.37-2.33c.45-.44,1.42-.45,1.85-1.2-.82-.18-3.05.9-3.24,2.26l-1.73-.02.86-.59c-.37-.21-.92.05-1.29.68l-2.9.37c-.15.02-.46,0-.59,0s-.22.46-.2.49l3.08-.03.64.18c.12.03.21.55.08.58l-.72.17c-.71.16-1.56-.09-2.09-.56l-.43,1.26v.86ZM167.71,144.77c.81.62,1.87.55,2.59-.27-1.71-.33-3.2-.67-4.95-.68.71.64,1.51.45,2.44.47l-.08.48ZM153.37,146.91l.39-2.04c-1.41.7-2.23,1.01-3.4,1.21l-.87,1.34c2.3-.27,2.77-1.78,3.88-.51ZM159.45,146.77c-.82-.91-1.56-.41-2.35-.47-1.19-.1-2.27.19-3.15,1.04,1.02.52,1.72-.12,2.34-.18.98-.09,1.99-.17,3.16-.38ZM177.82,149.75l-.22-1.31-1.66-.19c-.35-.04-1.02-.43-1.36-.5-.3-.06-2.06.34-3.09-1.1l-3.28.13c-.15-.07-.42-.31-.56-.26l-.52.17c-1.42-.7-2.08.55-3.19-.42-.41,1.03-2.11.27-5.2,1.23-.77.24-1.84.08-2.34.35l-2.15,1.13c.55.04,1.28-.11,1.96-.34,5.3-1.8,10.18-1.67,15.56-.95,2.46.33,3.69.83,6.06,2.06ZM152.47,147.98l.38-.49c.06-.07-.31-.16-.39-.12l-.35.2-1.82,1.14c1.05.38,1.67-.07,2.19-.74ZM182.52,173.82c-.68-.13-.85-.13-.84-.19l.11-.52-1.47-.35c-.34-.08-.91.55-.98.9-.41-.31-.86-.5-1.34-.44-2.01.22-3.96-.2-6.01-.61l-.97.31c4.24,1.35,4.16-.32,8.8,1.42.13.05.59.15.67.05l.35-.47c.34.15.87.67,1.05.52s.69-.64.64-.61Z"/>
  <path d="M290.23,59.56l-.32,1.91s-.52-.15-.5-.3l.07-.57-1.1-.41c.08-.61.09-.98-.05-1.33l1.07,1.13.83-.43Z"/>
  <path d="M290.23,59.56c.1-.58-1.51-1.56-1.5-1.58l-.4.88-2.92-1.01-1.3,1.32c-.08.08-.42.48-.46.37l-.25-.7-1.47.72-.07-.57c-.05-.45,2-.61,2.7-1.48-.67-.16-.96-.19-1.43-.22,0,0,.07-.57-.09-.55l-.83.13-1.82-.63c-.95.36-1.83.59-2.87.7l1.24-.85c-.24-.2-.48-.42-.58-.35l-.7.54-1.35-.64c-.64.68-1.34.87-1.99.45l2.31-1.36.48.95c.28-.5,1.53-1.13,2.11-.78.68.41,1.02.56,1.97.72.03-.21-.04.23-.08.47,1.35-.36,2.66.5,4.95.63.23-.78.4-1.52.78-1.84.55-.46,1.37-.66,2.16-.56l-.74.92c.07.41.08.76.07,1.35l1.42-1.36c.32-.3.06-1.24-.25-1.61l1.73-.03-.55,1.21,1.37-.15.96,1.15-.09,1.9c0,.13-.29.51-.41.47-.17-.05-.67-.21-.57-.18l.52-.37c.07-.05.14-.24.17-.33s-.56-.21-.62-.15c-.28.29-.58,1.12-.56,1.52,0,.08.49.28.42.33l-.45.33c-.1.07-.22-.21-.44-.5l-.56.72Z"/>
  <path d="M289.14,63.99c.06.19.14.58.27.58s.53-.11.65-.08l2.18.64c.45.13,0,1.58-.52,1.57-.23-.05-.14-.86-.04-1.13.06-.18-.68-.32-.73-.15-.28,1-.27,1.35.31,1.85.24.2.02.95-.19,1.19-.23.27-.94.31-1.37.36l-4.01.52.25-.78c.04-.12-.56-.2-.61-.09l-.25.57c-1.04,1.18-2.18-.66-2.98-1.27-.5.2-1.43.19-1.54-.21.21-1.15.84-1.87,1.52-2.53.89-.86,1.16-2.3,2.8-2.19l-.83.72.58.57c.14.14-.16.56-.21.68-.27-.24-.51-.49-.63-.38l-.64.52c-.72.59-1.99.51-1.71,1.94l1.52-.87c.26.25.27,1.12.08,1.55l-.23.5c-.04.09.28.13.39.13.3,0-.09-1.99,1.73-2.04l2.51-.07c.33,0,.88-.1,1.44-.16.26-.51.09-1.37-.31-2.12.32-.26.95-.56,1.51-.67l-.9.83ZM287.97,68.12l.62-1.9c-.87-.07-2.19,1.89-1.85,2.25.13.13.53.28.7.22s.47-.39.53-.57ZM290.35,67.86c.14-.04.38-.43.41-.62l-1.71.23c-.22.03-.74.2-.71.39.03.15.1.64.09.55l1.92-.55Z"/>
  <path d="M267.48,54.35l.97,1.52-1.22.39.12-.63c.08-.42-2.29-.49-2.92-.27-1.26.46-3.79,1.71-4.29.02-.14.15-.95.3-1.27.14l-1.97-.95,1.11-.39c.32-.11.27-.75.16-1.15l1.03-.89,1.11,1.21-1.99.71c.68.71,1.55.63,2.58-.13l-.15,1.1c.36-.03.89-.07,1.11-.13.26-.07.32-.91.07-.98l-.59-.16c-.08-.02-.07-.09,0-.14.99-.59,2.4.8,3.59.35l2.27-.86c.07-.3.12-.24.26.26l-1.12,1.35,1.13-.37Z"/>
  <path d="M291.35,62.68l-.52.23c.4-.18-2.54.32,1.57-1.09.11-.04-.27-.62-.37-.56l-.77.43c-.21-.2.21-1.08.52-1.04.33.14.69.3.89.35.24.05.7-.59.47-.6l-.76-1.44c2.37-1.45,1.12-.82,2.16-2.86l2.06-.55c.64.88-1.67.52-2.23,1.99l.38.52c.1.14.01.66-.16.65l-.81-.04c-.3-.02-.72.62-.57.88.2.35.5.76.78,1.12l-.83.65,1.18.25-.59.39c-.12.08.11.42.21.53.45.5.47-.74,2.13.15-1.62.56-3.09.34-4.75.02Z"/>
  <path d="M281.77,64.07l-.13.67c-.01.07-.27.08-.26,0l.14-.64-1.01.61-1.16-.44-.21-1.31c.64.01,1.22.03,1.67.01.36-.01.71-.79.92-1.23l.28.81c.38-.27.69-.62.91-.55l.88.32-1.76.43.43.5c-.3.19-.66.56-.7.82Z"/>
  <path d="M272.37,63.34c.24-1.5-.67-.43.01-1.4-.01.02.46-.11-.61-.34-.12-.03.13-.33.25-.49.17-.24.76.68,1.05.39l.4-.39-1.02-.71c.75-.12,1.12-.15,1.53-.53l-1.69.11c-.12,0-.6-.21-.5-.28l.47-.36.37-.28c.07-.05.07-.15-.02-.17-1.6-.46-.4.53-2.1-.17l.61-.6c.11-.11.03-.31.05-.82l.86.81c.16.15.71.72.82.52l.51-.95.21.94c.05.22.69.27.78.31-.19.38-.43.88-.38.78l1.11.25c.23.05.27.8.17.89l-.78-.52c-.14-.09-.53.28-.51.45.03.33.23.96.03,1.12l-1.18.92,1.27.22.33.27c.06.05-.28.32-.35.31l-1.69-.25Z"/>
  <path d="M289.22,122.06c-.17.17-.3.95-.53.9s-.73-.56-.54-.74l4.3-4.29c.25-.25.82-.31,1.03-.12l-4.27,4.25Z"/>
  <path d="M300.41,68.45s0-.52,0-.73.67-.03.91-.09l1.92-.46c-.35-.47-.52-.57-1.15-.74l1.52-1.2-.19.91c.16.74.2,1.6-.04,2.45l-1.26-.88-1.71.73Z"/>
  <path d="M239.44,28.64l.65-.85c.12-.15.53.25.73.33l1.83-.35c.78-.15,1.47-.29,2.27-.31-.54.79-1.86,1.58-2.79.8-.08-.07-.38.34-.49.34l-2.21.04Z"/>
  <path d="M164.2,243.05c-.04.09-.61-.05-.61-.15l-.04-.62c-.06-.8.23-2.04.98-2.34.25-.1.68.72.59.95l-.91,2.17Z"/>
  <path d="M300.86,43.14c-.6.48-1.41,1.06-2.09,1.33-.31-.24-.67-.8-.67-1.09s.38-.82.66-.87c.42-.07.88.29,1.19.7l.27-.25c.07-.07.13-.05.62.18Z"/>
  <path d="M245.86,51.37c-.12-.04-.25-.4-.23-.55.03-.19.58-.05.8,0l.53.14c.14.04.46-.36.32-.4l-.88-.25c-.21-.06-.19-.63-.06-.75l1.76.79-.91,1.47-1.33-.45Z"/>
  <path d="M297.59,69.45l-.23-1.5c-.06-.36-.76-.61-1.11-.84l.8-.21,1.92.8c-.6.53-.92.97-1.37,1.76Z"/>
  <path d="M269.53,52.59c.78-.23-.15,1.81-.78,1.85-.31.02-.89-.5-.89-.78,0-.38.5-.73.96-.86l.71-.21Z"/>
  <path d="M269.5,60l-.94-.4c-.19-.08-.59.45-.77.35-.22-.11-.61-.47-.72-.67s.03-.65.2-.8.98-.18,1.12,0l1.12,1.52Z"/>
  <path d="M135.05,87.01c-.85.17-1.81-.56-2.75-.65-.76-.08-1.59-.02-2.28-.37.1-.21.24-.55.36-.5,2.13.75,2.95.49,4.67,1.52Z"/>
  <path d="M279.06,30.13c-.97.55-2.06.76-3.26.62.83-.69,1.95-1.23,3.26-.62Z"/>
  <path d="M303.8,64.36l-.93.72-.75-1.62c.04-.06.33-.49.48-.43l1,.38c.04.1.15.45.14.4l-.66-.14c-.1-.02-.22.33-.13.37l.85.33Z"/>
  <path d="M301,138.95c-1.5-.27-2.86-.93-4.12-1.92,1.56.36,2.82,1.01,4.12,1.92Z"/>
  <path d="M152.96,19.78c-.66-.23-.91-.4-1.39-.68-.62.11-1.32-.1-1.46-.69h1.57s1.28,1.37,1.28,1.37Z"/>
  <path d="M94.27,36.67c-1.7-.42-3.03.11-4-.94l2.28.23c.5.05,1.28.4,1.72.7Z"/>
  <path d="M235.4,179.56c1.48.52-3.84.54-3.49-.33l3.49.33Z"/>
  <path d="M285.22,65.47l1.9-.59c-.64-.19-.66-.16-1.24-.2l.49-.47c.16-.16.97,0,.94.22-.05.35-.27,1.06-.38,1.31l-1.71-.27Z"/>
  <path d="M226.57,195c-1,.72-2.52.28-3.28-.55l3.28.55Z"/>
  <path class="cls-1" d="M203.43,93.18c-.08.08.27-.27.45-.45l-.92-.07c-.16-.01-.16-.34-.18-.43-.64.21-1.05.27-1.64.16-.25.12-.45.29-.12.22.33.27.47.35.43.4-.06.09-.27.34-.27.44l.02.57c.06,1.58-.77-1.11-1.26-.6l-.77.81-.56-1.73c-.23,1.01-.8,2.16-1.58,2.28-.24.04-.77-.53-.96-.43l-.83.44c-.13.07-.6.41-.62.27l-.12-.97c.13-.16-.43-.16-.51-.02l-.32.54c-.35.59.16-.51-1.52-.93-.68-.17-1.17-.27-2-.26.52.57,1.01.74,1.73.95l.62.18c.16.04-.1.48-.18.63s-.42-.02-.76-.11l-.28.68c-.53-.52-.96-.88-1.54-1l.44.69c.1.15-.04.69-.21.72s-.43-.03-.89-.12c-.55-.14-.41-.38.29-.59.36-.2-.11-.37-.33-.23l-1.25.58-.55.96c-.11.18-.69.15-.98.21-1.51,1.02-2.05-.56-3.89.18l1.33.34c.08.02.34,0,.42,0s.18.26.12.32l-.37.37c-2.56-.77-1.93-2.02-3.72-1.32l1.37.69v.52c0,.11-.3.47-.36.38l-.41-.64-.85.2.37.42c.08.09.16.47.04.5l-.75.18-1.63-.78-.18,1c-.05.28-.89.2-1.12.04-.28-.2-.29-.74-.07-1.12.97-1.68,1.8.7,2.92.05-.72-.54-1.17-.79-2-1.24l.47-2.2c-.32-.74-.44-1.44-.18-2.1-.11-.42-.29-1.2-.27-1.75l.1-2.41.07-1.78c2.64-3.26.98-1.64,2.46-4.24,2.04-3.58,2.83-4.03,1.43-6.95l-.92-1.92c-.93-1.94-1.23-6.01-1.09-5.65l-1.06-2.78c-.3-.79-.59-1.27-.4-2.19.59-2.87,1.25-2.91.54-4.21l-.05-.91c-.48-.63-.94-1.42-1.19-2.21l1.08-.79,3.2,1.43c.99.01,2.64-1.75,3.36-2.54.62-.67,1.63-.64,2.45-.76.66-.1,1.4-.32,2.05-.15l2.14.54c-.08.84-.06.96.54.26.24.56.5,1.32.68,1.9l1.03,1.15c.09.1.28.37.35.47s-.52.26-.68.35l.72,1.6c.27.6.48,1.04,1,1.53.02.7-.94,4.09-1.7,4.24,2.72.51-.79,4.25,2.51,4.36,3.56.12,2.72-.87,6.23.6.22.09.65.53.58.74s-.26.66-.31.89l-.67,3.08c-.37,1.72-.34,3.39-.92,5.04l.7,1.68c3.41,1.11,3.92,1.23,7.42,1.24.95,0,1.79.04,2.73.25,4.13.91.43,1.87,5.89,2.37.95.09,1.99.36,2.88.36,1.39-.01,2.67.52,3.25,1.76l.84-.07c.17-.01.24.62.2.8-1.27-.26-2.45-.72-3.61-.01.22.52,2.78-.27,2.8.48v.86s.59-.54.59-.54c.13-.12.49.04.65.15.15.1.01.63-.15.7-2.22.98-.43-.62-2.97-.62l1.43.98c-3.11,1.28-1.64-.38-3.32.85l-1.62-.38-.47.74c-.08.13-.48.04-.7.04l-.94-.03,1.26-.92c-.29-.16-.95-.06-1.23.23-.18.2-.21.61-.3.99l-2.13-.05,1.42-.78c.05-.27-.84-.39-1.26-.24-.34.13-.26.85-.25,1.36l-.58-.35c-.17-.1-.65.24-.82.37l-.46.37c-.11.09-.33-.19-.44-.28l-.82.65.02-.64c0-.11-.48-.1-.5,0l-.06.48-1.89.52c-.18.08-.44-.47-.28-.61l.87-.75-1.19-.48.02.45c0,.1-.12.37-.17.28-.05-.09-.29-.52-.39-.53l-1.76-.14c-2.45.52,1.88.3,1.83.67-.41.33-.71.42-.68.58l.15.8-1.51-.02,1-.78s-.24-.23-.32-.3c.41.4-1.95.16-1.49.43l.45,1.13-1.72-.61ZM191.98,60.29l-2.47-.14-.37.87-.4-.93c-.48.56-.81.81-1.35.96l-.68.19c-.13.04.03.5.14.46,1.86-.51.99.89,3.29.28-.01-.45-.07-.86.07-1.04.55-.67,1.49-.01,1.77-.65ZM199.52,74.87c-.07.05-.44.23-.53.33l-3.14,3.19c1.22.82,5.73-5.03,3.67-3.51Z"/>
  <path class="cls-1" d="M207.25,128.86l.47.71c.12.18-.38.44-.71.67l1.02.16-.52.47c-.12.1-.49-.01-.68-.02.02.06.18.71.03.77-.45.17-1.47.49-1.96.57l-2.23.34.88.45-1.78,1.23c-.46.31-1.25,1-1.16,1.48l.66.55c.13.11-.27.48-.44.75.15.1.85-.03,1.03-.25.08-.09.19-.47.28-.45l.63.2c-1.84,1.34-1.13,2.13-2.93,2.41l-1.45,1.82c-.66.13-1.27.27-1.72.41.79.78,1.13.07,2.21.04-.41.44-1.11.71-1.95,1.03l1.9.7c-.65.48-.43.09-.81,1.08-.05.12-.6.03-.56-.09l.19-.58c-.72.11-1.44.2-1.89.13-.1-.02-.12-.79-.02-.8l.74-.09c.09-.01.31-.32.23-.36l-.72-.36c.47-1.3,1.31-2.75,2.21-3.75.04-.28.21-.86.37-1.05l2.45-2.72c-1.27-.16-2.11-.29-3.12-.33l-3.87-.16c.57-.33.96-.27,1.5-.24l3.03.18c.56.03.97.25,1.27-.28l-4.91-.41c-1.17-.1-2.25-.34-3.51-.59l.49.45c-.94.16-1.71-.07-2.37-.75l-1.53-.44c-.41-.12-1.19-.12-1.63-.09-1.08-.59-2.25-1.16-3.56-1.12l-.73-.68c-1.7-.66-3.24-1.3-4.82-2.18-.93-.52-1.85-.59-2.86-.57l.56-.21c.08-.03.13-.11.06-.15l-.39-.24c-3.91-2.35-7.64-5.19-10.95-8.22l-6.11-5.61c1.96.04,1.6,1.58,4.25,2.35l1.62.47-1.15.4c1.13.41,1.64.72,2.01,1.81.12.36.77.81,1.01,1.12.4.5.96,1.05,1.57,1.53s1,1.13,1.92.65l-.06.58c-.02.21,1.1.72,1.87.5l-.02.27c0,.06.01.31.06.28l.53-.41c.2-.15.62.47.72.69s-.19.61-.39.93c.94,1.04,2.38,1.67,3.87,2.05.35-.15.79-.79,1.03-1.3l-1.14.36,1.33-1.2,2.89,1.43-2.69-.47c.04.17.11.46.12.47.02,0-.23.06-.5.11-.04,0-.06.28.01.31.76.27.97-.26,1.14-.04l.37.5c.05.07.44.25.48.16l.29-.64.58,1.07,1.6.64c.8-.04,1.57,0,2.06.61l.42-.87c.7.01.8.04.1.23l.48.32c.13.08.39-.22.53-.31.78.4,1.56.71,2.41.93l4.36,1.14c3.07.8,10.31,2.16,13,1.03,1.7-.71,3.09-2.87,3.48-3.11,1.96-1.22,3.82-2.27,5.84-3.31,3-1.55.74-.7,3.75-1.17.12-.02.31-.7.41-.62l.54.43c.19.15-1.92,1.25-2.67,1.18l-.9-.08c-.18-.02-.38.62-.24.74l.87.69-1.77.65c-.15.06-.56-.49-.72-.44s-.48.16-.66.28l-1.47.95-.5.27c-.12.07-.14.3-.2.47l-1.46.81-1.29.76ZM192.17,130.65c1.01.74,2.09.64,3.08.05l-1.61-.46c-1.55-.45-2.08.32-2.08.32.06.05.25.23.23.22s.27-.09.39-.12Z"/>
  <path class="cls-1" d="M236.52,68.32l1.5,1.59c-.65.49-1.08.99-.95,1.81l-.85.73-1.26-.95c-.11-.08-.13-.62-.14-.76s-.52-.26-.57-.13l-.34.81c-.04.1-.41-.1-.51-.04l-.52.3,1.38.97-.85.56c-1.23-.97-2.55-1.48-4.02-1.98l-.92-.32c-.25-.08-.57.51-.75.89l-.89-.28c-.42-.14-.81-.31-1.22-.53l.69-.03c.11,0,.32-.16.36-.2l-1.04-1-.5,1.35-.29-.54c-.05-.1-.41.03-.56.03l-.81.02c-.17,0-.11-.33-.13-.66-.36-.18-1.11-.58-1.49-.64l-1.46-.21-1.66-.28,1.47-.64-1.42-.57.19-.29c.08-.11.21-.27.1-.34-.14-.09-.44-.26-.45-.15l-.07.66-.14,1.11c-.04.29-.87.39-1.15.29s-.4-.59-.58-.94l-.47.19c-.08.03-.42-.01-.36-.08l.42-.5s-.29-.41-.42-.32l-.7.5.18-1.11c.04-.25-.51-.5-.77-.68l-.35-.25c-.07-.05.02-.38.1-.35l.42.17c.65.26,1.45.26,1.68-.49l-1.37-.59,1.72-.54-.06,1.83c0,.29,1.05.37,1.05.24-.19-.31-.46-.58-.39-.74l.34-.69.17,1.03.63-.85c.26.35.4.48.34.61l-.35.77c-.05.12.5.21.53.08l.18-.64.14-.49c.03-.1.35.28.44.34.44.08,1.09-.67,1.25-1.19.35.42,1.74,1.07,2.32.73l1.41-.82-.46,1.19c.22,0,.54-.09.62.04l.39.63c.4-.23.89-.35,1.48-.28l.92-1.71c.27.68.02,1.14-.36,2.03.6.06.98-.3,1.62-1.01l-.08,1.02.36-.12c.06-.02.32-.05.27,0s-.2.44-.26.46l-.87.28-.47-.32c-.13-.09-.48.26-.48.32l1.2,1.35-.71.44c-.13.08.2,2.32.67,2.3l.14-2.43.92,1-.07-.73c-.02-.17.58-.11.76-.11.16,0-.03.45-.04.92l1.28-1.65c.76-.26,2.02-.04,2.83-.2l1.81-.34-.24,1.51.49-.39Z"/>
  <path class="cls-1" d="M142.02,62.9c-1.16-.22-2.37-.68-3.6-.82l-3.65-.4,1.18-.39c4.11.54-1.55-.28,3.16-1.09l-.58-.36c-.11-.07-.1-.42-.02-.52.65-.73.51,1.09,2.62-1.17l2.48-.37c.01-.13-.04.39-.05.56.3,0,1.05.15,1.2.45.13.25.08.65,0,1.04l.33.48c.09.14-.17.42-.34.63.31.29,1.05,1.08,1.35,1.51.11.16-.64.61-.83.56-.23-.05-.22-.22-.38-.84-.67-.18-1.52-.28-2.32-.3l-1.35-.57c-.07.13-.18.57-.05.7l.88.9ZM144.4,60.68l-.4-.63-.45-.53c-.64-.77-.98.8-1.97.97,1.45.76.24-.93,2.82.19Z"/>
  <path class="cls-1" d="M168.16,65.43l-.34-.55c-.08-.12-.36-.07-.77-.06l.6-2,.45-1.5c-.07-.2.84.15.75.36-.19.44-.69,1.03-1.11,1.52-.82.94,2.09.17,3.03,1.03l-.23-.97c-.12-.51,1.37-.44,1.36-.42l.33-.78c.22.03.21.72.12,1.23l.78,1.26c-.22-.93.14-2.02.89-1.98l.87.04c.22.01.31-.82,0-.75s-.07-.59.06-.79.98.18.93.41c-.13.62-.67,1.53-.95,1.94-.11.16.42.67.33.84l-.43.76c-.29.52-.76.29-.27.47l.58.21-.93.81.14.59c.03.12-.22.34-.34.33-.68-.03-.64-1.1-1.16-.95-.8.22-.51.98-.94.79-.08-.04-.28-.11-.39-.14-.38-.12.98-.97.39-.81l-.62.17c0-.54.48-1.4.93-1.86,0-.06-.22-.54-.32-.47l-.65.5c-1.49,1.14-.32.09-2.02.9-.03.01-.18-.16-.18-.22v-.55s-.87.66-.87.66Z"/>
  <path class="cls-1" d="M206.48,42.72l-2.16-.06-.42-1.43-.58.03c-.11,0-.17-.22-.38-.61l2.01-.26c.33-.04.77-.6.82-.93l-.8-.03c-.14,0-.06-.41.07-.46l.71-.25c.17-.06-.09-.47-.27-.73s.55-.96.87-.87c.39.11.8.62,1.08,1.12l.69-.91v1.25s1.22-.09,1.22-.09l.05,1.87c0,.18-.18.83-.32.75l-.95-.59-.69,1.33-.37-.42c-.12-.14-.7,0-.68.17l.11,1.13Z"/>
  <path class="cls-1" d="M251.97,69.91l-1.09-.65-.84-.05c-.18,0-.31-.64-.13-.57l2.42-.27c.46-.05,1.38.42,1.98.1l.39.57c-.53.28-.94.72-.83,1.18l.13.56c.02.11.34-.13.37-.23l.14-.57c.04-.16.47-.16.7-.2l-.04-1.6c-.01-.51.73-1.37,1.07-1.87.1.05.41.24.38.36l-.23.75c-.19.63-1.01,1.98-.35,1.47l.52-.4c.23-.18.7.54.68.83-.03.42-.53.79-1,.81l-1.3.07,1.28,2.01c-1.44.15-3.01.33-3.99-.87-.09-.11.22-.34.33-.51l-.42-.44c-.1-.11,2.43-2.22.44-.83-.08.05-.18.11-.6.35Z"/>
  <path class="cls-1" d="M204.25,135.57v-.86s.41-1.26.41-1.26c.53.47,1.39.72,2.09.56l.72-.17c.12-.03.04-.55-.08-.58l-.64-.18-3.08.03s.07-.48.2-.49.44.01.59,0l2.9-.37c.37-.62.92-.89,1.29-.68l-.86.59,1.73.02c.19-1.36,2.42-2.45,3.24-2.26-.42.75-1.4.77-1.85,1.2l-2.37,2.33-1.24,1.73-1.61-.76s-.25.52-.11.57l.69.24-.96,1.75-1.4-.23c-.14-.02-.41-.47-.31-.57l.64-.6Z"/>
  <path class="cls-1" d="M262.99,120.39c.83.16,1.8-.86,2.52.55-1.34.43-5.73-.82-5.67-.82l-4.84-.28-5.8-.14c-.87-.02-1.69-.04-2.61-.12l-.6-.05c-.08,0-.06-.18-.02-.25.48-.65,1.86.78,4.14-.6l-.7-.36,3.71.11c-.33.32-.49.34-1.02.57l1.33.11c.14.01.53-.29.67-.32s.17.17.32.53l4.8.34,2.51.16-.5.32c.66.08,1.18.14,1.75.25Z"/>
  <path class="cls-1" d="M177.82,149.75c-2.37-1.23-3.6-1.73-6.06-2.06-5.38-.72-10.27-.84-15.56.95-.68.23-1.41.38-1.96.34l2.15-1.13c.5-.26,1.58-.11,2.34-.35,3.09-.96,4.79-.2,5.2-1.23,1.11.97,1.78-.28,3.19.42l.52-.17c.14-.05.41.19.56.26l3.28-.13c1.03,1.44,2.79,1.04,3.09,1.1.35.07,1.01.46,1.36.5l1.66.19.22,1.31Z"/>
  <path class="cls-1" d="M217.09,127.47c-.27-.89-.87-.43-1.65-.29.33-.84,1.21-.93,2.04-1.14l3.22-.79-.33-.27c-.06-.05-.11-.11-.05-.17.05-.05.35-.28.42-.29l1.17-.28c2.01-1.58,2.44-.18,3.49-1.81.31.1.9.33,1.23.54l1.17.03c.45-.18-5.68,2.46-5.31,1.42.04-.1-.06.18-.15.42-2.44.91-3.32,1.85-5.26,2.63Z"/>
  <path class="cls-1" d="M226.06,45.26s-.32.46-.5.43c-.22-.05-.62-.21-.93-.35l-.59-.26c-.08-.04.77-1.05.94-.76l.39.65.2-.49c.03-.08.23-.27.28-.2l.32.47c.05.08.11.56.18.5l.5-.35.65-.47c.17-.12-.02-.54-.08-.89.99-.17,1.96-.15,2.92.14l-.46.79c-.08.15.08.59.19.66l1.09-.35-.77.74c-.13.13.18.38.36.57l-1.36.14c-.26.03-.27.28-.56.81l-1.74-1.28c-.14.11-.4.4-.48.29l-.56-.79Z"/>
  <path class="cls-1" d="M137.21,60.05l-1.87.82c-.88.39-3.11-1.82-3.04-1.42l-.09-.48c-.06-.3-.16-.58-.07-.74s.6-.23.78-.18l.83.25c.2.06.38-.51.53-.79l1.47.22c-.08.87-.12,1.07-.43,2.01l1.89.31Z"/>
  <path class="cls-1" d="M210.38,59.01l.8.95c-.43.17-1.01.26-.99.47l.05.89-1.89.58c-.48.15-1.4.08-2.07.07l.43-.45c.31-.32-.35-.21-.26-1.11,0-.09-.44.07-.51.01-.29-.24-.36-1-.29-1.43l.06-.63c.02-.18.55-.22.73-.19s.05.62-.06.76l-.31.38c-.05.06.04.31.11.29l.73-.24.07.71c.02.17.73.26.76.09.05-.29.19-.87.37-.81l.75.23c1.05.33-1.75,1.87-1.38,2.12.33-.08,2.83-1.66,2.91-2.66Z"/>
  <path class="cls-1" d="M182.52,173.82c.05-.03-.45.46-.64.61s-.71-.37-1.05-.52l-.35.47c-.08.11-.54,0-.67-.05-4.64-1.74-4.56-.07-8.8-1.42l.97-.31c2.05.41,4,.83,6.01.61.48-.05.93.14,1.34.44.07-.35.64-.98.98-.9l1.47.35-.11.52c-.01.07.16.07.84.19Z"/>
  <path class="cls-1" d="M197.61,63.11c-.13.03-.28-.56-.35-.67s-.37.16-.69.39c-.19.32-.29,0-.28-.51,1.17-.15,2.15-.21,3.31-.19l-.86-.63,1.23-.42c.21.15,1.02.69,1.11,1.06l.33,1.29-1.27.98-1.05-1.63-1.48.35Z"/>
  <path class="cls-1" d="M271.43,121.94c3.49,1.1,1.45.25,3.92.41l.6.04c.09,0,.21.29.14.34l-.6.43,1.6.63c-2.61-.19-1.65-.66-3.62-.98-2.78-.46-5.26-1.1-8.1-1.78.52-.29.86-.44,1.36-.63l-.49.61,2.22-.33c.35-.05.95.45,1.05.7.25-.22.69-.67.96-.67s.74.18,1.04.3l.27.11c.06.03.24.14.2.19l-.54.63Z"/>
  <path class="cls-1" d="M152.31,64.6c-.26-.37-.79-1.16-1.23-1.29-.57-.17-1.36-.06-1.88.12l-.27-.35c-.07-.1-.33.07-.49.16l-.94-.72,1.99-.53c.2.42.3.57.27.38l.75-.68c.32-.29.8,1.1,1,1l.67-.32s.19.37.08.42l-.67.26.68.3c.16.07.14.42.22.67l.37.23c.07.05.11.13.16.2.05.07-.66.22-.71.15Z"/>
  <path class="cls-1" d="M162.16,37.77l-.47.67c-.12.18.32.57.43.67l-1.12.58c-.28-.34-.56-.95-.73-1.5l-.25-.79c-.05-.17.55-.28.88-.39l-.54-1.62c.73-.31,1.06.92,1.5.88l1.1-.09-1.39.91c-.11.07-.11.66-.13.8-.02.17.44-.05.72-.11Z"/>
  <path class="cls-1" d="M212.2,67.86l-1.64-1.42.88-.28c.18-.5.47-.94.89-1.18.35-.19,1.33.13,1.36.53-.51,1.16-.31,1.67-1.13,1.64l.12.48c.03.11-.38.33-.49.24Z"/>
  <path class="cls-1" d="M208.57,63.85c.03-.39-1.43.41-3.26-.58,2.73-.52.67.74,4.92-.93.03.07-.16.5-.05.51l.94.1c-.65.86-1.68,1.41-2.6,1.65l.05-.75Z"/>
  <path class="cls-1" d="M153.37,146.91c-1.11-1.27-1.58.23-3.88.51l.87-1.34c1.18-.2,1.99-.51,3.4-1.21l-.39,2.04Z"/>
  <path class="cls-1" d="M159.45,146.77c-1.17.21-2.18.29-3.16.38-.62.06-1.31.7-2.34.18.88-.85,1.95-1.14,3.15-1.04.79.07,1.53-.44,2.35.47Z"/>
  <path class="cls-1" d="M169.15,40.69c-.63-.38-.94-.75-1.13-1.37l-.8-.19.49-.77c.11-.17-.46-.47-.59-.54l.14-.71c.92,1.51,1.6.51,1.23,1.97.57.17,1.51.62,1.77,1.19-.13.42-.8.6-1.11.42Z"/>
  <path class="cls-1" d="M241.67,117.41l-2.45.29c-1.18.14-2.28.38-3.46-.22l2.43-.42c1.06-.18,2.15-.16,3.26-.08.54-.13.72-.13.22.43Z"/>
  <path class="cls-1" d="M175.01,123.23l-1.84-.25c-.35-.18-1.04-.72-1.39-1.04-.17-.15.59-.95.77-.8s.27.32.42.6l1.71.64c.24.09.57.87.33.85Z"/>
  <path class="cls-1" d="M172.82,51.43c-.39-.17-.97-.61-.99-.99,0-.29.55-.78.77-.79l-.03.69c0,.12.23.46.29.36.1-.15.24-.52.23-.71-.04-.58.68-1.25,1.25-1.24-.48.9-.87,1.76-.41,2.76.32-.11-.18.31-.31.26l-.82-.35Z"/>
  <path class="cls-1" d="M167.71,144.77l.08-.48c-.93-.02-1.73.16-2.44-.47,1.75.01,3.24.35,4.95.68-.72.82-1.78.89-2.59.27Z"/>
  <path class="cls-1" d="M264.46,70.85l-.15,1.71c-.42.05-.99-.29-1.33-.73-.2-.26-.09-.64.12-1.25.08-.23.22-.46.35-.48s.64,0,.62.13l-.12.87c-.18.21-.04.12.51-.27Z"/>
  <path class="cls-1" d="M205.58,45.78c-.82.53-1.39-.46-2.17-.83l-2.89-1.38,2.44.31c.86.79,1.45,1.2,2.62,1.9Z"/>
  <path class="cls-1" d="M157.38,60.83l-.62.42c-.12.08.03.27.16.53,0,.03-.34.52-.42.41l-.41-.57-1.9.45.33-1.62.46.93c.24.49,1.2-1.03,2.4-.55Z"/>
  <path class="cls-1" d="M266.72,118.7l-2.22-.07c-.52-.02-1.36-.52-1.82-.58l-1.72-.22c2.28-1.15.51.4,5.86.55.08,0,.48.34.4.34l-.5-.02Z"/>
  <polygon class="cls-1" points="153.91 60.32 152.09 60.3 152.5 59.57 151.57 58.34 153.42 58.99 153.91 60.32"/>
  <path class="cls-1" d="M170.42,120.68l-1.06.26c.2-.57.38-.89.33-1.11s-.52-.81-.48-.56c-.64.11-1.12.05-1.8-.03.43-.61.85-.95,1.39-.77.66.21.95.72,1.34,1.29.45.66,1.94.15,1.98,1.33l-1.7-.41Z"/>
  <path class="cls-1" d="M197.29,43.22c.12.1-.1.5-.23.58-.43.26-1.24-.17-1.55-.69-.13-.22.45-.81.69-.86l1.09.96Z"/>
  <path class="cls-1" d="M151.86,105.28c.05.02-.65.2-.78.07l-.54-.59c-.54-.54-.99-.98-1.12-1.8l1.46,1.21.98,1.11Z"/>
  <path class="cls-1" d="M240.12,120.34l-3.27.41c-.19.02-.69-.06-.83-.1-.13-.03-.11-.21-.11-.61l4.21.3Z"/>
  <path class="cls-1" d="M245.44,70.84c0-.11.11-.89.15-1.15l.89.37c.19.08.52-.24.93-.56-.06-.11.14.25.26.48.6,1.12-1.29-.01-2.23.86Z"/>
  <path class="cls-1" d="M152.47,147.98c-.52.67-1.14,1.12-2.19.74l1.82-1.14.35-.2c.08-.05.45.05.39.12l-.38.49Z"/>
  <path class="cls-1" d="M214.32,64.58l-.28-.71c-.44.45-.98.44-1.38.01l1.22-.65,1.32.73-.88.61Z"/>
  <polygon class="cls-1" points="216.58 68.89 213.21 69.35 215.46 68.2 216.58 68.89"/>
  <path class="cls-1" d="M248.85,116.94c-.92-.64,6.54-.13,3.99.12-.08,0-.43.07-.52.07l-3.47-.18Z"/>
  <path class="cls-1" d="M266.88,70.82v-1.16c-.19-.1-1.01.2-1.61.48-.04-1.18,1.24-1.06,2.4-.67l-.79,1.34Z"/>
  <path class="cls-1" d="M204.49,38.8l-.47.59c-.11.14-.57-.35-.48-.51l.9-1.63c.43.6.39,1.1.04,1.54Z"/>
  <path class="cls-1" d="M166.93,60.24l-.21,1.88c-.55.06-.68-1.3-.65-1.85.01-.19.84-.21.85-.03Z"/>
  <path class="cls-1" d="M183.86,40.36c-.94,1.31-2.25.95-3.5.89l3.5-.89Z"/>
  <path class="cls-1" d="M287.97,68.12c-.06.18-.36.51-.53.57s-.57-.09-.7-.22c-.35-.36.98-2.32,1.85-2.25l-.62,1.9Z"/>
  <path class="cls-1" d="M290.35,67.86l-1.92.55c.01.09-.06-.4-.09-.55-.03-.19.49-.36.71-.39l1.71-.23c-.03.19-.27.58-.41.62Z"/>
  <path d="M191.98,60.29c-.28.63-1.22-.02-1.77.65-.15.18-.09.6-.07,1.04-2.3.61-1.43-.79-3.29-.28-.11.04-.27-.43-.14-.46l.68-.19c.54-.15.88-.39,1.35-.96l.4.93.37-.87,2.47.14Z"/>
  <path d="M199.52,74.87c2.07-1.51-2.44,4.33-3.67,3.51l3.14-3.19c.09-.1.46-.27.53-.33Z"/>
  <path d="M192.17,130.65c-.11.03-.41.11-.39.12s-.17-.17-.23-.22c0,0,.53-.76,2.08-.32l1.61.46c-.99.59-2.07.69-3.08-.05Z"/>
  <path d="M144.4,60.68c-2.58-1.12-1.38.57-2.82-.19.99-.17,1.33-1.73,1.97-.97l.45.53.4.63Z"/>
</svg>