<?xml version="1.0" encoding="UTF-8"?>
<svg id="Layer_2" data-name="Layer 2" xmlns="http://www.w3.org/2000/svg" viewBox="0 0 432 288">
  <defs>
    <style>
      .cls-1 {
        fill: #fff;
      }
    </style>
  </defs>
  <path d="M231.58,133.87c.15.16.44.43.63.39l.8-.15-.8,1.35c.45.14.69.14.74.29l.21.58c.22,0,.83-.06.87.12l.21,1,1.62-1.58c.09-.09.58,0,.69.04.08.03-.04.26-.11.29l-.45.18c-.17.07-.65.49-.49.58l.65.38-.87.35c-.14.06-.08.59-.04.63l1.92.46-2.17.11c-2.18,1.32-2.49-1.09-3.16.72l-.37-1.17-1.6-.18c.12-.45.87-.34,1.51-.14l-.73-1.62c.46-.12,1.21-.39,1.26-.74l.18-1.29-.81,1.16-.04-1.57c0-.1-.13-.48-.05-.43l.4.22Z"/>
  <path d="M188.97,179.61l-.95-.3.37-.2.22-.3c.05-.06.13-.39.16-.32l.24.72c.87-.4,1.21-3.59.42-4.02l.94-.36c.19-.07,0-.51,0-.78.04-1.46-1.08-1.42-.44-2.37.19-.29.58-.25,1.14-.24l-1.02-.59c.03-.12-.04-.14.62-.16.31.59-.04-1.29.3-1.24l.65.09-.87-1.56.44.06s.22-.12.18-.1c-.06-.43-.14-.69-.03-.78l.5-.37.41-1.17h-.9s1.33-1,1.33-1l-.74-.6.58-.27c.24-.11.2-1.15.41-1.02l-.77-.47c-.27.04-.03,0,.41-.06l.56-.46c.12-.1,0-.51-.13-.56l-.89-.32,1.18-.27-.93-1.71.78-.52c.13-.09-.23-.47-.36-.63l.77-.64-.25-1.21c-.02-.08-.25-.28-.29-.34s-.04-.35.03-.33c.11.04.66.28.63.17l-.31-1,.96-1.47.34-.52c.09-.14-.35-.34-.58-.46l1.12-1.43-1.03-.48c1.58,0,1.26-2.64,1.56-2.16l-.27-.44c1.16-2.42-.82-.8,1.33-2.45l-.76-.11c-.17-.03-.13-.33-.19-.63l-.12-.62c-.03-.13.31-.32.42-.44v-.33c-.02-.07.01-.36.06-.31l.51.49.42-.89c.05-.1.15-.37.18-.44.04-.11-.34-.1-.62-.13-.12-.01-.07.13-.05.45l-.21.16c-.07.05-.22-.24-.18-.32l1.14-1.99-.13-.4.22-.41-1.26-.28c.41-.41.59-.38,1.23-.36-.23-.62-.57-1.58-.51-2.13l.73-1.28.36.26c.08.06.26-.12.44-.27l-.81-.55c-.11-.07-.14-.49-.03-.54l.76-.36c.18.06-.14-.05-.31-.11l-.84.18.6-.49c.16-.13-.13-.72-.04-.89l.83-1.04c-.27-.25-.5-.53-.55-.75-.65-2.87,1.47-1.95.37-4.83l.31-2.34c-.45-.31-.53-.37-.44-.3.32-.25.4-.31.47-.35.1-.05,0-.38-.03-.29-.38-.14-.62-.33-.84-.55-.89-.96,1.53-1.22,1.54-2.06l.02-2.03c.36-.05.65-.06.7-.21l.19-.58-.59.2c-.09.03-.13-.4-.04-.42l1.33-.35-.23-1.89-1.22-.85c-.39-.02-.5-.02-.4-.02l.23-.65c.04-.11.29,0,.52.02l.56.05c.08,0,.13.06-.38-.4-.28.31-.05.05.27-.31.07-.03.22-.09.27-.09l.47-.03c-.25-.92-.43-1.42-.79-2.35-.36-.08-.16-.03.14.03l.36-.06c.11-.02.22-.31.13-.36l-.63-.29c.05-.14.2-.52.13-.33l.57.24c.1.04.35-.44.32-.54l-.5-1.47,1.11-.53c.07-.03.04-.46-.03-.43l-.58.23.14-.46c.46-.39.83-.85,1-1.22l-.51.29-.32.19c-.53.31.77-1.07-.23-1.89l.27-1.45c.07-.39.56-1.12.79-1.49l.82-1.04c-.2-.56-.2-.96-.14-1.56l.06-.6c.01-.12-.24,0-.65.12v-.5c.39-.06.55-.08.64-.11.13-.04-.08-.47-.08-.61s-.65.32-.61.19c.06-.19.22-.68.27-.89l.27-2.24c.05-.45.15-.84.29-1.22l.93-2.63c.05.07-.1-.15-.19-.3l-.65-.76c-.14-.17.48-.54.7-.68l-.31-.17c-.11-.06-.07-.42.04-.4l1.09.16c.32-.31.44-.38.34-.44l-.73-.38c-.11-.06-.39.23-.47.33s-.16-.26-.19-.37c-.12-.61,1.48.05,1.26-.56l-.35-.97c-.21.15-.38.27-.35.25.17.78.16.94-.08.41-.21-.22-.48-.71-.32-.78l.67-.3.46-2.06.49.27c.09.05.37-.03.35-.14l-.11-.55-.83-1.14.96-.69.65.1-.82-.6-.22-1.58M188.15,182.72,187.55,184.44,187.09,186.38c.06-.09.43-.3.34-.36M177.39,215.47c-.12-.2-.44-.53-.4-.68.05-.19.38-.43.58-.64l.78-.86M168.77,240.51c.21-.09.32-.47.13-.81l.44-.6c.14-.19-.06-.86.04-1.08.32-.61.99-1.77-.02-2.38l1.02-.43-.4-.56c-.12-.16.22-.47.51-.93l-1.3-.17.94-.48c.37-.19.09-3.32.72-5.42.14-.48-.68-1.37.21-1.6l.21,1.51.58-.7c.1-.12.47-.03.65-.04l1.13-2.42.23-1.18,1.32-.61c-.24-.43-.6-1.05-.32-1.21s.96-.38.89-.6c-.09-.29-.32-.76-.53-1.19l.96-.48c.26-.13.14-.84.22-1.15l.38-.43c.08-.09-.07-.3-.15-.38s-.43,0-.46.11l-.23.69c-.04.12-.33-.07-.41-.17M164.73,249.71l.42,2.07c.1.5-.24,1.61-.34,2.17-.73.9-1.9,1.56-1.77,3.08.63-.47.93-1.17,1.37-1.88.42-.67,1.4-1.45,1.33-2.26-.06-.73.22-1.33.57-1.73.26-.3.35-1.05.46-1.37l.25-.68c.06-.15-.26-.42-.37-.58l1.15-1.81c-.55-.9-.47-1.71.3-2.24l.08-2.07M206.1,72.18l-.14.8c-.15.22.06.1.4-.16h.37c.45.09.89.14.24-.14l.07-1.55c-.2-.45-.16-.76.26-.43l.05,1.08c0,.13.01.48.11.46l.63-.11c-.14.03-.71-1.76-.33-1.67l-.82-.2,1.42-1.41-.32-1.46c-.09-.42.41-1.13.66-1.29-.35-.31-1.07-1.08-1.04-1.35l1.01-1.08-.78.36c-.16.07-.4-.18-.51-.31,1.15-.39,1.16-1.79.97-2.67.07-.05.53-.41.45-.51l-.9-1.16.36-.72c.07-.15-.23-.38-.44-.62.03-.1.13-.38.1-.29.41-.13.44-.13.39-.21l-.47-.69,1.01.21c.12-.35.26-.92-.08-.37-.88-.37-1.32-.85-1.83-1.56l-1.55-.23c.52-.53,1.15-.55,1.78-.27l1.45-.81c.12-.07.49.25.39.36-.35.2-.75.36-.67.45.11.12.55.47.62.32.14-.28.46-.98.31-1.21l-.72-1.07,1.27-.42-.91-1.63c-.04-.07-.28-.3-.34-.34-.25-.18,1.07-.31,1.01-1.02-.08-.64-.12-.57-.53.03l-.3-.75-.24-.54,1.34.17c0,.21,0-.12,0-.44l-.56-1.57c-.18-.5-.58-.98-1.07-1.56.91-.15,1.74-.6,2.27-1.22l-.55-.19c-.08-.03-.27-.24-.2-.29l.54-.35c.46-.3-.07-.98-.14-.94l-.75.45-.07-1.58c0-.08.31-.43.33-.36l.13.47.17.64c.03.12.35-.03.67-.13.45-.16.63-1.44.21-1.8l1.14-.7-1.41-.55.72-.73-.31-.56c-.1-.18.25-.64.46-.67.28-.05.58-.11.72-.17.18-.08,0-.79-.2-.74-.09.03-.39.2-.41.12l-.12-.4c-.04-.12.25-.2.6-.32l.21-.63-.71.15.08-.56s-.93-.43-.89-.25l.13.5.12.48c.04.17-1.02.16-.98,0,.02-.1.1-.43.14-.52l.64-1.4c.03-.48.08-.38.22.11.1.51.14.6.17.07l-.17-2.3.55.83c.38.57,1.84-.06,1.95-.63l-.41-.96c-.09-.21.5-.51.73-.67l-.38-.58s.34-1.24.66-1.68l.31-.43c.06-.08-.32-.3-.22-.36l.48-.27c.07-.04.13-.25.06-.29l-.74-.42,1.07-.33-.21-.32c-.04-.05-.33-.18-.27-.2l.68-.21-.24-.95,1.41-.47-.4-.48c-.38-.45,1-.29,1.63-1.33.27-.45.15-1.12,0-1.67l-.45-1.71c.53.52,1,.9,1.71,1.29l.14.76,1.56-2.6c.59.17,1.16.13,1.23-.15.11-.44.17-.91.35-.92.22-.02.83.07.74.26l-.23.53c-.03.07.08.21.12.29.05.1.35-.24.38-.35l.38-1.18.74.66-.12-.65c-.11-.57.68.02,1.28-.35.11-.06.32-.47.42-.41l.61.39c.06.04.33-.16.37-.21l.18-.17c-.13-.24-.35-.56-.21-.57l.72-.05c1.02-.07,2.57-.04,2.89-1.59l.65,1.95c.08.47.11.52.08.02l.27-.71s1.86.82.97.11c-1.37-1.09-.92.07-1.18-.79-.06-.18.39-.56.62-.56,1.27,0,.7-1.61.97-2.19.04-.08.26-.34.28-.25.04.13.18.66.15.79l-.56,2.49c-.02.1.13.5.16.6.22.81.29-.86.61-.41.04.06.21.3.21.29,0,0-.16.25-.21.33l-.23.37c-.24.39.93-.31,1.38.14.33.34,1.19.71,1.61.36h.5c.14-.01.27-.39.3-.53-.59-.38-.43-.36-.1-.33l.74-.13c.16-.03.25.32.31.56l.15.62c.04.17.53-.11.91-.3l.37.74.99-1.38-.68,2.35.88-1.3.45,1.1.34-.41c.05-.05.28-.14.26-.07-.31,1.5.48-.47,1.59,1.05l.32-.27s.28-.23.28-.2c0,.04.05.26.11.55l.51-.58h.16s-.06.32-.06.32c-.02.09-.02.16.04.15.09-.02.62-.11.6-.1l-.44.86,1.91-.24c-.58-.35-.85-.52-.52-.32l.84-.15c.51-.09-.48,1.48.03,1.55l.48-.81c.07-.12.34-.12.4,0l.31.61c.14.28,1.09,1.49.68,2.02l.29-.37c.37-.47.78-.68,1.63-.56.37-.03.5-.07-.09.52.18.36,1.26,1.21,1.95.88.16-.08.42-.18.4-.1s-.08.33-.15.38l-.52.36c-.1.07.17.39.26.52l.36.55c-.23.19-.14.12.27-.22l.49.71.1-.88c.01-.12.12-.07.8.18.04-.05-.06.09-.11.17-.14.21-.31.47-.23.45l.91-.15c.45-.08.51,1.08.38,1.55l-.12.44c-.02.09.34.22.38.14l.29-.58c.34.11,1.08.53,1.39.81l.44.14c.07-.27-.02.06-.09.36-.3.28-.6.58-.19.32l1.68-.36-.83.64,2.04,2.49c.24.3.12,1.12-.12,1.33l-.47.41c-.08.07.29.2.34.26.52.42.93.69,1.58,1.06l-.57.75c-.13.17-.25.57-.26.82-.01.22.43.52.52.71l.34,1.21c.08.29.58.26,1.17.45.09.1-.49.64-.75.72l-.33.1c-.16.05-.1.93.02.83l.31-.29.72-.67.11.87c.03.25-.42.33-.93.52l.74.77.2.38-.62,1.18c-.15.28-.29.94-.35,1.23-.02.08.3.41.32.33l.14-.53c.08-.31.55-.67.96-.98h.66c.3.58-1.53.7-1.32,1.1l.23.44-.5.38c-.3.27-.39.36.06.09l1.52,1.03c-.62.07-1.06-.02-1.33-.21l-.16.3c-.05.09-.19.49-.08.49l.47-.03c.16.16.83.75.64.91l-.8.7-.35.3c.51-.09,1.45-.11,1.73.25.07.08.14.41.16.51s.27-.17.38-.24l1.34-.82c.99-.6-.05-.36,1.52-1.25.07-.04.12.29.07.34l-.31.32c-.22.22-.51.64-.74,1.05,1.01.24,1.9.06,2.23-.72l-.54.1c-.07.01-.27-.29-.28-.37-.11-.85.85-1.73,1.74-2.05l.63-1c.04-.06.41-.12.48-.16s0,.21-.04.27l-.71,1.09c.99-.5,1.45-1.22,2.21-1.95l.31-.29c1.57-1.51-.5,1.17-1.27,1.97-.59.61-1.62.81-1.6,1.81,1.6-1.06,2.67-2.43,3.72-3.85.06-.24.14-.56.05-.26l-.74-.26-.96.65c-.06.04-.45-.17-.41-.23l.18-.26.72-1.33.14.96c.88-.43,3.96-4.91,3.45-3.44-.67,1.79-1.58,1.98-2.13,3.53.82-.61,1.36-1.47,2.18-2.56.49.4.34,1.58-.03,2.02l-.16.68.31-.05.54-.39c.16.57.17,1.25-.11,1.58l-1.36,1.61-1.66,2.01c-1.39,1.69-3.24,2.29-6.1,5.4-.6.66-2.06,1.41-2.75,1.93-.39.3-.18,1.2-.42.93l-.33-.39c-.15-.18-.63.38-.75.64l.82.16.4.53c-.09.14-.21.32-.14.21-.38-.17-.69-.34-.88-.31s-.42.35-.54.53c-.06.08.49.96,1.37.99l-.51.97.11,1.14.33-.07c.1-.02.17-.03.17.03-.15,2.05.45-.3.12,1.88-.03.19.21.6.38.63l.72.11c.12.02-.27.35-.33.45l-.51.93-.2-.75c-.15.29-.47.69-.33.79l.61.47-.08.27-.14.5c-.02.09-.11.1-.16.03l-.29-.51c-.05-.09-.24.04-.39.13-.33.19,1,.87.8,1.18-.12.18-.33.44-.57.71-.18.21-.15.78-.04,1.06l.35.9.16-.71c.03-.11-.01-.06.49-.26-.03-.36.04-.18.15.22l-.82,1.19c-.07.02-.04.05.38.4l.16-.43.16-.43c.42-1.14.1,1.83.53,1.78.18.4.36.79.19.36.26-.7.35-.83.44-.32.03.71.06,1.43.53,1.92.14.15.15.57.23.82l.63,1.86c.03.09-.02.58-.09.54s-.39-.22-.44-.28l-1.29-1.43-.67,1.12c-.06.11-.13.55-.16.71-.03.17.45.02.68-.02.08.02.38.4.27.48l-.64.48.81.52c-.11.53-.05,1.23.23,1.68l-.48.15c-.11.03-.04.07.21.36l-.03.46c0,.12.44-.05.56-.02.14.03.56.34.51.48l-.24.65c-.03.08.06.47.14.47l.49.04c.09,0,.45-.03.4.04l-.38.59.69,1.58c.91,2.07,2.69,1.15,1.83,1.66l-.59.35c-.15.09-.5.07-1.04.1.38.8.78,1.56,1.3,2.4l-.34-1.78c1.31.71,1.35,3.67,1.55,3.99.5.23,1.03.59,1.24.84l1.44-.24c.29-.07.1.15-.18.46l-.98.59.59.84.46-.44c.11-.1.3.53.21.64-.23.28-.56.88-.43,1.22l.99,2.56.73,1.71c.33.78.65,1.39.74,2.2l.16,1.54.22.66c-.15.23-.38.6-.27.7.15.12.59.47.56.44l.36-.56c.04-.06.12-.05.16.03l.26.51c-.48.41-1.31,1.33-.68,1.95.18.17.74.57.68.79-.23.7-.27,1.97-.14,2.77l.15.91c.06.35-1.22.47-1.18.75.02.13.08.54.07.46.37.12.55.17.35.11l-.62,1.39,1.43-1.4-.46,1.07c.06.53.1,1.31-.07,1.69l-.24.53c-.04.1.47.17.51.07l.52-1.33s.18-.25.28-.39l.29.68c-.28.54-.48.95-.69,1.57l1.17-.76c.06-.04.29-.05.29.03,0,.56-.58,1.34-1.25,1.43l-1.72,2.24c-.06.04.3.53.25.31l1.47-1.15-.54,1.36.59-.27c.16-.07.48.73.33.8l-.76.32c-.08.03-.35.31-.38.24l-.2-.59c-.03-.08-.18-.38-.24-.34l-.46.4s-.44.17-.38.2l.53.26.44.22c.13.06-.24.4-.39.55-.56.1-.92.2-.13.29l1.01-.49c.08-.04.29.3.21.34l-.53.33-1.41.91.61.33c.06.03.4.08.34.12l-.5.31-1.21.76c-1.3.81-1.09.2-1.6.4l-.13.46c-.03.09.16.18.25.16l.68-.2c-.26.33-.73.78-1,.97-.06.04-.41-.21-.37-.26.06-.08-.18.21-.29.33-1.59,1.46-.71,2.39-1.05,2.37l-.57-.03c-1.36-.08.37.38.31,1.46-.02.28-.36.57-.71.99-.41.34-.18.31.28.11,2.33-1.61,1.17.04,2.39-1.22.11-.11.37-.08.55-.04.16.03-.07.64-.25.67-1.42.21-2.43.62-3.44,1.8l.77,1.2.04,2.65v.44c0,.07-.08.12-.12.06l-.31-.48c.05-.02-.12.04-.26.09l.5,1.42-.7-.02c-.12,0-.23.53-.19.54l.62-.18c.53-.15.54,1.08.76.59l.21-.44.18-.4c.04-.1.33.4.25.47-.31.27-.66,1.05-.24,1.53l-.99-.69v.6s.61.64.61.64c.11.12-.38.41-.53.54l.21.29.47-.12c0,.09,0,.29,0,.29l-.35.31c-.05.05,0,.43.07.43l.6-.06c-.05.19-.18.6-.33.56l-.76-.18c2.49,3.37,1.31,4.05,1.27,3.49-.08-1.03.4-.39-1.3.18-.21.07-.58.47-.66.67-.05.14.44.43.36.56l-.5.74c.43.33,1.17.53,1.98.68l-1.2.41c.14.47.56,1.07,1.14,1.57l-.82.86c-.19.2.31.8.42,1.07l.11,2.34c0,.07.17.38.24.4.1.04-.07.04-.38.07l-.98.11,1.33,1.34c-.49.21-.59-.6-.83-.34,0,.3,0,.5.01.53l.58.96-.26,1.34c-.17.18-.32.37-.32.4,1.13.75.49,1.85.1,2.29-.05.06.18.38.15.46l-.13.43.35.92-.66-.08.36.49c.06.09.18-.02.61-.26-.11-.1-.08-.08.31.29l-1.04.6c-.41.24-.08,1.38.19,1.77.07.47.06,1.32.21,1.72l.56,1.53-.42-.31c-.09-.07-.15-.12-.18-.06l-.3.64c-.37.79.62,1.36,1.1,1.57.21.09.74-.53.54-.64-.18-.11-.59-.3-.56-.42l.25-.98.44.32c-.26.58-.25.7.04.31l.55-.43c.1-.08.36.14.49.22.14.09-.21.37-.35.56-.05.82-1.22,2.04-.69,2.12l.77.12c-.26.65-1.15.99-1.91.66-.26-.11-.81.38-.67.58.15.22.2.59.12.73l-.27.42c-.09.14.27.48.4.59l.43.34c.47,0,.35,0-.12.03-.35.22-.53.35-.3.34l.37.95-.05.5c.3.32.46.54.33.58-.97-.16-1.06,3.8-.24,4.04l-.5.25c-.14.07.02.47.11.64l.21.4c.13.25-.7.43-.3.53l.5.13c.13.03.48.44.36.51l-.54.33c-.07.04-.49.11-.44.16.06.06.17.26.25.26h.54s.34,0,.34,0c.12,0,.3.04.28-.01-.02-.06-.1-.36-.08-.43l.09-.56c.03-.16.59-.09.56.07l-.21,1.03s.28.88.06.69c-.09-.07-.38-.3-.49-.31l-1.14-.14.43.52c.4.49-.75.21-.15,1.09.09.13.35-.11.63-.37l.31.33c.12.13-.04.72-.21.71l-.71-.07-.05.49c-.01.11.37.18.46.14l.42-.18c.08-.03.37,0,.34.07-.04.12-.19.53-.28.61l-.47.41c-.13.11-.14.39-.13.66l.32-.05.58-.34-.55,1.56c-.26.19-.6.4-.68.57-.1.2.29.72.42.92.1.15-.18.55-.38.78l.8,2.73c-.53,1.33-.87,2.84.19,4.02l.4.45c.13.14-.16.6-.3.8-.44.62.09-.34.17,1.26,0,.16.51.01.66.07.08.03.26.36.19.42l-.33.31c-.09.09-.29.55-.18.61l.6.32c-.02.51.12,1.11.41,1.52.83-.44,1.25-.92,1.29-1.87.29.38.48.62.14.05l.97-1.05-1.01-.59c.18-.54.4-1.14.68-1.29l.43-.24c.08-.04.42.04.35.09l-.5.39c-.16.12-.43.44-.53.61s.57.5.72.37.23-.31.46-.74l.34.37c.09.1-.15.46-.22.57l-.52.77c-.04.56-.27,1.52-.69,1.76l-.49.28c-.09.05.07.19.18.19l1.05.02c-1.4,1.85-.71.16-2.23,1.52l-.61-.69c-.15-.17-.77.1-.74.34l.24,1.83,1.57-1.45.65.56.17-.7c.02-.1.18.05.56.37l-1.47,1.31-.33.28c-.07.06.09.29.12.37s.29-.22.37-.26l.48-.24c.08-.04.03.24,0,.31l-.18.36.69-.09c.12-.02.26.61.14.6l-1.65-.15-.86.77.61,1.31c-.13.13-.66.59-.58.8.16.42.63,1.31.9,1.84l-.41.17c-.12-.23.04.07.22.42.02.03-.41.21-.29.28.14.08.57.46.61.32l.2-.84c-.19.03.33-.06.35-.06l-.02.59-.02,1.64c.09.21.12.4.04.43-.59.47-.57,1.15-.38,1.62.46-.77.59-1.02,1.55-1.31l-.43-.95c.05-.44.11-.87.2-.35l.78,1.86c-.45.06-.54.03-.59.12l-.31.56c.03.09-.01-.03-.09-.24-.07-.07-.36-.33-.38-.23l-.11.47s.3.25.35.29c.09.06-.02.34-.12.38-.13.04-.33-.15-.66-.37-.08.21-.06.98.19,1.15.33.23.72.32,1.32.32.31.92-.17,2.34-1.11,2.94l1.26.42-.61.43c-.08.06.07.24.18.36l.52.55c.1.1-.08.27-.21.49-.06.18-.23.73-.03.74l.9.07c.09,0,.34.19.26.25l-.41.36c-.2.18-.6.7-.64.82l1.01,1.37-1.02-.14.62,1.3s.22.03.25.04c.08-.16.23-.43.23-.44,0-.01.19.17.24.22s.08.3.06.36l-.38,1.15c-.3.92.44,1.88,1.13,2.36l-.16,1.01c-.05.33,1.55.7,1.41,1.06l-.65,1.64.17,1.02.5-.36c.12-.08.32.29.33.44l.07.59c.01.11-.41,0-.52.02l-.34.04c-.12.02-.42.27-.32.34l.53.4s-.23.29-.23.29l-.69-.28c-.1-.04,0,.48.1.57.29.26.88.09,1.17-.24.2.07.1,1.58.79,1.68l-1.28.98-1.18,1.01c-.17-.1.08.49.26.6s.58-.32.71-.51l.79-1.15s.33.25.26.36l-.42.67-.59,1.09-.49.14c-.69.19.64.56.27.88-.1.09-.42.35-.5.46l-.91,1.34c-.43.18-.76.42-.33.33l.48.29-1.63,1.05-.4,1.01-.23.23s-.17.31-.21.25l-.21-.36-.48-.82c-.64.76-1.09,1.2-1.83,1.72l-1.19,2.27c-.73,0-1.74.24-2.05.59l-.16,1.98-.46-.45-.07-2.2.53-1.4c.03-.07-.15-.41-.18-.49-.11-.3-.55.54-1.57-.14-.11.04-.3.2-.36.11l-.4-.65c-.22-.36-1.23-.41-1.64-.3-.94.25-.55-1.24-1.89-.95-.59.12-1.26-.13-1.8-.36l-.6-.26c-.12-.05-.52.26-.41.34l.53.4c.1.08.23.45.11.51l-.51.26c-.12.06-.14-.68-.25-.77l-2.65-2.17-.37-.3.26-.22.31.3c.15.14.5.37.69.41s.71-.22.61-.38c-.17-.27-.37-.54-.54-.62l-1.29-.57.02-.56,1.28.44c.09-.02.22-.03.21-.08-.02-.09-.12-.37-.2-.41l-.81-.37c-.07-.66-.41-.97-.97-1.29l-1.27-1.54c-.09-.12-.35-.61-.21-.65l.67-.19c.19-.05.37-.1.21-.06l-.27-2.25c.06-.07-.44.25-.82.52l-.29.08c.13-.4.31-.71.21-.79l-.69-.53,1.77-.71-1.25-.43-.89,1.03-.16-.59c-.12-.4-.13-.68.18-.32l.56-.22c.11-.04-.11-.19-.27-.37l-.41-.46c-.12-.14.33-.62.5-.57l.86.23c.22.06.51-.41.56-.64s-.27-.62-.46-.75l-.69-.46c-.12-.08.97-1.28.33-1.49l-1.09-.35c-.23.2-.02-.17.13-.35.43.06.92.12,1.14.07l.58-.13c.14-.03-.02-.34-.11-.46l-.91-1.21-.16.51c-.04.12-.28.55-.3.43l-.09-.65s.14-.26.17-.33l.14-.32.54-1.22-.12-.25-.67.45.27-.92-.13-1.73,1.03.12-.78-.43s-.17-.17-.27-.29c.65-.26,1.28-.59,1.23-1.05l-.4.23c-.09.05-.28.18-.32.16l-.73-.43s-.16-.15-.31-.31l.35-.19.34-.18-.29-.18c-.15-.18-.23-.24-.19-.33.05-.1.23-.41.23-.5l.04-.98-1.18.45c-.29.11-.83.21-1.05.09-.26-.13-.17-.9-.06-1.2.04-.09.36-.39.37-.3.13,1.12-.34,1.38-.04,1.23l.61-.29.31-1.29c.19.49.23.82.28,1.3,1.17-1.39,1.3.42,1.35-1.03.03-.77-.8.53-1.36-.48-.13-.23-.03-.89.07-1.25l-1.15-.02c-.35-.22-.5-.32-.24-.2l.36-.92c.41.12.96.05,1.29,0l.93.93-.18-1.04c-.02-.11-.12-.46-.21-.45l-.59.08c-.11.01-.46-.01-.47-.11l-.1-.77c-.63.15-1.03.58-1.55,1.22-.04-.49.31-1.13.68-1.53l-.33-.38c-.07-.09.13-.34.22-.42.48-.44.51.99.79.83l.8-.45-.23.41c-.07.13-.17.39-.06.4l.72.12s.29,0,.32-.02l.45-.21c.09-.05-.11-.15-.46-.35l-.13-.8c-.36-.02-.59-.02-.53-.08.07-.07.27-.29.3-.37l.25-.63.04-1.53c-1.26.7-.34,3.65-1.24,1.32l-.35-.92-.2-.53c-.06-.16.56-.49.6-.32l.24.92c.43-.54.83-1.64.83-2.44,0-.26-.75-.36-1-.34l-.48.04c-.11,0,.11-.55.21-.54l.78.08c.12.01.48.05.44-.04l-.16-.37.13-.55c.02-.08-.19-.08-.38-.11l-.17-1.19-.9.12c.07-.22.22-.65.39-.61l.83.17-.11-.33-.45-.2c-.07-.03-.08-.11-.03-.17.05-.05.49-.2.49-.28,0-.4-.06-1.15-.1-1.62l-.04-.43c0-.08-.25-.17-.32-.11l-.47.41c.04.13-.1-.33-.17-.59-.04-.14.3-.19.53-.17.17.01.57-.31.48-.45-.12-.2-.36-.56-.57-.55-.08,0-.43.14-.42.06s.07-.34.08-.39.05-.03.28-.06l.36-.87c.1-.24-.34-.61-.58-.79l.22-.23c.07-.07.44-.31.35-.34l-.65-.22c-.09-.03-.31-.32-.21-.34l.59-.09c.11-.02.36-.12.46-.17s-.02-.48-.12-.54l-1.02-.63c-.1-.06-.54.12-.65.16-.12.04.1-.41.24-.45.84-.21,1.39-1.48.99-2.48-.06-.16-.29-.6-.45-.58l-.89.09-.21-.37s-.11-.28-.09-.32l.24-.4c.53-.9-.17.64.38.73.4.07,1.09-.83.84-1.28-.2-.35-.32-.69-.35-.87.11-.42.19-.7.06-.22l-.71-.05,1.15-.63-1.16-1.3c-.06-.07-.09-.49-.11-.58-.03-.13.39-.03.53-.05l.38-.06c.1-.02-.11-.25-.28-.44-.15-.34-.14-.84-.5.03l-.48-.56c1.6-.74.94-2.9.78-2.97l-.51-.2c-.1-.04,0-.3.07-.37l.36-.32c.21-.18-.84-.54-.6-.78l.56-.55.3-.3c.08-.07.02-.35-.08-.35l-.52-.03c-.24-.01-.65-.48-.56-.7.15-.42.43-1.16.49-1.53l-.06-2.95c-.02-.35-.88-.69-1.27-.75.2-.4.49-.83,1.06-.76v-.47s-1.4-.31-1.4-.31c.54-.85,1.06-1.96.95-2.86l-.22-1.81-.35-1.62c-2.04-1.3-2.65,1.85-3.19.45l-1.59.75c-.86-.06-2.32-.05-3.1.1-.35.07-1.01.87-1.35.79-1.93-.37-1.46.58-3.27,1.62l-.96.07c-.06.08-.24.03-.52-.11-1.1.25-1.54,1.53-1.77,2.73l-1.01,1.43-.53,1.88.6-.09c-.02-.49.15-.27.43.32-.41.41-.93.82-1.48,1.18-.14.04-.35.12-.36.05l-.02-.43c0-.17-.43-.23-.6-.19-.21.05-.41.74-.27.93.39.49,1.21.5,1.84.36.08-.04-.24.72-.4.69l-.49-.08-.87.28c-.19.06-.39-.54-.4-.74l-.09-2.09c-.32-.24-.38-.29-.3-.22l.88-.13c-.03-.46-.25-1.15-.6-1.83l.52-.53s-.06-.5-.05-.41l-1.92,1.47.89.04c.22,0,.21.96.02.82l-.45-.36c-.08-.07-.37.18-.42.28l-.2.45c-.05.1-.13-.01-.41-.2l-3.37.54c-.17.03-.42.41-.55.45l-.78.26c-.16.06,0,.55,0,.72-.39.26-.95.78-.96,1.17-.01.5.81,1.06,1.35.85v.59c.01.15.41.3.63.42l-.38,1.02c.29.04.88,0,.89.21l.07,1.07c.03.39,1.13.68,1.35.53l.6-.99c.21-.31.42-.74.4-.2l-.69,2.1c-.1.32-1.15.28-1.39.05-.56-.54-1.51-2.06-2.01-3.01-.29-.55-1.38-1.28-1.56-1.87-.22-.73-.21-1.46-.89-1.71s-1.31-.02-1.7.41c-.45-.43-1.16-1.07-1.58-1.37-.88.61-1.57.41-2.18-.24l-1-.12c-.09-.01-.34-.13-.42-.18s0-.38.08-.35.11.04.43.11c.07-.15.17-.33.09-.4l-.41-.39-.32-.3c-.06-.06-.39.06-.36.14l.17.44c.04.1-.12.41-.23.4h-.35s.21-1.14.21-1.14l-1.77-.04c-.24-.31-.44-.56-.3-.39l-1.49.25-.1.97c0,.07.08.27.1.34l.08.26c.02.07.2-.17.39-.39l1.64,1c2.49.06.53-.17,2.85,1.1.09.05.32.26.23.28s-.31.09-.4.07l-.65-.17c-.16-.04.03.54.05.64l-1.78-.54-.45-.14c-.08-.02.02-.17.12-.16l1.21.19-.17-.83c-.03-.16-.44.16-.68.3l-2.73-1.35c-.17-.08-.92.11-.9.22l.46.86c.46.87-1.46.86-.39,1.8.04-.05-.08.11-.12.17-.28.17-.5.26-.48.38l.13.63-1.05.44c.01.14.06.62.04.41l.71-.16c.09-.02.23.32.15.38l-.38.24c-.76.48-1.72,1.24-.95,2.06-.44.13-.61.14-.64.31l-.15.92c-.36,2.15.88,1.32.06,2.09-.09.09-.17-.54-.29-.68-.21-.19-.27-.28-.28-.18l-.04.58-.09,1.64c0,.07-.44.32-.49.37-.05.05-.04.12.02.15l.49.25-.98.82.92.06c-.82,1.15-1.08,1.91-1.53,3.14l-2.07,5.63c-.05.12.49.56.4.63l-.44.33-1.26.94c.17.18.51.4.46.55-.91,2.63.41.45-.79,2.28l.1.43c.02.08-.06.27-.1.36-.05.12-.32-.25-.51-.49,0-.01-.12.32-.16.43-.04.13.09.31.15.46-.22.54-.39,1.03-.53,1.59-.07.08-.18.22-.25.29s.07.33.07.3l.39-.08c.07-.02.3.19.24.23l-.4.24c-.09.05-.32.32-.41.38-.12.08-.26.07-.63.1l.16,1.03c-.75.52-1.01,1.28-.95,2.2l.04.6c0,.13-.41.13-.88.21l.59.47c-.3.29-.55.71-.78,1.21l-1.38,2.97c-.16.35-.1,1.12,0,1.4-.29.08-.92.26-1,.52s-.17.83-.26,1.09c-.7,1.82-1.63,2.47-.83,3.4-1.33.62-1.96,2.18-1.38,3.69l-.64-.08c-.15-.02-.28.48-.27.64.04.94-.52,1.5-.73,2.23l-.78,2.68c-.05.18-.66.58-.53.71l.76.77-.85-.09c-.48.24-.63,1.42-.42,1.97l-.77.31c-.19.08.18.73.04.88l-.5.59c-.12.13.19.43.3.61l-.31.3c-.08.08-.43.36-.31.39l.62.19c-.38.36-.81.83-1.01,1.18l.54.06c1.52.16-1.4-.25-1.54,2.54-.05,1.1-.71,2.44-1.15,3.49-.76,1.83.53,1.26-1.36,4.43l.76,1.6-.88.05-.64,3.12,1.28-.61c0,.92-.86.95-1.06,1.31-.99,1.72-.87,3.44-1.1,5.18s-1.32,3.47-1.27,5.15c.04,1.44-.06,3.06.24,4.39.34,1.5.81,2.53.39,4.11-.73,2.72,1.25,3.66,0,4.64-.6.47-1.58.46-1.95-.18-.52-.89-.47-1.33-.39-2.29.08-.88-.23-2.04-.29-3.03-.07-1.22.74-3.05-.32-4.06l-2.05-1.34-1.94-.17-.58-.57c-.16-.16-.86,0-.97.23-.26.53-.46,1.62-.48,2.34-.03.91-.35,1.69-.55,2.46l-1.3,4.87,1.71-2.17c-.46-.92-.31-1.62.33-2.08l-.22,2.97-1.02,1.04.74-.04c.2-.01.37.65.33.86l-.42,2.47c-.17-.45-.28-.86-.46-1.54l-.71,1.02-.38-.66c-.06-.11-.34.04-.38.16-.19.49.24,1.68.84,2.12.49.35,1.2.17,1.98.01l-.4,1.57c-.22-.21-.39-.48-.49-.45l-.62.15c-.08.02-.32-.01-.4-.02-.13-.01-.42.27-.32.35l.51.4c.49.39.48,1.3-.06,1.74l-.49.41c-.1.08-.49-.26-.41-.37l.36-.48.57-.21c.27-.1-.91-1.24-1.31-2.87s.29-3.61-.25-5.19c-.35-1.02-.91-1.76-.68-2.96l.46-2.52c.15-.83.58-2.03.43-2.72-.42-1.96-3.65-2.37-3.71-2.36-.27.07-.61.56-.71.75.23.03.44.06.43.06,0,0,.01.19.04.39.25,2.3,1.33,1.64-.12,2.25l.37.34c.14.13-.03.67-.16.82-.43-.75-.85-1.62-1.44-1.97-1.23.04-.33,2.57.1,2.47l1.34-.31c-.4.92-.39,1.64-.35,2.64l.2,4.1c0,.07-.09.47-.1.55-.01.11-.35,0-.36-.11l-.03-.54c0-.1-.49-.15-.48,0l.03.82-1.07.14.64,2.14c.05.17.23.54.3.69s-.47.3-.52.45l-.33.94c-.05.13-.16.57-.03.62.17.06.58.21.54.2l.11-.63c.09-.53,1.15,1.09.98.03-.09-.58-.5,0-.76-.64-.03-.08.04-.41.1-.36l.7.49c.12-.85-.29-1.77-.95-2.47l.98.49.28-.73c1.2,3.05-.72,2.75.11,5.94l-.74-.21c-.16-.05-.17-.42-.3-.68-.37.49-.85,1.05-1.22,1.03l-.54-1.55c.96-1.96-.16-6.23.34-6.27l.62-.04,1.18-1.4c.25-.3-.51-.75-1.1-.87.26-.23.61-.39,1.19-.61.11-.2-.55-.77-1.09-1l.52-.74c.24-.35-.39-.26-.33-1.61,0-.14-.43-.3-.45-.23-.28,1.02-.18,1.87.03,2.54-.7,1.81.27,2.85-.71,3.7-.37.32-1.36.49-1.6.11-.93-1.46.03-3.12-.28-4.47-.27-1.18-.37-2.08-.29-3.23s-.07-2.39.15-3.56c.27-1.42-.11-2.52-.72-3.8-.36-.77-.4-2.38.05-3.12l2.11-3.48c-.08-.63-.15-1.59-.29-2.24M264.38,48.99l1.27-.78-.78-1.38-1.11.49,1.15.54-.54,1.13ZM269.04,105.19c-.21-.59-.22-.65-.1-.39l.47.8c.09.16.46.18.77.28-.82.85-1.29,2.29-1.15,3.39.35.06.88.3.76.52-.13.24-.38.52-.6.73l-.19,1.05c-.01.08.3.32.35.24l.32-.49c.31.74.25,1.58-.05,2.35-.5-.5-.68-.53-.37-.05.54.74.66,1.08.63,2.12l1.14-1.2c.72.68-1.76,2.12-.73,2.32.34.07.78.05,1-.03l.75-.28c.34-.13-.09-1.26,1.37-2.09,1.14-.64-.16-.39,1.03-1.79.06-.08-.35-.43-.28-.51,1.53-1.66,2.15-5.12,1.68-7.53l-.96-4.89c-.25-1.26-.71-2.44-1.19-3.64l-1.03-2.56c-1.51-3.76-3.1-7.37-5.45-10.63l.36,1.55c.02.1-.02.54-.12.56l-.45.09c.26.34.63.67.57.89s-.35.65-.45.8c.39.42.85,1.01,1.16,1.5l-.96-.54v1.48s.84-.25.84-.25c.17-.05.32.26.32.44l-.51-.18c-.08-.03-.26.3-.19.35l.5.31-.71,1.14.82.6c.14.1-.04.59-.08.8l-.55,3.25,1.59-.78c-1.93,3.25-1.18,2.41-1.44,5.42.29-.16.68-.57.83-.45l.58.48.35.29c.07.06-.05.31-.14.29l-.46-.1c-.19-.04-.64-.05-.82,0s-.23.59-.14.59l1.54.12c-.46.51-.56,1.19-.27,1.99l-1.1,1.17.33.62c.04.08.38-.15.39-.16ZM242.34,117.38c.43.03,1.28-.6,1.15-.94-.07-.2-.35-.46-.26-.57.09-.11.3-.34.28-.32-.52-.21-1.17-.57-1.41-.82.27-.31.53-.5.46-.6l-.26-.37c-.07-.11-.17-.25-.13-.32l.25-.34c.04-.06.18-.35.22-.42.03-.07-.18-.08-.26-.07l-.35.08.48-1.55c-.28-.24-.75-.65-.6-.8l.64-.65-.7-1.27c-.26-.08-.39-.07-.4-.18l-.06-.54c-.01-.11-.16-.38-.27-.36l-.36.08.02-1.76c0-.26.54-.86.39-1.07l-.7-.99c-.07-.1.4-.2.4-.33v-.47s-1.46-.4-1.46-.4l1.32-.89c-.15-.17-.47-.42-.44-.58l.16-.89-.71.56-.6-.98.78-.37-1.21-1.43c.39-.37.99-.95.76-1.15l-.87-.8c.36-.44.77-1.1,1.01-1.72l-1.28-.71.1-.84c.02-.17-.7-.22-.53-.13l.02.92c-.4-.21-.44-.62-.42-1.2-.19.06-.74.36-.89.63s.28,1.03.44,1.24c-.42.48-.73,1.19-.34,1.66.27-.79.56-1.55,1.02-2.06l-.37,2.01c-.36,1.96-1.22,3.01-.42,3.06l.87.06-1.33.61c.12.21.31.66.36.87l-1.37-1.06.16,1.02-1.63-.05,1.08.59c1.14.62-.74,1.03-.51,2.84l-.94.77c.09.13.42.46.31.57l-.6.6c.45,1.03.67,2.22.56,3.36l-.07,1.25c-.25-.89-.2-1.59-.28-2.8l-.48,1.65-.89,1.48,1.18.84.49-1.04-.06,2.03c-.02.73-.07,1.55-.14,2.32l-.23,2.41c2.1.02,3.83-.04,5.79.1l3.11.21ZM276.53,111.63c.06-.25-.52-.71-.68-.6s-.48.38-.57.55l-.3.52c-.05.09.23.16.35.24.13.2.58.58.76.45s.35-.77.44-1.15ZM261.16,112.58l-1.72.09c-.18,0-.69-.19-.77-.03l-.44.87c-.2.22,3.22-.69,2.94-.93ZM275.92,114.19c.16.14.91,0,.92-.2l.06-.86c.03-.38-2.09.09-1.69.44l.7.63ZM233.19,116.9c0-1.01-.17-1.75-.04-2.26l.35-1.41c-.66.03-.76.59-.73,1.17l-1.06.77-.51-.43c-.09-.08-.46.24-.38.34l.4.47c.54.63,1.19,1.09,1.98,1.35ZM238.58,117.91l-2.67-.15c-.88-.05-1.67-.5-2.62.12.62.45,5.41.71,5.29.03ZM231.58,133.87l-.47-1.79c-.19-.74-.32-1.5-.27-2.28l.14-1.87c.1-1.41.13-2.72,0-4.13l.58.21c.17.06.29-.35.27-.52s-.2-.69-.34-.59l-.57.39c.04-.67.03-1.01-.1-1.51l-.45-1.83c-.06-.24-.12-1.02-.35-.96l-1.07.28c.14.23.48.58.41.77s-.4.47-.61.66c0-.38.12-.76-.03-.87l-.75-.6.31.72c.05.12,0,.11-.24.57.19.12.66.34,1.08.52l-.49.49c1.87,1.48,2.38.32,1.91,1.79-.1.31-.56.33-1.02.2-.51-.03-1.23.92-1.27,1.41l.59-.16c.09-.02.19.35.1.37l-.56.12c-.32.07-.76-.02-1.13-.18l-.28.96c-.07.24.31.26.79.4-.13.15-.28.27-.29.38l-.08.61-.69-.61c-.1.94-.31,1.76-.83,2.52l.7.82-1.48.45c.11.74.31,1.15.76,1.85l-1.05,1.29c.15.25.12.52-.02.54l-.82.13-.39,1.46c.09.16.45.56.33.69l-.67.73.88.65-.83.89c-.21.22.15.81.23,1.14l-.75.21c-.12.03-.39.38-.28.45l.62.41-1,.54c.09.14.38.45.3.55l-.47.62.25.27c.07.08-.19.25-.3.25s-.07,0-.52-.16c.1-.23-.05.13-.1.23-.08.19-.21.62-.17.56l.6-.14c.07-.02.29-.05.28.01l-.13.5s.46-.06.42.04l-.28.71c-.05.12-.23-.11-.47-.35l-.27-.39c-.04-.06-.08-.07-.12.01l-.24.44-.31.47c-.07.1.22.11.54.23l-1.45.94c.48.73.38,1.61.07,2.4l-.5,1.29,1.14.52-1.21-.14c-.03.19-.05.91.07,1.12s.55.37.75.48c.18-.64.35-1.02.72-1.48l-.03.82,2.51-.98c.14-.05.27.39.19.49l-.37.45c.47.24.76-.31.94-.7.11-.22.79-.21.98-.05.22.18.32.68.41,1.2,2.58-.76,2.47.3,4.33-.61.19-.42.1-1.04.65-1.25l-.34,1.19.8.05c.17.01-.01-.46-.01-.7l.56-3.55c-.82-1.31-.53-2.17-.07-3.56.21-.63.21-1.88.37-2.62l.24-1.1,1.54.86c.23.13.74-.19,1.15-.39l.04,3.94.09,2.11-.48-.65c-.5.19-.9.22-1.61.24-.02-.01.35.23.43.28.08.05-.24.2-.33.19l-.39-.06,1.1,2.26,1.08-1.84-.33,4.09c.53.08,1.44-.13,2.18-.3.8-.18,1.76-.23,2.77-.64.54-.19,1.48-.24,2.06-.31l-.15-.55c.12.45,2.82.29,3.36.18.97-.2,2-.53,2.92-.44l1.28-.83-.65-.15c-.09-.02-.07-.23-.02-.31l.35-.59c-.88-.01-1.18-.31-1.5-1.38l-1.19,1.2c-.32.21-.96-1.1-.57-1.34,2.19-1.34,1.35-3.95,1.94-3.78l-.66-.19.71-1.13-.86-.6-.73.65c-.14.12-.71-.27-.59-.32l.97-.53c.19-.1-.4-.65-.49-.77l1.45-.19c-.15-.82-.18-1.21.13-1.68l-.56-.31c-.12-.07.04-.55.02-.7-.02-.17-.36-.36-.51-.46.12-.19.58-.75.41-.88l-.65-.5.65-.99c-.42-.13-1.03-.5-1.12-.92-.07-.29-.04-.61-.05-1.1l.23-1.6-1.23-.16,1.76-.43-1.85-1.33c-1.26-.91-1.04-2.25-.83-2.34.23-.11.67-.24.94-.29l.65-.12c.13-.02-.03-.41-.16-.4l-.69.08-.92-.76c.48-.28.92-.88.77-1.25-.11-.28-.2-.74-.02-.79l.75-.18c-.27-.39-.81-.72-1.43-.95-2.32-.9-1.94,1.41-4.19-.43-.51.3-1.05.78-1.29,1.35l1.29-.67-.32.67c-.05.09.15.12.25.16l.55.23c-1.19.1-2.36.1-3.68-.18l1.32-.6c-.07-.05-.57-.18-.73-.26l-1.92-1.12,1.67-.26-1.92-.44c-.28,2.14.38,1.67-.11,3.47l-.28,1.02c.13.08.52.27.55.44.02.12.05.41.08.56.65,2.62-1.21,1.73.18,7.03.08.32-.48,1.02-.61,1.06,1.25.7-.2,1.37.86,3.63,0,0-.53.08-.78.12-.17.03-.36-.39-.34-.44.31-.14.76-.3.68-.37s-.25-.25-.36-.25h-.35c.27-.66.46-1.29.48-1.78-.48.27-.52.33-.61.23l-.52-.54c-.13.38-.23.93-.47.94l-.83.03ZM231.85,128.2c-.28.31-.42.48-.59.76-.1.16.47.41.63.26.36-.31.72-.85.73-1.22,0-.29-.53-.69-.92-.78-.27-.06-.43.76-.31.84.65-.12.91-.09.45.13ZM231.82,131.34c.58.14.99.15,1.08.32l.36.66.63-.93c.29-.43-.11-1.66-.38-2.05-.93-.38-2.23.54-2.36,1.22-.03.14.46.6.56.5l.45-.48c.13-.14.53-.31.74-.36.14-.04.28.26.46.64l-1.55.47ZM234.22,142.84c0-.28,0-.64-.09-.66l-.39-.06c.28-.52.43-.82.41-1.29l-1.17,2.05c-.04.07.11.52.13.59s.24-.07.23-.14l-.07-.42c-.03-.17.59-.12.57.04l-.08.66s.47.13.47-.01v-.75ZM266.58,143.4l1.39-.79-.05-.94c-.98.27-1.53.4-2.18,1.23l1.12-.34-.28.84ZM165.28,267.35c-.15-.21-.32-.38-.31-.51l.03-.85c-.85.95-1.04,2.56-.62,3.87.17-1.17.26-1.92.9-2.52Z"/>
  <path d="M281.05,126.05c-.32-.24-.6-.48-.85-.53s-.72.51-.83.75l-.17.41c-.03.07-.23-.09-.21-.16l.1-.35c.05-.17.15-.45.08-.53l-.3-.33c.37-.09,1.19-.26,1.4-.53l1.37-1.78c-.14-.15-.53-.45-.42-.51l.69-.32,1.4,1.81.2-.67c.04-.13.39.35.46.45l.77-1.22c.19.91-.52,1.45-1.08,1.59.71.34.99.64,1.49,1.41,1.04-.54.74-1.72,1.1-1.82l.72-.2-.67-.52,2.35-1.44-.62,1.28-.43-.1c-.1-.02-.42.14-.35.22l.41.49c-.29.38-.68.12-.48.65l1.77.38-.46.47c-.1.11.35.45.34.6-.01.26-.65.46-.98.61l-.17,1.15c-1-.15-1.92-.25-2.83-.27l.15-.66c.02-.1-.37-.13-.43-.05l-.31.43c-.08.12-.51.33-.53.19l-.09-.72-.07-.53c-.01-.09-.25-.28-.3-.2l-.33.52c-.09.14-.23.74-.37.68l-.6-.26-.28.16c-.1.06-.47.1-.42.07l.17-.52c.02-.06-.16-.04-.38-.06Z"/>
  <path d="M279.03,56.95c-.24-.23.07-.94.26-1.32l-.73-.68c-.19-.17-.01-.62,0-1.13,0-.65-.91-1.09-1.69-1.5l.86-.16c.59-.11-.5-1.26.34-1.51.16-.05.42.45.61.89l.72-1.25-.31-1.03c.91.92,1.01,2.19.86,3.41-.05.43.34,1.23.44,1.66.67,2.95,1.3,1.22,1.55,5.53-.94-.22-.76-.74-.48-1.46l-1.11-.21-1.31-1.22Z"/>
  <path d="M237.53,221.44c-.29.7-1.64.98-2.47.47-.57-.35.03-.58-.09-2.06,0-.11.22-.4.29-.32l.45.48.57-1.64c.04-.12-.29-.4-.34-.51s.06-.46.18-.44l.83.08c.33.03,1.32-3.21-.29-3.76l-.04.75c0,.15.21.11.45.18.15,2.01-.84,1.23-1.56,2.86l-.48-1.37c2.33-2.93-1.28-1.29.37-5.09l-.57-.46c-.24-.19.36-.42.13-2.34-.08-.67-.16-1.28-.29-1.9l-.26-1.17h.56c.11,0,.27-.34.2-.43s-.3-.44-.35-.34l-.23.41-.51-.89c-.12-.21-.56-.16-.9-.26l-.81-.71c-.21-.18-.79.61-.97.66-.21-.88,1.52-1.34,1.95-.87l1.19,1.28c.73-.24.7-.21.33-.59.03-.07.38-.06.52,0,.21.11.08.58-.12.81.11.04.82.46.68.7-.15.25-.48.76-.62.97l.66,1.27,1.1-.46c-.55,1-.82,1.66-.44,2.71l-1.3.07.43.53c.09.11-.23.33-.51.65l1.31.33-.97.66c-.42.29.2.4-.13,1.72-.04.16.7.03.56-.02l-.05-.88c.46.57.94,1.26,1.35,1.11.43-.56.35-1.46.38-2.18.98,1.03-.18,2.17.11,3.19.18.65.14,1.16,0,1.83l-.31,1.46.29.55c.07.14-.46.33-.64.41-.11.16-.22.29-.15.35l.45.35c-.21.65-.21,1.26.06,1.88Z"/>
  <path d="M289.25,127.36l-.28-1.09c-.16-.63,1.99-.73,1.37-.93l-.77-.24.82-1.16c.45-.08.82-.18,1.15-.35l2.24-1.14.42,1.22-2.38.92c.59.86.09,1.77-.46,2.28-.31-.35-.52-.59-.66-.69-.18-.12-.49.46-.67.74l-.21-.33c-.05-.07-.3-.25-.33-.16l-.23.93Z"/>
  <path d="M172.27,223.08l1.03-.17c.05.44.04,1.02-.03,1.39-.18-.31-.25-.55-.35-.58l-.57-.19c-.15-.05-.69-.29-.73-.13l-.16.64c-.06.23-.21.66-.18.84l.09.48c.02.1-.3.21-.35.12l-.28-.52"/>
  <path d="M275.18,124.6l-1.86.92c-.43.21-1.04.3-1.33.2l.34-.59c.04-.07.32-.25.24-.27l-.91-.24c1.3-.73,1.38.29,2.71-.97.53.47,1.15.78,1.69.66l2.04-.46c.27.5.12,1.64-.35,1.81-.42-.49-.71-.89-1.04-.82-.56.13-.92.56-1.13,1.08l-.4-1.34Z"/>
  <path d="M236.13,200.32c-1.04-.44.6.92.18,1.2-.15.1-.65.2-.64.05l-.11-1.43-1.01,1.03.15-1.12-.62.17c-.12.03-.06-.58-.12-.7l-1.01-1.86c-.22-.41-.1-1.29.31-1.36.69-.13,1.03-.28,1.42-.72l-.16.99c-.03.22.34.47.55.72l.4.48c.09.11-.23.42-.41.62l-.91-1.31c-.24.36-.46.87-.46,1.19,0,.29.58.55.98.74.05.13-.24.74-.05.82s.77.23.98.19l.65-.12c.17-.03.31.41.37.63l-.48-.21Z"/>
  <path d="M233.46,194.89l-.68.71c-.43-.61-.43-1.47,0-2.29l-1.2-.76.68-.67c.15-.15.48.56.56.82l1.52.2c.34.04.83.16,1.15.12.38-.05.55-.94.32-1.17-.18-.18-.33-.28-.33-.37,0-.14-.03-.56-.02-.43l.9.3c-.11.75-.18,1.83.15,2.53l-1.08,1.16.41-1.59c-.43-.01-1.33.09-1.95.15l-.72.07c-.16.02-.34.4-.38.56-.05.2.43.49.68.64Z"/>
  <path d="M279.73,59.8c-.57.45-.85.72-1.2,1.18,0,0-.15-.28-.21-.39-.06-.12-.34.16-.56.34l-1.57-1.2,1.22-.87.85,1.17.18-1.08,1.29.84Z"/>
  <path d="M265.59,251.73c-.56.18-1.04.39-1.55.63-.64.31-1.73-.31-2.36-1.09,1.6-.75,2.64-.1,2.53-.04l.37-.18,1.01.68Z"/>
  <path d="M182.28,162.8h-2.5s-1.06-1.04-1.06-1.04c.54-.28,1.43-.36,2.11-.24l-.02.83c.45.03.89.03,1.47.45Z"/>
  <path d="M263.74,250.38l-1.1-.31c-.03-.26-.03-.72-.2-.71-.19.02-.49.1-.72.18l-.51.18c-.1.03-.21-.31-.13-.37l.41-.25c.63-.39,1.81-.68,2.12-.12l-.26.52c-.05.09.07.26.15.35.09.11.32-.16.63-.4l.07.57c.02.14-.33.39-.46.35Z"/>
  <path d="M174.52,220.13c-.23.23-.85.67-.8.94.07.33.27.86.42,1.23l-.38.48"/>
  <path d="M184.28,161.52c-.06.13-.41.45-.35.54l.39.55-1.73.04-.35-1.09c-.13-.42,2.25-.36,2.04-.04Z"/>
  <path d="M280.52,64.54l-.33-.56c-.09-.16-.66.09-.88.08-.12,0-.41-.24-.49-.33s.14-.41.24-.48c.23-.18.04.11,1.31.39.15.03.03-.46.01-.67h2.21c.07-.1-.05.31-.18.33l-.71.08c-.19.02-.66-.03-.72.1l-.45,1.07Z"/>
  <path d="M175.86,284.82c.08.13-.14.44-.25.61-.08.12-.5-.02-.53-.16l-.26-3.36,1.02,1.77-.27.53c-.07.13.19.43.29.61Z"/>
  <path d="M249.14,218.5c1.01-1.13,0-.43-.02-1.66l1.91.56c-.06.25-.26.94-.54,1.01-.33.09-1.14.1-1.35.08Z"/>
  <path d="M277.75,62.75l.67,1.3-1.21-.64-.76-1.45c-.05-.1.27-.57.34-.49.09.11.37.44.51.47l.66.13c.13.03-.04.34-.2.67Z"/>
  <path d="M219.23,199.09l-.79-.44c-.15-.08-.44.18-.66.33l-1.67-.94c-.08-.05-.3-.23-.37-.29-.1-.09.33-.38.43-.28.23.24.66.73.94.69s.78-.26,1.18-.45l.94,1.37Z"/>
  <path d="M298.65,142.14c.15-.03.17.56.18.71.02.21-.48.56-.68.5-1.33-.36-1.08-3.04-.69-2.3l.28.53c.07.13.03.69.17.67l.74-.12Z"/>
  <path d="M277.3,49.88l.48-1.69.48,1.31.51-1.73c.09.74,0,1.5-.21,2.29l-1.26-.17Z"/>
  <path d="M237.56,199.04c-.8-.02-1.09-.08-1.2-.36-.19-.52.23-1.26.94-1.21.42.03.45,1.15.26,1.57Z"/>
  <path d="M299.67,148.99l-.75-.96-.49-.86c-.14-.25.3-.94.6-1.01.16-.02.53.41.45.57l-.33.69c.23.37.41.72.52,1.58Z"/>
  <path d="M183.98,260.48c-.08.37-.23.72-.39.91s-.96-.12-.93-.37c.05-.47.52-1.19.89-1.25.14-.02.59.02.57.11l-.13.6Z"/>
  <path d="M295.72,127.12c0,.53-3-.19-2.7-.64l1.13.31c.19.05.4-.23.66-.46.13-.11.77-.18.81-.02.05.21.09.51.09.8Z"/>
  <path d="M281.56,61.02c.07.55.06.85-.18.53-.09-.29-.14-.81-.27-.78l-1,.19c-.08.04.11-.47.25-.75.11-.2.57.12.88.2l.83-.15c.16-.03.11.53.14.81.02.2-.39,0-.64-.04Z"/>
  <path d="M171.97,287.06l.65-1.47-1.26-.38,1.44-.48c.13.73.15,1.47.05,2.37l-.89-.03Z"/>
  <path d="M273.65,251.19c.59-1.46,1.52.18,1.71-1.16.02-.11.39.08.47,0l.59-.57-.35,1.29-2.42.44Z"/>
  <path d="M218.25,197.14l-1.01-1.1c-.16.65-.23.85-.24.25-.02-.18.16-.87.28-.76l.65.58c.13.11.45-.37.59-.27s.7.54.57.64l-.83.65Z"/>
  <path d="M282.37,117.13c.88.55-.2,1.82-.81,1.55-.26-.36.38-1.81.81-1.55Z"/>
  <path class="cls-1" d="M231.82,139.63c.67-1.81.99.59,3.16-.72l2.17-.11-1.92-.46s-.11-.58.04-.63l.87-.35-.65-.38c-.16-.09.32-.51.49-.58l.45-.18c.08-.03.19-.26.11-.29-.12-.04-.6-.13-.69-.04l-1.62,1.58-.21-1c-.04-.18-.65-.12-.87-.12l-.21-.58c-.05-.15-.3-.15-.74-.29l.8-1.35-.8.15c-.19.04-.48-.23-.63-.39l.83-.03c.24,0,.34-.56.47-.94l.52.54c.09.1.13.03.61-.23-.02.49-.21,1.12-.48,1.78h.35c.12,0,.28.17.36.25s-.36.24-.68.37c-.02.05.17.46.34.44.25-.04.79-.12.78-.12-1.05-2.26.4-2.93-.86-3.63.14-.04.7-.74.61-1.06-1.39-5.3.48-4.41-.18-7.03-.04-.15-.06-.43-.08-.56-.03-.17-.42-.36-.55-.44l.28-1.02c.49-1.8-.17-1.33.11-3.47l1.92.44-1.67.26,1.92,1.12c.15.09.65.21.73.26l-1.32.6c1.31.28,2.48.28,3.68.18l-.55-.23c-.1-.04-.3-.07-.25-.16l.32-.67-1.29.67c.24-.57.78-1.05,1.29-1.35,2.25,1.84,1.87-.47,4.19.43.61.24,1.16.56,1.43.95l-.75.18c-.18.04-.09.51.02.79.15.37-.3.96-.77,1.25l.92.76.69-.08c.12-.02.28.37.16.4l-.65.12c-.27.05-.71.18-.94.29-.2.09-.43,1.43.83,2.34l1.85,1.33-1.76.43,1.23.16-.23,1.6c0,.49-.02.8.05,1.1.1.42.7.79,1.12.92l-.65.99.65.5c.17.13-.29.69-.41.88.16.1.49.29.51.46.02.15-.14.63-.02.7l.56.31c-.31.46-.27.86-.13,1.68l-1.45.19c.09.12.68.67.49.77l-.97.53c-.12.05.46.44.59.32l.73-.65.86.6-.71,1.13.66.19c-.59-.17.26,2.43-1.94,3.78-.39.24.26,1.55.57,1.34l1.19-1.2c.32,1.06.62,1.37,1.5,1.38l-.35.59c-.05.08-.06.29.02.31l.65.15-1.28.83c-.92-.09-1.95.24-2.92.44-.53.11-3.24.27-3.36-.18l.15.55c-.58.07-1.52.12-2.06.31-1.01.41-1.97.46-2.77.64-.73.17-1.65.38-2.18.3l.33-4.09-1.08,1.84-1.1-2.26.39.06c.1.01.41-.14.33-.19-.08-.06-.45-.29-.43-.28.72-.01,1.11-.04,1.61-.24l.48.65-.09-2.11-.04-3.94c-.41.2-.92.52-1.15.39l-1.54-.86ZM241.5,132.63l.88.39,2.54-.48c.18.17-.17-.47-.36-.72-.14-.18-.58.17-.81.24-1.42-.1-2.87.1-3.98,1.18.14.19,2.35.24,2.06-.15l-.33-.45ZM238,134.9c.93.11,1.13-.06,1.63-.15.23-.04.88.12,1.05-.04s.2-.67.12-1l-.49.79c-.2-.19-1.02-.53-1.28-.37-.29.17-.66.46-1.03.78ZM237.55,148.81c-.54-1.5-1.78-.9-2.54-.65.93.51,1.75.89,2.54.65Z"/>
  <path class="cls-1" d="M231.58,133.87l-.4-.22c-.07-.04.05.33.05.43l.04,1.57.81-1.16-.18,1.29c-.05.35-.8.62-1.26.74l.73,1.62c-.63-.2-1.39-.31-1.51.14l1.6.18.37,1.17-.24,1.1c-.16.74-.16,1.98-.37,2.62-.46,1.39-.75,2.24.07,3.56l-.56,3.55c0,.24.19.71.01.7l-.8-.05.34-1.19c-.55.22-.46.83-.65,1.25-1.86.91-1.74-.15-4.33.61-.09-.52-.19-1.02-.41-1.2-.19-.16-.87-.17-.98.05-.19.39-.47.94-.94.7l.37-.45c.08-.1-.05-.54-.19-.49l-2.51.98.03-.82c-.37.46-.54.84-.72,1.48-.2-.11-.62-.27-.75-.48s-.1-.93-.07-1.12l1.21.14-1.14-.52.5-1.29c.31-.8.41-1.67-.07-2.4l1.45-.94c-.31-.11-.6-.12-.54-.23l.31-.47.24-.44c.04-.08.08-.08.12-.01l.27.39c.24.23.42.47.47.35l.28-.71c.04-.1-.42,0-.42-.04l.13-.5c.02-.07-.21-.03-.28-.01l-.6.14c-.04.06.09-.37.17-.56.04-.1.2-.46.1-.23.45.16.42.15.52.16s.37-.17.3-.25l-.25-.27.47-.62c.08-.11-.21-.41-.3-.55l1-.54-.62-.41c-.11-.07.16-.41.28-.45l.75-.21c-.08-.33-.43-.92-.23-1.14l.83-.89-.88-.65.67-.73c.11-.12-.25-.53-.33-.69l.39-1.46.82-.13c.14-.02.17-.29.02-.54l1.05-1.29c-.45-.7-.65-1.1-.76-1.85l1.48-.45-.7-.82c.52-.76.73-1.59.83-2.52l.69.61.08-.61c.01-.11.17-.23.29-.38-.48-.14-.85-.16-.79-.4l.28-.96c.37.16.81.25,1.13.18l.56-.12c.09-.02,0-.39-.1-.37l-.59.16c.04-.49.76-1.44,1.27-1.41.46.12.92.1,1.02-.2.47-1.46-.04-.31-1.91-1.79l.49-.49c-.42-.18-.89-.41-1.08-.52.23-.46.29-.45.24-.57l-.31-.72.75.6c.14.11.03.49.03.87.22-.19.55-.47.61-.66s-.27-.54-.41-.77l1.07-.28c.23-.06.29.72.35.96l.45,1.83c.12.49.13.84.1,1.51l.57-.39c.14-.1.32.42.34.59s-.1.58-.27.52l-.58-.21c.13,1.42.1,2.72,0,4.13l-.14,1.87c-.06.78.07,1.55.27,2.28l.47,1.79Z"/>
  <path class="cls-1" d="M269.04,105.19s-.35.25-.39.16l-.33-.62,1.1-1.17c-.29-.8-.19-1.48.27-1.99l-1.54-.12c-.1,0-.05-.55.14-.59s.63-.03.82,0l.46.1c.09.02.21-.23.14-.29l-.35-.29-.58-.48c-.15-.12-.54.29-.83.45.26-3.01-.49-2.16,1.44-5.42l-1.59.78.55-3.25c.03-.21.22-.7.08-.8l-.82-.6.71-1.14-.5-.31c-.07-.04.11-.38.19-.35l.51.18c0-.18-.15-.49-.32-.44l-.85.25v-1.48s.97.54.97.54c-.31-.49-.78-1.08-1.16-1.5.1-.15.39-.58.45-.8s-.31-.55-.57-.89l.45-.09c.1-.02.14-.46.12-.56l-.36-1.55c2.34,3.26,3.94,6.87,5.45,10.63l1.03,2.56c.48,1.2.95,2.37,1.19,3.64l.96,4.89c.47,2.41-.15,5.87-1.68,7.53-.07.08.34.44.28.51-1.19,1.4.11,1.15-1.03,1.79-1.46.82-1.03,1.96-1.37,2.09l-.75.28c-.22.08-.66.1-1,.03-1.03-.2,1.45-1.65.73-2.32l-1.14,1.2c.02-1.04-.09-1.38-.63-2.12-.31-.49-.14-.45.37.05.3-.76.36-1.61.05-2.35l-.32.49c-.05.07-.36-.16-.35-.24l.19-1.05c.22-.21.47-.49.6-.73.12-.22-.41-.46-.76-.52-.14-1.1.33-2.54,1.15-3.39-.31-.1-.67-.13-.77-.28l-.47-.8c-.12-.27-.11-.2.1.39Z"/>
  <path class="cls-1" d="M242.34,117.38l-3.11-.21c-1.96-.13-3.69-.08-5.79-.1l.23-2.41c.07-.77.12-1.59.14-2.32l.06-2.03-.49,1.04-1.18-.84.89-1.48.48-1.65c.08,1.21.03,1.91.28,2.8l.07-1.25c.11-1.14-.11-2.33-.56-3.36l.6-.6c.11-.11-.22-.44-.31-.57l.94-.77c-.23-1.81,1.65-2.23.51-2.84l-1.08-.59,1.63.05-.16-1.02,1.37,1.06c-.05-.21-.24-.66-.36-.87l1.33-.61-.87-.06c-.8-.06.06-1.1.42-3.06l.37-2.01c-.47.51-.76,1.27-1.02,2.06-.39-.47-.08-1.18.34-1.66-.16-.22-.59-.97-.44-1.24s.71-.57.89-.63c-.02.58.02.99.42,1.2l-.02-.92c-.17-.1.55-.05.53.13l-.1.84,1.28.71c-.24.62-.64,1.28-1.01,1.72l.87.8c.22.2-.38.78-.76,1.15l1.21,1.43-.78.37.6.98.71-.56-.16.89c-.03.16.29.41.44.58l-1.32.89,1.46.4v.47c0,.13-.48.23-.4.33l.7.99c.15.21-.38.81-.39,1.07l-.02,1.76.36-.08c.11-.02.25.24.27.36l.06.54c.01.11.14.1.4.18l.7,1.27-.64.65c-.15.15.32.56.6.8l-.48,1.55.35-.08c.07-.02.29,0,.26.07-.04.08-.17.36-.22.42l-.25.34c-.05.07.05.21.13.32l.26.37c.07.1-.19.29-.46.6.23.25.88.61,1.41.82.02-.02-.19.21-.28.32s.18.36.26.57c.13.34-.72.97-1.15.94Z"/>
  <path class="cls-1" d="M231.82,131.34l1.55-.47c-.18-.39-.32-.68-.46-.64-.22.06-.61.22-.74.36l-.45.48c-.1.1-.59-.36-.56-.5.13-.68,1.43-1.6,2.36-1.22.27.39.67,1.62.38,2.05l-.63.93-.36-.66c-.09-.17-.51-.18-1.08-.32Z"/>
  <path class="cls-1" d="M233.19,116.9c-.78-.26-1.44-.72-1.98-1.35l-.4-.47c-.08-.09.28-.41.38-.34l.51.43,1.06-.77c-.02-.58.08-1.14.73-1.17l-.35,1.41c-.13.5.04,1.24.04,2.26Z"/>
  <path class="cls-1" d="M238.58,117.91c.11.68-4.68.42-5.29-.03.95-.62,1.74-.17,2.62-.12l2.67.15Z"/>
  <path class="cls-1" d="M165.28,267.35c-.64.59-.73,1.34-.9,2.52-.42-1.31-.24-2.93.62-3.87l-.03.85c0,.13.16.3.31.51Z"/>
  <path class="cls-1" d="M231.85,128.2c.45-.22.2-.25-.45-.13-.12-.08.04-.9.31-.84.39.08.93.49.92.78-.01.36-.37.91-.73,1.22-.16.14-.73-.1-.63-.26.16-.27.31-.45.59-.76Z"/>
  <path class="cls-1" d="M266.58,143.4l.28-.84-1.12.34c.64-.84,1.19-.97,2.18-1.23l.05.94-1.39.79Z"/>
  <path class="cls-1" d="M276.53,111.63c-.08.38-.26,1.01-.44,1.15s-.63-.24-.76-.45c-.12-.08-.4-.15-.35-.24l.3-.52c.1-.17.42-.44.57-.55s.73.35.68.6Z"/>
  <path class="cls-1" d="M234.22,142.84v.75c0,.14-.45.05-.47.01l.08-.66c.02-.16-.6-.21-.57-.04l.07.42c.01.07-.21.22-.23.14s-.17-.53-.13-.59l1.17-2.05c.03.47-.13.77-.41,1.29l.39.06c.1.02.09.38.09.66Z"/>
  <path class="cls-1" d="M275.92,114.19l-.7-.63c-.39-.35,1.72-.82,1.69-.44l-.06.86c-.02.2-.77.34-.92.2Z"/>
  <polygon class="cls-1" points="264.38 48.99 264.92 47.86 263.77 47.32 264.87 46.83 265.65 48.21 264.38 48.99"/>
  <path class="cls-1" d="M261.16,112.58c.28.24-3.14,1.15-2.94.93l.44-.87c.08-.16.59.04.77.03l1.72-.09Z"/>
  <path d="M241.5,132.63l.33.45c.29.4-1.92.34-2.06.15,1.12-1.08,2.56-1.28,3.98-1.18.23-.06.67-.41.81-.24.19.25.54.89.36.72l-2.54.48-.88-.39Z"/>
  <path d="M238,134.9c.37-.32.74-.6,1.03-.78.26-.16,1.08.18,1.28.37l.49-.79c.08.33.05.84-.12,1s-.82,0-1.05.04c-.5.09-.7.26-1.63.15Z"/>
  <path d="M237.55,148.81c-.78.24-1.6-.14-2.54-.65.75-.25,2-.85,2.54.65Z"/>
</svg>