<?xml version="1.0" encoding="UTF-8"?>
<svg id="Layer_2" data-name="Layer 2" xmlns="http://www.w3.org/2000/svg" viewBox="0 0 432 288">
  <defs>
    <style>
      .cls-1 {
        fill: #fff;
      }
    </style>
  </defs>
  <path class="cls-1" d="M191.31,129.3c.56-.77.95-1.82,1.3-2.72l.51-1.33-1.04-2.32c-1.63-.76-3.11-.13-4.2,1.09-.38.42-.79.65-.75,1.25.07,1.04,1.33,1.3,1.1,1.47l-.35.25c-.65.47-1.04.91-1.18,1.8l-1.83.38-.47.78s-1.64.42-2.53-.82c-.39-.54-1.32-1.48-.97-2.25,1.14-2.51,1.33-2.77,3.07-4.73l1.06-1.19c.64-.72,1.34-1.51,1.96-2.28.2-.24.68-.62.93-.89l1.27-1.36,1.13-1.1,1.34-1.24c1.57-1.45,3.22-2.71,4.94-4l3-2.24c.89-.66,1.75-1.18,2.87-1.57,2.64-.91,2.35-1.68,4.57-1.49.64-.22,1.47-.63,2.38-.77l-.92,2.7-.96,3.51-1.12,4.4-1.05,3.96-.67,2.39-1.82,6.03c-.54,1.8-1.2,3.49-1.65,5.34l-2.37,9.88-.73,3.33-.43,2.32-1.17,7.15c-.14.86.11,1.9-.4,2.65l-1.24.91c-.01,1.83-.37.69-.3,3.42.02.9-.17,1.63-.23,2.54l-.14,1.96-.44,1.84c-.26,1.07-.51,2.05-.71,3.16s-1.26,3.9-1.77,5.02c-.74,1.61-1.37,3.2-2.63,4.48-.77.78-2.43,1.95-3.43,1.33-.34-.21-.57-.83-.69-1.33-.48-1.97.95-2.59-.11-3.63-.22-.22-.98-.38-1.22-.18-.88.74-1.35,1.83-1.48,2.92l-.4,3.35c-.1.83.25,1.85.59,2.71.3.76,1.35.86,2.1.96,1.45.18,3.75-.63,5.15-1.17,1.66-.65,2.64-2.7,2.25-1.07l-.64,2.66c-.72,2.98-.04,3.07-.31,4.88-.63,4.19-.14,5.1-.55,8.28l-.56,4.28c-.22,1.68-.65,5.35-.67,6.87l-.05,3.22c-.01.93.29,1.93.35,2.85l.19,2.81.1,1.57c1.06.56.46,1.6.63,2.45s.48,1.83.76,2.72c.34,1.08,1.02,2.02,1.61,3.01.33.55.34,1.62.68,2.07l.96,1.28c.5.67.87,1.27,1.35,2.05,1.09.93,1.66,1.3,2.94,2.35.62.51,1.77.5,2.59.73.68.19,1.48.85,2.1.93l2.77.35c.16.02.46.29.57.2.09-.08.42-.41.55-.4,1.3.09,3.04-.64,4.36-1.11l1.38-.5c1.32-.47,2.14-2.04,2.98-3.3.73-1.09,1.04-2.48,1.39-3.76l.37-1.36c.84-3.1.82-7.13.67-10.44-.1-2.01-.89-3.85-1.45-5.74-.41-1.37-.9-2.66-2.24-3.35-3.11-1.6-1.64-1.78-6.03-1.55-1.18.06-1.78,1.07-1.83,2.02-.55.23-.88.58-1.25,1l-2.42,2.73-.85,1.06c-1.08,1.33-1.02,2.13-1.15,4.2-.06.95.12,1.79.29,2.69.1.54.15,1.34.37,1.68.54.05,1.08.07,1.3-.13.26-.23.46-.91.47-1.23l.03-1.54c.05-2.26.65-3.03,1.07-4.33.21-.66.37-1.18.8-1.7,1.42-1.68,4.61.17,5.05.67.98,1.08.92,2.65,1.64,3.76,1.55,2.39.86,6.03.41,8.78-.37,2.28-.95,3.59-2.85,4.73-.39,1.33-1.5,1.73-2.59,2.17-1.01.41-1.79,1.11-3.08.84l-1.23-.26c-.27-.06-.74-.16-.94-.3l-1.29-.88c-3.28-2.23-5.2-10.01-5.61-13.82l-.99-9.27c-.38-3.57-.65-6.29-.4-9.91l.41-5.7.18-2.79c.11-1.8.28-3.48.48-5.27.27-2.47.42-4.86.88-7.31.53-2.79.91-5.54,1.33-8.37l.69-4.64c.18-1.25.44-2.45.74-3.73.14-.59-.05-1.42.26-2.1.15-.33.34-.79.42-1.19l1.66-7.7,1.23-5.86c.43-2.03.92-4.04,1.56-6s1.2-3.69,1.59-5.66c.29-1.46.66-2.86,1.05-4.29l.92-3.35,1.22-4.39.36-1.31,1.86-6.42.64-2.52,1.75-5.46c.23-.73.45-1.43.72-2.11l.46-1.12c.27-.06,1.12-.18,1.5-.11l2.04.37c1.65.3,3.17.58,4.85.74.52.05,1.26.2,1.78.35l2.48.73c1.13.33,2.48,1.34,3.17,2.3.63.87.16,2.26.07,3.16l-.24,2.51-.05,3.42c-.02,1.11.04,2.1-.02,3.22l-.21,3.89.18,4.82.35,5.19.25,4.42c.05.85-.01,1.62,0,2.46l.15,6.96c.03,1.33.09,2.6.07,3.93l-.03,1.35c-.05,2.48-.26,4.87-.04,7.33.17,1.95.17,3.84.22,5.8.09,2.98-.39,4.28-.09,7.07l.27,2.58c.06.57.15,1.11.24,1.68.15.94.23,1.95.37,2.96l.28,2.07c.06.43-.08,1.22-.03,1.7l.23,2.21c.37,3.63.42,3.76,1.29,7.23l.86,3.44,1.02,5.33.15,2.45.3,1.58c.17.91.9.21,1.01.87.29,1.74.81,3.99,1.29,5.77.16.58.16,1.25.41,1.71.69,1.28.84,2.72,1.44,3.99l2.09,4.4,1.8,3.72c.27.56.73.99,1.03,1.56l1.2,2.3,1.23,1.59,2.83,3.24c1.67,1.92,3.12,4.08,3.9,6.53l1.68,5.3.45,1.28c.3.87.46,1.77.71,2.66l.76,2.71c.04.14.27,7.94.18,8.33l-.45,2.06c-.32,1.5-.84,2.6-1.94,3.53-.88.73-1.73,1.05-2.86.4s-2.86-2.84-2.16-4.49l1.5-.78c.39-.2.89-.58.99-.91.31-.99-.55-1.9-1.5-2.45-.35-.2-1.25-.11-1.66-.02-1.83,1.26-2.39,3.74-2.31,5.76,0,.17-.31.51-.23.61s.29.37.37.46c.28,1.45.7,3.01,1.83,4.09.71.68,1.77,1.37,2.67,1.65l1.95.6.2.29c-1,.82-1.78,1.64-2.93,1.97-2.88.82-9.01,1.13-11.29-.68-3.04-2.41-3.55-5.77-3.78-9.47-.05-.81.33-1.49.59-2.19.34-.93.65-1.72,1.31-2.46,1.58-1.81,1.32-.97,2.91-2.48.54-.51,1.02-.93,1.82-1.02.62-.07,1.74-.51,1.82-1.22.21-1.82-2.19-2.63-3.95-2.57-1.32.04-2.33.38-3.48,1.02-1.1.61-2.1,1.31-2.55,2.63-.59,1.73-3.23,2.13-3.9,6.47-.08.53-.37,1.37-.47,1.82l.31,3.72c.12,1.43.76,3.26,1.48,4.39,1.27,2,3.73,3.07,5.48,4.65l1.89,1.7c.48.43,1.65.62,2.22,1.02,1.18.81,2.24.98,3.71,1.02.66.01,5.33,1.22,6.62,1.14.6-.39,1.26-.8,1.78-1.19l1.54-1.15c.8-.6,1.66-1.42,2.32-2.23,1.02-1.25,1.3-3.2,2.19-4.44l.92-4.23c.26-1.19.55-2.45.59-3.68l.14-4.39c.02-.49.03-.93.02-1.41l-.04-1.59-.49-6.48c-.13-1.72-.6-3.44-1.23-4.99-.78-1.92-.79-3.88-1.05-4.59-.79-2.1-1.61-4.01-1.79-6.29-.6-.79-1.51-1.59-1.98-2.42-.82-1.43-1.37-2.89-2.39-4.14-.19-.23-.6-.57-.45-.77l.97-1.22c.27-.34,1.29-.51,1.62-.8.5-.45.95-1.05,1.35-1.6.98-1.35,1.41-3.7.43-4.85-.17-.2-.84-.3-1.1-.23-.96.25-1.32,1.28-1.27,2.2.08,1.44-1.97,2.34-2.31,2.27-.92-.19-2.08-.99-2.68-1.95l-.79-1.27c-1.6-2.58-2.08-4.14-3.07-6.93-.29-.83-.61-1.67-.84-2.52l-1.23-4.66-1.15-4.42-1.48-5.92c-.19-.77-.23-1.65-.39-2.42l-.97-4.81c-.36-1.77-1.12-6.68-1.12-8.35v-2.24c0-.37.34-1.04.07-1.48-.82-1.33-.93-2.74-1.01-4.28l-.19-3.52-.05-2.22-.02-2.52c-.02-2,.23-2.01.24-3.25s-.38-2.5-.42-3.75l-.18-5.41-.1-5.11c-.01-.71-.03-1.26.13-1.92.29.56.33.92.53,1.42.74,1.79,2.56,3.44,4.55,3.78.89.15,1.87.12,2.79.1.67-.02,1.61-.37,2.23-.64.45-.19,1.02-.77,1.44-.88,1.3-.34,2.05-1.09,2.87-1.99,1.04-1.15,2.01-2.25,2.13-3.95l.16-2.41c.08-1.17-.09-6.28-.22-7.57s-.81-2.38-.34-3.19c.27-.46.97.91,2,.03,4.07.95,3.82,1.83,6.33,3.71,1.29.96,2.02,1.94,2.67,3.41.75,1.71,2.6,4.09,3.24,5.98,1.01,3.01,1.96,6.76,1.7,9.89l-.24,2.96c-.05.62.24,1.12.72,1.32.34.14,1.2.1,1.3-.25l.62-2.42c.12-.48.19-1.46.15-1.97-.08-1.2.05-2.27.04-3.36l-.04-2.81c-.05-2.96-1.06-4.54-1.05-6.32,0-.64-.53-1.18-.78-1.74-.82-1.86-.56-1.68-1.62-3.92-1.55-3.29-2.57-3.59-5.23-5.89l-1.51-1.31c-.74-.64-1.87-.97-2.73-1.5-1.06-.66-1.72-.8-3.1-.69l-2.29.18c-.44.23-1.15,1.07-1.76.52-.37-.33-.76-1.26-.89-1.81-.22-.97-.62-1.64-1.05-2.47l-.78-1.5c-.21-.4-.61-.74-.91-1.11-.71-.87-1.05-2.16-1.7-3.11-2.12-3.05-.75-1.6-3.35-4.61-1.72-1.99-2.11-1.49-3.91-3.45l-1.12-.49c.33-2.25.08-4.35.21-6.6l.19-3.33.3-4.46.67-6.5.26-2.57c.39-3.87-.24-4.01.08-7.54.47-5.32-1.09-6.8-.08-11.36l.75-3.39c.13-.59.48-1.16.4-1.84-.1-.86-.36-1.77-.31-2.55.16-2.78-.28-4.92-.23-5.98l.3-5.63c-.62.15-1.26-.01-1.38-.57l-.61-2.98c-.17-.84-.38-1.7-.6-2.53l-.9-3.39c-.23-.85-.54-1.74-.93-2.56l-1.58-3.36c-.25-.53-.36-.9-.65-1.39-.54-.9-.82-1.97-1.13-2.99l-.64-.8c-.21-.79-.46-1.58-1-2.16l-2.45-2.6-1.61-1.48-1.15-1.1c-.29-.28-.98-.77-1.38-.95-4.18-1.87-3.21-3.44-8.2-3.91l-2.05-.19c-1.31-.12-2.46,0-3.72.13-1.37.15-2.4.4-3.66.88-2.69,1.03-5.46.91-7.69,2.74-.38.31-1.09.46-1.47.71l-2.46,1.62c-1.72,1.13-4.61,4.39-5.45,6.48l-.97,2.42c-.37.92-.44,2.05-.69,3.03-.48,1.9-.82,4.83-.81,6.81,0,2.32.52,4.49.59,6.61.35.52.79,1.13.97,1.79,1.44,5.32,2.46,4.54,3.46,6.33,1.23,2.17,3,3.64,5.35,4.48l1.66.59c1.01.36,1.92.67,3.06.53.9-.12,2.02-.06,2.88-.36l2.48-.88c.66-.23,1.46-.53,2.07-.87,2.01-1.11,3.6-2.8,4.82-4.77.74-1.2,1-2.8,1.15-4.19.13-1.2.44-2.4.35-3.6-.2-2.95-.68-3.46-.88-5.83-.1-1.24-1.01-2.29-1.5-3.36s-.76-2.35-1.4-3.33c-.54-.83-2.68-3.33-3.34-3.78l-1.67-1.16c-.51-.35-1.29-.68-1.93-1.01-.39-.21-1.32.02-1.78,0-1.69-.05-2.76.19-4.7.75,1.35-2.94,3.13-5.76,5.63-7.96.64-.36,1.58-.9,2.28-1.02l3.67-.64c.9-.16,1.95-.69,2.78-.18,1.75,1.07,1.91.26,4.37,2.86-2.44,1.65-3.39.45-4.21,3.31-.3,1.04-.52,1.87,0,2.98l.32.68c.54-.25,1.26-.56,1.59-.82l1.55-1.9.62.94c1.7-2.23,1.01-.14,2.21-1.33l2.13.45c2.98.64,2.34,1.06,4.18,4.04-.09,2.54.74,2,.67,4.59l-.16,6.57c-.03,1.3.05,2.65-.16,3.92l-.61,3.66c-.32,1.91-.86,3.72-1.08,5.61s-.59,3.54-.95,5.32l-.51,2.49c-.31,1.54-.82,2.99-1.17,4.53l-1.57,6.94c-.25,1.09-.64,2.08-.95,3.14l-1.04,3.56-.85,3.43-1.09,4.27c-.18.73-.28,1.53-.61,2.2-.72,1.48-.95,2.95-1.31,4.55-.22.99-.65,2.04-.96,3.03l-.86,2.69c-.4.24-1.05.67-1.43.77l-1.79.49-6.8,1.43c-1.79.38-3.43.97-5.25,1.29l-5.5.98c-.43.08-1.06.31-1.54.44-2.56.71-2.91.9-5.07,2.29-.53.34-.99,1.03-.52,1.54.42.46.99.51,1.54.21l.41-.22c.05-.03.12.21.09.26s-.2.27-.25.3l-2.34,1.26c-1.57.85-2.55,2.13-3.51,3.56-.33.49-.75,1.01-1.01,1.55l-1.83,3.72c-.4.81-.68,1.84-.94,2.72l-.73,2.49c-.23.78-.14,1.83-.2,2.75-.09,1.42,1.04,3.79,1.79,5.06l1.2,2.06c1.46-.73,1.12,1.18,3.18.94,2.45-.29,3.92-.38,5.79-1.64M251.77,45.7c.32-.42-.24-1.01-.52-.69-.18.19.35.92.52.69ZM203.26,141.93,264.38,276.58l-.49.16.18.56.49-.16-.18-.56Z"/>
  <path d="M251.77,45.7c-.17.22-.7-.5-.52-.69.29-.31.85.28.52.69Z"/>
  <rect x="263.96" y="276.64" width=".51" height=".58" transform="translate(-71.11 92.38) rotate(-17.52)"/>
  <path class="cls-1" d="M226.01,101.88c-2.01-1.01-5.61-2.14-7.87-2.67l-2.54-.6.54-1.88c.17-.61.28-1.19.48-1.77l1.27-3.61,2.62-7.14,1.03-3.34.92-2.74,1.35-4.23.53-1.52c.52-1.5.79-2.97,1.27-4.5l.91-2.89,1.27-4.35.9-2.59.8-2.88c.22-.78.4-1.39.75-2.27.32.61.3,1.09.34,1.77l.31,4.26c.12,1.67.28,3.2.51,4.85.23,1.69.01,3.45.14,5.17.05.71.1,1.45.05,2.14l-.33,4.99-.12,1.61-.11,4.06-.18,4.63c-.06,1.46-.12,2.82-.23,4.28l-.76,9.8-.25,3.84c-2.38-1.14-1.91-1.59-3.6-2.43Z"/>
  <path class="cls-1" d="M243.97,147.77c-1.77.5-2.79.55-3.72-.61-.68-.84-1.31-1.67-.9-2.76-1.13-1.53.98-6.73,1.72-7.41l2.15-1.97c1.86-1.7,2.08-1.59,4.31-2.75.1-.05.44-.11.49-.02s.17.35.19.46l.56,2.43c.48,2.08.44,4.3.26,6.36-.48,2.32-1.65,4-3.46,5.38-.53.4-.92.69-1.6.89Z"/>
  <path class="cls-1" d="M237.51,136.85c-.94,1.6-1.24,3.21-1.68,5.07-.12-.88-.03-1.74-.04-2.64l-.02-1.76.05-4.18.02-2.07.11-9.24.17-3.18.22-3.26c.87.55,1.14,1.48,1.78,2.23l1.67,1.99.9,1.17c.52.67.88,1.47,1.29,2.23,1.03,1.89,2.27,3.76,3.62,5.47l-1.71.92c-1.04.56-2.1,1.06-2.86,1.95-.92,1.08-1.68,2.16-2.39,3.37l-1.13,1.93Z"/>
  <g>
    <path d="M186.86,132.97c-1.87,1.26-3.34,1.36-5.79,1.64-2.06.24-1.72-1.67-3.18-.94l-1.2-2.06c-.74-1.27-1.88-3.64-1.79-5.06.06-.92-.03-1.97.2-2.75l.73-2.49c.26-.88.53-1.91.94-2.72l1.83-3.72c.26-.54.68-1.05,1.01-1.55.96-1.43,1.93-2.71,3.51-3.56l2.34-1.26c.06-.03.23-.24.25-.3s-.04-.29-.09-.26l-.41.22c-.55.3-1.12.25-1.54-.21-.47-.51,0-1.21.52-1.54,2.16-1.38,2.51-1.58,5.07-2.29.48-.13,1.11-.37,1.54-.44l5.5-.98c1.82-.32,3.45-.92,5.25-1.29l6.8-1.43,1.79-.49c.38-.1,1.03-.54,1.43-.77l.86-2.69c.31-.99.74-2.03.96-3.03.36-1.6.59-3.06,1.31-4.55.33-.67.43-1.48.61-2.2l1.09-4.27.85-3.43,1.04-3.56c.31-1.06.7-2.05.95-3.14l1.57-6.94c.35-1.54.86-3,1.17-4.53l.51-2.49c.36-1.79.74-3.51.95-5.32s.77-3.7,1.08-5.61l.61-3.66c.21-1.27.13-2.61.16-3.92l.16-6.57c.07-2.59-.76-2.05-.67-4.59-1.84-2.99-1.2-3.41-4.18-4.04l-2.13-.45c-1.2,1.19-.52-.9-2.21,1.33l-.62-.94-1.55,1.9c-.33.26-1.05.57-1.59.82l-.32-.68c-.52-1.11-.29-1.94,0-2.98.82-2.86,1.76-1.66,4.21-3.31-2.46-2.59-2.62-1.78-4.37-2.86-.83-.51-1.88.02-2.78.18l-3.67.64c-.7.12-1.65.66-2.28,1.02-2.5,2.21-4.28,5.02-5.63,7.96,1.94-.56,3.01-.81,4.7-.75.46.01,1.38-.22,1.78,0,.63.34,1.42.66,1.93,1.01l1.67,1.16c.66.46,2.8,2.95,3.34,3.78.64.98.89,2.23,1.4,3.33s1.4,2.12,1.5,3.36c.2,2.37.67,2.88.88,5.83.08,1.2-.22,2.39-.35,3.6-.15,1.39-.41,2.99-1.15,4.19-1.22,1.97-2.81,3.66-4.82,4.77-.61.34-1.42.64-2.07.87l-2.48.88c-.85.3-1.98.25-2.88.36-1.14.15-2.06-.16-3.06-.53l-1.66-.59c-2.34-.84-4.12-2.31-5.35-4.48-1.01-1.78-2.02-1.01-3.46-6.33-.18-.66-.62-1.27-.97-1.79-.07-2.12-.59-4.29-.59-6.61,0-1.98.33-4.92.81-6.81.25-.98.32-2.11.69-3.03l.97-2.42c.84-2.09,3.73-5.35,5.45-6.48l2.46-1.62c.37-.25,1.09-.4,1.47-.71,2.23-1.83,5.01-1.71,7.69-2.74,1.26-.48,2.29-.73,3.66-.88,1.27-.14,2.41-.26,3.72-.13l2.05.19c5,.47,4.03,2.04,8.2,3.91.4.18,1.09.67,1.38.95l1.15,1.1,1.61,1.48,2.45,2.6c.54.58.79,1.37,1,2.16l.64.8c.32,1.02.59,2.09,1.13,2.99.29.49.4.86.65,1.39l1.58,3.36c.39.82.7,1.71.93,2.56l.9,3.39c.22.84.43,1.69.6,2.53l.61,2.98c.11.56.76.72,1.38.57l-.3,5.63c-.06,1.06.39,3.2.23,5.98-.05.78.21,1.69.31,2.55.08.67-.27,1.25-.4,1.84l-.75,3.39c-1.01,4.56.55,6.04.08,11.36-.31,3.53.32,3.68-.08,7.54l-.26,2.57-.67,6.5-.3,4.46-.19,3.33c-.13,2.25.12,4.35-.21,6.6l1.12.49c1.79,1.97,2.18,1.46,3.91,3.45,2.6,3.01,1.23,1.56,3.35,4.61.66.94.99,2.24,1.7,3.11.31.37.71.71.91,1.11l.78,1.5c.43.84.83,1.5,1.05,2.47.13.55.52,1.47.89,1.81.61.55,1.32-.29,1.76-.52l2.29-.18c1.38-.11,2.04.03,3.1.69.86.53,1.99.86,2.73,1.5l1.51,1.31c2.66,2.3,3.68,2.6,5.23,5.89,1.06,2.23.79,2.06,1.62,3.92.25.57.78,1.11.78,1.74-.01,1.78,1,3.36,1.05,6.32l.04,2.81c.02,1.09-.12,2.16-.04,3.36.04.51-.03,1.49-.15,1.97l-.62,2.42c-.09.36-.96.4-1.3.25-.48-.2-.77-.71-.72-1.32l.24-2.96c.26-3.12-.69-6.88-1.7-9.89-.63-1.88-2.48-4.27-3.24-5.98-.65-1.47-1.38-2.45-2.67-3.41-2.52-1.88-2.26-2.76-6.33-3.71-1.03.89-1.73-.49-2-.03-.47.81.19,1.86.34,3.19s.3,6.39.22,7.57l-.16,2.41c-.11,1.7-1.08,2.81-2.13,3.95-.83.91-1.58,1.65-2.87,1.99-.43.11-1,.69-1.44.88-.63.27-1.57.62-2.23.64-.91.03-1.9.06-2.79-.1-1.99-.34-3.81-2-4.55-3.78-.2-.49-.24-.85-.53-1.42-.16.67-.15,1.21-.13,1.92l.1,5.11.18,5.41c.04,1.25.43,2.49.42,3.75s-.26,1.25-.24,3.25l.02,2.52.05,2.22.19,3.52c.08,1.54.19,2.94,1.01,4.28.27.44-.07,1.11-.07,1.48v2.24c0,1.67.77,6.57,1.13,8.35l.97,4.81c.16.77.2,1.66.39,2.42l1.48,5.92,1.15,4.42,1.23,4.66c.22.84.54,1.68.84,2.52.99,2.79,1.47,4.35,3.07,6.93l.79,1.27c.6.97,1.76,1.77,2.68,1.95.34.07,2.39-.82,2.31-2.27-.05-.92.31-1.95,1.27-2.2.27-.07.94.04,1.1.23.98,1.16.55,3.5-.43,4.85-.4.55-.85,1.15-1.35,1.6-.33.3-1.35.46-1.62.8l-.97,1.22c-.16.2.25.53.45.77,1.02,1.25,1.57,2.71,2.39,4.14.47.82,1.38,1.63,1.98,2.42.19,2.28,1,4.19,1.79,6.29.27.71.28,2.67,1.05,4.59.63,1.56,1.11,3.27,1.23,4.99l.49,6.48.04,1.59c.01.48,0,.92-.02,1.41l-.14,4.39c-.04,1.23-.33,2.48-.59,3.68l-.92,4.23c-.89,1.24-1.17,3.19-2.19,4.44-.66.81-1.52,1.63-2.32,2.23l-1.54,1.15c-.52.39-1.18.8-1.78,1.19-1.29.09-5.96-1.12-6.62-1.14-1.47-.03-2.54-.2-3.71-1.02-.57-.4-1.74-.59-2.22-1.02l-1.89-1.7c-1.75-1.58-4.21-2.65-5.48-4.65-.72-1.14-1.36-2.97-1.48-4.39l-.31-3.72c.1-.46.39-1.29.47-1.82.67-4.34,3.31-4.74,3.9-6.47.45-1.32,1.45-2.02,2.55-2.63,1.15-.64,2.16-.98,3.48-1.02,1.76-.05,4.16.76,3.95,2.57-.08.7-1.19,1.15-1.82,1.22-.81.09-1.28.51-1.82,1.02-1.6,1.51-1.33.67-2.91,2.48-.65.74-.97,1.54-1.31,2.46-.25.7-.64,1.38-.59,2.19.22,3.71.74,7.06,3.78,9.47,2.28,1.82,8.41,1.5,11.29.68,1.14-.33,1.93-1.15,2.93-1.97l-.2-.29-1.95-.6c-.9-.28-1.96-.97-2.67-1.65-1.13-1.08-1.55-2.63-1.83-4.09-.08-.09-.29-.36-.37-.46s.23-.44.23-.61c-.08-2.02.47-4.51,2.31-5.76.4-.09,1.31-.18,1.66.02.95.56,1.81,1.47,1.5,2.45-.1.33-.61.71-.99.91l-1.5.78c-.71,1.65,1.05,3.86,2.16,4.49s1.98.33,2.86-.4c1.11-.92,1.62-2.03,1.94-3.53l.45-2.06c.09-.39-.14-8.19-.18-8.33l-.76-2.71c-.25-.89-.41-1.8-.71-2.66l-.45-1.28-1.68-5.3c-.78-2.45-2.23-4.62-3.9-6.53l-2.83-3.24-1.23-1.59-1.2-2.3c-.3-.57-.75-.99-1.03-1.56l-1.8-3.72-2.09-4.4c-.6-1.27-.75-2.71-1.44-3.99-.25-.47-.25-1.13-.41-1.71-.48-1.78-1-4.03-1.29-5.77-.11-.66-.83.03-1.01-.87l-.3-1.58-.15-2.45-1.02-5.33-.86-3.44c-.86-3.47-.91-3.6-1.29-7.23l-.23-2.21c-.05-.49.08-1.27.03-1.7l-.28-2.07c-.14-1.01-.22-2.02-.37-2.96-.09-.57-.18-1.1-.24-1.68l-.27-2.58c-.3-2.8.18-4.09.09-7.07-.06-1.96-.05-3.85-.22-5.8-.22-2.47,0-4.86.04-7.33l.03-1.35c.02-1.32-.04-2.59-.07-3.93l-.15-6.96c-.02-.84.04-1.6,0-2.46l-.25-4.42-.35-5.19-.18-4.82.21-3.89c.06-1.12,0-2.12.02-3.22l.05-3.42.24-2.51c.09-.9.56-2.29-.07-3.16-.69-.95-2.04-1.96-3.17-2.3l-2.48-.73c-.51-.15-1.25-.3-1.78-.35-1.68-.16-3.2-.44-4.85-.74l-2.04-.37c-.38-.07-1.23.05-1.5.11l-.46,1.12c-.28.68-.49,1.38-.72,2.11l-1.75,5.46-.64,2.52-1.86,6.42-.36,1.31-1.22,4.39-.92,3.35c-.4,1.43-.77,2.83-1.05,4.29-.38,1.97-.96,3.74-1.59,5.66s-1.13,3.98-1.56,6l-1.23,5.86-1.66,7.7c-.09.4-.27.86-.42,1.19-.31.68-.12,1.51-.26,2.1-.3,1.28-.55,2.48-.74,3.73l-.69,4.64c-.42,2.83-.8,5.57-1.33,8.37-.46,2.45-.61,4.84-.88,7.31-.2,1.79-.36,3.47-.48,5.27l-.18,2.79-.41,5.7c-.26,3.62.01,6.34.4,9.91l.99,9.27c.41,3.8,2.33,11.59,5.61,13.82l1.29.88c.2.14.67.24.94.3l1.23.26c1.29.27,2.07-.43,3.08-.84,1.09-.44,2.2-.84,2.59-2.17,1.9-1.15,2.48-2.45,2.85-4.73.45-2.75,1.14-6.4-.41-8.78-.72-1.11-.66-2.68-1.64-3.76-.45-.49-3.63-2.34-5.05-.67-.44.51-.59,1.04-.8,1.7-.42,1.3-1.02,2.07-1.07,4.33l-.03,1.54c0,.32-.21,1-.47,1.23-.23.2-.76.18-1.3.13-.23-.34-.27-1.14-.37-1.68-.17-.9-.35-1.74-.29-2.69.13-2.08.08-2.87,1.15-4.2l.85-1.06,2.42-2.73c.37-.42.7-.77,1.25-1,.04-.95.65-1.96,1.83-2.02,4.39-.23,2.91-.05,6.03,1.55,1.34.69,1.83,1.98,2.24,3.35.56,1.89,1.35,3.73,1.45,5.74.16,3.31.17,7.34-.67,10.44l-.37,1.36c-.34,1.28-.66,2.67-1.39,3.76-.85,1.26-1.67,2.83-2.98,3.3l-1.38.5c-1.32.47-3.06,1.2-4.36,1.11-.13,0-.46.32-.55.4-.11.1-.4-.18-.57-.2l-2.77-.35c-.62-.08-1.43-.73-2.1-.93-.82-.23-1.97-.22-2.59-.73-1.28-1.05-1.85-1.42-2.94-2.35-.48-.78-.85-1.38-1.35-2.05l-.96-1.28c-.34-.45-.36-1.52-.68-2.07-.59-.99-1.27-1.92-1.61-3.01-.28-.88-.59-1.84-.76-2.72s.43-1.89-.63-2.45l-.1-1.57-.19-2.81c-.06-.92-.37-1.92-.35-2.85l.05-3.22c.02-1.52.45-5.19.67-6.87l.56-4.28c.42-3.18-.07-4.09.55-8.28.27-1.81-.4-1.89.31-4.88l.64-2.66c.39-1.63-.59.43-2.25,1.07-1.4.54-3.7,1.35-5.15,1.17-.75-.09-1.8-.2-2.1-.96-.34-.86-.69-1.88-.59-2.71l.4-3.35c.13-1.08.6-2.18,1.48-2.92.25-.21,1-.04,1.22.18,1.06,1.04-.37,1.66.11,3.63.12.49.35,1.12.69,1.33,1,.62,2.67-.55,3.43-1.33,1.26-1.28,1.9-2.87,2.63-4.48.51-1.12,1.58-3.91,1.77-5.02s.45-2.09.71-3.16l.44-1.84.14-1.96c.06-.91.26-1.64.23-2.54-.07-2.73.29-1.59.3-3.42l1.24-.91c.51-.75.26-1.78.4-2.65l1.17-7.15.43-2.32.73-3.33,2.37-9.88c.44-1.85,1.1-3.54,1.65-5.34l1.82-6.03.67-2.39,1.05-3.96,1.12-4.4.96-3.51.92-2.7c-.91.14-1.74.55-2.38.77-2.22-.2-1.93.58-4.57,1.49-1.13.39-1.98.9-2.87,1.57l-3,2.24c-1.72,1.28-3.37,2.55-4.94,4l-1.34,1.24-1.13,1.1-1.27,1.36c-.25.27-.73.64-.93.89-.63.77-1.33,1.57-1.96,2.28l-1.06,1.19c-1.74,1.96-1.93,2.22-3.07,4.73-.35.78.58,1.71.97,2.25.88,1.23,2.51.85,2.53.82l.47-.78,1.83-.38c.14-.89.52-1.33,1.18-1.8l.35-.25c.24-.17-1.02-.43-1.1-1.47-.04-.6.37-.82.75-1.25,1.09-1.22,2.58-1.84,4.2-1.09l1.04,2.32-.51,1.33c-.35.9-.75,1.95-1.3,2.72M193.22,24.83c.27-.43,1.06-.65.61-1.29-1.3,1.19-2.75,2.43-3.27,4.05-.35,1.11-1.27,1.9-1.01,3.15l3.67-5.91ZM192.02,31.39c1.39-1.62,2.22-2.43,3.68-3.67.1-.46-.18-1.18-.46-1.73-1.24,1.31-2.13,2.8-3.06,4.39-.18.31-.72.74-.16,1.01ZM207.07,31.03c-.34-.95-.93-.89-1.38-1.37-.33-.55-3.67-2.03-3.81-.78,2.98.11,2.73,1.52,5.18,2.15ZM207.08,47.92c-.2.27-.33,1.06-.54,1.32-.91,1.15-2.12,2.24-3.4,2.96-2.03,1.14-5.77.56-7.46-1.15-.65-.66-1.15-1.39-1.82-1.96-1.22-1.06-1.94-2.51-2.98-3.68-2.1-2.37-1.05-2.28-1.84-5.48-1.34,3.7.7,7.48,2.67,10.7.67,1.1,1.58,1.4,2.6,2.19l1.52,1.18,1.65.98c.86.51,1.67.86,2.7,1.02,2.22.33,4.45.27,6.5-.7,1.75-.83,2.38-.73,3.58-2.42.95-1.34,1.63-3.22,2.14-4.67.08-.22-.06-.81-.05-1.02.11-1.93-.02-4.75-.58-6.67l-.72-2.43c-.28-.96-.7-1.68-1.48-2.32l-2.35-1.91-.64-.34-2.12-1c-1.09-.52-1.84-1.45-3.31-1.36-.84.05-2.21.2-3.01.72-1.68,1.09-2.58,2.99-3.16,4.82s-1.09,3.51-.9,5.3l.22,2.12c.05.38,1.13.06,1.52-.04,3.45-.91,1.67-1.39,3.62-1.65-.23.59-.39.92-.43,1.25-.3,2.17-2.75,1.62-3.68,2.85-.33.43,1.77,2.38,2.11,2.7.58.55,1.19.63,1.98.72.92.1,1.74.04,2.44-.62.2-.19.84-.48.97-.72.45-.8,1.07-1.98,1.14-2.82l.13-1.7c.13-1.74-1.31-5.42-1.95-5.07-.47.26-1.02.97-1.98,1.38-.7.06-1.85-.7-1.58-1.52.31-.96,1.3-2,2.21-2.43,1.33-.64,2.47-.34,3.83-.18,1.13.13,1.56.79,2.07,1.63,1.03,1.66,1.71,1.58,1.87,4.72.03.6-.19,1.38-.3,2.02l.65.52c-1.86.1-.52.98-1.83,2.75ZM234.02,42.12c.06.15.49.43.52.32s.13-.45.1-.59l-.78-2.93c-.73.02-.89.77-.62,1.39l.78,1.8ZM226.01,101.88c1.68.84,1.22,1.29,3.6,2.43l.25-3.84.76-9.8c.11-1.46.17-2.83.23-4.28l.18-4.63.11-4.06.12-1.61.33-4.99c.05-.69,0-1.43-.05-2.14-.13-1.72.09-3.48-.14-5.17-.23-1.65-.39-3.18-.51-4.85l-.31-4.26c-.05-.68-.03-1.15-.34-1.77-.35.88-.53,1.49-.75,2.27l-.8,2.88-.9,2.59-1.27,4.35-.91,2.89c-.48,1.53-.74,3-1.27,4.5l-.53,1.52-1.35,4.23-.92,2.74-1.03,3.34-2.62,7.14-1.27,3.61c-.21.58-.31,1.16-.48,1.77l-.54,1.88,2.54.6c2.25.53,5.85,1.66,7.87,2.67ZM232.52,94.27c.38-.58.31-1.12.16-1.58-.17.58-.27,1.07-.16,1.58ZM232.9,102.85c.04-.72.17-1.35.15-1.98l-.1-2.61c-.04-1.04-.09-2.06-.44-3.14-.2,3.72-.22,7.7.19,11.12l.2-3.4ZM231.85,110.97c0-.16-.13-.29-.29-.29s-.29.13-.29.29.13.29.29.29.29-.13.29-.29ZM188.95,114.08l1.26-1.17c-.23-.64-3.97,2.75-3.19,3.04l1.92-1.86ZM237.51,136.85l1.13-1.93c.71-1.21,1.47-2.29,2.39-3.37.76-.89,1.82-1.39,2.86-1.95l1.71-.92c-1.35-1.71-2.59-3.58-3.62-5.47-.41-.76-.77-1.56-1.29-2.23l-.9-1.17-1.67-1.99c-.63-.75-.9-1.68-1.78-2.23l-.22,3.26-.17,3.18-.11,9.24-.02,2.07-.05,4.18.02,1.76c0,.9-.08,1.77.04,2.64.43-1.86.74-3.47,1.68-5.07ZM231.06,128.1v-3.05c-.35.26-.34.52-.3.82l.3,2.23ZM243.97,147.77c.67-.19,1.07-.48,1.6-.89,1.81-1.37,2.98-3.06,3.46-5.38.18-2.06.22-4.28-.26-6.36l-.56-2.43c-.03-.11-.14-.37-.19-.46s-.39-.04-.49.02c-2.24,1.17-2.46,1.06-4.31,2.75l-2.15,1.97c-.74.67-2.85,5.88-1.72,7.41-.41,1.09.23,1.92.9,2.76.93,1.16,1.96,1.11,3.72.61ZM263.32,133.89c-.4-.37-.7-.52-1.08-.53.04.2.23.55.36.68.1.11.52-.01.72-.15ZM232.48,172.2c.57-.38.37-.86-.07-1.05l.07,1.05ZM237.66,201.95l-.41.49.42.35.41-.49-.42-.35ZM242.85,216.32l-1.79-5.61c.19,2.3.68,4.23,1.11,6.57.05.3.64.21.94.04.22-.12-.15-.7-.25-1ZM245.3,222.42l-1.2-2.79c-1.1.26,1.35,3.65,1.2,2.79ZM244.7,227c.41-.89-.13-1.11-.59-1.61-.04-.39-.14-.29-.3.11l.89,1.5ZM254.33,239.43c.19-.67-.01-.95-.47-1.12l.47,1.12ZM238.49,257.6c.93-.89-1.62-.31-1.89.53.61.64,1.36.06,1.89-.53ZM235.24,275.22l.41.19c.06.03.14-.29.1-.35l-.16-.23-.96-1.46c-1.37-2.08-2.17-4.31-2.01-6.89.05-.77.02-1.5-.14-2.3-1.04,2.81-.47,3.94-.4,5.49.05,1.23.23,2.2.87,3.31.58,1,1.17,1.74,2.3,2.25ZM252.66,280.65c.53-.41,1.19-.81,1.41-1.38l-2.74,1.13c-1.41-.07-2.67,0-3.95.54,2.56.68,3.66.97,5.29-.29Z"/>
    <path class="cls-1" d="M207.08,47.92c1.31-1.77-.04-2.65,1.83-2.75l-.65-.52c.1-.64.33-1.42.3-2.02-.16-3.14-.84-3.05-1.87-4.72-.52-.84-.95-1.49-2.07-1.63-1.36-.16-2.5-.46-3.83.18-.91.44-1.9,1.47-2.21,2.43-.26.81.88,1.58,1.58,1.52.96-.41,1.52-1.13,1.98-1.38.64-.35,2.08,3.33,1.95,5.07l-.13,1.7c-.06.84-.68,2.02-1.14,2.82-.13.24-.77.53-.97.72-.69.66-1.51.72-2.44.62-.79-.09-1.4-.17-1.98-.72-.34-.32-2.44-2.27-2.11-2.7.93-1.22,3.38-.68,3.68-2.85.05-.33.2-.66.43-1.25-1.95.26-.16.74-3.62,1.65-.38.1-1.46.42-1.52.04l-.22-2.12c-.19-1.79.33-3.47.9-5.3s1.48-3.73,3.16-4.82c.8-.52,2.17-.67,3.01-.72,1.46-.09,2.22.84,3.31,1.36l2.12,1,.64.34,2.35,1.91c.78.64,1.19,1.36,1.48,2.32l.72,2.43c.57,1.92.69,4.74.58,6.67-.01.21.12.8.05,1.02-.51,1.45-1.19,3.33-2.14,4.67-1.2,1.69-1.82,1.58-3.58,2.42-2.05.97-4.28,1.03-6.5.7-1.03-.15-1.83-.51-2.7-1.02l-1.65-.98-1.52-1.18c-1.02-.79-1.93-1.09-2.6-2.19-1.97-3.23-4.01-7.01-2.67-10.7.79,3.2-.25,3.12,1.84,5.48,1.04,1.17,1.76,2.63,2.98,3.68.66.57,1.16,1.3,1.82,1.96,1.68,1.71,5.43,2.3,7.46,1.15,1.28-.72,2.5-1.81,3.4-2.96.21-.27.35-1.06.54-1.32Z"/>
    <path class="cls-1" d="M235.24,275.22c-1.12-.51-1.72-1.26-2.3-2.25-.64-1.1-.82-2.07-.87-3.31-.06-1.54-.64-2.68.4-5.49.16.8.19,1.53.14,2.3-.16,2.58.64,4.81,2.01,6.89l.96,1.46.16.23c.04.06-.04.38-.1.35l-.41-.19Z"/>
    <path class="cls-1" d="M192.02,31.39c-.57-.28-.03-.7.16-1.01.93-1.59,1.83-3.08,3.06-4.39.28.55.56,1.28.46,1.73-1.46,1.24-2.28,2.05-3.68,3.67Z"/>
    <path class="cls-1" d="M193.22,24.83l-3.67,5.91c-.25-1.25.66-2.04,1.01-3.15.51-1.62,1.97-2.86,3.27-4.05.45.64-.34.86-.61,1.29Z"/>
    <path class="cls-1" d="M252.66,280.65c-1.63,1.26-2.73.96-5.29.29,1.28-.54,2.54-.61,3.95-.54l2.74-1.13c-.21.58-.88.97-1.41,1.38Z"/>
    <path class="cls-1" d="M232.9,102.85l-.2,3.4c-.41-3.42-.38-7.4-.19-11.12.35,1.08.4,2.09.44,3.14l.1,2.61c.02.63-.11,1.26-.15,1.98Z"/>
    <path class="cls-1" d="M242.85,216.32c.1.3.47.88.25,1-.3.16-.89.26-.94-.04-.43-2.34-.91-4.27-1.11-6.57l1.79,5.61Z"/>
    <path class="cls-1" d="M207.07,31.03c-2.45-.63-2.21-2.05-5.18-2.15.14-1.26,3.48.23,3.81.78.45.49,1.04.42,1.38,1.37Z"/>
    <path class="cls-1" d="M234.02,42.12l-.78-1.8c-.27-.62-.11-1.38.62-1.39l.78,2.93c.04.14-.06.49-.1.59s-.46-.18-.52-.32Z"/>
    <path class="cls-1" d="M188.95,114.08l-1.92,1.86c-.78-.29,2.96-3.68,3.19-3.04l-1.26,1.17Z"/>
    <path class="cls-1" d="M238.49,257.6c-.53.59-1.28,1.16-1.89.53.27-.84,2.82-1.41,1.89-.53Z"/>
    <path class="cls-1" d="M245.3,222.42c.14.86-2.3-2.53-1.2-2.79l1.2,2.79Z"/>
    <path class="cls-1" d="M231.06,128.1l-.3-2.23c-.04-.3-.05-.56.31-.82v3.05Z"/>
    <path class="cls-1" d="M244.7,227l-.89-1.5c.17-.4.27-.5.3-.11.45.5.99.72.59,1.61Z"/>
    <path class="cls-1" d="M232.52,94.27c-.11-.52,0-1.01.16-1.58.15.47.22,1.01-.16,1.58Z"/>
    <path class="cls-1" d="M263.32,133.89c-.2.14-.62.26-.72.15-.13-.13-.32-.49-.36-.68.37.02.67.16,1.08.53Z"/>
    <path class="cls-1" d="M232.48,172.2l-.07-1.05c.45.19.64.67.07,1.05Z"/>
    <rect class="cls-1" x="237.35" y="202.09" width=".64" height=".55" transform="translate(-70.11 254.48) rotate(-50.02)"/>
    <path class="cls-1" d="M254.33,239.43l-.47-1.12c.46.18.66.46.47,1.12Z"/>
    <circle class="cls-1" cx="231.56" cy="110.97" r=".29"/>
  </g>
</svg>