<?xml version="1.0" encoding="UTF-8"?>
<svg id="Layer_2" data-name="Layer 2" xmlns="http://www.w3.org/2000/svg" viewBox="0 0 432 288">
  <defs>
    <style>
      .cls-1 {
        fill: #fff;
      }
    </style>
  </defs>
  <path class="cls-1" d="M116.03,217.71V.71h195.53v286.57H116.03v-5.95c.79-.1.53-3.45.43-4.08-.43-2.82.27-6.9,2.2-8.75.39-1.2.98-2.26,1.67-3.29l1.57-2.32,1.8-2.35c.95-1.25,1.84-2.46,2.67-3.8l.25-.4c.05-.07-.53-.11-.59-.05l-1.56,1.62c-1.28,1.32-5.01,6.14-5.73,7.42l-2.71,4.89v-12.67c.37-.38,1.11-.96,1.43-1.43l1.94-2.86c.19-.28.34-1.08.47-1.38l.78-1.88,1.89-3.85,1.64-1.12.86,1.74,2.58,4.14c.29.46.56,1.5.7,2.06.49,1.93-.8,3.61-1.54,5.24l-.67,1.44c-.63,1.37-.61,2.96-.78,4.43-.24,2.09-.4,3.92-.19,6.03l.93-.63.29.52c.08.15.51.05.99.03l-.43.75.34,1.4c.72-.35,2.18-.8,3.1-1.06l1.63-2.96c1.75-3.17,1.76-2.79,3.87-5.26l3.95-4.62c1.88-2.19,5.73-6.27,7.1-9.14,1.29-2.7,2.76-5.25,3.59-8.03l1.12-3.77,1.42,3.52,1.69,4.87,7-2.08,2.7-.82c-.83-.48-1.29-1.81-.93-2.69,1.98-.58,4.14-1.04,6.02-1.78.99-.39,1.82-.79,2.81-1.06l2.32-.62c.73-.19,1.73-.8,2.46-.93,1.63-.29,2.94-.81,4.45-1.29l4.68-1.5,1.86-.49,2.68-.95-.17,2.77.07,4.85c.03,1.94.19,3.84-.08,5.76l-.3,2.15c-.15,1.06-.17,2.33.09,3.4.31.13,1.07.06,1.31-.14.7-.57.93-6.58.96-8.03l.08-3.55c.02-.93.08-1.96.03-2.87l-.18-3.22c-.03-.49.03-1.12.26-1.64.81-1.74-.12-1.45-1.07-3.87l-.68-1.73c-.43-1.1-1.46-4.69-1.91-4.36-.36-1.9-1.02-3.8-2.25-5.44l-.18-1.35-.61-1.53-1.55-3.88-.47-1.18-1.68-4.19c-.22-.55-.71-1.2-.8-1.78l-.09-.55c-.06-.36-1.75.05-1.7-.81.02-.36.33-.82.67-1.21l-.58-.59c-.13-.14-.53,0-.74,0l.17-.59c.03-.09-.34-.21-.39-.13l-.26.5c-.14.26.03.91.22,1.05l.35-.54c.05-.08.36.28.31.41-.69,1.71.16,2.65.87,4.67,1.01,2.9,1.08,2.39,2.09,5.15l.72,1.96c.9,2.47,1.77,4.89,2.92,7.22,1.48,3,.95,3.23,2.69,6.85.7,1.46,1.18,3.2,1.65,4.61l-6.89,2.11-5.14,1.75c-.82.28-1.94.44-2.71.77-.51.22-1.1.63-1.55.69-1.05.13-1.78.4-2.67.69l-8.75,2.81-1.85-5-.65-1.67c-.77-1.99-1.75-3.94-2.16-6.11l-.63-.82-.59-2.76.58-2.32c.43-1.69.95-3.35,1.01-5.15.1-3.21.04-4.13-.3-7.31l-.22-2.04c0-.08-.3-.39-.36-.44-.09-.09-.34.06-.41.16s.06.38.13.57l.12,2.59.05,2.07.03,2.08c.04,2.91-1.18,4.38-1.02,5.83l.07.68c.01.11-.31.12-.52.15l-.5.09c-.09.02-.02.39.07.39s.09,0,.46-.08l-.33,1.29-.48,2.21c-.29,1.36-.67,2.54-1.32,3.78l-1,1.9c-.21,1.74-.54,3.51-1.96,4.97-.57-.37-1.53-.89-1.9-1.3l-1.52-1.66-2.57-2.81-2.12-2.33c-.77-.85-1.54-1.46-2.68-1.8l-2.14-.66c-1.06-.94-2-1.58-3.5-1.68l-1.75-.12c-.22-.01-.1-.5-.04-.97.1-.78-.66-1.86-.82-2.66-.2-.99-.42-1.75-1.05-2.59l-2.72-3.59c2.37-1.02.82-2.8,1.59-2.97l.77-.16-.62-.79c-.16-.21.33-.91.33-1.2v-3.25s1.26-.02,1.26-.02c0,1-.19,2.09-.09,2.95l.28,2.33c.52,1.16,1.34,2.35,1.35,3.74,0,.14.08.68.22.68l.78-.03.88,1.69,2.19-1.28,1.49-3.23,1.23-2.51-.36-.06c-.09-.02-.36-.05-.29-.1l.55-.41c.35-.26.83-1.1,1.09-1.47l1.53-.71.5-.23c.13-.06.1.59.2.7.37.4,1.43-.15,1.95-.4,1.46-.69,2.79-1.44,3.75-2.83,1.19-1.72,2.03-4.27,1.03-6.14-.47,1.11-.73,1.76-1.69,2.14-2.55,1.02-2.75,1.35-4.91-.03-.11-.07-.07-.74-.21-.74l-.77.02c-.21-.8-.58-1.03-1.69-1.42l1.27-.55-.32-.35c-.08-.09,0-.3.07-.78.03-.02-.34.24-.61.43-1.42-2.22-.47.37-3.55-3.08.1-.25.11-.63-.08-.8-.28-.25-.68-.31-1.14-.32l1.29-1.47,1.04-1.26,2.15,1.23.06,2.76.53.39.35-.94c.15-.42,1.26.39,2,0,.22-.11.51-.72.51-.97,0-.93-.85-1.71-1.74-2.04,2.22-2.05,1.75-2.34,3.38-4.11-.23-.16-.65-.45-.83-.62s.35-.78.56-.92l1.15-.72s-.52-.19-.53-.21c0,0,.02-.17.1-.61l-1.27.33.95.48c-.42.27-1.25.3-1.34-.03-.1-.37-.3-1.08-.52-1.25s-.7-.15-1.11-.12l-1.72.12-.19.57c-.05.15-.37.12-.7.13l.89-1.41c1.35.28,2.29-.87,2.44-1.83l-2.38.35,2.19-1.15-1.95.02c.74-.69,1.47-.79,2.34-.99,2.71-.59,4.72,1.27,5.38,3.68,1.34,4.86-.99,3.86.35,8.4.62,2.1-.09,1.98.59,4.92,1.03-.69.91-1.81.86-2.9l-.12-2.34c.27.05.86.12.9.33l.25,1.18c.51,2.42.06,1.4.96,4.48.17.58.59,1.88,1.02,2.29l2,1.94-.82.29,1.04,2.76c.54.02.7,0,.55-.13.06-1.52.12-2.19.4-3.21l-.57-1.82,1.6-1.28.58.45.4-1.28c-2.37.17-2.01,2.33-3.31,1-.2-.2-.07-.79.01-1.09l.38.83c1.03-.59,2.01-1,3.13-.96.44-.33,1-1.04,1.33-1.63-2-1.4-4.11-2.4-5.58-4.29-.61-.79-1.29-1.67-1.98-2.45-.52.4-.89.65-1.41.84l-1.4.52.15-3.16c.16-3.44-.4-3.36-2.13-6.25l1.19-4.97c.21-.89.49-2.21.88-3.13-.05-.34-.12-.94-.04-1.28l.8-3.11.44-1.91.7-3.24c.12.06-.21-.1-.53-.24l-1.35,3.99c-.21.62-.12,2.09-.67,2.45-.8.53-1.95.97-2.72,1.18-.33-.52-3.08.28-1.91-.4l.56-.32-1.29-.32.06,1.51-.9-1.47c-.21-.13-.53-.32-.4-.24l.7-.21c.1-.03-.02-.43-.12-.4l-.62.21c-.08-1.16.22-2.15.8-3.27.64-1.24,1.16-2.82,2.12-3.79,1.58-1.59,3.64-.96,5.64-.45,0-.54-4.11-1.63-4.56-1.44-2.17.89-3.02,2.85-3.94,4.7-2.34,4.73-1.56,4.24-2.64,8.92l-.6,2.6c-.08.36-.08,1.13-.24,1.47l-1.15,2.51c.13.12.32.3.33.29s-.33.2-.41.24c-.15.08-.16.48-.14.75-2.43,1.55-5.26,2.34-8.11,3.12-1.27.35-1.81,2.09-2.39,3.02-.79.29-1.63.51-2.43.65l-2.59.48c-1.18.22-2.98-.58-4.19.04s-1,2.6-.16,3.47c.97,1,1.63,1.93,2.41,3.15l2.32,1.3.23-.71,2.68,4.97c1.58,2.94,1.58,2.37,3.6,5.01-.36,1.74-1,3.43-1.18,5.13l-.2,1.95c-.07.69-.3,1.64-.89,1.9-1.68-1.77-4.21-1.64-6.56-1.45l-1.97.16c-.47.04-1.32.71-1.74,1.01l3.21-.23c.66-.05,1.88-.43,2.46-.29,4.8,1.39,3.82,1.28,6.28,4.45.7.91,1.23,1.73,1.67,2.79,1.07,2.57.38,5.99-2.72,7.05l-3.88,1.33-.71-1.14c.31-.44.63-.86.77-1.18.15-.36-.4-1.22-.67-1.46l.61-1.7-1.57.56.69-.63c.16-.15-.06-.65-.26-.75s-.51-.05-1.13,0l.49-.68-.63.08c-.12.01-.19-.34-.31-.66l-1.89.52,1.06-1.04-1.95.56s0-.36,0-.67c-.19-.03-.89-.22-1.19-.2l-1.56.08ZM252.19,56.93l.96,1.13c1.63,1.9,1.06.92,2.22,2.47l3.63,4.83c.24-.88-.21-1.67-.86-2.42-2.59-2.94-1.8-3.76-3.41-4.62-.31-.17-.67-.34-.72-.54-.04-.16.13-.63.02-.76-.12-.14-.68-.33-.62-.5l.21-.66-.6.1c-.13.02-.24-.28-.38-.52-.67-1.14-2.09-1.96-3.18-2.68.03-1.08-2.42-2.53-3.35-2.6l-1.38-.96c-.02-.25.07-.69-.09-.82-1.77-1.42-.54-.83-1.63-1.38l-1.74-.88c.43-.44.82-1.36.69-1.93l-1.09,1.89-1.43-1.44c-.15.07-.43.25-.55.16l-.49-.39c-.2-.15-.98-.4-.85-.61l.59-.91v-1.77s-.06-1.89-.06-1.89c0-.36-.38-4.04-.99-3.53.28-.53.48-1.05.4-1.38l-.43-1.71c-.36-1.42-.98-3.23-1.56-4.67l-2.86-1.82c-.92-.59-2.05-1.17-3.1-1.55-5.22-1.9-3.58-.37-7.1-2.21l-.65,1.98c.5-.16,1.03-.45,1.37-.69l3.77.89c2.1,1.16,1.21.41,4.1,1.85,2.35,1.18,3.54,1.92,4.49,4.43.7,1.84,1.08,3.7.94,5.68-.87-.4-1.49-.5-1.88-.23,0-.49-.02-1-.18-1.22-.16-.23-.87-.05-.91.17.9.69.76,1.42.48,2.3l-.44,1.41,1.16.57,1.12-2.05c.24-.44.74-.9,1.2-1.15-.25,2.71,1.23,4.99-.41,5.46-.26.07-.71.32-.58.41l.45.31c.11.07.34.38.43.51.08.11-.42.19-.57.23-.12.03-.1-.03-.31-.4l-.37-.05c-.17-.02-.47-.09-.42,0,.06.11.28.51.35.6l.35.42c.15.18-.46.32-.17.76.04.06.14.01.2-.03l.46-.36-.48,2.05-.75-.71c.17,1.63.41,2.41.7,3.59,1.25-1.56-.2-3.19.63-3.04l.51.09c-.07-.68-.12-1.08.08-1.47,2.23,1.47,4.48,2.63,6.46,4.4l2.45,2.19c.35.31.84.54,1.18.73,1.49,1.78,3.42,3.11,4.99,4.95ZM206.68,32.44c.51-.57,1.84,0,2.61.38-.21-.91.03-2.1.79-2.6l1.55.71,1.3-1.17.21.42c.03.06.37-.26.37-.33v-2.07c0-.14.2-.5.28-.61s.5-.05.57.07c.13.24.24.73.42.73h.81c.29,0,1.01.17,1.18-.04l.64-.82c-.92-.22-1.21-.21-1.61.07-.32.22-.44.27-.6.22-.14-.04-.44-.32-.36-.42l.41-.51c.6-.74,1.16-1.51,2.06-1.26-.03-.29-.14-.64.03-.67l.68-.12.43-1.71c-.76.54-1.64,1.11-2.34,1.77-.99.94-1.96,1.6-3.04,2.41-.58.43-1.14.93-1.82,1.3l-1.35.73c-.16.09-.41.53-.58.47l-.65-.26-3.09-1.49-3.19-1.3-5.06-1.69c-2.47-.83-4.62-1.94-7.39-1.9.28.21.65.45,1,.59l4.31,1.7c1.63.64,3.18,1.29,4.84,1.81l2.9.92,2.2.67,3.45,1.11-2.03,1.74c-.68.58-1.19.38-1.96.07l-3.86-1.56c-.55-.22-1.35-.41-1.95-.62l-4.04-1.4-3.11-1.09c-.66-.23-1.72-.16-2.68-.13l3.28,1.45c.39.17,1.3.27,1.74.35.76.54,1.85,1.14,2.84,1.46l8.33,2.62c-1.76,1.24-3.09,3.44-3.62,5.32l1.4-1.17.51,1.11.52-1.4c-.37-.34-.17-1.12.14-1.41.23-.22.91-.06,1.29-.06.02-.36.07-1.05.26-1.27l.98-1.11ZM247.12,29.9c-.85-.95-1.53-1.53-2.52-2.1-.83-.48-1.91-1.33-2.77-1.48-.27-.05-1.14.33-1.25.1l-.39-.77c-.11-.22-.78-.45-.97-.28l-.58.54c-.42-.5-1.01-1.03-1.55-1.1-.37-.05-.9.32-1.54.54l.36-.59c.06-.1-.52-.45-.64-.45h-2.62c-.05.11.04.6.22.61.16,0,.48,0,.6.07.53.3,1.69.47,2.48.68,6.32,1.7,3.86.73,9.74,4.2,2.08,1.24,1.84,2.06,3.03,2.34.08.02.12-.38.06-.44l-1.67-1.87ZM219.03,26.61s0,.58.12.5c.13-.09.66-.29.57-.39l-.38-.43.45-.9c.11-.22-.65-.72-.66-.61-.08.5-.21.95-.46,1.12l-.48.32c-.08.06.06.36.16.36l.69.03ZM227.09,29.58l1.09-.89.24.73,1.74-.35-1.33-.73,1.8-.61-1.92-.06-.69.92c-.41-.16-1.28-.38-1.32-.28l.47.49c.06.06.03.36-.06.33l-.56-.19c-.22.7-.21,1.8.04,2.37.77-.6,1.32-.96,1.64-.83.34.31.57.52.49.44-.05-.05.36-.54.29-.57l-1.95-.76ZM231.36,28.82l.75.17c.18.04.43-.75.28-.83l-1.13-.59-1,1.27,1.1-.03ZM223.89,37.1c-.59-.84-.53-.56-.85-.56-.16,0-.55-.31-.43-.43.09-.09.54-.47.48-.58-.24-.45-.91-1.11-1.47-1.6l.27-.29,1.36.98.36-.69c.05-.1-.34-.04-.46-.05l-.6-.03c.19-.49.65-1.19.99-1.42l-3.75-1.36c-.2.09-.48,1.01-.25,1.21l.72.64-.63.29c-.12.05-.07.36-.11.53-.2.42-.44,1.09-.48,1.49-.02.16.82.06.67-.02-.1-.06.03-.64.13-.57l.61.48c.09.07.31-.19.32-.3l.02-.7c.08,0,.57.48.48.66l-.45.86,1.59,1.34,1.52.13ZM212.48,33.23c-.22-.19-.63-.49-.5-.54l.74-.3-.27-1.1-.88.5c.02.17.17.64.02.74l-.9.62.95.44c.21.1.79-.27.83-.36ZM215.51,35.88c.03-.08.39-.27.46-.32.08-.05.11-.1.05-.16-.07-.06-.33-.27-.41-.31l-.64-.27c-.09-.04-.13.43-.17.55-.05.15-.38.58-.46.45s-.25-.33-.18-.42l.39-.53c-1.01.1-1.59.89-2.17,1.79l-.44-.96c-.18.4-.36,1.24-.12,1.44l.87.71c-.12.2-.38.63-.38.62l1.59.21-.31-.86c-.2-.57,1.29-.36,1.92-1.94ZM257.88,59.08c.33.2.91-2.87,1.26-4.13.19-.67-.07-1.93.25-2.57l.43-.82c-.18.36-.51-2.93-1.03-3.58.02-.03.47,0,.46-.13l-.02-.58-.03-.79c0-.16-.36-.07-.85-.03-.08.07.17-.42.31-.45l.65-.12c-.22-.63-.39-1.77-.67-2.35l-1.58-3.28c-.78-1.63-1.58-3.01-3.15-3.9-.61-.35-1.21-1.71-2.16-.57,1.41.92,2.74,1.99,3.38,3.33l-.51,1.41,1.1-1.09c.14.3.25.69.13.83l-.4.48c.36.06,1.3.15,1.25.45l-.21,1.19.72-.56.02,1.71c1.93.6-.22,2.19.91,2.09l.12,1.61c.07.89.13,1.73.72,2.24-.25.26-.77.73-.68,1l.33,1c-.67,1.98-.26,4.44-.75,7.6ZM190.42,45.08c-.11.2-.34.43-.24.5.09.06.18.11.25.15.47.25.94-.97,1.36-.95l1.12.05c.4-1.76,1.28-.2,1.48-1.94l-1.03.8.06-1.49c.94.38,1.42.77,2.34,1.51,1.13-1.91-2.66-1.48-2.42-3.9l1.55.07c.71.03,1.34.12,1.94.53l.55.38c.11.08.33-.27.41-.38.44-.63-3.47-1.85-5.33-1.76-1.64.08-5,1.79-4.77,1.96l.49.36-1.34.42.85.61c-.13.05-.68.48-.86.34l-.8-.62c-1.01-.77-2.08-1.71-3.37-1.25,1.06,1.71,3.2,2.58,4.93,2.19.53-.75,1.29-1.92,2.17-1.95l.85.39c.31-.72.78-1.12,1.34-1.07.35.04.89.59.95.94s-.43,1.03-.76,1.17l-2.18.94c.44.42.85.67.78.93l-.3,1.1ZM224.89,43.98l1.24-1.32.4,1.3.64-.91c.11-.16.34-.06.95-.18l-.57-1.31c.29-.38.8-1.07.95-1.33l-.67.44s-1.72.2-1.63-.27c.03-.18.25-.52.45-.82l-1.18-1.14c-.17.37-.24.76-.14.96l.41.82-1.14-.42c-.34,1.07-.79,1.26-1.67,1.81.37.1.77.04.9.19l.5.6c.08.09.51.26.58.17.05-.06.1-.14.14-.2l-.67-.41c-.08-.05.15-.32.24-.32l1.11.04-.83,2.31ZM214.96,39.9c.49-.31.61-.39.5-.49-.13-.12-.37-.31-.5-.36l-.74-.29c-.16-.06-.31.67-.48.64l-.86-.13c-.19-.03-.18.94,0,.99l1.97.6.12-.96ZM209.8,48.58l.81-1c.03-.08-.39-.2-.54-.09l-.72.48.46-1.22c.1-.26-.44-1.17-.65-.99-.18.16-.68.59-.66.58l-.18-1.36c-.11-.86-.53-1.73-1.03-2.61.05-.46.32-.86.6-.14l1.8-.24-1.35-.26c.22-.66.47-1.66.08-1.89-.48-.27-1.51-.2-1.55.19-.06.56.09,1.1.32,1.84-.81-.37-1.63-1.4-2.09-2.33l-2.48.47c1.67.1,1.53,1.31,2.16,1.91.94.88,2.27,1.87,2.38,3.4.02.28.35,1.07.12,1.2l-.9.49.85.49.53,2.97-.45,1.52c3.22-.91,1.74.51,3.11-.44.28-.19-.89-.1-.76-.35.18-.35.61-1.08.46-1.37-.13-.25-.87-.5-.98-.36-.14.71-.17,1.34.1,1.92.07.03-.68-.15-.98-.24-.01,0-.09-2.49.84-2.57.11.28.18.65.25.56l.44-.55ZM199.6,41.96c.84.39,2.42.12,2.68-1.43l-1.89.65c-.14.05-.58-.05-.72-.09s-.1.72-.07.88ZM216.96,46.41l-.9,1,1.94-.26c.07-.15.24-.71.33-.63l.48.44c.61-.54,1.19-1.3.52-2.46l1.32-.14c-.09-.29-.15-.55-.26-1.09s-.93-.67-1.55-.48c-.01-.12.06-.54-.05-.49l-.66.32c-.37.18-1.13.24-1.74.3l.34.33c.08.07-.17.35-.24.46l.05,1.13-.51-.46c-.06-.05.08-.54.01-.5l-.72.37c-.13.07.1.51.22.59l.72.41-.7.12c-.14.03-.06.52-.15.63-.18.22-.44.46-.47.67-.04.23.41.77.48.58.24-.49.53-1.03.77-1.2.2-.14.91.39.77.35ZM185.8,55.89c.13.2.86.15.94-.13.38-1.45-1.02.07.15-2.65l-.79.3.25-1.27c.04-.22-.52-.44-.6-.65-.04-.11.11-.59,0-.56l-.59.17c2.16-3.13-.48-3.29,1.61-5.29l.15-1.14c-.99-.95-2.26-1.34-3.68-1.29l-1.25-.47-2.87-.23c.64.5,1.39.91,2.24,1.12l1.64.41c1.12.28,2.05.45,3.41.62l-.85,1.09-1.1,1.55-.04,1.66-1.72.36c.5.16,1.05.22,1.57.21-.06.83.07,2.02.51,2.62l-1.25.49,1.25.07c.78.04-.48.67,1,3.02ZM229.53,47.85l-.74.62c-.08.06.07.35.17.36h.62c.19.01.89-.03.88-.21l-.04-.81c.51-.25,1.21-.46,1.2-1.19-.33.31-.88.79-1.28.83-.47.05-1.27-.31-1.59-.52l1.52-1.04-1.37-.19c-.02.32,0,.54-.1.6-1.16.59-.77.83-1.03.62l-.53-.44.24,1.02c0,.15-.22.48-.14.61l.32.55c.08.13.38.57.46.45l.39-.59.44-.68c.08-.12.69,0,.57,0ZM182.3,53.63c-.07-.17-.25-.44-.4-.42l-.55.07c-.48.06-1.08.19-1.46.28-.34-.15-1.05-.45-1.52-.57l-1.49-.37c-1.45-.36-2.79-1.34-3.85-2.51l.32-1.48c.16-.73,1.73-1.41,2.48-1.19l2.01.59c-.7-1.59-2.43-1.71-3.86-1.04-.55.26-1.29.62-1.43,1.06l-.58,1.85.99,1.17-.91-.07,1.71,1.44c2.11,1.78,8.95,2.15,8.55,1.18ZM188.62,49.8c-.19-.42-.26-.59-.23-.52.56-.63.83-1.08.7-1.44-.2-.53-.67-1.07-1.04-1.09-.42-.02-1.32.31-1.31.69,0,.44-.11.99.1,1.13l.94.64c.12.08.17.63.32.62.17-.01.68-.05.53-.04ZM218.81,48.54l1.54-.02c-.39-.89-1.19-1.41-2.08-1.25l-.25,1.2.86-1.13-.07,1.19ZM203.52,49.54c.31-1.31-3.35-1.32-3.63-1.16-.19-.06-.66-.6-.87-.47l-1.16.74,2.28,1.07c.92.43,2.44-.07,3.39-.18ZM254.88,65.65c.1.13.39.27.33.37l-.28.54c-.06.11-.19-.08-.45-.38-.37.85-.98,2.12-1.28,3.09-.1.34.08,1.16-.06,1.47l-.33.7c-.07.14.64.29.7.14l.24-.63c.56-1.46,1.01-2.57,1.8-4.07.58.48.81.95,1.21,1.64l1.88,3.17,1.39.05c-.46-.58-.87-1.11-1.32-1.6l-.47-.51c-.1-.1.23-.38.37-.35l.89.18c0-.46-1.23-.43-1.5-.75l-2.18-2.58.08-.81c.02-.19-.48-.45-.59-.64-.53-.9-1.23-1.84-2.02-2.59-2.63-2.5-.53-1.82-3.13-3.04-.03-.28,0-.91-.27-.98l-1.13-.28.5-.82c.09-.16-.74-.31-.86-.45-1.31-1.52-1.21-1.9-3.24-3.43-1.5.36-1.79-1.2-2.8-2.02-.78-.63-2.08-.96-2.8-1.61s-1.14-.95-2.17-.97c-.17-.12-.51-.52-.58-.36-.05.12-.35.65-.23.71l.94.51c.23.13.22.76.2,1.02l1.04-.29c.19-.05.44.35.64.6.14.03.56-.02.52.11l-.25.74,2.07.4c-.49.56-.48.58-.21.35l1.22.26c.14.03-.19.64-.2.72,1.03.21,1.28,1.4,1.59,1.19l.5-.35.92.85-.99.47c4,1.26,1.32,2.3,3.01,2.32-.02.7.12,1.43.35,2.22.56,1.9,1.1,3.76,1.44,5.68l.25,1.42c.03.19-.49.66-.32.75.16.07.56.3.61.16l.25-.66c.42-1.12.16-1.89.01-2.96-.13-.88-.04-1.59-.59-2.38l.33-1.99c.72.86.94,1.16,1.43,1.85.39.54,1.54,1.29,1.81,1.88l.87,1.92c.17-.2.42-.57.49-.48l.39.51ZM218.55,56.22c.95.27,1.36-.04,1.72-.67.45-.77,1.15-.9,1.87-1.26l5.46-2.81c.53-.27,1.02-.42,1.57-.61,3.64-1.24,1.76-.03,3.75-1.11-.64-.2-1.06-.35-1.48-.61l-.81-.28c.07.37.16.82.14.7-.07-.52-1.18.51-3.4.37l-.48-.03c-.09,0-.23.27-.15.32l.52.34-2.2.75c-.69.23-1.44.61-2.09.91-1.03.47-2.17.35-2.36,1.99l-1.34-1.55c-.56.81-.36,1.85.19,2.48l-.91,1.07ZM200.95,52.53c.28.32.65.7.88.85.19.12.82-.15.82-.38,0-.34-.39-1.06-.68-1.05l-.98.04c-.18-.12-.66-.63-.88-.88-.69-.14-1.24-.43-1.55-1.36l-1.71-.15c.37.92.76,1.37,1.42,2-.25.13-.39.22-.52.21l-.72-.03,2.07.79.38-.25c.18-.12.77.77,1.12.49.1-.08.35-.28.35-.28ZM195.84,52.85l.72-.8c.31-.34-.38-2.09-.8-2.18-.2-.04-.69.1-.92.18l-1.47.55c-.15.21.22.94.37,1.18l.35.6c.13.23,1.26-.1,1.77.46ZM230.06,53.04c.55-.66.87-1.51.25-2.33-.49.74-1.2,1.87-1.52,2.45-.09.16.55.75.66.61l.61-.73ZM228.28,56.79c.62.64,1.78,1.63,2.57,1.74l2.99.42c1.84.26,3.42-1.76,4.14-3.17.11-.21.65-.53.63-.72-.43-3.58-.48-1.26-1.5-3.12l-.67,1.49.9-.06c.15-.01.29.42.17.49l-.38.19c.09.42.23,1.32-.05,1.58-.65.6-3.51,2.87-4.37,2.62l-1.13-.32c-1-.29-2.39-.49-3.03-1.45,1.07-.21,2-1.62,1.59-2.39-.47-.86-1.99,1.55-1.87,2.71ZM209.27,56.4c.14-.05-.04-.41-.19-.43-.12-.02-.51.01-.48-.1.06-.24.53-.69.39-.81l-.53-.47c-.11-.1-.44.2-.59.23-.46.02-1,.16-1.3.38l-.64.48c-.12.09-.07.6,0,.78l1.29-1.14c1.91,1.36,1.17,1.37,2.05,1.08ZM203.28,61.09l2.08-2.13c-.03-.63.25-1.15.86-1.4l-.6-.98-1.67,2.06c-3.25,4.01-.84.97-4.95,3.89l.02.44c.03.58,3.29-.9,4.25-1.88ZM214.78,65.81c2.38-1.49.38-2.45,1.69-4.15l1.19-1.55c-.04-.23-.4-.9-.22-1l.7-.38-.66-2.2-.48,1.29c.41.28.51.67.34.81l-.72.56-.4,1.81c-.19.88-.69,1.54-1.45,2.08.09.25.68.84.49,1.03l-.86.91.38.79ZM209.41,69.14l-.38-.33-1.17-1.04.98-.17c-1.48-3.32.38-2.56-.65-3.95l1.14-3.14c-1.13-1.63.45.32,1.46-3.71-2.31,1.24-2.87,3.37-3.23,5.63-.08.49-.43,1.25-.4,1.86l.22,4.12c.22,4.09,1.48,4.56,1.44,4.76-.03.15-.09.51,0,.63l1.18,1.58c.09.12.41-.22.5-.34s-.55-.29-.59-.43l-.32-1.25-.41-1.6c-.21-.83-.14-2.95.23-2.62ZM240,61.39c-.13.23.57.81.75.67.15-.11.48-.44.4-.61l-.33-.68c.05-.12.4-.51.29-.62l-.58-.54c.09-.43.16-1.23-.28-1.47-.3-.16-.91-.3-1.12-.27l.58,2.57.95-.25-.66,1.2ZM244.18,60.24c.17,1.32-.86,3.59-.06,3.42.1-.02.4-.1.38-.21l-.1-.52c.81-1.44,1.28-2.78,1.53-4.61l-1.59.61,1.11.09-.73,1.74-.52-.53ZM173.94,65.8l.89-1.31c-.31-.09-.91-.17-.83-.27l.34-.4c.06-.07.54.28.62.24.91-.48,3.79-2.57,3.83-2.43l-.15-.57,1.1.34c.8-1.61,3.07-1.68,2.01-2.14-.08-.03-.48-.07-.67,0-3.42,1.28-7.53,4.05-9.77,7.27s-3.01,6.49-3.77,10.12c2.63-2.43.17-2.58,2.51-3.91-.17-.19-.55-.55-.45-.7s.4-.51.5-.69l1.33-2.53c.28-.54,1.93-2.91,2.51-3ZM241.92,63.56c.27-.53.48-.97.59-1.26l-.61.67c.37-.41-1.51-.05-1.12-.65-.73.24-1.35.21-1.86-.18-.34.62-.56,1.33-.66,1.94.46.16.48.18.63.21.14.03-.09.61-.23.62l-.6.05c.12.5.8,1.04,1.25.95-.18-.8-.22-1.5.17-2.18.29-.5,1.49-.53,1.91-.34l.03.84c0,.12.4,0,.42-.13l.09-.54ZM191.65,81.33c-.34-.08-1.4-.19-1.5-.54-.76-2.57.22-1.43-.46-2.95l.28-.67c.07-.16-.29-.43-.27-.6l.22-1.72c-.22-.19-.86-.7-.64-.88.29-.23.82-.54,1.14-.71-1.26-1.35.21-1.12.19-3.68,0-.17.36-.58.28-.72l-.38-.64,1.04-1.23c-.17-.22-.57-.52-.49-.68l.43-.83c.1-.2-.39-.47-.78-.75l2.12-1.37-.42-.18c-.08-.03.02-.24.12-.61l-.91.1c-.7.08-1.23,2.96-1.18,2.83-.21.56-.49,1.29-.67,2.01-.77,3.07.4,2.16-.65,3.3l-.53,2.76c.08-.42-.18,4.41-.22,3.61.22,3.9.93,6.96,4.69,8.77l-.92-1.16c-.02-.19-.02-.64-.16-.73l-.67-.39c-.19-.11-.18-.78-.4-.78h-1.12c.5-.65,1.02-1.05,1.82-1.55ZM166.75,79.57l-1.11,2.11c-.41.78-.76,2.09-.26,2.86.54.83,2.01,1.21,2.64.53,2.17-2.31,1.89-1.16,4.42-3.61l1.77-1.71-.37-.78c1.26.35,1.68-.68,2.39-1.27.65-.54,1.28-1.08,1.9-1.67l1.21-1.16c.78-.75,1.34-1.65,1.98-2.48l1.11-1.42c.29-.37.59-1.01.82-1.35l1.75-2.56c.4-.59,1.08-1.37,1.47-1.86l.3-.93.18-.54c.03-.09-.26-.13-.3-.04l-.2.44c-.38.83-1.01,1.55-1.7,2.06v.61c0-.43-.76.8-.83.8h-.76s.64.53.64.53c.06.05-.02.38-.1.36l-.52-.15c-.53.86-1.13,1.69-2,2.23.21,1.12-1.88,2.67-2.61,3.1-.23.43-.61,1.03-1.06,1.4l-2.28,1.91c-.42.36-.83.72-1.22,1.11l-1.7,1.67-1.41,1.42-2.12,2.07c-.36.36-.97.7-1.44.72-.42.02-1.28-.45-1.12-.83.19-.44.35-.73.37-.92.02-.15-.34-.57-.29-.72.16-.45,1.39-1.19.46-1.93ZM215.58,68.61l-.55-.25.28-1.85c-1.13.76-.66,1.66-.64,2.53l.02,1.33.9-1.76ZM176.41,68.08c.21-.04.72.45.87.29l.66-.74-1.4-.85-1.52,1.59,1.39-.29ZM243.89,71.6c1.12-1.59.74-3.28-.48-4.59l.48,4.59ZM248.47,75.76l.67-2.57-.48.34c-.07.05-.2.06-.18-.02.02-.13.08-.43.09-.53l.07-.63c0-.09-.31.13-.37.19l-.32.32c.18-1.02.48-1.9-.27-2.71-.51.35-.23,1.1-.12,1.68l.49,2.6c.19,1.03-.8,2.2-.22,3.32.13.24.67-.05.76-.3.17-.48,0-.59-.65-.9-.06.03.47-.57.53-.79ZM261.39,72.54l-.82,2.49c1.02-.84,2.08-2.46.75-3.53l.95-.6c.13-.08.53-.34.43-.43l-.43-.44c-.1-.1-.34.35-.4.48l-.19.43c-.03.07-.14.02-.21-.05l-.5-.48.08,1.59-1.01.27,1.36.27ZM253.64,80.16l.47-1.95-.69-.58c.53-.62.49-1.34.12-1.92-.01-.26-.03-.86-.09-1.09l-.33-1.24-.69-2.6-.56,1.52c.53.75.48,1.48.63,2.29l.47,2.43.32-1.08-.06,1.81c-.01.36.19,1.1-.05,1.32-.19.18-.8.66-.65.84l.53.62c.12.14.48-.22.57-.39ZM244.56,71.69l-.62.18c-.18.05-.11,1.54-.95,1.86-.9.34-2.72-.19-2.94-.64s-.43-1.28-.65-1.87c-.37.69.05,2.32.73,2.63l2.26,1c.51-.38.8-.46,1.42-.6.67-.15.79-1.57.75-2.56ZM201.11,92.11c-.53-.17-.73-.15-.8-.02-.11.2-.22.75-.07.71l1.4-.29-.28,1.79c.27.03.94.02.95-.19l.03-.8c.08-2.3.42-1.9,0-2.81l.85-2.23.52-1.87c.19-.67.39-1.21.69-2.03.14-.07-.15.07-.31.15l-.44.21.85-2.23c.04-.12-.16-.51-.26-.49-.07.01-.35.07-.14.03.28-1.32.36-2.81.13-3.72l-.46-1.82c-.04-.17.23-.74.1-.85l-.54-.41c-.07-.45-.2-.9-.37-1.24l-.48-.91c-.1-.18-.8-.21-.79-.17l.36.66c.05.09-.19.34-.12.42.52.57.94,2.13.31,3.06l.53-.2c.13-.05.49-.09.45.03l-.17.59c-.04.14-.08.47.03.54l.62.37-.74.91.63-.19c.08-.02.19.31.12.36l-.35.25-.13,1.95c.46-.54.52-.55.42-.07l-.39.77c-.06.11.25.36.33.44-.34.33-.7.87-.93,1.43l-.27.66c-.03.08.2.05.27,0l.51-.37c.23,1.69-.73,1.56-1.09,3.1.63.24.72.32.49.35-.4.26-.73.4-.66.51l.39.53c-1.22,2.14-.25,2.21-1.19,3.11ZM218.45,80.71c1.7-1.44.77-4.62.37-5.06l-1.02-1.16c-.23-.26-.75-.64-1.16-.98l-1.3.46c1.29.39,2.4,1.1,2.91,2.1.56,1.09.28,2.33-.11,3.61-.44.36-1.41.96-1.97,1.05l-1.1.18c1.1.92,2.24.77,3.38-.19ZM217.76,190.21l.18.8c.25,1.06.67-2.14,1.35-1.67l-.19,1.77-1.84,1.01.97.41c-1.07.11-1.21.55-1.83,1.11-.81.75-2.2,1.29-2.64,2.23l-.25.52c-.04.08-.17.09-.2,0-.54-1.37.62-1.04-.53-3.22-.31-.59-.91-1.02-1.51-1.05-.4-.02-1.14.33-1.54.47l-1.56-1.09c-.76-.53-1.57-1.86-2.63-1.19.15.59.15,1.33-.14,1.8-.74.14.1-3.32-1.93-3.4-.32-.01-.91-.13-1.16-.23-.22-.09-.13-.68-.12-.97l.09-2.19-2.55-1.73c-.73-.5-2.54-.85-3.2-.29-1.68,1.43,1.56,5.85,2.32,5.83,1.61-.04,2.84-.72,3.45-.18.2.18.3.7.34,1.05l.22,1.91-.9-.41-.47-.21c-.1-.05-.26.7-.16.75l2.63,1.34c.21.11.51.52.69.48s.52-.17.81-.27c-.13-.13-.52-.52-.39-.68l.43-.51c.19,1.22.72,1.45,1.78,1.62.46.46,1.12,1.44,1.63,1.84l1.5,1.17c.28.22.98.48,1.42.7,2.39-1.17,3.68-2.76,6.11-3.7l.7-.73c1.02-1.07,1.73-2.93,1.98-4.21l-.84-1.57c.61-.1,1.09-.17,1.03-.37-.05-.15-.22-.58-.33-.73l-1.57-2.11c-.82-1.1-1.73-1.89-2.88-2.84.11-.16.42-.52.41-.45l2.38.25-.54-.83c-.06-.1-.04-.08.4-.48l.26,2.03c.06.46.5,1.32.64,1.74.3,0,.56-.05.6.06l.21.5c.4.96,1.96,1.54,2.86,1.49.24-.01.71.56.62.78l-.44.98c-.42.94,1.52-.74,1.84-.62l1.08.41,2.76.54c.68.13,1.87.36,1.95.93.02.12-.52.55-.43.63l.46.38c.2.17.46.53.64.5l.76-.11c.19.3.53.78.77.69s.77-.3.72-.28l-.49-.44c-.25-.23,1.4-.38,1.36-2.92-.55-.03-.98.66-1.16,1.38-3.45-.05-2.35-1.91-2.98-1.86l-.81.07c-.13.01-.52-.19-.64-.24s.16-.44.26-.54c.06-.06.06-.03.46.11l1.28-.62c.2-.1.66-.15.76.02l.46.79c.36-.66.56-1.17.85-2.01l.8.52.97-1.31.89,1.46,1.83-2.16.84-1.08.93,1.43.19-2.25c2.45-1.61.23-2.48,2.27-5.44-.05-2.49,1.27-1.02.69-3.58l2.87-2.65c.18-.17,1.12-.41.97-.57l-.71-.75c-.18-.19-.24-.88.01-.92l1.07-.16c.06-.46-1.39-2.02-1.87-1.6-.17.14-.27.66-.29.95,0,.18.32.15.64.21l-.61.78c-.29.37,1.31.9,1.03,1.18l-.64.67c-.33-1.9-2.6-1.79-2.02-3.72l1.51-.04c-.7-.33-1-.4-1.61-.57.6-.4,1.13-.99.87-1.84-.13-.43-.44-.64-1.24-1.49l2.36.19c.33.03.79,0,1.07-.02.62.33,1.24.07,2.02-.18,1.32-.41,2.21-1.21,2.78-2.4.15-.32.75-.88.61-1.15l-.51-.96.58-1.17c.13-.27,1.03-.49,1.05-.2l.11,1.31-1.34-.13.71,1.4c2.3-.37-.98,1.33-.09,1.58.88-.87,1.74-1.25,2.81-1.62l-.93-.37c-.13-.05-.05-.54.07-.61.34-.21,1.48.47,1.32.84-.23.51-.78.89-1.38,1.48.32.7,2.86-1.91,2.84-.48l-.02,1.53c-.8,2.67-2.95,4.26-5.32,5.5-.36.19-.86.45-1.16.42-.54-.06-.74-.31-.74-1.11-.38.29-.7,1.02-.8,1.68l-1.84,2.11c3.26-.89,5.53.91,7.7,2.31.98.63,1.85,1.17,2.72,2.01,1.02.98,3.08,1.89,4.65,2.12,1.92.28,4.02,1.59,6.01.93,2.47-.81,6.6-3.93,7.02-3.91.34.02.82.37,1.11.71.2.23,1.04.18,1.36-.01.23-.14.04-.59.06-1.11l1.25,1.31c.46-.43,1.01-.83,1.54-1.12l1.06-.57c.14-.81.96-1.14,1.9-1.48.35-.61-.53-1.57-1.29-2.14,1.16-.14,1.62-.54,2.09-1.33,1.48-2.48,1.95-.91,2.35-3.56.37-2.44-1.06-2.91.47-3.68.25-.13.56-.25.54-.4-.02-.17-.06-.6-.05-.51l-2,.2v-.99c.45-.15,1.04-.26,1.02-.53l-.09-1.23-1.25.9.45-1.4c.08-.25-.43-.72-.73-.9-.31.52-.67.8-1.21.69-.81-.15-.69-.54-.74-1.23l-.08-1.23c-1.53-3.28.37-3.33-3.52-6.51l.17-.91c.04-.19-.33-.53-.41-.69.43-.74.42-1.53.38-2.42l-.1-2.48-5.43-.12c-1.04-.02-.41-1.51-.41-2.04.01-1.27-.09-2.69-.2-4.06l-3.33.03-2.52.03v4.78c-.01.39.2,1.35.62,1.35l5.48.02-.04,2.02c-.71-.19-1.51-.49-1.95-.5l-2.4-.05c-.66-.01-1.37-.09-1.86-.22l.32-1.27-6.31.04c.69,1.62.27,2.89-.68,3.82l-2.31-.94-.63.49c-.88.69.32-.56-.04-.7l-2.14-.84-.1-1.85c-2.05-.15-4.37.41-5.86-.97l-.2-2.02c2.28-.59,2.71.22,6.1-.43v3.41s5.71-.02,5.71-.02c.92-1.41-.58-3.74.47-5.17.4-.27,1.43-.9,1.94-.93l4-.23c-.14-.58-.08-1.23.27-1.32,1.15-.29,1.53-.86,2.3-1.51.97-.83,2.35-1.59,3.37-2.18-.3,1.91.24,3.04-.06,5.12l6,.07c.03,2.06-.27,4.03.18,5.95l.51,2.14c.02.08.3.51.31.42s.1-.45.11-.56l.11-2.55c.05-1.27-.18-2.4-.11-3.65l.18-3.54-.11-1.64c-.1-1.51-.16-3.04-.14-4.51s-.07-3.67-1.15-4.76c1.08-1.51,2.03-6.79,1.95-8.55-.29-6.04-4.29-7.04-3.74-7.55.09-.08.41-.33.44-.45.11-.42.45-1.26.53-1.69l.55-2.93c.14-.76.06-1.77.17-2.48l.2-1.34c.14-.9.5-2.06.5-2.87v-1.95s-.06-4.01-.06-4.01c-.01-.8-.43-1.68-.77-2.88,1.2.85,1.85.59,2.97.2,1.97-.69,2.78-1.76,3.06-3.76l-1.33.11c.32-.45.64-.64.56-.79l-.4-.76c-.07-.14.56-.31.61-.46.04-.11-.02-.25-.1-.57-.41-1.52-1.57-1.91-2.92-2.43-5.72-2.21-5.91,3.89-6.95,2.15-.13-.22-.29-.8-.5-.93l-1.1-.72c-3.78-2.46-3.64-1.49-7.56-2.36l-1.94,1.86c-1.08,1.04-3.93.61-3.82,2.25.2,3-2.1,5.7-4.65,6.82l-.62.27-.59-.22c.75.28-3.51.28-3.65.56l-.42.84c-.58,1.15-.87,2.25-1.15,3.53l-.36,1.63c-.54,2.47-1.06,4.83-2.26,7.17-.65,1.26-2.24,2.16-3.54,2.77-1.88.89-3.34,2.12-4.98,3.33-3.61,2.66-2.01,1.91-4.57,5.01s-1.82,2.71-3.3,5.65c-.4.8-.95,1.68-1.13,2.6s-.47,1.88-.5,2.65l-.07,2.17c-.06,1.64.06,3.18.18,4.92.1,1.3,1.15,2.66,1.9,3.83-1.17.91-2.11,1.91-3.11,2.89l-6.95,6.81-1.92,1.4-2.21,2.23c-.52.53-1.09.94-1.78,1.44,1.19.25,2.24-.39,3.1-1.15l1.4-1.23c1.18-1.04,2.32-2.12,3.46-3.24l1.69-1.66,2.45-2.5,3.26-3.37c0-.51,2.29,1.18,2.36.18l.06-.86c.14-.71,1.74-.99,2.08-.4l-.34,1.42-2.08.19.2,2.37-1.55.61c-.97.38-1.68,1-2.3,1.88-.65.92-1.88,1.7-2.44,2.65-.44.75-2.69,4.78-2.1,5.17.74.49.84-.45,2.68-2.25.58-.56,1.63-1.12,2.28-1.54,2.94-4.9,3.14-5.7,8.9-7.21.53-.14,3.69.03,4.44.71-.47.22-.89.33-1.62.49l-.54,1.33,1.12.1c.19.02.16.73.1.89l-1.19.76.47-1.19-2.44.95c.02-.54.06-1-.14-1.1l-.77-.38.57-.36-.71-.51c-.11-.08.15-.53.14-.66,0-.11-.24-.31-.33-.37s-.23.22-.26.33l-.23.88c-.09.32-1.88-.12-1.98.67-.04.3.22.83.48,1.27l-1.31,1.35-1.1-.88.07.83-.99-.06c-.2-.01-.18.6-.11.74.69-.32.46-.08.14.3.47.8.5,1.83.18,2.41-.47-.43-.95-.62-1.47-.58l-.75.06c-.17.01-.41.64-.26.73l.73.44c.15.09.48.54.61.43l.54-.43.65.97c-2.64.64-3.59-.54-4.28,1.41l-.96.96.38.62c.07.11-.17.35-.3.31l-.47-.15.54.89c.1.17-.38.81-.54.64l-.71-.78c-.12-.13-.59.3-.76.34l-.76.19c-.66.17.6-1.24.28-1.32-.36-.09-.72-.17-.93-.18s-.08.71-.17.92c-.33.76-1.62.77-2.41.66l-3.22-.43c-1.38-.19-3.07.61-4.51.53-1.33-.08-2.45.03-3.59.6l-1.16.58.98.56,2.37-.56c.55-.13,1.27-.12,1.86-.18,1.84-.18,3.59-.51,5.43-.4l2.01.12-2.2,2.27c-.35.37-1.08.87-1.37,1.21-.81.95-1.61,1.94-2.5,2.88,3.1-.86,4.51-4.41,7.43-5.59l-.28,1.73c.25,2.18-.03,2.79.36,5.46.03.21.51.63.41.77l-.38.53.71,1.49c.39.82.75,1.89,1.2,2.59,1.95,3.08.33.99,2.24,4.26.59,1.02.77,1.96.8,3.18.01.48.39,1.42.23,1.86-.23.63-.27,1.37,0,1.91l-2.87,2.09-.95-.11c-.14-.02-.21.51-.26.68l-.52-.37c-.21-.15-1.5.76-1.71.56l-.87-.85c-2.5-2.42-2.13-3.09-3.63-2.34-.29.07-.57.02-.62.17l-.28.91c-.42-.41-.79-.98-1.07-.82-.33.19-.78.55-1.01.77.65.71.87,1.42.94,2.34.08.14.37.42.24.48-.09.05-.51.25-.58.18l-.93-.94c-.51-.52-.86-1.02-1.23-1.6l-1.21-1.88,1.4.71c.42.21,1.33.18,1.63-.19.98-1.19-.93-1.65-.1-3.28l-1.82.23c.11-.43.85-1.16,1.14-.93l.57.45c.1.08.47-.3.37-.39l-.57-.5,1.57-.64c-.65-.36-1.15-.79-1.56-.92l-4.32-1.36c-.24-.08-1,.05-1.04-.19l-.1-.74c-.35-.15-1.03-.66-1.15-.86l1.01-.23c.15-.03-.03-.56-.18-.61l-.5-.14c.23-.8.3-1.67-.29-2.39l2.52-1.67c2.63-1.74.95.13,3.39-2.6-1.2.19-2.22.63-3.17,1.29-2.43,1.68-2,.48-4.66,2.53l-.09.48c-.02.11-.57.09-.66.16l-1.59,1.17c.92.22,1.58-.08,2.52-.54-.11.96.02,1.91.47,2.62-.1.18-.35.66-.29.86l.32,1.05-2.45-1.59c-.44.13-.64.21-.25.28.17.71.53,1.03,1.12,1.29.26.04-.1.87-.37.91s-.72-.13-1.12-.28l-.39.36c-.1.09-.58-.12-.63-.22l1.06-1.09-1.51.68c-.34.16-.9-.39-.97-.9-.06-.48.22-.65.75-1.1-1.17-1.45-3.31-.08-4.32.96-3.5,3.6-.66,2.25-3,4.79-.22-1.11-.76-1.82-1.64-2.14-.11-.04-.42-.42-.31-.38.07.02.43-.36.4-.43-.21-.41-.83-1.15-1.17-1.42l.15,1.52c-.45-.06-.79-.16-.8-.03l-.07.63-.88.16c-.22.04-.29.86-.19,1.09.93,2.21-.24,3.33.22,3.64l.6.41c.03.22.06,1.01.3.9l1.28-.55.51,1.06,1.53-1.42c.12.04-.24-.47-.44-.55l-.67-.24c.6-.34.93-.96,1.13-1.59.53-.1,1.52-.25,2.09-.41l2.43-.7-1.89-.22.67-.82s.27.41.3.48.21-.16.2-.23l-.04-.48c-.05-.13.63.05.68.24l.17.64c.23.04,1.07.21.95.42l-.5.86.89.28s.79,1.37.4,1.52l-.77.28c-.17.06-.29.47-.35.73-.03.13.34.01.62-.05l1.09,1.59-1.12.52c2.65,1.51,3.25,1.84,5.43,4.17l-1.19.08c.62.33,1.11.47,1.65.61,1.72,1.61,2.74,3.83,3.44,6.12.1.32.15.5.3.56.1.04.44-.03.42-.14s-.09-.47-.09-.58v-1.25c-2.06-2.69-.57-1.32-1.98-3.75-1.73-2.98-.27-2.53-4.95-5.5-.79.08-1.37-.07-1.68-.75-.21-.47-.4-.8-.66-1.29-.29-.55.67-1.56,1.26-1.74l.25-.47c.05-.09.43,0,.38.09l-.25.49c-.2.39-.31.59-.02,1.14l1.06-1.96c-.32-1-.5-2.03.09-2.73l1.12-.16c.26-.04.45-.65.72-1.12.2.07,1,.76,1.07,1l-.79,1.64c-.08.17.75.29.96.29.14,0,.11-.41.05-.54l-.38-.75c.81.1,1.67.84,2.02,1.75.58,1.53,1.5,2.49,2.62,3.72l4.14,4.56c.11.12-.02.9.08.78.85-1.06,2.87,1.35,3.55,1.99l1.26,1.18c-.33.6-.7,1.3-1.04,1.73l-1.3,1.63c-.14-.1-.61-.59-.74-.45-.13.15-.56.65-.43.5l.72.48c.11.07-.18.43-.31.41l-.78-.11.56,1.67-1.27.5,1.02.75c-.97.14-1.79.17-2.26.72l1.91-.04-.46,1.96c.86-.75,1.2-1,2.15-1.68l-1.54.03,1.35-1.56c.36-.42,1.05-.94,1.45-1.25ZM177.32,130.25l1.21-2.72c.05-.12-.1-.57-.12-.7s.65-.24.7-.36l1.51-4,1-2.39c1.09-2.6,2.43-6.11,4.02-8.07.05-.07,0-.45.09-.48.87-.23.4-.23,1.99-2.12.88-1.04,1.85-2.03,2.51-3.16l1.24-2.14.54-.94c.29-.51,1.75.89,4.32-.17.17-.07.76.07.77-.08l.02-.67,1.08-.62c.21-.12-.12-.81-.3-1.01l-1.46-1.68c-.77-.89-3.16-.62-2.85-2.47.29-1.73-.47-2.95-1.21-4.21-1.08-1.83-2.27-3.26-4.23-4.19-.48-.23-1.18-1.07-1.78-1.17-1.18-.21-1-1.03-1.24-1.8-.34-1.12-1.23-3.2-2.34-4.07-.5-.39-1.97.49-2.04,1.13l-.29,2.63c-.06.55-.18,1.38-.71,1.24-1.07-.29-1.59-.01-2.5.14-1.87.31-4.19.71-4.29,3.2.52-1.07,1.65-2,3.11-1.69.59.13.95,1.65.75,2.18,2.27-.11,3.35.74,4.31,2.5.69,1.26,1.15,2.37.63,3.99,1.24.95,2.82,1.86,4.32,2.69,2.11,1.18,2.34,3.9.98,5.84-2.44,3.47-5.64,4.53-7.18,7.89.98.8,3.54.56,3.4,1.09-.25,1.01-.99,1.76-1.61,3.4l-1.32,3.52c-.43,1.15-.71,2.31-1.25,3.37-.58,1.59-.8,1.78-1.58,3.78l-.8,2.06c-.07.18-.13.42-.08.53s.37.22.44.12c.05-.07.17-.28.23-.42ZM177.79,94.9l.21-1.4c-3.77-.54-2.96-2.02-4.79-3.05.09,2.4,2.38,2.72,3.49,4.02.88,1.03.63,3.21,2.48,3.47-.52-.89-1.54-2.06-1.39-3.05ZM180.9,93.78c.21-1.29-1.17-2.68-2.04-2.35-.75.28-.41,1.69-.02,2.09s1.96.91,2.07.26ZM170.96,95.2l1.42-2.14c.13-.19-.12-.97-.31-.86-1.5.84-2.38,3.82-3.27,4.89-.96,1.15.96-.1,2.15-1.89ZM179.98,104.45c.07.09.64-.2.58-.34-.05-.11-.22-.38-.17-.49.24-.58.85-1.84.88-2.46l.11-2.79c.06-.12-.54-.1-.54.08l-.02.63c.26,4.69-.92,1.73-.83,5.38ZM183.39,107.3c.48-1.75.44-3.44.36-5.34-.06-1.36-.98-3.82-1.17-2.94-.04.18.65,3.25.82,4.82.33,3.04-.4,1.22-.01,3.45ZM178.06,151.68c-.29-.18-.69-1.07-.37-1.23.29-.15.97-.22,1.44-.22l-.46.61c-.09.11.38.3.54.43.11.09.28-.05.38-.15-.08-.36-.27-.89-.09-.89.31,0,.73-.02.81.16l.55,1.33,1.56-2.4c1.41-.05,2.9-.13,4.34-.97l.53,2.3.71-.54-.05-2.16c3.78-2.8,6.92-4.08,10.47-7.41.83-.78,1.42-1.62,2.12-2.57.44-.59,1.58-1.65.52-2.56-.78-.67-2.37.17-2.74,1.18l-2.25,1.38c-1.57.96-3.14,1.67-4.87,2.37-3,1.2-5.91.28-6.69.24-1.31-.06-2.42-.34-3.65-.96-.68-.34-2-.2-2.66-1.17l-1.5-.26c-.71-.63-1.44-.88-2.43-1l-.45-1.39c-.93.31-1.84.02-2.74-.55-3.21-2.03-3.59-2.08-7.53-2.02-3.61.05-9.07-.78-11.29-3.95l-1.58-2.25c-2.27-3.24-2.16-3.17-3.98-6.86l2.95-1.58c.72-.39,2.38-1.69,2.9-2.44l4.01-5.84c1.37-2,2.79-3.58,4.31-5.86.68,1.53,1.19,2.99,1.6,4.5l.59,2.21.98,3.95c.54,2.18,1.39,4.22,3.11,5.72v.69c-.01.16.58.36.68.53.49.81,1.31,2.27,2.19,2.85,1.31.86,2.74-.08,3.58-1.17.71-.92,1.5-1.82,2.11-2.74l2.06-3.11c.48-2.45-.46-2.95-2.15-4.73-.74-.79-1.6-1.17-2.64-1.44l.23-.93c.05-.19-.42-.41-.6-.61-1.3-1.45-3.25-6.46-6.23-7.93l-.24-1.01c-.15-.61-1.54-.02-2.82-.94l-1.88.89c.18,2.98-8.24.85-12.53,2.63-.61.25-1.42,1.49-1.49,2.25-.12,1.29.72,3.61,2.05,3.88l3.09.61,2.22.47-2.17,3.43c-.96,1.51-2.44,2.99-3.9,3.98l-2.72,1.84c-3.38-.42-6.57,1.18-8.15,4.06-.45-1.85-1.28-3.27-2.92-3.51.32.71.73,1.22.7,1.59s-.46,1.16-.6,1.51c.09.7.13,1.64-.55,2.03l-1.21.71-1.03-1.1c-.11-.12-.26-.55-.32-.69s-.64.21-.58.35c.61,1.23,2.01,3.24,2.39,4.56.5,1.75.36,3.47,1.96,4.38,1.18.67,2.41.23,3.05-.63l5.41,2.21c.22.09.57.51.57.69,0,.13-.2.28-.46.53l1.05,4.85c-1.72-.67-3.94-.51-4.5,1.69l1.24-1.03c.42-.2,1.5-.04,2,.12-.31.48-.54.82-.62,1.05s.56.46.84.62l-.33,1.07.69-.21c.14-.04.48.22.4.34l-.4.68c-.17.29.52.74.87.9l-.83.23,1.15.6-2.25.24c.4.3,1.13.64,1.33.98,1.53,2.61,4.05-.24,4.36.54l.33.82c.08.19.37.49.53.4l.67-.41c.07-.04.06.24.05.32l-.1.51c2.18,1,2.66,1.53,5.02,1.27.21-.02.29.42.44.99,3.83-1.71,2.39,0,4.51-.96,1.06-.48,1.99-.9,2.89-1.59.76-.58,1.43-.17,2.16.72l.4-1.23-.83.24c-.13.04-.32-.31-.41-.46l1.73-1.24.53,1.02c.67.58.97,1.02.98,2.09l1.53-.7-1.14-.57c.21-.35.96-1.14,1.45-1.08,1.04.14,2.36.24,3.25.41l2.94.59-1.24.35c.85.65,2.06,1.08,3.11.57ZM132.8,123.52c.33-.42.59-.82.6-1.06,0-.2-.67-.43-.87-.4-.39.06-.78.93-.69,1.32.12.5.47,1.08.87,1.35l.1-1.21ZM239.41,135.68c-.32.21-1.02.83-1.31,1.09l-.97-1.03c-.06.75-.07,1.39.17,1.58s1.03.31,1.2.05l.58-.9c.05-.08.38-.22.47-.24s-.08-.6-.16-.55ZM144.19,146.3c-.82-1.01-1.59-1.11-2.15-.52.08.34.69.88,1.04.84.42-.05.93-.21,1.11-.32ZM205.33,152.8l.74-.75c-.51-.33-1.3-.6-2-.69l-.11-.59c-.02-.11-.43-.3-.54-.28l-1.45.28.34.72c.09.19.74.03.92.14l2.1,1.18ZM194.56,155.52c-.3-.33-.34-.93-.02-1.25.23-.24.82,0,1.32.32l-1.04.48,1.07,1.07.15-2.69c.18-.26.49-.62.32-.7l-.58-.27c-.13-.06-.42.4-.36.4.35.24.55.34.45.4-.17.1-.4.29-.44.18l-.23-.62c-2.93-.12-3.8-.45-6.28,1.43,1.25.16,2.57-.36,3.55-.72l.56,1.92c.08.29.21.58.68.8.3.14,1.08-.52.86-.77ZM202.57,157.17l2.42-1.53c-.9-.7-1.59-.54-2.67-.48l-.42-1.24c-.38-.11-.94-.25-.96-.46l-.09-.95c-.54.16-1.15.51-1.66.89l-.39.29c-.07.05-.02.36.07.35l.35-.05,1.41,1.61c.44.5,1.15,2.05,1.93,1.56ZM212.34,157.32c.16.09.44.68.61.63s.43-.19.94-.44c-2.07-1.88-3.86-3.26-7.01-2.9l.11-.78-1.06,1.49,2.01-.09c.49.09,1.55.41,1.99.68l2.4,1.43ZM168.75,156.03l2.68.04-2.58-.78-2.76,2.07c1.23.26,1.79-.84,2.66-1.33ZM186.48,188.16l-1.51,2c.81.42,1.36-.08,1.88-.68l1.44-1.67c.17-.2.57-.76.43-.96l-.61-.84,1.38-1.4c.6-1.99.87-.33,1.59-3.81-4.49-2.12-3.74-3.92-4.79-5.87-1.62-3-.61-6.07,1.65-8.13l-1.68.25v-1.66c.01-.22.21-.72.28-.92-.08-.21-.36-.57-.24-.74l.38-.56c.22.4.35.79.46.68.21-.2.38-.33.44-.48l.42-.96,1.22.71c.33-.45.52-.47,1.25-.74l-.17.93c.01.05.86.22,1.05.05l.9-.82c.11.34-.04,1.07-.26,1.51l-.11,1.07c-.77-.06-1.38.28-1.37.73.93.05,1.55.14,2.48.32.64.02,1.46-1.14,1.99-1.62,2.05-1.83,4.29-1.95,4.31-2.91.01-.73-.48-1.85-.81-1.58l-.57.47c-1.75-1.86-2.78-1.86-5.84-3.6-1.5-.85-3.78-1.26-5.42-.63-.58.22-1.1.98-2.09,1.01l.47.67c-.28.26-1.21.67-1.45,1.02l-1.16,1.7c-.09.13.07.69-.07.77l-.7.36c.16.18.75.6.59.67l-.65.31c-.13.06-.47.31-.37.4l.54.5-1.01,1.22.87-.17c.09-.02.07.21.06.3-.36,1.93.66,1.29-.94,2.94l1.09-.14c.14-.02.41.38.38.52-.86,4.14,1.23,1.82.57,3.19l-.56,1.15.99-.73.17,1.29c.35-.58.42-.62.41-.06l-2.41,3.68.53.15c.36.1-.26.75.03,1.05.05.05.25.19.29.25l.54.78c.15.21.92.32.9.1-.13-.45-.28-1.02-.36-1.45-.11-.57,1.15-1.33,1.73-1.62l.47-.23c.11-.05.46.26.38.35l-.57.66,1.47,1.34c-.85-.01-1.51.3-1.81,1.33.39.02.97.06,1.21-.05l.8-.35c.28-.12.7.99,1.99,1.34.05.08.07.45.19.43l.82-.18-.71.89c.28.17.84.49.73.7l-.43.77-1.4,2.46c-.5.88-1.04,1.73-1.69,2.58ZM179.95,156.72l-2.85.04c-.8.01-1.72-.08-2.51.09l2.68.64c1.85-1.22,1.93.43,2.69-.77ZM158.19,173.83l.07,1.52c.8-.61.82-1.47.81-2.46-.02-2.22.93-4.01,1.44-6.22l.55-2.38c.26-1.14.74-2.12,1.17-3.24.33-.86.37-1.68,1-2.76-.5.01-1.42.13-2.01.24l.36,1.27c-.34-.11-.73-.23-.7-.4l.09-.59-1.76-.31c.22.91.97,1.99,1.73,2.41-.32.54-.59,1.12-.73,1.67l-.79,3.05-1.18,5.06c-.2.84-.1,2.25-.06,3.15ZM171.54,164.27l.25-2.23-.89.54v-.66c-.01-.07-.29,0-.31.07-.49,1.76.84.58-.81,2.86l.7-.12c.08-.01.18.3.1.34l-.47.31c.49.39,1.34-.36,1.43-1.1ZM175.26,183.33c.47-.38.94-.89,1.02-1.22-.64.45-.88.61-1.71.44l.47-2.12-.64.53c-.38.31-.07-1.94-2.74-1.99-.18,0-.77-.29-.96-.35-.16-.05-.21.1-.28.66l-.61-.62c-.17-.18.65-.77.68-1.01l.34-3.87c-.56-.09-.94.28-1.21.86l-.95-.06c-.78,1.33-1.49,2.45-2.36,3.67l-.5.7c-.3.41-.81-1.3-1.21-1.02l-.64.45c-.16-.68-.37-1.69-1.09-1.78-.53-.07-.94-.07-1.93-.08l.97-1.82.94.65c-.07-1.25-.3-2.35.74-2.99-.41,1.18-.78,2.13.32,3.01.42-.87.65-1.66.9-2.65l.27.52c.91,1.76-.07-1.17-.03-1.53.03-.3.57-.88.95-.83.51.08.31.85.23,1.41.02.15,1.08.31,1.22.04l.46-.86.38-.74c.07-.14.5.14.54.29l.16.58c.13.26.79.63.98.38.24-.3.58-.98.62-1.28.07-.52-2.27-.7-.97-1.52l-.41-.11c-.1-.03-.18.12-.41.4-.07,0-.49.06-.46.06l.22-1.25c.04-.22-.28-.56-.45-.71l-1.19,1.3-1.33.48-.04-1.17-1.37,1.81c-.31,0-.58-.01-.71.09l-.82.68c.21-.81.52-1.3.95-1.99,1.68-2.65,2-3.71,2.83-6.44-1.23-.55-2.76,2.64-2.7,3.27-.1.25-.33.81-.45,1.05l-1.81,3.59c.26.34.73,1.04.89,1.33l-1.16.34c.6,2.19-.95,2.15-2.65,3.95l-1.13,1.2c-.71.74.11,2.6.73,3.05l-2.25.31c-.34,1.05-.71,2.63,0,3.4l2.52,2.71c.83.9,2.75,1.05,2.9,2.72l-1.38.85c-.3.25.68,1.15,1.18,1.26.51-1.12,1.18-2.32,1.82-3.21l3.13,1.36c.64.28,1.39.51,2.09.67l4.23.97c-.03.76-.08,1.67-.08,2.17,0,.22.69.36,1.06.39l.53-2.54c1.01.36,1.97.82,2.46,1.37-.21,1.04-.62,2.37.07,3.05.79.78,1.71,1.37,2.6,1.83.06-.35,0-.78.14-.77l.61.03c.25-.7.69-1.19,1.19-1.73l.7-1.33c.14-.27.31-1.03.57-1.08l.8-.16,1.02-1.24c.03-.45-1.1-.98-1.72-.93l-3.98.35-.96-1.28c-.1-.14.21-.68.08-.79-1.66-1.44-.79-2.63-1.88-3.94l.98-.91-.89.13c-.13.02-.33-.32-.38-.43ZM294.12,195.12c.1.57-.07,1.2.45,1.48l-.07-2.52c-.01-.45.02-.95.05-1.54.19-4.04-.64-2.76-.49-5.38.05-.85.03-1.59-.07-2.37l-.27-2.14c-.16-1.27-.4-2.49-.65-3.72.09-.17.29-.39.23-.53s-.42-.58-.43-.74c-.03-.55-.23-1.63-.61-2.16-.68-.94-.73-1.91-1.08-2.91s-.81-1.97-1.09-2.98c-.15-.53-.35-.93-.54-1.19.32-2.43-1.47-.27-2.79-2.45-1.84,1.46-1.55-.04-2.3,1.23l.96-.08c.15-.01.08.49.15.62.13.24.82-.15,1.05-.38.02.06.22.78.43.69l.84-.39c.32-.15.51-.28.68-.26.13.02.21.52.1.59l-2.21,1.28c-.87.5-1.74.87-2.51,1.43l-2.43,1.75c-.98.71-2,1.28-3.19,1.82.91.61,1.85,1.26,2.65,1.88l2.5,1.92,2.77,2.13c1.83,1.4,2.77,3.47,3.9,5.42s3.03,3.9,3.43,6.29l.54,3.23ZM241.5,190.82l.47.23c.07.03-.02.34-.04.48l-.16,1.02c1.01.66,1.69,1.44,2.26,2.44l1.61,2.79,1.98.58c-.03-.56-.07-1.17.04-1.53l.94-3.35.71-2.65c.35-1.31.74-2.83,1.34-3.99,2.12-4.09,3.6-6.51,7.51-9.17l-2.73-1.58c-1.52-.87-5.18-3.09-6.87-2.39-.32.13-.6.8-.74,1.22l-1.36,4.06-.1-1.89c-.05-.94.09-2.22.45-2.19l.56.04c.03-.39.15-1.17.47-1.33l1.11-.53c.1-.05-.02-.77-.11-.71l-.45.27-1.53-.79-.34,2.3c-.73-.56-.45-1.71.12-2.41-.3-.14-.47-.19-.59-.09l-.74.6,1.04-2.62c-.55.24-1.06.48-1.3.73-.17.17-.72,3.32.6,3.68l-.8,4.91c.11.37,1.16.24,1.61.06l-.56,1.9-1.73.21.03,1.37,1.17-1.29c-.03.74-.16,1.07-.5,1.69l1.09,1.79c-.15.24-.3.49-.26.42l-1.18-1.65c-.43,1.22-1.36,1.96-2.52,2.1l.4,2.43,1.55-.17c-.52.9-1.13,1.1-1.64.87s-1.15-.63-1.09-1.02c.09-.57.13-1.13.07-1.41-.22-.53-.33-.86-.57-1.06-.21-.18-1-.28-1.27-.24l-2.4.33,1.71,1.18.09,1.34c.01.2.05.52-.06.56l-.47.16c.39.88,1.71.78,2.32.68.12-.02.45.2.58.21s.53-.25.59-.14c.16.34-.1,1.17-.29,1.59ZM203.28,171.96l.35-.37c.06-.06.07-.42.04-.5s-.24-.19-.3-.13l-.32.39c-.26.32-.43,1.29-.17,1.67.2.29.77.34,1.36.59.27.12.62-.52.51-.8-.27-.66-2.23-.07-1.48-.85ZM198.56,177.42c.21-1.56-3.04-2.5-4.03-2.05l.93,1.44c1.08.36,1.92.51,3.1.61ZM178.79,178.99l1.02-2.33-1.01-1.03c-.76.92-1.32,3.99-.62,3.85.16-.03.53-.31.61-.5ZM147.53,178.1c-.15-.51-1.04-1.05-1.5-.98-.4.06-.84.79-.84,1.15s.46,1.09.84,1.13c.62.07,1.71-.61,1.51-1.3ZM212.65,184.71l-.34-1.01c-.04-.13.32-.36.3-.33l.82.5c.21.13,1-1.32.68-1.51-.43-.26-1.98-.37-2.04-.36l-1.95.03.38.93c.48-.2.78-.31,1.28-.43l-1.04,1.23,1.92.96ZM267.71,229.63c3.23-1.17,4.74-1.24,7.8.63,1.65,1.02,1.91,2.49,4.21,4.54l2.77,2.47c.49.44,1.41,1.41,1.74,2.01.8,1.45,1.55,3.31,1.84,4.78.27,1.37-.73,4.45-.85,5.65.58.12.4-.6.53-.89.67-1.48.95-2.77,1.08-4.42,1.48-3.1,2.21-2.53,3.54-5.49l.55-1.21c1.3-2.88.29-1.09,3.31-4.27.9-.95,1.64-4.61,1.65-5.9l.03-3.02c.01-1.59-1.09-3.12-.81-4.82.43-2.62.33-5.14.41-7.77l.07-2.2-.12-3.34-.08-2.15c-.03-.87.26-3.37-.43-3.54-.26.98-.54,1.97-.44,2.77.6,4.87-.15,5.57-.17,10.1,0,.97.18,1.98,0,2.9l-.33,1.79-1.64-2.44-.79-.26c-.18-.06-.01-.72-.02-.94-.57-.75-1.43-1.74-2.17-2.37l-1.31-1.11c-.71-.6-1.55-1.19-2.31-1.77l-1.48-1.15c-.96-.74-3.91-2.19-5.28-2.76l-2.01-.83c-2.07-.85-4.14-1.38-6.39-1.61l-6.79-.69c-1.66-.17-3.36-.26-5.07-.27l-2.34-.02c-2.19-.02-4.82.53-6.59,1.81-1.39,1.01-1.59,2.78-2.14,4.25-.4-.81-.71-1.49-1.12-1.88-.49-.46-1.49-.27-2.03-.3-.61-.47-1.4-1.18-2.11-1.61-1.75-1.06-3.2-2.22-4.79-3.51-2.02-1.64-3.68-2.19-6.71-4.95-.94-.86-2.31-1.7-3.25-2.44-.39-.31-1.19.05-1.6.49l7.51,5.55c.63.47,1.28.78,1.99,1.18,1.02.57,1.92,1.57,3.07,2.07,3.2,1.38,2.94,2.62,5.29,3.6-1.97,1.7-2.47,4.2-2.84,6.59-1.8,4.28,1.15,13.49,3.65,17.27,2.74,4.14,3.64,6.7,8.16,9.47.08,1.11.12,2.25.3,3.33l.44,2.67.71,3.9c.27,1.48.96,2.91,1.75,4.06-2.3.27-4.68,2.13-4.8,4.84-.09,2.05,1.42,3.71,3.06,4.8.72.47,1.7,1.54,2.45,1.5l1.72-.08c.81-.04,4.39-1.85,3.87-3.16,3.08,1.54,2.24,1.3,5.68,1.72,1.7.21,3.47-.44,5.05-.99,1.09,1.67,2.27,3.83,4.36,4.54,2.64.89,5.94-1.14,7.24-3.5,1.36-2.48,1.11-2.89.21-6.01-1.26-4.36-1.87-1.85-1.52-4.53-1.49,2.32-3.56,3.79-4.02,4.34l-1.5,1.8c-.89,1.07-2.08,1.4-3.28,2.05-2.44,1.33-.24.88-3.96,1.63-1.72.35-3.3.18-4.93-.33l-3.21-1.01c-.99-.31-1.21-2.04-2.4-1.95.45-.03-1.74-3.06-2-3.38-2.39-2.99-3.27-6.31-3.82-10-.09-.62-.35-1.38-.39-1.98l-.16-2.67c-.06-.99.5-1.82.87-2.65.98-2.21,3.18-4.26,5.41-4.8,1.15-1.06,2.58-2.39,4.1-2.9l1.56-.53,1.93-.7ZM172.62,201.9c2.83-.15,1.51-5.77.35-6.8-.34.09-.79.1-.78.27l.03.57c.08,1.48.13,2.97.1,4.38,0,.45-.11,1.61.31,1.59ZM273.25,237.57c.35-1.77-.8-2.55-1.91-3.58.25-.48,1.03-1.07,1.45-.96.51.14,1.2.5,1.7.91.24.19.72-.51.67-.83-.04-.26-.56-.61-.83-.62l-2.72-.1c-.68-.58-1.31-1.01-2.17-1.05l-2.47-.09c-.25,0-.7.56-.61.78l.39.99c.86-.55,1.52-1.02,2.4-1.11.66-.07,1.3.68,1.34,1.21.12,1.64-2.11.8-3.26,2.32-.2.26-.16,1.12.08,1.32.62.55,1.81.24,3.95.54l2.02.28ZM263.97,246.89c1.21.06,2.13-1.32,1.83-2.57-.38-1.57-.89-3.21-1.51-4.68-.47-1.11-2.2-1.36-3.18-1.02-.9.32-2.06.92-2.27,2.04-.37,1.97.42,3.35,1.66,4.59.97.97,1.58,1.54,3.47,1.64ZM274.1,247.81c2.74.46,6.21-2.36,6.1-4.55-.08-1.61-.8-3.06-2.29-3.49s-2.04.33-2.75,1.34c-1.19,1.71-3.64,4.28-1.07,6.69ZM125.18,286.46c-.48-4.8.38-6.33.44-10.22l-.76-2.45-.36,2.88c-.42,3.35-.87,6.44-.7,9.82l1.39-.03ZM129.65,286.31l-.34-3.29-.18-1.87c-.05-.52-.02-.81-.34-1.17l-.17,2.78.25,3.65c-.06.1.9.02.78-.1Z"/>
  <path d="M116.03,257.54v-1.81c2.07-1.46,3.22-5.29,3.97-7.71,1.05-3.41-1.39-4.76-2.59-9.15-.28-1.02-.26-2.29-1.37-2.54v-18.62l1.56-.08c.3-.02,1,.17,1.19.2,0,.31,0,.68,0,.67l1.95-.56-1.06,1.04,1.89-.52c.13.32.19.68.31.66l.63-.08-.49.68c.62-.04.94-.09,1.13,0s.42.61.26.75l-.69.63,1.57-.56-.61,1.7c.26.24.82,1.1.67,1.46-.13.31-.45.74-.77,1.18l.71,1.14,3.88-1.33c3.09-1.06,3.79-4.48,2.72-7.05-.44-1.06-.97-1.88-1.67-2.79-2.46-3.18-1.48-3.07-6.28-4.45-.59-.14-1.81.24-2.46.29l-3.21.23c.42-.31,1.27-.98,1.74-1.01l1.97-.16c2.35-.19,4.88-.32,6.56,1.45.59-.27.81-1.22.89-1.9l.2-1.95c.18-1.7.82-3.39,1.18-5.13-2.02-2.64-2.01-2.07-3.6-5.01l-2.68-4.97-.23.71-2.32-1.3c-.78-1.22-1.43-2.14-2.41-3.15-.84-.87-1.06-2.84.16-3.47s3.01.18,4.19-.04l2.59-.48c.79-.15,1.63-.36,2.43-.65.58-.92,1.12-2.67,2.39-3.02,2.85-.78,5.67-1.57,8.11-3.12-.02-.27,0-.67.14-.75.08-.04.43-.25.41-.24s-.2-.17-.33-.29l1.15-2.51c.15-.33.15-1.11.24-1.47l.6-2.6c1.09-4.68.3-4.2,2.64-8.92.92-1.86,1.77-3.81,3.94-4.7.45-.18,4.56.9,4.56,1.44-2-.51-4.06-1.14-5.64.45-.96.97-1.48,2.54-2.12,3.79-.58,1.12-.88,2.11-.8,3.27l.62-.21c.1-.03.21.37.12.4l-.7.21c-.13-.08.19.12.4.24l.9,1.47-.06-1.51,1.29.32-.56.32c-1.17.67,1.59-.12,1.91.4.78-.21,1.93-.65,2.72-1.18.54-.36.46-1.83.67-2.45l1.35-3.99c.32.15.65.3.53.24l-.7,3.24-.44,1.91-.8,3.11c-.09.34-.02.93.04,1.28-.4.92-.67,2.24-.88,3.13l-1.19,4.97c1.73,2.89,2.3,2.82,2.13,6.25l-.15,3.16,1.4-.52c.51-.19.88-.44,1.41-.84.69.79,1.37,1.66,1.98,2.45,1.47,1.9,3.59,2.89,5.58,4.29-.33.58-.89,1.3-1.33,1.63-1.12-.04-2.1.37-3.13.96l-.38-.83c-.08.3-.21.88-.01,1.09,1.3,1.33.95-.84,3.31-1l-.4,1.28-.58-.45-1.6,1.28.57,1.82c-.28,1.01-.34,1.69-.4,3.21.15.12-.01.15-.55.13l-1.04-2.76.82-.29-2-1.94c-.43-.42-.85-1.71-1.02-2.29-.9-3.07-.44-2.06-.96-4.48l-.25-1.18c-.04-.21-.64-.28-.9-.33l.12,2.34c.06,1.09.17,2.2-.86,2.9-.68-2.94.03-2.82-.59-4.92-1.34-4.53.99-3.54-.35-8.4-.66-2.4-2.68-4.27-5.38-3.68-.87.19-1.6.29-2.34.99l1.95-.02-2.19,1.15,2.38-.35c-.15.96-1.09,2.11-2.44,1.83l-.89,1.41c.33,0,.65.02.7-.13l.19-.57,1.72-.12c.41-.03.89-.05,1.11.12s.42.88.52,1.25c.08.33.92.3,1.34.03l-.95-.48,1.27-.33c-.08.44-.11.6-.1.61.01.01.49.19.53.21l-1.15.72c-.21.13-.75.75-.56.92s.61.46.83.62c-1.63,1.78-1.16,2.06-3.38,4.11.88.33,1.74,1.11,1.74,2.04,0,.25-.29.86-.51.97-.74.38-1.85-.42-2,0l-.35.94-.53-.39-.06-2.76-2.15-1.23-1.04,1.26-1.29,1.47c.46,0,.86.06,1.14.32.19.17.18.56.08.8,3.08,3.45,2.13.86,3.55,3.08.27-.19.64-.45.61-.43-.06.48-.15.69-.07.78l.32.35-1.27.55c1.12.39,1.49.63,1.69,1.42l.77-.02c.13,0,.09.67.21.74,2.17,1.38,2.36,1.05,4.91.03.96-.38,1.23-1.03,1.69-2.14,1,1.87.17,4.42-1.03,6.14-.96,1.39-2.29,2.14-3.75,2.83-.52.25-1.58.8-1.95.4-.1-.1-.07-.76-.2-.7l-.5.23-1.53.71c-.26.37-.74,1.21-1.09,1.47l-.55.41c-.06.05.2.08.29.1l.36.06-1.23,2.51-1.49,3.23-2.19,1.28-.88-1.69-.78.03c-.13,0-.22-.53-.22-.68-.02-1.39-.83-2.58-1.35-3.74l-.28-2.33c-.1-.87.09-1.95.09-2.95l-1.26.02v3.25c0,.29-.48,1-.32,1.2l.62.79-.77.16c-.77.17.78,1.95-1.59,2.97l2.72,3.59c.64.84.86,1.61,1.05,2.59.16.8.92,1.88.82,2.66-.06.47-.18.96.04.97l1.75.12c1.5.1,2.44.74,3.5,1.68l2.14.66c1.14.35,1.91.96,2.68,1.8l2.12,2.33,2.57,2.81,1.52,1.66c.37.41,1.33.92,1.9,1.3,1.42-1.46,1.75-3.22,1.96-4.97l1-1.9c.65-1.24,1.03-2.43,1.32-3.78l.48-2.21.33-1.29c-.36.07-.36.07-.46.08s-.17-.37-.07-.39l.5-.09c.21-.04.53-.04.52-.15l-.07-.68c-.15-1.45,1.07-2.92,1.02-5.83l-.03-2.08-.05-2.07-.12-2.59c-.06-.19-.19-.46-.13-.57s.32-.25.41-.16c.06.06.35.36.36.44l.22,2.04c.35,3.18.4,4.1.3,7.31-.06,1.8-.59,3.46-1.01,5.15l-.58,2.32.59,2.76.63.82c.42,2.17,1.39,4.12,2.16,6.11l.65,1.67,1.85,5,8.75-2.81c.89-.29,1.62-.56,2.67-.69.45-.05,1.04-.47,1.55-.69.77-.34,1.89-.49,2.71-.77l5.14-1.75,6.89-2.11c-.47-1.4-.94-3.15-1.65-4.61-1.75-3.62-1.22-3.86-2.69-6.85-1.15-2.33-2.02-4.76-2.92-7.22l-.72-1.96c-1.01-2.76-1.08-2.25-2.09-5.15-.71-2.02-1.56-2.96-.87-4.67.05-.13-.26-.48-.31-.41l-.35.54c-.2-.14-.36-.78-.22-1.05l.26-.5c.04-.08.42.03.39.13l-.17.59c.21,0,.61-.15.74,0l.58.59c-.33.39-.64.85-.67,1.21-.05.86,1.64.45,1.7.81l.09.55c.1.58.59,1.24.8,1.78l1.68,4.19.47,1.18,1.55,3.88.61,1.53.18,1.35c1.23,1.64,1.89,3.55,2.25,5.44.44-.33,1.47,3.26,1.91,4.36l.68,1.73c.96,2.43,1.88,2.14,1.07,3.87-.24.51-.29,1.15-.26,1.64l.18,3.22c.05.91,0,1.94-.03,2.87l-.08,3.55c-.03,1.45-.26,7.46-.96,8.03-.24.2-1,.27-1.31.14-.27-1.08-.24-2.34-.09-3.4l.3-2.15c.27-1.92.1-3.82.08-5.76l-.07-4.85.17-2.77-2.68.95-1.86.49-4.68,1.5c-1.51.48-2.81,1-4.45,1.29-.73.13-1.73.74-2.46.93l-2.32.62c-.99.26-1.82.67-2.81,1.06-1.87.74-4.03,1.2-6.02,1.78-.36.89.09,2.21.93,2.69l-2.7.82-7,2.08-1.69-4.87-1.42-3.52-1.12,3.77c-.83,2.78-2.3,5.33-3.59,8.03-1.37,2.87-5.22,6.95-7.1,9.14l-3.95,4.62c-2.12,2.47-2.13,2.09-3.87,5.26l-1.63,2.96c-.91.26-2.38.71-3.1,1.06l-.34-1.4.43-.75c-.48.03-.91.12-.99-.03l-.29-.52-.93.63c-.21-2.1-.05-3.94.19-6.03.17-1.47.15-3.06.78-4.43l.67-1.44c.75-1.63,2.03-3.31,1.54-5.24-.14-.55-.42-1.6-.7-2.06l-2.58-4.14-.86-1.74-1.64,1.12-1.89,3.85-.78,1.88c-.12.3-.28,1.1-.47,1.38l-1.94,2.86c-.32.47-1.06,1.06-1.43,1.43ZM141.66,175.33c-.99,1.31,3.23-2.21,2.71-1.97,0,0,.35.24.51.35s.66-.25.6-.43l-.32-.98-2.38,1.21c-.62.31-1.79-.11-2.2,1.04l1.79-.26c-.3.22-.87.82-.71,1.04ZM146.13,175.15c.54.15,1.24.06,1.34-.27l.34-1.06.71-.64c.18-.17.14-1.01-.08-1.01-.26,0-.75.06-.78.22l-.09.51-1.44,2.24ZM139.41,181.27l.43-.45c.45-.48-.58.05-1.72-1.04.32.88.55,1.67.63,2.61.02.24.93-.07.92-.31,0-.2-.13-.46-.26-.8ZM135.28,185.7l-.06-.67,1.67-.8,1.28.34-1.01-.93c-.66-.61-1.29-1.07-2.11-1.51l.1-.57-.85.21c-.19.05-.53-.44-.67-.55l-1.01,1.3c-.08.11-.28.48-.34.6-.05.11.28.05.58.04.01.05-.25.74-.41.64l-.89-.58.53,1.35c.5-.25.67-.33.87-.38l-1.32,1.4c.64.22,3.66.28,3.64.09ZM128.69,189.58c.2-.05.63-.37.84-.53l-1.55-.28c-.31-.05-.89.11-1.33.09l.35,1.12,1.69-.4ZM137.76,199.61l.66-.08c.07,0,.17-.26.11-.3l-.34-.28.37-1.58-1.78.83.98,1.41ZM144.49,199.03l-.11.99c-.02.18-.74.07-.82.02.08-.68-.4-1.25-1.07-1.6,0,0,.4-.28.41-.29,0-.01-.75-.92-.87-.32-.08.45.39,1.17.96,1.54l-.87.66,1.2.21c.05.41.57.99.86.9.31-.1.92-.37,1.31-.56l-1-1.55ZM135.35,209.54h.58c.09,0,.21.25.15.32l-.18.26.12.51c.02.08.24.15.29.09s.25-.33.31-.39c2.68-2.71,1.88-4.2,3.94-6.39l-1.51-1.45c-.74-.71-2.31-.97-2.82-.07l-.51.9c-.1.17-.55-.02-.72,0l-.25,1.76-1.19.98c.62-.06,1.3-.26,1.38.06.23,2.39,1.22,1.5.41,3.41ZM136.59,227.55l-1.81.55-.17-.68c-.02-.09-.16-.11-.2-.03l-.24.45c-.13.25-.24.73-.44.72-.17,0-.62-.03-.53-.03l.44-1.56c.66.02.54-.07-.03-.28l-.94.7c.11.07.4.57.29.73l-1,1.54c1.17.08,2.57-1.85,2.96-1.09.08.15.2.45.26.6l1.41-1.63ZM134.34,238.29c.27,0,.6.1.57-.01-.02-.07-.01-.48,0-.55.04-.32-.92.48-.9.37,0,.02-.17-.52-.23-.7l-1.31.6.8.67c.19.16.78-.27,1.08-.38Z"/>
  <path class="cls-1" d="M116.03,255.73v-19.4c1.12.26,1.09,1.52,1.37,2.54,1.2,4.38,3.65,5.74,2.59,9.15-.75,2.42-1.9,6.25-3.97,7.71Z"/>
  <path d="M116.03,281.34v-11.12l2.71-4.89c.71-1.28,4.45-6.1,5.73-7.42l1.56-1.62c.06-.06.64-.02.59.05l-.25.4c-.82,1.34-1.71,2.55-2.67,3.8l-1.8,2.35-1.57,2.32c-.7,1.03-1.28,2.08-1.67,3.29-1.93,1.85-2.63,5.93-2.2,8.75.1.63.36,3.98-.43,4.08Z"/>
  <path d="M217.76,190.21c-.4.32-1.09.83-1.45,1.25l-1.35,1.56,1.54-.03c-.96.68-1.3.93-2.15,1.68l.46-1.96-1.91.04c.47-.54,1.29-.58,2.26-.72l-1.02-.75,1.27-.5-.56-1.67.78.11c.13.02.41-.34.31-.41l-.72-.48c-.13.15.3-.35.43-.5.12-.14.59.34.74.45l1.3-1.63c.35-.43.71-1.13,1.04-1.73l-1.26-1.18c-.68-.64-2.7-3.05-3.55-1.99-.1.12.04-.66-.08-.78l-4.14-4.56c-1.12-1.23-2.04-2.19-2.62-3.72-.35-.91-1.21-1.66-2.02-1.75l.38.75c.06.13.1.54-.05.54-.21,0-1.04-.12-.96-.29l.79-1.64c-.06-.23-.87-.93-1.07-1-.27.47-.46,1.09-.72,1.12l-1.12.16c-.59.69-.41,1.73-.09,2.73l-1.06,1.96c-.29-.55-.18-.76.02-1.14l.25-.49c.04-.09-.34-.17-.38-.09l-.25.47c-.59.19-1.55,1.2-1.26,1.74.26.49.44.82.66,1.29.31.68.89.83,1.68.75,4.69,2.98,3.23,2.52,4.95,5.5,1.41,2.43-.08,1.06,1.97,3.75v1.25c0,.11.08.47.1.58s-.32.18-.42.14c-.15-.06-.21-.24-.3-.56-.7-2.3-1.72-4.51-3.44-6.12-.54-.14-1.03-.28-1.65-.61l1.19-.08c-2.18-2.34-2.78-2.66-5.43-4.17l1.12-.52-1.09-1.59c-.28.06-.64.18-.62.05.06-.26.18-.66.35-.73l.77-.28c.39-.14-.42-1.52-.4-1.52l-.89-.28.5-.86c.12-.21-.72-.38-.95-.42l-.17-.64c-.05-.19-.73-.37-.68-.24l.04.48c0,.07-.17.3-.2.23s-.28-.45-.3-.48l-.67.82,1.89.22-2.43.7c-.57.17-1.56.31-2.09.41-.21.63-.54,1.25-1.13,1.59l.67.24c.2.07.55.59.44.55l-1.53,1.42-.51-1.06-1.28.55c-.24.1-.26-.69-.3-.9l-.6-.41c-.46-.31.7-1.43-.22-3.64-.09-.22-.02-1.05.19-1.09l.88-.16.07-.63c.01-.13.35-.03.8.03l-.15-1.52c.34.27.96,1.01,1.17,1.42.03.07-.33.45-.4.43-.11-.04.2.34.31.38.88.32,1.42,1.03,1.64,2.14,2.35-2.54-.5-1.18,3-4.79,1.01-1.04,3.15-2.41,4.32-.96-.54.45-.81.62-.75,1.1.07.52.63,1.06.97.9l1.51-.68-1.06,1.09c.05.1.53.32.63.22l.39-.36c.4.15.85.32,1.12.28s.63-.86.37-.91c-.6-.26-.95-.58-1.12-1.29-.38-.08-.19-.16.25-.28l2.45,1.59-.32-1.05c-.06-.2.2-.68.29-.86-.45-.71-.58-1.66-.47-2.62-.94.46-1.6.76-2.52.54l1.59-1.17c.1-.07.64-.05.66-.16l.09-.48c2.66-2.05,2.23-.86,4.66-2.53.95-.66,1.97-1.1,3.17-1.29-2.44,2.73-.76.86-3.39,2.6l-2.52,1.67c.59.72.52,1.59.29,2.39l.5.14c.15.04.33.57.18.61l-1.01.23c.12.2.8.71,1.15.86l.1.74c.03.23.8.11,1.04.19l4.32,1.36c.41.13.91.55,1.56.92l-1.57.64.57.5c.1.09-.27.47-.37.39l-.57-.45c-.29-.23-1.03.49-1.14.93l1.82-.23c-.83,1.62,1.07,2.08.1,3.28-.31.37-1.22.41-1.63.19l-1.4-.71,1.21,1.88c.37.58.72,1.08,1.23,1.6l.93.94c.07.07.48-.13.58-.18.13-.06-.17-.34-.24-.48-.07-.91-.29-1.63-.94-2.34.23-.23.68-.58,1.01-.77.28-.16.65.41,1.07.82l.28-.91c.05-.15.33-.1.62-.17,1.5-.75,1.13-.08,3.63,2.34l.87.85c.21.2,1.5-.71,1.71-.56l.52.37c.05-.17.12-.7.26-.68l.95.11,2.87-2.09c-.28-.54-.24-1.28,0-1.91.16-.44-.22-1.38-.23-1.86-.03-1.22-.21-2.16-.8-3.18-1.9-3.27-.29-1.19-2.24-4.26-.44-.7-.8-1.77-1.2-2.59l-.71-1.49.38-.53c.1-.14-.38-.56-.41-.77-.39-2.67-.11-3.28-.36-5.46l.28-1.73c-2.92,1.18-4.33,4.72-7.43,5.59.89-.94,1.69-1.93,2.5-2.88.29-.34,1.01-.84,1.37-1.21l2.2-2.27-2.01-.12c-1.83-.11-3.59.22-5.43.4-.6.06-1.32.05-1.86.18l-2.37.56-.98-.56,1.16-.58c1.14-.57,2.26-.68,3.59-.6,1.44.09,3.13-.71,4.51-.53l3.22.43c.79.11,2.08.1,2.41-.66.09-.21-.05-.93.17-.92s.58.1.93.18c.31.08-.95,1.48-.28,1.32l.76-.19c.18-.04.64-.48.76-.34l.71.78c.16.17.64-.47.54-.64l-.54-.89.47.15c.13.04.37-.2.3-.31l-.38-.62.96-.96c.69-1.95,1.64-.77,4.28-1.41l-.65-.97-.54.43c-.13.11-.46-.34-.61-.43l-.73-.44c-.15-.09.09-.72.26-.73l.75-.06c.51-.04,1,.15,1.47.58.32-.58.29-1.6-.18-2.41.32-.38.55-.62-.14-.3-.07-.14-.08-.75.11-.74l.99.06-.07-.83,1.1.88,1.31-1.35c-.25-.44-.52-.97-.48-1.27.11-.79,1.9-.35,1.98-.67l.23-.88c.03-.11.16-.39.26-.33s.33.25.33.37c0,.13-.25.58-.14.66l.71.51-.57.36.77.38c.2.1.16.57.14,1.1l2.44-.95-.47,1.19,1.19-.76c.07-.16.1-.87-.1-.89l-1.12-.1.54-1.33c.73-.16,1.16-.27,1.62-.49-.75-.68-3.9-.85-4.44-.71-5.76,1.51-5.96,2.31-8.9,7.21-.65.42-1.7.97-2.28,1.54-1.84,1.8-1.95,2.74-2.68,2.25-.59-.39,1.66-4.42,2.1-5.17.56-.95,1.79-1.73,2.44-2.65.62-.87,1.33-1.5,2.3-1.88l1.55-.61-.2-2.37,2.08-.19.34-1.42c-.34-.58-1.94-.31-2.08.4l-.06.86c-.07,1-2.35-.69-2.36-.18l-3.26,3.37-2.45,2.5-1.69,1.66c-1.14,1.12-2.28,2.2-3.46,3.24l-1.4,1.23c-.86.76-1.91,1.41-3.1,1.15.68-.51,1.26-.92,1.78-1.44l2.21-2.23,1.92-1.4,6.95-6.81c1-.98,1.94-1.98,3.11-2.89-.75-1.17-1.8-2.53-1.9-3.83-.13-1.73-.24-3.28-.18-4.92l.07-2.17c.03-.76.33-1.75.5-2.65s.73-1.8,1.13-2.6c1.47-2.94.63-2.43,3.3-5.65s.96-2.35,4.57-5.01c1.64-1.21,3.1-2.44,4.98-3.33,1.3-.61,2.89-1.52,3.54-2.77,1.2-2.34,1.72-4.71,2.26-7.17l.36-1.63c.28-1.28.57-2.38,1.15-3.53l.42-.84c.14-.28,4.4-.29,3.65-.56l.59.22.62-.27c2.55-1.12,4.85-3.82,4.65-6.82-.11-1.64,2.74-1.22,3.82-2.25l1.94-1.86c3.92.87,3.79-.11,7.56,2.36l1.1.72c.21.14.37.72.5.93,1.04,1.75,1.23-4.35,6.95-2.15,1.35.52,2.51.91,2.92,2.43.08.31.14.46.1.57-.05.15-.68.32-.61.46l.4.76c.08.15-.24.34-.56.79l1.33-.11c-.28,2-1.08,3.07-3.06,3.76-1.12.39-1.78.65-2.97-.2.35,1.19.76,2.07.77,2.88l.07,4.01v1.95c0,.81-.37,1.97-.51,2.87l-.2,1.34c-.11.71-.03,1.72-.17,2.48l-.55,2.93c-.08.43-.41,1.28-.53,1.69-.03.12-.35.37-.44.45-.55.51,3.45,1.51,3.74,7.55.08,1.76-.87,7.05-1.95,8.55,1.08,1.1,1.17,3.22,1.15,4.76s.04,3,.14,4.51l.11,1.64-.18,3.54c-.06,1.24.16,2.38.11,3.65l-.11,2.55c0,.11-.09.47-.11.56s-.29-.34-.31-.42l-.51-2.14c-.46-1.91-.15-3.89-.18-5.95l-6-.07c.3-2.07-.24-3.21.06-5.12-1.03.59-2.4,1.36-3.37,2.18-.76.65-1.15,1.22-2.3,1.51-.34.08-.41.73-.27,1.32l-4,.23c-.51.03-1.54.66-1.94.93-1.05,1.43.45,3.76-.47,5.17l-5.69.02v-3.41c-3.4.65-3.84-.16-6.12.43l.2,2.02c1.48,1.37,3.81.82,5.86.97l.1,1.85,2.14.84c.35.14-.84,1.39.04.7l.63-.49,2.31.94c.95-.93,1.37-2.2.68-3.82l6.31-.04-.32,1.27c.49.13,1.2.21,1.86.22l2.4.05c.45,0,1.24.31,1.95.5l.04-2.02-5.48-.02c-.43,0-.63-.96-.63-1.35v-4.78s2.53-.03,2.53-.03l3.33-.03c.11,1.37.21,2.8.2,4.06,0,.53-.63,2.02.41,2.04l5.43.12.1,2.48c.03.89.04,1.68-.38,2.42.08.15.45.49.41.69l-.17.91c3.89,3.18,1.99,3.23,3.52,6.51l.08,1.23c.05.69-.07,1.07.74,1.23.53.1.89-.18,1.21-.69.3.18.81.65.73.9l-.45,1.4,1.25-.9.09,1.23c.02.27-.57.38-1,.53v.99s1.99-.2,1.99-.2c0-.09.04.34.05.51.02.15-.29.27-.54.4-1.53.77-.1,1.24-.47,3.68-.4,2.65-.88,1.08-2.35,3.56-.47.79-.93,1.2-2.09,1.33.76.56,1.63,1.52,1.29,2.14-.94.35-1.77.68-1.9,1.48l-1.06.57c-.53.28-1.08.69-1.54,1.12l-1.25-1.31c-.02.52.17.97-.06,1.11-.32.19-1.15.25-1.36.01-.29-.34-.77-.69-1.11-.71-.42-.02-4.55,3.1-7.02,3.91-1.98.66-4.08-.66-6.01-.93-1.57-.23-3.62-1.14-4.65-2.12-.87-.84-1.74-1.38-2.72-2.01-2.17-1.39-4.44-3.19-7.7-2.31l1.84-2.11c.1-.66.42-1.39.8-1.68,0,.81.2,1.06.74,1.11.3.03.79-.23,1.16-.42,2.38-1.24,4.52-2.83,5.32-5.5l.02-1.53c.02-1.43-2.52,1.18-2.84.48.6-.59,1.15-.96,1.38-1.48.16-.36-.98-1.04-1.32-.84-.12.07-.2.56-.07.61l.93.37c-1.07.37-1.93.75-2.81,1.62-.89-.26,2.4-1.96.09-1.58l-.71-1.4,1.34.13-.11-1.31c-.02-.3-.92-.08-1.05.2l-.58,1.17.51.96c.14.27-.46.83-.61,1.15-.57,1.18-1.46,1.98-2.78,2.4-.79.25-1.4.5-2.02.18-.28.03-.74.04-1.07.02l-2.36-.19c.79.85,1.1,1.06,1.24,1.49.26.86-.27,1.44-.87,1.84.61.17.91.24,1.61.57l-1.51.04c-.57,1.93,1.7,1.82,2.02,3.72l.64-.67c.27-.29-1.32-.81-1.03-1.18l.61-.78c-.32-.07-.65-.03-.64-.21.01-.29.12-.81.29-.95.48-.42,1.93,1.14,1.87,1.6l-1.07.16c-.25.04-.19.73-.01.92l.71.75c.15.16-.79.4-.97.57l-2.87,2.65c.57,2.56-.74,1.1-.69,3.58-2.04,2.97.18,3.83-2.27,5.44l-.19,2.25-.93-1.43-.84,1.08-1.83,2.16-.89-1.46-.97,1.31-.8-.52c-.29.84-.49,1.35-.85,2.01l-.46-.79c-.1-.18-.57-.12-.76-.02l-1.28.62c-.39-.14-.4-.17-.46-.11-.09.09-.38.48-.26.54s.51.25.64.24l.81-.07c.63-.05-.47,1.81,2.98,1.86.17-.72.61-1.4,1.16-1.38.04,2.54-1.61,2.69-1.36,2.92l.49.44s-.48.18-.72.28-.58-.39-.77-.69l-.76.11c-.19.03-.44-.34-.64-.5l-.46-.38c-.09-.08.44-.51.43-.63-.08-.56-1.26-.79-1.95-.93l-2.76-.54-1.08-.41c-.32-.12-2.26,1.56-1.84.62l.44-.98c.1-.21-.37-.79-.62-.78-.91.05-2.46-.53-2.86-1.49l-.21-.5c-.05-.12-.3-.06-.6-.06-.14-.42-.58-1.27-.64-1.74l-.26-2.03c-.44.4-.47.38-.4.48l.54.83-2.38-.25c0-.07-.31.29-.41.45,1.15.95,2.06,1.74,2.88,2.84l1.57,2.11c.11.15.28.58.33.73.07.2-.41.28-1.03.37l.84,1.57c-.25,1.28-.96,3.14-1.98,4.21l-.7.73c-2.43.94-3.72,2.53-6.11,3.7-.45-.22-1.14-.49-1.42-.7l-1.5-1.17c-.51-.39-1.17-1.38-1.63-1.84-1.06-.17-1.59-.4-1.78-1.62l-.43.51c-.13.15.26.55.39.68-.3.11-.63.24-.81.27s-.48-.37-.69-.48l-2.63-1.34c-.1-.05.06-.79.16-.75l.47.21.9.41-.22-1.91c-.04-.34-.14-.87-.34-1.05-.61-.54-1.84.14-3.45.18-.76.02-4.01-4.4-2.32-5.83.65-.56,2.46-.21,3.2.29l2.55,1.73-.09,2.19c-.01.29-.1.88.12.97.25.1.84.22,1.16.23,2.02.08,1.19,3.54,1.93,3.4.29-.47.29-1.21.14-1.8,1.06-.67,1.87.66,2.63,1.19l1.56,1.09c.4-.15,1.15-.49,1.54-.47.6.03,1.2.46,1.51,1.05,1.15,2.18-.02,1.85.53,3.22.03.08.16.07.2,0l.25-.52c.44-.94,1.84-1.49,2.64-2.23.62-.57.76-1,1.83-1.11l-.97-.41,1.84-1.01.19-1.77c-.68-.47-1.11,2.74-1.35,1.67l-.18-.8ZM278.87,82.01c.83-.34,1.53-.82,2.21-1.55l-1-.5.74-.87-2.33.38c-.18.03-.53.63-.71.59l-.9-.22.35,1.15c.05.28.23.77.46.88.19.09.55-.14,1.07-.42.08-.48.09-.2.12.57ZM268.72,95.78c3.99-1.66,3.42-6.01,4.45-6.38.55-.2.5-.17.5-.3-.02-.28-.05-.47-.15-.4l-.66.46s-.11-.44,0-.54l.38-.36-.6-.39c-.15-.1.03-.61.07-.81-.81-.09-2.13-2.57-3.4-3.16-1.59-.73-3.83-.91-5.48-.43s-2.23,1.16-3.55,2.44l-1.19,1.16c1.21.79-.5,2.51.28,4.52.09.23.76.63.69.85l-.28.9c1.68.22.87,1.88,2.84,1.86l-.46.85c2.07-1.46,2.16,1.55,6.57-.29ZM254.67,89.36l1.09-.43-.25-1.55c.13-.2-.83-.23-.88,0l-.25,1.2.39-.19.5-.24-.59,1.21ZM275.22,100.12l.09-1.37-.1-1.46c.18-.08-.37.15-.53.22l.1.98c.02.19-.41.42-.71.65l1.16.98ZM258.02,102.32c-.4-.36-.65-.56-.55-.59l.65-.2c.15-.05.08-.49-.04-.6s-.71-.21-.73-.05l-.09.73c-.13.61-.45.92-1.01,1.59.56-.21,1.28-.6,1.78-.89ZM236.25,121.04c.26.3.93.46,1.01.26.09-.21.21-.66.22-.89l.12-5.12,5.91-.04.15-6.03,5.61.03c.58-.88.32-4.93.11-6.13l-5.87-.03-.07-1.02c0-.1-.31.1-.39.17l-.51.47c1.02.53,1.05,1.3.94,2.47-.14,1.49.22,3.33-.22,3.99-1.24-.05-1.96-.05-3.01-.03l-1.12.02c-.25,0-.39.64-.48.96-1.11,3.63-1.13,1.53-1.23,4.77-.97,1.56-1.23,2.5-1.11,4.07.04.5-.5,1.58-.07,2.08ZM262.2,111.6l1.76-2.23-2.29-.08c-.06-.73-.11-1.34-.37-1.54-.22-.16-.85-.13-1.21-.18-1.59-.24-2.74-.65-4.61-1.2v2.63s3.65.28,3.65.28c.77.06,1.4.01,2.31-.07l-.04,2.17c0,.2.25.67.35.82.08.11.34-.45.45-.6ZM250.72,122.4l1.04.69c.13.09.55.21.69.26s.27-.59.14-.65l-.59-.26-.33-1.27c-.64.37-2.08.43-2.13-.12l.03-5.7,5.85-.06.07,3.04c1.7-1.98,2.53-1.51,2.78-2.91l-2.82-.21.03-3.54-.06-2.34-4.91-.08h-.77c-.13-.01-.27.55-.27.69l-.02,5.35-5.99.02-.02,2.58v3.62s-3.19-.08-3.19-.08l-2.39-.08c-.47.59-.66,1.87-.28,2.75,1.11-.07,2.08-.08,3.06-.28l2.78-.56.05-1.75,3.26-.04c.92-.01,1.77-.05,2.7-.14l.08,1.54,1.18-.47ZM255.68,122.16l-.85-.33,1.13-1.46c-1.04.6-1.67,1.13-2.4,1.94l.63-.16c.19-.05.46-.11.46.02l.04.94.98-.94ZM274.64,127.58l4.65.12c.13-.53.15-1.29.16-1.98l.04-3.59c0-.16-.33-.56-.42-.67-.14-.17-.72,1.32-1.99,2.56-.15.15-.69.31-.64.48l.16.68-1.84,1.31-.13,1.1ZM245.88,125.08l-3.38,2.93c-.57,1.46,4.52-3.25,3.38-2.93ZM252.28,151.33c.07.24.19.94.26,1.36.06.04.7.3.59.43-.09.11-.27.36-.39.35l-.6-.09c-.07-.01-.42.1-.49.13-.28.13.19-.5.05-.67-.26-.31-1.37.5-1.13.82.13.17.58.44.58.59v.56c.91-.1,1.56-.05,2.05.21l.32-.51c.11-.17.37-.38.27-.45-.07-.05-.31-.35-.34-.39.19-.25.61-.67.9-.81s1.16.19,1.18.5c.02.28.03.8.23.77s.7-.19.57-.36c-1.71-2.11-.06-2-4.4-4.67-2.02-1.25-5.13-.32-5.04-3.29,0-.28-.24-.91-.34-1.11.3-.54.48-1.45.23-2.13-1.18-3.17.39-1.59-3.09-5.21-.37-.38-1.13-1.21-1.63-1.08-.65.18-1.16,1.31-1.01,1.68.54,0,.93-.1,1.05.07l.48.67.86-.57c.17-.11.63.4.75.58l.84,1.37c-.89-.31-1.87.33-2.45.92-.18.01-.67-.02-.7.12l-.16.64c-.44,1.76.47,1.66-.72,5.06.16.07.51.14.54.28l.16.79,2.1-.23c.22.11,0,.86-.21.99s-.58.09-1.25.13l1.89,1.8.67,1.71.08-1.54c.67.37,1.26.57,1.95.75l1.01.27c.18.05.25-.49.28-.44l1.51,1.4c.08.07.24.36.3.45s.33.09.46.08c.05-.94.54-1.98,1.78-1.93ZM274.63,146.96c.57.36.86.53.84.53s.42-.31.48-.35c.37.15.91.49,1.11.27.32-.33.57-.8.47-1.09-.16-.43-.75-.69-1.22-.28l.89.76c-1.08-.21-1.88-.25-2.57.16ZM225.05,152.2c.11-.08.43.42.52.33l.41-.42c.09-.09-.39-.36-.46-.47l-.76-1.22c-.33.36-.7,1.27-.6,1.74.03.12.45.38.54.3.06-.05.27-.22.34-.27ZM225.47,156.38l.91,1.05s.13-.41.18-.57c.03-.11-.11-.2-.29-.44l.96-1.3-2.62-2.03c-.2.48-.24,1.25-.1,1.97l.75-1.15c.28.69.22,1-.07,1.74l1.29-.54-1.02,1.27ZM236.8,153.92l-1.39-.35-.41.44.72,1.76,1.07-1.86ZM233.27,162.43c.51.36,1.2.51,1.74.39-1.08-.53-1.75-1.1-1.73-2.17l-.75.13c-.23.04-.18-1.59.28-1.47l.82.21.49-1.38c.84-.41,1.56-.79,2.26-1.5l-4.75,1.57.18,2.01c-.19.2-.54.56-.68.75s.3.71.46.93l1.55,2.09c.24.32.52,1.38.97.89.42-.78-.48-1.61-1.24-1.94l.41-.5ZM271.06,165.49c-.03.43.2,1.2.52,1.63.11,0,.67-.39.54-.5l-.63-.53.88-.4c.17-.08.1-.58-.07-.65l-.54-.22,1.61-2.13-1.78.75c-.08.03-.38.28-.32.32l.42.32-1.81,1.88,1.17-.49ZM211.52,195.48c.3-.06.7-.78.65-1.09-.13-.78-1.41-.56-1.88-.12l-1,.03c.13.49,1.49,1.31,2.22,1.17Z"/>
  <path d="M267.71,229.63l-1.93.7-1.56.53c-1.52.51-2.95,1.85-4.1,2.9-2.24.54-4.43,2.58-5.41,4.8-.37.84-.93,1.67-.87,2.65l.16,2.67c.04.61.3,1.36.39,1.98.54,3.69,1.42,7.01,3.82,10,.26.32,2.45,3.35,2,3.38,1.19-.09,1.41,1.64,2.4,1.95l3.21,1.01c1.63.51,3.21.68,4.93.33,3.72-.75,1.52-.3,3.96-1.63,1.19-.65,2.38-.98,3.28-2.05l1.5-1.8c.46-.55,2.53-2.02,4.02-4.34-.35,2.68.26.17,1.52,4.53.9,3.12,1.15,3.53-.21,6.01s-4.59,4.4-7.24,3.5c-2.09-.71-3.28-2.87-4.36-4.54-1.58.54-3.35,1.19-5.05.99-3.44-.42-2.6-.17-5.68-1.72.52,1.31-3.06,3.12-3.87,3.16l-1.72.08c-.75.04-1.73-1.03-2.45-1.5-1.65-1.09-3.15-2.74-3.06-4.8.12-2.71,2.49-4.57,4.8-4.84-.79-1.16-1.48-2.59-1.75-4.06l-.71-3.9-.44-2.67c-.18-1.08-.22-2.22-.3-3.33-4.52-2.77-5.42-5.33-8.16-9.47-2.5-3.78-5.45-12.99-3.65-17.27.36-2.4.87-4.9,2.84-6.59-2.35-.98-2.1-2.22-5.29-3.6-1.15-.49-2.05-1.5-3.07-2.07-.71-.4-1.36-.71-1.99-1.18l-7.51-5.55c.41-.44,1.21-.8,1.6-.49.94.75,2.3,1.58,3.25,2.44,3.03,2.76,4.69,3.31,6.71,4.95,1.59,1.29,3.04,2.45,4.79,3.51.71.43,1.51,1.15,2.11,1.61.53.02,1.54-.16,2.03.3.41.39.72,1.07,1.12,1.88.54-1.47.74-3.24,2.14-4.25,1.76-1.28,4.4-1.83,6.59-1.81l2.34.02c1.71.01,3.41.1,5.07.27l6.79.69c2.25.23,4.32.76,6.39,1.61l2.01.83c1.37.57,4.32,2.02,5.28,2.76l1.48,1.15c.76.59,1.6,1.17,2.31,1.77l1.31,1.11c.74.63,1.6,1.62,2.17,2.37,0,.22-.16.89.02.94l.79.26,1.64,2.44.33-1.79c.17-.93-.01-1.94,0-2.9.02-4.53.77-5.23.17-10.1-.1-.8.18-1.79.44-2.77.69.17.4,2.67.43,3.54l.08,2.15.12,3.34-.07,2.2c-.08,2.62.02,5.15-.41,7.77-.28,1.71.82,3.23.81,4.82l-.03,3.02c-.01,1.29-.75,4.95-1.65,5.9-3.01,3.17-2.01,1.38-3.31,4.27l-.55,1.21c-1.33,2.96-2.06,2.38-3.54,5.49-.13,1.65-.41,2.94-1.08,4.42-.13.29.04,1.01-.53.89.12-1.19,1.12-4.28.85-5.65-.3-1.48-1.05-3.33-1.84-4.78-.33-.6-1.25-1.57-1.74-2.01l-2.77-2.47c-2.3-2.05-2.56-3.52-4.21-4.54-3.06-1.88-4.57-1.8-7.8-.63ZM258.09,227.08c3.14-1.94,6.23-3.74,9.71-5.03l2.36-.35c-1.1-2.04-4.67-5.06-6.2-5.52l-2.35-.71c-1.39.14-2.63.24-3.97-.19-3.48-1.11-5.53-.02-9.05-3.95l-.29,1.46.37,2.05c.4,2.24.77,6.24.15,8.28l.36,1.16.56.5c.1.09-.21.61-.14.74l1.04,1.94c-.65-.17-.63-.42-1.06-.09l3.14,1.29c2.37,0,3.14-.22,5.36-1.59Z"/>
  <path d="M178.06,151.68c-1.05.51-2.26.08-3.11-.57l1.24-.35-2.94-.59c-.89-.18-2.21-.27-3.25-.41-.49-.07-1.24.73-1.45,1.08l1.14.57-1.53.7c-.01-1.07-.31-1.51-.98-2.09l-.53-1.02-1.73,1.24c.09.15.28.5.41.46l.83-.24-.4,1.23c-.73-.88-1.4-1.29-2.16-.72-.9.68-1.82,1.11-2.89,1.59-2.11.96-.67-.75-4.51.96-.15-.57-.23-1.02-.44-.99-2.36.26-2.85-.28-5.02-1.27l.1-.51c.02-.08.03-.37-.05-.32l-.67.41c-.15.09-.45-.21-.53-.4l-.33-.82c-.32-.78-2.84,2.07-4.36-.54-.2-.34-.94-.68-1.33-.98l2.25-.24-1.15-.6.83-.23c-.35-.16-1.03-.61-.87-.9l.4-.68c.07-.12-.27-.38-.4-.34l-.69.21.33-1.07c-.28-.16-.92-.39-.84-.62s.31-.57.62-1.05c-.5-.16-1.58-.31-2-.12l-1.24,1.03c.56-2.19,2.78-2.36,4.5-1.69l-1.05-4.85c.26-.25.46-.4.46-.53,0-.18-.35-.6-.57-.69l-5.41-2.21c-.64.86-1.87,1.3-3.05.63-1.6-.91-1.46-2.63-1.96-4.38-.38-1.32-1.77-3.33-2.39-4.56-.06-.14.52-.49.58-.35s.22.58.32.69l1.03,1.1,1.21-.71c.68-.4.63-1.33.55-2.03.13-.35.57-1.14.6-1.51s-.38-.88-.7-1.59c1.63.24,2.47,1.66,2.92,3.51,1.58-2.87,4.77-4.48,8.15-4.06l2.72-1.84c1.46-.99,2.95-2.47,3.9-3.98l2.17-3.43-2.22-.47-3.09-.61c-1.33-.26-2.16-2.59-2.05-3.88.07-.76.89-1.99,1.49-2.25,4.28-1.78,12.71.36,12.53-2.63l1.88-.89c1.28.92,2.68.33,2.82.94l.24,1.01c2.98,1.47,4.93,6.48,6.23,7.93.18.21.65.42.6.61l-.23.93c1.04.28,1.9.66,2.64,1.44,1.69,1.78,2.63,2.28,2.15,4.73l-2.06,3.11c-.61.92-1.4,1.82-2.11,2.74-.84,1.09-2.27,2.03-3.58,1.17-.88-.58-1.7-2.04-2.19-2.85-.1-.16-.69-.36-.69-.53v-.69c-1.71-1.5-2.56-3.54-3.1-5.72l-.98-3.95-.59-2.21c-.41-1.51-.92-2.97-1.6-4.5-1.52,2.27-2.94,3.85-4.31,5.86l-4.01,5.84c-.51.75-2.17,2.05-2.9,2.44l-2.95,1.58c1.83,3.69,1.71,3.62,3.98,6.86l1.58,2.25c2.23,3.17,7.68,4.01,11.29,3.95,3.94-.06,4.33-.01,7.53,2.02.9.57,1.81.86,2.74.55l.45,1.39c.99.12,1.72.37,2.43,1l1.5.26c.66.97,1.98.83,2.66,1.17,1.23.62,2.34.9,3.65.96.79.04,3.69.96,6.69-.24,1.73-.69,3.3-1.4,4.87-2.37l2.25-1.38c.37-1.01,1.96-1.85,2.74-1.18,1.06.9-.09,1.97-.52,2.56-.7.95-1.29,1.79-2.12,2.57-3.55,3.33-6.69,4.61-10.47,7.41l.05,2.16-.71.54-.53-2.3c-1.45.84-2.93.92-4.34.97l-1.56,2.4-.55-1.33c-.08-.18-.5-.15-.81-.16-.19,0,0,.53.09.89-.1.1-.27.24-.38.15-.16-.13-.62-.32-.54-.43l.46-.61c-.47,0-1.16.07-1.44.22-.32.17.08,1.05.37,1.23Z"/>
  <path d="M175.26,183.33c.05.11.25.45.38.43l.89-.13-.98.91c1.09,1.32.23,2.5,1.88,3.94.13.11-.18.65-.08.79l.96,1.28,3.98-.35c.62-.05,1.75.48,1.72.93l-1.02,1.24-.8.16c-.27.05-.43.81-.57,1.08l-.7,1.33c-.5.54-.94,1.03-1.19,1.73l-.61-.03c-.13,0-.08.42-.14.77-.89-.46-1.81-1.05-2.6-1.83-.7-.68-.28-2.01-.07-3.05-.49-.55-1.45-1.01-2.46-1.37l-.53,2.54c-.37-.03-1.06-.18-1.06-.39,0-.5.05-1.41.08-2.17l-4.23-.97c-.71-.16-1.46-.39-2.09-.67l-3.13-1.36c-.64.89-1.31,2.09-1.82,3.21-.5-.11-1.48-1-1.18-1.26l1.38-.85c-.15-1.67-2.07-1.83-2.9-2.72l-2.52-2.71c-.71-.77-.34-2.34,0-3.4l2.25-.31c-.62-.44-1.43-2.3-.73-3.05l1.13-1.2c1.7-1.8,3.25-1.76,2.65-3.95l1.16-.34c-.16-.29-.63-.99-.89-1.33l1.81-3.59c.12-.24.35-.81.45-1.05-.05-.63,1.48-3.82,2.7-3.27-.83,2.73-1.14,3.79-2.83,6.44-.44.69-.75,1.18-.95,1.99l.82-.68c.13-.11.4-.09.71-.09l1.37-1.81.04,1.17,1.33-.48,1.19-1.3c.17.16.49.49.45.71l-.22,1.25s.4-.05.46-.06c.23-.28.31-.43.41-.4l.41.11c-1.3.82,1.04.99.97,1.52-.04.3-.38.98-.62,1.28-.19.25-.85-.12-.98-.38l-.16-.58c-.04-.15-.47-.43-.54-.29l-.38.74-.46.86c-.14.26-1.2.11-1.22-.04.08-.55.29-1.33-.23-1.41-.37-.06-.91.53-.95.83-.04.36.95,3.3.03,1.53l-.27-.52c-.25.99-.47,1.78-.9,2.65-1.09-.88-.73-1.82-.32-3.01-1.04.64-.81,1.74-.74,2.99l-.94-.65-.97,1.82c.98.01,1.39,0,1.93.08.72.1.94,1.11,1.09,1.78l.64-.45c.4-.28.91,1.43,1.21,1.02l.5-.7c.88-1.22,1.59-2.34,2.36-3.67l.95.06c.28-.58.66-.95,1.21-.86l-.34,3.87c-.02.25-.85.84-.68,1.01l.61.62c.07-.56.11-.71.28-.66.2.06.79.35.96.35,2.67.06,2.36,2.31,2.74,1.99l.64-.53-.47,2.12c.83.17,1.07.01,1.71-.44-.08.32-.55.84-1.02,1.22ZM167.85,189.53c.18-.27.36-.79.62-.77l1.05.06c.31.02.9.02,1.12-.1.62-.34.58-1.96.59-2.28,0-.21.23-.7.27-.91.03-.17-.25-.54-.37-.74-.06-.11-.33-.02-.41.06l-.31.29c-.08-.37-.1-.84-.28-.93l-.6-.3,1.35-.19c.22-.03.23-.58.18-1.13-.31-.16-1.29.38-1.77.65-.22-.05-.87-.53-.97-.28l-.43,1-1.9.14.3.63c-1.19.59-2.16,1.2-2.68,2.23-.14.27.86.45,1.07.34,1.48,1.68,2.94.86,3.02,1.36l.15.88Z"/>
  <path d="M177.32,130.25c-.06.14-.18.35-.23.42-.07.1-.39,0-.44-.12s.01-.35.08-.53l.8-2.06c.78-1.99.99-2.19,1.58-3.78.54-1.07.82-2.22,1.25-3.37l1.32-3.52c.62-1.65,1.36-2.39,1.61-3.4.13-.53-2.43-.29-3.4-1.09,1.55-3.36,4.74-4.42,7.18-7.89,1.37-1.94,1.13-4.66-.98-5.84-1.5-.84-3.08-1.74-4.32-2.69.52-1.62.05-2.73-.63-3.99-.96-1.76-2.05-2.61-4.31-2.5.2-.53-.15-2.05-.75-2.18-1.46-.31-2.58.62-3.11,1.69.1-2.5,2.42-2.89,4.29-3.2.91-.15,1.43-.42,2.5-.14.53.14.65-.69.71-1.24l.29-2.63c.07-.64,1.54-1.52,2.04-1.13,1.11.87,1.99,2.94,2.34,4.07.23.76.06,1.59,1.24,1.8.6.11,1.3.95,1.78,1.17,1.96.93,3.15,2.36,4.23,4.19.74,1.26,1.5,2.48,1.21,4.21-.31,1.85,2.08,1.58,2.85,2.47l1.46,1.68c.17.2.5.89.3,1.01l-1.08.62-.02.67c0,.15-.6.01-.77.08-2.56,1.05-4.02-.34-4.32.17l-.54.94-1.24,2.14c-.66,1.14-1.64,2.12-2.51,3.16-1.59,1.89-1.12,1.89-1.99,2.12-.08.02-.04.41-.09.48-1.59,1.97-2.93,5.47-4.02,8.07l-1,2.39-1.51,4c-.04.12-.72.23-.7.36s.17.58.12.7l-1.21,2.72Z"/>
  <path d="M241.5,190.82c.2-.42.46-1.25.29-1.59-.05-.11-.46.15-.59.14s-.46-.23-.58-.21c-.61.1-1.93.19-2.32-.68l.47-.16c.11-.04.07-.37.06-.56l-.09-1.34-1.71-1.18,2.4-.33c.27-.04,1.06.07,1.27.24.24.2.34.54.57,1.06.06.28.02.84-.07,1.41-.06.38.57.78,1.09,1.02s1.11.03,1.64-.87l-1.55.17-.4-2.43c1.16-.15,2.09-.88,2.52-2.1l1.18,1.65c-.04.07.11-.17.26-.42l-1.09-1.79c.34-.61.47-.94.5-1.69l-1.17,1.29-.03-1.37,1.73-.21.56-1.9c-.45.18-1.5.31-1.61-.06l.8-4.91c-1.33-.37-.77-3.52-.6-3.68.25-.24.75-.48,1.3-.73l-1.04,2.62.74-.6c.12-.1.29-.05.59.09-.56.7-.85,1.84-.12,2.41l.34-2.3,1.53.79.45-.27c.1-.06.21.66.11.71l-1.11.53c-.32.15-.44.93-.47,1.33l-.56-.04c-.36-.02-.5,1.25-.45,2.19l.1,1.89,1.36-4.06c.14-.42.42-1.08.74-1.22,1.69-.7,5.35,1.51,6.87,2.39l2.73,1.58c-3.9,2.66-5.39,5.08-7.51,9.17-.6,1.16-.99,2.68-1.34,3.99l-.71,2.65-.94,3.35c-.1.36-.06.97-.04,1.53l-1.98-.58-1.61-2.79c-.57-1-1.25-1.78-2.26-2.44l.16-1.02c.02-.13.11-.44.04-.48l-.47-.23ZM245.14,187.95c.52.49.9.93.76,1.13l-.51.75c-.08.12-.21.39-.23.49s1.77.4.91-3.56c-.95.29-1.37,1.36-1.55,2.46l.73.02-.11-1.3Z"/>
  <path d="M186.48,188.16c.65-.85,1.18-1.7,1.69-2.58l1.4-2.46.43-.77c.11-.21-.45-.53-.73-.7l.71-.89-.82.18c-.12.03-.14-.35-.19-.43-1.29-.35-1.72-1.46-1.99-1.34l-.8.35c-.25.11-.82.07-1.21.05.3-1.03.97-1.34,1.81-1.33l-1.47-1.34.57-.66c.08-.09-.27-.4-.38-.35l-.47.23c-.58.28-1.84,1.05-1.73,1.62.08.43.23,1,.36,1.45.02.22-.75.12-.9-.1l-.54-.78c-.04-.06-.24-.2-.29-.25-.3-.31.33-.95-.03-1.05l-.53-.15,2.41-3.68c.01-.56-.05-.52-.41.06l-.17-1.29-.99.73.56-1.15c.66-1.37-1.43.96-.57-3.19.03-.14-.24-.53-.38-.52l-1.09.14c1.6-1.66.58-1.01.94-2.94.02-.08.03-.31-.06-.3l-.87.17,1.01-1.22-.54-.5c-.09-.09.25-.34.37-.4l.65-.31c.16-.08-.43-.49-.59-.67l.7-.36c.14-.07-.02-.63.07-.77l1.16-1.7c.23-.34,1.17-.76,1.45-1.02l-.47-.67c.99-.03,1.51-.79,2.09-1.01,1.64-.63,3.92-.23,5.42.63,3.05,1.74,4.09,1.75,5.84,3.6l.57-.47c.33-.27.82.86.81,1.58-.02.95-2.26,1.07-4.31,2.91-.53.48-1.35,1.64-1.99,1.62-.93-.18-1.55-.27-2.48-.32,0-.45.6-.79,1.37-.73l.11-1.07c.22-.44.37-1.17.26-1.51l-.9.82c-.19.17-1.04,0-1.05-.05l.17-.93c-.73.27-.92.29-1.25.74l-1.22-.71-.42.96c-.06.14-.23.28-.44.48-.12.11-.24-.29-.46-.68l-.38.56c-.11.17.16.53.24.74-.07.2-.27.71-.27.92v1.66s1.67-.25,1.67-.25c-2.25,2.07-3.27,5.13-1.65,8.13,1.05,1.95.3,3.75,4.79,5.87-.72,3.48-.98,1.82-1.59,3.81l-1.38,1.4.61.84c.14.2-.25.76-.43.96l-1.44,1.67c-.52.6-1.07,1.1-1.88.68l1.51-2ZM193.17,162.39c.88.08,2.03.1,2.89-.08.27.05.76.31.86.06l.38-.91-.74-.17c-.15-.03-.33-.63-.48-.71l-2.96-1.63c.21,1.34-1.86,2-.88,1.97l.64-.02c.12,0,.19.35.08.4l-.71.33c.41.59.89.04,1.68-.23l-.77,1ZM183.54,176.64l1.62-1.35-1.2-1.77c-.5.81-.83,1.51-1.16,2.35l.74.76Z"/>
  <path d="M294.12,195.12l-.54-3.23c-.4-2.39-2.25-4.25-3.43-6.29s-2.08-4.02-3.9-5.42l-2.77-2.13-2.5-1.92c-.8-.61-1.74-1.26-2.65-1.88,1.19-.55,2.21-1.11,3.19-1.82l2.43-1.75c.77-.56,1.65-.93,2.51-1.43l2.21-1.28c.11-.07.03-.57-.1-.59-.17-.02-.36.11-.68.26l-.84.39c-.21.1-.41-.63-.43-.69-.23.23-.92.62-1.05.38-.07-.13,0-.63-.15-.62l-.96.08c.75-1.28.46.23,2.3-1.23,1.33,2.19,3.12.02,2.79,2.45.19.26.39.66.54,1.19.28,1.01.76,2.02,1.09,2.98.35,1.01.39,1.97,1.08,2.91.38.53.58,1.61.61,2.16,0,.15.36.6.43.74s-.14.35-.23.53c.25,1.24.5,2.45.65,3.72l.27,2.14c.1.78.11,1.53.07,2.37-.15,2.62.68,1.34.49,5.38-.03.59-.06,1.09-.05,1.54l.07,2.52c-.51-.27-.35-.9-.45-1.48Z"/>
  <path d="M206.68,32.44l-.98,1.11c-.19.22-.24.91-.26,1.27-.38,0-1.06-.15-1.29.06-.31.29-.51,1.07-.14,1.41l-.52,1.4-.51-1.11-1.4,1.17c.53-1.88,1.86-4.08,3.62-5.32l-8.33-2.62c-1-.31-2.08-.92-2.84-1.46-.44-.08-1.35-.17-1.74-.35l-3.28-1.45c.96-.03,2.01-.1,2.68.13l3.11,1.09,4.04,1.4c.6.21,1.4.4,1.95.62l3.86,1.56c.77.31,1.29.51,1.96-.07l2.03-1.74-3.45-1.11-2.2-.67-2.9-.92c-1.66-.52-3.21-1.17-4.84-1.81l-4.31-1.7c-.35-.14-.72-.38-1-.59,2.76-.04,4.91,1.08,7.39,1.9l5.06,1.69,3.19,1.3,3.09,1.49.65.26c.16.07.42-.38.58-.47l1.35-.73c.68-.37,1.24-.86,1.82-1.3,1.08-.81,2.05-1.47,3.04-2.41.7-.66,1.58-1.22,2.34-1.77l-.43,1.71-.68.12c-.17.03-.05.38-.03.67-.9-.26-1.46.52-2.06,1.26l-.41.51c-.08.1.23.38.36.42.16.05.28,0,.6-.22.4-.28.69-.29,1.61-.07l-.64.82c-.16.21-.89.05-1.18.04h-.81c-.17,0-.28-.5-.42-.74-.07-.12-.49-.18-.57-.07s-.28.47-.28.61v2.07c0,.07-.34.39-.37.33l-.21-.42-1.3,1.17-1.55-.71c-.76.5-1,1.69-.79,2.6-.76-.38-2.1-.95-2.61-.38Z"/>
  <path d="M252.19,56.93c-1.57-1.84-3.5-3.17-4.99-4.95-.33-.19-.83-.42-1.18-.73l-2.45-2.19c-1.98-1.77-4.23-2.93-6.46-4.4-.2.39-.15.79-.08,1.47l-.51-.09c-.83-.15.63,1.48-.63,3.04-.29-1.18-.53-1.96-.7-3.59l.75.71.48-2.05-.46.36c-.06.05-.16.1-.2.03-.29-.45.32-.58.17-.76l-.35-.42c-.07-.08-.29-.49-.35-.6-.05-.1.25-.03.42,0l.37.05c.21.37.18.43.31.4.15-.04.65-.12.57-.23-.1-.13-.33-.43-.43-.51l-.45-.31c-.13-.09.32-.33.58-.41,1.63-.47.15-2.75.41-5.46-.46.25-.96.71-1.2,1.15l-1.12,2.05-1.16-.57.44-1.41c.28-.88.42-1.61-.48-2.3.04-.23.75-.41.91-.17.15.22.17.73.18,1.22.4-.27,1.01-.17,1.88.23.14-1.98-.24-3.84-.94-5.68-.95-2.5-2.14-3.25-4.49-4.43-2.88-1.44-2-.69-4.1-1.85l-3.77-.89c-.35.24-.87.53-1.37.69l.65-1.98c3.53,1.83,1.88.31,7.1,2.21,1.05.38,2.17.96,3.1,1.55l2.86,1.82c.58,1.44,1.2,3.25,1.56,4.67l.43,1.71c.08.33-.12.85-.4,1.38.6-.51.98,3.16.99,3.53l.05,1.89v1.77s-.58.91-.58.91c-.13.21.65.46.85.61l.49.39c.12.09.4-.09.55-.16l1.43,1.44,1.09-1.89c.13.56-.27,1.49-.69,1.93l1.74.88c1.09.55-.14-.03,1.63,1.38.16.13.07.57.09.82l1.38.96c.94.07,3.38,1.52,3.35,2.6,1.09.72,2.51,1.54,3.18,2.68.14.24.25.54.38.52l.6-.1-.21.66c-.06.17.51.36.62.5.11.13-.06.59-.02.76.04.2.41.38.72.54,1.6.86.81,1.68,3.41,4.62.66.75,1.1,1.54.86,2.42l-3.63-4.83c-1.16-1.55-.59-.57-2.22-2.47l-.96-1.13Z"/>
  <path d="M254.88,65.65l-.39-.51c-.08-.1-.33.28-.49.48l-.87-1.92c-.27-.59-1.42-1.34-1.81-1.88-.49-.69-.72-.99-1.43-1.85l-.33,1.99c.55.79.46,1.51.59,2.38.15,1.07.41,1.84-.01,2.96l-.25.66c-.05.13-.45-.09-.61-.16-.17-.08.35-.56.32-.75l-.25-1.42c-.34-1.92-.87-3.79-1.44-5.68-.23-.79-.38-1.52-.35-2.22-1.69-.02.99-1.05-3.01-2.32l.99-.47-.92-.85-.5.35c-.31.22-.56-.97-1.59-1.19,0-.08.34-.69.2-.72l-1.22-.26c-.28.23-.28.21.21-.35l-2.07-.4.25-.74c.04-.13-.38-.08-.52-.11-.21-.25-.45-.65-.64-.6l-1.04.29c.02-.26.03-.89-.2-1.02l-.94-.51c-.11-.06.18-.59.23-.71.07-.16.41.24.58.36,1.03.02,1.49.35,2.17.97.72.65,2.02.98,2.8,1.61,1.01.82,1.3,2.38,2.8,2.02,2.03,1.53,1.94,1.91,3.24,3.43.12.14.95.29.86.45l-.5.82,1.13.28c.28.07.25.71.27.98,2.6,1.22.51.54,3.13,3.04.79.75,1.49,1.69,2.02,2.59.11.18.61.44.59.64l-.08.81,2.18,2.58c.27.32,1.5.28,1.5.75l-.89-.18c-.14-.03-.46.24-.37.35l.47.51c.45.49.86,1.01,1.32,1.6l-1.39-.05-1.88-3.17c-.41-.69-.63-1.16-1.21-1.64-.79,1.5-1.24,2.61-1.8,4.07l-.24.63c-.06.15-.76,0-.7-.14l.33-.7c.14-.3-.04-1.12.06-1.47.29-.97.9-2.24,1.28-3.09.26.3.39.49.45.38l.28-.54c.05-.1-.23-.25-.33-.37Z"/>
  <path d="M166.75,79.57c.93.74-.3,1.48-.46,1.93-.05.15.3.57.29.72-.02.19-.18.48-.37.92-.16.38.7.85,1.12.83.47-.02,1.08-.36,1.44-.72l2.12-2.07,1.41-1.42,1.7-1.67c.39-.39.8-.75,1.22-1.11l2.28-1.91c.45-.38.83-.97,1.06-1.4.73-.43,2.82-1.98,2.61-3.1.87-.54,1.47-1.37,2-2.23l.52.15c.08.02.16-.31.1-.36l-.64-.52h.76c.07,0,.83-1.24.83-.81v-.61c.69-.51,1.32-1.23,1.71-2.06l.2-.44c.04-.09.33-.05.3.04l-.18.54-.3.93c-.39.49-1.07,1.27-1.47,1.86l-1.75,2.56c-.23.34-.53.98-.82,1.35l-1.11,1.42c-.65.83-1.2,1.74-1.98,2.48l-1.21,1.16c-.62.59-1.25,1.13-1.9,1.67-.71.59-1.12,1.63-2.39,1.27l.37.78-1.77,1.71c-2.54,2.45-2.25,1.3-4.42,3.61-.64.68-2.11.3-2.64-.53-.5-.77-.15-2.07.26-2.86l1.11-2.11Z"/>
  <path d="M190.42,45.08l.3-1.1c.07-.27-.34-.51-.78-.93l2.18-.94c.33-.14.82-.82.76-1.17s-.6-.9-.95-.94c-.56-.06-1.03.35-1.34,1.07l-.85-.39c-.88.03-1.64,1.2-2.17,1.95-1.73.39-3.87-.47-4.93-2.19,1.29-.46,2.36.48,3.37,1.25l.8.62c.18.14.73-.29.86-.34l-.85-.61,1.34-.42-.49-.36c-.22-.16,3.14-1.87,4.77-1.96,1.86-.09,5.77,1.13,5.33,1.76-.08.11-.3.46-.41.38l-.55-.38c-.6-.41-1.23-.49-1.94-.53l-1.55-.07c-.24,2.42,3.56,1.99,2.42,3.9-.91-.74-1.4-1.12-2.34-1.51l-.06,1.49,1.03-.8c-.2,1.75-1.08.19-1.48,1.94l-1.12-.05c-.42-.02-.9,1.2-1.36.95-.07-.04-.16-.09-.25-.15-.1-.07.13-.3.24-.5Z"/>
  <path d="M191.65,81.33c-.79.5-1.32.89-1.82,1.53h1.12c.22.01.21.68.4.79l.67.39c.14.08.14.54.16.73l.92,1.16c-3.77-1.8-4.47-4.86-4.69-8.77.05.8.3-4.03.22-3.61l.53-2.76c1.05-1.14-.12-.22.65-3.3.18-.72.46-1.45.67-2.01-.05.13.48-2.75,1.18-2.83l.91-.1c-.1.37-.2.58-.12.61l.42.18-2.12,1.37c.39.28.88.55.78.75l-.43.83c-.08.16.31.45.49.68l-1.04,1.23.38.64c.08.14-.28.55-.28.72.02,2.57-1.46,2.33-.19,3.68-.33.17-.85.48-1.14.71-.22.18.41.69.64.88l-.22,1.72c-.02.17.33.45.27.6l-.28.67c.69,1.52-.29.37.46,2.95.1.35,1.16.47,1.5.54Z"/>
  <path d="M173.94,65.8c-.58.09-2.23,2.46-2.51,3l-1.33,2.53c-.1.19-.4.54-.5.69s.28.5.45.7c-2.35,1.33.12,1.48-2.51,3.91.76-3.63,1.58-6.97,3.77-10.12s6.36-5.99,9.77-7.27c.19-.07.59-.03.67,0,1.06.47-1.21.54-2.01,2.14l-1.1-.34.15.57c-.04-.14-2.92,1.95-3.83,2.43-.08.04-.56-.31-.62-.24l-.34.4c-.09.1.52.19.83.27l-.89,1.31Z"/>
  <path d="M257.88,59.08c.48-3.16.07-5.62.75-7.6l-.33-1c-.09-.27.43-.75.68-1-.59-.51-.65-1.35-.72-2.24l-.12-1.61c-1.13.11,1.02-1.48-.91-2.09l-.02-1.71-.72.56.21-1.19c.05-.29-.88-.39-1.25-.45l.4-.48c.12-.14,0-.53-.13-.83l-1.1,1.09.51-1.41c-.64-1.34-1.97-2.42-3.38-3.33.95-1.14,1.55.22,2.16.57,1.57.89,2.37,2.27,3.15,3.9l1.58,3.28c.28.58.45,1.72.67,2.35l-.65.12c-.14.03-.39.52-.31.45.49-.03.84-.12.85.03l.03.79.02.58c0,.13-.44.11-.46.13.52.65.84,3.94,1.03,3.58l-.43.82c-.33.64-.07,1.89-.25,2.57-.35,1.26-.93,4.33-1.26,4.13Z"/>
  <path d="M209.8,48.58l-.44.55c-.07.09-.15-.28-.25-.56-.93.08-.85,2.57-.84,2.57.3.09,1.05.27.98.24-.28-.58-.25-1.21-.1-1.92.11-.14.86.1.98.36.15.3-.29,1.02-.46,1.37-.12.25,1.04.15.76.35-1.37.95.11-.47-3.11.44l.45-1.52-.53-2.97-.85-.49.9-.49c.23-.12-.1-.91-.12-1.2-.11-1.53-1.43-2.52-2.38-3.4-.63-.6-.49-1.81-2.16-1.91l2.48-.47c.47.93,1.28,1.96,2.09,2.33-.23-.74-.38-1.28-.32-1.84.04-.39,1.07-.46,1.55-.19.39.22.14,1.22-.08,1.89l1.35.26-1.8.24c-.28-.73-.55-.32-.6.14.5.88.92,1.75,1.03,2.61l.18,1.36s.48-.42.66-.58c.21-.18.74.73.65.99l-.46,1.22.72-.48c.15-.1.57.01.54.09l-.81,1Z"/>
  <path d="M158.19,173.83c-.04-.89-.14-2.31.06-3.15l1.18-5.06.79-3.05c.14-.55.41-1.13.73-1.67-.75-.41-1.51-1.49-1.73-2.41l1.76.31-.09.59c-.03.17.37.29.7.4l-.36-1.27c.59-.11,1.51-.23,2.01-.24-.62,1.08-.66,1.9-1,2.76-.43,1.12-.91,2.1-1.17,3.24l-.55,2.38c-.51,2.21-1.47,4.01-1.44,6.22.01.99-.01,1.85-.81,2.46l-.07-1.52Z"/>
  <path d="M185.8,55.89c-1.48-2.35-.22-2.97-1-3.02l-1.25-.07,1.25-.49c-.44-.6-.57-1.79-.51-2.62-.52.01-1.07-.05-1.57-.21l1.72-.36.04-1.66,1.1-1.55.85-1.09c-1.36-.17-2.29-.34-3.41-.62l-1.64-.41c-.84-.21-1.6-.62-2.24-1.12l2.87.23,1.25.47c1.42-.05,2.68.34,3.68,1.29l-.15,1.14c-2.09,1.99.55,2.16-1.61,5.29l.59-.17c.1-.03-.05.46,0,.56.08.21.64.43.6.65l-.25,1.27.79-.3c-1.18,2.72.23,1.2-.15,2.65-.08.29-.81.33-.94.13Z"/>
  <path d="M209.41,69.14c-.37-.33-.44,1.79-.23,2.62l.41,1.6.32,1.25c.04.14.68.31.59.43s-.42.45-.5.34l-1.18-1.58c-.09-.12-.03-.48,0-.63.04-.19-1.22-.66-1.44-4.76l-.22-4.12c-.03-.61.32-1.37.4-1.86.36-2.26.92-4.39,3.23-5.63-1.01,4.03-2.6,2.08-1.46,3.71l-1.14,3.14c1.03,1.39-.83.63.65,3.95l-.98.17,1.17,1.04.38.33Z"/>
  <path d="M218.55,56.22l.91-1.07c-.55-.63-.75-1.67-.19-2.48l1.34,1.55c.19-1.64,1.34-1.52,2.36-1.99.64-.3,1.4-.67,2.09-.91l2.2-.75-.52-.34c-.07-.05.07-.33.15-.32l.48.03c2.22.14,3.32-.89,3.4-.37.02.12-.07-.32-.14-.7l.81.28c.41.26.83.41,1.48.61-1.99,1.08-.12-.12-3.75,1.11-.55.19-1.04.34-1.57.61l-5.46,2.81c-.71.37-1.42.49-1.87,1.26-.36.63-.78.94-1.72.67Z"/>
  <path d="M182.3,53.63c.4.97-6.44.59-8.55-1.18l-1.71-1.44.91.07-.99-1.17.58-1.85c.14-.44.88-.8,1.43-1.06,1.43-.67,3.16-.55,3.86,1.04l-2.01-.59c-.76-.22-2.33.46-2.48,1.19l-.32,1.48c1.06,1.17,2.4,2.14,3.85,2.51l1.49.37c.47.12,1.18.42,1.52.57.38-.1.97-.22,1.46-.28l.55-.07c.15-.02.34.25.4.42Z"/>
  <path d="M216.96,46.41c.14.04-.57-.49-.77-.35-.24.17-.53.71-.77,1.2-.06.2-.52-.34-.48-.58.04-.21.29-.45.47-.67.09-.11.01-.6.15-.63l.7-.12-.72-.41c-.13-.07-.35-.52-.22-.59l.72-.37c.07-.04-.07.45-.01.5l.51.46-.05-1.13c.07-.11.32-.38.24-.46l-.34-.33c.61-.06,1.37-.11,1.74-.3l.66-.32c.11-.05.04.36.05.49.62-.19,1.45-.03,1.55.48s.17.79.26,1.09l-1.32.14c.66,1.16.09,1.91-.52,2.46l-.48-.44c-.09-.08-.25.48-.33.63l-1.94.26.9-1Z"/>
  <path d="M223.89,37.1l-1.52-.13-1.59-1.34.45-.86c.09-.18-.4-.67-.48-.66l-.02.7c0,.11-.23.37-.32.3l-.61-.48c-.09-.07-.23.51-.13.57.16.08-.69.18-.67.02.04-.4.29-1.07.48-1.49.04-.16,0-.47.11-.53l.63-.29-.72-.64c-.22-.2.06-1.12.25-1.21l3.75,1.36c-.33.23-.8.93-.99,1.42l.6.03c.12,0,.51-.05.46.05l-.36.69-1.36-.98-.27.29c.57.49,1.23,1.15,1.47,1.6.06.11-.39.49-.48.58-.12.12.27.43.43.43.32,0,.26-.28.85.56Z"/>
  <path d="M125.18,286.46l-1.39.03c-.16-3.39.28-6.47.7-9.82l.36-2.88.76,2.45c-.06,3.89-.92,5.42-.44,10.22Z"/>
  <path d="M247.12,29.9l1.67,1.87c.05.06.01.45-.06.44-1.19-.27-.95-1.1-3.03-2.34-5.87-3.48-3.41-2.5-9.74-4.2-.8-.22-1.95-.38-2.48-.68-.12-.07-.45-.06-.6-.07-.18,0-.27-.5-.22-.6h2.62c.12,0,.7.34.64.44l-.36.59c.65-.22,1.17-.59,1.54-.54.53.07,1.13.6,1.55,1.1l.58-.54c.18-.17.86.06.97.28l.39.77c.11.23.98-.15,1.25-.1.86.15,1.94,1,2.77,1.48,1,.58,1.67,1.15,2.52,2.1Z"/>
  <path d="M228.28,56.79c-.12-1.16,1.4-3.57,1.87-2.71.41.76-.51,2.17-1.59,2.39.64.96,2.03,1.16,3.03,1.45l1.13.32c.85.24,3.71-2.02,4.37-2.62.28-.26.15-1.16.05-1.58l.38-.19c.13-.06-.02-.5-.17-.49l-.9.06.67-1.49c1.02,1.86,1.07-.46,1.5,3.12.02.19-.53.52-.63.72-.73,1.41-2.31,3.43-4.14,3.17l-2.99-.42c-.79-.11-1.96-1.09-2.57-1.74Z"/>
  <path d="M224.89,43.98l.83-2.31-1.11-.04c-.09,0-.32.27-.24.32l.67.41c-.04.06-.09.13-.14.2-.08.09-.5-.08-.58-.17l-.5-.6c-.13-.15-.53-.09-.9-.19.89-.55,1.33-.75,1.67-1.81l1.14.42-.41-.82c-.1-.19-.03-.59.14-.96l1.18,1.14c-.2.3-.42.64-.45.82-.08.47,1.62.28,1.63.27l.67-.44c-.15.27-.66.95-.95,1.33l.57,1.31c-.61.12-.84.02-.95.18l-.64.91-.4-1.3-1.24,1.32Z"/>
  <path d="M194.56,155.52c.22.25-.56.91-.86.77-.47-.22-.6-.51-.68-.8l-.56-1.92c-.98.36-2.31.88-3.55.72,2.48-1.88,3.36-1.55,6.28-1.43l.23.62c.04.11.26-.08.44-.18.1-.06-.1-.16-.45-.4-.06,0,.24-.46.36-.4l.58.27c.17.08-.14.43-.32.7l-.15,2.69-1.07-1.07,1.04-.48c-.51-.32-1.09-.56-1.32-.32-.31.32-.28.92.02,1.25Z"/>
  <path d="M172.62,201.9c-.42.02-.32-1.14-.31-1.59.03-1.41-.02-2.9-.1-4.38l-.03-.57c0-.16.44-.17.78-.27,1.16,1.03,2.48,6.66-.35,6.8Z"/>
  <path d="M202.57,157.17c-.78.49-1.49-1.07-1.93-1.56l-1.41-1.61-.35.05c-.09.01-.14-.29-.07-.35l.39-.29c.51-.38,1.12-.73,1.66-.89l.09.95c.02.21.58.35.96.46l.42,1.24c1.08-.07,1.77-.23,2.67.48l-2.42,1.53Z"/>
  <path d="M203.28,61.09c-.96.98-4.22,2.46-4.25,1.88l-.02-.44c4.11-2.91,1.7.12,4.95-3.89l1.67-2.06.6.98c-.61.25-.89.77-.86,1.4l-2.08,2.13Z"/>
  <path d="M218.45,80.71c-1.14.96-2.28,1.11-3.38.19l1.1-.18c.55-.09,1.53-.68,1.97-1.05.4-1.28.67-2.52.11-3.61-.51-1-1.62-1.71-2.91-2.1l1.3-.46c.4.34.92.72,1.16.98l1.02,1.16c.39.44,1.33,3.62-.37,5.06Z"/>
  <path d="M200.95,52.53s-.25.2-.35.28c-.35.28-.94-.61-1.12-.49l-.38.25-2.07-.79.72.03c.13,0,.27-.08.52-.21-.66-.63-1.05-1.08-1.42-2l1.71.15c.31.94.85,1.23,1.55,1.36.23.25.7.76.88.88l.98-.04c.29-.01.68.71.68,1.05,0,.23-.62.5-.82.38-.23-.15-.6-.53-.88-.85Z"/>
  <path d="M215.51,35.88c-.62,1.58-2.12,1.37-1.92,1.94l.31.86-1.59-.21s.26-.42.38-.62l-.87-.71c-.23-.19-.06-1.04.12-1.44l.44.96c.58-.9,1.16-1.69,2.17-1.79l-.39.53c-.07.09.1.29.18.42s.4-.3.46-.45c.04-.11.08-.58.17-.55l.64.27c.08.03.34.25.41.31.06.06.03.11-.05.16-.07.05-.43.24-.46.32Z"/>
  <path d="M177.79,94.9c-.15.99.88,2.16,1.39,3.05-1.85-.27-1.6-2.45-2.48-3.47-1.12-1.29-3.4-1.62-3.49-4.02,1.83,1.03,1.02,2.5,4.79,3.05l-.21,1.4Z"/>
  <path d="M212.34,157.32l-2.4-1.43c-.44-.26-1.5-.59-1.99-.68l-2.01.09,1.06-1.49-.11.78c3.15-.35,4.93,1.02,7.01,2.9-.51.25-.77.39-.94.44s-.45-.53-.61-.63Z"/>
  <path d="M214.78,65.81l-.38-.79.86-.91c.18-.19-.41-.79-.49-1.03.77-.55,1.26-1.21,1.45-2.08l.4-1.81.72-.56c.17-.13.07-.53-.34-.81l.48-1.29.66,2.2-.7.38c-.18.1.18.77.22,1l-1.19,1.55c-1.31,1.7.7,2.66-1.69,4.15Z"/>
  <path d="M195.84,52.85c-.51-.57-1.63-.24-1.77-.46l-.35-.6c-.14-.24-.51-.97-.37-1.18l1.47-.55c.23-.09.72-.23.92-.18.42.09,1.11,1.83.8,2.18l-.72.8Z"/>
  <path d="M201.11,92.11c.95-.9-.02-.97,1.19-3.11l-.39-.53c-.08-.1.26-.24.66-.51.23-.02.14-.1-.49-.35.36-1.54,1.32-1.42,1.09-3.1l-.51.37c-.07.05-.3.08-.27,0l.27-.66c.23-.56.59-1.1.93-1.43-.08-.08-.39-.33-.33-.44l.39-.77c.1-.47.05-.47-.42.07l.13-1.95.35-.25c.07-.05-.04-.38-.12-.36l-.63.19.74-.91-.62-.37c-.11-.07-.07-.4-.03-.54l.17-.59c.03-.12-.32-.08-.45-.03l-.53.2c.63-.93.22-2.49-.31-3.06-.07-.08.17-.33.12-.42l-.36-.66s.7-.01.79.17l.48.91c.18.34.31.79.37,1.24l.54.41c.14.1-.14.67-.1.85l.46,1.82c.23.91.15,2.4-.13,3.72-.21.04.08-.02.14-.03.1-.02.31.37.26.49l-.85,2.23.44-.21c.16-.08.45-.22.31-.15-.29.82-.5,1.36-.69,2.03l-.52,1.87-.85,2.23c.41.91.07.51,0,2.81l-.03.8c0,.22-.67.23-.95.19l.28-1.79-1.4.29c-.15.03-.04-.51.07-.71.08-.14.27-.15.8.02Z"/>
  <path d="M203.52,49.54c-.94.11-2.47.61-3.39.18l-2.28-1.07,1.16-.74c.21-.14.68.41.87.47.28-.16,3.94-.15,3.63,1.16Z"/>
  <path d="M229.53,47.85c.12,0-.49-.13-.57,0l-.44.68-.39.59c-.08.12-.38-.32-.46-.45l-.32-.55c-.08-.14.14-.46.14-.61l-.24-1.02.53.44c.25.21-.13-.03,1.03-.62.11-.05.08-.28.1-.6l1.37.19-1.52,1.04c.32.22,1.13.58,1.59.52.4-.05.94-.53,1.28-.83.01.73-.69.94-1.2,1.19l.04.81c0,.18-.7.22-.88.22h-.62c-.1-.01-.25-.3-.17-.37l.74-.62Z"/>
  <path d="M212.65,184.71l-1.92-.96,1.04-1.23c-.5.13-.79.23-1.28.43l-.38-.93,1.95-.03c.05,0,1.6.1,2.04.36.32.19-.46,1.65-.68,1.51l-.82-.5s-.35.21-.3.33l.34,1.01Z"/>
  <path d="M241.92,63.56l-.09.54c-.02.12-.42.25-.42.13l-.03-.84c-.42-.2-1.62-.16-1.91.34-.39.68-.34,1.38-.17,2.18-.45.08-1.13-.45-1.25-.95l.6-.05c.14-.01.38-.59.23-.62-.15-.03-.18-.05-.63-.21.1-.61.32-1.32.66-1.94.51.39,1.13.43,1.86.18-.39.6,1.5.25,1.12.65l.61-.67c-.1.29-.32.73-.59,1.26Z"/>
  <path d="M244.56,71.69c.04.99-.08,2.41-.75,2.56-.62.14-.91.22-1.42.6l-2.26-1c-.68-.3-1.1-1.93-.73-2.63.22.59.43,1.43.65,1.87s2.04.98,2.94.64c.84-.32.77-1.81.95-1.86l.62-.18Z"/>
  <path d="M248.47,75.76c-.06.22-.59.82-.53.79.64.3.82.42.65.9-.09.25-.63.54-.76.3-.58-1.12.41-2.3.22-3.32l-.49-2.6c-.11-.57-.39-1.33.12-1.68.75.81.45,1.68.27,2.71l.32-.32c.06-.06.38-.28.37-.19l-.07.63c-.01.1-.07.4-.09.53-.01.08.12.07.18.02l.48-.34-.67,2.57Z"/>
  <path d="M198.56,177.42c-1.18-.1-2.03-.26-3.1-.61l-.93-1.44c.99-.45,4.23.49,4.03,2.05Z"/>
  <path d="M180.9,93.78c-.11.65-1.67.16-2.07-.26s-.73-1.81.02-2.09c.87-.33,2.25,1.06,2.04,2.35Z"/>
  <path d="M188.62,49.8c.15,0-.36.02-.53.04-.15.01-.2-.54-.32-.62l-.94-.64c-.21-.14-.09-.69-.1-1.13,0-.38.89-.71,1.31-.69.38.02.84.57,1.04,1.09.14.36-.14.81-.7,1.44-.03-.07.04.1.23.52Z"/>
  <path d="M170.96,95.2c-1.19,1.79-3.11,3.04-2.15,1.89.89-1.07,1.77-4.04,3.27-4.89.19-.11.43.68.31.86l-1.42,2.14Z"/>
  <path d="M240,61.39l.66-1.2-.95.25-.58-2.57c.2-.04.82.1,1.12.27.44.24.37,1.04.28,1.47l.58.54c.12.11-.24.51-.29.62l.33.68c.08.17-.25.49-.4.61-.18.14-.88-.44-.75-.67Z"/>
  <path d="M178.79,178.99c-.08.19-.45.47-.61.5-.7.14-.13-2.93.62-3.85l1.01,1.03-1.02,2.33Z"/>
  <path d="M147.53,178.1c.2.69-.89,1.37-1.51,1.3-.38-.04-.84-.78-.84-1.13s.45-1.09.84-1.15c.46-.07,1.35.47,1.5.98Z"/>
  <path d="M253.64,80.16c-.08.17-.44.54-.57.39l-.53-.62c-.15-.18.45-.66.65-.84.23-.22.03-.96.05-1.32l.06-1.81-.32,1.08-.47-2.43c-.16-.81-.11-1.54-.63-2.29l.56-1.52.69,2.6.33,1.24c.06.23.07.83.09,1.09.38.58.41,1.3-.12,1.92l.69.58-.47,1.95Z"/>
  <path d="M244.18,60.24l.52.53.73-1.74-1.11-.09,1.59-.61c-.25,1.83-.72,3.16-1.53,4.61l.1.52c.02.1-.27.19-.38.21-.79.17.24-2.11.06-3.42Z"/>
  <path d="M129.65,286.31c.12.12-.84.2-.78.1l-.25-3.65.17-2.78c.33.36.29.65.34,1.17l.18,1.87.34,3.29Z"/>
  <path d="M183.39,107.3c-.38-2.23.35-.41.01-3.45-.17-1.57-.86-4.64-.82-4.82.19-.89,1.11,1.58,1.17,2.94.08,1.89.12,3.59-.36,5.34Z"/>
  <path d="M205.33,152.8l-2.1-1.18c-.18-.1-.83.05-.92-.14l-.34-.72,1.45-.28c.11-.02.52.17.54.28l.11.59c.7.09,1.49.36,2,.69l-.74.75Z"/>
  <path d="M227.09,29.58l1.95.76c.07.03-.34.52-.29.57.08.08-.15-.13-.49-.44-.32-.13-.87.23-1.64.83-.25-.56-.26-1.67-.04-2.37l.56.19c.08.03.11-.27.06-.33l-.47-.49c.05-.1.91.13,1.32.28l.69-.92,1.92.06-1.8.61,1.33.73-1.74.35-.24-.73-1.09.89Z"/>
  <path d="M171.54,164.27c-.08.74-.94,1.49-1.43,1.1l.47-.31c.07-.05-.02-.36-.1-.34l-.7.12c1.66-2.28.32-1.1.81-2.86.02-.07.29-.15.3-.07v.66s.9-.54.9-.54l-.25,2.23Z"/>
  <path d="M261.39,72.54l-1.36-.27,1.01-.27-.08-1.59.5.48c.07.06.17.12.21.05l.19-.43c.06-.13.3-.58.4-.48l.43.44c.1.1-.3.35-.43.43l-.95.6c1.32,1.07.27,2.68-.75,3.53l.82-2.49Z"/>
  <path d="M214.96,39.9l-.12.96-1.97-.6c-.18-.05-.19-1.02,0-.99l.86.13c.17.03.32-.71.48-.64l.74.29c.13.05.37.24.5.36.11.11,0,.19-.5.49Z"/>
  <path d="M179.98,104.45c-.09-3.65,1.09-.69.83-5.38l.02-.63c0-.18.6-.2.54-.08l-.11,2.79c-.03.63-.63,1.88-.88,2.46-.05.11.12.38.17.49.06.14-.51.43-.58.34Z"/>
  <path d="M209.27,56.4c-.88.29-.14.28-2.05-1.08l-1.29,1.14c-.07-.18-.12-.69,0-.78l.64-.48c.3-.22.83-.36,1.3-.38.15-.03.48-.32.59-.23l.53.47c.14.12-.33.57-.39.81-.03.11.37.08.48.1.15.02.34.39.19.43Z"/>
  <path d="M243.89,71.6l-.48-4.59c1.21,1.31,1.6,3.01.48,4.59Z"/>
  <path d="M230.06,53.04l-.61.73c-.12.14-.75-.45-.66-.61.32-.58,1.03-1.71,1.52-2.45.62.82.31,1.67-.25,2.33Z"/>
  <path d="M168.75,156.03c-.87.5-1.43,1.59-2.66,1.33l2.76-2.07,2.58.78-2.68-.04Z"/>
  <path d="M203.28,171.96c-.75.78,1.21.19,1.48.85.11.27-.25.91-.51.8-.58-.25-1.15-.3-1.36-.59-.26-.37-.09-1.35.17-1.67l.32-.39c.06-.07.27.04.3.13s.02.44-.04.5l-.35.37Z"/>
  <path d="M199.6,41.96c-.04-.15-.07-.92.07-.88s.58.14.72.09l1.89-.65c-.26,1.55-1.83,1.82-2.68,1.43Z"/>
  <path d="M132.8,123.52l-.1,1.21c-.4-.28-.75-.86-.87-1.35-.09-.38.3-1.25.69-1.32.19-.03.88.2.87.4,0,.25-.27.64-.6,1.06Z"/>
  <path d="M239.41,135.68c.08-.05.26.54.16.55s-.42.15-.47.24l-.58.9c-.17.26-.95.14-1.2-.05s-.24-.83-.17-1.58l.97,1.03c.29-.27.98-.88,1.31-1.09Z"/>
  <path d="M176.41,68.08l-1.39.29,1.52-1.59,1.4.85-.66.74c-.14.16-.66-.34-.87-.29Z"/>
  <path d="M179.95,156.72c-.76,1.2-.84-.45-2.69.77l-2.68-.64c.79-.17,1.71-.08,2.51-.09l2.85-.04Z"/>
  <path d="M212.48,33.23c-.04.09-.62.45-.83.36l-.95-.44.9-.62c.15-.1,0-.57-.02-.74l.88-.5.27,1.1-.74.3c-.12.05.29.35.5.54Z"/>
  <path d="M215.58,68.61l-.9,1.76-.02-1.33c-.01-.87-.48-1.77.64-2.53l-.28,1.85.55.25Z"/>
  <path d="M231.36,28.82l-1.1.03,1-1.27,1.13.59c.15.08-.11.87-.28.83l-.75-.17Z"/>
  <path d="M219.03,26.61l-.69-.03c-.1,0-.25-.31-.16-.36l.48-.32c.26-.17.38-.62.46-1.12.01-.11.77.4.66.61l-.45.9.38.43c.09.11-.44.3-.57.39-.11.08-.09-.47-.12-.5Z"/>
  <path d="M144.19,146.3c-.18.11-.69.27-1.11.32-.35.04-.96-.5-1.04-.84.56-.59,1.33-.5,2.15.52Z"/>
  <path d="M218.81,48.54l.07-1.19-.86,1.13.25-1.2c.88-.16,1.69.36,2.08,1.25l-1.54.02Z"/>
  <path class="cls-1" d="M135.35,209.54c.8-1.91-.18-1.03-.41-3.41-.07-.32-.75-.12-1.38-.06l1.19-.98.25-1.76c.17-.02.62.18.72,0l.51-.9c.5-.9,2.07-.64,2.82.07l1.51,1.45c-2.06,2.19-1.26,3.68-3.94,6.39-.06.06-.25.33-.31.39s-.27,0-.29-.09l-.12-.51.18-.26c.05-.08-.06-.32-.15-.32h-.58ZM137.85,202.72c-.32.4-.87,1.1-.79,1.55.12.61.42,1.34.83,1.66.49-.87,1.2-3.06-.05-3.21Z"/>
  <path class="cls-1" d="M135.28,185.7c.02.18-3,.13-3.64-.09l1.32-1.4c-.2.05-.36.13-.87.38l-.53-1.35.89.58c.16.1.42-.59.41-.64-.31,0-.64.07-.58-.04.06-.12.26-.5.34-.6l1.01-1.3c.13.11.47.6.67.55l.85-.21-.1.57c.82.44,1.45.9,2.11,1.51l1.01.93-1.28-.34-1.67.8.06.67Z"/>
  <path class="cls-1" d="M141.66,175.33c-.16-.21.41-.82.71-1.04l-1.79.26c.41-1.16,1.58-.73,2.2-1.04l2.38-1.21.32.98c.06.18-.44.53-.6.43s-.52-.36-.51-.35c.52-.24-3.7,3.28-2.71,1.97Z"/>
  <path class="cls-1" d="M146.13,175.15l1.44-2.24.09-.51c.03-.16.52-.22.78-.22.22,0,.26.84.08,1.01l-.71.64-.34,1.06c-.1.32-.8.41-1.34.27Z"/>
  <path class="cls-1" d="M139.41,181.27c.13.34.26.6.26.8,0,.24-.9.56-.92.31-.08-.94-.31-1.73-.63-2.61,1.14,1.1,2.17.57,1.72,1.04l-.43.45Z"/>
  <path class="cls-1" d="M136.59,227.55l-1.41,1.63c-.06-.15-.18-.44-.26-.6-.39-.76-1.79,1.17-2.96,1.09l1-1.54c.1-.16-.19-.67-.29-.73l.94-.7c.56.21.69.3.03.28l-.44,1.56c-.09,0,.36.02.53.03.2.01.31-.46.44-.72l.24-.45c.04-.08.17-.06.2.03l.17.68,1.81-.55Z"/>
  <path class="cls-1" d="M144.49,199.03l1,1.55c-.4.19-1,.46-1.31.56-.29.09-.81-.49-.86-.9l-1.2-.21.87-.66c-.58-.37-1.05-1.09-.96-1.54.11-.6.88.31.87.32,0,.01-.41.29-.41.29.68.35,1.15.92,1.07,1.6.09.05.8.16.82-.02l.11-.99Z"/>
  <path class="cls-1" d="M137.76,199.61l-.98-1.41,1.78-.83-.37,1.58.34.28c.06.04-.04.29-.11.3l-.66.08Z"/>
  <path class="cls-1" d="M128.69,189.58l-1.69.4-.35-1.12c.44.02,1.02-.14,1.33-.09l1.55.28c-.22.16-.64.48-.84.53Z"/>
  <path class="cls-1" d="M134.34,238.29c-.3.1-.89.53-1.08.38l-.8-.67,1.31-.6c.06.18.22.72.23.7-.02.11.94-.69.9-.37,0,.08-.02.49,0,.55.03.11-.3.02-.57.01Z"/>
  <path class="cls-1" d="M268.72,95.78c-4.41,1.84-4.5-1.17-6.57.29l.46-.85c-1.97.02-1.16-1.65-2.84-1.86l.28-.9c.07-.22-.6-.62-.69-.85-.78-2.01.93-3.73-.28-4.52l1.19-1.16c1.31-1.28,1.9-1.96,3.55-2.44s3.89-.3,5.48.43c1.27.58,2.6,3.07,3.4,3.16-.03.2-.22.71-.07.81l.6.39-.38.36c-.11.1-.03.55,0,.54l.66-.46c.1-.07.14.12.15.4,0,.13.06.11-.5.3-1.03.36-.46,4.71-4.45,6.38ZM267.96,89.77v-1.56c-.36-.36-1.29-1.01-1.79-1-.4,0-1.09.57-1.17.91-.08.36.16,1.06.39,1.41.6.9,1.93.84,2.56.25Z"/>
  <path class="cls-1" d="M236.25,121.04c-.43-.5.11-1.58.07-2.08-.12-1.57.14-2.5,1.11-4.07.1-3.23.13-1.14,1.23-4.77.1-.32.23-.95.48-.96l1.12-.02c1.06-.02,1.77-.02,3.01.03.44-.67.08-2.5.22-3.99.11-1.16.09-1.93-.94-2.47l.51-.47c.08-.07.38-.27.39-.17l.07,1.02,5.87.03c.21,1.2.46,5.26-.11,6.13l-5.61-.03-.15,6.03-5.91.04-.12,5.12c0,.23-.13.68-.22.89-.08.2-.75.04-1.01-.26Z"/>
  <path class="cls-1" d="M252.28,151.33c-1.23-.05-1.73.99-1.78,1.93-.13,0-.4,0-.46-.08s-.22-.38-.3-.45l-1.51-1.4c-.03-.05-.1.49-.28.44l-1.01-.27c-.69-.18-1.28-.38-1.95-.75l-.08,1.54-.67-1.71-1.89-1.8c.67-.03,1.04,0,1.25-.13s.42-.88.21-.99l-2.1.23-.16-.79c-.03-.14-.38-.21-.54-.28,1.18-3.4.27-3.3.72-5.06l.16-.64c.03-.14.52-.11.7-.12.58-.59,1.55-1.23,2.45-.92l-.84-1.37c-.11-.18-.58-.69-.75-.58l-.86.57-.48-.67c-.12-.17-.51-.06-1.05-.07-.15-.37.36-1.5,1.01-1.68.5-.14,1.26.69,1.63,1.08,3.48,3.62,1.91,2.04,3.09,5.21.25.68.07,1.59-.23,2.13.09.2.34.83.34,1.11-.09,2.97,3.02,2.04,5.04,3.29,4.34,2.67,2.69,2.56,4.4,4.67.14.17-.35.32-.57.36s-.22-.49-.23-.77c-.02-.31-.89-.64-1.18-.5s-.71.56-.9.81c.04.05.28.35.34.39.1.07-.16.28-.27.45l-.32.51c-.49-.25-1.14-.31-2.04-.21v-.56c-.02-.16-.47-.42-.6-.59-.24-.32.87-1.14,1.13-.82.14.17-.33.81-.05.67.07-.03.42-.14.49-.13l.6.09c.13.02.3-.23.39-.35.11-.13-.53-.39-.59-.43-.07-.43-.19-1.13-.26-1.36ZM245.42,147.43l-.66,1.19,1.44-.19c.83-1.98-1.7-1.64-1.73-3.31-.21.24-.71.64-1.07.79l-.67.28c-.09.04.16.29.24.33l.43.22c.11.06-.02.43-.08.54s.66.04.73,0c-.04-.2-.28-.71-.1-.69.2.02.92-.06.87.11l-.25.84.85-.12ZM248.58,149.96c-.21.12-.45.3-.49.21l-.21-.47c-.13-.28-.34-.92-.58-.84l-.92.32c-.23.08-.69.68-.53.86.55.64,1.71,1.17,2.01.97l.96-.66.4-.28c.09-.06-.05-.46-.14-.41l-.51.3Z"/>
  <path class="cls-1" d="M250.72,122.4l-1.18.47-.08-1.54c-.93.08-1.78.12-2.7.14l-3.26.04-.05,1.75-2.78.56c-.98.2-1.95.21-3.06.28-.38-.89-.19-2.16.28-2.75l2.39.08,3.2.08v-3.62s.02-2.58.02-2.58l5.99-.02.02-5.35c0-.14.13-.7.27-.7h.77s4.91.09,4.91.09l.06,2.34-.03,3.54,2.82.21c-.26,1.4-1.08.93-2.78,2.91l-.07-3.04-5.85.06-.03,5.7c.05.55,1.5.49,2.13.12l.33,1.27.59.26c.14.06,0,.69-.14.65s-.56-.17-.69-.26l-1.04-.69Z"/>
  <path class="cls-1" d="M274.64,127.58l.13-1.1,1.84-1.31-.16-.68c-.04-.18.49-.33.64-.48,1.27-1.24,1.85-2.73,1.99-2.56.09.11.42.52.42.67l-.04,3.59c0,.7-.03,1.45-.16,1.98l-4.65-.12Z"/>
  <path class="cls-1" d="M262.2,111.6c-.11.15-.37.71-.45.6-.1-.15-.35-.62-.35-.82l.04-2.17c-.92.08-1.54.13-2.31.07l-3.65-.28v-2.63c1.88.55,3.02.96,4.61,1.2.36.05.99.02,1.21.18.26.2.31.81.37,1.54l2.29.08-1.76,2.23Z"/>
  <path class="cls-1" d="M233.27,162.43l-.41.5c.76.33,1.66,1.16,1.24,1.94-.45.49-.73-.57-.97-.89l-1.55-2.09c-.16-.21-.59-.74-.46-.93s.49-.55.68-.75l-.18-2.01,4.75-1.57c-.7.71-1.42,1.09-2.26,1.5l-.49,1.38-.82-.21c-.46-.12-.52,1.51-.28,1.47l.75-.13c-.02,1.07.65,1.64,1.73,2.17-.54.12-1.24-.03-1.74-.39Z"/>
  <path class="cls-1" d="M278.87,82.01c-.03-.77-.04-1.05-.12-.57-.52.28-.87.51-1.07.42-.23-.11-.41-.59-.46-.88l-.35-1.15.9.22c.18.04.53-.56.71-.59l2.33-.38-.74.87,1,.5c-.68.73-1.38,1.21-2.21,1.55Z"/>
  <path class="cls-1" d="M271.06,165.49l-1.17.49,1.81-1.88-.42-.32c-.06-.04.24-.28.32-.32l1.78-.75-1.61,2.13.54.22c.17.07.24.57.07.65l-.88.4.63.53c.13.11-.43.49-.54.5-.32-.43-.55-1.2-.52-1.63Z"/>
  <path class="cls-1" d="M225.47,156.38l1.02-1.27-1.29.54c.3-.74.35-1.04.07-1.74l-.75,1.15c-.14-.72-.1-1.49.1-1.97l2.62,2.03-.96,1.3c.18.24.33.34.29.44-.05.15-.18.57-.18.57l-.91-1.05Z"/>
  <path class="cls-1" d="M274.63,146.96c.68-.41,1.49-.37,2.57-.16l-.89-.76c.47-.41,1.06-.15,1.22.28.1.28-.15.75-.47,1.09-.2.21-.75-.12-1.11-.27-.06.04-.5.36-.48.35s-.26-.17-.84-.53Z"/>
  <path class="cls-1" d="M225.05,152.2c-.08.05-.28.22-.34.27-.09.08-.51-.18-.54-.3-.1-.48.27-1.38.6-1.74l.76,1.22c.07.11.55.38.46.47l-.41.42c-.09.09-.41-.41-.52-.33Z"/>
  <polygon class="cls-1" points="236.8 153.92 235.73 155.79 235.01 154.02 235.41 153.58 236.8 153.92"/>
  <path class="cls-1" d="M254.67,89.36l.59-1.21-.5.24-.39.19.25-1.2c.05-.23,1.01-.2.88,0l.25,1.55-1.09.43Z"/>
  <path class="cls-1" d="M255.68,122.16l-.98.94-.04-.94c0-.12-.27-.07-.46-.02l-.63.16c.73-.8,1.36-1.34,2.4-1.94l-1.13,1.46.85.33Z"/>
  <path class="cls-1" d="M245.88,125.08c1.14-.31-3.95,4.4-3.38,2.93l3.38-2.93Z"/>
  <path class="cls-1" d="M275.22,100.12l-1.16-.98c.3-.23.73-.46.71-.65l-.1-.98c.16-.07.72-.3.53-.22l.1,1.46-.09,1.37Z"/>
  <path class="cls-1" d="M258.02,102.32c-.5.29-1.22.67-1.78.89.56-.68.88-.98,1.01-1.59l.09-.73c.02-.16.61-.06.73.05s.19.55.04.6l-.65.2c-.09.03.16.23.55.59Z"/>
  <path class="cls-1" d="M258.09,227.08c-2.23,1.37-2.99,1.59-5.36,1.59l-3.14-1.29c.43-.34.41-.08,1.06.09l-1.04-1.94c-.07-.12.25-.64.14-.74l-.56-.5-.36-1.16c.62-2.04.25-6.04-.15-8.28l-.37-2.05.29-1.46c3.52,3.93,5.56,2.85,9.05,3.95,1.34.43,2.58.33,3.97.19l2.35.71c1.53.46,5.1,3.49,6.2,5.52l-2.36.35c-3.48,1.29-6.57,3.1-9.71,5.03Z"/>
  <path d="M263.97,246.89c-1.89-.1-2.5-.67-3.47-1.64-1.24-1.24-2.03-2.61-1.66-4.59.21-1.12,1.37-1.73,2.27-2.04.98-.35,2.71-.09,3.18,1.02.62,1.47,1.14,3.11,1.51,4.68.3,1.25-.61,2.64-1.83,2.57Z"/>
  <path d="M274.1,247.81c-2.57-2.42-.12-4.99,1.07-6.69.7-1.01,1.25-1.77,2.75-1.34s2.21,1.87,2.29,3.49c.11,2.18-3.36,5.01-6.1,4.55Z"/>
  <path d="M273.25,237.57l-2.02-.28c-2.13-.29-3.33.01-3.95-.54-.24-.21-.27-1.06-.08-1.32,1.15-1.52,3.38-.68,3.26-2.32-.04-.53-.68-1.28-1.34-1.21-.88.09-1.54.56-2.4,1.11l-.39-.99c-.08-.22.36-.79.61-.78l2.47.09c.86.03,1.49.47,2.17,1.05l2.72.1c.26,0,.79.36.83.62.05.32-.43,1.02-.67.83-.5-.4-1.19-.76-1.7-.91-.41-.12-1.2.47-1.45.96,1.11,1.03,2.27,1.81,1.91,3.58Z"/>
  <path class="cls-1" d="M167.85,189.53l-.15-.88c-.08-.49-1.55.32-3.02-1.36-.21.11-1.2-.07-1.07-.34.52-1.03,1.49-1.64,2.68-2.23l-.3-.63,1.9-.14.43-1c.11-.25.75.22.97.28.48-.27,1.47-.81,1.77-.65.05.55.04,1.1-.18,1.13l-1.35.19.6.3c.19.09.21.56.28.93l.31-.29c.08-.08.35-.17.41-.06.11.21.4.58.37.74-.04.21-.26.7-.27.91,0,.32.03,1.94-.59,2.28-.23.12-.81.12-1.12.1l-1.05-.06c-.26-.01-.44.5-.62.77Z"/>
  <path class="cls-1" d="M245.14,187.95l.11,1.3-.73-.02c.18-1.1.6-2.17,1.55-2.46.86,3.97-.94,3.67-.91,3.56s.15-.38.23-.49l.51-.75c.14-.21-.24-.64-.76-1.13Z"/>
  <path class="cls-1" d="M193.17,162.39l.77-1c-.79.27-1.27.82-1.68.23l.71-.33c.12-.05.05-.41-.08-.4l-.64.02c-.98.04,1.09-.62.88-1.97l2.96,1.63c.15.08.33.67.48.71l.74.17-.38.91c-.1.25-.59-.02-.86-.06-.86.18-2.01.16-2.89.08Z"/>
  <path class="cls-1" d="M183.54,176.64l-.74-.76c.33-.84.66-1.54,1.16-2.35l1.2,1.77-1.62,1.35Z"/>
  <path class="cls-1" d="M211.52,195.48c-.73.14-2.09-.68-2.22-1.17l1-.03c.46-.44,1.75-.66,1.88.12.05.31-.35,1.03-.65,1.09Z"/>
  <path d="M137.85,202.72c1.25.16.54,2.34.05,3.21-.42-.31-.72-1.05-.83-1.66-.09-.46.47-1.15.79-1.55Z"/>
  <path d="M267.96,89.77c-.63.59-1.96.65-2.56-.25-.23-.35-.48-1.05-.39-1.41s.77-.9,1.17-.91c.5,0,1.43.65,1.78,1v1.56Z"/>
  <path d="M245.42,147.43l-.85.12.25-.84c.05-.17-.67-.09-.87-.11-.18-.02.06.49.1.69-.07.03-.79.1-.73,0s.2-.49.08-.54l-.43-.22c-.08-.04-.33-.3-.24-.33l.67-.28c.36-.15.86-.55,1.07-.79.03,1.67,2.56,1.34,1.73,3.31l-1.44.19.66-1.19Z"/>
  <path d="M248.58,149.96l.51-.3c.09-.05.22.35.14.41l-.4.28-.96.66c-.3.21-1.46-.33-2.01-.97-.16-.18.31-.78.53-.86l.92-.32c.24-.08.45.55.58.84l.21.47c.04.09.28-.09.49-.21Z"/>
</svg>