<?xml version="1.0" encoding="UTF-8"?>
<svg id="Layer_2" data-name="Layer 2" xmlns="http://www.w3.org/2000/svg" viewBox="0 0 432 288">
  <defs>
    <style>
      .cls-1 {
        fill: #fff;
      }
    </style>
  </defs>
  <path class="cls-1" d="M108.72,17.28h207.84M247.63,61.12l1.97-2.4c-.06-.88-.28-2.03-.33-3.02l-.14-2.84c-.05-1.01-.13-1.95.04-2.95-.76-2.6.21-2.06-.72-3.92l.35-1.77c-1.12-2.83.23-1.71-.86-4.96-.23-.68.23-2.04.15-2.73-2.9-7,1.12-6.87-1.17-10.88-.67-1.18-1.98-1.73-3.46-2.08-2.66-.63-5.27.83-6.54.83h-7.25c-.91,0-2.17-.42-3.06-.67s-1.75-.31-2.7-.44l-5.68-.78c-.96-.13-2.13-.3-2.99,0-4.27,1.48-3.61-2.26-8.18-.77-1.03.34-1.52.93-2.12,1.79-.5.73-1.02,1.21-1.01,2.01.02.93.4,1.43.87,2.24.38.65.38,2.29-.02,2.96-.44.74.13,1.53.05,2.14l-.44,3.3c-.1.75.19,1.58.2,2.21,0,1.89-.15,3.69.08,5.59.27,2.26-1.49,4.57-.67,8.31-1.15,2.75-.11,1.83-.64,5.33.1.66.55,1.98.96,2.56,1.92,2.69,6.98,2.61,10.01,2.34l2.9-.25c.97-.08,1.78.03,2.76.13,2.16.21,4.56-.42,6.74.07,4.14.92,5.49-.19,7.43.01,1.55.16,2.89.58,4.42.09,7.04-2.24,4.24,1.1,6.77-.25l2.29-1.23ZM189.85,108.56c.18.16.84.22.92.05l.38-.86c.69-.1,1.67-.02,2.36.09.24-.99,2.21-1.8,2.37-2.59.57-2.87.89-4.81-.04-7.4-.52-1.45.53-1.43.59-5.45,0-.64-.58-1.73-.5-2.36.44-3.34-.41-4.49-.17-6.12l.31-2.18c.24-1.65.72-3.18.03-4.95-.38-.96-.2-1.92.42-2.76l-.38-3.1c-.13-1.06.55-2.34.34-3.53-.18-1.01-1.27-2.33-2.16-2.96-1.02-.73-2.71-1.32-3.89-1.13-1.25.2-2.21.46-3.44.11-2.86-.83-5.7-.89-8.63-1.13-1.6-.13-3.14-.41-4.81-.35-1.38.05-2.91.1-3.72-1.29,2.46-.16,4.72-.24,7.07-.52,1.7-.21,3.32-.11,5.02-.04.93.04,1.7-.15,2.63.33l3.2,1.65c1.07.55,2.78.21,4,.3,1.77.13,2.98-.88,3.08-2.65.03-.62.26-1.3.39-1.94l.42-1.99c-.56-.87-.72-1.73-.76-2.74l-.09-2.34c.03.85.47-6.98.68-6.51-.3-1.92-.83-3.78-.51-5.74.35-2.1-.48-3.09.38-5.34.32-.83.41-1.3.33-2.16-.1-1.01-.06-2.24-.57-3.08-1.85-3.05-.32-4.56-1.31-5.52-.68-.66-3.96-1.13-4.77,1.27-.19.56-1.65,2.33-2.45,2.87l-3.2,2.13c-1.41.94-1.73,1.92-3.49,3.64-1.16,1.14-2.18,2.27-3.22,3.51l-1.41,1.68-1.86,2.47c-.56.74-1.21,1.37-1.82,1.98l-2.66,2.66-1.75,1.34c-.49.37-1.74,2.91-5.3,3.91-2.32.65-4.08,2.81-3.55,5.31l1.7,2.38c.52.73,2.02.77,2.71,1.26l2.01,1.39c-1.05.55-2.09,1.24-3.04,1.65-4.69,2.03-1.1,1.89-5.55,3.4-.7,1.23-1.46,2.62-1.98,3.91,1.79,4.74-.52,4.28,1,7.01l-.55,1.17c.12.79.48,1.9.37,2.55-.31.81-.72,4.9-.71,5.62.03,1.72.21,4.86-.65,6.38-.55.97.12,2.04.18,3.05l.19,3.49c.04.81-.63,1.76-1.27,2.43l.61.82c.27.7.46,2.27,1.04,2.67l2.3,1.62c3.41,2.41,8.06,1.42,9.27,1.9,2.55,1.01,4.45.52,6.97.05,1.04-.19,2.7.99,3.82-.23l1.82.56c1.46-.27,2.51-.22,3.92-.07,3.09.34,4.81-1.94,7.43.41ZM285.38,64.51c1.11.12,1.97.36,2.97-.15l1.55.16c1.67-.56,3.23-2.02,3.59-3.75s.36-4.38-.72-5.79c-1.06-1.38-1.62-3.31-2.95-4.42l-2.92-2.45c-1.35-1.13.1-1.48-2.78-2.88-1.66-.81-4.42-2.82-5.61-4.06l-2.75-2.86.39-1.35c-2.15-.72-2.5-1.95-3.84-3.22l-1.5-1.42c-.91-.86-1.61-1.72-2.39-2.67-1.02-1.26-2.25-2.22-2.53-3.88l-1.25-1.17c-2.32-.38-7.79.24-8.46,3.11-.25,1.06.48,2.08.84,3.06.54,1.47.22,3.14.07,4.71l.7,1.71.1,2.74c.01.35-.57,1.14-.39,1.42l.66,1.03c.23.36,0,1.31-.05,1.8l-.36,3.36c-.13,1.26-.13,2.34-.62,3.6-.36.92-.19,1.94-.18,2.88.05,3.11,2.72,3.16,2.27,3.94l-.47.81c-.8,1.37-.11,2.69.65,3.78.83,1.2,2.25,1.1,3.63,1.38,3.99.8,2.16,0,6.25-1.32l1.88.25c1.61-.5,3.19-.56,4.84-.3,3.44.55,2.4-1.07,7.41,1.33.75.36,1.14.52,1.97.62ZM264.4,115.38c.88-1.3,2.09-1.11,3.25-1.05,1.6-.61,4.02-1.03,5.86-.73.63.1,1.07-.01,1.7-.17,6.6-1.61,8.74-.5,11.26-1.06,1.59-.35,2.53-.96,4.26-.08.81.41,2.37.4,3.43.59.88.16,2.34.68,3.1.28,2.24-1.15,2.7-3.63,2.24-5.79-.33-1.52-.61-2.88-1.03-4.4-.61-2.2-.51-3.93-1.29-7.1-.17-.71-1.01-1.64-.7-2.36.34-.78.47-1.36.2-2.16-1.82-5.58.15-2.75-.46-7.41-.43-3.29.31-3.59,0-6.45l-.27-2.42c-.08-.76-.06-1.76-.09-2.48l-2.23-1.9c-.91-.78-2.05-1.45-3.2-1.59-3.08-.37-5.68-.07-8.62.81-1.56.47-3.19.4-4.82.53l-3.57.29c-1.35.11-2.54.03-3.93-.09-1.03-.08-2.25.29-3.31.38l-2.71.23c-1.14.1-1.67-.99-4.75,1.01-1.19.77-2.05,2.6-2.05,3.99.01,2.76,1.5,4.07,1.42,7.52l.62,1.83c-1.48.82-.13,2.02-.94,4.31.39,1.23.55,2.57.43,3.95-.33,3.75.15,2,.06,5.61-.08,3.21-.67.35-.13,5.37.08.75,0,1.4-.19,2.07.29,1.54.8,1.43-.68,2.89,1.99,4.62,1.36,3.31,4.43,4.78.82.39,1.89.82,2.73.76ZM192.24,158.8c.89-.67,1.85-2.07,2.43-2.98-.56-1.48-1.24-5.12.15-6.02-.27-.95-.85-2.19-.82-3.04l.07-2.02c.09-2.64-.82-.49-.22-5.56.06-.52.28-1.22.43-1.68-1.26-4.2-.37-1.61-.09-5.26l.14-1.81c-1.24-.59-1.32-4.4-1.27-4.82.18-1.47.1-2.36-.41-3.68-.35-.9.21-2.81.63-3.69.58-1.22.53-2,.04-3.15-.29-.68-.51-1.25-1.18-1.71-1.28-.88-3.22-1.35-4.78-1.15l-1.83.23c-1.13.14-2.24.04-3.37.06-4.27.06-4.63.68-8.72-.04-1.15-.2-2.52-.16-3.74-.19l-2.19-.05c-5.15-.11-9.47.18-14.44,1.71-1.31.4-2.27.96-2.95,2.14-.45.79-.38,1.29-.4,2.28l-.06,3.34c-.03,1.58.35,3.05-.35,4.49.3.77.55,1.82.5,2.67-.27,5.17.81,1.04-.17,7.78-.04.27-.54.87-.52,1.13.19,1.86.2,2.64-.07,4.44-.44,2.94.21,3.47-.79,6.16.33.41,1.08,1.38.79,1.74-1.79,1.57-.25,2.79-1.05,3.18l-.96.47,1.32,1.22c.34,1.18,1.14,1.24,2.07,1.61,1.59.64,3,1.39,4.88.98,1.39-.3,5.59.14,7.28.43l2.93.5c1.44.25,2.85.55,4.3.21.85-.2,1.49.1,2.35.27,1.66.33,3.51-.42,5.21-.61l2.87-.32c2.06-.23,4.4-.25,6.08.83.21.13,4.54.96,5.91-.08ZM209.63,153.93c1.01.69,2.16.78,3.31,1.04l3.66.83c.17.04.56.39.68.3l.45-.34c2.1.33,4.27.15,6.42.05l5.29-.25c2.15-.1,4.13-.15,6.25-.59.99-.21,1.93-.09,2.9-.04,2.42.11,4.7.08,7.15.06l2.52-1.42c.17-.49.65-1.16.72-1.51l.47-2.34.37-2.42c.08-.52.45-1.38.65-1.87l-.81-2.84-.4-2.27c-.22-1.25.05-2.66-.2-3.97l-.24-1.25.54-1.07c.12-.24-.44-.83-.39-1.13.14-.95.33-2.61.37-3.65l.11-2.55c.07-1.69,1.53-3.12,1.72-4.83.1-.96-.25-2.58-.77-3.42-.64-1.03-2.25-1.55-3.38-1.73-3.28-.5-.61-.57-5.33,0-2.12.25-3.21,1.48-4.22,1.19-1.2-.35-1.58.42-2.34.71-2.19.84-4.61-.43-6.84-.22l-6.21.57-2.55.31c-1.01.12-2.02-.01-3.05-.1l-3.58-.31c-.92-.08-2.13.1-2.71-.66-1.57-2.06-4.49-2-6.16-.59-.4.34-.91.83-1.09,1.26l-1.04,2.59c-.46,1.14-.05,2.01.06,3.18.17,1.81-.62,4.41-.7,6.91-.02.51-.3,4.53-.32,4.64-.22,1.04-.57,1.98-.4,3.01l-.3.78c-.07.19.54.75.47.96-.63,2.07-.3,4.73-.48,6.89l-.16,1.94.47,1.81c.42,1.64,1.82,1.88,3.18,2.3,4.83,1.5,3.81-1.41,5.94.04ZM261.6,162.96c1.25-.33,6.16-.83,7.29-.12,3.54-1.84,1.68.05,3.86-.74,2.47-.89,5.81.2,7.54.07,1.64-.12,2.73-.12,4.24.76.37.21,1.01-.69,1.35-.91,1.15-.77,2.74-.01,4.03-.1.62-.04,1.65.06,2.14-.07l2.65-.69c1.29-.34,2.98-.97,4.18-1.44.18-.18-.24-.89-.2-1.11l.52-2.46c.27-1.27.23-2.23.18-3.52-.04-.91.15-1.98.02-2.91l-.54-3.8c-.31-2.16.01-4.62-.27-6.7l1.05-.81-1.38-1.83c-.73-.97-.91-2.12-.47-3.35-1.26-.54-.93-1.87-1.2-2.83-.59-2.1-.38-3.64.11-5.68.57-2.34-.87-5.13-2.85-6.39-1.43-.31-3.03-.5-4.44-.5h-4.17c-.37.16-1.11.53-1.5.59l-6.05.97c-4.03.65-3.03-2.12-8.26-1.44-1.99,2.18-2.94,1.63-3.62,1.81l-1.45.38c-.33.09-.76-.6-1.09-.87-3.27.29-2.76,1.22-5.44,1.6-.81.11-2.13.46-2.31,1.32-.21,1.02-.49,1.66-.87,2.54-1.52,3.54-.73,3.12-.79,4.4-.1,1.91-.53,3.83-.08,5.71.33,1.35-.03,2.56-.72,3.61l.59,2.27c1.11,4.28.28.25.06,5.46-.07,1.77-.67,1.06-.64,4.06,0,1.08.29,2.19.5,3.3.12.6,0,1.38.04,2.01.04.69.55,1.52.33,2.33-.28,1.06-.5,2.65.47,3.33l2.43,1.7c.48.33,1.71.7,2.28.7l2.48-.66ZM153.49,264.6c.46-.57.67-.96.87-.87.16.08.57.34.78.42,2.19.9,4.87,1.21,7.34.94,1.87-.21,3.48.16,5.21.37,1.07.13,2.16-.91,3.3.46.28.33,1.14-.01,1.47-.29,1.04-.87,2.46-.46,3.66-.55l2.86-.21c.28-.02.82-.48,1.09-.45,1.02.14-.37.99,4.34.09,1.81-.35,3.63-.44,3.72-1.28,3,.88,5.64-.84,6.31-3.78.16-.69.12-1.27.17-1.89.09-1.23.19-2.43.12-3.69l-.38-6.67c-.2-3.63.34-7.35-.42-11.08-.42-2.04.94-5.34.27-7.77-.69-2.52-.12-.94.34-2.81.04-.16-.48-.46-.54-.63-.92-2.83,2.08-4.03-1.25-7.79-.69-.78-1.3-1.17-2.45-1.4-1.21-.24-1.91-.02-3.01.42-.44.18-4.15.54-3.24-.03.07-.04.35-.23.44-.25l4.14-1.19c.87-.25,1.53-.63,2.08-1.25.27,0,.84.15.87-.07l.12-1.01c.27-2.2,1.67-2.44,1.36-4.14l-.62-3.36-.48-1.83c-.44-1.69-.76-3.26-.84-5.01l-.23-5.53c-.05-1.29-.31-2.69-.48-3.99l-.23-1.74c-.3-2.31.01-7.64.39-9.9l.39-2.35c.07-.44-.07-1.48.13-1.85.39-.74,1.37-1.29,1.96-1.9.88-.93.63-3.09-.42-3.82-.8-.55-1.77-1.35-2.65-1.4l-3.99-.22c-1.18-.06-2.16-.35-3.41-.45-1.57-.13-3.19-.84-4.77-1.1l-2.18-.36c-1.04-.17-1.81-.38-2.69-.66l-2.63-.84-1.67-.55c-3.25-1.06-1.9-.79-5.44-1.34-1.59-.25-3.04.06-4.57.18-1.15.09-2.09-.71-3.33.32-3.93,3.25-.42,3.36-1.82,4.41-.36.27-.8.15-1.23-.15-2.84-1.99-4.21.35-5.26.96-2.17,1.27-.07.62-1.93,2.05-.11.09.11.34.19.52l-.16,3.62c-.02.39.51,1.3.27,1.58l-.77.89c.55-.25.31,3.63.32,3.75.18,1.61.42,3.49.13,5.15.28.07.82.33.82.53l-.07,2.6c-.03,1.15-.03,2.05.12,3.2l-.21,1.43c.92.92.91,2.18-.1,3.16l.71,1.89c-.84.94-.86,2.03.13,2.84l-.95,1.9.5.86c.09.16-.42.6-.45.79-.43,2.7,1.06,2.78-.79,4.56,2.17.56.06,3.03.92,4.09l1.31,1.62c.36.44,1.37.98,1.94,1.31,1.51.88,3.5.42,5.09.8l1.91.46c3.86.92,4.93-.35,5.93,1.05.93-.09,2.26-.22,3.24-.09l3.64.52-4.5.54-14.02.15c-1.47.02-2.67.95-3.87,1.6-.58.32-.98.55-1.3,1.07-1.63,2.61-.42,3.75-.35,4.06l.38,1.75c.2.95-.42,2.21-.5,3.2-.09,1.17.67,2.23-.82,3.04,1.48.93.3,2.32.53,3.14.78,2.86-.61.77.24,6.21.2,1.29-.02,2.03-.24,3.27-.16.91,1.17,2.55-.32,3.52.73.48,1.31,1.58.74,2.11-.22.21-.93.46-.9.71.08.78,1.42,1.79.27,3.08,1.44.45,1.56,2.52,3.28,2.7,2.6.27-.28,2.51.82,3.66,1.68,1.76,1.18-.83,3.7,2.74.3.43,1.23,1.04,1.63,1.23ZM262.42,207.44c3.66-1.89,4.5-.54,8.84-.77.77-.04,1.71.23,2.57.25l2.85.08c1.94.06,3.63.3,5.58.2s3.75.28,5.72.4l.35-1.45c2.95-.8,4.92.73,6.33-3.26.14-.4.62-1.16.66-1.61l.23-2.39c.1-1.02.68-2.01,1.15-2.8-.71-1.1-.13-3.22.34-4.37.37-.92.1-1.49-.12-2.42-.21-.88.49-4.76.7-5.73.53-2.46-.28-1.44-.35-4.05-.02-.81.34-1.76.36-2.4l.11-2.93c.03-.81.24-1.89.51-2.6.1-.26-.27-1-.08-1.18l.89-.88-1.13-1.36c-2.23-5.27-4.48-3.74-5.81-3.79-1.2-.05-1.65.65-2.56,1.13-1.74.92-4.42,1.56-6.41,1.91l-2.69.48c-.68.12-1.55.09-2.29.18l-2.58.31-3.59.51c-1.14.16-1.44-.12-2.38-.76-.71-.48-2.23-.95-3.19-.98l-4.8-.16c-1.33-.04-2.75-2.41-6.62.23-1,3.27-1.73.62-1.05,5.32.2,1.38.3,2.48-.42,3.62l.32,2.11c.11.7.26,1.44.34,2.2l.22,2.37c.14,1.44-.55,2.81-.8,4.26-.27,1.6-.07,3.2,0,4.87.02.58-.66,1.68-.67,2.24-.02,1.13-.04,2.13-.61,3.17-.38.69.27,1.5.46,2.16.23.83.36,1.46.76,2.26.3.6-.38,1.59-.39,2.17l-.04,1.67c.06.21.4.63.28.81l-.55.86,2.07,2.03c5.8,1.34,6.04-1.15,7.49-1.9ZM283.47,262.44c1.59-.27,2.53-.25,3.71.8l2.98-.71c4.07.96,3.43,0,7.39.35-.45-1.32.05-2.07.94-2.83.62-1.81-1.38-4.38-.06-4.79l1.3-.4-1.79-1.2c.21-1.49-.7-5.45-.5-5.77,1.52-2.48-1.36-1.16.13-4.94-.21-.27-.6-.73-.77-.96-.14-.19.27-.65.52-.94.96-1.09-1.1-1.03.44-3.51l-.47-2.2c-.2-.97-.35-1.84-.68-2.78-.5-1.43.66-3.11.56-4.51-.1-1.29-.54-2.49.7-3.43-.78-2.76.37-2.4-.9-4.41-.93-1.47-2.07-2.68-3.73-3.52-1.56-.79-3.46-.35-5.23-.25-3.12.17-9.84-.31-11.42-.08-4.14.61-2.83-.76-10.63.93l-5.66,1.23c-3.67.79-2.55,1.26-7.54,1.77-1.74.18-2.97.65-3.99,2.17-.52.78-.38,2.03.05,2.85.51.97,1.53,1.01,2.41,1.52.95.55-.05,2.21.19,2.92.41,1.18.37,2.11-.25,3.11l.54,1.99c.5,1.86-.7,1.59-.51,4.15.06.88,0,1.96.11,2.73.28,1.83.57,3.52.56,5.47v2.62c-.02.92-.24,2.01-.2,2.86.29,5.71-.99,3.89,1.69,7.76.95,1.37,1.75,2.85,3.29,3.67.84.45,2.5.64,3.4.46s1.48-.39,2.26-.18c1.77.48,3.41.17,5.04-.35l1.71.04c1.29.03,2.8.36,3.9-.22,2.77-1.46,2.51-1.45,5.18-1.05,1.18.18,2.01,0,3.06-.72.49-.34,1.72.43,2.28.33Z"/>
  <path d="M153.49,264.6c-.4-.2-1.33-.81-1.63-1.23-2.51-3.57-2.01-.98-3.7-2.74-1.1-1.15,1.78-3.38-.82-3.66-1.72-.18-1.84-2.25-3.28-2.7,1.15-1.28-.19-2.3-.27-3.08-.02-.25.68-.5.9-.71.57-.53-.01-1.63-.74-2.11,1.49-.96.16-2.6.32-3.52.22-1.25.45-1.98.24-3.27-.85-5.43.54-3.34-.24-6.21-.22-.82.95-2.21-.53-3.14,1.49-.82.72-1.88.82-3.04.08-.99.7-2.25.5-3.2l-.38-1.75c-.07-.31-1.27-1.46.35-4.06.33-.52.72-.75,1.3-1.07,1.2-.65,2.4-1.59,3.87-1.6l14.02-.15,4.5-.54-3.64-.52c-.98-.14-2.31,0-3.24.09-1-1.4-2.07-.13-5.93-1.05l-1.91-.46c-1.59-.38-3.58.09-5.09-.8-.57-.33-1.58-.87-1.94-1.31l-1.31-1.62c-.86-1.06,1.25-3.54-.92-4.09,1.85-1.78.36-1.86.79-4.56.03-.19.54-.64.45-.79l-.5-.86.95-1.9c-.99-.81-.97-1.9-.13-2.84l-.71-1.89c1.01-.99,1.02-2.24.1-3.16l.21-1.43c-.15-1.15-.15-2.05-.12-3.2l.07-2.6c0-.2-.53-.46-.82-.53.29-1.66.05-3.54-.13-5.15-.01-.11.23-4-.32-3.75l.77-.89c.24-.28-.29-1.19-.27-1.58l.16-3.62c-.08-.18-.3-.44-.19-.52,1.86-1.43-.24-.78,1.93-2.05,1.04-.61,2.42-2.95,5.26-.96.43.3.87.43,1.23.15,1.4-1.06-2.1-1.17,1.82-4.41,1.24-1.03,2.18-.23,3.33-.32,1.53-.12,2.98-.43,4.57-.18,3.54.56,2.19.29,5.44,1.34l1.67.55,2.63.84c.88.28,1.64.49,2.69.66l2.18.36c1.58.26,3.2.97,4.77,1.1,1.25.11,2.23.39,3.41.45l3.99.22c.87.05,1.85.85,2.65,1.4,1.05.73,1.31,2.88.42,3.82-.58.62-1.57,1.17-1.96,1.9-.19.37-.05,1.41-.13,1.85l-.39,2.35c-.37,2.26-.69,7.59-.39,9.9l.23,1.74c.17,1.3.42,2.69.48,3.99l.23,5.53c.07,1.75.4,3.31.84,5.01l.48,1.83.62,3.36c.31,1.7-1.09,1.94-1.36,4.14l-.12,1.01c-.03.22-.59.06-.87.07-.55.62-1.2,1-2.08,1.25l-4.14,1.19c-.09.03-.37.21-.44.25-.91.57,2.79.21,3.24.03,1.09-.43,1.8-.66,3.01-.42s1.76.62,2.45,1.4c3.33,3.76.33,4.96,1.25,7.79.05.17.58.47.54.63-.46,1.87-1.04.3-.34,2.81.67,2.43-.69,5.73-.27,7.77.77,3.73.22,7.45.42,11.08l.38,6.67c.07,1.27-.03,2.47-.12,3.69-.05.63-.01,1.21-.17,1.89-.67,2.94-3.31,4.66-6.31,3.78-.09.84-1.91.93-3.72,1.28-4.72.91-3.32.05-4.34-.09-.27-.04-.81.43-1.09.45l-2.86.21c-1.2.09-2.63-.32-3.66.55-.33.28-1.2.63-1.47.29-1.15-1.37-2.23-.33-3.3-.46-1.73-.22-3.34-.58-5.21-.37-2.47.28-5.15-.04-7.34-.94-.21-.09-.62-.35-.78-.42-.2-.1-.41.3-.87.87ZM181.89,203.81c.77-.24.73-2.02.16-2.24l-2.8-1.13c-.22-.09-.8-.05-.87.15-.05.15-.14.62-.12.81l.27,2.12c.05.37.06.77.22.9s.75.14.98.07l2.15-.66Z"/>
  <path d="M189.85,108.56c-2.62-2.35-4.34-.07-7.43-.41-1.41-.16-2.47-.21-3.92.07l-1.82-.56c-1.12,1.23-2.78.04-3.82.23-2.51.47-4.41.96-6.97-.05-1.2-.48-5.86.51-9.27-1.9l-2.3-1.62c-.58-.41-.77-1.97-1.04-2.67l-.61-.82c.64-.67,1.31-1.62,1.27-2.43l-.19-3.49c-.06-1.01-.72-2.08-.18-3.05.85-1.52.67-4.66.65-6.38-.01-.72.4-4.81.71-5.62.11-.65-.25-1.76-.37-2.55l.55-1.17c-1.52-2.73.79-2.28-1-7.01.52-1.29,1.28-2.68,1.98-3.91,4.45-1.5.86-1.37,5.55-3.4.95-.41,2-1.1,3.04-1.65l-2.01-1.39c-.7-.48-2.19-.52-2.71-1.26l-1.7-2.38c-.53-2.5,1.23-4.66,3.55-5.31,3.57-1,4.81-3.53,5.3-3.91l1.75-1.34,2.66-2.66c.61-.61,1.26-1.24,1.82-1.98l1.86-2.47,1.41-1.68c1.04-1.24,2.07-2.38,3.22-3.51,1.75-1.72,2.08-2.7,3.49-3.64l3.2-2.13c.8-.54,2.26-2.31,2.45-2.87.81-2.4,4.09-1.93,4.77-1.27.99.96-.55,2.47,1.31,5.52.51.84.48,2.07.57,3.08.08.86,0,1.33-.33,2.16-.86,2.25-.03,3.24-.38,5.34-.33,1.95.21,3.82.51,5.74-.21-.47-.64,7.36-.68,6.51l.09,2.34c.04,1.01.2,1.87.76,2.74l-.42,1.99c-.13.63-.36,1.32-.39,1.94-.09,1.77-1.31,2.78-3.08,2.65-1.22-.09-2.93.26-4-.3l-3.2-1.65c-.93-.48-1.69-.29-2.63-.33-1.7-.07-3.32-.16-5.02.04-2.35.28-4.61.36-7.07.52.81,1.39,2.33,1.34,3.72,1.29,1.67-.06,3.21.22,4.81.35,2.94.24,5.77.3,8.63,1.13,1.23.36,2.19.09,3.44-.11,1.18-.19,2.87.41,3.89,1.13.89.63,1.98,1.95,2.16,2.96.21,1.19-.47,2.47-.34,3.53l.38,3.1c-.62.84-.8,1.8-.42,2.76.7,1.78.21,3.3-.03,4.95l-.31,2.18c-.23,1.63.61,2.78.17,6.12-.08.63.51,1.72.5,2.36-.06,4.02-1.11,4-.59,5.45.93,2.58.61,4.53.04,7.4-.16.79-2.13,1.61-2.37,2.59-.68-.12-1.66-.2-2.36-.09l-.38.86c-.08.17-.74.11-.92-.05Z"/>
  <path d="M283.47,262.44c-.56.1-1.79-.67-2.28-.33-1.05.71-1.88.9-3.06.72-2.66-.4-2.4-.41-5.18,1.05-1.1.58-2.61.25-3.9.22l-1.71-.04c-1.63.51-3.27.83-5.04.35-.77-.21-1.39,0-2.26.18s-2.56-.01-3.4-.46c-1.55-.82-2.35-2.3-3.29-3.67-2.68-3.87-1.4-2.06-1.69-7.76-.04-.85.18-1.94.18-2.86v-2.62c.02-1.95-.27-3.64-.55-5.47-.12-.77-.05-1.85-.11-2.73-.19-2.57,1.02-2.29.51-4.15l-.54-1.99c.62-1,.67-1.93.25-3.11-.25-.71.75-2.37-.19-2.92-.87-.51-1.9-.54-2.41-1.52-.43-.83-.57-2.08-.05-2.85,1.02-1.51,2.25-1.99,3.99-2.17,5-.51,3.88-.97,7.54-1.77l5.66-1.23c7.8-1.69,6.49-.32,10.63-.93,1.59-.23,8.31.25,11.42.08,1.77-.1,3.67-.54,5.23.25,1.65.83,2.8,2.05,3.73,3.52,1.27,2.01.12,1.64.9,4.41-1.25.94-.8,2.14-.7,3.43.1,1.4-1.05,3.08-.56,4.51.33.94.48,1.81.68,2.78l.47,2.2c-1.54,2.48.53,2.41-.44,3.51-.26.29-.66.75-.52.94.16.23.55.69.77.96-1.49,3.78,1.39,2.46-.13,4.94-.2.32.72,4.28.5,5.77l1.79,1.2-1.3.4c-1.32.4.67,2.98.06,4.79-.89.75-1.38,1.51-.94,2.83-3.97-.35-3.32.61-7.39-.35l-2.98.71c-1.18-1.05-2.13-1.07-3.71-.8Z"/>
  <path d="M192.24,158.8c-1.37,1.04-5.7.21-5.91.08-1.69-1.08-4.03-1.06-6.08-.83l-2.87.32c-1.7.19-3.55.94-5.21.61-.86-.17-1.5-.47-2.35-.27-1.45.34-2.86.03-4.3-.21l-2.93-.5c-1.68-.29-5.88-.73-7.28-.43-1.88.41-3.29-.34-4.88-.98-.93-.38-1.73-.44-2.07-1.61l-1.32-1.22.96-.47c.8-.4-.74-1.61,1.05-3.18.29-.36-.46-1.33-.79-1.74,1-2.69.35-3.22.79-6.16.27-1.8.26-2.58.07-4.44-.03-.27.48-.86.52-1.13.98-6.74-.1-2.61.17-7.78.04-.85-.2-1.9-.5-2.67.7-1.43.32-2.91.35-4.49l.06-3.34c.02-.99-.05-1.49.4-2.28.68-1.19,1.64-1.74,2.95-2.14,4.97-1.53,9.28-1.82,14.44-1.71l2.19.05c1.22.03,2.59-.02,3.74.19,4.09.72,4.45.11,8.72.04,1.13-.02,2.24.08,3.37-.06l1.83-.23c1.56-.19,3.5.27,4.78,1.15.67.46.89,1.03,1.18,1.71.49,1.15.55,1.92-.04,3.15-.42.89-.98,2.8-.63,3.69.51,1.31.59,2.2.41,3.68-.05.42.03,4.22,1.27,4.82l-.14,1.81c-.28,3.64-1.17,1.05.09,5.26-.15.46-.37,1.16-.43,1.68-.6,5.07.31,2.92.22,5.56l-.07,2.02c-.03.84.55,2.09.82,3.04-1.39.9-.71,4.53-.15,6.02-.57.92-1.54,2.31-2.43,2.98Z"/>
  <path d="M261.6,162.96l-2.48.66c-.57,0-1.8-.37-2.28-.7l-2.43-1.7c-.97-.68-.76-2.27-.47-3.33.22-.82-.29-1.64-.33-2.33-.04-.63.08-1.41-.04-2.01-.22-1.11-.5-2.22-.5-3.3-.02-3,.57-2.3.64-4.06.22-5.21,1.05-1.19-.06-5.46l-.59-2.27c.69-1.04,1.05-2.25.72-3.61-.45-1.88-.02-3.8.08-5.71.07-1.28-.73-.86.79-4.4.38-.88.66-1.52.87-2.54.17-.86,1.5-1.21,2.31-1.32,2.68-.38,2.17-1.31,5.44-1.6.33.27.77.96,1.09.87l1.45-.38c.68-.18,1.62.38,3.62-1.81,5.23-.68,4.23,2.09,8.26,1.44l6.05-.97c.39-.06,1.13-.43,1.5-.59h4.17c1.41,0,3.01.18,4.44.5,1.98,1.26,3.42,4.05,2.85,6.39-.5,2.04-.7,3.58-.11,5.68.27.96-.06,2.29,1.2,2.83-.44,1.23-.26,2.38.47,3.35l1.38,1.83-1.05.81c.28,2.07-.04,4.53.27,6.7l.54,3.8c.13.93-.05,2-.02,2.91.05,1.29.09,2.26-.18,3.52l-.52,2.46c-.05.23.37.94.2,1.11-1.2.46-2.89,1.1-4.18,1.44l-2.65.69c-.49.13-1.52.03-2.14.07-1.28.09-2.88-.67-4.03.1-.34.23-.97,1.13-1.35.91-1.52-.87-2.6-.88-4.24-.76-1.73.13-5.07-.96-7.54-.07-2.17.79-.32-1.1-3.86.74-1.12-.71-6.03-.21-7.29.12ZM288.41,130.75c.77-.82.15-4.72-1.37-4.84l-2.17,1.08.11,2.56c.02.38-.1.99.06,1.24.27.43,2.97.4,3.38-.03ZM282.65,153.35c-.79-.3-1.42-.11-2.04-.09l-1.96-.93-1.35-.68-.95,1.64c-.17.29.76.49,1.15.47,2.07-.13,2.01.91,5.16-.4Z"/>
  <path d="M209.63,153.93c-2.14-1.45-1.11,1.46-5.94-.04-1.36-.42-2.76-.66-3.18-2.3l-.47-1.81.16-1.94c.18-2.16-.15-4.82.48-6.89.06-.21-.55-.77-.47-.96l.3-.78c-.17-1.03.18-1.97.4-3.01.02-.11.31-4.12.32-4.64.08-2.5.87-5.09.7-6.91-.11-1.17-.51-2.03-.06-3.18l1.04-2.59c.17-.43.69-.93,1.09-1.26,1.68-1.41,4.59-1.47,6.16.59.57.75,1.79.58,2.71.66l3.58.31c1.03.09,2.04.22,3.05.1l2.55-.31,6.21-.57c2.24-.21,4.65,1.06,6.84.22.76-.29,1.14-1.07,2.34-.71,1.01.3,2.1-.93,4.22-1.19,4.72-.56,2.06-.49,5.33,0,1.13.17,2.73.7,3.38,1.73.53.84.88,2.46.77,3.42-.19,1.72-1.65,3.15-1.72,4.83l-.11,2.55c-.04,1.04-.23,2.7-.37,3.65-.05.3.51.9.39,1.13l-.54,1.07.24,1.25c.25,1.31-.02,2.72.2,3.97l.4,2.27.81,2.84c-.2.49-.57,1.34-.65,1.87l-.37,2.42-.47,2.34c-.07.35-.55,1.02-.72,1.51l-2.52,1.42c-2.46.02-4.73.05-7.15-.06-.97-.04-1.91-.16-2.9.04-2.11.44-4.1.49-6.25.59l-5.29.25c-2.15.1-4.32.28-6.42-.05l-.45.34c-.12.09-.51-.26-.68-.3l-3.66-.83c-1.15-.26-2.3-.35-3.31-1.04ZM226.78,128.98l1.22-2.33c-.72-.28-1.91-.27-2.68.01l.56,1.68c.1.29.79.87.89.63ZM212.19,128.42c-.09-.34-.7-.9-1.06-1.01-.24-.07-.58.67-.5.9s.43.53.67.6.96-.26.9-.5Z"/>
  <path d="M262.42,207.44c-1.45.75-1.69,3.24-7.49,1.9l-2.07-2.03.55-.86c.11-.18-.22-.6-.28-.81l.04-1.67c.01-.59.69-1.57.39-2.17-.4-.79-.53-1.43-.76-2.26-.18-.65-.84-1.47-.46-2.16.57-1.04.59-2.04.61-3.17,0-.56.69-1.66.67-2.24-.07-1.67-.28-3.27,0-4.87.25-1.45.93-2.82.8-4.26l-.22-2.37c-.07-.76-.23-1.5-.34-2.2l-.32-2.11c.71-1.14.61-2.24.42-3.62-.67-4.7.05-2.06,1.05-5.32,3.88-2.65,5.29-.28,6.62-.23l4.8.16c.96.03,2.49.5,3.19.98.94.64,1.24.92,2.38.76l3.59-.51,2.58-.31c.73-.09,1.61-.05,2.29-.18l2.69-.48c1.99-.36,4.67-.99,6.41-1.91.91-.48,1.36-1.18,2.56-1.13,1.33.05,3.58-1.48,5.81,3.79l1.13,1.36-.89.88c-.18.18.18.92.08,1.18-.26.71-.48,1.79-.51,2.6l-.11,2.93c-.02.64-.38,1.6-.36,2.4.07,2.61.88,1.6.35,4.05-.21.98-.91,4.85-.7,5.73.22.94.5,1.5.12,2.42-.46,1.15-1.05,3.26-.34,4.37-.47.79-1.05,1.78-1.15,2.8l-.23,2.39c-.04.45-.52,1.21-.66,1.61-1.4,3.99-3.38,2.46-6.33,3.26l-.35,1.45c-1.98-.12-3.83-.5-5.72-.4s-3.64-.15-5.58-.2l-2.85-.08c-.86-.03-1.8-.29-2.57-.25-4.34.24-5.18-1.12-8.84.77ZM283.98,197.47c.36.27,1.01-.2,1.14-.58.1-.32-.42-.86-.8-1.01-.22-.08-.59.41-.65.64s.13.81.32.95Z"/>
  <path d="M247.63,61.12l-2.29,1.23c-2.52,1.35.27-1.99-6.77.25-1.53.49-2.87.07-4.42-.09-1.95-.2-3.29.91-7.43-.01-2.19-.49-4.58.13-6.74-.07-.98-.09-1.8-.21-2.76-.13l-2.9.25c-3.03.26-8.08.35-10.01-2.34-.42-.58-.86-1.9-.96-2.56.54-3.5-.5-2.58.64-5.33-.82-3.74.94-6.05.67-8.31-.23-1.9-.07-3.7-.08-5.59,0-.64-.3-1.46-.2-2.21l.44-3.3c.08-.61-.49-1.39-.05-2.14.4-.67.4-2.31.02-2.96-.47-.81-.85-1.31-.87-2.24-.01-.81.5-1.28,1.01-2.01.6-.87,1.09-1.45,2.12-1.79,4.56-1.5,3.9,2.25,8.18.77.86-.3,2.04-.13,2.99,0l5.68.78c.95.13,1.77.18,2.7.44s2.15.66,3.06.67h7.25c1.27,0,3.88-1.45,6.54-.82,1.48.35,2.79.9,3.46,2.08,2.29,4.01-1.74,3.88,1.17,10.88.08.69-.38,2.04-.15,2.73,1.09,3.25-.26,2.13.86,4.96l-.35,1.77c.93,1.85-.04,1.32.72,3.92-.17,1-.09,1.94-.04,2.95l.14,2.84c.05,1,.27,2.14.33,3.02l-1.97,2.4ZM226.86,53.92c-.27-.99-4.4-1.67-4.95-1.35l-.16,1.27c-.03.25.66.45.98.43l4.13-.35Z"/>
  <path d="M264.4,115.38c-.84.07-1.91-.37-2.73-.76-3.06-1.48-2.44-.16-4.43-4.78,1.48-1.46.97-1.35.68-2.89.18-.67.27-1.32.19-2.07-.54-5.02.06-2.16.13-5.37.09-3.61-.39-1.86-.06-5.61.12-1.38-.04-2.72-.43-3.95.81-2.29-.54-3.49.94-4.31l-.62-1.83c.08-3.45-1.41-4.76-1.42-7.52,0-1.39.86-3.22,2.05-3.99,3.08-2,3.61-.91,4.75-1.01l2.71-.23c1.06-.09,2.28-.46,3.31-.38,1.39.11,2.58.2,3.93.09l3.57-.29c1.63-.13,3.27-.06,4.82-.53,2.94-.89,5.54-1.18,8.62-.81,1.15.14,2.28.81,3.2,1.59l2.23,1.9c.03.72,0,1.72.09,2.48l.27,2.42c.31,2.85-.43,3.15,0,6.45.61,4.67-1.36,1.84.46,7.41.26.8.13,1.38-.2,2.16-.31.72.52,1.65.7,2.36.78,3.17.69,4.89,1.29,7.1.42,1.51.7,2.88,1.03,4.4.47,2.16,0,4.64-2.24,5.79-.76.39-2.22-.12-3.1-.28-1.07-.2-2.62-.18-3.43-.59-1.73-.88-2.67-.27-4.26.08-2.52.56-4.66-.55-11.26,1.06-.62.15-1.07.27-1.7.17-1.83-.3-4.25.12-5.86.73-1.16-.05-2.37-.25-3.25,1.05Z"/>
  <path d="M285.38,64.51c-.83-.09-1.22-.26-1.97-.62-5.01-2.4-3.96-.78-7.41-1.33-1.66-.26-3.24-.2-4.84.3l-1.88-.25c-4.1,1.33-2.26,2.13-6.25,1.32-1.38-.28-2.79-.18-3.63-1.38-.76-1.09-1.44-2.41-.65-3.78l.47-.81c.45-.77-2.22-.82-2.27-3.94-.01-.94-.18-1.96.18-2.88.49-1.26.48-2.34.62-3.6l.36-3.36c.05-.49.28-1.44.05-1.8l-.66-1.03c-.18-.28.4-1.07.39-1.42l-.1-2.74-.7-1.71c.15-1.57.48-3.24-.07-4.71-.37-.98-1.09-2-.84-3.06.67-2.87,6.14-3.5,8.46-3.11l1.25,1.17c.27,1.66,1.5,2.62,2.53,3.88.78.96,1.48,1.81,2.39,2.67l1.5,1.42c1.34,1.27,1.69,2.5,3.84,3.22l-.39,1.35,2.75,2.86c1.19,1.24,3.95,3.25,5.61,4.06,2.88,1.4,1.43,1.75,2.78,2.88l2.92,2.45c1.33,1.11,1.89,3.04,2.95,4.42,1.08,1.4,1.08,4.02.72,5.79s-1.91,3.19-3.59,3.75l-1.55-.16c-1,.51-1.85.28-2.97.15Z"/>
  <path class="cls-1" d="M181.89,203.81l-2.15.66c-.23.07-.81.07-.98-.07s-.18-.53-.22-.9l-.27-2.12c-.02-.19.06-.66.12-.81.07-.2.65-.24.87-.15l2.8,1.13c.57.23.61,2.01-.16,2.24Z"/>
  <path class="cls-1" d="M288.41,130.75c-.41.44-3.1.46-3.38.03-.16-.25-.04-.86-.06-1.24l-.11-2.56,2.17-1.08c1.52.12,2.14,4.02,1.37,4.84Z"/>
  <path class="cls-1" d="M282.65,153.35c-3.15,1.31-3.09.27-5.16.4-.39.02-1.32-.17-1.15-.47l.95-1.64,1.35.68,1.96.93c.62-.02,1.25-.21,2.04.09Z"/>
  <path class="cls-1" d="M226.78,128.98c-.1.24-.79-.34-.89-.63l-.56-1.68c.77-.28,1.96-.29,2.68-.01l-1.22,2.33Z"/>
  <path class="cls-1" d="M212.19,128.42c.06.24-.66.57-.9.5s-.59-.37-.67-.6.27-.98.5-.9c.37.11.97.66,1.06,1.01Z"/>
  <path class="cls-1" d="M283.98,197.47c-.19-.14-.38-.72-.32-.95s.43-.72.65-.64c.39.14.91.69.8,1.01-.12.38-.78.84-1.14.58Z"/>
  <path class="cls-1" d="M226.86,53.92l-4.13.35c-.32.03-1.01-.17-.98-.43l.16-1.27c.55-.32,4.69.36,4.95,1.35Z"/>
</svg>