<?xml version="1.0" encoding="UTF-8"?>
<svg id="Layer_2" data-name="Layer 2" xmlns="http://www.w3.org/2000/svg" viewBox="0 0 432 288">
  <defs>
    <style>
      .cls-1 {
        fill: #fff;
      }
    </style>
  </defs>
  <path class="cls-1" d="M-1.42,289.17V1.17h432v288H-1.42ZM171.24,263.49l1.28-3.58c.71-1.98-.31-1.7,1.02-3.6l-.11-1.06c-.02-.23.54-.49.63-.72.25-.59-.09-1.78.08-2.32l.46-1.46.58-1.24c1.21-3.35.31-2.3.75-4.16l.79-3.33c.53-2.22.26-2.85,1.81-3.88.1-.06.35-.3.31-.39s-.24-.34-.24-.44l-.05-1.85c-.07-2.57.57-.03.41-2.72-.01-.17.43-.1.69-.17-.58-6.45,2.41-2.34,2.23-6.61-.09-.02.09.01.26.04l1.13.18-.46,2.06c-.04.19-.56.59-.44.74.99,1.38-.5,1.06.52,2.64l.62.96.22.34c.05.07,0,.34-.08.32l-.47-.07c-.16-.02-.46.26-.57.38s.19.58.32.48l.7-.51,1.22,1.06c-.15.85.13,1.42.62,1.98l.89,1.02,3.4,1.38c2.46.99.24,1.51,2.75,1.71.63.05,1.3.34,1.89.55l1.24.43c2.21.77,2.03.9,4.55,2l1.49.65c.96.42,1.96.73,2.93,1.02.61.18.97.44,1.52.78l3,1.86,2.15.5c.32.07.68.83.69,1.02.42-.06,1.15-.17,1.36.07l.74.87c1.94-.06,5.9,1.63,7.26,3.03l1.37.32c.34.08.85.19.92.42l.28.97,1.06-.62.54,1.2,1.01-.15c.36-.05.07.44,1.03.56l.33.04c1.34,2.14,3.92,2.27,4.52,2.77.83.7,1.43.72,2.4,1.08,1.16.43,2.54,1.03,3.7,1.55.41.18.77,1.19,1.37,1.19,1.68.01,1.71.67,3.64,1.42l3.95,1.54c.2.08.68-.1.84.02.13.1.38.58.53.63.86.29,2.47.99,3.34,1.47-.39-.56,3.65,1.34,2.97.89l2.04,1.34c.51.33,2.27.32,2.9.74l2.19,1.48c.84.57,2.04.7,2.65,1.67l.58-.08c.11-.01.42-.02.43.08l.03.33c.04.51.5.69.7.6l.52-.23c.67.89,1.59,1.29,2.8.77l.58-1.81.42-.36-.04,1.2.55.21c-.07.08.03-.03.13-.15l.33-.53c.07-.11.4.26.48.4l1.69,3.29c.48.55.97.65,1.81.64l58.96-.03v-95.36c0-.61-.23-1.24-.35-1.67.41-.74.54-1.88-.39-2.48-1.67-1.09.07-2.02-2.48-3.5l.06-.48c0-.07-.37-.09-.43-.04l-.63.47c-.1-.14-.23-.32-.24-.33,0,0,.1-.17.14-.22l.25-.36c-.83-1.17-1.62-2.58-2.73-3.53-.43-.36-.73-.66-.98-1.18h-.42s-.04-.07-.11-.34l-.58.1c-.83.14-.67-3.38-1.62-4.91l-1.43.12-.25-1.27c-.09-.47-1.2.33-1.24.29-.06-.06-.26-.28-.32-.31l-.54-.33c-.1-.06.03-.29.14-.36.43-.28.95.4,1.38-.1.19-.22.34-.6.19-.66l-.83-.34-.87-2.04c-.25.24-.36.39-.42.35l-.28-.21c-2.78-1.55-.79-.12-1.76-1.54l-.93-1.37c-.11-.17.2-.77.04-.9s-.66-.4-.8-.57c-.59-.71-1.48-1.72-2.01-2.44l-1.76-2.39-1.22-1.59c-.46-.6-.79-1.54-1.44-1.82-.36.04-.48.1-.52,0l-.18-.4-.7-1.58c-.39.1-.76.24-.8.08l-.15-.67c-.17-.76-.34-1.32-.97-1.71-.29-.18-.64-.82-.87-1.04-1.05-1-3.62-3.69-3.44-5.24l-1.64-1.67c-.15-.16-.78.3-.81.39-.16-.86-.77-1.64-1.62-1.83l.03-.65c0-.11-.54-.13-.76-.17-.99-4.88-2.57-2.79-3.05-4.15-1.04-2.96-2.98-1.16-3.13-3.69l-.95-1.17c-1.16-.33-1.54-1.35-1.43-2.52.07-.79-1.92.1-1.68-.28l.27-.42c.17-.26.33-1.06.13-1.29-3.08-2.03.09-.41-3.09-3.39-.64-.6-.92.29-1.12-.35-.11-.36-.56-1.2-.92-1.11l-.53.13c-.09.02-.17-.35-.18-.44l-.08-.76c-.01-.15-.44-.15-.71-.21-1.07-.26-.62-.98-1.62-1.51-.06-.03.41-.24.39-.31l-.62-2.39c-.4-1.55-.09,1.23-1.45,1.65l-.43.68c-.4-.07-.91-.27-1.02-.09l-.6.91c-.3.35-.35.08-.21-.55l-1.26.52c.08.28.19.75.24,1.09-.47.43-.57.47-.39,0-.3-.3-.81-.59-.69-.8l.45-.85c.04-.08-.04-.41-.06-.5s-.27.1-.33.17l-.3.33c-.6-.49.4-1.77-.09-2.12l-.6-.44c.09-.56.15-.7.18-.2l1.61.78c.55-.7,1.23-.64,2.42-.45.03.06-.08-.17-.19-.39-.6-.71-.56-1.73.24-2.18l-1.16-.7c.16-.41.42-1.52.06-1.74-.58-.36-1.64-.72-2.04-1.1l-1.02-.94c-.44-.41-.77-.82-1.03-1.27l-1.18,1.69c-.15.21-.83.37-.8.6l.09.74c1.44-.34,2.26.67,2.88,1.68.8,1.31-.62.57.97,2.09.08.08-.07.39-.12.5s-.43.03-.47-.09c-.02-.06-.12-.41-.13-.46-.39-.31-.88-.89-.92-1.31l-.04-.43c0-.08-.17-.18-.22-.25-.46-.57.44.65-.59,1.7-.53.55-.59,1.51-.43,2.15l.77-.24c.12-.04.35.31.35.35-.17.18-.42.38-.37.47l.29.48c.06.1.22.32.28.27l.34-.27.15.53c.04.13.14.34.19.46s-.45.39-.52.29-.33-.49-.45-.5h-.71c-.11-.02-.2-.29-.29-.46l.14-.35c.03-.07-.51-.12-.51-.04l-.05.96c-.64-.02-1.39-.4-1.87-.93l-.4-.43c-.05-.05.14-.26.22-.25l.41.05c.39.05.96-.46,1.23-.87l.25-.38c.04-.07-.31-.06-.49-.08-1.41-.15-2.68-1.28-1.83-1.29h.36c.14,0,.61-.17.51-.27l-.51-.54,1.25-1.69c-.24-.13-.59-.32-.73-.23l-.63.38c-.57-.3-1.26-1.3-.9-2.02.19-.38,1.14-.63,1.51-.72.1-.43.18-.74.09-.46l-2.12.27.07.92c.02.21-.49.3-.75.29-.21-.01-.53-.34-.71-.58-.11-.16-.84.28-.76.47l.35.77c.12.2.76.43.65.64l-.51.97c-.7-.36-1.23-1.09-1.44-1.87l-.29-1.08c-.02-.08.06-.42,0-.38l-.42.22c-.14.08-.47.13-.51-.03l-.19-.66c-.08-.28-.26-1.02,0-1.09l1.17-.31c.89-1.83.38-2.63,1.33-3.45.1-.09-.15-.49-.27-.46-1.12.29-.13,1.03-1.33,1.69-.14.08-.3.16-.33.19l-.28.38c-.05.07.08.14.46.41.39-.13.22.2-.06.45-.19.1-.43.26-.47.17l-.23-.62-.44.05c-.17.45-.78,1.03-.99.78-.63-.74-1.01-1.06-1.79-1.47l-.9-1.09c-.31.05-.72.13-.73-.01-.01-.11.05-.3.16-.5l.64-1.23c.05-.1.5-.21.66-.24.13-.02.09.39,0,.49l-.27.32c.34.56.45,1.18.23,1.81.08.04.72.03.73-.15l.04-.63c-.08-.42-.08-.49.06.07,1.62.95.24-.33,1.89-.84.09-.08,0-.58-.19-.63l-.72-.16c-.17-.04-.39-.09-.38-.09,0,0,.09-.44.08-.51-.1-.52-1.06-1.01-1.8-1.19v-1.4c-.01-.14.1-.38.2-.34l.36.13c.06-.35.07-.46.2-.85l.2,2.06c.88-.3,1.61-.12,2,.63.05.09.25.45.25.36s.11-.47.16-.53l1.53-1.68.26,1.12c-.35.23-.81.57-.65.77.22.27.5.7.58.92s-.4.63-.62.72c-.16.06-.5.17-.43.23l.34.27c-1.35-1.05,2.5,1.85.56.02l.92-.76c.13-.11-.2-.82-.04-.87s.37-.06.79-.06c.03.09.19-.57.04-.67l-.64-.41c.56-2.16-.85-1.33-1.42-3.12-.16-.5-1.09-.47-1.35-.79l-.7-.86c.01-.37,0-1.08-.16-1.37-.14-.25-.76-.36-1.14-.44l-.21-1.61-1.45.35c-.2.05-.71-.32-.83-.49s.51-.56.65-.65l-.92-1.52c.06-.02-.26.09-.42.15l-.29.15-.88-1.14c-1.87-2.4-.6-1.34-3.12-2.67-.45.11-.06-.1.33-.31l.71-.09c.13-.02.1-.47-.02-.55l-.89-.57c-.13-.08-.47.49-.59.39l-.59-.44c-.06-.04-.33-.11-.4-.13l-.25-.06-.79-2.03-1.32-1.06s-.17.11-.58.37c.05-.4.23-1.15.37-1.59-2.06-1.78-1.47-2.62-3.58-3.8-.19-.11-.55-.42-.68-.32l-.61.47c-.1.08-.47-.04-.39-.14l.35-.42c.13-.15.23-.71.09-.85-.22-.23-1.83-.49-2.29-.49l.51-.43c.06-.05-.13-.37-.2-.34l-.62.24c-.08.03-.21-.25-.21-.33.03-.36-.06-1-.35-1.36-1.4-1.75.71-1.15-2.45-2.85l-.27.58c-1.24-4.23-2.25-2.27-3.29-5.42-.75-2.26-1.85-.13-3.17-3.35-.22-.53-1.18-.69-1.73-.87l-1.75-.57c-.7-1.52-.23-2.16-.78-3.21-.21-.4-1.69.43-1.67.07,0-.17.12-.65.03-.81l-.72-1.34c-.14-.27-.3-.98-.57-.99l-1.15-.04-.81-1.22c-.57-.85-.97-1.55-2.13-1.74-2.65-2.49-.39-1.2-2.45-2.83-1.23-.97-2.32-2.14-3.45-3.24l-.08-1.14c-.01-.19-.41-.63-.57-.53l-.54.36-.63.42c-.11.07-.37-.29-.34-.41l.16-.64-.88-.58c-.09-.5-.08-1-.27-1.1l-.78-.4-1.11-1.57c-.46.04-.66.12-.71-.03-.68-1.87-.22.14-2.56-2.82-.42-.53-1.04-.97-1.38-1.55l-1.06-1.77-2.52-2.06-2.27-1.85c-1.56-1.27.49-.18-2.81-2.96-.61-.52-1.56-1.07-2.24-1.56-1.56-2.65-2.46-2.23-4.39-4.46-.65-.75-1.27-1.34-2.29-1.59l-.73-1.48-2.19-1.02c-.18-.08-.22-.94-.42-.97-.16-.02-.36-.03-.71-.04l-2.08-1.63c-.08-.26-.22-.7-.04-.14l-1.06-.07c-.18-.01.1-.45.26-.67s-.21-.92-.47-.93l-1.05-.03-.47,2.36c-1.13.59-1.91,1.83-1.04,2.97-.27.52-.91,1.23-1.31,1.54-.4-.32-.54-.43-.51-.41-.2.57-.33.76-.23.9l.35.49c-.18.36-.44.95-.4,1.26.03.27.58.5,1.07.67l.43,2.41c-.96-.1-.94-.62-1.16-1.59-1.04.25-2.58,4.3-2.47,4.47l.43.7-.43,1.2c-.2.56-.46,1.19-.63,1.55l.59.7c-.94.86-.98,2.04-.2,2.98l-1.14,1.62c.02.5.02,1.07-.11,1.42l-.67,1.79c-.07.2-.14.85.02.97l.7.52-.95,2.14c-.05.11-.27.4-.36.35l-.38-.23-1.01.92c-.28-1.22-.24-2.15-.04-3.27l.38-2.14c.13-.7-.38-1.68.66-2.02l-.45-.75c-.09-.14.26-.52.3-.68l.57-2.11-.03-1.24c.43-.69.52-1.52.53-2.23.14-.41.52-1.22.54-1.68.05-1.49.37-2.65.73-4.01.19-.74-.04-1.79.52-2.48.22-.27.22-.73.31-1.04.3-1.03.67-2.1.55-3.05-.33.1-1.08.33-1.13.13l-.46-1.64-.3.88-.25.75c-.06.17.21.48.41.73-1.28,4.04-1.51,1.97-1.37,4.55.04.68-.3,1.76-.4,2.54-.4,2.91-1.19.39-.62,5.79l-1.18.11c1.22,2.07-.73,1.91.48,4.1l-.75,1.63c-.22.47-.33.86-.4,1.39l-.61,4.56c-.25,1.91-.12,3.89-.51,5.74-.67,3.19.66-.06-.67,5.31l-.62,2.48,1.61.63-2.06,2.41,1.07,1.14-1.32.32c.57,1.74-.52,2.01-1,3.05-.04.08.31.19.37.12l.3-.37c.15-.19.92-.05.84.18-.06.18-.36.66-.35.85l.12,1.98c.62-.14,1.12-.23,1.3-.02.5.56-.28.54-1.04,2.28-.12.29-.39.71-.22.83l.66.49c-.14.2-.86.78-.78,1.02.21.62,1.31,1.58,1.88,1.92l-1.26,1.31c-.3.31-.97.72-1.03,1.08-.26,1.68,1.21,1.24,0,2.65-.18.21-.46.69-.42.92.03.19.26.42.45.68.48.68.67,2.25.14,3.11-.44.72-1.04,1.4-1.59,1.99l-1.22,1.31c-.19-.03-.54-.15-.52-.02.26,1.88.93-1.11,3.09.75-.61.61-1.42,1.23-2.28,1.91-.45.36-.77,1.19-1.47,1.29l-.39-.92-.53.73c-.54-.52-.26-.02-.13.19.17,0,.75-.04.71.08l-.2.69c-.04.14.5.23.6.12.08-.08-.04-.41.08-.41h.61c.18.01.11,1.01.39.62.56-.76-.01-1.84.55-2.11l1.01-.47c-.24.91-.28,1.86-.18,2.88l-.67-.09c-.12-.02-.22.42-.26.56l-.19.65c-.03.12.4.08.49,0l.42-.37c.16,1.24,0,2.63-.77,3.7l-.58.8c-.11.15-.59-.02-.82-.12-.02-.67-.06-.6-.2-.2l-.81,1.8c-.55,1.23.1,1.63.12,1.58.35-.98-.52-.79.1-1.02l.78-.3c-.02-.28-.32-1.1-.05-1.16l1.1-.22c-.44,1.15-1.03,2.28-.24,2.9.31.24.53.58.41.85-.1.22-.96.39-1.03.16l-.34-1.1-1.36,1.18.82.61c-.65.57-.34,1.74.06,1.96.44-.11.51-.11.85-.16.08-.11.34-.55.43-.47l.37.35c.15.14-1.15.9-1.99,2.44-.09.17-.32.78-.13.85l.84.31-.07.49c-.03.2.45-.21.62,0,.72.89-1.31.76-.53,2.48l-.54-.14c-.08-.02-.07.23-.09.42l-.11,1.35c-1.35,1.62.13,2.79-1.32,3.65l-.52.31c-.06.04-.17-.22-.13-.27l.25-.37c.13-.19.41-.49.29-.59l-.5-.42-1.63,3.62c.79-.27.98-.85,1.64-1.73l.3,2.86c-.63-.09-.94-.16-.98.03-.05.23-.14.69-.13.63.43-.07.74-.17.83-.06l.43.53.5-.41c.09-.07.29.23.27.34l-.06.42c-.04.27.14.87-.07,1.01l-.83.56c0,.17.02.32,0,.44s-.53.18-.55.07l-.09-.47-.1-.5c-.02-.1-.29.07-.35.15l-.27.36c-.22.19-.75.67-.8.94s.12.65.21,1.04c-.09.17-.37.54-.24.6l.62.28-.7.87c.18.23.49.51.4.65s-.32.48-.4.63l-.7,1.25c.35.1,1.19.3,1.83.43.53.11.96,1.44.44,1.65-.27-.17-.56-.45-.69-.35l-.54.41.33-1.4-1.32.53-.47,1.5c.36.72.31,1.34-.03,2.04l-.84,1.71,1.71.66-1.32,1.78-.5-.09c-.08-.01-.11.31-.04.36l.39.25c.28.18.53.7.53,1.1-.01.65-2.08,1-1.4,1.87.22.28.6.62,1.09,1.03l-1.58,1.1-.68,3.98-.08.48c-.02.1.27.11.37.11s.07-.2.11-.71c-.1-.21.47-.19.53,0l.17,1.67-1.23.19c-.02.13.48.68.81,1.01-.1.45-.49.78-.46.14-.24-.37-.23-.38-.25-.29s-.2.48-.21.57l-.25,2.68c-.13,1.39-.42,3.61-1.68,4.57.05.17.43.95.6,1.3.15,3.52-1.57,3.31-.25,5.21-.52.35-1.05.71-1.25,1.02s.04,1.18-.03,1.55c-.15.83-.09,1.67.39,2.4.2.29-.46.98-.55,1.35l-.63,2.53c-.94,3.77.07,3.39-.93,6.52-.04.14-.57.45-.48.57l.46.65-1.37,1.4.8.54-.73,1.18c.44.23.89.44.75.59l-.68.7c-.34.35,1.32.33-.96,3.17l.35.72-.51,2.43c-.62,2.98-2.01,2.73-1.68,4.12.4.11,1.26.73,1.12,1.44-.21,1.04-.88,2-.54,3.28l-1.17.79c-.1.07-.37.29-.27.32l.53.15c.17.05.53.21.68.29-.31-.16-.26,1.48-1.32,2.12-.52,2.91.11,1.66-.4,3.87l-.62,2.68c-.11.47.33,1.24-.19,1.88-.93,1.14-1.08,2.57-.35,3.88.05,1.85-.96,2.7-.92,2.86l.19.7-1.11.67c.25.5.45.92.44,1.19-.01.22-.43.57-.66.57h-.82c-.19-.02-.27.78-.09.83.45.12,1.25-.36,1.8-.66,0,.39-.38,1.24-.74,1.31-.13.03-.5-.27-.59-.36s-.21.7-.08.73l.61.15-.63.42c-.07.05.11.36.14.36l.72-.25c.13-.04.11.64,0,.72l-1.66,1.05.53.82-.66,1.62c-.15.37-.13,1.01-.08,1.51l-1.09,2.74c.21.33.57.91.43,1.15l-.54.89-.03,1.09c-.92.97-1.27,2.33-.69,3.38-.74.52-1.09,1.48-1.2,2.15-.05.33-.66.98-.63,1.28s.36.69.75,1.16l-1.79,3.85c-.32-.06-.75-.17-.69-.04l.28.58c.06.11.5.29.46.41l-.23.6c-.22.58-.63.95-1.19,1.33,2.85.21-1.27,1.37-.6,3.01l-1.42,1.26-.71-1.51c-.19,1.32-.14,1.96-1.38,2.39-1.39.48-1.23,2.4-1.71,1.85l-.44-.5-.49,1.2c-.06.15-.76-.16-.71-.33.23-.85,3.7-3.23,3.54-4.58l.58-.68c.11-.13-.38-.62-.4-.8l-.32-2.3c1.07-.76,3.19-3.82,3.62-4.92,3.02-1.71.23-2.84,2.07-3.81-.85-.94.16-1.85.5-2.88l.67-2.08.17-2.21c.02-.21,1.43-4.15.46-5.49.67-1.5,1.19-3.22,1.14-4.89l.75-.65,1.02-2.72c-.3-.91-.62-2.03-.64-3.04l1.96-.39c-.48-.23-1-.64-1.04-.98l-.09-.86c-.01-.13.72-.2.77-.32.31-.98.45-2.92.28-4.06l.54-1.35c.04-.97.34-1.65.53-2.42l.36-1.51c1.06-4.49-.23-.94.85-5,.12-.44.14-1.01.4-1.46.23-.41.33-1.07.27-1.31-1.87,1.38-3.2-1.26-4.07,1.36-1.21,3.66-2.42,7.14-3.93,10.69s-2.61,6.93-3.54,10.62l-3.33,13.24c-1.58,6.27-5.04,11.67-8.58,17l-4.84,7.44h-17.74s0,28.23,0,28.23l-.16.57c-.03.09.36.22.92.22h71.6c.92,0,1.86-.64,1.72-1.12-.26-.88.02-1.22.34-1.94.39-.86.09-2.47.83-3.42.89-1.14,1.36-2.58.86-4.08l.4-1.11.55-1.5.35-.89c.08-.19-.36-.59-.46-.84ZM166.61,18.43c.11-.67.1-1.31-.02-2.04l-1.29,1.16,1.31.89ZM160.14,63.7l.64-1.51c-.25-.13-.82-.33-.73-.46l.44-.65c.14-.2.26-.75.19-.98s-.79-.28-.9-.06l-.38.8c-.19.39-.88,1.19-.77,1.61l1.52,1.26ZM156.95,74.06c.65-.15,1.02-.31,1.14-.18l.42.44.22-2.24c.11-1.17.95-1.94,1.31-4.28l-.77.35c-.34.15.38,1.57-.18,1.71l-.93.22c0,.71-.21,1.41-1.04,1.65l-.17,2.34ZM152.41,116.18l.32-3.8c.05-.66.36-1.29.71-1.79l-.32-1.09c-.06-.21.49-.6.54-.81.11-.5.1-1.51.23-1.99,1-3.72-.34-1.49.54-4.51l-.12-.88c.38-.22.91-.51.91-.78s-.27-.73-.47-1.1l.54-1.27c-.24-.4-.53-.72-.52-.94s.29-.66.34-.89l.47-2.41.91-4.25c.09-.41.2-1.28.25-1.7-.03-.98-.01-1.96.24-2.93l.67-2.61c-.01-.34.07-1.14-.03-1.47l-.76-2.55c.5-.13.75-.04.75-.23l.02-1.05c-1.11-.43-1.77-1.09-2.38-2.11l.28,1.84-1.76.29c-.24-.66-.28-.81-.59-1.33-.23,1.94,0,3.56.08,5.44.11,2.54-.04,5.02-.08,7.55l-.19,12.09c-.03,1.67-.35,3.38-.74,5.02-1.24,5.25-2.35,10.35-3.19,15.68-.03.22-.11.66.04.67,1.34.12.01-.98,1.21-1.25.23-.05.68.5.61.77l-.7,2.92.65.43c.52.34-1.01,2.06-.27,2.76l.31-.7c.5-1.14.56-2.17.85-3.46l.36-1.59c.02-.07-.31-.31-.36-.27l-.4.34c-.16-.62,1.09-3.18,1.25-3.13-.12-.03-.62-.23-.67-.34-.29-.57.43-1.89.48-2.55ZM267.43,99.97c.35-.85.41-1.28.65-1.46s.84-.21,1.36-.3l-.7-.51c.16-.15.59-.61.44-.7s-.75-.12-.82-.28c-.17-.38-.39-1.42-.8-1.43-.28,0-.64.07-.78,0-.37-.19.29-1.46-.3-1.77l-.92-.48c.12.56.26.81.16.95l-.39.52.77,1.02-1,3.77.61-.71c.14.18.37.53.53.53h.67s.54.86.54.86ZM271.1,100.45l-.81-.92-1.35.89c.58.38,1.42.37,2.16.03ZM277.97,108.81c.09-.25.26-.99.09-1.29-.14-.26-.64-.63-1.01-.9-.11.11-.46.51-.36.64l.43.6c.08.12-.05.59.08.64l.77.31ZM145.03,151.85c.49.11,1.52.27,1.88-.04.32-.29.1-1.34-.27-1.65-.34-.28-1.21-.48-1.41-.13l-.51.88c-.08.14-.59-.11-.71-.05-.11.14-.02.75.17.79l.86.2ZM144.31,159.96l1.54,1.03-.17-2.11c-.08-.38-1.03-.91-1.32-.77l-2.02,1.22c-.57.34-.76,1.8-.81,2.46l2.78-1.84ZM141.16,181.5l.88-.35c-.27-1-.23-2.03.45-2.86l-.61-1.46c.98-1.44,1.46-3.26,1.36-5.18.14-.52.52-1.41.58-1.88l.21-1.78c.2-1.63.46-3.05,1.37-4.62-1.01-.86-4.26.61-4.42,1.4-.45,2.19-.7,4.23-.84,6.41l-.16,2.48c-.16,2.54-.54,4.97-1.19,7.47l-1.41,5.51c1.45-.28,2.53.48,3.16.05.44-.3.79-2.08.73-2.81.15-.21.5-.61.54-.84.09-.64-.99-1.4-.65-1.54Z"/>
  <path d="M171.24,263.49c.1.25.53.64.46.84l-.35.89-.55,1.5-.4,1.11c.5,1.5.03,2.94-.86,4.08-.74.95-.44,2.56-.83,3.42-.32.72-.6,1.05-.34,1.94.14.48-.8,1.11-1.72,1.11h-71.6c-.57,0-.95-.12-.92-.21l.16-.57v-28.24s17.74,0,17.74,0l4.84-7.44c3.54-5.33,7.01-10.74,8.58-17l3.33-13.24c.93-3.69,2.06-7.11,3.54-10.62s2.71-7.03,3.93-10.69c.87-2.61,2.2.03,4.07-1.36.06.25-.04.9-.27,1.31-.25.45-.28,1.02-.4,1.46-1.09,4.06.21.5-.85,5l-.36,1.51c-.18.77-.49,1.45-.53,2.42l-.54,1.35c.17,1.13.03,3.08-.28,4.06-.04.13-.78.19-.77.32l.09.86c.04.34.56.75,1.04.98l-1.96.39c.02,1.01.34,2.13.64,3.04l-1.02,2.72-.75.65c.05,1.67-.47,3.4-1.14,4.89.96,1.34-.45,5.27-.46,5.49l-.17,2.21-.67,2.08c-.33,1.03-1.34,1.94-.5,2.88-1.83.97.95,2.1-2.07,3.81-.43,1.1-2.55,4.16-3.62,4.92l.32,2.3c.02.18.51.66.4.8l-.58.68c.16,1.34-3.31,3.73-3.54,4.58-.05.17.65.49.71.33l.49-1.2.44.5c.49.55.33-1.37,1.71-1.85,1.24-.43,1.19-1.07,1.38-2.39l.71,1.51,1.42-1.26c-.67-1.64,3.44-2.8.6-3.01.57-.38.97-.75,1.19-1.33l.23-.6c.05-.12-.4-.29-.46-.41l-.28-.58c-.06-.12.37-.02.69.04l1.79-3.85c-.39-.47-.71-.85-.75-1.16s.57-.96.63-1.28c.11-.68.46-1.63,1.2-2.15-.58-1.06-.23-2.41.69-3.38l.03-1.09.54-.89c.14-.24-.22-.82-.43-1.15l1.09-2.74c-.05-.5-.07-1.14.08-1.51l.66-1.62-.53-.82,1.66-1.05c.11-.07.13-.76,0-.72l-.72.25s-.21-.31-.14-.36l.63-.42-.61-.15c-.13-.03-.02-.83.08-.73s.46.39.59.36c.36-.07.74-.93.74-1.31-.55.3-1.35.78-1.8.66-.18-.05-.1-.84.09-.84h.82c.23.02.65-.33.66-.55.02-.27-.18-.69-.44-1.19l1.11-.67-.19-.7c-.04-.16.97-1.01.92-2.86-.73-1.32-.58-2.74.35-3.88.52-.64.08-1.41.19-1.88l.62-2.68c.51-2.21-.11-.96.4-3.87,1.06-.64,1.01-2.29,1.32-2.12-.15-.08-.51-.24-.68-.29l-.53-.15c-.1-.03.17-.25.27-.32l1.17-.79c-.34-1.28.33-2.24.54-3.28.14-.71-.72-1.32-1.12-1.44-.34-1.39,1.05-1.14,1.68-4.12l.51-2.43-.35-.72c2.28-2.84.62-2.82.96-3.17l.68-.7c.14-.14-.31-.36-.75-.59l.73-1.18-.8-.54,1.37-1.4-.46-.65c-.09-.12.44-.43.48-.57.99-3.13-.02-2.74.93-6.52l.63-2.53c.09-.36.75-1.05.55-1.35-.48-.72-.54-1.57-.39-2.4.06-.37-.17-1.24.03-1.55s.73-.67,1.25-1.02c-1.33-1.9.4-1.68.25-5.21-.17-.36-.55-1.13-.6-1.3,1.25-.96,1.55-3.17,1.68-4.57l.25-2.68c0-.09.19-.48.21-.57s.02-.07.25.29c-.03.64.36.31.46-.14-.33-.32-.83-.88-.81-1.01l1.23-.19-.17-1.67c-.06-.19-.63-.21-.53,0-.03.51,0,.71-.11.71s-.38,0-.37-.11l.08-.48.68-3.98,1.58-1.1c-.49-.42-.88-.75-1.09-1.03-.68-.87,1.39-1.23,1.4-1.87,0-.4-.25-.92-.53-1.1l-.39-.25c-.07-.04-.04-.37.04-.36l.5.09,1.32-1.78-1.71-.66.84-1.71c.34-.7.39-1.31.03-2.04l.47-1.5,1.32-.53-.33,1.4.54-.41c.13-.1.42.18.69.35.52-.21.09-1.54-.44-1.65-.64-.13-1.48-.33-1.83-.43l.7-1.25c.08-.15.31-.48.4-.63s-.22-.43-.4-.65l.7-.87-.62-.28c-.13-.06.15-.42.24-.6-.09-.4-.27-.78-.21-1.04s.59-.75.8-.94l.27-.36c.06-.08.33-.25.35-.15l.1.5.09.47c.02.12.53.05.55-.07s0-.27,0-.44l.83-.56c.21-.14.03-.74.07-1.01l.06-.42c.02-.11-.19-.42-.27-.34l-.5.41-.43-.53c-.09-.12-.4,0-.83.06-.01.05.08-.4.13-.63.04-.19.35-.13.98-.03l-.3-2.86c-.66.88-.85,1.46-1.64,1.73l1.63-3.62.5.42c.12.1-.16.4-.29.59l-.25.37c-.04.06.07.31.13.27l.52-.31c1.45-.86-.03-2.03,1.32-3.65l.11-1.35c.02-.19,0-.44.09-.42l.54.14c-.78-1.72,1.25-1.59.53-2.48-.17-.21-.65.2-.62,0l.07-.49-.84-.31c-.18-.07.04-.68.13-.85.84-1.54,2.14-2.3,1.99-2.44l-.37-.35c-.09-.08-.35.36-.43.47-.34.05-.41.05-.85.16-.4-.21-.7-1.39-.06-1.96l-.82-.61,1.36-1.18.34,1.1c.07.23.93.06,1.03-.16.12-.28-.1-.61-.41-.85-.79-.62-.2-1.75.24-2.9l-1.1.22c-.27.05.03.88.05,1.16l-.78.3c-.62.23.25.04-.1,1.02-.02.05-.67-.35-.12-1.58l.81-1.8c.14-.39.18-.47.2.2.23.1.71.27.82.12l.58-.8c.77-1.06.93-2.46.77-3.7l-.42.37c-.09.08-.52.12-.49,0l.19-.65c.04-.13.15-.57.26-.56l.67.09c-.1-1.01-.06-1.97.18-2.88l-1.01.47c-.57.26,0,1.35-.55,2.11-.29.39-.21-.61-.39-.61h-.61c-.11-.01,0,.32-.08.4-.1.1-.64.02-.6-.12l.2-.69c.04-.12-.54-.08-.71-.08-.13-.22-.41-.72.13-.19l.53-.73.39.92c.69-.11,1.02-.94,1.47-1.29.86-.68,1.67-1.3,2.28-1.91-2.16-1.86-2.84,1.14-3.09-.75-.02-.13.32-.02.52.02l1.22-1.31c.55-.59,1.14-1.28,1.59-1.99.53-.86.34-2.43-.14-3.11-.19-.27-.41-.5-.45-.68-.04-.23.24-.71.42-.92,1.22-1.41-.25-.97,0-2.65.05-.36.73-.77,1.03-1.08l1.26-1.31c-.58-.35-1.67-1.3-1.88-1.92-.08-.24.64-.82.78-1.02l-.66-.49c-.17-.12.1-.55.22-.83.75-1.75,1.53-1.72,1.04-2.28-.18-.21-.68-.12-1.3.02l-.12-1.98c-.01-.19.28-.67.35-.85.08-.22-.69-.37-.84-.18l-.3.37c-.06.07-.41-.04-.37-.12.48-1.04,1.57-1.31,1-3.05l1.32-.32-1.07-1.14,2.06-2.41-1.61-.63.62-2.48c1.34-5.37,0-2.12.67-5.31.39-1.85.26-3.83.51-5.74l.61-4.56c.07-.53.19-.92.4-1.39l.75-1.63c-1.21-2.19.74-2.02-.48-4.1l1.18-.11c-.57-5.4.22-2.88.62-5.79.11-.78.44-1.86.4-2.54-.15-2.58.08-.5,1.37-4.55-.19-.25-.46-.56-.41-.73l.25-.75.3-.88.46,1.64c.06.2.8-.03,1.13-.13.12.95-.25,2.03-.55,3.05-.09.31-.1.78-.31,1.04-.56.69-.33,1.74-.52,2.48-.35,1.36-.68,2.52-.73,4.01-.02.46-.4,1.27-.54,1.68,0,.71-.1,1.54-.53,2.23l.03,1.24-.57,2.11c-.04.16-.39.54-.3.68l.45.75c-1.03.34-.53,1.32-.66,2.02l-.38,2.14c-.2,1.12-.23,2.05.04,3.27l1.01-.92.38.23c.08.05.31-.25.36-.35l.95-2.14-.7-.52c-.16-.12-.09-.77-.02-.97l.67-1.79c.13-.35.14-.92.11-1.42l1.14-1.62c-.77-.93-.73-2.12.2-2.98l-.59-.7c.17-.36.43-.99.63-1.55l.43-1.2-.43-.7c-.11-.18,1.43-4.23,2.47-4.47.22.96.2,1.49,1.16,1.59l-.43-2.41c-.49-.17-1.04-.4-1.07-.67-.03-.32.22-.91.4-1.26l-.35-.49c-.1-.14.03-.34.23-.9-.03-.02.11.09.51.41.4-.3,1.04-1.01,1.31-1.54-.86-1.14-.08-2.39,1.04-2.97l.47-2.36,1.05.03c.27,0,.63.71.47.93s-.44.66-.26.67l1.06.07c-.17-.57-.04-.12.04.14l2.08,1.63c.35.01.55.02.71.04.2.03.24.88.42.97l2.19,1.02.73,1.48c1.02.24,1.64.83,2.29,1.59,1.93,2.23,2.83,1.81,4.39,4.46.68.49,1.63,1.04,2.24,1.56,3.29,2.78,1.25,1.69,2.81,2.96l2.27,1.85,2.52,2.06,1.06,1.77c.34.57.96,1.02,1.38,1.55,2.35,2.97,1.88.96,2.56,2.82.05.15.25.07.71.03l1.11,1.57.78.4c.19.1.18.6.27,1.1l.88.58-.16.64c-.03.12.23.49.34.41l.63-.42.54-.36c.16-.1.56.34.57.53l.08,1.14c1.13,1.1,2.22,2.27,3.45,3.24,2.06,1.64-.2.34,2.45,2.83,1.16.18,1.57.89,2.13,1.74l.81,1.22,1.15.04c.27,0,.43.72.57.99l.72,1.34c.08.15-.03.63-.03.81-.02.36,1.46-.46,1.67-.07.55,1.05.07,1.7.78,3.21l1.75.57c.55.18,1.51.34,1.73.87,1.33,3.23,2.43,1.1,3.17,3.35,1.04,3.15,2.05,1.2,3.29,5.42l.27-.58c3.16,1.7,1.06,1.11,2.45,2.85.29.36.37,1.01.35,1.36,0,.08.14.36.21.33l.62-.24c.07-.03.27.29.2.34l-.51.43c.46,0,2.06.26,2.29.49.14.14.04.7-.09.85l-.35.42c-.08.09.29.21.39.14l.61-.47c.13-.1.49.21.68.32,2.12,1.17,1.52,2.02,3.58,3.8-.14.44-.32,1.19-.37,1.59.4-.25.62-.39.58-.37l1.32,1.06.79,2.03.25.06c.07.02.34.09.4.13l.59.44c.12.09.46-.48.59-.39l.89.57c.12.08.15.54.02.55l-.71.09c-.39.21-.78.42-.33.31,2.52,1.33,1.25.27,3.12,2.67l.88,1.14.29-.15c.16-.05.48-.17.42-.15l.92,1.52c-.14.08-.77.47-.65.65s.63.54.83.49l1.45-.35.21,1.61c.38.08,1,.19,1.14.44.16.29.17,1.01.16,1.37l.7.86c.26.32,1.19.29,1.35.79.58,1.79,1.98.96,1.42,3.12l.64.41c.15.1,0,.76-.04.67-.42,0-.63,0-.79.06s.17.76.04.87l-.92.76c1.94,1.83-1.91-1.07-.56-.02l-.34-.27c-.07-.05.27-.16.43-.23.22-.09.7-.49.62-.72s-.36-.65-.58-.92c-.16-.2.3-.54.65-.77l-.26-1.12-1.53,1.68c-.05.06-.16.45-.16.53s-.2-.27-.25-.36c-.39-.75-1.12-.93-2-.63l-.2-2.06c-.14.39-.14.5-.2.85l-.36-.13c-.1-.04-.21.21-.2.34v1.4c.75.18,1.71.67,1.81,1.19.01.07-.07.51-.08.51,0,0,.21.05.38.09l.72.16c.19.04.28.54.19.63-1.65.52-.26,1.8-1.89.84-.14-.56-.13-.49-.06-.07l-.04.63c-.01.17-.66.19-.73.15.22-.62.11-1.24-.23-1.81l.27-.32c.08-.1.13-.51,0-.49-.17.03-.61.13-.66.24l-.64,1.23c-.1.2-.17.39-.16.5.02.15.42.07.73.01l.9,1.09c.78.41,1.16.73,1.79,1.47.21.25.82-.32.99-.78l.44-.05.23.62c.03.09.27-.07.47-.17.28-.24.45-.57.06-.45-.37-.28-.51-.34-.46-.41l.28-.38s.18-.11.33-.19c1.2-.66.21-1.4,1.33-1.69.11-.03.37.37.27.46-.95.81-.44,1.61-1.33,3.45l-1.17.31c-.27.07-.09.81,0,1.09l.19.66c.05.16.37.11.51.03l.42-.22c.07-.04-.01.31,0,.38l.29,1.08c.21.77.75,1.5,1.44,1.87l.51-.97c.11-.21-.53-.44-.65-.64l-.35-.77c-.08-.18.65-.62.76-.47.18.25.49.57.71.58.25.01.76-.08.75-.29l-.07-.92,2.12-.27c.09-.28.02.04-.09.46-.37.09-1.33.34-1.51.72-.36.72.33,1.71.9,2.02l.63-.38c.14-.08.49.1.73.23l-1.25,1.69.51.54c.1.1-.37.27-.51.27h-.36c-.85.01.42,1.14,1.83,1.29.18.02.53.01.49.08l-.25.38c-.28.41-.84.92-1.23.87l-.41-.05c-.07,0-.26.2-.22.25l.4.43c.49.53,1.23.92,1.87.93l.05-.96c0-.08.54-.03.51.04l-.14.35c.09.17.18.44.29.44h.71c.12.02.38.41.45.51s.57-.17.52-.29-.15-.33-.19-.46l-.15-.53-.34.27c-.06.05-.22-.16-.28-.27l-.29-.48c-.06-.09.2-.29.37-.47,0-.04-.23-.39-.35-.35l-.77.24c-.16-.64-.1-1.61.43-2.15,1.02-1.05.13-2.27.59-1.7.05.07.22.17.22.25l.04.43c.04.43.53,1,.92,1.31.02.05.12.4.13.46.03.12.41.2.47.09s.2-.42.12-.5c-1.59-1.53-.17-.78-.97-2.09-.62-1.01-1.44-2.02-2.88-1.68l-.09-.74c-.03-.23.65-.39.8-.6l1.18-1.69c.26.44.59.86,1.03,1.27l1.02.94c.4.37,1.46.73,2.04,1.1.36.22.09,1.33-.06,1.74l1.16.7c-.8.46-.84,1.47-.24,2.18.11.22.21.44.19.39-1.19-.18-1.87-.24-2.42.45l-1.61-.78c-.04-.5-.09-.36-.18.2l.6.44c.49.35-.51,1.64.09,2.12l.3-.33c.06-.07.31-.25.33-.17s.1.42.06.5l-.45.85c-.12.22.39.51.69.8-.18.47-.08.43.39,0-.05-.34-.16-.81-.24-1.09l1.26-.52c-.14.63-.09.9.21.55l.6-.91c.12-.18.62.02,1.02.09l.43-.68c1.36-.42,1.04-3.2,1.45-1.65l.62,2.39c.02.06-.45.28-.39.31,1,.53.55,1.25,1.62,1.51.27.06.7.06.71.21l.08.76c0,.09.1.46.18.44l.53-.13c.36-.08.81.76.92,1.11.19.64.47-.25,1.12.35,3.18,2.98,0,1.35,3.09,3.39.2.23.04,1.02-.13,1.29l-.27.42c-.24.39,1.75-.51,1.68.28-.11,1.17.27,2.19,1.43,2.52l.95,1.17c.15,2.53,2.09.73,3.13,3.69.48,1.36,2.06-.73,3.05,4.15.23.03.77.05.76.17l-.03.65c.85.19,1.46.96,1.62,1.83.03-.09.66-.54.81-.39l1.64,1.67c-.18,1.56,2.39,4.25,3.44,5.24.23.22.58.86.87,1.04.63.39.81.96.97,1.71l.15.67c.04.16.41.02.8-.08l.7,1.58.18.4c.04.1.16.04.52,0,.64.28.98,1.22,1.44,1.82l1.22,1.59,1.76,2.39c.53.71,1.42,1.73,2.01,2.44.14.17.63.45.8.57s-.15.73-.04.9l.93,1.37c.96,1.42-1.02,0,1.76,1.54l.28.21c.05.04.17-.11.42-.35l.87,2.04.83.34c.15.06,0,.44-.19.66-.43.49-.95-.19-1.38.1-.1.07-.24.29-.14.36l.54.33c.06.04.26.25.32.31.04.04,1.14-.76,1.24-.29l.25,1.27,1.43-.12c.95,1.52.79,5.05,1.62,4.91l.58-.1c.06.27.06.35.11.35h.42c.26.52.56.82.98,1.18,1.1.95,1.89,2.36,2.73,3.53l-.25.36c-.04.05-.14.22-.14.22,0,0,.14.19.24.33l.63-.47c.06-.04.43-.02.43.04l-.06.48c2.55,1.48.81,2.41,2.48,3.5.93.6.8,1.73.39,2.48.12.43.35,1.06.35,1.67v95.36s-58.96.03-58.96.03c-.85,0-1.34-.09-1.81-.64l-1.69-3.29c-.08-.15-.41-.51-.48-.4l-.33.53c-.1.12-.2.23-.13.15l-.55-.21.04-1.2-.42.36-.58,1.81c-1.22.51-2.13.12-2.8-.77l-.52.23c-.21.09-.66-.08-.7-.6l-.03-.33c0-.1-.33-.1-.43-.08l-.58.08c-.61-.97-1.81-1.11-2.65-1.67l-2.19-1.48c-.63-.43-2.39-.41-2.9-.74l-2.04-1.34c.67.44-3.36-1.45-2.97-.89-.86-.48-2.47-1.19-3.34-1.47-.15-.05-.4-.53-.53-.63-.16-.12-.63.06-.84-.02l-3.95-1.54c-1.93-.76-1.96-1.41-3.64-1.42-.6,0-.96-1.01-1.37-1.19-1.16-.52-2.54-1.12-3.7-1.55-.97-.36-1.57-.38-2.4-1.08-.6-.51-3.18-.63-4.52-2.77l-.33-.04c-.96-.12-.67-.61-1.03-.56l-1.01.15-.54-1.2-1.06.62-.28-.97c-.07-.23-.58-.34-.92-.42l-1.37-.32c-1.36-1.39-5.32-3.09-7.26-3.03l-.74-.87c-.2-.24-.93-.13-1.36-.07,0-.2-.37-.95-.69-1.02l-2.15-.5-3-1.86c-.55-.34-.91-.61-1.52-.78-.97-.28-1.97-.59-2.93-1.02l-1.49-.65c-2.52-1.1-2.34-1.23-4.55-2l-1.24-.43c-.58-.2-1.26-.5-1.89-.55-2.51-.2-.29-.71-2.75-1.71l-3.4-1.38-.89-1.02c-.49-.57-.77-1.14-.62-1.98l-1.22-1.06-.7.51c-.13.09-.43-.37-.32-.48s.42-.4.57-.38l.47.07c.08.01.12-.25.08-.32l-.22-.34-.62-.96c-1.02-1.58.47-1.26-.52-2.64-.11-.16.4-.55.44-.74l.46-2.06-1.13-.18c-.17-.03-.35-.06-.26-.04.19,4.27-2.8.16-2.23,6.61-.26.08-.7,0-.69.17.16,2.69-.48.15-.41,2.72l.05,1.85c0,.1.2.35.24.44s-.21.33-.31.39c-1.56,1.02-1.29,1.66-1.81,3.88l-.79,3.33c-.44,1.86.46.81-.75,4.16l-.58,1.24-.46,1.46c-.17.54.17,1.72-.08,2.32-.1.23-.66.5-.63.72l.11,1.06c-1.33,1.9-.31,1.61-1.02,3.6l-1.28,3.58ZM176.24,17.07c-.13-.37-.9-.7-1.15-.45.43,1.15.33,1.57.85,1.62.17.02.63-.22.58-.38l-.28-.78ZM179.88,33.58c.16-.68-.04-1.34-.37-1.39-.73-.11-1.03.54-1.23.51,0,0,.12.26.19.43.2.45,1.27,1.02,1.41.45ZM175.02,67.28c-.74.16-1.25.4-1.13.6l.41.71.49-1.02.15,1.32,1.01-2.56c.08-.21-.17-.84.01-.94l.98-.54c.13.07-.2-.45-.38-.46l-.73-.02c1.28-1.2,2.59-2.69,2.76-4.51.28-2.88,1.44-1.55,1.31-3.99-.32.08-.6.19-.6.1-.02-.73-.14-.36-1.13-1.55-.91.1.23,1.82-.37,1.77l-.59-.05c-.1,0-.26.2-.18.25l.36.24c-.07.3-.14.97-.25,1.25l-.95,2.33,1.79-.68c.05-.08-.02.58-.16.72l-1.44,1.45c-.19.02-.59-.03-.66.11l-.31.61c.23.08.79.27.69.38l-.47.57c-.07.08-.17-.08-.45-.35l-.07,1.22c-.51.95-.49,2.16-.09,3.01ZM170.76,60.04l-.43-1.13-.65-1.08-1.22-.02.17.77c.04.18-.4.32-.71.52.11.11.4.36.57.33l.6-.12.96,1.49.71-.73ZM169.15,66.9l-.12-1.06c.08-.33-.05-.61-.32-1.01l-1.22,1.06.55,1.16,1.1-.14ZM167.67,70.2c.76-.4,1.17-1.1,1.08-1.53-.06-.3-.3-.75-.43-1-.33,1.7-1.16.83-.65,2.53ZM174.29,72.21l1.1-1.18-.83-.11c-.08-.01-.08-.05-.02-.12l.3-.33-.93-.48-.98,1.3c.12.05.85.26.78.48l-.27.94c-.04.13.4.16.47.05s.27-.45.37-.55ZM168.66,71.39l.54-1.17-1.47.26c-.13.02-.51.03-.65.03s-.14.44-.12.58.27.43.33.34c.19-.25.45-.62.5-.49l.2.52c.03.09.22.22.31.26s.32-.21.37-.32ZM246.98,75.2c.15-1.06-.98-1.81-1.65-1.97-.26-.06-.63.51-.57.74.17.62,1.5,1.55,2.22,1.22ZM167.04,76.05l.56.87c.93-1.86.98-1.01-.03-3.25l-.44.77c-.07.12.37.33.5.41l-.66,1.15c-.41.17-.83.38.08.06ZM168.57,88.43l1.66-1.98-.92-1.77c.7.01,1.05.05,1.42-.22.41-.3.39-.66.52-1.17.15-.59.94-1.15.6-1.91l-.57.94-.95-1.57.58-.77c.13-.17.03-.56-.14-.87-1.04.68-1.16,1.68-1.3,2.85l-.1.91-1.18,2.38c-.17.34-1.21-.26-1.12-.61.17-.64.43-1.59.44-2.04-1.68-1.13,1.04-2.57.89-2.84l-.41-.71.36-.88-1.31.09c.03-.29,0-1.57-.38-1.5-.4.16-.88.44-1.05.61s.14.84.37.88c.2.04.44.04.89.07.33.02.34.85.32,1.34l.84.13c-.7.75-1.77.16-2.46.13-.25.04-.38.99-.22.97l.64.3c.15.07-.22.65-.36.71-.83.35-.4.31-.68,2.28-.67,4.76-2.03,4.6.27,6.42-.6.41-1.28.88-1.55,1.21l.73,2.31.93-1.06,1.09-1.23c-.35-.28-.62-1.66-.16-1.99.41-.29.82-.41.85-.65l.13-.99,1.32.22ZM252.43,83.48l-1.51-.67-.67.24c-.14.05-.48-.29-.47-.45.01-.13.02-.52-.08-.49-.11.02-.12,0-.16.06l-.23.36-.32.49c-.04.06-.14-.18-.18-.26l-.12-.25c-.43.18-.45.69-.12,1.03.17.18.63.2.96.17l2.9-.23ZM256.6,89.39l.47-.13c.31.43.65.77.82.65l.74-.52-2.1-1.59s.49-.55.34-.7l-.99-.97c-.12-.12-.6-.47-.71-.34s-.39.44-.37.41c.55.12.9.16.88.31l-.08.45.47.64c.11.15-.15.29-.6.52l.39,1.12c-.4.5-.47,1.39.03,1.94.59-.22.8-.81.7-1.81ZM253.63,89.85l.06-2.02c-.07-.11-.54-.35-.52-.51l.09-.9-1.38.94.82.38-.47,1.87c.05.34,1.32.54,1.4.24ZM169.47,92.02c.43-.49.64-.65.58-.76l-.32-.53c-.17-.28-.32-.51-.43-.66s-.74.42-.65.56l.83,1.38ZM257.68,94.39c.19-.57.33-1.02.34-1.25l-.28-1.31c-.06-.1-.76.17-.85.39-.07.19-.08.63.02.81l.77,1.36ZM168.83,94.2c.33.1.67.22.69.05l.06-.75-2.43-.33.7.49c-.06-.05-.61.7-.4.86.17.14.57.32.72.38-.1-.44-.28-.98-.11-.93l.78.24ZM165.32,96.34c.17.07.9-.29,1.13-.56.2-.25.15-.99-.13-1.15-.2-.11-.88.23-.89.46l-.1,1.25ZM169.02,99.35c.15.05.68-.47.58-.7l-.36-.86c-.51.37-.9.53-1.25.37-.22-.1-.12-.62-.15-.99-.11-.17-.61-.48-.82-.55s-.63.39-.56.59l.27.74c.07.2.06.64.11.85.15.53,1.6.03,2.16.56ZM258.68,101.59l.69.25c.11.04.15-.28.13-.39l-.08-.34c.03-.49.09-1.03-.14-1.27-.25-.27-.95-.39-1.14-.29.3.25.63.39.62.56l-.02.59c0,.11.2.46.18.57s-.13.21-.23.33ZM218.84,122.63c.58.32,1.63,0,2.16-.22l4.01.99c.24.06.66.68.85.57l.85-.5c1.48,1.4,4.26,1.33,6.91,2.2.49.16,3.45.96,3.8,1.02l3.15.52c3.37.55,3.73.87,6.67,1.34,4.27.68,4.51,1.13,7.6,1.72l3.99.76,6.64,1.37c.89.18,1.88.51,2.49.98,2.2-.24,1.56.85,3.52.36l.93-.23c.23-.06.16-1,0-1.17-.46-.46-1.65-.66-2.39-.68l-2.01-.69-2.03-.16-3.26-.85c-1.57-.41-2.84-.56-4.5-.82l-3.73-.59c-.43-.07-.88-.61-1.34-.56-1.68.18-2.96-.16-4.5-.54l-2.11-.52c-1.11-.27-2.56-.03-3.6-.53-.52-.25-.98-.47-1.52-.59l-2.93-.64c-.64-.14-1.24-.53-1.85-.78-1.04-.42-2.53-.23-3.56-.75-4.08-2.09-3.22-.52-6.45-1.78-.38-.15-.67-.14-1,.09-1.92-.71-3.89-1.33-5.98-1.77l-1.94-1.21c-.29.18-.54.4-.7.37s-.56-.3-.72-.32l-1.69-.21c-.57-.37-1.19-.67-1.86-.83l-6.72-1.61-1.1.11c-.89-.54-2.06-.63-3.03-.47l-.54-.63c-.11-.13-.61.14-.75.06l-1.09-.72c-.45-.3-1.7-.09-2.25-.21l-3.78-.84-2.19-.59-3.41-.73c-1.7-.37-2.51-.57-4.32-.78-1-.11-2.18-.79-3.16-.63-.19.03-.62.43-.75.31l-.63-.53c-.18-.15-.67-.64-.85-.49s-.46.44-.72.71l-.83-.72c-.12-.1-.26-.5-.41-.52s-.55,0-.7-.02l-1.94-.36c-.4-.07-1.23-.46-1.5-.74l-1.54-1.56c-.2-.21-.41-.54-.59-.53l-.93.07,1.22-1.45c.14-.65-1.03-1.5-1.61-1.85-.06-.13-.06-.6-.2-.58l-.75.13.5-2.01c-.2-.1-.51-.19-.5-.29l.04-.61c0-.17-.68-.26-.67-.07l.04.7c.09,1.56-1.42,2.12-1.08,2.42l.79.71c.38.25.27.33-.26.21l-1.32,1.28,1.9,1.76c.1.09.36.18.47.24-.69-.4,1.52,1.65.21,3.17-.15.17.58.48.64.28l.26-.84c.08-.26.3-.69.52-.73s.7.29.6.48l-.41.77,1.73-.15c-.1.88-.27,1.79.86,2.1l-.09-1.22c.09-.03.68-.04.77.13l.28.55,1.11-.2c-.21.53-.48.78-1.04,1.09l1.27,1c.36-.21.55-.33.7-.39s.57.3.74.27c.74-.1,2.44.02,2.3,1.45l-1.55-.86c-.1-.06-.36-.56-.43-.47s-.44.29-.37.39l.35.47.55.74c.09.12.41-.14.58-.22.5.34,1.04.27,1.59-.12.3-.21.89-.56.79-.82l-.49-1.28,1.03.04c.25.01.76.46.65.68-.51,1.01-.18-.25-1.07.95-.06.07.34.23.39.15l.23-.33,1.29.34c-.11-.71.49-1.46.95-1.34.24.06.4.71.28.9l-.39.56c-.04.06.28.41.31.34l.21-.39c.1-.19.53-.71.71-.58l.7.51c.2-.27.55-.91.86-.91s.94.2,1.26.23l2.1.2c.54.05,1.62-.35,2.04.28.16.24.27,1,.54,1.06.24.06.82-.03,1.03-.15l.87-.48c.19-.1.58.17.84.29.14.06.23.38.28.59.03.14-.22.19-.63.22.03.73-.72,1.59-1.8,1.41l.8,1.84c.08.18.63.52.66.36.52-2.2-.33-1.17.89-2.53.19-.21.29-.83.53-.88.56-.14,1.93-.23,1.89.29-.02.21-.08.68-.13.89l-.2.86c-.03.13-.59-.16-.74-.17-.28-.01-.03.86.25.93.23.06.7-.24.82-.46l.74-1.37c.75-.07,1.09-.54,1.41-1.14.76.69,1.27,2.22,2.53,1.54.23,0,.71-.11,1.12-.22.67.63,1.72,1.12,2.66.69l1.03.71-.88.6c.21.09.79.45.98.28l.73-.69c.19-.18.8,0,1.02.16.66.47.35,1.81.84,1.48l.66-.45c.23.32-.2,1.09-.44,1.34l.71,1.26s.25-.32.41-.3l.96.11c-.12-.99-.48-2.06-.85-3.04l1.14.45c2.07.81,2.29.69,4.56.63l-.05.83c-.02.35.89-.23,1.75.84l.89-.4c.16-.07.28.77.44.85ZM163.07,105.28l.19-2.84c.04-.64.04-1.02-.22-1.81l-.86,1.32-.67.2c1.58,2.3.26,1.24,1.56,3.14ZM162.71,109.45l-1.04-.55.2-.86c.04-.17-.31-.4-.59-.62-.71.28.03,2.61.42,2.54.24-.04.65-.28,1.01-.51ZM278.12,116.88c.42.7,1.77.61,2.52,0l.95-.78c-.29-.47-.51-1-.65-1.52l-.63.53c-.28.24-1.16-.64-.83-2.29l-1.32-1.51c-.61.75-1.01,1.51-1.44,2.43.4.42.87,1.06,1.08,1.49l-1.12-.05.76.63c.15.12.48-.23.75-.46l.25.74c.05.16-.43.63-.33.8ZM282.73,116.63c.14,0,.39-.47.32-.42-.35-.21-.58-.31-.59-.45l-.06-.57-1.03,1.8c-.09.15-.2.4-.12.49s.35.25.39.15l.19-.43.26-.58c.05-.12.44.02.65,0ZM190.35,118.98c-.05-.15-.34-.45-.25-.57l.36-.5c.11-.15.35-.61.2-.72l-.55-.43-1.29,1.38.87,1.09c.18.23.28.35.39.46.07.07.46-.09.43-.18l-.16-.52ZM155.61,119.55c1.23-1.54,1.2-1.79.69-2.33-.48-.51-1.05,1.8-.69,2.33ZM284.13,117.86c-.4-.75-1.76-.81-1.94-.12l-.22.82c-.04.16.6.24.7.11.07-.09.07-.12.27-.5l1.19-.3ZM279.66,120.03l.23-1.31c-.79-.68-1.63-.52-2.49.2l.26,1.28c.46-.34.93-.74,1.19-.62.23.11.6.32.82.45ZM199.43,120.49l-.73-1.85c-.12.21-.49.86-.64,1.18-.1.21.26.7.47.79s.75-.05.91-.12ZM202.07,122.28l1.07-.04,1.14-1.05.4-1.75-1.58.33-2.08.97,1.46.71-.42.83ZM284.75,124.33l.22-2.46-1.27.55c.29.65.52,1.14,1.04,1.92ZM151.75,146.41c.41-.29.76-1.39.42-1.97l-.87,1.01c-.09.11-.17.54-.2.67s.53.38.65.29ZM150.68,150.43l.22-1.81c-.67.08-1.28.23-1.63.74.43.17.72.1.83.24l.58.83ZM149.74,157.13l.46-.67c.07-.1-.24-.37-.25-.25-.99.44-1.76,1.2-1.08,2.32l.87-1.4ZM323.01,167.18l.65-1.75-.53.4c-.06.05-.11-.02-.15-.1l-.27-.53-.14,2.63c0,.17.55.05.53-.09-.01-.1-.05-.45-.08-.57Z"/>
  <path d="M152.41,116.18c-.05.66-.77,1.97-.48,2.55.06.11.55.31.67.34-.16-.04-1.41,2.52-1.25,3.13l.4-.34c.05-.05.38.2.36.27l-.36,1.59c-.29,1.3-.35,2.32-.85,3.46l-.31.7c-.74-.69.79-2.41.27-2.76l-.65-.43.7-2.92c.06-.27-.38-.82-.61-.77-1.2.26.13,1.37-1.21,1.25-.15-.01-.08-.46-.04-.67.84-5.33,1.95-10.43,3.19-15.68.39-1.64.72-3.35.74-5.02l.19-12.09c.04-2.53.19-5.01.08-7.55-.08-1.88-.32-3.5-.08-5.44.32.52.35.67.59,1.33l1.76-.29-.28-1.84c.61,1.02,1.27,1.67,2.38,2.11l-.02,1.05c0,.2-.26.11-.75.23l.76,2.55c.1.34.02,1.13.03,1.47l-.67,2.61c-.25.98-.27,1.96-.24,2.93-.05.42-.16,1.3-.25,1.7l-.91,4.25-.47,2.41c-.04.23-.32.67-.34.89s.27.54.52.94l-.54,1.27c.2.38.47.83.47,1.1s-.53.56-.91.78l.12.88c-.88,3.03.46.8-.54,4.51-.13.47-.11,1.49-.23,1.99-.05.21-.6.6-.54.81l.32,1.09c-.35.5-.65,1.13-.71,1.79l-.32,3.8Z"/>
  <path d="M141.16,181.5c-.34.13.74.9.65,1.54-.03.23-.39.62-.54.84.06.73-.29,2.5-.73,2.81-.63.43-1.72-.33-3.16-.05l1.41-5.51c.64-2.5,1.02-4.93,1.19-7.47l.16-2.48c.14-2.18.4-4.22.84-6.41.16-.79,3.4-2.26,4.42-1.4-.91,1.57-1.17,2.99-1.37,4.62l-.21,1.78c-.06.46-.44,1.36-.58,1.88.1,1.92-.38,3.73-1.36,5.18l.61,1.46c-.68.83-.72,1.87-.45,2.86l-.88.35Z"/>
  <path d="M267.43,99.97l-.54-.87h-.67c-.16.01-.38-.34-.53-.52l-.61.71,1-3.77-.77-1.02.39-.52c.1-.14-.04-.39-.16-.95l.92.48c.59.31-.07,1.58.3,1.77.14.07.5,0,.78,0,.41.01.63,1.05.8,1.43.07.16.67.19.82.28s-.28.56-.44.7l.7.51c-.51.08-1.12.12-1.36.3s-.3.61-.65,1.46Z"/>
  <path d="M144.31,159.96l-2.78,1.84c.05-.66.24-2.11.81-2.46l2.02-1.22c.29-.14,1.25.39,1.32.77l.17,2.11-1.54-1.03Z"/>
  <path d="M156.95,74.06l.17-2.34c.82-.24,1.05-.93,1.04-1.65l.93-.22c.56-.13-.16-1.55.18-1.71l.77-.35c-.36,2.34-1.19,3.1-1.31,4.28l-.22,2.24-.42-.44c-.12-.13-.49.02-1.14.18Z"/>
  <path d="M145.03,151.85l-.86-.2c-.19-.04-.28-.65-.17-.79.12-.06.63.19.71.05l.51-.88c.2-.35,1.07-.15,1.41.13.37.3.6,1.36.27,1.65-.35.31-1.38.15-1.88.04Z"/>
  <path d="M160.14,63.7l-1.52-1.26c-.1-.42.59-1.22.77-1.61l.38-.8c.1-.22.83-.17.9.06s-.06.78-.19.98l-.44.65c-.09.13.48.33.73.46l-.64,1.51Z"/>
  <path d="M277.97,108.81l-.77-.31c-.13-.05,0-.53-.08-.64l-.43-.6c-.09-.13.25-.53.36-.64.37.27.87.64,1.01.9.16.3,0,1.03-.09,1.29Z"/>
  <path d="M166.61,18.43l-1.31-.89,1.29-1.16c.12.74.13,1.37.02,2.04Z"/>
  <path d="M271.1,100.45c-.74.34-1.58.35-2.16-.03l1.35-.89.81.92Z"/>
  <path class="cls-1" d="M218.84,122.63c-.16-.09-.28-.92-.44-.85l-.89.4c-.86-1.07-1.77-.49-1.75-.84l.05-.83c-2.27.05-2.49.17-4.56-.63l-1.14-.45c.37.99.72,2.05.85,3.04l-.96-.11c-.16-.02-.43.29-.41.3l-.71-1.26c.24-.25.67-1.03.44-1.34l-.66.45c-.49.33-.18-1.01-.84-1.48-.22-.15-.82-.35-1.02-.16l-.73.69c-.19.18-.77-.18-.98-.28l.88-.6-1.03-.71c-.95.43-2-.05-2.66-.69-.42.11-.89.21-1.12.22-1.25.68-1.76-.85-2.53-1.54-.32.6-.66,1.07-1.41,1.14l-.74,1.37c-.12.22-.6.52-.82.46-.28-.07-.53-.94-.25-.93.15,0,.71.3.74.17l.2-.86c.05-.21.11-.68.13-.89.04-.52-1.33-.43-1.89-.29-.24.06-.34.68-.53.88-1.22,1.36-.37.34-.89,2.53-.04.16-.59-.19-.66-.36l-.8-1.84c1.08.18,1.82-.68,1.8-1.41.4-.04.66-.08.63-.22-.05-.21-.14-.53-.28-.59-.27-.11-.66-.39-.84-.29l-.87.48c-.21.12-.79.21-1.03.15-.27-.06-.38-.82-.54-1.06-.42-.63-1.49-.23-2.04-.28l-2.1-.2c-.32-.03-.95-.22-1.26-.23s-.66.64-.86.91l-.7-.51c-.18-.13-.6.38-.71.58l-.21.39c-.04.07-.35-.28-.31-.34l.39-.56c.13-.18-.04-.84-.28-.9-.46-.11-1.06.64-.95,1.34l-1.29-.34-.23.33c-.05.08-.45-.08-.39-.15.89-1.2.56.06,1.07-.95.11-.22-.4-.67-.65-.68l-1.03-.04.49,1.28c.1.26-.49.61-.79.82-.55.38-1.09.46-1.59.12-.18.08-.5.34-.58.22l-.55-.74-.35-.47c-.07-.1.3-.29.37-.39s.33.41.43.47l1.55.86c.14-1.43-1.56-1.55-2.3-1.45-.16.02-.59-.33-.74-.27s-.34.17-.7.39l-1.27-1c.57-.31.84-.56,1.04-1.09l-1.11.2-.28-.55c-.09-.17-.68-.17-.77-.13l.09,1.22c-1.13-.31-.96-1.22-.86-2.1l-1.73.15.41-.77c.1-.19-.38-.53-.6-.48s-.44.48-.52.73l-.26.84c-.06.2-.79-.11-.64-.28,1.31-1.52-.89-3.57-.21-3.17-.1-.06-.37-.15-.47-.24l-1.9-1.76,1.32-1.28c.53.12.64.05.26-.21l-.79-.71c-.34-.31,1.17-.87,1.08-2.42l-.04-.7c-.01-.19.68-.1.67.07l-.04.61c0,.11.3.19.5.29l-.5,2.01.75-.13c.14-.02.14.45.2.58.59.35,1.75,1.19,1.61,1.85l-1.22,1.45.93-.07c.18-.01.39.32.59.53l1.54,1.56c.28.28,1.11.67,1.5.74l1.94.36c.15.03.55,0,.7.02s.28.41.41.52l.83.72c.26-.27.55-.56.72-.71s.66.34.85.49l.63.53c.14.12.57-.28.75-.31.98-.16,2.16.51,3.16.63,1.81.21,2.62.41,4.32.78l3.41.73,2.19.59,3.78.84c.56.12,1.8-.08,2.25.21l1.09.72c.13.09.64-.18.75-.06l.54.63c.97-.17,2.15-.08,3.03.47l1.1-.11,6.72,1.61c.67.16,1.29.46,1.86.83l1.69.21c.16.02.56.3.72.32s.41-.19.7-.37l1.94,1.21c2.09.44,4.05,1.06,5.98,1.77.33-.23.61-.24,1-.09,3.23,1.27,2.36-.3,6.45,1.78,1.03.52,2.52.33,3.56.75.61.25,1.22.64,1.85.78l2.93.64c.54.12,1,.34,1.52.59,1.04.51,2.49.26,3.6.53l2.11.52c1.53.38,2.81.72,4.5.54.46-.05.9.49,1.34.56l3.73.59c1.66.26,2.93.41,4.5.82l3.26.85,2.03.16,2.01.69c.74.02,1.93.22,2.39.68.17.17.23,1.11,0,1.17l-.93.23c-1.95.48-1.31-.6-3.52-.36-.62-.47-1.6-.8-2.49-.98l-6.64-1.37-3.99-.76c-3.09-.59-3.32-1.04-7.6-1.72-2.94-.47-3.3-.79-6.67-1.34l-3.15-.52c-.35-.06-3.31-.86-3.8-1.02-2.65-.87-5.43-.79-6.91-2.2l-.85.5c-.19.11-.61-.51-.85-.57l-4.01-.99c-.53.21-1.58.55-2.16.22Z"/>
  <path class="cls-1" d="M168.57,88.43l-1.32-.22-.13.99c-.03.24-.44.36-.85.65-.46.33-.19,1.71.16,1.99l-1.09,1.23-.93,1.06-.73-2.31c.27-.34.95-.81,1.55-1.21-2.31-1.82-.95-1.66-.27-6.42.28-1.97-.15-1.93.68-2.28.15-.06.51-.64.36-.71l-.64-.3c-.16.01-.03-.94.22-.97.69.03,1.76.62,2.46-.13l-.84-.13c.02-.49,0-1.32-.32-1.34-.46-.03-.7-.04-.89-.07-.24-.04-.54-.72-.37-.88s.65-.44,1.05-.61c.37-.07.42,1.21.38,1.5l1.31-.09-.36.88.41.71c.15.27-2.57,1.71-.89,2.84-.02.45-.27,1.4-.44,2.04-.1.35.95.95,1.12.61l1.18-2.38.1-.91c.13-1.17.26-2.17,1.3-2.85.17.31.26.71.14.87l-.58.77.95,1.57.57-.94c.34.77-.46,1.33-.6,1.91-.13.52-.11.87-.52,1.17-.37.27-.72.23-1.42.22l.92,1.77-1.66,1.98Z"/>
  <path class="cls-1" d="M175.02,67.28c-.41-.85-.43-2.06.09-3.01l.07-1.22c.28.26.38.43.45.35l.47-.57c.09-.11-.47-.3-.69-.38l.31-.61c.07-.14.47-.09.66-.11l1.44-1.45c.15-.15.22-.8.16-.72l-1.79.68.95-2.33c.11-.28.18-.95.25-1.25l-.36-.24c-.08-.05.08-.26.18-.25l.59.05c.6.05-.54-1.67.37-1.77.99,1.19,1.11.82,1.13,1.55,0,.09.28-.03.6-.1.13,2.44-1.03,1.11-1.31,3.99-.17,1.82-1.48,3.31-2.76,4.51l.73.02c.18,0,.51.53.38.46l-.98.54c-.19.1.07.73-.01.94l-1.01,2.56-.15-1.32-.49,1.02-.41-.71c-.12-.2.39-.45,1.13-.6Z"/>
  <path class="cls-1" d="M278.12,116.88c-.1-.17.38-.64.33-.8l-.25-.74c-.27.24-.6.58-.75.46l-.76-.63,1.12.05c-.21-.43-.69-1.07-1.08-1.49.43-.92.83-1.69,1.44-2.43l1.32,1.51c-.33,1.65.54,2.52.83,2.29l.63-.53c.13.53.36,1.05.65,1.52l-.95.78c-.74.61-2.1.7-2.52,0Z"/>
  <polygon class="cls-1" points="202.07 122.28 202.49 121.45 201.03 120.75 203.1 119.78 204.68 119.45 204.28 121.19 203.14 122.24 202.07 122.28"/>
  <path class="cls-1" d="M256.6,89.39c.1,1-.11,1.59-.7,1.81-.49-.55-.43-1.44-.03-1.94l-.39-1.12c.45-.23.71-.38.6-.52l-.47-.64.08-.45c.03-.15-.33-.18-.88-.31-.03.03.25-.28.37-.41s.59.22.71.34l.99.97c.15.15-.29.74-.34.7l2.1,1.59-.74.52c-.17.12-.51-.22-.82-.65l-.47.13Z"/>
  <path class="cls-1" d="M169.02,99.35c-.57-.53-2.02-.03-2.16-.56-.06-.2-.04-.65-.11-.85l-.27-.74c-.08-.21.35-.67.56-.59s.71.38.82.55c.03.37-.07.89.15.99.35.16.74,0,1.25-.37l.36.86c.1.24-.43.75-.58.7Z"/>
  <path class="cls-1" d="M163.07,105.28c-1.3-1.9.03-.83-1.56-3.14l.67-.2.86-1.32c.26.8.26,1.18.22,1.81l-.19,2.84Z"/>
  <path class="cls-1" d="M170.76,60.04l-.71.73-.96-1.49-.6.12c-.17.03-.46-.22-.57-.33.31-.19.75-.34.71-.52l-.17-.77,1.22.02.65,1.08.43,1.13Z"/>
  <path class="cls-1" d="M253.63,89.85c-.08.3-1.35.1-1.4-.24l.47-1.87-.82-.38,1.38-.94-.09.9c-.02.16.45.4.52.51l-.06,2.02Z"/>
  <path class="cls-1" d="M252.43,83.48l-2.9.23c-.33.03-.79,0-.96-.17-.33-.34-.31-.85.12-1.03l.12.25c.04.08.14.32.18.26l.32-.49.23-.36c.04-.06.05-.04.16-.06.1-.02.1.37.08.49-.02.16.33.5.47.45l.67-.24,1.51.67Z"/>
  <path class="cls-1" d="M279.66,120.03c-.22-.13-.59-.34-.82-.45-.26-.12-.73.28-1.19.62l-.26-1.28c.86-.72,1.7-.88,2.49-.2l-.23,1.31Z"/>
  <path class="cls-1" d="M174.29,72.21c-.1.1-.3.44-.37.55s-.5.08-.47-.05l.27-.94c.06-.22-.67-.43-.78-.48l.98-1.3.93.48-.3.33c-.06.06-.06.11.02.12l.83.11-1.1,1.18Z"/>
  <path class="cls-1" d="M246.98,75.2c-.72.33-2.05-.6-2.22-1.22-.06-.23.3-.8.57-.74.67.16,1.8.91,1.65,1.97Z"/>
  <path class="cls-1" d="M190.35,118.98l.16.52c.03.09-.36.25-.43.18-.1-.11-.2-.23-.39-.46l-.87-1.09,1.29-1.38.55.43c.14.11-.1.58-.2.72l-.36.5c-.09.12.2.42.25.57Z"/>
  <path class="cls-1" d="M167.04,76.05c-.91.32-.49.12-.08-.06l.66-1.15c-.13-.08-.57-.29-.5-.41l.44-.77c1.02,2.24.97,1.38.03,3.25l-.56-.87Z"/>
  <path class="cls-1" d="M169.15,66.9l-1.1.14-.55-1.16,1.22-1.06c.27.4.4.68.32,1.01l.12,1.06Z"/>
  <path class="cls-1" d="M168.83,94.2l-.78-.24c-.17-.05.01.49.11.93-.15-.06-.55-.24-.72-.38-.21-.16.34-.91.4-.86l-.7-.49,2.43.33-.06.75c-.01.17-.36.05-.69-.05Z"/>
  <path class="cls-1" d="M162.71,109.45c-.36.23-.78.47-1.01.51-.4.06-1.13-2.26-.42-2.54.28.22.63.45.59.62l-.2.86,1.04.55Z"/>
  <path class="cls-1" d="M257.68,94.39l-.77-1.36c-.1-.17-.09-.62-.02-.81.09-.22.78-.49.85-.39l.28,1.31c0,.23-.15.68-.34,1.25Z"/>
  <path class="cls-1" d="M179.88,33.58c-.13.57-1.21,0-1.41-.45-.07-.17-.18-.43-.19-.43.2.03.5-.62,1.23-.51.34.05.53.71.37,1.39Z"/>
  <path class="cls-1" d="M168.66,71.39c-.05.11-.29.36-.37.32s-.28-.17-.31-.26l-.2-.52c-.05-.13-.31.25-.5.49-.06.09-.31-.2-.33-.34s-.01-.57.12-.58.51-.01.65-.03l1.47-.26-.54,1.17Z"/>
  <path class="cls-1" d="M284.75,124.33c-.52-.78-.76-1.27-1.04-1.92l1.27-.55-.22,2.46Z"/>
  <path class="cls-1" d="M284.13,117.86l-1.19.3c-.19.38-.2.41-.27.5-.1.13-.74.05-.7-.11l.22-.82c.18-.69,1.54-.63,1.94.12Z"/>
  <path class="cls-1" d="M165.32,96.34l.1-1.25c.02-.23.69-.58.89-.46.28.16.34.9.13,1.15-.22.27-.96.63-1.13.56Z"/>
  <path class="cls-1" d="M167.67,70.2c-.5-1.7.32-.82.65-2.53.13.25.36.69.43,1,.09.43-.32,1.13-1.08,1.53Z"/>
  <path class="cls-1" d="M149.74,157.13l-.87,1.4c-.68-1.13.09-1.88,1.08-2.32.01-.12.32.16.25.25l-.46.67Z"/>
  <path class="cls-1" d="M199.43,120.49c-.16.07-.71.21-.91.12s-.57-.58-.47-.79c.16-.32.52-.97.64-1.18l.73,1.85Z"/>
  <path class="cls-1" d="M258.68,101.59c.09-.12.2-.22.23-.33s-.18-.46-.18-.57l.02-.59c0-.17-.32-.31-.62-.56.2-.1.89.03,1.14.29.23.24.16.78.14,1.27l.08.34c.03.11-.01.43-.13.39l-.69-.25Z"/>
  <path class="cls-1" d="M155.61,119.55c-.36-.54.21-2.85.69-2.33.51.54.53.79-.69,2.33Z"/>
  <path class="cls-1" d="M176.24,17.07l.28.78c.06.16-.41.4-.58.38-.52-.05-.42-.47-.85-1.62.24-.25,1.01.08,1.15.45Z"/>
  <path class="cls-1" d="M169.47,92.02l-.83-1.38c-.09-.14.54-.71.65-.56s.26.37.43.66l.32.53c.06.1-.16.27-.58.76Z"/>
  <path class="cls-1" d="M151.75,146.41c-.12.08-.68-.16-.65-.29s.11-.57.2-.67l.87-1.01c.34.58,0,1.68-.42,1.97Z"/>
  <path class="cls-1" d="M282.73,116.63c-.21,0-.59-.13-.65,0l-.26.58-.19.43c-.05.11-.32-.06-.39-.15s.03-.34.12-.49l1.03-1.8.06.57c.02.14.24.25.59.45.07-.05-.19.42-.32.42Z"/>
  <path class="cls-1" d="M150.68,150.43l-.58-.83c-.1-.15-.4-.08-.83-.24.36-.52.96-.67,1.63-.74l-.22,1.81Z"/>
  <path class="cls-1" d="M323.01,167.18c.03.12.07.47.08.57.02.14-.54.26-.53.09l.14-2.63.27.53c.04.08.08.15.15.1l.53-.4-.65,1.75Z"/>
</svg>