<?xml version="1.0" encoding="UTF-8"?>
<svg id="Layer_2" data-name="Layer 2" xmlns="http://www.w3.org/2000/svg" viewBox="0 0 432 288">
  <defs>
    <style>
      .cls-1 {
        fill: #fff;
      }
    </style>
  </defs>
  <path class="cls-1" d="M0-1.59h432v288H0V-1.59ZM284.15,89.58l-5.73,3.61c-.14.09-.26.47-.31.56-.57,1.09,4.49-1.82,4.51-1.84l1.99-1.15c1.35-.78,2.27-.43,3.4.5.83.69,1.56,1.42,2.03,2.47l.96,2.17c.08.17.35.59.53.57l.96-.16c.44.11.17,1.36.33,1.84,1.36,4.02,2.76,7.63,4.9,11.07.87.51.62.9.91,1.66.61,1.61,1.44,3.32,2.32,4.79,1.36,2.27.75,1.47,1.68,3.05.23.4.92-1.26,1.55-.84.34.46,1.05,1.27,1.14,1.07l.6-.75c-.15,1.5.52,1.97,1.63,2.64l1.21,3.94-1.06,1.26c-.18-.13-.61-.5-.5-.64l.39-.53c.08-.11.11-.45.03-.56-.33-.48-.97.2-1.11-.12-.68-1.56-.53-1.86-.58-3.22l-.53.45c-.06.05-.03-.34-.02-.41l.13-1.18c-1.21-.09-1.6-.16-2.45-.43l.99,2.36c.69,1.64,2.01,2.96,2.89,4.48.76,1.32,1.49,2.71,2.14,4.09l2.69,5.72,1.46,2.64c.69,1.26,1.27,2.57,1.86,3.9,1.49,3.39,2.31,3.74,3.44,6.74.02.74.1,1.7.23,2.5l.37,2.28c.19,1.18.37,2.22.64,3.43l.49-.02c.24-1.08.22-1.72.29-2.67l.37-5.1-.02-4.6c0-.58.54-1.08,1.42-.92.22,1.92-.63,1.86,0,4.28-.99,4.19-.13,4.67.21,9.12.08,1.13.15,2.17.41,3.22l.52,2.15c.1.41.12,1.28.19,1.75,2.62,4.07-.86,4.67.12,7.13.6,1.51-1.96.21-1.74,1.12.88,3.59.13,3.28-1.09,4.81l-1.05,1.31c-1.13,1.4-.89,3.45-1.41,5.12-.56,1.78-.55,3.49-.85,5.33-.2,1.25-.92,2.6-1.12,4.01l-.65,4.63c-.22,1.54-.5,2.58.14,3.34.05.06.31-.26.33-.34l.12-.59c-.39-1.47.5-2.28.53-2.19l.26.56c.04.09.05.48.02.59-.79,3.38.28.48-.5,3.78-.14.61-.29,1.47-.21,2.03l.45,3.38.36,3.17c.18,1.61.36,3.24,1.1,4.82l-.21.61-1.12-1.13c-.38,1.95,1.08,5.3,1.03,6.47-.09,2.07,1.32,3.84,1.35,5.71l.11,7.17.31,4.3.53,5.07.27,3.36.63,5,.21,2.95c.07.96.07,2.53.08,3.45.02,1.63,3.08.96,4.27.89l5.06-.3,4.09-.45c.18-.83-.47-1.36-.68-2.01-.49-1.47-1.74-6.41-2.83-6.12l-.33.57c-.04.07-.21-.1-.2-.25.16-2.75-.6-3.9-1.36-6.47-.58-1.96-1.3-3.9-2.14-5.81-.21-.48-.28-1.64-.2-2.18.45-3.16.78-3.53-.68-5.86-.11-.18.65-.48.87-.34,1.61.98,2.04-5.63,2.17-6.6.47-3.46.32-4.7.83-8.39l.88-6.44c.06-.46-.27-1.27-.02-1.83.58-1.3-.58-.48-.45-2.77.1-1.79.04-3.63.8-5.24.39-.83.02-1.02-.49-1.81-.76-1.17.29-4.06-.31-3.52l-.39.35c-1.36,1.22-.05,3.71-1.92,3.53-1.69-.16-.35,2.79-1.75,1.96l.77-4.96c.09-.59-.77-1.5-1.28-2.05l-.46.43c-.08.08-.19.53-.21.66-.02.12-.26-.04-.34-.12s-.33-.41-.33-.53c0-.35.3-1.11.64-1.13l1.46-.07.82-4.56c.21-1.15-.25-2.55.21-3.78.41-1.1-.16-2.17-.06-3.11l.33-2.92c.05-.41.96-3.54,1.22-3.14.68,1.02.51,1.69.57,2.14l.5,3.64c.15,1.08-.04,1.89.64,2.88.29.43-.24,1.05-.51,1.57-.55,1.07-.54,2.42-.63,3.67-.17,2.26-1.71,2.49-.81,3.15l.5-.78c.12-.19.7-.17,1.21-.21l.45-3.95c.15-1.3.92.18.55-1.99-.37.54-.41.52-.4.07.75-2.69.28-5.02-.34-7.6-.49-2.06-.53-4.25-1.27-6.26-.35-.96-.49-1.71-.63-2.73l-.87-6.49c-.04-.29-1.21-4.9-1.97-4.79-1.87-1.91-1.73-2.72-2.01-5.35l-.07-.65c-.01-.12.49-.17.55-.06,1.35,2.35.21,4.09,1.58,5.27l.35.3c.68.59-.45-4.04-.53-4.36l-.91-3.6c-.25-1-.34-1.98-.7-2.93-.58-1.54-1.12-2.99-1.86-4.43-1.22-2.37-1.56-5-2.26-7.56-.49-1.79-1.16-3.44-1.79-5.14-.89-2.43-1.56-4.8-3.49-6.93.04,3.27,1.31,4.21,1.94,8.23.12.74.35,5.19-.18,5.25-.1.01-.37.04-.36.04l.34,3.59c.09.97.52.95.22,2.05-.28,1.04-1.8-2.48-1.89-4.28l-.22-4.19c-.08-1.55-1.36-3.08-.77-5.99l-.86-3.07c-.14-.51.26-1.6.29-2.14l-1.53-2.82c-.57-1.04-.82-2.02-1.67-2.95-.22-.24-.54-.87-.79-1.11-.75-.73-1.55-1.88-1.33-2.82.05-.21.7-.56.79-.4l.31.57.29.55s.13-.1.39-.31l-.69-1.42c-.49-1.02-1.1-1.88-1.91-2.79l-.94.63c-.15-.22-.5-.71-.4-.9l.44-.88c-.45-1-1.31-2.57-2.1-3.36-1.27-1.27-2.09-2.51-3.15-3.87l-5.52-7.17c-1.66-2.16-1.76-3.53-1.85-6.17-.03-.96-.26-2.06.45-2.85,1.69-1.86,3.68-3.38,5.16-5.36,1.69-2.25,3.32-4.49,4.56-6.96l1.7-3.39c1.35-2.69,1.11-3.83,3.23-5.67,3.67-3.2,2.99-7.46,4.16-11.2,1.38-4.43,1.34-8.61,1.29-13.31-.01-1.02-.91-1.81-1.46-2.6-.69-.98-1.04-2.16-1.49-3.33-1.62-4.27-2.66-2.06-3.8-3.01l-.53-.44c-.39-.32-.5,1.39-.48,1.99l.11,3.79c0,.22.31.84.5.73l.84-.47c1.19,1.73,2.55,4.53,1.73,6.78-.52,1.41-1.85,2.51-2.37,4.22-1.37-3.62.33-2.74-.55-7.32-.44-2.26-.8,4.28-.81,3.73.03,3.67-1.64,6.14-4.43,8.22-1.83,1.37-3.47,3.27-5.01,4.96l-2.33,2.55c-.61.66-.64,2.15-1.07,2.95s-.47,1.39-.37,2.31c.07.73-.36,1.74-.48,2.51-.14.89-.34,1.55-.61,2.35l-1.74,5.22c.05-.15-.73,3.86-1.59,3.18-.07-.05-.19-.41-.16-.53l1.19-4.65c.32-1.25.91-2.36,1.25-3.56l.76-2.65c.39-1.35.51-2.67.84-4.04l.46-1.92.53-2.96.82-4.14c.36-1.83-.75-3.67-1.12-5.49.5-3.09-.04-1.47.01-5.03.03-1.69-.79-3.79-1.74-5.2-.64-.95-1.16-1.96-2.03-2.79-1.79-1.72-3.87-2.9-6.06-4.05-1.73-.91-3.43-1.64-5.47-1.69-1.15-.03-2.25-.77-3.32-.94-2.3-.37-4.69-.15-7.1-.15-.86,0-1.88.38-2.73.56-1.35.29-2.83.4-3.98,1.07-.33.2-.82.76-1.16.74-.88-.07-1.2.6-1.55,1.13-1.07.03-2.29.1-3.09,1.03l-1.35-.8c-4.04,2.38.21-1.35-6.97,2.26-1.26.63-2.6,1.08-3.74,1.78l-5.26,3.23-4.9,3.65c-2,1.49-3.9,2.89-5.62,4.73,2.76-.11,2.79-2.25,4.96-1.01.22.13,1.06-.08,1.01-.29l-.25-1.03,3.09-.53,1.44-.25c-.57.99.13,2.16-.61,1.85-1.3-.54-1.4.96-2.59.55-.8-.28-1.6-.1-1.9.79-.28.82-1.19.39-1.58.59-.55.28-3.21,1.89-3.82.94-.14-.22-.07-.65,0-1.35l-1.35,1c-1.35,1-2.49,2.08-3.73,3.24-2.45,2.3-4.94,4.5-6.78,7.34-1.07,1.65-2.23,3.25-3.2,4.93-1.11,1.93-2.07,3.75-3.31,5.58-1.78,2.62-3.53,4.95-5.87,7.13-.49.45-1.1,1.51-1.55,1.99-.31.33-2.44.82-1.77,1.25l.56.36c.22.14.37.25.48.36.07.07-.11.48-.18.57l-1.04,1.41c-1.35-1.49-2.94-1.15-4.6-1.46l-2.54-.48c-.3-.06-.92-.14-.96-.38l-.18-1.33-4.66-.23c-.59-.03-6.09-.82-7.01-1.07l-1.56.25v-.73c-.52-.13-1.12.39-1.31,1-.11.33-.25.73-.07.81,1.13.48,1.35-.12,1.62.31l.44.7,1.07-.64,1.78.67c.78.29,1.53.52,2.36.74l.49.13c1.52.42-3,.17-3.13.17l-1.71.03c-.83-.32-1.82-.58-2.87-.66-.17-.27-.32-.93-.42-1.47l-.75.05-1.21-1.67c-.08-.11-.17-.35-.2-.45s.43-.11.53-.01c.83.79,2.39.22,2.21.09-.06-.04-.35-.41-.43-.44l-3.69-1.58-2.72-1.14c-1.4-.58-2.64-1.32-3.97-2.06l-3.55-1.98c-2.74-1.52-3.77-1.8-6.47-3.36-3.54-2.05-6.64-4.39-9.55-7.26-2.03-2.01-3.21-1.83-6-4.57-2.59-2.55-5.34-5.83-6.61-9.23-.66-1.76-1.36-3.53-1.78-5.36-.89-3.91-1.28-7.68-1.61-11.61s-.74-2.52-.56-7.12c.05-1.33.04-2.47-.3-3.6-1.97.6-.42,1.66-2.65,1.73l-1.65,1.34c-.31,1.86-2.72,3.76-2.81,6.28-.2,5.97-.55,12.7,1.86,18,1.27,2.79,1.19,3.94,2.67,6.67l1.28,2.35c.55,1.01.87,2.06,1.2,3.18l-.86-.09c-.12-.01-.24.46-.24.61-.06,4.01.56,7.99,1.23,11.95.07.4.19.79.32,1,.1.16.84-.17.87-.38.11-.72-.29-1.97-.35-2.8l-.21-3.01-.49-3.42c-.1-.71-.04-1.33.32-2.11.51.89.95,1.63,1.09,2.41l.75,4.05c.7,3.75-.72,5.02,1.83,4.72-.03-2.97-1.66-7.49-.74-9.79.37-.1.99.28,1.22.64,2.4,3.91,5.04,5.41,8.67,7.9l6.84,4.68c3.31,2.26,6.07,2.94,9.41,5.57.53.01,1.67-.29,1.73.4.04.44.19.92.45,1.05l1.79.84c1.03.48,1.93.91,2.99,1.41l1.44.68c.24-.14.58-.37.81-.42s.75.37.97.38c2.16.11,3.88.81,5.91,1.77,1.29.61,3.17.41,4.32,1.18l1.76,1.17c2.2,1.47,7.36,2.69,10.14,3.13l2.61.41-1.14,1.49c-.85,1.11-2.1,1.65-3.54,1.5-2.69-.28-1.75.73-5.99,1.19-2.16.23-1.42.55-4.07.67-2.46.12-5.73,1.13-6.93,1.02l-8.23-.76c-5.24-.48-4.5-1.1-8.77-1.28-.69-.03-1.29-.51-2.05,0,.56.57,1.3.73,2.17.91l3.16.62,6.87,1.29c3.02.57,5.73,1.45,8.76,2.39-.34-1.07-2.52-.65-2.48-1.36.01-.19.01-.6.17-.6.17,0,.65-.02.81-.03l3.58-.31c2.19-.19,4.26-.44,6.44-.74.71-.1,1.75-.65,2.41-.55.97.14,1.64.17,2.51-.3.47-.26,1.75-.29,1.61.37-.27,1.27-1.45,2.1-1.93,3.16-.41.92-.37,1.97-1.39,2.52-.52.28-.62,1.34-.99,1.76-1.13,1.26-1.91,3.27-2.89,4.88-2.29,3.73-3.67,7.39-4.15,11.72-.41,3.67-1.48,7.15-2.42,10.7-.15.58-.12,1.33-.08,1.84,2.52-2.27-.53-2.62,3.16-5.31l.41.31-.79,1.58c-.1.21-.68.5-.64.72l.22,1.06-1.56,1.72c-.16.18-.18.88-.41.95l-.88.24c.14,1.4-.44,2.56-.93,3.85-.77,2.04-1.17,5.7-1.34,8.08l-.23,3.37c-.06.83-.76,7.71-2.64,5.34-2.02-2.54-4.48-5.18-6.92-7.26-1.02-.87-1.97-1.88-2.9-2.87-3.68-3.92-1.59-3.09-4.36-6.02,1.21,2.57,2.57,4.88,4.25,7.15s5,5.02,6.88,7.26l1.43,1.7c3.17,3.76,1.98,3.61,1.84,5.32l-.42,5.3c-.08,1.06-.11,2-.32,3.12-.19,1.01-.11,2.18-.2,3.25l-.28,3.59c-.07.87-.15,1.99-.3,2.78l-.73,3.85c-.59,3.09-.23.98-1.33,3.16-1.59,3.15-2.46,6.34-3.34,9.72l-.53,2.05c-.52,2.01-.81,3.94-.66,6.03l.19,2.67.21,8.49c.03,1.16.42,2.18.23,3.32-.09.51.11,1.63.29,2.12,2.3,3.5,1.79,5.03,4.24,8.5,2.92,4.15,3.58,8.31,6.84,10.64,2.21,1.58,3.71,2.87,5.55,4.78.92.95,2.08,1.46,3.19,2.12l2.87,1.72c.39.24,1.07.81,1.42,1.16l3.64,3.6c.56.56.8,1.55,1.1,2.26.66,1.59.39,3.05.35,4.78l-.11,4.51c-.04,1.88-1.59,6.79-.4,6.89,2.83.23,5.35-.02,8.13-.39.42-.05,1.02-.12,1.23-.34.18-.18.17-.78.15-1.07l-.23-2.95c-.16-2.02-.34-4.03-.04-6.03.34-2.3-.52-4.39-1.62-6.38-1.44-2.6-.56-4.63-4.78-7.49l-1.67-1.13-2.91-1.66c-1.9-1.09-3.68-2.09-5.15-3.75-1.05-1.18-3.64-4.66-4.5-4.47-1.7-1.73-3.11-3.86-5.2-5.53-.86-.69-1.24-1.93-1.51-3-.43-1.76-.88-3.31-1.45-5.06-.29-.89-.12-2,0-2.96l.31-2.4.34-3.58c.14-1.48.05-2.85.03-4.35l-.03-2.14c-.04-3.04-1.16-4.02-.53-6.94l.25.31c.05.07.33.27.34.19l.08-.51c.17-1.12.27-2.21.24-3.34-.06-2.12.2-4.16.3-6.2.06-1.24-.07-2.12.46-3.28l.94-2.03,1.15-2.73c.42-.99.76-1.9.84-3,.09-1.24.51-2.4-.33-3.52-.83,3.6-.13,2.99-1.94,6.37l-.77-.51-1.04,1.8.52-3.32.51-3.28c.12-.75.26-1.41.49-2.23.17,0-.43-.26-.52-.15l-.37.49-.37.49c-.08.11-.68-.14-.65-.28.73-2.95,1.56-3.1,1.61-5.5-.74-.26-1.4-.56-1.61-1.05s-.25-1.43,0-1.81c.61-.93-.11-1.82.09-2.66l1.61-6.66c.07-.27.76-.7.89-.95.34-.69,1.01-2.02,1.34-2.8l1.17-2.76c.33-.78,1.09-1.61,1.41-2.42,1.15-2.89,1.88-5.96,2.16-9.07l.22-2.46c.07-.77-.23-1.72-.7-2.57l-.93,4.08c-.37,1.62-2.41,5.25-3.08,7.46-.24.8.25,2.22-.11,2.92l-1.48,2.9c-.36-.28-.69-.53-.62-.7l.35-.81c1.25-2.84-1.93.45.12-5.1.63-1.7,1.42-3.3,1.93-4.96.93-2.99,1.32-4.62,3.08-7.55s.92-.38,2.02-4.52c.38-1.42.96-2.84,1.56-4.2l2.14-4.9-1.53.76c-.32-1.01.58-2.09,1.27-2.18l.49.64c.41.54,1.77-3.21,1.9-3.66l.78-2.67c.23-.78.55-1.92.94-2.56l2.01-3.32c.53-.87,1.04-1.73,1.05-2.72.04-2.46,3.35-1.04,2.62-2.09-.51-.19-1.2-.53-1.54-.41s-.87.6-1.17.94c-2.09,2.41.25,1.93-4.07,2.79l.3-1.5c.22-1.08.88-1.65,2.05-1.5l.08-1.84,1.11-1.39c.32-.41,1.54-.57,1.99-.82l1.16-.62-.12,1.76c.87-.81,1.55-1.82,2.35-2.46,1.74-1.41,3.65-1.66,5.69-1.12.25.07,5.33.87,5.44.13l-1.23-1.44c1.17-.37,2.16.07,3.26.07l17.48.06c.57,0,1.45.24,1.92.3-1.35.29-2.01,1.3-3.17,1.94l-1.86,1.02c1.17.06,2.59.25,3.77-.03l3.87-.92c3.3-.79,6.69-1.34,10.1-1.05,1.03.09,1.9.11,2.92,0l7.65-.83c1.23-.13,2.52.47,3.6-.9-2.63-.1-5.74.15-8.16.57-.98.17-6.4.45-7.01-.77,1.07-.23,1.93-.29,2.95-.38l2.4-.22,3.32-.28,9.16-.89,3.59-.42c1.59-.19,3.29-.05,4.7-.91.6-.36,1.47-1.01,2.21-.39.4.34-.55,1.12-1.11,1.04-.99-.16-1.66.18-2.49.63-1.7.92-.3,2.16-1.98,1.66-.75-.22-1.34-.23-2.11.1l1.19,1.02c-.4,1.97,2.26.9,2.05,2.44-.12.85-1.02.47-2.35,2.13-1.69.57-3.39.95-5.13,1.31l-2.76.56c-7.72,1.58-4.91,1.44-11.07,3.34l-3.51,1.08-1.8.59-2.53.86c1.13.12,2-.11,3.04-.26,2.07-.31,4.11-.5,6.11-1.1.6-.18,1.3-.79,1.83-1.04,4.07-1.89,3.62-1.52,8.25-2.16,1.26-.17,2.46-.88,3.84-.07l-4.98,1.38c-1.62.45-3.06.83-4.75,1.05-.34.04-.8.3-1.08.52.67.07,1.45.17,1.94.06l8.22-1.85c2.12-.48,4.1-1.03,6.13-1.77,1.54-.56,3.06-.76,4.5-1.54l-2.7.22c-.99.08-1.9.82-2.99.32,1.13-.77,2.48-1.36,3.41-2.33l1.66-1.72c.97-1,2.07-1.78,3.27-2.52l1.51-.94c-.43-.11-1.06-.4-1.49-.8.86-.99.95.03,2.85-1.46.06,0,.21.62.05.72l-.58.35c-.16.1-.35.54-.3.73s.79.3.84.11l.24-.97,1.96.53c.71-.29,1.63-.68,2.13-.74,1.42,1.25-2.08,1.76-1.58,2.68,4.56-1.53.9-3.24,6.5-2.89l.51.03c.1,0-.16.63-.28.7ZM124.42,87.34c.61-.2,1.26-.34,1.49-.56,2.18-2.04,3.59-.47,5.91-.17l-.47-1.99c.55-1.58.39-3.22.25-4.93-.11-1.44-.16-2.69-.49-4.12.18-.62.6-1.57.92-2.31l-2.46-.59c.48-.81,1.21-.92,2.17-.93,4.28-.05,5.56,1.46,6.02.67.09-.15-.3-.66-.48-.72-3.01-1.01-4.26-1.91-7.59-.95-2.24.65-5.89,3.39-4.35,5.98.72-2.11,1.86-4.04,4.02-4-.26.5-.95,1.46-.91,1.96l.29,3.54c.04.48,2.46,4.13.71,6.26-.22.27-.99-.02-1.19-.29-.89-1.22.34-1.46-.24-3.76l-.61,1.08c-.42.75-1.8-.9-2.09-1.84-.33,1.53.8,2.65,1.28,3.91.81,2.16-3.37,3.14-2.19,3.75ZM143.76,87.79l2.82-.26,5.83-.8c1.7-.23,3.56-.14,5.24,0l2.45.21c.84.07,1.75.17,2.57.3,1.54.23,2.93.99,4.47.74-2.48-1.19-4.93-1.73-7.53-2.03l-3.43-.41-9.43-.11c-.12-2.13-.82-3.81-1.64-5.6s-1.67-3.24-3.21-4.53l-2.84-2.37c-.08-.07-.36-.18-.46-.22s-.16.52-.09.6l1.43,1.58c.43.48.94.84,1.38,1.26,2.02,1.93,1.8,1.35,2.85,3.57l.87,1.85c.51,1.08,1.07,2.47,1.43,3.57-.42,1.15-1.79.96-2.69,1.05l-3.08.32c-2.43.25-4.65.7-7.24.68.23,1.32,1.47,1.72,2.64,1.67l3.11-.15c3.28-.15-.14-.48,4.58-.92ZM141.95,81.61c-.14-1.69-1.08-2.7-2.04-3.79-1.46-1.66-4.34-6.02-6.57-4.15.74.68,1.31,1.2,1.87,1.88l3.69,4.47c.98,1.19,1.82,2.46,1.47,4-.08.35.32,1.05.6,1.03,1.07-.08,1.03-2.87.98-3.43ZM129.17,95.09l.02,2.38c1.68.58,3.02.21,4.69-.63-.17,1.78-2.31,2.45-3.72,2.31-.2-.02-.71.44-.58.56.1.1.28.42.4.37l.63-.26c2.17-.89,1.03,1.1,4.97-1.88,1.72-1.3,5.12-5.57,4.47-8.03-.06-.22-.52-.66-.74-.65-.86.02-.6,1.73-1.76,2.58-1.59-1.42-3.12-1.93-4.94-2.51-1.43-.46-2.59-.75-4.1-.47-2.18.4-3.75,1.29-4.65,3.12s-.6,4.35.63,5.65c.16.16,1.01.12.99.31l-.08.88c-.04.44-.05.93.05,1.39.45,2.1-.22.59.35,4.44l.67,4.54.33,3.35c.67-1.2.92-2.48.87-3.9l-.14-4.02c-.11-3.3-.22-7.27.08-10.53-.19-.85-.52-3.82.88-3.55.37.07.89.53.84.86-.21,1.26-.16,2.44-.15,3.7ZM152.09,92.04c-1.15-.9-2.37-1.39-3.73-.86,1.25.68,2.41,1.19,3.73.86ZM143.44,100.26c.52.88.77,1.68,1.5,2.28-.5-2.55-1.47-4.62-3.09-6.65-.43.43-.43.97-.16,1.42l1.75,2.95ZM167.32,143.76c-.26-1.51-.83-2.75-1.52-4.08l-1.47-2.86c-1.31-2.54-4.94-7.92-6.86-9.9l-4.61-4.75-1.35-1.52-1.74-1.89c-2.57-2.8-1.1-2.32-4.27-5.48l-4.49-4.48c-1.04-1.03-2.28-1.97-2.89-3.31-.78-1.72-1.35-3.27-1.68-5.15l-1.22.02,1.25,3.62c.66,1.92,2.17,3.21,3.34,4.76,2.72,3.64,5.08,5.22,7.39,8.52l1.6,2.28c1.74,2.48,1.25,1.06,2.87,3.09.36.45,4.31,4.59,4.44,4.71l2.13,1.86,1.8,2.31,2.27,3.05c.61.81,1.12,2.14,1.6,3.11l.81,1.64c.42.85.89,1.62,1.38,2.44.41.69.37,1.59,1.21,2ZM124.73,143.85c0-1.44-.04-2.65-.08-3.98l-.17-4.98-.19-2.92-.44-5.02c-.24-2.74-.48-2.77-.62-5.02l-.18-2.9c-.06-.96-.02-1.9-.14-2.9l-.33-2.59.42-3.53c.1-.81.7-1.55.14-2.37-1.02,2.21-1.88,6.16-1.78,8.28l.16,3.33.18,2.92c.23,3.61,1.53,8.38,1.61,10.75l.17,4.93.23,6.79.39,2.68c.26,1.79.47,3.39.83,5.16.92-.89-.2-7.8-.2-8.62ZM155.52,136.88l-3.31-6.68c.55,2.61,1.8,4.91,3.31,6.68ZM125.24,188.55l.69,3.63c.28-1.98.44-4.05.23-6.14l-.2-2.03-.3-2.85-.44-3.86-.25-2.85c-.1-1.17-.28-2.39-.53-3.51l-1.53-6.85c-.4-1.8-.6-3.56-.9-5.42-.2-1.23-1.06-2.52-1.39-3.75l-.96-3.54c-.49-1.81-.48-3.86-1.19-5.03-.37.67-.34,1.21-.24,2l.22,1.73c1.42,3.68-.26,1.45,1.49,6.71.39,1.17.59,2.46.75,3.75.18,1.41.57,2.72.95,4.07l1.11,3.95c.18.65.32,1.48.46,2.18l.8,4.22c.17.91.16,2.09.27,3.06l.24,2.21.16,4.94.58,3.4ZM201.51,192.01c-1.02-.88-2.05-1.77-2.95-2.81-1.06-1.23-2.16-2.25-3.33-3.36l-4.8-4.57c-1.34-1.27-2.74-2.29-3.96-3.71-1.4-1.63-2.87-3.06-4.55-4.41s-2.89-3.42-4.62-4.97c-.81-2.48-.98-2.04.02-4.74.76.46,1.14.9,1.66,1.45l2.82,2.95,2.62,2.87c.44.48.8,1.17,1.23,1.63l1.24,1.28c-.19-.51-.41-1.06-.65-1.35l-5.48-6.77c-1.18-1.46-3.87-3.34-3.61-4.8l.63-3.55c.36-2.03.07-4.05-.02-6.04-.7.98-1.41,2.53-1.2,3.45.35,1.55-.32,2.11-.81,3.42-2.02,5.37-.59,4.66-1.18,6.68-.19.64-.08,1.52.09,2.1l.95-.5c1.65,2.03-.76,3.95.37,4.48.53-.31,1.14-.49,1.62-.33.36.12.71.71,1.05,1.06l9.2,9.27c1.21,1.21,2.57,2.19,3.88,3.32,2.06,1.79,4.22,3.41,6.01,5.47.77.89,1.59,1.6,2.45,2.37l5.7,5.12c1.11.99,2.11,2.26,2.95,3.47.6.86.79,1.85,1.61,2.54.13-1.96-1.83-4.2-3.02-5.38l-4.24-4.19-1.67-1.44ZM120.15,189.09c.23-1.16-.11-2.11-.29-3.2l-.62-3.77c-.11-.66.34-1.39-.42-1.72l.16,1.94.19,2.27c.13,1.59.36,3.07.98,4.48ZM130.04,223.33c-.2-2.55-.19-5.12-.85-7.57l-1.06-3.89c-.49-1.81-1.12-3.43-1.75-5.18l-.97-2.68c-.73-2.02-1.38-4.02-1.99-6.09l-.55-1.86-.95-2.29-.98-3.33c-.92.07-.03,3.57.88,4.01.61,5.3,2.39,10.12,4.39,15,.6,1.46,2.34,8.37,2.51,9.89.24,2.13.5,8.56,1.78,9.96l-.21-2.84-.24-3.11ZM222.65,215.48l-4.88-3.75c-.52-.4-1.06-.67-1.6-1.08l-5.01-3.79c-1.62-1.23-3.31-2.17-4.88-3.53l-1.54-1.33c-.51-.44-5.02-3.73-5.88-3.69l2.69,2.82c.75.79,2.02,1.05,2.9,1.66,4.14,2.84,5.37,5.48,10.29,8.19.42.23,1.05,1.14,1.49,1.32,2.47,1.03,4.37,2.59,6.44,4.13,5.8,4.3,4.05,3.8,8.77,8.69.92-1.95-7.27-8.48-8.78-9.65ZM139.12,265.61l-2.75-10.23-.68-2.2c-.28-.9-.65-1.95-1.05-2.77l-1.8-3.71c-1.68-3.46-.61-2.85-2.35-5.55-.54-.84-.67-2.26-1.24-3.01-.96-1.27-1.44-2.33-1.79-3.88-2.26-3-.23-2.4-2.33-4.75-.05-.26,0-1.11-.08-1.43l-1.43-5.44c-.82-.28.7,5.24.75,5.44l1.15,4.43,1.28,2.91c-.11-.24,1.46,4.63,2.23,6.26l1.3,2.8,2.19,4.51c.9,1.84,1.69,3.53,2.5,5.43l.69,1.62,1.18,3.88,1.73,6.72c.15.6.3,1.14.43,1.77l.14.67c.72,3.37.36-1.92-.05-3.47ZM256.35,249.45c.76.86,1.3,1.67,2.48,2.4.04-.79-.32-1.22-.75-1.74-3.02-3.67-7.51-8.3-11.65-10.67-1.01-.58-3.46-2.81-6.25-4.23-1.64-.84-3.01-1.67-4.44-2.81-3.1-.42-3.99-2.45-5.68-3.68-2.23-1.61-4.6-2.97-7.16-4.34.79,1.95,2.65,2.64,4.06,3.85l2.72,2.33c1.07.92,2.08,1.4,3.35,1.99,3.06,1.44,4.37,2.7,6.14,3.63l4.55,2.39,2.88,1.87c1.07.7,2.08,1.22,2.99,2.08,1.67,1.57,3.33,3.05,4.85,4.76l1.92,2.15ZM278.07,266.42l-1.24-1.24c-1-1-2.14-1.65-3.39-2.39-2.84-1.66-5.59-3.49-8.78-4.6-1.75-.61-3.52-1-5.15-2.04l-1.89-1.21-1.37-.86c-1.92-1.2-4.16-1.79-6.09-3.04l-3.3-2.12c.97,2.05,2.94,3.01,4.72,4.1.9.55,1.64,1.19,2.47,1.84l2.19,1.73c.86.68,2.5.9,3.54,1.43,2.56,1.3,4.24,1.87,6.9,2.76,4.17,1.39,8.03,3.7,11.32,6.57l2.3,2c.34.29.65,1.27.93,1.57.15.16.75-.04.8-.26.24-1.15-2.22-2.49-3.95-4.23ZM139.65,271.33c-2.21.42-3.66-.45-4.74-1.98-1.37-1.94-1.57-1.23-2.64-4.51l-1.3-3.98c-.3-.92-.53-1.73-1.01-2.92-.87.12,1.3,7.27,1.55,7.87l.69,1.69c.94,2.29,1.86,3.2,1.67,4.49.67,1.51,4.77,1.47,5.77-.67Z"/>
  <path d="M125.24,188.55l-.58-3.4-.16-4.94-.24-2.21c-.1-.96-.09-2.14-.27-3.06l-.8-4.22c-.13-.7-.27-1.53-.46-2.18l-1.11-3.95c-.38-1.35-.77-2.66-.95-4.07-.17-1.29-.37-2.58-.75-3.75-1.75-5.25-.07-3.02-1.49-6.71l-.22-1.73c-.1-.79-.13-1.33.24-2,.71,1.17.7,3.23,1.19,5.03l.96,3.54c.33,1.23,1.19,2.52,1.39,3.75.3,1.86.49,3.61.9,5.42l1.53,6.85c.25,1.12.43,2.34.53,3.51l.25,2.85.44,3.86.3,2.85.2,2.03c.21,2.09.05,4.16-.23,6.14l-.69-3.63Z"/>
  <path d="M124.73,143.85c0,.82,1.12,7.74.2,8.62-.35-1.77-.57-3.37-.83-5.16l-.39-2.68-.23-6.79-.17-4.93c-.08-2.37-1.38-7.14-1.61-10.75l-.18-2.92-.16-3.33c-.1-2.12.76-6.07,1.78-8.28.56.83-.04,1.57-.14,2.37l-.42,3.53.33,2.59c.13.99.09,1.94.14,2.9l.18,2.9c.14,2.24.38,2.28.62,5.02l.44,5.02.19,2.92.17,4.98c.04,1.33.08,2.54.08,3.98Z"/>
  <path d="M139.12,265.61c.41,1.54.77,6.83.05,3.47l-.14-.67c-.13-.62-.27-1.17-.43-1.77l-1.73-6.72-1.18-3.88-.69-1.62c-.81-1.9-1.6-3.59-2.5-5.43l-2.19-4.51-1.3-2.8c-.76-1.64-2.33-6.51-2.23-6.26l-1.28-2.91-1.15-4.43c-.05-.2-1.57-5.72-.75-5.44l1.43,5.44c.08.32.02,1.17.08,1.43,2.1,2.36.07,1.75,2.33,4.75.35,1.55.83,2.61,1.79,3.88.57.76.7,2.17,1.24,3.01,1.74,2.7.67,2.09,2.35,5.55l1.8,3.71c.4.82.77,1.87,1.05,2.77l.68,2.2,2.75,10.23Z"/>
  <path d="M130.04,223.33l.24,3.11.21,2.84c-1.28-1.4-1.54-7.82-1.78-9.96-.17-1.52-1.91-8.44-2.51-9.89-2-4.88-3.78-9.7-4.39-15-.91-.44-1.79-3.94-.88-4.01l.98,3.33.95,2.29.55,1.86c.62,2.07,1.27,4.07,1.99,6.09l.97,2.68c.63,1.75,1.26,3.37,1.75,5.18l1.06,3.89c.67,2.46.66,5.02.85,7.57Z"/>
  <path d="M139.65,271.33c-.99,2.13-5.1,2.18-5.77.67.19-1.29-.73-2.2-1.67-4.49l-.69-1.69c-.25-.6-2.42-7.75-1.55-7.87.48,1.19.71,2,1.01,2.92l1.3,3.98c1.07,3.28,1.27,2.57,2.64,4.51,1.08,1.53,2.53,2.39,4.74,1.98Z"/>
  <path d="M120.15,189.09c-.61-1.41-.84-2.89-.98-4.48l-.19-2.27-.16-1.94c.76.33.32,1.06.42,1.72l.62,3.77c.18,1.09.53,2.03.29,3.2Z"/>
  <g>
    <path d="M201.51,192.01l1.67,1.44,4.24,4.19c1.2,1.18,3.15,3.41,3.02,5.38-.82-.69-1.01-1.68-1.61-2.54-.85-1.21-1.85-2.47-2.95-3.47l-5.7-5.12c-.86-.77-1.68-1.48-2.45-2.37-1.79-2.06-3.95-3.67-6.01-5.47-1.31-1.14-2.67-2.11-3.88-3.32l-9.2-9.27c-.35-.35-.7-.94-1.05-1.06-.48-.16-1.09.02-1.62.33-1.13-.53,1.27-2.46-.37-4.48l-.95.5c-.17-.58-.27-1.47-.09-2.1.59-2.03-.84-1.31,1.18-6.68.49-1.31,1.16-1.87.81-3.42-.21-.91.5-2.47,1.2-3.45.09,2,.38,4.01.02,6.04l-.63,3.55c-.26,1.46,2.43,3.34,3.61,4.8l5.48,6.77c.23.29.46.84.65,1.35l-1.24-1.28c-.43-.45-.8-1.15-1.23-1.63l-2.62-2.87-2.82-2.95c-.53-.55-.91-.99-1.66-1.45-1,2.7-.83,2.26-.02,4.74,1.73,1.56,2.9,3.59,4.62,4.97s3.16,2.78,4.55,4.41c1.22,1.42,2.63,2.44,3.96,3.71l4.8,4.57c1.17,1.11,2.27,2.13,3.33,3.36.9,1.04,1.92,1.93,2.95,2.81Z"/>
    <path d="M278.07,266.42c1.72,1.73,4.18,3.08,3.95,4.23-.05.22-.65.43-.8.26-.28-.3-.59-1.27-.93-1.57l-2.3-2c-3.28-2.86-7.14-5.17-11.32-6.57-2.66-.89-4.34-1.46-6.9-2.76-1.04-.53-2.68-.74-3.54-1.43l-2.19-1.73c-.82-.65-1.57-1.29-2.47-1.84-1.77-1.09-3.75-2.05-4.72-4.1l3.3,2.12c1.93,1.24,4.16,1.84,6.09,3.04l1.37.86,1.89,1.21c1.63,1.04,3.4,1.42,5.15,2.04,3.19,1.12,5.94,2.94,8.78,4.6,1.26.74,2.4,1.39,3.39,2.39l1.24,1.24Z"/>
    <path d="M167.32,143.76c-.83-.42-.79-1.32-1.21-2-.49-.82-.96-1.6-1.38-2.44l-.81-1.64c-.48-.97-1-2.3-1.6-3.11l-2.27-3.05-1.8-2.31-2.13-1.86c-.14-.12-4.09-4.26-4.44-4.71-1.62-2.03-1.13-.61-2.87-3.09l-1.6-2.28c-2.31-3.29-4.67-4.88-7.39-8.52-1.16-1.56-2.67-2.84-3.34-4.76l-1.25-3.62,1.22-.02c.33,1.88.9,3.43,1.68,5.15.61,1.34,1.85,2.27,2.89,3.31l4.49,4.48c3.17,3.16,1.7,2.69,4.27,5.48l1.74,1.89,1.35,1.52,4.61,4.75c1.92,1.98,5.55,7.36,6.86,9.9l1.47,2.86c.68,1.33,1.26,2.57,1.52,4.08Z"/>
    <path d="M256.35,249.45l-1.92-2.15c-1.52-1.71-3.18-3.19-4.85-4.76-.91-.86-1.92-1.38-2.99-2.08l-2.88-1.87-4.55-2.39c-1.77-.93-3.08-2.19-6.14-3.63-1.27-.6-2.28-1.08-3.35-1.99l-2.72-2.33c-1.41-1.2-3.26-1.89-4.06-3.85,2.56,1.38,4.93,2.73,7.16,4.34,1.69,1.22,2.58,3.25,5.68,3.68,1.43,1.14,2.8,1.97,4.44,2.81,2.79,1.42,5.24,3.65,6.25,4.23,4.14,2.38,8.63,7,11.65,10.67.42.51.78.94.75,1.74-1.18-.73-1.72-1.54-2.48-2.4Z"/>
    <path d="M222.65,215.48c1.52,1.16,9.7,7.69,8.78,9.65-4.73-4.89-2.97-4.39-8.77-8.69-2.08-1.54-3.97-3.11-6.44-4.13-.44-.18-1.07-1.09-1.49-1.32-4.92-2.71-6.14-5.35-10.29-8.19-.88-.6-2.15-.87-2.9-1.66l-2.69-2.82c.86-.04,5.37,3.25,5.88,3.69l1.54,1.33c1.57,1.36,3.26,2.3,4.88,3.53l5.01,3.79c.54.41,1.08.68,1.6,1.08l4.88,3.75Z"/>
    <path d="M155.52,136.88c-1.51-1.77-2.76-4.07-3.31-6.68l3.31,6.68Z"/>
    <path class="cls-1" d="M234.6,80.16l-2.99.11c-1.32.05-2.51-.04-3.86.08-.76.07-1.88.29-2.53.23l-6.57-.6-2.43-.19c-1.99-.15-5.7-1.15-7.71-1.95l2.1-2.54c-.46-.29-.95-.52-.88-.72s.34-.59.51-.78c.14-.16.54.14.93.4,1.96-1,3.88-4.53,5.29-6.43,1.26-.66,2.01-1.97,2.57-3.25,1.84-4.26,2.44-3.07,3.63-6.26-.78.52-1.36,1.21-2.01,1.97-.22.26-.86-.31-.98-.65-.15-.44.13-1.11.64-1.15,1.06-.09,1.44-.48,2.07-1.14l1.51-1.58s.41.45.64.69l4.1-2.95c.5-.36,1.05-.92,1.46-1.37,2.26-2.43,7.21-6.38,10.03-8.23l1.91-1.25,2.22-1.38c2.19-1.36,4.67-2.15,6.78-3.52l1-.65,2.7-1.4,5.08-2.39c2.67-1.25,4.01-1.37,6.8-1.66l4.59-.47c.57-.06,1.33.07,1.92.05,6.3-.15,9.59,1.63,12.55,7.18,1.17,2.19,1.06,4.74,1.62,7.1.22.94,1.29,1.36.5,2.68-.52.87-.51,2.33-.55,3.45l-.07,1.96c-.15,4.33-.97,2.69-1.57,6.7-.26,1.71-.23,3.67-.8,5.24-.53,1.45-1.07,2.69-1.29,4.26-.08.59-1.11,1.35-.29,2.07.31.28.61,1.12.37,1.39l-1.58-.27c-4.33,1.88-5.33.44-8.91,2.83-2.46,1.64-1.36,2.94-3.69,4.58-.87.62-2.35.45-3.48.55-1.24.1-2.51.36-3.64.31l-3.59-.18-4.07-.2c-1.64-.08-3.24-.43-4.92,0-.43.11-.21,1.56.11,1.73,1.08-.14,2.54-.49,3.35-.06s.57,1.49.09,1.85c-.76.57-1.33.14-1.96-.31-2.25.74-3.68.87-5.87.18-.24-.08-.17-.81-.11-1.06.25-1,2.25.29,3.72-.31.36-.15.23-1.04.08-1.37-.21-.45-.82-.82-1.43-.83-2.35-.05-4.63.11-6.92-.11-2.05-.2-3.95-.49-6.15-.41Z"/>
    <path class="cls-1" d="M180.24,124.73c-.09.26-.45.59-.64.6-.52.02-.66-1.34.39-3.18.53-.92.99-2.09,1.41-3.05-.25-.26-.64-.51-.63-.74l.04-1.02c-.57-1.08-.07-1.66.58-3.9.19-.67.54-1.3,1.02-1.82l2.71-2.87c.36-.38,1.03-.68,1.38-.38-1.27,4.39-1.77,2.16-2.33,5.07-.13.7-.94,1.72-1.03,2.44l.43,2.31-.56,1.78c-.85,2.68-1.69,1.83-2.75,4.75Z"/>
    <path class="cls-1" d="M176.51,237.39c-2.05-.97-1.44-1.54-2.74-3.02,1.08-1.61.79-1.28.27-2.66-.99-2.65-1.38-1.38-1.24-2.73.03-.26,1.01-.18,1.15.02,1.39,1.93,1.78,2.53,2.81,5,.41.99,0,2.3-.25,3.39Z"/>
    <path class="cls-1" d="M191.66,248.84c-.42-.2-.98-.84-1.18-1.36-.15-.4.22-1.17.51-1.72l-1.5-.88-.65-1.1-1.77.83-.42-2.72,1.79.48,1.88,1.8c.36.18,1.71-.08,1.66.48-.02.17-.3.59-.39.72-.12.16.43.64.4.86l-.33,2.62Z"/>
    <path class="cls-1" d="M172.19,224.16c-.19.43-.78,1.06-1.12,1.14-.27-.52-.39-.88-.6-1-.25-.14-.83.18-1.21.45-.45-.57-.63-1.67-.24-2.58.47,0,1.34,0,1.78.04.2.02.17.76.16.96l-.06.76c-.02.21.57.13,1.29.23Z"/>
    <path class="cls-1" d="M167.27,220.74l-.33-.5c-.06-.1-.46.47-.58.44-.47-.12-.8-1.14-.7-1.72l.51-3.06c.66.34.16,1.07.17,1.53l1.39,2.93c.06.12,0,.68-.09.62s-.32-.16-.37-.25Z"/>
    <path class="cls-1" d="M166.35,207.72c-.6-.02.15-3.25.64-4.02.61.81.97,1.8.9,2.36-.66.59-.86.81-1.54,1.66Z"/>
    <path class="cls-1" d="M181.05,239.43c-1.85-.54-2.01-2.16-2.8-3.33-.36-.31-.72-.76-.53-1.12l1.65,1.49,1.68,2.96Z"/>
    <path class="cls-1" d="M199.61,261.02c.6.07.18,4.34-1.26,3.84l1.26-3.84Z"/>
    <path class="cls-1" d="M197.48,256.61c-.63.97.74-4.91.82-4.32.48,1.5.03,2.86-.82,4.32Z"/>
    <path class="cls-1" d="M196.26,261.29c-.64-.96.31-1.84.97-2.14.22.95-.18,2.02-.97,2.14Z"/>
    <g>
      <path d="M284.15,89.58c.11-.07.38-.69.28-.7l-.51-.03c-5.6-.35-1.94,1.36-6.5,2.89-.5-.92,3-1.43,1.58-2.68-.5.06-1.43.44-2.13.74l-1.96-.53-.24.97c-.05.19-.79.07-.84-.11s.14-.63.3-.73l.58-.35c.16-.1,0-.72-.05-.72-1.91,1.49-1.99.47-2.85,1.46.42.4,1.05.69,1.49.8l-1.51.94c-1.2.74-2.3,1.51-3.27,2.52l-1.66,1.72c-.93.97-2.28,1.56-3.41,2.33,1.09.5,2-.24,2.99-.32l2.7-.22c-1.45.78-2.96.98-4.5,1.54-2.03.74-4.01,1.29-6.13,1.77l-8.22,1.85c-.49.11-1.27,0-1.94-.06.28-.22.74-.47,1.08-.52,1.69-.22,3.14-.6,4.75-1.05l4.98-1.38c-1.38-.81-2.58-.1-3.84.07-4.62.64-4.17.27-8.25,2.16-.53.25-1.23.86-1.83,1.04-1.99.6-4.03.79-6.11,1.1-1.04.16-1.91.38-3.04.26l2.53-.86,1.8-.59,3.51-1.08c6.16-1.9,3.35-1.76,11.07-3.34l2.76-.56c1.74-.36,3.44-.74,5.13-1.31,1.33-1.66,2.24-1.27,2.35-2.13.21-1.53-2.45-.47-2.05-2.44l-1.19-1.02c.78-.33,1.36-.32,2.11-.1,1.68.49.28-.75,1.98-1.66.84-.45,1.5-.79,2.49-.63.56.09,1.51-.7,1.11-1.04-.74-.62-1.61.02-2.21.39-1.41.86-3.11.72-4.7.91l-3.59.42-9.16.89-3.32.28-2.4.22c-1.01.09-1.87.15-2.95.38.61,1.22,6.03.94,7.01.77,2.41-.42,5.53-.67,8.16-.57-1.07,1.37-2.37.76-3.6.9l-7.65.83c-1.02.11-1.89.09-2.92,0-3.41-.3-6.8.26-10.1,1.05l-3.87.92c-1.18.28-2.6.09-3.77.03l1.86-1.02c1.16-.64,1.81-1.65,3.17-1.94-.47-.06-1.35-.29-1.92-.3l-17.48-.06c-1.1,0-2.09-.44-3.26-.07l1.23,1.44c-.11.74-5.19-.06-5.44-.13-2.04-.54-3.94-.28-5.69,1.12-.8.64-1.48,1.65-2.35,2.46l.12-1.76-1.16.62c-.46.24-1.67.41-1.99.82l-1.11,1.39-.08,1.84c-1.17-.15-1.84.42-2.05,1.5l-.3,1.5c4.32-.86,1.98-.38,4.07-2.79.3-.34.83-.82,1.17-.94s1.03.22,1.54.41c.73,1.05-2.57-.37-2.62,2.09-.02.99-.53,1.85-1.05,2.72l-2.01,3.32c-.39.64-.72,1.78-.94,2.56l-.78,2.67c-.13.46-1.49,4.21-1.9,3.66l-.49-.64c-.69.09-1.59,1.17-1.27,2.18l1.53-.76-2.14,4.9c-.6,1.37-1.18,2.78-1.56,4.2-1.11,4.14-.29,1.64-2.02,4.52s-2.15,4.56-3.08,7.55c-.51,1.66-1.3,3.26-1.93,4.96-2.05,5.55,1.13,2.26-.12,5.1l-.35.81c-.07.17.26.42.62.7l1.48-2.9c.36-.7-.13-2.12.11-2.92.68-2.22,2.71-5.84,3.08-7.46l.93-4.08c.48.85.77,1.8.7,2.57l-.22,2.46c-.28,3.11-1.01,6.18-2.16,9.07-.32.8-1.08,1.63-1.41,2.42l-1.17,2.76c-.33.78-1,2.11-1.34,2.8-.12.25-.82.68-.89.95l-1.61,6.66c-.2.84.52,1.73-.09,2.66-.25.38-.22,1.31,0,1.81s.88.79,1.61,1.05c-.05,2.4-.88,2.56-1.61,5.5-.03.14.56.39.65.28l.37-.49.37-.49c.08-.11.68.15.52.15-.23.81-.37,1.47-.49,2.23l-.51,3.28-.52,3.32,1.04-1.8.77.51c1.81-3.38,1.11-2.77,1.94-6.37.84,1.12.42,2.28.33,3.52-.08,1.09-.42,2-.84,3l-1.15,2.73-.94,2.03c-.54,1.16-.4,2.04-.46,3.28-.1,2.04-.35,4.08-.3,6.2.03,1.14-.07,2.22-.24,3.34l-.08.51c-.01.08-.29-.12-.34-.19l-.25-.31c-.63,2.92.49,3.9.53,6.94l.03,2.14c.02,1.5.12,2.87-.03,4.35l-.34,3.58-.31,2.4c-.12.95-.3,2.07,0,2.96.57,1.74,1.02,3.29,1.45,5.06.26,1.07.64,2.31,1.51,3,2.09,1.67,3.49,3.81,5.2,5.53.86-.19,3.45,3.29,4.5,4.47,1.47,1.65,3.25,2.66,5.15,3.75l2.91,1.66,1.67,1.13c4.22,2.86,3.34,4.9,4.78,7.49,1.1,1.98,1.97,4.08,1.62,6.38-.3,2-.12,4.01.04,6.03l.23,2.95c.02.3.03.89-.15,1.07-.21.22-.81.29-1.23.34-2.79.37-5.3.62-8.13.39-1.18-.09.36-5.01.4-6.89l.11-4.51c.04-1.73.31-3.18-.35-4.78-.29-.71-.54-1.71-1.1-2.26l-3.64-3.6c-.35-.35-1.03-.92-1.42-1.16l-2.87-1.72c-1.11-.67-2.27-1.17-3.19-2.12-1.84-1.91-3.34-3.21-5.55-4.78-3.26-2.33-3.91-6.49-6.84-10.64-2.44-3.47-1.94-5-4.24-8.5-.18-.49-.38-1.6-.29-2.12.19-1.14-.2-2.16-.23-3.32l-.21-8.49-.19-2.67c-.15-2.09.14-4.01.66-6.03l.53-2.05c.88-3.38,1.75-6.57,3.34-9.72,1.1-2.18.74-.07,1.33-3.16l.73-3.85c.15-.79.23-1.91.3-2.78l.28-3.59c.08-1.06.01-2.24.2-3.25.21-1.12.23-2.06.32-3.12l.42-5.3c.14-1.71,1.33-1.56-1.84-5.32l-1.43-1.7c-1.88-2.24-5.15-4.92-6.88-7.26s-3.04-4.58-4.25-7.15c2.77,2.93.68,2.1,4.36,6.02.93.99,1.88,2,2.9,2.87,2.44,2.08,4.9,4.72,6.92,7.26,1.88,2.37,2.59-4.51,2.64-5.34l.23-3.37c.16-2.38.56-6.04,1.34-8.08.49-1.29,1.07-2.45.93-3.85l.88-.24c.23-.06.25-.76.41-.95l1.56-1.72-.22-1.06c-.04-.22.53-.51.64-.72l.79-1.58-.41-.31c-3.69,2.69-.64,3.05-3.16,5.31-.05-.51-.08-1.26.08-1.84.94-3.56,2.01-7.04,2.42-10.7.48-4.33,1.87-7.99,4.15-11.72.99-1.61,1.76-3.62,2.89-4.88.37-.42.47-1.48.99-1.76,1.01-.55.97-1.6,1.39-2.52.48-1.06,1.65-1.89,1.93-3.16.14-.66-1.14-.63-1.61-.37-.87.47-1.54.44-2.51.3-.66-.1-1.7.45-2.41.55-2.18.3-4.25.55-6.44.74l-3.58.31c-.16.01-.64.03-.81.03-.15,0-.15.41-.17.6-.05.7,2.13.28,2.48,1.36-3.03-.94-5.75-1.83-8.76-2.39l-6.87-1.29-3.16-.62c-.87-.17-1.61-.33-2.17-.91.76-.52,1.36-.03,2.05,0,4.26.18,3.53.79,8.77,1.28l8.23.76c1.2.11,4.47-.9,6.93-1.02,2.65-.12,1.91-.44,4.07-.67,4.23-.46,3.3-1.47,5.99-1.19,1.44.15,2.69-.38,3.54-1.5l1.14-1.49-2.61-.41c-2.78-.44-7.94-1.66-10.14-3.13l-1.76-1.17c-1.15-.77-3.02-.57-4.32-1.18-2.03-.97-3.75-1.66-5.91-1.77-.22-.01-.75-.43-.97-.38s-.57.28-.81.42l-1.44-.68c-1.06-.5-1.96-.93-2.99-1.41l-1.79-.84c-.26-.12-.42-.61-.45-1.05-.06-.69-1.2-.39-1.73-.4-3.34-2.63-6.1-3.31-9.41-5.57l-6.84-4.68c-3.63-2.48-6.27-3.99-8.67-7.9-.22-.36-.85-.75-1.22-.64-.92,2.29.71,6.82.74,9.79-2.55.3-1.13-.97-1.83-4.72l-.75-4.05c-.15-.78-.58-1.52-1.09-2.41-.37.78-.43,1.4-.32,2.11l.49,3.42.21,3.01c.06.82.46,2.07.35,2.8-.03.2-.76.54-.87.38-.13-.21-.25-.59-.32-1-.67-3.96-1.29-7.94-1.23-11.95,0-.15.12-.63.24-.61l.86.09c-.33-1.12-.65-2.17-1.2-3.18l-1.28-2.35c-1.48-2.73-1.4-3.88-2.67-6.67-2.41-5.3-2.06-12.03-1.86-18,.08-2.52,2.5-4.42,2.81-6.28l1.65-1.34c2.23-.06.68-1.13,2.65-1.73.34,1.13.35,2.27.3,3.6-.18,4.6.22,3.14.56,7.12s.72,7.7,1.61,11.61c.42,1.83,1.12,3.59,1.78,5.36,1.27,3.4,4.02,6.68,6.61,9.23,2.79,2.75,3.96,2.57,6,4.57,2.91,2.87,6,5.21,9.55,7.26,2.69,1.56,3.73,1.84,6.47,3.36l3.55,1.98c1.33.74,2.58,1.48,3.97,2.06l2.72,1.14,3.69,1.58c.08.03.37.4.43.44.17.13-1.39.7-2.21-.09-.09-.09-.56-.09-.53.01s.12.34.2.45l1.21,1.67.75-.05c.1.54.25,1.2.42,1.47,1.05.08,2.04.34,2.87.66l1.71-.03c.13,0,4.65.24,3.13-.17l-.49-.13c-.83-.23-1.59-.45-2.36-.74l-1.78-.67-1.07.64-.44-.7c-.27-.43-.49.17-1.62-.31-.18-.08-.03-.48.07-.81.19-.61.79-1.13,1.3-1v.73s1.57-.25,1.57-.25c.92.24,6.42,1.04,7.01,1.07l4.66.23.18,1.33c.03.24.65.32.96.38l2.54.48c1.66.31,3.25-.03,4.6,1.46l1.04-1.41c.07-.09.25-.5.18-.57-.11-.1-.25-.22-.48-.36l-.56-.36c-.67-.43,1.45-.93,1.77-1.25.46-.48,1.07-1.54,1.55-1.99,2.34-2.18,4.09-4.52,5.87-7.13,1.24-1.83,2.2-3.65,3.31-5.58.97-1.69,2.13-3.28,3.2-4.93,1.85-2.85,4.33-5.05,6.78-7.34,1.24-1.16,2.38-2.24,3.73-3.24l1.35-1c-.07.71-.15,1.13,0,1.35.61.95,3.28-.66,3.82-.94.39-.2,1.3.23,1.58-.59.3-.89,1.1-1.06,1.9-.79,1.19.41,1.29-1.09,2.59-.55.74.31.04-.86.61-1.85l-1.44.25-3.09.53.25,1.03c.05.21-.79.42-1.01.29-2.17-1.24-2.21.9-4.96,1.01,1.72-1.84,3.62-3.24,5.62-4.73l4.9-3.65,5.26-3.23c1.14-.7,2.48-1.15,3.74-1.78,7.18-3.61,2.93.12,6.97-2.26l1.35.8c.8-.93,2.02-.99,3.09-1.03.35-.53.66-1.2,1.55-1.13.34.03.83-.54,1.16-.74,1.15-.68,2.63-.78,3.98-1.07.85-.18,1.86-.56,2.73-.56,2.41,0,4.79-.22,7.1.15,1.06.17,2.17.91,3.32.94,2.04.05,3.73.77,5.47,1.69,2.19,1.15,4.27,2.34,6.06,4.05.87.83,1.39,1.85,2.03,2.79.95,1.41,1.77,3.51,1.74,5.2-.05,3.55.49,1.94-.01,5.03.37,1.82,1.48,3.67,1.12,5.49l-.82,4.14-.53,2.96-.46,1.92c-.32,1.36-.45,2.69-.84,4.04l-.76,2.65c-.35,1.2-.93,2.31-1.25,3.56l-1.19,4.65c-.03.12.1.48.16.53.86.68,1.64-3.33,1.59-3.18l1.74-5.22c.27-.8.47-1.46.61-2.35.12-.77.56-1.78.48-2.51-.09-.92-.06-1.49.37-2.31s.46-2.28,1.07-2.95l2.33-2.55c1.54-1.69,3.18-3.59,5.01-4.96,2.78-2.08,4.46-4.55,4.43-8.22,0,.55.37-5.99.81-3.73.88,4.58-.82,3.7.55,7.32.52-1.72,1.85-2.82,2.37-4.22.83-2.25-.54-5.05-1.73-6.78l-.84.47c-.19.11-.5-.52-.5-.73l-.11-3.79c-.02-.6.09-2.31.48-1.99l.53.44c1.13.95,2.17-1.25,3.8,3.01.44,1.16.8,2.35,1.49,3.33.55.79,1.45,1.58,1.46,2.6.05,4.7.09,8.88-1.29,13.31-1.17,3.74-.49,8.01-4.16,11.2-2.11,1.84-1.87,2.98-3.23,5.67l-1.7,3.39c-1.24,2.47-2.87,4.7-4.56,6.96-1.48,1.98-3.47,3.49-5.16,5.36-.71.79-.49,1.89-.45,2.85.09,2.64.19,4.02,1.85,6.17l5.52,7.17c1.05,1.37,1.88,2.61,3.15,3.87.79.79,1.65,2.37,2.1,3.36l-.44.88c-.1.19.26.68.4.9l.94-.63c.81.91,1.41,1.77,1.91,2.79l.69,1.42c-.26.2-.39.3-.39.31l-.29-.55-.31-.57c-.09-.17-.74.18-.79.4-.22.94.58,2.09,1.33,2.82.25.24.56.87.79,1.11.85.93,1.1,1.91,1.67,2.95l1.53,2.82c-.03.54-.44,1.63-.29,2.14l.86,3.07c-.59,2.91.68,4.44.77,5.99l.22,4.19c.1,1.8,1.61,5.32,1.89,4.28.3-1.1-.13-1.08-.22-2.05l-.34-3.59s.26-.03.36-.04c.53-.06.29-4.51.18-5.25-.63-4.02-1.9-4.96-1.94-8.23,1.93,2.13,2.6,4.51,3.49,6.93.63,1.71,1.3,3.36,1.79,5.14.7,2.56,1.04,5.19,2.26,7.56.74,1.45,1.28,2.89,1.86,4.43.36.95.45,1.93.7,2.93l.91,3.6c.08.33,1.21,4.95.53,4.36l-.35-.3c-1.37-1.18-.23-2.92-1.58-5.27-.06-.11-.57-.07-.55.06l.07.65c.28,2.63.15,3.44,2.01,5.35.76-.11,1.93,4.5,1.97,4.79l.87,6.49c.14,1.02.28,1.77.63,2.73.74,2.01.78,4.19,1.27,6.26.61,2.58,1.09,4.91.34,7.6,0,.46.03.47.4-.07.37,2.17-.4.7-.55,1.99l-.45,3.95c-.51.04-1.09.02-1.21.21l-.5.78c-.89-.65.64-.89.81-3.15.09-1.25.08-2.6.63-3.67.27-.52.8-1.14.51-1.57-.68-.99-.49-1.8-.64-2.88l-.5-3.64c-.06-.45.1-1.11-.57-2.14-.26-.4-1.18,2.73-1.22,3.14l-.33,2.92c-.11.94.47,2,.06,3.11-.46,1.23,0,2.63-.21,3.78l-.82,4.56-1.46.07c-.35.02-.65.78-.64,1.13,0,.12.25.45.33.53s.33.24.34.12c.02-.13.12-.58.21-.66l.46-.43c.5.55,1.37,1.46,1.28,2.05l-.77,4.96c1.4.82.06-2.13,1.75-1.96,1.87.18.55-2.32,1.92-3.53l.39-.35c.6-.54-.45,2.35.31,3.52.51.79.88.98.49,1.81-.76,1.61-.7,3.45-.8,5.24-.13,2.3,1.03,1.47.45,2.77-.25.56.08,1.37.02,1.83l-.88,6.44c-.51,3.7-.36,4.94-.83,8.39-.13.97-.56,7.58-2.17,6.6-.23-.14-.99.15-.87.34,1.45,2.33,1.12,2.7.68,5.86-.08.55,0,1.7.2,2.18.84,1.9,1.56,3.85,2.14,5.81.76,2.57,1.52,3.71,1.36,6.47,0,.14.16.32.2.25l.33-.57c1.09-.28,2.34,4.65,2.83,6.12.22.65.86,1.18.68,2.01l-4.09.45-5.06.3c-1.19.07-4.25.74-4.27-.89-.01-.92-.01-2.49-.08-3.45l-.21-2.95-.63-5-.27-3.36-.53-5.07-.31-4.3-.11-7.17c-.03-1.87-1.44-3.64-1.35-5.71.05-1.18-1.41-4.52-1.03-6.47l1.12,1.13.21-.61c-.74-1.58-.92-3.21-1.1-4.82l-.36-3.17-.45-3.38c-.08-.56.07-1.42.21-2.03.78-3.3-.29-.4.5-3.78.02-.11.02-.5-.02-.59l-.26-.56c-.04-.08-.92.72-.53,2.19l-.12.59c-.02.08-.28.4-.33.34-.64-.76-.35-1.8-.14-3.34l.65-4.63c.2-1.41.92-2.76,1.12-4.01.3-1.84.29-3.55.85-5.33.52-1.66.29-3.72,1.41-5.12l1.05-1.31c1.23-1.52,1.97-1.22,1.09-4.81-.22-.91,2.34.39,1.74-1.12-.98-2.46,2.49-3.05-.12-7.13-.07-.47-.09-1.34-.19-1.75l-.52-2.15c-.25-1.05-.32-2.09-.41-3.22-.33-4.45-1.2-4.93-.21-9.12-.62-2.43.23-2.36,0-4.28-.88-.15-1.42.35-1.42.92l.02,4.6-.37,5.1c-.07.96-.05,1.59-.29,2.67l-.49.02c-.27-1.21-.45-2.25-.64-3.43l-.37-2.28c-.13-.8-.21-1.76-.23-2.5-1.14-3-1.95-3.36-3.44-6.74-.59-1.34-1.17-2.65-1.86-3.9l-1.46-2.64-2.69-5.72c-.65-1.38-1.37-2.77-2.14-4.09-.88-1.52-2.2-2.84-2.89-4.48l-.99-2.36c.85.28,1.24.34,2.45.43l-.13,1.18c0,.08-.04.46.02.41l.53-.45c.05,1.36-.1,1.66.58,3.22.14.32.78-.35,1.11.12.08.11.05.46-.03.56l-.39.53c-.1.14.32.51.5.64l1.06-1.26-1.21-3.94c-1.11-.67-1.78-1.14-1.63-2.64l-.6.75c-.08.2-.8-.61-1.14-1.07-.63-.42-1.32,1.24-1.55.84-.93-1.59-.31-.78-1.68-3.05-.88-1.46-1.7-3.18-2.32-4.79-.29-.76-.04-1.16-.91-1.66-2.14-3.45-3.54-7.05-4.9-11.07-.16-.47.11-1.72-.33-1.84l-.96.16c-.18.03-.45-.39-.53-.57l-.96-2.17c-.47-1.05-1.2-1.79-2.03-2.47-1.12-.93-2.05-1.28-3.4-.5l-1.99,1.15s-5.08,2.92-4.51,1.84c.05-.09.17-.47.31-.56l5.73-3.61ZM284.97,32.18c-.45-.87-1.07-1.51-2.15-1.94.14,1.09.81,1.98,2.15,1.94ZM234.6,80.16c2.2-.08,4.11.21,6.15.41,2.3.22,4.57.06,6.92.11.61.01,1.22.38,1.43.83.15.33.28,1.22-.08,1.37-1.47.6-3.47-.69-3.72.31-.06.25-.13.98.11,1.06,2.19.69,3.62.56,5.87-.18.63.46,1.2.88,1.96.31.48-.36.74-1.41-.09-1.85s-2.27-.08-3.35.06c-.32-.17-.54-1.62-.11-1.73,1.69-.43,3.28-.08,4.92,0l4.07.2,3.59.18c1.13.06,2.39-.2,3.64-.31,1.12-.09,2.61.07,3.48-.55,2.33-1.64,1.23-2.94,3.69-4.58,3.58-2.38,4.59-.95,8.91-2.83l1.58.27c.24-.27-.05-1.11-.37-1.39-.82-.72.21-1.47.29-2.07.22-1.57.76-2.82,1.29-4.26.57-1.57.55-3.53.8-5.24.6-4.01,1.42-2.37,1.57-6.7l.07-1.96c.04-1.12.03-2.58.55-3.45.79-1.32-.28-1.74-.5-2.68-.55-2.36-.45-4.91-1.62-7.1-2.96-5.55-6.25-7.33-12.55-7.18-.59.01-1.35-.11-1.92-.05l-4.59.47c-2.79.28-4.13.4-6.8,1.66l-5.08,2.39-2.7,1.4-1,.65c-2.11,1.37-4.59,2.16-6.78,3.52l-2.22,1.38-1.91,1.25c-2.82,1.85-7.77,5.79-10.03,8.23-.42.45-.97,1.01-1.46,1.37l-4.1,2.95c-.23-.25-.65-.71-.64-.69l-1.51,1.58c-.63.66-1,1.06-2.07,1.14-.5.04-.79.71-.64,1.15.12.34.76.9.98.65.64-.76,1.22-1.45,2.01-1.97-1.2,3.19-1.79,2-3.63,6.26-.56,1.29-1.31,2.59-2.57,3.25-1.41,1.9-3.33,5.42-5.29,6.43-.39-.26-.79-.57-.93-.4-.17.2-.44.58-.51.78s.42.43.88.72l-2.1,2.54c2.01.8,5.71,1.8,7.71,1.95l2.43.19,6.57.6c.65.06,1.77-.16,2.53-.23,1.36-.12,2.54-.03,3.86-.08l2.99-.11ZM253.58,32.6c-1.16-.25-2.23-.09-2.95.95,1.05.12,2.26.1,2.95-.95ZM247.17,35.71c.65,0,1.93.37,2.33-.06.44-.48.44-1.52,0-1.74-.87-.43-2.15.23-2.72,1l-1.5.8h1.9ZM241.57,40c.29-.02.65-.65.66-.94,0-.24-.28-.88-.51-.82-.32.07-.77.52-.72.78s.32,1,.58.98ZM238.31,38.7c.07-.32-.65-.12-.86.04l-1.67,1.27c.89.29,2.23-.01,2.53-1.31ZM291.03,52.71c2.26-.02,2.39-4.42,1.62-5-.84,1.44-1.25,2.79-1.77,4.24-.17.49-1.14.83-.63,1.65l.78-.88ZM223.89,55.33c1.99-1.34,1.56-2.01,3.45-1.85.12-.32.2-.94.43-.99l.89-.2c.15-.03-.06-.69-.11-.64l-3.29,1.44c-.88.39-1.99,1.55-3.07,1.38-.49-.08-1.27.82-1.37,1.27-.04.17.2.62.34.73s.39-.35.6-.57c.38-.41,1.64-.22,2.13-.56ZM291.49,60.47l.59-2.82c.07-.32.22-.74.16-.96-.05-.18-.56-.33-.72-.23-1.11.72-1.77,3.3-.04,4.02ZM215.23,61.05c.21-.79,1.64-.91.74-1.91l-1.63,2.38-.55.8c-.1.15.35.6.49.54.41-.3.78-1.2.94-1.81ZM290.5,61.72c-.84,1.14-.95,2.48-.73,3.89.8-.76,2.3-3.63.73-3.89ZM211.85,69.58c1.16-.47,3.22-2.6,2.92-2.51l.81-.26,1.46-1.63-2.15.51c-2.28,1.99-2.22,1.33-4.54,4.06l-.57.68,2.08-.85ZM149.07,68.51c.5-1.14-.23-2.09-1.27-1.98.07.79.57,1.49,1.27,1.98ZM159.96,71.95l2.16-.24-.83-2.12-2.46.39c-.23.04-.62.61-.49.75s.36.32.61.5l1.02.72ZM298.55,77.81c1.2-1.18,2.15-2.12,2.95-3.61.96-1.78,2.45-3.06,2.03-4.63-1.49,1.4-2.61,2.91-3.83,4.55-2.54,3.43-3.92,1.91-4.5,4.61l-.51,2.39c2.21.51,3.15-2.61,3.86-3.32ZM171.86,75.16l-2.62-.42-1.02-.82c-.78-.63-1.47-2.23-2.66-2.26-5.89-.11-1.46.18-2.73.58l.72-.23c.73-.23.97.84,1.42,1.09,1.03.58,2.11.82,2.3,2.31l3.59.58,1.01-.85ZM206.96,73.79c.51-.53.9-.9,1.39-1.62-.12-.07-.49-.22-.59-.12l-.43.43-2.52,2.52c-.52.51-1.28,1.13-1.38,1.69,1,.83,2.04-1.37,3.53-2.9ZM166.46,77.47l-2.74-1.14c-.23-.1-.66.67-.47.76l.76.34c.84.38,1.61.89,2.45.04ZM173.29,79.67c.03-1.11-1.28-.7-1.54-1.06-1.24-1.68-1.59-.52-3.21-1.53-.15-.09-.49.33-.59.59.52.75,4.71,2.45,5.35,2ZM280.63,79.71c-.59-1.48-2.18-2.18-3.6-1.18,1.06.84,2.23,1.18,3.6,1.18ZM202.43,85.99l1.73-1.95c.11-.13,0-.83-.14-.72-.1.08-.6.22-.69.13-.26-.27.37-1.09.5-1.45.44-1.19.74-2.3,2.18-2.88-1.86-.93-4.11,2.1-5.33,3.52-1.41,1.65,1.68.33,2.19,1.28-.57,1.22-1.98,1.47-2.62,2.32l-2.74,3.61c.07.27.94.54,1.29.4.27-.11.47-.59.56-1.02.48-2.21,2.91-3.06,3.07-3.24ZM288.82,80.98l-.31.94,1.44.48.31-.94-1.44-.48ZM269.56,82.81c1.14.65,2.24.96,3.36.15-.43-1.57-6.57-1.69-7.02-.17,1.22.42,2.37.29,3.66.02ZM261.53,83.64c.29-.07,1.03.1,1.32.14.58-.33,1.34-.87,1.97-1.36l-2.3-.17c-.52-.04-1.64.11-2.15.19l-.63,1.64,1.79-.44ZM278.38,85.85l-1.05-1.47c-.24-.33-.14-1.25-.18-1.81-.69.43-.99,1.06-.98,1.95,0,.63.21,1.21.68,1.47l.92.52c.16.09.72-.5.61-.66ZM194.82,89.49c1.41.16,1.67-.71,2.43-1.19,1.19-.74,2.6-1.65,2.42-3.42-2.01.78-1.27,2.04-3.79,3.49l-1.06,1.11ZM287.83,86.05l-1.11-.57c-.3-.15-1.05-.3-1.37-.25s-.85.63-.88.96c-.05.58.88.68,1.3.67.83-.02,1.67.3,2.06-.81ZM248.06,88.52c2.32.16,4.35-.09,6.59-.34l2.42-.28c1.19-.14,2.58.11,3.76-.14,4.54-.96,3.44-1.7,2.66-1.47-.82.24-2.3.34-3.28.47-1.42.18-2.73.54-4.12.62l-5.85.36c-1.21.08-2.28.21-3.32.7l1.14.08ZM289.49,88.99c.23.07.96-.06.89-.28l-.24-.76c-.05-.18-.62-.04-.79.08-1.83,1.26-2.23-.12-2.79,1.01,1.03,1.5,1.49-.5,2.93-.06ZM196.17,92.47l1.43-.46c.22-.07.62-.29.62-.48v-.74s-1.22.36-1.22.36l-1.21-1.02-1.56,2.17c-.53.74-1.54.97-1.83,2.15l3.07-1.24.69-.75ZM294.33,94.49c1.72-1.17-.34-.44-.99-2.93-.21,0-.7.11-.76.34-.36,1.31.72,1.87,1.76,2.6ZM299.57,106.51l-.3-.45c.65-1.46-.06-2.86-.56-4.16.33-1.47-.75-4.73-1.97-4.36-1.83.55-.06,3.23.07,4.28l.71-.52c.54.76.77,1.56.89,2.66.45,4.1,1.25,2.7,1.16,2.56ZM300.78,108.24c-.23-.44-.37-1.14-.55-1.72-.94.61-.83,1.61-.23,2.48.12.17.41.41.58.48s.73-.18.64-.35l-.45-.89ZM180.24,124.73c1.06-2.92,1.91-2.07,2.75-4.75l.56-1.78-.43-2.31c.1-.72.9-1.74,1.03-2.44.56-2.91,1.07-.67,2.33-5.07-.35-.3-1.02,0-1.38.38l-2.71,2.87c-.48.51-.83,1.15-1.02,1.82-.64,2.24-1.15,2.82-.58,3.9l-.04,1.02c0,.23.38.48.63.74-.41.96-.88,2.12-1.41,3.05-1.05,1.83-.91,3.2-.39,3.18.19,0,.55-.34.64-.6ZM301.58,111.47c.43-.3.9-.74,1.11-.58l.85.68c.28-.65-.15-1.74-.95-2.03l-1.44.53.44,1.4ZM327.08,168.24l.2-4.15.16-3.25c0-.17-.2-.58-.27-.73-.06-.11-.64.02-.67.14-.15.63.02,1.84.15,2.69l-.48,2.06c1.08,2.45-.27,1.7.15,3.17.07.25.75.3.77.07ZM324.78,181.59l.39,2.42c.03.19-.12.59-.09.76s.63.36.7.2c1.73-3.7,1.52-5.2.95-9.4-.09-.69.27-4.2.41-5.12.03-.19-.28-.33-.65-.57-.55.64-1.09,1.57-1.14,2.51-.1,1.97-2.76-.14-1.85,5.28l1.66.51c.13,1.12-.07,2.07-.38,3.41ZM324.62,207.11c.14-.28.12-1.2.18-1.48.28-.55.55-1.56.29-1.99-1.24.02-.68,1.42-.71,2-.68.91-1.61,2.32-.88,3.73l1.12-2.27ZM166.35,207.72c.68-.85.88-1.08,1.54-1.66.07-.56-.29-1.55-.9-2.36-.49.78-1.24,4.01-.64,4.02ZM167.27,220.74c.06.09.28.19.37.25s.15-.51.09-.62l-1.39-2.93c0-.46.49-1.19-.17-1.53l-.51,3.06c-.1.59.23,1.6.7,1.72.11.03.51-.54.58-.44l.33.5ZM321.24,228.11l.91-3.33-.69.46c-1.39-2.73.12-4.85-.41-7.55-.95.85-.92,1.68-.72,2.53-.52,3.07.66.62-.28,4.4-.18.72-.37,4.25.46,4.07.18-.04.68-.36.74-.58ZM172.19,224.16c-.72-.11-1.31-.02-1.29-.23l.06-.76c.02-.2.05-.94-.16-.96-.43-.03-1.3-.05-1.78-.04-.39.91-.21,2.01.24,2.58.38-.26.97-.59,1.21-.45.2.12.33.49.6,1,.34-.08.93-.72,1.12-1.14ZM322.09,231.42l-.13-3.54c-1.42,5.11.17,4.75.13,3.54ZM176.51,237.39c.25-1.09.66-2.4.25-3.39-1.03-2.47-1.42-3.07-2.81-5-.14-.2-1.13-.28-1.15-.02-.14,1.35.25.08,1.24,2.73.52,1.38.81,1.05-.27,2.66,1.31,1.48.69,2.04,2.74,3.02ZM181.05,239.43l-1.68-2.96-1.65-1.49c-.19.36.17.81.53,1.12.79,1.17.95,2.79,2.8,3.33ZM326.83,245.55l-.2-2.03c-.5.34-.99.64-1.29.74l-1.28-3.25c-.1-.25-.43-.63-.66-.69s-.68.51-.66.75l.2,2.92c.11,1.64.4,3.32,1.46,4.59l1.27,1.52c1.44-1.82-.76-4.54.2-4.54h.96ZM191.66,248.84l.33-2.62c.03-.22-.52-.7-.4-.86.09-.13.38-.55.39-.72.06-.57-1.29-.3-1.66-.48l-1.88-1.8-1.79-.48.42,2.72,1.77-.83.65,1.1,1.5.88c-.29.56-.67,1.32-.51,1.72.2.52.76,1.16,1.18,1.36ZM197.48,256.61c.85-1.46,1.3-2.82.82-4.32-.09-.59-1.46,5.29-.82,4.32ZM196.26,261.29c.8-.12,1.19-1.19.97-2.14-.66.31-1.61,1.19-.97,2.14ZM199.61,261.02l-1.26,3.84c1.44.5,1.86-3.77,1.26-3.84Z"/>
      <path class="cls-1" d="M324.78,181.59c.31-1.33.51-2.29.38-3.41l-1.66-.51c-.91-5.42,1.75-3.32,1.85-5.28.05-.94.59-1.87,1.14-2.51.37.23.68.38.65.57-.14.92-.5,4.43-.41,5.12.57,4.2.78,5.7-.95,9.4-.07.16-.66-.03-.7-.2s.12-.58.09-.76l-.39-2.42Z"/>
      <path class="cls-1" d="M298.55,77.81c-.71.7-1.65,3.82-3.86,3.32l.51-2.39c.58-2.7,1.95-1.18,4.5-4.61,1.22-1.64,2.35-3.15,3.83-4.55.42,1.57-1.08,2.85-2.03,4.63-.8,1.48-1.75,2.43-2.95,3.61Z"/>
      <path class="cls-1" d="M326.83,245.55h-.96c-.96.01,1.24,2.73-.2,4.55l-1.27-1.52c-1.06-1.27-1.34-2.95-1.46-4.59l-.2-2.92c-.02-.24.43-.82.66-.75s.56.44.66.69l1.28,3.25c.3-.1.8-.41,1.29-.74l.2,2.03Z"/>
      <path class="cls-1" d="M202.43,85.99c-.16.18-2.59,1.03-3.07,3.24-.09.43-.3.92-.56,1.02-.35.14-1.22-.13-1.29-.4l2.74-3.61c.65-.85,2.05-1.1,2.62-2.32-.51-.94-3.61.38-2.19-1.28,1.22-1.42,3.47-4.45,5.33-3.52-1.44.58-1.74,1.69-2.18,2.88-.13.36-.76,1.17-.5,1.45.09.09.59-.04.69-.13.14-.12.25.59.14.72l-1.73,1.95Z"/>
      <path class="cls-1" d="M248.06,88.52l-1.14-.08c1.04-.49,2.11-.63,3.32-.7l5.85-.36c1.38-.09,2.7-.44,4.12-.62.98-.13,2.46-.23,3.28-.47s1.88.51-2.66,1.47c-1.18.25-2.57,0-3.76.14l-2.42.28c-2.23.26-4.27.5-6.59.34Z"/>
      <path class="cls-1" d="M299.57,106.51c.09.13-.72,1.54-1.16-2.56-.12-1.1-.35-1.89-.89-2.66l-.71.52c-.12-1.04-1.9-3.73-.07-4.28,1.23-.37,2.3,2.9,1.97,4.36.5,1.3,1.21,2.7.56,4.16l.3.45Z"/>
      <path class="cls-1" d="M171.86,75.16l-1.01.85-3.59-.58c-.19-1.49-1.27-1.73-2.3-2.31-.44-.25-.69-1.32-1.42-1.09l-.72.23c1.27-.4-3.16-.69,2.73-.58,1.19.02,1.88,1.63,2.66,2.26l1.02.82,2.62.42Z"/>
      <path class="cls-1" d="M321.24,228.11c-.06.22-.56.54-.74.58-.83.19-.64-3.35-.46-4.07.94-3.78-.23-1.33.28-4.4-.2-.85-.22-1.67.72-2.53.54,2.69-.98,4.82.41,7.55l.69-.46-.91,3.33Z"/>
      <path class="cls-1" d="M223.89,55.33c-.49.33-1.76.15-2.13.56-.21.23-.46.68-.6.57s-.37-.56-.34-.73c.1-.44.88-1.34,1.37-1.27,1.09.17,2.19-.99,3.07-1.38l3.29-1.44c.05-.04.26.61.11.64l-.89.2c-.24.05-.31.67-.43.99-1.89-.16-1.47.51-3.45,1.85Z"/>
      <path class="cls-1" d="M196.17,92.47l-.69.75-3.07,1.24c.29-1.18,1.31-1.41,1.83-2.15l1.56-2.17,1.21,1.02,1.21-.36v.74c0,.19-.4.41-.62.48l-1.43.46Z"/>
      <path class="cls-1" d="M211.85,69.58l-2.08.85.57-.68c2.31-2.73,2.25-2.07,4.54-4.06l2.15-.51-1.46,1.63-.81.26c.3-.1-1.76,2.03-2.92,2.51Z"/>
      <path class="cls-1" d="M269.56,82.81c-1.29.27-2.43.4-3.66-.02.44-1.52,6.58-1.39,7.02.17-1.12.8-2.22.5-3.36-.15Z"/>
      <path class="cls-1" d="M327.08,168.24c-.01.23-.69.18-.77-.07-.42-1.47.93-.72-.15-3.17l.48-2.06c-.14-.85-.3-2.07-.15-2.69.03-.12.62-.25.67-.14.08.15.28.57.27.73l-.16,3.25-.2,4.15Z"/>
      <path class="cls-1" d="M291.03,52.71l-.78.88c-.51-.81.45-1.15.63-1.65.51-1.45.92-2.79,1.77-4.24.78.58.65,4.98-1.62,5Z"/>
      <path class="cls-1" d="M159.96,71.95l-1.02-.72c-.25-.18-.48-.36-.61-.5s.26-.71.49-.75l2.46-.39.83,2.12-2.16.24Z"/>
      <path class="cls-1" d="M247.17,35.71h-1.9s1.5-.8,1.5-.8c.57-.78,1.84-1.44,2.72-1,.45.23.45,1.27,0,1.74-.4.43-1.67.06-2.33.06Z"/>
      <path class="cls-1" d="M261.53,83.64l-1.79.44.63-1.64c.51-.07,1.63-.22,2.15-.19l2.3.17c-.62.49-1.39,1.03-1.97,1.36-.29-.05-1.03-.22-1.32-.14Z"/>
      <path class="cls-1" d="M173.29,79.67c-.64.45-4.83-1.26-5.35-2,.11-.26.45-.68.59-.59,1.62,1.01,1.97-.15,3.21,1.53.27.36,1.57-.05,1.54,1.06Z"/>
      <path class="cls-1" d="M194.82,89.49l1.06-1.11c2.52-1.45,1.78-2.71,3.79-3.49.18,1.77-1.23,2.67-2.42,3.42-.77.48-1.02,1.34-2.43,1.19Z"/>
      <path class="cls-1" d="M206.96,73.79c-1.49,1.53-2.53,3.73-3.53,2.9.1-.57.86-1.18,1.38-1.69l2.52-2.52.43-.43c.1-.1.47.06.59.12-.49.71-.88,1.09-1.39,1.62Z"/>
      <path class="cls-1" d="M291.49,60.47c-1.73-.71-1.07-3.3.04-4.02.16-.1.67.05.72.23.06.22-.09.64-.16.96l-.59,2.82Z"/>
      <path class="cls-1" d="M278.38,85.85c.11.15-.45.75-.61.66l-.92-.52c-.47-.27-.68-.84-.68-1.47,0-.89.29-1.52.98-1.95.04.56-.06,1.48.18,1.81l1.05,1.47Z"/>
      <path class="cls-1" d="M324.62,207.11l-1.12,2.27c-.73-1.41.2-2.82.88-3.73.02-.58-.53-1.98.71-2,.26.43-.01,1.44-.29,1.99-.06.27-.04,1.19-.18,1.48Z"/>
      <path class="cls-1" d="M287.83,86.05c-.39,1.12-1.23.8-2.06.81-.42,0-1.36-.09-1.3-.67.03-.33.55-.9.88-.96s1.07.1,1.37.25l1.11.57Z"/>
      <path class="cls-1" d="M290.5,61.72c1.56.26.07,3.12-.73,3.89-.22-1.4-.11-2.75.73-3.89Z"/>
      <path class="cls-1" d="M294.33,94.49c-1.04-.73-2.12-1.29-1.76-2.6.06-.22.56-.34.76-.34.66,2.5,2.71,1.76.99,2.93Z"/>
      <path class="cls-1" d="M280.63,79.71c-1.37,0-2.54-.34-3.6-1.18,1.42-1.01,3.01-.3,3.6,1.18Z"/>
      <path class="cls-1" d="M289.49,88.99c-1.43-.44-1.9,1.56-2.93.06.56-1.14.96.24,2.79-1.01.17-.12.74-.26.79-.08l.24.76c.07.22-.67.35-.89.28Z"/>
      <path class="cls-1" d="M301.58,111.47l-.44-1.4,1.44-.53c.8.29,1.23,1.38.95,2.03l-.85-.68c-.21-.17-.67.27-1.11.58Z"/>
      <path class="cls-1" d="M300.78,108.24l.45.89c.09.17-.47.43-.64.35s-.47-.31-.58-.48c-.6-.87-.71-1.87.23-2.48.18.59.32,1.28.55,1.72Z"/>
      <path class="cls-1" d="M166.46,77.47c-.84.85-1.61.34-2.45-.04l-.76-.34c-.2-.09.24-.86.47-.76l2.74,1.14Z"/>
      <path class="cls-1" d="M215.23,61.05c-.16.61-.54,1.51-.94,1.81-.14.05-.59-.4-.49-.54l.55-.8,1.63-2.38c.9,1-.54,1.12-.74,1.91Z"/>
      <path class="cls-1" d="M322.09,231.42c.04,1.2-1.55,1.57-.13-3.54l.13,3.54Z"/>
      <path class="cls-1" d="M253.58,32.6c-.68,1.06-1.89,1.07-2.95.95.72-1.05,1.79-1.2,2.95-.95Z"/>
      <path class="cls-1" d="M238.31,38.7c-.3,1.3-1.64,1.6-2.53,1.31l1.67-1.27c.21-.16.93-.36.86-.04Z"/>
      <path class="cls-1" d="M284.97,32.18c-1.33.04-2.01-.85-2.15-1.94,1.08.43,1.69,1.07,2.15,1.94Z"/>
      <path class="cls-1" d="M149.07,68.51c-.7-.49-1.21-1.19-1.27-1.98,1.04-.1,1.77.84,1.27,1.98Z"/>
      <path class="cls-1" d="M241.57,40c-.26.02-.53-.73-.58-.98s.4-.7.72-.78c.23-.05.52.59.51.82,0,.29-.37.91-.66.94Z"/>
      <rect class="cls-1" x="288.89" y="80.92" width=".99" height="1.52" transform="translate(120.44 330.43) rotate(-71.58)"/>
    </g>
    <g>
      <path d="M129.17,95.09c-.01-1.26-.07-2.44.15-3.7.06-.33-.47-.79-.84-.86-1.4-.27-1.07,2.69-.88,3.55-.3,3.26-.19,7.23-.08,10.53l.14,4.02c.05,1.41-.2,2.69-.87,3.9l-.33-3.35-.67-4.54c-.57-3.85.1-2.34-.35-4.44-.1-.46-.09-.95-.05-1.39l.08-.88c.02-.2-.83-.15-.99-.31-1.23-1.29-1.51-3.85-.63-5.65s2.47-2.72,4.65-3.12c1.51-.28,2.67.02,4.1.47,1.82.58,3.35,1.09,4.94,2.51,1.17-.85.9-2.56,1.76-2.58.23,0,.68.43.74.65.65,2.45-2.75,6.73-4.47,8.03-3.93,2.98-2.8.99-4.97,1.88l-.63.26c-.12.05-.3-.27-.4-.37-.13-.12.38-.58.58-.56,1.41.13,3.55-.54,3.72-2.31-1.67.85-3.01,1.22-4.69.63l-.02-2.38ZM133.45,96.03c.95-.71.37-2.05,0-2.84.06-.41.3-1.32.13-1.65-.42-.82-2.43-1.38-2.88-.47-.38,1.06.13,2.43-.79,3.36-.33.33-.45,1.25-.06,1.52,1.06.72,2.61.81,3.59.08ZM134.65,96.3l1.52-1.47c.45-.43.54-1.62.17-2.08s-1.59-.88-2.08-.44.39,1.51.53,2l-.14,1.98ZM126.05,94.26c.1-.81-.35-1.77-.95-1.52-.36-.07-.7,2.29.3,2.37.24.02.6-.48.64-.85Z"/>
      <path d="M124.42,87.34c-1.18-.61,3-1.59,2.19-3.75-.47-1.26-1.61-2.38-1.28-3.91.28.95,1.67,2.59,2.09,1.84l.61-1.08c.58,2.3-.65,2.54.24,3.76.2.27.97.56,1.19.29,1.75-2.13-.67-5.78-.71-6.26l-.29-3.54c-.04-.5.64-1.46.91-1.96-2.16-.04-3.3,1.89-4.02,4-1.54-2.59,2.11-5.34,4.35-5.98,3.33-.96,4.58-.06,7.59.95.18.06.57.57.48.72-.46.79-1.74-.72-6.02-.67-.95.01-1.69.12-2.17.93l2.46.59c-.32.74-.74,1.69-.92,2.31.33,1.43.37,2.69.49,4.12.14,1.7.3,3.35-.25,4.93l.47,1.99c-2.32-.3-3.73-1.87-5.91.17-.23.22-.88.35-1.49.56Z"/>
      <path d="M143.76,87.79c-4.72.44-1.3.76-4.58.92l-3.11.15c-1.17.05-2.41-.34-2.64-1.67,2.59.03,4.8-.43,7.24-.68l3.08-.32c.9-.09,2.27.1,2.69-1.05-.35-1.1-.91-2.49-1.43-3.57l-.87-1.85c-1.05-2.22-.83-1.64-2.85-3.57-.44-.42-.94-.78-1.38-1.26l-1.43-1.58c-.07-.08,0-.64.09-.6s.37.15.46.22l2.84,2.37c1.54,1.29,2.4,2.76,3.21,4.53s1.52,3.46,1.64,5.6l9.43.11,3.43.41c2.6.31,5.05.85,7.53,2.03-1.54.25-2.93-.51-4.47-.74-.82-.12-1.72-.23-2.57-.3l-2.45-.21c-1.68-.14-3.55-.24-5.24,0l-5.83.8-2.82.26Z"/>
      <path d="M141.95,81.61c.05.56.08,3.35-.98,3.43-.29.02-.68-.68-.6-1.03.36-1.54-.48-2.81-1.47-4l-3.69-4.47c-.56-.68-1.13-1.2-1.87-1.88,2.23-1.87,5.11,2.49,6.57,4.15.96,1.09,1.89,2.1,2.04,3.79Z"/>
      <path d="M143.44,100.26l-1.75-2.95c-.27-.45-.27-.99.16-1.42,1.61,2.03,2.59,4.11,3.09,6.65-.73-.61-.98-1.41-1.5-2.28Z"/>
      <path d="M152.09,92.04c-1.32.33-2.48-.18-3.73-.86,1.37-.54,2.58-.04,3.73.86Z"/>
      <path class="cls-1" d="M133.45,96.03c-.98.73-2.53.64-3.59-.08-.39-.27-.27-1.19.06-1.52.92-.93.4-2.3.79-3.36.45-.91,2.46-.35,2.88.47.17.33-.07,1.24-.13,1.65.36.79.95,2.13,0,2.84Z"/>
      <path class="cls-1" d="M134.65,96.3l.14-1.98c-.14-.49-1.03-1.55-.53-2s1.72,0,2.08.44.28,1.64-.17,2.08l-1.52,1.47Z"/>
      <path class="cls-1" d="M126.05,94.26c-.05.37-.4.87-.64.85-1-.07-.66-2.43-.3-2.37.6-.25,1.05.7.95,1.52Z"/>
    </g>
  </g>
</svg>