<?xml version="1.0" encoding="UTF-8"?>
<svg id="Layer_2" data-name="Layer 2" xmlns="http://www.w3.org/2000/svg" viewBox="0 0 432 288">
  <defs>
    <style>
      .cls-1 {
        fill: #fff;
      }
    </style>
  </defs>
  <path class="cls-1" d="M102.39,139.94V4.65h227.21v281.34H102.39v-144.68c.29-.03.75-.13.99-.26.26-.14.15-1.1-.15-1.13-.24-.03-.66,0-.84.02ZM251.2,6.16c-.03-.46-.96-1.21-1.35-1.05-.61.26-.29,1.15.1,1.45.35.27,1.29.29,1.24-.4ZM240.5,21.07c.03-.26.11-.53,0-.53l-.51-.02c-.11,0-.08.45-.01.54l.9,1.32c.1.15.67-.24.63-.43-.2-.79-1.05-.47-1-.88ZM307.62,25.02v-.83s-.38.36-.38.36c-.07.07.15.27.38.47ZM170,26.08c.07-.41-.17-.88-.39-.85-.28.04-.87.33-.78.54.15.32,1.04.56,1.17.31ZM167.94,25.43l-.1.73.54.08.1-.73-.54-.08ZM263.54,26.14c.05-.14-.42-.45-.48-.36-.46.66-1.06,2.05-.41,2.87l.89-2.51ZM169.03,26.78l.24.42c.04.06.36-.07.33-.14l-.17-.39c-.03-.07-.44.05-.4.11ZM170.01,30.8c.53-.44.97-.51,1.43-.44l-.42-1.78c-.09-.38-1.03-.73-1.37-.73l-1.96.8c.02.1.5.48.69.44.16-.04.39-.16.72-.33l.9,2.04ZM260.52,28.76l.03.56c0,.08.31-.03.32-.11v-.38c.01-.08-.35-.14-.35-.07ZM176.82,40.35l.32-.41c.18-.24,1.42,2,1.94,2.14.86-.38,1.21-1.77.56-2.24s-.96-.93-.89-1.85c-.14-.02-.59,0-.61.16l-.06.58c-.06.52-.15,1.01-.27,1.34l-1.07-3.13c-.39.09-.46.46-.48.77l-.05.6c0,.08-.4,0-.42-.08l-.49-1.54c-.08-.27.08-1-.17-1.12-.35-.17-.8-.28-1.07-.24l.08,1.26-1.41-.94c-.24-.16.29-.78.5-1.07-.14-.71-.99-1.56-1.62-1.94l.8-.45c.17-.1-.12-.69-.23-.86-.09-.14-.33-.06-.65-.09-.77-.34-2.6.76-2.64,1.05l1.24.74c.33.2,2.31.96,1.93,2-.17.46-1.48,1.18-.81,1.97.07.09.54.23.56.11l.12-.55c.28-1.32.42.44,2.04.42.14,0,.65.14.59.27l-.23.48c-.08.17-.15.69.03.71l.78.09,1.2,1.57-.73.51.17,1.66c.49-.22.9-.42,1.15-.4.5.04.23.35,1.37.85.15.06.5-.36.45-.53-.15-.6-1.32-1.03-1.81-.83-.14.06-.68-.27-.59-.4l.46-.6ZM171.58,35.04c-.15-1.2-2.9-1.31-2.77-.81l.32,1.24c.03.11.44.11.44,0v-.4s-.02-.48-.02-.48c-.02-.7,1.39,1.26,2.04.46ZM278.98,36.83l-1.56-.02c-.12-.14-.42-.72-.57-.62-.62.43-.73.85-.87,1.41-.05.21.36.74.57.69.37-.09,2.77-.87,2.43-1.45ZM169.56,37.59c.57.41.92.36,1.09-.05.14-.33.04-.78-.29-1.06l-.8,1.1ZM172.7,39.04c.15.09.57-.21.67-.36s.05-.72-.11-.82c-.17-.11-.56.26-.75.43-.13.12-.14.56.18.75ZM171.06,38.82c.25-.36-.28-.73-.52-.59-.21.12.37.81.52.59ZM175.23,39.54c-.11-.22-.58-.57-.8-.62-.38.89-.31,1.84.35,2.6.25-.13.57-1.75.46-1.98ZM250.56,46.09c.15-.05.67-.26.59-.38l-.3-.48c-.05-.09-.39.11-.44.19l-.26.45c-.05.09.28.25.4.21ZM211.16,67.8l1.45.64-1.73-2.52c1.76-.1-.4-2.51.82-2.89.34-.1.8.49,1.15.92l.37-1.1c.05-.13.39-.3.51-.24l.66.35c.1-.46-.1-.98-.39-1.44l-1.89-2.97c2.11-.18,1.78.79,3.12.42-.74-.92-1.15-1.48-1.69-2.34s-1.45-1.52-2.18-2.24c-1.76-1.73-.5-.83-1.75-2.69-1.47-2.19-1.53-2.13-3.7-2.44l.06,1.2-.93-.38c-.19-.08-.77.37-.68.55l.77,1.54-2.51.27c-.49.05-1.13.28-1.37.68.49.82.91,1.79,1.41,2.34l1.22,1.35c.41.45,1.36.86,1.68,1.36l1.03,1.65c-.94.1-2.02.16-2.82.72.07,3.6,1.17,1.47,1.4,3.65.06.53.69.97,1.11,1.31l1.3,1.04.83.87c1.1.44,1.77,1.84,2.29,1.43.17-.14.27-.53.46-1.04ZM153.52,53.25c.11-.13.02-.67-.12-.76-.1-.06-.43-.05-.52.03-.22.19.38,1.05.64.73ZM314.37,55.58l.03.57c0,.08.32-.03.32-.11v-.38c.01-.08-.35-.16-.35-.08ZM315.64,57.54l-.48.22.24.53.48-.22-.24-.53ZM314.36,58.83c0-.16-.13-.3-.29-.3s-.29.13-.29.3.13.3.29.3.29-.13.29-.3ZM216.24,60.31c-.02.41-.06.71.04.7l.44-.06c.1-.01.03-.43-.06-.47l-.42-.17ZM215.68,61.41c0-.22-.18-.41-.4-.41s-.4.18-.4.41.18.41.4.41.4-.18.4-.41ZM216.26,64.28l1.17-1.44c.21-.26.32-.97.17-1.25-.53-.4-1.28.06-1.55.66-.3.69-.74,1.47.21,2.03ZM179.14,63.4c-.16-.67-.84-1.11-1.22-.85-.22.15.08.83.38.95.25.11.69.15.84-.1ZM147.49,67.53l.03.56c0,.08.31-.03.32-.11v-.38c.01-.08-.35-.15-.35-.07ZM258.71,69.58c-1.04-.72-2.13-.27-2.93.54-1.16,1.17-2.15,1.63-1.5,2.09.13.09.49.05.62-.05,1.47-1.17,1.06.55,3.81-2.57ZM180.81,90.05c.41.03.72.12.8.02l.41-.46c.51-.58.59-1.13.53-1.97l-.26-3.72-.15-2.69-1.73-.79c1.72-1.04,3.31-1.47,5.19-1.94.78-.2,2.17-2.12,1.37-2.46l-.56-.23c.39-.22.84-.51.86-.85-.13-.43-1.61-.04-1.61-.3v-.57c-.01-.12.22-.08.43-.06h.65c.15,0,.04-.73-.1-.8-1.02-.51-3.6-1.43-3.7-2.01,1.62.11,2.98.33,4.48.65l.4-.34c-.45-.5-.92-.69-1.56-.77l-3.83-.48c-.41-.05-.85-.77-1.55-.67-1.07.15-2.11.09-3.2.11.17.68-.06,2.08-.79,2.19-.54.08-1.53-.29-1.87.26-.11.18-.08.83.11.88,2.34.65.68.71,2.23.81.66.04,1.03-.02,1.7-.3.33,1.19-1.34,1.02-1.42,1.87-.06.67.69,1.38,1.26,1.64l1.67-1.35c.4-.32.69-.93,1.02-1.46.32-.01.93.73.81.98l-1.41.82c-.2.12-.57.42-.71.63-.11.18.07.53.17.88l-1.8,2.02c.83.65.35,1.46.4,2.19l.2,2.92c.03.4.4,1.15.32,1.52-.28,1.38.29,2.29.57,3.48.15.64-.5,1.6.5,2.37l.17-2.04ZM260.22,73.26c.53.53,1.68-.36,1.52-1.05l-.59-2.52c-1.66.84-1.42,3.08-.93,3.57ZM259.37,74.39l-.94-.18c-.36-.07.05-1.04-.75-1.25-.15-.04-.24.38-.24.57l-.09,2.11.76-.71c.33.16.77.32,1.03.27.22-.04.45-.76.24-.8ZM251.28,84.55l.02-2.56c0-1.05-.1-1.86-.36-2.99l-1.61,1c-.76.47.28,1.53.08,2.05-.13.34-1.19.41-1.15.87.09.91.59,1.34.33,1.45-.14.06-.5.18-.65.26l-1.8.95c-.85-.19-1.82-.7-2.48-1.25l.15-1.55c.08-.9-.42-3.23-.45-3.2l.4-.44-.44-2.86c-.1-.61-.21-1.11-.61-1.42-.32-.24-1.24-.46-1.48-.14-.48.64-.7,1.53-.76,2.3l1.04.7-.16,1.21c.26.51.18,1.04.24,1.56.08.77.65,1.56.37,2.46l-1.24.4.72.98c.18.25-.33.78-.58,1.05-.95,1.06.42,2.22.2,3.24,2,2.17,7.99,1.22,9.28-1.26-.14-.3-.58-.73-.52-.96.05-.2.3-.57.39-.77.09-.21-.11-.95.11-.97l.95-.1ZM224.58,80.91c.22-.7.68-1.02,1.35-1.35-.24-1.18-.6-2.56-1.14-3.66-.35-.72-2.55-.84-2.95.25-.23.62,1.07,1.89.38,2.26l-.95.5c-.31.16.18,1.08.52,1.25.89.45,1.92.72,2.79.76ZM259.26,75.94l-.38.55.37.26.38-.55-.37-.26ZM255.95,76.4c-.08-.23-.74.2-.71.45.03.21.16.63.26.8.44-.17.64-.71.46-1.24ZM229.94,87.54c-.29-1.08-2.13-.28-3.53-1.67.15-.49,2.11.34,2.1-.43-.15-.55-.2-.8-.14-1.44l-2.41-.31c-.94-.12-1.9-.52-2.92-.46-.91.05-2.59.14-2.77-1.05.29-1.34-.84-2.62-1.23-4.33-.29.13-1.01.49-1.13.79-.67,1.68-2.66,5.86-.91,6.97,2.92.19,2.12,1.34,3.15,2.79.39-.12.57-.13.57-.28l.03-.78,3.45.05c.89.01,1.93-.32,2.8-.07,1.03.29,1.89.47,2.93.22ZM257.56,78.84c.03-.19-.46-.41-.64-.41s-.47.3-.48.5c0,.19.22.68.4.65.24-.05.69-.5.73-.74ZM254.4,79.32c-.49-.03-.99.3-1.11.63-.09.25-.11.81-.15,1.09-.36.69-.48,1.19.01,1.85l.34.46c.59.78,1.08-3.75.91-4.03ZM213.35,83.26c.15-.03.19-.93.32-.88l.59.22c.35.13,1.12.47,1.4.24.4-.33.08-.91-.16-1.1-.29-.22-.8-.29-1.25-.3l-1.9-1.8c-.3,1,.61,1.3.83,2.29-1.14-.47-3.13-1.52-3.85.49,1.08.6,3.01,1.04,4.03.84ZM198.06,84.95l2.02-.69c.36.33,1.03.9,1.36.78,1.46-.57,1.25-3.94-.01-4.16l-1.46,1.15c-1.24.98-.73.06-2.8,1.97-.16.15.07.77.25.87.15.09.46.14.64.08ZM225.51,82.75c.11-.52-.44-1.02-.76-.91-.23.08-.26.68-.15.89s.86.28.91.02ZM238.65,84.79l-.91.21.15.7.91-.21-.15-.7ZM199.73,90.28l-.57-1.64c-.09-.27-.56-.62-.79-.54s-.54.61-.48.96c.15.85,1.23,1.69,1.89,2,.1.05.42-.25.33-.33-.07-.06-.35-.35-.39-.45ZM204.6,91.46c.34-.96-.26-1.95-1.16-1.8.04.69.47,1.42,1.16,1.8ZM231.59,120.88l.12-2.88c.12-.2.64-.74.81-.62.36.27.87.71,1.07,1.16.35.78-1.12.68-.33,2.49.32.73-.13,1.96.6,1.9.18-.02.33-.34.44-.61.57-1.39,1.85-2.77,2.52-4.48-1.3-1.06.24-2.08-.72-2.45-1.59-.61.27-2.34-.38-4.34-.78.51-1.1,1.19-1.3,1.96l-.82.55.34-1.83,1.42-6.21,1.64-.86-1.29-.23-1.51-1.52c-.65-.65-3.16-.82-4.45-2.32-.52-.61-1.11-1.13-.84-2.08l1.18.98c.55.46,1.25.9,1.92,1.16,1.3-1.24,1.16-2.83,1.46-4.33.37-1.84,0-3.31-1.83-4.18-.66-.31-1.55-1.17-2.34-.42-.07.16-.13.6-.29.62l-.8.07-1.51.43c-.76-1.6-3.52-3.8-4.7-2.65-.16.16-.28.7-.15.9l.91,1.44c-3.21-.37-1.98.68-5.82.44l-3.2-.2-.22,1.66,2.12.24,2.34.31c.78.1,1.62.13,2.51.2-1.88,1.28-1.7,3.21-3.08,3.12-.17-.01-.53.45-.4.57.46.43,1.51.94,2.13.89l2.24-2.21c.29.48.29,1.22,0,1.4l-.95.56c-.21.12-.08.79.08.99l1.93.14c.69,1.3-1.7,2.44-.68,4.14.23.39,1.18.49,1.68.52l-.05.83c.88.81,2.46.5,2.85-.66.16-.48.4-1.03,1.07-.81,2.09.71.72,2.22,4.23,1.85-.12.84-.36,2.11-.6,2.86-.06.19-.65.58-.55.75l.43.68-.34,1.68-.89,3.96c-.13.56.18,1.48.26,1.97.04.27-.28.85-.07,1.02l.82.67,1.01.79ZM210.86,93.76l1.39-1.35c.1-.09.26-.36.31-.48.04-.09-.33-.29-.42-.26l-1.91.61-.99.3c-.09.03-.71,1.6-.49,1.87.56.69,1.56-.15,2.12-.69ZM240.07,95.22l.57-1.3c.07-.16-.08-.73-.25-.79s-.57-.08-.64-.02l-.21,1.8c-.02.13.47.45.53.32ZM198.45,95.31c-.2-.52-1.01-.78-1.09-.44-.05.55.78.79,1.09.44ZM214.13,97.52c-.14,0,.07.59.21.53l.4-.19c.1-.05.03-.36-.08-.35h-.52ZM193.1,98.54c0-.24-.19-.43-.42-.43s-.42.19-.42.43.19.43.42.43.42-.19.42-.43ZM193.59,107.98c.23.06.81-.14.79-.33l-.09-.87c-.11-1.03-.36-2.13-1.33-2.72-.43-.26-1.09.36-1.18.81-.26,1.43.65,2.83,1.81,3.12ZM242.23,109.01c.85-.35,1.54-.75,2.06-1.36l-1.04-2.19c-.94-.06-3.84,1.18-3.93,2.1.39,1.25,1.79,1.92,2.9,1.45ZM252.39,114.19c.17-.28.05-1.04-.34-1.01-.23.01-.4.59-.31.8.07.17.55.37.65.21ZM140.81,115.39c0-.18-.14-.33-.32-.33s-.32.15-.32.33.14.33.32.33.32-.15.32-.33ZM268.81,116.12c-.04-.35-.59-.89-.92-1-.24-.08-.59.6-.5.84s.43.57.66.68.81-.16.77-.52ZM192.47,117.85c.18-.1.48-.7.32-.83-.13-.1-.45-.29-.64-.37l-1.77-.72c-.34-.14-1.27.18-1.49.48-.42.56.2,2.29.82,2.62.22.11.74-.05.98-.18l1.79-1ZM243.84,116.96c-.68-.77-1.67-1.43-2.58-.87.04.53.4,1.21.76,1.39,1.07.54,2.31.03,2.18-.11l-.36-.41ZM227.33,119.48c.12-.11.3-.45.35-.59.23-.69-1.3.4-2.2-.63-.32-.1-1.16.56-1.18.96-.04.69.51,1.72,1.16,1.92l1.87-1.66ZM253.4,123.91c.41.15.98.17,1.43.18.33-.89.08-2.34-1.07-2.5-.27-.04-.22.81-.25,1.08-.04.3-.41,1.13-.11,1.24ZM174.17,134.58c.45.86,1.54.99,2.16,1.42.55.38.93.7,1.65.88-.26-1.29.61-1.35,1.27-1.98.2-.77-.12-2.09-.4-2.89l-.76-2.15c.91-.15,1.15-.39,1.68-.89l1.99-.8c-.11-1.83.9-4.01-.99-4.97-.96-.49-1.93-1.21-3.05-.78-.41.53-.3,1.64-.58,2.18l-.91,1.81c-.12.25-.63.54-.69.8-.18.9.55,1.03.66,2.53-1.36.23-1.73-.95-2.61-1.48l-1.94-1.18c-.17-.11-.53-.19-.7-.14-1.52.46,1.56,5.16,2.62,6.21.26.26.38,1.04.58,1.44ZM230.33,124.68c.53-.23-1.08-2.49-2.61-1.85-.26.11-.36.94-.13,1.14.65.56,1.74,1.14,2.74.71ZM236.19,125.02c.71-.55,1.44-1.2,1.29-1.72-.04-.14-.58-.25-.69-.18l-1.45,1.01c.02.34.62,1.07.86.88ZM237.97,130l-.72-.78c.75-.09,1.33-.09,2.11.11-1.85,2.6-.3,1.06-1.93,3.39-.2.29-.46.92-.67,1.42.46.61,2.15-1.08,2.71-1.47,1.06-.73,2.5-1.47,2.52-2.97-.58-.45-1.06-1.02-.56-1.98-.53-.55-1.55-.71-2.27-1-.78-.32-1.45-.64-2.26-.79l-2.18-.38c-1.06-.19-2.33-1.03-3.5-.48-.92.44-.83,1.67-.71,2.52s-.03,5.86-1.47,6.03l.05-1.51c-.44,0-.93.18-1.31.45l-1.09.1,1.65,1.6c-.05,3.94.48,1.27.97,3.8.18.93.74,1.9,1.81,1.79.82-.08,1.75-1.4,1.45-2.17-.47-1.19.24-1.52.7-2.31.72-1.23.59-2.96.68-4.39l2.2-.97c.84-.37,1.14.84,1.82-.02ZM230.01,126.17c0-.64-.66-1.07-1.2-.79.08.21.26.58.44.86.1.17.76.13.76-.07ZM186.21,126.84c.18-.12.42-.53.35-.7s-.53-.32-.7-.26c-.33.12-.97.62-.94.92.1.51.81.38,1.29.04ZM206.33,127.27c.33-.09.41-.92.18-1.17-.19-.19-.81-.28-.98-.07-.31.36.02,1.47.81,1.24ZM278.54,136.07c1.42-1.18.25-3.61-.68-4.94-.21-.3-.39-1.25-.73-1.4-.57-.24-1.37-.15-2.12-.1l.48,2.13.38,1.8c.16.77.65,1.3,1.17,1.94.34.43.9,1.06,1.5.56ZM208.5,130.07c0-.2-.16-.37-.36-.37s-.36.16-.36.37.16.37.36.37.36-.16.36-.37ZM214.2,138.61l-.66-.95c1.39-.97,2.71-1,3.12-1.72.14-.24.3-.57.2-.7-.08-.11-.36-.27-.49-.31l-.82-.3c-.19-.07-.07-.83-.19-.99-.29-.38-1.24-.61-1.81-.62.02-.41.12-.96-.03-1.2-.52-.87-3.36-.9-3.11-.02l.19.66c-.5.23-.94.47-.93.89.01.56.29.72.83.87,1.54.43-1.24,1.24-1.75,2.35l.27.81c-.66.02-1.06.05-1.51.33,2.15,2.17,4.63.51,6.2,1.59.19.13.59.17.69.02s-.06-.53-.2-.73ZM123.44,134.19c.35-.5-.34-1.79-1-1.86-.46.56.09,2.19,1,1.86ZM262.63,137.4c1.56-1.03,1.13-1.71,2.29-3.59-.33-.34-1.33-.25-1.57.26l-.87,1.87c-.16.22-.62.45-.61.69.01.25.52.92.76.76ZM165.27,136.43l-.38-.57c-.08-.12-.57.05-.66.16.19.81.63,1.76,1.36,2.27.38-.66.06-1.28-.33-1.86ZM186.83,137.27c.12-.23-.05-.92-.34-.95s-.69.4-.8.66-.02,1.06.34,1.15c.24.06.59-.47.79-.86ZM167.76,137.71c0-.36-.7-.92-.94-.62-.2.24-.03.81.21.87.19.05.73-.06.74-.25ZM225.93,137.72c0-.22-.17-.39-.38-.39s-.38.18-.38.39.17.39.38.39.38-.18.38-.39ZM227.76,140.19c.27-.52.3-.83.13-1.14-.15-.27-.36-.39-.86-.47l.73,1.61ZM260.57,141.49l.41-2.71c-.34-.27-1.23-.11-1.54.22-.59.62-.8,2.51.15,3.18.15.11.7.09.78-.07.06-.13.16-.43.19-.62ZM240.24,142.23c.59.28,1.74.3,1.76-.51.02-.95-1.08-1.03-1.75-.84l-.82.22c-.17.05-.17.67,0,.74l.81.38ZM169.92,148.35c.11-.09-.05-.77-.16-.79l-1.64-.25c-.29-3.82-1.26-1.76-2.32-3.9-.09-.18-.69-.37-.72-.15-.12.82-.21,1.94-.28,2.71-.02.28-.49.85-.37,1.09l.45.85c.36.68.68,1.33,1.19,1.95.69.84.85-2.39,1.73-1.83.63.41,1.65.73,2.12.33ZM186.02,144.87l-1.51.09-1.05,2.29c-.35.77-.45,1.7.43,2.13,1.6.79,2.8-3.45,2.12-4.52ZM181.27,146.23c-.23-.9-1.12-.86-1.68-.72l-.03,1.02c.59.11,1.43.09,1.71-.3ZM208.75,146.93c0-.2-.16-.36-.35-.36s-.35.16-.35.36.16.36.35.36.35-.16.35-.36ZM229.09,147.41c.13-.04-.02-.67-.14-.65-.44.06-1.44.2-1.22,1.09l1.36-.43ZM164.08,153.5c-.2-.76-.47-1.73-.46-2.6,0-.27.05-.83-.14-.85l-.75-.1c-.21-.03-.75.05-.76-.13l-.03-.96c-.73-.02-1.33-.27-1.55-1.09-.14-.5-1.15-.85-1.37-.38-.24.52-.58,1.43-.42,1.89.49,1.39,2.04,1.21,2.27,2.38.03.16-.33.21-.7.26-.22.03-.51.41-.51.67,0,.23.51.55.75.5,2.11-.45,1.4,2.17,2.75,3.02.17.11.74.08.9-.04.29-.21-.01-2.68.02-2.56ZM178.84,147.17l-1.67.18c-.23.02-.53.49-.51.72s.5.54.73.48c.72-.18,1.23-.38,1.45-1.38ZM258.39,148.77c-.14-.89-.96-1.35-1.45-1.11-.15.64.85,1.48,1.45,1.11ZM183.66,151.53c.01-.66-.94-.65-1.4-.55-.68.16-1.59.53-1.24,1.47.23.62,2.87-.68,2.64-.92ZM175.8,186.49c.7.58,1.12.65,1.83.63,1.43-.04,1.02.47,4.68.35.18,0,.68-.35.6-.49l-.28-.51c-.89-1.62-2.23-.43-3.01-1.14-.27-.51-.28-1.51.12-1.87.34.53.28,1.8,1.1,1.58,1.82-.5,2.8-1.38,3.92-2.73.46-.55-.25-1.5-.33-1.96,1.36-1.11.02-1.87.52-2.75.28-.5.62-1.73-.05-2.01-.88-.37-1.82-.86-2.45-1.48l1.56-2.08c.97.4,2.21.24,2.86-.78l-.49-2.05c-.7-2.91.51-.68-1.42-4.32-.76-1.43-3.82-1.35-5.16-1.16-1.74.26-.55-1.54-1.71-1.68-.63-.08-1.76,1.2-1.75,1.3l.06.9-1.92.9c-.21-.08-.54-.93-.46-1.29.74-.45,1.36-1.62.65-2.32-1.26-1.27.41-1.4-.33-2.51-.52-.77-1.19-.19-2.54-1.99l1.22-1.87c-.82-1.35-2.76-.6-4.07-.2l.47-1.79c-.34-.53-.73-1.22-1.06-1.93-.62-.32-2.1-.09-2.63.44-1.01,1.01-1.17,2.12-.36,3.2.61.82-.67,2.15-.93,2.91l-.73,2.07c-.33.95-1.07,3.95-.1,4.71,1.18.93,2.42-.88,2.84-1.28,1.05-.98,1.8,2.07,2.52,1.9l1.32-1.21c.52,1.08.41,3.06,1.55,2.65l.18-1.55,1.42.3c.19.04.37.59.26.76l-.5.78c.55.21.98.43,1.34.79,1.05,1.05,2.39,1.27,3.86,1.42.55.06,2.7,1.82,1.53,2.27-.97.37-2.18-2-3.83-1.16-.32.16-.69.66-.75.95-.13.67.52,1.17,1.36,2.4.32.47.6,1.08.89,1.63.46.85,1.69,1.16,1.94,2.28-.87.66-1.85,1.26-2.68,1.99-.52.46-.74.64-1.52.68-.87.05-1.66.08-2.53-.07-1.46-.24-3.36,1.86-4.28,3.02-.43.54,1.77,2.82,2.19,3.14l1.97.11-1.45,1.23c-.2.17-.02.86.15,1.06s.73.42.95.26l1.69-1.21,1.76-1.25ZM183.66,162.23c-.26-.45-.54-.81-.54-1.03s.39-.54.56-.78c.6-.86,1.2-1.76,1.73-2.71.48-.86.72-1.88,1.38-2.7.33-.41.73-1.05.93-1.58.1-.26-.6-.87-.86-.76l-.97.39-.73-1.25c-1.34.96-.76,1.44-2.48,3.14.34,3.48-1.78,2.28-1.07,5.22.13.56-.07.99-.3,1.58-.2.5.58,1.09,1,1.12.52.04,1.48-.18,1.36-.64ZM251.02,169.5c.13-.04.36-.3.39-.46.12-.59.82-1.21.97-1.67l1.04-3.15-.79-1.58c.06-.41.3-1.29.05-1.57-.47-.53-1.58-.87-2.11-.67-.16.07-.57.64-.68.5l-.53-.61c-2.93-3.4-.72-1.71-2.53-5-.5-.92-2.03-2.3-3.03-2.18l1.42,1.73c2.05,2.49.27,2.7,1.19,3.95l-1.88.59-.4,1.13c-.4-.2-.8-.42-1.04-.38-.21.03-.52.45-.59.67l-.58,1.74c-.25.75.37,1.96.86,2.52l2.06.12c.34,1.01,1.54.68,2.15,1.09.85.56,1.46,1.17,2.52,1.41.96.22.86,2.01,1.51,1.81ZM176.43,155.37c.36,0,1.17-.01,1.49-.04.13-.13.01-.82-.19-.9-.4-.16-1.4-.09-1.64.25-.09.12.17.7.34.7ZM196.12,157.17c-.54-.1-1.58.19-2.15.49-.48.25-.95-.4-.87-.8.3-1.47,2.22.08,3.52-.75.19-.12.45-.41.35-.52-.08-.09-.41-.37-.53-.35l-1.79.26c-.89.13-1.82.34-2.58.25l-.7-1.22c-.55.31-.81.82-.81,1.36,0,.5.34.9.83,1.23,1.24.85.17.99,1.49,2.82.4.55,1.31,1.55,2.01.97l1.33-1.11c.19-.16.57-.4.48-.56-.36-.66-.98-.41-.96-.95l.61-.48c.09-.07-.1-.62-.24-.65ZM234.67,156.14c0-.22-.17-.39-.38-.39s-.38.18-.38.39.17.39.38.39.38-.18.38-.39ZM201.34,163.78c.64.13,1.17.9,1.94.67,1.42-.43,1.93-2.02,2.38-3.42.08-.26.67-.61.62-.87s-.24-.79-.32-1.09.45-1.01.26-1.26c-.42-.54-1.29.07-1.75,0l-2.37-.32-.97-.85c-.63-.11-.96-.22-1.59-.47l.61,1.59c-.93.25-1.51.65-1.77,1.46l-.68,2.19c-.57.03-1.23.1-1.43.46-.56.99-.58,4.42.75,4.31.87-.07.84-1.31,1.63-2.29,1,.76,1.8-.31,2.68-.13ZM204.39,156.89c0-.19-.15-.35-.34-.35s-.34.16-.34.35.15.35.34.35.34-.16.34-.35ZM223.08,166.95c.66.5,1.58.95,2.25,1.17l2.18-.36c1.92-.6,1.98-1.96,3.55-2.05,1.02-.06.21-2,.98-3.63.26-.55.7-.94.47-1.48l-.89-2.11c-.06-.15-.22-.39-.31-.5s-.54.02-.54.1l-.17,1.23-2.69-.41c-.26.35-.64.92-.91.83l-1.16-.4c-1.1,1.82,2.41,3.12,3.79,3.7-.19.44-.74.68-1.23.56-.62-.15-1.03.49-1.44.62-.77.24-1.56.47-2.2.9-.28-.13-1.14-.48-1.43-.22-.38.34-.66,1.73-.25,2.04ZM269.74,176.73c.03.47.9,1.21,1.35,1.08s.99-2.26.17-3.54c-.4-.62-.42-1.45-.61-2.11-.21-.72-.44-1.1.02-1.81.63-.98.4-3.24-.03-4.17-.74-.37-1.52-.84-1.76-1.85l2.07,1.05c.37-.45.72-1.36.56-1.87-1.33-1.49-3.02-2.32-4.88-2.81-2.26-.6-5.81-4.29-7.68-1.77.31.47.9.86,1.39,1.11l1.82.91,2.16,1.11.36,1.53c1.12,1.19-.59,2.61.13,3.09l.9.6c.13.08.4.31.5.4.22.2-1.86.95-1.14,1.82l1.52,1.83,1.18.29c.51.68,1.05,1.25,1.71,1.82.28.24.1,1.04.13,1.43l.13,1.88ZM235.52,158.16c-.81.67.52,2.82.98,2.95.91.24.36-1.9-.98-2.95ZM256.89,163l-.39-2.29c-.03-.16-.26-.49-.33-.6-.06-.09-.5.1-.53.2-.35,1.3.26,3.85.9,3.48.15-.09.39-.61.36-.79ZM195.18,163.35c-.04-.78-.24-1.29-.8-1.63-.19-.12-.79.1-.83.32s.07.66.22.84c.41.47.81.61,1.4.48ZM213.02,165.57l2.23-1.4c.17-.11.37-.48.4-.69.03-.19-.61-.33-.81-.23l-2.07.98c-.74.35-1.54.66-1.25,1.72.39.09,1.03-.09,1.5-.39ZM163.65,166.16c.19-.23.22-.73.04-.85s-.69.01-.83.21c-.13.19-.19.75-.01.82s.68-.02.8-.17ZM239.32,169.42c.51-.27,1.29-.05,1.97.06l.15-1.68c.03-.29-.32-1-.59-.94l-2.32.97c-.21.09-.88-.11-1.05.05-.37.37-1.52.68-2,.29-.12-.1-.24-.59-.11-.66l.58-.27c.72-.33,1.04-.34,1.74.43l.44-1.16,2.03-.36c.09-.02.29-.37.21-.4-.06-.02-.33-.17-.39-.18-4.21-.08-2.09,1.03-4.34.84-.77-.07-3.37,1.11-3.61,1.8.42.82.59,1.29.75,2.19l2.11-.06,2.15-.02c.44.05.5,1.23.62,1.67.72,2.73.82,1.98,1.22,4.32.07.4.46,1.19.7,1.52.51.7,1.64.53,2.39.25-.64-2.52-1.32-4.83-2.44-7.1-.18-.37-.86-1.21-.21-1.56ZM188.6,168.67c0-.33-.26-.6-.58-.6s-.58.27-.58.6.26.6.58.6.58-.27.58-.6ZM211.88,177.31c.1-.84.27-1.27-.59-1.8-.24-.15.21-.66.56-.86.96-.53.28,1.47,2.92,2.01.73.15,1.57.31,2.2-.33-.11-.48-.42-.97-.76-1.5-.2-.3.47-.92.84-1.24.01-1.34-1.24-2.88-2.69-2.96-1.26-1.1-2.81-1.03-4.2-.28l-1.68.91c-1.19.64-.09-2.83-1.57-2.93-.77-.05-1.52.02-1.96.46-1.3,1.28.24,2.35-1.26,2.78-.47.14-1.37.43-1.5.91-.28,1.08.1,2.35.75,3.16.45.56,1.17,0,1.58-.31l1.85-1.47c.17-.13.57-.28.76-.28.9.03,0,2.88-1.57,3.66-.06.41-.03,1.21.21,1.39s.85.12,1.22.15l2.76,2.59c.54.51,1.2,1.13,1.86.44l-.19-1.32c.23-1.1.35-2.07.48-3.2ZM247.18,171.94c.17-.22-.03-.86-.25-.97s-.71.08-.91.34c-.13.17-.18.68-.16.94.02.22.52.45.71.34.15-.09.38-.35.61-.65ZM218.11,174.77c0-.34-.27-.61-.6-.61s-.6.27-.6.61.27.61.6.61.6-.27.6-.61ZM255.31,185.51l-.38-.61c-.44-.7,1.95.44,3.02-1.81.55-1.15,1.85-1.73,2.91-2.51-.24-.92-1.18-1.2-1.99-1.44-.45-.14-1.01-.71-1.52-.3-.71.59-1.44,1-2.26,1.41l-1.71.84c-2.27,1.11-.6-2.19-2.35-4.25-.28-.33-1.06-.76-1.01-1.14.06-.51.07-.89-.09-1.14-.43-.67-4.04-.61-5.17,1.89-.49,1.09-1.53,3.6-.86,4.62.33.49,1.04,1.22,1.49,1.44.5.12,1.12.22,1.38.42-.16,1.04.32,1.49,1.15,1.8s1.68,1.18,2.57,1.42c1.02.28,2.09.56,3.05,1.01.15.07.56.09.56-.04.03-1.06-.53-.79-.24-1.06.08-.07.33-.17.4-.09l.26.29c.16.18.49.44.7.47.17.02.53-.32.47-.48s-.24-.51-.37-.73ZM233.31,184.1c.33-.49.69-1.1.82-1.43.07-.19-.12-.82-.3-.8-.86.12-.91.91-1.11.58-.45-.75.23-1.22-.79-1.65-.26-.11-.61-.74-.51-.99.38-.95,1.15,0,.87-2.33-.08-.66-.22-1.47-.53-2-1.47-.03-.57.51-2.03,1.51-.21.14-.37.49-.51.67l-1.41,1.86c.26.4.77.57,1.35.66l.07,1.97c.63.83,3.28,3.13,4.06,1.96ZM134.71,176.71c-.25-.21-1.22-.28-1.37.02-.34.71-.96,2.27-.65,2.9s2.42-1.13,2.02-2.92ZM225.78,179.18c-.17-.85-.51-1.46-1.04-1.97-.61.12-1.35.82-1.14,1.5.23.76,1.44,1.04,2.18.46ZM197.9,178.67c-.39-.48-1.04-.82-1.54-.94-.08.81.92,1.5,1.54.94ZM159.72,186.97c1.11,1.27,2.66,1.43,4.14,1.59,1.04.11,2.15.26,3.11-.23.2-.1.42-.65.33-.84-.08-.16-.37-.47-.56-.53l-2.35-.79-1.19-.82-1.84-.73.4-1.37c-1.62-.95-2.95-2.03-4.47-3.03l-2.4-1.6c-.53.37-1.38.29-1.98.16-.4,2.08,1.31.6,2.44,2.62.43.77.84,1.42.66,2.38l-2.63-.34c-.16-.02-.58.08-.62.21s-.02.42.04.58l.55,1.66c.17.52,2.06,1.16,3.61.23,1-.6,2.05.03,2.76.85ZM268.67,181.07c.75-.46.79-1.65.18-2.07-.17-.12-.76-.1-.81.08-.04.15-.01.49.06.65l.57,1.34ZM283.17,196.91l-1.52-.94c-.47-.29-1.17-.55-1.7-.78.27-3.06-1.38-2.77-1.12-3.5.16-.44.37-.95.36-1.3-.04-1.09-2.2-.63-2.17-3.08l-.5-1.24c.85-1.11,1.41-1.97,1.77-3.3-.91.09-1.49.37-2.11.81l.38.56c-.04.16-.49.59-.74.67-.81.26-1.03-1.06-1.82-.83-.88.25-.8,1.32-1.34,1.23-.86-.15-.67-1.19-2.29-2.34l-.63-.45c-.14-.1-.5.27-.65.38l-1.12.82-.9,1.99.57,2.84c-.6.95-.32,1.64.25,2.48.4.59.26,2.29.87,2.53.21.08.73,0,.94-.07l.61-.2c.43-.14.67,2.38,1.58,3.31.56.57,1.08,1.04,1.65,1.56,1.47-.5.45-2.35,1.18-2.51.19-.04.67.09.84.27,1.25,1.39,3.26,2.07,5.02,2.66.56.19,2.46,1.4,3.69.97.38-.13.83-.63.84-1.11-.61-.53-1.23-1.02-1.9-1.44ZM205.49,190.84c.17-.02.5-.54.39-.69-.55-.76-.76-.14-1.39-1.29l1.3-.76.08-1.86c-1.26-.96-6.01-1.79-7.38-.56.85,1.7,2.24,1.41,3.11,2.92-1.4-.02-2.5-.29-3.51.93,1.99,1.45,3.66,2.79,5.88,1.53l1.51-.21ZM215.72,188.02c.54-1.01,1.31-1.09,1.34-1.8.01-.24-.25-.71-.42-.99-1.07.08-2.09.98-1.91,2.16l.99.62ZM217.11,186.96c-.13-.04-.12.47.02.49l.45.06c.1.01.1-.36,0-.39l-.47-.15ZM227.44,191.25c3.32-1.92,2.68,1.43,5.72,1.32.25-.48.28-1.51.05-1.91l-2.18-1.47c-.61-.41-1.08-.57-1.54-1.03-.33-.33-1.21-.8-1.66-.91-.79-.2-1.52.69-1.81,1.3-1.44,3.08-1.65,1.42-2.4,3.61.39.45,1.15.79,1.81.86.15-1.02.35-2.17.83-3,.12-.21.89-.21.94.02l.25,1.22ZM172.84,195.01c.35-2.24,2.14-1.21,3.71-2.5l1.63-1.34c.22-.18.41-.71.31-.95-.08-.21-.59-.36-.86-.33-1.06.16-1.85.11-2.88.07-.6-.02-1.58.75-2.23.47-.59-.26-1.21-.69-1.69-1-1.08-.69-1.85-.25-2.65.58-.33.35-1.23.51-1.26,1.25l1.36,1.31c.59.57,1.14.87,2.05,1.19-2.1,1.59-1.11,1.65-3.3,3.53.2,1.69,1.73,0,3.34,1.43,1.27-.74,2.24-2.24,2.47-3.7ZM291.14,194.48c.66.5,1.18.55,1.84.31l.62-.23c.1-.04.06-.53-.09-.61-1.58-.89-5.79-3.58-7.49-2.8l.18,1.76c-.18.25-.52.68-.52.94,0,.22.26.7.45.84,2.91,2.18,1.8.43,5.02-.22ZM238.99,205.97l-1.11,1.15c.86.28,1.98-.25,2.3-.98,1.24-2.87.11-3.92.55-4.49.12-.16.65-.29.85-.24,3.09.76,4.41-.22,6.13-2.44.17-.22.25-1,.5-1.18.71-.51,1.24-1.86.47-2.67l-1.82-.47-.51-2.11c-.1-.4-.7-.91-.98-.91l-.27,1.28c-.06.31-.36,1.02-.24,1.3s.41.55.85,1.09l-3.73,1.11-1.22-.35c-.59.59-1.06,1.29-1.48,2.06l-1.05.4c-.18.76-.5,1.14-1.14,1.77l1.31,2.73,1.11.28-.52,2.68ZM199.06,192.29c-.28-.07-1.08-.11-1.37-.07-.16.02-.47.54-.35.65s.53.33.69.31l.94-.09c.2-.02.29-.76.08-.81ZM216.21,193.04c0-.23-.18-.42-.41-.42s-.41.19-.41.42.18.42.41.42.41-.19.41-.42ZM222.4,197.33l-.23-1.57c-.28-.03-.84.08-1.09.21l-.61.31c-.14.07-.06.66.04.77l1.19,1.23c.11.12.54-.02.64-.16s.1-.54.07-.79ZM287.52,217.67c.66-1.57,2.67-1.49,3.84-.72l1.72.19c.61,1.05,2.05,1.2,2.87.2.67-.83,0-2.54-1.05-2.73-.37-.07-.88-.12-1-.32-.55-.89.04-1.57-1.19-3.21-.13-.17-.04-.62.13-.69l.68-.27c.84-.33,1.54-1.65,1.45-2.56-.07-.81-.12-1.45-.13-2.23-.01-.89-.19-1.7-.27-2.57-.31-3.06.53-2.34-2.09-4.42l1.86-1.01c.27-.15,0-.94-.26-1.08-.31-.17-.83-.29-1.16-.14-3.53,1.61-4.93.28-5.25.73l-.46.65c-1.13,1.58.88,2.21.38,2.61l-.52.41-1.41,1.11c.19,1.25.59,2.43.48,3.72-.09,1.03-1.72,1.78-2.66,2.02-.64.16-.76.56-.92,1.05l-2.13,1.76c-.42.35-.12,1.36-.1,1.85l.11,2.3c0,.18.27.5.2.63s-.44.5-.44.69c0,1.29,2.37,1.75,3.73,2.48l3.38,1.81c.75-.78-.06-1.6.21-2.24ZM316.83,196.07c-.31-.21-1.18-.19-1.49.05.01.25.13.72.33.74l.8.11c.16.02.6-.21.57-.37-.02-.12-.1-.47-.2-.54ZM171.31,203.84l2.28,2.26,1.66-.87c.35-.18.84-.86,1.23-.89,2-.19.44-2.22,1.72-3.77l-2.96-3.01c-.54-.17-1.2.65-1.01,1.34.12.41-.35.72-.56,1l-.71.93-1.35-1.22c-.74-.4-1.52.5-1.6,1.18-.29,2.42.02,1.77,1.31,3.05ZM223.9,202.98c.65-.91,1.3-1.63,2.22-2.12.18-.1.43-.73.25-.83-.83-.46-2.46.74-3.51,1.36-.5.29-1.08.76-1.04,1.3.28.51,1.72.78,2.08.28ZM263.84,205.38c.46-.11.19-1.89-1.58-2.45s-3.38-.8-5.17-.99l-3.09-.33c-.18-.02-.54.12-.66.21s-.08.61.01.72c1.71,1.94,1.15,1.31,3.01,1.87,1.05.31,1.97.66,2.99,1.09,2.06-.48,2.41.37,4.49-.11ZM221.38,203.76l.12-.46c.02-.07-.38-.2-.44-.16-.24.14-.55.63-.71,1.05.14.09.55.19.68.13s.31-.39.35-.55ZM169.93,206.87c.38-.31.72-.58.81-.87s-.05-1.23-.34-1.2l-1.37.13c-.59-.35-1.42-.79-2.05-.95-2.11,1.09-3.05,3.32-1.85,5.35.48.81,1.79.87,2.4.38,2.02-1.62-.2-.73,2.4-2.85ZM258.69,212.52l1.52-3.16c.2-.41.26-.92.23-1.42-.56-.15-1.36.02-1.59.6l-.88,2.28c-.18.47-1.55,3.08-.56,3.22.92.13,1.28-1.53,1.28-1.53ZM194.63,209.99c.17-.03.41-.44.39-.62-.02-.14-.24-.53-.35-.44-.17.13-.39.42-.48.58-.07.13.3.5.44.48ZM250.38,220.59c-.45-.35-1.74-.26-2.09.16-.64.76-.03,2.07.77,2.36.6.22,2.36-1.71,1.32-2.52ZM304.15,231.24c.26.39,1.05.22,1.39,0,.47-.31.5-.81.62-1.38.31-1.51.07-2.69-.55-4.06-.31-.68-.3-1.77-1.12-2.11s-2.15-.05-2.62.75c-.36.61,0,1.65.16,2.31.16.71.23,1.63.57,2.14l1.55,2.36ZM182.28,236.38l.62,1.56c.32-.05.77-.17.96-.35.32-.3.57-2.89-.44-3.49l-.77-.46c-.18-.7-.35-1.97-.78-2.44-.62-.67-1.54.14-2,.47-.89.64-1.48,1.07-2.27,1.87-2.47-1.3-1.13-1.38-2.81-1.14-5.4.76-2.69,1.61-8.65-.99l-1.62-.71c-.09,1.32.83,1.66,1.59,2.28s1.43,1.58,2.17,2.29l2.57,2.47c.84.81,1.54,1.48,2.05,2.66l1.34,1.52c.33.38.72,1.38,1.41,1.08.6-.27,1.18-.65,1.84-1.06l1.26.81c.2.13.73.12.92.03s.42-.56.35-.78l-.48-1.55,1.5-.15c.57-1.62-1.02-2.53,1.25-3.91ZM158.38,251.68c1.04.1,1.15-1.17,1.6-1.58l3.54-3.25c1.07-.98,1.8-2.05,2.55-3.29.48-.79,1.55-1.39,1.89-2.32.38-1.05-.72-2.34-1.66-2.31l-1.4,1.1c-.7.55-1.38,1.15-1.65,1.98-.55,1.65-1.88,2.32-3.06,3.42l-2.58,2.39c-.41.38-1.06.72-1.36,1.17.12,1.15.97,2.57,2.14,2.68ZM295.62,247.72l1.52-2.67c.47-.82,1.01-1.66,1.57-2.49-.03-.45-1.08-.62-1.46-.3l-3.02,2.59c-.24.65-.21,3.52.73,3.33.17-.03.57-.29.67-.47ZM156.03,264.08l1.97-3.93c.25-.49,1.46-.13,1.86.16.82.61,1.82.52,2.49-.48l2.56.88,1.76-.95c.14-2.51,1.28-2.16,1.12-2.64-.06-.18-.38-.48-.56-.58l-4.44-2.5c-1.2-.68-2.46-1.15-3.84-1.25-2.85,1.73-1.98,2.55-4.25,5.44l.69.91-1.13,1.33c-.47.55-.91,1.11-1.11,1.8s-.49,1.51-.37,2.19c.16.93,1.78,1.35,2.4.69.26-.28.71-.79.85-1.08ZM241.53,258.51l.42-.76c.07-.12-.41-.44-.49-.33l-.45.63.52.45ZM179.63,261.17c.38-.09.83-1.18.52-1.42-.93-.74-2.28-.9-3.38-1.06-1.04-.14-1.91-.33-2.98-.25-.41.03-1,1.02-.82,1.4.32.68,1.22.89,1.87,1,1.17.3,3.67.58,4.78.32ZM198.29,266.75c.35-.67-.04-1.75-.8-1.64-.24.33-.3,1.37-.12,1.81.09.2.81.04.92-.17ZM161.81,271.98c.19-.13.61-.4.54-.56-.37-.89-1.83-1.52-1.83-2.85,0-.48.23-1.41-.09-1.76-.74-.82-1.79-.27-2.43.42-.37.4-.93,1.06-.41,1.53.18.16.66.3.81.49.53.69-.35,1.31.64,2.48.78.92,1.7,1.01,2.77.24Z"/>
  <path d="M102.39,141.31v-1.37c.19-.02.6-.05.84-.02.3.03.41.99.15,1.13-.24.13-.7.23-.99.26Z"/>
  <path d="M175.8,186.49l-1.76,1.25-1.69,1.21c-.23.16-.78-.06-.95-.26s-.35-.89-.15-1.06l1.45-1.23-1.97-.11c-.42-.32-2.62-2.6-2.19-3.14.92-1.16,2.82-3.26,4.28-3.02.88.15,1.66.12,2.53.07.78-.05,1-.23,1.52-.68.83-.72,1.8-1.33,2.68-1.99-.25-1.13-1.48-1.43-1.94-2.28-.3-.55-.57-1.16-.89-1.63-.84-1.22-1.49-1.73-1.36-2.4.06-.29.43-.78.75-.95,1.64-.84,2.85,1.53,3.83,1.16,1.17-.44-.98-2.21-1.53-2.27-1.46-.15-2.8-.37-3.86-1.42-.36-.36-.78-.58-1.34-.79l.5-.78c.11-.17-.07-.72-.26-.76l-1.42-.3-.18,1.55c-1.14.41-1.03-1.57-1.55-2.65l-1.32,1.21c-.71.17-1.47-2.88-2.52-1.9-.42.4-1.67,2.2-2.84,1.28-.97-.77-.23-3.76.1-4.71l.73-2.07c.27-.76,1.54-2.1.93-2.91-.81-1.09-.64-2.19.36-3.2.53-.53,2-.76,2.63-.44.33.71.72,1.4,1.06,1.93l-.47,1.79c1.3-.39,3.24-1.15,4.07.2l-1.22,1.87c1.35,1.81,2.02,1.23,2.54,1.99.75,1.11-.93,1.24.33,2.51.7.7.09,1.88-.65,2.32-.08.36.24,1.21.46,1.29l1.92-.9-.06-.9c0-.11,1.11-1.38,1.75-1.3,1.16.14-.03,1.94,1.71,1.68,1.34-.2,4.4-.27,5.16,1.16,1.93,3.64.72,1.41,1.42,4.32l.49,2.05c-.65,1.02-1.89,1.19-2.86.78l-1.56,2.08c.64.62,1.58,1.11,2.45,1.48.66.28.33,1.51.05,2.01-.5.88.84,1.64-.52,2.75.07.46.78,1.41.33,1.96-1.12,1.35-2.1,2.23-3.92,2.73-.82.22-.75-1.05-1.1-1.58-.41.35-.39,1.35-.12,1.87.78.71,2.12-.48,3.01,1.14l.28.51c.08.14-.42.48-.6.49-3.66.11-3.25-.39-4.68-.35-.71.02-1.13-.05-1.83-.63ZM173.19,162.4l-.3.69.45.21.3-.69-.45-.21Z"/>
  <path d="M231.59,120.88l-1.01-.79-.82-.67c-.21-.17.12-.75.07-1.02-.08-.48-.39-1.4-.26-1.97l.89-3.96.34-1.68-.43-.68c-.1-.16.49-.55.55-.75.23-.75.48-2.02.6-2.86-3.5.37-2.14-1.14-4.23-1.85-.66-.23-.91.33-1.07.81-.38,1.16-1.97,1.47-2.85.66l.05-.83c-.5-.03-1.44-.13-1.68-.52-1.03-1.7,1.37-2.84.68-4.14l-1.93-.14c-.16-.2-.3-.86-.08-.99l.95-.56c.29-.17.29-.92,0-1.4l-2.24,2.21c-.63.05-1.67-.46-2.13-.89-.12-.12.23-.58.4-.57,1.38.09,1.19-1.84,3.08-3.12-.89-.07-1.73-.1-2.51-.2l-2.34-.31-2.12-.24.22-1.66,3.2.2c3.84.24,2.61-.8,5.82-.44l-.91-1.44c-.13-.2,0-.75.15-.9,1.18-1.15,3.94,1.06,4.7,2.65l1.51-.43.8-.07c.16-.01.21-.45.29-.62.8-.75,1.69.1,2.34.42,1.83.87,2.2,2.34,1.83,4.18-.3,1.5-.16,3.09-1.46,4.33-.67-.26-1.37-.7-1.92-1.16l-1.18-.98c-.27.95.32,1.48.84,2.08,1.3,1.51,3.81,1.67,4.45,2.32l1.51,1.52,1.29.23-1.64.86-1.42,6.21-.34,1.83.82-.55c.2-.78.52-1.45,1.3-1.96.65,2-1.21,3.73.38,4.34.96.37-.58,1.39.72,2.45-.67,1.71-1.95,3.09-2.52,4.48-.11.27-.26.6-.44.61-.73.06-.28-1.17-.6-1.9-.79-1.81.67-1.71.33-2.49-.2-.45-.71-.89-1.07-1.16-.17-.13-.68.41-.81.62l-.12,2.88ZM228.02,97.35c-.44-.67-.73-.82-1.2-1.06l-1.39-.7c-.74-.37-1.61-.4-1.95.4.11.2.44.81.63.72l.93-.44,1.82,1.33c.22.16,1.02-.16,1.16-.25Z"/>
  <path d="M287.52,217.67c-.27.64.54,1.47-.21,2.24l-3.38-1.81c-1.36-.73-3.73-1.2-3.73-2.48,0-.19.36-.56.44-.69s-.19-.46-.2-.63l-.11-2.3c-.02-.49-.32-1.5.1-1.85l2.13-1.76c.17-.49.29-.89.92-1.05.93-.24,2.56-.99,2.66-2.02.12-1.29-.29-2.46-.48-3.72l1.41-1.11.52-.41c.5-.4-1.5-1.02-.38-2.61l.46-.65c.32-.45,1.72.88,5.25-.73.33-.15.85-.03,1.16.14.25.14.53.93.26,1.08l-1.86,1.01c2.62,2.08,1.78,1.36,2.09,4.42.09.87.26,1.69.27,2.57.01.78.06,1.42.13,2.23.08.91-.61,2.23-1.45,2.56l-.68.27c-.17.07-.25.52-.13.69,1.24,1.64.65,2.32,1.19,3.21.12.2.63.25,1,.32,1.04.2,1.72,1.91,1.05,2.73-.81,1.01-2.26.85-2.87-.2l-1.72-.19c-1.17-.77-3.17-.85-3.84.72ZM291.78,214.43c0-.19-.15-.35-.34-.35s-.34.16-.34.35.15.35.34.35.34-.16.34-.35Z"/>
  <path d="M283.17,196.91c.68.42,1.29.91,1.9,1.44-.01.49-.46.98-.84,1.11-1.23.43-3.13-.79-3.69-.97-1.76-.59-3.77-1.27-5.02-2.66-.16-.18-.65-.31-.84-.27-.73.16.29,2.01-1.18,2.51-.57-.51-1.09-.99-1.65-1.56-.91-.92-1.15-3.45-1.58-3.31l-.61.2c-.21.07-.73.15-.94.07-.61-.24-.46-1.94-.87-2.53-.57-.83-.85-1.52-.25-2.48l-.57-2.84.9-1.99,1.12-.82c.15-.11.51-.48.65-.38l.63.45c1.62,1.16,1.42,2.19,2.29,2.34.55.1.46-.98,1.34-1.23.79-.22,1.02,1.09,1.82.83.25-.08.7-.51.74-.67l-.38-.56c.63-.45,1.2-.73,2.11-.81-.35,1.33-.92,2.19-1.77,3.3l.5,1.24c-.04,2.45,2.13,1.99,2.17,3.08.01.34-.2.86-.36,1.3-.26.73,1.4.44,1.12,3.5.53.23,1.23.49,1.7.78l1.52.94Z"/>
  <path d="M211.16,67.8c-.18.51-.28.91-.46,1.04-.52.42-1.19-.99-2.29-1.43l-.83-.87-1.3-1.04c-.42-.34-1.06-.78-1.11-1.31-.23-2.17-1.33-.05-1.4-3.65.79-.57,1.88-.62,2.82-.72l-1.03-1.65c-.32-.5-1.27-.91-1.68-1.36l-1.22-1.35c-.5-.56-.92-1.52-1.41-2.34.24-.4.88-.63,1.37-.68l2.51-.27-.77-1.54c-.09-.19.49-.63.68-.55l.93.38-.06-1.2c2.17.32,2.23.26,3.7,2.44,1.25,1.86,0,.96,1.75,2.69.73.72,1.64,1.39,2.18,2.24s.95,1.42,1.69,2.34c-1.34.37-1.01-.6-3.12-.42l1.89,2.97c.29.45.49.97.39,1.44l-.66-.35c-.12-.06-.47.11-.51.24l-.37,1.1c-.36-.43-.82-1.02-1.15-.92-1.21.37.95,2.79-.82,2.89l1.73,2.52-1.45-.64ZM207.16,52.11l-1.03-1.07c-.04.66.26,1.33,1.03,1.07ZM208.08,61.72c.01-.63-.29-1.19-.62-.91-.24.2.37.88.62.91Z"/>
  <path d="M182.28,236.38c-2.27,1.38-.69,2.29-1.25,3.91l-1.5.15.48,1.55c.07.23-.15.69-.35.78s-.73.09-.92-.03l-1.26-.81c-.65.4-1.23.79-1.84,1.06-.68.3-1.07-.7-1.41-1.08l-1.34-1.52c-.51-1.18-1.2-1.85-2.05-2.66l-2.57-2.47c-.74-.71-1.37-1.64-2.17-2.29s-1.68-.96-1.59-2.28l1.62.71c5.96,2.59,3.25,1.74,8.65.99,1.68-.24.34-.16,2.81,1.14.79-.8,1.39-1.23,2.27-1.87.47-.33,1.38-1.14,2-.47.43.46.61,1.74.78,2.44l.77.46c1,.6.76,3.19.44,3.49-.19.17-.64.29-.96.35l-.62-1.56Z"/>
  <path d="M255.31,185.51c.13.21.31.55.37.73s-.3.51-.47.48c-.21-.03-.54-.29-.7-.47l-.26-.29c-.07-.08-.32.02-.4.09-.29.27.27,0,.24,1.06,0,.14-.42.11-.56.04-.96-.44-2.02-.73-3.05-1.01-.88-.24-1.72-1.1-2.57-1.42s-1.3-.75-1.15-1.8c-.27-.2-.88-.3-1.38-.42-.45-.21-1.17-.94-1.49-1.44-.68-1.02.37-3.54.86-4.62,1.12-2.5,4.73-2.56,5.17-1.89.16.25.15.63.09,1.14-.04.38.73.81,1.01,1.14,1.75,2.05.08,5.35,2.35,4.25l1.71-.84c.82-.4,1.55-.82,2.26-1.41.51-.42,1.07.16,1.52.3.81.25,1.76.52,1.99,1.44-1.05.78-2.36,1.36-2.91,2.51-1.07,2.25-3.46,1.11-3.02,1.81l.38.61Z"/>
  <path d="M180.81,90.05l-.17,2.04c-1-.76-.34-1.73-.5-2.37-.28-1.19-.86-2.1-.57-3.48.08-.37-.29-1.13-.32-1.52l-.2-2.92c-.05-.73.43-1.54-.4-2.19l1.8-2.02c-.11-.36-.29-.71-.17-.88.13-.21.51-.51.71-.63l1.41-.82c.12-.25-.49-.99-.81-.98-.34.53-.62,1.14-1.02,1.46l-1.67,1.35c-.56-.26-1.32-.96-1.26-1.64.08-.85,1.75-.68,1.42-1.87-.66.28-1.03.34-1.7.3-1.55-.1.11-.16-2.23-.81-.19-.05-.22-.71-.11-.88.33-.55,1.32-.18,1.87-.26.73-.11.96-1.51.79-2.19,1.09-.01,2.13.04,3.2-.11.7-.1,1.14.62,1.55.67l3.83.48c.64.08,1.11.27,1.56.77l-.4.34c-1.5-.32-2.86-.54-4.48-.65.11.58,2.68,1.5,3.7,2.01.14.07.25.79.1.79h-.65c-.21-.02-.44-.06-.44.06v.57c.02.27,1.49-.12,1.62.3-.02.33-.46.62-.86.85l.56.23c.81.33-.58,2.26-1.37,2.46-1.88.47-3.47.9-5.19,1.94l1.73.79.15,2.69.26,3.72c.06.83-.02,1.39-.53,1.97l-.41.46c-.09.1-.39,0-.8-.02ZM181.5,73.87c-.08-.55-.56-.94-.98-1.08-.28-.09-.93.23-1.03.44l2.01.64Z"/>
  <path d="M211.88,177.31c-.13,1.13-.25,2.1-.48,3.2l.19,1.32c-.66.69-1.31.07-1.86-.44l-2.76-2.59c-.36-.03-.98.03-1.22-.15s-.27-.99-.21-1.39c1.57-.77,2.46-3.63,1.57-3.66-.19,0-.59.14-.76.28l-1.85,1.47c-.4.32-1.12.87-1.58.31-.65-.81-1.02-2.08-.75-3.16.12-.48,1.03-.78,1.5-.91,1.5-.44-.04-1.5,1.26-2.78.44-.44,1.19-.51,1.96-.46,1.48.1.38,3.57,1.57,2.93l1.68-.91c1.39-.75,2.94-.82,4.2.28,1.46.09,2.7,1.63,2.69,2.96-.37.32-1.03.94-.84,1.24.35.53.65,1.02.76,1.5-.63.64-1.47.48-2.2.33-2.64-.54-1.96-2.54-2.92-2.01-.35.2-.8.71-.56.86.86.53.69.97.59,1.8Z"/>
  <path d="M237.97,130c-.68.86-.98-.35-1.82.02l-2.2.97c-.08,1.42.05,3.16-.68,4.39-.46.79-1.17,1.12-.7,2.31.3.77-.62,2.09-1.45,2.17-1.07.11-1.63-.86-1.81-1.79-.5-2.53-1.03.14-.97-3.8l-1.65-1.6,1.09-.1c.38-.27.87-.45,1.31-.45l-.05,1.51c1.44-.17,1.58-5.2,1.47-6.03s-.21-2.09.71-2.52c1.17-.55,2.43.29,3.5.48l2.18.38c.81.14,1.48.46,2.26.79.72.3,1.74.45,2.27,1-.5.96-.02,1.53.56,1.98-.02,1.5-1.46,2.24-2.52,2.97-.56.39-2.25,2.08-2.71,1.47.21-.5.47-1.13.67-1.42,1.63-2.33.08-.79,1.93-3.39-.78-.2-1.36-.2-2.11-.11l.72.78Z"/>
  <path d="M156.03,264.08c-.14.29-.59.8-.85,1.08-.62.66-2.24.24-2.4-.69-.12-.69.17-1.52.37-2.19s.64-1.25,1.11-1.8l1.13-1.33-.69-.91c2.26-2.89,1.4-3.71,4.25-5.44,1.38.1,2.64.57,3.84,1.25l4.44,2.5c.19.1.5.4.56.58.16.49-.98.13-1.12,2.64l-1.76.95-2.56-.88c-.68,1-1.67,1.09-2.49.48-.39-.29-1.61-.65-1.86-.16l-1.97,3.93Z"/>
  <path d="M269.74,176.73l-.13-1.88c-.03-.39.15-1.19-.13-1.43-.66-.57-1.2-1.15-1.71-1.82l-1.18-.29-1.52-1.83c-.72-.86,1.36-1.62,1.14-1.82-.1-.09-.38-.32-.5-.4l-.9-.6c-.72-.47,1-1.89-.13-3.09l-.36-1.53-2.16-1.11-1.82-.91c-.49-.25-1.08-.64-1.39-1.11,1.87-2.52,5.41,1.17,7.68,1.77,1.86.49,3.55,1.32,4.88,2.81.15.51-.19,1.42-.56,1.87l-2.07-1.05c.24,1.01,1.02,1.48,1.76,1.85.43.92.66,3.19.03,4.17-.46.71-.22,1.1-.02,1.81.19.66.21,1.49.61,2.11.82,1.28.26,3.42-.17,3.54s-1.32-.61-1.35-1.08ZM268.91,167.25c-.29-.1-.89-.14-1.09-.01s.11.85.38.79c.24-.05.56-.35.71-.78Z"/>
  <path d="M251.02,169.5c-.65.2-.55-1.59-1.51-1.81-1.06-.24-1.67-.85-2.52-1.41-.61-.4-1.81-.07-2.15-1.09l-2.06-.12c-.49-.56-1.1-1.77-.86-2.52l.58-1.74c.07-.23.39-.64.59-.67.24-.04.65.18,1.04.38l.4-1.13,1.88-.59c-.92-1.25.86-1.46-1.19-3.95l-1.42-1.73c1-.12,2.53,1.26,3.03,2.18,1.81,3.29-.4,1.6,2.53,5l.53.61c.11.13.51-.44.68-.5.53-.21,1.64.14,2.11.67.25.28,0,1.16-.05,1.57l.79,1.58-1.04,3.15c-.15.46-.85,1.08-.97,1.67-.03.16-.26.42-.39.46Z"/>
  <path d="M174.17,134.58c-.21-.4-.33-1.18-.58-1.44-1.05-1.05-4.13-5.75-2.62-6.21.16-.05.52.04.7.14l1.94,1.18c.87.53,1.25,1.71,2.61,1.48-.11-1.5-.84-1.63-.66-2.53.05-.26.56-.55.69-.8l.91-1.81c.27-.54.17-1.65.58-2.18,1.12-.42,2.08.29,3.05.78,1.89.97.89,3.14.99,4.97l-1.99.8c-.53.5-.76.75-1.68.89l.76,2.15c.28.8.6,2.12.4,2.89-.66.63-1.53.68-1.27,1.98-.73-.17-1.1-.49-1.65-.88-.62-.43-1.72-.56-2.16-1.42Z"/>
  <path d="M251.28,84.55l-.95.1c-.22.02-.02.76-.11.97-.09.2-.34.57-.39.77-.06.23.38.65.52.96-1.3,2.48-7.28,3.43-9.28,1.26.21-1.02-1.16-2.17-.2-3.24.24-.27.76-.8.58-1.05l-.72-.98,1.24-.4c.28-.9-.29-1.69-.37-2.46-.06-.51.02-1.05-.24-1.56l.16-1.21-1.04-.7c.06-.77.28-1.66.76-2.3.24-.32,1.17-.1,1.48.14.4.31.51.81.61,1.42l.44,2.86-.4.44s.53,2.31.45,3.2l-.15,1.55c.67.56,1.63,1.06,2.48,1.25l1.8-.95c.15-.08.51-.2.65-.26.25-.12-.25-.55-.33-1.45-.04-.46,1.02-.53,1.15-.87.2-.52-.84-1.58-.08-2.05l1.61-1c.26,1.13.37,1.94.36,2.99l-.02,2.56Z"/>
  <path d="M238.99,205.97l.52-2.68-1.11-.28-1.31-2.73c.64-.63.96-1.01,1.14-1.77l1.05-.4c.42-.77.89-1.47,1.48-2.06l1.22.35,3.73-1.11c-.45-.54-.74-.82-.85-1.09s.17-.99.24-1.3l.27-1.28c.29,0,.89.52.98.91l.51,2.11,1.82.47c.77.81.23,2.16-.47,2.67-.25.18-.32.96-.5,1.18-1.72,2.22-3.04,3.2-6.13,2.44-.2-.05-.73.08-.85.24-.43.57.69,1.62-.55,4.49-.32.74-1.44,1.26-2.3.98l1.11-1.15Z"/>
  <path d="M159.72,186.97c-.71-.82-1.76-1.45-2.76-.85-1.55.93-3.44.29-3.61-.23l-.55-1.66c-.05-.16-.08-.44-.04-.58s.46-.24.62-.21l2.63.34c.18-.96-.23-1.61-.66-2.38-1.12-2.02-2.84-.54-2.44-2.62.6.13,1.45.21,1.98-.16l2.4,1.6c1.51,1.01,2.84,2.08,4.47,3.03l-.4,1.37,1.84.73,1.19.82,2.35.79c.18.06.47.37.56.53.1.19-.12.74-.33.84-.96.49-2.07.34-3.11.23-1.48-.16-3.03-.32-4.14-1.59Z"/>
  <path d="M229.94,87.54c-1.04.25-1.9.07-2.93-.22-.86-.24-1.9.09-2.8.07l-3.45-.05-.03.78c0,.15-.18.16-.57.28-1.04-1.45-.23-2.6-3.15-2.79-1.75-1.11.24-5.29.91-6.97.12-.3.84-.66,1.13-.79.39,1.71,1.52,2.99,1.23,4.33.18,1.19,1.86,1.1,2.77,1.05,1.02-.06,1.97.34,2.92.46l2.41.31c-.06.64-.01.88.14,1.44.01.77-1.95-.06-2.1.43,1.4,1.39,3.24.59,3.53,1.67Z"/>
  <path d="M201.34,163.78c-.88-.18-1.69.9-2.68.13-.79.98-.76,2.22-1.63,2.29-1.32.1-1.31-3.32-.75-4.31.2-.35.86-.42,1.43-.46l.68-2.19c.25-.81.84-1.21,1.77-1.46l-.61-1.59c.63.25.96.36,1.59.47l.97.85,2.37.32c.46.06,1.33-.55,1.75,0,.19.24-.34.96-.26,1.26s.27.83.32,1.09-.54.61-.62.87c-.44,1.4-.95,2.99-2.38,3.42-.78.23-1.3-.53-1.94-.67ZM203.87,160.86c-.58-.84-1.96.03-2.08.67.49.29,1.08.54,1.4.48s.89-.84.68-1.15Z"/>
  <path d="M172.84,195.01c-.23,1.46-1.19,2.97-2.47,3.7-1.6-1.44-3.13.26-3.34-1.43,2.19-1.87,1.2-1.93,3.3-3.53-.91-.32-1.46-.62-2.05-1.19l-1.36-1.31c.03-.74.92-.9,1.26-1.25.8-.83,1.56-1.27,2.65-.58.48.3,1.09.74,1.69,1,.65.29,1.64-.49,2.23-.47,1.04.04,1.82.08,2.88-.07.26-.04.77.11.86.33.09.24-.1.78-.31.95l-1.63,1.34c-1.57,1.29-3.36.26-3.71,2.5Z"/>
  <path d="M158.38,251.68c-1.17-.11-2.02-1.53-2.14-2.68.3-.45.95-.79,1.36-1.17l2.58-2.39c1.18-1.1,2.51-1.77,3.06-3.42.28-.83.96-1.43,1.65-1.98l1.4-1.1c.94-.03,2.05,1.26,1.66,2.31-.34.93-1.41,1.53-1.89,2.32-.75,1.24-1.48,2.31-2.55,3.29l-3.54,3.25c-.45.41-.56,1.68-1.6,1.58Z"/>
  <path d="M223.08,166.95c-.41-.32-.13-1.7.25-2.04.29-.26,1.15.09,1.43.22.64-.43,1.43-.66,2.2-.9.42-.13.82-.77,1.44-.62.49.12,1.04-.12,1.23-.56-1.38-.58-4.89-1.88-3.79-3.7l1.16.4c.27.09.65-.48.91-.83l2.69.41.17-1.23c0-.08.44-.21.54-.1s.25.35.31.5l.89,2.11c.23.54-.21.93-.47,1.48-.77,1.62.04,3.57-.98,3.63-1.57.09-1.63,1.45-3.55,2.05l-2.18.36c-.67-.22-1.59-.67-2.25-1.17Z"/>
  <path d="M239.32,169.42c-.65.34.03,1.18.21,1.56,1.12,2.28,1.79,4.58,2.44,7.1-.75.28-1.88.45-2.39-.25-.24-.33-.63-1.12-.7-1.52-.4-2.34-.5-1.6-1.22-4.32-.11-.44-.18-1.62-.62-1.67l-2.15.02-2.11.06c-.16-.9-.33-1.37-.75-2.19.24-.68,2.84-1.86,3.61-1.8,2.26.19.13-.92,4.34-.84.06,0,.33.16.39.18.09.03-.12.38-.21.4l-2.03.36-.44,1.16c-.71-.77-1.03-.76-1.74-.43l-.58.27c-.13.06,0,.56.11.66.47.39,1.63.08,2-.29.17-.17.84.03,1.05-.05l2.32-.97c.27-.06.62.65.59.94l-.15,1.68c-.68-.11-1.46-.33-1.97-.06ZM234.83,168.65c.02-.3-.19-.66-.4-.91l-.17.71c-.04.16.56.36.57.2Z"/>
  <path d="M171.31,203.84c-1.29-1.28-1.6-.63-1.31-3.05.08-.69.86-1.58,1.6-1.18l1.35,1.22.71-.93c.21-.28.68-.58.56-1-.19-.69.47-1.51,1.01-1.34l2.96,3.01c-1.27,1.55.29,3.58-1.72,3.77-.39.04-.89.71-1.23.89l-1.66.87-2.28-2.26Z"/>
  <path d="M214.2,138.61c.14.2.3.58.2.73s-.5.11-.69-.02c-1.57-1.08-4.05.59-6.2-1.59.45-.28.85-.31,1.51-.33l-.27-.81c.51-1.11,3.29-1.92,1.75-2.35-.53-.15-.81-.31-.83-.87,0-.42.43-.66.93-.89l-.19-.66c-.25-.88,2.59-.85,3.11.02.14.24.05.79.03,1.2.57,0,1.52.23,1.81.62.12.17,0,.92.19.99l.82.3c.13.05.41.21.49.31.1.14-.06.46-.2.7-.41.72-1.72.75-3.12,1.72l.66.95Z"/>
  <path d="M205.49,190.84l-1.51.21c-2.22,1.26-3.9-.07-5.88-1.53,1.01-1.22,2.11-.95,3.51-.93-.87-1.51-2.26-1.22-3.11-2.92,1.37-1.23,6.12-.39,7.38.56l-.08,1.86-1.3.76c.63,1.15.84.54,1.39,1.29.11.15-.22.67-.39.69Z"/>
  <path d="M183.66,162.23c.12.47-.84.68-1.36.64-.42-.03-1.2-.62-1-1.12.24-.59.44-1.01.3-1.58-.71-2.94,1.41-1.73,1.07-5.22,1.72-1.71,1.14-2.18,2.48-3.14l.73,1.25.97-.39c.26-.1.96.5.86.76-.21.53-.61,1.17-.93,1.58-.66.82-.9,1.84-1.38,2.7-.53.94-1.13,1.84-1.73,2.71-.16.23-.56.55-.56.78s.28.59.54,1.03Z"/>
  <path d="M263.84,205.38c-2.08.48-2.43-.37-4.49.11-1.02-.43-1.94-.78-2.99-1.09-1.86-.55-1.3.08-3.01-1.87-.1-.11-.13-.63-.01-.72s.48-.23.66-.21l3.09.33c1.8.19,3.44.44,5.17.99s2.04,2.35,1.58,2.45Z"/>
  <path d="M233.31,184.1c-.78,1.18-3.44-1.13-4.06-1.96l-.07-1.97c-.58-.09-1.09-.25-1.35-.66l1.41-1.86c.14-.18.3-.53.51-.67,1.46-1,.56-1.53,2.03-1.51.31.53.45,1.34.53,2,.28,2.33-.5,1.37-.87,2.33-.1.25.25.88.51.99,1.02.43.34.9.79,1.65.2.34.25-.46,1.11-.58.18-.02.37.61.3.8-.13.34-.49.94-.82,1.43Z"/>
  <path d="M304.15,231.24l-1.55-2.36c-.33-.51-.41-1.43-.57-2.14-.15-.66-.51-1.71-.16-2.31.47-.8,1.83-1.07,2.62-.75s.81,1.43,1.12,2.11c.62,1.37.86,2.56.55,4.06-.12.57-.15,1.07-.62,1.38-.34.23-1.14.4-1.39,0Z"/>
  <path d="M227.44,191.25l-.25-1.22c-.05-.23-.81-.23-.94-.02-.48.83-.68,1.97-.83,3-.67-.07-1.42-.41-1.81-.86.75-2.2.96-.53,2.4-3.61.29-.61,1.02-1.5,1.81-1.3.45.11,1.33.58,1.66.91.46.46.93.62,1.54,1.03l2.18,1.47c.24.4.21,1.42-.05,1.91-3.04.11-2.4-3.24-5.72-1.32Z"/>
  <path d="M169.93,206.87c-2.6,2.12-.38,1.23-2.4,2.85-.61.49-1.92.43-2.4-.38-1.2-2.03-.26-4.26,1.85-5.35.63.16,1.47.6,2.05.95l1.37-.13c.29-.03.44.9.34,1.2s-.43.55-.81.87Z"/>
  <path d="M164.08,153.5c-.03-.13.27,2.34-.02,2.56-.16.12-.73.14-.9.04-1.35-.85-.64-3.47-2.75-3.02-.23.05-.74-.27-.75-.5,0-.26.29-.64.51-.67.37-.04.74-.1.7-.26-.24-1.16-1.78-.99-2.27-2.38-.16-.45.17-1.36.42-1.89.22-.47,1.23-.12,1.37.38.22.82.82,1.07,1.55,1.09l.03.96c0,.18.55.1.76.13l.75.1c.19.03.14.58.14.85-.02.87.26,1.84.46,2.6Z"/>
  <path d="M291.14,194.48c-3.22.65-2.1,2.4-5.02.22-.19-.14-.45-.61-.45-.84,0-.26.34-.69.52-.94l-.18-1.76c1.71-.79,5.91,1.9,7.49,2.8.14.08.19.58.09.61l-.62.23c-.66.24-1.19.19-1.84-.31Z"/>
  <path d="M176.82,40.35l-.46.6c-.09.12.45.46.59.4.49-.21,1.66.23,1.81.83.04.18-.31.6-.45.53-1.14-.5-.87-.81-1.37-.85-.25-.02-.66.19-1.15.4l-.17-1.66.73-.51-1.2-1.57-.78-.09c-.19-.02-.12-.54-.03-.71l.23-.48c.06-.13-.44-.27-.59-.27-1.63.03-1.76-1.73-2.04-.42l-.12.55c-.02.11-.49-.03-.56-.11-.67-.78.64-1.51.81-1.97.39-1.04-1.6-1.81-1.93-2l-1.24-.74c.04-.29,1.87-1.39,2.64-1.05.32.03.56-.05.65.09.11.17.4.76.23.86l-.8.45c.62.38,1.48,1.24,1.62,1.94-.2.29-.73.91-.5,1.07l1.41.94-.08-1.26c.28-.04.72.07,1.07.24.24.12.08.86.17,1.12l.49,1.54c.02.08.42.17.42.08l.05-.6c.03-.31.1-.68.48-.77l1.07,3.13c.13-.32.22-.82.27-1.34l.06-.58c.02-.15.47-.18.61-.16-.06.91.23,1.36.89,1.85s.3,1.87-.56,2.24c-.52-.13-1.76-2.37-1.94-2.14l-.32.41Z"/>
  <path d="M196.12,157.17c.14.03.33.58.24.65l-.61.48c-.01.55.6.3.96.95.09.15-.3.4-.48.56l-1.33,1.11c-.7.58-1.61-.42-2.01-.97-1.32-1.83-.25-1.97-1.49-2.82-.49-.33-.82-.73-.83-1.23,0-.54.25-1.05.81-1.36l.7,1.22c.76.09,1.69-.12,2.58-.25l1.79-.26c.12-.02.45.26.53.35.1.11-.17.4-.35.52-1.31.83-3.22-.72-3.52.75-.08.4.39,1.05.87.8.58-.3,1.61-.59,2.15-.49Z"/>
  <path d="M224.58,80.91c-.87-.04-1.9-.31-2.79-.76-.33-.17-.83-1.08-.52-1.25l.95-.5c.69-.36-.61-1.63-.38-2.26.4-1.08,2.6-.97,2.95-.25.54,1.1.91,2.48,1.14,3.66-.67.33-1.13.66-1.35,1.35Z"/>
  <path d="M278.54,136.07c-.6.5-1.16-.13-1.5-.56-.51-.64-1.01-1.17-1.17-1.94l-.38-1.8-.48-2.13c.74-.05,1.55-.14,2.12.1.34.14.52,1.1.73,1.4.93,1.33,2.1,3.76.68,4.94Z"/>
  <path d="M169.92,148.35c-.48.41-1.49.08-2.12-.33-.87-.56-1.04,2.66-1.73,1.83-.51-.62-.83-1.26-1.19-1.95l-.45-.85c-.12-.24.34-.81.37-1.09.06-.76.16-1.88.28-2.71.03-.22.63-.03.72.15,1.06,2.13,2.03.08,2.32,3.9l1.64.25c.11.02.27.7.16.79Z"/>
  <path d="M161.81,271.98c-1.07.76-1.99.67-2.77-.24-.99-1.17-.11-1.79-.64-2.48-.14-.19-.63-.33-.81-.49-.53-.47.04-1.13.41-1.53.64-.7,1.69-1.24,2.43-.42.32.35.09,1.28.09,1.76,0,1.33,1.45,1.96,1.83,2.85.07.16-.35.43-.54.56Z"/>
  <path d="M179.63,261.17c-1.11.26-3.61-.02-4.78-.32-.65-.11-1.55-.32-1.87-1-.18-.38.41-1.37.82-1.4,1.06-.08,1.94.11,2.98.25,1.1.15,2.45.32,3.38,1.06.3.24-.14,1.33-.52,1.42Z"/>
  <path d="M295.62,247.72c-.1.17-.51.43-.67.47-.94.19-.97-2.69-.73-3.33l3.02-2.59c.38-.32,1.43-.15,1.46.3-.55.83-1.1,1.66-1.57,2.49l-1.52,2.67Z"/>
  <path d="M198.06,84.95c-.18.06-.5,0-.64-.08-.18-.1-.41-.72-.25-.87,2.07-1.91,1.55-.99,2.8-1.97l1.46-1.15c1.27.22,1.47,3.59.01,4.16-.33.13-1-.44-1.36-.78l-2.02.69Z"/>
  <path d="M242.23,109.01c-1.12.47-2.51-.2-2.9-1.45.09-.91,2.99-2.16,3.93-2.1l1.04,2.19c-.53.61-1.22,1-2.06,1.36Z"/>
  <path d="M213.35,83.26c-1.02.2-2.94-.24-4.03-.84.72-2,2.72-.96,3.85-.49-.21-.99-1.13-1.29-.83-2.29l1.9,1.8c.45,0,.96.07,1.25.3.24.18.57.76.16,1.1-.28.23-1.05-.11-1.4-.24l-.59-.22c-.13-.05-.17.85-.32.88Z"/>
  <path d="M186.02,144.87c.68,1.07-.52,5.3-2.12,4.52-.89-.43-.79-1.36-.43-2.13l1.05-2.29,1.51-.09Z"/>
  <path d="M258.69,212.52s-.36,1.66-1.28,1.53c-.99-.14.38-2.75.56-3.22l.88-2.28c.23-.59,1.03-.75,1.59-.6.03.49-.03,1.01-.23,1.42l-1.52,3.16Z"/>
  <path d="M192.47,117.85l-1.79,1c-.24.14-.77.29-.98.18-.62-.33-1.24-2.05-.82-2.62.22-.3,1.15-.62,1.49-.48l1.77.72c.2.08.51.26.64.37.16.12-.13.72-.32.83Z"/>
  <path d="M193.59,107.98c-1.16-.29-2.08-1.69-1.81-3.12.08-.45.75-1.07,1.18-.81.97.59,1.22,1.69,1.33,2.72l.09.87c.02.19-.56.39-.79.33Z"/>
  <path d="M223.9,202.98c-.36.5-1.8.22-2.08-.28-.04-.54.54-1.01,1.04-1.3,1.05-.62,2.68-1.82,3.51-1.36.18.1-.07.73-.25.83-.92.48-1.57,1.21-2.22,2.12Z"/>
  <path d="M258.71,69.58c-2.75,3.12-2.35,1.4-3.81,2.57-.13.1-.5.14-.62.05-.64-.46.34-.92,1.5-2.09.8-.8,1.89-1.26,2.93-.54Z"/>
  <path d="M210.86,93.76c-.56.54-1.56,1.38-2.12.69-.22-.27.4-1.84.49-1.87l.99-.3,1.91-.61c.09-.03.46.18.42.26-.05.12-.21.38-.31.48l-1.39,1.35Z"/>
  <path d="M227.33,119.48l-1.87,1.66c-.64-.21-1.2-1.23-1.16-1.92.03-.4.87-1.06,1.18-.96.9,1.03,2.43-.06,2.2.63-.05.15-.23.49-.35.59Z"/>
  <path d="M260.57,141.49c-.03.18-.13.48-.19.62-.08.17-.63.18-.78.07-.95-.67-.75-2.56-.15-3.18.31-.33,1.2-.49,1.54-.22l-.41,2.71Z"/>
  <path d="M250.38,220.59c1.04.81-.72,2.74-1.32,2.52-.8-.29-1.41-1.6-.77-2.36.35-.42,1.64-.51,2.09-.16Z"/>
  <path d="M213.02,165.57c-.47.29-1.1.48-1.5.39-.29-1.06.51-1.37,1.25-1.72l2.07-.98c.2-.1.84.04.81.23-.03.21-.23.58-.4.69l-2.23,1.4Z"/>
  <path d="M170.01,30.8l-.9-2.04c-.34.17-.56.29-.72.33-.19.05-.68-.33-.69-.44l1.96-.8c.34,0,1.28.35,1.37.73l.42,1.78c-.46-.07-.9,0-1.43.44Z"/>
  <path d="M260.22,73.26c-.49-.49-.73-2.73.93-3.57l.59,2.52c.16.69-.99,1.58-1.52,1.05Z"/>
  <path d="M134.71,176.71c.4,1.79-1.7,3.57-2.02,2.92s.31-2.19.65-2.9c.15-.3,1.12-.23,1.37-.02Z"/>
  <path d="M262.63,137.4c-.24.16-.74-.51-.76-.76-.01-.24.45-.48.61-.69l.87-1.87c.24-.52,1.25-.6,1.57-.26-1.17,1.88-.74,2.56-2.29,3.59Z"/>
  <path d="M254.4,79.32c.17.28-.32,4.81-.91,4.03l-.34-.46c-.5-.66-.37-1.16-.01-1.85.05-.28.07-.84.15-1.09.12-.33.62-.67,1.11-.63Z"/>
  <path d="M230.33,124.68c-1,.43-2.09-.16-2.74-.71-.22-.19-.13-1.03.13-1.14,1.53-.64,3.14,1.62,2.61,1.85Z"/>
  <path d="M215.72,188.02l-.99-.62c-.18-1.18.84-2.08,1.91-2.16.18.27.43.74.42.99-.03.7-.8.79-1.34,1.8Z"/>
  <path d="M222.4,197.33c.04.25.03.66-.07.79s-.52.27-.64.16l-1.19-1.23c-.11-.11-.18-.7-.04-.77l.61-.31c.25-.13.81-.23,1.09-.21l.23,1.57Z"/>
  <path d="M243.84,116.96l.36.41c.12.14-1.12.66-2.18.11-.36-.18-.72-.87-.76-1.39.92-.55,1.9.1,2.58.87Z"/>
  <path d="M216.26,64.28c-.95-.56-.51-1.35-.21-2.03.26-.6,1.02-1.06,1.55-.66.15.28.03.99-.17,1.25l-1.17,1.44Z"/>
  <path d="M256.89,163c.03.18-.2.7-.36.79-.64.37-1.25-2.18-.9-3.48.03-.11.47-.29.53-.2.08.12.31.44.33.6l.39,2.29Z"/>
  <path d="M278.98,36.83c.34.58-2.06,1.37-2.43,1.45-.21.05-.62-.47-.57-.69.14-.55.24-.98.87-1.41.16-.11.45.48.57.62l1.56.02Z"/>
  <path d="M225.78,179.18c-.74.57-1.95.3-2.18-.46-.21-.69.53-1.38,1.14-1.5.53.51.87,1.11,1.04,1.97Z"/>
  <path d="M240.24,142.23l-.81-.38c-.16-.08-.17-.7,0-.74l.82-.22c.67-.18,1.77-.11,1.75.84-.01.8-1.17.78-1.76.51Z"/>
  <path d="M199.73,90.28c.03.1.32.39.39.45.09.08-.24.38-.33.33-.66-.31-1.74-1.16-1.89-2-.06-.34.24-.87.48-.96s.7.27.79.54l.57,1.64Z"/>
  <path d="M253.4,123.91c-.3-.11.07-.94.11-1.24.04-.27-.02-1.12.25-1.08,1.15.16,1.4,1.61,1.07,2.5-.45,0-1.02-.02-1.43-.18Z"/>
  <path d="M183.66,151.53c.23.24-2.41,1.54-2.64.92-.35-.93.56-1.31,1.24-1.47.46-.11,1.41-.12,1.4.55Z"/>
  <path d="M235.52,158.16c1.35,1.04,1.9,3.19.98,2.95-.47-.12-1.79-2.28-.98-2.95Z"/>
  <path d="M259.37,74.39c.21.04-.01.76-.24.8-.26.05-.7-.11-1.03-.27l-.76.71.09-2.11c0-.19.1-.61.24-.57.81.21.39,1.18.75,1.25l.94.18Z"/>
  <path d="M236.19,125.02c-.24.19-.84-.54-.86-.88l1.45-1.01c.11-.08.65.04.69.18.16.52-.58,1.17-1.29,1.72Z"/>
  <path d="M171.58,35.04c-.65.8-2.07-1.16-2.04-.46l.02.48v.4c.01.11-.4.11-.43,0l-.32-1.24c-.13-.5,2.62-.39,2.77.81Z"/>
  <path d="M251.2,6.16c.05.69-.89.67-1.24.4-.39-.29-.71-1.18-.1-1.45.38-.16,1.31.59,1.35,1.05Z"/>
  <path d="M195.18,163.35c-.59.13-.99-.01-1.4-.48-.16-.18-.27-.62-.22-.84s.64-.43.83-.32c.56.35.76.85.8,1.63Z"/>
  <path d="M178.84,147.17c-.22,1.01-.74,1.2-1.45,1.38-.23.06-.71-.25-.73-.48s.29-.7.51-.72l1.67-.18Z"/>
  <path d="M165.27,136.43c.38.58.71,1.19.33,1.86-.73-.5-1.17-1.46-1.36-2.27.09-.1.58-.28.66-.16l.38.57Z"/>
  <path d="M175.23,39.54c.12.22-.2,1.85-.46,1.98-.66-.76-.72-1.71-.35-2.6.22.05.69.4.8.62Z"/>
  <path d="M247.18,171.94c-.23.3-.46.56-.61.65-.19.11-.69-.12-.71-.34-.02-.26.03-.77.16-.94.2-.25.7-.45.91-.34s.41.75.25.97Z"/>
  <path d="M268.67,181.07l-.57-1.34c-.07-.16-.09-.5-.06-.65.05-.19.63-.2.81-.08.61.42.57,1.6-.18,2.07Z"/>
  <path d="M240.07,95.22c-.06.13-.55-.18-.53-.32l.21-1.8c.08-.06.48-.04.64.02s.32.63.25.79l-.57,1.3Z"/>
  <path d="M263.54,26.14l-.89,2.51c-.65-.82-.05-2.21.41-2.87.06-.09.53.22.48.36Z"/>
  <path d="M198.29,266.75c-.11.21-.83.37-.92.17-.18-.43-.12-1.47.12-1.81.77-.11,1.15.97.8,1.64Z"/>
  <path d="M176.43,155.37c-.17,0-.43-.58-.34-.7.24-.34,1.24-.4,1.64-.25.2.08.32.77.19.9-.32.03-1.13.05-1.49.04Z"/>
  <path d="M181.27,146.23c-.28.39-1.13.41-1.71.3l.03-1.02c.55-.15,1.45-.19,1.68.72Z"/>
  <path d="M186.83,137.27c-.21.4-.56.92-.79.86-.36-.09-.45-.87-.34-1.15s.52-.68.8-.66.46.71.34.95Z"/>
  <path d="M123.44,134.19c-.91.33-1.46-1.31-1-1.86.66.07,1.35,1.36,1,1.86Z"/>
  <path d="M268.81,116.12c.04.36-.55.63-.77.52s-.56-.45-.66-.68.26-.92.5-.84c.33.11.89.65.92,1Z"/>
  <path d="M199.06,192.29c.21.05.12.79-.08.81l-.94.09c-.17.02-.57-.2-.69-.31s.18-.63.35-.65c.29-.04,1.09,0,1.37.07Z"/>
  <path d="M206.33,127.27c-.79.23-1.12-.88-.81-1.24.18-.21.8-.12.98.07.24.25.15,1.08-.18,1.17Z"/>
  <path d="M186.21,126.84c-.48.34-1.19.48-1.29-.04-.03-.31.62-.81.94-.92.17-.06.63.09.7.26s-.18.57-.35.7Z"/>
  <path d="M204.6,91.46c-.69-.38-1.12-1.1-1.16-1.8.9-.15,1.5.84,1.16,1.8Z"/>
  <path d="M316.83,196.07c.1.07.19.41.2.54.02.16-.41.39-.57.37l-.8-.11c-.19-.03-.32-.49-.33-.74.31-.24,1.18-.26,1.49-.05Z"/>
  <path d="M240.5,21.07c-.05.41.8.09,1,.88.05.19-.52.58-.63.43l-.9-1.32c-.07-.1-.1-.55.01-.54l.51.02c.11,0,.03.27,0,.53Z"/>
  <path d="M258.39,148.77c-.6.38-1.6-.46-1.45-1.11.49-.24,1.31.22,1.45,1.11Z"/>
  <path d="M179.14,63.4c-.15.26-.59.21-.84.1-.3-.13-.6-.81-.38-.95.38-.26,1.06.18,1.22.85Z"/>
  <ellipse cx="217.52" cy="174.77" rx=".6" ry=".61"/>
  <ellipse cx="188.02" cy="168.67" rx=".58" ry=".6"/>
  <path d="M225.51,82.75c-.06.26-.8.19-.91-.02s-.08-.8.15-.89c.32-.11.88.39.76.91Z"/>
  <path d="M169.56,37.59l.8-1.1c.33.28.43.73.29,1.06-.17.41-.52.46-1.09.05Z"/>
  <path d="M230.01,126.17c0,.2-.66.25-.76.07-.17-.29-.36-.66-.44-.86.54-.28,1.2.15,1.2.79Z"/>
  <path d="M163.65,166.16c-.13.15-.62.23-.8.17s-.12-.63.01-.82c.14-.2.65-.33.83-.21s.15.63-.04.85Z"/>
  <path d="M257.56,78.84c-.04.24-.48.69-.73.74-.18.04-.41-.46-.4-.65,0-.2.29-.5.48-.5s.67.22.64.41Z"/>
  <path d="M229.09,147.41l-1.36.43c-.21-.89.79-1.03,1.22-1.09.12-.02.27.61.14.65Z"/>
  <path d="M255.95,76.4c.18.54-.02,1.08-.46,1.24-.1-.17-.23-.59-.26-.8-.03-.24.64-.68.71-.45Z"/>
  <path d="M197.9,178.67c-.62.56-1.62-.13-1.54-.94.5.12,1.15.46,1.54.94Z"/>
  <path d="M172.7,39.04c-.32-.19-.32-.63-.18-.75.19-.17.58-.54.75-.43.16.1.21.66.11.82s-.52.46-.67.36Z"/>
  <path d="M221.38,203.76c-.04.17-.22.49-.35.55s-.54-.05-.68-.13c.16-.41.47-.91.71-1.05.06-.04.46.09.44.16l-.12.46Z"/>
  <path d="M170,26.08c-.13.24-1.01,0-1.17-.31-.1-.21.5-.5.78-.54.22-.03.46.43.39.85Z"/>
  <path d="M227.76,140.19l-.73-1.61c.5.08.71.21.86.47.18.31.14.62-.13,1.14Z"/>
  <path d="M167.76,137.71c0,.19-.55.3-.74.25-.24-.06-.4-.63-.21-.87.24-.3.95.26.94.62Z"/>
  <path d="M252.39,114.19c-.1.16-.57-.04-.65-.21-.09-.21.08-.79.31-.8.38-.02.51.73.34,1.01Z"/>
  <polygon points="238.65 84.79 238.81 85.49 237.89 85.7 237.74 85 238.65 84.79"/>
  <path d="M194.63,209.99c-.14.02-.51-.35-.44-.48.08-.16.31-.45.48-.58.11-.09.34.3.35.44.02.18-.22.59-.39.62Z"/>
  <path d="M198.45,95.31c-.31.35-1.13.1-1.09-.44.08-.33.88-.07,1.09.44Z"/>
  <path d="M250.56,46.09c-.11.04-.45-.12-.4-.21l.26-.45c.05-.09.38-.28.44-.19l.3.48c.07.12-.45.33-.59.38Z"/>
  <ellipse cx="215.28" cy="61.41" rx=".4" ry=".41"/>
  <ellipse cx="192.68" cy="98.54" rx=".42" ry=".43"/>
  <path d="M153.52,53.25c-.27.32-.87-.54-.64-.73.09-.08.42-.09.52-.03.14.08.22.63.12.76Z"/>
  <path d="M241.53,258.51l-.52-.45.45-.63c.08-.11.56.2.49.33l-.42.76Z"/>
  <ellipse cx="225.54" cy="137.72" rx=".38" ry=".39"/>
  <ellipse cx="215.8" cy="193.04" rx=".41" ry=".42"/>
  <ellipse cx="234.29" cy="156.14" rx=".38" ry=".39"/>
  <ellipse cx="208.15" cy="130.07" rx=".36" ry=".37"/>
  <path d="M216.24,60.31l.42.17c.1.04.17.45.06.47l-.44.06c-.1.01-.06-.29-.04-.7Z"/>
  <ellipse cx="204.05" cy="156.89" rx=".34" ry=".35"/>
  <polygon points="167.94 25.43 168.48 25.51 168.38 26.24 167.84 26.16 167.94 25.43"/>
  <path d="M214.13,97.52h.52c.11-.02.18.29.08.34l-.4.19c-.13.06-.35-.52-.21-.53Z"/>
  <path d="M171.06,38.82c-.15.22-.73-.47-.52-.59.25-.14.78.24.52.59Z"/>
  <polygon points="259.26 75.94 259.63 76.2 259.26 76.76 258.89 76.5 259.26 75.94"/>
  <polygon points="315.64 57.54 315.88 58.07 315.4 58.29 315.16 57.76 315.64 57.54"/>
  <ellipse cx="208.4" cy="146.93" rx=".35" ry=".36"/>
  <path d="M217.11,186.96l.47.15c.1.03.11.4,0,.39l-.45-.06c-.14-.02-.15-.53-.02-.49Z"/>
  <ellipse cx="140.49" cy="115.39" rx=".32" ry=".33"/>
  <ellipse cx="314.07" cy="58.83" rx=".29" ry=".3"/>
  <path d="M169.03,26.78c-.04-.06.37-.18.4-.11l.17.39c.03.07-.29.2-.33.14l-.24-.42Z"/>
  <path d="M147.49,67.53c0-.08.36,0,.36.07v.38c-.01.08-.32.19-.33.11l-.03-.56Z"/>
  <path d="M260.52,28.76c0-.07.36,0,.36.07v.38c-.01.08-.32.19-.33.11l-.03-.56Z"/>
  <path d="M307.62,25.02c-.22-.2-.45-.4-.38-.47l.38-.36v.83Z"/>
  <path d="M314.37,55.58c0-.08.36,0,.36.08v.38c-.01.08-.32.19-.33.11l-.03-.57Z"/>
  <polygon class="cls-1" points="173.19 162.4 173.65 162.61 173.34 163.3 172.89 163.09 173.19 162.4"/>
  <path class="cls-1" d="M228.02,97.35c-.14.1-.94.42-1.16.25l-1.82-1.33-.93.44c-.19.09-.53-.53-.63-.72.34-.8,1.21-.77,1.95-.4l1.39.7c.48.24.77.39,1.2,1.06Z"/>
  <ellipse class="cls-1" cx="291.45" cy="214.43" rx=".34" ry=".35"/>
  <path class="cls-1" d="M208.08,61.72c-.25-.03-.86-.72-.62-.91.33-.27.63.28.62.91Z"/>
  <path class="cls-1" d="M207.16,52.11c-.78.26-1.07-.41-1.03-1.07l1.03,1.07Z"/>
  <path class="cls-1" d="M181.5,73.87l-2.01-.64c.1-.21.75-.53,1.03-.44.43.14.9.53.98,1.08Z"/>
  <path class="cls-1" d="M268.91,167.25c-.14.43-.46.73-.71.78-.27.05-.58-.67-.38-.79s.8-.09,1.09.01Z"/>
  <path class="cls-1" d="M203.87,160.86c.21.3-.36,1.08-.68,1.15s-.91-.18-1.4-.48c.12-.65,1.5-1.51,2.08-.67Z"/>
  <path class="cls-1" d="M234.83,168.65c-.01.17-.61-.03-.57-.2l.17-.71c.22.25.43.61.4.91Z"/>
</svg>