<?xml version="1.0" encoding="UTF-8"?>
<svg id="Layer_2" data-name="Layer 2" xmlns="http://www.w3.org/2000/svg" viewBox="0 0 432 288">
  <defs>
    <style>
      .cls-1 {
        fill: #fff;
      }
    </style>
  </defs>
  <path class="cls-1" d="M52.04,290.36H-1.45V2.36h432v86.81l-11.27,1.22-6.73.7-6.95.72-9.15.95-34.46,3.6-7.49.73-8.6.93-2.46.24-26.58,2.66-30.3,3.2-5.7.78-8.63,1.04c-7.34.89-14.46,2.04-21.53,4.12l-3.91,1.15c-6.84,2.01-16.88,6.47-22.88,10.74.08.26.71.36.9.21.21-.17.43-.45.54-.38l.49.33,2.8-.81c2.11-.61.31.61,4.32-.94s3-.09,4.65-1.37l.98.44c.71.32.21-1.16,2.88-.91,1.98.19,2.27-.46,3.32-1.06.08-.04.37.03.34.11l-.17.57,1.19-.13c.26-.4.69-.98,1-.86,2.75,1,5.89-1.59,8.81.68.8-.14,1.81-.27,2.59-.32l3.74-.23c2.56-.16,2.65-.91,7.49-.83.68.01,1.3.19,2.03-.21.32-.18.82-.06,1.29.17l.26-.56c.51.03,1.5.09,1.92-.11.63-.51,1.3-.73,1.89-.44l1.67-.15.5,6.47c.11,1.48.35,3.06.53,4.42l-.57.26c-.07.03-.14-.28-.08-.31l.48-.28-1.07-.14c-.23-.03-.32-.44-.55-.96l-2.84,1.09-.74.43c-.2.11-.53-.46-.67-.68-.47.26-1.38.67-1.67.59l-.25-.65c-.03-.08-.37,0-.34.09l.12.39-.93,1.41c-.53-.39-1.17-.57-1.82-.45l-4.24.76c-.39.07-.9.71-1.53.39-.68-.34-2.32.54-4.18.84l-3.05.5c-.11.02-.3.7-.38.63l-.44-.38c-.83.94-2.26.98-2.1,1.38l.25.65c-3.23.19-2.96,1.31-6.82,2.47l-5.56,1.67c-.93.28-2.3.05-3.04.81-.56.57-1.49.27-2.15.55l-5.72,2.38c-1.42.59-2.84,1.14-4.16,1.82l-2.09,1.09c-1.79.93-3.47,2.07-5.17,3.13l.15-.82c.02-.11-.32-.36-.42-.29l-1.49,1.08c.58-.42-2.16,1.36-2.22,1.47-.18.75-.9,1.44-1.63,1.78-.03,1.35-.61.58-1.58,2.59l-.71,1.48c-.56,1.16-1.11,2.1-1.42,3.39-.16.65-.74,1.56-.83,2.17l-.4,2.84c-.02.11-.05.48.05.5l.42.07-.37.75c-.08.17.14.49.19.69-.2.86-.19,1.62-.16,2.48l.19,5.37c.13.48.2.87-.33.17-.98.49-2.12.96-3,1.7l-5.14,4.31-7.69,6.7-5.38,4.92-1.64,1.5-1.23,1.36c-.44.49-.78.76-.62,1.37.12.48,1.04.95,1.49.48,4.64-4.91,9.46-9.35,14.73-13.54l7.5-5.97c.51-.41,1.42-.64,2.03-.33,2.43,5.68,8.16,6.53,13.66,7.32-4.8,3.2-4.87.61-7.33,2.88-.82.76-2.3,1.46-3.34,2.05l-1.71.95c-2.08,1.16-2.25,1.71-3.94,2.5l-1.2.56c.04.76.04.77,0,.23-.32-.03-.59-.08-.55,0l.29.61-3.48,2.45c-.93.66-2.34.99-3.43,1.54l-3.57,1.81-2.21,1c-.57.26-1.08.56-1.48.88l-1.37.6c-.19.08-.79-.14-.85.06l-.32,1.08-.62-.37c-.46.16-.68.14-.04.46l-.85.88-1.6-1.61-4.43,2.07-2.61,1.22-3.38,1.43-2.5,1.11-6.53,2.8c-3.03,1.3-6.98,2.33-10.25,2.96.09-.02-4.11.07-4.52-.24l-4.84,1.68c-1.29.45-2.34.99-3.06,2.31l-.48-.52,1.29-6.91.42-1.93-.87-.17c-.2-.04-.13-.6-.11-.88l.16-2.44c.04-.63.36-1.59.34-2.33-.03-1.45.2-2.61.49-3.98l1-4.84c.12-.59.17-1.48-.3-1.68l-.54-.23c-.11-.05.22-.34.32-.45l.14-1.6c0-.1.2-.39.17-.48-.04-.12-.19-.37-.16-.49.21-.87.86-2.66.87-3.58.03-1.92.02-3.62.76-5.37.03-.48-.21-1.53-.1-2.02l.76-3.4.35-1.18c.75-2.5.07-5.02,2.02-9.06l1.95-4.03c1.13-2.35,1.57-2.52,3.03-4.86,1.89-3.04,1.77-.33,3.41-3.34l.79-.66c.15-1.17.98-1.62,1.89-2.24s2.21-1.38,3.33-1.67l.05-.68c.01-.19.5-.31.71-.44l2.05-1.34c1.39-.91,2.68-2.21,4.56-1.59l-.51-1.26,1.64,1.58c.18.17.65.33.96.21.25-.09.19-.58.19-1l.5.13c.07.02.37,0,.32-.04l-.4-.42-.25-.26c-.05-.05-.05-.39.02-.38l.44.06.23-.45c.05-.09.19.07.36.15l.37.16c.57.25-.59-.85-.49-.96l.4-.46c.1-.11.28-.3.23-.39l-.43-.74c.87.12,1.77.54,2.59.56,2.67.07,5.27-.39,7.45-1.86.57-.39,1.51-.97,1.85-1.45l1.13-1.61c.35-.5.09-1.41-.05-2.02-.65-2.85-5.23-3.03-6.29-2.74l-4.35,1.19c.37-.62,3.31-2,4.11-1.97l3.51.17-.09-.51c-.01-.08-.07-.39-.13-.34l-.58.5c-.09.06-.36-.43-.27-.58l.5-.84c.2-.33-.15-.64.07-.66.08,0,.38-.04.38-.03,0,.01.11-.34.17-.41l1.52-1.8c.29-.31.53-.57.42-.3l.24.62c.03.09.3.08.34,0s.11-.39.08-.48l-.15-.47c-.03-.1.33-.23.37-.13l.2.47c.46.24.84.49,1.18.89l1.01,1.19,4.56,5.25c.38.44.79.62.79,1.24.36.32,1.17.85,1.51,1.22l3.08,3.45,2.46,2.86,2.87,3.06c.36.38.47.89,1,1.42l1.95-3.72c-1.29-1.03-2.19-2.04-3.12-3.26-2.45-3.24-5.62-6.34-8-9.82,3.13,2.77,5.24,6.26,8.19,9.15.38.37.94.71,1.22,1.17.57.95,1.19,1.75,1.95,2.38l1.15-1.85c-1.05-.58-1.87-1.46-2.63-2.39l-1.73-2.12h1.73s-.49.57-.49.57c.89.33,1.59.85,2.11,1.56l.6.82c.07.51.16.87.41,1.4l.71-1.06-6.17-7.48-3.4-4.06-6.97-8.36-6.49-7.66-5.99-7.19-2.96-3.54-4.71-5.57-11.25-13.45-9.33-11.32-11.97-14.37-2.52-3.03-16.89-20.24-2.53-3.03-2.7-3.26-3.59-4.33-3.2-3.79-3.12-3.82-2.94-3.51-3.8-4.56-7.28.06,4.5,5.36,3.77,4.35,4.53,5.31,6.6,7.79,7.8,9.22,6.07,7.14,2.94,3.5,4.09,5.02,1.72,2.13,3.08,3.6,3.93,4.52,6.31,7.36,3.65,4.25,8.37,10.09,7.55,9,4.49,5.63,5.55,6.79c.07.08.28.43.27.45-.23.33-.25-.14-.52.09l-4.51,5.11-4.28,4.61-2.29,2.51c-.66.72-1.24,1.44-1.9,2.39,1.15-.9,2.13-1.91,3.17-3.05l10.55-11.63,6.41,7.81,1.96,2.15c-.08.03-.46.16-.43.14l-.57-.42c.21.67.59,1.34.68,1.88l.27,1.74c-.04.08-.14.19-.18.11l-.27-.55c-1.49.43-2.36,1.57-3.45,2.72l-5.25,5.54-8.5,9.22c-.36.39-.36,1.3-.02,1.49l.48.27c1.21.68-1.11.65-1.79-1.43l-.87-2.64c-.16-.44-.2-.48-.14.11-.15.56-.52,1.45-.93,1.81-.34.31-1.08.11-1.63-.04-.77.91-2.64,2.1-3.83,1.97-.26,1.46-2.32,1.35-3.44,3.15l-.63-.42c-.43.62-.65.89-1.05,1.15v.41c0,.15-.29.42-.43.48l-1.07.46c.05.37.12.55.03.6s-.45.17-.57.15l-.99-.12c-.23-.03-.39.75-.61.85-1.8.8-2.68,3.1-2.87,4.61l-.53-.19c-.12-.04-.14.12-.24.51-.42,1.33-1.62,2.62-2.57,3.57.29,2.14-.27.04-1.18,2.26-.42,1.04-1.12,1.98-1.75,2.97-.59-.24-.64-.21-.05.22-.04.07-.42.43-.47.56l-.81,1.99-.15,1.74c-.09,1-1.2.55-.31,1.17l-.67.77c.13.13.43.35.39.45l-.3.64c-.07.16-.2.38-.15.46l.15.27c-.31.42-.45.85-.5,1.36l-.22,1.52c-.06.41-.52.95-.88,1.18.24,1.34.08,2.72-.12,4.03-.08.49-.05,1.37-.18,1.79l-.79,2.59c-.78,2.56-.36,2.99-.88,4.82l-.75,2.61c-.47,1.62.08,1.67-.73,3.84l.48.3-.24.27-.33-.07.12.48c.3.01.44.02.41.02l-.72,1.48c-.17.34-.23.83-.35,1.25l-.5,1.79.3.53c.08.13-.41.31-.47.45-.05.13.01.5.03.7.02.17-.44.2-.6.3-.29.19-.12,1.07-.22,1.41l-.78,2.74c-.21.75-.17,1.69-.61,2.27-.48.63-.64,1.11-.83,1.81l-.81,3.12c-.25.97-1.32,1.91-1.48,3.11l-.26,1.87c-1.8-.36.4.54-1.97,3.18l.25.26c0,.09.04.46.03.35-.57.43-.77.64-.92.98l-.99,2.3c-.53,1.24-1.11,2.35-1.72,3.61l-1.32,2.71-.96,1.7c.29.25.42.36-.23.02-.16.21-.24.41-.49.74l-1.12,1.5c-1.58,2.11-2.65,3.94-4.84,6.2l-3.67,3.79c-.5.52-1.17,1.16-1.72,1.6l-2.78,2.28c-.69.57-1.42,1.15-2.16,1.68-5.65,4.09-3.69,2.24-8.59,4.82l-1.52.8c-1.8.95-4.44,1.12-6.44,1.23-1.4.08-2.93.6-4.34.82l-5.2.8c-.68-1.57-.2-2.79.18-4.11.79-2.67,1.32-1.93,2.51-4.27-.03-.25.07-.66.26-.65,1.97.13.08-2.22,4.19-3.02l6.28-1.21c7.08-1.37,16.08-8.23,19.84-14.25-.31-.43-.57-.8-.3-.33l-.99.78v.6c-.01.17-.6.13-.7.26-.31.53-.99.96-1.73,1.11-.84.17-1.71.96-2.5,1.32-3.97,1.77-7.85,3.45-11.44,6.07-.5.37-1.5.72-2.15.88l-4.5,1.09,2.58,2.23c.05.07.15.28.07.26s-.57-.08-.64-.12l-2.6-1.79-1.91-1.26-2.08-1.29c-.43-.27-.93-.48-1.46-.73-.79-.37-1.6-.94-2.41-1.4l-1.37-.77c-.16-.09-.44-.57-1.04.23-.08-.1-.35-.45-.26-.33.28-.29.49-.51.49-.52l-.42-.18-.46-.19c.05-.03-.23.12-.3.15-.11.05.33.47.3.6-.11.58-.54,1.72-.77,2.26-.04.09.35.35.29.42-.09.1-.38.41-.43.53l-.7,1.81.42.03c.06,0,.14.21.08.25l-.56.33.3.27.5.12s-.84.61-1.43,1.55l-.26.41c-.07.12.33.48.41.37l.38-.53c.15-.2.45-.6.58-.76.05-.06.62.09.57.15l-.28.34c-.3.36-1.2.4-.71.56l.42.14c.13.04.47.15.38.23-.16.16-.42.42-.56.51l-.28.19-.89,1.96c.16.11.66-.31.9-.68l.27-.42.27.13.85.41v-.86s-.08-.76-.08-.76c0-.09-.32-.48-.23-.47l.68.06c.1,0,.23-.48.12-.5l-.72-.11.44-.63,1.01.43c-.06.56.42,1.23,1.11,1.52.16-.39.32-.82.46-1.06s.95-.18,1.13.04l.41.51c.28.34,1.64-1.22,1.63-1.89,0,0,.21.24.32.37l1.6-.5c.03-.26-.03.29-.03.3l-.7.75c-.21.23-.7.38-1.19.38l-2.23,1.83-.53-.16c-.11-.03-.22-.07-.2,0l.14.66c.04.17-.17.6-.23.8l-.3,1.08c-.07.26-.81.42-1.05.27-.17-.1-.71-.39-.76-.23l-.21.7c-.09.3-.57.76-.89.74-.38-.02-.86-.47-1.12-.9-.21.09-.66.28-.94.24s-.74-.56-.97-.75l-.64-.53c-.14-.11.15-.55.26-.79.3-.69.04-3.32-.26-4.15-.21-.22-.26-.26-.19-.26h.39s-.1-.31-.1-.31c-.11-.34-.1-.97.14-1.14.2-.14.42-.26.37-.33l-.26-.35c.26-.3.31-.31.22-.34-.12-.05-.58-.22-.54-.21.6-.57.3-2.77.07-2.97-.26-.23-1.08-.47-1.28-.46l.15.63c.02.09.02.38-.06.34l-.65-.31c-.49-.24-1.24-.19-1.83.08l.24,1.37c.02.11-.12.45-.15.56s-.2-.13-.38-.38l-.39-.1.05.6c0,.11-.21.19-.33.18l-2.03-.23.78-1.22s-.25-.17-.31-.1l-.27.35c-.06.07-.36.13-.46.14s-.22-.33-.14-.37l.47-.24-.02-.34-1.14-.02c-.07-.22-.17-.48-.07-.46l.57.11s.26-.06.27-.09l.26-.91c.06-.2.51.09.87-.05.03-.6.37.14.34.3-.04.22-.14.45-.31.94l3.1-.95v-.75s-.26.02-.26.02c-.13.2-.22.38-.26.36-.1-.04-.5-.26-.42-.34l.46-.47-1.26-1.2c.36-.61.86-1.25,1.16-1.1-.1.49-.2.85-.19,1.13.02.52.77.45,1.24.38l.3.8c.17.44.86-.66,1-.38l.22.46c.06.12.43.21.56.21l.62.02c.16,0,.46-.43.35-.55l-.48-.52c-.06-.37-.04-.79-.23-.93-.25-.19-.85-.26-1.24-.29l-2.36-1.13c.67.32-3.34-1.01-3.24-.53l.2,1.02-1.91-.12.14.56c.14-.02-.28.04-.46.07l-.18-.45-.39-1.01-.57.16.6.74c.12.15-.21.34-.46.53l-.33,3.44c-.02.28.86.72,1.01.49.1-.16.35-.51.45-.46l.52.25c.13.06-.07.19-.4.44-.03.04-.09.13-.09.17l.04.37.06.57-1.13-1.04s-.36.16-.38.16l-.28-.03c-.31-.03.06-.18-.66.2l-.38.2.18.24c.06.08.16.34.06.32l-.58-.12-.46-.09s-.19.19-.2.24l-.1.41-.09.39-.11.49-.97-.33c-.43-.1-.53-.14.05-.1.23-.25.6-.63.57-.81l-.13-.67c.07-.41.14-.88.17-1.28l.06-.9c-.62-.44-.96-.71-1.26-1.02l.24-.41c.16-.46.26-.78-.37-.1-.29.28-.09-1.17-.39-.57l-.3.59s-.17.27-.17.32l-.02.45c0,.11.22-.02.36-.09.12-.11.21-.19.19-.18l.2.45c.2.45.55.85,1.07,1.39l-.29.38-.88-.13.22-.54c.05-.12-.2-.45-.33-.41s-.38.24-.36.38.12.5.09.63l-.2.86c-.03.14.06.7-.08.69l-.84-.05.13.45c.02.09-.09.14-.17.14-.09,0-.62-.15-.58-.07l.27.57c.07.14-.43.39-.58.42l-.55.12c-.13.03.04-.45,0-.58-.24-.97-.88-1.09-.62-1.25l.56-.35c.2-.13.91-.2.96-.1l-.8.99c.04.05.32.36.28.32l1.58-1.8-.79.02-.3-.78,1.03-.2c-.41-.7-1.61-1.58-2.45-1.06-.93.57,1.08,1.79.58,2.18-.21.17-.72.18-.82-.03-.14-.29-.39-.52-.81-.7l-.08-.33c.06-.24.1-.33.04-.34l-.42-.04-.3-.19-.5-.03c-.5-.03.82.93,0,1.44l1.6,1.25c.07.05.34.21.37.23.02.02.07.41.07.52.01.12-.38-.06-.51-.08l-1.08.16c-.23.03-.28-.67-.43-.97-.22-.46-1.67-.27-1.88.27l.66.52c.12.09-.14.34-.24.44l-.25-.26-1.51-.38-.35.23,1.19.98-.73.06c-.14.01-.28.31-.36.43-.1-.02-.39-.02-.41-.11l-.15-.78-1.2-.42c-.11-.04-.28-.26-.22-.33l.32-.35.1-.36.33.33.55.55c.13.13.58-.36.57-.44l-1.48-1.63c-.16,0-.5,0-.52,0l.03-.69-1.56-1.11v1.4c.26-.09.45-.16.5-.17l.59-.05c.15-.01-.04.4-.12.51-.71.08-.7.29-.15.41.27-.09.8-.31.83-.14l.13.78-1.21.98c-.06-.22-.37-1-.54-1.31-.04-.07-.52.19-.51.23.32.34.64,1.11.25,1.43l-1.4-.76c-.06-.03-.06-.49,0-.45.1.05.62.29.6.18l-.19-1.03.11-1.45.63-.05c.16-.01-.42-2.08-.57-2.77-.04-.19.46-.66.29-.76l-.78-.46c-.3.67-.34,1.39-.06,2.01-.06.07-.25.29-.24.32l.24.77.14.47c.02.08-.13.04-.28.03l-.61-.05-.71,2.54c-.06.93-.17,1.84-.99,2.11-.87.28-2.17-.06-2.18-1.14-.02-2.15.06-4.25-.75-6.23s-2.22-3.5-4.33-3.88c3.1,2.53,3.7,2.92,4.18,7.17.09.74.4,2.29-.24,2.69-2.45,1.51-1.92,2.23-2.9,1.76l-2.34-1.11c-1.15-.54-2.2-1.14-3.01-1.87-.35-.31-1.3-.36-1.33-1.12l-1.08-.51c-1.25-1.56-3.43-1.86-3.25-3.15l-2.36-.72c-.35-.34-.63-1.5-1.18-1.36l-.48.13c-.06.02-.26-.06-.23-.12l.29-.47c-1.84-.08-.85-.21-3.39-1.1-.46-.16-1.19-.76-1.6-1.18-1.39-1.42-2.39-.69-2.34-1.71-.84.26-2.03-.66-1.88-1.33,0-.04.27-.35.3-.38l.3-.3s-.25-.06-.32-.04l-.39.12-.58-1.11-.88.23.15-.5c.07-.22-.55-.3-.81-.4-.32-.61-1.36-.69-1.75-1.03-.63-.84-5.6-3.87-5.65-3.61-.03.14-.12.59-.11.76l.09,2.64,4.62,2.73,4.13,2.56c.49.31.93.68,1.41,1.06l.41.33c.08.07.17.48.07.43s-.47-.23-.56-.29l-2.61-1.68c-.51-.33-1.02-.61-1.53-.9l-1.83-1.04-4.17-2.56v21.27s5.49,3.4,5.49,3.4c-1.79-.15-2.73-1.54-4.17-1.95-.21-.06-.6-.3-.79-.41l-.41-.23c-.15-.08-.31,1.74.16,2.9.37.92,4.16-.26,6.32.41,1.42.44,2.61,1.6,3.95,2.24s2.66,1.35,3.8,2.1c.14.5.29,1.02.43,1.31l.26.56c.05.11-.17.22-.46.44l-.04.45.6,1.99.21,1.06c.05.26-.15.82-.12,1.08.16.42.31.68.25.91-.1.42-.69.62-1.04.64l-2.98.16-2.69.12-.04.37c-.05.45-1.01.2-1.12.57-.06.19-.09.49-.08.8l.05,1.58c0,.14-.24.57-.38.63-.17.07-.49-.13-.67-.19l-1.66.28c-.28.05-.67-.48-.82-.37-1.57,1.2-1.33.21-2.7.49l-1.35.28v.56s-.02,1.23-.02,1.23c0,.08.04.49.09.44.08-.08.43-.35.55-.35l2.66.08c2.73.08,1.23-.34,5.1.59l.18,1.18c.11.25.22.5.18.38-2.56.03-5.2.15-7.33.37-.32.03-.92-.24-1.13-.36-.16-.04-.3-.08-.28-.08v4.44c2.51,0,4.83.09,7.31.14l8.99.15,10.09,5.51,7.57,4.16c3.83,2.11,7.58,4.1,11.56,5.91,1.77.81,6.05,2.51,8,2.7l-.28,1.81ZM43.89,15.7c.38-.99.74-1.98,1.02-2.93.38-1.33-.22-4.56.87-4.58.39.81.9,1.58,1.79,1.09l-.91-.74-.26-1.26.98-.81.61.99c.85,1.39-.44,1.4-.25,2.68.03.2.76.1.94.2l1.47.8c.1.05.38-.28.45-.37.45-.56.1,1.3,1.31,1.56.1,1.24.92,2.32,1.96,3.1.89.66,1.57,1.61,2.51,2.03-.95-4.68-2.18-2.21-1.72-4.94l-2.25-2.17.29,1.48-3.27-3.5c-.6-.65-.57-1.75-.06-2.25-.72-.33-.92-.77-.95-1.64l-1.71-1.81-2.9-.06c.94.92-.14,1.37-.26,2.07-.14.83-.37,1.91-.28,2.83l.3,3.39c-2.12,8.74-7.96,17.57-13.96,23.96l-1.16,1.24-1.46,1.43c-.61.6-1.16,1.22-1.83,1.78-3.59,3.03-7.21,5.74-11.28,8.14-2.21,1.3-4.51,2.17-6.87,3.25-.72.33-4.06,2.09-4.28.88-.04-.24.24-.59.45-.99-.92-.94-2.21-.35-3.13.06l-.46.21c-.06.03-.01.06.07.14l.24.25c-.36.29-1.14.99-1.13,1.44l.06,3.31c5.33-.8,15.17-5.39,19.08-8.05l2-1.36c.71-.48,1.34-.88,1.97-1.42l5.71-4.83c1.18-1,2.2-2.13,3.21-3.28l2.15-2.46c3.14-3.58,7.89-10.97,9.63-15.49l1.29-3.36ZM66.89,17.34c-1.53-2.15-3.1-3.73-4.68-5.51l-.17-2.16-4.54-5.09-1.59-1.78c-.34-.36-1.52-.19-1.91-.14.35,1.06.83,1.4,1.51,2.02.52.48,1.11,1.15,1.61,1.71l4.4,4.97,1.01,1.38c1.31,1.78,2.68,3.45,4.36,4.59ZM98.01,10.15l-1.75-2.13-3.93-4.68c-.24-.29-.47-.55-.63-.72-.13-.14-.67.04-.82.1l1.65,1.84,3.3,3.72c.57.64.57,2.41,2.18,1.88ZM79.33,10.67l3.82,2.87c.22-.7-.36-.77-.65-1.09l-5.38-6.03c-.58.44.61,1.2.38,1.57l-.51.81c.66.57,1.5,1.25,2.34,1.88ZM125.91,16.84c-1.13-2.05-2.5-3.46-3.85-4.83,1.11,1.97,2.48,3.52,3.85,4.83ZM102.02,17.03l.34-1.03-2.33.12,1.24.79.3.36c.05.06.42-.16.44-.24ZM130.44,22.49c-.55-1.25-3.59-5.16-4.33-5.2l2.45,3.06c.63.79,1.18,1.48,1.88,2.15ZM136.88,30.33c-1.16-1.74-2.15-3.1-3.57-4.24,1.12,1.63,2.25,3.11,3.57,4.24ZM107.7,30.61l2.27-1.56c.9-.62,1.77-1.06,2.85-1.59-1.91-.11-4.02.44-5.22,1.82-.92,1.06-1.5,2.47-.72,3.52l.82-2.19ZM145.5,41.14c-1.61-2.94-3.17-4.24-5.19-6.46.33.93,1.01,1.57,1.62,2.29l3.57,4.17ZM2.85,44.51c.2-.07.66-.56.52-.71l-.64-.69c-.14-.16-.52.45-.67.6-1.23.14-2.35-.84-3.22-1.84.12,1.38,1.79,1.85,2.68,2.22.15.1.38.77.55.71l.79-.29ZM133.26,52.27c-.75-.86-1.71-.92-2.58-.64l1.05.59c.18.1.55.54.73.45l.8-.41ZM5.49,60.12c-.39-1.15-1.5.38-2.11-.66-.42-.71-.9-.91-1.74-.71-.43.1-.77.42-.88,1.19l-1.57-.47c-.4-.12-.48,1.49-.06,1.44l6.37-.8ZM19.32,102.55c-.04-.18-.57-.61-.65-.47-.05.11-.08.23-.13.47l-2.02-.57c-.22-.06-.43-.62-.65-.61-.19,0-.42.52-.54.81l2.92,2.97c-.28.35-.62.85-.42,1.03.21.19.65.47.78.5,1.08-1.89,1.5-.61,2.77-1.83.47-.45-1.66-.32-2.06-2.29ZM21.15,191.49c-.2-.12-.42-.34-.57-.29l-.72.23.74.26c.14.05,0,.5-.12.57l-.41.22c-2.74,2.72-3.21.99-4.64,3.24l-1.4.56.54.23c.1.04.02.28-.07.33-.06.04-.34.13-.41.09l-.53-.31c.21.12-2.59,1.61-2.26,1.92l.47.45c-2.08.84-.12,1.98-3.72,1.67-2.06,2.79-.53,6.45-.04,6.06l.63-.5.36-.29c.06-.05.04-.12-.04-.15l-.59-.23c.15-.65.85-1.45,1.73-1.76l-.89,2.62-.39.88-.38,1.33,2.44,2.19c.14.13.16.77,0,.85l-.52.26,6.03,3.9c4.48-2.43,7.52-7.62,12.84-8.85,3.76-.86,4.87.33,7.3,1.99l4.12,2.82,5.37,3.62c.73-.44,1.61-.91,2.23-.39.5.41,0,1.24-.57,1.61.57.36,1.25.75,1.83,1.16l2.57,1.81c1.34.94,2.63,1.99,3.74,3.11l-3.26-1.37c-.19-.08-.52-.67-.65-.56l-.58.5-1.07-1.28c-.96.59-2.32.25-3.23-.2-2.55-.26-5.79-1.52-8.48-.78l3.65.31c4.21.36,13.39,3.95,17.66,5.42l1.27-6.62c1.44-7.51,3.22-14.82,5.62-22.1l2.55-7.74c.82-2.48,2.32-4.36,5.07-4.88l4.07-.77-1.24-.46c.58-1.28.74-2.5,1.07-3.81.18-.71.61-1.53.7-2.34s.16-1.6.3-2.35l.35-1.85c.06-.29.32-.93.43-1.21,1.57-3.79-.57-2.49,2.21-6.88-.11-.51-.03-1.33-.01-1.95.01-.48-.27-1.37-.32-1.89l-.05-.56c-.01-.13.6-.31.63-.43l1.05-3.63c.17-.6.12-1.65.21-2.19.65-1.03.79-1.79.82-2.94.04-1.65,1.75-2.2-.11-3.8l.51-.29,1.21-1.08c-2.88,0,.25-2.48-1.35-3.72-.28,1.4-.52,2.69-.87,4.07l-2.43,9.56c-.33,1.28-.5,2.55-.72,3.86-.32,1.85-.78,3.66-1.22,5.47l-1.53,6.34c-3.43-2.09-6.1-5.13-9.44-7.53l-1.96-1.4c-2.59-1.86-1.72-1.55-3.6-3.06l-4.54-3.65-3.15-2.63-2.51-2.09-22.38-18.33-16.77-13.67c-.75-.83-1.49-1.34-2.36-2.03l-12.57-10.03v58.7c0,.32.52.47.65.44.12-.03.15-.13.17-.47,1.98-3.13.79-1.67,3.01-3.63l1.15-1.02c.95-.84,1.79-1.64,2.33-2.84,1.25-2.75.2-1.99,1.33-2.78.08-.06-.1-.19-.22-.23l-.38-.14,1.68-1.49,3.08.18c1.57,2.6.96,1.23,4.43,3.75,1.07.78,2.62,1.08,3.75,1.74l.67.38c.11.06.52-.3.58-.43.22-.49-.59-1.38-1.29-1.3l.14-.86c.55-.15,1.03.15,1.65.57,1.11.74,2.94,1.44,4.06,1.97.2.09-.05.99-.25.86l-.58-.38c-.19-.13-.43-.28-.42-.27v.59c-.02.11-.34.22-.38.12l-.2-.43c-.08-.17-.24-.67-.41-.63l-.98.26c-.16.49.57,1.09,1.16,1.57-.13.57-5.31.9-3.89,1.34l.7.22c.54.17,1.1.67,1.14,1.3.08,1.06-1.79.94-1.91,1.36l-.11.41c-1.66.42-2.85,2.24-3.41,2.6-2.47,1.58-5.67.96-8.63,1.42-3.26.51-5.47,1.05-8.63,1.52v14.06c.24.43.79,1.26,1.13,1.56l4.52,1.52c-.08.08.03,1.02.32,1.04.45.02,1.3-.36,1.43-.54-1.11-.85-1.89-1.58-2.61-2.58l-1.73-2.43c-.45-.62-1.29-1.25-2-1.94l1.43-.61c2.67,1.4,7.49-1,8.61.78,3.66-1.17,6.25,3.93,9.07-.12,1.36-1.95,2.53-2.93,4.47-4.4.33-.25.77-1.04,1.16-1.3,3.03-2.05,6.14-4.91,8.82-7.61l1.46-1.47c1.8-1.82,4.18-2.9,6.35-4.21,1-.61,1.82-1.03,2.94-1.36.5-.15,1.21-1.2,1.03-1.66l-.3-.78c-.06-.15.39-.59.57-.67,1.12-.49,2.6-2.2,1.69-3.53-.34-.49-1.69-3.43-1.71-4.4.2-.29.82-.63,1.2-.7.31-.06.88.44,1.19.53,2.99.64,3.8,2.2,6.78,4.01,1.05.64,1.92,1.2,2.82,2.01l2.44,2.17,3.93,2.84c.16.11.8.2.96.27s.1.33.11.75c.85.23,2.08,1.52,1.63,2.42-.47.96-1.24,1.6-1.93,1.72-1.84.33-1.4-.57-4.54-1.82-2.26-.89-5.46-1.42-7.8-.66l-2.25.73c-.82.27-1.65.17-2.52.28l-1.87.25c-1.53.2-2.7.35-4.01,1.08-.58.33-1.51.76-1.68,1.28l1.09,3.2c1.08,3.18,6.04,2.8,3.81,5.22-2.02,2.19-4.36,3.77-6.78,5.49l-2.37,1.69c-4.51,3.21-6.15,4.09-11.69,5.78-.93.28-2.32.53-2.98.99-.14.1-.31.82-.15.83l.65.06-.32,1.21ZM24.43,108.6c-1.58-1.23-3.77-1.96-5.69-1.2-.79,2.55,8.15,3.11,5.69,1.2ZM188.19,125.61c-.04-.5-.57-.94-1.03-1.03-.75-.16-1.26-.14-1.73.38l1.13,1.42c-.04.07-.48.26-.4.35l.36.36c-.25-.24,1.75-.53,1.67-1.48ZM186.79,141.83c1.63,1.07,4.32-.36,4.56-2.05-.54-1.47-2.36-1.01-3.56-.53-.91.36-2.18,1.81-1,2.59ZM202.2,146.69c-.81-3.84-10.09-2.31-12.12,1.38-.5.91-.53,2.18.08,2.9,1.27,1.48,2.69,1.23,4.41,1.09,3.43-.28,6.75-1.65,7.63-5.36ZM40.33,172.22l-.9-1.19c.09-.61-.26-1.65-.83-1.98-.31-.17-1.12.44-1.13.78-.05,1.23,1.26,3,2.48,3.3.19.05.89-.23.79-.37l-.41-.54ZM18.09,187.6c1.72-.84,4.61-3.36,6.08-4.72-.91-.2-1.32.22-2,.34-1.94.35-3.87.54-5.69,1.27-1.36,1.76-3.07,2.87-4.89,4.03l-1.27.81c.36,1.1,6.84-1.28,7.78-1.73ZM97.04,199.79c-1.39-.16-1.8-.21-2.53-.54-1.41-.63-2.12-1.69-1.94-3.44.21-2.02,1.63-3.57,3.2-4.94-1.86.35-3.12,1.72-3.5,3.51-.6,2.81-.93,4.11,1.64,5.55.9.5,2.11.3,3.13-.13ZM97.71,194.88c.15-.35.22-1.25.05-1.58-.43-.83-1.71-.62-2.39-.28-.84.42-1.03,1.44-.85,2.34.06.3.57.84.84.79-.09.02,2.25-1.05,2.35-1.28ZM2.69,198.49c.44-.66.43-.38.36.29l-.61.05c-.14.01.15.8.26.7.42-.4.87-1.42,1.17-1.92.52-.86,1.69-1.21,1.36-2.53-2.7,1.71-3.9,1.11-6.47,2.84l.09,4.86c1.54-2.52.74-2.87,3.32-5.35l.51,1.06ZM98.6,199.19c.68-.15,1.55-1.1,1.85-1.89l-1.91.85c-.12.05-.39.41-.49.49s.4.57.55.54ZM113.68,218.28c-.22,1.03-.64,1.78-.35,2.88,2.08-3.96,2.87-6.37,3.66-10.75.28-1.55.8-3,.43-4.48-.14,1.38-.36,2.57-.95,3.78l-.65,3.66c-.12.65-.65,1.01-1.32,1.02l-.83,3.89ZM106.11,214.8c-1.45,1.41-3.05,1.94-4.95.81.04-.07-.1.18-.27.49,2.09,1.18,4.36.74,6.25-.65,2.35-1.74,3.28-5.11,1.33-7.43.67,1.97.78,4.15-1.04,5.38-.67.45-1.74-.47-2.11-1.36l-1.19.89c.6.43.76.74.92,1.25l1.06.62ZM104.04,211.58c.57-.2,1.18-1.52.68-2.32s-2.02-.55-2.65.02c-.7.63-.96,2-.21,2.68.16.14.78.6.89.42l.41-.67.29-.48c.06-.1.48.38.59.34ZM33.36,219.3c-1.87-.57-3.7-.36-5.53-.19-1.05.1-2.28-.18-3.31.65l4.01-.2,4.82-.26ZM47.66,224.41c.24,1.16,1.05-1.61.51-1.74-.19-.05-.51.05-.71.18l-.57.37c-.07.05-.03.15,0,.17.53.11.84.14.83.33l-.06.69ZM92.52,232.35c-1.79,1.68-3.82,1.78-6.12.69,2.03,2.33,5.5,1.83,7.33-.56,1.43-1.86,1.53-4.31.98-6.58-.42-1.71-1.83-2.45-3.53-2.56-3.47-.22-6.17,2.62-6.12,6.06.01.9-.45,1.95.61,2.5-1.34-3.55,1.65-7.11,5.2-7.86,1.09-.23,2.94.53,3.44,1.66,1.09,2.43.05,4.94-1.79,6.67ZM51.03,224.93c.21.12.85.27,1.08.19.19-.06.38-.46.42-.57-1.3-.34-2.82-2.01-4.09-.13l1.09-.36,1.5.86ZM57.78,226.45c.05-.18.08-.74-.09-.81l-.63-.25c-.13-.05-.51.06-.65.12-.09.04,0,.31.09.33l.76.16c-.26.09-.83-.02-1.25-.16l-1.32-.33.45-.49s-1.55-.98-2.35-.59l.35.9c.25-.7.44-.86.67-.41.38.61.48.87.53,1.36l.99-.31c.49.8,2.43.56,2.46.48ZM89.83,229.41c.18-.8.59-1.64,1.1-2.35-.52-.85-2.1-.99-2.76-.28s-1.08,1.56-.56,2.63c.11.23.55.6.79.59.9-.02.68-1.44,1.08-1l.36.4Z"/>
  <path d="M430.55,89.17v35.01c-.93,0-1.86.09-2.89.23-1.37.19-2.68.22-4.07.32l-2.88.23-2.88.25-2.4.22-3.11.26-3.12.24-2.88.22-3.36.26-2.82.27-9.48.76-5.46.49-4.05.3-7.02.66-4.26.29-2.65.21-3.12.24-3.35.27-5.03.48-2.89.22-2.88.23-3.11.26-2.64.23-2.88.24-3.12.24-2.9.24-2.37.24-2.67.22-3.56.28-2.65.2-4.08.26-2.18.22-4.26.16c-.84.03-1.52.12-2.25-.23l3.65-.29,2.84-.12,2.44-.23,2.88-.23,4.33-.26c.91-.06,1.93-.14,2.82-.26l4.58-.6c-1.3-.48-2.5-.25-3.72-.16l-5.99.47-2.74.21-2.88.23-3.3.29-14.91,1.36-4.81.41c-.87.07-1.63.24-2.53.37-2.72.38-5.91.62-8.6.74-2.15-1.37-9.85-.24-12.88.03l-5.5.5-2.19.24c-1.05.11-2.11.49-3.15.64l-3.58.53-1.98.42-2.97.67-3.35.93c-3.23.9-6.37,1.75-9.49,2.99l-1.53.61-2.92,1.19c-1.22.5-2.32,1.16-3.42,1.8l-2.62,1.5-2.62,1.47c-.26.39-.6.77-1.03.91-1.53.51-2.16,1.99-3.3,2.96-.34.29-1.49.5-2.07,2.05-.09.23.42.67.75.85.41.32.38.14.17-.3.01-.19,0-.42.07-.42l.48.03c.3-.13.73-.3.45-.19l.11,1.36c.54-.41.83-.56,1.04-.77l2.82-2.88c1.21-1.23,2.78-1.99,4.13-3.07l1.42-1.13c1.01-.8,2.16-1.27,3.46-1.81-.46.94-1.16,1.02-1.96,1.83,1.17.15,1.76-.6,2.58-1.03l1.9-1c.81-.43,1.68-.93,2.51-1.29l6.98-3.1-.03-.46c-.04-.6.19.45,1.73-.48.15-.09.4-.26.46-.19l.4.43-1.42.58-5.36,2.54c-2.43,1.15-10.72,5.63-11.07,8.44,3.36,1.99,6.56,5.35,9.2,8.15l3.38,3.59c.45.48,1.14,1.08,1.51,1.56l1.99,2.6,2.91,4.06c2.48,3.45,6.31,9.44,7.76,13.28.43,1.15.59,2.34,1.17,3.44.78,1.51.47,3.36.28,5.04l6.01,7.39,5.64,6.82,2.64,3.15c1.15,1.37,2.2,2.93,3.65,3.95l3.59,2.51c6.1,4.27,17.11,8.2,24.48,10.02,8.4,2.08,16.78,3.66,25.39,4.55l6.51.67,2.88.23,2.63.22,4.23.2,13.84.07h4.35s2.84-.03,2.84-.03l5.13-.02,8.96-.13,7.1-.12,10.73-.28,9.61-.24,11.45-.25,5.73-.12c-.62-2.06,1.33-1.06.09-3.06,0-.01.5-.53.37-.59l-.69-.3c.8-.32.45,0,.93-.57.41-.21.07-.19-.32-.12l-.58.14.09-1.33c-.25-.04-.36-.06-.34-.05-.21.21-.3.31-.34.34l-.74.58-.25-.59c-.05-.12-.4-.18-.49-.08l-.33.36c-.06.06-.15-.03-.44-.18l.34-.32s-.11-.28-.15-.39c-.6.33-1.25.69-1.68.87-.21.09-.96-.32-1.01-.56-.06-.28-.08-.58-.16-1.36-2.2,2.39-2.53.87-3.09,2.01l.38.35c.07.06-.04.39-.13.36l-.6-.2s-.14-.11-.22-.17l-.05.24c-.1.5-.84,1.28-1.31,1.18l-.9-.21c-.6-.14,1.12-.03.88-1.77l-1.54,1.46-.12-.66c-.03-.19-.64-.24-.82-.79l.25-.23c.06-.06.31-.27.25-.23s-.55-.19-.58-.13l-.62,1.2c-.34.66-.55,1.12-.89,1.76,0-.8.13-1.31.35-1.98-.02-.23-.07-.68-.03-.23-.64,1.07-1.77.45-1.76.4l.1-.67c.01-.08.13-.34.15-.43.03-.11-.06-.33-.1-.3l-.68.14c-.21.04-.24.92-.42.8l-.93-.63-1.65.08c-.07,0-.42-.4-.5-.47l-.26.22-.24-.07c-.08-.02-.42-.15-.37-.21.04-.05.17-.23.26-.35l.04-.39c.02-.16-.46-.27-.65-.28-.16-.02.05.58.07.68l-2.39-.11-.59-.02c-.11,0-.05.41.05.46l.57.29s-.08.08-.19.19l-.23.25-.29.32s-.1,0-.32,0l.16-.29c.03-.06.09-.4.04-.45-.25-.24-.89-.86-1.22-.79l-1.52.36c.06-.26.09-.44.12-.46l.36-.21.33-.19c.07-.04.09-.3,0-.28l-.48.11c-.1.02-.33.07-.37.08l-.76.28c-.22.08-.73-.23-.88-.44-.02-.03-.23-.18-.45-.33l.05,1.29c-.21.06-.4.1-.34.09l-.24-.68c-.03-.09-.37-.24-.39-.14l-.15.92-.83-.55c-.15,0-.61.18-.67.04l-.32-.73c-.1-.24-.19-.4-.27-.32l-.48.48-.94.05-.04.71c0,.12-.22-.05-.47-.18-.16-.05-.61-.08-.79-.07l-.43.04c-.07,0-.14-.15-.07-.17l.51-.16.3-.42c-.53-.78-.74-1.07-1.51-1.66l.24,1.3c-.06.01-.28.05-.29.08l-.32.76c-.1.24-.66.54-.9.66l-.03-.43c-.03-.43-.69-.24-.49-.62l.46-.86s-.44.26-.62.37c-.16.09-.61-.06-.78-.03l-1.1.19c-.1.02-.5-.25-.45-.33l.28-.43c.03-.09-.05-.37-.18-.38l-.96-.06-.05-.27-.09-.5c-.01-.08-.06.05-.22.41l-.18.17c-.4-.02-.7-.04-.68-.04.72,1.26,2.17.39,1.89.95-.06.11-.15.31-.25.28l-.62-.17c-.08-.02-.02.46,0,.54s-.17-.1-.22-.15c-1.21-1.25-.67-.68-1.78-1.4l-.89-.58c-.2-.13-.54-.48-.68-.66-.03-.37-.03-.43-.03-.36-.08.25-.19.58-.2.62-.37,1.24-.07-.63-.28-.62l-.79.03c-.14,0,.13.5.09.46l-1.15-.57-.22.71.87.09c.24.02-.35.91-.44.86-.19-.09-.54-.44-.64-.29l-.42.63c-.1.15-.44-.24-.6-.56l-1.08-.35.09-.4c.02-.08,0-.39-.07-.36-.12.05-.4.22-.4.34l-.07,1.31-1.17-.46c-.46-.18-1.18-.37-1.47-.11-.18.16-.4.41-.43.33l-.25-.64c-.08-.2-.58-.59-.6-.53l.18,1-1.35-1.51c.19-.57.23-.91-.06-.49l-1.22.67c-.14.08-.43.09-.57.02-.18-.09-.36-.65-.19-.75s.6-.09.88-.04l.39-.02-.16-.3c-.04-.07-.16-.27-.21-.34l-.33-.41c-.07-.09.22-.18.63-.34v-.34s-.51-.43-.51-.43l1.29-.25-.46-.46c-.07-.07.06-.44.15-.4l.67.23c.35.12.26.85.25,1.22l-.02.52c.01-.27.41.64.81-1.23.07-.31.79-.55,1-.44-.08.24-.16.45-.16.5l.06.46c.11.76.62-1.26.74-.54l.08.44s-.23.37-.21.41l.54,1.31.94-.66.53.07c-.42-.54-.69-.82-1.33-.55-.21.3-.01-.51.06-.72l.09-.42.24-.19-.08.82,1.75-1.3c.05-.19.13-.51.13-.51l1.12-.98c-.07-.04.2.12.27.17.1.06-.03.21-.27.51l.03.57,1.41-.35c.35-.08,1.69-1.27.96-.99l-.49.19c-.31.12-.84.19-1.36.22.97-.74,1.33-.18.73-.73l-.3-.27c.02-.07.1-.65.18-.58l.54.47c.11.09.25.4.35.34l.6-.34.19.49c0,.45,0,.56.05.1.42-.13.73-.16.69-.34l-.12-.43c-.02-.06.17,0,.31.05.24.26.78.86.69.29l1.79-.51-.03,1.11c0,.12.08.45.15.35l.33-.5s.18-.2.24-.27l.73-.75c.48.14.89.12,1.19-.39l1.43-.07c.55.86,1.85.69,2.26.49.13-.06.19-.35.36-.76.18-.25.24-.09.28.42l-.89,1.15c-.39-.34,0,0,.12.11l.76.43c.24.13.74-.1.93-.37.43-.64-1.35-1.4-.61-1.66,2.25-.8-.67.72,1.51-.34.21.21.67.8.89,1.11l-.42.47c-.08.09.1.49.18.54,1.82-1.8,1.95-.73,3.09-1.34l.56-.29c-.18-.02-.46-.05-.53-.05l-2.18.13c.78-.83,1.96-1.01,2.95-.42l.08-.3.06-.24-.14-.33c-.03-.08.34-.05.41,0l.51.29c.14.08-.22.48-.35.68l.99.53,1.33-.26c.1-.02.46.28.38.35l-.43.38.45.17.39.15c.11.04.43-.14.34-.22l-.5-.48.87-.94.41.65c.12.19.63-.06.93-.26.22-.14.77.11,1.16.15.18.02,4.62.5,3.76-.51-.07-.08.33.28.38.32.07-.04.13-.07.14-.07-.37-.32.66-1.05.8-.92l.69.64-.62.28.07.36.48-.34c1.02-.94.11.15,1.66-.75.1-.06.4-.24.36-.14l-.28.69c-.13.08-.14.07-.07.12l.59.4.61-.27h.4c.09.17.09.15.12.22l.12.3c.04.09.14-.05.34-.25l.29-.18s.29-.05.33-.04l.31.07c.07.02.38-.02.33-.08l-.46-.48s.27-.28.34-.37c.07-.07.38.1.4.19l.11.5,1.41.07c.2,0,.66.79.74.45l.11-.49.09-.42,1.46-.24c.28-.05.64-.08.91-.11.2-.02.51-.26.72-.37.17-.09.44.12.88.43-.06.18.05-.16.1-.31.01-.11.02-.28.04-.31l.25-.27c.11-.13.57-.39.62-.22l.2.66c-.93.78-.25.55.08.36.15-.09.52,1.01.39-.04l-.16.91.51-.2c.07-.03.39-.17.4-.21l.05-.41c.01-.1.28-.29.35-.22l.36.38c.45.48.4-.94.75-.62l.46.43c.07.07.52.02.47-.07l-.46-.74c2.31-.98.99.19,2.33-.29.16-.06.32.52.26.67l-.84.8.07.55c.02.13.42.21.51.09,1.13-1.55.05-1.73.96-2.38v4.32c-.82,5.24-1.29,10.59-1.92,16.04l-.84,7.29-.46,3.61-1.2,10.57-.53,4.43-1.04,10.1-1.48,14.86-.28,3.09c-.11,1.25-.16,2.45-.16,3.62h-39.17c-.19-.76.41-1.79,1.04-1.77.18,0,.73.41.74.25l.08-.77,1.25-.54-1.35-.52.93-.57-.62-.61c-.14-.13.35-.59.35-.59l-1.21-.65c-.26-.14-.01-.73.1-1.02l-.9-1.13c.43-.28.96-.59,1.03-.88.08-.33-.47-.89-.86-1.18-.02.01.32-.21.38-.25.4.02.67-.03,1.01-.27.22-.15-.05-.59-.33-.98l-1.33.77.52-1.14c.04-.09-.19-.32-.14-.39l.23-.34c-.5-.32-1.07-.73-1.37-.99l1.39.21-.82-1.94c-.01-.07.56.12.65.31l.44.96.83-1.61-1.26-.55s.18.35.41.8c-.25.13-.58-.03-.77-.49s.08-.63.58-.77l-1.08-.82,1.68.64.7-.63,1.44.86c.34.22.45.4.62.27.15-.12.62-.45.51-.63l-.6-1,1.57.26.85-1.69c-.08-.02-.61-.11-.69.02l-.37.6c-.13.2-.79-.01-.9-.22-.15-.27-.09-.86.17-1,.39-.22.76-.5,1.09-.79l.16.91.28-.7c.04-.09.23-.13.37-.1l2-.16-.56.66c-.14.17.94.91,1.13.66l.58-.8.14,1.31-.7-.06c-.99-.08.3,1.38-.14,2.54l1.12-1.38-.71-.21c-.13-.04-.35-.37-.23-.43l.6-.29c.62-.31.94-.32,1.68.11,0,0-.05-.39-.07-.63-.02-.2-.55-.17-.75-.23l-.76-1.41-1.46.1.06-1.17c.39.33.53.44.25.21.45-.43.48-.48.5-.41.03.11.2.71.29.78.66.51,2.37-.8,2.21-1.71-.02-.11.12-.47.19-.5.11-.05.5-.1.52.02l.06.46c.09.17.37.63.24.75l-.71.61c.05.46,1.12.42,1.62.16.1.05.33.31.27.42l-.42.74c-.13.23.79.05.93-.19.18-.3.13-.7-.24-1.11-.22-.24-.77-.45-1.14-.57-.02-.02-.14-.43-.05-.48l.62-.32.97-.5.12-1.04.3.57c.05.1.04.12.1.08l.55-.44c.03-.11.18.43.25.77.17.87-.4-.14-1.19.78-.06.07-.2-.11-.45-.29l-.28.83c-.07.2.44.52.62.65l1.74,1.33c.03-.11-.24-.64-.47-.99l.34-1.84c.58-.14,1.41.53,1.45,1.21l.5-.22.37-.16c.13-.06-.31-.33-.43-.4l-.67-.43c-.16-.1.33-.38.57-.54l-.8-.97,1.19-.14c.23-.03-.04.7-.17,1.07.94-.03,1.69-.75,1.63-1.92l.83.79c.62.04,1.26.05,1.37.78l-1.94-.4c-.29-.06-.65.73-.69,1.14l1.23-.55-.63,1.24c1.19.27.55-1.14,1.47-1.24.14-.02.44.29.4.42-.06.18-.36.31-.73.51.17.37,1,1.01,1.46.94.12-.02.43-.44.52-.36l.5.43c.03-.06.13-.35.21-.4l.5-.35-.69-.48c-.14-.09-.18-.65-.01-.68l.81-.11c.13-.02.33-.1.53-.2.12-.06.03-.29-.21-.6-.05.05.19-.2.27-.29s.49.1.49.22v.72s.85.46.85.46c.31.17-.37.86-.38,1.76-.01.71.67-.61,1.88-.45l-.36-.36c-.06-.06-.27-.3-.18-.32l.69-.18.75-1.21c.27.43.53.79.79.74.42-.08.7-.26,1.11-.57.01-.12.08.34,0,.45l-.5.55.58-.02c.11,0,.15.12.38.36l.32,1.14.65-2.05.39.76c.08.16.59.13.58.08-.31-.6-.62-.91-.36-1.48-.27-.24-1.36-.28-1.9-.19l-.09-.53c-.13-.74.28.4.53.23.27-.19.27-.7.32-1.45,1.44,1.19,1.54,2.68,1.98,2.96.27.17.92-.31.96-.62l.13-.98c.83.09,1.57.19,1.98,0,.57-.27.92-.92,1.28-1.58l.57.86c.45-.94,1.06-1.8,2.06-2.29-.13,1.05-.57,1.8.38,2.33l.23-2.65c.07-.79.07-1.82.03-2.55l.35-.75c.1-.21-.25-.76-.33-.77l-.87.88-.17-.71c-.04-.15-.42-.1-.63-.09l-1.98.02-4.37-.15c-.19,0-.64.4-.78.35l-.69-.25-1.84-.07-3.66-.06-1.54-.03-.39.23c-.13.07-.56-.24-.71-.23l-3.38.13-2.36.12c-1.3.06-2.51.12-3.88.12h-3.29s-2.9.08-2.9.08l-2.28.12c-.67.04-1.46.04-2.15.04h-3.47s-2.5-.09-2.5-.09l-6.6-.2-6.67-.04-1.93-.1-8.04-.17-3.6-.25c-4.36-.3-3.43.28-8.06-.27-2.16-.26-4.31-.22-6.44-.08l-.27.36c-.04.06-.23-.35-1.37-.65-1.43-.37-2.76-.38-4.24-.56l-4.57-.57-8.48-1.24-13.24-2.31c-1.25-.22-2.43-1.13-3.7-1.27-.8-.08-1.48-.22-2.21-.38l-2.23-.48c-.87-.19-1.69-.55-2.55-.82l-3.33-1.05c-2.33-.73-4.53-1.61-6.82-2.49-2.91-1.11-5.59-2.36-8.3-3.93-3.08-1.78-7.1-3.98-9.64-6.4-1.07-1.02-2.05-2.12-3.35-2.69-.22-.6-.59-1.32-1.08-1.77-1.31-1.2-2.35-2.43-3.49-3.72l-1.36-1.54-3.27-3.69-.92-1.19-1.6-1.8c-.6-.68-1.09-1.43-1.71-2.14l-3.58-4.09c-.84-.96-1.53-1.97-2.28-3.05l-2.21.3c-.84.11-1.48-.16-2.28-.17l-2.53-.03c-.83-.01-1.79-.06-2.42.32-1.73,1.03-2.57.49-2.96.49l-2.25-.04c-.57-.01-.27,0-.66,1.06-.06.18-.57-.03-.76-.12l-1.19-.57-2.28-1.37c-.41.22-.55.32-.22.3l1.95,1.34c-.35.88-1.41,1.38-1.95,1.21-.11-.03-.3-.67-.38-.59l-.4.39c-.08.07-.51.05-.47-.05l.21-.44.26-.54c.07-.15-.64-.41-.47-.27-.58,1.32-1.12,2.56-2.71,2.55-.68,0-1.23-.02-2.05-.16,1.21-1.26,4.34-.51,3.79-1.73-.25-.54-.63-.8-1.2-.63-.66.19-1.06.5-1.56.9l-.93.75c-1.25,1-.7-.36-3.16.58-.13.05-.61.06-.56-.03l.24-.42.26-.35c.06-.08,0-.34-.1-.32-2.53.46-1.98,0-4.92.72-.69.17-1.68.02-2.33.22l-3.46,1.08c-.79.73-1.31.95-2.3,1-2.43.1-2.23.3-5.15.36-3.53.07-2.32.29-5.15-2.53-1.28.22-2.4.53-3.51.88-.15.02-.42-.03-.48.06l-.36.52-1.82.09c-.47.02-.91.23-1.35.49-2.95.85-5.23,2.49-8.4,3.79l-5.82,2.4c-1.28.53-2.52,1.36-3.73,1.74-.81.26-1.42.65-2.09,1.27-1.17,1.09-2.91.81-4.29,1.25-5.68,1.83-11.32,2.81-17.22,3.36-2.38.22-4.68.46-7.12.91.53-1.32,2.64-6.88,2.31-8.84l-.99,1.52c-.28.43-.43.69-.49,1.16-.25,1.89-1.49,3.42-2.19,5.19-.34.85-.62,1.97-1.23,2.86-.29.42-.6,1.25-.79,1.8l-.77,2.2-.32-.41c-.04-.05-.23.18-.27.26l-1.23,2.58c-.97,2.03-2.46,4.05-4,5.84l-1.68,1.95-1.46,1.87-.97,1.17c-.71.86-1.44,1.56-2.26,2.33-3.21,3.04-6.43,5.94-10.27,8.19l-5.58,3.27c-1.55.91-3.16,1.63-4.8,2.4l-1.64.58,1.56-.02c1.73.9,2.51,2.88,2.86,4.52.06.14.31.49.39.61s-.22.41-.31.52c-.45-.55-.81-.82-1.53-1.35l-4.82-3.57c-.11-.08-.91.22-.84.34.61.94,1.8,1.48,2.87,2.47l1.15,1.07.35.29c.07.06-.14.23-.23.33l-.32.34.27.28c.82-.15,1.09.05,1.65.66l-1.48.48-.06-.6c-.01-.13-.51-.13-.53-.02-.02.13-.07.59-.13.54l-.41-.41-.27-.27c-.06-.06-.34-.18-.4-.11l-.37.48-1.16-.37-.28,1.16.79.14c.14.03-.21.4-.28.48.44.65.62,1.44.39,2.17l1.2,1.31-.42.35c-.86.7,1.13.74.12,2.23l-.29.5.48-.18c.12-.04.42.28.3.31l-.55.17-.53.11c.7.78.24,1.33-.27,1.89l-.11,1.45h-.32c-.71-.64-1.13-1.39-2.23-1.25.77.7,1.61,1.55,2.54,1.89,1.44.52.2.96,1.86,2.99.17.2-.33.76-.42,1.03-.22.64-.41,1.39-.71,1.92h-42.46c.27-.68-.03-1.5-.26-2.4l.91.54c.16-3.77.5-1.17.96-4.51l.06-.47c0-.07-.12-.04-.24-.02l-.47.09c.48-.61,1-1.14.44-1.93l-1.56.81c-.06.82-.4,1.36-.91,1.7.29.54.2,1.25.06,1.9l-.56,2.68-.12,1.6h-2.4l.28-1.81c-1.96-.19-6.23-1.89-8-2.7-3.98-1.82-7.73-3.81-11.56-5.91l-7.57-4.16-10.09-5.51-8.99-.15c-2.47-.04-4.8-.13-7.31-.14v-4.44s.13.03.29.08c.21.12.81.39,1.13.36,2.13-.21,4.77-.34,7.33-.37.04.12-.07-.13-.18-.38l-.18-1.18c-3.87-.93-2.37-.51-5.1-.59l-2.66-.08c-.11,0-.47.27-.55.35-.05.05-.09-.36-.09-.44v-1.23s.02-.56.02-.56l1.35-.28c1.37-.28,1.13.72,2.7-.49.15-.12.54.41.82.37l1.66-.28c.18.06.5.26.67.19.14-.06.38-.5.38-.63l-.05-1.58c0-.31.02-.61.08-.8.11-.37,1.07-.12,1.12-.57l.04-.37,2.69-.12,2.98-.16c.35-.02.94-.23,1.04-.64.06-.24-.1-.49-.25-.91-.03-.26.17-.82.12-1.08l-.21-1.06-.6-1.99.04-.45c.29-.22.51-.34.46-.44l-.26-.56c-.14-.29-.29-.81-.43-1.31-1.14-.75-2.46-1.47-3.8-2.1s-2.52-1.8-3.95-2.24c-2.16-.66-5.95.52-6.32-.41-.47-1.16-.3-2.98-.16-2.9l.41.23c.2.11.59.35.79.41,1.45.41,2.39,1.8,4.17,1.95l-5.5-3.4v-21.27s4.18,2.56,4.18,2.56l1.83,1.04c.51.29,1.02.57,1.53.9l2.61,1.68c.09.06.45.24.56.29s.01-.36-.07-.43l-.41-.33c-.48-.38-.92-.76-1.41-1.06l-4.13-2.56-4.62-2.73-.09-2.64c0-.18.09-.63.11-.76.06-.26,5.02,2.77,5.65,3.61.39.34,1.43.42,1.75,1.03.26.1.87.18.81.4l-.15.5.88-.23.58,1.11.39-.12c.06-.02.36,0,.32.04l-.3.3s-.29.34-.3.38c-.15.67,1.05,1.59,1.88,1.33-.05,1.02.95.3,2.34,1.71.41.42,1.13,1.01,1.6,1.18,2.53.89,1.55,1.03,3.39,1.1l-.29.47c-.03.06.16.13.23.12l.48-.13c.55-.14.82,1.01,1.18,1.36l2.36.72c-.18,1.28,2,1.59,3.25,3.15l1.08.51c.03.76.98.81,1.33,1.12.81.73,1.86,1.32,3.01,1.87l2.34,1.11c.98.46.45-.26,2.9-1.76.65-.4.33-1.94.24-2.69-.49-4.25-1.08-4.64-4.18-7.17,2.11.37,3.54,1.95,4.33,3.88s.72,4.08.75,6.23c.01,1.09,1.31,1.43,2.18,1.14s.93-1.17.99-2.11l.71-2.54.61.05c.15.01.3.05.28-.03l-.14-.47-.24-.77s.19-.26.24-.32c-.28-.62-.24-1.35.06-2.01l.78.46c.17.1-.33.57-.29.76.15.69.73,2.76.57,2.77l-.63.05-.11,1.45.19,1.03c.02.11-.5-.12-.6-.18-.07-.04-.06.42,0,.45l1.4.76c.39-.32.07-1.08-.25-1.43-.02-.04.47-.3.51-.23.18.31.48,1.08.54,1.31l1.21-.98-.13-.78c-.03-.17-.56.05-.83.14-.55-.12-.56-.34.15-.41.08-.11.27-.52.12-.51l-.59.05s-.24.08-.49.17v-1.4s1.55,1.11,1.55,1.11l-.03.69s.36,0,.52,0l1.48,1.63c.01.08-.44.56-.57.44l-.55-.55-.33-.33-.1.36-.32.35c-.07.07.11.3.22.33l1.2.42.15.78c.02.09.32.09.41.11.07-.12.22-.42.36-.43l.73-.06-1.19-.98.35-.23,1.51.38.25.26c.1-.1.35-.35.24-.44l-.66-.52c.21-.54,1.66-.72,1.88-.27.15.31.2,1.01.43.97l1.08-.16c.13.02.52.2.51.08,0-.1-.05-.5-.07-.52-.02-.02-.3-.18-.37-.23l-1.6-1.25c.82-.51-.5-1.47,0-1.44l.5.03.3.19.42.04c.06,0,.01.1-.04.34l.08.33c.41.18.67.42.81.7.1.21.61.2.82.03.5-.4-1.51-1.61-.58-2.18.84-.52,2.04.36,2.45,1.06l-1.03.2.3.78.79-.02-1.58,1.8s-.23-.27-.28-.32l.8-.99c-.05-.1-.76-.02-.96.1l-.56.35c-.26.16.38.28.62,1.25.03.13-.14.61,0,.58l.55-.12c.15-.03.64-.28.58-.42l-.27-.57c-.04-.08.49.07.58.07.08,0,.2-.06.17-.14l-.13-.45.84.05c.14,0,.05-.55.08-.69l.2-.86c.03-.13-.07-.5-.09-.63s.22-.33.36-.38.38.29.33.41l-.22.54.88.13.29-.38c-.52-.54-.88-.94-1.07-1.39l-.2-.45s-.08.07-.19.18c-.14.07-.36.2-.36.09l.02-.45s.14-.27.17-.32l.3-.59c.3-.6.09.85.39.57.64-.68.53-.36.37.1l-.24.41c.3.31.64.58,1.26,1.02l-.06.9c-.03.4-.1.87-.17,1.28l.13.67c.04.18-.33.56-.57.81-.58-.04-.48,0-.05.1l.97.33.11-.49.09-.39.1-.41s.16-.24.2-.24l.46.09.58.12c.1.02,0-.24-.06-.32l-.18-.24.38-.2c.72-.39.35-.24.66-.2l.28.03s.36-.18.38-.16l1.13,1.04-.06-.57-.04-.37s.06-.13.09-.17c.33-.25.54-.38.4-.44l-.52-.25c-.1-.05-.35.3-.45.46-.15.23-1.04-.21-1.01-.49l.33-3.44c.25-.18.58-.38.46-.53l-.6-.74.57-.16.39,1.01.18.45c.18-.03.6-.1.46-.07l-.14-.56,1.91.12-.2-1.02c-.1-.48,3.91.85,3.24.53l2.36,1.13c.38.03.99.1,1.24.29.19.14.17.56.23.93l.48.52c.11.12-.19.55-.35.55l-.62-.02c-.13,0-.5-.1-.56-.21l-.22-.46c-.13-.27-.83.82-1,.38l-.3-.8c-.47.07-1.22.14-1.24-.38,0-.28.09-.64.19-1.13-.3-.15-.79.49-1.16,1.1l1.26,1.2-.46.47c-.08.08.32.3.42.34.04.02.14-.17.26-.36l.26-.02v.75s-3.09.95-3.09.95c.18-.49.27-.72.31-.94.03-.16-.31-.9-.34-.3-.36.14-.81-.15-.87.05l-.26.91s-.24.09-.27.09l-.57-.11c-.1-.02,0,.24.07.46l1.14.02.02.34-.47.24c-.08.04.04.38.14.37s.4-.07.46-.14l.27-.35c.05-.07.33.09.31.1l-.78,1.22,2.03.23c.12.01.34-.08.33-.18l-.05-.6.39.1c.18.25.35.48.38.38s.17-.45.15-.56l-.24-1.37c.59-.27,1.34-.32,1.83-.08l.65.31c.08.04.08-.25.06-.34l-.15-.63c.2,0,1.02.23,1.28.46.23.2.53,2.4-.07,2.97-.04-.01.42.16.54.21.09.03.04.04-.22.34l.26.35c.05.07-.17.19-.37.33-.24.16-.25.8-.14,1.14l.1.3h-.39c-.07,0-.02.05.19.27.3.83.56,3.46.26,4.15-.11.25-.39.68-.26.79l.64.53c.23.19.7.72.97.75s.73-.15.94-.24c.26.44.75.88,1.12.9.32.02.8-.44.89-.74l.21-.7c.05-.16.59.12.76.23.23.14.97,0,1.05-.27l.3-1.08c.05-.19.26-.63.23-.8l-.14-.66c-.01-.07.1-.02.2,0l.53.16,2.23-1.83c.49,0,.98-.15,1.19-.38l.7-.75s.06-.56.03-.3l-1.6.5c-.11-.13-.32-.38-.32-.37,0,.67-1.35,2.23-1.63,1.89l-.41-.51c-.18-.22-.98-.28-1.13-.04s-.3.67-.46,1.06c-.69-.29-1.18-.96-1.11-1.52l-1.01-.43-.44.63.72.11c.12.02-.01.51-.12.5l-.68-.06c-.09,0,.22.38.23.47l.06.76v.86s-.84-.41-.84-.41l-.27-.13-.27.42c-.24.37-.74.78-.9.68l.89-1.96.28-.19c.14-.09.4-.35.56-.51.08-.09-.26-.19-.38-.23l-.42-.14c-.49-.16.41-.2.71-.56l.28-.34c.05-.06-.52-.22-.57-.15-.14.17-.44.56-.58.76l-.38.53c-.08.11-.48-.25-.41-.37l.26-.41c.59-.95,1.41-1.56,1.43-1.55l-.5-.12-.3-.27.56-.33c.05-.03-.02-.24-.08-.25l-.42-.03.7-1.81c.05-.12.34-.43.43-.53.07-.07-.32-.33-.29-.42.23-.54.67-1.68.77-2.26.02-.13-.41-.55-.3-.6.07-.03.35-.18.3-.15l.46.19.42.18s-.22.23-.49.52c-.09-.12.18.22.26.33.6-.8.88-.32,1.04-.23l1.37.77c.81.46,1.62,1.03,2.41,1.4.52.25,1.02.46,1.46.73l2.08,1.29,1.91,1.26,2.6,1.79c.07.05.56.1.64.12s-.02-.19-.07-.26l-2.58-2.23,4.5-1.09c.66-.16,1.65-.51,2.15-.88,3.59-2.61,7.47-4.29,11.44-6.07.8-.36,1.66-1.15,2.5-1.32.75-.15,1.42-.58,1.73-1.11.1-.12.69-.09.69-.26v-.6s1-.78,1-.78c-.27-.47,0-.09.3.33-3.76,6.02-12.77,12.88-19.84,14.25l-6.28,1.21c-4.11.79-2.22,3.14-4.19,3.02-.19-.01-.29.4-.26.65-1.19,2.35-1.72,1.6-2.51,4.27-.39,1.32-.87,2.53-.18,4.11l5.2-.8c1.4-.22,2.94-.74,4.34-.82,2-.11,4.64-.28,6.44-1.23l1.52-.8c4.9-2.58,2.94-.73,8.59-4.82.74-.53,1.46-1.11,2.16-1.68l2.78-2.28c.54-.45,1.22-1.09,1.72-1.6l3.67-3.79c2.18-2.26,3.25-4.09,4.84-6.2l1.12-1.5c.25-.33.33-.52.49-.74.65.34.53.23.23-.02l.96-1.7,1.32-2.71c.61-1.25,1.19-2.36,1.72-3.61l.99-2.3c.14-.34.35-.55.92-.98,0,.1-.02-.26-.03-.35l-.25-.26c2.37-2.64.17-3.54,1.97-3.18l.26-1.87c.17-1.2,1.23-2.14,1.48-3.11l.81-3.12c.18-.7.34-1.17.83-1.81.44-.58.4-1.52.61-2.27l.78-2.74c.09-.33-.07-1.21.22-1.41.16-.1.62-.13.6-.3-.02-.2-.08-.57-.03-.7.06-.14.54-.32.47-.45l-.3-.53.5-1.79c.12-.42.18-.91.35-1.25l.72-1.48s-.1,0-.41-.02l-.12-.48.33.07.24-.27-.48-.3c.81-2.16.26-2.22.73-3.84l.75-2.61c.53-1.83.1-2.26.88-4.82l.79-2.59c.13-.43.1-1.3.18-1.79.2-1.3.37-2.68.12-4.03.36-.22.83-.76.88-1.18l.22-1.52c.05-.51.19-.94.5-1.36l-.15-.27c-.05-.08.08-.31.15-.46l.3-.64c.05-.1-.26-.31-.39-.45l.67-.77c-.89-.62.22-.17.31-1.17l.15-1.74.81-1.99c.05-.13.42-.49.47-.56-.6-.43-.54-.46.05-.22.63-.98,1.32-1.93,1.75-2.97.9-2.22,1.47-.12,1.18-2.26.95-.95,2.15-2.24,2.57-3.57.11-.38.12-.55.24-.51l.53.19c.19-1.51,1.07-3.82,2.87-4.61.23-.1.39-.88.61-.85l.99.12c.12.02.48-.1.57-.15s.02-.23-.03-.6l1.07-.46c.14-.06.43-.33.43-.48v-.41c.4-.27.63-.53,1.05-1.15l.63.42c1.12-1.81,3.18-1.69,3.44-3.15,1.2.14,3.06-1.06,3.83-1.97.55.15,1.29.35,1.63.04.41-.37.78-1.25.93-1.81-.06-.59-.02-.55.14-.11l.87,2.64c.69,2.08,3,2.1,1.79,1.43l-.48-.27c-.34-.19-.34-1.1.02-1.49l8.5-9.22,5.25-5.54c1.09-1.15,1.95-2.29,3.45-2.72l.27.55c.04.07.14-.03.18-.11l-.27-1.74c-.08-.54-.46-1.21-.68-1.88l.57.42s.34-.12.43-.14l-1.96-2.15-6.41-7.81-10.55,11.63c-1.04,1.14-2.02,2.15-3.17,3.05.65-.95,1.24-1.67,1.9-2.39l2.29-2.51,4.28-4.61,4.51-5.11c.27-.24.29.23.52-.09.01-.02-.2-.37-.27-.45l-5.55-6.79-4.49-5.63-7.55-9-8.37-10.09-3.65-4.25-6.31-7.36-3.93-4.52-3.08-3.6-1.72-2.13-4.09-5.02-2.94-3.5-6.07-7.14-7.8-9.22-6.6-7.79-4.53-5.31-3.77-4.35-4.5-5.36,7.28-.06,3.8,4.56,2.94,3.51,3.12,3.82,3.2,3.79,3.59,4.33,2.7,3.26,2.53,3.03,16.89,20.24,2.52,3.03,11.97,14.37,9.33,11.32,11.25,13.45,4.71,5.57,2.96,3.54,5.99,7.19,6.49,7.66,6.97,8.36,3.4,4.06,6.17,7.48-.71,1.06c-.25-.53-.35-.89-.41-1.4l-.6-.82c-.52-.71-1.22-1.23-2.11-1.56l.49-.58h-1.73s1.73,2.13,1.73,2.13c.76.93,1.58,1.81,2.63,2.39l-1.15,1.85c-.75-.63-1.38-1.42-1.95-2.38-.27-.46-.84-.8-1.22-1.17-2.94-2.89-5.05-6.38-8.19-9.15,2.38,3.48,5.55,6.59,8,9.82.93,1.23,1.83,2.24,3.12,3.26l-1.95,3.72c-.52-.54-.64-1.04-1-1.42l-2.87-3.06-2.46-2.86-3.08-3.45c-.33-.37-1.14-.9-1.51-1.22,0-.62-.41-.8-.79-1.24l-4.56-5.25-1.01-1.19c-.33-.4-.72-.65-1.18-.89l-.2-.47c-.04-.09-.4.04-.37.13l.15.47c.03.09-.04.39-.08.48s-.31.09-.34,0l-.24-.62c.11-.27-.13-.02-.42.3l-1.52,1.8c-.05.06-.16.42-.17.41,0,0-.3.02-.38.03-.22.02.12.33-.07.66l-.5.84c-.09.15.18.64.27.58l.58-.5c.06-.05.12.26.13.34l.09.51-3.51-.17c-.81-.04-3.74,1.34-4.11,1.97l4.35-1.19c1.06-.29,5.64-.12,6.29,2.74.14.61.4,1.52.05,2.02l-1.13,1.61c-.34.48-1.28,1.06-1.85,1.45-2.18,1.47-4.79,1.93-7.45,1.86-.81-.02-1.72-.45-2.59-.56l.43.74c.05.09-.13.28-.23.39l-.4.46c-.1.11,1.06,1.22.49.96l-.37-.16c-.17-.08-.32-.24-.36-.15l-.23.45-.44-.06c-.07,0-.06.33-.02.38l.25.26.4.42c.05.05-.25.06-.32.04l-.5-.13c0,.42.06.91-.19,1-.31.12-.78-.04-.96-.21l-1.64-1.58.51,1.26c-1.88-.62-3.17.68-4.56,1.59l-2.05,1.34c-.2.13-.69.25-.71.44l-.05.68c-1.12.29-2.39,1.04-3.33,1.67s-1.75,1.07-1.89,2.24l-.79.66c-1.64,3.01-1.53.3-3.41,3.34-1.45,2.34-1.89,2.52-3.03,4.86l-1.95,4.03c-1.95,4.04-1.28,6.56-2.02,9.06l-.35,1.18-.76,3.4c-.11.49.13,1.54.1,2.02-.73,1.75-.73,3.45-.76,5.37-.02.92-.66,2.71-.87,3.58-.03.12.12.38.16.49.03.09-.16.38-.17.48l-.14,1.6c-.1.11-.43.41-.32.45l.54.23c.47.2.42,1.09.3,1.68l-1,4.84c-.29,1.38-.52,2.53-.49,3.98.01.74-.3,1.7-.34,2.33l-.16,2.44c-.02.27-.09.84.11.88l.87.17-.42,1.93-1.29,6.91.48.52c.72-1.32,1.77-1.86,3.06-2.31l4.84-1.68c.41.3,4.61.22,4.52.24,3.27-.63,7.22-1.66,10.25-2.96l6.53-2.8,2.5-1.11,3.38-1.43,2.61-1.22,4.43-2.07,1.6,1.61.85-.88c-.64-.31-.42-.3.04-.46l.62.37.32-1.08c.06-.2.66.03.85-.06l1.37-.6c.41-.32.91-.62,1.48-.88l2.21-1,3.57-1.81c1.09-.56,2.5-.88,3.43-1.54l3.48-2.45-.29-.61c-.04-.08.22-.04.55,0,.03.54.04.53,0-.23l1.2-.56c1.69-.8,1.86-1.34,3.94-2.5l1.71-.95c1.04-.58,2.52-1.29,3.34-2.05,2.47-2.28,2.53.32,7.33-2.88-5.49-.8-11.23-1.64-13.66-7.32-.61-.3-1.52-.08-2.03.33l-7.5,5.97c-5.27,4.19-10.09,8.64-14.73,13.54-.45.48-1.36,0-1.49-.48-.16-.61.18-.88.62-1.37l1.23-1.36,1.64-1.5,5.38-4.92,7.69-6.7,5.14-4.31c.88-.74,2.02-1.21,3-1.7.53.7.46.3.33-.17l-.19-5.37c-.03-.86-.03-1.62.16-2.48-.05-.2-.27-.52-.19-.69l.37-.75-.42-.07c-.1-.02-.07-.39-.05-.5l.4-2.84c.09-.61.67-1.52.83-2.17.31-1.28.87-2.23,1.42-3.39l.71-1.48c.97-2.01,1.56-1.24,1.58-2.59.73-.34,1.45-1.03,1.63-1.78.06-.11,2.8-1.89,2.22-1.47l1.49-1.08c.1-.07.44.18.42.29l-.15.82c1.7-1.06,3.39-2.2,5.17-3.13l2.09-1.09c1.32-.69,2.74-1.24,4.16-1.82l5.72-2.38c.67-.28,1.6.02,2.15-.55.74-.76,2.11-.54,3.04-.81l5.56-1.67c3.85-1.15,3.59-2.28,6.82-2.47l-.25-.65c-.16-.4,1.27-.44,2.1-1.38l.44.38c.09.07.27-.61.38-.63l3.05-.5c1.86-.3,3.5-1.18,4.18-.84.63.31,1.15-.32,1.53-.39l4.24-.76c.65-.12,1.29.06,1.82.45l.93-1.41-.12-.39c-.03-.08.31-.17.34-.09l.25.65c.28.08,1.2-.32,1.67-.59.14.22.48.79.67.68l.74-.43,2.84-1.09c.23.52.32.93.55.96l1.07.14-.48.28c-.06.04,0,.35.08.31l.57-.26c-.19-1.35-.42-2.94-.53-4.42l-.5-6.47-1.67.15c-.59-.29-1.27-.06-1.89.44-.43.19-1.41.13-1.92.11l-.26.56c-.46-.22-.96-.35-1.29-.17-.73.41-1.36.22-2.03.21-4.83-.08-4.92.67-7.49.83l-3.74.23c-.78.05-1.79.18-2.59.32-2.92-2.27-6.07.32-8.81-.68-.31-.11-.74.46-1,.86l-1.19.13.17-.57c.02-.08-.27-.15-.34-.11-1.05.6-1.34,1.24-3.32,1.06-2.67-.25-2.17,1.23-2.88.91l-.98-.44c-1.65,1.28-.61-.19-4.65,1.37s-2.22.33-4.32.94l-2.8.81-.49-.33c-.1-.07-.33.21-.54.38-.19.15-.82.05-.9-.21,6-4.27,16.04-8.73,22.88-10.74l3.91-1.15c7.07-2.08,14.19-3.23,21.53-4.12l8.63-1.04,5.7-.78,30.3-3.2,26.58-2.66,2.46-.24,8.6-.93,7.49-.73,34.46-3.6,9.15-.95,6.95-.72,6.73-.7,11.27-1.22ZM127.5,39.73c-.32-1.18-.9-2.07-1.66-2.78l-.99-.92c-.1-.27-.39.19-.29.35l2.94,3.36ZM135.58,49.31c1.38,1.89,2.85,3.65,4.43,5.32.61-.44-3.87-5.06-4.43-5.32ZM146.37,61.28l-4.28-5.04c-.69.14-.78.48-.22.64l2.17,2.66,1.62,2,.3.37c.07.09.5-.53.41-.63ZM152.26,69.15c-1.04-1.67-2.08-2.86-3.34-4.07.87,1.72,2.07,3.06,3.34,4.07ZM157.69,74.54l-3.04-3.55c-.59-.68-.95-1.61-2.1-1.35l2.56,3.06c.79.94,1.7,1.83,2.56,2.57.18-.19.37-.37.36-.36,0,0-.25-.25-.35-.37ZM162.65,81.41l-3.18-4.03c-.11-.14-.5-.36-.6-.43-.07-.04-.17.33-.12.39l.26.31,1.55,1.83c.61.72,1.34,1.5,2.08,1.92ZM167.87,87.22l-3.77-4.72c-.12-.15-.69-.25-.67-.1.01.11.11.39.21.51l3.13,3.8c.27.32.74.56,1.1.5ZM172.37,93.45c.12-1.07-.58-1.38-1.05-1.94l-2.89-3.39c.04.83.58,1.31,1.04,1.87l2.9,3.46ZM176.37,97.86c-.65-1.71-1.83-2.96-3.47-3.68,1.46,1.9,2.82,3.61,4.41,5.29.15-.81-.69-.97-.94-1.61ZM182.83,105.68c.68,1.18,1.6,2.15,2.51,3.12.08-1-1.59-2.59-2.51-3.12ZM204.12,129.58c.13.15.49.45.58.36l.39-.4c.09-.09-.23-.37-.33-.49l-1.74-1.96-.68.47,1.78,2.01ZM173.27,134.3c-.07-1.55,1.21-3.52,1.86-4.03l1.94-1.51c-1.37.25-2.39,1.11-3.1,2.19l-1.79,2.75,1.09.6ZM172.51,139.68l-2.06-2.88c-.18-.25-1.09-.17-1.15.07.02.89.9,1.66,1.65,2.01.58.27.77.9,1.57.81ZM231.06,150.88l1.47-1.13c.11-.09.35-.36.42-.45.04-.06-.12-.22-.18-.25s-.37,0-.44.05l-2.7,1.86c.53.56.99.25,1.43-.09ZM146.87,160.15c.23-.48.78-1.46.88-1.99.18-.93.57-1.6,1.29-2.15-.4-1.43,1.25-2.07,1.23-3.49,0-.41-1.06-.33-1.2-.02-.23.51-.42.91-.6,1.27l-.75,1.5.53-.02c.1,0,.18.36.11.3-.36.1-.71.2-.73.34l-.09.46c-1.55,1.01-1.81,6.21-.67,3.8ZM234.13,158.47c.32.19,1.22-.15,1.33-.48.44-1.37-1.11-2.96-2.32-3.82l-1.36-.98c-1.32,1.72-1.31,4,.34,5.42l-.16-1.83c.68.61,1.4,1.23,2.17,1.69ZM221.92,165.57l.96-1.74-.52-.63c-.08-.09.46-.35.51-.47l.9-2.37.81-2.16c-1.17.02-.55,1.04-.9,1.32-.94.72-1.46,1.94-1.42,2.88.01.25-.47.8-.36.98l.38.58c-.34.46-1.02.96-.35,1.63ZM212.65,176.04c-2.21-2.35-2.68-2.15-3.12-4.88-1.73,1.62,2.19,5.81,3.36,6.59s3.33,1.23,3.37.87l.08-.59c.08-.56-1.69.15-3.69-1.99ZM140.55,184.25l1.21.03.77-2.72c.07-.24.38-.74.27-.93s-.53-.41-.74-.43l.03,1.12c-.64.35-1.06.9-1,1.64l-.55,1.29ZM139.84,191.62c.42-.91.58-1.7.71-2.57l.22-1.46c.04-.28.18-.97.19-1.12-1.39-.27-1.82,3.44-1.89,3.99-.06.46-.38,1.29-.27,1.74.05.2,1.06.24,1.06.03v-.61ZM240.57,194.04c-.29-.42-1.39-.45-1.61,0l.53,1.52,1.08-1.52ZM132.67,212.58l1.04-3.03c.15-.45.6-.96.7-1.59.39-2.41,1.24-2.38.65-2.87-.06-.05-.19-.06-.24,0l-.26.37c-.4.57-.73,1.11-.9,1.78l-.84,3.42c.02-.07-1.82,3.55-1.28,4.47.64-.87.81-1.63,1.12-2.55ZM129.41,228l1.94-3.49c.34-.61.57-1.38.4-1.95l-1.4,2.25-1.23,1.84c-.11.17-.28.6-.31.77s.32.36.6.58ZM416.06,227.02c0,.09.07.34.1.41s.19.05.21-.03l.13-.45c.13-.46.11-.76-.13-1.49l-1.4.65.63.91.19-.68c.02-.07.26.15.26.22v.44ZM416.91,227.28l3.76-.79c-.94-.68-1.7-.07-2.55-.07h-1.03c-.19,0-.21.67-.18.86ZM118.75,232.59l.89-1.55c.5-.87,1.51-1.48,1.05-2.73l-.65,1.25-1.79,2.63.49.4ZM282.11,231.7c-1.12-.78-1.99-1.46-3.35-2.08.32.78,2.58,2.64,3.67,3.13.05.03.53-.45.39-.55l-.71-.49ZM64.36,231.52c.02-.36-.72-.7-1.18-.76-.3-.04-.6.36-.79.69.06.26.15.55.07.5s-.45-.16-.51-.24l-.98-1.29c-.16.6.18,1.02.72,1.59l-.83,1.41,1.97-.15c.29-.02,1.45-.53,1.53-1.74ZM316.16,241.77c-.19.14-.57.52-.61.39l-.22-.63s-.16.13-.31.26l-1.51-.64,1.46-.3c-.54-.68-1.71-.96-2.54-.54-.09.18-.33.66-.27.54.05-.09-.37-.25-.46-.24l-.62.03c-.08,0,.11-.31.18-.35l.33-.2-2-.63-2.52-.73c-.81-.23-1.73-.1-2.37.19-2.43-2.16-1.42-1.41-4.11-1.81l-1.46-.22c-.22,1.21.67,1.48,1.6,1.72,1.01.26,1.88.6,2.8.9l1.22.39c.51.16.97.56,1.29.96.18-.02.53-.12.51,0l-.07.45c-.11.79-.84-.58-1.91-.25-.24.08-.93.2-1.03.03l-.36-.6-1.43-.12c-.48.24-.87.28-1.39.08-.17-.06-.51,0-.49-.12l.13-.55c-1.15.2-1.92-.43-2.96-.79l-2.23-.76c-.12-.04-.63.19-.66.05l-.17-.76c-.64.03-1.4-.21-2.1-.57l-2.6-1.34-1.75-.07,1.13.83c.28.21.97.4,1.29.55l1.64.79c3.06,1.47,1.94.88,4.97,1.82,1.2.37,2.34.7,3.5,1.16.79.31,1.66.63,2.46.84l7.38,1.97c.73.2,1.7-.05,2.33-.31.23.31.56.85.85.83l1.05-.05c-.95-1.59-3.18-1.01-2.43-1.54.1-.07.4-.23.5-.19l.67.28c.13.05.39-.22.48-.24.25.15.53.4.67.31l.52-.3c.69.22,1.67.37,2.36.32l.38-1.13c.17.24.35.56.25.71l-.54.87,1.48-.05c.28.76,2.37.68,2.82.62l1.3-.2.63-.91-1.05-.73-2.3-.16c-.18-.01-.74-.2-.82-.21l.08.75c.02.18-.86.37-.93.21-.14-.34-.27-1.05-.31-1.37l-2.47-.26c0,.12-.02.43.09.44l.75.04c.53-.05.35.31-.13.53ZM68.3,238.96c.21-.22.14-.93-.04-1.28l.21-.58c.04-.12-.62-.53-.71-.44-.3.34.05,1.25.29,1.68l-.4.52c-.05.07.59.15.65.09ZM51.8,239.41c-.22-.44-.53-.71-.44-.91l.44-1.03-2.37.8,2.38,1.13ZM52.64,244.21l4.97,1.73c.71.25,1.76.93,2.38,1.02.83.11,1.71,0,2.48.31l2.71,1.1c.46.19,1.35.33,1.97.51,3.97,1.14.85-.18,4.42,1.83l3.53,1.99c1.17-.76-6.07-4.28-6.2-4.32-3.21-1.19-6.45-1.95-9.7-3.05l-5.56-1.88-15.38-4.77c-.76-.24-1.94-.1-2.07.77l-.56,3.74c-.61,4.1-.85,2.51-1.07,5.25l-1.01,3.36-.26.85c-.06.19.64.41.7.21.18-.7.39-2.16.63-2.84l1.22-3.39c.26-.74.39-1.44.83-2.08,1.02-1.5.22-1.79,1.19-4.37l3.03.44c.36.05,1.02.49,1.36.7l.98-.07c.22-.02.49.52.69.73,1.5-.06,3.11.6,4.52,1.16.67-.02,3.46.82,4.2,1.08ZM108.35,243.12c1.15-.27,1.78-.91,2.46-1.69l1.46-1.67c.09-.1.34-.33.43-.42s-.1-.47-.21-.62c-.35.29-.81.69-1.18,1.04l-1.11,1.05-.72.53c-.12.09-.02.49-.07.62-.38.25-.9.67-1.07,1.16ZM328.81,242.94c-.38.43-.64.7-.93.92l.44-1.19-1.64.28-.59-.34c-.07-.04-.18.31-.11.37l.31.24c-.26.41-.33,1.36.04,1.56l2.25-.77c.17-.06.61-.36.53-.51s-.31-.6-.29-.56ZM345.63,245.67c.61.04,1.46.02,1.47-.09l-1.08-1.11h-1.79c-3.57,0-1.09-.43-5.29-.5-.76-.01-1.39-.04-2.15-.13l-1.82-.21c-.76-.09-1.6-.38-2.12.67-.19.09-.54.26-.25.12l1.66.22c.6.08,1.48.31,2.12.51,2.03-.46.13-.18,3.3.17,1.16.13,2.29.13,3.53.21l2.41.17ZM368.7,245.71l1.36.05,5.13-.08c.13,0,.53-.49.57-.38l.18.53,2.25-.27c.68-.08,1.01-.21,1.68-.04,1.08.26,2.43.09,3.54-.24l2.04.3c1.58.23,3.13.18,4.61-.09.45.12,1.15.22,1.71.19l4.14-.16,2.56.03c.47,0,3.81-.03,4.07.3l2.98-.29,4.53-.34c.57-.04,1.56.3,2.12.18.95-.2,1.8-.12,2.48.2.39-.31.85-.46,1.41-.47,1.91-.05,3.83-.23,5.71.05.45.07.88.16,1.16.08l.81-.22c.18-.05.36-.78.54-.69l.78.37.51-.28.81.37c.13.06.11-.66.1-.94-1.23-.24-2.8-.32-4.17-.23l-1.66.11c-.64.04-1.35,0-2,.02l-15.04.21-15.76.16-2.69.22-.07.35c-.01.07-.13.1-.18.06-.06-.04-.31-.33-.37-.33h-3.06c-.86.01-1.7.17-2.49.13-.83-.04-1.82-.16-2.69-.13l-7.86.19c-.82.02-1.76.2-2.52.18l-1.77-.03-1.1-.04-4.22-.2c-.97,1.14-.95-.38-5.58.24-1.08.15-3.5.24-4.5-.04l-1.27.22c-.16.03-.13.67.03.7.12.02.34,0,.44-.06l.45-.29c.1.23.33.73.27.6-.04-.1.42-.24.52-.22,1.44.31,2.61.24,4.16.15l2.68-.16,3.65-.32c.9.43,1.94.69,2.67-.14l.66.42c.12.07.42-.2.6-.19l5.09.27ZM45.68,245.51c.32.1,1.01.25.97.05l-.14-.66c-.04-.2-1.96.28-1.7.71.12.21.36.55.62.91l.25-1ZM45.7,247.72c-.15-.5-.26-.91-.26-.9l-1.64-.53.21.58c.06.16-.3.65-.38.85-.07.17.76.21.78.02l.07-.64,1.23.61Z"/>
  <path d="M421.07,264.58l-.94.06c-.23.01-.38-.4-.5-.62l-.62.53c-.1.09-.18-.05-.56-.39l1.62-.93.07.69c.02.18.45.3.92.67Z"/>
  <path class="cls-1" d="M430.55,124.18v18.22c-3.87,1.74-6.89,4.24-7.59,8.67l-.75,4.79c-.11.72-.18,1.59-.24,2.35l-.25,3.13-.2,2.47c-.23,2.88-.13,5.75.04,8.64l.22,3.66.64,6.65c.48-1.32.1-2.52.02-3.94,0,.16-.21-5.49.34-4.07.04.11.26.52.26.64l.13,2.48c.1,1.95.2,3.61.04,5.54-.06.69.18,1.83.51,2.56.55,1.25,3.59.88,5.15,3l1.68.67v22.78c-.91.65.16.83-.96,2.38-.09.12-.49.05-.51-.09l-.07-.55.84-.8c.06-.16-.1-.73-.26-.67-1.34.49-.02-.68-2.33.29l.46.74c.05.09-.4.14-.47.07l-.46-.43c-.34-.32-.29,1.1-.75.62l-.36-.38c-.07-.07-.33.12-.35.22l-.05.41s-.33.18-.4.21l-.51.2.16-.91c.12,1.05-.24-.06-.39.04-.33.2-1.01.42-.08-.36l-.2-.66c-.05-.16-.51.1-.62.22l-.25.27s-.03.19-.04.31c-.05.15-.16.49-.1.31-.43-.32-.71-.53-.88-.43-.2.11-.52.35-.72.37-.27.03-.62.07-.91.11l-1.46.24-.09.42-.11.49c-.07.34-.54-.44-.74-.45l-1.41-.07-.11-.5c-.02-.1-.34-.27-.4-.19-.07.08-.33.35-.34.37l.46.48c.05.05-.26.09-.33.08l-.31-.07s-.3.02-.33.04l-.29.18c-.2.2-.3.34-.34.25l-.12-.3c-.03-.07-.03-.05-.12-.23h-.4s-.61.28-.61.28l-.59-.4c-.07-.05-.06-.04.07-.12l.28-.69c.04-.1-.26.08-.36.14-1.55.91-.64-.18-1.66.75l-.48.34-.07-.36.62-.28-.69-.64c-.14-.12-1.17.6-.8.92,0,0-.07.03-.14.07-.04-.04-.45-.4-.38-.32.86,1.01-3.58.53-3.76.51-.39-.03-.93-.29-1.16-.15-.3.2-.81.44-.93.26l-.41-.65-.87.94.5.48c.09.08-.23.27-.34.22l-.39-.15-.45-.17.43-.38c.08-.07-.28-.37-.38-.35l-1.33.26-.99-.53c.13-.2.5-.59.35-.68l-.51-.29c-.07-.04-.45-.07-.41,0l.14.33-.06.24-.08.3c-.99-.59-2.17-.41-2.95.42l2.18-.13c.08,0,.36.03.53.05l-.56.29c-1.14.6-1.27-.47-3.09,1.34-.08-.05-.26-.45-.18-.54l.42-.47c-.22-.32-.68-.9-.89-1.11-2.18,1.06.74-.46-1.51.34-.74.26,1.05,1.02.61,1.66-.19.28-.69.5-.93.37l-.76-.43c-.13-.11-.51-.45-.12-.11l.89-1.15c-.03-.51-.1-.68-.28-.42-.17.41-.22.69-.36.76-.41.2-1.71.37-2.26-.49l-1.43.07c-.3.51-.71.52-1.19.39l-.73.75c-.06.07-.22.23-.24.27l-.33.5c-.06.09-.15-.23-.15-.35l.03-1.11-1.79.51c.09.57-.45-.02-.69-.29-.14-.05-.33-.11-.31-.05l.12.43c.05.18-.27.2-.69.34-.05.46-.06.35-.05-.1l-.19-.49-.6.34c-.1.06-.25-.25-.35-.34l-.54-.47c-.09-.07-.17.51-.18.58l.3.27c.6.55.24-.02-.73.73.52-.03,1.06-.1,1.36-.22l.49-.19c.73-.29-.62.9-.96.99l-1.41.35-.03-.57c.23-.3.37-.45.27-.51-.07-.04-.34-.21-.27-.17l-1.12.98s-.08.31-.13.51l-1.75,1.3.08-.82-.24.19-.09.42c-.07.21-.26,1.02-.06.72.64-.26.91,0,1.33.55l-.53-.07-.94.66-.54-1.31s.22-.37.21-.41l-.08-.44c-.12-.72-.64,1.3-.74.54l-.06-.46s.08-.26.16-.5c-.2-.11-.93.13-1,.44-.4,1.87-.8.96-.81,1.23l.02-.52c.01-.37.11-1.1-.25-1.22l-.67-.23c-.09-.03-.21.34-.15.4l.46.46-1.29.25.5.43v.34c-.4.16-.69.25-.62.34l.33.41c.05.07.17.27.21.34l.16.3-.39.02c-.29-.05-.71-.06-.88.04s0,.66.19.75c.14.07.43.06.57-.02l1.22-.67c.29-.42.25-.08.06.49l1.35,1.51-.18-1c.02-.06.53.33.6.53l.25.64c.03.08.25-.17.43-.33.28-.26,1-.07,1.47.11l1.17.46.07-1.31c0-.12.28-.29.4-.34.07-.03.08.28.07.36l-.09.4,1.08.35c.15.32.49.72.6.56l.42-.63c.1-.15.46.21.64.29.1.04.68-.84.44-.86l-.87-.09.22-.71,1.15.57s-.23-.46-.09-.46l.79-.03c.21,0-.09,1.86.28.62.01-.05.12-.37.2-.62,0-.07,0-.01.03.36.14.17.48.53.68.66l.89.58c1.11.72.57.15,1.78,1.4.05.06.25.23.22.15s-.08-.56,0-.54l.62.17c.1.03.19-.17.25-.28.28-.56-1.17.31-1.89-.95-.02,0,.28.02.68.04l.18-.17c.16-.35.21-.49.22-.41l.09.5.05.27.96.06c.13,0,.21.29.18.38l-.28.43c-.05.08.35.34.45.33l1.1-.19c.17-.03.62.12.78.03.18-.11.64-.38.62-.37l-.46.86c-.2.37.46.19.49.62l.03.43c.23-.11.8-.42.9-.66l.32-.76s.23-.06.29-.08l-.24-1.3c.77.59.98.87,1.51,1.66l-.3.42-.51.16c-.07.02,0,.17.07.17l.43-.04c.17-.02.62.02.79.07.25.13.46.3.47.18l.04-.71.94-.05.48-.48c.08-.08.17.07.27.32l.32.73c.06.14.52-.04.67-.04l.83.55.15-.92c.02-.1.36.05.39.14l.24.68c-.06.01.13-.03.34-.09l-.05-1.29c.22.16.43.3.45.33.15.21.66.52.88.44l.76-.28s.27-.06.37-.08l.48-.11c.08-.02.06.24,0,.28l-.33.19-.36.21s-.07.2-.12.46l1.52-.36c.33-.08.98.55,1.22.79.05.05,0,.39-.04.45l-.16.29c.22,0,.32,0,.32,0l.29-.32.23-.25c.11-.11.2-.21.19-.19l-.57-.29c-.1-.05-.16-.47-.05-.46l.59.02,2.39.11c-.02-.1-.24-.7-.07-.68.19.02.66.12.65.28l-.04.39c-.09.12-.21.3-.26.35-.05.06.29.19.37.21l.24.07.26-.22c.08.08.43.48.5.47l1.65-.08.93.63c.18.12.21-.76.42-.8l.68-.14s.14.19.1.3c-.03.08-.14.34-.15.43l-.1.67c0,.05,1.12.67,1.76-.4-.05-.45,0,0,.03.23-.22.67-.35,1.18-.35,1.98.35-.64.56-1.1.89-1.76l.62-1.2c.03-.07.52.17.58.13s-.19.17-.25.23l-.25.23c.18.55.79.61.82.79l.12.66,1.54-1.46c.24,1.73-1.49,1.63-.88,1.77l.9.21c.46.11,1.21-.68,1.31-1.18l.05-.24c.08.06.19.16.22.17l.6.2c.09.03.19-.3.13-.36l-.38-.35c.56-1.14.89.38,3.09-2.01.08.79.1,1.08.16,1.36.05.24.8.65,1.01.56.43-.18,1.09-.54,1.68-.87.04.1.15.4.15.39l-.34.32c.29.16.38.25.44.18l.33-.36c.09-.09.44-.04.49.08l.25.59.74-.58s.13-.13.34-.34c-.02,0,.09.01.34.05l-.09,1.33.58-.14c.39-.07.73-.09.32.12-.48.56-.13.24-.93.57l.69.3c.13.06-.36.58-.37.59,1.24,2-.71,1-.09,3.06l-5.73.12-11.45.25-9.61.24-10.73.28-7.1.12-8.96.13-5.13.02-2.84.02h-4.35s-13.84-.06-13.84-.06l-4.23-.2-2.63-.22-2.88-.23-6.51-.67c-8.61-.89-16.99-2.47-25.39-4.55-7.37-1.82-18.38-5.76-24.48-10.02l-3.59-2.51c-1.45-1.01-2.49-2.57-3.65-3.95l-2.64-3.15-5.64-6.82-6.01-7.39c.19-1.68.5-3.53-.28-5.04-.57-1.1-.73-2.29-1.17-3.44-1.45-3.85-5.29-9.84-7.76-13.28l-2.91-4.06-1.99-2.6c-.36-.48-1.05-1.08-1.51-1.56l-3.38-3.59c-2.64-2.8-5.84-6.16-9.2-8.15.35-2.81,8.64-7.29,11.07-8.44l5.36-2.54,1.42-.58-.4-.43c-.06-.07-.31.1-.46.19-1.53.93-1.77-.12-1.73.48l.03.46-6.98,3.1c-.82.37-1.69.87-2.51,1.29l-1.9,1c-.82.43-1.42,1.19-2.58,1.03.8-.81,1.5-.9,1.96-1.83-1.3.54-2.45,1.01-3.46,1.81l-1.42,1.13c-1.35,1.08-2.92,1.84-4.13,3.07l-2.82,2.88c-.21.21-.5.37-1.04.77l-.11-1.36c.28-.12-.15.06-.45.19l-.48-.03c-.07,0-.06.23-.07.42.21.44.24.62-.17.3-.33-.17-.84-.61-.75-.85.58-1.55,1.73-1.76,2.07-2.05,1.14-.97,1.77-2.45,3.3-2.96.43-.14.77-.52,1.03-.91l2.62-1.47,2.62-1.5c1.1-.63,2.2-1.3,3.42-1.8l2.92-1.19,1.53-.61c3.12-1.24,6.26-2.1,9.49-2.99l3.35-.93,2.97-.67,1.98-.42,3.58-.53c1.04-.15,2.1-.52,3.15-.64l2.19-.24,5.5-.5c3.02-.27,10.72-1.41,12.88-.03,2.7-.12,5.88-.36,8.6-.74.9-.13,1.66-.29,2.53-.37l4.81-.41,14.91-1.36,3.3-.29,2.88-.23,2.74-.21,5.99-.47c1.23-.1,2.42-.32,3.72.16l-4.58.6c-.89.12-1.91.21-2.82.26l-4.33.26-2.88.23-2.44.23-2.84.12-3.65.29c.73.35,1.41.26,2.25.23l4.26-.16,2.18-.22,4.08-.26,2.65-.2,3.56-.28,2.67-.22,2.37-.24,2.9-.24,3.12-.24,2.88-.24,2.64-.23,3.11-.26,2.88-.23,2.89-.22,5.03-.48,3.35-.27,3.12-.24,2.65-.21,4.26-.29,7.02-.66,4.05-.3,5.46-.49,9.48-.76,2.82-.27,3.36-.26,2.88-.22,3.12-.24,3.11-.26,2.4-.22,2.88-.25,2.88-.23c1.38-.11,2.7-.13,4.07-.32,1.03-.14,1.96-.23,2.89-.23ZM261.64,139.36c-1.84.06-3.31.51-4.7,1.09,1.83-.2,3.32-.59,4.7-1.09ZM407.08,214.58c0-.08-.07-.15-.15-.15s-.15.07-.15.15.07.15.15.15.15-.07.15-.15ZM369.76,219.8c-.01.24.81.04.78-.2l-.15-1.04-.22-.63-1.28.61c.37.13.93.22.91.45l-.04.81ZM368.53,219.92c.14-.23-.23-.95-.48-.84s-.58.36-.77.53l-.5.71c.57.12.96.21,1.19.23.18.01.4-.39.56-.64Z"/>
  <path class="cls-1" d="M383.47,290.36h-43.35l-1.35-1.76-4.13-5.23-7.51-9.04-3.29-4.12c-1.23-1.54-2.29-2.83-3.75-4.39,1.02-.91,2.27-1.62,3.51-2.3,3.08-1.67,10.53-3.63,14.12-4.39l4.95-1.04c.22-.05.74-.38.83-.46l-3.13-.23.18.49c.04.12-.55.06-.71.1l-4.44.96,3.23-1.57-5.19.25c-1.22.06-2.71.21-3.18-1.3-2.39-.56-6.45-1.14-8.77-.92-1.94.18-1.1-.39-5.11-.41-.83,0-1.52.25-2.14.58-2.64,1.38-.24-.16-3.74,1.19-.77.3-1.18.54-1.7.96-1.21.98-3.04,1.47-3.9,2.86-.49.79-1.19,1.4-1.74,2.11-1.86,2.41-1.84,5.79-1.41,8.61l.76-.08-.32,1.02c-.07.23.38.57.53.84,1.67,2.85.59,2.38,3,4.33.86.27,1.84.95,2.31,1.86.53,1.03,1.76,1.68,2.4,2.55l.94,1.29,1.27,1.55c1.22,1.49,2.23,3.02,3.52,4.4l1.18,1.26h-96.43c.68-1.32-.09-2.72-1.31-3.51l-3.21-2.09c-1.5-.98-2.81-2.29-4.28-3.35l-4.46-3.23c-2.55-1.84-4.94-3.87-7.45-6.17-.54,1.13-.16,2.04.86,2.7,1.09.7,2.03,1.63,3.05,2.43l1.36,1.07,1.51,1.34,2.36,1.95,3.66,3.09c.47.39,1.18,1.31,2.02,2.2.18.2.03.9-.13,1.16l-1.45,2.4h-31.9c.31-1.4-.04-3.67-.04-5.61v-3.87c0-.74-.29-1.67-.49-2.29.3-1.17.69-2.79-.53-3.7.17.41.03,3.92.19,3.58l-.2.43c.12.46.07.96.05,1.44l-.37,6.91-.05,1.7c-.01.46.09,1.04.24,1.41h-81.79c.3-.53.49-1.28.71-1.92.09-.27.59-.83.42-1.03-1.66-2.03-.42-2.46-1.86-2.99-.92-.33-1.76-1.19-2.54-1.89,1.11-.14,1.53.61,2.23,1.24h.32s.11-1.44.11-1.44c.51-.56.98-1.11.27-1.89l.53-.11.55-.17c.12-.04-.18-.36-.3-.31l-.48.18.29-.5c1.01-1.49-.98-1.53-.12-2.23l.42-.35-1.2-1.31c.23-.74.05-1.53-.39-2.17.06-.07.42-.45.28-.48l-.79-.14.28-1.16,1.16.37.37-.48c.06-.08.33.04.4.11l.27.27.41.41c.05.05.11-.4.13-.54.02-.12.51-.11.53.02l.06.6,1.48-.48c-.56-.61-.83-.81-1.65-.66l-.27-.28.32-.34c.1-.1.3-.27.23-.33l-.35-.29-1.15-1.07c-1.07-.99-2.26-1.53-2.87-2.47-.07-.12.73-.42.84-.34l4.82,3.57c.72.53,1.08.8,1.53,1.35.09-.1.39-.4.31-.52s-.33-.47-.39-.61c-.35-1.64-1.13-3.62-2.86-4.52l-1.56.02,1.64-.58c1.64-.77,3.25-1.49,4.8-2.4l5.58-3.27c3.83-2.25,7.05-5.16,10.27-8.19.82-.77,1.55-1.47,2.26-2.33l.97-1.17,1.46-1.87,1.68-1.95c1.54-1.78,3.03-3.81,4-5.84l1.23-2.58c.04-.08.23-.31.27-.26l.32.41.77-2.2c.19-.54.5-1.38.79-1.8.62-.89.89-2.01,1.23-2.86.7-1.77,1.94-3.3,2.19-5.19.06-.47.21-.74.49-1.16l.99-1.52c.33,1.95-1.78,7.51-2.31,8.84,2.44-.45,4.74-.69,7.12-.91,5.91-.55,11.54-1.54,17.22-3.36,1.38-.44,3.11-.17,4.29-1.25.67-.62,1.27-1.01,2.09-1.27,1.21-.38,2.45-1.22,3.73-1.74l5.82-2.4c3.18-1.31,5.45-2.95,8.4-3.79.43-.26.87-.47,1.35-.49l1.82-.09.36-.52c.06-.09.33-.04.48-.06,1.1-.35,2.22-.66,3.51-.88,2.82,2.83,1.62,2.61,5.15,2.53,2.92-.06,2.72-.25,5.15-.36.99-.04,1.51-.27,2.3-1l3.46-1.08c.64-.2,1.64-.05,2.33-.22,2.95-.71,2.39-.26,4.92-.72.09-.02.16.25.1.32l-.26.35-.24.42c-.05.09.43.08.56.03,2.46-.94,1.91.43,3.16-.58l.93-.75c.5-.4.9-.7,1.56-.9.57-.17.96.09,1.2.63.56,1.22-2.58.48-3.79,1.73.81.13,1.37.15,2.05.16,1.59.01,2.13-1.23,2.71-2.55-.17-.14.55.12.47.27l-.26.54-.21.44c-.05.09.39.12.47.05l.4-.39c.08-.08.27.56.38.59.54.17,1.6-.33,1.95-1.21l-1.95-1.34c-.33.03-.19-.07.22-.3l2.28,1.37,1.19.57c.19.09.7.29.76.12.39-1.05.09-1.07.66-1.06l2.25.04c.39,0,1.23.55,2.96-.49.63-.38,1.59-.33,2.42-.32l2.53.03c.8.01,1.44.28,2.28.17l2.21-.3c.75,1.09,1.44,2.1,2.28,3.05l3.58,4.09c.62.71,1.11,1.46,1.71,2.14l1.6,1.8.92,1.19,3.27,3.69,1.36,1.54c1.14,1.29,2.17,2.52,3.49,3.72.5.45.86,1.17,1.08,1.77,1.3.57,2.28,1.67,3.35,2.69,2.54,2.42,6.56,4.62,9.64,6.4,2.7,1.56,5.39,2.81,8.3,3.93,2.29.88,4.5,1.76,6.82,2.49l3.33,1.05c.86.27,1.68.63,2.55.82l2.23.48c.73.16,1.41.3,2.21.38,1.27.13,2.45,1.05,3.7,1.27l13.24,2.31,8.48,1.24,4.57.57c1.48.19,2.81.19,4.24.56,1.15.3,1.33.71,1.37.65l.27-.36c2.13-.14,4.28-.18,6.44.08,4.64.55,3.7-.03,8.06.27l3.6.25,8.04.17,1.93.1,6.67.04,6.6.2,2.5.08h3.47c.7,0,1.48,0,2.15-.04l2.28-.12,2.9-.08h3.29c1.37,0,2.57-.05,3.88-.11l2.36-.12,3.38-.13c.15,0,.59.31.71.23l.39-.23,1.54.03,3.66.06,1.84.07.69.25c.14.05.59-.36.78-.35l4.37.15,1.98-.02c.21,0,.6-.05.63.09l.17.71.87-.88c.09,0,.43.56.33.77l-.35.75c.04.73.04,1.77-.03,2.55l-.23,2.65c-.95-.53-.51-1.29-.38-2.33-1,.49-1.61,1.36-2.06,2.29l-.57-.86c-.37.66-.72,1.31-1.28,1.58-.41.2-1.15.1-1.98,0l-.13.98c-.04.31-.7.79-.96.62-.44-.28-.53-1.76-1.98-2.96-.05.74-.04,1.26-.32,1.45-.25.18-.66-.97-.53-.23l.09.53c.54-.09,1.62-.06,1.9.19-.26.57.05.88.36,1.48,0,.05-.5.08-.58-.08l-.39-.76-.65,2.05-.32-1.14c-.23-.24-.27-.37-.38-.36l-.58.02.5-.55c.09-.1.02-.56,0-.45-.41.31-.68.49-1.11.57-.26.05-.51-.31-.79-.74l-.75,1.21-.69.18c-.09.02.12.26.18.32l.36.36c-1.21-.16-1.89,1.16-1.88.45.02-.89.69-1.59.38-1.76l-.84-.46v-.72c-.01-.12-.42-.31-.51-.22s-.32.34-.27.29c.24.31.33.54.21.6-.2.1-.4.18-.53.2l-.81.11c-.17.02-.13.58.01.68l.69.48-.5.35c-.08.06-.18.34-.21.4l-.5-.43c-.09-.08-.4.34-.52.36-.46.07-1.29-.57-1.46-.94.37-.2.67-.33.73-.51.04-.14-.26-.44-.4-.42-.92.1-.29,1.51-1.47,1.24l.63-1.24-1.23.55c.04-.41.4-1.2.69-1.14l1.94.4c-.11-.73-.76-.74-1.37-.78l-.83-.79c.06,1.17-.7,1.89-1.63,1.92.13-.38.4-1.1.17-1.07l-1.19.14.8.97c-.23.16-.72.44-.57.54l.67.43c.12.08.56.35.43.4l-.37.16-.5.22c-.04-.68-.87-1.35-1.45-1.21l-.34,1.84c.23.35.5.88.47.99l-1.74-1.33c-.18-.14-.69-.45-.62-.65l.28-.83c.24.18.39.35.45.29.78-.92,1.36.09,1.19-.78-.07-.34-.22-.88-.25-.77l-.55.44c-.06.05-.05.02-.1-.08l-.3-.57-.12,1.04-.97.5-.62.32c-.09.05.03.46.05.48.37.11.92.32,1.14.57.37.41.42.8.24,1.11-.14.24-1.06.42-.93.19l.42-.74c.06-.11-.17-.36-.27-.42-.5.26-1.57.29-1.62-.16l.71-.61c.14-.12-.15-.59-.24-.75l-.06-.46c-.01-.11-.41-.06-.52-.02-.07.03-.21.39-.19.5.16.92-1.55,2.23-2.21,1.71-.09-.07-.26-.67-.29-.78-.02-.07-.05-.02-.5.41.27.23.13.11-.25-.21l-.06,1.17,1.46-.1.76,1.41c.2.06.73.04.75.23.03.24.08.64.07.63-.74-.43-1.06-.42-1.68-.11l-.6.29c-.12.06.1.39.23.43l.71.21-1.12,1.38c.44-1.16-.85-2.63.14-2.54l.7.06-.14-1.31-.58.8c-.19.26-1.27-.49-1.13-.66l.56-.66-2,.16c-.13-.04-.33,0-.37.1l-.28.7-.16-.91c-.33.29-.7.57-1.09.79-.26.14-.32.73-.17,1,.12.21.78.43.9.22l.37-.6c.08-.13.61-.04.69-.02l-.85,1.69-1.57-.26.6,1c.11.18-.37.51-.51.63-.17.14-.28-.04-.62-.27l-1.44-.86-.7.63-1.68-.64,1.08.82c-.51.14-.77.33-.58.77s.53.62.77.49c-.23-.45-.42-.81-.41-.8l1.26.55-.83,1.61-.44-.96c-.09-.19-.66-.39-.65-.31l.82,1.94-1.39-.21c.3.27.87.67,1.37.99l-.23.34c-.05.07.18.31.14.39l-.52,1.14,1.33-.77c.28.4.54.83.33.98-.35.24-.61.29-1.01.27-.06.04-.4.26-.38.25.38.29.93.85.86,1.18-.07.29-.6.6-1.03.88l.9,1.13c-.12.29-.36.88-.1,1.02l1.21.65s-.49.46-.35.59l.62.61-.93.57,1.35.52-1.25.54-.08.77c-.02.16-.56-.24-.74-.25-.63-.02-1.23,1.02-1.04,1.77ZM252.19,220.85c.95,1.12,1.91,2.12,2.88,3,.44-1.6-.64-2.4-1.44-3.38l-1.59-1.94-3.61-4.38-3.27-3.91-1.93.68c1.29,1.12,2.28,2.28,3.42,3.56l1.92,2.16,1.35,1.53,2.26,2.68ZM120.13,253.24l-2.71,2.34c.41.05.75-.07,1.02-.27,2.12-1.59,4.15-3.07,6.43-4.4l6.67-3.9c4.47-2.61,19.09-9.95,23.62-10.69.28-.05.83-.33.9-.58s-.2-.81-.41-.99l-6.25-5.27c-.89-.75-1.61-.79-2.72-.65l-4.44.55-2.94.32c.95,1.24,2.2,1.42,2.27,2.01.17,1.34-5.13,3.24-4.85,2.13l.18-.69c.04-.15-.18-.48-.32-.57s-.43.31-.54.51c-2.89,5.16-5.98,10.07-10.07,14.37-1.91,2-3.71,3.94-5.84,5.78ZM166.4,248.03c.19-.13.33-.94.29-1.07-1.21,0-2.42.2-3.16,1.15.81.45,2.16.44,2.87-.08ZM173.65,254.57c.41-.02,1.72-1.33,1.1-1.83-.8-.65-3.23.03-4.24.43-.57.23-.82,1.28-.62,1.6l3.75-.21ZM177.83,256.75c.05-.15-.16-.7-.37-.84-.17-.12-.76,0-.97.09l-1.89.79c.85,1.19,2.17.7,3.23-.03ZM107.77,262.98c1.23-1.05,2.62-1.67,3.48-2.9-2.14.94-3.76,1.98-5.62,3.06l-.09,1.74,2.24-1.91ZM421.07,264.58c-.48-.37-.9-.48-.92-.67l-.07-.69-1.62.93c.38.35.46.48.56.39l.62-.53c.12.22.27.63.5.62l.94-.06ZM411.11,266.92l1.07-1.17-1.56-.55c-.12-.04-.6-.06-.56.05l.19.55c.06.16.7-.09.72.09l.13,1.03ZM393.69,267.08c.01.76.04.99.38,1.31.16-.44.1-.69.26-.76l.84-.41-1.37-1.5c.54-.34-.5-.31-.92-.32-.12.02-.58.19-.49.28l.37.43c.09.1.21-.46.18-.35l.86.8-.56.22c-.15.06-.33-.23-.52-.41l-.04,1.14,1.03-.43ZM204.45,287.77c.47-1.35-.46-1.63-1.09-2.2l-3.08-2.81c-.1-.09-.28-.62-.37-.53l-.24.23c-.06.06-.16.41-.16.5l.17,3.56,2.18.98c.93-.58,1.78-.56,2.58.28ZM308.55,287.61l.16-2.12c.04-.47-.86-1.23-1.28-1.07-1.18.46-.89,1.62-.85,2.55s.18,1.88,1.21,2.27c.2-.41.73-1.22.76-1.64Z"/>
  <path d="M340.12,290.36h-22.79l-1.18-1.26c-1.29-1.38-2.3-2.91-3.52-4.4l-1.27-1.55-.94-1.29c-.63-.87-1.87-1.52-2.4-2.55-.47-.92-1.45-1.6-2.31-1.86-2.41-1.95-1.33-1.48-3-4.33-.16-.27-.61-.61-.53-.84l.32-1.02-.76.08c-.43-2.83-.45-6.2,1.41-8.61.55-.71,1.25-1.32,1.74-2.11.87-1.4,2.7-1.88,3.9-2.86.52-.42.93-.66,1.7-.96,3.49-1.35,1.1.19,3.74-1.19.63-.33,1.31-.59,2.14-.58,4.01.02,3.17.59,5.11.41,2.32-.22,6.38.37,8.77.92.47,1.51,1.97,1.36,3.18,1.3l5.19-.25-3.23,1.57,4.44-.96c.16-.03.76.02.71-.1l-.18-.49,3.13.23c-.09.08-.62.41-.83.46l-4.95,1.04c-3.59.76-11.04,2.71-14.12,4.39-1.24.67-2.48,1.39-3.51,2.3,1.46,1.55,2.52,2.84,3.75,4.39l3.29,4.12,7.51,9.04,4.13,5.23,1.35,1.76ZM314.94,267.21c.08.08.64.08.58,0l-.39-.59c-.29-.29,3.44-1.23,3.71-1.12.05-1.09.9-1.24,1.82-1.58l5.37-2.03c.84-.32,1.78-.32,2.46-1.2l-4.69,1.34c-2.38.68-9.09,3.52-10.67,5.48l1.27.05-.16-.59c-.02-.08.27-.17.33-.11l.37.36ZM320.45,267c.09-.21-.56-.88-.57-.84-.85.63-1.09,1.41-.32,2.28.26-.37.74-1.08.9-1.43Z"/>
  <path d="M430.55,170.94c-.71-.83-1.45-2.01-2.85-1.18l1.68.83c.43.54.78.97,1.16,1.31v17.75l-1.68-.67c-1.56-2.11-4.59-1.74-5.15-3-.33-.74-.57-1.87-.51-2.56.16-1.93.06-3.58-.04-5.54l-.13-2.48c0-.12-.22-.52-.26-.64-.55-1.42-.33,4.23-.34,4.07.07,1.42.46,2.62-.02,3.94l-.64-6.65-.22-3.66c-.17-2.88-.27-5.76-.04-8.64l.2-2.47.25-3.13c.06-.75.13-1.62.24-2.35l.75-4.79c.69-4.44,3.72-6.94,7.59-8.67v28.54Z"/>
  <path class="cls-1" d="M430.55,216.74v73.62h-7.92c0-1.17.04-2.37.16-3.62l.28-3.09,1.48-14.86,1.04-10.1.53-4.43,1.2-10.57.46-3.61.84-7.29c.63-5.45,1.1-10.81,1.92-16.04Z"/>
  <path d="M220.91,290.36h-7.44l1.45-2.4c.16-.26.31-.97.13-1.16-.84-.89-1.56-1.81-2.02-2.2l-3.66-3.09-2.36-1.95-1.51-1.34-1.36-1.07c-1.02-.8-1.96-1.72-3.05-2.43-1.02-.66-1.4-1.57-.86-2.7,2.51,2.3,4.9,4.33,7.45,6.17l4.46,3.23c1.47,1.06,2.78,2.37,4.28,3.35l3.21,2.09c1.22.8,1.99,2.19,1.31,3.51Z"/>
  <path class="cls-1" d="M56.12,290.36h-1.68l.12-1.6.56-2.68c.14-.66.23-1.37-.06-1.9.51-.34.84-.88.91-1.7l1.56-.81c.56.79.04,1.32-.44,1.93l.47-.09c.13-.02.25-.05.24.02l-.06.47c-.46,3.34-.8.74-.96,4.51l-.91-.54c.23.9.53,1.72.26,2.4Z"/>
  <path d="M181.57,290.36h-1.2c-.14-.37-.25-.95-.24-1.41l.05-1.7.37-6.91c.03-.48.08-.98-.05-1.44l.2-.43c-.16.34-.02-3.17-.19-3.58,1.21.91.83,2.52.53,3.7.19.62.48,1.55.48,2.29v3.87c.01,1.95.36,4.21.05,5.61Z"/>
  <path class="cls-1" d="M430.55,170.94v.96c-.38-.34-.73-.77-1.16-1.31l-1.68-.83c1.4-.83,2.13.35,2.85,1.18Z"/>
  <path d="M21.15,191.49l.32-1.21-.65-.06c-.16-.01,0-.73.15-.83.66-.47,2.05-.71,2.98-.99,5.54-1.69,7.18-2.57,11.69-5.78l2.37-1.69c2.42-1.72,4.77-3.3,6.78-5.49,2.23-2.42-2.73-2.04-3.81-5.22l-1.09-3.2c.17-.52,1.1-.96,1.68-1.28,1.31-.74,2.48-.88,4.01-1.08l1.87-.25c.86-.11,1.69-.02,2.52-.28l2.25-.73c2.34-.76,5.54-.23,7.8.66,3.14,1.24,2.7,2.15,4.54,1.82.69-.12,1.46-.77,1.93-1.72.45-.91-.78-2.2-1.63-2.42,0-.42.05-.68-.11-.75s-.8-.15-.96-.27l-3.93-2.84-2.44-2.17c-.91-.81-1.78-1.37-2.82-2.01-2.98-1.81-3.79-3.37-6.78-4.01-.31-.09-.88-.59-1.19-.53-.38.07-1,.41-1.2.7.03.98,1.38,3.91,1.71,4.4.91,1.34-.57,3.04-1.69,3.53-.19.08-.63.51-.57.67l.3.78c.18.45-.53,1.51-1.03,1.66-1.12.33-1.94.75-2.94,1.36-2.17,1.31-4.55,2.4-6.35,4.21l-1.46,1.47c-2.68,2.7-5.79,5.56-8.82,7.61-.38.26-.82,1.05-1.16,1.3-1.94,1.47-3.11,2.45-4.47,4.4-2.83,4.05-5.42-1.05-9.07.12-1.12-1.78-5.94.62-8.61-.78l-1.43.61c.72.68,1.56,1.31,2,1.94l1.73,2.43c.72,1.01,1.5,1.74,2.61,2.58-.14.18-.99.56-1.43.54-.29-.01-.4-.96-.32-1.04l-4.52-1.52c-.35-.3-.89-1.13-1.14-1.56v-14.06c3.17-.46,5.38-1.01,8.64-1.52,2.96-.46,6.15.16,8.63-1.42.56-.36,1.75-2.18,3.41-2.6l.11-.41c.11-.42,1.98-.31,1.91-1.36-.05-.63-.6-1.13-1.14-1.3l-.7-.22c-1.42-.44,3.77-.78,3.89-1.34-.59-.48-1.32-1.08-1.16-1.57l.98-.26c.17-.04.33.46.41.63l.2.43c.05.1.37,0,.37-.12v-.59s.24.15.43.27l.58.38c.2.13.45-.77.25-.86-1.12-.53-2.95-1.23-4.06-1.97-.62-.42-1.11-.72-1.65-.57l-.14.86c.7-.08,1.51.82,1.29,1.3-.06.13-.46.49-.58.43l-.67-.38c-1.13-.65-2.68-.96-3.75-1.74-3.46-2.52-2.86-1.15-4.43-3.75l-3.08-.18-1.68,1.49.38.14c.12.04.3.17.22.23-1.13.78-.07.03-1.33,2.78-.55,1.2-1.39,2-2.33,2.84l-1.15,1.02c-2.21,1.96-1.03.5-3.01,3.63-.02.35-.05.44-.17.47-.13.04-.65-.12-.65-.44v-58.7s12.57,10.03,12.57,10.03c.87.7,1.61,1.2,2.36,2.03l16.77,13.67,22.38,18.33,2.51,2.09,3.15,2.63,4.54,3.65c1.88,1.52,1.02,1.21,3.6,3.06l1.96,1.4c3.34,2.39,6.01,5.43,9.44,7.53l1.53-6.34c.44-1.81.91-3.62,1.22-5.47.22-1.31.4-2.58.72-3.86l2.43-9.56c.35-1.38.59-2.67.87-4.07,1.6,1.24-1.53,3.73,1.35,3.72l-1.21,1.08-.51.29c1.87,1.6.15,2.15.11,3.8-.03,1.16-.17,1.92-.82,2.94-.09.54-.03,1.59-.21,2.19l-1.05,3.63c-.03.12-.64.31-.63.43l.05.56c.04.53.33,1.42.32,1.89-.02.63-.1,1.45.01,1.95-2.78,4.38-.63,3.09-2.21,6.88-.12.29-.38.92-.43,1.21l-.35,1.85c-.14.75-.21,1.53-.3,2.35s-.52,1.62-.7,2.34c-.33,1.31-.48,2.53-1.07,3.81l1.24.46-4.07.77c-2.75.52-4.26,2.41-5.07,4.88l-2.55,7.74c-2.4,7.28-4.18,14.59-5.62,22.1l-1.27,6.62c-4.27-1.47-13.45-5.06-17.66-5.42l-3.65-.31c2.69-.74,5.93.52,8.48.78.91.45,2.27.79,3.23.2l1.07,1.28.58-.5c.13-.11.47.48.65.56l3.26,1.37c-1.11-1.12-2.4-2.17-3.74-3.11l-2.57-1.81c-.58-.41-1.26-.8-1.83-1.16.57-.37,1.06-1.2.57-1.61-.63-.52-1.51-.04-2.23.39l-5.37-3.62-4.12-2.82c-2.43-1.66-3.54-2.85-7.3-1.99-5.33,1.23-8.36,6.41-12.84,8.85l-6.03-3.9.52-.26c.15-.08.14-.72,0-.85l-2.44-2.19.38-1.33.39-.88.89-2.62c-.88.31-1.58,1.11-1.73,1.76l.59.23c.08.03.1.1.04.15l-.36.29-.63.5c-.49.39-2.03-3.27.04-6.06,3.6.31,1.64-.83,3.72-1.67l-.47-.45c-.33-.31,2.47-1.8,2.26-1.92l.53.31c.06.04.35-.05.41-.09.09-.06.17-.29.07-.33l-.54-.23,1.4-.56c1.43-2.25,1.9-.52,4.64-3.24l.41-.22c.13-.07.26-.52.12-.57l-.74-.26.72-.23c.15-.05.37.17.57.29ZM5.48,146.79c.14.19,1.03.27,1.01.07-.02-.16,0-.81-.09-.96-1.65-2.59-6.69-2.27-5.71-1.46.92.76,3.12.18,4.8,2.36ZM5.64,151.57c-.24-.23-.75-.63-.93-.51s-.52.44-.67.63l-3,3.64c-.19.23.27.83.6.89.76.14,3.43-3.73,4-4.65ZM32.42,153.56l-1.09-.54c-.21-.1-.58.62-.4.77.68.56,1.03.57,1.67.55.16,0-.03-.7-.17-.78ZM61.59,168.23c.23-.14.31-1.03.11-1.07-.16-.03-.39-.08-.66-.11l-4.44-.58-3.44-.44c-1.89-.24-2.13-1.99-4.57-.71,2.29-.05,4.47,1.8,4.95,3.71l1.75,1.44c2.13-.47,4.42-1.06,6.3-2.24ZM36.44,192.76l2.08-.24c1.38-.16,3.67-1.08,4.45-1.89,1.7-1.76,3.58-3.13,5.93-3.96l4.91-2.71,8.43-4.98,5.81-3.32c.79-.45,1.8-.69,2.61-1.09,1.43-.71,2.69-1.43,4.16-2.27.45-.26.33-1.62-.03-2.04-1.55-1.8-4.59-2.39-6-.52l-1.89.91c-1.16.98-2.27,1.37-3.57,2.08l-3.02,1.65c-1.34.73-2.68,1.26-4,1.99l-3.6,2.02c-1.24.7-2.42,1.69-3.64,2.51l-1.58,1.06c-.92.61-1.72,1.28-2.49,2.07l-1.3,1.34-1.67,1.73c-.64.67-1.33,1.37-1.9,2.19-2.56,3.69-2.97,1.66-3.7,3.48ZM54.74,212.74l6.03-2.86c-.16-.42-.36-.84-.57-.96s-.82-.08-1.06.02l-3.34,1.46c-.95.42-1.57.79-2.52,1.53l1.47.81Z"/>
  <path d="M43.89,15.7l-1.29,3.36c-1.74,4.52-6.49,11.91-9.63,15.49l-2.15,2.46c-1.01,1.15-2.02,2.28-3.21,3.28l-5.71,4.83c-.63.54-1.27.94-1.97,1.42l-2,1.36c-3.92,2.67-13.75,7.26-19.08,8.05l-.06-3.31c0-.45.77-1.15,1.13-1.44l-.24-.25c-.08-.08-.13-.11-.07-.14l.46-.21c.92-.41,2.21-1,3.13-.06-.21.41-.5.75-.45.99.22,1.21,3.56-.55,4.28-.88,2.36-1.08,4.66-1.95,6.87-3.25,4.06-2.4,7.69-5.11,11.28-8.14.67-.56,1.22-1.18,1.83-1.78l1.46-1.43,1.16-1.24c6-6.39,11.84-15.23,13.96-23.96l-.3-3.39c-.08-.92.14-2,.28-2.83.12-.71,1.2-1.15.26-2.07l2.9.06,1.71,1.81c.03.86.23,1.31.95,1.64-.5.5-.54,1.6.06,2.25l3.27,3.5-.29-1.48,2.25,2.17c-.46,2.74.77.26,1.72,4.94-.94-.42-1.63-1.37-2.51-2.03-1.05-.78-1.87-1.86-1.96-3.1-1.22-.26-.87-2.11-1.31-1.56-.07.09-.35.42-.45.37l-1.47-.8c-.18-.1-.91,0-.94-.2-.19-1.28,1.11-1.29.25-2.68l-.61-.99-.98.81.26,1.26.91.74c-.89.5-1.4-.28-1.79-1.09-1.09.02-.48,3.26-.87,4.58-.28.95-.64,1.94-1.02,2.93Z"/>
  <path d="M202.2,146.69c-.87,3.71-4.19,5.08-7.63,5.36-1.72.14-3.13.4-4.41-1.09-.62-.72-.58-1.99-.08-2.9,2.02-3.68,11.31-5.22,12.12-1.38ZM197.62,149.02l-1.65.73c1.2.24,2.88-.67,2.92-1.86.05-1.41-1.69-1.29-2.61-1.32-.8-.02-1.34-.15-1.77.59-1.11,1.87-2.62-.35-3.13.61.69.59,1.47,1.02,2.31,1.25,1.14-1.73,2.91-2.64,4.79-1.63l-.86,1.64Z"/>
  <path d="M18.09,187.6c-.93.45-7.42,2.83-7.78,1.73l1.27-.81c1.82-1.16,3.53-2.27,4.89-4.03,1.82-.73,3.75-.92,5.69-1.27.69-.12,1.1-.55,2-.34-1.47,1.36-4.35,3.88-6.08,4.72Z"/>
  <path d="M66.89,17.34c-1.68-1.15-3.06-2.81-4.36-4.59l-1.01-1.38-4.4-4.97c-.5-.57-1.08-1.23-1.61-1.71-.68-.63-1.16-.97-1.51-2.02.39-.06,1.57-.22,1.91.14l1.59,1.78,4.54,5.09.17,2.16c1.59,1.78,3.15,3.35,4.68,5.51Z"/>
  <path d="M2.69,198.49l-.51-1.06c-2.58,2.48-1.78,2.83-3.32,5.35l-.09-4.86c2.57-1.72,3.77-1.13,6.47-2.84.33,1.31-.84,1.67-1.36,2.53-.31.5-.75,1.52-1.17,1.92-.11.1-.4-.69-.26-.7l.61-.05c.07-.66.09-.95-.36-.29Z"/>
  <path d="M106.11,214.8l-1.06-.62c-.16-.51-.32-.82-.92-1.25l1.19-.89c.37.89,1.44,1.82,2.11,1.36,1.82-1.23,1.7-3.41,1.04-5.38,1.96,2.31,1.02,5.69-1.33,7.43-1.88,1.39-4.16,1.83-6.25.65.17-.3.31-.56.27-.49,1.9,1.13,3.5.6,4.95-.81Z"/>
  <path d="M19.32,102.55c.4,1.97,2.52,1.84,2.06,2.29-1.27,1.22-1.69-.06-2.77,1.83-.14-.03-.57-.31-.78-.5-.19-.17.14-.68.42-1.03l-2.92-2.97c.11-.29.35-.81.54-.81.22,0,.44.55.65.61l2.02.57c.05-.23.08-.36.13-.47.07-.14.61.29.65.47Z"/>
  <path d="M186.79,141.83c-1.18-.78.08-2.22,1-2.59,1.2-.48,3.02-.94,3.56.53-.24,1.69-2.93,3.12-4.56,2.05Z"/>
  <path d="M113.68,218.28l.83-3.89c.67,0,1.21-.36,1.32-1.02l.65-3.66c.58-1.21.81-2.39.95-3.78.37,1.47-.15,2.92-.43,4.48-.79,4.38-1.58,6.79-3.66,10.75-.29-1.1.13-1.85.35-2.88Z"/>
  <path d="M24.43,108.6c2.46,1.91-6.48,1.35-5.69-1.2,1.92-.76,4.11-.02,5.69,1.2Z"/>
  <path d="M92.52,232.35c1.84-1.73,2.88-4.23,1.79-6.67-.5-1.13-2.35-1.89-3.44-1.66-3.54.76-6.53,4.31-5.2,7.86-1.07-.56-.6-1.61-.61-2.5-.05-3.44,2.65-6.28,6.12-6.06,1.71.11,3.11.85,3.53,2.56.56,2.27.45,4.73-.98,6.58-1.83,2.39-5.3,2.89-7.33.56,2.29,1.09,4.33.99,6.12-.69Z"/>
  <path d="M97.04,199.79c-1.03.43-2.24.64-3.13.13-2.57-1.43-2.23-2.73-1.64-5.55.38-1.79,1.64-3.17,3.5-3.51-1.57,1.37-2.99,2.92-3.2,4.94-.18,1.75.54,2.81,1.94,3.44.73.33,1.15.38,2.53.54Z"/>
  <path d="M104.04,211.58c-.11.04-.53-.44-.59-.34l-.29.48-.41.67c-.11.18-.74-.28-.89-.42-.75-.68-.49-2.05.21-2.68.63-.58,2.17-.79,2.65-.02s-.1,2.12-.68,2.32Z"/>
  <path d="M97.71,194.88c-.1.23-2.45,1.3-2.35,1.28-.27.05-.77-.49-.84-.79-.19-.9.01-1.92.85-2.34.68-.35,1.96-.55,2.39.28.17.33.1,1.23-.05,1.58Z"/>
  <path d="M79.33,10.67c-.84-.63-1.68-1.31-2.34-1.88l.51-.81c.23-.37-.96-1.13-.38-1.57l5.38,6.03c.28.32.87.39.65,1.09l-3.82-2.87Z"/>
  <path d="M89.83,229.41l-.36-.4c-.4-.44-.18.98-1.08,1-.24,0-.67-.36-.79-.59-.52-1.07-.1-1.92.56-2.63s2.25-.57,2.76.28c-.51.7-.92,1.55-1.1,2.35Z"/>
  <path d="M5.49,60.12l-6.37.8c-.41.05-.34-1.56.06-1.44l1.57.47c.11-.78.45-1.09.88-1.19.85-.2,1.33,0,1.74.71.61,1.04,1.72-.49,2.11.66Z"/>
  <path d="M107.7,30.61l-.82,2.19c-.78-1.05-.2-2.46.72-3.52,1.2-1.38,3.31-1.92,5.22-1.82-1.09.52-1.96.97-2.85,1.59l-2.27,1.56Z"/>
  <path d="M40.33,172.22l.41.54c.1.13-.6.41-.79.37-1.22-.3-2.52-2.07-2.48-3.3.01-.33.83-.95,1.13-.78.57.32.92,1.37.83,1.98l.9,1.19Z"/>
  <path d="M98.01,10.15c-1.61.53-1.62-1.25-2.18-1.88l-3.3-3.72-1.65-1.84c.14-.06.69-.23.82-.1.16.17.39.43.63.72l3.93,4.68,1.75,2.13Z"/>
  <path d="M188.19,125.61c.09.95-1.91,1.23-1.67,1.48l-.36-.36c-.08-.08.35-.28.4-.35l-1.13-1.42c.47-.52.98-.54,1.73-.38.47.1.99.54,1.03,1.03Z"/>
  <path d="M57.78,226.45c-.02.08-1.97.32-2.46-.48l-.99.31c-.05-.49-.15-.75-.53-1.36-.23-.45-.42-.29-.67.41l-.35-.9c.8-.39,2.36.57,2.35.59l-.45.49,1.32.33c.42.14.99.25,1.25.16l-.76-.16c-.09-.02-.18-.3-.09-.33.13-.06.52-.17.65-.12l.63.25c.18.07.15.63.09.81Z"/>
  <path d="M33.36,219.3l-4.82.26-4.01.2c1.03-.83,2.25-.55,3.31-.65,1.83-.17,3.66-.38,5.53.19Z"/>
  <path d="M2.85,44.51l-.79.29c-.16.06-.4-.61-.55-.71-.89-.37-2.56-.84-2.68-2.22.87,1,1.99,1.98,3.22,1.84.15-.15.53-.75.67-.6l.64.69c.14.15-.32.64-.52.71Z"/>
  <path d="M51.03,224.93l-1.5-.86-1.09.36c1.28-1.88,2.8-.21,4.09.13-.04.11-.24.5-.42.57-.23.08-.87-.07-1.08-.19Z"/>
  <path d="M145.5,41.14l-3.57-4.17c-.61-.72-1.29-1.35-1.62-2.29,2.01,2.22,3.57,3.52,5.19,6.46Z"/>
  <path d="M130.44,22.49c-.7-.66-1.25-1.36-1.88-2.15l-2.45-3.06c.75.04,3.78,3.96,4.33,5.2Z"/>
  <path d="M125.91,16.84c-1.37-1.31-2.74-2.85-3.85-4.83,1.35,1.37,2.72,2.78,3.85,4.83Z"/>
  <path d="M98.6,199.19c-.15.03-.65-.46-.55-.54s.38-.44.49-.49l1.91-.85c-.3.78-1.17,1.74-1.85,1.89Z"/>
  <path d="M136.88,30.33c-1.32-1.13-2.46-2.61-3.57-4.24,1.42,1.14,2.42,2.5,3.57,4.24Z"/>
  <path d="M133.26,52.27l-.8.41c-.18.09-.55-.35-.73-.45l-1.05-.59c.87-.28,1.83-.22,2.58.64Z"/>
  <path d="M102.02,17.03c-.03.08-.39.3-.44.24l-.3-.36-1.24-.79,2.33-.12-.34,1.03Z"/>
  <path d="M47.66,224.41l.06-.69c.01-.19-.29-.22-.83-.33-.03-.01-.07-.12,0-.17l.57-.37c.2-.13.52-.23.71-.18.54.14-.27,2.91-.51,1.74Z"/>
  <path class="cls-1" d="M368.7,245.71l-5.09-.27c-.19,0-.49.26-.6.19l-.66-.42c-.73.83-1.77.57-2.67.14l-3.65.32-2.68.16c-1.55.09-2.73.16-4.16-.15-.1-.02-.56.12-.52.22.05.13-.17-.37-.27-.6l-.45.29c-.1.06-.32.09-.44.06-.16-.03-.19-.67-.03-.7l1.27-.22c1,.28,3.41.18,4.5.04,4.63-.62,4.61.89,5.58-.24l4.22.2,1.1.04,1.77.03c.76.01,1.7-.16,2.52-.18l7.86-.19c.87-.02,1.86.09,2.69.13.79.04,1.62-.11,2.49-.12h3.06c.07-.01.31.29.37.32.05.03.17,0,.18-.06l.07-.35,2.69-.22,15.76-.16,15.04-.21c.65,0,1.36.03,2-.02l1.66-.11c1.37-.09,2.94,0,4.17.23,0,.28.02,1-.1.94l-.81-.37-.51.28-.78-.37c-.18-.09-.35.64-.54.69l-.81.22c-.28.08-.71-.02-1.16-.08-1.88-.28-3.8-.1-5.71-.05-.57.01-1.02.16-1.41.47-.68-.31-1.52-.39-2.48-.2-.56.12-1.55-.23-2.12-.18l-4.53.34-2.98.29c-.26-.33-3.6-.29-4.07-.3l-2.56-.03-4.14.16c-.56.02-1.26-.07-1.71-.19-1.48.27-3.03.33-4.61.09l-2.04-.3c-1.11.32-2.46.5-3.54.24-.67-.16-1.01-.04-1.68.04l-2.25.27-.18-.53c-.04-.11-.44.38-.57.38l-5.13.08-1.36-.05Z"/>
  <path class="cls-1" d="M52.64,244.21c-.75-.26-3.54-1.1-4.2-1.08-1.4-.57-3.01-1.22-4.52-1.16-.2-.21-.47-.75-.69-.73l-.98.07c-.34-.21-1-.65-1.36-.7l-3.03-.44c-.97,2.58-.16,2.87-1.19,4.37-.44.64-.57,1.34-.83,2.08l-1.22,3.39c-.25.68-.45,2.15-.63,2.84-.05.2-.75-.02-.7-.21l.26-.85,1.01-3.36c.22-2.74.46-1.15,1.07-5.25l.56-3.74c.13-.87,1.31-1.01,2.07-.77l15.38,4.77,5.56,1.88c3.25,1.1,6.49,1.86,9.7,3.05.12.05,7.36,3.56,6.2,4.32l-3.53-1.99c-3.57-2.01-.45-.7-4.42-1.83-.63-.18-1.51-.32-1.97-.51l-2.71-1.1c-.78-.31-1.65-.19-2.48-.31-.62-.09-1.67-.77-2.38-1.02l-4.97-1.73Z"/>
  <path class="cls-1" d="M316.16,241.77c.47-.22.66-.58.13-.53l-.75-.04c-.1,0-.09-.33-.09-.44l2.47.26c.04.32.18,1.03.31,1.37.07.17.94-.03.93-.21l-.08-.75c.08.01.64.2.82.21l2.3.16,1.05.73-.63.91-1.3.2c-.45.07-2.54.14-2.82-.62l-1.48.05.54-.87c.09-.15-.09-.47-.25-.71l-.38,1.13c-.69.05-1.67-.1-2.36-.32l-.52.3c-.15.08-.43-.16-.67-.31-.09.02-.35.29-.48.24l-.67-.28c-.1-.04-.4.12-.5.19-.75.53,1.48-.05,2.43,1.54l-1.05.05c-.29.01-.62-.52-.85-.83-.63.25-1.59.5-2.33.31l-7.38-1.97c-.8-.21-1.67-.53-2.46-.84-1.15-.46-2.3-.79-3.5-1.16-3.03-.94-1.91-.35-4.97-1.82l-1.64-.79c-.32-.15-1-.35-1.29-.55l-1.13-.83,1.75.07,2.6,1.34c.71.36,1.46.6,2.1.57l.17.76c.03.13.53-.1.66-.05l2.23.76c1.03.35,1.81.98,2.96.79l-.13.55c-.03.12.32.06.49.12.53.21.91.16,1.39-.08l1.43.12.36.6c.1.16.78.04,1.03-.03,1.07-.33,1.79,1.04,1.91.25l.07-.45c.02-.13-.33-.02-.51,0-.32-.4-.79-.8-1.29-.96l-1.22-.39c-.93-.3-1.8-.64-2.8-.9-.93-.24-1.82-.52-1.6-1.72l1.46.22c2.69.4,1.68-.35,4.11,1.81.64-.29,1.56-.43,2.37-.19l2.52.73,2,.63-.33.2c-.07.04-.26.35-.18.35l.62-.03c.09,0,.51.16.46.24-.07.12.17-.35.27-.54.83-.41,2-.14,2.54.54l-1.46.3,1.51.64c.15-.13.35-.29.31-.26l.22.63c.04.13.42-.25.61-.39Z"/>
  <path class="cls-1" d="M345.63,245.67l-2.41-.17c-1.24-.08-2.37-.08-3.53-.21-3.17-.35-1.27-.63-3.3-.17-.64-.19-1.52-.43-2.12-.51l-1.66-.22c-.29.14.06-.03.25-.12.52-1.05,1.37-.75,2.12-.67l1.82.21c.76.09,1.39.12,2.15.13,4.2.08,1.72.5,5.29.5h1.79s1.08,1.11,1.08,1.11c-.02.11-.86.14-1.47.09Z"/>
  <path class="cls-1" d="M234.13,158.47c-.77-.46-1.48-1.09-2.17-1.69l.16,1.83c-1.65-1.42-1.66-3.7-.34-5.42l1.36.98c1.21.86,2.76,2.45,2.32,3.82-.11.33-1.01.68-1.33.48Z"/>
  <path class="cls-1" d="M212.65,176.04c2.01,2.13,3.77,1.43,3.69,1.99l-.08.59c-.05.36-2.16-.06-3.37-.87s-5.09-4.97-3.36-6.59c.45,2.73.91,2.53,3.12,4.88Z"/>
  <path class="cls-1" d="M146.87,160.15c-1.14,2.42-.88-2.79.67-3.8l.09-.46c.03-.14.37-.23.73-.34.06.06-.01-.31-.11-.3l-.53.02.75-1.5c.18-.36.38-.76.6-1.27.14-.32,1.2-.4,1.2.02.01,1.43-1.63,2.06-1.23,3.49-.72.54-1.12,1.22-1.29,2.15-.1.53-.65,1.5-.88,1.99Z"/>
  <path class="cls-1" d="M132.67,212.58c-.32.92-.48,1.68-1.12,2.55-.54-.92,1.3-4.54,1.28-4.47l.84-3.42c.16-.67.49-1.2.9-1.78l.26-.37c.05-.07.18-.06.24,0,.59.49-.25.46-.65,2.87-.1.63-.55,1.15-.7,1.59l-1.04,3.03Z"/>
  <path class="cls-1" d="M139.84,191.62v.61c.02.21-.99.17-1.04-.03-.11-.44.22-1.28.27-1.74.07-.55.5-4.26,1.89-3.99-.01.15-.15.83-.19,1.12l-.22,1.46c-.13.87-.29,1.66-.71,2.57Z"/>
  <path class="cls-1" d="M157.69,74.54c.1.12.34.38.35.37,0-.01-.18.18-.36.36-.86-.74-1.78-1.62-2.56-2.57l-2.56-3.06c1.15-.26,1.51.67,2.1,1.35l3.04,3.55Z"/>
  <path class="cls-1" d="M221.92,165.57c-.67-.67,0-1.17.35-1.63l-.38-.58c-.11-.17.37-.73.36-.98-.04-.94.48-2.16,1.42-2.88.35-.27-.27-1.3.9-1.32l-.81,2.16-.9,2.37c-.05.12-.58.38-.51.47l.52.63-.96,1.74Z"/>
  <path class="cls-1" d="M146.37,61.28c.08.1-.35.71-.41.63l-.3-.37-1.62-2-2.17-2.66c-.55-.16-.46-.5.22-.64l4.28,5.04Z"/>
  <path class="cls-1" d="M108.35,243.12c.17-.49.69-.91,1.07-1.16.05-.13-.05-.53.07-.62l.72-.53,1.11-1.05c.37-.35.83-.75,1.18-1.04.11.15.3.53.21.62s-.34.32-.43.42l-1.46,1.67c-.68.78-1.31,1.42-2.46,1.69Z"/>
  <path class="cls-1" d="M129.41,228c-.28-.22-.64-.41-.6-.58s.2-.61.31-.77l1.23-1.84,1.4-2.25c.17.58-.06,1.35-.4,1.95l-1.94,3.49Z"/>
  <path class="cls-1" d="M328.81,242.94s.21.4.29.56-.36.46-.53.51l-2.25.77c-.37-.2-.29-1.15-.04-1.56l-.31-.24c-.07-.05.03-.41.11-.37l.59.34,1.64-.28-.44,1.19c.29-.22.55-.49.93-.92Z"/>
  <path class="cls-1" d="M140.55,184.25l.55-1.29c-.06-.75.36-1.29,1-1.64l-.03-1.12c.22.02.63.24.74.43s-.2.69-.27.93l-.77,2.72-1.21-.03Z"/>
  <path class="cls-1" d="M173.27,134.3l-1.09-.6,1.79-2.75c.71-1.09,1.73-1.94,3.1-2.19l-1.94,1.51c-.65.51-1.93,2.48-1.86,4.03Z"/>
  <path class="cls-1" d="M172.51,139.68c-.8.09-.98-.54-1.57-.81-.75-.35-1.63-1.11-1.65-2.01.06-.24.98-.31,1.15-.07l2.06,2.88Z"/>
  <path class="cls-1" d="M167.87,87.22c-.36.06-.84-.18-1.1-.5l-3.13-3.8c-.1-.12-.2-.4-.21-.51-.02-.15.55-.06.67.1l3.77,4.72Z"/>
  <path class="cls-1" d="M176.37,97.86c.25.65,1.09.81.94,1.61-1.59-1.68-2.95-3.39-4.41-5.29,1.64.72,2.82,1.97,3.47,3.68Z"/>
  <path class="cls-1" d="M282.11,231.7l.71.49c.14.1-.34.58-.39.55-1.1-.49-3.35-2.35-3.67-3.13,1.36.63,2.23,1.3,3.35,2.08Z"/>
  <path class="cls-1" d="M135.58,49.31c.57.26,5.05,4.88,4.43,5.32-1.58-1.68-3.05-3.44-4.43-5.32Z"/>
  <path class="cls-1" d="M172.37,93.45l-2.9-3.46c-.47-.56-1-1.04-1.04-1.87l2.89,3.39c.47.55,1.18.86,1.05,1.94Z"/>
  <path class="cls-1" d="M204.12,129.58l-1.78-2.01.68-.47,1.74,1.96c.1.12.42.39.33.49l-.39.4c-.09.09-.45-.21-.58-.36Z"/>
  <path class="cls-1" d="M231.06,150.88c-.44.34-.9.65-1.43.09l2.7-1.86c.07-.05.37-.08.44-.05s.23.19.18.25c-.07.09-.31.36-.42.45l-1.47,1.13Z"/>
  <path class="cls-1" d="M162.65,81.41c-.74-.43-1.47-1.2-2.08-1.92l-1.55-1.83-.26-.31c-.05-.06.05-.44.12-.39.1.07.49.29.6.43l3.18,4.03Z"/>
  <path class="cls-1" d="M118.75,232.59l-.49-.4,1.79-2.63.65-1.25c.45,1.26-.55,1.86-1.05,2.73l-.89,1.55Z"/>
  <path class="cls-1" d="M127.5,39.73l-2.94-3.36c-.1-.16.19-.61.29-.35l.99.92c.76.71,1.34,1.61,1.66,2.78Z"/>
  <path class="cls-1" d="M416.91,227.28c-.03-.19-.01-.86.18-.86h1.03c.84,0,1.61-.6,2.55.08l-3.76.79Z"/>
  <path class="cls-1" d="M152.26,69.15c-1.27-1.02-2.47-2.36-3.34-4.07,1.26,1.21,2.3,2.41,3.34,4.07Z"/>
  <path class="cls-1" d="M51.8,239.41l-2.38-1.13,2.37-.8-.44,1.03c-.08.2.22.47.44.91Z"/>
  <path class="cls-1" d="M45.7,247.72l-1.23-.61-.07.64c-.02.19-.85.15-.78-.02.08-.2.44-.69.38-.85l-.21-.58,1.64.53s.11.39.26.9Z"/>
  <path class="cls-1" d="M240.57,194.04l-1.08,1.52-.53-1.52c.22-.45,1.32-.42,1.61,0Z"/>
  <path class="cls-1" d="M416.06,227.02v-.44c0-.08-.24-.3-.26-.22l-.19.68-.63-.91,1.4-.65c.24.73.26,1.03.13,1.49l-.13.45c-.02.07-.18.09-.21.03-.03-.07-.1-.32-.1-.41Z"/>
  <path class="cls-1" d="M182.83,105.68c.92.53,2.59,2.11,2.51,3.12-.91-.96-1.84-1.93-2.51-3.12Z"/>
  <path class="cls-1" d="M45.68,245.51l-.25,1c-.26-.36-.5-.7-.62-.91-.25-.42,1.66-.9,1.7-.71l.14.66c.04.21-.65.05-.97-.05Z"/>
  <path class="cls-1" d="M68.3,238.96c-.06.06-.7-.02-.65-.09l.4-.52c-.24-.43-.59-1.35-.29-1.68.09-.1.75.32.71.44l-.21.58c.17.35.25,1.06.04,1.28Z"/>
  <path d="M368.53,219.92c-.15.24-.37.65-.56.64-.23-.02-.61-.1-1.19-.23l.5-.71c.19-.18.52-.42.77-.53s.62.61.48.84Z"/>
  <path d="M369.76,219.8l.04-.81c.01-.22-.54-.32-.91-.45l1.28-.61.22.63.15,1.04c.03.24-.79.44-.78.2Z"/>
  <path d="M261.64,139.36c-1.38.5-2.88.89-4.7,1.09,1.39-.58,2.87-1.03,4.7-1.09Z"/>
  <circle cx="406.93" cy="214.58" r=".15"/>
  <path d="M120.13,253.24c2.13-1.84,3.93-3.77,5.84-5.78,4.08-4.29,7.17-9.21,10.07-14.37.11-.2.41-.6.54-.51s.36.42.32.57l-.18.69c-.29,1.11,5.01-.78,4.85-2.13-.07-.59-1.33-.77-2.27-2.01l2.94-.32,4.44-.55c1.11-.14,1.83-.1,2.72.65l6.25,5.27c.21.18.47.74.41.99s-.61.53-.9.58c-4.53.74-19.14,8.08-23.62,10.69l-6.67,3.9c-2.27,1.33-4.31,2.81-6.43,4.4-.27.2-.62.33-1.02.27l2.71-2.34Z"/>
  <path d="M252.19,220.85l-2.26-2.68-1.35-1.53-1.92-2.16c-1.14-1.28-2.13-2.44-3.42-3.56l1.93-.68,3.27,3.91,3.61,4.38,1.59,1.94c.8.98,1.88,1.77,1.44,3.38-.97-.88-1.93-1.88-2.88-3Z"/>
  <path d="M204.45,287.77c-.8-.84-1.65-.86-2.58-.28l-2.18-.98-.17-3.56c0-.09.1-.44.16-.5l.24-.23c.09-.09.27.44.37.53l3.08,2.81c.63.57,1.56.85,1.09,2.2Z"/>
  <path d="M173.65,254.57l-3.75.21c-.2-.32.05-1.37.62-1.6,1.01-.4,3.44-1.09,4.24-.43.61.5-.69,1.8-1.1,1.83Z"/>
  <path d="M308.55,287.61c-.03.41-.56,1.23-.76,1.64-1.03-.39-1.17-1.35-1.21-2.27s-.32-2.09.85-2.55c.42-.16,1.31.6,1.28,1.07l-.16,2.12Z"/>
  <path d="M107.77,262.98l-2.24,1.91.09-1.74c1.86-1.08,3.48-2.12,5.62-3.06-.85,1.22-2.25,1.85-3.48,2.9Z"/>
  <path d="M393.69,267.08l-1.03.43.04-1.14c.19.18.37.47.52.41l.56-.22-.86-.8c.03-.11-.1.45-.18.35l-.37-.43c-.08-.1.37-.27.49-.28.42.01,1.46-.02.92.32l1.37,1.5-.84.41c-.16.08-.1.32-.26.76-.33-.33-.37-.56-.38-1.31Z"/>
  <path d="M177.83,256.75c-1.06.73-2.38,1.22-3.23.03l1.89-.79c.21-.09.79-.21.97-.09.21.14.42.69.37.84Z"/>
  <path d="M166.4,248.03c-.71.51-2.06.53-2.87.08.74-.95,1.95-1.15,3.16-1.15.04.13-.1.93-.29,1.07Z"/>
  <path d="M411.11,266.92l-.13-1.03c-.02-.17-.67.08-.72-.09l-.19-.55c-.04-.12.44-.09.56-.05l1.56.55-1.07,1.17Z"/>
  <path class="cls-1" d="M314.94,267.21l-.37-.36c-.06-.06-.35.03-.33.11l.16.59-1.27-.05c1.58-1.96,8.29-4.79,10.67-5.48l4.69-1.34c-.68.88-1.62.88-2.46,1.2l-5.37,2.03c-.92.35-1.77.49-1.82,1.58-.27-.1-4,.83-3.71,1.12l.39.59c.06.09-.5.08-.58,0Z"/>
  <path class="cls-1" d="M320.45,267c-.16.35-.63,1.06-.9,1.43-.76-.87-.53-1.65.32-2.28.02-.04.67.64.57.84Z"/>
  <path class="cls-1" d="M36.44,192.76c.73-1.82,1.14.22,3.7-3.48.57-.82,1.25-1.52,1.9-2.19l1.67-1.73,1.3-1.34c.76-.79,1.57-1.46,2.49-2.07l1.58-1.06c1.22-.82,2.4-1.81,3.64-2.51l3.6-2.02c1.31-.74,2.66-1.26,4-1.99l3.02-1.65c1.3-.71,2.41-1.1,3.57-2.08l1.89-.91c1.41-1.87,4.45-1.28,6,.52.36.41.48,1.78.03,2.04-1.47.84-2.73,1.56-4.16,2.27-.81.4-1.83.64-2.61,1.09l-5.81,3.32-8.43,4.98-4.91,2.71c-2.36.83-4.23,2.2-5.93,3.96-.78.81-3.08,1.72-4.45,1.89l-2.08.24Z"/>
  <path class="cls-1" d="M61.59,168.23c-1.88,1.18-4.16,1.77-6.3,2.24l-1.75-1.44c-.48-1.91-2.66-3.76-4.95-3.71,2.44-1.28,2.68.47,4.57.71l3.44.44,4.44.58c.26.03.49.08.66.11.2.04.12.93-.11,1.07Z"/>
  <path class="cls-1" d="M54.74,212.74l-1.47-.81c.96-.74,1.57-1.12,2.52-1.53l3.34-1.46c.23-.1.85-.14,1.06-.02s.41.54.57.96l-6.03,2.86Z"/>
  <path class="cls-1" d="M5.64,151.57c-.57.92-3.24,4.79-4,4.65-.33-.06-.78-.67-.6-.89l3-3.64c.15-.19.49-.51.67-.63s.69.28.93.51Z"/>
  <path class="cls-1" d="M5.48,146.79c-1.67-2.18-3.88-1.6-4.8-2.36-.98-.81,4.06-1.13,5.71,1.46.1.16.08.81.09.96.02.21-.86.12-1.01-.07Z"/>
  <path class="cls-1" d="M32.42,153.56c.15.07.34.77.17.78-.64.02-.98.01-1.67-.55-.18-.15.2-.87.4-.77l1.09.54Z"/>
  <path class="cls-1" d="M197.62,149.02l.86-1.64c-1.89-1-3.65-.1-4.79,1.63-.84-.23-1.62-.66-2.31-1.25.51-.96,2.02,1.26,3.13-.61.43-.73.97-.61,1.77-.59.92.02,2.66-.09,2.61,1.32-.04,1.19-1.73,2.1-2.92,1.86l1.65-.73Z"/>
  <path class="cls-1" d="M64.36,231.52c-.08,1.22-1.25,1.72-1.53,1.74l-1.97.15.83-1.41c-.54-.56-.88-.99-.72-1.59l.98,1.29c.06.08.42.19.51.24s0-.24-.07-.5c.19-.33.49-.73.79-.69.46.06,1.2.4,1.18.76Z"/>
</svg>