<?xml version="1.0" encoding="UTF-8"?>
<svg id="Layer_2" data-name="Layer 2" xmlns="http://www.w3.org/2000/svg" viewBox="0 0 432 288">
  <defs>
    <style>
      .cls-1 {
        fill: #fff;
      }
    </style>
  </defs>
  <path class="cls-1" d="M-5.72,288.33V-4.48h436.96v292.81H-5.72ZM167.66,20.97c-.36-.3-1.38-.46-1.89-.25-.41.17-.81.87-1.04,1.42,1.29.27,2.25,0,2.93-1.17ZM83.93,144.33c.38-.32,1.22-1.23,1.77-1.4.83-.26,1.43.95,1.72,1.42,3.88.1,4.47-1.75,4.54-1.74,2.86.68.59-.49,4.08-.66,1.02-.05,1.78.13,2.67.36l1.87.48c2.25-1.92,1.88-.08,3.09-2.5.11,0,.68.55,1.15,1.1-.14.06.26-.11.38-.16.62.4,1.98,1.1,2.6,1.02l2.44-.3c1.51-.19,3.07-.46,4.57-.15l1.45-1.38.59,1.19c.06.12.44.46.5.35l.32-.55c.11-.19.38-.94.55-.8l.75.63.73-.89c.16-.2.99.25,1.24.2.48-.11,1.08-.86,1.71-1.49.33-.09.96.96,1.11,1.47.24-.13.96-.46,1.3-.56.68-.2.5,1.24,1.93,1.36.18.02.52-.21.46-.39l-.29-.89,1.42.06c.27.59.57,1.23.99,1.94.68-.55,1.59-1.45,2.07-1.93.15-.16,1.15-.17,1.16-.39l.03-1.13c.15-.22,1.12.02,1.51.31.88.67-.6,2.53-.85,2.37l-.95-.63c-.17-.05-.69,1.3-.41,1.56.85.79,4.74.82,3.46,1.47l-.55.28-.76.39c-.18.09-.02.82.18.81l.82-.03c.3-.01,1.38.15,1.24.41l-.53,1.03c-.16.32-.6.86-.92.92-.43.08-2.18-1.9-2.04-.92l.13.86c.06.37.07.92.32.88l1.09-.14c.28-.04.24.91-.03.99l-1.11.33c-.22.07-.65.41-.77.59s.46.55.63.42l.65-.53c.23.42.28,1.25.06,1.57l-1.28,1.97-.04-1.57c.1-.3.31-.7.14-.67-.19.04-.85-.01-.8.14l.24.69c.1.29-.77.71-.76,1.01.02.44.17,1.27-.06,1.54-.19.22-.98.52-.93.4l-.26-1.2c-.04-.2-.84-.05-.83.16l.04.77.7,1.18c-.56.19-1.33.32-1.28.6l.18,1.1c-1.41.72-2.49,2.05-2.74,3.6l-1.21,1.27,1.77,1.2-1.21.19c.36,1.2-.51,3.03-1.59,3.33-.18.05-.92-.36-.95-.19l-.16.96c-.03.18-.18.65-.25.81s-.58.13-.66-.03l-.43-.91c-.04-.59-.08-.68-.2.02l-1.56.78c-.16.08-.55.61-.43.73l.52.49.63-.96c.1-.15.65.16.67.34.06.51-.18,2.42-.33,3.13l-.66,3.16-.66-.14c-.1-.02.07-.42.05-.51l-.14-.7c-.12-.63-1.16.68-1.96.25-.29-.16-.67-.39-.73-.24l-.29.65c-.06.15.76.24.76.4,0,.51-.48,1.4-.9,1.93-.33.41.09,1.77.58,1.88.16.04.62-.07.78-.1.11-.02.18.36.11.45l-.43.52-2.11,3.28c-.25.39-1.29-.05-1.66-.55,0-.01-.41.15-.5.21l-.98.6c-.21.13-.57-.59-.42-.79l.6-.79c-.39-.21-1.84-.08-1.8.46.1,1.01-.16,2.26-1.11,2.22-.46-.24-.78-.5-.98-.38-1.43.86,2.61,3.35,1.98,4.13l-.74.92c-.26.32.43,1.34.82,1.16l1.35-.62.66-.64c.14-.14.63.37.54.54l-.43.75c-.1.18-.25.68-.3.88-.03.13.45.12.55.02l.57-.51c.08-.07.43.25.5.34l.52.6c.24.27.55-1.69,1.16-1.25l.76.54c.21-.79.95-1.13,1.8-1.31.52-.11.56-1.5.76-2l.54-1.33c-.93.23-1.55.27-2.03-.28l2.93-.44c.46-.07,1.32.31,1.56.51.03-.14.02-1.04.27-1.09l1-.18-.58-1.24.89-.63-.42-.94c-.08-.18.23-.52.36-.63.48.62.89,1.25,1.31,1.34.36.08,1.1-.44,1.45-.65l1.97-1.17c.58-.86,1.12-1.39,1.86-2.04-.59.06-1.44.18-1.87.07s-.75-1.08-.88-1.56l-.3-1.1c-.05-.17-.7.08-.87.03-.31-.09-.69-.84-.47-1.06l.96-.97-1.26-1.1c.62-.22,1.24.04,1.73.46l1.82-1.1-.47,1.79c.1.11.66.39.75.25l.5-.82c1.11.09,2.74.9,2.59,2.64.1,0,.65.07.65.07-.08-.89-.21-1.43.03-1.68s1.07-.49,1.53-.64c.3-.1.35-1.15.67-1.11l1.5.18.77-2.36c.07-.21,1.05.03,1.23.16s.35.51.29.57c-.41.45-.62.68-.52.57l2.76.34c.9.11,2.46-1.35,2.67-2.23.06-.23-.72-.74-.61-.95l.41-.77.77.92c.8.96.49-2.58.83-2.6.26-.01.87,0,1.25.01.19,0,.24-.46.12-.58l-.39-.42.98-1.8c.29-.15,1.12.17,1.7.49l1.27-1.01c1.21.2,2.61-.9,2.78-2.16.76.32,1.22.51,1.69.64.33.09.58-.68.8-1.05.18,0,.65.07.6-.04s-.12-.62-.04-.7l1.5-1.67c.29-.31.93.86,1.17,1.59l1.38-1.42c-.48-.33-1.26-.73-1.11-.98.44-.74,1.54-1.91,1.66-1.37l.18.88c.03.12.12.42.16.52s.19.04.26-.06l.35-.54c.16-.25.48-1.02.23-1.18l-.81-.52c.24-.21.64-.47.55-.6l-.58-.78,1.6.1c.55-1,1.04-1.31,1.8-1.89l1.98-1.49c.35-.27-.38-.84-1.12-1.22-.58-.29-.21-1.83.32-2.26.25.1.77.45,1.01.38l1.46-.41c-1.19,1.46-.3,3.85.67,4.58.19.14.76-.36.63-.55l-.54-.81.1-.5c.6-.07,1.45-.13,1.58-.53.3-.88.57-3.72-.08-4.77l1.75-.19,1.27-2.41c.29.08,1.12.4,1.07.16l-.27-1.42h2.27c1.09,0,2.12-1.19,2.36-2.15.18-.33,1.33.14,1.27.54-.04.24.08.99.25.89l.73-.41c-.12-.27-.32-.8-.34-1.11-.07-.83,2.02-1.75,2.7-1.71-.25.42-.74.9-.5,1.02l1.09.57c.17.09,0-1.07.21-1.07h.62s.58-.02.58-.02c1.08,0-1.11.87-.98,1.01.24.25.36.49.52.47l1.08-.18c.02.09-.35.99-.56,1.4l1.58.5.4-1.07.69.86c.1.13.64-.05.81,0l2.63.78c-.23-4.77.96-2.37.42-5.64-.52,0-1.06.18-1.12-.07l-.38-1.54,3.54-.38c.02-.36-.04-1.05.17-1.06l.67-.03c.87-.04-1.09,1.83-.47,2.17.88.29,1.86-.39,2.22-1.39l2.29,2.29.09-1.04c.02-.13.72-.1.82.07l.44.75c.38-.5,1.05-1.1,1.73-1.3l2.46-.75c.25-.86.86-1.6,1.79-2.08l.93-.48c.15-.08-.17-.67-.27-.94l2.76.05c.29,0,.92-.27,1.12-.12l.94.7-.27-2.79.81.83c.78.05,1.39.15,2.21.39l3.5-1.06c.31.16.9.58,1.13.42.19-.13.67-.48.67-.48-.47-.48-.8-.82-.39-.4,1.81-.88,1.33-1.73,3.72-2.73,1.24.98,2.68.18,3.28-.75.76.48,1.54.67,2.36.72.61-.27.82-.39.31-.39-.2-.68-.32-.91-.18-.99.16-.09.51-.27.67-.34.1-.05.19.49.3.86l2.88-1.37c.29-.14,1.04.29,1.25.46l1.91-1.15c.4-.35.94-1.61,1.77-1.47s1.12,1.86.92,2.94c.76.1,1.64-.82,1.96-1.7.33.03.78.15.78-.02l.02-.76.05-1.54c2.53.71,2.43-.77,4.16.36.27.18.16,1.27.42,1.46l1.75,1.33.89-1.99c1.38,1.02-1.07,3.15.99,5.9l1.78.9,1.18-.9,1.16.63c.27.14.73-.64.97-.83l1.01-.79c.41-.32,1.4,1.64,2.39.49.26-.1,1.01.38,1.23.68s.16,1.09.2,1.57c.03.3.81.71.75,1.01l-.26,1.26,1.77.37c.37.08-.16,1.01-.46,1.57l1.02.07c.2.01.27-.57.37-.76l.6-1.12c.21.21.42.51.64.48l1.05-.14c.46.52,3.32,2.46,4.03,2.42l-.57-1.85c.62-.49,1.24-1.2,1.11-1.66-.16-.57-.42-1.36-.13-1.48l.95-.39.33,1.36c.07.31,1.08,0,1.44,0l1.48,2.57c1.01.06,3.09,2.57,3.08,2.75-.03.4-.19,1.31-.26,1.75,3.71,2.18.27,3.81,3.92,3.02.45-.1.47,1.28.27,1.71l.74,1.27c.19-.83.31-1.39.41-1.71s1.13-.26,1.36-.01c.56.58-.13,3.93,2.6,4.37.8.13,1.72.35,2.46.17.53-.13,1.24-1.27,1.24-1.87,0-1.48-1.96-1.98-3.17-1.64l-1.85-3.61c-.25-.48-.35-1.59-.5-2.25l-1.55.15c.1-.9.45-1.49,1.14-2.24l-1.89-1.58-.61-2.61,1.47.37c-.08-.4-.33-.92-.12-.97l.9-.18c.14-.03.42.25.54.33s.53-.05.51-.19l-.16-.84c-.03-.18.2-.49.4-.47.15.02.54.08.51.2l-.14.69-.15,1.57c-1.17-.15-.42.05.11.2.29.4.34.54.43.44l.52-.61-.41-.93c-.11-.26.68-.69.79-.86l.24-1.65c.03-.2-.77-.57-.65-.73,1.19-1.56-.32-1.51.73-2.08.42-.23.91-.08,1.44.11l1.69.44-1.08.86c-.14.11.14.74.31.73.44-.02,1.33-.21,1.42.12l.42,1.41.58-.05.18-3.11,1.15-1.01c.11-.37.14-1.18.44-1.29l1.09-.39c.21-.08.54-.74.76-.71l1.03.15c.97-1.49,1.42-3.62,1.12-5.5-.57-.28-1.72-.94-2.12-1.26.88-.37,2.4-6.23,3.05-5.71l.79.64c.83-1.02,1.55-2.15,1.67-3.51-.67.41-.94,1.13-1.05,1.9l-1.12-1.07c.21-.15.78-.54.62-.62-.15-.08-.44-.29-.51-.2l-.48.55s-.26-.09-.35-.12c-.25-.37-.77-.96-1.04-.8l-1.19.69.24-1.39-.96-.07-1.48-1.05c-.87.3-.74.18-.3-.15.23-.55.65-1.08.41-1.2l-1.07-.55c-.31-.37.92-.66,1.55-.84,1.06-.31,1.46-2.14,2.1-2.93l1.63-1.98c.53-.64,2.49-.67,3.17-1.22l3.15-2.59,2.63-.31.93-1.82.62,1.06c.12.21.76.24.83.19-.74-1.47.45-2,1.47-2.49l2.79-1.34c.7-.33,1.34-1.09,2.05-1.47l2.09-1.11c3.93-2.1,5.58-1.64,6.04-3.59l.82.69c.12.1.54-.4.7-.48l2.44-1.35,1.83.69c-.02-1.04-.08-1.44.36-1.95.36-.42,1.16-.17,1.84.2.31-1.29,1.58-1.89,3.04-2.27l.84-.22c.16-.04-.1-.36-.19-.51l-.44-.7,3.5-.35c.62-.06,1.67.03,2.13.07.56-.93,2.72-2.24,4.11-2.09,1.06.11,1.28-.38,1.95-.96,1.11-.96,2.52-1.91,3.74-2.56.89.2,2.21.58,2.15-.71l3.18-1.8c.91-.52,1.53-1.24,2.54-1.71l3.02-1.42c.94-.44,1.66-.97,2.7-.84,3.66.44,2.41-2.69,4.68-2.81l.99-.05c.2-.01-.11-.8-.13-.92l1.54.17c.35.04.7-1.12,1.05-1.29l5.4-2.69c.79-1.36,1.42-2.26,3.11-2.57s3.27-1.68,4.86-2.43c1.71-.8,3.41-1.72,3.96-3.71.53.02,1.29.03,1.3-.31.01-.36-.21-1.31-.36-.92l-2.49.64-1.06.75-1.82,1.04-1.78.67c-.59.23-1.36.41-2.19.61-.22-.34-.16-1.38.07-1.71s1-.82,1.44-.93l4.03-1.05,1.37-2.03c3.1-4.59,2.55-1.32,7.44-5.08,3.08-2.37,5.55-3.24,7.79-5.17,1-.86,2.94-1.58,4.32-1.9,1.12-.25,1.6-.54,2.5-1.1.64-.4,1.8-.65,2.28-1.27,1.73-2.24,3.17-3.03,3.28-3.69.03-.17-.17-.5-.32-.41-.1.06-.6.3-.74.32-1.49.28-3.22,1.9-4.63,2.47-2.9,1.17-8.93,3.62-10.56,6.35l-2.15-.04c-.62-.01-1.59.31-2.15.48l-1.88.58-5.68,1.82-1.05-.45c-.24-.1-.75.65-.86.92-1.28,2.98-4.16,1.15-5.27,5.66l-.42,1.7c-.19.07-.79.28-.6.21.09-.03-.24-.76-.34-.77-1.6-.18-2.31,2.93-3.42,2.38-1.5-.74-1.25-2.84-3.6-1.93-2.75,1.06.55,2.42-2.41,4.7-.75.57-1.85,1.17-2.75,1.17-2.52-2.68-4.01.86-6.85,1.84-1.07.37-1.85.87-2.8,1.2l-1.34.47c-.24.08-.27.69-.47,1.12-.42.88-2.25.5-2.91.91-.86.53-1.49.75-2.49.86-1.58.17-3.25,1.21-4.84,1.72l-6.02,1.93c-.48,1.6-1.24,1.74-2.6,2.18l-3.99,1.31c-.55.18-1.47,1.15-2.02,1.48-1.58.94-2.88,2.04-4.2,3.11-3.63,2.94-8.84,1.67-12.19,4.27-.86.67-1.59,1.2-2.52,1.74-4.36,2.58-2.21.31-4.65,2.27l-.38-1.18c.57-.8.87-1.94.51-2.94-4.32-.1-3.99,2.35-5.37,2.76-5.1,1.49-1.21-.31-4.83,1.06-3.3,1.25-6.28.06-9.31,3.21-2.14-.15-4.38.43-6.28,1.45-.27.05-.97-.16-1.12.06l-.74,1.06-1.91-.62c-.39.97-.84,1.41-1.66,1.55l-2.45.42c-.35.06-1.05.82-1.3.57-1.23-1.24-.26-2.73-1.01-2.25l-.82.53c-.32.21-.98.5-1.26.55l.12-1.09c.02-.21-.74-.38-.78-.59l-.22-1.25c-.04-.26-.85-.29-1.01-.5l-1.5-1.83c-.16-.16-.86-.02-.94.24l-.31,1.09c-.04.14-.46.51-.47.37l-.03-.68-.06-1.41c-.01-.3-.79-.32-.95-.34l.13-1.18c.03-.23-.96-.27-.79-.14l.2,1.46c-1.02-.45-1.76-.74-2.12-.56.06.46.33,1.61.03,1.68-.76.18-2.41.13-3.21.07l-.62.32c-.34.18-1.13-1.97-1.48-1.46-.48.29-1.28.81-1.55.58l-.86-.74-1.25-.25c-.28-.06.13-1.07.05-1.34-.15-.5-.3-1.2-.31-1.85,0-.94-1.56-1.28-2.22-1.46-.27-.07-.84-1.04-1-.81l-.67.94-.74-.88c-.19-.22-1.1.4-1.32.22l-1.4-1.17c-.3.56-.68,1.01-1.02.98-.32-.02-.67-.76-.71-1.09l-.12-1.08c-.02-.2-.89-.22-.94-.02-.13.51.29,1.46.68,2.19l-1.01.47c-.23.11-.32.62-.52,1.13l-.88-1.67-1.01,1.28c-1.65-1.02-.68-.53-2.9.06-.12.03-.26-.42-.16-.5l.66-.5c-.78-1.12-2.29-1.66-3.92-1.57.13.82.79.91,1.62.98l.7.06c2.32.2-1.4.49-1.43.79l-.1.94-.09.88c-.02.18.66.3.76.14l.45-.7c.11-.17.64-.24.87-.26.18-.02.14.51.04.67-.07.1-.3.36-.4.42l-.76.43c-.16.09.09.8.27.76l1.59-.33-1.39,2.06c-.11.16-.73.25-.75.05s-.1-.87-.28-.95l-2.54-1.09c-.63-.27-1.83.6-2.43,1.03l-1.68-.34-1.07,1.69.73.95c.61-.18,1.23-.02,1.33.42.06.28-.18.79-.42,1.12-1.85,2.56-5.3,2.11-7.59.41l-1.89.02c-.58.55-1.36,1.09-2.01,1.24l-2.27.53c.51-1.47,1.12-2.28,2.21-3.16l.94-1.45.78,1.05c.53-.25,1.93-3.94,2.02-3.76l-.75-1.44,2.51-1.83-1.57-1.64-1.6,2c-.32.39.19,1.9-.63,2.08-.55.12-1.82-.47-2.2-.86l.49-1.03.52.83c.1.16.61.14.8.16s.21-1,.08-1.14c-.47-.48-1.86.15-2.57.26-2.67.42-2.83,1.47-3.01,1.19l-.57-.91c-2.88,1.63-1.14,1.67-2.23,2.55-.13.11-.43.27-.49.11-.06-.18-.26-.76-.25-.72l-1.81.46.65,1.03c-.26.01-.72.02-.81-.14s-.34-.64-.51-.76c-.44-.3-1.15.89-.97,1.38.16.41.74,1.11,1.03,1.15.36-.32.6-.64.65-.51l.26.64c.23.55.29,1.18,0,1.62-.82,1.22-1.99-.59-4.79.04l-2.62-.5.49,1.86.88-.06c.17-.01.46.54.33.65s-.51.41-.69.43l-1.38.11c-.39,2.26-2.81.65-3.63,2.41-.1.06-.58-.73-.33-.88l.92-.57c.23-.14,1.06-.66.87-.86l-.82-.83c-.19-.19-.66.66-.91,1.03l-2.35.12c-.04.1-.04.63.15.7l.7.27c.33.13-.28,1.16-.63,1.22-.29.05-.71,0-1.25-.06l-.69.8-2.74,1.16c-.8.34-1.23.67-1.93,1.55l-1.68-.92c-.14.02-.62.65-.76.5l-.7-.77-.29,1.38-1.54.17c-.49.05-1.59-.08-2.06-.29-1.42-.64-3.18-.53-4.62-.54l-2.48-.02-.56-1.13-1.09.95c-.21.18-.66-.39-1.17-.84l-.35.53.73.66c.21.19-.05,1.44-.11,1.11l-1.58.39-.92-1.52c-.42,1.83-2.11,2.03-3.09,1.72-.22-.07-.89.54-.7.68l.79.55c.45.32,1,.39,1.78.39l-.8,1.56-.54-.52c-.07-.07-.28-.11-.25-.02l.31.97-2.34.83c-.35.13-.78.48-1.46,1.1l2.46.52c.94-.71,1.62-1.05,2.89-1.17l.22-4.64,2.42,1.87-1.65,1.02,1.34,1.93c-1.13.38-1.73.56-2.25,1.1-.33.33-.28,1.44.15,1.61.13.05.82-.14.76-.01-.5,1,.58,1.6.2,2.1l-.92,1.19c-.09.16.14.72-.02.84l-.71.57c0,.59-.19,1.49-.39,1.55-.5-.96-.96-1.78-1.42-2.38-1.33,1.01-1.84.86-3.31-.1l-.25,2.21c-.32-.45-.59-.98-.83-.88l-1.28.54.13-1.46-1.09-1.87-1.57,1.46c-.5-.55-1.72-.93-1.77-.4s.09,1.05-.09,1.26l-.68.78-1.41,2.04.7,1.54c-.56.59-1.11,1.31-1.02,1.6l1.89.72.89-.9c.18-.18.58.61.65.89.24.93.14,1.58-.48,2.26-1.16,1.27-3.01-1.15-3.07.08l-.04.95c-.98.41-1.41,1.36-1.49,2.62l-1.5-.02c.02-1.07.1-1.11.41-.24.27-.27.64-.77.43-.94l-.75-.63c-.17-.14-.61.44-.89.64-.33-.52-.94-1.77-1.49-1.94.06.02-3.87.34-3.84,2.34,0,.59.59,1.42,1.23,1.68,1.56.63,2.49-2.48,3.15-1.63.29.38.52,1.03.63,1.5.3.25.7.38.61.62-.14.39-.44,1.12-.61.92l-.79-.93c-.16-.19-.95.07-1.19.19l1.33,1.23c-1.21.37-2.23.04-3.17-.6-.24-.02-.78.1-.9-.08l-.63-1-1.72.02c-.26,0-.51.6-.57.96-.03.2.46.06.87.03.36.09,1.27.4,1.31.76s-.21,1.14-.27,1.23l-1.59-.98c-.37-.23-.98-.84-1.4-1.19l-.05-.67c-.01-.15-.54-.24-.62-.11-1.16,1.77-1.98,2.11-1.28,2.36l1.12.42c-1.17,1.98-2.33.6-3.45,1.8l-1.69-2.58-.96.91s-3.27-.7-3.84-.29l-1.37.67-.14-.9c-.02-.14-.37-.26-.44-.14-.05.08-.3.43-.39.47l-3.26,1.1c-.49.17-1.59.25-2.15.34l-2.28.35c-.97.15-2.42-.31-2.57,1.11l.86-.26c.11-.03.24.41.14.46l-.56.33c-1.04.61.22,1.62-.1,3.46-.66-.21-1.43-.73-1.53-1.11l.13-2.22c-1.31-.15-2.02.26-2.87,1.12-.22-.54-.57-1.55-.96-1.46-1.9.45-2.83.56-4.19,1.12-.28.11-1.06-.22-1.29-.04l-1.02.8c-.24.19-.97-.36-1.28-.38-.71-.05-1.82-.32-2.54-.68-.92.82-2.55,1-3.57.32l-1.79.42-2.72.6c-5.03,4.45-3.3.99-6.27,2.71-.98.57-2.28.27-3.1.51l-5.81,1.63,1.71,1.51-2.17.11.22-1.57c.04-.3-1.09-.25-1.34-.02-.8.76-2.2.73-3.33.85l-5.99.63c-6.48.68-2.94,1.91-9.4,1.97-.36,0-1.17-.73-1.43-.49l-1.33,1.16-2.52-.22-2.54,1.67c-.21.14-.81.39-1.01.25l-.82-.58-.97,1.59c-.11.17-.86.57-.74.72l.59.69c.13.15.41-.13.66-.22l2.55.59c2.3.53,4.63,1.77,7.09.78.43.4,1.2,1.29,1.16,1.79-.04.44-.64,1.37-.86,1.58l-.17-1.45c-.82,1.97-1.94,1.22-3.06,1.54-1.2.34-2.48,1.68-3.71.24l-1.59,1.53c-1.93-1.06-4.07-1.5-5.82-.5-.41-.3-.83-.61-1.04-.48l-.91.57-2.1,1.3-.19-.88c-.05-.21-1.01.07-1.02.29-.03.62.45,1.82.87,2.36.92,2.42-.5,3.39.93,4.96.36-.09,1.08-.51,1.27-.34l.9.77c.49-.87,1.89-2.45,2.82-2.35,2.54.25,5.51-.89,6.85-3.45l2.16-.46,1.19-.56c.16.58.4,1.31.69,1.48.24.14.73-.31,1.04-.47l1.46,1.04c-.4.26-.93.03-1.67-.41l-.44,1.51c1.62.03,2.81-.13,4.12-.56l.82,1.98.77-.9c.14-.16.77.09,1,.03l2.51-.66c1.02-.27,1.84-.16,2.83.74.41-.36.92-1.1,1.01-1.97l1.72-.88c.89.44,1.62.17,2.09-.47.12-.17.22-.63.12-.76s-.43-.36-.53-.22l-.37.53c-.18.27-.86.89-1.08.67s-.45-.89-.63-1.5c.09-.18-.46.11-1.09.48l-.24-1.47c-.84-.4-1.54-1.36-1.95-2.61l-2.8-1.18-.47,1.52-.63-.57c-.12-.11-.54.03-.94.1-.04-.01-.06-1.08-.05-1.19l1.03.64s.07-1.43,2.28-1.6c.78.79,1.71.8,2.49-.07l-1.09-1.25,2.22.2,1.86-1.07,1.36-1,1.6.49c.32.1.8.74,1.1.6l1.27-.61c.76-.37,2.51.19,3.19.66l2.01,1.39-1.24,2.24-1.27-1.14-3.95,1.17c-.29.09-.94.39-1.02.17l-.44-1.18c-.96.55-2.09.8-3.07.6l1.29-1.17-1.76-.44-.83,2.66-1.43-1.13c-.45.54.02,1.68.55,2.01.39.24.98.04,1.63-.1l2.66.64c.83-1.07,4.32-1.74,4.82-1.01l-1.06,1.7c-.31.49-1.17,1.22-1.79,1.76,1.4,2.92,3.87.09,5.34,2.03,1.79-.92,4.47-1.08,6.53-.96ZM70.13,29.97c-.45-.94-2.19-1.23-3.04-1.69-2.27-1.21-4.45-1.27-6.69-.13-1.37.7-2.54,1.57-2.04,3.22.32,1.08,1.72,2.12,3.24,1.73.65-.17,1.81-.88,2.48-1.17,1.44.63,7.02.07,6.05-1.97ZM109.5,32.45c.88.07,1.87-1.86,1.44-2.84-.41-.93-2.23-1.07-3.25-1.42s-1.87-.45-2.85-.1c-.58.21-1.02,1.24-1.28,2.06l-2.03.65c-.06,1.23.7,1.82,1.89,2.04,3.87.73.91-.78,6.08-.4ZM252.04,33.67c-.8-.93-1.45-.44-2.26,0-.25.14.39.9.66,1,.69.26,1.84-.71,1.6-1ZM397.54,42.33c.35.33.72.84,1.02.83.24-.01.81-.29,1.01-.43l4.53-3.2-3.23.59c-1.53.28-6.06,2.11-3.89,2.19l.56.02ZM371.93,42.52c-.91-.59-2.28-.81-2.77-.19-.38.49-.75.98-.53,1.18.18.16,1.01.45,1.21.32l2.09-1.31ZM367.99,42.68c0-.28-.92-.59-1.1-.38l-.92,1.05c-.29.34.9.83,1.28.67.33-.14.75-.93.74-1.34ZM33.16,47.2c-.04-1.46-1.08-3.07-2.13-3.6-.48.01-1.56.04-2.01.11l-5.65.87c-1.28.2-2.68,1.43-1.9,2.65.94.34,2.73.59,3.62,1.1,3.11,1.75,5.15.67,8.06-1.12ZM23.77,54.58c-.05-.52-1.22-.93-1.68-.89-.59.05-1.05,1.04-.69,1.74.33.65,2.51.43,2.38-.85ZM226.78,61.35c-.08-.78-.21-1.04.02-1.09l1.12-.21c-.36-.36-1.48-.94-1.91-.63-.51.37-.93,1.09-1.36,2.02l2.13-.1ZM218.7,66.85c-.13-.01.4.53.62.45s.85-.36,1.03-.55l3.96-4.11-.7-.76c-1.45.45-2.79,1.55-3.48,2.66l-1.43,2.3ZM227.1,63.28l.77.44-.11-1.28c-.01-.15-2.54-.79-2.59-.24l-.14,1.56.45-.99c.14.39.34,1.16.59,1.03l1.02-.52ZM230.02,70.42c.1.14.88-.09.82-.35l-.24-.99c-.07-.28-.37-1.24-.62-1.12l-1.02.48c.51.76.75,1.23,1.06,1.99ZM148.06,83.41l1.19-.31c.26-.07.15-1.05-.04-1.24-1.97-1.96-3.97-1.41-6.71-1.27-.82.47-1.48.79-2.23,1.09l-3.96,1.57c-.31.12-1.09.14-1.31-.08l-.89-.88c-.66,1.82,3.7,1.88,4.69,1.89,3.11.04,6.26,0,9.27-.78ZM162.45,95.89l-1.63-.39c-.3.1-1.04.45-1.31.69s.26,1.29.58,1.37c.74-.12,1.68-.95,2.35-1.66ZM225.78,126.5l1.64-1.55c-.82.11-1.54.42-2.2.94-.43.12-.99.08-.93.4.06.35.34,1.31.53,1.12l.97-.91ZM57.69,126.47c-1.26.11-1.62.07-2.28-.15-.16.07-.53.4-.66.28l-.54-.45-.43,1.45c1.21.36,1.91.66,2.8,1.37,1.02,0,2-1.79,1.12-2.5ZM38.47,129.67l-2.48-.9c-.4-.15-.88-.49-1.43-.93-.68.74-1.74,2.15-2.02,3.4,1.17.96,2.97,1.15,4.3.93l1.64-2.5ZM296.92,134.6l-1.34-3.19h-1.2c-.09-.66-.19-1.34-.35-1.67s-1.06-.3-1.53-.33l-1.32,2.69,1.63.47c-.15,1.06-.01,1.52.51,2.16.67.84.98,1.2,1.98,1.18.58,0,1.87-.74,1.63-1.3ZM401.75,130.29c-.41.47-.59,1.62-.37,2.09.44.93,3.12.46,3.23-.59.11-1.17-2.27-2.16-2.86-1.5ZM220.55,135.54c.13-.21.56-1.1.75-1.63.16-.42-.67-1.25-1.03-1.41l-.92,2.52,1.2.52ZM26.59,139.81l1.02.3c.61-.35,1.63-.53,2.32-.21l.23-2.1c-1.35.08-2,.12-2.89-.1l-1.71-.43c-1.19.85-2.77,1.45-4.24,1.24v3.05s1.26-.43,1.26-.43c-.08-.15-.72-.94-.48-1.13l.79-.62.26,2.07.92-1.05c-.59.67,2.88-.49,2.53-.6ZM325.66,139.24c.04-.53-1.7-.8-1.86-.3-.19.59.25,1.43.75,1.47.46.04,1.06-.42,1.11-1.17ZM391.24,152.62c.41-.73.71-1.29.72-1.74,0-.36-.58-1.18-.94-1.21-.42-.04-1.21,1.04-1.02,1.42s.59.82,1.24,1.52ZM52.19,151.83l-1.19-.9c-.07.41-.05,1.09-.3,1.17l-1.14.38c.04.54,1.42,1.03,1.67.68l.96-1.32ZM54.54,154.13c.93,1.28,1.04-.04,1.34-.35.23-.24-.6-1.26-.97-1.27-1.06-.05-2.61,1.03-3.88,2.1.49.75,1.61,1.23,2.71,1.21l.81-1.69ZM175.6,165.91c.54,0,.95-1.46,1.12-2.29l-2.14.16-2.01,2.17,3.03-.04ZM195.17,164.33c-.69-.47-1.75-.47-2.18-.22-.38.22-1,1.14-.85,1.55.37,1,1.55,1.14,2.21.83.7-.33,1.57-1.66.81-2.17ZM54.55,182.93c2.01-1,3.61-2.28,4.88-4.3l-.27-3.34c-2.46-1.83-5.59-1.88-8.04.22l-1.75,1.5.15,1.26c.03.23-.78.5-.95.72-.49.59.02,2.31.57,3.08s3.74,1.7,5.43.86ZM129.82,178.26l.5-1.5-1.99-.64,1.07,1.11c-.2.13-.88.43-.76.6l.48.71c.08.13.64-.08.7-.27ZM112.63,220.08c2.85-1.64,1.89-3.08,1.45-5.6-1.26-.74-2.7-1.12-3.73-.81-.8.24-2.43,1.63-2.08,2.4l1.43,3.2c1.01.02,1.79.29,2.94.81ZM27.64,243.86c.55-.25,1.57-.64,1.95-.94.61-.75.54-2.91-.08-3.69-1.56-1.94-4.3-1.54-4.29-1.57l-.29.88-.45,1.34c-.1.29.76.72.88,1.03.41,1.04,1.28,2.57,2.29,2.96ZM349.48,241.01c.19-.89-1.38-1.39-2.02-.95-.52.36-1.08,1.62-.28,2.02.56.28,2.16-.42,2.3-1.06ZM60.57,247.86c1.02-1.29,1.99-2.02,3.09-2.09l-2-3.24-2-1.14c-.96.59-1.76,1.47-2.05,2.39l.59,1.1c-.2.91.04,2.07.53,2.55.39-.27,1.11-.83,1.26-.57l.58.99ZM334.42,246.47c-.44-.73-.58-.84-.5-.93l.38-.43-2.09-1.8c-.46.79-.48,2.04.02,3.16h2.19ZM321.9,256.29c.61-.61.96-1.18.99-1.56s-.48-1.27-.87-1.36c-1.02-.24-3,.87-2.66,2.13.18.66,2.05,1.29,2.54.79ZM301.03,264.81c.59-.62.97-.93,1.58-.93.53,0,1.01.5,1.52.97l1.58-.44c-.33-.44-.76-1.07-.5-1.21.21-.11.75-.19,1-.17l1.76.12c.37.03,1,.14,1.13.19.28-.94,2.82-2.16,1.54-2.86l-.98-.54-.73-.4c-.11-.06.1-.55.22-.54s.64.08.75.13l1.06.47c.2.09.69-.45.9-.41,2.57.43,2.27-1.19,2.96-.74l1,.66c.52-.74.57-2.6-.22-3.05-.83-.48-1.49-.95-2.2-1.53l-1.76,1.67c-.24.23-.3,1.27-.63,1.23-.27-.03-1.15-.13-1.1-.13l.62-1.59-1.59,1.62-.81-1.19c-.15-.22-.79.58-1.04.5-.35-.11-1.16-.65-1.37-.38l-.75.97,1.45.48-3.88-.1.49,1.7c-.69.47-.95.84-1.11,1.37-1.37-1.07-3.73-.82-4.16-.5-.21.16-.3.83-.49,1.02l-.93.92c-.22.22.38,1,.63,1.17,2.69,1.73,0,1.02,4.03,1.51ZM395.27,259.86c.22.23,1.49-.47,1.66-.18l.65,1.09,2.44.17-.18-2.73c-.02-.27-.4-.76-.63-.67l-1.09.41c-.22.08-.92-.3-1.07-.12l-.69.82c-.11.14-.66.05-.74-.13l-.32-.66c-.15-.32-1.13.31-1.41.54l1.39,1.46ZM403.89,261c.58-.39,1.13-1.3,1.21-2.05l-2.18,1.22c-.41-.99-.41.68-.14.83.22.13.86.17,1.11,0ZM111.77,264.96c.51.06,1.52-.09,2.23-.24.41-.35.35-1.74.1-2.35-.22-.54-1.33-1.2-1.88-1.03-1.74.55-3.04,1.58-3.51,3.25l3.06.37ZM401.39,266.16l1.35-1.35-1.71-1.04c.04.49.21.93.06,1.07l-.84.76,1.14.55ZM303.26,269.49c2.68.3.55.59,2.29,1.68l-.74,1.73c3.73-2.26-1.29-5.64,3.51-4.58.36-.57.37-1.86.17-2.73l-1.18,1.37-1.37-.17c-.24-.03-.45.72-.63.93-.67.8-1.97-.1-2.15-.89-.08-.37-.84-.89-1.11-.72-.21.14-.44.68-.43.96l.06,2.7c.58-.63.81-1.14,1.21-2.29.06-.02.56.59.52.86l-.16,1.16ZM387.1,285.12h28.04s.02-5.07.02-5.07c0-.24-.65-.95-.77-.75l-.58.96-.74-.73c-.2-.2-.18-1.07.09-1.14.55-.14,1.32-.42,1.42-.76s-.42-1.33-.66-1.07c-.43.45-.84,1.28-1.18,1.18l-1.23-.39c-.27-.09-1.13-.02-1.09-.29l.22-1.49-2.01-.53-.87-3.49,1.14.56c.18.09.58-.35.8-.46l.98-.54c.16-.09-.09-.75-.26-.79-.34-.08-1.13-.18-1.18-.44l-.24-1.13-.75.62c-.37.3-1.29-1.32-4.18-1.52-2.39-.17-5.37.82-3.44-.72.68-.09.3-.62-.23-.74-.41.47-.82,1-1.18,1.12s-1.05-.63-1.23-.83l-1.45.33c-.81.18-1.5,1.51-2.05,2.25l-1.19,1.6c-.06.09-.67.16-.79.18-.11.02-.11.13-.04.2l.45.45c.18.18.6.92.36,1l-.97.34.89.63-.41,2.15-.55-.9-1.91,2.79c-.24.35-.14,1.46-.71,1.69-.4.16-1.04-.19-1.64-.61l-.78.67c-.86-.13-1.89.33-2.12,1.1l1.55-.54-1.08,1.19,1.23.17c.21.03-.32.67-.42.87s-.44.21-.56.03l-.54-.82c-.62-.23-1.83,1.06-2.05,1.69-.09.26.25.81.48.96s.84-.22,1.12-.49l.68,1.72.88-1.01c.12-.14.58.63.76.82ZM310.17,283.62c-1.05-.93-2.75.5-3.44-.61-.15-.24.42-.82.64-1,.18-.15.71.22.94.25l2.35.23c-.09-1.6-1.24-1.6-2.3-1.55l-.14-2.34c-1.12,1.5-1.92,2.59-3.39,2.78.26.26.5.42.41.52l-.45.51,1.4.67c-.28.42-.87.95-.7,1.14l.81.88.19-1.66,1.44,1.34c.52.1,1.74.3,2.31.3l12.9.05-.6-.81c-.14-.19.24-.89.23-1.2-.01-.59-1.32-1.3-1.87-1.6l1.14-3.36.62.18c.11.03.17-.38.08-.43s-.5-.16-.58-.24l-1.61-1.57c.33-.37.9-1.01.67-1.09l-1.25-.46-.1,2.1-.49.4c-.08.07-.1-.35-.07-.45l.11-.47c-.92-1.67.77-2.12-.21-2.67s-.73.99-2.06.13c-.3-.19.99-2.15,1.29-2.01l1.48.66.26-1.83-1.53-.47c-.22-.07-.92-.61-.72-.73l.94-.56.65-.39c.13-.08-.07-.59-.22-.62l-.63-.12c-.39-.54-.99-.89-1.73-.66-.89.28-.57,2.39-.03,2.63l.76.34c.19.08-.34.89-.5.76l-.65-.54c-.19-.16-.83.23-.79.48l.13.95.12.87c.02.17-1.63,1.13-.3-4.77l-.76-.46c-.11-.07-.34.16-.28.27.04.08.32.44.33.53.04.46-1.24.6-1.56.26-1.56-1.63-.62-.31-3.64.97-.1.2-.18.85-.36.82-.2-.02-.77-.08-.69-.07l.11-.88c.02-.17-.62-.5-.69-.35l-.35.78c-.08.18-.13.78-.12.99s.56.21.86.26l2.28.34c.42.06,1.35-.45,1.67-.54l-.98-.71,2.69-.05c.43-.01.2,1.48-.2,1.35-.6-.19-1.17-.47-1.47-.33s-.67,1.07-.97,1.23l-3.94,2.13c-.18.1.03.77.22.69.16-.07.61-.28.78-.34l1.82-.65.91-1c.75-.82,2.06,2.02,1.82,3.34-.69.07-1.05-.02-1.01.18l.19.91.12.6c.03.14-1.39.43-1.22.64l.47.58-1.04,2c.86.04,1.12.03,1.38.12.69.24.32,2.69-.2,2.72-.66.02-1.51.46-1.94.83-.12.1-.33-.52-.17-.51.11,0,.49-.55.41-.62ZM359.98,275.78l1.16-.57c.57-.28,1.28-.62,1.49-1.02s-.08-1.53-.12-2c-.09-1.24-.27-2.12-1.29-2.64-.3-.15-1.09-.18-1.24.05l-.46.7,1.38-.29c.24-.05.58.79.48.78-1.28-.12-3.6,2.27-3.47,2.84.2.91,1.91,2.23,2.06,2.15ZM94.61,273.41c.44.21,1.5-.69,1.41-1.11-.26-1.26-1.13-1.95-2.29-2.3-.64.79-.95,1.51-1.1,2.48l1.98.92ZM45.35,277.44l-1.11-1.15-2.79-.68-.28-1.35c-.03-.12-.57-.09-.53.03l.28.78c-2.53.35-2.64-1.57-2.97-1.26l-.52.48c-.11.1.46.34.57.46l-1.48,1.2.2-3.21c-.71.27-1.03.47-1.26.76-.16.19-.87.52-1,.3l-.62-1.08-.72,1.44c-.13.26-.76.22-1.05.11l-1.24-.47c-.28-.11-.73.77-1.02.87-.99.35-2.44.84-2.95,1.6l-.15-.97c-.02-.12-.08-.04-.2.11l-1.68,1.99-1.29-.59c.85,2.43-1.5,4.9-1.42,4.9l-.69-.03-.1,3.43,26.96-.02,1.82-1.75-1.61-.35c-1.49-3.46-1.04-.57-3.16-5.56ZM294.79,275.67c.1.17.53.63.52.49l-.04-.65c-.02-.37.02-.96.16-1.21l.36-.62c.33-.57-1.2.46-2.24-.33.03.14.29.76.07.78l-1.09.12.07,2.22.74-1.16c.14-.23.82-.75.95-.53l.49.88ZM345.5,281.2l-.98.4c-.12.05-.11.38-.09.51l.11.75c.02.15-.44.33-.53.21-.46-.58-1.18-2.92-2.13-2.37l-.98.56c-.21.12-.62-.25-.96-.44l-1.44-.84-1.92-1.3-1.03-.7c-.18-.12-.28.57-.34.93l-2.96.57-1.68,1.28c-.22-1.27.6-1.61,1.46-2.26.69-.53,1.64-.27,2.46.24.19-1.15.56-2,1.63-3.04-.61-.49-1.47-.44-2.25-.14h-2.09c.33.39.96.79.83,1.01l-.51.86c-.08.13-.52.34-.61.21-.12-.19-.23-.32-.14-.46l.42-.67c-.18-.72-2.91,2.36-2.79,3.47.12,1.03.52,1.45,1.37,2.18l-2.25,1.61-.42.77c-.11.2-.71-.46-.8-.7-.12-.33-1.1-.45-1.48-.23-.3.17-.21.69-.3,1.52l27.23-.02c-.89-.3-1.43-.45-1.74-.61-.25-.13-.18-.88-.23-1.3-.17.19-.46.5-.42.46l-1.34-1.76c-.9.7-1.57,1.1-2.48,1.5l-.65-2.16ZM326.59,282.29c.1-.45.12-.92.32-.96l1.06-.22c-.3-.14-.87-.2-.91-.46l-.21-1.48-1.38,1.29c.14.11.73.66.58.93l-.6,1.06c.07.1,1.08.14,1.14-.17ZM323.5,282.78c.28-.78.55-1.92.38-2.51-.07-.24-.84-.57-1.05-.41l-1.17.86c.74.15,1.17-.02,1.27.31l.56,1.75ZM197.33,285.06c-.68-.89-1.54-1.91-2.24-2.1-1.46-.41-2.14,1.04-2.55,2.16l4.79-.06ZM364.25,285.05c-.57-.66-1.67-1.34-2.2-1.09l-2.3,1.11,4.5-.03Z"/>
  <path d="M83.93,144.33c-2.06-.12-4.74.05-6.53.96-1.47-1.94-3.93.89-5.34-2.03.62-.54,1.48-1.27,1.79-1.76l1.06-1.7c-.5-.73-3.99-.06-4.82,1.01l-2.66-.64c-.65.13-1.24.34-1.63.1-.53-.32-1.01-1.47-.55-2.01l1.43,1.13.83-2.66,1.76.44-1.29,1.17c.98.19,2.11-.06,3.07-.6l.44,1.18c.08.23.73-.08,1.02-.17l3.95-1.17,1.27,1.14,1.24-2.24-2.01-1.39c-.68-.47-2.43-1.03-3.19-.66l-1.27.61c-.29.14-.78-.5-1.1-.6l-1.6-.49-1.36,1-1.86,1.07-2.22-.2,1.09,1.25c-.78.87-1.71.86-2.49.07-2.21.17-2.23,1.63-2.28,1.6l-1.03-.64c0,.11,0,1.18.05,1.19.4-.07.82-.21.94-.1l.63.57.47-1.52,2.8,1.18c.41,1.26,1.11,2.21,1.95,2.61l.24,1.47c.63-.37,1.19-.66,1.09-.48.18.62.41,1.28.63,1.5s.9-.4,1.08-.67l.37-.53c.1-.14.43.09.53.22s0,.6-.12.76c-.47.63-1.2.9-2.09.47l-1.72.88c-.1.87-.6,1.61-1.01,1.97-.99-.9-1.8-1.01-2.83-.74l-2.51.66c-.24.06-.87-.19-1-.03l-.77.9-.82-1.98c-1.31.43-2.5.59-4.12.56l.44-1.51c.74.44,1.28.67,1.67.41l-1.46-1.04c-.31.16-.8.61-1.04.47-.29-.17-.52-.9-.69-1.48l-1.19.56-2.16.46c-1.34,2.57-4.31,3.71-6.85,3.45-.92-.09-2.33,1.48-2.82,2.35l-.9-.77c-.19-.17-.91.25-1.27.34-1.43-1.57,0-2.53-.93-4.96-.43-.54-.9-1.74-.87-2.36.01-.22.98-.5,1.02-.29l.19.88,2.1-1.3.91-.57c.21-.13.63.18,1.04.48,1.75-1,3.89-.56,5.82.5l1.59-1.53c1.23,1.44,2.5.1,3.71-.24,1.13-.32,2.24.43,3.06-1.54l.17,1.45c.22-.21.83-1.13.86-1.58.04-.5-.73-1.39-1.16-1.79-2.46.99-4.8-.25-7.09-.78l-2.55-.59c-.25.09-.53.37-.66.22l-.59-.69c-.13-.15.63-.54.74-.72l.97-1.59.82.58c.2.14.8-.12,1.01-.25l2.54-1.67,2.52.22,1.33-1.16c.27-.23,1.08.5,1.43.49,6.46-.06,2.93-1.29,9.4-1.97l5.99-.63c1.13-.12,2.53-.09,3.33-.85.25-.24,1.38-.28,1.34.02l-.22,1.57,2.17-.11-1.71-1.51,5.81-1.63c.83-.23,2.12.06,3.1-.51,2.97-1.72,1.24,1.74,6.27-2.71l2.72-.6,1.79-.42c1.03.69,2.66.5,3.57-.32.72.36,1.83.63,2.54.68.31.02,1.05.57,1.28.38l1.02-.8c.23-.18,1.01.16,1.29.04,1.36-.56,2.29-.67,4.19-1.12.4-.09.74.92.96,1.46.84-.86,1.56-1.27,2.87-1.12l-.13,2.22c.11.38.88.9,1.53,1.11.32-1.84-.94-2.85.1-3.46l.56-.33c.1-.06-.03-.5-.14-.46l-.86.26c.15-1.42,1.6-.96,2.57-1.11l2.28-.35c.56-.08,1.66-.17,2.15-.34l3.26-1.1c.09-.03.34-.38.39-.47.07-.12.42,0,.44.14l.14.9,1.37-.67c.57-.41,3.85.27,3.84.29l.96-.91,1.69,2.58c1.12-1.2,2.28.18,3.45-1.8l-1.12-.42c-.7-.26.13-.59,1.28-2.36.08-.12.61-.04.62.11l.05.67c.42.36,1.03.96,1.4,1.19l1.59.98c.06-.09.3-.87.27-1.23s-.94-.68-1.31-.76c-.41.03-.9.17-.87-.03.06-.35.31-.95.57-.96l1.72-.02.63,1c.11.18.65.06.9.08.94.64,1.96.97,3.17.6l-1.33-1.23c.25-.12,1.03-.39,1.19-.19l.79.93c.17.2.47-.53.61-.92.09-.24-.31-.37-.61-.62-.11-.47-.34-1.12-.63-1.5-.65-.85-1.59,2.27-3.15,1.63-.64-.26-1.22-1.09-1.23-1.68-.03-2.01,3.9-2.32,3.84-2.34.56.17,1.16,1.42,1.49,1.94.28-.2.72-.78.89-.64l.75.63c.21.17-.16.68-.43.94-.31-.87-.38-.83-.41.24l1.5.02c.08-1.26.51-2.21,1.49-2.62l.04-.95c.06-1.23,1.91,1.19,3.07-.08.62-.68.72-1.33.48-2.26-.07-.28-.47-1.07-.65-.89l-.89.9-1.89-.72c-.09-.29.45-1.02,1.02-1.6l-.7-1.54,1.41-2.04.68-.78c.19-.21.05-.71.09-1.26s1.26-.15,1.77.4l1.57-1.46,1.09,1.87-.13,1.46,1.28-.54c.25-.1.52.43.83.88l.25-2.21c1.47.96,1.98,1.12,3.31.1.46.59.91,1.42,1.42,2.38.2-.06.39-.96.39-1.55l.71-.57c.16-.13-.07-.69.02-.84l.92-1.19c.39-.5-.7-1.1-.2-2.1.06-.12-.63.07-.76.01-.43-.17-.48-1.28-.15-1.61.53-.54,1.12-.72,2.25-1.1l-1.34-1.93,1.65-1.02-2.42-1.87-.22,4.64c-1.27.13-1.94.46-2.89,1.17l-2.46-.52c.69-.61,1.11-.97,1.46-1.1l2.34-.83-.31-.97c-.03-.09.18-.05.25.02l.54.52.8-1.56c-.78,0-1.32-.08-1.78-.39l-.79-.55c-.19-.13.48-.75.7-.68.98.31,2.67.11,3.09-1.72l.92,1.52,1.58-.39c.06.33.32-.92.11-1.11l-.73-.66.35-.53c.51.46.96,1.03,1.17.84l1.09-.95.56,1.13,2.48.02c1.43.01,3.19-.1,4.62.54.47.21,1.56.35,2.06.29l1.54-.17.29-1.38.7.77c.13.15.62-.48.76-.5l1.68.92c.7-.88,1.13-1.22,1.93-1.55l2.74-1.16.69-.8c.54.05.96.11,1.25.06.35-.06.96-1.09.63-1.22l-.7-.27c-.18-.07-.19-.6-.15-.7l2.35-.12c.25-.37.72-1.22.91-1.03l.82.83c.19.19-.64.71-.87.86l-.92.57c-.24.15.23.94.33.88.82-1.76,3.24-.15,3.63-2.41l1.38-.11c.18-.01.57-.31.69-.43s-.16-.67-.33-.65l-.88.06-.49-1.86,2.62.5c2.81-.63,3.97,1.18,4.79-.04.3-.44.23-1.07,0-1.62l-.26-.64c-.05-.13-.3.19-.65.51-.29-.04-.87-.74-1.03-1.15-.19-.49.53-1.67.97-1.38.17.12.42.6.51.76s.55.16.81.14l-.65-1.03,1.81-.46s.19.54.25.72c.05.16.36,0,.49-.11,1.08-.88-.66-.92,2.23-2.55l.57.91c.18.28.33-.76,3.01-1.19.7-.11,2.1-.74,2.57-.26.13.14.11,1.16-.08,1.14s-.7,0-.8-.16l-.52-.83-.49,1.03c.38.39,1.65.98,2.2.86.82-.18.31-1.69.63-2.08l1.6-2,1.57,1.64-2.51,1.83.75,1.44c-.09-.18-1.48,3.51-2.02,3.76l-.78-1.05-.94,1.45c-1.09.88-1.7,1.69-2.21,3.16l2.27-.53c.65-.15,1.43-.7,2.01-1.24l1.89-.02c2.29,1.7,5.74,2.15,7.59-.41.24-.34.48-.84.42-1.12-.1-.44-.72-.59-1.33-.42l-.73-.95,1.07-1.69,1.68.34c.6-.43,1.8-1.3,2.43-1.03l2.54,1.09c.18.08.26.75.28.95s.64.12.75-.05l1.39-2.06-1.59.33c-.18.04-.44-.67-.27-.76l.76-.43c.1-.06.33-.31.4-.42.1-.16.14-.69-.04-.67-.23.02-.76.09-.87.26l-.45.7c-.1.15-.78.04-.76-.14l.09-.88.1-.94c.03-.3,3.76-.59,1.43-.79l-.7-.06c-.84-.07-1.5-.16-1.62-.98,1.63-.1,3.14.45,3.92,1.57l-.66.5c-.1.07.04.53.16.5,2.22-.58,1.25-1.08,2.9-.06l1.01-1.28.88,1.67c.21-.51.3-1.02.52-1.13l1.01-.47c-.39-.73-.81-1.68-.68-2.19.05-.2.92-.18.94.02l.12,1.08c.04.33.39,1.07.71,1.09.34.02.72-.42,1.02-.98l1.4,1.17c.22.18,1.14-.44,1.32-.22l.74.88.67-.94c.16-.23.73.74,1,.81.66.17,2.21.51,2.22,1.46,0,.65.16,1.35.31,1.85.08.28-.34,1.29-.05,1.34l1.25.25.86.74c.27.23,1.07-.29,1.55-.58.35-.52,1.14,1.64,1.48,1.46l.62-.32c.8.06,2.45.11,3.21-.07.3-.07.03-1.22-.03-1.68.36-.18,1.1.11,2.12.56l-.2-1.46c-.18-.13.81-.1.79.14l-.13,1.18c.16.02.94.03.95.34l.06,1.41.03.68c0,.14.43-.23.47-.37l.31-1.09c.08-.26.77-.4.94-.24l1.5,1.83c.17.2.97.24,1.01.5l.22,1.25c.04.21.8.38.78.59l-.12,1.09c.28-.05.94-.35,1.26-.55l.82-.53c.75-.49-.22,1.01,1.01,2.25.25.25.96-.51,1.3-.57l2.45-.42c.81-.14,1.27-.58,1.66-1.55l1.91.62.74-1.06c.15-.22.85,0,1.12-.06,1.9-1.02,4.14-1.6,6.28-1.45,3.03-3.16,6.01-1.96,9.31-3.21,3.61-1.37-.28.43,4.83-1.06,1.37-.4,1.05-2.86,5.37-2.76.36,1,.06,2.13-.51,2.94l.38,1.18c2.44-1.96.29.31,4.65-2.27.93-.55,1.66-1.08,2.52-1.74,3.35-2.6,8.56-1.33,12.19-4.27,1.32-1.07,2.62-2.17,4.2-3.11.55-.33,1.48-1.3,2.02-1.48l3.99-1.31c1.36-.44,2.12-.59,2.6-2.18l6.02-1.93c1.59-.51,3.25-1.55,4.84-1.72,1-.11,1.63-.32,2.49-.86.66-.41,2.49-.03,2.91-.91.2-.42.23-1.03.47-1.12l1.34-.47c.96-.33,1.73-.83,2.8-1.2,2.85-.99,4.33-4.52,6.85-1.84.9,0,2.01-.6,2.75-1.17,2.97-2.28-.33-3.64,2.41-4.7,2.35-.9,2.1,1.19,3.6,1.93,1.11.55,1.82-2.56,3.42-2.38.1.01.43.74.34.77-.19.07.4-.15.6-.21l.42-1.7c1.11-4.51,3.99-2.68,5.27-5.66.11-.26.62-1.02.86-.92l1.05.45,5.68-1.82,1.88-.58c.56-.17,1.53-.5,2.15-.48l2.15.04c1.62-2.73,7.66-5.18,10.56-6.35,1.41-.57,3.14-2.19,4.63-2.47.14-.03.64-.27.74-.32.15-.08.34.25.32.41-.1.66-1.55,1.45-3.28,3.69-.48.62-1.64.87-2.28,1.27-.9.56-1.38.85-2.5,1.1-1.39.31-3.33,1.03-4.32,1.9-2.24,1.93-4.71,2.8-7.79,5.17-4.89,3.76-4.34.49-7.44,5.08l-1.37,2.03-4.03,1.05c-.44.11-1.2.6-1.44.93s-.29,1.37-.07,1.71c.83-.2,1.6-.39,2.19-.61l1.78-.67,1.82-1.04,1.06-.75,2.49-.64c.15-.38.37.56.36.92s-.78.33-1.3.31c-.55,1.98-2.25,2.91-3.96,3.71-1.59.75-3.15,2.11-4.86,2.43s-2.32,1.22-3.11,2.57l-5.4,2.69c-.35.17-.69,1.33-1.05,1.29l-1.54-.17c.03.11.34.9.13.92l-.99.05c-2.27.12-1.02,3.25-4.68,2.81-1.04-.13-1.76.4-2.7.84l-3.02,1.42c-1.01.48-1.62,1.19-2.54,1.71l-3.18,1.8c.06,1.29-1.26.91-2.15.71-1.23.65-2.63,1.6-3.74,2.56-.67.58-.89,1.07-1.95.96-1.38-.14-3.54,1.17-4.11,2.09-.46-.04-1.52-.13-2.13-.07l-3.5.35.44.7c.09.15.35.47.19.51l-.84.22c-1.46.38-2.73.97-3.04,2.27-.68-.37-1.48-.62-1.84-.2-.44.51-.38.91-.36,1.95l-1.83-.69-2.44,1.35c-.15.08-.57.59-.7.48l-.82-.69c-.46,1.95-2.11,1.49-6.04,3.59l-2.09,1.11c-.71.38-1.36,1.14-2.05,1.47l-2.79,1.34c-1.02.49-2.21,1.01-1.47,2.49-.07.04-.71.01-.83-.19l-.62-1.06-.93,1.82-2.63.31-3.15,2.59c-.68.55-2.64.58-3.17,1.22l-1.63,1.98c-.65.79-1.04,2.61-2.1,2.93-.63.19-1.86.47-1.55.84l1.07.55c.24.12-.18.66-.41,1.2-.44.33-.57.45.3.15l1.48,1.05.96.07-.24,1.39,1.19-.69c.27-.15.78.43,1.04.8.09.03.34.12.35.12l.48-.55c.08-.09.37.12.51.2.16.08-.41.47-.62.62l1.12,1.07c.11-.77.38-1.49,1.05-1.9-.13,1.37-.84,2.5-1.67,3.51l-.79-.64c-.65-.53-2.17,5.34-3.05,5.71.4.32,1.56.98,2.12,1.26.29,1.88-.15,4.01-1.12,5.5l-1.03-.15c-.22-.03-.55.64-.76.71l-1.09.39c-.3.11-.32.91-.44,1.29l-1.15,1.01-.18,3.11-.58.05-.42-1.41c-.1-.33-.98-.14-1.42-.12-.17,0-.45-.62-.31-.73l1.08-.86-1.69-.44c-.53-.18-1.02-.33-1.44-.11-1.05.58.46.52-.73,2.08-.12.16.68.53.65.73l-.24,1.65c-.11.17-.91.61-.79.86l.41.93-.52.61c-.09.1-.14-.04-.43-.44-.53-.15-1.29-.34-.11-.2l.15-1.57.14-.69c.03-.12-.37-.19-.51-.2-.2-.02-.44.29-.4.47l.16.84c.03.14-.39.27-.51.19s-.4-.36-.54-.33l-.9.18c-.2.04.04.56.12.97l-1.47-.37.61,2.61,1.89,1.58c-.69.75-1.04,1.34-1.14,2.24l1.55-.15c.16.67.26,1.77.5,2.25l1.85,3.61c1.21-.34,3.18.16,3.17,1.64,0,.59-.71,1.74-1.24,1.87-.74.18-1.65-.04-2.46-.17-2.73-.44-2.04-3.79-2.6-4.37-.24-.24-1.26-.31-1.36.01s-.22.88-.41,1.71l-.74-1.27c.2-.43.18-1.8-.27-1.71-3.65.79-.21-.84-3.92-3.02.07-.43.23-1.34.26-1.75.01-.18-2.06-2.69-3.08-2.75l-1.48-2.57c-.36,0-1.36.31-1.44,0l-.33-1.36-.95.39c-.29.12-.03.91.13,1.48.13.45-.5,1.17-1.11,1.66l.57,1.85c-.71.04-3.57-1.91-4.03-2.42l-1.05.14c-.22.03-.44-.27-.64-.48l-.6,1.12c-.1.18-.17.77-.37.76l-1.02-.07c.3-.56.82-1.49.46-1.57l-1.77-.37.26-1.26c.06-.3-.72-.71-.75-1.01-.04-.47.02-1.27-.2-1.57s-.98-.78-1.23-.68c-.98,1.14-1.98-.81-2.39-.49l-1.01.79c-.24.19-.71.98-.97.83l-1.16-.63-1.18.9-1.78-.9c-2.06-2.75.39-4.87-.99-5.9l-.89,1.99-1.75-1.33c-.25-.19-.14-1.28-.42-1.46-1.72-1.13-1.62.35-4.16-.36l-.05,1.54-.02.76c0,.17-.45.04-.78.02-.32.88-1.2,1.8-1.96,1.7.2-1.08-.06-2.79-.92-2.94s-1.37,1.12-1.77,1.47l-1.91,1.15c-.2-.16-.96-.59-1.25-.46l-2.88,1.37c-.11-.38-.19-.91-.3-.86-.16.07-.5.25-.67.34-.15.09-.03.31.18.99.51,0,.3.12-.31.39-.82-.05-1.6-.25-2.36-.72-.6.93-2.04,1.73-3.28.75-2.4,1-1.92,1.85-3.72,2.73-.41-.42-.08-.08.39.4,0,0-.48.35-.67.48-.22.16-.81-.26-1.13-.42l-3.5,1.06c-.82-.23-1.44-.33-2.21-.39l-.81-.83.27,2.79-.94-.7c-.2-.15-.83.12-1.12.12l-2.76-.05c.09.28.41.87.27.94l-.93.48c-.93.48-1.53,1.21-1.79,2.08l-2.46.75c-.68.21-1.35.8-1.73,1.3l-.44-.75c-.1-.17-.8-.2-.82-.07l-.09,1.04-2.29-2.29c-.36,1-1.34,1.69-2.22,1.39-.62-.33,1.34-2.21.47-2.17l-.67.03c-.2,0-.15.7-.17,1.06l-3.54.38.38,1.54c.06.26.6.08,1.12.07.54,3.27-.65.86-.42,5.64l-2.63-.78c-.17-.05-.71.13-.81,0l-.69-.86-.4,1.07-1.58-.5c.2-.41.58-1.31.56-1.4l-1.08.18c-.16.03-.29-.22-.52-.47-.13-.13,2.07-1.02.98-1.01h-.58s-.62.02-.62.02c-.2,0-.03,1.16-.21,1.07l-1.09-.57c-.24-.12.25-.6.5-1.02-.68-.03-2.77.89-2.7,1.71.03.31.23.85.34,1.11l-.73.41c-.17.1-.28-.65-.25-.89.06-.4-1.1-.87-1.27-.54-.24.96-1.26,2.15-2.36,2.15h-2.27s.27,1.42.27,1.42c.05.24-.78-.08-1.07-.16l-1.27,2.41-1.75.19c.65,1.05.39,3.89.08,4.77-.14.4-.99.46-1.58.53l-.1.5.54.81c.13.2-.45.69-.63.55-.97-.73-1.87-3.13-.67-4.58l-1.46.41c-.25.07-.76-.28-1.01-.38-.53.43-.9,1.97-.32,2.26.74.38,1.47.95,1.12,1.22l-1.98,1.49c-.76.57-1.25.89-1.8,1.89l-1.6-.1.58.78c.1.13-.3.39-.55.6l.81.52c.25.16-.06.93-.23,1.18l-.35.54c-.06.09-.22.16-.26.06s-.13-.4-.16-.52l-.18-.88c-.11-.54-1.22.63-1.66,1.37-.15.25.63.65,1.11.98l-1.38,1.42c-.24-.73-.89-1.89-1.17-1.59l-1.5,1.67c-.08.09,0,.6.04.7s-.42.04-.6.04c-.22.37-.47,1.14-.8,1.05-.47-.13-.94-.32-1.69-.64-.17,1.26-1.57,2.36-2.78,2.16l-1.27,1.01c-.58-.32-1.42-.64-1.7-.49l-.98,1.8.39.42c.12.13.07.59-.12.58-.39-.01-.99-.02-1.25-.01-.35.01-.03,3.55-.83,2.6l-.77-.92-.41.77c-.11.21.67.72.61.95-.21.88-1.77,2.34-2.67,2.23l-2.76-.34c-.1.11.11-.12.52-.57.06-.06-.11-.44-.29-.57s-1.16-.36-1.23-.16l-.77,2.36-1.5-.18c-.31-.04-.37,1.02-.67,1.11-.46.15-1.28.38-1.53.64s-.11.8-.03,1.68c0,0-.55-.06-.65-.07.15-1.75-1.48-2.55-2.59-2.64l-.5.82c-.09.14-.65-.14-.75-.25l.47-1.79-1.82,1.1c-.49-.42-1.1-.68-1.73-.46l1.26,1.1-.96.97c-.23.23.16.98.47,1.06.17.05.83-.2.87-.03l.3,1.1c.13.47.45,1.45.88,1.56s1.28,0,1.87-.07c-.74.65-1.28,1.19-1.86,2.04l-1.97,1.17c-.35.21-1.09.72-1.45.65-.42-.09-.83-.72-1.31-1.34-.13.1-.45.44-.36.63l.42.94-.89.63.58,1.24-1,.18c-.25.05-.23.95-.27,1.09-.24-.2-1.1-.58-1.56-.51l-2.93.44c.48.55,1.1.51,2.03.28l-.54,1.33c-.21.51-.25,1.9-.76,2-.85.17-1.59.52-1.8,1.31l-.76-.54c-.61-.44-.92,1.53-1.16,1.25l-.52-.6c-.07-.08-.42-.41-.5-.34l-.57.51c-.1.09-.59.11-.55-.02.05-.2.2-.7.3-.88l.43-.75c.1-.17-.4-.68-.54-.54l-.66.64-1.35.62c-.39.18-1.08-.84-.82-1.16l.74-.92c.63-.78-3.41-3.26-1.98-4.13.21-.12.52.13.98.38.95.04,1.21-1.21,1.11-2.22-.04-.53,1.41-.66,1.8-.46l-.6.79c-.15.2.21.93.42.79l.98-.6c.09-.06.5-.22.5-.21.37.5,1.41.95,1.66.55l2.11-3.28.43-.52c.07-.08,0-.47-.11-.45-.16.03-.62.14-.78.1-.49-.12-.91-1.47-.58-1.88.42-.53.89-1.42.9-1.93,0-.16-.82-.26-.76-.4l.29-.65c.06-.15.44.08.73.24.81.43,1.84-.88,1.96-.25l.14.7c.02.1-.15.49-.05.51l.66.14.66-3.16c.15-.71.39-2.62.33-3.13-.02-.18-.58-.49-.67-.34l-.63.96-.52-.49c-.12-.12.27-.65.43-.73l1.56-.78c.12-.7.16-.61.2-.02l.43.91c.08.16.59.19.66.03s.22-.64.25-.81l.16-.96c.03-.18.77.24.95.19,1.07-.3,1.95-2.13,1.59-3.33l1.21-.19-1.77-1.2,1.21-1.27c.25-1.54,1.33-2.88,2.74-3.6l-.18-1.1c-.04-.28.72-.41,1.28-.6l-.7-1.18-.04-.77c0-.21.78-.36.83-.16l.26,1.2c-.05.12.74-.18.93-.4.23-.27.07-1.09.06-1.54-.01-.3.86-.72.76-1.01l-.24-.69c-.06-.16.61-.11.8-.14.17-.03-.05.37-.14.67l.04,1.57,1.28-1.97c.21-.32.17-1.15-.06-1.57l-.65.53c-.16.13-.75-.24-.63-.42s.55-.52.77-.59l1.11-.33c.27-.08.32-1.03.03-.99l-1.09.14c-.24.03-.26-.52-.32-.88l-.13-.86c-.15-.97,1.61,1.01,2.04.92.31-.06.75-.6.92-.92l.53-1.03c.13-.26-.95-.42-1.24-.41l-.82.03c-.2,0-.35-.72-.18-.81l.76-.39.55-.28c1.28-.66-2.62-.68-3.46-1.47-.28-.26.24-1.61.41-1.56l.95.63c.24.16,1.72-1.7.85-2.37-.38-.29-1.36-.53-1.51-.31l-.03,1.13c0,.22-1,.24-1.16.39-.47.48-1.39,1.38-2.07,1.93-.42-.71-.72-1.35-.99-1.94l-1.42-.06.29.89c.06.18-.28.41-.46.39-1.43-.12-1.25-1.56-1.93-1.36-.35.1-1.06.44-1.3.56-.15-.52-.78-1.56-1.11-1.47-.62.63-1.23,1.38-1.71,1.49-.24.06-1.08-.39-1.24-.2l-.73.89-.75-.63c-.17-.14-.44.61-.55.8l-.32.55c-.06.11-.44-.23-.5-.35l-.59-1.19-1.45,1.38c-1.51-.31-3.06-.04-4.57.15l-2.44.3c-.62.08-1.98-.63-2.6-1.02-.12.05-.52.21-.38.16-.47-.55-1.04-1.1-1.15-1.1-1.2,2.41-.83.58-3.09,2.5l-1.87-.48c-.89-.23-1.65-.41-2.67-.36-3.49.17-1.22,1.34-4.08.66-.07-.02-.66,1.84-4.54,1.74-.29-.47-.89-1.67-1.72-1.42-.55.17-1.39,1.09-1.77,1.4ZM366.58,58.64c1.05-.95,1.69-1.55,2.31-3,.41-.96,2.6-1.06,3.26-1.71,1.4-1.36,2.2-2.27,4.91-1.85.63-2.81,1.54-.69,3.16-2.86-1.05-.65-2.07-.13-3.14.22-.88.29-2.64.33-3.17.94-.69.8-1.17,1.25-1.91,1.89-.8.7-1.14,2.16-2.92,1.8-1.52-.3-2.78.83-3.91,1.32l-7.55,3.25c-.28.12-.74.72-.67,1.01.05.23.27.88.5.83l1.28-.28.28,1.16,2.85.9c4.5-2.66,2.11-1.27,4.72-3.64ZM351.57,65.92c.07-.35-.09-1.01-.32-.95-.36.09-.92.24-1.18.34l-3.04,1.15c1.44.23,3-.12,4.55-.53ZM337.04,69.08c.59-.13.03-.45-.48-.48l-2.45,1.13c1.21,1.09,1.79.32,2.93-.65ZM207.13,77.06c-.27.4-.73,1.13-.52,1.25l.83.49c.47.28.57-1.86,3.56-.49.22.1,1.16-.05,1.1-.29l-.31-1.37,1.42.15c.23-.53.57-1.21.88-1.68l.96-1.45c-1.11-.16-1.79-.12-3.13.06-.68,0-.33.27.22.53l.96.59c.16.1-.23.94-.22.73-2.58-.96-.26-.21-3.53-.52-.19-.02-.09.55-.04,1.04.04.33-.52,1.1-.81.9-.21-.14-.47-.45-.74-.79l-1.25-.13.63.99ZM262.73,79.15c-.4-.19-.83-.47-1.35-.81-.32.03-.45,1.26-.2,1.99.13.39.91.91,1.29.85.32-.05.84-.55.86-.86s-.29-1.03-.6-1.17ZM206.17,92.72l.23,1.22c.03.17.32.59.43.73s.57-.35.49-.51l-.37-.73c-.11-.22.62-.57.81-.41,1.02.82-.04,2.09,1.1,2.77.39.23,1.4.07,1.77-.21,1.39-1.08-.63-2.04.81-3.42.33-.31,1.3.17,1.13.59-.37.9-.61,1.7-.23,2.52.34.76,1.66.84,2.49.58,1.39-.44.29-3.56,1.42-4.13.94-.48,2.22-.29,3.15,0l.61-2.07.72.79.83-1.46c1.49-.15,2.93-.53,4.34-1.1l.81-.33c.16-.06.51.54.45.46l-1,.98c1.69.6,2.15-1.63,3.06-1.87,1.05-.27,2.01-.51,2.92-.95l1.83-.89c.64-.31,1.55-.65,2.43-.68.38-.01.58-.88.49-1.25-.08-.36-.85-.4-1.2-.52-.49-.57-1.21-1.42-1.84-1.16l-2,.81-4.12.38c-.31-.1-1.17-.69-1.31-.38l-.46,1.04c-.09.2-.73-.06-.95,0l-2.92.68c0,.06.42.98.16,1.11s-.95.43-1.21.59c-7.56,4.64-5-.47-7.89,4.16l-1.61.25-.54-1.13c-.73-1.54.12,3-.72,3-.29-.24-.75-.71-.64-.9l.56-.91-1.22-.87-.95,1.27-1.01-1.73c-2.92,3.55-6.06,2.84-4.15,3.39l1.58.45-.05-.7c-.03-.4,1.71.38,1.74.54ZM297.97,90.33c.24-.12,1.07.07,1.19-.15l.44-.76-1.21-.18c-.2-.03-.35-.95-.53-1.06-1.3-.8-3.69,1.03-4.23,2.05-.37,0-1.26-.14-1.5.22-.21.31-.32,1.72.06,1.72,1.06,0,4.51-1.25,5.79-1.86ZM233.37,91.07c.32.07.64-.96.53-1.27s-.54-.9-.85-.8c-.69.2-1.68,1.15-1.68,1.61l2.01.46ZM172.21,92.77l-.63-.61,2.89-.74c-2.31-.82-3.84-.82-5.32.8l-.03-1.2c0-.29-1.12-.46-1.23-.19l-.42,1.02c-.08.19-.4.48-.28.57l.48.35c.77.57,3.16,2.17,3.23,2.08l.46-.58c.08-.11-.57-.63-.45-.7l1.31-.79ZM170.48,98.69c.73-.29,3-1.31,2.16-2.43-.15-.2-.8-.4-.93-.36l-.06.92c0,.16-.45.43-.6.5l-.77.39c-.12.06.09.65.2.98ZM161.78,105.75c-.43-.62-1.13-1.64-1.62-1.59-.42.04-1.13.77-1.41,1.22s1.43,1.5,2.19,1.4c.33-.04,1.04-.76.85-1.03ZM106.17,134.93c-.09.38.86,1.06,1.24.97,1.25-.31.57-2.78,1.62-2.61l1.43.24-.19-2.39c-.01-.15.37-.52.46-.64s-.42-.6-.49-.47c-.75,1.29-.41,2.39-2.29,2.74-1.18.22-4.72-1.16-3.14.35.35-.15,1.19-.15,1.45.25.21.32.08.89-.08,1.56ZM82.03,135.09c.34-.18.78-.76,1.14-1.32.48-.13,2.09-.06,2.74.09.27.07.44.98.51,1.28.09-.09.44-.64.62-.54l.96.56c.56-.34-.22-2.01-.87-1.88-.59.12-1.19.28-1.34.01l-.76-1.46-.97,1.45-.88-.64c-.17-.12-.62.51-.83.49l-1.27-.09c-.64-.05-.7,2.06-1.56,1.41l-.71-.53c-.24-.18-.74.78-.57,1.02l.66.9c.46-.33.86-.77,1.04-.63l.75.56,1.32-.69ZM92.11,134.39l2.11-1.06c-1.19-.81-2.56-1.41-3.32-1.16-.22.07-.5.7-.33.69.56.08,1.12.1,1.09.29l-.12.64-.11.61c-.02.13.52.07.67,0ZM96.75,137.69l1.49-1.46c-1.9-2.79-1.19-.84-4.07-2.26-.14-.07-.45.45-.38.58l1.09,2.17.4-1.09,1.48,2.06ZM105.22,135.8l.08-1.84-2.04.1c-.15.3-.48,1.45-.49,1.99,0,.31,1.07.55,1.25.3l.73-1.01s.3.3.47.47ZM60.86,137.05l-3.76-1.36.96,2.57,2.8-1.21ZM88.38,140.18c.53-1.89,2.96-1.16,2.12-2.56-.75-1.25-1.22.32-3.61-1.75l.77,1.4-2.47,1.42c.88,1.51,2.06-.14,2.57.59l.61.89ZM143.37,167.59c.26.07.19-1.08-.08-1.1-1.98-.17-1.66.56-2.27.11l-.77-.56,1.01,2.59c.32-.84.4-1.48.72-1.4l1.4.36ZM140.37,168.78c-.02-.27-.07-1.06-.07-1.02l-2.96,1.93c.95,1.15,3.04-.62,3.03-.91ZM123.66,174.85c.21-.25.53-.71.66-.93.12-.21-.46-.48-.89-.74l-1.07,1.89c-.1.17.51.71.64.55l.66-.77Z"/>
  <path d="M387.1,285.12c-.19-.18-.64-.96-.76-.82l-.88,1.01-.68-1.72c-.27.26-.89.63-1.12.49s-.57-.69-.48-.96c.22-.63,1.43-1.92,2.05-1.69l.54.82c.12.18.46.17.56-.03s.63-.84.42-.87l-1.23-.17,1.08-1.19-1.55.54c.23-.77,1.26-1.23,2.12-1.1l.78-.67c.6.42,1.24.77,1.64.61.57-.23.47-1.34.71-1.69l1.91-2.79.55.9.41-2.15-.89-.63.97-.34c.25-.09-.18-.82-.36-1l-.45-.45c-.07-.07-.07-.18.04-.2.12-.03.73-.1.79-.18l1.19-1.6c.55-.74,1.24-2.06,2.05-2.25l1.45-.33c.18.2.87.94,1.23.83s.77-.65,1.18-1.12c.53.12.92.65.23.74-1.94,1.54,1.04.55,3.44.72,2.89.21,3.81,1.83,4.18,1.52l.75-.62.24,1.13c.05.25.85.36,1.18.44.18.04.43.7.26.79l-.98.54c-.21.12-.61.55-.8.46l-1.14-.56.87,3.49,2.01.53-.22,1.49c-.04.27.83.2,1.09.29l1.23.39c.34.11.74-.72,1.18-1.18.24-.26.77.73.66,1.07s-.87.62-1.42.76c-.27.07-.29.94-.09,1.14l.74.73.58-.96c.12-.19.77.51.77.75l-.02,5.06h-28.04Z"/>
  <path d="M45.35,277.44c2.12,4.99,1.67,2.1,3.16,5.56l1.61.35-1.82,1.75-26.96.02.1-3.43.69.03c-.08,0,2.27-2.47,1.42-4.9l1.29.59,1.68-1.99c.12-.15.18-.23.2-.11l.15.97c.51-.77,1.96-1.25,2.95-1.6.29-.1.74-.97,1.02-.87l1.24.47c.29.11.92.15,1.05-.11l.72-1.44.62,1.08c.12.22.84-.11,1-.3.23-.29.55-.49,1.26-.76l-.2,3.21,1.48-1.2c-.1-.12-.68-.36-.57-.46l.52-.48c.33-.31.44,1.61,2.97,1.26l-.28-.78c-.04-.12.51-.16.53-.03l.28,1.35,2.79.68,1.11,1.15Z"/>
  <path d="M310.17,283.62c.08.07-.3.63-.41.62-.16-.01.05.61.17.51.43-.37,1.28-.81,1.94-.83.52-.02.89-2.48.2-2.72-.27-.09-.53-.08-1.38-.12l1.04-2-.47-.58c-.17-.21,1.25-.5,1.22-.64l-.12-.6-.19-.91c-.04-.2.32-.1,1.01-.18.24-1.32-1.07-4.16-1.82-3.34l-.91,1-1.82.65c-.17.06-.62.27-.78.34-.19.08-.4-.59-.22-.69l3.94-2.13c.3-.16.67-1.09.97-1.23s.88.14,1.47.33c.4.13.62-1.36.2-1.35l-2.69.05.98.71c-.33.1-1.25.61-1.67.54l-2.28-.34c-.3-.04-.86-.05-.86-.26s.04-.81.12-.99l.35-.78c.07-.16.71.18.69.35l-.11.88c-.08,0,.5.05.69.07s.26-.63.36-.82c3.02-1.28,2.08-2.6,3.64-.97.32.34,1.6.2,1.56-.26,0-.09-.29-.45-.33-.53-.06-.11.16-.34.28-.27l.76.46c-1.33,5.9.32,4.95.3,4.77l-.12-.87-.13-.95c-.04-.25.6-.64.79-.48l.65.54c.16.13.69-.68.5-.76l-.76-.34c-.54-.24-.85-2.35.03-2.63.74-.23,1.34.12,1.73.66l.63.12c.15.03.35.54.22.62l-.65.39-.94.56c-.2.12.49.66.72.73l1.53.47-.26,1.83-1.48-.66c-.31-.14-1.59,1.82-1.29,2.01,1.33.86,1.06-.7,2.06-.13s-.71,1.01.21,2.67l-.11.47c-.03.11-.01.52.07.45l.49-.4.1-2.1,1.25.46c.23.09-.34.72-.67,1.09l1.61,1.57c.08.08.48.19.58.24s.03.46-.08.43l-.62-.18-1.14,3.36c.55.3,1.86,1.02,1.87,1.6,0,.31-.37,1.01-.23,1.2l.6.81-12.9-.05c-.57,0-1.79-.2-2.31-.3l-1.44-1.34-.19,1.66-.81-.88c-.17-.19.42-.72.7-1.14l-1.4-.67.45-.51c.09-.1-.15-.26-.41-.52,1.47-.19,2.28-1.28,3.39-2.78l.14,2.34c1.06-.05,2.21-.05,2.3,1.55l-2.35-.23c-.23-.02-.77-.39-.94-.25-.22.18-.79.76-.64,1,.69,1.11,2.39-.32,3.44.61ZM315.98,273.76l-1.21-.52.13,3.3c.38.42,1.13-2.76,1.08-2.78Z"/>
  <path d="M345.5,281.2l.65,2.16c.92-.4,1.58-.8,2.48-1.5l1.34,1.76s.24-.27.42-.46c.05.42-.01,1.18.23,1.3.31.16.85.31,1.74.61l-27.23.02c.09-.83,0-1.34.3-1.52.38-.22,1.35-.1,1.48.23.09.24.69.9.8.7l.42-.77,2.25-1.61c-.85-.73-1.25-1.15-1.37-2.18-.13-1.11,2.61-4.19,2.79-3.47l-.42.67c-.09.14.01.27.14.46.09.13.53-.07.61-.21l.51-.86c.13-.22-.51-.62-.83-1.01h2.09c.77-.3,1.63-.34,2.25.14-1.07,1.04-1.44,1.89-1.63,3.04-.82-.52-1.77-.77-2.46-.24-.86.65-1.68.99-1.46,2.26l1.68-1.28,2.96-.57c.06-.35.16-1.05.34-.93l1.03.7,1.92,1.3,1.44.84c.34.2.75.56.96.44l.98-.56c.95-.54,1.67,1.8,2.13,2.37.1.12.55-.06.53-.21l-.11-.75c-.02-.14-.03-.46.09-.51l.98-.4Z"/>
  <path d="M301.03,264.81c-4.04-.48-1.34.22-4.03-1.51-.26-.17-.85-.95-.63-1.17l.93-.92c.19-.19.28-.87.49-1.02.44-.33,2.79-.57,4.16.5.16-.52.42-.9,1.11-1.37l-.49-1.7,3.88.1-1.45-.48.75-.97c.21-.27,1.02.27,1.37.38.25.08.89-.72,1.04-.5l.81,1.19,1.59-1.62-.62,1.59s.82.1,1.1.13c.33.04.39-1.01.63-1.23l1.76-1.67c.7.58,1.36,1.05,2.2,1.53s.74,2.32.22,3.05l-1-.66c-.69-.46-.39,1.17-2.96.74-.21-.04-.71.5-.9.41l-1.06-.47c-.11-.05-.63-.12-.75-.13s-.33.48-.22.54l.73.4.98.54c1.28.7-1.26,1.93-1.54,2.86-.12-.04-.75-.16-1.13-.19l-1.76-.12c-.25-.02-.79.06-1,.17-.26.14.17.77.5,1.21l-1.58.44c-.51-.48-1-.97-1.52-.97-.61,0-.99.31-1.58.93Z"/>
  <path d="M54.55,182.93c-1.69.84-4.9-.12-5.43-.86-.55-.78-1.06-2.49-.57-3.08.18-.21.98-.49.95-.72l-.15-1.26,1.75-1.5c2.45-2.1,5.58-2.05,8.04-.22l.27,3.34c-1.26,2.02-2.87,3.3-4.88,4.3Z"/>
  <path d="M70.13,29.97c.97,2.04-4.61,2.6-6.05,1.97-.68.28-1.83,1-2.48,1.17-1.52.39-2.92-.65-3.24-1.73-.5-1.65.67-2.52,2.04-3.22,2.24-1.14,4.42-1.08,6.69.13.86.46,2.6.75,3.04,1.69Z"/>
  <path d="M33.16,47.2c-2.91,1.79-4.95,2.87-8.06,1.12-.9-.5-2.69-.76-3.62-1.1-.78-1.22.61-2.45,1.9-2.65l5.65-.87c.44-.07,1.52-.1,2.01-.11,1.05.53,2.1,2.13,2.13,3.6Z"/>
  <path d="M148.06,83.41c-3,.79-6.16.81-9.27.78-.99-.01-5.35-.07-4.69-1.89l.89.88c.22.22,1,.2,1.31.08l3.96-1.57c.75-.3,1.42-.62,2.23-1.09,2.74-.14,4.74-.69,6.71,1.27.19.19.3,1.17.04,1.24l-1.19.31Z"/>
  <path d="M109.5,32.45c-5.17-.39-2.21,1.13-6.08.4-1.19-.22-1.95-.82-1.89-2.04l2.03-.65c.27-.82.71-1.86,1.28-2.06.98-.35,1.85-.24,2.85.1s2.84.49,3.25,1.42c.43.98-.56,2.91-1.44,2.84Z"/>
  <path d="M112.63,220.08c-1.15-.52-1.93-.79-2.94-.81l-1.43-3.2c-.35-.78,1.28-2.17,2.08-2.4,1.03-.31,2.48.08,3.73.81.44,2.53,1.4,3.96-1.45,5.6Z"/>
  <path d="M27.64,243.86c-1.01-.4-1.87-1.92-2.29-2.96-.12-.3-.98-.74-.88-1.03l.45-1.34.29-.88s2.73-.37,4.29,1.57c.62.78.69,2.93.08,3.69-.38.31-1.4.69-1.95.94Z"/>
  <path d="M60.57,247.86l-.58-.99c-.15-.26-.87.3-1.26.57-.49-.48-.73-1.64-.53-2.55l-.59-1.1c.29-.92,1.09-1.8,2.05-2.39l2,1.14,2,3.24c-1.1.07-2.07.8-3.09,2.09Z"/>
  <path d="M296.92,134.6c.24.56-1.05,1.29-1.63,1.3-1,.02-1.31-.35-1.98-1.18-.52-.64-.65-1.1-.51-2.16l-1.63-.47,1.32-2.69c.47.02,1.37.01,1.53.33s.26,1.02.35,1.69h1.2s1.34,3.18,1.34,3.18Z"/>
  <path d="M26.59,139.81c.35.1-3.12,1.26-2.53.6l-.92,1.05-.26-2.07-.79.62c-.24.19.41.98.48,1.13l-1.26.43v-3.05c1.48.22,3.06-.39,4.25-1.24l1.71.43c.89.22,1.54.18,2.89.1l-.23,2.1c-.69-.32-1.71-.14-2.32.21l-1.02-.3Z"/>
  <path d="M359.98,275.78c-.16.08-1.86-1.24-2.06-2.15-.13-.57,2.19-2.96,3.47-2.84.1.01-.24-.83-.48-.78l-1.38.29.46-.7c.15-.23.94-.2,1.24-.05,1.02.52,1.2,1.4,1.29,2.64.03.47.32,1.59.12,2s-.92.75-1.49,1.02l-1.16.57Z"/>
  <path d="M38.47,129.67l-1.64,2.5c-1.33.22-3.13.03-4.3-.93.29-1.25,1.34-2.66,2.02-3.4.54.44,1.02.78,1.43.93l2.48.9Z"/>
  <path d="M111.77,264.96l-3.06-.37c.47-1.67,1.77-2.7,3.51-3.25.56-.18,1.67.48,1.88,1.03.25.62.31,2-.1,2.35-.72.14-1.73.3-2.23.24Z"/>
  <path d="M303.26,269.49l.16-1.16c.04-.27-.46-.87-.52-.86-.39,1.14-.62,1.66-1.21,2.29l-.06-2.7c0-.28.22-.82.43-.96.27-.17,1.02.35,1.11.72.18.79,1.48,1.7,2.15.89.17-.21.39-.96.63-.93l1.37.17,1.18-1.37c.21.88.19,2.17-.17,2.73-4.81-1.06.22,2.32-3.51,4.58l.74-1.73c-1.74-1.09.38-1.38-2.29-1.68Z"/>
  <path d="M395.27,259.86l-1.39-1.46c.29-.23,1.26-.86,1.41-.54l.32.66c.09.18.63.27.74.13l.69-.82c.15-.18.85.2,1.07.12l1.09-.41c.23-.09.62.4.63.67l.18,2.73-2.44-.17-.65-1.09c-.17-.28-1.44.42-1.66.18Z"/>
  <path d="M218.7,66.85l1.43-2.3c.69-1.11,2.03-2.21,3.48-2.66l.7.76-3.96,4.11c-.18.18-.81.47-1.03.55s-.75-.46-.62-.45Z"/>
  <path d="M397.54,42.33l-.56-.02c-2.17-.08,2.36-1.91,3.89-2.19l3.23-.59-4.53,3.2c-.2.14-.77.42-1.01.43-.3.01-.68-.5-1.02-.83Z"/>
  <path d="M54.54,154.13l-.81,1.69c-1.09.03-2.22-.46-2.71-1.21,1.28-1.07,2.83-2.15,3.88-2.1.37.02,1.2,1.04.97,1.27-.3.31-.41,1.62-1.34.35Z"/>
  <path d="M321.9,256.29c-.5.5-2.36-.13-2.54-.79-.33-1.26,1.64-2.37,2.66-2.13.39.09.9.98.87,1.36s-.38.95-.99,1.56Z"/>
  <path d="M94.61,273.41l-1.98-.92c.15-.98.46-1.69,1.1-2.48,1.17.34,2.03,1.04,2.29,2.3.09.42-.97,1.31-1.41,1.11Z"/>
  <path d="M57.69,126.47c.88.72-.09,2.5-1.12,2.5-.89-.71-1.6-1.01-2.8-1.37l.43-1.45.54.45c.14.12.51-.21.66-.28.66.22,1.02.26,2.28.15Z"/>
  <path d="M197.33,285.06l-4.79.06c.41-1.12,1.08-2.56,2.55-2.16.7.19,1.57,1.21,2.24,2.1Z"/>
  <path d="M401.75,130.29c.59-.66,2.97.33,2.86,1.5-.1,1.06-2.79,1.52-3.23.59-.23-.48-.05-1.63.37-2.09Z"/>
  <path d="M195.17,164.33c.76.51-.1,1.83-.81,2.17-.67.31-1.84.17-2.21-.83-.15-.41.47-1.33.85-1.55.42-.25,1.48-.25,2.18.22Z"/>
  <path d="M175.6,165.91l-3.03.04,2.01-2.17,2.14-.16c-.17.83-.59,2.28-1.12,2.29Z"/>
  <path d="M334.42,246.47h-2.19c-.5-1.12-.47-2.37-.02-3.16l2.09,1.8-.38.43c-.09.1.06.21.5.93Z"/>
  <path d="M294.79,275.67l-.49-.88c-.12-.22-.8.3-.95.53l-.74,1.16-.07-2.22,1.09-.12c.21-.02-.05-.64-.07-.78,1.04.79,2.57-.24,2.24.33l-.36.62c-.14.25-.18.84-.16,1.21l.04.65c0,.14-.43-.31-.52-.49Z"/>
  <path d="M349.48,241.01c-.14.65-1.74,1.34-2.3,1.06-.8-.4-.25-1.66.28-2.02.64-.44,2.22.07,2.02.95Z"/>
  <path d="M23.77,54.58c.13,1.28-2.05,1.5-2.38.85-.35-.71.1-1.69.69-1.74.46-.04,1.63.38,1.68.89Z"/>
  <path d="M371.93,42.52l-2.09,1.31c-.2.13-1.03-.16-1.21-.32-.22-.2.14-.69.53-1.18.48-.61,1.86-.4,2.77.19Z"/>
  <path d="M227.1,63.28l-1.02.52c-.24.12-.44-.64-.59-1.03l-.45.99.14-1.56c.05-.55,2.57.09,2.59.24l.11,1.28-.77-.44Z"/>
  <path d="M391.24,152.62c-.65-.7-1.04-1.13-1.24-1.52s.6-1.46,1.02-1.42c.36.03.95.85.94,1.21-.01.44-.3,1-.72,1.74Z"/>
  <path d="M226.78,61.35l-2.13.1c.42-.93.84-1.65,1.36-2.02.43-.31,1.55.27,1.91.63l-1.12.21c-.23.04-.09.3-.02,1.09Z"/>
  <path d="M162.45,95.89c-.67.71-1.61,1.55-2.35,1.66-.33-.07-.85-1.13-.58-1.37s1.01-.59,1.31-.69l1.63.39Z"/>
  <path d="M220.55,135.54l-1.2-.52.92-2.52c.36.16,1.19.99,1.03,1.41-.2.52-.62,1.42-.75,1.63Z"/>
  <path d="M364.25,285.05l-4.5.03,2.3-1.11c.53-.26,1.63.43,2.2,1.09Z"/>
  <path d="M167.66,20.97c-.68,1.18-1.65,1.44-2.93,1.17.22-.55.62-1.25,1.04-1.42.51-.21,1.53-.04,1.89.25Z"/>
  <path d="M326.59,282.29c-.06.31-1.07.27-1.14.17l.6-1.06c.15-.27-.44-.82-.58-.93l1.38-1.29.21,1.48c.04.26.61.31.91.46l-1.06.22c-.2.04-.23.5-.32.96Z"/>
  <path d="M52.19,151.83l-.96,1.32c-.25.35-1.64-.14-1.67-.68l1.14-.38c.25-.08.23-.76.3-1.17l1.19.9Z"/>
  <path d="M230.02,70.42c-.3-.76-.55-1.23-1.06-1.99l1.02-.48c.25-.12.55.84.62,1.12l.24.99c.06.26-.72.5-.82.35Z"/>
  <path d="M403.89,261c-.25.17-.89.12-1.11,0-.27-.15-.27-1.82.14-.83l2.18-1.22c-.07.75-.63,1.66-1.21,2.05Z"/>
  <path d="M323.5,282.78l-.56-1.75c-.11-.33-.54-.17-1.27-.31l1.17-.86c.21-.15.98.17,1.05.41.16.59-.1,1.73-.38,2.51Z"/>
  <path d="M367.99,42.68c0,.41-.41,1.2-.74,1.34-.39.16-1.58-.33-1.28-.67l.92-1.05c.19-.21,1.1.1,1.1.38Z"/>
  <path d="M225.78,126.5l-.97.91c-.2.19-.48-.77-.53-1.12-.05-.32.51-.28.93-.4.67-.52,1.38-.84,2.2-.94l-1.64,1.55Z"/>
  <path d="M325.66,139.24c-.05.75-.65,1.21-1.11,1.17-.5-.04-.93-.88-.75-1.47.16-.5,1.9-.23,1.86.3Z"/>
  <path d="M401.39,266.16l-1.14-.55.84-.76c.15-.14-.02-.59-.06-1.07l1.71,1.04-1.35,1.35Z"/>
  <path d="M129.82,178.26c-.06.19-.62.39-.7.27l-.48-.71c-.11-.17.57-.47.76-.6l-1.07-1.11,1.99.64-.5,1.5Z"/>
  <path d="M252.04,33.67c.25.29-.91,1.26-1.6,1-.27-.1-.91-.86-.66-1,.81-.43,1.46-.92,2.26,0Z"/>
  <path class="cls-1" d="M206.17,92.72c-.03-.16-1.77-.94-1.74-.54l.05.7-1.58-.45c-1.91-.55,1.23.16,4.15-3.39l1.01,1.73.95-1.27,1.22.87-.56.91c-.11.18.35.65.64.9.84,0,0-4.54.72-3l.54,1.13,1.61-.25c2.89-4.63.33.47,7.89-4.16.26-.16.95-.45,1.21-.59s-.16-1.05-.16-1.11l2.92-.68c.22-.05.87.2.95,0l.46-1.04c.13-.3,1,.29,1.31.38l4.12-.38,2-.81c.63-.26,1.35.59,1.84,1.16.35.12,1.12.16,1.2.52.09.38-.11,1.24-.49,1.25-.88.02-1.79.37-2.43.68l-1.83.89c-.91.44-1.87.68-2.92.95-.91.23-1.37,2.47-3.06,1.87l1-.98c.06.07-.29-.53-.45-.46l-.81.33c-1.41.57-2.85.95-4.34,1.1l-.83,1.46-.72-.79-.61,2.07c-.93-.3-2.21-.48-3.15,0-1.13.57-.02,3.69-1.42,4.13-.83.26-2.14.18-2.49-.58-.37-.82-.14-1.62.23-2.52.17-.42-.8-.9-1.13-.59-1.45,1.37.58,2.33-.81,3.42-.37.29-1.38.45-1.77.21-1.14-.68-.08-1.96-1.1-2.77-.19-.15-.93.19-.81.41l.37.73c.08.16-.37.65-.49.51s-.4-.55-.43-.73l-.23-1.22Z"/>
  <path class="cls-1" d="M366.58,58.64c-2.62,2.36-.22.97-4.72,3.64l-2.85-.9-.28-1.16-1.28.28c-.23.05-.45-.6-.5-.83-.06-.29.39-.89.67-1.01l7.55-3.25c1.13-.49,2.39-1.62,3.91-1.32,1.78.36,2.12-1.11,2.92-1.8.74-.65,1.22-1.1,1.91-1.89.53-.61,2.29-.66,3.17-.94,1.07-.35,2.09-.87,3.14-.22-1.62,2.17-2.53.06-3.16,2.86-2.71-.42-3.51.49-4.91,1.85-.67.64-2.85.75-3.26,1.71-.62,1.45-1.26,2.06-2.31,3Z"/>
  <path class="cls-1" d="M207.13,77.06l-.63-.99,1.25.13c.27.34.53.65.74.79.3.2.85-.58.81-.9-.06-.49-.15-1.06.04-1.04,3.27.31.95-.44,3.53.52,0,.21.38-.63.22-.73l-.96-.59c-.55-.25-.9-.53-.22-.53,1.34-.17,2.02-.21,3.13-.06l-.96,1.45c-.31.46-.65,1.15-.88,1.68l-1.42-.15.31,1.37c.05.24-.88.39-1.1.29-3-1.38-3.09.77-3.56.49l-.83-.49c-.2-.12.26-.85.52-1.25Z"/>
  <path class="cls-1" d="M297.97,90.33c-1.28.61-4.73,1.86-5.79,1.86-.38,0-.27-1.41-.06-1.72.25-.37,1.13-.23,1.5-.22.54-1.03,2.93-2.85,4.23-2.05.18.11.33,1.03.53,1.06l1.21.18-.44.76c-.13.22-.95.03-1.19.15Z"/>
  <path class="cls-1" d="M82.03,135.09l-1.32.69-.75-.56c-.18-.13-.57.31-1.04.63l-.66-.9c-.18-.24.33-1.2.57-1.02l.71.53c.86.65.92-1.46,1.56-1.41l1.27.09c.21.01.66-.62.83-.49l.88.64.97-1.45.76,1.46c.14.27.74.11,1.34-.01.65-.13,1.43,1.54.87,1.88l-.96-.56c-.18-.11-.53.45-.62.54-.07-.31-.23-1.22-.51-1.28-.66-.16-2.26-.23-2.74-.09-.37.56-.8,1.14-1.14,1.32Z"/>
  <path class="cls-1" d="M172.21,92.77l-1.31.79c-.12.07.53.59.45.7l-.46.58c-.07.09-2.47-1.51-3.23-2.08l-.48-.35c-.12-.09.21-.38.28-.57l.42-1.02c.11-.27,1.23-.1,1.23.19l.03,1.2c1.48-1.62,3.01-1.63,5.32-.8l-2.89.74.63.61Z"/>
  <path class="cls-1" d="M106.17,134.93c.16-.67.29-1.24.08-1.56-.26-.4-1.11-.4-1.45-.25-1.58-1.51,1.96-.13,3.14-.35,1.88-.35,1.54-1.46,2.29-2.74.08-.13.59.35.49.47s-.47.48-.46.64l.19,2.39-1.43-.24c-1.05-.18-.36,2.3-1.62,2.61-.38.09-1.33-.59-1.24-.97Z"/>
  <path class="cls-1" d="M88.38,140.18l-.61-.89c-.51-.73-1.69.91-2.57-.59l2.47-1.42-.77-1.4c2.39,2.07,2.86.5,3.61,1.75.84,1.4-1.6.67-2.12,2.56Z"/>
  <path class="cls-1" d="M96.75,137.69l-1.48-2.06-.4,1.09-1.09-2.17c-.07-.14.24-.65.38-.58,2.89,1.42,2.17-.54,4.07,2.26l-1.49,1.46Z"/>
  <path class="cls-1" d="M161.78,105.75c.19.28-.52.99-.85,1.03-.75.1-2.48-.92-2.19-1.4s.99-1.18,1.41-1.22c.48-.05,1.19.98,1.62,1.59Z"/>
  <path class="cls-1" d="M105.22,135.8c-.17-.17-.49-.49-.47-.47l-.73,1.01c-.18.25-1.26,0-1.25-.3.01-.54.34-1.69.49-1.99l2.04-.1-.08,1.84Z"/>
  <path class="cls-1" d="M262.73,79.15c.3.15.62.85.6,1.17s-.54.82-.86.86c-.38.06-1.16-.46-1.29-.85-.24-.74-.12-1.97.2-1.99.51.34.95.62,1.35.81Z"/>
  <polygon class="cls-1" points="60.86 137.05 58.06 138.26 57.1 135.69 60.86 137.05"/>
  <path class="cls-1" d="M92.11,134.39c-.14.07-.69.13-.67,0l.11-.61.12-.64c.03-.18-.53-.21-1.09-.29-.17,0,.11-.62.33-.69.76-.24,2.13.35,3.32,1.16l-2.11,1.06Z"/>
  <path class="cls-1" d="M233.37,91.07l-2.01-.46c0-.46,1-1.41,1.68-1.61.32-.09.74.49.85.8s-.2,1.34-.53,1.27Z"/>
  <path class="cls-1" d="M351.57,65.92c-1.54.42-3.1.77-4.55.53l3.04-1.15c.26-.1.82-.25,1.18-.34.23-.06.4.6.32.95Z"/>
  <path class="cls-1" d="M143.37,167.59l-1.4-.36c-.32-.08-.4.56-.72,1.4l-1.01-2.59.77.56c.62.45.29-.28,2.27-.11.27.02.33,1.16.08,1.1Z"/>
  <path class="cls-1" d="M170.48,98.69c-.11-.33-.31-.92-.2-.98l.77-.39c.15-.08.59-.34.6-.5l.06-.92c.13-.04.78.16.93.36.83,1.12-1.44,2.14-2.16,2.43Z"/>
  <path class="cls-1" d="M140.37,168.78c.02.29-2.08,2.06-3.03.91l2.96-1.93s.05.76.07,1.02Z"/>
  <path class="cls-1" d="M123.66,174.85l-.66.77c-.13.16-.74-.38-.64-.55l1.07-1.89c.42.26,1.01.53.89.74-.13.22-.44.68-.66.93Z"/>
  <path class="cls-1" d="M337.04,69.08c-1.14.97-1.72,1.74-2.93.65l2.45-1.13c.51.03,1.07.35.48.48Z"/>
  <path class="cls-1" d="M315.98,273.76s-.71,3.21-1.08,2.78l-.13-3.3,1.21.52Z"/>
</svg>