<?xml version="1.0" encoding="UTF-8"?>
<svg id="Layer_2" data-name="Layer 2" xmlns="http://www.w3.org/2000/svg" viewBox="0 0 432 288">
  <defs>
    <style>
      .cls-1 {
        fill: #fff;
      }
    </style>
  </defs>
  <path class="cls-1" d="M.13,288V0h432v288H.13ZM236.57,153.11l.39,2.62c.48,3.22.91,8.63.33,11.8-.82,4.43.07,4.76-.83,10.4l-.61,3.89c-.08.5-.11,1.46-.1,2.03.07,7.98-1.7,11.23-1.19,21.29.12,2.31-.21,4-.02,7.21l.28,4.57.09,2.86.36,4.15c.09,1.08.12,2.26.27,3.32l.53,3.79c.24,1.72.32,3.17.19,4.9l-.25,3.32c-.13,1.76-.31,3.17-1.12,4.76-.34.67-.32,1.99-.6,2.74l-.93,2.49-2.48,5.38c-.47,1.01-.59,2.73-.65,3.8,1.05,3.62.28,4.89,1.02,7.92.24.97.28,1.92.43,2.92l1.23,8.15.63,5.3c.27.74,1.87.52,2.49.04.86-3.81.01-8.72.53-12.95.25-2.02.88-3.88.93-5.96.07-3.31,2.58-9.63,3.95-12.81.34-.79,1.69-5.08,1.78-5.69l.51-3.38.49-3.27c.13-.84.47-1.99.5-2.83.14-4.43.11-8.72,0-13.13l-.08-3.52c-.05-2.23-.55-4.38-.7-6.59l-.28-4.06-.21-2.45c-.12-1.38-.09-2.82.01-4.22l.3-4.16c.15-2.01.22-3.89.67-5.86l.51-2.24,1.06-4.65.73-3.8c.15-.76.44-1.59.53-2.36l.82-7.08c.42-3.63-.13-8.08.18-11.9.11-1.34.11-2.52-.02-3.87l-.25-2.63-.23-2.92c-.08-1-.13-2.08-.37-3.07l-.8-3.34c-.13-.53-.33-1.56-.54-2.01l-1.73-3.84-1.24-2.79c-3.74-8.43-7.29-5.42-8.47-6.16-.6-.38-1.49-1.22-1.74-1.76l-1.11-2.36c-.24-.5-.24-1.71-.3-2.24,1.9-.04,3.61.21,5.1-.51.63-.31,1.27-1.06,1.31-1.56.04-.55-.35-1.35-.75-1.71l-2.33-2.1c-.45-.41-.81-1.49-1.22-2.07-.47-.67-.6-1.53-.91-2.23-1.35-3.06-2.21-6.06-2.67-9.36-.23-1.65-1.07-3.27-1.18-4.95-.2-3.28-.73-1.95-.98-6.68-.09-1.72-.06-3.34,0-5.06.02-.55-.12-1.01-.15-1.55l-.27-5.51c-.11-2.33-.18-4.66,0-6.99.27-3.6.02-4.91.06-8.27l.1-8.15c0-.41.25-1.27.19-1.64-.82-4.66-.05-5.26-1.08-9.53-.6-2.48-1.26-4.87-2.16-7.23-.64-1.69-1.09-3.22-1.47-5.02l-.71-3.36c-.19-.91-.3-1.77-.39-2.74-.51-5.64-.89-4.16-.52-10.38l.22-3.69c.05-.84.83-1.86-.02-2.72-.47-.47-1.95-.28-2.66.11-.55.3-1.08,1.22-1.28,2.02l-1.2,4.8c-.26,1.03-.64,2.2-.79,3.2l-.7,4.63c-.28,1.86-.81,3.57-1.33,5.37l-1.42,4.88c-.2.7-.22,1.44-.65,2-1,1.33-.91,5.74-.75,7.48l-.17.82c.05,2.71-.22,3.73-.21,6.83,0,1.67-.04,3.28-.1,4.97l-.2,5.62-.23,3.68c-.1,1.63-.16,3.19-.12,4.8l.07,2.85c.02.66.04,1.54,0,2.17l-.2,4.09-.12,3.12c-.03.68.01,1.29.11,2.05.05.39-.14,1.1-.15,1.46-.02,1.66-.09,3.27-.14,4.96l-.17,5.69c-.12,3.94-1.3,2.92-.2,5.38l-.82,3.81c-.3,1.41-.03,3-.18,4.47-.22,2.22.25,1.94.02,4.82l-.29,3.62c-.09,1.08-.6,2.33-.76,3.44-.33,2.35-1.93,1.82-2.3,3.19-.09.32.19.93.48,1.01,3.97,1.07,3.1-1.12,6.84-.31,1.81,1.32,2.45,3.43,2.98,5.48,1,3.88,2.06,8.56,2.32,12.4l.22,3.1c.12,1.66.2,5.36.02,6.82-.11.87,0,1.67.07,2.59.08,1.05-.13,2.19-.17,3.33s.51,2.54.38,3.59c-.8,6.04.25,5.29-.71,11.43l-1.04,6.64c-.28,1.78-.82,3.64-.84,5.38-.02,1.1,0,1.9-.35,2.97-.62,1.97-.83,3.99-1.55,5.97l-1.26,3.44-.63,2.03-1.04,2.47c-.8,1.91-1.14,3.7-2.55,5.29-.38.71-.62,2-1.05,2.7-1.47,2.4-.64-.26-1.45,4.28-.24,1.32-.07,2.82-.2,4.19-.18,1.92-.88,3.88-.68,5.74l.27,2.5.87,8.93c.27,2.82-.38,5.3.83,6.85.87.14,2.03-.16,2.56-.68.09-1.27-.02-2.62.17-3.76.33-1.94.67-5.99.68-6.02.78-3.74,2.53-7.25,4.78-10.29.91-1.23,2.7-1.69,3.48-2.98.34-.56.87-1.46,1.02-2.09l1.36-5.75c.33-1.39.92-2.62.84-4.15-.05-.96-.12-2.18.08-3.02l.47-1.97c.2-.85.67-2.06.64-2.82-.06-1.34.13-2.13.5-3.36l.68-2.23,1.33-5.67c.19-.81.27-1.27.24-2.16-.04-1.11.66-2.52.77-3.72l.24-2.63.23-4.08.27-4.8c.06-.99-.03-2.19.37-2.97l.39-.76c.08-.16-.36-.59-.43-.78.39-2.97,0-6.31-.2-9.4l-.26-4.1c-.06-.9-.24-1.83-.42-2.66.93-3.19-.29-1.18.27-5.05.09-.66.06-.98.69-1.63l.5,2.54c.15.74.81,1.61,1.44,1.77s1.88.17,2.24-.44l1.53-2.61c.16-.27.75-.65,1.03-.61,1.89.32,1.82,2.46,1.86,2.71l.82,4.29Z"/>
  <path d="M236.57,153.11l-.82-4.29c-.05-.25.02-2.39-1.86-2.71-.28-.05-.87.34-1.03.61l-1.53,2.61c-.36.62-1.6.61-2.24.44s-1.29-1.02-1.44-1.77l-.5-2.54c-.63.65-.59.97-.69,1.63-.56,3.87.67,1.87-.27,5.05.18.83.36,1.77.42,2.66l.26,4.1c.2,3.08.6,6.43.2,9.4.07.19.51.62.43.78l-.39.76c-.4.78-.31,1.97-.37,2.97l-.27,4.8-.23,4.08-.24,2.63c-.11,1.2-.82,2.61-.77,3.72.03.89-.05,1.35-.24,2.16l-1.33,5.67-.68,2.23c-.37,1.22-.55,2.02-.5,3.36.03.77-.43,1.97-.64,2.82l-.47,1.97c-.2.84-.13,2.05-.08,3.02.07,1.53-.52,2.75-.84,4.15l-1.36,5.75c-.15.63-.68,1.52-1.02,2.09-.78,1.29-2.57,1.75-3.48,2.98-2.25,3.04-4,6.55-4.78,10.29,0,.04-.35,4.09-.68,6.02-.19,1.15-.08,2.49-.17,3.76-.53.52-1.69.82-2.56.68-1.21-1.55-.56-4.03-.83-6.85l-.87-8.93-.27-2.5c-.2-1.86.5-3.82.68-5.74.13-1.37-.04-2.87.2-4.19.81-4.54-.01-1.88,1.45-4.28.43-.71.67-2,1.05-2.7,1.4-1.59,1.74-3.38,2.55-5.29l1.04-2.47.63-2.03,1.26-3.44c.73-1.98.93-4,1.55-5.97.34-1.07.33-1.88.35-2.97.03-1.74.56-3.61.84-5.38l1.04-6.64c.96-6.14-.09-5.39.71-11.43.14-1.05-.41-2.5-.38-3.59s.25-2.28.17-3.33c-.07-.93-.18-1.72-.07-2.59.18-1.46.1-5.16-.02-6.82l-.22-3.1c-.27-3.83-1.32-8.51-2.32-12.4-.53-2.05-1.16-4.16-2.98-5.48-3.74-.81-2.87,1.38-6.84.31-.28-.08-.56-.69-.48-1.01.38-1.37,1.97-.84,2.3-3.19.16-1.11.67-2.36.76-3.44l.29-3.62c.23-2.87-.24-2.59-.02-4.82.15-1.47-.13-3.06.18-4.47l.82-3.81c-1.1-2.46.09-1.45.2-5.38l.17-5.69c.05-1.69.12-3.3.14-4.96,0-.36.2-1.07.15-1.46-.09-.76-.13-1.37-.11-2.05l.12-3.12.2-4.09c.03-.64.01-1.51,0-2.17l-.07-2.85c-.04-1.61.02-3.17.12-4.8l.23-3.68.2-5.62c.06-1.69.11-3.31.1-4.97,0-3.1.26-4.11.21-6.83l.17-.82c-.16-1.74-.25-6.15.75-7.48.42-.56.45-1.31.65-2l1.42-4.88c.52-1.8,1.05-3.51,1.33-5.37l.7-4.63c.15-.99.53-2.17.79-3.2l1.2-4.8c.2-.79.73-1.72,1.28-2.02.71-.38,2.19-.58,2.66-.11.85.86.07,1.88.02,2.72l-.22,3.69c-.37,6.22.02,4.74.52,10.38.09.97.2,1.83.39,2.74l.71,3.36c.38,1.8.82,3.33,1.47,5.02.9,2.36,1.56,4.76,2.16,7.23,1.03,4.28.26,4.88,1.08,9.53.06.37-.18,1.23-.19,1.64l-.1,8.15c-.04,3.37.22,4.67-.06,8.27-.18,2.33-.12,4.66,0,6.99l.27,5.51c.03.54.17,1,.15,1.55-.07,1.72-.1,3.34,0,5.06.26,4.73.78,3.41.98,6.68.1,1.69.94,3.3,1.18,4.95.46,3.3,1.32,6.3,2.67,9.36.31.7.44,1.56.91,2.23.41.58.77,1.66,1.22,2.07l2.33,2.1c.41.36.79,1.17.75,1.71-.04.5-.68,1.25-1.31,1.56-1.49.72-3.2.47-5.1.51.07.53.06,1.74.3,2.24l1.11,2.36c.25.54,1.13,1.38,1.74,1.76,1.17.74,4.73-2.27,8.47,6.16l1.24,2.79,1.73,3.84c.21.46.41,1.48.54,2.01l.8,3.34c.24.99.29,2.07.37,3.07l.23,2.92.25,2.63c.13,1.35.13,2.53.02,3.87-.31,3.82.24,8.27-.18,11.9l-.82,7.08c-.09.77-.38,1.6-.53,2.36l-.73,3.8-1.06,4.65-.51,2.24c-.45,1.97-.53,3.85-.67,5.86l-.3,4.16c-.1,1.39-.13,2.84-.01,4.22l.21,2.45.28,4.06c.16,2.21.65,4.36.7,6.59l.08,3.52c.11,4.41.15,8.7,0,13.13-.03.84-.37,1.99-.5,2.83l-.49,3.27-.51,3.38c-.09.61-1.44,4.9-1.78,5.69-1.37,3.18-3.87,9.51-3.95,12.81-.05,2.07-.68,3.93-.93,5.96-.52,4.23.33,9.14-.53,12.95-.62.48-2.22.7-2.49-.04l-.63-5.3-1.23-8.15c-.15-1.01-.2-1.96-.43-2.92-.74-3.03.03-4.3-1.02-7.92.07-1.07.19-2.78.65-3.8l2.48-5.38.93-2.49c.28-.75.26-2.07.6-2.74.81-1.59.98-3,1.12-4.76l.25-3.32c.13-1.73.05-3.17-.19-4.9l-.53-3.79c-.15-1.06-.18-2.24-.27-3.32l-.36-4.15-.09-2.86-.28-4.57c-.2-3.21.13-4.89.02-7.21-.51-10.06,1.26-13.31,1.19-21.29,0-.57.03-1.53.1-2.03l.61-3.89c.89-5.64,0-5.97.83-10.4.58-3.17.16-8.58-.33-11.8l-.39-2.62ZM220.95,119.76c.49-1.2.46-2.48.57-3.67l.32-3.47c2.26-.67.33-5.73.08-7.13l-.25-1.46c-.48-2.76-.87-5.24-.92-8.05-.06-3.59-.68-4.52-1.31-7.68-.13-.64-.23-1.16-.46-1.72l-.18,5.51-.37,4.15c-.28,3.14.25,3.6-.21,5.78-.19.87-.21,1.73-.31,2.62l-.64,6c-.09.85-.25,1.53-.45,2.43-.14.59,1.35.76,1.68,1.15,1.21,1.47,1.72,3.62,2.48,5.55Z"/>
  <path class="cls-1" d="M220.95,119.76c-.75-1.92-1.26-4.08-2.48-5.55-.32-.39-1.81-.55-1.68-1.15.2-.9.36-1.58.45-2.43l.64-6c.1-.89.12-1.75.31-2.62.47-2.19-.07-2.65.21-5.78l.37-4.15.18-5.51c.23.56.33,1.08.46,1.72.63,3.16,1.24,4.09,1.31,7.68.05,2.81.44,5.29.92,8.05l.25,1.46c.25,1.4,2.17,6.46-.08,7.13l-.32,3.47c-.11,1.2-.07,2.47-.57,3.67Z"/>
</svg>