<?xml version="1.0" encoding="UTF-8"?>
<svg id="Layer_2" data-name="Layer 2" xmlns="http://www.w3.org/2000/svg" viewBox="0 0 432 288">
  <defs>
    <style>
      .cls-1 {
        fill: #fff;
      }
    </style>
  </defs>
  <path class="cls-1" d="M342.57,141.31v149.05H87.35V2.29h255.22v138.58l-.95.61c.49-.05.7-.09.95-.17ZM113.24,198.47c.64-1.97-.97-3.69-.25-3.8.38.91.12,1.94,1.28,2.11-.16-.78-.5-1.6-.98-2.18l-.82-.99-.16-.27c-1.81.51-.1,1.68-1.67,2.38l-.52,1.1c.22.41.33.78-.04.97-1.89-3.56-1.22-5.27-1.73-8.17-.14-.77-.11-1.63-.16-2.43-.03-.51-.22-1.23-.15-1.72.61-4.34-1.23-2.96-.04-6.72,1-3.17.75-2.37,2.11-5.37-.33-.84-.25-1.84.49-2.55.85-.82,1.4-1.73,2.03-2.8.49-.83,1.66-1.28,2.45-1.83l2.85-1.99c.3-.21.83-.67,1.19-.74,2.43-.46,2.19-2,5.72-2.53-.56.43-1.03.91-1.5,1.53l-1.1.81c.41-.05.78-.2,1.25-.47.51-.29,1.18-.18,1.77-.27.76-.12,1.62-.64,2.39-.97.19-.08.67.02.75-.15l.38-.81c.33-.7.35-.96.3-1.57-.14-1.7,1.31-2.97,2.02-4.29l1.38-2.57c.38-.71,1.03-1.7,1.2-2.36s0-1.21.54-1.79c.39-.42.68-.93.91-1.39l.89-1.76c.19-.37.1-.9-.23-1.27l-1.12,1.66c-.36.53-1.24,1.14-1.84,1.56-1.29-1.41-.06-3.83.49-5.16.24-.58.37-1.41.54-2.08.66-2.71,2.02-6.54,3.35-9.09.8-1.54,1.24-3.32,2.21-4.76s1.88-2.71,2.46-4.32c.24-.67.6-1.22.98-1.85,2.31-3.77,1.7-5.26,6.15-8.48.03-.59,2.71-3.24,3.37-3.78.83-.67,1.16-1.63,1.64-2.63.35-.74,1.37-1.7,2.08-2.02.47-.21.56-.25.87-.6,3.69-4.2,2.52-1.37,6.08-5.05l1.93-.93.73-1.16-1.1-.35.38-.92c-.79-.06-1.49-.08-2.08-.38,1.57.05,3.35-.16,3.48-1.76-.52-.59-1.48-.06-2.16.59-.05-1.03.45-2.02,1.14-2.75,1.39-1.45-.17-2.06,1.26-4.66l1.65-3c.46-.83,1.01-1.63,1.02-2.63.01-2.72,1.01-1.85,1.88-4.91.67-2.37,3.21-2.46,1.86-5.46.17-.62.3-1.58.59-2.13l.91-1.73c.46-.87.84-1.4.77-2.52-.04-.76,1.01-1.49,1.25-2.13.67-1.81,1.32-3.43,3.04-4.49l-.15-1.17c1.64-.45.16-.11,2.03-3.21l1.07-1.78c.25-.41.51-1.01.72-1.44-.15-3.77,2.55-2.75,2.61-6.67,0-.69,1.04-1.6,1.42-2.16.2-.29.17-1.16.31-1.47,1.44-3.32,1.44-1.56,2.61-4,.56-1.16,2.01-1.85,2.7-2.82l1.02-1.44c1.43-2.01,1.37-.31,3.25-3.05.39-.57.71-.78,1.3-1.14l2-1.21c.21-.13.46-.58.59-.86,3.38-1.09,1.37-2.03,4.33-2.13.5-.02,1.39-.42,1.94-.52l3.5-.61c-.84-1.53-1.58-.64-3.13-.38-5.16.85-5.94.33-9.83,4.28-.59.6-1.48,1.04-2.29,1.44-1.08.52-1.72,1.61-2.5,2.41l-3.5,3.56c-.51.52-1.25,1.25-1.59,1.84l-1.67,2.95-1.69,2.46c-.44.63-.89,1.52-1.19,2.22l-.88,2.03c-.33.75-.79,1.29-1.39,1.95-.39.43-.44,1.53-.74,2.02l-1.42,2.33c-.67,1.1-1.29,2.06-1.81,3.25-1.49,3.42-2.89,2.91-3.89,7.25-.1.44-1.13,3.03-1.62,4.92-.17.67-.66,1.51-.75,2.15-.12.92-.22,1.58-.52,2.32-1.73,4.27-1.49,2.31-3.15,7.97-1.12,3.83-1.09,2.61-2.17,5.8l-.84,2.46c-.6,1.76-.22,2.52-1.92,5.45-.48.83-1.32,1.61-1.94,2.4l.77.54-1.39.19c-1.59.22-2.46,1.55-3.62,2.41-.89.66-1.76,1.25-2.56,2.05l-4.06,4.01-4.57,5.02c-.91,1-1.3,2.56-1.96,3.71l-2.25,3.89c-.6,1.04-2.06,3.33-2.84,4.12-.5.5-.76,1.12-1.12,1.72-1.72,2.87-1.45,2.21-2.91,5.39l-2.12,4.6c-.26.56-.41,1.38-.64,1.98l-.74,1.94c-.56,1.49-1.08,3.07-1.34,4.6-.11.33-.38.98-.52,1.34l-1.96,5.07-1.12,2.33c-.79,1.65-1.21,3.51-1.61,5.32-.27,1.25.49,3.51-2.41,5.21-3.73,2.18-2.28,2.01-6.03,3.64-1.15.5-2.03,1.05-2.97,1.87-1.03.89-2.54,1.58-3.21,2.85-.34.64-.54,1.3-1.01,1.84-.51.6-.68,1.24-.97,1.94l-.87,2.17c-.44,1.08-.65,2.01-.83,3.2l-.38,2.59c-.14.98.11,1.71.18,2.71l.17,2.49.48,2.82.97,4.3c.2.89.52,2.24.74,3.03,1.1,1.37.89,2.54.44,4.22l-1.12,4.11c-.22.79-.61,1.43-.77,2.27l-.69,3.58-.51,2.69-.38,2.08c-.69,3.77-1.46,3.58-1.49,6.34-.01,1.24-.53,2.65-.33,3.88.23,1.41.12,2.5-.13,3.84-.51,2.7.19,5.43.41,8.18.24,2.94,1,5.7,1.91,8.33,1.88-2.01-.56-3.85-.08-3.59,1.15.62.29-3.86-.5-4.65.34-.67.62-1.32.55-2-.09-.89.25-1.8.22-2.62l-.11-3-.07-2.19c-.05-1.55,1.01-1.14.84-1.71l-.25-.84.76-1.49c.2-.39.29-.98.39-1.4.84-3.31.25-1.78.48-5.12.74-.76.72-1.47.89-2.31.14-.66.33-1.5.53-2.19.18-.59.63-1.15.68-1.86.04-.66.45-1.27.71-1.89,1.03-2.48.57-2.71,1.71-4.43.24-.37.58-1.04.71-1.44l.74-2.26ZM224.58,20.47c-.78-.31-1.41-.41-2.03-.42.67.44,1.39.57,2.03.42ZM219.12,20.29c-.59-.1-1.1-.09-1.56,0,.59.1,1.1.09,1.56,0ZM237.32,25.93c1.82,1.17,4.25.6,3.19.14-.09-.04-.23-.11-.32-.16-.06-.03-.04.17-.08.49-.63-.15-1.2-.49-1.83-1.07l.8-.09c-1.16-.91-3.55-1.68-5.14-2.49s-2.99-1.12-4.76-1.46l-2.3-.45c-.24-.05-.68-.26-.84-.17s-.25.52-.4.99c1.13.2,2.34.43,3.53.4,1.09-.03,2.07-.11,3.19.55-1.12.16-1.81.23-2.83.71,1.08.4,1.99.51,3.09.56l.69-.51c1.58.22,2.86.67,4.28,1.72l-1.93-.26,1.69,1.09ZM227.67,23.2c-.28-.8-1.15-.75-1.39-.06.25.08,1.1.11,1.39.06ZM234.88,25.33l-2.05-.58c.95,1.12,2.3,1.25,3.74,1.26-.49-.22-1.1-.52-1.69-.68ZM244.18,27.86c-1.01-.66-1.95-1.18-2.94-1.33.68,1.18,1.91,1.39,2.94,1.33ZM214.82,29.57l1.92-.3c.4-.06.9-.19,1.16-.43.23-.2-.07-.98-.41-1.29-.45-.41-1.45.29-1.7.82l-1.54.23c-.24.04-.41.68-.25.92.13.19.45.1.82.04ZM242.87,28.7c.46.19.79.3,1.18.04-.38-.42-2.25-.98-2.35-.61l-.11.4c-.56.14-2.75-1.69-2.49-1.08.44,1.03,2.68,1.9,3.87,2.41.76.32,1.34.59,2.09.53l-2.51-1.3c-.07-.04-.24-.24-.28-.31s.03-.31.1-.28l.5.2ZM240.45,29.37c-.82-.34-1.06-.43-1.42-.5.2.77,1.06.97,1.42.5ZM213.49,29.12l-1.13.03.65,1.22.48-1.25ZM252.63,33.41c-2.49-2.73-2.11-1.05-5.05-3.55-.18-.16-.59-.53-.78-.44l-.89.4,2.16,1.08c2.29,1.15,1.48,2,4.56,2.5ZM209.21,31.72c.44-.05,1.02-.16,1.36-.31l1.94-.8c-.28-.42-.92-.12-1.26-.19-.89-.19-1.38-.13-2.2.15-1.39.47-2.84,1.27-3.71,2.36-.13.16-.73.48-.6.61,1.13,1.18,3.61-1.05,4.48-1.82ZM237.65,31.03c-.56-.52-1.19-.64-1.75-.52.63.4,1.13.63,1.75.52ZM245.03,32.09c-.58-.74-1.05-1.19-1.97-1.44l.81,1.04c.26.33.79.53,1.15.4ZM251.84,34.28l-1.63-1.17-1.56-1.16c.27.91,1.01,1.37,1.79,1.91.32.22.9.85,1.2,1.12.13.11.76-.11.66-.24-.08-.1-.3-.34-.45-.45ZM156.49,32.7c-.88-.67-2.04-.11-1.9.78.6.08,1.5-.33,1.9-.78ZM255.06,35.93c-.49-.85-1.09-1.59-2.24-1.76.08.46.44.73.89.99l1.36.77ZM246.71,37.54c.16-.99-.45-1.07-1-.9l1,.9ZM256.07,38.14c-.1-.54-.36-.76-.79-.65l.79.65ZM248.55,39.75c-.43-.69-.77-.91-1.33-1.01.36.51.86.9,1.33,1.01ZM248.77,40.81l-.22.22.87.87.22-.22-.87-.87ZM259.24,49.91c-.24-1.08-.99-1.76-1.67-2.53-.53-.59-1.03-1.09-2-.55l1.85,1.38c.63.47.84,1.32,1.82,1.69ZM264.48,47.64c-.21-.54-.51-.84-.86-1.01.16.58.43,1.06.86,1.01ZM257.78,50.4c.32-.61-.34-1.09-.71-.89l.71.89ZM267.27,50.7l-.35.21.6.99.35-.21-.6-.99ZM259.13,51.61l-.32.19.67,1.12.32-.19-.67-1.12ZM268.5,54.4l-.7-1.23c-.38.28-.48.88-.14.98l.84.25ZM262.79,57.04l-1.27-2.24c-.11,1,.18,2.07,1.27,2.24ZM269.29,57.85l-.8-1.28c-.24.72.29,1.17.8,1.28ZM270.64,61.63c-.23-.67-.62-1.34-1.06-2.01-.11.89.02,1.81,1.06,2.01ZM265.31,61.99c-.25-.99-.5-1.47-1.01-1.87-.08.85.45,1.51,1.01,1.87ZM271.96,62.32c.22-.96-.14-1.62-.93-2.04l.93,2.04ZM267.7,63.27c.03-.33,0-.79-.1-.94s-.31-.17-.74-.1l.84,1.04ZM268.63,67.48c.04-1.35-.32-1.69-.77-2.53-.15.08-.34.69-.22.9l.99,1.64ZM267.45,67.11l.08-.94c.02-.21-.35-.4-.64-.54-.08.5.11.86.57,1.48ZM267.46,68.62l-.27-.88c-.19.27-.4.62-.25.68.18.07.59.22.52.2ZM267.54,68.94c-.13.03.17.43.3.38.08-.04.26-.1.35-.13s-.04-.37-.12-.35l-.52.1ZM265.57,70.25c-.13.03.18.43.3.38l.34-.13c.09-.03-.04-.37-.12-.35l-.52.11ZM276.73,74.96l-.69-1.47c-.48.62.03,1.38.69,1.47ZM199.02,78.88l2.86-.21-1.17.64c1.24.07,2.24,0,3.21-.3.69-1.35.44-.25,1.99-1.16.12-.07.26.53.39.54.27.02.75-.44,1.01-.62,1-.21,2.21-.48,3.19-.43.71.04,1.05.08,1.75-.09,1.17-.28,2.99-.32,4.11-.07.29.06,1.02.72,1.25.53l1.35-1.13c-4.52-.89-9.99-1.58-14.24-1.06l-2.66.33c-2.19.27-4.24.45-6.41.84-4.79.84-9.32,1.66-13.7,3.79-.97.47-1.29,1.38-1.3,1.72,0,.21.3.61.43.84l-.41,1.24c1.8.57,2.35-.98,3.44-1.07,1.93-.16,3.59-.74,5.23-1.65,1.08-.6,2.44-.83,3.66-1.29,3.58-1.36,2.58-1.15,6.04-1.4ZM277.14,78.17l-.65-2.09-.81.5,1.46,1.59ZM222.04,77.97l-1.06-.79c.03.41.05.6.1.76s.69.16.96.03ZM195.05,81.17c.64-.13,1.13-.26,1.63-.45-.14-.44-4.23.77-4.23.98l2.6-.53ZM236.55,82.51l-1.09-.34c.22.47.72.53,1.09.34ZM239.63,82.98l-1.64-.59c-.07-.03-.43.35-.35.37l.44.09c.49.1.99.14,1.55.13ZM239.61,84.56c-.19-.47-.74-.54-1.12-.31l1.12.31ZM242.67,84.46c-.49-.26-1.07-.38-1.56-.24.43.43.97.42,1.56.24ZM247,87.19l-1.36-1.32-.98.53c.99.39,1.59.6,2.34.78ZM274.07,87.39c-.16-.26-.87-.24-.89,0,.06.31.9.29.89,0ZM173.05,87.81c-.85-.05-.85.54-1.11,1.15-.87-1.47-2.19,1.81-2.09,2.76,1.7-.69,2.72-2.28,3.2-3.91ZM177.32,87.63l-.78.57h.69c.12.02.1-.26.08-.57ZM249.65,89.14c-.19-.47-.74-.54-1.12-.31l1.12.31ZM276.71,90.61c-.22-1.57-1.61-2.18-1.57-1.82.01.13-.04.75.07.82l1.5,1ZM253.09,90.02c-.53-.94-1.42-1.27-2.18-.69.78.36,1.48.62,2.18.69ZM274.99,91.62c-1.16-1.41.17-2.97-1.27-2.25-.11.05-.14.49-.1.62l.38,1.62c.05.2.38.55.58.6s.54-.43.41-.59ZM256.19,90.99l-1.08-.31c.21.51.69.55,1.08.31ZM277.65,102.42l3.97.91c.51-1.03,3.46.76,4.12.27l-5.98-2.29.38.62c.04.06-.3.17-.34.11l-.26-.38c-.49-.72-2.35-1.24-2.27-1.32l-.51.5c-1.74-1.7-4.84-2.18-7.14-3.36l-3.36-1.72c-1.06-.54-2.74.23-2.24-.38l.41-.49c-3.47-.91-3.02-1.4-5.3-2.4l-1.85-.82c-.67.34-1.4.33-2.04-.34l-1.7-.19c1.29,1.07,2.74,1.12,4.36,1.47.1.02,2.34.76,2.5,1,.07.11-.03.58.09.63l1.66.64,1.48.45-1.02.5c1.31.53,2.26.88,3.33,1.17.52-.39,1.09-.35,1.73-.12l.84.31c.17.06.06.53.06.84l1.88.61c.1.03.31.21.26.3-.03.06-.2.31-.23.36,1.05.8,3.05,1.44,4.41,1.69l-.73.58,1.49.53c.51.18,1.1.27,1.72.21-.75-.44-1.17-.65-1.9-1.29l2.76.55c-.43.42-.65.62-.6.88ZM258.3,93.75l-.22.44,1.27.63.22-.44-1.27-.63ZM275.99,95.42c0-.21-.17-.38-.38-.38s-.38.17-.38.38.17.38.38.38.38-.17.38-.38ZM261.65,96.13c-.19-.47-.74-.54-1.12-.31l1.12.31ZM283.24,97.41l-.56-1.53c-.21.68-.03,1.26.56,1.53ZM276.16,98.72c.48-.21.05-2.69-.23-2.35l-.39.48.62,1.87ZM277.93,97.68l.31-1.33c-.58.21-.59.72-.31,1.33ZM269,98.92c-1.02-.76-1.77-.92-2.79-.96.79.73,1.83,1.1,2.79.96ZM271.69,100.61c-.65-.47-1.16-.58-1.79-.49.48.48,1.2.67,1.79.49ZM291.3,105.96l1.76.18-3.07-1.06c-1.37.36-2.63.15-3.49-1.15l-.79.41c-.64-.2-.96-.28-1.67-.32l.91.57-1.31.21,2.16-.03c2.25.93,3.08.95,5.51,1.2ZM283.59,104.27l-1.68-.06c.5.37,1.08.83,1.68.06ZM280.62,106.77l-.58-1.49c-.18.63.04,1.34.58,1.49ZM295.23,107.6c-.31-.29-.67-.38-.86-.23.31.29.67.38.86.23ZM153.73,125.58l.37,1.45.79-1.9.45.7c.35-.51.51-1.28.24-1.82l-.86.38c-.2-.3-.51-1.07-.34-1.39s.87-.68,1.11-.95l1.12-1.21c.34-.36.32-1.53.38-2.01-.72-.17-1.05.26-1.1.91-.03.41-.19.91-.41,1.3l-1.4-1.34c-1.38,2.52-.94,1.23-1.96,2.89-.55.88-2.96,3.87-3.57,3.66-.24-.08-.29-.66-.27-.95.07-1.19.59-1.9,1.03-2.93l.72-1.69c.72-1.68,1.53-3.31,2.82-4.62.08-.24.2-.82.32-1.05l1.5-2.83c.34-.63.69-1.15.74-1.89l-1.61,1.76c-.39.42-.74,1.23-1.06,1.78l-2.3,3.8c-.52.86-1.42,1.6-1.72,2.65-.24.83-1.42,4.73-1.63,5.13-.66,1.29-1.28,2.41-1.75,3.72l-.64,1.78-1.49,4.4c-.48,1.41-1.04,2.8-1.68,4.15-.37.77-1.11,1.71-.2,2.37.06-.43.14-1.07.22-1.33.07-.22.55-.32.73-.49.54-1.02,1.17-1.8,2-2.46l.89,1.73c.42.82.96,1.83,1.93,2.07.23.06.94-.13.9-.34s-.21-.65-.23-.89l-.2-2.54-.16-2.1c.14-.15.61-.59.73-.81l1.15-2.06c.83-1.5,1.58-2.63,2.65-3.94,1.63-2.01.64-2.42,1.78-3.09ZM158.25,112.3c.18.03.38-.57.3-.73-.06-.12-.25-.44-.18-.29l-.61.68c-.07.08.37.33.49.34ZM283.18,214.02l.08-2.57c.02-.76.05-1.16-.09-1.94-.17-.97.31-2.29.29-3.36-.05-2.63.4-2.09.54-4.87-.32-1.27-.23-2.81-.42-4.08-.33-2.2-.71-4.13-.65-6.36l.07-2.41c.04-1.27-.27-2.62-.36-3.9l-.22-3.09c-.09-1.27.67-2.67.74-3.9.08-1.64.57-3.01.86-4.63.82-4.64-1.05-6.66.62-10.94.15-2.61.47-5.14,1.31-7.71.53-1.62-.27-4.73-.09-6.47,1.54.22.55,2.4,1.17,5.36.25,1.22.96,3.67,1.03,4.34l.5,4.78.23,2.21c.25,2.42.51,1.79.58,4.72.35.09.91-.23,1.16-.51l.24.65c.05.13.32.06.45.03.44-.12-.05-1.16.52-2.4l-.82-1.32-.78-1.03c.8-4.13.21-1.81-.05-4.95-.04-.43-.43-1.37-.16-1.72.61-.79-.22-1.45-.17-1.92.07-.65.37-1.43.15-2.1-.4-1.18-.34-2.22-.09-3.43l-.83-1.26.8-.55-1.12-1.55c1.55-.8.04-1.7,1.06-4.17.23-.55.25-1.05-.1-1.49l-.21,1.4c-.42-.48-.64-1.27-.54-2.01.33-2.3.21-4.41-.08-6.62-.11-.81.61-1.58-.14-2.6-.33.3-.59.8-.84,1.37l-.43-4.86c-.2-2.3-.22-3.34-.54-5.41-.22-1.41.05-2.79-.64-4.25-1.11,2.45.04,3.37-.2,5.62-.31-.3-.33-.5-.38-.91l-.49-3.87c-.13-1.01-.23-2.1-.27-3.12-.07-1.69.07-3.45-.84-4.95-.52.05-.67.66-.57,1.18l.15.77c.03.16-.64.23-.72.37-.56,1.07.15,2.78.86,3.71l.42,2.87.25,2.28c.29,2.65.88,5.15,1.69,7.76.37,1.19,1.24,2.26.37,3.59-.61-.18-.91-2.68-.8-3.09l-.59-.78c.02-.99-.63-3.12-1.05-3.93-.02-1.18-.32-2.02-.95-3.08l-.47-.8c-.09-.15-.71.1-.7.26.65,2.66.18,3.3.54,6.75.1.93-.05,2.14.13,2.98.4,1.82-.04,3.14-.46,4.88-.85,3.5-.92,6.55-.57,10.21.08.86.38,1.76.37,2.65-.01,1.48-.34,2.78-.39,4.23l-.17,4.89c-.11,3.22-1.46,7.5-1.74,12.9-.04.86-.08,1.78-.19,2.65l-.48,3.65c-.11.88-.45,1.85-.48,2.77l-.17,5.95c-.02.86-.08,1.63,0,2.48l.28,2.83c.12,1.25-.08,2.66.12,3.89s.35,2.26.35,3.55c0,1.1.67,2.36.57,3.41-.23,2.4-.02,4.65.39,7.03.27,1.52.23,2.79.19,4.38-.03,1.4.08,2.92.17,4.35l.24,4.15c.06.97.04,1.84,0,2.84-.05,1.34.47,2.76.53,4.11.05.91.12,1.67.35,2.53.26.95.13,2.34.51,3.23l1.57,3.71c.3.7,1.7,2.7,2.37,3.92.16.3.92.48,1.19.29s.2-.87,0-1.19c-.49-.79-.61-1.55-.85-2.32l-.91-2.99c-.6-1.97-1.73-3.83-1.07-5.85.21-.66.07-1.01,0-1.66l-.5-4.39c-.07-.66,1.02-1.85.21-2.6-2.44.83.62-.51-.41-3.3-.21-.58.05-1.44-.41-2.03-.42-.54-.2-1.5.1-2.03.13-.23-.17-.92-.16-1.19ZM157.47,112.46l-.11.46c-.08.77-.16,1.35-.07,2.04.27,1.02.86-5.31.18-2.5ZM145.34,120.99l.9-1.55c.87-1.13,1.05-2.55,1.37-3.87.15-.61,1.21-1.21.22-2.01-1.56,2.11-.82,3.25-2.17,5.35-.45.7-.7,1.49-.31,2.08ZM157.15,117.89c.38-.85.55-1.63.28-2.44-.21.24-.18.62-.2.87-.14.55-.46,1.01-.08,1.58ZM282.94,120.69c0-.31-.25-.56-.56-.56s-.56.25-.56.56.25.56.56.56.56-.25.56-.56ZM141.53,129.43l1.53-3.28,1.07-2.76c.06-.16.04-.46-.04-.6s-.61.05-.67.2l-2.66,6.89-.76,2.07c1.22.45.51-.32,1.54-2.53ZM288.72,131.08c.15-.92-.12-1.34-.56-2.02-.27.67-.42,1.78.56,2.02ZM152.11,132.76c.51-.11.67-1,.32-1.21-.37.53-.59,1.04-.32,1.21ZM152.87,133.4l.41-.72c.06-.11-.46-.42-.45-.29l.04,1.01ZM291.41,135.9c.44-.93-.49-1.61-1.2-1.6-.12.13-.1.99.12,1l.61.05.47.55ZM138.77,135.95c.54-.11.76-.36.65-.79l-.65.79ZM157.77,137.59l-.04-1.67c-.68.62-.51,1.35.04,1.67ZM162.1,151.42c-.81-1.14-1.39-1.95-2.22-2.8-.59-.61-1.56-1.13-1.15-2.32l2.3,2.88c-.22-.77-.47-1.75-.92-2.29-.97-1.17-3.29-3.91-3.39-5.19,1.71-1.37,0-2.07.03-5.14-2.2,3.25-.49,5.59-.04,9.56.06.56.63,1.31.86,1.88.46,1.14.92,2.25,1.8,3.09l1.35,1.28c.52.49,1.09.91,1.86,1.19l-1.36-1.99.87-.14ZM292.48,137.83c.21-.37.33-1.13-.29-1.12l.29,1.12ZM138.31,137.75l.32-.7c.04-.09-.33-.21-.36-.12l-.17.47c.17.27.26.43.21.35ZM291.14,140.66l.43-.98c.07-.16-.25-.41-.48-.6l.05,1.58ZM158.58,144.41c.54-1.16-.04-2.02-.78-2.68l.78,2.68ZM292.53,143.67c.04-.8.06-1.49-.56-1.77.1.66.32,1.24.56,1.77ZM139.24,145.43c.77-.92,1.9-1.81,1.67-3.35l-.84,1.38c-.37.61-.82,1.03-.83,1.97ZM159.72,144.54l-.29.17.6.99.29-.17-.6-.99ZM138.28,148.72c.34-.36.6-.58.47-.64s-.4-.21-.3-.16l-.25.5c-.04.07.08.34.08.3ZM163.39,153c-.08-.09-.25-.36-.3-.44s.31-.03.39,0l.39.14c-.33-.72-.92-1.42-1.65-1.98-.22.6.35,1.08.64,1.43,0,1.31.63,2.66,2.16,2.68l-1.63-1.83ZM166.31,154.81c-.25-.94-.73-1.77-1.8-1.95.4.83,1.03,1.45,1.8,1.95ZM187.27,205.39c.63-.56.38-1.02.23-1.7l-.78-3.67c-.23-.02-.78,0-.72-.1l.25-.49.25-.49c.04-.09-.34-.33-.45-.36-1.95-.67.32-2.59-3.01-3.26-.26-.79-.03-1.92.32-2.72l-.72-.8-1.36-1.48c-.1-.11-.48-.36-.4-.45l.41-.42c.09-.1.46-.4.34-.43l-.55-.15c.1-1.44-.75-2.68-2.03-3.52.4-1.33-.51-2.53-1.6-3.13.12-.42.35-1,.16-1.15l-.73-.58c-.55-.44-.58-1.68-.97-2.24-1.9-2.76-1.85-3.74-2.08-4.08-1.8-2.59-2.28-4.49-3.66-6.13l-2-2.39-1.76-2.56c-.5-.72-.91-1.08-1.34-1.86-.37-.68-3.65-3.7-4.59-4.48-.47-.39-.8-1.57-1.36-1.85l-2.76-1.38c-.18-.09-.45-.33-.58-.42s-.6.21-.55.36c.34,1.06,1.89,3.81,2.55,4.71l2.6,3.51c.46.62.79,1.56,1.34,2.15l3.47,3.7c.29.31.63,1.15.85,1.5l1.39,2.16c.95,1.47,1.97,2.61,3.28,3.75,1.39,1.21,1.96,3.2,2.82,4.76.37.67.53,1.2.73,1.97.26,1,1.18,1.89,1.64,2.8l2.01,3.98c.32.62.85,1.27,1.13,1.92.72,1.64,1.71,2.97,3.01,4.15l1.07,2.17.91,1.97c.17.38.38,1,.46,1.42.72,4.13,1.22.59,1.36,7.36l.05,2.22c.01.69-1.09,1.56-1.11,2.17l-.08,2.19c.6-.66,1.2-1.38,1.58-2.03-.51-1.86,1.77-.89.72-3.09l.22-.81c-.52-.74-.74-1.96.05-2.68ZM165.01,156.32c-.21-.54-.51-.84-.86-1.01.16.58.43,1.06.86,1.01ZM167.13,157.18c-.39-.9-.79-1.28-1.49-1.49.48.64.94,1.16,1.49,1.49ZM128.12,161.96l-.6.99.35.21.6-.99-.35-.21ZM291.69,163.66c.74-.41.16-1.5-.32-1.37-.24.33-.07,1.39.32,1.37ZM126.29,166.46c.21-.39.4-.85.57-1.36-.55.27-.77.72-.57,1.36ZM122.13,165.53l-.78.57h.69c.12.02.1-.26.09-.57ZM110.73,171.6l-.6.99.29.17.6-.99-.29-.17ZM289.45,181.82c.17-.31.59-1,.47-1.3-.1-.25-.45-.53-.64-.69l.5-3.54c1.76,1.17.12-1.96,1.04-4.31-1.4.64-.98,2.01-1,3.05-1.22,1.71-.5,2-.82,3.91-.58.76-.67,1.76.04,2.43-.34.41-.59,1.11-.23,1.63l.65-1.17ZM293.16,195.02c.26-.59,0-1.56-.5-1.66-.57.49-.24,1.41.5,1.66ZM301.89,216.56l-.48-1.27c.64-3.24-2.63-2.16-2.99-7.36-.04-.61-.35-1.43-.42-2.03-.17-1.37-.66-2.62-1.26-3.72-.15-.28-.27-.94-.51-1.18-.82-.84-.6-2.28-1.18-3.22-.52-.84-1.11-1.58-1.77-2.47-.39,3.83-.38,3.29.66,6.37l1.2,3.57c.99,2.97.44,1.87,1.69,4.94l1.12,2.77,1.04,1.79,1.99,4.35c.28.61.8,1.21,1.54,1.07.21-2.08-1.11-1.43-.63-3.62ZM182.26,216.58c-.14.12-.33.53-.21.65.09.09.4.31.44.19l.19-.52c.04-.12-.32-.4-.42-.32ZM107.79,218.1l.31-1.07c-.22.14-.54.37-.49.52l.18.56ZM118.4,219.45c.26-.46.27-1.08-.3-1.34l.3,1.34ZM138.24,249.21l-3.23-1.71c-1.19-.63-1.64-1.46-1.67-2.78l-.04-1.94-.16-3.42c-.01-.25.65-2.37.74-4.48.04-.89.62-1.97.71-2.87.38-3.56,2.66-4.63,2.99-5.06.44-.58.49-1.3,1.23-1.65,1.05-.5,1.95-.95,3.08-1.31l1.08-.9,1.68.26c.26-.2.61-.59.83-.54l.82.21,1.64-.92.73,1.14c.88-.08,1.56-.03,2.36.11l1.89.33c1.01.18,1.8.76,2.7,1.19l1.66.79,1.56-.64c.95.92,2.71,1.46,3.61,1.59.55.08.13-1.65,3.46-.23l1.4-.58c.39-.16.94-.59,1.35-.55,2.79.28,1.83-1.87,5.02-1.73l.96-.97c.85.17,1.38-.21,2.07-.57,1.03-.53,2.13-.83,2.82-1.82.14-.2.25-.71.1-.85-.52-.52-2.05.04-2.68.87-.37.08-1.2.04-1.41.3l-.59.7c-.13.16-.75-.44-.99-.41l-5.27.84-4.11.42c-1.1.11-2.3-.21-3.23-.63-.66.45-1.21.41-2,.15-.96-.32-3.83-.35-4.96-.36l-1.79-.02-3.05.03c-2.42.02-.36-.62-6.01-.14l-1.13.1-2.09.15c-1.45.11-2.94.51-4.02,1.48-.91.82-1.99,1.49-2.73,2.5-2.07,2.81-2.46,4.67-2.92,7.89l-.36,2.46c-.37,2.56.21,4.11-.8,6.49-.2.47-.63,1.06-1.01,1.09-.46.05-1.02-.2-1.33-.45l-.42-.35c-.08-.07-.13.51-.07.6l1.24,1.92c.08.99.38,1.32,1.2,1.73,1.12.56,1.93,1.74,2.83,2.65.38.38,1.49.76,1.58,1.29.07.44.1.82.29.93.16.09.52-.22.79-.53s.97.14,1.43.28c1.35.41,2.5.84,3.77,1.5.54.28,1.76.43,1.92-.1.23-1.34-2.55-2.99-3.45-3.46ZM183.45,219.67c-.7-.67-1.66.34-1.61.96.7-.15,1.11-.23,1.61-.96ZM306.02,224.15c-.4-.9-.48-1.04-.77-1.51-.16.31-.2.84-.01.97l.78.54ZM123.49,243.31c.16.24.57.38,1.03.46l-.82-1.93c-.07-.17-.27-.64-.39-.55l-.49.36c-1.11-.74-.76-1.67-1.71-1.58l-.54-1.55.49-1.39.3.54c.03.06.12,0,.32-.1l-.61-2.82c-.25.18-.45.35-.56.3l-.36-.14c-.21.22-.62.51-.86.47-.37-.05-.93-2.49-.6-3.43-.09-.32-.71-.97-.52-1.23,1.31-1.72-.13-.63-1.34-4.01.38-1.14-.26-3.12-1.13-2.98-.56.09-1.04.6-.93,1.13.19.98.27,1.74.11,2.72-.24,1.45.12,2.94.17,4.35.12,3.35,1.11,4.63,2.95,7.73.18.31.84.76,1.1,1.07.19.23,2.06,2.71,2.35,1.77l.18-.57.47.46c.1.1-.23.32-.4.49,1.22,2.64,1.39,2.02,2.65,4.51.06.11.36.54.42.44l.31-.51.44-.71c.1-.17-.37-.54-.59-.65-.34-.17-.58-.77-.88-1.06-.46-.44-1.47-1.16-1.49-1.75,0-.14.41-.64.49-.52l.45.69ZM119.91,228.22c.42-.57.3-1.05-.15-1.36-.12.18-.4.53-.29.69l.44.66ZM121.43,233.73c.22-.45.03-1.3-.22-1.72-.47.39-.86,1.42.22,1.72ZM156.4,233.53l-.61.15.15.59.61-.15-.15-.59ZM149.73,245.29c1.72-.93.52-3.24,2.44-4.65.93-4,4.42-3.04,2.84-5.9-.9.71-.96,1.4-1.43,2.09l-1.34,1.95c-1.4,2.04-2.32,3.7-2.51,6.51ZM123.76,240.22c-.11-.83-.4-1.54-.9-2.43-.15.78-.24,1.87.9,2.43ZM288.96,241.35l-.58-.74-.09.71c-.02.13.76.14.68.03ZM310.62,241.09c-.39,1.37-.81,2.26-.48,3.51.55-.37.88-3.68.48-3.51ZM151.7,242.77c.34-.23.56-.39.68-.54s-.08-.74-.18-.73c-.32.62-.39.81-.5,1.27ZM291.63,244.75l-.22.22,1.09,1.09.22-.22-1.09-1.09ZM126.07,245.86c-.14,1.44.81,2.65,2.35,2.85,0-.52-2.08-2.91-2.35-2.85ZM127.6,248.89l-.9.34-1.67-1.57c.15,1.86,1.56,2.32,2.81,2.84l1.36.6-1.61-2.21ZM133.36,253.12c-.41-1.18-1.89-1.35-1.65-1.84l.31-.65c-.6-.72-1.57-1.49-2.6-1.44.35.6.84.98,1.25,1.32,0,1.28,1.55,2.61,2.68,2.61ZM136.51,253.72c-.27-.51-1.45-1.25-2.06-.68-.01.28.51.81.8.94l.83.39c.17.08.52-.48.43-.65ZM143.65,253.44c0-.31-.25-.56-.56-.56s-.56.25-.56.56.25.56.56.56.56-.25.56-.56ZM129.37,262.53c.38-.29.94-1.13,1.17-1.65l.92-2.14c.32-.75.59-1.08.72-1.96.14-.98.35-2.2-.42-3.04-.52-.12-1.47.14-1.89.49-.46.38-.61,1.13-.81,1.77l-.91,2.85c-.42,1.32-2.17,2.18-3.51,2.61-.66.22-1.88,0-2.6.13-.15-.14-.55-.61-.66-.47l-.54.65c-.31.38,1.34.51,1.94,2.18,1.31.49,5.39-.48,6.62-1.42ZM136.32,255.26c-1.1-.65-1.94-.99-2.99-1.19.74.97,1.89,1.77,2.99,1.19ZM142.05,259.61c.18.02.76-.2.66-.32l-.34-.42c-.16-.21-.32-.86-.22-1.11.08-.2.42-.28.85-.48-2.17-1.36-.83-1.51-2.35-1.97l-1.07-.33c-.23-.07-.61.36-.86.62-.91.9-1.18-.69-2.12-.3l1.39,1.33c.1.09.4.37.31.41l-.73.29c1.21.97,2.7,2.08,4.48,2.27ZM119.67,264.46l-1.73-1.42c-.11-.09-.44-.38-.35-.46l.51-.48c-.6-1.26-1.89-1.86-2.5-3.21.58-.9-.32-1.66-1.09-1.94-.29,1.47.36,2.39,1.14,3.32l1.7,2-1.67-.77c.46.69.89,1,1.42,1.49l1.48,1.38c.15.14.4.35.52.45.09.07.33-.15.57-.36ZM147.74,259.7c.1-.37.09-1.02-.15-1.22-.15-.07-.47.57-.5.79-.03.2.34.34.65.43ZM146.05,265.15c.84-.68,1.31-1.61.71-2.45-.79,1.24-1.42,1.95-1.64,3.2l.93-.75ZM122.62,265.37c-.4-.69-.94-1.13-1.58-.88.35.66.9.91,1.58.88ZM142.77,268.81c1.64.18,2.51-.98,3.43-1.74.22-.18.94-.31,1.04-.56s.04-.81-.09-1.07l-1.85,1.3c-.87.61-2.2.83-2.53,2.06ZM120.02,265.72l-.35.48,1.43,1.03.35-.48-1.43-1.03ZM141.32,271.24c.31-.3,1.25-.27,1.23-.96l-1.28-.15c-.23-.03-.62-.2-.82-.18-.17.02-.44.42-.35.56l.47.72c-.37.27-1.08-.01-1.57-.13-.36-.08-1.22.04-1.57-.08-4.07-1.35-1.39-.23-4.4-.23-.88,0-.26-1.35-3.72-2.07l.77,1.09c-1.78.03-1.26-1.51-4-2.28.08-.22.08-.85-.11-.96l-1.22-.73v1.34s-1.63-.41-1.63-.41c.81,2.14,2.91.97,3.41,1.8l-.77.92c1.56.77,1.88-.07,2.64,1.16l2.19.74-1,.7,2.82-.14c.13.18.66.65.94.64l3.28-.17c.12,0,.5.34.59.25l.39-.39c.12-.12.53-.37.63-.24l.37.52c.52.73,2.35-.97,2.74-1.34ZM124.63,269.65c-.28-.78-.99-1.24-1.79-.81.39.52,1.09.87,1.79.81ZM128.18,270.96l-2.17-.42c.62.55,1.1.63,1.75.85l.42-.44Z"/>
  <path d="M342.57,141.31c-.26.09-.46.12-.95.17l.95-.61v.44Z"/>
  <path d="M113.24,198.47l-.74,2.26c-.13.4-.47,1.07-.71,1.44-1.14,1.73-.67,1.95-1.71,4.43-.26.61-.66,1.23-.71,1.89-.04.71-.5,1.26-.68,1.86-.2.69-.4,1.53-.53,2.19-.17.84-.16,1.55-.89,2.31-.24,3.34.36,1.82-.48,5.12-.11.42-.19,1.01-.39,1.4l-.76,1.49.25.84c.17.58-.89.16-.84,1.71l.07,2.19.11,3c.03.82-.31,1.73-.22,2.62.07.68-.21,1.33-.55,2,.79.79,1.65,5.26.5,4.65-.48-.26,1.96,1.58.08,3.59-.91-2.63-1.66-5.39-1.91-8.33-.23-2.74-.92-5.47-.41-8.18.25-1.34.36-2.43.13-3.84-.2-1.22.32-2.64.33-3.88.03-2.76.8-2.57,1.49-6.34l.38-2.08.51-2.69.69-3.58c.16-.83.56-1.47.77-2.27l1.12-4.11c.46-1.68.67-2.84-.44-4.22-.22-.79-.54-2.14-.74-3.03l-.97-4.3-.48-2.82-.17-2.49c-.07-1-.33-1.72-.18-2.71l.38-2.59c.17-1.19.39-2.12.83-3.2l.87-2.17c.28-.7.46-1.34.97-1.94.46-.54.67-1.2,1.01-1.84.67-1.26,2.18-1.95,3.21-2.85.94-.82,1.82-1.37,2.97-1.87,3.75-1.63,2.3-1.47,6.03-3.64,2.9-1.7,2.14-3.96,2.41-5.21.39-1.81.82-3.68,1.61-5.32l1.12-2.33,1.96-5.07c.14-.36.41-1.02.52-1.34.25-1.53.77-3.11,1.34-4.6l.74-1.94c.23-.59.38-1.42.64-1.98l2.12-4.6c1.46-3.18,1.2-2.52,2.91-5.39.36-.6.62-1.21,1.12-1.72.79-.79,2.24-3.08,2.84-4.12l2.25-3.89c.66-1.14,1.05-2.71,1.96-3.71l4.57-5.02,4.06-4.01c.81-.8,1.67-1.39,2.56-2.05,1.16-.86,2.04-2.2,3.62-2.41l1.39-.19-.77-.54c.63-.78,1.46-1.56,1.94-2.4,1.7-2.93,1.32-3.7,1.92-5.45l.84-2.46c1.08-3.19,1.05-1.97,2.17-5.8,1.66-5.67,1.43-3.7,3.15-7.97.3-.74.4-1.4.52-2.32.09-.64.58-1.49.75-2.15.48-1.89,1.51-4.48,1.62-4.92.99-4.34,2.39-3.83,3.89-7.25.52-1.19,1.14-2.15,1.81-3.25l1.42-2.33c.3-.49.36-1.6.74-2.02.6-.66,1.06-1.2,1.39-1.95l.88-2.03c.3-.7.76-1.58,1.19-2.22l1.69-2.46,1.67-2.95c.33-.59,1.07-1.32,1.59-1.84l3.5-3.56c.79-.8,1.42-1.89,2.5-2.41.82-.39,1.71-.84,2.29-1.44,3.89-3.95,4.67-3.43,9.83-4.28,1.55-.26,2.29-1.15,3.13.38l-3.5.61c-.55.1-1.44.5-1.94.52-2.96.1-.95,1.04-4.33,2.13-.13.28-.38.73-.59.86l-2,1.21c-.59.36-.91.57-1.3,1.14-1.88,2.74-1.83,1.04-3.25,3.05l-1.02,1.44c-.69.97-2.14,1.66-2.7,2.82-1.17,2.44-1.17.67-2.61,4-.13.31-.11,1.18-.31,1.47-.38.56-1.41,1.47-1.42,2.16-.06,3.92-2.76,2.9-2.61,6.67-.21.43-.48,1.03-.72,1.44l-1.07,1.78c-1.86,3.1-.39,2.76-2.03,3.21l.15,1.17c-1.72,1.06-2.36,2.69-3.04,4.49-.24.64-1.3,1.37-1.25,2.13.07,1.13-.31,1.65-.77,2.52l-.91,1.73c-.29.55-.42,1.51-.59,2.13,1.36,2.99-1.18,3.09-1.86,5.46-.87,3.06-1.87,2.18-1.88,4.91,0,1-.56,1.8-1.02,2.63l-1.65,3c-1.43,2.6.13,3.2-1.26,4.66-.69.73-1.19,1.72-1.14,2.75.68-.65,1.64-1.18,2.16-.59-.14,1.6-1.92,1.81-3.48,1.76.59.3,1.29.31,2.08.38l-.38.92,1.1.35-.73,1.16-1.93.93c-3.56,3.68-2.39.85-6.08,5.05-.31.35-.4.39-.87.6-.71.32-1.73,1.28-2.08,2.02-.47,1-.81,1.96-1.64,2.63-.66.54-3.35,3.19-3.37,3.78-4.45,3.22-3.84,4.71-6.15,8.48-.39.63-.74,1.18-.98,1.85-.58,1.61-1.51,2.9-2.46,4.32s-1.41,3.22-2.21,4.76c-1.33,2.55-2.69,6.39-3.35,9.09-.17.68-.29,1.5-.54,2.08-.56,1.34-1.78,3.76-.49,5.16.59-.42,1.47-1.03,1.84-1.56l1.12-1.66c.33.37.42.9.23,1.27l-.89,1.76c-.23.46-.52.97-.91,1.39-.54.58-.36,1.13-.54,1.79s-.82,1.65-1.2,2.36l-1.38,2.57c-.71,1.31-2.16,2.59-2.02,4.29.05.61.03.87-.3,1.57l-.38.81c-.08.17-.56.07-.75.15-.77.33-1.63.85-2.39.97-.59.09-1.26-.03-1.77.27-.47.27-.84.42-1.25.47l1.1-.81c.47-.62.94-1.1,1.5-1.53-3.53.53-3.29,2.07-5.72,2.53-.37.07-.89.53-1.19.74l-2.85,1.99c-.79.55-1.96,1.01-2.45,1.83-.63,1.07-1.18,1.99-2.03,2.8-.73.7-.82,1.7-.49,2.55-1.36,3-1.11,2.21-2.11,5.37-1.19,3.76.65,2.38.04,6.72-.07.48.12,1.21.15,1.72.05.8.03,1.66.16,2.43.51,2.91-.15,4.61,1.73,8.17.37-.19.26-.56.04-.97l.52-1.1c1.57-.71-.14-1.87,1.67-2.38l.16.27.82.99c.49.59.83,1.4.98,2.18-1.16-.17-.9-1.19-1.28-2.11-.71.11.9,1.83.25,3.8Z"/>
  <path d="M283.18,214.02c0,.27.29.96.16,1.19-.3.53-.51,1.48-.1,2.03.46.6.2,1.46.41,2.03,1.03,2.79-2.03,4.13.41,3.3.82.75-.28,1.94-.21,2.6l.5,4.39c.07.65.22,1,0,1.66-.66,2.03.47,3.89,1.07,5.85l.91,2.99c.24.77.36,1.53.85,2.32.2.32.26,1,0,1.19s-1.02,0-1.19-.29c-.67-1.22-2.07-3.21-2.37-3.92l-1.57-3.71c-.38-.9-.25-2.28-.51-3.23-.23-.86-.31-1.62-.35-2.53-.07-1.35-.58-2.77-.53-4.11.03-1,.05-1.87,0-2.84l-.24-4.15c-.08-1.43-.2-2.95-.17-4.35.04-1.59.07-2.86-.19-4.38-.42-2.38-.62-4.63-.39-7.03.1-1.05-.57-2.31-.57-3.41,0-1.29-.15-2.33-.35-3.55s0-2.64-.12-3.89l-.28-2.83c-.08-.84-.02-1.62,0-2.48l.17-5.95c.03-.93.36-1.89.48-2.77l.48-3.65c.11-.87.15-1.79.19-2.65.28-5.4,1.62-9.68,1.74-12.9l.17-4.89c.05-1.46.38-2.75.39-4.23,0-.89-.29-1.79-.37-2.65-.35-3.65-.28-6.71.57-10.21.42-1.74.86-3.06.46-4.88-.19-.84-.04-2.06-.13-2.98-.36-3.45.11-4.09-.54-6.75,0-.16.61-.41.7-.26l.47.8c.63,1.06.93,1.9.95,3.08.41.82,1.06,2.94,1.05,3.93l.59.78c-.1.41.19,2.91.8,3.09.87-1.33,0-2.4-.37-3.59-.81-2.61-1.4-5.11-1.69-7.76l-.25-2.28-.42-2.87c-.71-.93-1.42-2.64-.86-3.71.08-.14.75-.21.72-.37l-.15-.77c-.1-.52.05-1.12.57-1.18.9,1.5.77,3.27.84,4.95.04,1.03.14,2.11.27,3.12l.49,3.87c.05.41.07.6.38.91.24-2.24-.91-3.17.2-5.62.69,1.46.42,2.84.64,4.25.32,2.07.33,3.12.54,5.41l.43,4.86c.25-.58.51-1.07.84-1.37.75,1.02.03,1.79.14,2.6.29,2.21.41,4.32.08,6.62-.1.73.12,1.52.54,2.01l.21-1.4c.35.44.33.94.1,1.49-1.03,2.46.49,3.36-1.06,4.17l1.12,1.55-.8.55.83,1.26c-.26,1.21-.31,2.24.09,3.43.23.68-.08,1.45-.15,2.1-.05.48.78,1.14.17,1.92-.27.35.12,1.28.16,1.72.26,3.15.85.83.05,4.95l.78,1.03.82,1.32c-.58,1.25-.08,2.28-.52,2.4-.13.04-.4.1-.45-.03l-.24-.65c-.25.28-.81.59-1.16.51-.07-2.93-.33-2.31-.58-4.72l-.23-2.21-.5-4.78c-.07-.67-.78-3.12-1.03-4.34-.62-2.96.38-5.14-1.17-5.36-.18,1.74.62,4.85.09,6.47-.83,2.57-1.15,5.1-1.31,7.71-1.67,4.28.2,6.3-.62,10.94-.29,1.62-.78,3-.86,4.63-.06,1.24-.82,2.64-.74,3.9l.22,3.09c.09,1.28.39,2.63.36,3.9l-.07,2.41c-.06,2.23.32,4.16.65,6.36.19,1.27.09,2.81.42,4.08-.14,2.78-.59,2.24-.54,4.87.02,1.07-.46,2.39-.29,3.36.14.78.11,1.18.09,1.94l-.08,2.57ZM287.15,135.97l-.19-1.48c-.34.31-.52.58-.52.82,0,.17.19.31.72.66ZM287.7,138.88c.14-1.08.07-1.66-.43-2.35l-.28,2.11.71.24ZM288.08,141.86c.21-1.05.06-1.85-.41-2.55-.46.83-.52,2.07.41,2.55Z"/>
  <path d="M138.24,249.21c.89.47,3.68,2.12,3.45,3.46-.17.53-1.39.38-1.92.1-1.27-.66-2.42-1.09-3.77-1.5-.46-.14-1.18-.57-1.43-.28-.26.31-.62.62-.79.53-.2-.11-.22-.49-.29-.93-.09-.53-1.2-.91-1.58-1.29-.9-.9-1.71-2.09-2.83-2.65-.82-.41-1.12-.74-1.2-1.73l-1.24-1.92c-.06-.09-.02-.67.07-.6l.42.35c.3.25.87.5,1.33.45.38-.04.81-.63,1.01-1.09,1.01-2.37.43-3.92.8-6.49l.36-2.46c.47-3.21.85-5.08,2.92-7.89.75-1.01,1.82-1.69,2.73-2.5,1.09-.97,2.57-1.38,4.02-1.48l2.09-.15,1.13-.1c5.65-.48,3.59.16,6.01.14l3.05-.03,1.79.02c1.13.01,4.01.04,4.96.36.79.26,1.34.3,2-.15.94.42,2.14.74,3.23.63l4.11-.42,5.27-.84c.24-.04.85.56.99.41l.59-.7c.22-.26,1.05-.22,1.41-.3.63-.83,2.16-1.38,2.68-.87.15.15.04.65-.1.85-.69.99-1.79,1.29-2.82,1.82-.69.36-1.22.74-2.07.57l-.96.97c-3.2-.14-2.23,2.02-5.02,1.73-.4-.04-.96.39-1.35.55l-1.4.58c-3.33-1.42-2.91.31-3.46.23-.9-.13-2.66-.66-3.61-1.59l-1.56.64-1.66-.79c-.9-.43-1.69-1.01-2.7-1.19l-1.89-.33c-.8-.14-1.48-.2-2.36-.11l-.73-1.14-1.64.92-.82-.21c-.22-.06-.56.34-.83.54l-1.68-.26-1.08.9c-1.13.36-2.03.81-3.08,1.31-.74.35-.79,1.07-1.23,1.65-.33.43-2.61,1.5-2.99,5.06-.09.9-.67,1.98-.71,2.87-.09,2.11-.75,4.23-.74,4.48l.16,3.42.04,1.94c.03,1.33.47,2.15,1.67,2.78l3.23,1.71Z"/>
  <path d="M187.27,205.39c-.8.72-.57,1.94-.05,2.68l-.22.81c1.05,2.19-1.23,1.23-.72,3.09-.38.65-.98,1.37-1.58,2.03l.08-2.19c.02-.61,1.13-1.48,1.11-2.17l-.05-2.22c-.14-6.77-.64-3.23-1.36-7.36-.07-.42-.28-1.05-.46-1.42l-.91-1.97-1.07-2.17c-1.31-1.18-2.29-2.5-3.01-4.15-.28-.65-.82-1.3-1.13-1.92l-2.01-3.98c-.46-.91-1.38-1.8-1.64-2.8-.2-.76-.37-1.3-.73-1.97-.86-1.56-1.43-3.56-2.82-4.76s-2.33-2.28-3.28-3.75l-1.39-2.16c-.23-.35-.56-1.19-.85-1.5l-3.47-3.7c-.55-.59-.88-1.52-1.34-2.15l-2.6-3.51c-.66-.89-2.21-3.65-2.55-4.71-.05-.15.42-.45.55-.36s.4.34.58.42l2.76,1.38c.56.28.89,1.46,1.36,1.85.94.78,4.22,3.81,4.59,4.48.43.78.85,1.14,1.34,1.86l1.76,2.56,2,2.39c1.37,1.64,1.85,3.55,3.66,6.13.23.33.18,1.32,2.08,4.08.39.56.42,1.8.97,2.24l.73.58c.19.15-.03.72-.16,1.15,1.09.6,2,1.8,1.6,3.13,1.28.85,2.13,2.08,2.03,3.52l.55.15c.12.03-.25.34-.34.43l-.41.42c-.09.09.29.34.4.45l1.36,1.48.72.8c-.35.8-.58,1.93-.32,2.72,3.33.67,1.06,2.59,3.01,3.26.11.04.49.28.45.36l-.25.49-.25.49c-.05.1.49.09.72.1l.78,3.67c.14.68.39,1.13-.23,1.7Z"/>
  <path d="M153.73,125.58c-1.14.67-.15,1.07-1.78,3.09-1.07,1.32-1.81,2.44-2.65,3.94l-1.15,2.06c-.12.22-.59.66-.73.81l.16,2.1.2,2.54c.02.23.19.67.23.89s-.67.4-.9.34c-.97-.24-1.51-1.26-1.93-2.07l-.89-1.73c-.84.66-1.46,1.44-2,2.46-.18.17-.66.27-.73.49-.08.26-.16.9-.22,1.33-.91-.65-.17-1.59.2-2.37.64-1.35,1.2-2.74,1.68-4.15l1.49-4.4.64-1.78c.47-1.31,1.09-2.44,1.75-3.72.21-.4,1.39-4.3,1.63-5.13.3-1.05,1.2-1.79,1.72-2.65l2.3-3.8c.33-.54.68-1.35,1.06-1.78l1.61-1.76c-.05.74-.4,1.25-.74,1.89l-1.5,2.83c-.12.23-.25.81-.32,1.05-1.3,1.31-2.11,2.94-2.82,4.62l-.72,1.69c-.44,1.03-.97,1.74-1.03,2.93-.02.29.03.88.27.95.61.2,3.02-2.78,3.57-3.66,1.03-1.66.59-.36,1.96-2.89l1.4,1.34c.22-.4.38-.89.41-1.3.04-.65.37-1.08,1.1-.91-.06.48-.04,1.64-.38,2.01l-1.12,1.21c-.25.27-.95.63-1.11.95s.14,1.09.34,1.39l.86-.38c.27.54.11,1.3-.24,1.82l-.45-.7-.79,1.9-.37-1.45Z"/>
  <path d="M199.02,78.88c-3.46.25-2.47.04-6.04,1.4-1.22.46-2.58.69-3.66,1.29-1.64.91-3.3,1.49-5.23,1.65-1.09.09-1.64,1.64-3.44,1.07l.41-1.24c-.13-.23-.44-.63-.43-.84.01-.34.33-1.24,1.3-1.72,4.39-2.13,8.92-2.94,13.7-3.79,2.17-.38,4.22-.56,6.41-.84l2.66-.33c4.25-.53,9.72.16,14.24,1.06l-1.35,1.13c-.23.19-.96-.47-1.25-.53-1.12-.25-2.94-.21-4.11.07-.7.17-1.04.12-1.75.09-.97-.05-2.19.22-3.19.43-.25.18-.73.64-1.01.62-.14-.01-.28-.61-.39-.54-1.55.91-1.3-.19-1.99,1.16-.98.29-1.97.37-3.21.3l1.17-.64-2.86.21Z"/>
  <path d="M123.49,243.31l-.45-.69c-.08-.12-.5.38-.49.52.02.59,1.03,1.31,1.49,1.75.3.28.54.89.88,1.06.22.11.69.48.59.65l-.44.71-.31.51c-.06.1-.36-.33-.42-.44-1.26-2.49-1.44-1.87-2.65-4.51.17-.17.51-.39.4-.49l-.47-.46-.18.57c-.29.94-2.16-1.54-2.35-1.77-.26-.31-.92-.76-1.1-1.07-1.84-3.1-2.82-4.38-2.95-7.73-.05-1.41-.4-2.9-.17-4.35.16-.98.08-1.74-.11-2.72-.1-.53.38-1.04.93-1.13.88-.14,1.51,1.85,1.13,2.98,1.22,3.38,2.65,2.29,1.34,4.01-.19.25.43.91.52,1.23-.33.94.23,3.38.6,3.43.24.03.65-.25.86-.47l.36.14c.12.05.32-.13.56-.3l.61,2.82c-.2.1-.29.16-.32.1l-.3-.54-.49,1.39.54,1.55c.95-.09.6.84,1.71,1.58l.49-.36c.12-.09.32.39.39.55l.82,1.93c-.46-.08-.88-.22-1.03-.46ZM120.35,236.72c.04-.16-.24-.48-.4-.47l-.51.04.4.7c.07.13.48-.13.52-.27Z"/>
  <path d="M301.89,216.56c-.48,2.19.84,1.54.63,3.62-.74.14-1.26-.45-1.54-1.07l-1.99-4.35-1.04-1.79-1.12-2.77c-1.25-3.07-.7-1.97-1.69-4.94l-1.2-3.57c-1.03-3.08-1.05-2.54-.66-6.37.65.89,1.24,1.63,1.77,2.47.58.93.36,2.38,1.18,3.22.24.24.36.9.51,1.18.6,1.1,1.09,2.35,1.26,3.72.08.6.38,1.41.42,2.03.36,5.21,3.63,4.13,2.99,7.36l.48,1.27Z"/>
  <path d="M129.37,262.53c-1.23.94-5.3,1.9-6.62,1.42-.6-1.67-2.25-1.8-1.94-2.18l.54-.65c.11-.13.51.33.66.47.72-.12,1.94.09,2.6-.13,1.34-.44,3.09-1.3,3.51-2.61l.91-2.85c.21-.64.35-1.39.81-1.77.42-.35,1.37-.6,1.89-.49.78.84.57,2.06.42,3.04-.13.88-.4,1.21-.72,1.96l-.92,2.14c-.22.52-.79,1.36-1.17,1.65Z"/>
  <path d="M141.32,271.24c-.39.37-2.22,2.07-2.74,1.34l-.37-.52c-.1-.14-.51.12-.63.24l-.39.39c-.08.08-.47-.26-.59-.25l-3.28.17c-.28.01-.81-.46-.94-.64l-2.82.14,1-.7-2.19-.74c-.77-1.23-1.09-.39-2.64-1.16l.77-.92c-.49-.83-2.6.34-3.41-1.8l1.63.41v-1.34s1.23.73,1.23.73c.19.11.19.74.11.96,2.75.77,2.22,2.32,4,2.28l-.77-1.09c3.46.72,2.85,2.07,3.72,2.07,3,0,.32-1.12,4.4.23.36.12,1.21,0,1.57.08.5.12,1.2.4,1.57.13l-.47-.72c-.09-.14.18-.55.35-.56.2-.02.59.15.82.18l1.28.15c.02.69-.91.66-1.23.96Z"/>
  <path d="M162.1,151.42l-.87.14,1.36,1.99c-.77-.29-1.34-.7-1.86-1.19l-1.35-1.28c-.88-.84-1.34-1.95-1.8-3.09-.23-.57-.8-1.32-.86-1.88-.45-3.97-2.16-6.31.04-9.56-.04,3.07,1.69,3.78-.03,5.14.1,1.28,2.42,4.03,3.39,5.19.45.54.7,1.52.92,2.29l-2.3-2.88c-.41,1.18.56,1.71,1.15,2.32.83.85,1.41,1.66,2.22,2.8ZM156.35,140.38c.78-.7.34-1.37-.06-1.93l.06,1.93ZM157.36,146.02c.21-.14-.19-.74-.38-.72.06.38.24.82.38.72ZM158.97,149.05l-.37.35.71.75.37-.35-.71-.75ZM160.14,150.28c-.07.1-.15.36-.05.43s.53.3.52.19l-.05-.49c0-.08-.38-.2-.43-.13Z"/>
  <path d="M277.65,102.42c-.05-.27.17-.46.6-.88l-2.76-.55c.73.63,1.15.85,1.9,1.29-.63.06-1.21-.02-1.72-.21l-1.49-.53.73-.58c-1.36-.25-3.36-.89-4.41-1.69.03-.05.2-.3.23-.36.04-.08-.16-.26-.26-.3l-1.88-.61c0-.3.11-.77-.06-.84l-.84-.31c-.64-.23-1.2-.27-1.73.12-1.07-.29-2.02-.64-3.33-1.17l1.02-.5-1.48-.45-1.66-.64c-.12-.05-.02-.52-.09-.63-.16-.24-2.4-.97-2.5-1-1.62-.36-3.07-.4-4.36-1.47l1.7.19c.64.67,1.37.68,2.04.34l1.85.82c2.28,1.01,1.83,1.5,5.3,2.4l-.41.49c-.5.6,1.18-.17,2.24.38l3.36,1.72c2.3,1.18,5.41,1.66,7.14,3.36l.51-.5c-.08.08,1.78.6,2.27,1.32l.26.38c.04.06.38-.04.34-.11l-.38-.62,5.98,2.29c-.67.49-3.61-1.3-4.12-.27l-3.97-.91Z"/>
  <path d="M142.05,259.61c-1.77-.19-3.27-1.3-4.48-2.27l.73-.29c.09-.04-.21-.32-.31-.41l-1.39-1.33c.94-.4,1.21,1.19,2.12.3.26-.25.63-.69.86-.62l1.07.33c1.52.46.18.6,2.35,1.97-.43.2-.77.28-.85.48-.1.24.06.9.22,1.11l.34.42c.09.12-.48.34-.66.32Z"/>
  <path d="M237.32,25.93l-1.69-1.09,1.93.26c-1.42-1.06-2.7-1.5-4.28-1.72l-.69.51c-1.09-.05-2.01-.16-3.09-.56,1.02-.48,1.72-.55,2.83-.71-1.12-.66-2.1-.57-3.19-.55-1.19.03-2.4-.21-3.53-.4.15-.47.23-.9.4-.99s.61.13.84.17l2.3.45c1.77.34,3.15.65,4.76,1.46s3.98,1.58,5.14,2.49l-.8.09c.64.58,1.21.92,1.83,1.07.04-.32.02-.52.08-.49.09.05.23.12.32.16,1.06.46-1.37,1.04-3.19-.14Z"/>
  <path d="M209.21,31.72c-.87.77-3.36,3-4.48,1.82-.13-.13.47-.45.6-.61.88-1.09,2.33-1.89,3.71-2.36.83-.28,1.31-.34,2.2-.15.34.07.98-.23,1.26.19l-1.94.8c-.35.14-.92.26-1.36.31Z"/>
  <path d="M149.73,245.29c.19-2.81,1.11-4.47,2.51-6.51l1.34-1.95c.48-.69.53-1.38,1.43-2.09,1.58,2.85-1.92,1.9-2.84,5.9-1.92,1.41-.72,3.72-2.44,4.65Z"/>
  <path d="M289.45,181.82l-.65,1.17c-.35-.53-.11-1.23.23-1.63-.71-.67-.62-1.67-.04-2.43.32-1.9-.39-2.19.82-3.91.01-1.04-.4-2.4,1-3.05-.91,2.35.72,5.49-1.04,4.31l-.5,3.54c.19.16.54.44.64.69.12.3-.29.98-.47,1.3Z"/>
  <path d="M141.53,129.43c-1.03,2.21-.32,2.98-1.54,2.53l.76-2.07,2.66-6.89c.06-.15.59-.34.67-.2s.1.44.04.6l-1.07,2.76-1.53,3.28Z"/>
  <path d="M145.34,120.99c-.39-.59-.14-1.37.31-2.08,1.35-2.1.62-3.24,2.17-5.35.99.8-.08,1.4-.22,2.01-.32,1.32-.49,2.74-1.37,3.87l-.9,1.55Z"/>
  <path d="M214.82,29.57c-.37.06-.69.15-.82-.04-.16-.23,0-.88.25-.92l1.54-.23c.25-.54,1.25-1.23,1.7-.82.34.31.64,1.08.41,1.29-.27.24-.76.37-1.16.43l-1.92.3Z"/>
  <path d="M173.05,87.81c-.47,1.63-1.5,3.21-3.2,3.91-.11-.95,1.22-4.23,2.09-2.76.26-.6.26-1.2,1.11-1.15Z"/>
  <path d="M119.67,264.46c-.24.21-.48.44-.57.36-.12-.1-.37-.31-.52-.45l-1.48-1.38c-.53-.49-.96-.81-1.42-1.49l1.67.77-1.7-2c-.78-.93-1.44-1.85-1.14-3.32.77.28,1.67,1.04,1.09,1.94.62,1.34,1.9,1.95,2.5,3.21l-.51.48c-.09.08.24.37.35.46l1.73,1.42Z"/>
  <path d="M252.63,33.41c-3.07-.5-2.27-1.35-4.56-2.5l-2.16-1.08.89-.4c.19-.09.6.28.78.44,2.94,2.49,2.56.82,5.05,3.55Z"/>
  <path d="M142.77,268.81c.33-1.22,1.66-1.44,2.53-2.06l1.85-1.3c.13.26.19.81.09,1.07s-.82.37-1.04.56c-.92.75-1.79,1.91-3.43,1.74Z"/>
  <path d="M242.87,28.7l-.5-.2c-.07-.03-.13.21-.1.28s.21.27.28.31l2.51,1.3c-.75.06-1.33-.21-2.09-.53-1.19-.51-3.43-1.37-3.87-2.41-.26-.62,1.93,1.21,2.49,1.08l.11-.4c.1-.37,1.97.19,2.35.61-.39.26-.71.15-1.18-.04Z"/>
  <path d="M133.36,253.12c-1.13,0-2.67-1.32-2.68-2.61-.41-.34-.9-.72-1.25-1.32,1.03-.05,2,.72,2.6,1.44l-.31.65c-.24.49,1.24.66,1.65,1.84Z"/>
  <path d="M291.3,105.96c-2.43-.24-3.26-.27-5.51-1.2l-2.16.03,1.31-.21-.91-.57c.71.04,1.04.12,1.67.32l.79-.41c.86,1.3,2.12,1.51,3.49,1.15l3.07,1.06-1.76-.18Z"/>
  <path d="M127.6,248.89l1.61,2.21-1.36-.6c-1.25-.52-2.66-.98-2.81-2.84l1.67,1.57.9-.34Z"/>
  <path d="M259.24,49.91c-.98-.37-1.19-1.22-1.82-1.69l-1.85-1.38c.97-.55,1.47-.04,2,.55.69.77,1.43,1.45,1.67,2.53Z"/>
  <path d="M126.07,245.86c.27-.07,2.35,2.33,2.35,2.85-1.54-.2-2.49-1.41-2.35-2.85Z"/>
  <path d="M274.99,91.62c.13.16-.22.64-.41.59s-.54-.4-.58-.6l-.38-1.62c-.03-.14,0-.57.1-.62,1.44-.73.11.84,1.27,2.25Z"/>
  <path d="M251.84,34.28c.14.1.37.34.45.45.1.14-.53.36-.66.24-.3-.27-.88-.9-1.2-1.12-.78-.54-1.52-.99-1.79-1.91l1.56,1.16,1.63,1.17Z"/>
  <path d="M136.51,253.72c.09.17-.26.74-.43.65l-.83-.39c-.29-.14-.82-.67-.8-.94.62-.57,1.8.17,2.06.68Z"/>
  <path d="M146.05,265.15l-.93.75c.22-1.25.85-1.96,1.64-3.2.6.84.13,1.77-.71,2.45Z"/>
  <path d="M163.39,153l1.63,1.83c-1.54-.02-2.17-1.37-2.16-2.68-.29-.35-.85-.83-.64-1.43.73.56,1.32,1.26,1.65,1.98l-.39-.14c-.08-.03-.44-.07-.39,0s.22.35.3.44Z"/>
  <path d="M234.88,25.33c.59.17,1.2.47,1.69.68-1.44-.01-2.79-.14-3.74-1.26l2.05.58Z"/>
  <path d="M156.49,32.7c-.39.46-1.29.87-1.9.78-.14-.9,1.02-1.45,1.9-.78Z"/>
  <path d="M136.32,255.26c-1.1.58-2.24-.23-2.99-1.19,1.04.2,1.89.54,2.99,1.19Z"/>
  <path d="M139.24,145.43c0-.94.46-1.36.83-1.97l.84-1.38c.23,1.54-.9,2.43-1.67,3.35Z"/>
  <path d="M310.62,241.09c.4-.17.07,3.14-.48,3.51-.33-1.25.08-2.14.48-3.51Z"/>
  <path d="M276.71,90.61l-1.5-1c-.11-.07-.05-.69-.07-.82-.04-.36,1.35.25,1.57,1.82Z"/>
  <path d="M244.18,27.86c-1.03.06-2.25-.15-2.94-1.33.98.15,1.93.67,2.94,1.33Z"/>
  <path d="M269,98.92c-.96.13-2-.23-2.79-.96,1.02.04,1.77.21,2.79.96Z"/>
  <path d="M123.76,240.22c-1.14-.55-1.05-1.64-.9-2.43.5.89.79,1.6.9,2.43Z"/>
  <path d="M276.16,98.72l-.62-1.87.39-.48c.28-.34.71,2.13.23,2.35Z"/>
  <path d="M268.63,67.48l-.99-1.64c-.12-.21.07-.81.22-.9.45.85.81,1.19.77,2.53Z"/>
  <path d="M291.41,135.9l-.47-.55-.61-.05c-.22-.02-.23-.88-.12-1,.71,0,1.64.67,1.2,1.6Z"/>
  <path d="M183.45,219.67c-.51.73-.91.81-1.61.96-.05-.62.91-1.63,1.61-.96Z"/>
  <path d="M255.06,35.93l-1.36-.77c-.45-.25-.81-.53-.89-.99,1.15.17,1.75.91,2.24,1.76Z"/>
  <polygon points="277.14 78.17 275.67 76.58 276.48 76.08 277.14 78.17"/>
  <path d="M158.58,144.41l-.78-2.68c.74.66,1.32,1.52.78,2.68Z"/>
  <path d="M293.16,195.02c-.74-.25-1.07-1.17-.5-1.66.5.1.76,1.07.5,1.66Z"/>
  <path d="M166.31,154.81c-.77-.51-1.4-1.12-1.8-1.95,1.06.19,1.54,1.01,1.8,1.95Z"/>
  <circle cx="143.09" cy="253.44" r=".56"/>
  <path d="M247,87.19c-.75-.18-1.35-.4-2.34-.78l.98-.53,1.36,1.32Z"/>
  <path d="M245.03,32.09c-.36.13-.9-.07-1.15-.4l-.81-1.04c.92.24,1.39.7,1.97,1.44Z"/>
  <path d="M262.79,57.04c-1.09-.18-1.38-1.24-1.27-2.24l1.27,2.24Z"/>
  <path d="M253.09,90.02c-.7-.08-1.4-.34-2.18-.69.76-.57,1.65-.25,2.18.69Z"/>
  <path d="M157.47,112.46c.68-2.81.09,3.52-.18,2.5-.09-.69,0-1.27.07-2.04l.11-.46Z"/>
  <circle cx="282.38" cy="120.69" r=".56"/>
  <path d="M122.62,265.37c-.68.03-1.23-.22-1.58-.88.64-.25,1.18.19,1.58.88Z"/>
  <path d="M157.15,117.89c-.38-.56-.06-1.03.08-1.58.02-.25,0-.63.2-.87.27.81.1,1.59-.28,2.44Z"/>
  <path d="M288.72,131.08c-.98-.24-.83-1.34-.56-2.02.44.68.71,1.09.56,2.02Z"/>
  <path d="M124.63,269.65c-.7.05-1.4-.29-1.79-.81.81-.43,1.51.03,1.79.81Z"/>
  <path d="M271.96,62.32l-.93-2.04c.79.42,1.14,1.07.93,2.04Z"/>
  <polygon points="213.49 29.12 213.01 30.37 212.36 29.15 213.49 29.12"/>
  <path d="M128.18,270.96l-.42.44c-.64-.22-1.12-.3-1.75-.85l2.17.42Z"/>
  <path d="M121.43,233.73c-1.08-.3-.69-1.33-.22-1.72.25.42.44,1.27.22,1.72Z"/>
  <path d="M265.31,61.99c-.57-.36-1.09-1.02-1.01-1.87.51.41.77.88,1.01,1.87Z"/>
  <path d="M270.64,61.63c-1.05-.2-1.18-1.12-1.06-2.01.44.67.84,1.34,1.06,2.01Z"/>
  <path d="M291.69,163.66c-.38.02-.55-1.04-.32-1.37.47-.14,1.05.96.32,1.37Z"/>
  <path d="M271.69,100.61c-.59.18-1.31-.01-1.79-.49.63-.09,1.14.02,1.79.49Z"/>
  <path d="M167.13,157.18c-.54-.33-1-.84-1.49-1.49.69.21,1.1.59,1.49,1.49Z"/>
  <rect x="120.27" y="265.6" width=".59" height="1.76" transform="translate(-165.98 207.81) rotate(-54.09)"/>
  <path d="M227.67,23.2c-.29.05-1.14.03-1.39-.06.24-.69,1.1-.74,1.39.06Z"/>
  <path d="M237.65,31.03c-.62.12-1.12-.12-1.75-.52.56-.12,1.18,0,1.75.52Z"/>
  <path d="M157.77,137.59c-.55-.31-.72-1.05-.04-1.67l.04,1.67Z"/>
  <path d="M147.74,259.7c-.3-.1-.67-.23-.65-.43.03-.22.34-.85.5-.79.24.19.25.84.15,1.22Z"/>
  <path d="M267.45,67.11c-.46-.61-.65-.97-.57-1.48.3.14.66.33.64.54l-.08.94Z"/>
  <path d="M195.05,81.17l-2.6.53c0-.22,4.09-1.43,4.23-.98-.51.2-.99.32-1.63.45Z"/>
  <path d="M239.63,82.98c-.56.01-1.06-.03-1.55-.13l-.44-.09c-.07-.01.28-.39.35-.37l1.64.59Z"/>
  <path d="M119.91,228.22l-.44-.66c-.11-.16.17-.52.29-.69.45.31.57.78.15,1.36Z"/>
  <path d="M306.02,224.15l-.78-.54c-.19-.13-.15-.67.01-.97.29.47.37.61.77,1.51Z"/>
  <path d="M283.59,104.27c-.6.77-1.18.32-1.68-.06l1.68.06Z"/>
  <path d="M224.58,20.47c-.64.15-1.36.03-2.03-.42.62,0,1.25.11,2.03.42Z"/>
  <path d="M240.45,29.37c-.36.47-1.22.26-1.42-.5.36.07.59.16,1.42.5Z"/>
  <path d="M276.73,74.96c-.67-.08-1.17-.84-.69-1.47l.69,1.47Z"/>
  <path d="M292.53,143.67c-.25-.53-.46-1.11-.56-1.77.62.28.6.97.56,1.77Z"/>
  <path d="M248.55,39.75c-.48-.11-.97-.5-1.33-1.01.56.1.9.31,1.33,1.01Z"/>
  <path d="M268.5,54.4l-.84-.25c-.34-.1-.23-.7.14-.98l.7,1.23Z"/>
  <path d="M291.14,140.66l-.05-1.58c.23.19.55.44.48.6l-.43.98Z"/>
  <rect x="291.92" y="244.63" width=".31" height="1.54" transform="translate(-87.99 278.32) rotate(-44.99)"/>
  <path d="M242.67,84.46c-.59.18-1.12.19-1.56-.24.49-.14,1.07-.02,1.56.24Z"/>
  <path d="M246.71,37.54l-1-.9c.55-.17,1.16-.09,1,.9Z"/>
  <rect x="258.58" y="93.58" width=".49" height="1.41" transform="translate(58.71 283.59) rotate(-63.43)"/>
  <path d="M182.26,216.58c.09-.08.46.2.42.32l-.19.52c-.04.12-.36-.1-.44-.19-.12-.12.08-.53.21-.65Z"/>
  <path d="M283.24,97.41c-.58-.27-.76-.85-.56-1.53l.56,1.53Z"/>
  <path d="M152.11,132.76c-.27-.17-.05-.68.32-1.21.35.21.2,1.1-.32,1.21Z"/>
  <path d="M269.29,57.85c-.51-.11-1.04-.56-.8-1.28l.8,1.28Z"/>
  <path d="M222.04,77.97c-.27.13-.91.13-.96-.03s-.08-.35-.1-.76l1.06.79Z"/>
  <circle cx="275.61" cy="95.42" r=".38"/>
  <path d="M151.7,242.77c.1-.47.18-.65.5-1.27.11,0,.3.58.18.73s-.34.31-.68.54Z"/>
  <path d="M277.93,97.68c-.28-.6-.27-1.11.31-1.33l-.31,1.33Z"/>
  <path d="M280.62,106.77c-.53-.15-.76-.87-.58-1.49l.58,1.49Z"/>
  <path d="M165.01,156.32c-.43.05-.7-.43-.86-1.01.35.16.65.46.86,1.01Z"/>
  <path d="M264.48,47.64c-.43.05-.7-.43-.86-1.01.35.16.65.46.86,1.01Z"/>
  <path d="M267.7,63.27l-.84-1.04c.42-.07.65-.04.74.1s.13.61.1.94Z"/>
  <path d="M158.25,112.3c-.11-.02-.56-.26-.49-.34l.61-.68c-.07-.15.12.17.18.29.08.16-.13.76-.3.73Z"/>
  <path d="M126.29,166.46c-.2-.64.02-1.09.57-1.36-.17.51-.36.97-.57,1.36Z"/>
  <rect x="248.94" y="40.74" width=".31" height="1.23" transform="translate(43.68 188.21) rotate(-44.99)"/>
  <path d="M257.78,50.4l-.71-.89c.37-.19,1.04.29.71.89Z"/>
  <rect x="267.18" y="50.72" width=".41" height="1.16" transform="translate(11.69 144.83) rotate(-30.95)"/>
  <rect x="259.12" y="51.62" width=".37" height="1.31" transform="translate(10.04 140.81) rotate(-30.95)"/>
  <path d="M118.4,219.45l-.3-1.34c.57.25.56.88.3,1.34Z"/>
  <path d="M274.07,87.39c0,.29-.82.31-.89,0,.01-.24.73-.26.89,0Z"/>
  <rect x="127.42" y="162.36" width="1.16" height=".41" transform="translate(-77.26 188.64) rotate(-59.03)"/>
  <path d="M152.87,133.4l-.04-1.01c0-.13.52.18.45.29l-.41.72Z"/>
  <path d="M288.96,241.35c.08.11-.69.1-.68-.03l.09-.71.58.74Z"/>
  <path d="M107.79,218.1l-.18-.56c-.05-.14.27-.38.49-.52l-.31,1.07Z"/>
  <rect x="155.85" y="233.6" width=".63" height=".61" transform="translate(-51.23 43.94) rotate(-13.78)"/>
  <rect x="159.71" y="144.54" width=".34" height="1.16" transform="translate(-51.87 102.9) rotate(-30.95)"/>
  <path d="M219.12,20.29c-.47.1-.98.1-1.56,0,.47-.1.98-.1,1.56,0Z"/>
  <path d="M256.19,90.99c-.38.24-.87.19-1.08-.31l1.08.31Z"/>
  <path d="M292.48,137.83l-.29-1.12c.62,0,.5.75.29,1.12Z"/>
  <rect x="110" y="172.02" width="1.16" height=".34" transform="translate(-93.96 178.38) rotate(-59.03)"/>
  <path d="M267.46,68.62c.07.02-.34-.13-.52-.2-.15-.06.05-.41.25-.68l.27.88Z"/>
  <path d="M261.65,96.13l-1.12-.31c.37-.23.92-.16,1.12.31Z"/>
  <path d="M122.13,165.53c.02.31.03.58-.09.58h-.69s.78-.58.78-.58Z"/>
  <path d="M267.54,68.94l.52-.1c.09-.02.21.33.12.35s-.27.1-.35.13c-.12.05-.42-.35-.3-.38Z"/>
  <path d="M138.31,137.75c.05.08-.05-.08-.21-.35l.17-.47c.03-.09.4.04.36.12l-.32.7Z"/>
  <path d="M265.57,70.25l.52-.11c.09-.02.21.32.12.35l-.34.13c-.12.05-.43-.35-.3-.38Z"/>
  <path d="M177.32,87.63c.02.31.03.58-.08.58h-.69s.78-.58.78-.58Z"/>
  <path d="M295.23,107.6c-.2.15-.56.06-.86-.23.2-.15.56-.06.86.23Z"/>
  <path d="M249.65,89.14l-1.12-.31c.37-.23.92-.16,1.12.31Z"/>
  <path d="M239.61,84.56l-1.12-.31c.37-.23.92-.16,1.12.31Z"/>
  <path d="M256.07,38.14l-.79-.65c.42-.11.68.1.79.65Z"/>
  <path d="M138.77,135.95l.65-.79c.11.42-.1.68-.65.79Z"/>
  <path d="M138.28,148.72s-.12-.23-.08-.3l.25-.5c-.09-.05.18.1.3.16s-.14.28-.47.64Z"/>
  <path d="M236.55,82.51c-.37.19-.87.13-1.09-.34l1.09.34Z"/>
  <path class="cls-1" d="M288.08,141.86c-.94-.48-.88-1.71-.41-2.55.47.69.62,1.5.41,2.55Z"/>
  <path class="cls-1" d="M287.7,138.88l-.71-.24.28-2.11c.5.69.57,1.27.43,2.35Z"/>
  <path class="cls-1" d="M287.15,135.97c-.53-.34-.72-.49-.72-.66,0-.25.19-.51.52-.82l.19,1.48Z"/>
  <path class="cls-1" d="M120.35,236.72c-.04.14-.45.4-.52.27l-.4-.7.51-.04c.16-.01.44.31.4.47Z"/>
  <path class="cls-1" d="M156.35,140.38l-.06-1.93c.4.56.83,1.23.06,1.93Z"/>
  <rect class="cls-1" x="158.89" y="149.08" width=".5" height="1.03" transform="translate(-59.27 151.1) rotate(-43.62)"/>
  <path class="cls-1" d="M157.36,146.02c-.14.09-.32-.34-.38-.72.19-.02.58.59.38.72Z"/>
  <path class="cls-1" d="M160.14,150.28c.05-.07.42.05.43.13l.05.49c.01.12-.42-.11-.52-.19s-.03-.33.05-.43Z"/>
</svg>