<?xml version="1.0" encoding="UTF-8"?>
<svg id="Layer_2" data-name="Layer 2" xmlns="http://www.w3.org/2000/svg" viewBox="0 0 432 288">
  <defs>
    <style>
      .cls-1 {
        fill: #fff;
      }
    </style>
  </defs>
  <path class="cls-1" d="M109.58-.11c.3,1.03.43,2.32.55,3.43,1.29,1.64,2.01,3.38,2.92,5.16l1.36,2.66c1.05,2.06,1.32,3.77,1.66,4.32.93,1.5,1.5,2.86,1.87,4.54l.56.29c.18.09,0,.84.11,1.07l2.07,4.67,1.06,2.58,4.57,10.41.61,2.06c.03.11.43.1.55.09.16-.02-.03.69.04.83,1.51,2.32.72,2.53,2.35,5.47.48.87.99,1.66.79,2.72l1.04,1.75c1.89,3.16.64,1.26,2.05,4.45l.61,1.38,2.66,6.27.99,2.22,1.43,3.24c.4.92.84,1.94,1.21,2.86l2.07,5.23c.16.39.36.77.57,1.19,1.23,2.47,2.33,4.97,3.32,7.56.44,1.14,1.01,2.19,1.51,3.23l.98,2.03c.37.93.72,1.96,1.12,2.73,1.63,3.16,2.22,5.68,3.8,8.67l-.09.66c-.02.14.53.33.58.46l.7,1.74,1.21,2.75.5,1.14c.44,1,.72,2.37,1.22,3.34l1.1,2.12c.32.62.62,1.26.91,1.95l1.47,3.51,1.01,2.41c.39.95,1.27,1.67.63,2.9l.56-.15c.09-.02.39-.05.35.03l-.26.65.84,1.16c.3,1.04.69,1.91,1.09,2.93l1.39,3.49c.93-.53,1.85-1.03,2.74-1.43l3.21-1.44-.69-1.37c-.14-.29.41-.94.56-1.15l-1.09-.24c-.2-.04-1.44-2.8-1.77-3.81l-.57-1.78c-.18-.55-.54-1.14-.61-2.07l-1.24-1.5c-.46-1.38-.92-2.64-1.66-3.84s-1.22-2.44-1.86-3.67c-.72-1.36-1.58-2.66-2.1-4.17-.14-.41-.35-.82-.51-1.16l-1.86-3.9c-1.23-2.56-2.35-5.18-3.3-7.87-.24-.69-.4-1.01-.8-1.57-1.12-1.29-1.45-5.32-2.25-6.33l-.33-1.7c-1.04-.69-1.58-1.7-2.08-2.87l-.87-2.02-.8-2.03-3.05-7-1.33-2.99-1.09-2.65-3.85-9.07-1.39-3.21-1.34-3.19-2.08-4.86-1.41-3.16-1.68-3.79c-.56-1.26-1.02-2.46-1.37-3.81-.67-2.61-.94-1.39-2.31-4.8l-1.08-2.69-1.11-2.63-1.84-4.47c-.27-.65-.58-1.19-.82-1.83l-1.52-3.92c.14.37-3.69-7.92-3.54-7.65-1.43-2.66-1.33-4.67-2.92-6.58h8.62c1.03,2.1,1.41,4.43,2.87,6.48L124.81-.11h2.3l1.1,2.74c.57,1.42.99,2.81,1.65,4.22l1.75,3.79c.5,1.08.72,2.42,1.44,3.45s.57,2.63,1.03,3.46c1.18,2.13,1.8,4.2,2.78,6.31l1.77,3.84c-.04-.08,3.11,7.87,3.43,8.66l2.38,5.87c.4.97.74,1.93,1.27,2.9.32.58.48,1.19.73,1.88.64,1.78,1.37,3.54,2.13,5.3l.96,2.23.83,2.28c.42,1.16,1.06,2.09,1.42,3.19.32.99.72,2.14,1.2,3.12,1,2.08,1.75,4.08,2.54,5.98l2.06,4.95,1.41,3.41.54,1.32c-.29.6-.17.35.19-.4.19.56.35,1.53.59,2.11l1.36,3.32,1.24,3.01,1.31,2.93,2.4,5.83,1.15,2.67,2.57,5.83,1.35,3.45.53,1.28.57,1.57,1.03,2.33,1.15,2.62,1.27,3.02,2.84,7.25c.11.28.42.74.54.96s-.27.71-.57,1.06c-.48-.61-.59-1.56-.83-2.02-.53-1.01-1.14-2.14-1.55-3.13l-.76-1.81-2.29-5.46-.86-2-1.15-2.68-1.23-3.1-2.68-6.19c-.65-1.51-1.44-3.03-1.95-4.54-.36-1.06-.67-1.96-1.13-2.95l-1.43-3.09c-.74-1.6-1.17-3.15-2-4.71-.65-1.22-1.02-2.44-1.54-3.69l-1.32-3.18-.52-1.2-2.06-4.83-.9-2.24c-.49-1.2-.9-2.26-1.48-3.43-.83-1.65-1.4-3.42-2.12-5.13l-2.22-5.28-.85-1.97-3.74-8.59-1.87-4.39-1.88-4.52-1.43-3.15-2.03-4.83-4.42-10.46c-1.01-.57,2.02,6.02,2.06,6.11l2.22,5.29,1.66,3.74,1.43,3.45,3.15,7.46,2.31,5.51,2.85,6.6.76,1.81,1.48,3.71,1.02,2.42,1.53,3.38c.42.94.82,1.89,1.2,2.84l1.15,2.87,1.7,4.04c.6,1.43,1.32,2.73,1.9,4.19l2.23,5.51,2,4.68,5.54,13.1,1.31,2.97,2.69,6.44,2.56,6.18,2.74,6.37c.05.11.13.63.15.75s.39-.32.5-.4c2.01-.66,4.29-1.52,5.85-2.46l-2.49-6.53c-.78-2.04-1.58-3.94-2.33-6.04-.66-1.87-1.28-2.67-1.77-4.19-.66-2.02-.96-3.08-2.09-4.87-.48-.77-.49-2.42-.94-3.28-1.13-1.67-1.89-3.15-2.37-5.14-.15-.61-.68-1.34-.93-1.89-1.31-2.93-.93-3.02-2.58-6.6-.35-.76-.7-1.63-1.03-2.43l-1.76-4.28-1.19-3.2-1.95-4.57-.93-2.21-3.44-8.16-.74-2.11-2.01-4.33c-.34-.74-.63-1.5-.91-2.27l-1.63-4.42c-.22-.6-.61-1.33-.87-1.97l-1.24-3.08-2.97-7.35-.73-1.59-1.56-3.93-1.42-3.37-2.13-5.16-1.58-4.17c-.29-.77-.64-1.63-.97-2.41l-1.11-2.58-1.77-4.49-.91-2.33c-.76-1.96-1.75-4.27-2.52-5.93-.1-.22-.19-.76-.19-.84h15.52l.55,1.71c1.87,5.81,1.29.42,2.5,7.77.16.98.25,1.74.69,2.52l1.54,2.78,1.98,4.4c1.05,2.34.79,2.79,1.87,5.32.17.4.58,1.11.72,1.56l1.35,4.38c.26.85.62,1.33,1.18,2.07.6.8.7,2.41,1.14,3.4l1.16,2.6c1.01,2.27,1.61,4.5,2.39,6.8l1.85,5.5c-.54,1.36-.18,3.16.62,4.24.23,0,.86-.31.97-.13.67,1.07,2,5.95,3.56,8.04.1,1.95.87,3.45,1.81,5.14.66,1.18.5,3.09,1.08,4.36.83,1.82,1.66,3.43,2.2,5.34.3,1.06.54,2.67,1,3.52,2.77,5.1,1.21,2.97,3.43,8.37l1.1,2.68c.52,1.27.8,2.43,1.06,3.86.14.77.84,1.67,1.2,2.39l1.55,3.14.61,1.24c.56,1.14,1.02,1.97,1.26,3.32.69,3.94,2.32,4.32,3.88,10.83l.96,4.01,13.25-6.36c-.96-.22-1.78.17-2.51.6-2.62,1.57-5.38,2.68-8.22,3.88-.44.19-1.58.85-1.8.44-.28-.51-.79-1.32-.89-1.74l-.8-3.18c-1.3-5.15-1.08-2.6-2.58-6.69l-.86-2.33c-.45-1.21-.71-2.61-1.45-3.75-1.8-2.73-2.76-5.63-3.33-8.76-.31-.49-.7-1.3-.92-1.95l-.81-2.43-1.19-2.38s-1.51-4.33-1.55-4.89c-.08-1.12-.82-1.8-1.12-2.67l-.83-2.39c-1.64-4.72-2.42-3.43-2.92-8.54-.07-.73-1.02-1.89-1.18-2.62-1.37-5.99-.13-.76-2.24-6.24l-.88-2.28-1.38-3.81-.7-1.84c-.23-.6-.51-1.15-.8-1.78-.26-.58-.44-1.44-.72-2.14l-1.03-2.56c-.33-.81-.46-1.7-.79-2.44l-1.56-3.58-1.08-2.72c-1.28-3.21-.43-2.33-1.82-5.11-2.58-5.17-1.47-4.31-3.15-8.54-1.3-3.27-1.24-4.37-2.43-6.32-.87-1.43-1.46-3.18-1.98-4.86-.36-1.18-1.23-2.46-1.5-3.56-.39-1.6-.76-2.86-1.49-4.41-.5-1.06-.64-2.35-1.37-3.23h32.47l.16,2.34c.03.46-.53,1.26-.33,1.68.29.63.82,1.01,1.58.88l-.11-1.99c-.15-2.66-1.63-.94-.71-2.91h16.95c.05.07.29.37.22.47l-.41.6.79.84c.21.23,1.24-.14,1.08-.42l-.82-1.49h6.03l1.1,2.08,1.79,3.07,2.98,5.32,2.92,5.15,2.97,5.43,3.01,5.29c.87,1.53,1.69,2.91,2.45,4.47l1.3,2.64c-.74.25-1.82.54-1.85,1.03-.11,2.08,1.13,3.82,1.95,5.72l1.57,3.65,1.37,3.2,1.69,4.07.98,2.2,2.02,4.65,1.26,3.06c.32.78.81,1.37,1.53,1.84.49.31,1.49.07,2.35-.34l-.97-3.23-1.73-5.46-1.06-3.24-1.35-4.17-4.15-12.48c-.61-1.83-1.44-3.41-2.4-5.06l-2.22-3.82-2.52-4.38-5.56-9.69c-.95-1.65-1.82-3.23-2.92-4.83l-.65-1.42c-.75-1.65-1.89-3.19-2.69-4.73h37.93c-.32.47-.86.8-1.48,1.12l-1.38.73.54.66c.28.34-.75.85-1.54.96-.28.04-.59-.55-.79-.74l-1.78.05c-.5.01.05,1.4.46,1.72l.78.62c.22.17.87-.07,1.16-.22,2.27-1.22,1.35-.58,4.96-1.27.83-.16,2.03.48,2.82-.18s2.1.19,2.8.01c1.83-.45,3.73-.98,5.16-.16.29-2.26.54-.71,3.53-1.42.61-.15,1.5-.23,1.99-.44,1.27-.52,2.32-.7,3.59-.85,4.15-.51,1.27-.18,3.7.34.29.06.87-.48,1.17-.51.65-.06,1.74.17,2.18-.41h156.6v285.05H-.18V-.11h109.77ZM185.35,5.06l-1.45.08.51,2.81c3.09.2.03-1.56.94-2.9ZM192.45,25.77l.06-2.36-.48-1.61c-.05-.16-.75-.1-.81.06l-.34.84c2.18.69.47,2.18,1.57,3.07ZM201.35,49.93c.82,1.1,1.06,1.48,1.53,2.5l1.23-.06c.51-1.15-.76-1.59-.91-2.1l-.76-2.7c-.09-.36.39-1.41.1-1.65l-1.24-1.03c-1.02-.85-.81-2.73-1.44-3.63-2.25-3.18.03.01-1.26-3.17l-.74,1.88c-.46,1.17,1.84,1.92,1.4,2.51l-.63.84c.74.52,1.25.99,1.72,1.7,1.13,1.73-.07.35,1.11,3.39.06.16.65.26.81.34s.18.63.03.71c-.29.13-1.06.5-.96.45ZM210.12,68.57l1.65-1.18-1.26-.96c.08-.78.04-2.85-.75-2.98-.77.05-1.61.27-1.96-.14-.26-.3.03-1.32-.09-1.69-.63-2-2.53-3.08-1.12-4.75l-.69-.89c-.17-.22.15-.97.21-1.26l-1.75-1.37c-.29-.23-.96.67-.9,1.01.28,1.46,1.47.66,1.52,2.05.01.26-.33.66-.58,1.02.34.16,1.04.58.98.91s-.42,1.07-.66,1.41c-.17.24.7.59.96.76l1.76,3.74,1.53.49-1.09,1.42c.35.19.94.44.98.69l.14,1.01.66,1.58c.06.14.37.24.62.29.58.11-.58-.85-.16-1.15ZM122.17,59.76c.29-.08,1.37.35,1.43.09l.26-1.09c-.6.18-.92.36-1.11.26l-.82-.45c-.59.4-1.27.59-2.05.28l-1.16,1.08c1.24,1.56,2.42.12,3.44-.16ZM289.03,89.77l-2.05-3.41c-.95-1.58-1.72-3.05-2.87-4.77-.34,1.52,2.06,2.26.32,3.27l-.82-1.52c-.09-.16.07-.85.05-1.04-.02-.19-.25-.2-.65-.34l-.68-1.4c-.76.48-.63-.74-.93-1.52-.03-.04.55-.07.68.02l.72.49c-.18-1.23-.89-2.02-1.58-3.01-.29-.41-.63-1.3-1.05-1.49-1.44-.64-3.86-3.08-2.52-3.92l.16,1.04c.02.13.48.05.84-.04l-2-3.35c-.07-.12.18-.79.04-.81l-.55-.08c-.14-.02-.18.49-.24.75-.39.37-.5.3-.29-.33-.1-.22-.51-.91-.66-.74l-.53.61c-.17.19-.55.6-.43.75l.53.7.88,1.19c.61.83,1.02,2.16,1.65,2.92.51.61.72.9.82,1.61l1.15,1.17,1.34-.68c.25-.09.21,1.11-.1,1.12l-1.22.04c.11,1,1.11,1.72,2.16,2.12l-.45,1.05c.27.26.74.91,1.04,1.49,1.89,3.65,1.17,1.13,2.9,5.25l.08-2.02c.33.67.38,1.47.21,2.33l1.06.36-.57.72c-.1.12.21.34.45.57.63.64,1.61.59,2.28.17.29.26.56.5.85.71ZM213.12,76.12l-.33-1.38c-.11-.12-.73-.36-.66-.57l.31-1c-.76-.04-1.48-.07-2.03-.03l1.07.61c.19.11-.02.74-.08,1.02l1.91,2.95c0-.3-.06-1.06-.19-1.59ZM141.77,85.34c1.35-.23,1.34-1.24,1.03-1.97l-1.79-4.2-.79,1.3c1.36,1.24,1.7,2.89,1.55,4.87ZM144.69,87.75l-.82-2.19c-.61.95-.84,1.39-1.1,2.25l1.91-.06ZM219.52,95.75c.37-.15-.37-1.2-.39-1.64-.07-1.65.39-4.01-1.28-5.14-.04,1.02,0,2.42.08,3.43.21.32.97.74.9,1.07-.08.37-.3,1.08-.46,1.51-.12.32.58,1.01,1.15.78ZM290.32,93.1c-.46-.35-.68-.56-.82-.47l-.5.33c.32-.82-1.18-2.9-1.44-2.99-.28-.1-.88.09-.97.3l2.23,3.05c-.05.33-.2.76-.03.82l.9.29c-.05-.25-.37-.83-.18-.92l.81-.4ZM339.35,233.23c.07-.93-.47-2.29-.28-3.18.1-.47.47-1.33.19-1.54l-.98-.71c-1.14-.83-1.28-2.52-1.89-3.66l-2.61-4.84-.55-1.49-3.07-5.47-2.4-4.31c-.41-.74-2.06-1.24-1.56-2.65l-1.28-1.9-1.48-2.31c-.41-.64-.67-1.12-.95-1.75-1-2.2-5.58-7.9-5.25-9.52-.02.11-.59-.05-.65-.14l-2.7-4.49-2.59-4.36-3.06-5.28-2.57-4.32-2.14-3.85c-.45-.8-.72-1.73-1.38-2.38-1.14-1.12-1.71-2.33-2.42-3.71s-1.54-2.63-2.31-3.94l-2.76-4.73-2.56-4.32-4.17-7.3-.64-1.02-2.85-4.71c-.34-.56-.54-1.79-.76-2.42-1.13-.72-1.7-1.93-2.38-3.12l-3.05-5.27-7.16-12.61-3.09-5.6-3.06-5.57-1.57-2.72-1.51-3.11-1.26-2.58-.63,1.86c.15.34,0,0-.17-.39-1.47-.74-3.12-1.39-4.84-1.43,3.05,1.18,4.1,2.47,5.74,5.2l3.77,6.24c1.32,2.19,2.21,4.52,3.82,6.61s2.7,4.47,4.21,6.76l1.1,1.67,2.67,4.53,5.03,8.44,2.97,5.11,9.34,15.93,1.27,2.21,3.28,5.6,5.33,8.79c.68,1.12,1.11,2.45,1.84,3.5l1.32,1.93,3.52,6.19c.33.57.36,1.2,1.03,1.93,1.33,1.47,2.32,3.65,3.1,5.39,0,.2-.07.81-.07.79.31-.37.4-.57.48-.47.05.07.27.33.26.33,0,0-.07.29-.08.38.32.21.97.95.91,1.06l-1.12.48c-.19.08.39.76.57.67s.24-.14.78-.48l2.32,3.9,2.86,4.87c.76,1.3,1.44,2.55,2.29,3.77l.03.86.48.31c-.48-.31,1.07,1.61,1.02,2.7.18.13,1.21.2,1.18.47l-.14,1.17c.57.35,1.22.91,1.57,1.52l2.14,3.69,2.17,3.87c.52.92,1.98,2.5,1.3,3.3-.25.29-.84.61-1.39.93,2.31,3.47,2.94,6.29,3.92,10.33.12.48-.67,1.46-.9,1.58.87-.07,4.1,1.27,4.24,1.81l.22-3.08ZM242.97,247.8l-1.09-2.64c-1.29-3.13-1.27-6.39-1.9-7.25-.75-1.01-.85-2.02-1.29-3.13l-1.58-4-.72-2.45c-.43-1.47-1.05-2.77-1.75-4.06-.66-1.23-.43-3.09-1.67-4.39-.18-.74-.38-2.14-.63-2.77l-.68-1.74-.73-2.95c-.38-1.53-1.46-2.7-1.9-4.16l-.69-2.25c-.42-1.35-3.74-6.92-4.23-9.64-.13-.1-.76-.15-.74-.42l.1-1.3-.69-.43c-.16-.1.43-.73.48-.74l-.9-1.01,9.05.03,2.44.07,8.91.31,11.91.23c1.32.02,2.53.16,3.84.15l3.58-.03.79.2c.17.04.63-.33.81-.3.44.08,1.36.23,1.87.22l5.81-.13h2.03s9.74.12,9.74.12l2.03.03,6.73.33c1.07.6,1.29,2.48,1.78,3.72.44,1.11.77,2.08,1.14,3.2l2.13,6.43c.87,2.62,1.6,5.09,2.6,7.73.51,1.36.41,3.24.84,4.57l.47,1.49c.34,1.08.52,2.34.54,3.32.94-.93,1.18,5.87,2.5,7.23.85.88,1.57,1.74.77,3.04l-.24.39c-.13.21,1.16.02,1.13.28l-.09.71c-.19,1.43.29,3.7,1,5.15.26.53.25,1.39.4,1.91.29,1.06.89,2.12,1.03,3.19.17,1.28.49,2.46,1,3.52.37.03.96,0,.96.19,0,3.69-.81-.24.2,3.89l1.2,4.9.93,2.6c1.48,4.12-1.15,2.49,1.13,3.9-.1.16-.59.49-.46.6.79.71,1.41,2.58,1.76,3.76l.68,2.26,1.26,5.69c.06.28.39.72.31.92-.96,2.16,1.61,1.38,1.05,3.71-.15.34-.28.61-.21.47.46.21.57.26.55.25l.28,1.4-.26.5h.78s1.38,0,1.38,0l-1.38-4.01c-.55-1.59-.88-4.45-.99-4.74l-.92-2.48c-.83-2.23-.96-5.05-1.79-7.23l-.62-1.63-1.16-4.51c-.08-.29-.46-.97-.5-1.25-.1-.78-.31-1.59-.58-2.25l-1.25-3.12c-.35-.88-.58-2.21-.82-3.24l-1.06-4.55c-.24-1.01-.66-2.16-.96-3.24l-.88-3.2c-.32-1.16-1.45-2.25-.58-3.55-.28-.18-.7-.55-.76-.78l-.73-3.14-.95-4.07-.77-1.87-2.18-8.75c-.07-.28-.74-.73-.63-.91l.54-.93c.21-.37-.44-1.2-.67-1.62l.25-3.17c.51.19,1.08.62,1.46,1.09.28.34-.15,1.43.04,1.84l.95,2.07c.57.32,3.37-1.23,3.64-.34.08.27,0,.73-.1,1.2,1.33.06,1.7.85,2.21,1.79l2.04,3.77c.88-1.24.01-2-.66-2.89l-1.22-1.63c-.32-.42-.26-1.82-.81-2.05-.84-.36-.84-1.22-1.2-1.88-.79-1.45-2.27-2.78-1.81-4.8l-1.29-.41c-.41-1.44-1.31-3.12-1.93-4.19-.65-1.13-.92-2.79-1.7-3.75l-2.52-3.11c-.68-.84-.89-2.21-.92-3.52,1.78-.05,3.19-.06,4.79.05l4.38.29,3.73.25,1.15.08c.37.03.59-1.22.86-1.07l.55.3c.06-1.41-1.12-3.09-1.87-4.25-.25-.38-.02-1.64-.4-1.82-.34-.16-1.04-.45-1.3-.54-.97,1.09.31,1.64.61,2.45l.95,2.48c-1.46.44-3.05.56-4.57.39l-3.94-.43c.18.02-10.44-.2-11.02-.2h-2.28s-5.02-.16-5.02-.16l-7.89-.05-4.94-.18-2.83-.02-5.73-.09-3.16-.02-5.1-.06-2.97-.16-9.22-.06c-.93,0-1.79-.05-2.73-.14-.41-.09-.61-.04-.65-.22l-.19-.92-.31,1.1c-2.31.3-4.3.08-6.47.03l-6.01-.14c-.77-.02-1.47-.1-2.25-.18-2.03-.21-2.42.09-4.91-.02l-2.51-.1h-2.45s-4.02,0-4.02,0l-5.11-.19-2.03-.02-2.57-.03-4.99-.1-1.72-.19-7.4-.36c-.24-.01-.74-.38-.89-.25l-.63.52-1.46-.81,1.02-1.44-1.47-.46.55-.94c.1-.17-.45-.5-.58-.65l-1.7-1.88.52-.05c.12-.01.07-.58-.04-.61l-1.62-.47c.31-.3.53-.55.63-.44l.47.55,1.12-2.74-.49-.32c-1.1-.72,2.81-.38,2.62-.85-.06-.14-.26-.54-.37-.65l-.94-1-1.17.31c-.13.03-.47.24-.58.31s-.35-.39-.32-.43c2.44-2.24.46-1.23,4.26-1.64l-2.46-1.06c-.85-2.2-1.77-4.07-2.62-6.15l-1.51-3.73-1.13-2.57-1.62-3.57-1.04-2.38-1.66-4.33c-.28-.74-1.41-1.46-1.08-2.52.13-.41,1.27-.34,1.5.02.6.93,1.12,1.5,2.04,2.21.02-.03-.25.43-.31.54l.88,2.19c.61,1.52,1.79,2.73,2.39,4.23l1.49,3.7c.19.48.35,1.15.73,1.42.28.2.58.34.52.43l-.27.42c.33.74.65,1.61.88,2.42,1.03,3.6.92,1.16,1.83,3.81l.63,1.81c.08.24.84.63.76.88l-.39,1.1s.43.24.59.33l.03.63c0,.13.59.21.75.19,1.45-.16,3.2,0,4.8.01l16.8.23c3.62.05,7.11.2,10.74.17,1.89-.01,3.65.3,5.55-.15l-6.95-.2c-.97-.03-1.79-.98-2.11-1.9l-2.43-6.82-.86-2.32c-.55-1.47-1.01-3.32-1.48-4.81.1.32-1.7-3.61-2.32-5.41-1.08-3.13-2.1-6.23-3.41-9.24-.83-1.9-1.57-3.65-2.11-5.63l-1.17-4.31,3.44-1.86.55,1.42c.1.25.71.58.68.85l-.13.99.37,1.75c.16.73.85,2.15,1.15,2.84.1.24.94.39,1,.65.42,1.92.49,2.67,1.3,4.95l.88,2.48c.12.35.65.96.67,1.3.01.28-.71.39-1.15.49l.46,1.28c.09.24.82.39,1.09.52,1.25,2.86,3.03,4.88,3.46,8.22l1.1.6c.55.3-.72,2.96,2.08,6.56l.57.74c.13.17-.14.79-.05,1.02.44,1.14.64,3.05.11,4.48l6.54.47c.52-.88-.34-1.84-.57-2.77-.26-1.04-.45-2.05-.8-3.01l-.92-2.55c-.22-.6-.53-1.36-.7-1.92l-2-6.84c-.18-.63-.82-1.72-1.17-2.42-1.02-2.04-.48-2.36-1.46-4.84s-1.68-4.46-2.46-6.82c-.94-2.86-1.68-2.81-1.95-5.21-.1-.84-.34-1.99-.66-2.74l-.95-2.25c-.41-.98-.81-1.92-1.08-3.11,1.53-.84,2.83-1.42,4.33-2.14l4.06-1.94c3.97-1.89.73.17,6.32-2.59l3.67-1.81c2.15-1.06,2.56-1.47,4.85-2.59l11.18-5.43c.26-.13.66-.5.8-.35.11.13.42.47.4.45.26-.59.5-.89.99-1.13l6.92-3.44c1.61-.8,3.82-1.71,5.35-2.19.38-.12,1.28.69,1.54.16l1.35.97c.18.13.59.72.74.58l.47-.43c.11-.11-.35-.47-.39-.62l-.7-2.56c-.21-.78-.73-1.45-1.09-2.19-.45-.93-.86-1.97-1.39-2.95l-2.28-4.13-1.38-1.6.75-.58c.11-.08-.06-.33-.18-.39-.82-.48-.48.35-2.73,1.37l-2.99,1.36-15.9,7.67-3.46,1.71c-.27.13-.93.59-1,.33l-.28-1.01-.15-.55c-.03-.1-.36,0-.39.09l-.21.61c-1.04.11-2.14.05-3.04.46l2.17.03c-.86,2.03-2.4,2.64-4.06,3.42l-16.59,7.83-36.07,17.32c-1.39.67-2.84,1.29-4.08,1.75l-2.37-1.41c-.18-.11-.35-.84-.56-.8l-.81.17c-3.31.71-2.89.52-5.29.09l1.33,1.02c-1.06.53-2.19-1.05-2.81-.65l-.85.55.57.62c-.24-.26-2.07,1.9-1.74,3,.24-.3.64-.98.94-.85.82.35,2.06,1.57,1.34,2.94l2.34.71-2,.29c2.04,1.97-.13.43,1.91,4.52.13.14.64.32.53.48l-.45.67.56,3.14c.17.95.6,2.14.92,3.26l1.32,4.64c-.19.21-.69.49-.59.68.08.15.34.62.42.86l1.22,3.49,1.36,3.85c.99,2.79.38,3.79,2.69,7.73-.28,1.88.32,3.53,1.95,4.68.09,1.14.62,2.32,1.17,3.37l.62,1.18c.66,1.26.99,3.24,1.71,4.15l2.75,3.48c-.31-1.84-1.12-3.28-2.08-4.89l.78.51c.11.07.33-.5.24-.57-1.38-1.11-3.6-3.43-3.36-5.54.81-.16,1.78,5.09,2.32,3.33l.2-.66,1.1,1.77c.29.47.32,1.36.49,1.88l1.33,4.01c.3.91,1.7,1.54,1.06,2.68l1.51,1.29-.89-.05c.11,0,.38,3.96,2.76,4.13l-1.46.22c2.61,2.64-.31.94,2.51,4.28l1.89,2.25.37-.57c.06-.09.48.04.44.15l-.19.6c-.07.21-.55.54-.63.75-.19.5.88,1.44,1.4,1.55s1.81-.23,2.01-.43l-1.56-2.61c-2.16-2.39-1.61-.73-2.9-2.47-.78-1.06-1.41-1.77-1.91-3.1l2.14,1.37c.01,1.03,1.18,1.94,1.87,1.34l1.13-.99-.57,1.05,1.41.95-.69.24c.45.23.92.45.79.53l-.76.47c-.13.08.12.48.27.57.11.07.53.05.56-.07l.12-.51,1.19.42-.84.51c-.12.08-.1.34-.1.44l1.7.22-2.12,2.5c-1.94-.07-4.19,2.95-6,2.7l2.56-1.47-1.61-.18.6-1.25.4.96c.09.22,1.3-.04,1.07-.09l-1.25-2.06c-.54-.89-1.39-1.93-1.93-2.59-.8.64-1.49.76-2.51.86l-.05,1.64-1.28-.62c-.21,1.06-.48,1.68-1.19,2.12l-1.94,1.18c-2.17.15-3.54,2.63-3.73,1.95l-.24-.87c-.06-.23-.31-.62-.44-.47l-.62.72c.35.98,1.61,1.4,2.86,1.57-.01.15-.22.48-.39.49l-.74.06c-.18.01.36.78.52.67l.7-.48,2.41.64-.99,1.96-1.21-.22-1.78,1.37,1.75,1.33-2.89.86c-.3,1.4-1.06,1.79-2.75,1.83l1.8,2.03c.58-.74.93-.96,1.39-.52.4.39.51.98.39,1.36l-.46-.81c-.08-.13-.36.05-.7.21-.38.18-.66.87-.69,1.35l-.52.39c-.07.06-.42-.02-.38-.1s.2-.43.2-.53l-.02-.77c.01.45-2.52-.07-3.38.9.06.96.12.92.41.21l.41,1.45-1.75-.17.46,2.1c.03.12-.09.67.02.64s.46-.11.56-.14l2.94-1.04.1-1.01c.02-.19.91.28,1.15.2,1.62-.53,4.38-2.17,5.56-3.83.23-.32.44-1.05.83-1.02,1.02.07,1.89-1.01,2.56-1.67.58-.58,1.36-1.35,1.66-1.94.07-.08.72-.12.65-.02l-.34.5c-.14.21-.29.42-.18.5.07.05.38.29.27.2l.87-.51c.13-.08.37.35.36.51l-.06.72c1.13.11,1.25-1.46,1.53-2.2l1.95-.5,1.18,2.63c.44.98,2.41.42,2.77-.05.24-.31.26-1.41-.13-1.52-1.31-.4-2.48-1.53-3.06-2.32-.26-.35-1.38-.38-1.09-1.19l.71.02c.13,0,.28-.64.41-.68l2.41-.76c.53-.17,1.01.1,1.79.49l-.45-1,1.9-.77.76.03-1.7-1.56c-.54-.5.08-1.56.68-1.91,1.01-.6,1.25-2.27.67-3.25-1.06-1.76-1.67-3.84-.72-5.97.35-.78.79-2.14,1.45-2.4l.67-.26c-.31.12-.57-2.61-1.42-3.63l1.03-1.4c.63.08,1.18.78,1.52,1.45l1.19,2.37c.06.9.27,1.71.87,2.46.26.33.43,1.27.63,1.69.42.88,1.06,1.82,1.19,2.68.16,1.06.75,1.74,1.47,2.26-.15.68-.07,1.4.33,2.13.72,1.32,1.6,3.23,2.16,4.48.07.15-.03.57.05.67s.46.31.51.43c.32.92.97,2.63,1.43,3.66l1.98,4.4,1.32,2.73,2.07,5.17,2.08,4.78,1.81,4.16c1.43,3.3,2.07,4.3,3.25,7.48,1.42,3.82,1.43,2.27,2.65,5.99.76,2.32,1.42,2.79,2.35,5.09l2.45,6.09c.28.69.41,1.27.73,1.87.51.98,1.01,1.91,1.44,2.91l2.24,5.22,2.04,5.13,3.03,6.66,12.01-.04c-1.11-1.96-1.87-3.38-2.41-5.18-.59-1.96-1.58-3.73-2.33-5.64l-1.48-3.74c-.65-1.64-1.43-3.17-2.05-4.8-.51-1.34-1.12-2.52-1.63-3.84l-1.6-4.12c-.74-1.91-1.62-3.61-2.38-5.48l-.76-1.86-1.59-3.84-.52-1.52c-.39-1.15-1.32-2.29-1.67-3.45-.2-.67-.48-1.45-.77-2.11l-2.38-5.4c-1.16-2.63-2.3-5.29-3.3-8.12l-.62-1.75c-.11-.32-.53-.94-.65-1.23l-2.11-5.07-1.42-3.43-.78-1.84-1.07-2.33-1.14-2.66-3.57-9.15c-.24-.62-.46-1.22-.63-1.84-.23-.8-1.67-1.5-.43-2.67l1.49,3.21c.04.19-.13.66,0,.79s.62.44.69.6l1.15,2.74c.32.77.58,1.36.9,2.03l.87,1.78.77,2.36,2.41,5.19c.48,1.03.89,2.11,1.02,3.19,2.01,2,1.22,3.78,2.7,5.88.73,1.04,1.17,1.9,1.36,3.12.08.5.74,1.31.93,1.8l1.36,3.52c1,2.57,2.12,4.55,2.33,5.13l1.55,4.3,1.37,2.81c.8,1.64,1.2,3.27,2.04,4.89.77,1.48,1.17,3.02,1.88,4.52l1.08,2.25c1.14,2.38,2.21,4.52,3.07,7.02l.95,2.75,1.09,2.37,2.47,5.9,2.22,5.31c.84,2,1.65,3.79,2.3,5.88.14.46.64,1.19.99,1.77h14.03s-1.46-2.55-1.46-2.55c-1.09-1.89-2.12-3.92-2.93-5.93-.3-.75-.52-1.38-.87-2.07-.42-.83-.59-2.28-1.03-3-.47-.76-1.09-1.33-1.33-2.14-1.52-5.09-1.27-1.14-1.68-4.76l-1.2-.26-.62-2.92-1.42-1.43c-.83-.84-1.18-1.41-1.16-2.56l.02-1.43c.02-1.16-.76-1.95-1.58-2.55-.29-.42-.42-1.5-.4-2.06-1.22-.68-.77-.61-1.82-3.17ZM290.97,95.9l-1.13-1.31c-.14,1.56.9,2.69,2.44,2.62l-.41-.94c-.1-.24-.66-.25-.9-.36ZM295.03,99.83c-.26-.61-.58-1.21-.97-1.39.27,1.34.66,1.87.42,2.76l-.34-.77c-.07-.16-.46-.47-.56-.62-.53-.8-.67-2.4-2.32-2.19.48,1.25,2.57,4.24,3.26,4.56l.23-1.17,1.98,2.08c-.43-1.26-1.22-2.14-1.71-3.26ZM234.05,101.81c2-.51,3.59-1.29,5.28-2.37-1.96.48-3.66,1.4-5.28,2.37ZM153.73,112.56c.93,1.46,2.2,2.61,2.13,4.55l.81.89.19-2.38-4.27-9.74-1.81.61c-.41-.31-1.25-.73-1.43-.42l-.71,1.28,1.37-.27c.03.75.41,1.81.84,1.88l1.12-.52c.2-.09.59.56.46.74l-.59.79c.81.7,1.3,1.67,1.89,2.6ZM209.05,114.03l10.07-4.94c-3.26.8-5.8,2.65-8.92,3.77-.54.19-.98.54-1.15,1.17ZM267.01,118.4c.32.11.84.7.63.8l-.88.41c.41.68,2.33-.63,2.33-.93.02-.93-2.1-5.99-3.82-7.18-1.04-.72-2.12,1.3-2.04,2.12.14,1.51.12,2.92,1.75,3.77-.26-1.07-.8-2.17-1.44-3.1l1.34-1.26c.26.08,1.02.78,1.24,1.13-.75,1.43-.97,3.62.88,4.24ZM303.14,115.37l-.55-2.6-.32-.53-.65,2.4c-.12.45,1.23.99,1.51.74ZM139.29,119.14c-1.25-1.58-1.53-.51-1.38-3.57.03-.65-.64-1.87-1.01-2.41l-1.03.59c-.19.11-.6-.34-.96-.62-.16.77.18,1.6.7,2.38l1.18,1.77c.35.52,1.28,1.28,1.39,1.86.13.7.31,1.65.72,2.01.43.39,1.64.32,2.12.17l-1.72-2.17ZM307.81,122.53c-.08-1.24-.7-1.87-1.29-2.63l-1.25-1.61c-.12.84.43,1.3.89,1.94l1.65,2.29ZM313.35,132.01c-.57-1.62-1.31-2.68-2.11-3.89l-1.41-2.58c-.54-.98-1.03-1.75-1.78-2.74-.12.25-.34.84-.18.99l.71.66,1.52,2.47,2.02,3.45c.3.67.56,1.34,1.22,1.63ZM219.17,128c-.32-.34-1.43-.19-1.88.07-.67.38-.4,1.74-.28,2.2.31,1.12.04-1.81,2.16-2.27ZM229.09,164.81c-.47-.28-.86-.46-.89-.68-.08-.69,1.26-.6,1.2-.93l-.15-.78c-.04-.22-.23-1.08-.01-1.03l.94.22-.09-2.25-2.25.04-.65.84c-.13.17-.78-.21-.85-.46l-.98-3.68,1.44-.51-2.79-.89-.04-1.97.85-.45-1.16-.24c-.17-.03,0-.61.1-.75l.42-.53-.57-1c-.11-.19.49-.6.6-.82l.84-1.66c-1.25-.12-1.92-.3-1.67-1.24.19-.72.57-1.03,1.39-1.21-.79-.14-1.72-.7-1.95-1.5-.25-.88.35-1.87,1.11-2.51l-3.02-.85c.15-.64.69-.87,1.17-.93.34-.04.65-1.07.45-1.35l-.7-.99c-.16-.22-.29-.98-.55-.92l-1.13.3.36-2.57-1.18-2.76c.13-.54.21-1.15.11-1.44l-1.03,1.79c-.42.73-3.01.36-3.15-.32l-.32-1.54c-.75,1.16-2.46.56-2.31,1.51.05.28.38.67.75,1.03.25.25.05,1.06.02,1.44.33.55.71,1.22.81,1.91s.67,1.47.81,1.95l1.5,4.87c.2.66.49,1.24.87,1.8l.66,2.28c.14.49.41,1.2.61,1.7l1.22,3.09.82,1.97c.62,1.49.61,3.31,1.43,4.65l1.07,1.75c.53.87.91,1.87,1.19,2.77l.61,1.99.88,2.88c1.19,3.9.59,3.43,1.5,5.93l.67,1.82,3.19-.07,1.28-1.3-1.3-1.37c.04-.8,0-2.11-.26-2.65-2.68-.13.21-3.16-1.88-4.41ZM326.32,154.35c-.58-1.31-1.29-2.38-2.04-3.68l-3.13-5.39-2.85-5-1.91-3.23-1.32-2.4c-.23-.41-.5-.83-.76-1.23-.33,1.45.72,1.98,1.27,3.01l1.87,3.5,1.42,2.45,1.1,2.02,2.01,3.41,3.25,5.72c.23.4.34.58,1.11.82ZM149.95,189.05l-9.34-.17-2.41-.15-3.27.03-2.42-.02-3.54-.02-6.77-.13-2.76-.04-2.42-.09-4.15-.16-2.96-.09h-2.63s-3.37-.08-3.37-.08l-9.13-.39-2.3-.09c-1.93-.07-3.69-.16-5.49-.8,1.51-.56,2.87-.79,4.04-.99.3-.53.89-1.14,1.38-1.33l.23.59c.03.08.39.16.41.08.31-.96,1.72-1.55,2.15-1.47.82.05,1.7-.82,2.39-1.32,2.54-1.86,1.58-.17,2.99-1.59l.36.16c.67-.66,1.33-.82,2.18-1.18.67-.28,1.83-.86,2.43-1.16.19-.09.55-.81.71-.67l.65.58.21-.64c.04-.13-.35-.31-.41-.36.31-.23.45-.37.54-.28l.42.39c.96-.51,2.01-1.16,3.03-1.61,2.78-1.22.68-1.72,4.44-1.71l19.35.02,2.17.04,2.82.13,14.53.1c3.17.02,3.63.15,6.51.18l5.44.07-.49-1.8c-.45-1.65-.94-3.74-2.4-4.44l.84-.24-1.29-4.02c-.29-.91-.48-2.08-.7-2.99l-1.14-1.01c.23-.85-.08-1.53-.05-2.06.05-1.07.2-2.04-.11-3.09l-.79-2.63-1.17-4.96-.68-2.61c-.33-1.27-.62-2.51-.91-3.97l-43.7,20.94-25.98,12.55-49.37,23.76c-1.81,2.51-1.96,7.04,1.87,8.93l3.45,1.71c1.12.55,1.98.48,3.09-.06l9.92-4.81,2.12-1.03c1.28-.62,2.39-1.26,3.76-1.07l2.08-1.12c.34-1.19,1.18-1.71,2.44-2.01l2.23-.52c.84-.97,2.09-1.56,3.26-2.01l2.22-1.17c.92-.49,1.81-1.08,2.74-1.49l1.56-.7,3.8-1.75,1.56-.5c.56-.18,1.37-.91,1.93-1.04.67-.15,1.21-.36,1.81-.69l16.12.09,11.65.23,5.15.23c3.84.17,7.53.07,11.33.14l13.32.25,8.69.26c1.6.05,3.03.44,4.71-.03.3-.08.85.16,1.08.42l-4.11.23,2.7.19c.45.03,1.25.48,1.52.73l.38-.7c.09-.16.67-.07.91-.04,4.5.55,2.35-.23,5.37.51.63.16,2.09-.86,2.41.34-.16.62-.77,1.8-1.1,2.2-.47-.02-.92-.05-1.16-.04s-.62.68-.57.92l.35,1.77c.54-.69,1.72-1.26,2.17-.62.35.5.7,1.11,1.08,1.21,1.33.35,1.49-1.31,2.92-.67l.07-1.79,1.1-.31c.23-.07-.03-.98-.19-1.18-1.25-1.49.06-2.65-1.19-3.73-1-.87-2.96.11-6.52-.17-1.66-.13-3.21-.1-4.87-.13l-3.24-.06-5.5-.15-2.47-.05ZM283.25,149.47l1.76-.69c.04.97.17,1.2.46,1.82l.57,1.21c.16-.57.07-.83.3-.94l1.19-.59c.4-1.36-3.65-7.88-3.71-7.86l-.76.23c-.33.1-.85.37-.96.63s-.07,1.07-.03,1.09c.83-.17,1.48-.28,1.81-.03.28.21.46,1.06.38,1.41l-.4,1.72c-.09.34-1.28.04-1.37-.32-.41-1.69-.08-2-.6-1.94-.17.02-.58.27-.5.41l.29.51c.36,1.26.92,2.49,1.56,3.32ZM339.09,176.96c1.1,2.29,2.22,4.36,3.58,6.51.57.91.67,2.39,2.13,2.47l-1.95-3.2-1.89-3.32-1.41-2.64-8.58-14.7-2.97-5.05c-.47-.8-1.04-1.55-1.65-2.26-.27,1.36.88,1.79,1.32,2.58l2.74,4.83,1.66,3.18s1.33,1.64,1.91,2.9,1.35,2.31,1.99,3.51l1.63,3.04c.34.64,1.16,1.42,1.5,2.13ZM286.75,176.32c-.15-.15-.44-.44-.44-.43.33.95-5.83.7-6.23.69l-4.14-.13-5.73-.31-17.38-.25-9.73-.31c-.89-.03-1.41-.3-2.21,0l-1.77.69,16.63.2c.85.01,1.83.32,2.66.31l2.13-.02,9.71.06,15.93.16c1.01.01,1.88-.06,3.04-.23l-2.47-.43ZM292.39,177.05l3.95.08,4.73.2-1.08-2.1-.32,1.09h-5.81c-.39.13-1.33.64-1.48.73ZM236.26,175.91l-8.57-.2c-.89-.24-1.84-.17-2.63.28l11.2-.08ZM305.72,180.04l-1.54-2.44c-1,.5.82,1.75,1.25,3.57,0,0,.54-.29.73-.39.14-.07-.31-.55-.43-.75ZM345.92,189.81c.33-.25.74-.45.67-.64l-.28-.69c-.44-.68-.76-1.32-1.64-1.68l1.25,3.01ZM352.92,200.61c-.5-2.53-2.18-3.82-2.99-5.69-.5-1.16-1-2.11-1.8-3.12l-1.13-1.77c-.2,1.25.56,1.96,1.05,2.82.74,1.3,1.55,2.61,2.18,3.98.33.73.56,1.05,1,1.61.53.67,1.02,1.82,1.69,2.17ZM180.14,203.58c-.2-.24-.7-.77-.83-.58l-.5.73c-.07.11-.28-.02-.48-.11-.56-.25,1.52-.85,1.09-1.69l-1.25-2.44c-1.1-.59-1.43-1.12-1.15-2.39l-1.88-2.74.76,3.48c.39,1.79.78,3.74,1.86,5.61l-.29.61.64,1.6,2.18-.51c.2-.05.65-.63.52-.78l-.68-.79ZM175.86,205.97c0,.09-.15.61-.17.69-.02.08.11.03.23-.02l.51-.24-.02-1.97c-.01-1.56-.73-3.27-1.06-4.82l-.52-2.4c-.16-.72-.47-1.31-.81-2.3l-.63.88c-.16.22.3.76.48,1.08s.25,1.1.35,1.49c.14.53.77,1.51.59,2-.43,1.15.68,1.48.73,2.11l.32,3.51ZM246.88,197.94c-.36-1.07-1.01-1.97-1.9-2.95-.93,1.37-.16,2.09.34,3.01,1.82,3.33,2.25,5.32,4.4,7.61.74-2.05-1.81-4.6-2.84-7.67ZM323.45,218.29l-.52-2.46c-2.82-2.58.56-.51-3.15-6.58l-.98-1.6-2.69-4.72-2.73-4.79c-.01,3.79,3.5,3.98,2.69,8.12.45.91,1.05,1.98,1.37,2.92l.87,2.61.56,1.67,2.04-1.38c.23,1.39.74,6.73,2.55,6.21ZM358.22,209.15l-2.97-4.95c-.23-.38-.19-.92-.86-.75-.3.42,3.47,6.99,3.83,5.69ZM324.84,219.96c1.37.48,1.82-.92,2.13-.72l.7.44c.6-.86-1.93-5.61-2.51-6.35l-1.79-2.3c-.37.06-1.14.51-1.12.85l.05,1.25.41-.92,1.82,1.38-.6,3.19,1.06,1.89c.11.19.35.48.27.6l-.43.69ZM368.52,227.59c-.29-1.16-.92-2.11-1.42-2.97l-.74-1.3-3.01-5.05-2.4-3.95c-.54-.88-.45-1.98-1.82-2.47.26.95.57,1.7.99,2.42l1.61,2.75,2.48,4.48,2.71,4.38c-.16-.25,2.42,4.1,1.6,1.71ZM314.44,226.94c-.16-1.1-.54-1.85-1.04-2.7-.37-.64-.05-1.77-1.33-1.3l.99,1.89c.43.82.66,1.47,1.38,2.12ZM371.83,232.83l-2.02-3.46c-.14-.24-1.2.1-.93.22l1.41,2.45c.22.39,1.01.77,1.54.8ZM321.49,238.8l-1.76-3.08-1.36-2.38-1.59-3-.37-.71c-.08-.15-.51-.13-.74-.14l1.5,2.71c1.27,2.29,3.19,5.32,3.89,7.45.03.1.67-.42.42-.85ZM366.13,233.69c-.56-1.28-.16-2.96-1.85-3.52-.25,1.43.99,4.09,1.74,4.54.14.08.54-.3.46-.44l-.35-.58ZM358.47,250.32c.42-.58.79-.94,1.29-1.37l.56-.49c.08-.07.51.19.45.28-.19.28-.72.63-.72.88v1.13c0,.41.04.89.16,1.21.1.26.64.29,1.13.2-1.38-1.44-.2-2.97.65-4.09.93-1.96,1.51-4.66,3.99-4.06l-.29,1.01c-.04.13.6.25.42.16.13-.64.2-1.45.54-1.55l1.43-.43c-.34-.82.58-2.73.77-2.51l.42.5c.76-.24,1.71-.66,2.5-1.14.96-.58,1.51-.08,2.38.81-.73-3.59-.9-1.66-1.55-3.61-.31-.91-.67-1.54-1.36-2.2-.11,1.29.42,2.54,1.24,3.25-.85.35-1.16.79-1.87,1.67-.19-.76.12-1.57.39-2.43l-1.21.58c-.19.09-.61-.31-.92-.5-.45.12-.57,1.65-.06,1.8.45.13,1.05.07,1.12.34s.15.86.16,1.12l-2.41-1.09c-2.01.41-5.37.25-5.36-1.82,0-.14.63-.16.78-.16s.26-.32.26-.46-.37-.29-.58-.37l-.89-.36c-.14-.06.42-.46.45-.42l.79.55c.11.08.42-.23.41-.31-.22-.4-.51-.97-.75-1.04s-.5.19-.96.45l.56-1.52-1,.73v-.7c0-.14-.6-.29-.68-.17l-1.27,1.83c1.75.6-.27.78,1.04,2.21.14-.07-.36.16-.54.24-.5.23.16-.15-.89-1.41-.13-.16-.54.31-.74.4l-1.58.67c-.15-1.49,1.86-2.02,1.03-2.89-.2-.21-.66-.17-1.31-.11-.39-1.29,1.47-.88-.03-2.91-.79.76-1.33,1.79-1.3,2.51,1.61,1.14,1.47,4.45.71,3.62-.62-.67.65-.85.3-1.2l-.43-.44-.71,1.52c-.23.5-.56,1.29-.75,1.78l-2.61.59c-.91.21-1.62-.1-2.49-.69l-2.45-.06-.08-1.39-1.4.89c-.44.28-1.22,1.03-1.54,1.08l-1.48-.62c.37.81.48,1.29.55,2.13l.19,2.13,1.1.4c.58.83,1.14,1.47,1.94,2.16,1.55,1.33-.43,2.67.4,4.37,1.13,2.31-2.26,2.67-.92,4.28.36.43,1.82.58,1.72.08s-.22-.75-.11-.84.35-.18.36-.05l.05.65c.07.99.64,1.73,1.01,2.5.55,1.13,1.04,2.29,1.58,3.23s1.16,1.37.49,2.67l1.64,2.23c.09.12-.03.59-.04.73s.45.05.52-.08l.27-.47c.23-.4.63-.88.64-1.21-.02.38-.99-3.57-1.61-4.03l.16-2.47c-1.34-.74-1.96-2.22-2.39-3.55-.35-.14-.91-.37-1.11-.53s-.18-.85.06-.91c.48-.12,1.05-.59.87-.83-.81-1.07-2.2.01-2.12-.85.04-.37.32-.9.6-1.04l1.64-.82.19.6c.18.57,0-.23.64-.37.76-.17,2.41.68,2.73,1.39.11.24-.51.8-.83,1.17.45.02,1.09-.24,1.69-.53l2.16-1.04c.5-.24,1.77-.4,2.2-.57ZM367.39,235.93l1.76.17-.59-3.03c-.62,1.97-2.18,1.82-1.84,2.24.1.12.51.6.67.61ZM281.32,267.73c-.62.09-1.3.18-1.51-.07s.02-1.03.17-1.49l-2.25-1.3.79-.27c.12-.04,0-.66-.11-.62l-.73.25-.51-1.45c-.76-.85-1.12-1.79-.36-2.79l-2.01-1.67.87-.24c-1.41-.44-2.07-2.08-1.91-2.22l.45-.42c-1.49-.68-1.96-2.06-1.37-3.67-.05-.58-.28-.61-.89.07-.1.2-.83-.7-.59-.9l1.04-.86-1.19-.42-.26-1.81c-.41.12-.92.35-1.04.19s-.32-.58-.39-.8l-.61-1.8c-3.08-2.81,2.19-2.27-3.47-5.82-.46-.29.33-1.37.27-1.84l-.26-2.15c.2.05-.35-.09-.56-.14-.73-.18.11,1.64-.55,2.62.44,1.7,1.06,3.57,1.83,5.18l2.7,5.69c.56,1.18,2.39,3.67,2.28,5.12l-1.54-.23c.05,1.18.46,2.18,1.62,2.64l-.15-2.37,1.35,2.16c.48.77.89,1.57,1.32,2.4l2.66,5.11,2.59,5.17c.37.73,1.24,1.61,1.52,2.26l1.23,2.85c.23-.67.41-1.37.72-1.48.27-.09.9.13,1,.4.91,2.41,1.93,4.74,2.97,7.09,1.32,2.97,1.7,4.56,3.44,4.5.09,0,.04-.06-.02-.21l-.21-.51c-.29-.7-.57-1.32-.92-1.96l-3.28-6.04c-1.96-3.61-2.24-5.06-4.16-8.17ZM398.28,280.98l1.59,2.74c.19.33.34,1.01.63.97l1.06-.17-1.39-2.29c-.55-.91-1.05-1.78-1.52-2.75-.9-1.83-2.18-3.36-3.14-5.18l-2.09-3.95-5.26-9.12-3.39-6.06c-1.92-3.44-.48-.04-2.19-3.52l-1.05-2.14c-.7-.67-.92-1.33-1.37-2.12l-3.64-6.4-1.19-1.98c-.68-1.12-1.17-2.17-1.78-3.46-.46,2.97,1.47,3.55,1.14,5.59.88.34,2.21,1.52,1.7,2.39-.23.3-.49.77-.51,1.07-.03.43.45.82,1.18.97,0-.25-.2-.93-.39-1.5.66.16.94,1.06,1.35,1.76l1.99,3.41,4.85,8.4,1.22,2c.78,1.27,1.37,2.56,2.21,3.88l1.29,2.04,3.48,6.39c.35.64,1.08,1.42,1.55,2.04.55,1.58,1.27,2.82,2.08,4.22l1.6,2.76ZM324.7,244.84c-.69-1.53-1.25-2.89-2.45-3.75l1.75,4.25c.29.22.47.07.71-.5ZM327.94,250.47c-.43-.84-.85-1.86-1.54-2.44-.28.9.59,1.84.88,2.35.08.14-.22.86-.06.85h.65c.12,0,.09-.64.07-.76ZM334.06,261.25c-.49-1.01-.67-1.83-1.81-1.89l1.17,2.27c.09.18.21.94.38.85s.77-.19.69-.36l-.42-.87ZM352.23,269.13c-.88-1.66-1.82-2.82-3.23-2.64.02-.89-.31-1.77-1.04-2.12-.28,1.2-.8,2.09-2.05,2.4.93.75,1.44,1.29,1.72,2.36h4.6ZM336.58,265.62c-.14-.16-1.03-.26-.97-.08.67,1.75.99.69,1.72,3.89.36-1.12.11-2.81-.76-3.81ZM221.81,271.05c.46-.83.31-2.47-.61-2.97-.6,1.24-.67,2.65.61,2.97ZM352.69,271.87l1.71-1-.24-1.18c-.03-.16.73-.24.51-.27l-1.39-1.36-.06,1.79-1.53.56,1,1.47ZM292.33,273c-.83-1.21-1.27-2-1.64-3.2-.21,1.09-.41,1.77.09,2.39.33.41.97.74,1.55.82ZM346.62,284.74c-.4-.84-.84-1.65-1.29-2.47l-2.85-5.21c-.95-1.74-2.06-3.4-2.85-5.21-.39-.89-.2-2.34-1.83-1.97.49.95,1.2,1.75,1.51,2.49.73,1.72,1.61,3.09,2.5,4.67l2.41,4.26c.69,1.21.85,2.55,2.39,3.44ZM343.92,275.78c1.18-1.13,2.16-1.76,3.24-2.45-1.6-2.28.59-3.12-.03-3.35l-.65-.24c0,1.59-2.3,2.31-3.03,2.26-.32-.02-.52-.64-.78-1.06-1.79,3.06.92,3.57,1.26,4.84ZM216.7,282.69c-.02.61-.21,1.17-.58,1.97l14.22-.03-2.63-6.1c-.47-1.08-1.09-2.35-1.55-3.27-.53.08-1.19.13-1.39.05-.4-1.2-.97-2.42-1.64-3.26l-1.36.69-.53,2.21c-1.81.74-.42,2.4-1.73,3.41-.3.23-1.12.14-1.48.17-.44.32-1.12.63-1.78.82-.48.14-.55,1.56-.18,1.92.17.17.67.4.66.61l-.03.79ZM300.8,281.81l-2.13-.05-.02-3.41-1.85-1.28-.55,1.78c-.13.27-1.28-.2-1.29-.55l-.09-2.51c-1.11-.02-1.67-.12-2.19-.51-.04.15.03.98-.23,1l-1.09.07c-.27.02-.11.89.1,1.11.73.77.7,1.47.02,2.29-.42.51-1.25.2-2.31-.2.01.36.22,1.15.46,1.71l1.45,3.39,9.49.02c.21-.5.34-1.18.31-1.56l-.09-1.28Z"/>
  <path d="M115.62-.11c1.59,1.91,1.49,3.92,2.92,6.58-.14-.27,3.69,8.02,3.54,7.65l1.52,3.92c.25.64.55,1.17.82,1.83l1.84,4.47,1.11,2.63,1.08,2.69c1.37,3.41,1.64,2.18,2.31,4.8.35,1.36.81,2.56,1.37,3.81l1.68,3.79,1.41,3.16,2.08,4.86,1.34,3.19,1.39,3.21,3.85,9.07,1.09,2.65,1.33,2.99,3.05,7,.8,2.03.87,2.02c.5,1.16,1.04,2.18,2.08,2.87l.33,1.7c.8,1.01,1.13,5.03,2.25,6.33.4.56.56.88.8,1.57.95,2.7,2.08,5.31,3.3,7.87l1.86,3.9c.16.34.37.75.51,1.16.52,1.51,1.38,2.81,2.1,4.17.65,1.23,1.15,2.51,1.86,3.67s1.2,2.46,1.66,3.84l1.24,1.5c.07.93.44,1.52.61,2.07l.57,1.78c.32,1,1.57,3.76,1.77,3.81l1.09.24c-.15.21-.7.87-.56,1.15l.69,1.37-3.21,1.44c-.89.4-1.81.89-2.74,1.43l-1.39-3.49c-.4-1.01-.79-1.88-1.09-2.93l-.84-1.16.26-.65c.03-.08-.27-.06-.35-.03l-.56.15c.63-1.22-.24-1.95-.63-2.9l-1.01-2.41-1.47-3.51c-.29-.69-.59-1.33-.91-1.95l-1.1-2.12c-.51-.98-.78-2.34-1.22-3.34l-.5-1.14-1.21-2.75-.7-1.74c-.05-.12-.59-.32-.58-.46l.09-.66c-1.58-2.99-2.17-5.51-3.8-8.67-.4-.77-.74-1.8-1.12-2.73l-.98-2.03c-.5-1.04-1.07-2.1-1.51-3.23-.99-2.59-2.09-5.09-3.32-7.56-.21-.43-.41-.8-.57-1.19l-2.07-5.23c-.36-.92-.8-1.95-1.21-2.86l-1.43-3.24-.99-2.22-2.66-6.27-.61-1.38c-1.42-3.19-.16-1.3-2.05-4.45l-1.04-1.75c.2-1.06-.31-1.85-.79-2.72-1.63-2.94-.84-3.15-2.35-5.47-.07-.14.11-.85-.04-.83-.12.01-.52.02-.55-.09l-.61-2.06-4.57-10.41-1.06-2.58-2.07-4.67c-.1-.23.07-.98-.11-1.07l-.56-.29c-.37-1.69-.94-3.04-1.87-4.54-.34-.55-.61-2.25-1.66-4.32l-1.36-2.66c-.91-1.78-1.63-3.52-2.92-5.16-.12-1.11-.25-2.4-.55-3.43h6.03Z"/>
  <path d="M133.72-.11c0,.08.09.62.19.84.77,1.66,1.75,3.98,2.52,5.93l.91,2.33,1.77,4.49,1.11,2.58c.34.78.68,1.64.97,2.41l1.58,4.17,2.13,5.16,1.42,3.37,1.56,3.93.73,1.59,2.97,7.35,1.24,3.08c.26.64.65,1.36.87,1.97l1.63,4.42c.28.77.57,1.54.91,2.27l2.01,4.33.74,2.11,3.44,8.16.93,2.21,1.95,4.57,1.19,3.2,1.76,4.28c.33.8.68,1.66,1.03,2.43,1.65,3.59,1.27,3.67,2.58,6.6.25.55.78,1.28.93,1.89.47,1.99,1.24,3.47,2.37,5.14.45.86.46,2.51.94,3.28,1.13,1.79,1.43,2.85,2.09,4.87.49,1.52,1.11,2.32,1.77,4.19.75,2.1,1.55,4,2.33,6.04l2.49,6.53c-1.56.94-3.84,1.8-5.85,2.46-.11.09-.48.52-.5.4s-.1-.64-.15-.75l-2.74-6.37-2.56-6.18-2.69-6.44-1.31-2.97-5.54-13.1-2-4.68-2.23-5.51c-.59-1.45-1.3-2.76-1.9-4.19l-1.7-4.04-1.15-2.87c-.38-.95-.77-1.89-1.2-2.84l-1.53-3.38-1.02-2.42-1.48-3.71-.76-1.81-2.85-6.6-2.31-5.51-3.15-7.46-1.43-3.45-1.66-3.74-2.22-5.29c-.04-.09-3.07-6.68-2.06-6.11l4.42,10.46,2.03,4.83,1.43,3.15,1.88,4.52,1.87,4.39,3.74,8.59.85,1.97,2.22,5.28c.72,1.72,1.3,3.48,2.12,5.13.58,1.17,1,2.23,1.48,3.43l.9,2.24,2.06,4.83.52,1.2,1.32,3.18c.52,1.25.89,2.47,1.54,3.69.83,1.56,1.26,3.11,2,4.71l1.43,3.09c.46,1,.77,1.89,1.13,2.95.52,1.51,1.3,3.04,1.95,4.54l2.68,6.19,1.23,3.1,1.15,2.68.86,2,2.29,5.46.76,1.81c.41.99,1.02,2.12,1.55,3.13.24.46.35,1.41.83,2.02.3-.35.69-.83.57-1.06s-.43-.68-.54-.96l-2.84-7.25-1.27-3.02-1.15-2.62-1.03-2.33-.57-1.57-.53-1.28-1.35-3.45-2.57-5.83-1.15-2.67-2.4-5.83-1.31-2.93-1.24-3.01-1.36-3.32c-.24-.58-.4-1.55-.59-2.11-.36.75-.48,1-.19.4l-.54-1.32-1.41-3.41-2.06-4.95c-.79-1.9-1.53-3.9-2.54-5.98-.47-.98-.88-2.13-1.2-3.12-.35-1.1-.99-2.03-1.42-3.19l-.83-2.28-.96-2.23c-.76-1.76-1.49-3.52-2.13-5.3-.25-.69-.41-1.29-.73-1.88-.53-.97-.87-1.92-1.27-2.9l-2.38-5.87c-.32-.79-3.47-8.74-3.43-8.66l-1.77-3.84c-.98-2.12-1.59-4.18-2.78-6.31-.46-.83-.34-2.46-1.03-3.46s-.94-2.37-1.44-3.45l-1.75-3.79c-.65-1.42-1.08-2.8-1.65-4.22l-1.1-2.74h6.61Z"/>
  <path d="M209.87-.11c.81,1.55,1.94,3.08,2.69,4.73l.65,1.42c1.09,1.6,1.97,3.18,2.92,4.83l5.56,9.69,2.52,4.38,2.22,3.82c.96,1.65,1.79,3.22,2.4,5.06l4.15,12.48,1.35,4.17,1.06,3.24,1.73,5.46.97,3.23c-.86.41-1.86.65-2.35.34-.72-.47-1.21-1.06-1.53-1.84l-1.26-3.06-2.02-4.65-.98-2.2-1.69-4.07-1.37-3.2-1.57-3.65c-.82-1.9-2.06-3.64-1.95-5.72.03-.49,1.1-.79,1.85-1.03l-1.3-2.64c-.77-1.56-1.59-2.94-2.45-4.47l-3.01-5.29-2.97-5.43-2.92-5.15-2.98-5.32-1.79-3.07-1.1-2.08h3.16Z"/>
  <path d="M275.67-.11c-.44.58-1.53.34-2.18.41-.3.03-.88.57-1.17.51-2.43-.52.45-.84-3.7-.34-1.26.15-2.31.33-3.59.85-.5.2-1.38.29-1.99.44-2.99.71-3.24-.84-3.53,1.42-1.43-.82-3.33-.29-5.16.16-.71.17-2.01-.67-2.8-.01s-1.99.02-2.82.18c-3.61.7-2.7.06-4.96,1.27-.29.15-.94.39-1.16.22l-.78-.62c-.41-.32-.96-1.7-.46-1.72l1.78-.05c.2.19.52.78.79.74.79-.11,1.82-.62,1.54-.96l-.54-.66,1.38-.73c.61-.33,1.15-.65,1.48-1.12h27.87Z"/>
  <path d="M149.81-.11c.72.88.87,2.17,1.37,3.23.72,1.54,1.1,2.81,1.49,4.41.27,1.1,1.13,2.38,1.5,3.56.52,1.68,1.11,3.44,1.98,4.86,1.19,1.95,1.12,3.05,2.43,6.32,1.68,4.22.57,3.36,3.15,8.54,1.39,2.79.54,1.9,1.82,5.11l1.08,2.72,1.56,3.58c.32.74.46,1.63.79,2.44l1.03,2.56c.28.7.46,1.56.72,2.14.28.62.57,1.18.8,1.78l.7,1.84,1.38,3.81.88,2.28c2.11,5.49.86.26,2.24,6.24.17.73,1.11,1.89,1.18,2.62.5,5.11,1.28,3.81,2.92,8.54l.83,2.39c.3.87,1.04,1.54,1.12,2.67.04.56,1.56,4.91,1.55,4.89l1.19,2.38.81,2.43c.21.65.6,1.46.92,1.95.57,3.14,1.53,6.03,3.33,8.76.75,1.13,1.01,2.53,1.45,3.75l.86,2.33c1.5,4.09,1.28,1.54,2.58,6.69l.8,3.18c.11.42.62,1.22.89,1.74.23.42,1.36-.25,1.8-.44,2.84-1.2,5.6-2.32,8.22-3.88.73-.44,1.55-.82,2.51-.6l-13.25,6.36-.96-4.01c-1.56-6.51-3.19-6.89-3.88-10.83-.24-1.36-.69-2.18-1.26-3.32l-.61-1.24-1.55-3.14c-.36-.72-1.06-1.62-1.2-2.39-.26-1.43-.54-2.59-1.06-3.86l-1.1-2.68c-2.21-5.4-.65-3.27-3.43-8.37-.46-.85-.7-2.46-1-3.52-.54-1.92-1.37-3.52-2.2-5.34-.58-1.26-.42-3.17-1.08-4.36-.94-1.69-1.71-3.2-1.81-5.14-1.56-2.09-2.89-6.97-3.56-8.04-.11-.17-.74.13-.97.13-.8-1.08-1.16-2.88-.62-4.24l-1.85-5.5c-.78-2.31-1.38-4.54-2.39-6.8l-1.16-2.6c-.44-.99-.54-2.6-1.14-3.4-.56-.74-.92-1.22-1.18-2.07l-1.35-4.38c-.14-.45-.55-1.16-.72-1.56-1.08-2.52-.82-2.98-1.87-5.32l-1.98-4.4-1.54-2.78c-.43-.78-.53-1.54-.69-2.52-1.2-7.36-.63-1.97-2.5-7.77l-.55-1.71h.57Z"/>
  <path d="M182.86-.11c-.92,1.96.56.24.71,2.91l.11,1.99c-.76.13-1.29-.25-1.58-.88-.2-.42.36-1.22.33-1.68l-.16-2.34h.57Z"/>
  <path d="M124.81-.11l2.3,6.48c-1.46-2.05-1.85-4.38-2.87-6.48h.57Z"/>
  <path d="M200.67-.11l.82,1.49c.16.28-.87.65-1.08.42l-.79-.84.41-.6c.07-.11-.17-.4-.22-.47h.86Z"/>
  <path d="M242.97,247.8c1.05,2.56.6,2.49,1.82,3.17-.02.56.11,1.65.4,2.06.82.6,1.6,1.39,1.58,2.55l-.02,1.43c-.02,1.15.33,1.72,1.16,2.56l1.42,1.43.62,2.92,1.2.26c.41,3.62.16-.33,1.68,4.76.24.81.86,1.38,1.33,2.14s.61,2.17,1.03,3c.35.69.56,1.32.87,2.07.81,2.01,1.84,4.04,2.93,5.93l1.46,2.54h-14.03c-.35-.57-.85-1.31-.99-1.76-.65-2.09-1.46-3.88-2.3-5.88l-2.22-5.31-2.47-5.9-1.09-2.37-.95-2.75c-.87-2.5-1.93-4.64-3.07-7.02l-1.08-2.25c-.72-1.5-1.11-3.04-1.88-4.52-.84-1.62-1.24-3.25-2.04-4.89l-1.37-2.81-1.55-4.3c-.21-.58-1.33-2.56-2.33-5.13l-1.36-3.52c-.19-.49-.85-1.29-.93-1.8-.19-1.22-.62-2.08-1.36-3.12-1.48-2.1-.68-3.88-2.7-5.88-.13-1.08-.54-2.16-1.02-3.19l-2.41-5.19-.77-2.36-.87-1.78c-.32-.67-.58-1.26-.9-2.03l-1.15-2.74c-.07-.17-.55-.48-.69-.6s.03-.6,0-.79l-1.49-3.21c-1.23,1.17.21,1.87.43,2.67.17.61.39,1.21.63,1.84l3.57,9.15,1.14,2.66,1.07,2.33.78,1.84,1.42,3.43,2.11,5.07c.12.29.54.91.65,1.23l.62,1.75c1.01,2.84,2.14,5.49,3.3,8.12l2.38,5.4c.29.66.57,1.43.77,2.11.35,1.16,1.28,2.3,1.67,3.45l.52,1.52,1.59,3.84.76,1.86c.76,1.87,1.64,3.57,2.38,5.48l1.6,4.12c.51,1.32,1.12,2.49,1.63,3.84.63,1.63,1.4,3.16,2.05,4.8l1.48,3.74c.75,1.9,1.74,3.68,2.33,5.64.55,1.8,1.31,3.23,2.41,5.18l-12.01.04-3.03-6.66-2.04-5.13-2.24-5.22c-.43-1-.93-1.93-1.44-2.91-.31-.6-.45-1.18-.73-1.87l-2.45-6.09c-.93-2.31-1.59-2.77-2.35-5.09-1.22-3.72-1.23-2.17-2.65-5.99-1.18-3.18-1.82-4.18-3.25-7.48l-1.81-4.16-2.08-4.78-2.07-5.17-1.32-2.73-1.98-4.4c-.46-1.03-1.11-2.74-1.43-3.66-.04-.12-.43-.33-.51-.43s.02-.52-.05-.67c-.55-1.26-1.43-3.16-2.16-4.48-.4-.73-.47-1.44-.33-2.13-.73-.52-1.32-1.2-1.47-2.26-.13-.86-.77-1.81-1.19-2.68-.2-.42-.37-1.36-.63-1.69-.59-.75-.81-1.56-.87-2.46l-1.19-2.37c-.34-.67-.89-1.37-1.52-1.45l-1.03,1.4c.85,1.02,1.11,3.76,1.42,3.63l-.67.26c-.66.26-1.1,1.62-1.45,2.4-.96,2.13-.34,4.21.72,5.97.59.98.34,2.65-.67,3.25-.6.35-1.22,1.41-.68,1.91l1.7,1.56-.76-.03-1.9.77.45,1c-.78-.4-1.26-.66-1.79-.49l-2.41.76c-.12.04-.28.68-.41.68l-.71-.02c-.29.8.83.83,1.09,1.19.57.79,1.75,1.93,3.06,2.32.39.12.37,1.21.13,1.52-.36.46-2.33,1.03-2.77.05l-1.18-2.63-1.95.5c-.28.74-.41,2.31-1.53,2.2l.06-.72c.01-.15-.22-.59-.36-.51l-.87.51c.12.09-.19-.15-.27-.2-.11-.08.04-.29.18-.5l.34-.5c.07-.11-.58-.06-.65.02-.3.59-1.08,1.36-1.66,1.94-.66.66-1.53,1.74-2.56,1.67-.39-.03-.6.7-.83,1.02-1.18,1.66-3.94,3.3-5.56,3.83-.24.08-1.14-.39-1.15-.2l-.1,1.01-2.94,1.04c-.1.04-.46.11-.56.14s0-.52-.02-.64l-.46-2.1,1.75.17-.41-1.45c-.29.71-.35.75-.41-.21.87-.97,3.39-.45,3.38-.9l.02.77c0,.1-.16.45-.2.53s.31.16.38.1l.52-.39c.03-.48.31-1.16.69-1.35.35-.16.63-.35.7-.21l.46.81c.12-.38.01-.97-.39-1.36-.46-.44-.82-.21-1.39.52l-1.8-2.03c1.68-.04,2.45-.43,2.75-1.83l2.89-.86-1.75-1.33,1.78-1.37,1.21.22.99-1.96-2.41-.64-.7.48c-.16.11-.7-.66-.52-.67l.74-.06c.18-.01.38-.34.39-.49-1.25-.18-2.51-.59-2.86-1.57l.62-.72c.13-.15.37.24.44.47l.24.87c.19.67,1.56-1.8,3.73-1.95l1.94-1.18c.72-.43.99-1.06,1.19-2.12l1.28.62.05-1.64c1.02-.1,1.71-.23,2.51-.86.54.66,1.39,1.69,1.93,2.59l1.25,2.06c.22.05-.98.31-1.07.09l-.4-.96-.6,1.25,1.61.18-2.56,1.47c1.81.25,4.06-2.77,6-2.7l2.12-2.5-1.7-.22c0-.1-.03-.36.1-.44l.84-.51-1.19-.42-.12.51c-.03.12-.45.14-.56.07-.15-.09-.4-.48-.27-.57l.76-.47c.14-.08-.33-.3-.79-.53l.69-.24-1.41-.95.57-1.05-1.13.99c-.7.61-1.86-.3-1.87-1.34l-2.14-1.37c.51,1.33,1.13,2.04,1.91,3.1,1.28,1.73.73.08,2.9,2.47l1.56,2.61c-.2.21-1.48.54-2.01.43s-1.6-1.05-1.4-1.55c.08-.21.57-.53.63-.75l.19-.6c.03-.11-.38-.24-.44-.15l-.37.57-1.89-2.25c-2.82-3.35.11-1.64-2.51-4.28l1.46-.22c-2.38-.17-2.65-4.12-2.76-4.13l.89.05-1.51-1.29c.64-1.14-.76-1.77-1.06-2.68l-1.33-4.01c-.17-.51-.2-1.41-.49-1.88l-1.1-1.77-.2.66c-.53,1.76-1.5-3.49-2.32-3.33-.24,2.11,1.99,4.43,3.36,5.54.09.08-.12.65-.24.57l-.78-.51c.95,1.61,1.76,3.05,2.08,4.89l-2.75-3.48c-.72-.91-1.05-2.89-1.71-4.15l-.62-1.18c-.55-1.05-1.08-2.23-1.17-3.37-1.63-1.15-2.23-2.8-1.95-4.68-2.32-3.94-1.7-4.94-2.69-7.73l-1.36-3.85-1.22-3.49c-.08-.24-.34-.7-.42-.86-.09-.18.4-.47.59-.68l-1.32-4.64c-.32-1.12-.75-2.3-.92-3.26l-.56-3.14.45-.67c.11-.15-.4-.34-.53-.48-2.03-4.09.14-2.55-1.91-4.52l2-.29-2.34-.71c.72-1.36-.52-2.59-1.34-2.94-.31-.13-.71.55-.94.85-.34-1.09,1.5-3.26,1.74-3l-.57-.62.85-.55c.61-.39,1.75,1.19,2.81.65l-1.33-1.02c2.4.43,1.98.62,5.29-.09l.81-.17c.21-.04.38.69.56.8l2.37,1.41c1.24-.45,2.69-1.08,4.08-1.75l36.07-17.32,16.59-7.83c1.66-.78,3.2-1.39,4.06-3.42l-2.17-.03c.91-.4,2.01-.35,3.04-.46l.21-.61c.03-.1.36-.19.39-.09l.15.55.28,1.01c.07.26.74-.2,1-.33l3.46-1.71,15.9-7.67,2.99-1.36c2.26-1.02,1.91-1.85,2.73-1.37.12.07.29.31.18.39l-.75.58,1.38,1.6,2.28,4.13c.54.97.95,2.02,1.39,2.95.36.74.88,1.41,1.09,2.19l.7,2.56c.04.15.5.51.39.62l-.47.43c-.15.14-.55-.45-.74-.58l-1.35-.97c-.26.53-1.16-.27-1.54-.16-1.53.48-3.74,1.39-5.35,2.19l-6.92,3.44c-.49.24-.73.55-.99,1.13.02.02-.29-.32-.4-.45-.14-.16-.54.22-.8.35l-11.18,5.43c-2.29,1.11-2.7,1.53-4.85,2.59l-3.67,1.81c-5.59,2.76-2.36.7-6.32,2.59l-4.06,1.94c-1.5.71-2.8,1.29-4.33,2.14.27,1.19.67,2.14,1.08,3.11l.95,2.25c.31.75.56,1.9.66,2.74.27,2.4,1.01,2.36,1.95,5.21.78,2.36,1.53,4.45,2.46,6.82s.44,2.8,1.46,4.84c.35.7.98,1.79,1.17,2.42l2,6.84c.16.56.48,1.32.7,1.92l.92,2.55c.35.96.54,1.96.8,3.01.23.92,1.09,1.89.57,2.77l-6.54-.47c.54-1.43.33-3.35-.11-4.48-.09-.23.18-.85.05-1.02l-.57-.74c-2.8-3.61-1.53-6.26-2.08-6.56l-1.1-.6c-.44-3.34-2.21-5.36-3.46-8.22-.27-.13-1-.27-1.09-.52l-.46-1.28c.44-.1,1.16-.21,1.15-.49-.01-.34-.54-.95-.67-1.3l-.88-2.48c-.81-2.28-.88-3.03-1.3-4.95-.06-.26-.89-.41-1-.65-.3-.69-1-2.11-1.15-2.84l-.37-1.75.13-.99c.04-.27-.58-.59-.68-.85l-.55-1.42-3.44,1.86,1.17,4.31c.54,1.98,1.28,3.73,2.11,5.63,1.32,3.01,2.33,6.11,3.41,9.24.62,1.8,2.42,5.72,2.32,5.41.46,1.48.93,3.33,1.48,4.81l.86,2.32,2.43,6.82c.33.92,1.14,1.87,2.11,1.9l6.95.2c-1.9.45-3.66.14-5.55.15-3.63.02-7.12-.12-10.74-.17l-16.8-.23c-1.6-.02-3.35-.17-4.8-.01-.16.02-.74-.05-.75-.19l-.03-.63c-.16-.09-.59-.33-.59-.33l.39-1.1c.09-.25-.67-.64-.76-.88l-.63-1.81c-.92-2.65-.8-.2-1.83-3.81-.23-.81-.55-1.68-.88-2.42l.27-.42c.06-.1-.24-.23-.52-.43-.38-.27-.53-.93-.73-1.42l-1.49-3.7c-.6-1.5-1.78-2.71-2.39-4.23l-.88-2.19c.06-.11.33-.56.31-.54-.92-.71-1.45-1.28-2.04-2.21-.23-.36-1.37-.43-1.5-.02-.33,1.07.8,1.78,1.08,2.52l1.66,4.33,1.04,2.38,1.62,3.57,1.13,2.57,1.51,3.73c.84,2.09,1.76,3.95,2.62,6.15l2.46,1.06c-3.8.4-1.82-.61-4.26,1.64-.03.04.21.5.32.43s.45-.28.58-.31l1.17-.31.94,1c.11.12.32.51.37.65.18.47-3.72.13-2.62.85l.49.32-1.12,2.74-.47-.55c-.1-.12-.32.14-.63.44l1.62.47c.11.03.16.6.04.61l-.52.05,1.7,1.88c.14.15.68.49.58.65l-.55.94,1.47.46-1.02,1.44,1.46.81.63-.52c.15-.13.65.24.89.25l7.4.36,1.72.19,4.99.1,2.57.03,2.03.02,5.11.19h4.02s2.45,0,2.45,0l2.51.1c2.49.1,2.88-.19,4.91.02.78.08,1.47.16,2.25.18l6.01.14c2.17.05,4.17.27,6.47-.03l.31-1.1.19.92c.04.18.24.13.65.22.94.09,1.8.13,2.73.14l9.22.06,2.97.16,5.1.06,3.16.02,5.73.09,2.83.02,4.94.18,7.89.05,5.02.16h2.28c.57,0,11.2.21,11.02.19l3.94.43c1.52.17,3.11.05,4.57-.39l-.95-2.48c-.31-.8-1.58-1.36-.61-2.45.26.09.96.38,1.3.54.38.17.15,1.43.4,1.82.75,1.15,1.93,2.84,1.87,4.25l-.55-.3c-.28-.15-.5,1.1-.86,1.07l-1.15-.08-3.73-.25-4.38-.29c-1.6-.11-3-.1-4.79-.05.03,1.31.24,2.68.92,3.52l2.52,3.11c.78.96,1.04,2.62,1.7,3.75s1.52,2.75,1.93,4.19l1.29.41c-.46,2.02,1.02,3.35,1.81,4.8.36.66.36,1.52,1.2,1.88.55.23.49,1.63.81,2.05l1.22,1.63c.67.89,1.54,1.65.66,2.89l-2.04-3.77c-.51-.94-.88-1.73-2.21-1.79.09-.48.18-.94.1-1.2-.28-.89-3.07.66-3.64.34l-.95-2.07c-.19-.41.24-1.5-.04-1.84-.39-.47-.96-.9-1.46-1.09l-.25,3.17c.23.42.88,1.25.67,1.62l-.54.93c-.11.18.56.63.63.91l2.18,8.75.77,1.87.95,4.07.73,3.14c.05.23.47.6.76.78-.87,1.3.26,2.39.58,3.55l.88,3.2c.3,1.08.72,2.23.96,3.24l1.06,4.55c.24,1.03.47,2.36.82,3.24l1.25,3.12c.27.66.48,1.47.58,2.25.04.29.42.96.5,1.25l1.16,4.51.62,1.63c.82,2.18.96,5,1.79,7.23l.92,2.48c.11.29.44,3.15.99,4.74l1.38,4.01h-1.38s-.78,0-.78,0l.26-.5-.28-1.4s-.09-.04-.55-.25c-.06.14.06-.13.21-.47.55-2.32-2.01-1.54-1.05-3.71.09-.2-.24-.63-.31-.92l-1.26-5.69-.68-2.26c-.35-1.18-.97-3.05-1.76-3.76-.12-.11.36-.45.46-.6-2.29-1.41.34.22-1.13-3.9l-.93-2.6-1.2-4.9c-1.01-4.13-.2-.2-.2-3.89,0-.18-.59-.15-.96-.19-.51-1.06-.83-2.24-1-3.52-.14-1.07-.74-2.13-1.03-3.19-.15-.53-.14-1.38-.4-1.91-.72-1.45-1.19-3.72-1-5.15l.09-.71c.03-.26-1.25-.07-1.13-.28l.24-.39c.8-1.31.08-2.17-.77-3.04-1.32-1.36-1.56-8.15-2.5-7.23-.02-.98-.2-2.24-.54-3.32l-.47-1.49c-.42-1.33-.32-3.21-.84-4.57-1-2.64-1.74-5.12-2.6-7.73l-2.13-6.43c-.37-1.11-.7-2.09-1.14-3.2-.49-1.25-.71-3.12-1.78-3.72l-6.73-.33-2.03-.03-9.74-.12h-2.03s-5.81.12-5.81.12c-.51.01-1.42-.14-1.87-.22-.18-.03-.63.34-.81.3l-.79-.2-3.58.03c-1.32.01-2.53-.13-3.84-.15l-11.91-.23-8.91-.31-2.44-.07-9.05-.03.9,1.01c-.06.02-.64.64-.48.74l.69.43-.1,1.3c-.02.28.61.33.74.42.49,2.72,3.81,8.29,4.23,9.64l.69,2.25c.45,1.46,1.53,2.63,1.9,4.16l.73,2.95.68,1.74c.25.63.45,2.04.63,2.77,1.24,1.3,1,3.17,1.67,4.39.7,1.3,1.32,2.59,1.75,4.06l.72,2.45,1.58,4c.44,1.11.53,2.12,1.29,3.13.64.85.62,4.12,1.9,7.25l1.09,2.64ZM230.9,110.85c.16-.18.25-.87.26-1.06.03-.64-2.29.23-2.94,1.15.72.84,2.24.38,2.68-.1ZM158.11,139.43c2.36.29,4.78-.61,6-2.41-.4-.54.21-.29.28-.14l.31.67c.11.24.51-.73.32-.92l-.83-.8c-.07-.75.1-.51.68.05.63-.8-.61-1.98-1.33-1.68l-3.08,1.3,1.99-.23-.05.98-3.78,1.94,1.25.34c.17.05-.15.76-.2.67l-1.56.22ZM194.98,164.13l-1.03-3.39c-.36-1.18-1.07-2.1-1.47-3.13l-1.84-4.71-.64-1.5-1.54-3.62c-.02-.19.1-.67-.05-.78l-.74-.53c-.28-3.46-.61-1.27-1.57-4.39l-1.33.49c.6.66.97,1.01,1.19,1.61.8,2.21,1.71,4.3,2.66,6.4.14.32.3.99.45,1.38.5,1.33,1.15,2.47,1.65,3.75l1.41,3.65.89,1.95c.73,1.61,1.4,3,1.81,4.56.6-.35.85-.45.94-.88.06-.3-.71-.56-.79-.84ZM165.64,162.62c.35-3.77,1.46-.39-.73-4.36l-.79,4.02c.42-.26.7-.62.84-.46l.67.8ZM169.22,172.55l-1.19-2.16.63-.77c-.45-.71-.7-1.29-.96-2.03l-.27-.76c-.05-.13.59-.64.51-.75l-2.12-3.25-.5.4c.69,1.55.93,3.39.68,5l1.03.44c.18.07-.36.7-.3.67.3.67.5,1.26.74,2.02l.56,1.78c.19.2,1.35-.3,1.17-.58ZM197.86,170.23c-.3-.64-.63-1.26-.96-1.86-.42-.75.04-2.22-1.7-2.22.56,1.39,1.12,2.59,1.73,3.87l1.17,2.47c.47-.64.21-1.52-.23-2.26ZM170.05,176.24c-.58-.12-1.05-.19-1.01-.34.03-.13.08-.4.19-.43l.85-.21c-.29-.38-.83-.73-1.64-1.05-.24.8,1.4,5.43,2.43,5.3l-.83-3.28ZM178.67,185.53l-1.45-2.02c-.42.31-.76.64-.7.91l.25,1.08c-.67.17-1.13-.98-.76-1.47.27-.35.51-.63,1.14-1.36l-2.28-1.23c-.37-.2-.82-.94-1.34-1.53l1.35.1-1.23-1.02c-.54-1.02-1.05-1.83-1.72-2.62.63,1.77,1.11,3.16,1.75,4.55l1.47,3.17c.42.91,1.45,6.06,3.19,5.16.25-.13.32-.74.25-1.01l-.34-1.24c.54.35.71.55.86.42.11-.1.45-.55.3-.6l-.87-.29c.69-.38,1.3-1.15.56-2.07l-.43,1.07ZM193.14,191.02l-4.75.06,2.33,1.42c.75-1.24,1.37-1.13,2.42-1.48ZM175.48,215.38c1.17-.11,1.44-.12,1.76.14.94-1.01,1.99-2.76,3.84-1.75l-.17-1.65c-.2-.23-.8-.68-.86-.99-.09-.49.21-1.39,1.31-1.85.25-.1-.42-.98-.62-.8-.16.14-.54.58-.62.8l-1.01,2.99-1.75,1.61c-.18.17-.25.97-.48.94l-.88-.09c-2.52-.26-.51,1.3-2.56,3.45l.93.41c.02-1.69,1.8-1.85,1.5-2.44l-.39-.78ZM174.42,221.22l1.55-.17-.3-1.85c1.92-1.08,3.95-1.82,5.19-3.73l-4.8,2.91c-.17.1-.44.38-.59.35l-.66-.12c.49,1.22-.4,2.16-1.43,2.92,0,.03.52.41.62.27l.42-.59ZM167.69,226.74c1.97.18,2.66-1.1,3.36-2.27l-3.36,2.27Z"/>
  <path d="M149.95,189.05l2.47.05,5.5.15,3.24.06c1.66.03,3.21,0,4.87.13,3.55.28,5.51-.7,6.52.17,1.25,1.08-.06,2.24,1.19,3.73.17.2.43,1.12.19,1.18l-1.1.31-.07,1.79c-1.43-.64-1.59,1.02-2.92.67-.38-.1-.73-.71-1.08-1.21-.45-.64-1.63-.07-2.17.62l-.35-1.77c-.05-.24.33-.91.57-.92s.69.01,1.16.04c.33-.41.94-1.59,1.1-2.2-.32-1.2-1.78-.19-2.41-.34-3.02-.74-.87.04-5.37-.51-.24-.03-.83-.12-.91.04l-.38.7c-.27-.25-1.07-.69-1.52-.73l-2.7-.19,4.11-.23c-.23-.26-.78-.51-1.08-.42-1.67.47-3.11.08-4.71.03l-8.69-.26-13.32-.25c-3.8-.07-7.49.03-11.33-.14l-5.15-.23-11.65-.23-16.12-.09c-.61.33-1.15.53-1.81.69-.56.13-1.36.86-1.93,1.04l-1.56.5-3.8,1.75-1.56.7c-.93.41-1.82,1.01-2.74,1.49l-2.22,1.17c-1.17.44-2.41,1.04-3.26,2.01l-2.23.52c-1.26.3-2.1.81-2.44,2.01l-2.08,1.12c-1.38-.19-2.49.45-3.76,1.07l-2.12,1.03-9.92,4.81c-1.1.54-1.97.61-3.09.06l-3.45-1.71c-3.83-1.9-3.68-6.42-1.87-8.93l49.37-23.76,25.98-12.55,43.7-20.94c.29,1.46.57,2.7.91,3.97l.68,2.61,1.17,4.96.79,2.63c.31,1.05.16,2.02.11,3.09-.03.53.28,1.2.05,2.06l1.14,1.01c.22.91.41,2.08.7,2.99l1.29,4.02-.84.24c1.47.7,1.96,2.8,2.4,4.44l.49,1.8-5.44-.07c-2.88-.04-3.34-.16-6.51-.18l-14.53-.1-2.82-.13-2.17-.04-19.35-.02c-3.76,0-1.66.49-4.44,1.71-1.02.45-2.08,1.1-3.03,1.61l-.42-.39c-.09-.09-.23.05-.54.28.05.05.45.23.41.36l-.21.64-.65-.58c-.16-.14-.51.57-.71.67-.6.29-1.76.87-2.43,1.16-.85.36-1.51.52-2.18,1.18l-.36-.16c-1.4,1.42-.45-.27-2.99,1.59-.69.51-1.57,1.37-2.39,1.32-.43-.08-1.84.52-2.15,1.47-.03.08-.38,0-.41-.08l-.23-.59c-.49.19-1.08.81-1.38,1.33-1.17.19-2.53.43-4.04.99,1.8.64,3.57.72,5.49.8l2.3.09,9.13.39,3.37.08h2.63s2.96.09,2.96.09l4.15.16,2.42.09,2.76.04,6.77.13,3.54.02,2.42.02,3.27-.03,2.41.15,9.34.17ZM158.6,156.33c1.03-.79,1.42-1.7.9-2.67l-1.15.86c-.37.28-.06,1.42.26,1.81ZM171.74,191.02c.22,0,.7.27.78.14l.26-.43-4.25-.11c-.79-.02-1.66-.65-2.1.32l5.31.08ZM56.83,195.71c1.47.4,4.34,1.1,4.58-.85.04-.34-.63-1.11-.94-.98-.47.21-1.19.7-1.57.96-.77-.01-1.47-.1-2.07.87Z"/>
  <path d="M358.47,250.32c-.43.16-1.7.32-2.2.57l-2.16,1.04c-.6.29-1.24.56-1.69.53.32-.37.93-.93.83-1.17-.31-.71-1.97-1.55-2.73-1.39-.63.14-.45.94-.64.37l-.19-.6-1.64.82c-.28.14-.57.67-.6,1.04-.08.86,1.31-.22,2.12.85.18.24-.39.7-.87.83-.24.06-.26.76-.06.91s.75.39,1.11.53c.43,1.33,1.05,2.81,2.39,3.55l-.16,2.47c.61.47,1.59,4.41,1.61,4.03-.02.33-.41.81-.64,1.21l-.27.47c-.07.12-.53.22-.52.08s.13-.61.04-.73l-1.64-2.23c.68-1.29.05-1.73-.49-2.67s-1.03-2.11-1.58-3.23c-.37-.77-.94-1.51-1.01-2.5l-.05-.65c-.01-.13-.26-.03-.36.05s.02.35.11.84-1.37.35-1.72-.08c-1.34-1.61,2.05-1.97.92-4.28-.83-1.71,1.15-3.04-.4-4.37-.8-.69-1.37-1.33-1.94-2.16l-1.1-.4-.19-2.13c-.07-.84-.18-1.32-.55-2.13l1.48.62c.33-.04,1.1-.8,1.54-1.08l1.4-.89.08,1.39,2.45.06c.87.6,1.57.9,2.49.69l2.61-.59c.19-.48.52-1.28.75-1.78l.71-1.52.43.44c.34.35-.92.53-.3,1.2.76.83.9-2.48-.71-3.62-.03-.72.51-1.74,1.3-2.51,1.5,2.03-.37,1.62.03,2.91.65-.06,1.11-.1,1.31.11.83.87-1.18,1.4-1.03,2.89l1.58-.67c.2-.09.61-.55.74-.4,1.05,1.26.39,1.64.89,1.41.18-.08.68-.31.54-.24-1.31-1.43.71-1.61-1.04-2.21l1.27-1.83c.08-.11.68.03.68.17v.7s.99-.73.99-.73l-.56,1.52c.46-.26.72-.51.96-.45s.53.63.75,1.04c.01.08-.3.39-.41.31l-.79-.55s-.59.36-.45.42l.89.36c.22.09.59.23.58.37s-.12.46-.26.46-.78.02-.78.16c0,2.06,3.35,2.23,5.36,1.82l2.41,1.09c-.01-.26-.09-.86-.16-1.12s-.67-.21-1.12-.34c-.51-.15-.39-1.68.06-1.8.31.18.73.59.92.5l1.21-.58c-.27.86-.58,1.67-.39,2.43.71-.88,1.01-1.32,1.87-1.67-.82-.71-1.35-1.96-1.24-3.25.69.67,1.05,1.3,1.36,2.2.66,1.95.83.02,1.55,3.61-.88-.89-1.42-1.39-2.38-.81-.79.48-1.73.9-2.5,1.14l-.42-.5c-.19-.22-1.11,1.69-.77,2.51l-1.43.43c-.34.1-.4.91-.54,1.55.18.1-.46-.03-.42-.16l.29-1.01c-2.48-.6-3.06,2.11-3.99,4.06-.86,1.13-2.03,2.66-.65,4.09-.49.1-1.03.07-1.13-.2-.12-.32-.17-.8-.17-1.21v-1.13c0-.25.52-.6.72-.88.06-.09-.37-.35-.45-.28l-.56.49c-.49.43-.86.79-1.29,1.37ZM363.91,242.04c.47.08.98.26,1.05.09l.32-.76-1.69-.03c-.37,0-.77.91-1.04,1.17-.54.54-1.99-.13-2.18,1.35,1.23-.23,2.45-.93,3.54-1.83Z"/>
  <path d="M339.35,233.23l-.22,3.08c-.15-.54-3.37-1.88-4.24-1.81.23-.12,1.02-1.1.9-1.58-.98-4.04-1.61-6.86-3.92-10.33.55-.32,1.14-.64,1.39-.93.69-.8-.78-2.37-1.3-3.3l-2.17-3.87-2.14-3.69c-.35-.61-1-1.16-1.57-1.52l.14-1.17c.03-.27-1-.33-1.18-.47.06-1.09-1.5-3.02-1.02-2.7l-.48-.31-.03-.86c-.86-1.22-1.53-2.47-2.29-3.77l-2.86-4.87-2.32-3.9c-.54.34-.6.38-.78.48s-.75-.59-.57-.67l1.12-.48c.06-.11-.59-.84-.91-1.06.02-.09.08-.38.08-.38,0,0-.21-.26-.26-.33-.08-.1-.17.1-.48.47,0,.02.06-.59.07-.79-.78-1.74-1.77-3.93-3.1-5.39-.67-.73-.71-1.36-1.03-1.93l-3.52-6.19-1.32-1.93c-.72-1.06-1.16-2.38-1.84-3.5l-5.33-8.79-3.28-5.6-1.27-2.21-9.34-15.93-2.97-5.11-5.03-8.44-2.67-4.53-1.1-1.67c-1.51-2.29-2.57-4.62-4.21-6.76s-2.5-4.42-3.82-6.61l-3.77-6.24c-1.64-2.72-2.7-4.02-5.74-5.2,1.71.03,3.36.68,4.84,1.43.17.4.31.74.17.39l.63-1.86,1.26,2.58,1.51,3.11,1.57,2.72,3.06,5.57,3.09,5.6,7.16,12.61,3.05,5.27c.68,1.18,1.25,2.39,2.38,3.12.21.63.42,1.87.76,2.42l2.85,4.71.64,1.02,4.17,7.3,2.56,4.32,2.76,4.73c.77,1.31,1.63,2.61,2.31,3.94s1.27,2.59,2.42,3.71c.67.65.94,1.58,1.38,2.38l2.14,3.85,2.57,4.32,3.06,5.28,2.59,4.36,2.7,4.49c.05.09.63.24.65.14-.33,1.63,4.25,7.33,5.25,9.52.29.63.54,1.11.95,1.75l1.48,2.31,1.28,1.9c-.5,1.4,1.15,1.91,1.56,2.65l2.4,4.31,3.07,5.47.55,1.49,2.61,4.84c.61,1.13.74,2.83,1.89,3.66l.98.71c.28.2-.09,1.07-.19,1.54-.19.9.34,2.26.28,3.18Z"/>
  <path d="M229.09,164.81c2.09,1.25-.8,4.28,1.88,4.41.27.54.3,1.85.26,2.65l1.3,1.37-1.28,1.3-3.19.07-.67-1.82c-.91-2.49-.31-2.02-1.5-5.93l-.88-2.88-.61-1.99c-.27-.9-.65-1.9-1.19-2.77l-1.07-1.75c-.83-1.35-.81-3.17-1.43-4.65l-.82-1.97-1.22-3.09c-.2-.5-.47-1.22-.61-1.7l-.66-2.28c-.38-.56-.66-1.14-.87-1.8l-1.5-4.87c-.15-.48-.71-1.25-.81-1.95s-.49-1.36-.81-1.91c.04-.39.23-1.2-.02-1.44-.36-.36-.7-.75-.75-1.03-.16-.94,1.56-.35,2.31-1.51l.32,1.54c.14.68,2.73,1.06,3.15.32l1.03-1.79c.09.29.01.9-.11,1.44l1.18,2.76-.36,2.57,1.13-.3c.26-.07.39.69.55.92l.7.99c.2.28-.11,1.31-.45,1.35-.49.06-1.03.29-1.17.93l3.02.85c-.76.64-1.37,1.63-1.11,2.51.23.8,1.16,1.35,1.95,1.5-.82.17-1.2.48-1.39,1.21-.25.94.42,1.13,1.67,1.24l-.84,1.66c-.11.21-.7.63-.6.82l.57,1-.42.53c-.11.13-.26.71-.1.75l1.16.24-.85.45.04,1.97,2.79.89-1.44.51.98,3.68c.07.25.72.63.85.46l.65-.84,2.25-.04.09,2.25-.94-.22c-.22-.05-.03.81.01,1.03l.15.78c.06.33-1.28.24-1.2.93.03.22.42.4.89.68Z"/>
  <path d="M216.7,282.69l.03-.79c0-.2-.49-.43-.66-.61-.36-.36-.29-1.78.18-1.92.66-.19,1.34-.5,1.78-.82.36-.03,1.18.06,1.48-.17,1.3-1.02-.08-2.67,1.73-3.41l.53-2.21,1.36-.69c.67.84,1.24,2.05,1.64,3.26.2.08.86.03,1.39-.05.46.92,1.08,2.19,1.55,3.27l2.63,6.1-14.22.03c.37-.8.56-1.36.58-1.97Z"/>
  <path d="M281.32,267.73c1.92,3.11,2.2,4.56,4.16,8.17l3.28,6.04c.35.64.63,1.27.92,1.96l.21.51c.06.15.11.21.02.21-1.74.05-2.12-1.53-3.44-4.5-1.04-2.34-2.07-4.68-2.97-7.09-.1-.27-.73-.5-1-.4-.31.11-.49.81-.72,1.48l-1.23-2.85c-.28-.65-1.15-1.52-1.52-2.26l-2.59-5.17-2.66-5.11c-.43-.83-.84-1.63-1.32-2.4l-1.35-2.16.15,2.37c-1.16-.46-1.57-1.46-1.62-2.64l1.54.23c.11-1.45-1.72-3.94-2.28-5.12l-2.7-5.69c-.77-1.62-1.39-3.48-1.83-5.18.65-.98-.18-2.8.55-2.62.21.05.75.19.56.14l.26,2.15c.06.47-.73,1.55-.27,1.84,5.66,3.55.39,3.01,3.47,5.82l.61,1.8c.07.21.28.63.39.8s.62-.07,1.04-.19l.26,1.81,1.19.42-1.04.86c-.24.2.49,1.1.59.9.61-.68.83-.66.89-.07-.58,1.61-.11,2.99,1.37,3.67l-.45.42c-.15.14.5,1.78,1.91,2.22l-.87.24,2.01,1.67c-.76,1-.4,1.93.36,2.79l.51,1.45.73-.25c.12-.04.23.58.11.62l-.79.27,2.25,1.3c-.15.45-.38,1.24-.17,1.49s.89.16,1.51.07Z"/>
  <path d="M300.8,281.81l.09,1.28c.03.38-.1,1.06-.31,1.56l-9.49-.02-1.45-3.39c-.24-.56-.45-1.35-.46-1.71,1.07.4,1.89.72,2.31.2.68-.82.71-1.52-.02-2.29-.21-.22-.38-1.09-.1-1.11l1.09-.07c.26-.02.19-.85.23-1,.52.39,1.08.49,2.19.51l.09,2.51c.01.35,1.16.83,1.29.55l.55-1.78,1.85,1.28.02,3.41,2.13.05Z"/>
  <path d="M398.28,280.98l-1.6-2.76c-.81-1.4-1.53-2.64-2.08-4.22-.48-.62-1.21-1.41-1.55-2.04l-3.48-6.39-1.29-2.04c-.84-1.32-1.43-2.61-2.21-3.88l-1.22-2-4.85-8.4-1.99-3.41c-.41-.7-.69-1.6-1.35-1.76.18.57.39,1.26.39,1.5-.73-.15-1.21-.54-1.18-.97.02-.3.28-.77.51-1.07.51-.87-.82-2.05-1.7-2.39.33-2.04-1.6-2.62-1.14-5.59.6,1.29,1.1,2.33,1.78,3.46l1.19,1.98,3.64,6.4c.45.79.67,1.45,1.37,2.12l1.05,2.14c1.72,3.48.27.08,2.19,3.52l3.39,6.06,5.26,9.12,2.09,3.95c.96,1.81,2.24,3.35,3.14,5.18.48.97.97,1.85,1.52,2.75l1.39,2.29-1.06.17c-.28.05-.44-.64-.63-.97l-1.59-2.74Z"/>
  <path d="M286.75,176.32l2.47.43c-1.17.17-2.04.24-3.04.23l-15.93-.16-9.71-.06-2.13.02c-.83,0-1.82-.3-2.66-.31l-16.63-.2,1.77-.69c.8-.31,1.31-.03,2.21,0l9.73.31,17.38.25,5.73.31,4.14.13c.4.01,6.56.26,6.23-.69,0-.01.29.28.44.43Z"/>
  <path d="M210.12,68.57c-.42.3.74,1.26.16,1.15-.26-.05-.56-.15-.62-.29l-.66-1.58-.14-1.01c-.04-.25-.63-.49-.98-.69l1.09-1.42-1.53-.49-1.76-3.74c-.27-.17-1.14-.51-.96-.76.24-.34.6-1.07.66-1.41s-.64-.75-.98-.91c.25-.36.59-.75.58-1.02-.06-1.39-1.24-.59-1.52-2.05-.06-.34.6-1.24.9-1.01l1.75,1.37c-.06.3-.38,1.04-.21,1.26l.69.89c-1.41,1.67.5,2.75,1.12,4.75.12.38-.17,1.39.09,1.69.35.41,1.19.19,1.96.14.79.14.83,2.21.75,2.98l1.26.96-1.65,1.18Z"/>
  <path d="M323.45,218.29c-1.81.53-2.32-4.81-2.55-6.21l-2.04,1.38-.56-1.67-.87-2.61c-.32-.94-.91-2.01-1.37-2.92.81-4.14-2.7-4.32-2.69-8.12l2.73,4.79,2.69,4.72.98,1.6c3.71,6.08.33,4,3.15,6.58l.52,2.46Z"/>
  <path d="M153.73,112.56c-.59-.93-1.08-1.9-1.89-2.6l.59-.79c.14-.18-.25-.83-.46-.74l-1.12.52c-.43-.07-.81-1.13-.84-1.88l-1.37.27.71-1.28c.17-.31,1.02.11,1.43.42l1.81-.61,4.27,9.74-.19,2.38-.81-.89c.07-1.94-1.21-3.09-2.13-4.55Z"/>
  <path d="M283.25,149.47c-.64-.83-1.19-2.06-1.56-3.32l-.29-.51c-.08-.15.33-.39.5-.41.53-.06.19.25.6,1.94.09.35,1.28.65,1.37.32l.4-1.72c.08-.35-.11-1.19-.38-1.41-.33-.26-.98-.14-1.81.03-.04-.03-.08-.83.03-1.09s.64-.53.96-.63l.76-.23c.06-.02,4.11,6.51,3.71,7.86l-1.19.59c-.23.11-.14.37-.3.94l-.57-1.21c-.29-.63-.43-.86-.46-1.82l-1.76.69Z"/>
  <path d="M267.01,118.4c-1.85-.62-1.63-2.81-.88-4.24-.21-.35-.98-1.05-1.24-1.13l-1.34,1.26c.63.93,1.18,2.02,1.44,3.1-1.64-.85-1.61-2.26-1.75-3.77-.08-.82,1-2.84,2.04-2.12,1.72,1.2,3.84,6.25,3.82,7.18,0,.3-1.92,1.6-2.33.93l.88-.41c.21-.1-.31-.69-.63-.8Z"/>
  <path d="M180.14,203.58l.68.79c.13.15-.32.74-.52.78l-2.18.51-.64-1.6.29-.61c-1.08-1.86-1.47-3.82-1.86-5.61l-.76-3.48,1.88,2.74c-.27,1.27.05,1.8,1.15,2.39l1.25,2.44c.43.84-1.65,1.43-1.09,1.69.2.09.41.22.48.11l.5-.73c.13-.19.62.35.83.58Z"/>
  <path d="M324.84,219.96l.43-.69c.07-.12-.17-.41-.27-.6l-1.06-1.89.6-3.19-1.82-1.38-.41.92-.05-1.25c-.01-.35.75-.79,1.12-.85l1.79,2.3c.58.74,3.11,5.49,2.51,6.35l-.7-.44c-.31-.2-.75,1.2-2.13.72Z"/>
  <path d="M201.35,49.93c-.11.05.67-.32.96-.45.15-.08.12-.62-.03-.71s-.74-.18-.81-.34c-1.18-3.03.02-1.66-1.11-3.39-.47-.71-.98-1.18-1.72-1.7l.63-.84c.44-.59-1.86-1.34-1.4-2.51l.74-1.88c1.29,3.19-1-.01,1.26,3.17.64.9.42,2.78,1.44,3.63l1.24,1.03c.29.24-.19,1.28-.1,1.65l.76,2.7c.14.51,1.41.94.91,2.1l-1.23.06c-.47-1.02-.71-1.39-1.53-2.5Z"/>
  <path d="M289.03,89.77c-.29-.21-.56-.45-.85-.71-.67.42-1.65.46-2.28-.17-.24-.24-.54-.45-.45-.57l.57-.72-1.06-.36c.17-.86.12-1.66-.21-2.33l-.08,2.02c-1.72-4.12-1.01-1.59-2.9-5.25-.3-.57-.77-1.23-1.04-1.49l.45-1.05c-1.05-.4-2.05-1.12-2.16-2.12l1.22-.04c.31,0,.35-1.2.1-1.12l-1.34.68-1.15-1.17c-.1-.72-.31-1-.82-1.61-.63-.76-1.03-2.09-1.65-2.92l-.88-1.19-.53-.7c-.12-.15.27-.56.43-.75l.53-.61c.15-.17.56.52.66.74-.21.62-.1.7.29.33.07-.26.11-.77.24-.75l.55.08c.14.02-.11.69-.04.81l2,3.35c-.37.08-.82.17-.84.04l-.16-1.04c-1.33.84,1.08,3.27,2.52,3.92.41.18.76,1.07,1.05,1.49.69.99,1.41,1.78,1.58,3.01l-.72-.49c-.13-.09-.71-.06-.68-.02.3.78.17,1.99.93,1.52l.68,1.4c.4.14.63.16.65.34.02.2-.14.88-.05,1.04l.82,1.52c1.74-1.01-.66-1.75-.32-3.27,1.15,1.72,1.92,3.19,2.87,4.77l2.05,3.41Z"/>
  <path d="M343.92,275.78c-.34-1.27-3.04-1.78-1.26-4.84.25.42.46,1.04.78,1.06.73.04,3.02-.67,3.03-2.26l.65.24c.63.23-1.57,1.07.03,3.35-1.07.69-2.06,1.32-3.24,2.45Z"/>
  <path d="M368.52,227.59c.82,2.38-1.76-1.96-1.6-1.71l-2.71-4.38-2.48-4.48-1.61-2.75c-.42-.72-.73-1.47-.99-2.42,1.36.49,1.28,1.59,1.82,2.47l2.4,3.95,3.01,5.05.74,1.3c.5.87,1.13,1.81,1.42,2.97Z"/>
  <path d="M352.23,269.13h-4.6c-.29-1.08-.79-1.62-1.72-2.37,1.25-.31,1.77-1.19,2.05-2.4.73.35,1.06,1.24,1.04,2.12,1.42-.18,2.35.99,3.23,2.64Z"/>
  <path d="M246.88,197.94c1.03,3.08,3.58,5.62,2.84,7.67-2.16-2.29-2.58-4.29-4.4-7.61-.5-.91-1.27-1.63-.34-3.01.9.98,1.55,1.88,1.9,2.95Z"/>
  <path d="M139.29,119.14l1.72,2.17c-.48.15-1.69.22-2.12-.17-.4-.36-.58-1.31-.72-2.01-.11-.58-1.05-1.34-1.39-1.86l-1.18-1.77c-.52-.78-.86-1.62-.7-2.38.36.28.77.73.96.62l1.03-.59c.37.54,1.04,1.77,1.01,2.41-.15,3.06.13,1.99,1.38,3.57Z"/>
  <path d="M339.09,176.96c-.34-.71-1.15-1.49-1.5-2.13l-1.63-3.04c-.64-1.2-1.42-2.27-1.99-3.51s-1.91-2.9-1.91-2.9l-1.66-3.18-2.74-4.83c-.44-.78-1.6-1.21-1.32-2.58.61.71,1.18,1.46,1.65,2.26l2.97,5.05,8.58,14.7,1.41,2.64,1.89,3.32,1.95,3.2c-1.46-.08-1.56-1.57-2.13-2.47-1.36-2.15-2.48-4.22-3.58-6.51Z"/>
  <path d="M175.86,205.97l-.32-3.51c-.06-.63-1.16-.96-.73-2.11.18-.48-.46-1.46-.59-2-.1-.39-.17-1.17-.35-1.49s-.63-.86-.48-1.08l.63-.88c.35.99.66,1.58.81,2.3l.52,2.4c.34,1.55,1.05,3.27,1.06,4.82l.02,1.97-.51.24c-.12.06-.25.1-.23.02.02-.09.17-.6.17-.69Z"/>
  <path d="M352.92,200.61c-.67-.34-1.16-1.49-1.69-2.17-.45-.57-.67-.89-1-1.61-.62-1.37-1.43-2.67-2.18-3.98-.49-.86-1.25-1.58-1.05-2.82l1.13,1.77c.8,1.01,1.3,1.97,1.8,3.12.81,1.86,2.49,3.16,2.99,5.69Z"/>
  <path d="M346.62,284.74c-1.54-.89-1.7-2.23-2.39-3.44l-2.41-4.26c-.89-1.58-1.77-2.95-2.5-4.67-.31-.74-1.02-1.54-1.51-2.49,1.63-.38,1.44,1.07,1.83,1.97.78,1.81,1.9,3.47,2.85,5.21l2.85,5.21c.45.82.89,1.63,1.29,2.47Z"/>
  <path d="M292.39,177.05c.15-.09,1.08-.6,1.48-.72h5.81s.32-1.1.32-1.1l1.08,2.1-4.73-.2-3.95-.08Z"/>
  <path d="M326.32,154.35c-.77-.24-.88-.42-1.11-.82l-3.25-5.72-2.01-3.41-1.1-2.02-1.42-2.45-1.87-3.5c-.55-1.03-1.6-1.55-1.27-3.01.27.41.54.82.76,1.23l1.32,2.4,1.91,3.23,2.85,5,3.13,5.39c.75,1.29,1.46,2.37,2.04,3.68Z"/>
  <path d="M122.17,59.76c-1.02.28-2.21,1.72-3.44.16l1.16-1.08c.77.31,1.46.12,2.05-.28l.82.45c.18.1.51-.08,1.11-.26l-.26,1.09c-.06.26-1.15-.17-1.43-.09Z"/>
  <path d="M141.77,85.34c.15-1.98-.18-3.63-1.55-4.87l.79-1.3,1.79,4.2c.31.73.32,1.74-1.03,1.97Z"/>
  <path d="M219.52,95.75c-.57.23-1.26-.46-1.15-.78.16-.43.38-1.14.46-1.51.07-.33-.7-.75-.9-1.07-.07-1.01-.11-2.41-.08-3.43,1.67,1.13,1.21,3.49,1.28,5.14.02.44.76,1.49.39,1.64Z"/>
  <path d="M209.05,114.03c.17-.63.61-.98,1.15-1.17,3.12-1.12,5.66-2.97,8.92-3.77l-10.07,4.94Z"/>
  <path d="M352.69,271.87l-1-1.47,1.53-.56.06-1.79,1.39,1.36c.23.03-.54.11-.51.27l.24,1.18-1.71,1Z"/>
  <path d="M290.32,93.1l-.81.4c-.18.09.13.67.18.92l-.9-.29c-.18-.06-.02-.49.03-.82l-2.23-3.05c.09-.2.69-.4.97-.3.25.09,1.75,2.17,1.44,2.99l.5-.33c.14-.09.36.12.82.47Z"/>
  <path d="M295.03,99.83c.48,1.12,1.28,2,1.71,3.26l-1.98-2.08-.23,1.17c-.69-.32-2.78-3.31-3.26-4.56,1.64-.21,1.79,1.39,2.32,2.19.1.15.49.46.56.62l.34.77c.23-.89-.15-1.42-.42-2.76.39.18.71.78.97,1.39Z"/>
  <path d="M358.22,209.15c-.36,1.3-4.13-5.27-3.83-5.69.67-.17.63.36.86.75l2.97,4.95Z"/>
  <path d="M366.13,233.69l.35.58c.08.14-.32.53-.46.44-.74-.45-1.99-3.11-1.74-4.54,1.69.56,1.3,2.24,1.85,3.52Z"/>
  <path d="M213.12,76.12c.13.53.2,1.3.19,1.59l-1.91-2.95c.06-.28.27-.9.08-1.02l-1.07-.61c.55-.05,1.27,0,2.03.03l-.31,1c-.07.21.55.45.66.57l.33,1.38Z"/>
  <path d="M367.39,235.93c-.16-.02-.57-.49-.67-.61-.34-.43,1.22-.27,1.84-2.24l.59,3.03-1.76-.17Z"/>
  <path d="M185.35,5.06c-.91,1.33,2.15,3.09-.94,2.9l-.51-2.81,1.45-.08Z"/>
  <path d="M371.83,232.83c-.54-.02-1.32-.41-1.54-.8l-1.41-2.45c-.26-.12.79-.47.93-.22l2.02,3.46Z"/>
  <path d="M236.26,175.91l-11.2.08c.79-.45,1.75-.52,2.63-.28l8.57.2Z"/>
  <path d="M321.49,238.8c.24.43-.39.95-.42.85-.7-2.13-2.62-5.16-3.89-7.45l-1.5-2.71c.24,0,.66-.02.74.14l.37.71,1.59,3,1.36,2.38,1.76,3.08Z"/>
  <path d="M324.7,244.84c-.24.57-.42.72-.71.5l-1.75-4.25c1.2.85,1.76,2.21,2.45,3.75Z"/>
  <path d="M313.35,132.01c-.66-.3-.92-.96-1.22-1.63l-2.02-3.45-1.52-2.47-.71-.66c-.17-.15.05-.73.18-.99.75.99,1.24,1.75,1.78,2.74l1.41,2.58c.8,1.2,1.53,2.26,2.11,3.89Z"/>
  <path d="M303.14,115.37c-.28.25-1.64-.29-1.51-.74l.65-2.4.32.53.55,2.6Z"/>
  <path d="M336.58,265.62c.86.99,1.12,2.68.76,3.81-.74-3.2-1.06-2.14-1.72-3.89-.07-.17.83-.08.97.08Z"/>
  <path d="M221.81,271.05c-1.28-.32-1.21-1.73-.61-2.97.92.5,1.07,2.14.61,2.97Z"/>
  <path d="M290.97,95.9c.24.11.79.13.9.36l.41.94c-1.54.08-2.58-1.06-2.44-2.62l1.13,1.31Z"/>
  <path d="M192.45,25.77c-1.11-.89.61-2.38-1.57-3.07l.34-.84c.06-.15.76-.22.81-.06l.48,1.61-.06,2.36Z"/>
  <path d="M314.44,226.94c-.72-.65-.95-1.3-1.38-2.12l-.99-1.89c1.28-.46.96.66,1.33,1.3.5.86.88,1.61,1.04,2.7Z"/>
  <path d="M305.72,180.04c.13.2.58.67.43.75-.19.1-.73.39-.73.39-.43-1.82-2.25-3.07-1.25-3.57l1.54,2.44Z"/>
  <path d="M334.06,261.25l.42.87c.08.17-.52.27-.69.36s-.28-.67-.38-.85l-1.17-2.27c1.14.07,1.32.89,1.81,1.89Z"/>
  <path d="M144.69,87.75l-1.91.06c.26-.85.49-1.3,1.1-2.25l.82,2.19Z"/>
  <path d="M219.17,128c-2.12.46-1.85,3.39-2.16,2.27-.13-.46-.39-1.83.28-2.2.45-.25,1.56-.4,1.88-.07Z"/>
  <path d="M234.05,101.81c1.62-.97,3.32-1.89,5.28-2.37-1.69,1.08-3.28,1.86-5.28,2.37Z"/>
  <path d="M307.81,122.53l-1.65-2.29c-.46-.64-1.01-1.1-.89-1.94l1.25,1.61c.59.75,1.2,1.38,1.29,2.63Z"/>
  <path d="M345.92,189.81l-1.25-3.01c.88.36,1.2,1,1.64,1.68l.28.69c.07.19-.34.39-.67.64Z"/>
  <path d="M292.33,273c-.58-.07-1.22-.41-1.55-.82-.49-.61-.3-1.29-.09-2.39.37,1.2.8,1.99,1.64,3.2Z"/>
  <path d="M327.94,250.47c.02.13.05.76-.07.76h-.65c-.16,0,.14-.71.06-.85-.29-.51-1.16-1.45-.88-2.35.69.59,1.11,1.6,1.54,2.44Z"/>
  <path class="cls-1" d="M194.98,164.13c.08.28.86.54.79.84-.09.43-.34.53-.94.88-.41-1.56-1.08-2.95-1.81-4.56l-.89-1.95-1.41-3.65c-.5-1.28-1.15-2.42-1.65-3.75-.15-.39-.3-1.06-.45-1.38-.95-2.09-1.86-4.19-2.66-6.4-.22-.6-.58-.96-1.19-1.61l1.33-.49c.96,3.12,1.3.93,1.57,4.39l.74.53c.15.11.03.59.05.78l1.54,3.62.64,1.5,1.84,4.71c.4,1.03,1.11,1.95,1.47,3.13l1.03,3.39Z"/>
  <path class="cls-1" d="M178.67,185.53l.43-1.07c.74.92.13,1.69-.56,2.07l.87.29c.14.05-.19.5-.3.6-.15.13-.32-.07-.86-.42l.34,1.24c.07.27,0,.88-.25,1.01-1.75.9-2.77-4.25-3.19-5.16l-1.47-3.17c-.64-1.39-1.12-2.78-1.75-4.55.67.78,1.17,1.6,1.72,2.62l1.23,1.02-1.35-.1c.51.59.97,1.33,1.34,1.53l2.28,1.23c-.62.73-.87,1.01-1.14,1.36-.37.49.09,1.64.76,1.47l-.25-1.08c-.06-.26.29-.6.7-.91l1.45,2.02Z"/>
  <path class="cls-1" d="M158.11,139.43l1.56-.22c.05.08.37-.63.2-.67l-1.25-.34,3.78-1.94.05-.98-1.99.23,3.08-1.3c.72-.3,1.96.88,1.33,1.68-.58-.57-.74-.8-.68-.05l.83.8c.19.19-.21,1.16-.32.92l-.31-.67c-.07-.15-.68-.4-.28.14-1.22,1.8-3.63,2.7-6,2.41Z"/>
  <path class="cls-1" d="M169.22,172.55c.18.28-.98.78-1.17.58l-.56-1.78c-.24-.76-.44-1.35-.74-2.02-.06.03.47-.59.3-.67l-1.03-.44c.25-1.61,0-3.45-.68-5l.5-.4,2.12,3.25c.08.12-.56.62-.51.75l.27.76c.26.74.51,1.32.96,2.03l-.63.77,1.19,2.16Z"/>
  <path class="cls-1" d="M175.48,215.38l.39.78c.3.59-1.48.75-1.5,2.44l-.93-.41c2.05-2.15.04-3.71,2.56-3.45l.88.09c.23.02.3-.77.48-.94l1.75-1.61,1.01-2.99c.08-.22.46-.66.62-.8.2-.18.86.7.62.8-1.1.45-1.4,1.36-1.31,1.85.06.31.66.75.86.99l.17,1.65c-1.85-1.01-2.9.74-3.84,1.75-.32-.26-.59-.25-1.76-.14Z"/>
  <path class="cls-1" d="M174.42,221.22l-.42.59c-.1.14-.63-.24-.62-.27,1.03-.76,1.92-1.71,1.43-2.92l.66.12c.14.03.41-.25.59-.35l4.8-2.91c-1.24,1.91-3.26,2.65-5.19,3.73l.3,1.85-1.55.17Z"/>
  <path class="cls-1" d="M197.86,170.23c.44.74.7,1.62.23,2.26l-1.17-2.47c-.6-1.28-1.16-2.47-1.73-3.87,1.74,0,1.28,1.46,1.7,2.22.34.61.67,1.23.96,1.86Z"/>
  <path class="cls-1" d="M170.05,176.24l.83,3.28c-1.03.12-2.68-4.5-2.43-5.3.81.32,1.35.66,1.64,1.05l-.85.21c-.11.03-.16.29-.19.43-.04.16.43.22,1.01.34Z"/>
  <path class="cls-1" d="M165.64,162.62l-.67-.8c-.13-.16-.42.2-.84.46l.79-4.02c2.19,3.97,1.08.59.73,4.36Z"/>
  <path class="cls-1" d="M230.9,110.85c-.43.48-1.96.93-2.68.1.65-.93,2.96-1.8,2.94-1.15,0,.19-.1.87-.26,1.06Z"/>
  <path class="cls-1" d="M193.14,191.02c-1.05.35-1.67.24-2.42,1.48l-2.33-1.42,4.75-.06Z"/>
  <path class="cls-1" d="M167.69,226.74l3.36-2.27c-.7,1.17-1.39,2.45-3.36,2.27Z"/>
  <path class="cls-1" d="M56.83,195.71c.6-.97,1.3-.88,2.07-.87.38-.26,1.1-.75,1.57-.96.31-.14.98.64.94.98-.24,1.95-3.11,1.25-4.58.85Z"/>
  <path class="cls-1" d="M158.6,156.33c-.32-.39-.63-1.53-.26-1.81l1.15-.86c.52.97.14,1.88-.9,2.67Z"/>
  <path class="cls-1" d="M171.74,191.02l-5.31-.08c.44-.97,1.31-.34,2.1-.32l4.25.11-.26.43c-.08.13-.56-.14-.78-.14Z"/>
  <path class="cls-1" d="M363.91,242.04c-1.08.9-2.31,1.6-3.54,1.83.2-1.48,1.64-.82,2.18-1.35.26-.26.67-1.17,1.04-1.17l1.69.03-.32.76c-.07.16-.58-.01-1.05-.09Z"/>
</svg>