<?xml version="1.0" encoding="UTF-8"?>
<svg id="Layer_2" data-name="Layer 2" xmlns="http://www.w3.org/2000/svg" viewBox="0 0 432 288">
  <defs>
    <style>
      .cls-1 {
        fill: #fff;
      }
    </style>
  </defs>
  <path class="cls-1" d="M434.24,172.68v117.53H2.57v-91.84c.57-.45,1.24-.72,2-.92l.47-.75c.69-.28,1.03-.7,1.53-1.24.44-.38,1.3-.69,1.82-1.02l1.15-.73c.62-.39,1.17-.7,1.82-1.03l1.34-.67c1.73-.87,1.55-.77,3.4-1.15.82-.17,2.84-.56,3.29.48.25.06.75.15.98.23l2.71,1.15c.27.11.77.43,1.08.6,3.03-.56,2.38,1.15,4.65,1.22.76.02,1.3.56,2,.75l2.54.7c.39.11.68.53,1.03.6l.9.2c.61.11,1.14.29,1.63.75,1.03.95.84-.57,2.2.53.27.22.9.26,1.3.39.3.1.83.54,1.17.53.92-.02,1.51.24,2.26.68.99.57,1.35-.64,3.26.89.49.4,1.06.42,1.63.6l2.86.91c.65.21,1.34.47,1.98.71.49.19.68.29,1.19.07.36-.15,1.04.38,1.47.48,1.84.43,2.71.33,3.79,1.45l1.55.29c.94.17,1.69.46,2.58.92.81.42,2.52.46,3.75,1.28.17-.02.5-.02.65.02l1.5.38c.87,1.04.2-.44,2.87.9l1.61.81c1.3.65,1.92-.43,5.06,1.25.33.18.93.28,1.23.41.77.34,1.37.42,2.15.61,2.57.64,5.05,1.5,7.57,2.33.73.24,1.42.65,2.08,1l1.31.09c.33.29.61.54.81.7.17.13.77-.22.98-.18l1.93.49c.58.15,1.31.44,1.91.68l1.45.6c.56.23,1.12.44,1.71.63l2.05.67c1.06.35,2.38.41,3.31.91.56.3.91.61,1.51.74,1.36.27,2.66,1.01,4.01,1.16.9.1,1.46.28,2.24.62.47.21,1.17.33,1.56.71.57.56.1-.13,2.03.25.79.16,1.55-.07,2.02.86.17.35,1.14.1,1.47.29l1.4.78c1.83,1.03,2.08.21,4.2,1.38,1.04.57,1.91.54,3.25.58s.69.94,1.59.95l1.74.03c.45.46,1.18.31,1.66.59l2.69,1.55c.32.18.16-.14.65-.03s1,.1,1.52.12c.35.02,1.01.49,1.36.58.38.1,1.06.14,1.36.28l1.89.9c.94.45,1.79.5,2.78.24.68.39,1.54,1.1,2.59,1.02.62-.05,1.23.38,1.77.54.84.26,1.63.42,2.53.61s1.62,1.35,1.94,1.12l.48-.34c.7-.49,1.41.14,1.7.94l1.87-.08.85.74c3.13.11,1.13.56,4.95,1.31.44.09,1.17.6,1.71.58.95-.04,1.43.5,2,1.03,3.56-.41,1.55.07,5.32,1.24l1.91.59c.31.09,1.06-.04,1.31.19.59.54,1.46.75,2.24.87l1.48.23c.59.09,1.32.45,1.94.64l2.57.8c.9,1.2,1.01-.52,3,.91.18.13.67.36.91.35,2.68-.14,3.38.73,5.51,1.01.24.03.93-.42,1.04-.2l.29.6c.04.08.32-.12.42-.13,1.24-.11,2.45.29,3.62.64,1.86.56,1.86.98,2.87.39.36-.21.88.04,1.11.36.5.67,1.21-.1,1.73-.09.63.01,1.13.07,1.53-.3l.41-.39c.08-.07.24.36.32.47.47.66,1.67.64,2.34.25,1.79,1.15.94-.47,2.2.47-.03.07.04-.09.2-.41.17-.38,1.73.42,2.39.08l.9-.47c.78.23-3.47-2.06-1.42-1.42l.68.21c.29.09.71.47.96.63.33.2,1.15.19,1.55.34l1.73.64.36-1.08c.06-.18.21-.48.32-.61s.39.23.55.44c.26.35,1.35.56,1.5.13l-.1-.71c-.02-.13.27-.27.4-.34l.28-.13-.06-.28-.28-.16-.95-.54s-.22-.04-.25-.03l-.29.06-.32.06-.28.06c-.16.03-.28.08-.5-.02l-.27-.13-.25-.12-.24-.12-.22-.13c-.28-.17-.12-.2-.63-.44l-.26-.12-.26-.12s-.11-.15-.2-.3l-3.64-.39-.19-.43c-1.83.38-1.02-.72-4.51-.75-.7,0-1.36-.32-2.06-.52-.39-.11-1.01-.13-1.3-.33-1.42-.94-.75.68-3.62-1.03-.17.19-.65.72-.88.69-.43-.05-1.11-.67-1.48-.91-2.38.22-2.31-1.2-3.5-.53l-1.31.04c-.43.01-.86-.36-1.1-.68-1.33.39-1.13-.86-1.77-.35-.7.56-1.37.28-2.08.05l-1.09-.36c-2.86-.93-.39.05-2.65-.43-2.77-.59-1.33-.54-4.34-.96l-2.05-.29c-.81-.12-1.94-.07-2.48-.77.08-.43.22-.96-.04-1.32l-.79,1.13c-.84-.12-1.23.15-1.91.75l-.65-.88-1-.19c-2.06-.88-2.88-.43-4.89-1.34-.31-.14-.83-.64-1.1-.69-.45.19-1.18.57-1.47.36-.47-.34-.81-.64-1.31-.39-.64.32-1.1-.2-1.66-.37-.79-.24-1.35-.37-2-.96-.36-.32-1.22-.31-1.7-.47-2.56-.9-.8.29-3.54-1.66-.39-.28-.68-.51-1.09-.48l-1.27.11c-.41.12-.93.39-1.31.39s-.84-.39-1.06-.76c-.5-.84-.75-.07-1.03-.73-.49-1.16-.63.15-1.45-1.62-.4-.86-1.13.14-1.97-.08l-2.37-.63c-.82-1.05-1,0-1.72-.71-.4-.39-.97-.56-1.49-.72l-.9-.52c-.55-.32-.02-.28.26-1.19.29-.96.7-1.85,1.41-2.64-1.24-.37-1.41,2-2.45,2.78s-2.22-.11-3.08-.36c-.42-.12-.86-.1-1.16-.42-.55-.59-1.1-.74-1.8-1.01-2.57-1.01-2.7.57-3.22-.12l-.63-.84c-.5-.19-1.19-.46-1.47-.8-.94-1.18-1.04.2-2.37-.38l-1.55-.67c-.63-.27-1.77-.08-2.15-.69-.92-1.43-.25.07-3-1.03l-1.4-.56c-.41-.16-.99-.3-1.26-.54-1.11-.99-1.18.01-1.49-.53-.81-1.4-1.87.57-3.1-.56-.44-.41-.83-.54-1.58-.43l-1.42-1.46c-.78-.28-1.69-.76-2.45-.93-.59-.13-.88-.15-1.37-.42-.6-.33-1.37-.57-1.88-.9-2.26-1.44-2.91-.97-5.6-2.58-1.13-.68-.78-.91-3.17-.94-.13,0-.44.3-.5.21-.38-.58-.95-.66-2.26-1.4l-1.2-.68c-1.41.26-2.2-.94-3.27-1.4l-2.65-1.14-1.33-.67c-.45-.23-1.16-.42-1.32-.76s-.24-.47-.37-.47l-1.49-.04c-1.15-.61-2.27-.95-3.56-1.27l-1.32-1.31-1.05-.67c-.33-.21-.69-.33-1.07-.27-.84.11-.34-.95-.73-.88l-.52.1c-.72.13-3.04-1.57-4.58-2.15-.87-.33-1.99-.64-2.76-1.42l-1.09-1.09-1.05-.27c-1.78-.45-2.29-.26-3.42-.79-.3-.14-.76-.57-1.1-.79l-1.23-.8c-.67-.43-1.25-.73-2.04-.88l-.84-.27c-.81.04-3.24-1.09-4.04-1.49-.71-.35-1.68-.48-1.73-1.5l-.97-.16-2.22-1.39c-.49-.3-.81-.58-1.37-.46-1.18.23-1.72-1.02-2.51-1.48-.99-.58-2.35-.57-3.18-1.49-.23-.05-.72-.13-.89-.22l-1.04-.59-.41-.23s-.04-.87,1.56-1.05c.76-.09,1.18-.56,1.65-1.09,1.08-1.2.76-1.4,1.25-1.48.83-.14,1.31-.85,1.88-1.35.64-.56,1.23-1.05,1.8-1.68l.75-.4-.02-.73c0-.12.3-.04.52-.02.7-.93,2.11-1.2,2.89-1.98,1.85-1.83,1.16-.87,3.8-2.73.27-.19.81-.68.98-.96,1.34-2.21,2.05-.52,3.32-2.48l.82-.25c.4-.66.95-.99,1.75-1.18.52-.13.98-.79,1.43-1.09.56-.37.95-.68,1.26-1.35l6.6.1,10.52.23,18.4.08,25.44-.07,7.99-.19,4.51-.18,5.83-.18,6.54-.18,13.18-.18,4-.21,5.86-.14,2.2-.12,2.38-.12,8.12-.11,2.54-.13,5.79-.14,7.6-.06.84-.06,1.21-.06,7.2-.07c-.34,0,2.96-.12,2.41-.11l11.54-.03.92-.18,8.78-.09,8.54-.15,1.57-.06.85-.03,7.52-.11,5.79-.19,4.35-.18,3.51-.15,2.54-.16,2.71-.13,2.55-.13,3.25-.18,3.63-.24,3.08-.24,2.55-.17,3.58-.21,7.47-.7,4.15-.38,3.1-.29,8.66-1.08,4.72-.57,9.25-1.4c.94-.14,1.82-.32,2.73-.51l5.61-1.17,7.97-1.96,4.16-1.12,3.59-.99,5.93-1.94c.59-.19,1.15-.4,1.74-.61l2.37-.87,4.71-1.82,2.72-1.11,3.26-1.42c1.96-.85,3.74-1.8,5.67-2.69l2.37-1.1,7.51-3.98c.62.2,1.22.67,1.69,1.1l4.47,4.04,2.4,2.3,1.43,1.3,2.59,2.31,3.17,3,4.23,4.06,2.03,1.82,7.29,7.17.93.93,7.89,7.65,2.34,2.19c.76.72,1.47,1.4,2.18,2.18,1.2,1.32,3.1,2.79,4.25,4.29ZM234.67,213.32l-.71.41.24.41.71-.41-.24-.41ZM203.78,230.04l-.74.19.13.51.74-.19-.13-.51ZM229.4,246.29c-.61-.28-1.08-.45-1.82-.64.07.56.38.88.65.91.41.05.75-.04,1.17-.27ZM182.5,247.05l-.7.41.23.4.7-.41-.23-.4Z"/>
  <path class="cls-1" d="M90.79.56h343.45v64.1c-.42.57-.88,1.17-1.28,1.81l-1.83,2.9-2.75,3.73c-.65.88-1.26,1.76-1.93,2.63l-2.35,3.08-3.07,3.82c-1.77,2.19-3.57,4.25-5.46,6.32l-3.03,3.32-8.63,8.55c-1.59,1.57-3.27,2.88-5,4.27l-2.2,1.78c-.46.37-.94.78-1.41,1.12l-2.86,2.07-2.34,1.64c-.46.32-.99.99-1.72.85l-6.41-5.19-4.45-3.51-5.97-4.55-4.52-3.24-4.72-3.42c-1.61-1.16-3.13-2.31-4.82-3.36l-8.36-5.23c-2.99-1.87-6.02-3.38-9.18-4.99-8.69-4.43-24.83-10.79-34.11-13.13l-8-2.02-4.9-1.06-2.54-.51-8.4-1.57-1.95-.36-9.23-1.53-6.69-1.04-1.94-.27-10.2-1.22-4.02-.35-8.86-.74-4.71-.36-3.35-.25-7.25-.37c-4.26-.22-8.46-.18-12.72,0l-4.16.17c-4.99.21-9.8.75-14.72,1.77-17.61,3.65-29.19,10.86-43.67,20.8l-15.89,10.91-11.15,7.69-5.23,3.48c-3.35,2.23-6.57,4.37-9.98,6.51l-8.71,5.45c-11.22,7.02-22.39,13.86-33.9,20.37l-8.95,5.06-2.66,1.49-4.3,2.39-5.74,3.18-3.13,1.72-1.99,1.12c-.38.21-1.34-.05-1.78-.09l-4.54-.36c-7.07-.57-13.98-1.58-20.96-2.75-.43-.07-.8-.25-1.17-.48.88-.27,1.59-.12,2.46.25.3.13.9,0,1.22.04l2.79.28,2.54.26c.2.02.65.12.84.17.22.12.6.38.79.32s.29-.58.37-.79l2.43-.34.69-.09c.13-.02,0-.44-.04-.62l1.04-.51c.67-.33-1.07-1.04-.48-2.22l-.31-.65c.28-.55,1.08-.28,1.5-.06.15.08.38-.44.31-.6-.3-.61-1.14.1-2.05-.48.95-1.84,1.76-.19,2.2-.93l-.75-.59c.41-.49.81-.71,1.6-1.07l-2.11-1.39c-.52-2.39-.23-1.79-.21-4.32.19-.04.61.07.9.2.15.06.39-.3.36-.47-.02-.14-.24-.42-.39-.5l-.9-.49c-.08-.34-.1-.74-.28-.79l-.82-.23c-.15-.04.13-.56.3-.54l.6.05c.17.01.56-.11.65,0l.48.56c.43-.02.93-.82.68-1.3-.39-.76.26-2.06-.29-1.4l-.23.27-.36.43c-.09.11-.49-.13-.45-.26l.14-.5.19-.69c.04-.12-.32-.26-.48-.32-.39-.15-.65-.49-.45-.84s.47-.38,1.13-.27l-.45-.79c-.06-.17-.13-.73.05-.8l.79-.31c.02-.26-.44-.54-.91-.73l.82-1.17-1.02-.23c-.22-.38,0-.86.38-.93.21-.04.45.07.86.23l-.15-.92h1.09s.05-.39-.03-.44l-.39-.24c.6-.39,1.36-.71,2.11-1.03.31-.13.13-.97.05-1.32-.02-.22.51-.56.72-.48l.86.3.27-.69c.06-.15,1.37-.36,2.1,0-.3-1.03.33-1.73,1.05-2.13.17-.79-.66-1.35-1.36-1.57.3-.9,1.06-.31,1.53-.42,2.05-.47.3.46,2.91-.53-1.21.19-1.73-2.27-2.06-1.56l-.34.72-.85-.81c.05-.17.31-.78.45-1.12.11-.26-.2-.75-.42-1.09l.97-.25c.17-.19.37-.44.53-.51s.51.22.62.36l.27.35c.06.07.43-.12.46-.21.12-.37-.36-1.14-.68-1.32l.67-1.42c.18-.37.83-.8,1.18-1.08.3-.73.57-1.66,1.13-2.09,1.41-1.06-.96-.05-.85-1.78l.84-.64c.37,0,.77-.13.72-.28-.5-.29-.72-.52-.93-.95-.2-.01-.81.06-.91-.16l-.38-.85c-.29-.65-.18-1.83.67-1.77.16.01.6.11.68.09l-1.31-.84c-.45-.29-1.11-.51-1.43-.99.6-.42,1.14-.09,1.75.19.66.31,1.54-.73,3.55-.07l-.35-.77c-.26-.57,1.46.18,1.69-2.28l1.74-1.16-.2-.71c-.04-.13.91-.6,1.12-.52.38.15.63,1.03,1.32.71l-.75-1.05c.16-.32.84-.45,1.03-.68l.7-.88-.16-.84c-.04-.18.55-.2.73-.26l.74-.27c.15-.06.14-.53.08-.59-.47.15-1.27.06-1.19-.33.14-.69.1-.98-.03-1.92l1.84.49c.15.04.52-.28.44-.38-.93-1.24-.3-1.35-.53-2.38-.08-.34-.68-.93-.67-1.24,1.77.02.99-2.13,2.27-2.36.21-.04.71.3.86.15.53-.58.61-1.21.46-1.31l-.52-.33c-1.77-1.12,2.35-.74,2.16-2.88-.03-.33-.82-.38-1.2-.18l-.52-1.38.46-.42c.07-.07-.35-.25-.33-.21-.1.4-.45.92-.75.87l-.7-1.01,1.33-.52-1.52-1.53c.28-.23.53-.39.67-.33l.62.28c.24.1.54-.5.46-.79-.06-.21-.46-.43-.74-.51l1.08-1.02c.25-.02.83-.05,1.13-.03l1.04.05c.55.03,1.27.2,1.89.26.41-.27,1.13-.86,1.36-1.25.27-.53.41-.75.98-1,.45-.2.28-.98-.08-1.38-.25-.26.11-1.25.41-1.11l.56.27c.08.04.18-.3.24-.38l.78-1.08c-.23-.5-.69-1.19-.22-1.71.63.65,1.58,1.1,2.25.62.38-.27.49-1.41.16-1.72-.65-.61-1.22-1.06-1.21-2.02v-.69c.01-.13.54.1.64.03.44-.32.74-1.85.49-2.85-.15-.59.98-.97,1.46-1.09.22-.69-.61-.9-1.09-1.19-.41-.25.14-1.52.58-1.39.39.12.66.15.79,0,.71-.76-1.39-1.01-.61-2.08.33,0,.8.11.94-.07.76-1,0-1.17.28-1.52l.29-.37c.29-.37.46-.5,1.06-.87l-.78-.46c.15-.47.77-.73,1.25-.68-.05-.33-.11-.8-.02-1.02.37-.95,1.8.39,2.02-.19.11-.29.12-.61.26-.65l.52-.17c.19-.06.55-.13.66-.02l.48.47.95-1.25-1.23-.36,2.15-1.24c.37-.22.61-.48.7-1.04l1.23-.63,1.02-1.78-.53-1.05,1.41-.6c-.38-.46-.3-1.04-.12-1.65l.52-1.75.64.58c-.08-.8.17-1.81,1.03-2.17-.13-.33-.15-.82-.08-1.3l-.32-1.88c.93.06,1.81-.74,1.54-1.35h-.62c-.07.01-.14-.17-.1-.22l.24-.31.78-1c.25-.33.13-1.28.3-1.64l.46-.92c.06-.11.3-.31.38-.4.21-.25-.89-.74,1.1-2.29l-.1-.77c.79.08,1.03-.41,1.51-.88l1-.99,2.25.44c.31.06.89-.48,1.01-.77s-.3-.94-.28-1.27c.07-.74,1.38-.72,2.04-.32l-.05-.83,1.03-.52c-.8-.46-.68-1.27-.69-1.86,0-.17-.21-.56-.22-.72-.05-.58.58.08,1.78-1.75.26-.39.42-.67.19-1.08ZM183.18,8.94c0-.18-.15-.33-.33-.33s-.33.15-.33.33.15.33.33.33.33-.15.33-.33ZM60.63,56.78c.09-.07.24-.23.31-.32.05-.06-.24-.16-.3-.11l-.25.22-.38.22c-.07.04.2.31.26.26l.35-.27ZM50.98,73.2c0,.11.11.38.21.38.07,0,.28-.03.26-.1l-.07-.4c-.01-.07-.39.06-.39.13ZM41.16,89.89c0-.17-.13-.3-.3-.3s-.3.13-.3.3.13.3.3.3.3-.13.3-.3ZM39.69,91.57c-.33-.83-1.11-1.05-1.5-.44l1.5.44ZM38.03,96.78c.15-.01.47-.05.41-.11l-.28-.3s-.1.16-.18.37c-.33.14-.31.14.05.04ZM37.96,99.35c.06-.63-.13-1.02-.64-.91l.64.91ZM37.16,107.87l-.47-.39c-.09-.08-.48.18-.46.31.03.21.34.55.51.51l.64-.13c.07-.02.22-.2.26-.27.02-.04-.07-.05-.11-.05-.05,0-.32.06-.36.03ZM26.03,119.27c-.48-.62-1.01-.54-1.4.04.44.07.95.06,1.4-.04ZM25.46,120.87c.43-.12.66-.3.78-.52.08-.15-.07-.4-.32-.69l-.46,1.21ZM25.54,122.37c0-.13-.11-.24-.24-.24s-.24.11-.24.24.11.24.24.24.24-.11.24-.24ZM30.54,123.49l-.33-.61c-.48.11-.83.26-1.1.62l1.43-.02ZM26.4,128.71l-1.25-1.02c-.35.53-.27,1.04.28,1.64l.97-.62ZM24.25,132.22c.1-.14-.3-.64-.4-.49-.13.18.23.73.4.49ZM25.33,132.92l-.22-.12c-.06-.03-.22.11-.27.16l-.33.37c-.06.07.18.18.26.15.52-.18.67-.5.56-.56ZM26.83,138.08l-.67-.6c-.1.24-.22.58-.16.72s.34.02.83-.12Z"/>
  <path d="M90.79.56c.23.4.06.69-.19,1.08-1.2,1.83-1.83,1.17-1.78,1.75.01.16.22.55.22.72.02.6-.1,1.41.69,1.86l-1.03.52.05.83c-.67-.4-1.98-.43-2.04.32-.03.33.39.98.28,1.27s-.7.83-1.01.77l-2.25-.44-1,.99c-.47.47-.72.96-1.51.88l.1.77c-2,1.55-.89,2.04-1.1,2.29-.08.1-.32.29-.38.4l-.46.92c-.18.35-.05,1.31-.3,1.64l-.78,1-.24.31c-.04.06.03.24.1.24h.62c.27.6-.61,1.4-1.54,1.34l.32,1.88c-.08.48-.05.97.08,1.3-.87.36-1.11,1.36-1.03,2.17l-.64-.58-.52,1.75c-.18.61-.26,1.19.12,1.65l-1.41.6.53,1.05-1.02,1.78-1.23.63c-.09.55-.32.82-.7,1.04l-2.15,1.24,1.23.36-.95,1.25-.48-.47c-.11-.11-.47-.05-.66.02l-.52.17c-.13.04-.15.36-.26.65-.22.58-1.65-.76-2.02.19-.09.22-.03.69.02,1.02-.48-.05-1.1.22-1.25.68l.78.46c-.6.37-.77.5-1.06.87l-.29.37c-.28.36.48.52-.28,1.52-.14.18-.61.07-.94.07-.79,1.07,1.32,1.32.61,2.08-.13.14-.41.11-.79,0-.44-.13-.99,1.14-.58,1.39.48.29,1.31.5,1.09,1.19-.48.12-1.61.5-1.46,1.09.25,1-.05,2.53-.49,2.85-.1.07-.63-.15-.63-.03v.69c-.02.96.54,1.41,1.2,2.02.33.31.22,1.45-.16,1.72-.67.48-1.62.03-2.25-.62-.47.52,0,1.21.22,1.71l-.78,1.08c-.06.08-.16.42-.24.38l-.56-.27c-.3-.15-.65.84-.41,1.11.37.4.53,1.18.08,1.38-.57.25-.71.48-.98,1-.23.39-.95.98-1.36,1.25-.62-.07-1.34-.23-1.89-.26l-1.04-.05c-.3-.02-.88.02-1.13.03l-1.08,1.02c.28.09.68.3.74.51.08.29-.22.89-.46.79l-.62-.28c-.14-.06-.39.1-.67.33l1.52,1.53-1.33.52.7,1.01c.3.05.65-.46.75-.87-.02-.04.4.14.33.21l-.46.42.52,1.38c.38-.19,1.17-.15,1.2.18.2,2.15-3.93,1.76-2.16,2.88l.52.33c.15.1.07.73-.46,1.31-.14.16-.64-.19-.86-.15-1.28.23-.5,2.38-2.27,2.36,0,.31.59.9.67,1.24.23,1.02-.4,1.13.53,2.38.08.11-.29.42-.44.38l-1.84-.49c.13.93.17,1.23.03,1.92-.08.39.72.48,1.19.33.06.06.08.53-.08.59l-.74.27c-.18.06-.77.08-.73.26l.16.84-.7.88c-.19.24-.88.37-1.03.68l.75,1.05c-.69.32-.94-.56-1.32-.71-.21-.09-1.16.39-1.12.52l.2.71-1.74,1.16c-.23,2.46-1.95,1.71-1.69,2.28l.35.77c-2.01-.67-2.89.37-3.55.07-.62-.29-1.15-.61-1.75-.19.33.48.98.7,1.43.99l1.31.84c-.09.02-.52-.08-.68-.09-.85-.06-.96,1.12-.67,1.77l.38.85c.1.22.71.14.91.16.21.42.43.66.93.95.06.15-.35.29-.72.28l-.84.64c-.1,1.73,2.26.72.85,1.78-.56.43-.83,1.36-1.13,2.09-.35.27-1,.7-1.18,1.08l-.67,1.42c.32.18.8.95.68,1.32-.03.09-.41.29-.46.21l-.27-.35c-.11-.14-.46-.43-.62-.36s-.35.32-.53.51l-.97.25c.22.34.53.83.42,1.09-.15.34-.4.95-.45,1.12l.85.81.34-.72c.34-.7.86,1.75,2.06,1.56-2.61.99-.86.06-2.91.53-.48.11-1.23-.48-1.53.42.7.22,1.53.78,1.36,1.57-.71.4-1.35,1.1-1.05,2.13-.73-.36-2.04-.15-2.1,0l-.27.69-.86-.3c-.22-.08-.75.27-.72.48.08.36.26,1.2-.05,1.32-.75.31-1.51.63-2.11,1.03l.39.24c.08.05.07.4.03.43h-1.09s.15.93.15.93c-.41-.17-.65-.27-.86-.23-.38.07-.6.55-.38.93l1.02.23-.82,1.17c.47.19.93.47.91.73l-.79.31c-.17.07-.11.64-.05.8l.45.79c-.66-.1-.92-.09-1.13.27s.06.69.45.84c.16.06.51.2.48.32l-.19.69-.14.5c-.04.13.37.37.45.26l.36-.43.23-.27c.55-.66-.1.64.29,1.4.25.48-.25,1.28-.68,1.3l-.48-.56c-.1-.12-.48,0-.65,0l-.6-.05c-.17-.01-.45.5-.3.54l.82.23c.18.05.2.45.28.79l.9.49c.15.08.37.36.39.5.03.17-.22.53-.36.47-.28-.13-.71-.24-.9-.2-.02,2.53-.31,1.93.21,4.32l2.11,1.39c-.78.36-1.19.58-1.6,1.07l.75.59c-.44.74-1.25-.91-2.2.93.91.58,1.74-.13,2.05.48.08.15-.16.67-.31.6-.42-.22-1.22-.48-1.5.06l.31.65c-.59,1.19,1.15,1.89.48,2.22l-1.04.51c.04.19.16.61.04.62l-.69.09-2.43.34c-.08.21-.18.73-.37.79s-.57-.19-.79-.32c-.19-.05-.64-.15-.84-.17l-2.54-.26-2.79-.28c-.32-.03-.92.09-1.22-.04-.87-.37-1.58-.52-2.46-.25.37.23.75.41,1.17.48,6.98,1.18,13.89,2.19,20.96,2.75l4.54.36c.44.04,1.4.3,1.78.09l1.99-1.12,3.13-1.72,5.74-3.18,4.3-2.39,2.66-1.49,8.95-5.06c11.51-6.51,22.69-13.34,33.9-20.37l8.71-5.45c3.41-2.13,6.64-4.28,9.98-6.51l5.23-3.48,11.15-7.69,15.89-10.91c14.48-9.94,26.06-17.14,43.67-20.8,4.91-1.02,9.73-1.56,14.72-1.77l4.16-.17c4.26-.18,8.46-.21,12.72,0l7.25.37,3.35.25,4.71.36,8.86.74,4.02.35,10.2,1.22,1.94.27,6.69,1.04,9.23,1.53,1.95.36,8.4,1.57,2.54.51,4.9,1.06,8,2.02c9.28,2.34,25.42,8.7,34.11,13.13,3.16,1.61,6.18,3.12,9.18,4.99l8.36,5.23c1.68,1.05,3.21,2.2,4.82,3.36l4.72,3.42,4.52,3.24,5.97,4.55,4.45,3.51,6.41,5.19c.73.13,1.26-.53,1.72-.85l2.34-1.64,2.86-2.07c.47-.34.95-.75,1.41-1.12l2.2-1.78c1.73-1.39,3.41-2.7,5-4.27l8.63-8.55,3.03-3.32c1.89-2.07,3.69-4.13,5.46-6.32l3.07-3.82,2.35-3.08c.67-.88,1.28-1.75,1.93-2.63l2.75-3.73,1.83-2.9c.4-.64.86-1.24,1.28-1.81v9.63c-.51.38-.79,1.17-1.24,1.66-.78.85-1.48,1.63-2.2,2.5l-3.46,4.2c-.65.79-1.51,1.54-2.01,2.45-.83,1.52-2.1,2.45-3.21,3.72l-3.38,3.84c-1,1.14-2.04,2.15-3.19,3.16-.85.75-1.55,1.6-2.33,2.37l-1.91,1.9-3.22,3.26c-.35.35-1.04.53-.6,1.3.66-.44,1.35-.88,1.94-1.37l1.09-.9c.63-.52,1.26-.93,1.92-1.39.44-.31.92-.75,1.38-1.11,1.25-1,2.59-2.79,3.29-3.42l2.27-2.02,1.57-1.57,1.66-1.77,3.95-4.39,2.94-3.37,1.4-1.88c.63-.85,1.26-1.81,1.99-2.53.55-.54,1.06-.92,1.33-1.59v8.89c-.33.21-.56.6-.86.99-1.43,1.85-2.86,3.6-4.36,5.39l-2.82,3.35-2.53,2.9-1.3,1.44-1.81,1.97-1.63,1.65c-1.98,2.01-3.85,4.08-5.96,5.93l-4.36,3.83c-.8.71-1.63,1.36-2.49,2.01l-5.8,4.36c-.5.38-1.43,1.08-.78,1.83.74.87,1.69,1.72,2.55,2.52l2.73,2.53,5.34,4.81,2.98,2.81,2.46,2.27,3.98,3.8,4.4,4.28.9.9,4.27,4.25,2.52,2.38c.24.22.73.52,1.03.51.78-.04,1.02-1.03,1.55-1.1v20.86c-1.15-1.5-3.06-2.96-4.25-4.29-.71-.78-1.42-1.46-2.18-2.18l-2.34-2.19-7.89-7.65-.93-.93-7.29-7.17-2.03-1.82-4.23-4.06-3.17-3-2.59-2.31-1.43-1.3-2.4-2.3-4.47-4.04c-.47-.43-1.07-.89-1.69-1.1l-7.51,3.98-2.37,1.1c-1.93.9-3.72,1.84-5.67,2.69l-3.26,1.42-2.72,1.11-4.71,1.82-2.37.87c-.59.21-1.15.42-1.74.61l-5.93,1.94-3.59.99-4.16,1.12-7.97,1.96-5.61,1.17c-.91.19-1.79.37-2.73.51l-9.25,1.4-4.72.57-8.66,1.08-3.1.29-4.15.38-7.47.7-3.58.21-2.55.17-3.08.24-3.63.24-3.25.18-2.55.13-2.71.13-2.54.16-3.51.15-4.35.18-5.79.19-7.52.11-.85.03-1.57.06-8.54.15-8.78.09-.92.18-11.54.03c.54,0-2.75.12-2.41.11l-7.2.07-1.21.06-.84.06-7.6.06-5.79.14-2.54.13-8.12.11-2.38.12-2.2.12-5.86.14-4,.21-13.18.18-6.54.18-5.83.18-4.51.18-7.99.19-25.44.07-18.4-.08-10.52-.23-6.6-.1c-.31.67-.7.98-1.26,1.35-.45.3-.91.97-1.43,1.09-.8.19-1.35.52-1.75,1.18l-.82.25c-1.27,1.96-1.98.27-3.32,2.48-.17.28-.71.77-.98.96-2.65,1.86-1.95.91-3.8,2.73-.79.78-2.19,1.05-2.89,1.98-.22-.02-.52-.09-.52.02l.02.73-.75.4c-.57.63-1.16,1.11-1.8,1.68-.57.5-1.05,1.21-1.88,1.35-.49.08-.17.28-1.25,1.48-.47.53-.88,1-1.65,1.09-1.6.19-1.57,1.05-1.56,1.05l.41.23,1.04.59c.16.09.65.18.89.22.84.92,2.19.92,3.18,1.49.79.46,1.33,1.72,2.51,1.48.57-.11.89.16,1.37.46l2.22,1.39.97.16c.05,1.02,1.02,1.15,1.73,1.5.8.4,3.23,1.52,4.04,1.49l.84.27c.79.16,1.37.45,2.04.88l1.23.8c.34.22.8.65,1.1.79,1.14.53,1.64.34,3.42.79l1.05.27,1.09,1.09c.77.78,1.89,1.09,2.76,1.42,1.54.58,3.86,2.28,4.58,2.15l.52-.1c.4-.07-.1.99.73.88.38-.05.74.07,1.07.27l1.05.67,1.32,1.31c1.29.32,2.41.66,3.56,1.27l1.49.04c.14,0,.23.14.37.47s.86.53,1.32.76l1.33.67,2.65,1.14c1.07.46,1.86,1.66,3.27,1.4l1.2.68c1.31.74,1.88.82,2.26,1.4.06.1.37-.21.5-.21,2.4.02,2.04.26,3.17.94,2.69,1.61,3.34,1.14,5.6,2.58.52.33,1.28.56,1.88.9.48.27.78.28,1.37.42.75.17,1.67.65,2.45.93l1.42,1.46c.75-.11,1.14.03,1.58.43,1.23,1.13,2.29-.85,3.1.56.32.55.38-.46,1.49.53.27.24.85.37,1.26.54l1.4.56c2.75,1.1,2.09-.4,3,1.03.39.61,1.52.41,2.15.69l1.55.67c1.33.58,1.43-.81,2.37.38.28.35.97.62,1.47.8l.63.84c.52.69.64-.89,3.22.12.7.28,1.26.43,1.8,1.01.3.32.74.3,1.16.42.86.25,2.03,1.14,3.08.36s1.22-3.16,2.45-2.78c-.71.78-1.12,1.68-1.41,2.64-.27.91-.81.87-.26,1.19l.9.52c.52.16,1.09.33,1.49.72.72.71.9-.34,1.72.71l2.37.63c.84.22,1.57-.78,1.97.08.83,1.77.97.45,1.45,1.62.28.66.52-.11,1.03.73.22.37.69.76,1.06.76s.9-.27,1.31-.39l1.27-.11c.41-.04.7.2,1.09.48,2.74,1.95.98.75,3.54,1.66.47.17,1.34.15,1.7.47.65.59,1.21.73,2,.96.55.16,1.02.69,1.66.37.5-.25.84.05,1.31.39.3.21,1.02-.17,1.47-.36.28.05.79.55,1.1.69,2.01.91,2.83.46,4.89,1.34l1,.19.65.88c.69-.6,1.08-.87,1.91-.75l.79-1.13c.26.35.13.88.04,1.32.53.7,1.67.65,2.48.77l2.05.29c3,.43,1.57.38,4.34.96,2.26.48-.21-.5,2.65.43l1.09.36c.71.23,1.38.51,2.08-.05.64-.51.44.73,1.77.35.24.32.67.7,1.1.68l1.31-.04c1.19-.67,1.12.75,3.5.53.37.24,1.05.86,1.48.91.24.03.71-.5.88-.69,2.88,1.71,2.21.09,3.62,1.03.29.19.92.21,1.3.33.7.21,1.36.52,2.06.52,3.49.03,2.68,1.13,4.51.75l.19.43,3.64.39c.1.15.17.28.2.3l.26.12.26.12c.51.24.35.27.63.44l.22.13.24.12.25.12.27.13c.22.11.34.06.5.02l.28-.06.32-.06.29-.06s.23.02.25.03l.95.54.28.16.06.28-.28.13c-.14.06-.42.21-.4.34l.1.71c-.16.43-1.24.22-1.5-.13-.15-.21-.44-.56-.55-.44s-.26.43-.32.61l-.36,1.08-1.73-.64c-.4-.15-1.21-.14-1.55-.34-.24-.16-.67-.54-.96-.63l-.68-.21c-2.06-.64,2.2,1.65,1.42,1.42l-.9.47c-.65.34-2.21-.46-2.39-.08-.15.32-.23.48-.2.41-1.26-.94-.4.68-2.2-.47-.67.39-1.88.41-2.34-.25-.08-.11-.24-.54-.32-.47l-.41.39c-.39.37-.89.31-1.53.3-.52-.01-1.23.76-1.73.09-.23-.31-.75-.57-1.11-.36-1,.58-1,.17-2.87-.39-1.17-.35-2.38-.75-3.62-.64-.1,0-.38.21-.42.13l-.29-.6c-.11-.22-.79.23-1.04.2-2.13-.28-2.83-1.16-5.51-1.01-.25.01-.73-.22-.91-.35-1.98-1.43-2.09.29-3-.91l-2.57-.8c-.62-.19-1.35-.55-1.94-.64l-1.48-.23c-.78-.12-1.65-.34-2.24-.87-.24-.22-1-.09-1.31-.19l-1.91-.59c-3.77-1.16-1.76-1.65-5.32-1.24-.57-.53-1.05-1.07-2-1.03-.54.02-1.27-.49-1.71-.58-3.83-.75-1.83-1.2-4.95-1.31l-.85-.74-1.87.08c-.28-.8-.99-1.43-1.7-.94l-.48.34c-.32.23-1.04-.93-1.94-1.12s-1.69-.35-2.53-.61c-.54-.17-1.14-.59-1.77-.54-1.04.08-1.91-.63-2.59-1.02-.99.25-1.85.2-2.78-.24l-1.89-.9c-.3-.14-.98-.18-1.36-.28-.35-.09-1.01-.57-1.36-.58-.53-.02-1.03-.02-1.52-.12s-.34.22-.65.03l-2.69-1.55c-.48-.28-1.21-.12-1.66-.59l-1.74-.03c-.9-.01-.23-.92-1.59-.95s-2.21,0-3.25-.58c-2.12-1.17-2.37-.36-4.2-1.38l-1.4-.78c-.33-.18-1.3.07-1.47-.29-.46-.94-1.23-.71-2.02-.86-1.93-.38-1.47.31-2.03-.25-.39-.38-1.08-.5-1.56-.71-.78-.34-1.34-.51-2.24-.62-1.36-.16-2.65-.89-4.01-1.16-.6-.12-.95-.43-1.51-.74-.93-.51-2.25-.56-3.31-.91l-2.05-.67c-.59-.2-1.15-.4-1.71-.63l-1.45-.6c-.59-.24-1.32-.54-1.91-.68l-1.93-.49c-.21-.04-.81.31-.98.18-.2-.15-.48-.41-.81-.7l-1.31-.09c-.67-.35-1.35-.76-2.08-1-2.52-.83-5-1.69-7.57-2.33-.77-.19-1.38-.27-2.15-.61-.29-.13-.89-.23-1.23-.41-3.14-1.67-3.76-.59-5.06-1.25l-1.61-.81c-2.67-1.34-2,.14-2.87-.9l-1.5-.38c-.15-.04-.48-.04-.65-.02-1.23-.81-2.93-.86-3.75-1.28-.89-.46-1.64-.74-2.58-.92l-1.55-.29c-1.08-1.11-1.95-1.02-3.79-1.45-.43-.1-1.11-.64-1.47-.48-.52.22-.71.12-1.19-.07-.64-.25-1.32-.51-1.98-.71l-2.86-.91c-.57-.18-1.13-.21-1.63-.6-1.91-1.53-2.27-.32-3.26-.89-.75-.43-1.34-.7-2.26-.68-.34,0-.87-.43-1.17-.53-.4-.13-1.03-.17-1.3-.39-1.36-1.11-1.17.41-2.2-.53-.5-.46-1.02-.64-1.63-.75l-.9-.2c-.34-.08-.64-.5-1.03-.6l-2.54-.7c-.7-.19-1.24-.73-2-.75-2.27-.07-1.62-1.78-4.65-1.22-.32-.17-.82-.49-1.08-.6l-2.71-1.15c-.23-.08-.73-.18-.98-.23-.45-1.05-2.47-.65-3.29-.48-1.85.38-1.67.28-3.4,1.15l-1.34.67c-.65.33-1.21.63-1.82,1.03l-1.15.73c-.52.33-1.38.64-1.82,1.02-.5.54-.85.96-1.53,1.24l-.47.75c-.77.19-1.43.46-2,.92V.56h88.22ZM71.28,32.89c.27-.06.75-.25.66-.35l-.43-.48c-.12-.14-.6.26-.65.44-.04.15.26.42.42.39ZM92.16,138.86c-.41.36-.72.53-1.06.76-1.07.73-1.59,1.3-3.24,1.66-.63.98-1.52,1.78-2.53,2.36l-.76.43c-.37.21-.75.86-1.24.99-.65.16-1.09.63-1.61.9l-2.39,1.22c-.42.21-1.16,0-1.16.74l8.1.12,24.7-.11,12.32-.17,8.34-.18,4.54-.18,4.5-.19,5.45-.17,6.88-.17,5.05-.2,7.45-.16,4.86-.21,4.27-.13,2.72-.13,2.37-.12,6.31-.11,2.36-.13,2.19-.12,7.05-.08,7.08-.18,1.42-.15,10.95-.08,5.43-.21,7.1-.16,5.54-.22,6.1-.11,1.66-.13,1.83-.13,6.86-.1,2.37-.11,2.9-.15,4.14-.1,1.85-.16c3.02-.25,3.35-.08,6.74-.46,1.45-.16,2.96.1,4.35-.18s2.82-.18,4.29-.28l2.71-.18,2.19-.19,2.17-.19,2.72-.14,7.99-.64,2.69-.21,2.35-.21,5.98-.73,2.07-.25,4.65-.61,3.44-.54,2.04-.31,2.54-.44,2.6-.48,6.94-1.43,3.5-.8c1.02-.23,2.03-.45,3.03-.74l7.99-2.32,5.47-1.79c6.76-2.21,13.69-5.38,20.13-8.29l1.52-.69,2.72-1.27c.42-.2.8-.58.78-.97-.03-.41-.25-.81-.55-1.03-.73-.52-1.27-1.01-1.96-1.53l-1.63-1.23-1.98-1.66-4.3-3.49-3.08-2.37-6.16-4.54-1.94-1.42-7.83-5.27-9.05-5.46c-7.53-4.54-24.84-11.7-33.46-14.17l-3.12-.89c-17.87-5.1-47.17-9.43-65.79-10.91l-5.57-.44-4.42-.31-4.35-.19c-3.53-.15-6.99-.16-10.52-.01l-5.24.21c-4.34.18-8.58.66-12.91,1.8,1.06.31,2.82,1.01,3.47,1.41l2.49,1.54c-.06-.04,2.62,1.81,2.25,2l2.1,1.22c.11.62.3,1.11.93,1.13.92.03,1.22.8,1.74,1.37.42.46.83.94,1.15,1.54l.98.29,1.76,1.16c.04.4.13,1.12.36,1.52l.75,1.29c.09.16.18.62.33.71.51.33,1.26-.42,1.72.17l-.8.75,1.33.92c.26.18.68.83.81,1.13.1.58.21,1.48.44,2.01l-.63.28c.29.63.9,1.17,1.39,1.55.15.87.36,1.73,1.49,1.83-.16.42-.72,1.02-.96.81-.47-.4-.79-.75-1.27-.75.47.77.55,1.25.22,1.89l-.9-.51c-1.32-.75-1.06-1.34-2.63-1.87-1.89-.63-1.79-.22-3.3-.82-.71-.28-1.19-.91-1.79-1.33-.37-.26-1.17-.34-1.24-.93-.01-.12-.22-.41-.3-.37l-.37.21c-.18-1.4-1.93-1.07-2.62-1.67-.61-.54-1.42-.82-2.03-1.24-3.17-2.2-1.59-1.11-5.75-2.71l-3.46-1.33c-.98-.38-1.89-.51-2.92-.71-2.84-.55-8.9-1.79-11.54-1.26-1.49.3-3.01.7-4.35,1.29l-2.28,1-1.86.85c-.37.17-.9.38-1.2.57l-2.12,1.33-3.91,2.44c-.45.28-.87.9-1.33,1.17s-.85.59-1.26.88c-.91.65-1.8,1.19-2.55,2.03-.47.53-1.37.69-1.79,1.06l-1.56,1.38c-1.12,1-2.98,2.34-4.39,3.51-.12.1-.35.46-.49.54-.8.49-1.84,1.38-2.61,2.01l-2.72,2.21-1.56,1.15-2.63,2.29c-.39.34-.72.73-1.12,1.05l-2.23,1.76-1.26.92c-2.62,1.92-2.63,2.66-4.95,4.27-.43.3-.93,1.09-1.34,1.31-.52.28-.74.45-1.15.96-.31.39-1.2.51-1.58.91l-1.92,1.97c-.4.42-1.1.54-1.5.92-.7.64-1.32,1.6-2.12,1.97s-1.07.71-1.62,1.37c-.44.53-1.67.53-2,1.47-.14.4-.84.54-1.19.76-.52.34-.96.62-1.48.91l-.68.89c-.98.48-1.64,1.25-2.46,1.88-1.2.92-2.58,1.62-3.35,3.1-1.27-.14-2.11.69-2.84,1.65-.47.62-1.45.87-2.04,1.34l-2.11,1.69c-.77.61-1.99,1.03-2.54,1.77-1.35,1.83-.28-.08-3.59,2.79ZM42.47,83.38c-.12.18-.24.43-.12.45l.52.11c.12.03.04-.34-.02-.44-.04-.08-.34-.2-.39-.13ZM213.09,85.35l-.02.51.67.02.02-.51-.67-.02ZM36.03,87.76c-.09.08.02.56.11.48l.33-.31c.06-.06-.37-.23-.44-.17ZM37.47,89.19c-.09-.52-.22-.61-.51-.46l.51.46ZM34.9,91.62l-.72.11.17,1.12.72-.11-.17-1.12ZM35.03,97.56l-1.28-.44.16,1.84,1.13-1.4ZM24.57,115.18c.06-.04.12-.35.13-.42s-.2-.12-.25-.06l-.25.25c-.05.05-.13.22-.15.3-.01.05.14.16.19.13l.34-.19ZM23.28,115.88c.03.16.34.52.36.41l.07-.41c.01-.09-.45-.09-.43,0ZM390.63,117.63l-.46-1.18c-.21.5-.22.94.46,1.18ZM23.15,120.48c0-.22-.18-.4-.4-.4s-.4.18-.4.4.18.4.4.4.4-.18.4-.4ZM22.26,131.91c.72-.28.44-.38,0-.3-.04.3-.05.57,0,.3ZM24.03,135.55c.38-.11-.2-1.23-.5-1.05l-1.43.84c.51.22,1.23.39,1.93.22ZM69.56,140.63c0-.18-.14-.32-.32-.32s-.32.14-.32.32.14.32.32.32.32-.14.32-.32ZM22.35,140.86l-.52-.12c-.11-.02-.16.11-.27.43l.79-.32ZM66.56,142.43c-.1-.24-.18-.44-.14-.33l-.45.2c-.07.03.02.31.09.29l.5-.16ZM7.95,142.64c-.54-.65-1.14-.56-1.64-.26.55.38,1.13.46,1.64.26ZM64.41,143.58c-.05-.08-.1-.35-.19-.31l-.32.14c-.74.33-1.44.74-2.06,1.38.62.61,2.36-1.49,2.56-1.21ZM58.91,146.89l2.04-1.2.39-.23c.09-.05.05-.36-.05-.37s-.46,0-.58.08l-3.81,2.2c.37.36,1.51.42,2.02-.48ZM13.89,158.76l2.33-1.05c1.16-.52,2.62-.74,3.27-2-.98-.02-2.53-1.03-2.8-.65l-.48.67-2.47-.05,1.02.65c-.32.56-.44.95-.59,1.48-.07.25-.49.71-.27.94ZM32.83,161.08c.11,0,.22-.39.11-.39-.07,0-.36,0-.41.06l-.26.23s.43.09.56.1Z"/>
  <path class="cls-1" d="M434.24,151.82c-.53.07-.77,1.06-1.55,1.1-.3.02-.79-.28-1.03-.51l-2.52-2.38-4.27-4.25-.9-.9-4.4-4.28-3.98-3.8-2.46-2.27-2.98-2.81-5.34-4.81-2.73-2.53c-.87-.8-1.81-1.66-2.55-2.52-.64-.75.28-1.45.78-1.83l5.8-4.36c.86-.64,1.69-1.3,2.49-2.01l4.36-3.83c2.12-1.86,3.98-3.92,5.96-5.93l1.63-1.65,1.81-1.97,1.3-1.44,2.53-2.9,2.82-3.35c1.5-1.78,2.93-3.54,4.36-5.39.3-.38.53-.77.86-.99v65.58Z"/>
  <path class="cls-1" d="M434.24,77.34c-.27.67-.78,1.05-1.33,1.59-.74.72-1.36,1.68-1.99,2.53l-1.4,1.88-2.94,3.37-3.95,4.39-1.66,1.77-1.57,1.57-2.27,2.02c-.7.62-2.04,2.41-3.29,3.42-.46.37-.94.81-1.38,1.11-.66.46-1.29.87-1.92,1.39l-1.09.9c-.59.49-1.29.93-1.94,1.37-.44-.77.25-.95.6-1.3l3.22-3.26,1.91-1.9c.77-.77,1.47-1.62,2.33-2.37,1.15-1.01,2.18-2.02,3.19-3.16l3.38-3.84c1.11-1.26,2.38-2.2,3.21-3.72.5-.92,1.36-1.66,2.01-2.45l3.46-4.2c.71-.87,1.42-1.65,2.2-2.5.45-.49.73-1.28,1.24-1.66v3.06Z"/>
  <path d="M229.4,246.29c-.42.24-.77.32-1.17.27-.27-.03-.58-.35-.65-.91.75.18,1.21.36,1.82.64Z"/>
  <rect x="181.87" y="247.23" width=".81" height=".46" transform="translate(-99.82 125.46) rotate(-30.24)"/>
  <rect x="234.03" y="213.5" width=".82" height=".47" transform="translate(-75.44 145.75) rotate(-29.98)"/>
  <rect x="203.1" y="230.12" width=".76" height=".53" transform="translate(-51.38 58.55) rotate(-14.56)"/>
  <path d="M26.4,128.71l-.97.62c-.56-.6-.64-1.11-.28-1.64l1.25,1.02Z"/>
  <path d="M37.16,107.87s.31-.02.36-.03c.05,0,.14,0,.11.05-.05.07-.19.26-.26.27l-.64.13c-.17.03-.47-.31-.51-.51-.02-.12.36-.38.46-.31l.47.39Z"/>
  <path d="M30.54,123.49l-1.43.02c.27-.36.62-.51,1.1-.62l.33.61Z"/>
  <path d="M39.69,91.57l-1.5-.44c.38-.61,1.17-.39,1.5.44Z"/>
  <path d="M26.03,119.27c-.44.1-.96.11-1.4.04.39-.58.92-.65,1.4-.04Z"/>
  <path d="M25.46,120.87l.46-1.21c.25.29.39.54.32.69-.12.23-.35.4-.78.52Z"/>
  <path d="M25.33,132.92c.11.06-.03.38-.56.56-.08.03-.32-.09-.26-.15l.33-.37c.05-.05.21-.19.27-.16l.22.12Z"/>
  <path d="M26.83,138.08c-.49.14-.77.26-.83.12s.05-.48.16-.72l.67.6Z"/>
  <path d="M37.96,99.35l-.64-.91c.52-.12.7.28.64.91Z"/>
  <path d="M50.98,73.2c0-.07.38-.19.39-.13l.07.4c.01.07-.2.1-.26.1-.1,0-.21-.27-.21-.38Z"/>
  <path d="M60.63,56.78l-.35.27c-.07.05-.34-.22-.26-.26l.38-.22.25-.22c.05-.05.34.05.3.11-.07.08-.22.25-.31.32Z"/>
  <circle cx="182.85" cy="8.94" r=".33"/>
  <path d="M24.25,132.22c-.17.24-.54-.31-.4-.49.11-.15.51.35.4.49Z"/>
  <circle cx="40.86" cy="89.89" r=".3"/>
  <path d="M38.03,96.78c-.36.1-.38.1-.05-.04.08-.21.14-.41.18-.37l.28.3c.06.06-.26.1-.41.11Z"/>
  <circle cx="25.31" cy="122.37" r=".24"/>
  <path class="cls-1" d="M92.16,138.86c3.31-2.87,2.24-.96,3.59-2.79.55-.74,1.78-1.16,2.54-1.77l2.11-1.69c.59-.47,1.57-.73,2.04-1.34.73-.96,1.57-1.79,2.84-1.65.77-1.48,2.15-2.18,3.35-3.1.82-.63,1.48-1.4,2.46-1.88l.68-.89c.52-.29.96-.57,1.48-.91.35-.23,1.05-.37,1.19-.76.32-.95,1.56-.94,2-1.47.55-.66.85-1.01,1.62-1.37.8-.38,1.42-1.33,2.12-1.97.41-.38,1.1-.5,1.5-.92l1.92-1.97c.39-.4,1.28-.52,1.58-.91.41-.51.63-.68,1.15-.96.41-.22.91-1.01,1.34-1.31,2.32-1.61,2.33-2.35,4.95-4.27l1.26-.92,2.23-1.76c.4-.32.73-.71,1.12-1.05l2.63-2.29,1.56-1.15,2.72-2.21c.77-.63,1.81-1.52,2.61-2.01.13-.08.37-.44.49-.54,1.41-1.17,3.27-2.51,4.39-3.51l1.56-1.38c.42-.38,1.32-.53,1.79-1.06.75-.84,1.64-1.39,2.55-2.03.41-.29.78-.6,1.26-.88s.88-.89,1.33-1.17l3.91-2.44,2.12-1.33c.3-.19.83-.4,1.2-.57l1.86-.85,2.28-1c1.35-.59,2.86-.99,4.35-1.29,2.64-.53,8.71.71,11.54,1.26,1.03.2,1.94.33,2.92.71l3.46,1.33c4.16,1.6,2.58.51,5.75,2.71.6.42,1.41.69,2.03,1.24.69.61,2.44.27,2.62,1.67l.37-.21c.08-.04.29.24.3.37.07.58.87.66,1.24.93.6.42,1.08,1.04,1.79,1.33,1.51.6,1.41.19,3.3.82,1.58.53,1.32,1.12,2.63,1.87l.9.51c.33-.64.25-1.12-.22-1.89.48,0,.8.35,1.27.75.24.21.8-.4.96-.81-1.14-.1-1.34-.96-1.49-1.83-.49-.37-1.11-.92-1.39-1.55l.63-.28c-.23-.53-.34-1.43-.44-2.01-.13-.3-.55-.95-.81-1.13l-1.33-.92.8-.75c-.46-.59-1.22.16-1.72-.17-.15-.1-.23-.55-.33-.71l-.75-1.29c-.23-.4-.32-1.12-.36-1.52l-1.76-1.16-.98-.29c-.32-.6-.73-1.07-1.15-1.54-.52-.56-.82-1.34-1.74-1.37-.62-.02-.82-.51-.93-1.13l-2.1-1.22c.38-.19-2.31-2.04-2.25-2l-2.49-1.54c-.65-.4-2.42-1.1-3.47-1.41,4.33-1.13,8.56-1.62,12.91-1.8l5.24-.21c3.53-.14,6.99-.14,10.52.01l4.35.19,4.42.31,5.57.44c18.62,1.48,47.91,5.81,65.79,10.91l3.12.89c8.63,2.46,25.93,9.63,33.46,14.17l9.05,5.46,7.83,5.27,1.94,1.42,6.16,4.54,3.08,2.37,4.3,3.49,1.98,1.66,1.63,1.23c.69.52,1.23,1.01,1.96,1.53.3.22.53.63.55,1.03.02.38-.36.77-.78.97l-2.72,1.27-1.52.69c-6.45,2.91-13.38,6.08-20.13,8.29l-5.47,1.79-7.99,2.32c-1,.29-2.01.51-3.03.74l-3.5.8-6.94,1.43-2.6.48-2.54.44-2.04.31-3.44.54-4.65.61-2.07.25-5.98.73-2.35.21-2.69.21-7.99.64-2.72.14-2.17.19-2.19.19-2.71.18c-1.48.1-2.85-.01-4.29.28s-2.91.02-4.35.18c-3.39.38-3.72.2-6.74.46l-1.85.16-4.14.1-2.9.15-2.37.11-6.86.1-1.83.13-1.66.13-6.1.11-5.54.22-7.1.16-5.43.21-10.95.08-1.42.15-7.08.18-7.05.08-2.19.12-2.36.13-6.31.11-2.37.12-2.72.13-4.27.13-4.86.21-7.45.16-5.05.2-6.88.17-5.45.17-4.5.19-4.54.18-8.34.18-12.32.17-24.7.11-8.1-.12c0-.73.74-.53,1.16-.74l2.39-1.22c.51-.26.96-.73,1.61-.9.49-.12.87-.78,1.24-.99l.76-.43c1.02-.58,1.9-1.38,2.53-2.36,1.65-.37,2.18-.94,3.24-1.66.34-.23.64-.4,1.06-.76ZM215.7,85.75c-.2-.89-.48-.86-.73-.85-.16,0-.41.21-.57.44l1.3.41ZM215.27,92.52c0,.15.09.47.18.44l.27-.11c.08-.03-.07-.26-.12-.33-.03-.05-.33-.06-.33,0Z"/>
  <path class="cls-1" d="M13.89,158.76c-.22-.24.2-.7.27-.94.15-.53.27-.91.59-1.48l-1.02-.65,2.47.05.48-.67c.28-.38,1.83.63,2.8.65-.65,1.26-2.11,1.48-3.27,2l-2.33,1.05Z"/>
  <path class="cls-1" d="M58.91,146.89c-.51.9-1.65.84-2.02.48l3.81-2.2c.12-.07.48-.09.58-.08s.14.32.05.37l-.39.23-2.04,1.2Z"/>
  <path class="cls-1" d="M24.03,135.55c-.7.18-1.42,0-1.93-.22l1.43-.84c.3-.17.88.94.5,1.05Z"/>
  <polygon class="cls-1" points="35.03 97.56 33.91 98.97 33.75 97.13 35.03 97.56"/>
  <path class="cls-1" d="M64.41,143.58c-.2-.28-1.94,1.82-2.56,1.21.62-.64,1.32-1.05,2.06-1.38l.32-.14c.08-.04.13.24.19.31Z"/>
  <path class="cls-1" d="M71.28,32.89c-.15.03-.46-.24-.42-.39.05-.18.53-.58.65-.44l.43.48c.09.1-.39.29-.66.35Z"/>
  <rect class="cls-1" x="34.26" y="91.67" width=".73" height="1.14" transform="translate(-13.37 6.19) rotate(-8.57)"/>
  <circle class="cls-1" cx="22.75" cy="120.48" r=".4"/>
  <path class="cls-1" d="M7.95,142.64c-.51.2-1.09.12-1.64-.26.49-.3,1.1-.39,1.64.26Z"/>
  <path class="cls-1" d="M42.47,83.38c.05-.07.34.05.39.13.06.11.14.47.02.44l-.52-.11c-.12-.03,0-.27.12-.45Z"/>
  <path class="cls-1" d="M390.63,117.63c-.68-.24-.68-.68-.46-1.18l.46,1.18Z"/>
  <rect class="cls-1" x="213.16" y="85.29" width=".51" height=".67" transform="translate(121.12 296.23) rotate(-88.2)"/>
  <path class="cls-1" d="M24.57,115.18l-.34.19s-.2-.09-.19-.13c.02-.07.1-.24.15-.3l.25-.25c.05-.05.26-.01.25.06s-.06.39-.13.42Z"/>
  <path class="cls-1" d="M23.28,115.88c-.02-.09.44-.08.43,0l-.07.41c-.02.11-.33-.25-.36-.41Z"/>
  <circle class="cls-1" cx="69.24" cy="140.63" r=".32"/>
  <path class="cls-1" d="M37.47,89.19l-.51-.46c.29-.16.42-.06.51.46Z"/>
  <path class="cls-1" d="M32.83,161.08c-.13-.01-.61-.06-.56-.1l.26-.23c.05-.05.34-.05.41-.06.11,0,0,.4-.11.39Z"/>
  <path class="cls-1" d="M36.03,87.76c.06-.06.5.11.44.17l-.33.31c-.08.08-.19-.4-.11-.48Z"/>
  <path class="cls-1" d="M22.26,131.91c-.06.27-.04,0,0-.3.44-.08.73.02,0,.3Z"/>
  <path class="cls-1" d="M22.35,140.86l-.79.32c.11-.32.16-.46.27-.43l.52.12Z"/>
  <path class="cls-1" d="M66.56,142.43l-.5.16c-.08.02-.17-.26-.09-.29l.45-.2c-.04-.11.04.09.14.33Z"/>
  <path d="M215.7,85.75l-1.3-.41c.16-.22.41-.43.57-.44.25,0,.53-.04.73.85Z"/>
  <path d="M215.27,92.52c0-.06.29-.05.33,0,.05.08.21.3.12.33l-.27.11c-.09.03-.17-.29-.18-.44Z"/>
</svg>