<?xml version="1.0" encoding="UTF-8"?>
<svg id="Layer_2" data-name="Layer 2" xmlns="http://www.w3.org/2000/svg" viewBox="0 0 432 288">
  <defs>
    <style>
      .cls-1 {
        fill: #fff;
      }
    </style>
  </defs>
  <path class="cls-1" d="M0,2.29h432v288H0V2.29ZM254.5,115.66l3.03-5.51c.9-1.63,2.09-3.13,3.12-4.75.75-1.18,1.48-2.26,2.41-3.35l.58-1.06c.54-.4.97-.77,1.45-1.23l1.33-1.27c.1-.1.37-.2.48-.24.08-.02.23.51.16.6-1.05,1.36-2.35,3.9-3.31,5.53l-1.44,2.46-3.05,4.84c-1.68,2.67-2.95,5.42-4.57,8.12l-2.37,3.94c-.86,1.43-1.51,3.1-2.26,4.65l-2.62,5.41c-.23.48.69,1.22,1.15,1.33.4.1,1.22-.28,1.46-.74l1.58-2.99,1.96-3.54c.62-1.12,1.15-2.36,1.85-3.43.64-.98,1.31-1.96,1.75-3.01.34-.81.83-1.17,1.24-1.94l1.64-3.1c.26-.49.84-.99.92-1.45.28-1.73,1.48-2.49,2.33-3.68.38-.54.71-1.43,1.18-1.93l1.51-1.65c.69-.75,1.27-2.17,2.19-2.54.15-.06.69.27.6.42l-3.28,5.42-1.88,3.19-3.15,5c-.75,1.2-1.45,2.38-2.13,3.63l-2.22,4.04-2.15,3.84c-1.36,2.42-2.55,4.84-3.61,7.44-.51,1.25,1.46,2.16,1.63,2.01.57-.53,1.6-1.71,1.93-2.54,1.3-3.29,3.01-6.11,4.79-9.15l1.49-2.54c.61-1.03,1.22-2.2,1.77-3.26.65-1.25,1.75-1.93,2.5-3.17l1.57-2.6,1.53-1.64.25.38-2.96,5.32-.17.31-.17.31-.17.3c-.04.08-.15.25-.19.31-2.48,3.29-4.4,6.99-6.4,10.56l-4.84,8.64c-1.17,2.09-2.14,4.16-2.98,6.28,0,.47.93,1.48,1.27,1.24.57-.4,1.29-.94,1.65-1.27l1.43-2.66c.95-1.76,1.66-3.52,2.9-5.07.75-.93,3.98-6.41,4.82-7.69l1.99-3.05c.27-.41.66-.67,1.12-1.1,1.54-1.42,1.47-2.79,2.58-2.67.1.01.12.38.06.46l-1.92,2.73c-.92,1.31-1.46,2.67-2.34,3.95l-3.63,5.25c-.43.63-.83,1.47-1.23,2.15l-4.9,8.28c-.7,1.19-1.18,2.71-1.66,4.04l-1.17,3.26c-.25.7.19,1.37.93,1.73.32.15,1.01.26,1.21.03l.87-1.03c.92-.91-.74,2.25-.98,2.88l-1.4,3.71c-.12.33.09,1.26.43,1.34.47.12,1.58.07,1.84-.33.74-1.14,1.63-2.76,2.09-4.07.77-2.21,1.81-2.87,3.05-4.87.47-.76.65-1.89,1.3-2.58,1.18-1.24,1.7-2.74,2.68-4.07l1.79-2.41c.57-.76.64-1.13,1.33-1.72.85-.73,1.59-1.9,2.41-2.9.36-.01.72.06.38.31l-2.92,4.71-3.06,4.61c-1.15,1.74-2.27,3.47-3.32,5.29l-2.2,3.83-1.89,3.39c-1,1.79-2.05,3.43-2.89,5.29-.44.99-.88,2-1.38,2.95-.19.36-2.18,3.74-.77,4.19l1.47.47-1,1.95c-1.17,2.27-2.35,4.53-3.38,6.89l-1.19,2.72c-.12.28-.08,1,.11,1.24s.86.41,1.26.35c.92-.14,1.65-.96,2.07-1.79l2.18-4.3,5.21-8.69c1.66-2.76.36-1.71,2.81-4.67.53-.64,3.69-5.13,3.73-4.78,0,.08.09.28.05.35l-.18.35-1.84,3.48c-.79,1.5-1.71,2.91-2.61,4.33l-1.22,1.93c-.94,1.5-1.8,2.97-2.64,4.55l-3.34,6.25-1.19,2.43-1.8,3.96c-.35.76-.58,1.66-.49,2.51.59.25,1.47.48,2.1.59.84-1.78,1.51-3.28,2.41-4.91l2.49-4.5,1.64-2.04c.7-.87.95-1.64,1.69-2.74.02.02.1.37.12.52-1.28,1.9-2,3.78-3.09,5.66l-3.43,5.91-1.92,3.6c-1.01,1.9-1.76,3.84-2.52,5.89-.24.65-.71,1.65-.34,2.32.28.52,1.62.81,2.05.73.36-.79,2.78-5.67,2.83-5.73,1.08-1.52,1.6-3.2,2.5-4.79.58-1.01,1.67-1.93,1.96-3.3.1-.47.81-1.26,1.07-1.71l1.41-2.5c.35-.63.84-1.42,1.3-2.01l3.17-4.01c.49-.62.75-1.44,1.7-1.58l-2.44,4.44c-1.24,2.26-2.63,4.36-3.94,6.6l-3.26,5.61-3.92,6.89-2.07,3.9c-.79,1.49-1.1,3.36-1.74,5.02-.12.32.04,1.17.27,1.39s.78.41,1.2.35c.6-.09,1.13-.6,1.33-1.11,1.23-3.17,1.1-3.69,3.09-6.52.74-1.05,2.79-4.28,3.17-5.18.51-1.23.81-2.41,1.75-3.35,2.04-2.04.92-2.66,3.69-5.39l1.11-1.1.17.34c-.78,1.42-1.28,2.73-2.1,3.98l-1.53,2.33c-1.8,2.75-2.92,5.76-4.63,8.55l-1.27,2.07-4.02,8c-.83,1.65-3.57,8.13-3.54,9.94l1.47.62c.13.05.45.12.59.14.09,0,.33-.26.37-.35l2.64-6.15c.63-1.47,1.34-2.79,2.08-4.2.16-.29.64-.85.71-1.2.5-2.5,1.66-2.39,3.13-5.68.59-1.33,1.13-2.4,2.11-3.49.72-.81.91-2.33,1.69-3.03l2.52-2.27c1.39-1.93-2.29,4.4-1.14,2.63l-4.17,6.4-3.73,6.6c-1.19,2.1-2.33,4.02-3.38,6.21-1.92,4.02-3.44,8.02-4.37,12.4-.2.96-.25,2.04-.13,3.01l1.52.49c.13.04.41.32.33.42-.05.07-.27.34-.31.43l-1.08,2.67c-.99,2.46-1.92,3.25-1.11,4.78.29.55,1.58,1.09,2.05.52l1.49-3.78,1.22-3.36c1.55-4.26,2.95-5.03,5-8.96.49-.95.96-1.95,1.49-2.82.73-1.21,1.41-2.24,2.01-3.54.46-.98.8-1.37,1.64-1.61.43-.12-1.28,3.06-1.5,3.44-1.07,1.84-1.98,3.63-2.87,5.54l-1.83,3.92-3.01,5.61-2.38,4.82c-1.1,2.22-2.09,4.37-2.23,6.94-.03.64,1.17,1.63,1.76,1.53l.76-.13c.13-.02,0,.38-.07.54l-1.41,3.15c-.27.6-2.11,4.78-1.17,4.99l1.91.5c-.58,1.69-2.32,3.45-1.95,5.61.09.5,1.57.7,2.06.48.69-1.54,1.17-3.42,1.98-4.89.63-1.15,1.19-2.17,1.75-3.33l1-2.08,2.18-4.34c.57-1.14,2.73-4.73,3.79-5.22.38-.18-.75,1.81-1.11,2.65-1.75,4.11-3.02,5.79-4.84,9.55-1.47,3.04-2.03,4.8-3.07,8.01-.29.89.69,1.38,1.44,1.4.31.01.96.01,1.06-.21l.41-.96.19-.43c.03-.07.2.09.24.17-.02.73.38,1.29,1.18,1.36.66.05,1.07-.3,1.32-1.02l2.21-6.44c.92-2.69,1.72-5.34,2.86-7.95.7-1.61,1.37-3.15,1.83-4.78l-.78-1.22c.41-2.09,2.63-4.39,1.61-5.63-.34-.42-1.21-.78-1.81-.64-.52.13-.83.89-1.23,1.35l-1.87,2.15c-.06.07-.22.3-.27.37-.05.06-.26.09-.24.02l.18-.44.49-1.19c.95-2.31,2.09-4.41,3.13-6.76l1.21-2.74c.46-1.03,1.46-3.84.07-4.3l-.52-.17c-.09-.03.01-.47.06-.56,1.34-2.45.69-.3,1.83-3.91.3-.95-.29-1.61-1.11-1.85-1.36-.41-1.67.98-2.84,2.95l-3.62,6.05c-.2.38-.24.41-.33-.13l.41-.81,3.5-6.81,5.24-10.33c.6-1.18.11-2.55-.88-2.7-.08-.01-.66-.01-.7.03l-2.28,2.54s-.17.32-.21.38l-.25.41c0-.31.13-.87.35-1.26l2.03-3.54,1.7-3.09c.45-.83,2.83-4.64,1.97-5.54s-2.18-.51-2.87.34-1.48,1.64-2.29,2.51c-.89.96-1.61,2.04-2.44,3.05l-.05-.46c.37-1.25,1.17-1.82,1.83-2.82l2.57-3.86c1.08-1.62,2.02-3.28,2.94-4.97s1.75-2.53,1.35-3.13c-.18-.27-.73-.64-1.09-.8-.93-.4-1.4.2-1.98.75-2.42,2.33-2.43,2.78-5.11,5.23,0,.06-.05-.32-.07-.51.71-1.97,7.98-11.27,6.5-12.69-1.03-1-2.65-.26-3.34.64-.73.96-1.55,1.62-2.47,2.35-.2-.96.21-1.47.68-2.19l.94-1.45c.53-.82,1.11-1.44,1.56-2.3l1.66-3.13c.87-1.64,2.14-3.05,1.48-5.1-.31-.28-1.27-.79-1.75-.72-.73.11-.98,1.15-1.35,1.55l-3.72,4.01s-.21,0-.23-.01.09-.36.16-.46l2.26-3.32c.76-1.11,1.31-2.19,1.99-3.42.42-.76-.77-2.27-1.61-1.78-2.57,1.48-2.54,2.71-4.79,4.44.69-1.93,1.74-3.34,2.77-5.01l2.4-3.88c.39-.62.96-1.3,1.26-2.01l1.66-3.89c.23-.55.16-1.52-.3-1.92-.36-.31-1.3-.6-1.81-.45l-3.08,3.52c.66-1.57,1.53-2.78,2.46-4.13.49-.71.86-1.75,1.39-2.41,1.1-1.39,2.41-2.48,2.66-4.35.08-.6-.41-1.37-.95-1.57-1.04-.4-2.2,1.14-2.81,1.95l-2.49,3.27c-.52.68-1.07,1.27-1.88,2.01.37-1.16.82-2.41,1.59-3.25l1.04-1.14c1.64-1.8,2.58-4.24,4.03-6.28l2.49-3.51c.47-.67.8-1.49,1.21-2.21.74-1.3,1.96-2.78,1.43-4.43-.29-.92-1.92-.76-2.49-.23l-1.26,1.18c-.45.42-.88.85-1.38,1.03l1.92-3.37c.82-1.45,1.35-1.69,2.52-3.67l1.54-2.61c.24-.4.38-1.2.22-1.56s-1.32-.76-1.64-.46l-2.7,2.48c-1.42,1.3-1.71,2.05-3.05,3.67l-3.01,3.64-4.1,5.39c.06-1.66,2.31-3.78,2.84-4.65l1.56-2.59,2.82-4.08c.74-1.06,1.6-2.16,2.22-3.25.89-1.57,1.68-3,2.79-4.44.56-.73,3.24-4.17,1.63-4.66-.77-.23-1.24,0-1.77.38-1.37,1-2.78,1.86-3.86,3.13-1.18,1.37-2.34,2.52-3.79,3.76.73-1.27,1.36-2.33,2.16-3.46l2.09-2.95,1.94-3.57,1.55-2.33c.49-.74.76-1.44.97-2.49.1-.5-.63-1.27-1.1-1.33-.73-.1-1.18.32-1.79.75-.42.29-1.3.62-1.58.98l-1.14,1.45c-.26,0-.56-.09-.21-.24l4.29-7.12c.77-1.28,1.75-2.46,1.14-4.08l-1.98-.53c-.62.39-1.32.81-1.86,1.22l-1.38,1.06-.03-.41c1.66-1.6,2.75-5.26,3.56-7.53-.35-.43-1.01-.93-1.51-1.09-.87-.28-1.61.97-2.91.95l1.32-1.81c.84-1.15,1.54-2.15,1.59-3.79-.74-.16-1.89-.24-2.58-.1-1.58,1.5-2.91,2.86-4.76,3.96l3.9-5.77c.82-1.22,4-5.54,3.01-6.73-.66-.79-2.41-.41-3.08.13l-3.23,2.62c.03.19-.13-.12-.19-.29l1.46-2.07c.25-.35.58-.97.37-1.5-.32-.83-1.68-.94-2.37-.48-1.57,1.04-2.66,2.42-3.95,3.74l-1.32,1.35-1.48,1.57c-.08.08-.45.2-.42.11s.13-.51.19-.6l2.87-4.75,1.38-1.48,3.25-5.28c-.14-.8-1.28-1.23-2.06-1.18-.86.06-1.3.72-1.94,1.39l-3.63,3.8-1.27,1.82-2.13,2.44-1.2,1.43s-.21-.35-.23-.37l7.91-12.11c.97-1.48,5.04-6.19,3.81-7.85-.29-.39-1.31-.39-1.75-.2l-.52.22c-.06.02-.1-.25-.09-.32l.08-.98c.02-.22-.62-.44-.89-.5-.98-.2-1.61.49-2.25,1.15l-4.35,4.48c-1.2,1.24-1.85,3.02-3.78,3.64l4.13-5.46c.56-.74.95-1.54,1.66-2.19s1.26-1.43,1.86-2.24,1.63-1.52,1.49-2.77c-.08-.72-1.64-1.42-2.29-.94-.71.52-1.32,1.16-1.85,1.79-.68.82-1.43,1.42-2.15,2.18l-5.22,5.47c.81-1.69,1.79-3.06,2.82-4.51l3.01-4.21,1.45-1.88,2.5-3.29c.56-.74,1.53-1.75.9-2.81-.23-.38-1.32-.54-1.76-.36-.39.16-.73.75-1.18,1.2-2.16,2.22-2.64,1.63-4.79,4.8-.43.63-1.23,1.23-1.82,1.73l-1.61,1.37c.68-1.42,1.69-2.33,2.54-3.51l2.33-3.23c.64-.88,2.39-3.07.91-3.92-1.37-.79-2.91,1.5-3.66,2.37l-4.12,4.8-1.79,2.23-1.94,2.15c-.06.07-.35.35-.37.26l-.07-.35c-.02-.08.08-.42.14-.5l1.5-1.99,2.38-3.44c1.1-1.6,1.68-2.9,2.97-4.47,1.58-1.92,3.07-3.77,4.52-5.8.47-.66.86-1.21.47-1.79-1.41-2.12-3.98,1.44-4.75,2.32s-1.57,1.65-2.46,2.33-1.49,1.55-2.22,2.36c-.89.97-1.72,1.92-2.56,2.96l-1.18,1.47-.26.32c-.05.06-.28.08-.26,0,.39-1.29,1.89-3.54,2.74-4.79l1.98-2.89,3.79-5.05c1-1.33,2.01-2.72,2.8-4.25.37-.71-1.58-1.48-2.06-1.06l-3.71,3.29c-.67.6-1.17,1.12-1.75,1.91-.53.71-1.64,1.29-2.26,1.97l-2.5,2.8-2.15,2.43c-.8.9-1.51,1.8-2.25,2.77l-.25.32c-.05.06-.4-.02-.35-.08s.24-.28.29-.36l1.8-2.96c.31-.5.8-1.03,1.13-1.5l2-2.8,1.29-1.55c.99-1.18,1.74-2.36,2.87-3.41.84-.79,3.77-3.91,2.89-4.86-1.1-1.18-3.03-.13-3.39,1.21-2.43,2.13-2.32,1.33-4.47,4-.52.65-1.24,1.38-1.9,1.88-1.29.98-2.14,2.16-3.17,3.35-1.23,1.42-2.4,2.66-3.43,4.22l-1.12,1.7c-.04.06-.3.29-.36.33-.06.04-.25.06-.23,0l.18-.46c1.1-2.74,2.1-5.44,3.94-7.83l3.11-4.04c1.03-1.33,1.95-2.59,3.09-3.85l2.17-2.39,1.71-1.9c.54-.6.94-1.56.51-2.3-.37-.15-1.56-.29-1.95-.03l-4.11,3.49c-1.19,1.01-2.17,1.89-3.22,3.07-.87.97-2.14,1.67-3.11,2.63-1.07,1.05-1.47,1.97-2.23,2.48-.09.06,0-.39.05-.47l1.25-1.74c.54-.75,1-1.61,1.57-2.26l1.94-2.17c.77-.86,1.45-1.72,2.17-2.62l2.27-2.81c.59-.74,1.56-1.36,2.16-2.16.23-.6-.97-1.85-1.6-1.63-.99.34-1.62,1.18-2.32,1.8l-2.46,2.17c-.76.67-1.45,1.55-2.15,2.36l-1.22,1.4c-1.3,1.49-.16-5.69-.13-6.23-1.5-.05-2.47.9-3.32,1.86l-2.36,2.7c-1.41,1.62-1.78,4.32-3.56,5.47l-4.01,2.59,3.38-4.64c.3-.41,1.11-.93,1.52-1.3.81-.72,1.38-1.45,2.08-2.29.63-.74,1.65-1.45,2.23-2.32.2-.31-.35-1.2-.68-1.35-1.5-.67-3.77,1.18-4.92,2.28-.87.84-2.19,1.37-3.16,2.11l-3.27,2.48-2.45,1.94c.76-1.48,2.2-2.13,3.33-3.21l4.28-4.1c1.05-1,2.54-1.64,2.78-3.24l-1.05-1.4c-.33-.45-.97-.83-1.49-.82-.57,0-1.04.4-1.5.83l-2.09,1.97c-1.08,1.02-1.9,2.32-2.98,3.28-.89.79-1.63,1.54-2.42,2.39l-3.11,3.37c-.22.24-.74.56-.8.83-.19.84,1.4.99,1.29,1.66-.05.31-1.35,1.37-2.17,2.3l-3.25,3.67c-.51.57.03,1.28.72,1.6.45.21.83-.07,1.41-.68,2.03-2.12,3.28-2.82,5.22-4.77.48-.48.74-.78,1.37-1.15,2.95-1.75,4.79-4.55,7.36-4.97.08-.01.05.29.01.37l-2.48,2.61c-1.87,1.97,0,.42-2.7,3.03l-1.6,1.55-1.78,1.8c-1.26,1.27-2.75,2.18-3.97,3.49-2.14,2.3-2.52,1.69-3.99,3.45-1.13,1.35-2.22,2.49-3.55,3.64-.43.37-.78,1.59-.19,1.81.5.19,1.57.17,2,0l2.48-1.62c.92-.6,1.63-1.74,2.6-2.4,3.09-2.08,2.39-2.49,4.72-4.14,1.2-.85,2.2-1.77,3.3-2.69l3.14-2.65c.49-.41.94-.83,1.48-1.17l1.56-.97c.09-.06.59-.07.56.03-.49,1.55-2.31,2.5-3.15,3.25l-1.78,1.58c-1.43,1.27-2.94,2.29-4.36,3.57l-3.76,3.4c-3.35,3.03-6.62,6.05-8.25,10.3-.37.95-1.27,2.18-.2,3.13.91.8,2.42.21,3.07-.76l1.28-1.91c.45-.67,1.16-1.42,1.73-2.05l2.83-3.17,2.52-2.76c.46-.51,1.04-1.07,1.56-1.56.2-.18,4.7-3.92,5.26-3.51-1.84,1.96-3.5,3.74-5.39,5.53-1.14,1.08-2.13,2.16-3.21,3.31l-1.49,1.6c-1.45,1.56-2.55,3.15-3.86,4.81l-1.47,1.85-3.13,4.83c-.24.37-.63,1.02-.61,1.44.03.55,1.86,1.38,2.43,1.01.47-.31,1.02-2.71,3.6-4.71.94-.73,1.58-1.63,2.37-2.45,1.2-1.24,2.29-2.46,3.43-3.78,1.52-1.76,3.8-2.74,5.52-4.28,1.02-.91,1.94-1.78,3.42-1.97-.7.82-1.43,1.31-2.22,1.96l-3.39,2.8c-1.04.86-2.12,1.56-3.05,2.51s-1.75,1.76-2.57,2.7l-1.25,1.42c-2.19,2.49-4.12,5.18-5.83,8.05l-2.62,4.38c-.11.66.69,1.99,1.4,2.04.86.07,1.77-.67,2.22-1.33,1.38-2,3-3.46,4.73-5.11l1.83-1.76c.65-.62,1.29-1.07,2.03-1.62l3.49-2.6c.11-.08.42-.2.5-.24s.14.5.08.56l-1.79,1.47c-1.16.95-2.07,2.09-3.09,3.14l-1.43,1.46c-2.17,2.21-2.21,2.51-4.06,4.55-2.62,2.89-5.05,5.94-6.5,9.56-.64,1.6-1.1,3.32-1.97,4.81-.15.51.75,1.64,1.28,1.56,1.44-.22,2.2-1.38,3.06-2.26,2.23-2.26.07-.77,3.53-4.16,1.17-1.15,2.15-2.29,3.22-3.53,1.8-2.08,2.33-2.01,4.03-4.11.3-.36.81-.95,1.15-1.19l2.88-2c-.32.75-.84,1.46-1.49,1.91-1.81,1.28-2.89,3.21-4.34,4.78-1.75,1.89-3.3,3.67-4.85,5.72l-5.26,6.97c-1.22,1.62-2.65,3.08-3.25,5.13-.13.44-.6,3.54,1.38,3.8.27.03.25.81.03,1-.8.68-1.24,1.65-1.77,2.57-1.59,2.71-4.7,7.08-5.7,9.4-.27.63,1.59,1.81,2.07,1.36.85-.81,1.77-1.68,2.45-2.57l1.37-1.78,3.56-4.61,2.64-2.84,1.33-1.58c.77-.92,1.64-1.68,2.52-2.51,1.1-1.04,1.81-2.37,3.57-2.8-.36.78-.85,1.3-1.42,1.87-1.7,1.68-1.8,2.19-3.53,4.12-1.99,2.22-3.32,4.82-4.94,7.29l-2.38,3.64c-.74,1.13-1.54,2.18-2.15,3.38-1.18,2.32-2.41,4.56-3.27,7-.38,1.07-.22,1.89.7,2.46.64.39,1.7.35,2.3-.48,2.17-3.02,3.34-3.86,5.39-6.75,2.27-3.2,3.8-4.09,3.95-4.28l1.95-2.5c.15-.19,3.35-3.09,3.78-3.46l1.3-1.13,2.03-1.7c.48,1.15-2.6,3.84-3.95,5.56l-2.73,3.5c-.85,1.09-1.93,2.13-2.7,3.23-.65.95-1.18,1.84-1.9,2.73-1.1,1.37-2.17,2.79-3.16,4.25l-3.11,4.59c-3.56,5.26-5.37,9.02-7.49,15.09.6.42,1.63.84,2.19.76,1.59-.83,2.01-2.46,2.97-3.8l3.77-5.31,1.1-1.78c1.34-2.18,3.03-3.59,4.78-6.23.97-1.46,1.8-2.72,3.22-3.79.64-.49,1.19-1.28,1.74-1.8l1.55-1.49c.08.05.33.21.32.2l-1.08,1.34-2.7,3.52-1.69,2.14c-.78.99-1.44,2.11-2.17,3.17l-3.12,4.52c-.97,1.4-1.74,2.85-2.61,4.33l-2.6,4.42c-.93,1.58-3.64,5.89-4.2,7.47l-.8,2.28c.68.35,1.54.81,2.3.83s2.15-3.35,2.58-4.05l3.82-6.07c1.72-2.74,1.72-2.94,3.99-5.55l2.58-2.98,1.6-1.95c.77-.94,1.56-1.7,2.59-2.77.09,1.46-1.84,3.61-2.97,5.27-1.56,2.29-1.89,2.12-3.22,4.66-.57,1.09-1.28,1.87-1.99,2.82l-2.96,4c-.51.69-.95,1.65-1.42,2.37l-2.77,4.23-1.85,3.21c-.96,1.66-3.02,5.22-3.14,7.07.8.26,1.66.49,2.3.58,2.47-3.01,1.43-3.24,3.93-6.49.78-1.02,1.48-2.04,2.18-3.13l1.04-1.62,1.86-3.01c.27-.44.96-1.18,1.38-1.6,3.72-3.7,3.4-4.86,7.73-8.04-.8,2.51-3.41,4.5-5.1,7l-1.85,2.73-1.88,2.71-1.49,2.06-4.59,7.23-1.54,2.28c-.99,1.45-8.62,14.05-6.79,14.86l1.98.88,2.11-3.34c.87-1.37,4.22-7.33,4.2-7.31,1.84-2.44,3.46-4.81,5.02-7.41.53-.88,1.42-1.57,2.08-2.24l1.6-1.61c-.33,1.2-.91,1.92-1.54,2.84l-3.43,4.99-1.06,2.03-1.56,2.31c-1.98,2.92-3.79,5.78-5.51,8.88-1.59,2.86-3.52,5.14-4.95,8.69.7.51,2.13.91,2.66.32.5-.56,1.15-1.27,1.5-1.84l2.76-4.47,1.38-2.24c.45-.73.92-1.47,1.46-2.15.98-1.21,1.7-2.42,2.54-3.72.67-1.04,1.91-1.87,2.41-3.05.33-.77.71-1.26,1.29-1.85l2.63-2.71c.21-.22.69-.36.58-.04l-1.57,2.76c-.26.46-.71,1.09-1.07,1.52-1.79,2.16-3.21,4.42-4.84,6.69s-3.28,4.39-4.78,6.77l-1.09,1.73-3.5,5.14c-.55.8-1.06,1.78-1.37,2.7l-1.68,4.96c.22.77,1.49,1.02,2.17.73.58-.25.98-.99,1.41-1.66.59-.91,1.12-1.69,1.64-2.68.25-.48.69-.88,1.06-1.33,3.07-3.72,2.9-4.96,6.13-8.51.8-.88,1.36-2.2,2.22-3.01,1.91-1.82,2.13-2.43,4.04-3.61-.89,1.72-1.71,3.18-2.72,4.72l-3.62,5.51-4.38,6.84-5.27,8.88c-.75,1.27-2.65,4.96-2.04,6.32.43.97,1.75.55,2.87.67l-1.41,1.55c-.41.45-.88,1.07-1.23,1.59l-1.08,1.58c-1.48,2.15-3.2,5.25-4.02,7.63-.47,1.35.07,3.42,1.19,3.95,1.63.77,2.87-.75,3.66-1.84l1.84-2.52,2.09-2.99c-.38,1.96-3.73,6.43-3.97,6.87l-2.85,5.32c-.32.6-.59,1.11-.89,1.78l-1.7,3.8c-.21.47.55,1.62,1.06,1.65.87.06,1.77.07,2.56.07l2.7-4.31,1.85-2.9c.52-.81,1.02-1.51,1.73-2.21-.14,1.79-1.12,2.97-1.89,4.42l-1.83,3.45c-2.14,4.03-3.67,4.89-4.67,10.21.23.76,2.07,1.34,2.62.75.36-.39.82-.97,1.06-1.34l1.9-2.94,1.59-2.27c.52-.74.89-1.44,1.37-2.3l2.24-4.01c.08-.06.54-.14.52-.04s-.03.6-.11.76l-2.44,5c-1,2.04-1.99,3.84-2.7,5.96l-.62,1.83c-.24.72-.11,1.52.36,1.99.33.33,1.31.51,1.88.11,1.73-1.2,1.85-3.38,3.41-3.99-.34,1.75-1.33,2.96-2,4.53l-1.3,3.04c-.1.24-.17.89-.11,1.13.1.42,1.19.79,1.49.87.16.05.59-.35.68-.52,1.4-2.67,1-4.28,2.04-6.28.82-1.57,1.39-3.09,2.09-4.73.35-.82,1.01-1.68,1.33-2.64.52-1.57,1.21-3,2.04-4.42.13-.21.25-.87.14-1.08s-.59-.48-.89-.54c-1.12-.23-2,.83-2.39,1.83-.35.9-.95,1.58-1.48,2.36l-2.24,3.28c-.48.7-.79,1.47-1.45,2.05.53-1.48,1.3-2.55,1.67-3.94.31-1.17.85-2.1,1.38-3.18l1.34-2.76,3.91-7.13,1.7-3.36c.61-1.21,1.18-2.54,1.44-4-.25-.52-1.24-.81-1.82-.76-.49.04-1.11.58-1.37,1.07-.61,1.15-1.25,2.05-1.94,3.13l-.84,1.32-2.35,3.65c-1.55,2.41-2.76,4.91-4.74,7.09.96-2.7,2.64-5.92,4-8.29l2.81-4.89c.69-1.21,1.48-2.32,2.24-3.48l2.08-3.23c.98-1.51,1.75-3.27,2.5-4.96.15-.34.06-1.23-.1-1.53s-.9-.57-1.26-.53c-1.44.14-2.04,1.31-2.69,2.34l-2.6,4.12-2.91,4.27c-.6.88-.97,2.05-1.65,2.92l-2.33,2.98c-2.27,2.91-3.69,6.19-5.03,7.59-.06.06-.14-.51-.09-.62l1.79-3.83,2.89-5c.66-1.15,1.01-2.43,1.85-3.44,1.04-1.26,2.24-2.31,3.01-3.73l2.2-4.02c.45-.82,1.17-1.4,1.68-2.16l1.83-2.73,2.04-3.27c.87-1.39,1.91-3.04,1.64-4.79-.2-.34-1.11-.59-1.52-.5-.37.08-.79.56-1.12.97l-1.39,1.72-2.67,3.34-1.71,2.16c-1.16,1.46-3.11,4.85-4.82,6.9-1.13,1.35-2.17,2.46-2.81,4.2-.26.7-.99,1.35-1.43,1.88-.74.9-1.38,1.85-2.43,2.53.08-2.57,1.46-4.3,2.45-6.28.53-1.05.8-2.06,1.76-2.84,1.32-1.07,1.97-2.64,3.1-3.88l1.57-1.74c1.2-1.33,2.19-2.59,3.21-4.09l2.22-3.24c1.64-2.4,2.12-2.92,3.51-5.83.33-.69.82-1.22,1.3-1.83,1.76-2.26,3.17-4.64,4.58-7.19.21-.37-.07-1.4-.41-1.61-.41-.25-1.71-.43-2.02-.07l-4.29,5.06-2.43,3.11c-1.18,1.51-2.42,3.05-3.39,4.7-.74,1.24-1.33,2.47-2.15,3.62l-3.45,4.82c.1-1.28.7-2.17,1.27-3.15l1.08-1.84,2.31-3.94c.5-.86,1.36-1.69,1.79-2.71.49-1.16,1.17-2.13,1.9-3.12l2.02-2.77c.9-1.23,1.61-2.56,2.41-3.87.41-.68.92-1.32,1.38-1.99l2.64-3.83c.84-1.21,3.38-5.05,1.98-6.24-1.96-1.66-7.18,4.24-8.49,5.73-.69.79-1.53,1.58-2.1,2.39l-1.92,2.73c-.67.95-1.54,1.8-2.25,2.77l-1.43,1.97c.58-2.23,2.21-3.67,3.48-5.45l1.49-2.1,4.68-6.32,3.03-4.17,2.29-3.08c.65-.88,1.17-2.02,1.79-2.99l2.44-3.81c.24-.38-.11-1.29-.4-1.54-2.08-1.79-6.22,4.76-8.26,5.42,1.09-2.15,2.22-3.96,3.52-5.83l1.76-2.55,2.25-3.76c.5-.84,1.51-2.48,1.07-3.15-.55-.83-2.26-.47-3.03.39l-2.2,2.45c-.78.87-1.57,1.77-2.31,2.72l-5.88,7.58c-.78,1.01-1.45,2.03-2.15,3.12l-2.17,3.35c-.04-1.88,1.44-2.97,2.33-4.38l3.83-6.05,1.76-2.52,1.15-1.73,3.08-4.63,1.89-2.1c-.58.64,4.83-6.19,4.98-6.37,1.28-1.6,2.37-3.3,3.22-5.06.43.48,1.02,1.05,1.44,1.03.47-.03,1.23-.43,1.51-.81l3.7-5.18,1.7-2.84c.33-.56.36-1.36,1.29-1.27l-3.55,6.95c-.27.53-.68,1.47-.27,1.98.37.45,1.37.69,2.03.7.73-.88,1.06-2.01,1.58-3.02.3-.57.72-1.21,1.06-1.79l4.06-6.98,1.24-2.14c.36-.63.83-1.25,1.17-1.92.56-1.11,1.18-2.11,2.31-3-1.11,2.55-2.55,4.19-4,7.1l-4.2,8.42c.32.55,1.31.98,1.85.9.45-.06,1.31-.58,1.55-1l1.22-2.2,2.93-5.48c.72-1.36,1.65-2.64,2.5-3.94.53-.82.85-1.6,1.55-2.33-.16.69-.43,1.18-.72,1.73l-1.92,3.62-2.14,3.6c-.36.6-.81,1.15-1.1,1.8-.64,1.43-1.29,2.94-1.84,4.42.4.67,1.58,1.34,2.29,1.05.79-.32,1.13-1.44,1.5-2.1l.8-1.4c1.23-2.13,2.24-4.25,3.34-6.46l2.7-5.42,1.06-2.1c.69-1.36,1.7-2.41,2.78-3.47.62-.61,1.12-1.22,1.93-1.68l-3.86,9.33-1.47,3.07c-.94,1.96-1.65,3.8-2.73,5.69-.63,1.11-1.18,2.48-1.62,3.67.4.89,2.06,1.16,2.45.39l1.67-3.24c.62.29,2.11,1.33,2.7.57,1.81-2.32,2.52-4.58,3.77-5.56l-1.01,2.11c-.34.71-.22,1.54.43,1.93.54.32,1.14.53,1.57.18,1.22-.99.44-2.46,1.45-4.2,1.53-2.61,2.92-5.07,4.21-7.78.69-1.45,1.57-2.68,2.44-4.03.92-1.45,1.52-3.13,2.33-4.63l1.9-3.54Z"/>
  <path d="M254.5,115.66l-1.9,3.54c-.81,1.5-1.4,3.18-2.33,4.63-.86,1.36-1.74,2.58-2.44,4.03-1.29,2.71-2.69,5.17-4.21,7.78-1.01,1.74-.23,3.21-1.45,4.2-.43.35-1.04.14-1.57-.18-.65-.39-.76-1.22-.43-1.93l1.01-2.11c-1.25.98-1.97,3.25-3.77,5.56-.59.76-2.09-.28-2.7-.57l-1.67,3.24c-.4.77-2.05.5-2.45-.39.44-1.19.99-2.56,1.62-3.67,1.08-1.89,1.8-3.73,2.73-5.69l1.47-3.07,3.86-9.33c-.81.46-1.31,1.07-1.93,1.68-1.08,1.06-2.09,2.11-2.78,3.47l-1.06,2.1-2.7,5.42c-1.1,2.2-2.11,4.33-3.34,6.46l-.8,1.4c-.38.66-.72,1.77-1.5,2.1-.71.29-1.9-.38-2.29-1.05.55-1.48,1.2-2.98,1.84-4.42.29-.66.74-1.2,1.1-1.8l2.14-3.6,1.92-3.62c.29-.55.56-1.04.72-1.73-.7.72-1.02,1.51-1.55,2.33-.85,1.3-1.78,2.58-2.5,3.94l-2.93,5.48-1.22,2.2c-.23.42-1.09.93-1.55,1-.54.08-1.54-.36-1.85-.9l4.2-8.42c1.45-2.91,2.89-4.55,4-7.1-1.13.89-1.75,1.89-2.31,3-.33.67-.8,1.29-1.17,1.92l-1.24,2.14-4.06,6.98c-.34.58-.77,1.22-1.06,1.79-.52,1.01-.85,2.14-1.58,3.02-.65,0-1.65-.24-2.03-.7-.42-.51,0-1.45.27-1.98l3.55-6.95c-.92-.09-.95.71-1.29,1.27l-1.7,2.84-3.7,5.18c-.27.38-1.04.79-1.51.81-.41.02-1-.55-1.44-1.03-.85,1.75-1.94,3.45-3.22,5.06-.15.18-5.56,7.01-4.98,6.37l-1.89,2.1-3.08,4.63-1.15,1.73-1.76,2.52-3.83,6.05c-.89,1.41-2.37,2.5-2.33,4.38l2.17-3.35c.7-1.08,1.37-2.11,2.15-3.12l5.88-7.58c.74-.95,1.52-1.85,2.31-2.72l2.2-2.45c.77-.86,2.47-1.22,3.03-.39.44.67-.57,2.31-1.07,3.15l-2.25,3.76-1.76,2.55c-1.3,1.88-2.43,3.69-3.52,5.83,2.03-.66,6.18-7.21,8.26-5.42.29.25.64,1.17.4,1.54l-2.44,3.81c-.62.97-1.13,2.11-1.79,2.99l-2.29,3.08-3.03,4.17-4.68,6.32-1.49,2.1c-1.26,1.78-2.9,3.22-3.48,5.45l1.43-1.97c.71-.98,1.58-1.82,2.25-2.77l1.92-2.73c.57-.81,1.41-1.6,2.1-2.39,1.31-1.49,6.53-7.39,8.49-5.73,1.4,1.19-1.14,5.02-1.98,6.24l-2.64,3.83c-.46.67-.96,1.31-1.38,1.99-.8,1.31-1.51,2.64-2.41,3.87l-2.02,2.77c-.72,1-1.41,1.96-1.9,3.12-.43,1.02-1.29,1.85-1.79,2.71l-2.31,3.94-1.08,1.84c-.57.98-1.17,1.87-1.27,3.15l3.45-4.82c.82-1.15,1.42-2.37,2.15-3.62.98-1.65,2.21-3.19,3.39-4.7l2.43-3.11,4.29-5.06c.31-.36,1.61-.18,2.02.07.34.21.62,1.24.41,1.61-1.41,2.55-2.82,4.94-4.58,7.19-.47.61-.97,1.14-1.3,1.83-1.39,2.91-1.86,3.43-3.51,5.83l-2.22,3.24c-1.03,1.5-2.01,2.76-3.21,4.09l-1.57,1.74c-1.12,1.24-1.78,2.81-3.1,3.88-.96.78-1.24,1.8-1.76,2.84-1,1.98-2.37,3.7-2.45,6.28,1.04-.68,1.69-1.63,2.43-2.53.44-.53,1.17-1.18,1.43-1.88.64-1.73,1.68-2.84,2.81-4.2,1.71-2.05,3.66-5.44,4.82-6.9l1.71-2.16,2.67-3.34,1.39-1.72c.33-.41.74-.89,1.12-.97.42-.09,1.32.17,1.52.5.27,1.75-.77,3.4-1.64,4.79l-2.04,3.27-1.83,2.73c-.51.76-1.23,1.34-1.68,2.16l-2.2,4.02c-.78,1.42-1.97,2.47-3.01,3.73-.83,1.01-1.19,2.29-1.85,3.44l-2.89,5-1.79,3.83c-.05.11.03.68.09.62,1.34-1.4,2.76-4.68,5.03-7.59l2.33-2.98c.68-.87,1.05-2.04,1.65-2.92l2.91-4.27,2.6-4.12c.66-1.04,1.26-2.2,2.69-2.34.36-.04,1.1.23,1.26.53s.25,1.2.1,1.53c-.75,1.68-1.52,3.45-2.5,4.96l-2.08,3.23c-.75,1.16-1.54,2.28-2.24,3.48l-2.81,4.89c-1.36,2.37-3.04,5.58-4,8.29,1.98-2.19,3.19-4.68,4.74-7.09l2.35-3.65.84-1.32c.69-1.08,1.33-1.98,1.94-3.13.26-.49.88-1.03,1.37-1.07.58-.05,1.57.24,1.82.76-.26,1.45-.83,2.79-1.44,4l-1.7,3.36-3.91,7.13-1.34,2.76c-.52,1.08-1.07,2.01-1.38,3.18-.37,1.38-1.14,2.46-1.67,3.94.65-.58.97-1.35,1.45-2.05l2.24-3.28c.53-.77,1.12-1.45,1.48-2.36.39-.99,1.27-2.05,2.39-1.83.3.06.78.32.89.54s-.02.87-.14,1.08c-.84,1.42-1.52,2.84-2.04,4.42-.32.96-.98,1.82-1.33,2.64-.7,1.64-1.27,3.16-2.09,4.73-1.04,1.99-.64,3.6-2.04,6.28-.09.18-.52.57-.68.52-.29-.09-1.39-.45-1.49-.87-.06-.24.01-.89.11-1.13l1.3-3.04c.67-1.57,1.66-2.78,2-4.53-1.56.61-1.68,2.79-3.41,3.99-.57.4-1.56.22-1.88-.11-.47-.47-.6-1.27-.36-1.99l.62-1.83c.71-2.12,1.7-3.92,2.7-5.96l2.44-5c.08-.16.09-.66.11-.76s-.44-.03-.52.04l-2.24,4.01c-.48.86-.85,1.55-1.37,2.3l-1.59,2.27-1.9,2.94c-.24.37-.7.95-1.06,1.34-.55.59-2.39.02-2.62-.75,1-5.32,2.54-6.18,4.67-10.21l1.83-3.45c.77-1.45,1.74-2.63,1.89-4.42-.71.7-1.21,1.4-1.73,2.21l-1.85,2.9-2.7,4.31c-.79,0-1.69-.01-2.56-.07-.5-.03-1.27-1.18-1.06-1.65l1.7-3.8c.3-.67.57-1.18.89-1.78l2.85-5.32c.24-.44,3.58-4.91,3.97-6.87l-2.09,2.99-1.84,2.52c-.79,1.09-2.03,2.61-3.66,1.84-1.13-.53-1.66-2.6-1.19-3.95.82-2.38,2.55-5.47,4.02-7.63l1.08-1.58c.35-.52.83-1.14,1.23-1.59l1.41-1.55c-1.12-.12-2.44.3-2.87-.67-.61-1.36,1.29-5.05,2.04-6.32l5.27-8.88,4.38-6.84,3.62-5.51c1.01-1.54,1.83-3.01,2.72-4.72-1.91,1.18-2.13,1.8-4.04,3.61-.85.81-1.42,2.14-2.22,3.01-3.22,3.55-3.06,4.8-6.13,8.51-.37.45-.81.85-1.06,1.33-.52.99-1.05,1.77-1.64,2.68-.44.67-.83,1.41-1.41,1.66-.68.29-1.95.04-2.17-.73l1.68-4.96c.31-.92.82-1.89,1.37-2.7l3.5-5.14,1.09-1.73c1.5-2.39,3.15-4.5,4.78-6.77s3.06-4.52,4.84-6.69c.36-.43.81-1.07,1.07-1.52l1.57-2.76c.11-.32-.38-.18-.58.04l-2.63,2.71c-.57.59-.96,1.08-1.29,1.85-.5,1.18-1.75,2.01-2.41,3.05-.84,1.3-1.56,2.51-2.54,3.72-.55.68-1.01,1.42-1.46,2.15l-1.38,2.24-2.76,4.47c-.35.57-1.01,1.28-1.5,1.84-.53.59-1.96.2-2.66-.32,1.43-3.55,3.36-5.83,4.95-8.69,1.72-3.1,3.53-5.95,5.51-8.88l1.56-2.31,1.06-2.03,3.43-4.99c.63-.92,1.21-1.64,1.54-2.84l-1.6,1.61c-.66.67-1.55,1.36-2.08,2.24-1.56,2.6-3.18,4.97-5.02,7.41.01-.02-3.34,5.94-4.2,7.31l-2.11,3.34-1.98-.88c-1.83-.82,5.8-13.41,6.79-14.86l1.54-2.28,4.59-7.23,1.49-2.06,1.88-2.71,1.85-2.73c1.69-2.5,4.3-4.49,5.1-7-4.34,3.18-4.02,4.34-7.73,8.04-.42.42-1.11,1.16-1.38,1.6l-1.86,3.01-1.04,1.62c-.69,1.08-1.4,2.11-2.18,3.13-2.5,3.25-1.45,3.48-3.93,6.49-.64-.09-1.51-.32-2.3-.58.12-1.85,2.19-5.41,3.14-7.07l1.85-3.21,2.77-4.23c.47-.72.91-1.69,1.42-2.37l2.96-4c.71-.96,1.42-1.74,1.99-2.82,1.33-2.55,1.66-2.37,3.22-4.66,1.13-1.66,3.06-3.81,2.97-5.27-1.03,1.07-1.82,1.83-2.59,2.77l-1.6,1.95-2.58,2.98c-2.26,2.61-2.26,2.82-3.99,5.55l-3.82,6.07c-.44.7-1.81,4.07-2.58,4.05s-1.62-.48-2.3-.83l.8-2.28c.55-1.58,3.27-5.89,4.2-7.47l2.6-4.42c.87-1.49,1.64-2.93,2.61-4.33l3.12-4.52c.73-1.06,1.38-2.18,2.17-3.17l1.69-2.14,2.7-3.52,1.08-1.34s-.24-.15-.32-.2l-1.55,1.49c-.55.53-1.1,1.32-1.74,1.8-1.41,1.07-2.25,2.33-3.22,3.79-1.75,2.64-3.44,4.05-4.78,6.23l-1.1,1.78-3.77,5.31c-.96,1.35-1.38,2.97-2.97,3.8-.56.08-1.6-.34-2.19-.76,2.12-6.07,3.93-9.82,7.49-15.09l3.11-4.59c.99-1.46,2.05-2.88,3.16-4.25.72-.89,1.25-1.78,1.9-2.73.76-1.11,1.85-2.15,2.7-3.23l2.73-3.5c1.34-1.73,4.43-4.41,3.95-5.56l-2.03,1.7-1.3,1.13c-.42.37-3.63,3.27-3.78,3.46l-1.95,2.5c-.15.19-1.68,1.08-3.95,4.28-2.05,2.89-3.23,3.74-5.39,6.75-.6.83-1.66.88-2.3.48-.93-.57-1.08-1.39-.7-2.46.86-2.43,2.09-4.67,3.27-7,.61-1.21,1.41-2.26,2.15-3.38l2.38-3.64c1.62-2.47,2.95-5.07,4.94-7.29,1.73-1.92,1.83-2.43,3.53-4.12.57-.56,1.06-1.08,1.42-1.87-1.76.43-2.47,1.76-3.57,2.8-.88.83-1.75,1.59-2.52,2.51l-1.33,1.58-2.64,2.84-3.56,4.61-1.37,1.78c-.69.89-1.6,1.76-2.45,2.57-.48.46-2.34-.73-2.07-1.36.99-2.31,4.11-6.68,5.7-9.4.53-.91.97-1.89,1.77-2.57.22-.19.24-.96-.03-1-1.99-.26-1.51-3.35-1.38-3.8.6-2.05,2.03-3.51,3.25-5.13l5.26-6.97c1.55-2.05,3.1-3.83,4.85-5.72,1.45-1.56,2.53-3.5,4.34-4.78.65-.45,1.17-1.16,1.49-1.91l-2.88,2c-.34.23-.85.82-1.15,1.19-1.7,2.09-2.23,2.03-4.03,4.11-1.07,1.24-2.06,2.38-3.22,3.53-3.46,3.39-1.3,1.9-3.53,4.16-.87.88-1.63,2.04-3.06,2.26-.53.08-1.43-1.05-1.28-1.56.87-1.49,1.33-3.21,1.97-4.81,1.45-3.62,3.88-6.66,6.5-9.56,1.85-2.04,1.9-2.34,4.06-4.55l1.43-1.46c1.02-1.04,1.93-2.18,3.09-3.14l1.79-1.47c.07-.05,0-.6-.08-.56s-.39.16-.5.24l-3.49,2.6c-.75.56-1.38,1-2.03,1.62l-1.83,1.76c-1.72,1.66-3.35,3.11-4.73,5.11-.45.66-1.36,1.4-2.22,1.33-.72-.06-1.52-1.38-1.4-2.04l2.62-4.38c1.72-2.88,3.64-5.57,5.83-8.05l1.25-1.42c.82-.93,1.7-1.8,2.57-2.7.92-.94,2.01-1.65,3.05-2.51l3.39-2.8c.79-.65,1.52-1.15,2.22-1.96-1.49.19-2.4,1.06-3.42,1.97-1.72,1.54-4,2.52-5.52,4.28-1.14,1.32-2.22,2.54-3.43,3.78-.79.82-1.43,1.72-2.37,2.45-2.58,2-3.13,4.4-3.6,4.71-.57.38-2.4-.46-2.43-1.01-.02-.42.36-1.07.61-1.44l3.13-4.83,1.47-1.85c1.32-1.66,2.41-3.25,3.86-4.81l1.49-1.6c1.07-1.15,2.06-2.23,3.21-3.31,1.89-1.79,3.55-3.57,5.39-5.53-.56-.41-5.06,3.33-5.26,3.51-.53.49-1.1,1.06-1.56,1.56l-2.52,2.76-2.83,3.17c-.57.63-1.27,1.37-1.73,2.05l-1.28,1.91c-.64.96-2.16,1.56-3.07.76-1.08-.95-.17-2.17.2-3.13,1.64-4.24,4.91-7.27,8.25-10.3l3.76-3.4c1.42-1.28,2.93-2.3,4.36-3.57l1.78-1.58c.84-.75,2.66-1.7,3.15-3.25.03-.1-.47-.08-.56-.03l-1.56.97c-.53.33-.99.75-1.48,1.17l-3.14,2.65c-1.1.93-2.09,1.84-3.3,2.69-2.33,1.65-1.62,2.06-4.72,4.14-.98.66-1.68,1.8-2.6,2.4l-2.48,1.62c-.43.18-1.5.2-2,0-.6-.22-.24-1.44.19-1.81,1.34-1.15,2.43-2.29,3.55-3.64,1.47-1.76,1.85-1.15,3.99-3.45,1.22-1.31,2.71-2.22,3.97-3.49l1.78-1.8,1.6-1.55c2.69-2.6.83-1.06,2.7-3.03l2.48-2.61c.04-.08.07-.38-.01-.37-2.57.42-4.41,3.22-7.36,4.97-.63.37-.89.67-1.37,1.15-1.94,1.95-3.19,2.65-5.22,4.77-.58.6-.95.89-1.41.68-.69-.32-1.23-1.03-.72-1.6l3.25-3.67c.82-.93,2.12-1.99,2.17-2.3.11-.68-1.48-.83-1.29-1.66.06-.27.58-.59.8-.83l3.11-3.37c.79-.86,1.53-1.6,2.42-2.39,1.08-.96,1.9-2.27,2.98-3.28l2.09-1.97c.46-.43.93-.83,1.5-.83.52,0,1.15.38,1.49.82l1.05,1.4c-.24,1.6-1.73,2.24-2.78,3.24l-4.28,4.1c-1.13,1.08-2.57,1.74-3.33,3.21l2.45-1.94,3.27-2.48c.98-.74,2.3-1.27,3.16-2.11,1.14-1.1,3.41-2.96,4.92-2.28.32.14.88,1.04.68,1.35-.58.88-1.6,1.58-2.23,2.32-.71.83-1.28,1.56-2.08,2.29-.41.37-1.22.89-1.52,1.3l-3.38,4.64,4.01-2.59c1.78-1.15,2.15-3.85,3.56-5.47l2.36-2.7c.84-.96,1.81-1.91,3.32-1.86-.03.54-1.17,7.72.13,6.23l1.22-1.4c.7-.8,1.39-1.69,2.15-2.36l2.46-2.17c.7-.62,1.33-1.46,2.32-1.8.63-.22,1.83,1.03,1.6,1.63-.61.8-1.57,1.42-2.16,2.16l-2.27,2.81c-.72.89-1.4,1.75-2.17,2.62l-1.94,2.17c-.57.64-1.03,1.51-1.57,2.26l-1.25,1.74c-.06.09-.14.53-.05.47.76-.51,1.16-1.43,2.23-2.48.97-.95,2.24-1.65,3.11-2.63,1.05-1.18,2.03-2.06,3.22-3.07l4.11-3.49c.39-.26,1.58-.13,1.95.03.43.74.03,1.7-.51,2.3l-1.71,1.9-2.17,2.39c-1.14,1.25-2.07,2.51-3.09,3.85l-3.11,4.04c-1.84,2.39-2.84,5.1-3.94,7.83l-.18.46c-.02.06.17.04.23,0,.06-.05.32-.27.36-.33l1.12-1.7c1.03-1.56,2.2-2.8,3.43-4.22,1.03-1.19,1.88-2.37,3.17-3.35.66-.51,1.37-1.24,1.9-1.88,2.15-2.67,2.04-1.87,4.47-4,.37-1.33,2.29-2.39,3.39-1.21.88.95-2.05,4.07-2.89,4.86-1.13,1.05-1.88,2.23-2.87,3.41l-1.29,1.55-2,2.8c-.34.47-.82.99-1.13,1.5l-1.8,2.96c-.05.08-.24.3-.29.36s.3.14.35.08l.25-.32c.74-.97,1.45-1.87,2.25-2.77l2.15-2.43,2.5-2.8c.61-.68,1.73-1.26,2.26-1.97.58-.79,1.08-1.31,1.75-1.91l3.71-3.29c.47-.42,2.42.34,2.06,1.06-.79,1.53-1.8,2.92-2.8,4.25l-3.79,5.05-1.98,2.89c-.86,1.25-2.35,3.5-2.74,4.79-.02.07.22.05.26,0l.26-.32,1.18-1.47c.84-1.04,1.67-1.99,2.56-2.96.74-.81,1.36-1.71,2.22-2.36s1.71-1.47,2.46-2.33,3.34-4.44,4.75-2.32c.39.58,0,1.13-.47,1.79-1.46,2.03-2.94,3.88-4.52,5.8-1.3,1.57-1.87,2.88-2.97,4.47l-2.38,3.44-1.5,1.99c-.06.08-.15.41-.14.5l.07.35c.02.08.3-.19.37-.26l1.94-2.15,1.79-2.23,4.12-4.8c.75-.87,2.28-3.16,3.66-2.37,1.47.85-.27,3.03-.91,3.92l-2.33,3.23c-.85,1.18-1.85,2.09-2.54,3.51l1.61-1.37c.59-.5,1.39-1.1,1.82-1.73,2.16-3.17,2.64-2.58,4.79-4.8.44-.46.79-1.04,1.18-1.2.45-.19,1.54-.02,1.76.36.63,1.06-.33,2.07-.9,2.81l-2.5,3.29-1.45,1.88-3.01,4.21c-1.03,1.45-2.01,2.82-2.82,4.51l5.22-5.47c.72-.75,1.47-1.36,2.15-2.18.53-.63,1.15-1.27,1.85-1.79.64-.48,2.2.23,2.29.94.14,1.25-.89,1.95-1.49,2.77s-1.11,1.56-1.86,2.24-1.1,1.45-1.66,2.19l-4.13,5.46c1.93-.63,2.58-2.41,3.78-3.64l4.35-4.48c.64-.66,1.28-1.35,2.25-1.15.27.06.91.28.89.5l-.08.98c0,.07.03.35.09.32l.52-.22c.45-.19,1.47-.19,1.75.2,1.23,1.66-2.85,6.37-3.81,7.85l-7.91,12.11s.23.38.23.37l1.2-1.43,2.13-2.44,1.27-1.82,3.63-3.8c.64-.67,1.08-1.33,1.94-1.39.78-.05,1.93.37,2.06,1.18l-3.25,5.28-1.38,1.48-2.87,4.75c-.05.09-.16.51-.19.6s.34-.03.42-.11l1.48-1.57,1.32-1.35c1.29-1.32,2.38-2.7,3.95-3.74.68-.45,2.05-.35,2.37.48.2.53-.13,1.15-.37,1.5l-1.46,2.07c.06.17.21.48.19.29l3.23-2.62c.66-.54,2.42-.92,3.08-.13.99,1.19-2.18,5.52-3.01,6.73l-3.9,5.77c1.85-1.09,3.19-2.45,4.76-3.96.69-.13,1.84-.06,2.58.1-.05,1.64-.76,2.64-1.59,3.79l-1.32,1.81c1.29.02,2.03-1.23,2.91-.95.5.16,1.16.66,1.51,1.09-.81,2.27-1.9,5.93-3.56,7.53l.03.41,1.38-1.06c.53-.41,1.23-.83,1.86-1.22l1.98.53c.62,1.62-.37,2.8-1.14,4.08l-4.29,7.12c-.35.14-.05.24.21.24l1.14-1.45c.28-.36,1.16-.69,1.58-.98.61-.43,1.06-.85,1.79-.75.47.07,1.2.83,1.1,1.33-.21,1.05-.48,1.75-.97,2.49l-1.55,2.33-1.94,3.57-2.09,2.95c-.8,1.14-1.43,2.2-2.16,3.46,1.45-1.24,2.61-2.38,3.79-3.76,1.08-1.26,2.49-2.13,3.86-3.13.53-.39,1.01-.62,1.77-.38,1.61.49-1.07,3.93-1.63,4.66-1.11,1.44-1.9,2.87-2.79,4.44-.62,1.09-1.49,2.18-2.22,3.25l-2.82,4.08-1.56,2.59c-.52.87-2.78,2.99-2.84,4.65l4.1-5.39,3.01-3.64c1.34-1.62,1.63-2.37,3.05-3.67l2.7-2.48c.32-.3,1.49.1,1.64.46s.02,1.16-.22,1.56l-1.54,2.61c-1.17,1.98-1.7,2.23-2.52,3.67l-1.92,3.37c.5-.18.93-.61,1.38-1.03l1.26-1.18c.57-.53,2.2-.69,2.49.23.53,1.65-.69,3.13-1.43,4.43-.41.72-.74,1.55-1.21,2.21l-2.49,3.51c-1.45,2.04-2.39,4.49-4.03,6.28l-1.04,1.14c-.77.84-1.22,2.09-1.59,3.25.81-.74,1.36-1.33,1.88-2.01l2.49-3.27c.61-.8,1.77-2.34,2.81-1.95.54.21,1.03.97.95,1.57-.25,1.87-1.57,2.96-2.66,4.35-.53.67-.9,1.71-1.39,2.41-.93,1.35-1.79,2.56-2.46,4.13l3.08-3.52c.52-.15,1.46.14,1.81.45.45.4.53,1.38.3,1.92l-1.66,3.89c-.3.71-.87,1.39-1.26,2.01l-2.4,3.88c-1.03,1.67-2.08,3.08-2.77,5.01,2.25-1.73,2.23-2.95,4.79-4.44.84-.49,2.03,1.02,1.61,1.78-.68,1.23-1.23,2.31-1.99,3.42l-2.26,3.32c-.07.1-.18.46-.16.46s.19.01.23.01l3.72-4.01c.37-.4.62-1.44,1.35-1.55.49-.07,1.44.44,1.75.72.66,2.05-.61,3.47-1.48,5.1l-1.66,3.13c-.46.86-1.03,1.48-1.56,2.3l-.94,1.45c-.47.71-.88,1.23-.68,2.19.91-.73,1.74-1.39,2.47-2.35.69-.91,2.31-1.64,3.34-.64,1.48,1.43-5.79,10.72-6.5,12.69.03.19.08.57.07.51,2.67-2.45,2.68-2.9,5.11-5.23.58-.56,1.05-1.15,1.98-.75.36.15.91.53,1.09.8.4.6-.46,1.49-1.35,3.13s-1.86,3.35-2.94,4.97l-2.57,3.86c-.66,1-1.46,1.57-1.83,2.82l.05.46c.84-1.01,1.55-2.09,2.44-3.05.81-.87,1.56-1.62,2.29-2.51s2.02-1.24,2.87-.34-1.52,4.71-1.97,5.54l-1.7,3.09-2.03,3.54c-.22.38-.35.95-.35,1.26l.25-.41c.04-.06.18-.34.21-.38l2.28-2.54s.62-.04.7-.03c.98.15,1.48,1.52.88,2.7l-5.24,10.33-3.5,6.81-.41.81c.09.54.13.51.33.13l3.62-6.05c1.18-1.96,1.48-3.35,2.84-2.95.82.24,1.41.9,1.11,1.85-1.14,3.6-.49,1.46-1.83,3.91-.05.09-.15.53-.06.56l.52.17c1.39.46.38,3.26-.07,4.3l-1.21,2.74c-1.04,2.36-2.17,4.46-3.13,6.76l-.49,1.19-.18.44c-.03.07.19.05.24-.02.05-.07.21-.3.27-.37l1.87-2.15c.4-.46.72-1.23,1.23-1.35.6-.14,1.47.22,1.81.64,1.02,1.23-1.2,3.54-1.61,5.63l.78,1.22c-.46,1.63-1.12,3.17-1.83,4.78-1.14,2.61-1.93,5.26-2.86,7.95l-2.21,6.44c-.25.73-.66,1.08-1.32,1.02-.81-.07-1.21-.63-1.18-1.36-.04-.08-.21-.24-.24-.17l-.19.43-.41.96c-.1.22-.74.22-1.06.21-.75-.03-1.72-.52-1.44-1.4,1.04-3.21,1.59-4.97,3.07-8.01,1.82-3.76,3.08-5.43,4.84-9.55.36-.84,1.49-2.83,1.11-2.65-1.06.49-3.22,4.08-3.79,5.22l-2.18,4.34-1,2.08c-.56,1.16-1.12,2.18-1.75,3.33-.81,1.47-1.3,3.35-1.98,4.89-.49.22-1.97.02-2.06-.48-.37-2.16,1.37-3.92,1.95-5.61l-1.91-.5c-.94-.21.9-4.39,1.17-4.99l1.41-3.15c.07-.16.21-.56.07-.54l-.76.13c-.59.1-1.8-.89-1.76-1.53.13-2.58,1.13-4.72,2.23-6.94l2.38-4.82,3.01-5.61,1.83-3.92c.89-1.92,1.8-3.7,2.87-5.54.22-.38,1.93-3.56,1.5-3.44-.84.24-1.19.63-1.64,1.61-.6,1.3-1.28,2.33-2.01,3.54-.53.87-.99,1.87-1.49,2.82-2.04,3.93-3.45,4.7-5,8.96l-1.22,3.36-1.49,3.78c-.47.57-1.76.03-2.05-.52-.81-1.53.12-2.32,1.11-4.78l1.08-2.67c.04-.09.25-.36.31-.43.08-.1-.2-.38-.33-.42l-1.52-.49c-.12-.98-.07-2.06.13-3.01.93-4.38,2.45-8.38,4.37-12.4,1.05-2.19,2.19-4.11,3.38-6.21l3.73-6.6,4.17-6.4c-1.15,1.77,2.53-4.56,1.14-2.63l-2.52,2.27c-.77.69-.96,2.22-1.69,3.03-.98,1.09-1.52,2.16-2.11,3.49-1.47,3.29-2.63,3.18-3.13,5.68-.07.35-.55.91-.71,1.2-.74,1.4-1.44,2.72-2.08,4.2l-2.64,6.15c-.04.09-.28.36-.37.35-.14-.01-.46-.08-.59-.14l-1.47-.62c-.03-1.8,2.71-8.29,3.54-9.94l4.02-8,1.27-2.07c1.71-2.78,2.83-5.79,4.63-8.55l1.53-2.33c.81-1.25,1.32-2.56,2.1-3.98l-.17-.34-1.11,1.1c-2.77,2.73-1.66,3.34-3.69,5.39-.94.94-1.24,2.12-1.75,3.35-.37.9-2.43,4.13-3.17,5.18-1.99,2.83-1.85,3.34-3.09,6.52-.2.51-.74,1.02-1.33,1.11-.42.06-.97-.13-1.2-.35s-.39-1.07-.27-1.39c.64-1.66.95-3.53,1.74-5.02l2.07-3.9,3.92-6.89,3.26-5.61c1.3-2.24,2.69-4.34,3.94-6.6l2.44-4.44c-.95.15-1.2.96-1.7,1.58l-3.17,4.01c-.46.59-.95,1.38-1.3,2.01l-1.41,2.5c-.25.45-.97,1.24-1.07,1.71-.29,1.37-1.38,2.29-1.96,3.3-.91,1.59-1.42,3.27-2.5,4.79-.04.06-2.47,4.95-2.83,5.73-.43.08-1.77-.21-2.05-.73-.37-.67.11-1.68.34-2.32.76-2.05,1.51-3.99,2.52-5.89l1.92-3.6,3.43-5.91c1.09-1.88,1.81-3.75,3.09-5.66-.02-.15-.1-.51-.12-.52-.73,1.11-.99,1.88-1.69,2.74l-1.64,2.04-2.49,4.5c-.9,1.63-1.57,3.13-2.41,4.91-.63-.1-1.5-.33-2.1-.59-.1-.85.14-1.75.49-2.51l1.8-3.96,1.19-2.43,3.34-6.25c.84-1.57,1.7-3.05,2.64-4.55l1.22-1.93c.9-1.43,1.82-2.84,2.61-4.33l1.84-3.48.18-.35c.04-.07-.04-.27-.05-.35-.03-.35-3.2,4.14-3.73,4.78-2.45,2.96-1.15,1.91-2.81,4.67l-5.21,8.69-2.18,4.3c-.42.83-1.15,1.64-2.07,1.79-.4.06-1.06-.12-1.26-.35s-.23-.96-.11-1.24l1.19-2.72c1.03-2.36,2.21-4.62,3.38-6.89l1-1.95-1.47-.47c-1.41-.45.58-3.83.77-4.19.5-.95.94-1.96,1.38-2.95.84-1.87,1.89-3.51,2.89-5.29l1.89-3.39,2.2-3.83c1.04-1.82,2.16-3.54,3.32-5.29l3.06-4.61,2.92-4.71c.35-.24-.02-.32-.38-.31-.82,1-1.56,2.18-2.41,2.9-.69.59-.77.95-1.33,1.72l-1.79,2.41c-.99,1.33-1.5,2.83-2.68,4.07-.66.69-.83,1.81-1.3,2.58-1.23,2-2.27,2.66-3.05,4.87-.46,1.31-1.35,2.93-2.09,4.07-.26.4-1.37.45-1.84.33-.34-.09-.55-1.02-.43-1.34l1.4-3.71c.24-.63,1.9-3.78.98-2.88l-.87,1.03c-.2.23-.89.12-1.21-.03-.74-.36-1.18-1.03-.93-1.73l1.17-3.26c.48-1.34.95-2.85,1.66-4.04l4.9-8.28c.4-.67.8-1.52,1.23-2.15l3.63-5.25c.88-1.28,1.42-2.64,2.34-3.95l1.92-2.73c.06-.08.03-.45-.06-.46-1.12-.12-1.04,1.25-2.58,2.67-.46.42-.85.69-1.12,1.1l-1.99,3.05c-.84,1.28-4.07,6.76-4.82,7.69-1.25,1.55-1.96,3.31-2.9,5.07l-1.43,2.66c-.36.33-1.08.87-1.65,1.27-.35.24-1.28-.77-1.27-1.24.85-2.12,1.81-4.2,2.98-6.28l4.84-8.64c2-3.57,3.92-7.27,6.4-10.56.05-.06.15-.23.19-.31l.17-.3.17-.31.17-.31,2.96-5.32-.25-.38-1.53,1.64-1.57,2.6c-.75,1.24-1.85,1.92-2.5,3.17-.55,1.06-1.16,2.23-1.77,3.26l-1.49,2.54c-1.78,3.03-3.49,5.85-4.79,9.15-.33.83-1.36,2.01-1.93,2.54-.17.16-2.14-.76-1.63-2.01,1.06-2.6,2.25-5.01,3.61-7.44l2.15-3.84,2.22-4.04c.69-1.25,1.38-2.43,2.13-3.63l3.15-5,1.88-3.19,3.28-5.42c.09-.15-.45-.48-.6-.42-.92.38-1.5,1.79-2.19,2.54l-1.51,1.65c-.47.51-.79,1.4-1.18,1.93-.85,1.19-2.05,1.95-2.33,3.68-.07.47-.66.96-.92,1.45l-1.64,3.1c-.41.78-.91,1.13-1.24,1.94-.44,1.05-1.11,2.03-1.75,3.01-.7,1.08-1.22,2.31-1.85,3.43l-1.96,3.54-1.58,2.99c-.24.45-1.06.83-1.46.74-.46-.11-1.38-.85-1.15-1.33l2.62-5.41c.75-1.55,1.4-3.22,2.26-4.65l2.37-3.94c1.62-2.7,2.9-5.45,4.57-8.12l3.05-4.84,1.44-2.46c.96-1.63,2.25-4.17,3.31-5.53.07-.09-.08-.62-.16-.6-.11.04-.38.14-.48.24l-1.33,1.27c-.47.45-.91.83-1.45,1.23l-.58,1.06c-.93,1.09-1.66,2.17-2.41,3.35-1.03,1.62-2.22,3.11-3.12,4.75l-3.03,5.51ZM221.03,37.15c3.21-3.01,5.17-4.72,4.36-9.08.49-.64.68-1.75.06-2.05-1.32.34-1.44,1.85-1.39,2.78-.7.77-1.43,1.56-1.89,2.44l-1.83,3.5c-.29.55.37,1.83.69,2.41ZM223.08,125.58l1.68-2.54c1.06-1.6,2.12-3.09,3.42-4.48.35-.38,1.53-.23,1.79.12.24.32.15,1.08-.09,1.5l-2.01,3.44c2.34-1,3.7-6.66,6.69-4.8.17.11.23.91.39.88l.79-.14c.33-.06,1.15.07,1.43.27s.44.81.61,1.29c1.32-1.42,4.82-4.3,6.27-2.47,0,.4-.3,1.17-.46,1.54l-1.7,3.86c1.93-1.11,2.84-4.63,4.79-3.61.61.32.91,1.11.6,1.76l-1.62,3.33c1.64-.7,1.79-2.09,2.19-3.43.95-3.13,2.6-5.76,4.08-8.57,1.27-2.42,2.8-4.53,4.27-6.8l1.51-2.32c.63-.97,1.07-2.11,1.73-3.08l3.75-5.48c-1.13.24-1.31,1.3-2.03,1.91-.64.54-1.08,1.1-1.64,1.74l-.97,1.12-1.93,2.87-2.02,3.01-2.89,4.57c-.84,1.33-1.55,2.6-2.27,4s-1.42,3.09-2.43,4.18c-.85.9-1.86-.18-2.2-.75-.58-.97.14-1.34.58-2.21.79-1.58,1.57-3.13,2.54-4.61l.96-1.47c.33-.51.76-1.05,1.05-1.57l2.37-4.15,4.69-6.97c1.11-1.64,1.93-3.33,3.1-4.92,1.34-1.82,2.52-3.61,3.5-5.66.43-.89,1.37-1.73,1.27-2.81-1.01,1.28-1.82,2.06-2.84,2.98l-1.9,1.72-2.24,2.96c-.46.61-.95.97-1.36,1.57-1.68,2.44-1.1,1.02-2.16,3.39-.77,1.72-1.6,3.45-2.57,5.06l-3.17,5.24c-.89,1.47-1.58,3-2.4,4.58l-1.24,1.09-1.7-1.29c.63-2.18,1.76-5.7,2.83-7.38l2.26-3.53,2-3.04,1.01-1.82,5.57-8.2c-.59.14-.82.66-1.2,1.06-4.88,5.19-2.26,3.23-4.71,6.56s-2.03,3.29-4.21,6.79c-1.86,2.98-2.46,6.19-4.53,5.12-.79-.41-1.12-1.49-.68-2.39l4.05-8.25,1.08-1.48c.71-.98,4.75-8.36,5.89-9.94.53-.73.93-1.46,1.32-2.37-1.1.8-1.74,1.68-2.47,2.67l-1.42,1.91-1.71,2.4c-.34.48-1.03.95-1.26,1.58-.64,1.81-1.6,3.24-2.58,4.85-1.44,2.37-1.91,4.25-3.95,5.81-.42-.15-1.05-.5-1.5-.85-.18-1.28,2.24-6.16,2.91-7.24.77-1.24,1.36-2.48,1.98-3.82,1.29-2.83,3.04-5.34,4.7-7.99l1.12-1.79c.6-.96,1.01-1.96,1.62-2.92l3.4-5.36c-2.74,1.22-3.05,4.18-3.32,4.49l-1.64,1.88c1.63-1.86-4.15,7.34-3.7,6.49l-1.65,3.12c-.59,1.12-1.21,2.14-1.78,3.28s-1.16,2.32-2.36,2.96c-.46.24-1.68-.36-1.84-.91.51-1.95,1.36-3.88,2.3-5.62l3.05-5.66,4.95-7.44c-.6-.36-.76.54-1.08.83-1.28,1.2-2.16,2.6-3.19,4.01l-2.54,3.44-2.83,3.88c-.57.78-1.26,1.22-2.2.6-.69-.45-.64-1.25-.24-2.08.86-1.77,1.78-3.4,2.83-5.09l3.51-5.62c1.23-1.97,3.11-3.43,3.95-5.71l-1.82,1.87c-2.09,2.15-1.11,1.73-3.09,4.35-1.14,1.52-2.25,3.01-3.28,4.62l-1.26,1.97c-.24.38-1.36.17-1.69-.14-.31-.28-.59-1.09-.4-1.48.6-1.18,1.05-2.18,1.67-3.22l2.16-3.62,1.36-2.21c.68-1.1,1.26-2.21,1.97-3.3l2.07-3.17,1.62-2.47c.29-.44.55-.88.9-1.5-1.2.51-1.7,1.74-2.59,2.63-1.05,1.04-1.74,2.05-2.53,3.28l-4.48,6.97-1.95,3.66c-.33.63-.99,1.49-1.55,2.03-.47.26-1.66-.58-1.76-1.12.24-1.23.93-2.56,1.58-3.64,1.24-2.05,2.01-4.32,3.38-6.2.86-1.18,1.53-2.34,2.19-3.62l1.39-2.69c.04-.44-.01-.46-.29-.09l-4.6,6.05c-1.51,1.99-2.5,4.15-4.26,6.14-.73-.28-1.55-.81-1.96-1.35,1.15-1.66,1.84-2.95,2.64-4.55l2.15-4.33c.5-1,1.05-1.92,1.64-2.88l2.74-4.48c.83-1.36,1.67-2.61,2.21-4.09-.62.63-.93,1.2-1.38,1.8l-3.31,4.37c-1.11,1.46-2.04,3.09-2.89,4.75-.58,1.14-1.14,2.39-2.53,2.81-.3.09-1.01-.07-1.19-.31-.9-1.27,1.95-6.35,2.7-8.02l.97-2.15c.27-.59.59-1.18.93-1.71l4.21-6.38c.31-.47.59-1.33.75-1.87-2.47,1.67-3.64,4.06-5.47,6.07-.97,1.06-2.24,1.95-3.03,3.16l-1.71,2.63c-.73,1.12-1.41,2.4-2.91,2.64-.47.08-1.41-.13-1.58-.49-.15-.31-.07-1.11.11-1.43l1.82-3.28,1.48-2.57c.47-.82.88-1.65,1.42-2.42l1.99-2.84c.38-.54.71-1.22,1-1.93-1.02.96-1.96,1.94-2.72,3.06l-1.94,2.86-2.06,2.8c-.44.6-1.34,1.14-2.06,1.41-.42-.44-1.19-1.24-1.25-1.71-.2-1.65.48-3.21.94-4.69.97-3.12,3.18-6.2,5.23-8.74.11-.13,2.93-3.46,2.14-3.16l-5.4,5.42c-.6.6-1.21,1.39-1.74,2.05l-1.73,2.18c-.41.51-1.34.88-1.88.7-.44-.14-1.26-.99-1.14-1.48.98-3.82,3.9-5.55,5.42-8.87-2.86,2.26-2.02,2.44-5.14,4.72-.65.47-1.16.37-1.96-.07-.41-.23-.92.56-1.26.92-2.38,2.54-1.62.97-4.43,3.47-.58.51-1.31.99-1.5,1.68,2.3-1.66,4.2-3.05,6.9-3.3.4-.04,1.15.23,1.26.54.58,1.61-2.19,3.93-3.4,4.84-.7.52-1.23,1.14-1.81,1.77-1.16,1.26-2.35,2.43-3.58,3.61l-1.35,1.3-2.04,1.81-3.82,4.32c-.4.45-1.03.76-1.46,1.4,1.66-.38,2.41-1.63,3.31-2.89.84-1.17,2.15-1.95,3.14-2.87.82-.76,1.52-1.52,2.49-2.08,3.48-2.01,2.04-2.17,7.74-4.3.4-.15,1.32.14,1.61.39s.71,1.12.45,1.43c-.54.62-1.23,1.59-1.78,2.05l-4.17,3.55c-2.26,1.92-6.27,4.56-7.83,6.29l-1.61,1.79c-1.65,1.84-1.57,2.43-3.32,4.1-.28.27-.58,1.03-.82,1.35-1.18,1.61-2.26,3.07-3.18,4.74.88-.07,1.22-.56,1.58-1.07,1.45-2.07,3.25-3.55,5.12-5.16.79-.68,1.6-1.58,2.43-2.11s1.41-.94,2.12-1.54c1.47-1.24,3.21-2.01,4.88-3.08.92-.59,2.41-1.32,3.31-.25s-.22,2.16-.96,2.88l-3.17,3.07c-.65.63-1.56.96-2.16,1.69-1.1,1.35-2.3,2.48-3.53,3.71-1.81,1.81-3.38,3.75-5.62,5.14-1.44,3.47-2.17,2.2-3.79,5.59-.63,1.3-1.55,2.34-1.82,4.05.96-.34,1.42-1.22,2.05-1.92l1.82-2.03,8.5-8.52,4.01-3.2c.53-.42.96-.96,1.58-1.26,1.02-.5,1.86-.94,2.82-1.52.81-.5,2.16-.86,2.83.16.34.53-.24,1.68-.76,2.15l-4.1,3.79c-.66.61-1.15,1.23-1.81,1.83-.82.74-1.63,1.58-2.32,2.46-.93,1.2-1.99,2.11-3.05,3.22-.63.66-1.3,1.6-1.92,2.35l-2.07,2.5-1.66,1.97c-.89,1.06-1.59,2.19-2.53,3.24l-1.65,1.87-.98,1.44-2.09,3.1c.2.17.75.07.91-.11l1.51-1.71c.62-.7,1.26-1.48,1.8-2.23.66-.91,1.39-1.6,2.15-2.4l2.81-2.99c.74-.78,1.52-1.51,2.31-2.28l5.45-5.27c.61-.59,1.99-.25,2.35.25.52.72.11,1.73-.38,2.36-.99,1.25-1.88,2.42-2.9,3.59l-1.69,1.93c-.54.61-1.13,1.06-1.7,1.68l-2.72,2.97-3.12,2.99s-4.29,4.64-4.19,4.48c-1.01,1.56-1.69,3.03-2.89,4.44-1.11,1.3-2.08,2.7-3.07,4.2,2.11-1.57,3.26-3.8,4.97-5.67l1.6-1.75,1.4-1.47c1.34-1.42,2.65-2.8,4.2-3.98,1.83-1.4,6.22-5.19,8.17-3.04.84.93-1.95,3.55-2.68,4.25-3.25,3.12-2.54,2.79-5.32,5.94-.75.84-1.63,1.62-2.21,2.58-1.59,2.6-3.2,5-5.04,7.45-.44.59-.98,1.35-1.32,1.99-1.6,3.06-2.01,3.25-3.41,5.97l-1.29,2.51c1.61-1.19,2.51-2.7,3.69-4.15l2.16-2.65,2.78-3.22,3.12-3.1c1.03-1.02,1.71-2.22,3.03-3,1.14-.68,1.96-1.72,2.93-2.54,1.14-.98,2.64-1.54,3.95-2.34.67-.41,2.07-.21,2.41.45-.35,1.9-1.5,3.41-2.61,4.86l-2.74,3.56c-1.6,2.08-3.48,3.77-5.12,5.88l-3.36,4.32c-1.05,1.34-1.98,2.62-2.96,4l-2.48,3.51c-1.15,1.63-2.23,3.21-3.22,4.94l-1.58,2.78-1.16,1.37c-.62.73-.77,1.72-.92,2.79l3.04-4.26c.5-.71.97-1.65,1.48-2.3l1.82-2.3,2.37-3.13c.75-.99,1.46-2.09,2.29-3.01,2.15-2.39,4.71-4.56,6.33-6.39,1.17-1.32,2.74-2.2,4.15-3.28.23-.18,2.19-2.31,3.42-.96s-1.58,3.81-2.66,4.83c-1.25,1.17-2.01,2.4-2.89,3.9-.7,1.19-2.09,2.09-2.92,3.22l-1.43,1.95c-.79,1.08-1.37,2.21-2.3,3.23-1.11,1.22-1.97,2.52-2.82,3.91-.49.81-1.05,1.35-1.27,2.4l1.55-1.65c1.36-1.44,2.54-2.86,3.71-4.45,1.41-1.91,2.86-2.6,4.08-4.31.66-.92,2.2-1.54,3.04-.28,1.1,1.64-3.52,7.54-4.47,8.94-1.67,2.45-3.08,4.98-5,7.24-.53.63-1.07,1.12-1.14,2.02,1.12-.96,1.83-1.75,2.65-2.72,1.15-1.36,2.52-2.49,3.88-3.82.94-.91,2.7-2.2,3.86-1.6.25.13.77.85.78.73.38-1.19.67-2.16,1.11-3.1l.36-.77c.21-.46-2.08-.2-2.24-1.55,1.04-2.64,2.57-4.8,3.8-7.24l2.04-4.06,1.37-1.92c.77-1.08,1.46-2.08,2.97-2.17-.18,1.72-1.79,2.56-1.29,3.63l2.52-3.05c.66-.79,1.38-1.49,1.93-2.39.38-.62.78-1.07,1.33-1.23s1.63-.08,1.79.6c.2.88-.56,1.94-1.07,2.67l-2.96,4.28-1.28,1.82-6.22,9.79c2.37-2.12,3.62-4.86,5.4-7.25.62-.83,1.28-1.64,1.86-2.5l2.62-3.93ZM200.88,56.76c.9-.82,1.59-1.59,2.29-2.56,1.33-1.83,3.29-2.92,4.51-4.92l-2.31,1.86c-2.2,1.77-7.02,6.11-7.47,9,1.35-.89,1.32-1.88,2.98-3.39ZM219.98,133.8c.07-.11.08-.67-.01-.62l-.42.24c-.77.43-1.4,1.28-.74,2.26l1.18-1.88ZM259.06,148.33c2-4.27,4.61-6.15,6.72-10.53-1.14.39-1.27,1.49-1.92,2.28-.91,1.11-2.36,2.09-2.88,3.49-1.22,3.32-2.33,1.78-1.93,4.76ZM184.88,216.49l3.08-4.12c.73-.98,1.33-2.01,1.96-3.09l1.39-2.41c.5-.86,1.25-1.56,1.27-2.65-1.61,1.8-2.16,3.83-3.74,5.18-.7,1.46-1.42,2.81-2.39,4.13-.69.94-1.55,1.7-1.57,2.97ZM250.43,237.57l1.88-3.56c1.81-3.42,3.53-6.73,5.06-10.29.72-1.69,1.77-3.16,2.67-4.73l1.49-2.58c1.29-2.25,2.39-4.52,3.58-6.96-1.89.75-2.34,2.63-3.43,3.99-2.19,2.74-4.13,6.23-5.71,9.42l-1.82,3.69c-.75,1.51-1.51,2.81-2.09,4.39s-1.97,5.29-1.65,6.64ZM253.91,247.9c.54-.02,3.45-5.2,3.34-5.99-1.36,1.2-2.87,4.05-3.34,5.99ZM252.68,256.9c-.57,1.39-1,2.75-1.34,4.18.5-.79.85-1.42,1.21-2.15l2.24-4.51,2.05-4.18c1.35-2.77,2.78-5.36,3.64-8.4l-1.6,2.33c-1.08,1.57-1.84,3.15-2.52,4.96.07-.2-1.97,3.62-2.26,4.33l-1.41,3.44Z"/>
  <path class="cls-1" d="M223.08,125.58l-2.62,3.93c-.57.86-1.24,1.67-1.86,2.5-1.78,2.39-3.03,5.13-5.4,7.25l6.22-9.79,1.28-1.82,2.96-4.28c.51-.73,1.27-1.79,1.07-2.67-.16-.68-1.25-.76-1.79-.6s-.95.61-1.33,1.23c-.55.89-1.27,1.59-1.93,2.39l-2.52,3.05c-.5-1.08,1.1-1.91,1.29-3.63-1.51.09-2.2,1.09-2.97,2.17l-1.37,1.92-2.04,4.06c-1.23,2.44-2.76,4.6-3.8,7.24.15,1.35,2.45,1.1,2.24,1.55l-.36.77c-.44.94-.73,1.9-1.11,3.1-.02.12-.53-.6-.78-.73-1.15-.6-2.92.69-3.86,1.6-1.36,1.32-2.73,2.45-3.88,3.82-.82.97-1.53,1.75-2.65,2.72.07-.9.6-1.39,1.14-2.02,1.92-2.27,3.33-4.8,5-7.24.95-1.39,5.57-7.3,4.47-8.94-.84-1.25-2.38-.64-3.04.28-1.23,1.72-2.68,2.41-4.08,4.31-1.18,1.59-2.35,3.01-3.71,4.45l-1.55,1.65c.22-1.05.78-1.59,1.27-2.4.85-1.39,1.7-2.68,2.82-3.91.93-1.02,1.51-2.15,2.3-3.23l1.43-1.95c.83-1.13,2.22-2.03,2.92-3.22.89-1.5,1.64-2.73,2.89-3.9,1.09-1.02,3.84-3.53,2.66-4.83s-3.19.78-3.42.96c-1.41,1.08-2.98,1.96-4.15,3.28-1.62,1.83-4.18,4-6.33,6.39-.83.92-1.53,2.01-2.29,3.01l-2.37,3.13-1.82,2.3c-.51.65-.98,1.59-1.48,2.3l-3.04,4.26c.15-1.07.3-2.06.92-2.79l1.16-1.37,1.58-2.78c.99-1.73,2.07-3.31,3.22-4.94l2.48-3.51c.98-1.38,1.91-2.66,2.96-4l3.36-4.32c1.64-2.11,3.52-3.8,5.12-5.88l2.74-3.56c1.11-1.45,2.26-2.96,2.61-4.86-.35-.67-1.74-.86-2.41-.45-1.31.8-2.81,1.36-3.95,2.34-.97.83-1.78,1.87-2.93,2.54-1.32.78-2,1.97-3.03,3l-3.12,3.1-2.78,3.22-2.16,2.65c-1.18,1.45-2.08,2.96-3.69,4.15l1.29-2.51c1.4-2.72,1.81-2.91,3.41-5.97.33-.63.87-1.4,1.32-1.99,1.83-2.45,3.45-4.85,5.04-7.45.58-.96,1.47-1.73,2.21-2.58,2.78-3.15,2.07-2.82,5.32-5.94.73-.7,3.52-3.32,2.68-4.25-1.96-2.16-6.34,1.63-8.17,3.04-1.55,1.18-2.86,2.56-4.2,3.98l-1.4,1.47-1.6,1.75c-1.71,1.88-2.86,4.1-4.97,5.67.98-1.5,1.96-2.89,3.07-4.2,1.19-1.41,1.88-2.89,2.89-4.44-.1.15,4.21-4.5,4.19-4.48l3.12-2.99,2.72-2.97c.57-.62,1.16-1.07,1.7-1.68l1.69-1.93c1.03-1.17,1.92-2.34,2.9-3.59.5-.63.9-1.64.38-2.36-.36-.51-1.75-.84-2.35-.25l-5.45,5.27c-.79.77-1.57,1.5-2.31,2.28l-2.81,2.99c-.76.81-1.49,1.49-2.15,2.4-.55.76-1.18,1.53-1.8,2.23l-1.51,1.71c-.16.18-.7.27-.91.11l2.09-3.1.98-1.44,1.65-1.87c.93-1.05,1.64-2.19,2.53-3.24l1.66-1.97,2.07-2.5c.62-.75,1.29-1.69,1.92-2.35,1.06-1.11,2.12-2.02,3.05-3.22.69-.88,1.5-1.72,2.32-2.46.66-.6,1.15-1.22,1.81-1.83l4.1-3.79c.51-.47,1.1-1.62.76-2.15-.67-1.02-2.01-.66-2.83-.16-.96.58-1.8,1.02-2.82,1.52-.63.31-1.06.84-1.58,1.26l-4.01,3.2-8.5,8.52-1.82,2.03c-.63.7-1.09,1.58-2.05,1.92.27-1.7,1.2-2.74,1.82-4.05,1.62-3.38,2.34-2.11,3.79-5.59,2.24-1.4,3.82-3.34,5.62-5.14,1.23-1.23,2.42-2.36,3.53-3.71.59-.73,1.51-1.06,2.16-1.69l3.17-3.07c.74-.72,1.83-1.86.96-2.88-.9-1.07-2.39-.34-3.31.25-1.67,1.07-3.41,1.84-4.88,3.08-.71.6-1.32,1.03-2.12,1.54s-1.64,1.44-2.43,2.11c-1.87,1.6-3.67,3.08-5.12,5.16-.35.51-.69,1-1.58,1.07.93-1.67,2.01-3.13,3.18-4.74.23-.32.54-1.08.82-1.35,1.75-1.67,1.68-2.26,3.32-4.1l1.61-1.79c1.55-1.73,5.57-4.37,7.83-6.29l4.17-3.55c.55-.47,1.25-1.44,1.78-2.05.27-.3-.16-1.17-.45-1.43s-1.21-.54-1.61-.39c-5.7,2.13-4.26,2.28-7.74,4.3-.98.57-1.67,1.32-2.49,2.08-.99.92-2.3,1.69-3.14,2.87-.9,1.26-1.65,2.51-3.31,2.89.44-.64,1.06-.95,1.46-1.4l3.82-4.32,2.04-1.81,1.35-1.3c1.23-1.19,2.42-2.36,3.58-3.61.58-.63,1.12-1.25,1.81-1.77,1.22-.91,3.98-3.23,3.4-4.84-.11-.31-.87-.58-1.26-.54-2.7.25-4.6,1.64-6.9,3.3.18-.69.92-1.17,1.5-1.68,2.81-2.51,2.05-.93,4.43-3.47.34-.36.85-1.15,1.26-.92.8.44,1.31.55,1.96.07,3.12-2.28,2.28-2.47,5.14-4.72-1.52,3.32-4.44,5.05-5.42,8.87-.12.48.69,1.33,1.14,1.48.54.18,1.47-.19,1.88-.7l1.73-2.18c.53-.67,1.14-1.45,1.74-2.05l5.4-5.42c.79-.31-2.03,3.03-2.14,3.16-2.05,2.54-4.26,5.62-5.23,8.74-.46,1.48-1.13,3.04-.94,4.69.06.48.83,1.27,1.25,1.71.72-.27,1.62-.81,2.06-1.41l2.06-2.8,1.94-2.86c.76-1.12,1.7-2.1,2.72-3.06-.29.71-.62,1.39-1,1.93l-1.99,2.84c-.54.77-.95,1.6-1.42,2.42l-1.48,2.57-1.82,3.28c-.18.32-.26,1.12-.11,1.43.17.36,1.11.57,1.58.49,1.5-.25,2.18-1.53,2.91-2.64l1.71-2.63c.79-1.22,2.06-2.1,3.03-3.16,1.83-2.01,3.01-4.39,5.47-6.07-.16.55-.44,1.4-.75,1.87l-4.21,6.38c-.35.53-.67,1.12-.93,1.71l-.97,2.15c-.75,1.68-3.6,6.75-2.7,8.02.17.24.88.4,1.19.31,1.39-.42,1.95-1.68,2.53-2.81.85-1.66,1.78-3.29,2.89-4.75l3.31-4.37c.45-.6.76-1.16,1.38-1.8-.54,1.49-1.37,2.73-2.21,4.09l-2.74,4.48c-.59.96-1.14,1.88-1.64,2.88l-2.15,4.33c-.79,1.6-1.49,2.9-2.64,4.55.41.54,1.22,1.08,1.96,1.35,1.76-1.99,2.75-4.15,4.26-6.14l4.6-6.05c.28-.37.32-.35.29.09l-1.39,2.69c-.66,1.28-1.33,2.44-2.19,3.62-1.38,1.88-2.15,4.15-3.38,6.2-.65,1.08-1.34,2.41-1.58,3.64.09.54,1.29,1.38,1.76,1.12.56-.55,1.22-1.41,1.55-2.03l1.95-3.66,4.48-6.97c.79-1.23,1.48-2.24,2.53-3.28.9-.89,1.39-2.12,2.59-2.63-.35.62-.61,1.06-.9,1.5l-1.62,2.47-2.07,3.17c-.71,1.09-1.29,2.2-1.97,3.3l-1.36,2.21-2.16,3.62c-.62,1.05-1.08,2.04-1.67,3.22-.2.39.09,1.2.4,1.48.33.3,1.45.52,1.69.14l1.26-1.97c1.03-1.61,2.14-3.1,3.28-4.62,1.97-2.62,1-2.2,3.09-4.35l1.82-1.87c-.84,2.28-2.72,3.74-3.95,5.71l-3.51,5.62c-1.05,1.69-1.98,3.31-2.83,5.09-.4.83-.45,1.63.24,2.08.94.61,1.63.18,2.2-.6l2.83-3.88,2.54-3.44c1.04-1.41,1.91-2.81,3.19-4.01.32-.3.48-1.2,1.08-.83l-4.95,7.44-3.05,5.66c-.94,1.74-1.79,3.67-2.3,5.62.16.55,1.38,1.15,1.84.91,1.21-.64,1.8-1.81,2.36-2.96s1.18-2.16,1.78-3.28l1.65-3.12c-.45.85,5.32-8.35,3.7-6.49l1.64-1.88c.27-.31.58-3.27,3.32-4.49l-3.4,5.36c-.61.96-1.01,1.96-1.62,2.92l-1.12,1.79c-1.66,2.64-3.41,5.16-4.7,7.99-.61,1.34-1.21,2.58-1.98,3.82-.67,1.08-3.09,5.96-2.91,7.24.45.35,1.08.7,1.5.85,2.03-1.56,2.5-3.44,3.95-5.81.98-1.6,1.94-3.04,2.58-4.85.22-.63.92-1.1,1.26-1.58l1.71-2.4,1.42-1.91c.74-.99,1.38-1.87,2.47-2.67-.4.91-.79,1.63-1.32,2.37-1.14,1.58-5.18,8.96-5.89,9.94l-1.08,1.48-4.05,8.25c-.44.9-.12,1.98.68,2.39,2.07,1.07,2.66-2.14,4.53-5.12,2.18-3.5,1.8-3.5,4.21-6.79s-.18-1.37,4.71-6.56c.38-.41.61-.92,1.2-1.06l-5.57,8.2-1.01,1.82-2,3.04-2.26,3.53c-1.08,1.68-2.2,5.2-2.83,7.38l1.7,1.29,1.24-1.09c.82-1.57,1.52-3.11,2.4-4.58l3.17-5.24c.97-1.61,1.8-3.34,2.57-5.06,1.07-2.37.49-.95,2.16-3.39.41-.6.9-.97,1.36-1.57l2.24-2.96,1.9-1.72c1.02-.92,1.82-1.7,2.84-2.98.1,1.08-.84,1.92-1.27,2.81-.98,2.06-2.16,3.84-3.5,5.66-1.17,1.59-1.99,3.27-3.1,4.92l-4.69,6.97-2.37,4.15c-.29.51-.71,1.06-1.05,1.57l-.96,1.47c-.97,1.48-1.75,3.04-2.54,4.61-.44.87-1.16,1.24-.58,2.21.34.57,1.35,1.65,2.2.75,1.02-1.08,1.71-2.77,2.43-4.18s1.43-2.67,2.27-4l2.89-4.57,2.02-3.01,1.93-2.87.97-1.12c.56-.65,1-1.21,1.64-1.74.72-.6.9-1.66,2.03-1.91l-3.75,5.48c-.66.97-1.1,2.1-1.73,3.08l-1.51,2.32c-1.47,2.27-3,4.38-4.27,6.8-1.48,2.81-3.13,5.44-4.08,8.57-.4,1.34-.55,2.73-2.19,3.43l1.62-3.33c.31-.64.01-1.43-.6-1.76-1.95-1.02-2.86,2.5-4.79,3.61l1.7-3.86c.16-.37.45-1.15.46-1.54-1.45-1.83-4.95,1.05-6.27,2.47-.17-.48-.34-1.09-.61-1.29s-1.1-.33-1.43-.27l-.79.14c-.16.03-.22-.77-.39-.88-3-1.86-4.35,3.8-6.69,4.8l2.01-3.44c.25-.42.33-1.18.09-1.5-.26-.35-1.44-.5-1.79-.12-1.29,1.39-2.35,2.88-3.42,4.48l-1.68,2.54Z"/>
  <path class="cls-1" d="M250.43,237.57c-.33-1.34,1.08-5.08,1.65-6.64s1.34-2.88,2.09-4.39l1.82-3.69c1.58-3.2,3.52-6.69,5.71-9.42,1.09-1.36,1.54-3.24,3.43-3.99-1.19,2.44-2.29,4.72-3.58,6.96l-1.49,2.58c-.91,1.57-1.95,3.05-2.67,4.73-1.53,3.56-3.25,6.87-5.06,10.29l-1.88,3.56Z"/>
  <path class="cls-1" d="M221.03,37.15c-.32-.58-.97-1.86-.69-2.41l1.83-3.5c.46-.87,1.18-1.67,1.89-2.44-.06-.93.07-2.45,1.39-2.78.62.3.43,1.41-.06,2.05.81,4.36-1.15,6.07-4.36,9.08Z"/>
  <path class="cls-1" d="M252.68,256.9l1.41-3.44c.29-.71,2.33-4.53,2.26-4.33.68-1.81,1.44-3.39,2.52-4.96l1.6-2.33c-.86,3.04-2.29,5.64-3.64,8.4l-2.05,4.18-2.24,4.51c-.36.72-.7,1.36-1.21,2.15.35-1.42.77-2.78,1.34-4.18Z"/>
  <path class="cls-1" d="M200.88,56.76c-1.66,1.51-1.63,2.5-2.98,3.39.45-2.88,5.27-7.23,7.47-9l2.31-1.86c-1.22,2-3.18,3.09-4.51,4.92-.7.97-1.39,1.74-2.29,2.56Z"/>
  <path class="cls-1" d="M259.06,148.33c-.41-2.99.7-1.44,1.93-4.76.51-1.4,1.96-2.38,2.88-3.49.65-.79.78-1.89,1.92-2.28-2.11,4.38-4.73,6.26-6.72,10.53Z"/>
  <path class="cls-1" d="M184.88,216.49c.02-1.27.88-2.03,1.57-2.97.97-1.32,1.69-2.67,2.39-4.13,1.59-1.35,2.13-3.38,3.74-5.18-.02,1.1-.78,1.79-1.27,2.65l-1.39,2.41c-.62,1.08-1.23,2.11-1.96,3.09l-3.08,4.12Z"/>
  <path class="cls-1" d="M253.91,247.9c.47-1.94,1.98-4.79,3.34-5.99.11.79-2.79,5.96-3.34,5.99Z"/>
  <path class="cls-1" d="M219.98,133.8l-1.18,1.88c-.66-.98-.03-1.83.74-2.26l.42-.24c.09-.05.08.51.01.62Z"/>
</svg>