<?xml version="1.0" encoding="UTF-8"?>
<svg id="Layer_2" data-name="Layer 2" xmlns="http://www.w3.org/2000/svg" viewBox="0 0 432 288">
  <defs>
    <style>
      .cls-1 {
        fill: #fff;
      }
    </style>
  </defs>
  <path class="cls-1" d="M-.13,289.32V1.32h432v288H-.13ZM216.18,258.37l-.39.77c-.1.19-.1.3-.33-.25-.05-.23-.04-.47.07-.55l.57-.39-1.29-1.24.65-.22-.07.5.52-.27c.11-.06-.06-.21-.32-.52l.76-.98c.21-.27-.15-.9-.49-1.34-.49-.28-.28-.21.15-.05.31.13.64.27.34-.03l.54-2.87c.55-2.92.8-1.54,1.1-6.02.04-.57.13-1.12.28-1.66l.91-3.29c.13-.49.09-1.05,0-1.57l-.48-3.19.42-1.54c.22-.81.42-1.61.51-2.35l.31-2.64c.08-.66.04-1.31-.17-1.9l.57-.43c.09-.07-.31-.3-.48-.4-.12-.07.05-.4.05-.61,0-2.35,1.36-.08,1.28-5.57-.01-.86.61-2.21.52-3.08l-.13-1.21.25-2.86c.09-.97.05-2.21.2-3.02.18-.92.6-1.75.58-2.76-.02-1.18.28-2.59-.04-3.72-.36-1.25-.46-2.19-.07-3.45.45-1.45.05-3.06.02-4.58l-.14-7.85-.48-4.04-.2-3.48-.24-9.35c-.09-3.41-.65-1.93-.33-6.3l.56-7.58.23-3.13.16-3.22.09-3.04-.02-13.81c0-.71-.05-1.35-.02-2.04l.17-4.25.2-2.43c.31-3.72.54-7.26.42-11.03-.02-.55.11-1.31.46-1.59.3-.24.99-.31,1.45-.34,2.71-.19,4.64,1.54,4.75,4.22.07,1.54.14,3.15.11,4.72l-.17,11.2c-.03,1.69-1.27,5.95-1.1,7.94l.21,2.43.17,5.92c.04,1.58-.35,2.66-.48,4.26l-.21,2.61c-.07.86-1.05,1.3-.91,5.89.09,2.92-.31,16.8-.14,17.47l.43,1.69c-.02-.1.35,6.68.33,7.71l-.18,9.25-.73,6.31.26,3.24c.13,1.69-1.33,7.31-1.09,8.75.28,1.65.21,3.16.05,4.8l-.2,2.11c-.16,1.69.39,3.33.24,4.63-.36,3.1-.63,6.09-.48,9.2.32,6.71-.19,2.19-.68,6.31-.23,1.93-.34,3.77-.27,5.67l.24,6.54.45,3.16.39,1.2c-.33,1.59-.25,2.99-.04,4.58.15,1.16-.29,4.63-.15,7.67.04.88,2.1,2.76,4.66,1.85.62-.22,1.28-1.32,1.45-1.97.11-.43-.87-.46-.75-.89.03-.12.08-.31.12-.44l-.22-3.52c.26-.3.5-.53.33-.58l-.78-.26c.34-.81.76-1.47,1.34-1.99l-.61-.24c-.15.06.12-.05.38-.14.48-.15.32-.11.63-.34l.33-.23-.38-.37c-.59-.58,1.74-.13,1.41-2.24l.35-2.03c-.66-.17-.64-.21-.31-.42-1.07-2.1.17-2.82-.86-4.51-.75.07-.24-.11.19-.28.13-.36.61-1.13.65-1.51l.57-5.35-.09-3.77c-.01-.66.49-1.5.36-2.12-.58-2.69-.02-5.16.44-7.79l.37-2.08c.56-3.19.46-6.49.31-9.71.46-.66.85-1.47.98-2.25l.45-2.67.32-1.9c.26-1.57.85-4.65.67-6.21-.08-.75,0-1.5.03-2.26l.15-5.49-.53-.27c.22.11.79-1.23.27-2.62-.33.03-.04,0,.27-.03.18-.27.5-.99.54-1.42l.3-2.86-.82-.89.86.03c.11,0,.27-.34.23-.44s-.18-.46-.1-.25c-.44.16-.53.2-.67.2s-.31-.43-.19-.51c.09-.06.43-.25.53-.28l.62-.17c.11-.03.02-.36,0-.53-.16-2.26.22-4.46.27-6.63.05-1.94.26-3.7.39-5.66l.25-3.82c.13-1.97.3-3.8.5-5.76l.24-2.41.14-3.81c.15-3.95.28-2.35.48-5.76l.18-3.08c.05-.82.24-1.76.24-2.67,0-1.8-.12-3.55.16-5.31.34-2.13,3.09-6.07,1.53-12.2v-1.91c0-5.31.8-5.67,1.2-8.88l.69-5.52c.12-.98-.13-2.12-.21-3.11-.28-3.59.22-2.62.36-5.19.07-1.25.48-2.68.25-3.87-.63-3.23.9-3.15.49-6.97-.2-1.88-.52-3.46-.4-5.35.04-.56-.38-1.45-.4-1.96l-.24-5.75c-.12-2.86-.39-5.48-.47-8.44l-.17-6.27c0-.1-.59-.39-.66-.46-.05-.05.02-.22.09-.22l.41-.05c-.03-3.63-.47-2.63-.1-6.79.11-1.27.17-2.51.4-3.77l.53-2.88c.19-1.01.21-2.19-.62-2.89l-.34-.28c-.06-.05-.2.3-.23.38l-.19.47c-.03.09-.1.04-.12-.05l-.22-1.01,1.26-.52c1.09-.45-.11-.03-.29-1.24-.03-.18-.28-.6-.44-.53l-.98.41-.76-1.41c.42-.17.76-.28.66-.38l-.34-.35-1.18-1.2c-.93-.05-1.3-.45-1.69-1.21l-1.8-.81c-.8-.36-1.05-.73-1.45-1.45-.52-.92-1.33-1.58-.63-2.97h-.44s-.63.04-.63.04c-.13,0-.25-.33-.15-.4l.51-.39c.77-.58.21-1.65-.51-2.17l-.19-2.27c-.94-.72-1.73-1.43-2.71-1.97-.65-.35-1.97-.43-2.23-1.38-.12-.43.3-1.3.34-1.73l.29-3.01c.06-.65.33-1.13-.11-1.81-.29-.45-.17-1.22-.25-1.73l-.21-1.41-.64-.25c-.17-.06.07-.46.24-.72l-.25-.92c-.31-1.14.39-.05-1.18-.73-.18-.08.03-.43.35-.84l-2.97-3.8-1.73.45c.04-1.64-3.89-2.86-5.28-2.58-2.62.53-5.14,1.22-7.26,2.86-.27.21-.84.53-1.11.44-.23-.07-.59-.44-.81-.55-3.17-1.58-1.99-1.84-5.08-2.22-3.83-.46-8.35-.07-10.7,3.28-1.54,2.19-1.58,4.79-1.59,7.35,0,2.15.23,4.01,1.58,5.75-.68,2.75-1.7,2.29-2.49,4.88-2.87,2.13-4.34,5.35-4.76,8.93-.14,1.19.21,2.38.51,3.6.18.72.27,1.69.57,2.32.71,1.52.97,2.87,1.1,4.51.16,2.07.96,4.15,1.02,6.2l.06,1.99c.08,2.68-.52,3.83-.53,7.16,0,1-.05,1.89-.07,2.9l-.15,6.93c-.02,1.17-.51,2.43-.64,3.59l-.64,5.34c-.38,3.2-.19,6.53-.83,8.83-.32,1.15-.14,2.2-.06,3.39.28,4.16-.27,6.91-.01,9.59l.27,2.85.23,2.43.45,3.4.16,4.93.25,2.43c.45,4.27-.2,4.3-.54,8.14-.21,2.37-.44,4.61-.79,6.94-.15,1.02-.08,1.92-.09,2.94,0-1.06-.25,7.43-.15,5.99l-.17,2.33c-.11,1.61.22,3.01.06,4.59l-.32,3.12-.31,3.35-.24,2.88-.25,2.63c-.15,1.56-.24,3.03,0,4.59.63,4.23-.19,2.13.3,5.72.26,1.93.37,3.75.15,5.69-.05.43.14.9.22,1.38.21,1.33.08,2.79.22,4.19.09.94.09,1.93-.02,2.83.16.42.65,1.29.58,1.72-.18,1.17-.06,2.45-.02,3.63l.17,5.23.15,2.43.29,2.98.13,1.85c.17,2.37,1.04,2.96,1.12,7.86.01.82,0,1.6.08,2.44l.26,2.88c.07.76.24,1.92.2,2.63l-.45,6.96.2,5-.04,7.21c-.02,3.14-.72,6.27-.16,9.33.41,2.24,1.65,3.29,3.87,3.57,1.32.17,2.88-.55,3.38-1.82.25-.63,1.75-1.08.91-1.17l-.43-.04c-.1-.16-.25-.49-.33-.42l-.52.46c.04-1.12-.1-1.93-.52-2.97-.6-.13-.64-.16-.25-.15l.33-.48c.04-.06-.28-.26-.21-.31l.49-.36c.09-.07-.32-.37-.37-.43.21-.13.76-.6.91-.91.13-.27-.01-.71.01-1.08l.99-1.9.46-.02c.11,0,.22-.36.13-.42l-.35-.22-.98-.61c-.23-.14.31-1.09.2-1.29-.36-.28-1.16-.6-1.26-.98-.1-.35.04-1.08.25-1.37l1-1.38-1.84-1.41c-.41-.31-.28-1.26-.15-1.81l-.39-.08c-.08-.02-.11-.52-.03-.56l2.65-1.34c.87-.44-1.51-.86-1.33-1.04.08-.08.17-.41.27-.41l.53-.04-.64-.47.87-.25c.25-.36.8-.81,1.24-.76.32.03.69.2,1.33.44l.23-3.83.87-7.67.19-2.44.16-4.5c.04-1.25.09-2.39.05-3.65l-.07-2.39c-.05-1.56-.16-3.22.04-4.73s-.21-2.9-.13-4.42l.22-4.36c.02-.49.16-1.28.24-1.82l.4-2.7c.44-2.96-.41-6.1.45-6.84.28-1.82.11-3.82.25-5.7l.27-3.57.78-7.57c.11-1.05.2-1.95.41-2.94.61-2.96.09-3.06.72-5.37.2-.74-.03-1.77.06-2.46.18-1.29.24-2.46.26-3.71l.1-5.65-.28-6.73c-.06-1.4-.08-2.7-.19-4.06l-.24-2.91c-.06-.78-.2-1.54-.35-2.25l-1.07-4.98c-.17-.8-.03-2.01.05-2.88.15-1.61-.19-2.95-.24-4.57l-.23-7.07c-.06-1.78,0-3.04.4-4.76.5-2.08-.02-4.61.23-6.73.67-.35,1.38.27,1.49,1.03s.42,1.73.49,2.46l.48,4.85.38,4.51c.21,2.54.22,4.92.05,7.43l-.24,3.61-.18,6.37c-.07,2.33-.13,4.59-.01,6.91l.2,4c.1,1.91.14,3.7.13,5.56-.03,4.95.72,3.65.42,7.87-.05.67,0,1.55.02,2.27l.2,7.89.69,8.39.59,6.59.2,2.89.25,3.6.15,4.98,1.39,12.05.27,4.79.17,2.67c.07,1.1.53,2.44.46,3.53l-.31,5.05c-.06.9-.11,1.73.07,2.65.47,2.33.06,5.39.16,7.94.28,7.16-.06,5.92-1.71,12.26-.48,1.85-.97,4.31-.99,6.14l-.02,2.45v11.12s0,5.97,0,5.97c0,.97.22,2.13.3,3.1-.77,3.01.31,8.58,4.09,8.87,1.27.1,2.16-.66,2.93-1.91l-1.01-.86c-.18-.53-.33-.71-.81-1.08l.89-.37c-.55-.36-.84-.81-1.01-1.54-.11-.48.2-1.06.42-1.55.14-.31-.2-1.26.03-1.51l.89-.96c.11-.12-.14-.85.03-.81l.65.15,1.16-1.14-.67-1.22c.07-.98.08-1.86.05-2.8h.61c1.12.04-1.04-.83-.74-1.34l.5-.87-.62-.03c-.1,0-.04-.54.06-.54l.48.02c.2,0,.66.04.71-.12.04-.12.1-.41.09-.55l-.03-1.91ZM181.53,30.7c-.22-.28-.64-.53-.54-.66l.44-.6c-.2-.26-.99-.4-1.4-.2-.34.17-.75.87-.78,1.32-.07.97.44,1.5,1.38,1.52.51.01,1.39-.77.91-1.38Z"/>
  <path d="M216.18,258.37l.03,1.91c0,.14-.05.43-.09.55-.06.16-.52.13-.71.12l-.48-.02c-.1,0-.16.53-.06.54l.62.03-.5.87c-.3.51,1.86,1.38.74,1.36h-.61c.04.93.03,1.81-.05,2.79l.67,1.22-1.16,1.14-.65-.15c-.17-.04.09.69-.03.81l-.89.96c-.23.25.11,1.2-.03,1.51-.22.49-.53,1.07-.42,1.55.17.73.47,1.18,1.01,1.54l-.89.37c.49.37.63.55.81,1.08l1.01.86c-.76,1.25-1.66,2.01-2.93,1.91-3.78-.29-4.86-5.86-4.09-8.87-.08-.97-.29-2.13-.3-3.1l-.02-5.97v-11.12s.03-2.45.03-2.45c.02-1.82.51-4.28.99-6.14,1.65-6.35,1.99-5.11,1.71-12.26-.1-2.55.31-5.61-.16-7.94-.18-.92-.13-1.75-.07-2.65l.31-5.05c.07-1.09-.39-2.43-.46-3.53l-.17-2.67-.27-4.79-1.39-12.05-.15-4.98-.25-3.6-.2-2.89-.59-6.59-.69-8.39-.2-7.89c-.02-.72-.07-1.6-.02-2.27.3-4.22-.45-2.92-.42-7.87.01-1.86-.04-3.65-.13-5.56l-.2-4c-.12-2.32-.05-4.59.01-6.91l.18-6.37.24-3.61c.17-2.51.16-4.89-.05-7.43l-.38-4.51-.48-4.85c-.07-.73-.37-1.68-.49-2.46s-.82-1.39-1.49-1.03c-.25,2.12.27,4.65-.23,6.73-.41,1.71-.46,2.98-.4,4.76l.23,7.07c.05,1.62.39,2.96.24,4.57-.08.87-.22,2.08-.05,2.88l1.07,4.98c.15.72.29,1.48.35,2.25l.24,2.91c.11,1.36.13,2.67.19,4.06l.28,6.73-.1,5.65c-.02,1.25-.09,2.42-.26,3.71-.09.69.14,1.71-.06,2.46-.63,2.31-.11,2.41-.72,5.37-.2.99-.3,1.89-.41,2.94l-.78,7.57-.27,3.57c-.14,1.88.02,3.88-.25,5.7-.85.74,0,3.88-.45,6.84l-.4,2.7c-.08.54-.21,1.33-.24,1.82l-.22,4.36c-.08,1.52.34,2.84.13,4.42s-.09,3.17-.04,4.73l.07,2.39c.04,1.26,0,2.4-.05,3.65l-.16,4.5-.19,2.44-.87,7.67-.23,3.83c-.64-.24-1.01-.4-1.33-.44-.44-.05-.99.4-1.24.76l-.87.25.64.47-.53.04c-.11,0-.19.33-.27.41-.18.18,2.2.6,1.33,1.04l-2.65,1.34c-.08.04-.05.54.03.56l.39.08c-.13.55-.26,1.5.15,1.81l1.84,1.41-1,1.38c-.21.29-.35,1.02-.25,1.37.11.37.9.7,1.26.98.11.2-.44,1.14-.2,1.29l.98.61.35.22c.09.05-.03.41-.13.42l-.46.02-.99,1.9c-.02.37.12.8-.01,1.08-.15.32-.69.78-.91.91.05.06.46.36.37.43l-.49.36c-.07.05.25.25.21.31l-.33.48c-.39-.01-.36.02.25.15.43,1.04.57,1.85.52,2.97l.52-.46c.08-.07.23.26.33.42l.43.04c.84.09-.67.54-.91,1.17-.5,1.27-2.06,1.99-3.38,1.82-2.23-.28-3.46-1.32-3.87-3.57-.56-3.06.14-6.19.16-9.33l.04-7.21-.2-5,.45-6.96c.05-.7-.13-1.86-.2-2.63l-.26-2.88c-.07-.83-.06-1.62-.08-2.44-.08-4.9-.95-5.48-1.12-7.86l-.13-1.85-.29-2.98-.15-2.43-.17-5.23c-.04-1.18-.16-2.47.02-3.63.07-.44-.42-1.3-.58-1.72.11-.9.11-1.89.02-2.83-.14-1.4,0-2.86-.22-4.19-.08-.48-.26-.95-.22-1.38.22-1.94.11-3.75-.15-5.69-.49-3.59.33-1.48-.3-5.72-.23-1.56-.14-3.03,0-4.59l.25-2.63.24-2.88.31-3.35.32-3.12c.16-1.58-.18-2.98-.06-4.59l.17-2.33c-.1,1.44.15-7.06.15-5.99,0-1.02-.06-1.93.09-2.94.35-2.33.58-4.57.79-6.94.33-3.84.98-3.87.54-8.14l-.25-2.43-.16-4.93-.45-3.4-.23-2.43-.27-2.85c-.26-2.67.3-5.42.01-9.59-.08-1.19-.25-2.24.06-3.39.64-2.3.45-5.62.83-8.83l.64-5.34c.14-1.16.62-2.42.64-3.59l.15-6.93c.02-1.01.07-1.9.07-2.9.01-3.33.61-4.48.53-7.16l-.06-1.99c-.06-2.05-.85-4.13-1.02-6.2-.13-1.64-.39-2.99-1.1-4.51-.3-.63-.39-1.6-.57-2.32-.3-1.22-.65-2.41-.51-3.6.42-3.57,1.89-6.8,4.76-8.93.79-2.59,1.8-2.13,2.49-4.88-1.36-1.74-1.59-3.6-1.58-5.75,0-2.56.05-5.15,1.59-7.35,2.35-3.35,6.87-3.74,10.7-3.28,3.09.37,1.9.63,5.08,2.22.22.11.59.48.81.55.27.08.84-.24,1.11-.44,2.12-1.64,4.63-2.33,7.26-2.86,1.39-.28,5.32.93,5.28,2.58l1.73-.45,2.97,3.8c-.32.4-.53.76-.35.84,1.58.68.87-.41,1.18.73l.25.92c-.17.26-.41.66-.24.72l.64.25.21,1.41c.08.51-.04,1.28.25,1.73.44.68.17,1.16.11,1.81l-.29,3.01c-.04.43-.46,1.3-.34,1.73.26.95,1.58,1.03,2.23,1.38.97.53,1.76,1.24,2.71,1.97l.19,2.27c.72.52,1.28,1.59.51,2.17l-.51.39c-.1.08.03.41.15.4l.63-.03h.44c-.71,1.38.1,2.04.63,2.96.41.71.65,1.09,1.45,1.45l1.8.81c.39.75.76,1.15,1.69,1.21l1.18,1.2.34.35c.1.1-.24.21-.66.38l.76,1.41.98-.41c.17-.07.42.35.44.53.18,1.21,1.38.79.29,1.24l-1.26.52.22,1.01c.02.09.09.14.12.05l.19-.47c.03-.08.17-.43.23-.38l.34.28c.83.7.81,1.88.62,2.89l-.53,2.88c-.23,1.26-.29,2.5-.4,3.77-.37,4.16.07,3.16.1,6.79l-.41.05c-.07,0-.14.18-.09.22.08.07.66.36.66.46l.17,6.27c.08,2.96.35,5.58.47,8.44l.24,5.75c.02.51.44,1.4.4,1.96-.13,1.9.19,3.47.4,5.35.41,3.82-1.12,3.73-.49,6.97.23,1.19-.18,2.62-.25,3.87-.15,2.58-.64,1.6-.36,5.19.08.99.33,2.13.21,3.11l-.69,5.52c-.4,3.21-1.2,3.56-1.2,8.88v1.91c1.55,6.13-1.19,10.08-1.54,12.2-.28,1.76-.15,3.51-.16,5.31,0,.91-.19,1.86-.24,2.67l-.18,3.08c-.2,3.4-.33,1.81-.48,5.76l-.14,3.81-.24,2.41c-.19,1.97-.37,3.8-.5,5.76l-.25,3.82c-.13,1.96-.34,3.72-.39,5.66-.06,2.17-.44,4.37-.27,6.63.01.17.11.5,0,.53l-.62.17c-.1.03-.44.22-.53.28-.12.07.05.51.19.51s.24-.04.67-.2c-.08-.21.05.14.1.25s-.12.45-.23.44l-.86-.03.82.89-.3,2.86c-.04.43-.36,1.15-.54,1.42-.32.03-.6.06-.27.03.53,1.38-.04,2.73-.27,2.62l.53.27-.15,5.49c-.02.76-.11,1.51-.03,2.26.17,1.56-.41,4.64-.67,6.21l-.32,1.9-.45,2.67c-.13.78-.51,1.59-.98,2.25.15,3.22.25,6.52-.31,9.71l-.37,2.08c-.46,2.63-1.03,5.1-.44,7.79.13.61-.37,1.46-.36,2.12l.09,3.77-.57,5.35c-.04.38-.53,1.15-.65,1.51-.43.17-.94.35-.19.28,1.03,1.68-.21,2.41.86,4.51-.33.21-.35.25.31.42l-.35,2.03c.33,2.11-2.01,1.66-1.41,2.24l.38.37-.33.23c-.32.22-.15.19-.63.34-.26.1-.53.2-.38.14l.61.24c-.58.52-1,1.17-1.34,1.99l.78.26c.17.06-.07.28-.33.58l.22,3.52c-.04.13-.09.31-.12.44-.12.43.86.46.75.89-.17.65-.83,1.75-1.45,1.97-2.55.91-4.62-.98-4.66-1.85-.14-3.04.3-6.52.15-7.67-.21-1.59-.29-2.99.04-4.58l-.39-1.2-.45-3.16-.24-6.54c-.07-1.9.04-3.74.27-5.67.49-4.11,1,.4.68-6.31-.15-3.11.12-6.1.48-9.2.15-1.31-.4-2.94-.24-4.63l.2-2.11c.16-1.64.23-3.15-.05-4.8-.25-1.44,1.22-7.06,1.09-8.75l-.26-3.24.73-6.31.18-9.25c.02-1.03-.36-7.81-.33-7.71l-.43-1.69c-.17-.67.23-14.54.14-17.47-.14-4.59.84-5.03.91-5.89l.21-2.61c.13-1.6.52-2.68.48-4.26l-.17-5.92-.21-2.43c-.17-1.99,1.08-6.26,1.1-7.94l.17-11.2c.02-1.57-.05-3.18-.11-4.72-.12-2.68-2.04-4.4-4.75-4.22-.46.03-1.15.1-1.45.34-.35.28-.48,1.04-.46,1.59.12,3.77-.11,7.31-.42,11.03l-.2,2.43-.17,4.25c-.03.69.02,1.33.02,2.04l.02,13.81-.09,3.04-.16,3.22-.23,3.13-.56,7.58c-.32,4.37.24,2.89.33,6.3l.24,9.35.2,3.48.48,4.04.14,7.85c.03,1.52.43,3.13-.02,4.58-.39,1.26-.29,2.2.07,3.45.32,1.13.02,2.54.04,3.72.02,1.01-.4,1.84-.58,2.76-.15.8-.11,2.05-.2,3.02l-.25,2.86.13,1.21c.09.86-.53,2.22-.52,3.08.07,5.49-1.28,3.22-1.28,5.57,0,.2-.18.53-.05.61.17.1.57.33.48.4l-.57.43c.21.59.24,1.24.17,1.9l-.31,2.64c-.09.75-.29,1.54-.51,2.35l-.42,1.54.48,3.19c.08.51.13,1.08,0,1.57l-.91,3.29c-.15.54-.24,1.09-.28,1.66-.3,4.47-.55,3.09-1.1,6.02l-.54,2.87c.31.3-.03.17-.34.03-.42-.16-.64-.23-.15.05.34.44.7,1.07.49,1.34l-.76.98c.26.31.43.46.32.52l-.52.27.07-.5-.65.22,1.29,1.24-.57.39c-.12.08-.12.32-.07.55.24.55.24.44.33.25l.39-.77ZM228.02,42.52c.4.01.97-.82.8-1.17-.15-.32-1-.84-1.32-.68-.63.33-.22,1.83.51,1.85ZM223.1,44.12c.51-.25.71-1.02.61-1.4-.21-.75-1.09-1.01-1.6-1.13-.12-.03,0,.29.08.66.06.12-.86.07-.94-.15l-.28-.78-.31.51c-.05.09-.3-.23-.28-.33l.14-.58-.63.4c-.13.09-.39-.27-.67-.41.15.67.67,1.47,1.12,1.8.4.03.5.05.46.16l-.19.52c-.05.13-.16.68-.02.68h.57s.47-1.53.47-1.53l.36,1.13c.08.25.88.56,1.11.45ZM209.43,47.04l-1.51-.17-.74-.16c-.13-.03-.28.4-.24.53.2.67.96.04,1.12.3l.37.58,1-1.08ZM229.12,83.46c1.38.2,2.75.63,4.08.92l2.06.46-.48-5.13c-.28-2.97-2-7.44-3.08-10.36-.59-1.61-1.18-4.32-1.63-5.36-.86-2.01-2.3-5.19-2.3-7.25,0-5.24.13-4.4-2.11-8.98-.1-.21-.68-.52-.88-.41-.73.39-.46,1.19-1.47,3.42l-1.36,3-2.22,4.99-1.19,2.36c-.74,1.47-1.52,2.72-2.39,4.13-1.4,2.28-2.46,4.72-3.67,7.13l-2.8,5.61c-.85,1.71-1.45,3.49-2.2,5.38.72.37,1.61.97,2.29,1.08,5.36.83,11.26-2.16,19.35-.99ZM212.75,93.45l-1.15.02c-.09,0-.31.21-.4.28-.08.06.25.22.35.24l.29.06c.13.16.48.67.64.54l.57-.47c.13-.1-.13-.67-.29-.67ZM228.49,95.48l-1.55-.58c-.22-.08-.59.64-.4.75l.72.42c.19.11.76.2,1.02.23.21.02.42-.74.21-.82ZM227.81,103.74c.1-.31-.62-.96-.82-.77l-.66.64c-.26.25,1.05,1.46,1.21.98l.27-.86ZM226.29,106.17c.16-.08.65-.88.47-1.07l-.66-.7c-.16-.17-.35-.4-.46-.35s-.52.2-.43.29l.26.24c-.37.17-1,.48-.86.63l.6.64c.11.12.42-.39.63-.59l.46.92ZM195.81,109.05l1.11.96c.13-.12.54-.87.38-1.1l-.65-.99c-.17-.26-.45-.89-.71-.83l-1.05.23c.06-.22.26-.64.13-.74l-.74-.59c.1-.12-.21.25-.39.45-.08.09.01.34.13.37l.45.15.44,1.09c.1.25.05.86.03,1.16,1.25.76,1.36,2.82,1.81,2.32l.45-.49c-.5-.58-.99-1.21-1.41-1.99ZM195.62,117.83c.65-.26.69-1.5.13-1.84-.29.1-.68.5-.7.79-.03.32.3,1.13.57,1.06ZM237.14,177.28l1.11-.54-.38-1.33c-.06-.2-.71-.65-.85-.49l-.37.45.59-.17c.07-.02.15.25.1.31s-.36.17-.35.24l.15,1.52ZM196.71,214.85l1-1.98.83-.05c-.7-.74-.73-1.96-.45-2.56.07-.15-.37-.61-.25-.69l.48-.3c-1.34-.63-.46-1.75-.89-1.65l-.54.13.08-1.08s-2.06,0-1.97.6l.16,1.03.88-.73.52.32c.07.04-.01.33-.09.33l-.46-.04-.05,1.2-1.49,1.01c3,2.17.67,2.52,2.23,4.45Z"/>
  <path d="M181.53,30.7c.48.6-.4,1.39-.91,1.38-.94-.02-1.45-.55-1.38-1.52.03-.45.44-1.15.78-1.32.41-.2,1.21-.07,1.4.2l-.44.6c-.1.14.32.39.54.66Z"/>
  <path class="cls-1" d="M229.12,83.46c-8.1-1.17-14,1.82-19.35.99-.68-.1-1.56-.71-2.29-1.08.75-1.9,1.35-3.67,2.2-5.38l2.8-5.61c1.2-2.4,2.26-4.85,3.67-7.13.86-1.4,1.65-2.66,2.39-4.13l1.19-2.36,2.22-4.99,1.36-3c1.01-2.23.75-3.03,1.47-3.42.2-.11.78.21.88.41,2.23,4.58,2.1,3.73,2.11,8.98,0,2.06,1.44,5.24,2.3,7.25.45,1.04,1.04,3.75,1.63,5.36,1.07,2.91,2.8,7.38,3.08,10.36l.48,5.13-2.06-.46c-1.33-.3-2.7-.72-4.08-.92Z"/>
  <path class="cls-1" d="M196.71,214.85c-1.56-1.94.76-2.28-2.23-4.45l1.49-1.01.05-1.2.46.04c.08,0,.16-.29.09-.33l-.52-.32-.88.73-.16-1.03c-.09-.61,1.97-.58,1.97-.6l-.08,1.08.54-.13c.43-.11-.45,1.01.89,1.65l-.48.3c-.11.07.32.53.25.69-.28.6-.25,1.82.45,2.56l-.83.05-1,1.98Z"/>
  <path class="cls-1" d="M195.81,109.05c.42.78.91,1.41,1.41,1.99l-.45.49c-.45.5-.56-1.57-1.81-2.32.02-.3.07-.91-.03-1.16l-.44-1.09-.45-.15c-.12-.04-.21-.28-.13-.37.17-.2.49-.57.39-.45l.74.59c.13.1-.08.52-.13.74l1.05-.23c.26-.06.54.57.71.83l.65.99c.15.24-.25.98-.38,1.1l-1.11-.96Z"/>
  <path class="cls-1" d="M223.1,44.12c-.24.12-1.03-.2-1.11-.45l-.36-1.13-.47,1.53h-.57c-.14,0-.02-.55.02-.68l.19-.52c.04-.11-.06-.13-.46-.16-.45-.33-.98-1.13-1.12-1.8.28.14.54.5.67.41l.63-.4-.14.58c-.02.1.23.42.28.33l.31-.51.28.78c.08.22,1,.27.94.15-.08-.36-.2-.69-.08-.66.51.12,1.39.39,1.6,1.13.11.38-.1,1.15-.61,1.4Z"/>
  <path class="cls-1" d="M226.29,106.17l-.46-.92c-.2.2-.52.71-.63.59l-.6-.64c-.14-.15.49-.46.86-.63l-.26-.24c-.09-.08.31-.23.43-.29s.3.18.46.35l.66.7c.18.19-.31,1-.47,1.07Z"/>
  <path class="cls-1" d="M228.02,42.52c-.73-.02-1.14-1.52-.51-1.85.32-.17,1.16.35,1.32.68.16.35-.4,1.18-.8,1.17Z"/>
  <path class="cls-1" d="M237.14,177.28l-.15-1.52c0-.08.3-.18.35-.24s-.03-.33-.1-.31l-.59.17.37-.45c.13-.16.79.29.85.49l.38,1.33-1.11.54Z"/>
  <path class="cls-1" d="M209.43,47.04l-1,1.08-.37-.58c-.16-.25-.92.38-1.12-.3-.04-.13.11-.56.24-.53l.74.16,1.51.17Z"/>
  <path class="cls-1" d="M228.49,95.48c.22.08,0,.85-.21.82-.26-.03-.83-.12-1.02-.23l-.72-.42c-.19-.11.18-.83.4-.75l1.55.58Z"/>
  <path class="cls-1" d="M227.81,103.74l-.27.86c-.15.48-1.46-.73-1.21-.98l.66-.64c.2-.2.92.46.82.77Z"/>
  <path class="cls-1" d="M195.62,117.83c-.27.08-.6-.73-.57-1.06.02-.29.41-.69.7-.79.56.35.52,1.58-.13,1.84Z"/>
  <path class="cls-1" d="M212.75,93.45c.17,0,.42.57.29.67l-.57.47c-.16.13-.51-.39-.64-.54l-.29-.06c-.09-.02-.42-.18-.35-.24.09-.07.31-.28.4-.28l1.15-.02Z"/>
</svg>