<?xml version="1.0" encoding="UTF-8"?>
<svg id="Layer_2" data-name="Layer 2" xmlns="http://www.w3.org/2000/svg" viewBox="0 0 432 288">
  <defs>
    <style>
      .cls-1 {
        fill: #fff;
      }
    </style>
  </defs>
  <path class="cls-1" d="M279.42,4.07l1.99,2.81c.11.15.75.23.94.23.97-.04-1.52-2.35-1.08-3.03h154.68v280.01H39.83V4.07h239.59ZM300.1,7.33c0-.27-.22-.48-.48-.48s-.48.22-.48.48.22.48.48.48.48-.22.48-.48ZM132.87,13.37l.2-.74c.03-.11-.36-.22-.45-.16l-.42.29c-.14.1-.45.68-.28.74l.4.15c.11.04.52-.17.55-.28ZM245.86,174.49l1.42,2.83c.23,3.89-.56,7.05,1.35,10.67.5.95,1.04,1.72,1.4,2.65.49,1.26,1.28,2.11,2.03,3.22l2.15,3.24c2,3.01,1.9,5.6,2.12,8.75.14,1.96,1.14,3.86,1.07,6.02-.04,1.24.14,2.67.23,4,.31,4.82.98,2.64,1.5,6.08.38,2.55-2.18,3.91-3.35,5.65-1.42,2.11-2.3,4.06-4.37,5.69-.73.58-1.35,2.12-1.97,2.86l-2.18,2.58c-.58.68-2.3,1.04-2.89,1.64l-3.77,3.77c-.44.44-.58,1.77-.82,2.47-.47,1.34-1.22,2.69-1.02,4.14.13.93.13,2.49.47,3.25s2.78,5.77,3.03,6.04l4.82,5.24c1.57,1.71,3.97,2.45,5.96,3.54,1.44.79,2.89,1.04,4.04-.35.3-.37,1.46-.68,1.78-1.02l1.87-2.04c-.41-1.68,2.23-4.53,3.42-5.86.76-.84,1.38-1.49,2.47-1.8.92-.26,1.93.29,2.99.65.44.15,1.51-.09,1.85.18,1.21.95,1.03,2.52,1.7,2.62l1.29.19c.98.14,1.83.15,2.74-.16l2.11-.73c6.38-6.09,4.3-1.6,10.3-9.7.6-.81.87-2.38,1.57-3.07,1.44-1.43,1.46-3.11.41-4.86-1.33-2.23-.46-2.25-1.18-5.91-.41-2.08-.24-3.69.97-5.45,5.4-7.83,11.07-5.97,8.9-9.92-.57-1.04-1.19-2.84-.84-3.95l.66-2.08c.97-1.42,2.99-.25,4.11-.26l4.46-.03c1.59-.01,3.33-.46,4.01-1.74,1-1.91.49-3.2-.47-4.75-2.72-4.37-5.13-1.38-3.66-5.61.41-1.18-.81-2.14-1.33-3-2.12-3.51-5.52-5.62-9.77-5.46-.76,1.2-1.12,2.41-1.55,3.83-.37,1.24-2.15,2.28-3.51,2.19-2.7-.16-1.75-1.83-6.26-.46l-2.18-1.42c-.69-1.88-1.24-4.19-.5-6.16l1.8-2.18c.43-.2,1.45-.59,1.92-.69l3.65-.79c.68-.15,2,.08,2.69-.23.56-.25,1.38-1.52,1.24-2.21-.2-.97-1.76-1.48-2.34-2.15l-1.91-2.23c-4.18.72-3.07-.9-6-2.65l.05-2.27,1.28-1.91c.22-3.34,2.14-3.24,3.25-5.62l1.3-2.8c.51-1.11,1.05-1.89,2.05-2.57l1.01-.69c.19-.13.61.56.86.72,1.18.74,2.71-2.57,2.92-4.58.42-3.87.39-5.76-3.14-8.67-1.05-.87-2-1.73-3.36-2.12-2.54-.71-3.1,3.9-7.45,2.62l-2.04-.6c-.33-1.76-1.87-1.83-3.12-2.4-1.99-.91-3.42-1.77-5.85-2.16l-3.17-.51.66-.85c.06-.08-.03-.12-.13-.15-.1-.04-.62-.06-.66.03l-.75,1.51c-1.07-.04-1.89.74-2.45,1.47l-1.96-.22.05-1.99c.03-.92.15-1.98.28-2.89.55-.43,1.34-.92,1.76-1.41,1.52-1.77,3.7-3.64,6.04-3.4,2.19.23,2.99,2.35,4.12,3.64,1.31,1.48,2.71,2.54,3.36,4.49,1.35-1.11,3.02-2.56,3.28-4.16.2-1.25.64-1.63,1.23-2.65.8-1.4.95-3.73,1.61-5.36,1.14-2.82.21-5.39-1.42-7.72-2.13-3.03-3.71-4.74-7.86-3.76-.84.17-2.41-1.02-3.28-1.03-.97,0-2.11.18-3.02-.21-.6-.26-1.91-.41-2.39-.09-.9.68-1.93,1.56-3.05,1.4-2.58-.36-2.75-3.25-3.93-4.61-1.09-1.25-2.76-3.01-2.12-4.71,1.26-3.36.4-1.13,2.55-3.91.28-.37,1.34-.23,1.8-.28,3.74-.44,3.41.19,4.88-1.32l2.16-2.22c.81-.83,2.3-2.25,3.31-2.66l5.27-2.15c-.79-1.8-1.35-3.29-2.47-4.61-1.86-2.22-3.35-4.9-5.43-6.86-2.42-1.06-4.8-2.22-6.39-4.46-.4-.57-1.69-1.58-2.35-1.52-5.65.53-5.56,1.79-6.75,1.87-2.22.14-4.24.09-6.35.6-1.09.26-1.73.19-2.78-.44-3.22,1.5-1.65,1.54-3.85,5.84-.76,1.5-.64,5.71-1.37,4.57-.88-1.38-.43-1.5-1-1.77-.86-.4-4.89,1.76-6.71-1.38-.99-1.71-.98-3.27-.36-5.07l.73-2.12,1.71-1.84c1.77-.94,2.93-2.2,2.94-4.5v-2.15s-1.2.31-1.2.31c-.17-.47-.38-1.35-.22-1.72s.79-1.03.93-.98l.38,1.16c.06.18.66-.02.69-.21l.12-.7c.29-1.74,1.18-1.18,3.76-2.38.36-.17,1.22.61,1.61.66l3.54-.38c.46-.05,1.48.35,1.77.06.24-.25.54-1.02.81-1.24,1.06-.9,2.91-.62,4.22-.08l3.05-1.91c-.07-3.65-3.75-8.73-7.04-10.72-1.35-.82-5.37-2.98-6.67-3.53-3.22-1.38-5.82-1.34-9.24-2.63-2.11,2.31-1.11,3.2-3.1,5.01-2.84,2.59-4.26,4.39-7,6.28-.9.62-.95,2.38-2.64,2.3-.93-.05-1.76.98-2.55,1.38l-2.22,1.12-3.75,1.97c-3.3,1.74-4.27.52-6.73.64-.92.05-2.9-1.41-2.67-2.35l.95-3.95c.85-3.54,4.87-6.31,8.54-6.12l2.47-1.09c2.58-1.14,5.56-2.86,7.92-4.54l3.68-.53c.24-.17.84-.69,1.12-.78l2.85-.87.06-6.3c.02-2.19-1.11-3.3-2.53-4.54-1.04-.91-1.96-2.04-3.37-2.73-.32-.15-.93-.57-1.14-.38-1.05.98-1.52,2.47-2.03,3.57-.54,1.17-2.16,3.21-3.49,3.71-1.8.68-3.87.7-5.79.82-.81.05-2.06-.35-2.93-.65-1.02-.35-1.94-2.04-1.91-2.93,0-.14.44-.6.37-.72l-.3-.53c.55-.89.31-2.68.64-3.47,1.68-3.97,1.27-2.43,4.76-5.45,2.14,1.46,4.36,1.19,6.46.03.97-.54,2.21-1.55,1.33-2.99-.88-1.43-2.77-2.41-3.99-3.61-1.82-1.79-3.55-4.62-4.71-5.07l-3.18-1.23c-2.08-.8-4.44.12-6.53.48-2.74.48-5.48.37-8.13,1.01l-4.08.97c-1.18.28-2.97,1.69-4.05,2.47-4.11,3-3.98,4.95-5.21,6.14s-1.41,2.37-1.93,3.77c-1.59,4.3-.49,3.21-2.79,6.7l-.54.81c-.11.17.28.63.4.88-.4,1.22-1.4,2.69-1.76,4.06-.53,2.03.4,4.71,1.43,6.4.4.64.88,1.34.87,1.86,0,.43-.76,1.17-1.19,1.28-1.69.45-2.57,1.66-3.67,2.79l-3.08,3.15c-4.15,4.25-2.44,4.49-5.2,7.1l-.75,3.53c-1.11,5.21,1.22,4.01-1.04,6.03l1.73.14c.43,1.28.83,2.56,1.33,3.63.44.94.77,1.39.28,2.29-.4.74-1.11.96-1.96,1.45-.77.45-1.63,1.48-2.39,2.07-1.27.98-2.14,1.97-2.61,3.63-.52,1.85-3.4,1.73-3.42,2.22-.08,1.69.82,1.39.57,2.96-.2,1.27-2.63.98-3.04,2.67-.14.6.32,1.45.74,2.14l-.64,1.43c.19,1.39-.22,2.73-.94,3.86l.59,1.87,2.06,3.21c-.6.65-1.03,1.29-1.07,1.92l-.13,2.34c-3.39-.09-5.52,2.63-3.64,1.97l.47-.16.74-.26c.14-.05.31.34.39.49l-1.47,1.13.99.64c.18.11-.4.72-.62.7-.8-.08-1.43-1.67-2.33-1.36l-2.16.73c.07.76.12,1.57-.04,1.92l-2.09,1.36c-.19.12-.84.34-1.04.42-.69.3.45,1.36.14,2.23-.11.32-.87.67-1.23.64-2.91-.19.14,2.95-4.01,4.31l-.25,2.19c-1.46,4.26.67,5.42,1.46,7.44l1.15,2.96c-.79.09-1.47.08-1.75.33s-.3,1.22-.11,1.54c.76,1.23,2.15-.12,3.05,1.07.5.66.44,1.36.25,1.99-.2.69-1.23.57-1.72.89l-2.16,1.4c-.08,3.52-3.62,1.79-2.87,5.3l-1.97,3.35,1.87,1.24-2.93,1.85-.64,2.6c.29.87.23,1.67.2,2.64-.04,1.47.06,2.93-1.2,3.93.64,1.01.21,3.33-.47,4.45l-1.69,2.77,1.01,1.69c-.96.39-1.75.68-2.04,1.14-1,1.58,1.43,3.98.32,4.97l-2.88,2.56v2.89c-1.97.59-1.64,2.7-1.49,4.57.13,1.59-1.49,3.23-1.54,4.62-.1,2.47.6,6.4-.23,7.75.45,1.8,1.16,3.99,1.96,5.61.48.98,1.39,1.37,1.12,2.74-.12.61.18,1.62.5,2.16l1.65,2.8c.57.98,1.26,1.01,2.5,3.88.71-.78.96-1.03,1.82-1.46.31-.16,1.15.2,1.19.53.04.27-.25.87-.53.88-.54.02-1.62.11-2.02.2l-.47,2.21,1.5.78c-.49,1.13-.03,1.79.74,2.37l.24,4.09.15,2.79c.18,3.39,1.76,6.27.91,9.08-.71,2.35-.3-.26,1.35,3.48.22.49.97,1.37,1.01,1.95.33,4.3-1.07,3.63,3.44,8.58.64.7,1.4,1.66,2.05,2.2,1.48,1.24,3.08,1.96,4.36,3.46,1.86,2.16,4.81,4.19,7.81,4.46.87.08,2.79-.01,3.62-.33,1.08-.42,2.63-1.34,3.75-1.97,2.04-1.14,1.11-5.59,2.64-7.77l1.71-2.43c.96-1.36,2.09-1.95,3.71-3.42,1.17-1.06,3.64-1.19,4.73-2.54-.46-2.69,2.52-2.8.44-4.82-2.9-2.81-.62-1.76-4.12-4.29-1.44-1.04-.43-2.96-.06-4.22l.25-3.05c.08-.93.25-1.91.47-2.84-2.69-2.21,2.71-.73,2.15-2.37-.21-.62-.42-1.14-.33-1.45s.7-.94.79-.86l1.32.92.07-1.31c.01-.21.67-.44.84-.3l.77.64c.3.25,1.18-.27,1.64-.3,1.25-.08,2.97.2,3.98-.33,1.2-.63,2.34-.78,3.66-.82.56-.06,1.83-.41,2.32-.65l2.68-1.33c1.58-.79,2.56-1.8,3.63-3.1l2.83-3.44c2.27-2.76,2.81-3.69,2.55-7.38-.1-1.42-.49-2.41-.96-3.65-.58-1.52-1.08-2.56-2.34-3.66l-1.69-1.48c-1.69-1.48-4.18-3.06-6.53-1.95-1.27.6-2.02,2.44-3.03,3.38-2.52,2.33-.73,3.05-1.7,5.44l-.72,1.79-1.35,3.17c-1.56.53-2.61,1.15-3.84,2.12-4.6-.98-3.27.51-5.12-1.09l-2.31-2.01c-1.23-1.07-1.33-2.04-.96-3.65.2-.84.29-1.56,1.15-2.02l.71-1.75,1.4-1.82,4-5.21c.47-.61.79-1.39.97-2.11l2.36-1.54c-.49-1.59-1.19-2.64-2.4-3.81,1.79.34,2.78-.9,3.75-1.14l5.57-1.36c.98-.24,1.49-.62,2.24-1.34s1.96-1.43,2.44-2.33c.69-1.28,3.73-5.96,5.31-5.35.53,1.92,2.75.62,5.96,2.03.54-.47,1.75-1.45,1.94-2.1l.97-3.41c.71-2.51-.08-4.43.87-6.85l-1.6-1.8.93-2.17c-.02-1.77.61-2.98,1.33-4.44,1.51-3.07,2.75-6.01,5.28-8.37.94.81,1.47,1.64,2.01,2.72.48.96,1.34,1.6,1.97,2.27,1.28,1.37,2.37,2.68,4.28,3.27,2.04.62,1.1,2.05,3.18,1.96-1.33,1.66-.77,3.65-.28,5.61.31,1.26.59,2.77,1.78,3.44,2.07,1.16,4.1,2.27,6.51,2.53,1.18.13,2.72-1.65,2.63-2.71-.09-.98-.37-2.22.04-2.83,2.12-3.12.15-1.15,2.07-4.69l2.72-5.03.89-3.01,1.38-2.84c.42-.87.75-1.67,1.13-2.68.32-.86,1.85-.36,2.35.27l1.96,2.48c.44.55,1.49,1.39,1.98,1.94.09,1.36.56,2.21,1.41,3.27.46.59.16,2.34.33,3.13l.79,3.61.77,2.55c.23.75.03,1.82-.58,2.32l-4.4,3.57ZM120.56,23.41c.46-.23,1.02-.96.96-1.34-.06-.43-.41-1.1-.77-1.24-.41-.16-1.35.14-1.56.46l1.37,2.13ZM128.72,39.71l-.91-2.44c-.19-.5-1.03-1.33-1.58-1.61-.28-.14-1.14-.02-1.31.25-1.01,1.59,2.84,4.29,3.8,3.81ZM271.07,38.96c.05-.44-.45-1.38-.86-1.45-.35-.07-1.15.14-1.54.39-.34.22-.23,1.22-.08,1.59.41.97,2.29,1.04,2.33.69l.14-1.22ZM242.64,44.88c1.45-1.46-.38-2.86-.11-2.57-.17-.18-.94.51-.83.73l.94,1.84ZM236.57,44.39c-.02.21.56.94.6.75l.13-.62c.03-.15-.72-.27-.74-.12ZM137.85,46.48c0-.43-.35-.77-.77-.77s-.77.35-.77.77.35.77.77.77.77-.35.77-.77ZM109.31,59.82c.02.23.33.97.37.81l.17-.64c.03-.11-.55-.27-.54-.16ZM115.42,107.35c1.14-.56.93-2.05-.01-2.64-.33.38-.71,1-.9,1.43-.16.37.55,1.38.91,1.21ZM133.98,109.49l-1.6-.15.58.65c.13.14.52-.13,1.02-.51ZM430.13,110.62c.11-.29,0-.84-.17-1.04-.14-.16-.99-.22-1.06-.02-.32.85-.91,2.77.2,3.72l1.03-2.66ZM273.08,144.17c.25.04,1.03-.14,1.35-.32.28-.16.11-1.1-.19-1.09-.51.17-.97.82-1.16,1.41ZM359.07,153.35c.44-.96.41-2.37-.26-3.06s-1.23-.96-2.63-1.25l.83-3.3c.23-.92-.84-1.66-1.51-1.75-1.09-.14-1.89,0-2.29,1.14-.3.86-1.2,2.15-1.69,2.8-.17.25.21,1.05.49,1.08l1.28.12c.57.46,1.39.9,2.22,1.14.47,1.49,1.79,3.04,3.56,3.09ZM391.27,150.76c-.17.24-.43.57-.29.56l.68-.03c.09,0,.06-.15,0-.23s-.34-.39-.39-.31ZM235.24,184.04l-1.06-1.85c-.2.28-.48.91-.47,1.2s.28,1.01.49.95l1.04-.3ZM316.8,188.84c.05.14.36.63.4.54.04-.11.07-.26.09-.36s-.52-.26-.49-.18ZM365.24,207.07c-.43-.42-.94-.54-1.22-.33.43.42.94.54,1.22.33ZM372.44,208.29c.2-.29-.39-1.09-.71-1.24-1.39-.65-5.82,3.98-4.67,5.97.84,1.46,5.05-4.25,5.38-4.73ZM224.02,212.11c.68-.08,1.06-1.16,1.08-1.64.02-.52-.42-1.57-1.06-1.56s-1.32.98-1.29,1.51c.03.64.24,1.81,1.27,1.68ZM52.39,217.22l-.69-.5c-.14-.1-.83.21-.8.38.05.21.6.7.78.58l.71-.46ZM185.57,250.49c3.45.47,6.52-4.6,6.2-7.14l.95-2.13-1.87-3.59-1.28-2.44c-.23-.44-1.49-.07-1.98.23-2.87,1.77-6.09,1.85-5.89,2.28l.29.61.96,2.16c.81,1.83,1.16,3.47.77,5.47l-.37,1.93c1.53.19,2.14,1.17,2.21,2.62ZM208.47,242.75c-.02.17-.06.98.06.87.89-.83.26-.08.52-.73.04-.1-.57-.24-.59-.13ZM223.35,265.1l.35.48c.07.1.51-.08.47-.19-.06-.16-.13-.35-.16-.46s-.73.07-.66.17Z"/>
  <path d="M281.27,4.07c-.44.68,2.05,3,1.08,3.03-.19,0-.83-.07-.94-.23l-1.99-2.81h1.85Z"/>
  <path d="M245.86,174.49l4.4-3.57c.61-.5.81-1.57.58-2.32l-.77-2.55-.79-3.61c-.17-.79.13-2.54-.33-3.13-.84-1.06-1.32-1.91-1.41-3.27-.49-.55-1.54-1.39-1.98-1.94l-1.96-2.48c-.5-.63-2.03-1.13-2.35-.27-.38,1.01-.7,1.81-1.13,2.68l-1.38,2.84-.89,3.01-2.72,5.03c-1.92,3.54.05,1.58-2.07,4.69-.41.61-.13,1.85-.04,2.83.09,1.05-1.45,2.84-2.63,2.71-2.42-.26-4.45-1.36-6.51-2.53-1.2-.68-1.47-2.19-1.78-3.44-.49-1.96-1.05-3.95.28-5.61-2.07.09-1.14-1.34-3.18-1.96-1.91-.58-3-1.89-4.28-3.27-.63-.67-1.49-1.31-1.97-2.27-.53-1.08-1.06-1.91-2.01-2.72-2.53,2.37-3.77,5.31-5.28,8.37-.72,1.46-1.34,2.67-1.33,4.44l-.93,2.17,1.6,1.8c-.95,2.42-.16,4.34-.87,6.85l-.97,3.41c-.18.65-1.4,1.63-1.94,2.1-3.21-1.41-5.43-.11-5.96-2.03-1.58-.6-4.62,4.07-5.31,5.35-.49.9-1.68,1.6-2.44,2.33s-1.26,1.1-2.24,1.34l-5.57,1.36c-.96.24-1.96,1.48-3.75,1.14,1.21,1.18,1.9,2.22,2.4,3.81l-2.36,1.54c-.18.72-.5,1.5-.97,2.11l-4,5.21-1.4,1.82-.71,1.75c-.86.46-.96,1.18-1.15,2.02-.37,1.61-.28,2.58.96,3.65l2.31,2.01c1.85,1.61.52.11,5.12,1.09,1.23-.97,2.28-1.59,3.84-2.12l1.35-3.17.72-1.79c.97-2.39-.82-3.11,1.7-5.44,1.01-.93,1.76-2.78,3.03-3.38,2.35-1.11,4.85.48,6.53,1.95l1.69,1.48c1.26,1.1,1.76,2.14,2.34,3.66.47,1.24.86,2.23.96,3.65.25,3.7-.28,4.62-2.55,7.38l-2.83,3.44c-1.07,1.3-2.05,2.31-3.63,3.1l-2.68,1.33c-.49.24-1.76.59-2.32.65-1.32.05-2.46.2-3.66.82-1.02.53-2.74.25-3.98.33-.46.03-1.34.55-1.64.3l-.77-.64c-.16-.14-.83.09-.84.3l-.07,1.31-1.32-.92c-.08-.09-.7.55-.79.86s.12.83.33,1.45c.56,1.65-4.83.16-2.15,2.37-.22.92-.39,1.91-.47,2.84l-.25,3.05c-.37,1.26-1.37,3.19.06,4.22,3.5,2.53,1.21,1.49,4.12,4.29,2.09,2.02-.9,2.13-.44,4.82-1.08,1.34-3.56,1.48-4.73,2.54-1.62,1.47-2.75,2.06-3.71,3.42l-1.71,2.43c-1.53,2.18-.6,6.63-2.64,7.77-1.12.63-2.66,1.55-3.75,1.97-.82.32-2.75.41-3.62.33-3-.27-5.95-2.3-7.81-4.46-1.28-1.49-2.88-2.22-4.36-3.46-.65-.54-1.41-1.49-2.05-2.2-4.51-4.95-3.11-4.28-3.44-8.58-.04-.58-.8-1.46-1.01-1.95-1.66-3.74-2.07-1.13-1.35-3.48.85-2.8-.73-5.68-.91-9.08l-.15-2.79-.24-4.09c-.77-.58-1.23-1.24-.74-2.37l-1.5-.78.47-2.21c.41-.09,1.48-.18,2.02-.2.27,0,.57-.61.53-.88-.05-.33-.88-.69-1.19-.53-.86.43-1.11.68-1.82,1.46-1.24-2.87-1.93-2.9-2.5-3.88l-1.65-2.8c-.32-.55-.63-1.55-.5-2.16.28-1.37-.64-1.76-1.12-2.74-.8-1.62-1.51-3.81-1.96-5.61.83-1.36.13-5.28.23-7.75.06-1.39,1.67-3.03,1.54-4.62-.15-1.87-.48-3.98,1.48-4.57v-2.89s2.89-2.56,2.89-2.56c1.11-.99-1.32-3.38-.32-4.97.29-.46,1.08-.75,2.04-1.14l-1.01-1.69,1.69-2.77c.68-1.12,1.11-3.44.47-4.45,1.26-1,1.15-2.45,1.2-3.93.03-.96.09-1.77-.2-2.64l.64-2.6,2.93-1.85-1.87-1.24,1.97-3.35c-.75-3.51,2.8-1.79,2.87-5.3l2.16-1.4c.5-.32,1.52-.2,1.72-.89.19-.63.25-1.33-.25-1.99-.9-1.19-2.29.17-3.05-1.07-.2-.32-.18-1.29.11-1.54s.96-.24,1.75-.33l-1.15-2.96c-.79-2.02-2.91-3.18-1.46-7.44l.25-2.19c4.15-1.36,1.1-4.5,4.01-4.31.36.02,1.12-.32,1.23-.64.31-.87-.82-1.93-.14-2.23.19-.08.85-.3,1.04-.42l2.09-1.36c.16-.35.11-1.16.04-1.92l2.16-.73c.9-.3,1.53,1.28,2.33,1.36.22.02.8-.58.62-.7l-.99-.64,1.47-1.13c-.08-.15-.25-.54-.39-.49l-.74.26-.47.16c-1.88.66.24-2.06,3.64-1.97l.13-2.34c.03-.64.46-1.27,1.07-1.92l-2.06-3.21-.59-1.87c.72-1.13,1.13-2.47.94-3.86l.64-1.43c-.42-.69-.88-1.54-.74-2.14.4-1.69,2.83-1.4,3.04-2.67.25-1.57-.65-1.26-.57-2.96.02-.5,2.9-.37,3.42-2.22.47-1.66,1.34-2.64,2.61-3.63.76-.59,1.62-1.62,2.39-2.07.85-.49,1.56-.71,1.96-1.45.49-.9.16-1.35-.28-2.29-.5-1.06-.9-2.35-1.33-3.63l-1.73-.14c2.26-2.02-.07-.81,1.04-6.03l.75-3.53c2.76-2.61,1.05-2.85,5.2-7.1l3.08-3.15c1.1-1.13,1.98-2.34,3.67-2.79.43-.11,1.18-.85,1.19-1.28.01-.52-.47-1.22-.87-1.86-1.04-1.69-1.97-4.37-1.43-6.4.36-1.37,1.35-2.84,1.76-4.06-.13-.26-.52-.71-.4-.88l.54-.81c2.31-3.48,1.2-2.4,2.79-6.7.52-1.4.73-2.61,1.93-3.77s1.1-3.14,5.21-6.14c1.08-.78,2.87-2.19,4.05-2.47l4.08-.97c2.65-.63,5.39-.53,8.13-1.01,2.09-.36,4.45-1.28,6.53-.48l3.18,1.23c1.15.45,2.89,3.28,4.71,5.07,1.22,1.2,3.12,2.18,3.99,3.61.88,1.44-.36,2.45-1.33,2.99-2.11,1.17-4.32,1.43-6.46-.03-3.49,3.02-3.07,1.48-4.76,5.45-.34.79-.09,2.58-.64,3.47l.3.53c.07.12-.36.58-.37.72-.02.9.89,2.59,1.91,2.93.88.3,2.13.7,2.93.65,1.92-.12,3.99-.14,5.79-.82,1.33-.5,2.95-2.54,3.49-3.71.51-1.1.98-2.59,2.03-3.57.21-.2.83.22,1.14.38,1.41.69,2.33,1.82,3.37,2.73,1.42,1.24,2.55,2.35,2.53,4.54l-.06,6.3-2.85.87c-.28.09-.88.61-1.12.78l-3.68.53c-2.36,1.68-5.34,3.4-7.92,4.54l-2.47,1.09c-3.66-.19-7.68,2.58-8.54,6.12l-.95,3.95c-.23.94,1.75,2.4,2.67,2.35,2.46-.12,3.42,1.09,6.73-.64l3.75-1.97,2.22-1.12c.79-.4,1.62-1.42,2.55-1.38,1.69.09,1.74-1.68,2.64-2.3,2.75-1.89,4.16-3.69,7-6.28,1.98-1.81.99-2.71,3.1-5.01,3.42,1.3,6.02,1.26,9.24,2.63,1.29.55,5.31,2.71,6.67,3.53,3.29,1.99,6.97,7.07,7.04,10.72l-3.05,1.91c-1.32-.54-3.16-.82-4.22.08-.27.23-.57.99-.81,1.24-.28.29-1.31-.11-1.77-.06l-3.54.38c-.39-.05-1.25-.83-1.61-.66-2.58,1.2-3.47.64-3.76,2.38l-.12.7c-.03.18-.63.38-.69.21l-.38-1.16c-.14-.05-.78.63-.93.98s.05,1.24.22,1.72l1.21-.31v2.15c-.03,2.3-1.18,3.56-2.96,4.5l-1.71,1.84-.73,2.12c-.63,1.81-.64,3.36.36,5.07,1.82,3.14,5.85.98,6.71,1.38.56.26.11.38,1,1.77.73,1.14.6-3.07,1.37-4.57,2.2-4.31.63-4.34,3.85-5.84,1.05.63,1.69.71,2.78.44,2.1-.51,4.13-.46,6.35-.6,1.19-.08,1.1-1.33,6.75-1.87.66-.06,1.95.95,2.35,1.52,1.59,2.24,3.97,3.4,6.39,4.46,2.09,1.97,3.57,4.65,5.43,6.86,1.11,1.33,1.68,2.81,2.47,4.61l-5.27,2.15c-1.01.41-2.5,1.83-3.31,2.66l-2.16,2.22c-1.47,1.51-1.14.89-4.88,1.32-.46.05-1.52-.08-1.8.28-2.15,2.78-1.29.55-2.55,3.91-.64,1.71,1.04,3.46,2.12,4.71,1.18,1.36,1.35,4.25,3.93,4.61,1.13.16,2.15-.72,3.05-1.4.48-.32,1.79-.17,2.39.09.91.39,2.04.2,3.02.21.87,0,2.43,1.2,3.28,1.03,4.15-.98,5.73.73,7.86,3.76,1.63,2.33,2.56,4.9,1.42,7.72-.66,1.63-.81,3.96-1.61,5.36-.59,1.02-1.03,1.4-1.23,2.65-.26,1.6-1.93,3.05-3.28,4.16-.65-1.94-2.05-3-3.36-4.49-1.13-1.28-1.92-3.41-4.12-3.64-2.35-.24-4.52,1.63-6.04,3.4-.42.49-1.21.98-1.76,1.41-.13.91-.25,1.97-.28,2.89l-.05,1.99,1.96.22c.56-.72,1.38-1.5,2.45-1.47l.75-1.51c.05-.09.56-.07.66-.03.1.04.19.07.13.15l-.66.85,3.17.51c2.43.39,3.87,1.25,5.85,2.16,1.26.57,2.8.64,3.12,2.4l2.04.6c4.35,1.29,4.91-3.33,7.45-2.62,1.36.38,2.31,1.25,3.36,2.12,3.53,2.91,3.56,4.8,3.14,8.67-.22,2.01-1.75,5.33-2.92,4.58-.25-.16-.67-.84-.86-.72l-1.01.69c-1,.69-1.54,1.46-2.05,2.57l-1.3,2.8c-1.11,2.39-3.03,2.28-3.25,5.62l-1.28,1.91-.05,2.27c2.94,1.75,1.83,3.37,6,2.65l1.91,2.23c.58.68,2.14,1.19,2.34,2.15.14.68-.68,1.96-1.24,2.21-.69.3-2.02.08-2.69.23l-3.65.79c-.48.1-1.49.5-1.92.69l-1.8,2.18c-.74,1.98-.19,4.28.5,6.16l2.18,1.42c4.51-1.38,3.56.29,6.26.46,1.35.08,3.14-.96,3.51-2.19.42-1.42.78-2.63,1.55-3.83,4.25-.16,7.65,1.95,9.77,5.46.52.86,1.74,1.81,1.33,3-1.47,4.23.94,1.24,3.66,5.61.96,1.55,1.47,2.84.47,4.75-.67,1.28-2.41,1.73-4.01,1.74l-4.46.03c-1.12,0-3.14-1.16-4.11.26l-.66,2.08c-.35,1.11.27,2.91.84,3.95,2.17,3.95-3.5,2.09-8.9,9.92-1.21,1.75-1.38,3.36-.97,5.45.72,3.66-.15,3.68,1.18,5.91,1.04,1.75,1.02,3.43-.41,4.86-.69.69-.97,2.26-1.57,3.07-6,8.09-3.92,3.61-10.3,9.7l-2.11.73c-.91.31-1.76.3-2.74.16l-1.29-.19c-.68-.1-.5-1.67-1.7-2.62-.34-.27-1.41-.03-1.85-.18-1.07-.36-2.08-.91-2.99-.65-1.09.31-1.71.96-2.47,1.8-1.19,1.33-3.83,4.18-3.42,5.86l-1.87,2.04c-.32.35-1.47.66-1.78,1.02-1.14,1.4-2.59,1.15-4.04.35-1.99-1.09-4.39-1.84-5.96-3.54l-4.82-5.24c-.24-.26-2.68-5.24-3.03-6.04s-.34-2.32-.47-3.25c-.2-1.44.55-2.8,1.02-4.14.24-.7.38-2.03.82-2.47l3.77-3.77c.6-.6,2.31-.95,2.89-1.64l2.18-2.58c.62-.73,1.24-2.28,1.97-2.86,2.07-1.63,2.95-3.58,4.37-5.69,1.17-1.74,3.73-3.09,3.35-5.65-.52-3.43-1.19-1.25-1.5-6.08-.09-1.33-.27-2.76-.23-4,.07-2.17-.93-4.06-1.07-6.02-.23-3.14-.12-5.74-2.12-8.75l-2.15-3.24c-.74-1.12-1.54-1.97-2.03-3.22-.36-.93-.9-1.7-1.4-2.65-1.91-3.62-1.12-6.78-1.35-10.67l-1.42-2.83ZM193.16,59.18c0-.11-.09-.2-.2-.2s-.2.09-.2.2.09.2.2.2.2-.09.2-.2ZM220.54,136.84c1.44.49,2.45,1.3,3.8,1.71l3.47,1.05c1.05.32,1.54,1.29,2.63,1.49,1.24.22,2.09.89,3.24,1.37l2.8,1.18c1.36.57,2.43,1.23,3.82,1.44,1.9-5.22.36-4.01,1.41-7.15.23-.69-.33-2-.68-2.8-.93-2.13,1.64-1.42,2.01-3.51l-4.53-2.34c-1.1-.57-2.08-1.44-3.22-1.98-2.66-1.26-5.92-4-7.41-6.53-2.27-3.86-1.93-4.31-4.06-8.49l-.94-1.84-.14-2.96c-.07-1.53.26-3.04.43-4.65.31-3.05,2-.06,1.13-4.94-.65-.37-1.64-.57-1.72-1.01l-.38-1.95c-.55-.86-2.11-1.89-2.61-2.76-1.04-1.83-1.84-3.53-3.9-4.3-1.61-4.17-.19-2.67-1.74-5.29-.73-1.23-1.83-2.85-3.43-2.32-.31.61-.95,1.77-1.41,1.99l-3.05-.88-1.51-2.07c1.29-2.43-.53-1.15.09-4.96l-2.82-2.5c-3.91-3.47-2.27-2.55-4.64-5.83l-2.23-3.08c-.23-.32-.82-.84-1.16-.77-.28.06-.83.5-.99.79l-1.67,3.17c-.66,1.25-.76,2.56-.39,3.78-.29.32-.75.72-.68.95l.28.83c-.13.34-.67,1.36-.37,1.59l1.23.98-2.07,1.78c-.32,1.59-.29,3.28-.32,4.93l-.04,2.86c-.02,1.13-.24,1.96.13,3.14.34,1.07-1.12,1.66-1.99,1.94-1.91.6-.07,3.61-1.01,3.98-1.29.51-1.83.38-3.2,2.4-.37.94-.71,1.98-1.14,2.75-3.23,5.89.79.91-4.01,7.9l-2.74,3.99c-.67.97-1.98,2.4-2.98,2.98-2.54.62-3.47,3.79-3.54,3.71l.56.65c.29.33,1.16.71,1.64.88,4.77,4.73,5.26.28,7.66,6.62,1.52,4.02-3.75,4.74-5.32,7.13l-2.41,3.67c-1.14,1.74-2.13,3.02-1.58,5.15.15.56.13,1.7.57,1.98,1.66,1.08,3.51-.18,4.38.67.67.65,1.4,1.22,2.31.79,1.86-.87,2.63-2.53,3.84-3.91l3.36-3.84c.4-.41,1.43-.87,2.02-1.24,3.84-2.42,6.14,1.46,8.01,2.29,2.57,1.15,7.22,2.31,9.4,3.28,1.21.54,2.47-.72,3.32-1.53,1.26-1.22,1.76-2.51,2.26-4.05s2.68-1.51,3.85-1.11l8.39,2.86ZM243.6,66.62c-.11.13-.28.76-.13.73l.7-.14c.15-.03.17-.28.17-.43s-.64-.27-.74-.16ZM251.18,70.17c.51-.75.71-1.17.61-1.5-.09-.29-.96-.71-1.1-.44-.29.55.13,1.54.5,1.94ZM242.81,93.44c-.15,0-.07.75.07.69l.52-.24c.13-.06.14-.54,0-.52s-.48.07-.58.07ZM157.06,117.96l1.8-.57c.27-1.51-1.05-2.32-1.93-3.18-.31-.3-1.36-1.29-1.46-.83-.3,1.35.17,2.34.48,3.68l-2.75.06v1.2c1.25.15,2.58.05,3.86-.35ZM254.54,123.79c1.23-.91,1.41-3.35-.17-3.97-1.06.12-2.65.98-3.38,1.83-.6.7.18,2.19.8,2.55.76.44,1.82.28,2.74-.41ZM251.36,149.48c0-.19-.15-.34-.34-.34s-.34.15-.34.34.15.34.34.34.34-.15.34-.34ZM166.99,153.38c-.09-.19-.41-.61-.64-.73-3.85-2.18-2.51-.74-6.2-2.72-.26-.14-.97.15-1.09.41s-.04,1.06.25,1.08l1.14.06c1.03.05,2.18,1.19,3.22,1.6.14.05,3.64,1.06,3.3.3ZM221.74,155.53c0-.33-.27-.6-.6-.6s-.6.27-.6.6.27.6.6.6.6-.27.6-.6ZM178.52,157.67c.57-.37.67-.49.06-.27l-.66.23c-.07.03.08.46.13.42l.46-.38ZM175.66,183.31l3.28-1.78c.71-.39,1.41-.71,1.78-1.41,1.14-2.15,2.2-4.74,1.69-7.1-1.04-4.85,1.22-5.76-1.04-7.58l-2.84-2.28c-1.01-.81-2.46-2.25-4.18-.74-6.92,6.1-3.36,2.77-8.5,10.9-2.09,1.85-1.74,4.71.44,6.84,3.27,3.19,2.41,1.91,6.81,3.76,1,.42,1.62-.11,2.55-.62ZM275.33,175.79c1.63-.33,3.29-1.09,4.97-1.01.97.04,1.76-.04,1.88-.75.36-2.15-1.42-1-3.25-3.06-1.64-1.85-1.54-4.31-2.9-3.95l-3.56.96-1.92,1.73c-2.33,2.1-2.73,5.79-.4,8.64l1.06-1.92c1.39-.2,2.78-.35,4.12-.62ZM251.89,169.75c-.14.1-.21.58-.04.61.18.03.49.11.52,0l.22-.71c.03-.11-.6.03-.7.1ZM164.65,188.75l-3.26-1.39c-.77-.33-2.15.22-2.62.93-.16.24.12,1.15.41,1.18,3.48.35,7.23,2.37,8.62,1.68.15-.07.23-.64.08-.7-1.63-.71-2.26-1.29-3.23-1.7ZM132.27,228.28l1.39-1.36c.33-.32.6-1.46.19-1.52-1.62-.24-1.89,1.3-2.26,2.25l-.3.77c-.06.17.81.02.97-.14Z"/>
  <path d="M185.57,250.49c-.07-1.44-.68-2.43-2.21-2.62l.37-1.93c.38-2.01.04-3.64-.77-5.47l-.96-2.16-.29-.61c-.2-.43,3.02-.51,5.89-2.28.49-.3,1.75-.67,1.98-.23l1.28,2.44,1.87,3.59-.95,2.13c.31,2.55-2.76,7.61-6.2,7.14Z"/>
  <path d="M359.07,153.35c-1.76-.05-3.09-1.6-3.56-3.09-.83-.24-1.65-.68-2.22-1.14l-1.28-.12c-.28-.03-.66-.83-.49-1.08.49-.65,1.38-1.94,1.69-2.8.4-1.14,1.21-1.27,2.29-1.14.67.08,1.74.82,1.51,1.75l-.83,3.3c1.39.29,1.94.53,2.63,1.25s.69,2.1.26,3.06Z"/>
  <path d="M372.44,208.29c-.34.48-4.54,6.19-5.38,4.73-1.14-1.99,3.28-6.63,4.67-5.97.32.15.91.95.71,1.24Z"/>
  <path d="M128.72,39.71c-.96.48-4.81-2.22-3.8-3.81.17-.26,1.03-.39,1.31-.25.55.28,1.39,1.12,1.58,1.61l.91,2.44Z"/>
  <path d="M271.07,38.96l-.14,1.22c-.04.35-1.92.28-2.33-.69-.16-.37-.26-1.37.08-1.59.39-.25,1.19-.46,1.54-.39.41.08.91,1.01.86,1.45Z"/>
  <path d="M224.02,212.11c-1.03.12-1.24-1.04-1.27-1.68-.03-.54.64-1.51,1.29-1.51s1.08,1.04,1.06,1.56c-.02.48-.4,1.55-1.08,1.64Z"/>
  <path d="M430.13,110.62l-1.03,2.66c-1.11-.95-.51-2.87-.2-3.72.08-.2.92-.14,1.06.02.18.2.28.75.17,1.04Z"/>
  <path d="M120.56,23.41l-1.37-2.13c.21-.32,1.16-.62,1.56-.46.36.14.71.82.77,1.24.06.39-.5,1.11-.96,1.34Z"/>
  <path d="M115.42,107.35c-.35.17-1.07-.84-.91-1.21.19-.43.57-1.06.9-1.43.94.59,1.15,2.08.01,2.64Z"/>
  <path d="M242.64,44.88l-.94-1.84c-.11-.21.67-.91.83-.73-.27-.3,1.56,1.11.11,2.57Z"/>
  <path d="M235.24,184.04l-1.04.3c-.22.06-.48-.66-.49-.95s.28-.92.47-1.2l1.06,1.85Z"/>
  <circle cx="137.08" cy="46.48" r=".77"/>
  <path d="M273.08,144.17c.19-.59.65-1.23,1.16-1.41.3,0,.47.93.19,1.09-.31.17-1.1.36-1.35.32Z"/>
  <path d="M132.87,13.37c-.03.12-.44.32-.55.28l-.4-.15c-.17-.06.14-.64.28-.74l.42-.29c.09-.06.48.05.45.16l-.2.74Z"/>
  <path d="M52.39,217.22l-.71.46c-.18.12-.73-.37-.78-.58-.04-.17.65-.49.8-.38l.69.5Z"/>
  <circle cx="299.62" cy="7.33" r=".48"/>
  <path d="M133.98,109.49c-.49.38-.89.65-1.02.51l-.58-.65,1.6.15Z"/>
  <path d="M236.57,44.39c.02-.15.77-.03.74.12l-.13.62c-.04.2-.63-.54-.6-.75Z"/>
  <path d="M365.24,207.07c-.28.21-.79.09-1.22-.33.28-.21.79-.09,1.22.33Z"/>
  <path d="M109.31,59.82c0-.11.57.05.54.16l-.17.64c-.04.16-.35-.57-.37-.81Z"/>
  <path d="M208.47,242.75c.01-.11.63.03.59.13-.26.66.37-.1-.52.73-.12.12-.08-.7-.06-.87Z"/>
  <path d="M223.35,265.1c-.07-.1.63-.28.66-.17s.1.3.16.46c.04.11-.4.29-.47.19l-.35-.48Z"/>
  <path d="M391.27,150.76c.05-.08.34.23.39.31s.08.22,0,.23l-.68.03c-.14,0,.12-.33.29-.56Z"/>
  <path d="M316.8,188.84c-.03-.08.51.08.49.18s-.06.25-.09.36c-.03.1-.34-.4-.4-.54Z"/>
  <path class="cls-1" d="M220.54,136.84l-8.39-2.86c-1.17-.4-3.37-.36-3.85,1.11-.5,1.55-1.01,2.83-2.26,4.05-.84.82-2.11,2.07-3.32,1.53-2.18-.98-6.82-2.13-9.4-3.28-1.87-.83-4.18-4.71-8.01-2.29-.59.37-1.62.83-2.02,1.24l-3.36,3.84c-1.21,1.38-1.98,3.04-3.84,3.91-.91.43-1.63-.14-2.31-.79-.88-.85-2.72.41-4.38-.67-.44-.28-.43-1.43-.57-1.98-.55-2.13.43-3.41,1.58-5.15l2.41-3.67c1.57-2.38,6.84-3.1,5.32-7.13-2.4-6.34-2.89-1.89-7.66-6.62-.48-.17-1.35-.54-1.64-.88l-.56-.65c.07.08,1.01-3.08,3.54-3.71,1-.58,2.31-2.01,2.98-2.98l2.74-3.99c4.8-6.99.78-2.01,4.01-7.9.42-.77.77-1.81,1.14-2.75,1.37-2.01,1.91-1.88,3.2-2.4.93-.37-.9-3.38,1.01-3.98.87-.28,2.33-.87,1.99-1.94-.37-1.18-.14-2.01-.13-3.14l.04-2.86c.02-1.65,0-3.34.32-4.93l2.07-1.78-1.23-.98c-.29-.23.24-1.25.37-1.59l-.28-.83c-.08-.23.39-.64.68-.95-.37-1.22-.27-2.53.39-3.78l1.67-3.17c.15-.29.71-.73.99-.79.34-.07.92.45,1.16.77l2.23,3.08c2.38,3.29.73,2.36,4.64,5.83l2.82,2.5c-.62,3.81,1.2,2.53-.09,4.96l1.51,2.07,3.05.88c.46-.22,1.1-1.38,1.41-1.99,1.61-.53,2.7,1.08,3.43,2.32,1.55,2.62.13,1.12,1.74,5.29,2.06.77,2.87,2.47,3.9,4.3.49.87,2.06,1.91,2.61,2.76l.38,1.95c.09.44,1.07.64,1.72,1.01.88,4.89-.81,1.9-1.13,4.94-.17,1.61-.5,3.12-.43,4.65l.14,2.96.94,1.84c2.13,4.18,1.79,4.63,4.06,8.49,1.49,2.53,4.75,5.27,7.41,6.53,1.14.54,2.12,1.41,3.22,1.98l4.53,2.34c-.37,2.09-2.95,1.39-2.01,3.51.35.81.91,2.11.68,2.8-1.05,3.15.49,1.94-1.41,7.15-1.4-.21-2.47-.87-3.82-1.44l-2.8-1.18c-1.15-.48-2-1.15-3.24-1.37-1.09-.19-1.58-1.17-2.63-1.49l-3.47-1.05c-1.35-.41-2.36-1.22-3.8-1.71ZM192.18,114.35c.99-.17,2.09-.35,3.04-.64,1.43-.44,6.52-3.63,4.49-6.23-1.39-1.78-3.82-1.01-4.98-.11-5.2,4.07-1.21,2.42-4.56,4.44-.35.64,1.03,2.7,2,2.53ZM212.77,114.69c-.42-1.55-.72-2.2-1.25-3.2-.57,1.35-.39,3.23,1.25,3.2ZM187.22,133.05c.26-.16.25-1.28-.06-1.35l-1.55-.37c.02.31.13.95.25,1.33.1.33,1.07.57,1.37.39Z"/>
  <path class="cls-1" d="M175.66,183.31c-.93.51-1.55,1.04-2.55.62-4.4-1.85-3.54-.57-6.81-3.76-2.18-2.13-2.53-4.99-.44-6.84,5.14-8.13,1.58-4.81,8.5-10.9,1.71-1.51,3.16-.07,4.18.74l2.84,2.28c2.26,1.82,0,2.72,1.04,7.58.5,2.36-.56,4.95-1.69,7.1-.37.71-1.07,1.03-1.78,1.41l-3.28,1.78Z"/>
  <path class="cls-1" d="M275.33,175.79c-1.35.28-2.73.42-4.12.62l-1.06,1.92c-2.32-2.85-1.93-6.54.4-8.64l1.92-1.73,3.56-.96c1.35-.36,1.26,2.1,2.9,3.95,1.83,2.06,3.61.91,3.25,3.06-.12.71-.91.8-1.88.75-1.68-.08-3.34.68-4.97,1.01Z"/>
  <path class="cls-1" d="M164.65,188.75c.97.41,1.6.99,3.23,1.7.15.07.07.63-.08.7-1.39.69-5.13-1.33-8.62-1.68-.29-.03-.57-.93-.41-1.18.46-.71,1.85-1.26,2.62-.93l3.26,1.39Z"/>
  <path class="cls-1" d="M254.54,123.79c-.92.69-1.98.85-2.74.41-.63-.36-1.4-1.85-.8-2.55.73-.85,2.31-1.71,3.38-1.83,1.58.62,1.4,3.06.17,3.97Z"/>
  <path class="cls-1" d="M157.06,117.96c-1.28.41-2.61.5-3.87.35v-1.2s2.76-.06,2.76-.06c-.31-1.34-.78-2.32-.48-3.68.1-.45,1.15.53,1.46.83.88.86,2.2,1.66,1.93,3.18l-1.8.57Z"/>
  <path class="cls-1" d="M166.99,153.38c.34.75-3.17-.25-3.3-.3-1.04-.41-2.19-1.55-3.22-1.6l-1.14-.06c-.29-.01-.37-.81-.25-1.08s.82-.55,1.09-.41c3.69,1.97,2.35.54,6.2,2.72.22.13.55.54.64.73Z"/>
  <path class="cls-1" d="M132.27,228.28c-.16.16-1.03.3-.97.14l.3-.77c.37-.95.64-2.49,2.26-2.25.41.06.13,1.2-.19,1.52l-1.39,1.36Z"/>
  <path class="cls-1" d="M251.18,70.17c-.37-.39-.79-1.39-.5-1.94.15-.27,1.01.15,1.1.44.1.33-.09.75-.61,1.5Z"/>
  <circle class="cls-1" cx="221.14" cy="155.53" r=".6"/>
  <path class="cls-1" d="M243.6,66.62c.1-.11.73,0,.74.16s-.02.4-.17.43l-.7.14c-.15.03.03-.6.13-.73Z"/>
  <path class="cls-1" d="M178.52,157.67l-.46.38c-.06.05-.21-.39-.13-.42l.66-.23c.61-.22.51-.11-.06.27Z"/>
  <path class="cls-1" d="M242.81,93.44c.1,0,.44-.04.58-.07s.13.46,0,.52l-.52.24c-.13.06-.21-.69-.07-.69Z"/>
  <path class="cls-1" d="M251.89,169.75c.1-.07.73-.2.7-.1l-.22.71c-.03.11-.34.03-.52,0-.16-.03-.1-.51.04-.61Z"/>
  <circle class="cls-1" cx="251.01" cy="149.48" r=".34"/>
  <circle class="cls-1" cx="192.97" cy="59.18" r=".2"/>
  <path d="M192.18,114.35c-.98.17-2.35-1.89-2-2.53,3.35-2.02-.64-.37,4.56-4.44,1.16-.91,3.58-1.67,4.98.11,2.03,2.6-3.06,5.78-4.49,6.23-.94.29-2.04.47-3.04.64Z"/>
  <path d="M212.77,114.69c-1.65.03-1.82-1.85-1.25-3.2.54,1,.83,1.65,1.25,3.2Z"/>
  <path d="M187.22,133.05c-.29.18-1.27-.06-1.37-.39-.11-.38-.23-1.02-.25-1.33l1.55.37c.31.07.32,1.18.06,1.35Z"/>
</svg>