<?xml version="1.0" encoding="UTF-8"?>
<svg id="Layer_2" data-name="Layer 2" xmlns="http://www.w3.org/2000/svg" viewBox="0 0 432 288">
  <defs>
    <style>
      .cls-1 {
        fill: #fff;
      }
    </style>
  </defs>
  <path class="cls-1" d="M432.44,1.7v288H.44V1.7h208.92M136.79,236.19c-.16-3.99,1.45-5.43,2.62-9.64l1.51-5.42c.91-3.28,1.53-2.81,3.53-6.43.91-1.65,2.72-3.93,3.95-5.4.86-1.02,1.74-1.31,3.13-1.53,1.2-.2,1.62-3.16,3.03-2.27-.97,1.1-1.88,2.1-2.93,2.93-.52.41-.73.73-1.13,1.3l-4.32,6.24c-.83,1.2-1.53,2.31-.85,3.09.1.11.42-.12.56-.26,2.84-2.96,4.52-6.7,6.21-7.92l1.94-1.41,3.98-3.05,1.69-.74c.93-.41,1.83-.54,2.82-.58,4.16-.17,4.33.14,7.65,1.43,2.96,1.15,2.47,3.42,3.1,2.85l.48-.44c.26-.23.64-.53.9-.53,1.24-.03,3.22,4.74,1.99,6.59-4.89-2.54-7.29-4.02-12.55-3.52-1.32.13-2.67.64-4,.95-5.81,1.39-7.45,2.59-11.35,6.78-1.17,1.26-1.95,2.74-2.89,4.16-1.87,2.82-3.51,5.64-5,8.66-.49,1-1.27,1.83-1.49,2.95.41.13.64.1.62.22l-.08.64c-.29,2.15-1.32,2.08-.43,2.31,1.15.29,1.16-2.12,1.8-3.6.44-1,.97-1.87,1.54-2.78l.8-1.27c.35-.55.58-1.4.93-1.99l1.62-2.74c1.57-2.66,3.43-4.9,5.68-7.02,1.46-1.38,3.01-2.39,4.96-3.02l6.11-1.95c1.7-.54,8.28.44,10.06,1.49l3.14,1.86c.21.45.43,1.3.8,1.51,1.84,1.04,2.9-.52,4.33.26,2.14,1.17,2.32-1.26,5-2.23l.46-1.55c2.06-.78,3.45-.84,5.61-.58,2.73.33,2.09.87,4.05,2.9.75.79,1.89.94,2.84.42.57-.31,1.13-1.05,1.34-1.97.95-4.05,1.35-1.71,2.5-3.72l1.84-3.23c1.76-3.08,1.43-1.12,3.01-4.03.51-.95,1.31-2.06,2.04-2.88l2.14-2.41c.66-.74,1.65-1.52,2.44-2.06l1.99-1.36,2.64-1.58c.64-.38,1.91.2,2.66.25.93.06,1.31.26,1.74.97l1.81,3.02c.7,1.17.98,3.18,2.77,3.47.79.13,1.1-1.47.62-2.03l.97-1.11c-.01-1.05-.9-1.39-1.65-1.9-1.91-1.3-2.34-4.99-3.28-5.69-2.36-1.75-.16-1.09-2.71-3.65-.55-.56-.79-1.28-.83-2.02-1.2-.83-2.45-1.59-3.1-3.01-.58-1.25-1.94-2.44-3.12-3.15l-1.48-.89c-.28-.36-.23-.11-.08.26.64,1.84-.39,3.01,1.52,4.43.69.51,1.19,1.31,1.25,2.01l-4.83,2.64c-1.33.73-2.11,2.35-3.23,3.4-.99.92.16.51-.56,1.71-.1.16-.67.21-.86.12l-2.45-1.14c-3.49-1.62-2.84-.28-4.63-1.73-.91-.32-1.77-.6-2.41-1.21-.96-.91-1.99-.11-2.98.09l-5.81,1.16c.35-5.13,1.28-4.43,2.06-8.61.24-1.32,1.15-2.67,1.7-3.95,1.06-2.45,2.07-6.19,2.79-7.49.58-1.04.62-2.42,1.1-3.43,1.89-4,3.91-7.29,4.92-11.54,1.11-4.68,2.92-8.81,4.94-13.13.54-1.15.55-3.02,1.85-3.67.78.45,1.88.65,2.74.31.52.42,3.74.59,3.95.57l4.43-.43,2.32-.06c2.79-.07,5.1.06,7.77.67,1.01.23,5.97.68,6.23.83,1.37.79,2.84,1.53,4.36,1.66,1.19-1.63,2.68-1.85,4.44-2.04,1.19-.13,2.56-.48,3.62-.23l.16,2.74.8,5.1.14,2.67.23,2.66.27,5.02c.07,1.21-1,2.33-1.39,3.45l-1.37,3.93c-.32.93-.68,1.81-1.07,2.72l-1.23,2.86c-.83,1.93-1.8,3.73-2.93,5.51l-3.56,5.58c-1.41,2.21-2.59,3.48-4.42,5.41-2.74,2.87-.79,2.31-3.8,3.89l-1.17,1.45c-.16.2-.34.69-.19.87s.7.51.93.49c1.42-.11,1.97-2.38,2.97-2.33.67.03,2.54.65,2.77,1,.16.24.06.81.05,1.21l-.04,1.57-.4,2.63c-.68,4.48.09,5.86-.8,10.37l-.53,2.68c-.43,2.19-1.34,2.31-1.15,2.43,1.53.95-.7,2.81-.62,5.44.06,1.9-.13,3.65-1.02,5.39-.25.48.5,1.67,1.01,1.83,1,.32,1.83-.93,1.77-1.98-.04-.74.17-1.7.29-2.4.03-.18-.02-.63-.01-.81s.33-.28.72-.49c0,.03-.01-.11-.02-.19l-.3-.91c1.28-1.99,1.23-3.58,1.09-5.96,1.71-1.12,2.72-5.25,3.22-7.33.66-2.71,1.21-3.89,2.01-6.83l1.98-7.28c.52-1.92,1.8-4.42,4.27-3.71l1.78-1.37c.3-.23.48-1.16.75-1.44l1.96-2.03,2.04-2.12c.78-.81,2.12-1.55,3.16-2.07l4.67-2.31c1.05-.52,1.84-.33,2.58.5l3.75,4.17,2.36,2.69,4.09,4.55c1.49,1.65,1.79,2.39,3.02,3.94.46.57.61,1.72.96,2.43.94,1.88,1.06,2.89.37,5.24.53,1.14.75,2.46.4,3.87-.3,1.21,1.31,2.01,2.16,1.85,1.5-.28,1.45-1.34,1.68-2.66l.58-3.33.35-2.57c.2-1.43-.49-1.08.65-6.31.47-2.13,1.53-4.54,2.82-6.49.54-.82.97-1.82,1.58-2.53l2.43-2.84,1.81-2.52,2.23-3.29c.41-.6.78-.84.86-1.58l1.38-1.44c-.17-.33-.32-.57-.31-.73s.28-.52.4-.63l3.16-2.86c.85-.77,1.79-1.47,2.68-2.16,1.39-1.08,2.68-1.38,4.43-1.69,1.09-.19,2.18.06,3.19.03,4.17-.12,2.98.33,5.45,2.68l1.97,1.88c.58.55.98,1.25,1.47,1.89l2.07,2.69c1.89,2.45,3.44-1.06,5.12,1.17.35.46,1.19.03,1.36-.51.23-.73-.46-1.4-1-1.93-.09-.09-.41.23-.54.32-.81.51-1.51.13-2.16-.34-5.33-3.84-2.99-3.03-3.93-7.01-.14-.57-1.39-2.26-2.36-2.98l-3.18-2.37-1.34-1.11c-1.06-.63-2.13-1.24-3.02-2.23-1.14-1.27-2.47-2.14-3.83-3.13-.87-.63-1.58-1.39-2.66-1.68l-1-.95c-.14-.14-.35-.54-.4-.73-.14-.55,1.58.02,1.53-.68-.07-.94-.91-.97-2.03-1.15-.68.13-1.95-.01-1.91-.82.01-.32.25-.93.13-1.2s-.73-.51-1-.4c-.31.13-.67.57-.81.87l-.31.66c-.06.12-.42-.18-.55-.22l-1.38-.38c-.94-.26.66-1.67.07-1.81l-1.04-.25.09.75c.02.17-.55.33-.79.37-.65.11-1.16-.84-1.65-1.19l-1.84-1.31c-2.23-1.6-2.13-2.45-3.42-2.43-.19,0-.13.63,0,.75.26.22.74.6.93.8l1.41,1.49c.32.34.79.67,1.21.94l.49.31c.09.05-.11.27-.2.32l-1.1.6c.18,2.1,2.58,3.3,3.87,5.14,0,.85-.66,1.95-1.01,2.7l-1.09,2.32c-.52,1.12-1.08,2.13-1.86,3.2-.68.94-1.26,2.29-2.66,2.42-.68.07-2.9-1.68-3.21-2.39-.83-.09-1.74-.28-2.43-.87l-1.68-1.44c-1.09-.94-1.98-1.59-3.29-2.28-1.8-.95-2.73-3.27-3.11-5.26-.54-2.83-1.4-5.34-2.2-8.06l-.95-3.23c.95-.15,1.69-.27,2.56-.28,1.57-.03,3.08-.48,4.58-.64,1.94-.22,3.84,0,5.77-.62s3.32.49,3.6-.6c.48-1.87-1.96-.04-2.26-2.09-3.5-.77-3.98.36-6.84-1.6-1.98.4-9.03,2.24-9.57-.57l-1.5-7.77c-2.87-2.46-.99-2.86-1.28-4.3-.31-1.53-.48-2.8-.57-4.25l-1.06-1.57c.69-2.68-.26-1.81-.79-6.24-.21-1.71-.6-3.35-.97-4.99l-.61-2.7c-.41-1.82-.81-3.54-1.49-5.29-.5-1.3-.84-2.59-1.14-3.92l-1.08-4.64-.55-3.32c-.1-.58.07-1.33.29-1.8-.55-.79-.69-1.84-.96-2.86l-.83-3.23-.67-2.74-.68-2.64-1.12-4.34c-.75-2.89-.9-5.83-1.99-8.57l-.52-1.31c-1.21-3.03-1.54-6.25-2.62-9.36l-.8-2.31-1.23-4.54c-.44-1.6-.85-3.17-1.3-4.77l-1.06-3.81-.7-2.7-.97-4.27c-.2-.86-.54-1.61.08-2.49.21-.29-.32-.79-.39-1.18l-.66-3.25c-.15-.72-.56-1.27-.6-2.04l-.15-3.17c-.03-.63-.17-1.31-.81-1.38-.54-.06-1.2.33-1.22.79-.06,1.29-.48,2.97-.49,4.42.32,1.87.05,3.4-1.44,4.74l-1.09,3.43c-.32,1.02.49,1.99-.86,2.85-.6.38-1.05,1.44-1.25,2.21l-.64,2.48-.62,2.42-1.25,5.41c-.4,1.72-.89,3.2-2.59,4.02l-1.07,2.2c-.01,2.31-.68,4.16-1.39,6.3l-.56,1.69c-.83-.11-.97-.97-1.4-1.4l-4.14-4.07c-.68-.66-1.97-1.02-2.75-1.7-.59-.52-1.05-1.73-1.71-1.99-.89-.36-1.34-.69-2.05-1.2-1.27-.91-2.84-1.49-4.23-2.25-.82-.45-1.47-.71-2.52-.65-.44.03-2-.72-4.05-1.05l-6.04-.96-3.56-.59-4.63.31c-1.52.1-.67-1.16-7.14,1.23-3.95,1.46-6.99,1.96-10.44,4.76l-1.71,1.38c-1.57,1.27-3.08,2.48-4.28,4.1-.97,1.3-2.09,2.33-3.22,3.54-.63.68-.89,1.91-1.29,2.75l-1.18,2.45c-.6,1.26-1.15,2.57-1.52,3.92l-.5,1.81c-.4,1.45-.76,2.82-1.32,4.26-.21.55-.47,1.48-.53,2.05l-.38,3.54c-.06.51.37,1.04-.12,1.62-.54.65-.04,1.61.08,2.39.15.96-.45,2.25-.37,3.24l.3,3.79.32,3.92c.22,2.63.69,2.47,1.11,5.31.29,1.93,1.92,3.49,2.73,5.18.43.91.81,1.61,1.61,2.03,1.98,1.04,3.1-2.01,4.42-1.73l-.81,1.05c-.12.4.46,1.26.88,1.54,1.57,1.03,2.62-.83,3.47.83,1.74,3.39,7.06,1.91,10,1.06-.81-1.41-1.74-.61-2.77-.65-.98-.03-2.06-.17-3.18-.27-.57-.1-.52-.32,0-.37,1.17.17,2.45-.05,2.84-.81.12-.24.1-1.03-.15-1.1-.45-.13-1.29-.32-1.8-.42l-5.04-.98c-1.06-1.8-3.07-2.36-3.57-3.27s.94-1.92-.45-3.39l-.22-2.42c-.02-.21-.16-.59-.03-.64l.72-.28.17-.61c-3.02-.61-.9-8.57-.84-9.45l.18-2.97c.02-.38.51-1.06.64-1.47,1.35-4.11.89-3.29,4.33-6.76l.32,1.58c.09.07.58.08.6-.07.01-.1.05-.5.06-.64.64-1.04,1.45-2.79,2.39-3.72,1.02-1.01,2.13-1.71,2.62-3.15,2.9-.96,3.4-1.79,5.99-2.65l6.15-2.04c1.44-.48,2.82-.87,4.38-.85.9.01,1.81-.27,2.67-.34l2.84-.22c3.49,1.19,3.59,2.35,6.35,3.4,1.09.42,3.87,2.78,4.48,3.8.85.32,1.73.77,2.27,1.63l2.61,4.2c-1.07.38-1.58-.7-2.14-1.32l-2.16-2.41-1.76-1.96c-1.08-1.21-5.07-2.47-6.91-2.97-2.07-.56-4.43-.03-6.58-.14-.95-.05-1.77.09-2.74.24-2.16.33-4.45.31-6.5,1.27l-2.8,1.31c-.99.46-1.58,1.76-4.21,2.62-6.01,1.96-3.49,4.73-6.27,5.26l-.59,1.38c-.1.23-.26.56-.09.58.15.01.55.11.57,0l.11-.6c.07-.36.84-.92,1.2-.7.87.55,1.55.33,2.26-.3l3.79-3.41c1.73-1.55,3.51-2.43,5.73-2.94l2.38-.54c.39-.17.99-.71,1.57-.75l4.05-.3c2.27-.17,4.48-.16,6.87-.06,1.89.09,6.37,2.03,5.21,2.23l-.48.09c-.67.12-1.35.2-1.67.63-.3.4-.31,1.44,0,1.73l1.94.02c3.71,1.44,4.49,4.61,6.34,5.61.15.08.94-.05.87-.2-.05-.1-.15-.36-.22-.45l-1.41-1.79c-.08-.11-.12-.73.01-.68l.43.16c.51.18,1.84,2.68,2.83,1.47l1.27-1.56,1.99,4.58c.24.55.8.88.92,1.8l.65,4.8c0,.07-.4,4.83-1.53,4.59l-2.89-8.07-.7-2.19c-.1-.32-.34-.64-.68-.63-.21,0-.46.18-.47.4-.06,1.28.47,2.85,1.17,3.97.41.66,1.92,5.33,2.01,6.16l.46,4.21c.14,1.26-1.66,1.13-1.34,1.48l.45.49c-.13.72-.3,1.62-.52,2.36l-.86,3.01c-.05.18-.17.41-.24.53-.05.08-.51-.13-.59-.23-.65-.77-1.9-1.97-2.78-2.75-1.69-1.51-2.21-1.63-4.31-2.42-6.66-2.51-9.1-.15-12.67.2-2.36.23-4.29,1.08-6.03,2.67-.48.43-1.24.96-1.66,1.46-1.3,1.55-2.36,3.25-3.3,5.04l-1,1.92-1.51,3.31c-.27.59-.22,1.03.14,1.63l-.92,3.55c-.78.26-1.46.68-1.63,1.5-.9,4.38.3,8.84,2.74,12.45.88,1.3,1.77,2.48,3.13,3.14-.17.32-.38.67-.23.69.94.12,3.46,1.26,3.72,1.49l2.81,2.49c.97.86,2.37.37,3.41.71,1.46.47,3.08,1.48,4.19-.24.34-.53.86-1.17,1.37-1.76l.11-1.92c-3.24-.7-2.31,1.75-4.48,1.86l-2.18.11-1.86-.95c-.37-.19-.94-.67-1.03-1.06-.07-.31.27-.91.35-1.16l-.66-1.26-2.01-.89c-.64-1.21-1.5-2.81-2.37-3.74-.2-.21-1.16-.51-.99-.62.64-.19,1.31-.27,1.64-.7,1.9-2.48,4.22-4.59,7.05-5.77l.69.33c.4.19.3-1.61,2.61-2.03.6-.11,1.68-.42,2.16-.2.75.35,1.59.66,2.13,1.04,1.03.72,2.11,1.49,2.96,2.3l1.6,1.51,2.16,2.04c-.9.6-.81,1.73-1.07,2.36-.48,1.15-.73,2.12-1.04,3.37l-.82,3.28-.91,3.96c-.4,1.72-.67,3.12-1.21,4.79l-1.88,5.8c-.43,1.33-.88,2.61-1.28,3.97l-1.77,5.89c-.5,1.65-1.05,3.31-1.47,4.93-.38,1.46-.71,2.71-1.28,4.09-.49,1.19-.6,2.62-.98,3.85l-2.28,7.34-2.14,5.79c-2.04,5.54-.53,5.59-2.58,9.82l-2.13-1.48-6.21-1.24c-.74.28-1.53.39-2.34.27-3.19-.49-6.53-.38-9.76.01-1.91.23-3.76.71-5.59,1.05-1.24.23-2.37.14-3.55.84-.94.55-1.98.92-3.06,1.37-2.06.86-7.77,7.01-8.07,7.22l-5.04,3.55c-1.1.78-1.8,1.63-2.5,2.87-1.87,3.32-2,1.48-3.64,6.44-.62,1.88-2.07,3.78-2.58,5.52-1.15,3.94-2.21,7.78-3.74,11.58-.72,1.79-1.02,3.58-1.21,5.52l-.49,4.97c-.4,4.08.34,3.32-.15,6.06.22.24.54.77.57,1.06l.18,1.53c.18,1.56-.21,3.43.21,4.92.34,1.18.84,2.15.85,3.46.06,4.18,1.23,2,.72,4.3l.72.91c-.51.88-.05,1.44.08,2.24.2,1.29.28,2.69.4,3.96,2.21-.1.76,1.5,2.26,2.97.66.64,1.18,1.37,1.77,1.85l1.57,1.28c1.41,1.14,2.72,2,3.81,3.48.5.68,1.35,1.24,2.03,1.77.89.7,1.71.99,2.83,1.27,1.62.41,3.05,1.39,4.63,2.02,1.19.47,2.72.36,3.93.7,4.33,1.23,5.8-.15,8.13.72,1.12.42,2.11.52,3.3.47l6.41-.27,3.34-.24c1.15-.08,2.48-.57,3.59-.54,1.97.04,3.47-.24,5.27-.81,1.34-.43,2.82-.63,4.16-1.16l6.53-2.57c3.41-1.34.88-.61,5.28-1.97.68-.21.64-1.37,1.02-1.82.76-.91,1.84-1.74,2.82-2.43,2.12-1.49,1.39-1.27,3.8-3.18.47-.37.72-.79,1.14-1.24l3.17-3.38,1.04-1.5,2.92-3.12c.78-.84,1.31-2.24,2.02-3.25.82-1.16,1.38-2.58,2.06-3.87l-.64-1.97c-.24-.73-.76-1.2-.16-2.04.29-.41.75-.83,1.15-1.23.55-.55.11-2.09-.57-2.53-.86-.56-1.94-.21-2.78.28-.59.35-1.32,1.53-1.04,2.24.31.79.26,1.13-.06,1.8-.85,1.81-1.85,3.47-2.97,5.17-2.4,3.65-6.02,6.25-9.41,8.85-.77.59-1.49,1.31-2.37,1.65l.7.83-2.44.94,1.04-1.53-1.88.73-2.86,1.05c-.92.34-2.1.21-2.49,1.42l1.01,1.17c-1.23.79-2.67,1.31-4.14,1.49l-10.47,1.24-6.29.23c-2.62.09-3.89.33-7,.21l-4.5-.17c-3.09-.12-7.82-2.3-9.97-4.27-2.34-2.15-3.73-4.78-5.56-6-1.65-1.1-2.25-2.62-2.99-4.32l-1.93-4.43c-.26-.59-.59-1.52-.71-2.14l-.93-4.77c-.97-4.98.41-7.15.33-9.24ZM166.37,84.84c.32-.25.56-.65.59-1,.04-.49-.3-1.18-.65-1.06-.66.52-.35,1.37.06,2.06ZM291.12,133.56c1.32.04,3.01.33,3.14-1.04.02-.26-.45-.8-.69-.74l-2.22.54c-.18.04-.51.34-.64.46s.2.77.42.78ZM213.9,219.26c-.21-.09-.83-.09-.85.11l-.06.72c-.42,4.79,1.63,4.75,1.66,4.26.17-2.74-1.47-1.59-.74-5.09ZM215.46,234.83v3.52c0,1.1-.8,2.89.26,3.72.73.58,1.48-.83,1.5-1.55.03-1.22.18-2.46.15-3.59-.06-1.94-.09-3.78.04-5.72l.19-2.87-.53-1.33c-.29-.22-1.45.12-1.35.5.82,3.01-2.14.07-3.97,2.01l1.25,2.67-.74,1.95c-.16.41-.14.95.13,1.12.29.17.93.37,1.17.24.61-.34.13-2.22.92-2.38l1.02-.21-.04,1.92ZM145.35,261.56l-1-1.97-2.6-5.37c-.24-.5-1.05-.79-1.44-.37,2.29,3.85,2.01,5.91,5.75,9-.02-.63-.44-.84-.71-1.28Z"/>
  <g>
    <path d="M213.9,219.26c-.73,3.51.91,2.36.74,5.09-.03.49-2.07.53-1.66-4.26l.06-.72c.02-.21.64-.2.85-.11Z"/>
    <path d="M291.12,133.56c-.22,0-.55-.66-.42-.78s.47-.42.64-.46l2.22-.54c.25-.06.72.48.69.74-.12,1.36-1.82,1.08-3.14,1.04Z"/>
    <path d="M166.37,84.84c-.41-.69-.72-1.54-.06-2.06.35-.12.69.57.65,1.06-.03.35-.27.75-.59,1Z"/>
    <path class="cls-1" d="M228.95,127.53c-1.1.1-2.41-.03-3.48.17-3.04.59-5.31.58-8.17-.52l-1.75-.68c-2.57-.99-3.82,2.77-4.43,1.62l1.74-4.2c.57-1.37,1.31-2.86,1.57-4.22-.52-1,2.64-8.58,3.14-9.61.88-1.83,1.64-3.53,2.19-5.48l1.32-4.64.56-2.03,1.01-2.8.88-2.26c.29-.75.45-1.71.71-2.51,1.21-3.76.99-4.55,1.59-6.53l.67-2.23.72-3.82.77-2.83,1.06-3.76c.48-1.71,1.48-3.27,1.81-5.04l.59-3.13.28-2.24c.31-2.48.97-.68,1.69-3.97.81,1,.74,2.13,1.02,3.33l.54,2.35c.14.63.56,1.46.6,2.05.05.71.14.98.46,1.63.48,1,.08,2.45.1,3.61.08,4.81,1.05,3.18,1.14,8.42.02,1.47.83,2.9,1.01,4.37l.25,2c.2,1.62.6,3,.66,4.64.12,2.81.92,3.66,1.18,5.4l.91,6.09s1.34,4.87,1.42,5.07c.51,1.23.64,2.4.92,3.71.2.96.67,1.98.82,2.99.5,3.27.82,6.38,1.19,9.66l.26,2.31.39,3.16c.16,1.27.36,2.42.14,3.71-1.96-.36-3.19-1.32-4.6-2.3.22-1.04-.68-1.47-1.58-1.59l-2.4-.33-5.15.36s-2.48-.06-3.75.05Z"/>
    <g>
      <path d="M215.46,234.83l.04-1.92-1.02.21c-.78.16-.31,2.04-.92,2.38-.24.13-.88-.07-1.17-.24-.27-.16-.29-.71-.13-1.12l.74-1.95-1.25-2.67c1.83-1.94,4.79,1,3.97-2.01-.1-.38,1.06-.71,1.35-.5l.53,1.33-.19,2.87c-.13,1.94-.1,3.78-.04,5.72.03,1.13-.12,2.37-.15,3.59-.01.72-.76,2.13-1.5,1.55-1.06-.83-.25-2.62-.25-3.72v-3.52Z"/>
      <path d="M145.35,261.56c.28.44.7.65.71,1.28-3.74-3.09-3.46-5.15-5.75-9,.39-.42,1.21-.12,1.44.37l2.6,5.37,1,1.97Z"/>
      <g>
        <path d="M136.79,236.19c.08,2.09-1.3,4.26-.33,9.24l.93,4.77c.12.62.45,1.56.71,2.14l1.93,4.43c.74,1.7,1.34,3.22,2.99,4.32,1.83,1.22,3.21,3.85,5.56,6,2.15,1.97,6.88,4.16,9.97,4.27l4.5.17c3.11.12,4.39-.12,7-.21l6.29-.23,10.47-1.24c1.47-.17,2.91-.7,4.14-1.49l-1.01-1.17c.4-1.21,1.57-1.09,2.49-1.42l2.86-1.05,1.88-.73-1.04,1.53,2.44-.94-.7-.83c.89-.34,1.6-1.05,2.37-1.65,3.39-2.59,7.01-5.19,9.41-8.85,1.12-1.71,2.12-3.37,2.97-5.17.32-.68.36-1.01.06-1.8-.27-.71.45-1.9,1.04-2.24.84-.49,1.92-.84,2.78-.28.68.44,1.12,1.98.57,2.53-.4.4-.86.83-1.15,1.23-.6.85-.08,1.31.16,2.04l.64,1.97c-.68,1.29-1.24,2.71-2.06,3.87-.71,1.01-1.24,2.42-2.02,3.25l-2.92,3.12-1.04,1.5-3.17,3.38c-.42.45-.67.86-1.14,1.24-2.4,1.92-1.68,1.69-3.8,3.18-.99.69-2.06,1.52-2.82,2.43-.38.45-.34,1.61-1.02,1.82-4.4,1.36-1.87.63-5.28,1.97l-6.53,2.57c-1.34.53-2.82.73-4.16,1.16-1.79.57-3.29.86-5.27.81-1.12-.02-2.45.46-3.59.54l-3.34.24-6.41.27c-1.19.05-2.18-.05-3.3-.47-2.34-.88-3.8.5-8.13-.72-1.21-.34-2.73-.23-3.93-.7-1.58-.62-3.02-1.6-4.63-2.02-1.11-.28-1.93-.58-2.83-1.27-.68-.53-1.52-1.09-2.03-1.77-1.09-1.48-2.41-2.34-3.81-3.48l-1.57-1.28c-.6-.48-1.12-1.21-1.77-1.85-1.5-1.47-.05-3.07-2.26-2.97-.12-1.27-.19-2.66-.4-3.96-.12-.79-.59-1.36-.08-2.24l-.72-.91c.51-2.3-.66-.12-.72-4.3-.02-1.31-.52-2.28-.85-3.46-.42-1.49-.03-3.36-.21-4.92l-.18-1.53c-.03-.29-.35-.82-.57-1.06.49-2.74-.26-1.98.15-6.06l.49-4.97c.19-1.94.49-3.73,1.21-5.52,1.53-3.8,2.59-7.64,3.74-11.58.51-1.74,1.96-3.64,2.58-5.52,1.63-4.96,1.76-3.11,3.64-6.44.7-1.23,1.39-2.09,2.5-2.87l5.04-3.55c.29-.21,6.01-6.36,8.07-7.22,1.07-.45,2.12-.82,3.06-1.37,1.18-.69,2.31-.6,3.55-.84,1.84-.34,3.68-.82,5.59-1.05,3.23-.39,6.56-.5,9.76-.01.81.12,1.6.01,2.34-.27l6.21,1.24,2.13,1.48c2.05-4.23.54-4.27,2.58-9.82l2.14-5.79,2.28-7.34c.38-1.23.49-2.66.98-3.85.57-1.38.9-2.63,1.28-4.09.42-1.62.97-3.28,1.47-4.93l1.77-5.89c.41-1.35.85-2.64,1.28-3.97l1.88-5.8c.54-1.67.81-3.06,1.21-4.79l.91-3.96.82-3.28c.31-1.25.56-2.22,1.04-3.37.26-.63.17-1.76,1.07-2.36l-2.16-2.04-1.6-1.51c-.86-.81-1.94-1.58-2.96-2.3-.54-.38-1.38-.69-2.13-1.04-.47-.22-1.55.09-2.16.2-2.31.41-2.2,2.22-2.61,2.03l-.69-.33c-2.83,1.18-5.16,3.28-7.05,5.77-.33.43-1,.51-1.64.7-.17.11.79.41.99.62.87.93,1.73,2.53,2.37,3.74l2.01.89.66,1.26c-.08.25-.42.85-.35,1.16.09.4.65.87,1.03,1.06l1.86.95,2.18-.11c2.17-.11,1.24-2.56,4.48-1.86l-.11,1.92c-.51.59-1.03,1.23-1.37,1.76-1.11,1.73-2.74.71-4.19.24-1.04-.33-2.44.15-3.41-.71l-2.81-2.49c-.26-.23-2.79-1.37-3.72-1.49-.15-.02.06-.37.23-.69-1.36-.66-2.25-1.84-3.13-3.14-2.44-3.61-3.64-8.07-2.74-12.45.17-.82.85-1.24,1.63-1.5l.92-3.55c-.36-.59-.41-1.04-.14-1.63l1.51-3.31,1-1.92c.93-1.79,2-3.49,3.3-5.04.42-.5,1.18-1.03,1.66-1.46,1.75-1.59,3.68-2.45,6.03-2.67,3.57-.34,6.01-2.71,12.67-.2,2.1.79,2.62.92,4.31,2.42.87.78,2.13,1.98,2.78,2.75.08.1.55.31.59.23.07-.13.19-.36.24-.53l.86-3.01c.21-.75.39-1.64.52-2.36l-.45-.49c-.32-.35,1.47-.22,1.34-1.48l-.46-4.21c-.09-.83-1.6-5.5-2.01-6.16-.7-1.12-1.23-2.69-1.17-3.97.01-.22.26-.39.47-.4.34-.01.58.31.68.63l.7,2.19,2.89,8.07c1.13.24,1.54-4.52,1.53-4.59l-.65-4.8c-.12-.91-.69-1.25-.92-1.8l-1.99-4.58-1.27,1.56c-.99,1.22-2.32-1.28-2.83-1.47l-.43-.16c-.13-.05-.1.58-.01.68l1.41,1.79c.07.08.17.35.22.45.07.15-.72.28-.87.2-1.85-1-2.63-4.17-6.34-5.61l-1.94-.02c-.31-.29-.29-1.33,0-1.73.32-.43,1.01-.51,1.67-.63l.48-.09c1.16-.2-3.33-2.15-5.21-2.23-2.39-.11-4.61-.11-6.87.06l-4.05.3c-.58.04-1.18.59-1.57.75l-2.38.54c-2.23.51-4,1.38-5.73,2.94l-3.79,3.41c-.71.63-1.38.85-2.26.3-.36-.22-1.13.33-1.2.7l-.11.6c-.02.11-.42.01-.57,0-.17-.01,0-.35.09-.58l.59-1.38c2.77-.53.26-3.3,6.27-5.26,2.63-.86,3.22-2.16,4.21-2.62l2.8-1.31c2.05-.96,4.33-.94,6.5-1.27.97-.15,1.79-.29,2.74-.24,2.15.11,4.51-.42,6.58.14,1.84.5,5.83,1.76,6.91,2.97l1.76,1.96,2.16,2.41c.56.62,1.06,1.7,2.14,1.32l-2.61-4.2c-.53-.86-1.42-1.31-2.27-1.63-.61-1.02-3.39-3.38-4.48-3.8-2.76-1.06-2.86-2.22-6.35-3.4l-2.84.22c-.85.07-1.77.35-2.67.34-1.56-.02-2.94.38-4.38.85l-6.15,2.04c-2.6.86-3.1,1.69-5.99,2.65-.49,1.44-1.6,2.14-2.62,3.15-.93.93-1.75,2.69-2.39,3.72,0,.13-.05.53-.06.64-.02.16-.51.14-.6.07l-.32-1.58c-3.44,3.47-2.98,2.65-4.33,6.76-.14.41-.62,1.09-.64,1.47l-.18,2.97c-.05.87-2.18,8.84.84,9.45l-.17.61-.72.28c-.13.05,0,.43.03.64l.22,2.42c1.39,1.47-.05,2.5.45,3.39s2.52,1.46,3.57,3.27l5.04.98c.51.1,1.35.29,1.8.42.25.07.27.86.15,1.1-.39.76-1.67.98-2.84.81-.52.05-.56.27,0,.37,1.12.1,2.2.24,3.18.27,1.03.04,1.96-.76,2.77.65-2.93.85-8.26,2.33-10-1.06-.85-1.66-1.9.21-3.47-.83-.42-.28-1-1.13-.88-1.54l.81-1.05c-1.32-.27-2.44,2.77-4.42,1.73-.8-.42-1.18-1.12-1.61-2.03-.8-1.69-2.44-3.25-2.73-5.18-.42-2.84-.89-2.68-1.11-5.31l-.32-3.92-.3-3.79c-.08-.99.52-2.28.37-3.24-.12-.78-.62-1.74-.08-2.39.49-.58.06-1.11.12-1.62l.38-3.54c.06-.57.32-1.5.53-2.05.56-1.44.92-2.82,1.32-4.26l.5-1.81c.37-1.35.91-2.66,1.52-3.92l1.18-2.45c.4-.84.66-2.07,1.29-2.75,1.12-1.21,2.25-2.24,3.22-3.54,1.2-1.61,2.7-2.82,4.28-4.1l1.71-1.38c3.45-2.79,6.49-3.3,10.44-4.76,6.47-2.38,5.62-1.13,7.14-1.23l4.63-.31,3.56.59,6.04.96c2.05.33,3.61,1.07,4.05,1.05,1.05-.06,1.7.2,2.52.65,1.39.76,2.96,1.34,4.23,2.25.71.51,1.16.84,2.05,1.2.66.27,1.12,1.47,1.71,1.99.77.68,2.07,1.04,2.75,1.7l4.14,4.07c.44.43.57,1.29,1.4,1.4l.56-1.69c.71-2.14,1.38-3.99,1.39-6.3l1.07-2.2c1.7-.82,2.19-2.3,2.59-4.02l1.25-5.41.62-2.42.64-2.48c.2-.78.65-1.83,1.25-2.21,1.34-.86.53-1.84.86-2.85l1.09-3.43c1.49-1.33,1.76-2.87,1.44-4.74,0-1.45.43-3.13.49-4.42.02-.46.68-.85,1.22-.79.63.07.78.75.81,1.38l.15,3.17c.04.77.45,1.32.6,2.04l.66,3.25c.08.39.6.89.39,1.18-.62.88-.28,1.63-.08,2.49l.97,4.27.7,2.7,1.06,3.81c.44,1.6.86,3.17,1.3,4.77l1.23,4.54.8,2.31c1.08,3.11,1.41,6.33,2.62,9.36l.52,1.31c1.09,2.74,1.24,5.68,1.99,8.57l1.12,4.34.68,2.64.67,2.74.83,3.23c.26,1.03.41,2.07.96,2.86-.22.47-.39,1.22-.29,1.8l.55,3.32,1.08,4.64c.31,1.33.64,2.62,1.14,3.92.67,1.76,1.07,3.47,1.49,5.29l.61,2.7c.37,1.63.76,3.28.97,4.99.53,4.43,1.48,3.56.79,6.24l1.06,1.57c.09,1.45.25,2.72.57,4.25.29,1.44-1.59,1.84,1.28,4.3l1.5,7.77c.54,2.8,7.59.97,9.57.57,2.86,1.96,3.34.83,6.84,1.6.3,2.05,2.73.22,2.26,2.09-.28,1.09-1.73,0-3.6.6s-3.83.4-5.77.62c-1.5.17-3.01.62-4.58.64-.87.02-1.61.14-2.56.28l.95,3.23c.8,2.72,1.65,5.23,2.2,8.06.38,1.98,1.31,4.3,3.11,5.26,1.32.7,2.2,1.34,3.29,2.28l1.68,1.44c.69.59,1.6.78,2.43.87.31.71,2.53,2.45,3.21,2.39,1.4-.14,1.98-1.48,2.66-2.42.78-1.07,1.33-2.08,1.86-3.2l1.09-2.32c.35-.74,1.02-1.85,1.01-2.7-1.29-1.84-3.69-3.04-3.87-5.14l1.1-.6c.1-.05.29-.27.2-.32l-.49-.31c-.42-.27-.89-.6-1.21-.94l-1.41-1.49c-.19-.2-.67-.58-.93-.8-.14-.12-.2-.75,0-.75,1.29-.03,1.19.83,3.42,2.43l1.84,1.31c.49.35,1,1.3,1.65,1.19.24-.04.81-.21.79-.37l-.09-.75,1.04.25c.59.14-1,1.56-.07,1.81l1.38.38c.13.04.49.34.55.22l.31-.66c.14-.3.5-.74.81-.87.27-.11.88.14,1,.4s-.11.88-.13,1.2c-.04.81,1.23.95,1.91.82,1.13.18,1.97.21,2.03,1.15.05.7-1.67.14-1.53.68.05.19.26.59.4.73l1,.95c1.08.3,1.79,1.05,2.66,1.68,1.35.99,2.69,1.85,3.83,3.13.88.99,1.96,1.6,3.02,2.23l1.34,1.11,3.18,2.37c.97.72,2.22,2.41,2.36,2.98.95,3.97-1.39,3.16,3.93,7.01.65.47,1.35.85,2.16.34.13-.08.45-.41.54-.32.54.54,1.23,1.2,1,1.93-.17.53-1.01.97-1.36.51-1.68-2.24-3.23,1.28-5.12-1.17l-2.07-2.69c-.49-.64-.89-1.34-1.47-1.89l-1.97-1.88c-2.47-2.35-1.28-2.8-5.45-2.68-1.01.03-2.1-.22-3.19-.03-1.75.31-3.04.61-4.43,1.69-.88.69-1.83,1.39-2.68,2.16l-3.16,2.86c-.12.11-.39.47-.4.63s.14.4.31.73l-1.38,1.44c-.08.74-.45.97-.86,1.58l-2.23,3.29-1.81,2.52-2.43,2.84c-.61.72-1.04,1.71-1.58,2.53-1.29,1.96-2.36,4.36-2.82,6.49-1.14,5.23-.46,4.89-.65,6.31l-.35,2.57-.58,3.33c-.23,1.32-.19,2.37-1.68,2.66-.85.16-2.46-.63-2.16-1.85.35-1.41.13-2.73-.4-3.87.69-2.35.56-3.36-.37-5.24-.35-.7-.5-1.85-.96-2.43-1.24-1.55-1.54-2.29-3.02-3.94l-4.09-4.55-2.36-2.69-3.75-4.17c-.75-.83-1.54-1.02-2.58-.5l-4.67,2.31c-1.04.52-2.38,1.26-3.16,2.07l-2.04,2.12-1.96,2.03c-.27.28-.45,1.21-.75,1.44l-1.78,1.37c-2.47-.71-3.74,1.79-4.27,3.71l-1.98,7.28c-.8,2.94-1.35,4.12-2.01,6.83-.51,2.08-1.51,6.2-3.22,7.33.13,2.39.18,3.97-1.09,5.96l.3.91c0,.08.03.23.02.19-.39.2-.71.31-.72.49s.04.63.01.81c-.11.7-.33,1.66-.29,2.4.05,1.05-.77,2.3-1.77,1.98-.52-.16-1.26-1.34-1.01-1.83.89-1.74,1.08-3.49,1.02-5.39-.08-2.63,2.15-4.49.62-5.44-.19-.12.72-.24,1.15-2.43l.53-2.68c.89-4.52.12-5.89.8-10.37l.4-2.63.04-1.57c0-.4.11-.97-.05-1.21-.23-.35-2.09-.97-2.77-1-1-.05-1.55,2.22-2.97,2.33-.24.02-.79-.31-.93-.49s.03-.67.19-.87l1.17-1.45c3.01-1.58,1.06-1.02,3.8-3.89,1.83-1.92,3.02-3.2,4.42-5.41l3.56-5.58c1.14-1.78,2.1-3.58,2.93-5.51l1.23-2.86c.39-.91.75-1.8,1.07-2.72l1.37-3.93c.39-1.12,1.46-2.23,1.39-3.45l-.27-5.02-.23-2.66-.14-2.67-.8-5.1-.16-2.74c-1.06-.25-2.44.1-3.62.23-1.75.19-3.25.41-4.44,2.04-1.52-.13-2.98-.88-4.36-1.66-.26-.15-5.22-.6-6.23-.83-2.66-.62-4.98-.74-7.77-.67l-2.32.06-4.43.43c-.21.02-3.44-.14-3.95-.57-.86.34-1.96.14-2.74-.31-1.3.65-1.31,2.52-1.85,3.67-2.02,4.32-3.83,8.45-4.94,13.13-1.01,4.25-3.03,7.54-4.92,11.54-.47,1-.52,2.39-1.1,3.43-.72,1.29-1.73,5.04-2.79,7.49-.56,1.28-1.46,2.63-1.7,3.95-.78,4.18-1.71,3.48-2.06,8.61l5.81-1.16c.99-.2,2.02-1,2.98-.09.64.6,1.51.88,2.41,1.21,1.79,1.45,1.13.11,4.63,1.73l2.45,1.14c.19.09.76.04.86-.12.72-1.19-.43-.78.56-1.71,1.12-1.05,1.9-2.68,3.23-3.4l4.83-2.64c-.07-.7-.57-1.5-1.25-2.01-1.91-1.42-.88-2.58-1.52-4.43-.15-.37-.2-.62.08-.26l1.48.89c1.18.71,2.55,1.89,3.12,3.15.65,1.42,1.89,2.18,3.1,3.01.05.74.28,1.46.83,2.02,2.55,2.56.35,1.9,2.71,3.65.94.7,1.37,4.39,3.28,5.69.76.51,1.64.85,1.65,1.9l-.97,1.11c.47.56.17,2.16-.62,2.03-1.78-.29-2.07-2.31-2.77-3.47l-1.81-3.02c-.42-.71-.81-.91-1.74-.97-.75-.05-2.02-.63-2.66-.25l-2.64,1.58-1.99,1.36c-.8.54-1.79,1.32-2.44,2.06l-2.14,2.41c-.73.82-1.52,1.93-2.04,2.88-1.58,2.91-1.25.95-3.01,4.03l-1.84,3.23c-1.15,2.01-1.55-.33-2.5,3.72-.22.92-.77,1.66-1.34,1.97-.95.52-2.09.37-2.84-.42-1.95-2.04-1.32-2.58-4.05-2.9-2.16-.26-3.55-.2-5.61.58l-.46,1.55c-2.69.96-2.86,3.39-5,2.23-1.43-.78-2.49.78-4.33-.26-.37-.21-.6-1.06-.8-1.51l-3.14-1.86c-1.78-1.05-8.36-2.03-10.06-1.49l-6.11,1.95c-1.96.62-3.5,1.63-4.96,3.02-2.25,2.12-4.11,4.36-5.68,7.02l-1.62,2.74c-.35.59-.58,1.44-.93,1.99l-.8,1.27c-.58.91-1.11,1.78-1.54,2.78-.64,1.47-.66,3.89-1.8,3.6-.88-.22.15-.16.43-2.31l.08-.64c.02-.12-.21-.1-.62-.22.23-1.12,1-1.95,1.49-2.95,1.49-3.02,3.13-5.84,5-8.66.94-1.41,1.71-2.9,2.89-4.16,3.9-4.19,5.54-5.39,11.35-6.78,1.33-.32,2.68-.83,4-.95,5.26-.51,7.66.98,12.55,3.52,1.23-1.85-.75-6.62-1.99-6.59-.26,0-.64.3-.9.53l-.48.44c-.63.57-.14-1.69-3.1-2.85-3.32-1.29-3.48-1.6-7.65-1.43-.99.04-1.9.17-2.82.58l-1.69.74-3.98,3.05-1.94,1.41c-1.69,1.23-3.37,4.97-6.21,7.92-.13.14-.46.37-.56.26-.68-.78.02-1.89.85-3.09l4.32-6.24c.4-.57.6-.89,1.13-1.3,1.05-.83,1.96-1.83,2.93-2.93-1.41-.89-1.82,2.07-3.03,2.27-1.39.23-2.28.51-3.13,1.53-1.23,1.46-3.04,3.75-3.95,5.4-2,3.62-2.61,3.15-3.53,6.43l-1.51,5.42c-1.17,4.22-2.78,5.66-2.62,9.64ZM168.23,64.64c0,.5.5,1.28.99,1.58,1.23-.98,1.09-3.03,2.6-4.91,1.61-2.01,3.72-4.34,5.75-5.72l1.62-1.11c.61-.41,1.54-.61,2.17-.93l2.22-1.13c-.32-.35-1.07-.7-1.55-.62l-2.73.47c-1.4-.62-1.98.2-2.86.92-.69.57-1.44,1.13-2.06,1.79l-1.86,2-1.19,1.46c-1.62,1.98-2.72,2.94-3.14,5.39l3.28-4.57c1.29-.51-3.32,6.23-3.25,5.39ZM191.16,53.03c-.89-1.57-4.45-1.14-3.19-.62.12.05,2.83.87,3.19.62ZM182.99,55.13l3.64-1.38c-1.47-1.04-6.07,1.02-6.47,2.41.99-.32,1.78-.63,2.83-1.03ZM228.95,127.53c1.27-.11,3.75-.05,3.75-.05l5.15-.36,2.4.33c.9.12,1.8.56,1.58,1.59,1.4.98,2.64,1.94,4.6,2.3.22-1.29.02-2.44-.14-3.71l-.39-3.16-.26-2.31c-.37-3.28-.69-6.39-1.19-9.66-.15-1.01-.62-2.03-.82-2.99-.28-1.3-.41-2.47-.92-3.71-.08-.2-1.42-5.05-1.42-5.07l-.91-6.09c-.26-1.74-1.07-2.59-1.18-5.4-.07-1.64-.46-3.02-.66-4.64l-.25-2c-.18-1.47-.99-2.9-1.01-4.37-.08-5.25-1.06-3.61-1.14-8.42-.02-1.16.38-2.61-.1-3.61-.32-.65-.41-.92-.46-1.63-.04-.59-.46-1.42-.6-2.05l-.54-2.35c-.27-1.21-.21-2.33-1.02-3.33-.72,3.28-1.38,1.49-1.69,3.97l-.28,2.24-.59,3.13c-.33,1.77-1.33,3.33-1.81,5.04l-1.06,3.76-.77,2.83-.72,3.82-.67,2.23c-.6,1.98-.38,2.78-1.59,6.53-.26.8-.41,1.75-.71,2.51l-.88,2.26-1.01,2.8-.56,2.03-1.32,4.64c-.55,1.95-1.31,3.65-2.19,5.48-.49,1.03-3.65,8.61-3.14,9.61-.26,1.36-1,2.85-1.57,4.22l-1.74,4.2c.61,1.15,1.87-2.61,4.43-1.62l1.75.68c2.87,1.11,5.13,1.11,8.17.52,1.07-.21,2.38-.08,3.48-.17ZM163.74,67.69l1.42-3.68c.06-.16,0-.56-.02-.71s-.61.17-.71.31c-.86,1.18-1.32,3.08-1.64,4.55-.12.56-.66,1.27-.41,1.77.06.12.55.46.58.33l.08-.49c.12-.75.28-1.34.69-2.08ZM243.21,97.8c.05-1.13,0-1.73-.13-2.6l-.41-2.71c-.23-1.49-.46-2.95-.63-4.46l-.29-2.45c-.08-.7-.26-1.31-.56-1.94-.7,1.36.05,2.25.21,3.48.1.78-.3,1.95-.07,2.71s.3,1.31.4,2.03l.69,4.82c.07.49.25.78.79,1.12ZM194.83,94.07c.24,0,.75-.53.78-.65-.97-.26-1.86-.17-2.61.71l1.82-.06ZM190.92,112.36c1.18-.52,2.36-1.35,3.69-1.44.97-.07,6.54-.4,6.88.52l-.62,1.6c.78.8,1.61,1.64,2.45,2.36l2.1,1.8c.44-.69.92-2.07.7-2.89l-.74-2.74c-.5-1.86-2.98-3.58-5.18-3.94l-1.7-.28c-1.07-.17-2.38-.16-3.49-.07l-2.69.2c-2.69.2-6.72,2.44-8.03,4.71l-1.38,1.17c-.16.13-.47.74-.33.88l.6.61c-1.21.44-1.76,1.33-2.15,2.49-.57,1.71-1.24,2.63.23,3.82,1.37-1.03-1.41-.77,1.54-3.54,1.21-1.14,2.4-2.03,3.72-3.03s2.79-1.5,4.41-2.21ZM250.43,128.02c.29-1.13.25-2.04.25-3.07.01-1.91-.29-3.67-.63-5.53-.1-.53-.08-.83-.5-1.37-.28.49-.33.87-.27,1.41l.31,2.86c.21,1.94-.34,3.83.83,5.7ZM295.61,146.22c-2.47-.2-1.79-1.94-3.48-1.56l2.87,3.12c.32.35,1.24.6,1.4.29l-.79-1.86ZM248.02,183.79c1.76-1.77,3.15-3.76,4.78-4.8l2.5-1.6c1.42-.91,3-1.22,4.76-1.88-.3-.69-2.82-2.93-3.69-3.05-.69-.09-1.82.58-2.36.92l-.28,1.84c1.31,1.43-1.1-.12-2.95,2.43l-1.62,2.23c-.59.81-1.66,2.54-1.86,3.43-.04.2.57.64.72.49ZM166.24,190.59l1.59-.17c.12-.01.4-.26.49-.35s-.42-.45-.55-.43l-2.14.43c-.12.02-.04.52.08.52.08,0,.38.01.53,0ZM149.47,194.23l.89-.93c-1.4.62-2.47,1.42-3.38,2.63,1.22.01,1.75-.92,2.49-1.7ZM146.15,207.77c3.25-2.43,2.23-2.73,2.86-4.35l1.96-5.04c-1.12.21-1.32.95-1.78,1.7-.84,1.38-2.74,3.58-2.84,4.91l-.2,2.77ZM134.57,212.79c1.3-3.91,1.86-3.79,3.8-7.28.8-1.45,1.35-3.14,3.13-3.78.76-.27,1.48-.68,1.8-1.49-2.47.16-4.18,2.82-5.29,4.5-1.82,2.75-3.44,5.22-4.31,8.42-.37,1.36-1.86,2.33-1.43,4.08.99-1.32,1.78-2.9,2.3-4.46ZM127.33,231.31c-.72,1.33-.83,2.52-.65,4.04.27.24,1.36-4.33.65-4.04ZM191.68,268.19l2.66-1.19c.39-.17.83-.7.85-1.2-1.31-.18-1.7,1.28-4,2.15-.1-.05.23.12.48.25ZM171.15,278.98l2.96-.4c-.09-.11-.23-.36-.36-.35-2.69.38-3.08-.03-6.13.49,1.01.69,2.21.43,3.53.25Z"/>
        <path class="cls-1" d="M190.92,112.36c-1.63.71-3.13,1.23-4.41,2.21s-2.5,1.89-3.72,3.03c-2.95,2.77-.17,2.51-1.54,3.54-1.47-1.18-.8-2.1-.23-3.82.39-1.16.94-2.05,2.15-2.49l-.6-.61c-.14-.14.17-.74.33-.88l1.38-1.17c1.31-2.27,5.35-4.5,8.03-4.71l2.69-.2c1.11-.08,2.43-.1,3.49.07l1.7.28c2.2.36,4.68,2.08,5.18,3.94l.74,2.74c.22.82-.25,2.2-.7,2.89l-2.1-1.8c-.84-.72-1.67-1.56-2.45-2.36l.62-1.6c-.34-.93-5.91-.59-6.88-.52-1.33.09-2.51.93-3.69,1.44Z"/>
        <path class="cls-1" d="M168.23,64.64c-.07.84,4.53-5.9,3.25-5.39l-3.28,4.57c.41-2.46,1.52-3.41,3.14-5.39l1.19-1.46,1.86-2c.62-.67,1.37-1.23,2.06-1.79.89-.73,1.46-1.54,2.86-.92l2.73-.47c.48-.08,1.23.27,1.55.62l-2.22,1.13c-.63.32-1.57.52-2.17.93l-1.62,1.11c-2.02,1.38-4.13,3.71-5.75,5.72-1.51,1.88-1.37,3.93-2.6,4.91-.49-.3-.98-1.08-.99-1.58Z"/>
        <path class="cls-1" d="M248.02,183.79c-.15.15-.76-.29-.72-.49.19-.88,1.26-2.61,1.86-3.43l1.62-2.23c1.85-2.55,4.27-.99,2.95-2.43l.28-1.84c.54-.34,1.67-1.01,2.36-.92.87.12,3.39,2.36,3.69,3.05-1.77.66-3.34.97-4.76,1.88l-2.5,1.6c-1.63,1.05-3.02,3.03-4.78,4.8Z"/>
        <path class="cls-1" d="M243.21,97.8c-.54-.34-.72-.63-.79-1.12l-.69-4.82c-.1-.72-.18-1.3-.4-2.03s.17-1.93.07-2.71c-.16-1.23-.91-2.12-.21-3.48.3.63.48,1.24.56,1.94l.29,2.45c.18,1.51.41,2.96.63,4.46l.41,2.71c.13.87.17,1.47.13,2.6Z"/>
        <path class="cls-1" d="M250.43,128.02c-1.18-1.87-.62-3.76-.83-5.7l-.31-2.86c-.06-.54,0-.93.27-1.41.42.53.4.83.5,1.37.34,1.86.64,3.62.63,5.53,0,1.02.04,1.94-.25,3.07Z"/>
        <path class="cls-1" d="M163.74,67.69c-.41.74-.57,1.33-.69,2.08l-.08.49c-.02.13-.51-.2-.58-.33-.25-.5.29-1.22.41-1.77.32-1.48.78-3.37,1.64-4.55.1-.14.68-.45.71-.31s.08.54.02.71l-1.42,3.68Z"/>
        <path class="cls-1" d="M182.99,55.13c-1.05.4-1.84.71-2.83,1.03.4-1.39,5-3.45,6.47-2.41l-3.64,1.38Z"/>
        <path class="cls-1" d="M295.61,146.22l.79,1.86c-.16.31-1.08.05-1.4-.29l-2.87-3.12c1.69-.38,1.01,1.36,3.48,1.56Z"/>
        <path class="cls-1" d="M191.16,53.03c-.37.26-3.07-.56-3.19-.62-1.26-.52,2.31-.96,3.19.62Z"/>
        <path class="cls-1" d="M194.83,94.07l-1.82.06c.74-.88,1.64-.97,2.61-.71-.04.12-.54.64-.78.65Z"/>
      </g>
      <g>
        <path class="cls-1" d="M146.15,207.77l.2-2.77c.1-1.33,2-3.53,2.84-4.91.46-.75.65-1.49,1.78-1.7l-1.96,5.04c-.63,1.62.39,1.92-2.86,4.35Z"/>
        <path class="cls-1" d="M134.57,212.79c-.52,1.56-1.31,3.14-2.3,4.46-.43-1.74,1.06-2.71,1.43-4.08.87-3.21,2.49-5.67,4.31-8.42,1.11-1.68,2.82-4.34,5.29-4.5-.31.81-1.03,1.22-1.8,1.49-1.78.64-2.33,2.33-3.13,3.78-1.93,3.49-2.5,3.37-3.8,7.28Z"/>
        <path class="cls-1" d="M171.15,278.98c-1.32.18-2.51.45-3.53-.25,3.05-.53,3.44-.12,6.13-.49.12-.02.27.24.36.35l-2.96.4Z"/>
        <path class="cls-1" d="M191.68,268.19c-.25-.13-.58-.29-.48-.25,2.3-.87,2.69-2.33,4-2.15-.02.51-.46,1.03-.85,1.2l-2.66,1.19Z"/>
        <path class="cls-1" d="M127.33,231.31c.7-.28-.38,4.28-.65,4.04-.18-1.52-.07-2.71.65-4.04Z"/>
        <path class="cls-1" d="M149.47,194.23c-.74.77-1.27,1.71-2.49,1.7.91-1.21,1.98-2.01,3.38-2.63l-.89.93Z"/>
        <path class="cls-1" d="M166.24,190.59c-.15.02-.45,0-.53,0-.12,0-.2-.5-.08-.52l2.14-.43c.13-.03.64.34.55.43s-.37.33-.49.35l-1.59.17Z"/>
      </g>
    </g>
  </g>
</svg>