<?xml version="1.0" encoding="UTF-8"?>
<svg id="Layer_2" data-name="Layer 2" xmlns="http://www.w3.org/2000/svg" viewBox="0 0 432 288">
  <defs>
    <style>
      .cls-1 {
        fill: #fff;
      }
    </style>
  </defs>
  <path class="cls-1" d="M359.64,92.75c.65-1.12.92-3.13,1.82-4.12,3.1-3.41,1.18-4.23,3.01-5.78V-.8c-25.51,1.83-51.15,1.01-76.67-.5-30.03.84-60.15.68-90.18,1.09-.2.88-.75,1.71-1.55,2.03-.93.37-3.24.49-4.16-.03-.8-.45-1.33-1.12-1.64-1.88-.33,0-.66,0-.99.01C152.98.57,116.67.99,80.37-.02v169.2c1.29,2.19-.61,5.92,3.16,9.22-.99.46-2.05,1.65-1.92,2.7l.75,5.83,1.66,1.61,2.08,9.94c1.49,7.12-.21,3.81,1.39,9.15,1.57,5.24,2.96,1.84,5.41,6.77.69,1.38,1.98,2.88,2.36,4.31.41,1.57,1.12,2.28,1.81,3.38,1.99,3.17,4.01,5.56,6.79,8.17,1.21,1.14,2.47,3.48,3.55,4.99.98,1.38,2.01,2.01,3.26,3.01,1.7,1.36,3.16,3.01,5.45,3.64l1.37,4.2c2.71,1.06,3.75,3.33,3.59,6.22-.15,2.7-1.64,4.22-4.15,4.24-6.12.05-2.69,1.22-6.59.49-3.94-.74-5.08-1.12-7.67-3.69-.71-.71-2.88.4-3.83.36l-5.15-.21c-1.37-.06-2.33.87-3.43,1.68-.92.68-3.53-.17-4.66,0l-5.21.77v26.03c18.07-1.48,36.12-.11,54.38.77,21.13,1.02,42.09-1.33,63.2-1.76,21.43-.44,42.87.11,64.28,1.03,15.86.68,31.71,1.54,47.57,2.34,4.04-.82,8.25-1.37,12.26-1.28,6.34.16,12.41.27,18.63-.09,9.49-.55,6.74.61,16.13-1.96,2.68-.73,5.05-1.72,7.64-1.46v-110.93c-1.07-.45-3.51-.61-3.94.53l-1.79,4.75-1.99,5.08c-3.8,9.68-3.01,13.37-5.95,19.94-.36.8-.96,2.05-1.18,2.72l-2.87,8.44c-.52,1.54-.54,3.76-1.25,5.19-1.96,3.92-3.89,7.6-5.55,11.57-.98,2.36-1.77,4.32-3.52,6.28-.12,10.83-.73,3.97-2.14,12.07,3.56-.08,6.44.56,8.12,3.24.24.38.92,1,.76,1.28l-.77,1.34c-1.97,3.44-4.59,1.49-5.78,4.67,7.09,1.19,5.85-.17,10.99.43-.05,2.62,1.92,5.53-.45,7.19-3.35,2.35-7.79,3.22-10.99,5.44-.52.29-1.38-1.15-1.86-1.69-1.4-1.48-3.93-.06-5.81-.31-1.3-.17-3.38-.83-4.6-1.09-2.44.86-4.39-.35-6.65-.7l-9.74-1.52c-1.82-.28-4.45,2.02-6.67.46-1.08-.76-2.48-2.83-2.71-4.26.82-1.62,2.38-3.82,3.9-4.54l4.52-2.14c1.95-.93,5.78-.64,7-3.23,2.25-4.8,4.77-9.8,6-14.99l1.47-6.17,1.98-6.36c.41-1.33,1.31-2.53,1.57-4.04l2.52-14.69c.4-2.31,2.79-4.65.84-7.45l-2.67,5.47-2.17,4.29-4.33,10.08-2.91,5.45c-1.27,2.38-2.67,5.2-2.95,7.83,1.33,1.04,3.33,2.34,2.82,3.94-.91,1.17-2.39,2.41-3.21,3.63-1.64,2.45-3.73,5.33-6.98,4.84-1.02-.15-2.48-1.26-2.55-2.07-.09-1.04.51-1.86,1.15-2.8,1.84-2.64,2.76-8.16,3.38-9.57l3.4-7.71,7.16-16c2.57-5.74.4-3.64,4.87-11.18,1.27-2.14,2.1-3.87,2.66-6.43.48-2.19,3.36-4.14,3.53-6.64.13-1.9,1.32-3,1.88-4.54l3.1-8.58,2.72-6.57c-.7,1.7,4.04-11.58,3.72-10.6l1.38-4.16c.89-2.69,2.11-5.08,2.99-7.79l2.94-9.03c1.23-3.79,2.48-7.59,3.18-11.38.03,1.68,2.79-8.64,2.47-7.19,1.34-5.99,3.09-11.25,6.16-16.59ZM100.31,182.86c-1.52,1.57-3.91,1.16-5.37-.1l-1.38-1.19c-.37-.31.14-1.38.34-1.95l-.53-1.13c-.13-.27.55-1.08.84-1.07l1.99.11c.5.03.43,1.37.62,2.14l3.59.21c.32.36.43,2.44-.09,2.98ZM104.1,72.33c-.68.21-2.18-.47-2.41-1.18-.16-.51.55-1.81.82-2.03l3.47,1.44c-.36.66-1.2,1.57-1.88,1.77ZM150.71,54.45c.9-.18,1.83-.33,2.2-.02.37.31.58,1.42.58,1.94,0,.59-1.15,1.24-2.01,1.23-.77-.01-1.81-.73-1.95-1.31-.14-.59.58-1.71,1.18-1.83ZM285.16,279.05c-22.53.03-45.07.76-67.36-3.14-5.65-.99-8.77-7.89-7.37-12.98,1.61-5.87,7.38-8.35,12.98-7.37,4.24.74,8.52,1.27,12.8,1.66l-.7-.7-4.34-.3c-1.31-1.98-1.02-4.67-.26-6.65l2.29-.98.48-5.42c.02-.24-.02-.93-.04-1.09-.14-1.36-1.53,1.23-2.69.74-.45-.18-.93-1.46-.67-1.93,2.54-4.65-1.47-4.53-.46-7.78.47-1.51-.02-2.64-.34-4.09l-.92-4.18c-.42-1.93-.63-4.03-1.14-5.87l-1.2-4.33c-.99-1.97-1.65-4.11-2.14-5.84-.24-.85-1.27-2.27-1.28-3.13-.01-3.01-1.09-5.04-2.05-7.62l-1.39-3.72c-.73-1.97-.81-4.34-1.46-6.39l-2.06-6.43c-1.24-3.88-2.4-7.15-3.74-10.74-.83-2.22-1.22-4.64-2.37-6.91l-1.56-3.07.08-1.49c.02-.39-.91-.75-1.06-.93l.29-2.22c.07-.54-1.52-.82-1.78-1.31l-1.34-3.2-2.32-5.57c-.93-2.24-1.62-4.23-3.33-6.26-1.58,3.22-2.63,5.89-3.43,9.09l.51,3.29c-2.37-.08-2.85,4.74-2.38,6.3-3.8,4.42-1.91,5.34-3.98,11.43-.91,2.68-1.49,5.17-2.23,7.96-.66,2.48-1.98,5.04-2.32,8.03l-.45,3.94-.83,5.12c-1.07,6.54-2.72,12.72-2.92,19.35-.1,3.26-1.67,6.47-1.9,9.81l-.37,5.55-.58,10.17,1.92,3.12c2.6,1.44,3.64,3.84,3.55,6.7-.05,1.58-.61,2.43-1.54,3.66-.32.43-.62.77-.9,1.07,2.82.33,5.45.53,7.43.26,5.67-.77,11.31,1.27,12.98,7.37,1.37,4.97-1.72,12.22-7.37,12.98-6.57.89-12.51.34-19.07-.37-3.95-.43-10.79-1.51-13.16.42-4.43,3.62-10.56,4.37-14.93,0-3.75-3.75-4.42-11.32,0-14.93,3.31-2.71,6.84-4.57,10.6-5.71-.28-.13-.55-.27-.81-.42-1.13-.69-2.42-3.38-2.04-4.79.47-1.76,1.69-3.68,2.67-5.05,4.08-1.28,5.66-4.88,4.54-8.97-.39-1.43-.28-3.1-.14-4.66.88-10.07-1.23-4.55-.34-10.55l1.33-8.94c.33-2.25.47-4.01.37-6.32-.08-1.82.66-4.1.75-5.94.26-5.4,1.05-10.38,2.13-15.75.3-1.48-.59-4.03-.25-5.29.82-2.08,1.37-3.7,1.94-5.72l.9-3.15.96-3.68,1.49-6.48,1.74-3.53.94-4.55c.98-4.71,1.83-2.95,4.05-10.27.57-1.89.25-4.44,1.35-6.14,1.59-2.46,2.78-4.78,3.54-7.62.85-3.17,2.41-6.68,2.41-9.61,0-3.13-3.02-5.01-4.22-7.11-2.73-4.82-6.04-8.38-10.95-10.02,4.9,5.27,4.62,15.35-4.37,17.45-3.75.87-7.58,1.31-11.36,2.04-1.93.37-3.93.77-5.78,1.45-.48.18-.59.18-.56.14-.17.11-.46.28-.92.54-.18.1-1.37,1.1-.7.49-10.05,9.11-25.01-5.78-14.93-14.93.82-.75,1.67-1.4,2.53-2.02-1.05-.33-2.08-1.03-2.46-1.69-.45-.78-.48-1.85-.25-2.91-4.09,2.26-9.13,2.1-12.74-1.51-3.82-3.82-4.33-11.21,0-14.93,8.73-7.49,18.4-13.74,27.96-20.09,4.77-3.17,11.69-.92,14.44,3.79,3,5.12.95,11.29-3.79,14.44-5.61,3.73-11.34,7.37-16.78,11.36,3.91-1.4,7.85-2.55,9.51-3.82,3.1-2.38,5.75-4.33,9.4-5.46,3.64-1.13,6.52-1.42,10.35-.61,2.57.54,8.55.43,10.45,4.74.82,1.86,2.13,2.7,3.61,3.88,1.58,1.27,2.99,1.95,4.85,2.72,1.5.62,2.69,3.16,5.33,2.57l3.7-11.08,2.68-5.21c1.5-2.92,1.51-6.55,2.81-9.54.86-1.97,1.82-3.77,1.08-5.78,2.9-2.22,3.35-4.74,4.18-6.63.62-1.43,1.55-3.04,2.37-4.49l2.21-3.94,1.74-4.9c.66-1.87,1.4-3.41,2.3-5.17l5.5-10.81c1.47-2.88,2.38-5.77,2.24-8.98l-1.73.09c-.29.02-.7-1.16-.44-1.28l1.43-.67c1.77-.83,2.88-.29,3.91.87,9.12,1.14,6.3-1.39,12.76-1.24,1.93.04,4.09-.14,5.95-.38,2.93,2.54,7.07,2.58,10-.32l3.71-.28c3-.23-.3-1.77-.07-7.31.09-2.27,4.74-3.24,5.47-1.37l2.63,6.76c.59,1.5,1.71,2.63,2.55,4.01.93,1.53,1.6,4.13,2.36,5.74,1.18,2.53-1.14,3.1-2.32,4.52-1.31,1.57-1.36,4.73-1.51,6.89l1.24,3.38c-1.21,2.76-1.24,5.37-1.71,8.24-.26,1.59-1.24,3.34-1.17,5.11.1,2.59-.34,4.87-.4,7.38l-.18,8.69c-.06,3.04-.28,5.81.18,8.89.28,1.9-.58,3.82-.65,5.52l-.35,8.27-.14,3.43-.32,7.78c-.12,2.97-.29,6.31-.1,9.21.04.59-.57,1.69-.87,2.24l1.87,4.44c-2.38,3.22-.43,6.47-1.48,9.21l-1.46,3.83c-1.25,3.26.81,7.27.37,9.17-.51,2.22-1.07,3.93-1.14,6.18l-.13,4.1c-.05,1.63,0,3.51-.15,5.05l-.57,5.62-.51,10.2-.03,5.95.04,5.06.32,7.31-.64,6.99c-.19,2.13,1.23,9.85,2.17,12.27.58,1.5,1.26,2.36.68,4.04-.52,1.51.09,2.85,1.16,3.97l.48,4.99.36,4.67.85,8.81c.19,1.98,1.18,4.38.98,6.3-.19,1.84-1.32,3.76-.22,5.26,1.76,2.43,3.29,5.85,2.74,8.58-.07.33-.21.65-.41.95,5.15-.05,10.29-.13,15.4-.14,13.61-.02,13.58,21.1,0,21.11ZM168.66,134.99l2.55-1.91,2.54,2.57c-.6.59-2.08,1.16-2.85,1.15-1.04-.02-2.67-1.14-2.23-1.8ZM346.31,18.28l-1.63-1.42c-.77-.67-2.5-.65-2.55-1.54-.08-1.35.3-2.22,1.46-2.85.85-.46,1.78-.55,2.75-.55h1.3c1.61,0-2.05,2.92-1.22,2.97l1.9,2.58c.13.47-1.62,1.17-2.02.82Z"/>
  <path d="M338.36,187.43l2.14-6.83c-.05-.42-.31-1.43-.64-1.29-.25.1-1.09.64-1.12.92l-.37,4.45c-.08.99-1.56,1.91,0,2.75Z"/>
  <path class="cls-1" d="M338.36,187.43c-1.55-.84-.08-1.76,0-2.75l.37-4.45c.02-.27.86-.81,1.12-.92.34-.14.6.88.64,1.29l-2.14,6.83Z"/>
  <path class="cls-1" d="M232.3,165.29l-1.46-3.88c-.62-1.64-1.62-3.68-1.82-5.35l-.61-5.11c-.19-1.63-.84-2.99-1.48-4.43l-1.71-3.85c-2.68-6.03-3.81-7.3-6.37-12.63-.63-1.32-.98-2.53-1.81-3.65l-4.16-5.6c-2.66-3.59-2.59-3.48-4.47-7.7-.78-1.74,1.72-7.89,2.27-8.87,1.1-1.97,2.42-3.55,3.11-5.64.74-2.25,1.88-4.25,2.77-6.38l3.02-7.22c2.16-5.15,3.6-6.95,5.45-12.03.48-1.31.95-2.3,1.72-3.42l2.43-3.56,3.42-5.4,4.18-5.92c1.92-2.72,2.89-5.44,5-8.17l.15,3.07.1,3.93c.18,7-.81,14.71-.66,17.79.44,8.9-.14,10.1.06,18.04.13,5.14-.51,5.6-.1,10.13.21,2.26.12,4.25.01,6.5l-.4,8.09.06,8.98c.02,2.64-.25,4.92-.11,7.53.1,1.9-.62,4.26-.62,6.27v15.33c0,1.81-.71,4.28-.54,5.82.22,1.97.55,3.62.5,5.55l-.28,10.73-.28,8.82c-1.24-.71-.29-2.69-.71-3.46-.85-1.55-1.63-3.08-2.36-4.61l-2.23-4.66c-.71-1.48-1.4-3.23-2.08-5.02Z"/>
  <g>
    <path d="M215.84,181.48l2.06,6.43c.66,2.05.73,4.43,1.46,6.39l1.39,3.72c.96,2.58,2.04,4.61,2.05,7.62,0,.85,1.04,2.28,1.28,3.13.49,1.73,1.15,3.87,2.14,5.84l1.2,4.33c.51,1.84.72,3.94,1.14,5.87l.92,4.18c.32,1.45.81,2.58.34,4.09-1.01,3.25,3,3.14.46,7.78-.26.47.22,1.75.67,1.93,1.17.48,2.55-2.1,2.69-.74.02.17.06.85.04,1.09l-.48,5.42-2.29.98c-.76,1.97-1.05,4.67.26,6.65l4.34.3.7.7c11.11,1,22.35.99,33.54.87.2-.31.34-.62.41-.95.55-2.73-.98-6.15-2.74-8.58-1.09-1.51.03-3.43.22-5.26.2-1.92-.79-4.32-.98-6.3l-.85-8.81-.36-4.67-.48-4.99c-1.07-1.13-1.68-2.47-1.16-3.97.58-1.68-.09-2.53-.68-4.04-.94-2.41-2.37-10.14-2.17-12.27l.64-6.99-.32-7.31-.04-5.06.03-5.95.51-10.2.57-5.62c.16-1.54.1-3.42.15-5.05l.13-4.1c.07-2.25.64-3.96,1.14-6.18.43-1.9-1.62-5.91-.37-9.17l1.46-3.83c1.05-2.74-.9-5.99,1.48-9.21l-1.87-4.44c.3-.55.91-1.65.87-2.24-.18-2.9-.02-6.25.1-9.21l.32-7.78.14-3.43.35-8.27c.07-1.7.94-3.62.65-5.52-.46-3.07-.25-5.85-.18-8.89l.18-8.69c.05-2.5.49-4.79.4-7.38-.07-1.78.91-3.52,1.17-5.11.47-2.88.49-5.48,1.71-8.24l-1.24-3.38c.16-2.16.2-5.32,1.51-6.89,1.18-1.42,3.5-1.99,2.32-4.52-.76-1.62-1.43-4.21-2.36-5.74-.84-1.38-1.96-2.5-2.55-4.01l-2.63-6.76c-.73-1.87-5.37-.9-5.47,1.37-.23,5.54,3.07,7.08.07,7.31l-3.71.28c-2.92,2.89-7.06,2.85-10,.32-1.86.23-4.02.42-5.95.38-6.46-.15-3.64,2.38-12.76,1.24-1.03-1.16-2.14-1.7-3.91-.87l-1.43.67c-.26.12.15,1.3.44,1.28l1.73-.09c.14,3.21-.77,6.1-2.24,8.98l-5.5,10.81c-.89,1.76-1.63,3.3-2.3,5.17l-1.74,4.9-2.21,3.94c-.82,1.46-1.75,3.07-2.37,4.49-.83,1.89-1.28,4.42-4.18,6.63.75,2.01-.22,3.81-1.08,5.78-1.3,2.99-1.31,6.62-2.81,9.54l-2.68,5.21-3.7,11.08c-2.64.59-3.83-1.95-5.33-2.57-1.86-.77-3.27-1.45-4.85-2.72-1.48-1.18-2.78-2.02-3.61-3.88-1.9-4.32-7.88-4.2-10.45-4.74-3.83-.81-6.71-.51-10.35.61-3.66,1.13-6.3,3.08-9.4,5.46-1.66,1.28-5.6,2.42-9.51,3.82-2.36,1.73-4.68,3.52-6.9,5.43-.68.59-1.42,1.09-2.19,1.51-.23,1.06-.2,2.13.25,2.91.38.66,1.41,1.36,2.46,1.69,7.74-5.5,16.88-5.93,26.1-8.07,4.23-.99,7.68.43,9.99,2.91,4.91,1.64,8.22,5.2,10.95,10.02,1.19,2.1,4.21,3.98,4.22,7.11,0,2.93-1.56,6.44-2.41,9.61-.76,2.84-1.95,5.15-3.54,7.62-1.1,1.7-.77,4.25-1.35,6.14-2.22,7.32-3.07,5.56-4.05,10.27l-.94,4.55-1.74,3.53-1.49,6.48-.96,3.68-.9,3.15c-.58,2.02-1.12,3.64-1.94,5.72-.34,1.26.55,3.81.25,5.29-1.08,5.37-1.87,10.35-2.13,15.75-.09,1.84-.83,4.12-.75,5.94.11,2.31-.03,4.07-.37,6.32l-1.33,8.94c-.89,6,1.23.47.34,10.55-.14,1.56-.25,3.23.14,4.66,1.12,4.09-.46,7.69-4.54,8.97-.99,1.38-2.2,3.29-2.67,5.05-.38,1.41.91,4.11,2.04,4.79.25.15.53.29.81.42,3.69-1.12,7.6-1.54,11.77-1.38,3.49.14,7.8.88,11.74,1.34.28-.3.57-.64.9-1.07.93-1.23,1.49-2.07,1.54-3.66.1-2.86-.95-5.26-3.55-6.7l-1.92-3.12.58-10.17.37-5.55c.22-3.34,1.8-6.55,1.9-9.81.2-6.63,1.85-12.82,2.92-19.35l.83-5.12.45-3.94c.34-2.99,1.66-5.55,2.32-8.03.75-2.79,1.32-5.28,2.23-7.96,2.08-6.09.19-7,3.98-11.43-.47-1.55,0-6.38,2.38-6.3l-.51-3.29c.8-3.2,1.84-5.87,3.43-9.09,1.71,2.03,2.4,4.02,3.33,6.26l2.32,5.57,1.34,3.2c.26.49,1.85.77,1.78,1.31l-.29,2.22c.14.19,1.08.54,1.06.93l-.08,1.49,1.56,3.07c1.15,2.27,1.54,4.69,2.37,6.91,1.34,3.59,2.5,6.87,3.74,10.74ZM218.73,158.23c-1.58-.57-2.76-1.82-3.41-3.83-.22-.68.99-1.43,1.66-1.49,1.55-.14,1.46,1.19,1.77,2.34.99,3.62,1.8,6.94,2.11,10.71-2.17-2.17-2.7-4.97-2.13-7.74ZM236.82,219l-3.2-12.45-1.06-4.05c-1.2-4.58-2.6-8.88-3.46-13.4-2.08-1.72-1.31-4.73-2.21-6.84l-2.59-6.12c-.6-1.41-.93-2.91-.66-4.18,2.27.97,1.19,3.58,2.2,4.86,1.11,1.39,1.44,2.57,2.01,4.3.67,2.02,1.8,3.66,2.03,6.07.17,1.81.77,4.15,1.46,5.84l2.93,7.16c.9,2.2,1.22,4.44,1.64,6.77l1.08,5.95c.39,2.13,1.34,4.11-.16,6.09ZM210.68,104.2c1.1-1.97,2.42-3.55,3.11-5.64.74-2.25,1.88-4.25,2.77-6.38l3.02-7.22c2.16-5.15,3.6-6.95,5.45-12.03.48-1.31.95-2.3,1.72-3.42l2.43-3.56,3.42-5.4,4.18-5.92c1.92-2.72,2.89-5.44,5-8.17l.15,3.07.1,3.93c.18,7-.81,14.71-.66,17.79.44,8.9-.14,10.1.06,18.04.13,5.14-.51,5.6-.1,10.13.21,2.26.12,4.25.01,6.5l-.4,8.09.06,8.98c.02,2.64-.25,4.92-.11,7.53.1,1.9-.62,4.26-.62,6.27v15.33c0,1.81-.71,4.28-.54,5.82.22,1.97.55,3.62.5,5.55l-.28,10.73-.28,8.82c-1.24-.71-.29-2.69-.71-3.46-.85-1.55-1.63-3.08-2.36-4.61l-2.23-4.66c-.71-1.48-1.4-3.23-2.08-5.02l-1.46-3.88c-.62-1.64-1.62-3.68-1.82-5.35l-.61-5.11c-.19-1.63-.84-2.99-1.48-4.43l-1.71-3.85c-2.68-6.03-3.81-7.3-6.37-12.63-.63-1.32-.98-2.53-1.81-3.65l-4.16-5.6c-2.66-3.59-2.59-3.48-4.47-7.7-.78-1.74,1.72-7.89,2.27-8.87ZM209.55,138.91l-1.72-4.42c-.46-1.19-1.17-1.87-2.26-2.86-.59-.87-1.09-2.6-1.56-4.37.69.21,2.06.76,2.46,1.31l3.26,4.57c1.58,2.21,2,4.5,2.97,7.01l1.66,4.28,1.82,4.25c.11.27-.1,1.58-.36,1.53-.34-.07-.89-.39-1.09-.7l-3.05-4.7c-.94-1.45-1.41-4.03-2.14-5.89Z"/>
    <path class="cls-1" d="M236.98,212.9c.39,2.13,1.34,4.11-.16,6.09l-3.2-12.45-1.06-4.05c-1.2-4.58-2.6-8.88-3.46-13.4-2.08-1.72-1.31-4.73-2.21-6.84l-2.59-6.12c-.6-1.41-.93-2.91-.66-4.18,2.27.97,1.19,3.58,2.2,4.86,1.11,1.39,1.44,2.57,2.01,4.3.67,2.02,1.8,3.66,2.03,6.07.17,1.81.77,4.15,1.46,5.84l2.93,7.16c.9,2.2,1.22,4.44,1.64,6.77l1.08,5.95Z"/>
    <path class="cls-1" d="M216.18,148.68c.11.27-.1,1.58-.36,1.53-.34-.07-.89-.39-1.09-.7l-3.05-4.7c-.94-1.45-1.41-4.03-2.14-5.89l-1.72-4.42c-.46-1.19-1.17-1.87-2.26-2.86-.59-.87-1.09-2.6-1.56-4.37.69.21,2.06.76,2.46,1.31l3.26,4.57c1.58,2.21,2,4.5,2.97,7.01l1.66,4.28,1.82,4.25Z"/>
    <path class="cls-1" d="M220.87,165.96c-2.17-2.17-2.7-4.97-2.13-7.74-1.58-.57-2.76-1.82-3.41-3.83-.22-.68.99-1.43,1.66-1.49,1.55-.14,1.46,1.19,1.77,2.34.99,3.62,1.8,6.94,2.11,10.71Z"/>
  </g>
</svg>