<?xml version="1.0" encoding="UTF-8"?>
<svg id="Layer_2" data-name="Layer 2" xmlns="http://www.w3.org/2000/svg" viewBox="0 0 432 288">
  <defs>
    <style>
      .cls-1 {
        fill: #fff;
      }
    </style>
  </defs>
  <path class="cls-1" d="M-.09,288V0h432v288H-.09ZM223.03,15.12c.42,0,.97-.61,1.09-.96.96-2.61-4.68-2.15-6.19-1.99s-2.58,1.26-2.42,2.33c.06.39.6.78,1.09,1.04,1.53.82,1.78-.53,6.43-.42ZM237.47,40.16c-1.03-.77-2-.9-2.85.09-.49.58-1.04,1.46-1.28,2.1l.8,1.63-3.4.81c-.69.16-1.49.5-2.22.75-.5-.63-1.47-1.61-2.26-1.29-2.68,1.09-4.99,1.68-4.92,4.55,1.06,1,2.39-.01,3.6-.03,1.3-.03,2.76,2.28,1.89,3.27-1.08,1.22-3.31.37-4.32-.29-2.38-1.55-1.61,2.05-7.02,1.18l2.38-2.63c.12-.14.4-.56.25-.64-.11-.06-.55-.21-.69-.2-2.45.24-1.78-1.81-3.61-2.93,1.46-1.8,3.27-.94,5.15-4,.69-.14,1.47.08,2.12.46.58.34,1.43.1,2.15.08.84-.02,1.94.42,2.7-.34.83-.83-.17-2.02.97-3.11.19-.18.98-.17,1.04.12.15.73-.03,2-.16,2.98.48.04,1.34-.14,1.57-.47.74-1.08.06-2.66.48-2.84,1.18-.5,3.12-.86,4.68-.76,1.09.07,2.44-.37,2.39-1.71-.03-.93-1.64-2.06-2.41-1.48-.81.61-1.36.86-2.4.83-1.32-.04-2.78,0-3.73-1.15-.54-.66-.17-2.14-.39-2.9-.37-1.28-1.79-.76-2.55-.31-1.16.68-2.86.02-3.58-.83,1.41-2.17-.18,1.43,5.24-1.33,1.02-.52,2.24-.1,3.31-.13,3.85-.11,5.71-1.67,9.17-1.77,1.19-.03,3.26-.33,3.03-1.94-.16-1.12-2.05-.63-2.84-.58-1.57.1-3.11.16-4.61.48s-2.77.47-4.3.2l-.15-2c.86-.83,2.68-.79,2.59-1.59-.03-.26-.29-.74-.48-1.01-.45-.66-.45-1.29.2-1.75.41-.3,1.1.06,1.41.59l1.16,1.95,1.33-.79c.78.36,4.51.8,4.16-.18-.32-.9-.64-.21-2.7-1.54s-.49.09-3.86-2.14c-.64-.43-1.31-.3-1.76.38-1.15,1.72-3.1.81-3.3,3.64-.03.36-.55,1.23-.9,1.23l-2.78-.02c-3.92-1.99-2.33.76-7.34-.61-.34-.09-.93-.09-1.03-.31-.08-.17-.22-.55-.3-.82l-.76-2.41c-.33-.37-1.95.07-2.06.63-1.2,6.03,3.91,2.98.5,6.41-.79.95,1.98,4.07.68,3.84l-.71-.13c-3.33-.59-3.09.6-6.82,1.13-.89.13-1.94.31-2.82.58-.54.17-.66,1.52-.51,2.03s1.07,1.42,1.55,1.2l4.55-2.28c1.24-.62,4.99-2.01,5.42-.71-1.01.35-2.38.69-2.34,1.92.04,1.14.24,2.48.52,3.64.23.94,1.84.97,2.48.61,1-.56,1.65-.14,2.4.44l2.4,1.88-2.07,1.31c-2.34,2.3-3.66.46-8.02,3.73-.34.25-1.27.67-1.7.68l-3.07.13-3.83.32c-1.32.11-1.26,4.12.11,4.53,1.05.32,2,.08,2.98-.3.16.19.36.93.24,1.19-.09.22-.41.51-.69.7-1.55,1.02-2.46-.22-4.99.29-.72.57-.81,2.18-.13,2.96.94,1.08,3.48-1.28,5.59-.91,1.15.2,1.85.43,2.79-.23,1.25-.87,2.51.3,3.58.74.91.37,1.53.53,1.98,1.63,3.79.18,2.73.15,5.99-.89,2.89.24,8-.72,10.18-2.62,4.11-1.46,2.57-.04,5.39-2.49l2.06-1.78c.75-.65,1.61-1.12,1.66-2.36l-2.51-.62c-.53-.15-.69-1.91-.17-2.04l2.61-.37c.51-.07,1.18-.41,1.23-.81.2-1.67-1.67-1.24-3.3-2.46ZM147.56,23.48c.85-.45,1.21-.87,1.01-1.12l-.8-1.04c-.33.72-.42,1.32-.21,2.16ZM215.87,41.34c.17-.16.25-.85.06-1-2.07-1.61-2.58-.64-3.41-.9-1.13-.35-1.88-1.3-3.35-.64-.6.27-1.99.64-1.69,1.7.48,1.71,2.43,2.66,4.11,2.35,1.1-.2,2.07-.34,3.17-.47l1.1-1.05ZM249.18,44.16c2.11.29,1.41-2.58,4.23-2.99.4-.06.4-1.46-.07-1.44-1.08.05-1.97.5-2.99.84-.88.3-1.97.91-2.14,1.93-.08.47.52,1.59.96,1.66ZM193.87,49.32c1.56-1.99,5.35-2.11,4.87-3.62-.42-1.31-1.69-.73-2.75-1.09l2.18-.33c.49-.68,1.78-3.15.58-3.41-1-.21-4.25.8-5.52,1.34-.36,1.3,1.42,2.71.47,3.03-.88.3-1.77.54-2.43,1.05-.57.44-.38,1.89.1,2.42.43.47,1.9.89,2.49.6ZM246.63,54.11c-.6-.79-1.34-1.07-2.35-.94l-3.84.49c-.97.12-.66,2.05-.2,2.64.66.83,1.78,1.22,2.84.47,2.37-1.69,5.33-.28,3.55-2.66ZM228.04,71.44l2.33.6,3.42-1.93c1.27-.72,4.66-2.6,4.24-4.32-.55-2.26-3.37-3.23-1.61-4.43l3.64-2.47c.23-.16.52-.7.45-.93s-.69-.4-.92-.33c-2.41.69-2.6-1.6-4.54-.42-.36.22-1.22.2-1.37-.12-.26-.58-.63-1.29-1.05-1.38-1.35-.32-4,1.8-5.28,2.63-.83.54-1.96.26-2.03,1.55s.62,1.33,1.72,1.86l4.04,1.92c.79.37,2.19.8,1.6,2.09-.52,1.14-2.71-.93-3.63-.64l-3.86,1.22c-.75.24-1.42.54-2.23.94-.44.22-.59,1.35-.44,1.89.11.41.61.88,1.09,1.23,1.92,1.42,2.12-1.35,4.39-1.07l.04,2.11ZM203.58,70.93c-.03-.5-.75-.96-1.37-.92-1.35.1-.15,1.43-3.42,1.79-.22-1.32.68-2.08,1.65-2.77l-.43-1.23c-.18-.52.9-1.34,1.49-1.45,3.55-.62,4.66.92,5.67,0,.63-.57-.05-2.33-.85-3.07-.4-.37-.67-.62-.85-.84s.05-1.12.32-1.19c1.3-.32,3.02.59,3.21,2.16.04.33.6.96.92.94,1.6-.12-.51-.72,3.22-1.06l2.77-.25,2.02-2.64c.05-.49-.88-.15-1.21-.18l-3.52-.33c.77-.81,1.32-1.91.55-2.49-2.11.8-3.48.16-4.57.54-1.01.35-2.02.69-2.93.02-.63-.47-1.59-1.3-2.32-1l-1.93.81c-1.59.67-3.37.75-4.96.44-.02-.68-.09-1.31-.36-1.54-1.62-1.4-3.71,1.7-4.27,1.41-.71-.37-.42-1.88-1.63-1.93-1-.03-1.85.45-2.71.79-1.14.46-2.43.71-2.36,2.57l2.76-.14c.61-.03.75,1.31.52,1.85-1.09,2.65-3.64,2.06-2.33,4.41.15.28.18.94.13,1.24-.27,1.96-1.95-1.57-4.19-.06-.92.62-1.2,1.88-.66,3.01.39.84,1,1.85,1.65,2.11.81.33,2.48.56,2.79-.12,1.42-3.08,2.02-1.09,5.89-2.71.31.17.55,1.11.36,1.43-.89,1.49-3.48-.11-3.37,2.53.49.44,1.6.78,1.58,1.91-.72.72-3.13-.05-4,1.18-.93,1.3,1.66,2.47.52,4.41-.18.31-.24,1.18.03,1.39,1.82,1.49,4.08-.52,5.11-1.04,3.09-1.55,1.2-3.08,3.61-1.79l4.35,2.34c.25.14.83,0,.94-.2.42-.71-.11-1.89-1.03-2.3-1.49-.66-2.95-1.85-3.56-3.25,1.65-2.6,4.09-2.56,6.72-4.8ZM252.1,135.28c-.49.11-.93,1.09-.8,1.56.98,3.48,7.68-.26,9.8-1.23,3.25-1.5,3.7-1.78,5.93-4.24,1.1-1.22,2.33-2.8,2.24-4.63-.02-.37-.97-.9-1.28-.72-.76.46-.52,1.74-1.37,2.29s-2.15-1.13-3.78-.4c.6-.86,1.13-1.69,1.69-2.65.37-.63,1.23-1.23,1.68-1.82.91-1.22,1.81-1.96,3.13-2.73.92-.53.78-2.09,1.03-2.99s.42-1.51.18-2.36c-.16-.55-.03-1.75.44-1.94l1.99-.78c1.04-3.58-2.46-2.59-2.25-4.61.12-1.2-.21-2.38-1.4-2.62l-.98.93-1.57-.56c-.4.91-.93,1.83-1.46,2.18l-2.16-.95c-.67-.87,1.4-3.14.41-4.21-.24-.26-.83-.3-1.55-.44-.61-.94.73-3.69-1.56-4.38l-.36,2.79-1.43.95c-.69.45-1.67.7-2.34.38l-.54-1.79c-.83.37-1.33.85-1.11,1.61l1.27.46c.28.91.51,1.84.91,2.76.24.55,1.68.64,2.34.72.3.04.79.71.62.96-.66.97-1.05-.06-3.05.07-.41.03-1.02.01-1.17.26s-.36.71-.52,1.08c-.47,1.05-2.05,1.13-3.03.21l1.8-2c.67-.75.12-1.89.12-2.79,0-2.49.64-4.77,1.45-7.17.84-.64,2.05-1.25,3.05-1.77.36-.19.17-1.12-.09-1.39-.84-.89-2.28-.13-2.27-.75,0-.41.26-1.23.46-1.59l2.86-.06c1.82-2.6,1.2-2.13,4.6-3.12-.02-1.18-.23-3.68-1.26-4.17-.52-.25-1.72-.21-1.95.22-.47.88-.67,2.24-1.93,2.3-1.13-.39.45-2.76-.48-2.81-3.4-.19-3.49.18-6.21.12l-.9-1.69c-.18-.34.79-.9,1.17-.86,1.37.14,2.22-.65,3.27-1.3.98-.61,2.5-.8,3.12-1.95.27-.5-.01-1.82-.34-2.3-.94-1.38-2.5-.45-3.52,0-4.8,2.11-1.41,1.42-6.28,4.2l-.25-2.78c-.29-3.32-2.14-2.17-2.16-3.04-.02-1.13.08-2.15,1.11-2.59.47-.2,1.47-.07,1.57.49.13.69-.57,1.94.27,2.45s2.38.73,3.41.52,1.94-1.16,2.93-1.3c.76-.11,1.53-.17,2.03-.52.4-.28.82-1.41.49-1.85-.74-1-2.22-.66-3.08.09l-3.29.06.23-1.21c-.16-.99-.6-2.5.07-3.28.46-.54,1.71-.9,1.81-1.49.07-.4-.73-1.06-1.07-.96-1.4.41-.09.24-2.16.99-1.37.5,1.08-2.64.67-2.82-.73-.68-1.41.69-1.99.52-.49-.14-1.53-.58-1.96-.85-.92-.59-.04-2.05.87-2.42.45-.19.89-1.17.86-1.7-.01-.27-.53-.77-.8-.74-1.57.14-.8,2.03-3.2,2.5-1.11.22-2.69,1.48-2.03,2.69.3.56,1.13.81.81,1.81-.28.88.2,1.34.72,1.88,3.24,3.39,4.8.24,5.73,1.62.19.28.34,1.01.16,1.28-1,1.47-3.29-1.21-5.03,1.5l-.55-.64c-.1-.12.73-1.32.28-1.79-.82-.84-3.54,1-5.72,1.14-1.39,2.21-2.11.95-3.01,2.33-.19.3-.3,1.31.03,1.42l1.98.71c2.41.86,2.61-1.92,4.37-1.8.39.66.62,1.64.51,2.38-.17,1.15-2.58,1.23-4.74,1.71l-5.12,1.14c-.88,1.17-2.7.99-2.26,3.02.29,1.31-2.83,2.41-3.82,1.47-.47-.44-1.29-1.47-.81-2.2.71-1.08,1.5-2.12,1.6-3.37-.62-.86-1.85-.7-2.83-.59-1.14.13-2.76.05-3.42,1.19-.56.96.46,2.19,1.31,2.65,1.78.97-.64,2.76,1.29,4.5l2.27.26c-.09,1.36.14,2.76,1.48,2.9.95.1,1.88-1.15,1.9-1.99.03-1.31.88-1.27,1.69-1.77,1.14-.7,2.17-.93,3.49-1.18.98-.18,1.82-1.36,3.12-.56,1.14.71,1.48-2.53,2.4-3.05l2.23-1.24c1.29-.71,2.35-.54,4.06.16-1.29,1.57-3.08,1.68-2.15,3.23.39.64.47,1.5.1,2.14-.73,1.28-2.95.64-3.2,2.09-.1.58.14,1.21.52,1.65.64.75,1.25,1,2.28.64.34-.12.9.65.75,1.02-.86,2.23-3.51.58-3.1,3.3.09.56.45,1.35.96,1.52,1.34.43,2.03-.54,2.93-1.05,1.49-.87,2.91-1.59,3.98-3.02.45-.6,1.59-1.1,2.34-.78l1.7,3.73c-.73,1.35-1.7,2.66-2.89,3.47l-2.44,1.66c-.69.47-1.66.69-2.36,1.32-.39.35.55,3.37.83,3.87.36.65.71,1.66.34,2.14-.29.06-1.06.03-1.21-.16s-.34-.63-.39-.93l-.59-3.55c-.42-.12-1.19-.12-1.64-.02-.62,4.28-6.32,2.6-3.85,6.93.78,1.36,1.98,1.53,3.22,2.23,1.32.74,2.45,1.93,4.1,2.1,2.04.21,3.71.28,5.67-.43.19-.07,2.86-.77,2.94.25.02.27-.29.78-.54,1-2.06,1.83-3.77.2-7.03,2.52-.88.63.2,2.49.96,2.67,1.95.47-.63,1.3-.59,2.23.04.81,1.05,2.93,1.86,3.23.88.32,1.68.13,2.51.05,1.04-.1,1.83-.03,2.45-1,1.08-1.66,2.86-.13,5.36-.16l.77,2.09c.81,2.22-1.09.12-2.29,1.93-.37.56-.91,1.12-1.41,1.16-1.63.1-2.03-1.28-2.76-.66-.64.53.49,1.75-1.2,2.55-.5.24-1.21.76-1.4,1.2.52,1.86-.25,4.13.76,4.6,1.55.73,1.87-1.15,3.42-.33.53.28.99.93.73,1.68-3.26-.16-2.16-.81-5.56-.02ZM221.61,71.41c-.08-1.08-3.15-.05-3.44-1.81.36-.79,1.04-2.15.61-2.91-.14-.24-1.06-.29-1.27-.09-1.18,1.17-3.07,2.16-4.74,2.47-.96.18-.83,1.71-.55,2.33.99,2.18,3.38-.02,6.17,1.7,1.97-1.07,3.3-.55,3.21-1.68ZM206.87,80.25l2.98-2.17c.25-.18.23-1.05-.02-1.21-.83-.56-4.08-.63-5.65.87-.48.45.45,2.35,1.15,2.73.34.19,1.14.08,1.54-.21ZM174.91,84.95c1.2,1.31,3.75.75,4.3-.72.94-2.51,1.88-2.76,1-3.64-.28-.28-1.2-.62-1.58-.46l-2.4,1.01c-.99.41-2.06.94-2.18,2.11.16.42.5,1.33.85,1.71ZM179.32,90.73c2.45-.72,1.87-1.93,4.44-1.32.74,4.44-1.4,2.53-1.01,6.83-1.04.43-1.78,2.95-1.78,3.68,0,.91,2.25,2.86,4.03,2.69l2.39,2.11c.47.42,1.27,1.27,1.96,1.05,3.21-.99,2.86-3.86,4.75-5.96.72-.8,1.57-.7,2.58-.6.53.05,1.43-.57,1.96-.85,1.05-.54,1.71-1.27,1.08-2.48-.23-.45-.31-1.41-.22-1.78,1.13.37,4.25,0,4.25-1.03,0-.33-.69-.91-1.04-.85-2.13.37-2.72,1.74-3.55.83-.16-.17-.21-.8-.02-.93l1.52-.95-.09-3.76c-.06-2.74.61-.68,2.05-3.85-.66-.4-1.96-.44-2.33-.05.07,2.22-3.05.85-3.91,3.13-.65,1.73,1.62,2,2.35,2.79.16.17-.11.99-.35,1l-2.49.09c-.68.02-1.35.77-1.21,1.28.25.94.35,1.38.54,2.32-1.28-.03-1.95-.16-3.04-.43l-1.62-.16c.67-.6,1.1-1.2,1.02-1.96-.04-.47-.68-1.04-1.04-1.52-.82-1.11-1.4-1.86-2.57-3.1l3.32-.75c.67-.15,1.39-1.24,1.08-1.79l-4.23-.6c-.46-.07-1.43.47-1.41.91l.08,1.94c-.4.29-.87-.75-1.23-.92-.7-.33-1.33-.63-2-1.03-.76-.46-2.38-.16-2.94.6-1.79,2.48-3.17.48-3.48,2.98-.2,1.63,2.6,2.22.47,2.71l-3.52.8c-.39.21-.43,1.39-.2,1.77.46.74,2.1,1.48,3.81.45,2.4-1.44.66-2.01,1.55-3.27ZM233.57,95.07l2.4-1.92c.86-.69,1-2.64-.04-3.09-.82-.36-1.69.59-2.35.94-.75.39-2,.7-2.32,1.49-.56,1.38.94,2.7,2.3,2.58ZM267.52,93.18c.07-.15-.12-.65-.27-.72l-2.09-.98c-.88-.41-1.84-.44-2.52.12s-1.09,1.4-.65,2.39l1.95.83c1.96-1.21,3.04-.54,3.59-1.64ZM174.97,100.96l4.06-.64,1.38-2.08c.28-.43.61-1.69.19-1.99-.47-.33-1.19-.88-1.61-1.03-1.57-.57-3.74.21-4.64,1.49.3,2.38-1.88,2.33-1.36,3.18.34.55,1.45,1.16,1.99,1.08ZM191.44,107.78c-.79-1.01-2.51.88-3.04.44l-.76-.64c-.22-.18-.71-.55-.96-.5s-.58.57-.7.82l-1.05,2.18-.66-.48c-.11-.41-.27-.99-.51-1.09-1.12-.5-1.84.51-3.13.17-.92-.99-2.06-1.5-3.37-1.78-.44-.09-1.17-.54-1.6-.69-1.83-.63-1.94,2.16-2.7,2.09-.62-.05-.5-1.74-1.55-2.13-.54-.2-1.51-.12-1.81.2-1.6,1.7-2.85,2.12-2.78,3.2.04.65,1.05,1.84,1.62,1.82.23,0,.63-.27.91-.41l2.91-1.46c2.13-1.07,3.43,1,5.9-.87l2.27.71c-.62,1.5.25,2.82,1.5,3.11.48-.47,1.13-1.09,1.73-1.28.47-.15,1.47.33,1.8.72l1.27,1.5,2.42-2.24c-.12-1.1.24-1.7,1.29-1.92.48-.1,1.45-.88,1-1.45ZM172.54,113.73c-.19-.27-.71-.58-1.07-.74-1.74-.79-3.48-.52-4.54,1.28l2.16,1.69c.55-.63,4.36-.92,3.46-2.23ZM175.24,116.73c.52,1.04.98,1.67,1.91,1.8.66.1,2.06-.08,2.25-.75.88-3.06,3.19-2.67,3.03-4.34-.02-.27-.67-.71-.93-.57-.85.47-2.21,1.01-3.19,1.32l-2.76.89c-.64.21-.63,1.02-.32,1.65ZM190,117.02l-1.48-.71c-1.25-.6-2.24-1.02-3.74-.86l-1.89-.55c-.6.14-1.26.95-1.37,1.47-.13.6,0,1.74.5,2.09.83.57,1.76.27,2.65.17,2.09-.22,4.67.47,5.34-1.62ZM172.09,122.99l-1.3-2.28c-.18-.31-.21-1.37.11-1.52l1.15-.52c.26-.12.01-.94-.24-1.07l-.91-.44c-1.04-.5-1.91-.68-2.89-.04-.42.06-1.05-.67-1.39-1.08-1.57-.19-4.39,1.1-4.45,2.95-.05,1.64,2.49,1.94,3.59,1.37.32-.16,1.04-.05,1.24.16.6.63-.86,1.45-.26,2.78,1.05.09,2.21.02,3.24-.09l2.11-.22ZM194.03,121.52c2.04-1.56,4.64-.78,4.56-2.1-.09-1.57-2.65-1.27-4.09-.77-1.32.45-2.85-.35-3.9,1.01-.37.48-.78,1.59-.31,2.05,1.06,1.05,2.72.58,3.73-.19ZM272.01,133.39c2.07.38,3.34-.94,3.7-2.69.52-2.52-.48-.49-.74-5.19l-.11-1.97-.09-2.79c0-.29-.54-.8-.81-.8s-.76.55-.79.83c-.15,1.6.3,3.01.98,4.44.53,1.13-.34,3.36-.78,4.06-.31.49-3.7.13-3.83,2.5-.07,1.19,1.29,1.98,2.48,1.61ZM181.71,127.52c.24-.08.42-1,.18-1.08-1.63-.5-1.25.12-1.93-.67.42-.43,1.02-.82,1.43-1.09l.34-2.55c.04-.3-.02-.86-.19-1.03-.8-.77-3.12.35-4.33.58-.39.39-.72,1.48-.94,1.97-.87.74-1.29,1.68-.77,2.82.4.89.71,1.72,1.67,2.2.38.19.9.45,1.19.37.25-.06.69-.58.95-.67l2.4-.85ZM185.2,124.93l2.81-1.54c.34-.19.52-1.13.37-1.48-.12-.31-.75-.71-1.08-.67-2.97.41-3.32-.2-4.12,1.34-.28.54-.04,1.07.42,1.79.34.54,1,.88,1.59.56ZM197.9,124.79c.22-.07.57-.77.4-.83l-.61-.23-1.78-.67c-.52-.2-1.74-.36-2.31-.34l-2.57.87c-.53.18-.5,1.59-.19,2.01s1.25,1.09,1.95.86l5.12-1.68ZM188.6,129.62c.17-.12.46-.71.37-.88s-.22-.32-.55-.73c-.44.49-.99,1.15-1.16,1.56-.07.17.45.68.6.57l.74-.52ZM184.26,136.1c.31.21,1.06.25,1.23.02.68-.89-.08-2.07,1.24-2.97l2.13.55c.96-.59,1.94-1.17,2.93-1.43l1.22-.32c-1.05-1.66.41-2.83-.58-3.25-.85-.36-2.5-.01-2.76.56-.42.93.16.84-.13,2.22-.13.62-2.64-.07-3.3-.37-2.08-.93-1.07,1.4-3.29,1.31l-1.59-.06c-1.58-.06-.89.54-3.76,1.61-.39.15-.57,1.2-.26,1.53,3.2,3.43,4.03-1.31,6.92.6ZM175.81,133.4c.53-2.75-5.43-3.01-6.16-1.58-.25.48-.09,1.15.23,1.78s1.46,1.05,2.25.83l3.67-1.03ZM262.76,141.34c-.34.39-.22,1.5.14,1.93.69.83,2.06.63,2.83,1.33.51.47-.17,2.77.48,3.65,1.43.73,3.04.27,4.52.16,1.39-.1,2.29-.41,3.19-1.53,1.36-1.68,2.13-.67,3.77-3.88.28-.55,1.22-1.49,1.16-2.06l-.29-2.93c-.11-1.11-.44-2.26-.39-3.38.03-.8-.13-1.18-.93-1.36-.4-.09-1.07.53-.93,1.04l1.39,4.9c.19.67.34,1.62-.26,1.99-.67.42-1.55.13-1.96-.56-.65-1.1-1.77-.4-1.82-1.75-.03-.74-.53-1.96-1.21-2.02l-2.09.77c-1.38.51-1.78,1.96-2.21,3.35-.6-.54-.96-1.13-1.37-1.77-.31-.48-1.82-.44-2.19,0l-1.81,2.09ZM169.27,136.17c.14-.12-.2-.6-.34-.76l-1.25-1.47c-.41-.48-1.86-.37-2.32.09-2.01,2.02-3.03,1.28-3.06,2.65,0,.36.46,1,.82,1.19,1.8.99,4.94-.64,6.15-1.7ZM192.37,139.08c1.05.18,1.94-.1,2.24-1.19l.56-2.11c.1-.36.15-.84-.04-1.04-.64-.67-1.6.66-3.58,1.33-.4.13-.92.39-.94.67-.06.88.48,2.12.67,2.15l1.08.19ZM171.31,141.94c1.07-.8,1.93-1.33,3.36-1.76l-1.12-1.79c.39-.74,1.74,0,2.19-1.61.1-.35.17-.9-.05-1.05-.72-.49-3.41-1.07-4.39.03l-.51,2.35-5.28.72c-.6.08-1.21.69-1.41,1.15-.2.49-.14,1.29.29,1.67.65.58,2,.64,2.58.15.37-.31.7-.63.96-.71.94-.3,1.66,2.13,3.37.84ZM186.18,142.89c.82.61,1.81-.38,2.36-.97,1.2-1.28,1.76-.19,2.31-2.34-1.8-.41-1.35-1.43-2.52-1.39-.37.01-.93.54-1.29.75-2.74,1.53-2.47,2.53-3.62,1.71-2.08-1.48-2.46.03-4.54-1.4l.1,1.51c-.07.62-.1,1.16.11,1.67.85,2.07,3.94-1.87,7.1.47ZM180.65,146.16c.12-.08.73-.04.81.09l1.1,1.7c.94.62,2.53.17,2.94-.91-.22-.59-1.03-1.53-1.59-1.82l-1.94-.03c-.37-1.21-1.96-.86-2.61-1.44-.82-.74-3.4-3-4.39-2.55-1.23,1.69-2.04.94-2.48,1.9-.59,1.29.95,1.18-.69,2.53-.45.37-1.13,1.32-.82,1.82.66,1.07,1.89,1.08,2.87,1.59.36.18.8.81,1.14.95,1.16.45,1.37-1.06,4.26-1.78,1.35-.34.68-1.58,1.39-2.05ZM258.71,145.6l-.04-2.21c-1.54-.35-2.87-.63-4.27-.72-1.58,1.23-2.68.83-3.1,2.23-.14.45.19,1.69.65,1.71,2.42.12,4.4-.4,6.75-1.01ZM190.77,147.33c.61.13,1.47-.74,1.93-.96.81-.39,1.68-.78,1.92-1.72.1-.39-.94-.74-1.33-.66-2.35.51-4.15-.26-4.67,1.98.56.43,1.28,1.16,2.15,1.35ZM279.38,148.51c.95-1.05.83-2.64-.07-3.46-.24-.22-1.09-.5-1.19-.23-.36.96-.68,3.35,1.26,3.69ZM257.7,176.49c.23-.11,1.04.09,1.29.13.24.03.62-.61.49-.81-.11-.16-.28-.4-.5-.69-.41-.54-.35-1.28.2-1.78.37-.34,1.1-.18,1.7-.13,1.36.11,2.33.15,2.69,1.94,1.2-.6,2.23-2.64,1.37-2.91-1.22-.38-1.27.69-2.93.07-.44-.17-1.14-1.11-.89-1.55l2.09-1.41c.25-.17.64-.69.9-.63,1.13.27.34.45,1.67.74.36.08.56-2.81.87-4.08l.97-4c.92.33,1.87.98,2.63,1.62.99-1.73,2.58-1.58,3.45-2.5,3.06-3.21,2.55-1.28,4.9-4.23-.24-3.53,1.22-2.64,1.77-5.99.03-.2-.11-.93-.3-.92l-.89.05c-1.4.07-1.78-1.55-2.81-1.35-1.13.22.13,2.6,1.08,3.4-1.29,1.86-2.02.34-4.14,3.08l.3,2.25c-1.69.04-1.2-2.25-3.14-1.82-.22.05-.77.12-.74-.04l.11-.57c.13-.69.17-1.16-.3-1.63-.3-.29-1.35-.36-1.38.08-.14,1.86-.54,4.74-2.78,5.02-1.03.13-1.74.5-2.71.93-.9.41-2.2.76-3.17,1.14-.22.42.16,1.22.35,1.62l.64,1.37c.78.48,1.49,1.41,1.33,2.48s-1.97.43-2.94,2.33-2.16.61-1.46,3.75c.17.76.22,1.82-.34,2.32-.69.62-2,1.4-1.89,2.31.15,1.22,1.77.76,2.5.41ZM165.44,170.43c.43,1.7,3.36,2.22,5.02,2.13,1.18-1.68-1.82-3.93-.41-5.56.16-.19.98-.34,1.15-.16.42.43,1.08,1.46,1.45,2.06,1.96.27,3.61-1.2,3.93-3.3l1.98,1.01c.2.1.52.52.5.74-.08.94-1.45,1.01-2.57,1.63l-2.25,1.23c-.71.39-.28,2.29.24,2.87.84.94,2.81.96,3.48-.13.22-.37.43-.68.58-.85s.81.09,1.05.21c.77.39,1.45.08,2.25-.09,3.51-.74,5.29,1.1,8.22-1.87.05-1.02.03-2.06,0-3.06l-.08-2.15c-.18-.52-1.58-.24-1.96.25-1.7,2.2-3.48.18-4.35,2.15-.49,1.12-1.69,1.89-2.92,1.7-.44-1.53-.56-3.23-.42-4.68l2.78-1c1.4-.5,3.08.52,3.38-.99.06-.3-.5-.85-.86-.9-1.16-.17-1.95-1.61-1.3-2.6,1.23-1.88,4.21-.72,5.69-3.18.48-.8-1.41-2.53.44-3.2.44-.16.81-.71.95-1.16.33-1.06.05-1.7-.93-2.21-2.04-1.06-.4,1.62-2.56,2.1-1.04.23-2.38,1.06-2.42,2.19l1.37.71c.28.14.41.99.21,1.24-.24.31-.84.79-1.1.62-1.22-.82-.37-2.11-.81-2.1l-.87.04c-.63.03-1.25-.26-1.36-.93-.18-1.06,1.81-.73,2.17-2.93-1.09-.54-2.21-.26-3.27.13-1.46.54-3.33.16-3.39.82l-.14,1.42c-1.17-.18-2.04.18-3.01.78l-2.38,1.48c-.1.06-.46.12-.56.06s-.26-.33-.17-.4l.38-.28c.78-.58,1.61-1.5,1.64-2.54-.26-.39-1.22-.33-1.63-.05-.69.48-1.61.26-2.23.44-5.41,1.55-1.42-.51-4.8,2.1-.82.64-1.54,1.24-1.92,2.15l1.1,1.09c-.43.8-.48,2.13.51,2.56,1.09.48,3.33-.17,3.63-1.4-.06-1.04-.59-2.07-.3-3.29l2.59-.02c.09,1.49,1.9,2.99,3.17,2.47,2-3.03,3.48-.5,4.88-2.07.35-.39,1.09-.56,1.3-.27-.4,2.15-2.23,3.31-3.66,4.56-2.66,2.33-1.4-.26-4.98,2.75-.84.71-2.11,1.12-3.23,1.58-.18,4.42-4.04,2.91-3.23,6.09ZM258.44,156.6c-.16-.77-.29-1.52-.03-2.09.36-.8.62-1.78-.17-2.37-.71-.53-1.8,0-2.67-.08-1.39-.14-3.13.97-2.88,2.54.11.74.62,2.01.87,2.7.43,1.05,5.12.4,4.89-.71ZM265.96,154.61c-.55-.93-2-1.66-3.02-1.06-.93.56-1.76,2.02-1.54,3.14.16.83,1.55,1.17,2.18.86,1.46-2.69,1.79-1.39,2.37-2.94ZM194.67,159.96c.33-.02.8-.49.79-.73,0-.19-.21-.67-.4-.78-.61-.35-1.91.4-2.53.32-.73-.1-3.02-.77-4.27.59-.33.36-.35,1.11-.28,1.74.15,1.33,2.4,2.52,3.36,1.48s1.66-2.52,3.33-2.62ZM202.85,172.88c-1.21.09-1.97,1.84-1.22,2.83.55.72,2.1.63,2.6,0,.28-.35.63-.71.89-.8s.76.42.92.7c1.13,2.1,2.02-.19,3.87.86,1.04.59,1.7.18,2.76-.06,1.34-.31,3-1.23,2.85-2.81-.67-.48-1.66-1.14-1.74-1.94,3.23-.82,3.67-1.5,6.66-2.41l.23-2.09c2.29-1.66.56-2.61,1.48-3.27.77-.54,1.7.5,3.48-2.16.24-.37.22-1.19,0-1.51s-.75-.62-1.14-.68c-1.02,2.57-3.3.79-4.16,2.14-.8,1.26.86,2.4-1.02,3.13l-2.37.91-2.5-3.74c-.18-.27-1.05-.28-1.19-.03l-.62,1.11c-.5.52-2.97-.43-3.3.78-.14.52.12,1.1.47,1.48,1,1.09,2.18,1.63,3.68,1,.4-.17,1.55.36,1.27.84-.74,1.26-2.54.88-2.62,2.67-.02.42.56.83,1.1,1.33-.11.11-.68.28-.77.12l-.36-.59-1.83-.08c-.39-.46-1.05-1.09-1.54-1.16-1.05,1.46-4.04,3.3-5.87,3.44ZM234.07,170.91c.52-.32,1.56-.94,1.87-1.45l1.79-2.97c.14-.23.75-.52.97-.45.98.31,1.08,1.67,2.45,1.18,2.93-1.05,2.61-2.31,5.59-5.71.22-.25.57-.78.46-1.04s-.58-.62-.85-.67c-.87-.16-1.09,1.15-1.57,1.62-.21.2-1.09.04-1.38.16l-3.85,1.66-2.17,1.82c-3.23,2.71-3.63,1.75-5.27,3.41-.27.27-.68.58-.76.84-.28.93,2.05,2,2.73,1.58ZM198.54,165.92c1.16.69,2.51-.3,3.48-.55,1.97-.52,3.32-1.59,3.43-3.66.02-.39-.03-1.4-.41-1.41-3.19,1.07-3.65,1.89-5.97,3-.48.23-1.35.61-1.4,1.14-.04.38.49,1.26.87,1.49ZM280.05,176.18c.47-2.19-1.11-.8-1.26-3.74-.06-1.24-1.01-2.1-2.11-1.93l-.9,1.62c-.14.26-1.04.09-1.21-.14-.15-.2-.36-.68-.41-.97l2.41-.92c1.23-2.17,4.1-1,2.81-3.53-1.88-3.68,1.82-3.57.79-4.99-3.29.26-2.21-1.71-4.11-.78.84,1.11,1.46,2.64.51,3.74-.64.74-2.09.22-3.02.08l-3.21,1.59c.32,1.57,1.06,2.73,2.15,3.63,2.42,1.99-.78,2.13,4.26,5.7l-1.32,1.16-.74,2.62c-.04.63,1.12,1.71,1.73,1.91,1.02-.42,1.7-1.31,2.33-2.1.71-.9,1.06-1.74,1.32-2.96ZM257.02,163.77c.58-.1.75-1.58.31-2.09-1.62-1.87-3.47-.03-4.32.36-.9.42-2.59.39-2.83,1.68-.19,1.03,1.16,1.67,1.95,2.02,1.88.83.8-1.25,4.89-1.98ZM221.39,171.59c3.27,1.8,4.34-1.36,7.36-2.85l-.03-2.19c-.03-1.85,3.51.04,6.38-2.72.46-.44.65-1.34.46-1.76-.26-.57-.79-1.18-1.52-1.03-.67.14-1.23.99-1.81,1.31-1.1.6-2.67.79-3.47,1.77-.53.65-.81.82-1.74.78-1.28-.06-1.88,1.52-1.7,2.6.4,2.35-3.95,0-3.93,4.08ZM192.48,171.69c-1.21.7-.12,3.35.88,3.59l2.95-.47c.63-.1,1.86-.55,2.44-.8,2.93-2.6,2.13-.91,5.76-3.84.93-.75,2.32-1.22,3.15-2.08.62-.64.05-1.55-.57-1.85-.52-.24-1.2-.04-1.69.51-2.04,2.24-1.57.54-3.47,1.1-.65.19-.63,1.84-1.62,1.65-.19-.03-.35-.32-.53-.66-.67-1.3-2.85.3-3.57.71l-3.74,2.15ZM246.19,173.95c.22-1.12-.05-1.98-.48-3.1,1.83.74,5-2.3,5.14-3.8-.58-.26-1.37-.58-1.82-.72-.57.53-1.05,1.02-1.57,1.43l-2.39,1.89-1.33-.5c-1.64-.61-.26,3.98-4.91,3.67-.52.68-.39,2.45.55,2.72,1.65.47,6.57-.35,6.8-1.58ZM248.65,174.02c.22.47,1.42.77,1.96.66.49-.09,1.1-.82,1.59-1.17,2.45-1.75.55-1.88,2.61-4.61-.15-.97-1-1.83-1.94-2.29-1.72.94-.72,2.94-1.68,3.45-.68.36-1.82.91-2.46,1.34-.72.5-.5,1.72-.08,2.6ZM231.08,180.13l1.77-.53c.72-.7,1.33-1.27,2.14-1.75,1.99-1.15.1-3.23.89-3.72l2.77-1.72c.76-.47.69-2.15.57-2.71-1.48-.33-2.04.99-2.88,1.55-.55-.05-1.45-.05-2.12.18.18.95.47,1.76.91,2.76-.82.67-.14-.18-2.98.77-1.2.4-2.1.93-3.06,1.81-.4.36-1.69.8-1.53,1.55.29,1.4,2.22,2.2,3.51,1.82ZM226.5,176.42c2.34-1.35,2.85-.47,3.08-2.62.05-.51.11-1.22-.05-1.59-.13-.31-.94-.78-1.27-.57l-3.42,2.25c-.3.2-.74.54-.8.79s.9,2.64,2.45,1.74ZM176.44,183.48l2.06-1.16c2.27-1.28,2.56,1.15,3.37.5.39-.32,1.08-1.14,1.5-1.38,3.45-1.98,2.14-4.51,7.02-4.9.32-.33.5-1.21.23-1.42l-.99-.8c-1.22-.98-2.05-.52-3.14.14-1.16.7-2.04,1.41-3.05,2.53-.59.65-2.01,1.38-2.87,1.49-1.12.14-1.86.23-2.7.79-.79.53-3.72,2.09-4.63,2.37-1.01.31-1.3,1.64-1,2.54l1.27.24c1.26.23,1.84-.33,2.92-.93ZM281,229.11l-.43-.48c-.17-.19-.3-.68-.18-.9.09-.17.75-.29.92-.18.69.46,1.71,2.13.98,2.94-.84.93-2.12,2.61-1.59,3.93.18.45.94.75,1.5.79l2.21.16c1.59.12,2.9-1.52,3.65-2.74l-.46-1.87c-.08-.31-.85-.73-1.08-.52-1.05.96.21,3.12-1.28,3.6-.63.21-1.54-1.24-1.17-1.74.3-.4.63-.79.57-1.06-.05-.23-.32-.76-.35-1.02-.16-1.21-.43-2.71-.83-3.97.14-.52.96-1.03,1.42-1.41.74-.63,1.33-1.17,2.31-1.32,1.81-.29-.24-2.05,1.68-3.82.4-.37.49-1.56-.17-1.58-.36-.01-1.01.61-1.26.89l-1.64-1.13c-.26-.18-.77-.64-1.01-.51l-.87.47c-1.15.61-1.64,1.31-1.45,2.7.42,3.01-1.75,2.86-2.65,3.78-.59.6-.73,1.71-1.28,2.38-.46.56-1.85.35-2.61.04.23-1.81,3.84-4.25,2.8-4.71-.41-.18-.89-.43-.86-.67.03-.19.39-.33.69-.52.81-.5,1.21-1.89.94-2.9-.13-.5-1.01-.69-1.32-.4-.98.93-.12,1.52-.83,2.69-.17.28-.9.45-1.22.37-.69-.18-.83-1.09-.93-1.83-.06-.48-1.13-.52-1.65-.33-1.47.53-.02,3.21-.5,5.06l-1.7.8c-.28.13-.64.87-.68,1.18-.14.98,1.3.75.93,2.26-.07.28-.65.55-.95.47-1.29-.37-.63-2.21-2.02-2.19-.42,0-.9.45-1.47.97-.15-.11-.39-.91-.29-1.22.29-.84,2.24-1.37,3.97-2.56.25-.17.52-.96.32-1.09l-.71-.44c-.33-.2-1.27-.59-1.68-.41-.54.24-1.47,1.06-1.96,1.54-.98.97-1.9.26-2.69-.55-.61-.62-1.47-1.81-.34-2.44,4.3-2.38-1.3-3.66.9-6.39l1.33.73c.73.4,1.63.48,2.28,0,1.83-1.35-.45-2.36.58-4.11,1.23-2.1-1.18-2.54.48-3.75.35-.25,1.29-.28,1.45.08,1.05,2.41,2.37,3.57,1.98,4.29-.73,1.37-1.02-.42-1.96,2.58-.15.46-.18,1.46.25,1.44.27-.02.81-.46,1.01-.37.32.14.84.37,1.1.46s.7-.46.9-.69l1.79-2.12c.86.75.56,1.51.28,2.24l-.64,1.63c-.15.37.25,1.19.58,1.3l1.37-1.51c.88-.13,1.49-.42,1.84-1.08l1.25-2.41c.31-.6.62-1.19.29-1.84l-1.94,2.99c-1.96-1.68-2.22-6.33-1.06-8.42.17-.3.93-.41,1.12-.19,1.01,1.18.41,2.11,1.27,3.91,2.04-1.31.07-2.87,1.7-3.67.8-.39,1.83-.82,2.31-1.53.77-1.14.4-3.18-.54-3.9-3.47-2.63-6-.86-6.04-2.01l-.07-2.33c-.59-.6-1.46-.38-2.24.27-1.11-1.4-.43-3.14-2.96-2.97l-1.53-3.36c-.15-.32-1-.44-1.26-.26-1.72,1.2.93,1.3.29,3.33-.32,1.01-.08,2.25,1.11,2.68.51.19,1.32-.46,1.89-.65.71-.23,1.18,1.05,1.27,1.6l.96.02c.16,0,.08.52.03.71-.99.05-2.47-.63-3.38-.11-.99.57-1.61,1.57-2.4,2.5l-.52-.69c-.32-.43,1.25-1.33.86-1.98-.14-.23-.53-.65-.79-.85l-2.3-1.74c-1.06-.8-.3-1.93.06-2.82.63-1.56,1.15-3.25,1.53-4.88.23-1,.11-1.57,1.13-2.09l3.74-1.9.9-2.25c.26-3.13-5.56-6.73-7.08-5.08-.35.38-.47,1.37-.12,1.71,1.36.14,2.3,1.07,2.36,2.61.03.7-1.52,1.6-2.11,1.1l-.77-3.54c-2.1,2.2-1.43,2.47-3.37,3.85-.8.57-1.65,1.02-2.7,1.43l-.16,5.06c-.04,1.11-1.12,2.28-1.96,2.74-.6.33-1.16.8-1.35,1.25-.17.4-.06,1.55.35,1.72.55.22,1.47.46,2.14.58.81.15,2.39-.59,2.46-1.48l.24-3.19c.03-.34.47-1.06.79-1.07.28-.01.86.2,1.16.29l1.82-.04c0,2.47-2.38,4.09-4.13,5.56l-1.17,3.1c-.13.35-.58.95-.56,1.28s1.07,2.45,2.1,2.01c1.15-.5,2.41.03,2.56,1.19-.64.03-1.57.06-1.9.28-.34.66-.72,1.39-1.22,1.67-2.24,1.29.15,2.43-1.3,3.53-2.59,1.96-.47,1-3.56,2.96s-4.82,1.28-4.58,3.91c.06.69.47,1.42,1.17,1.61.67.17,1.15-.29,1.71-.7,1.5-1.11,2.75-2.17,3.69-3.79,1.04-1.79,3.06.45,3.85-2.16.27-.88.8-1.95,1.52-2.47l2.82,1.13c.31,1.35,0,2.96-.99,3.85-.8-.75-1.4-1.52-2.54-1.37l-.34,2.19-1.88,1.25c-1.25.84-2.3,1.38-3.31,2.55-.44.51-1.23,1.09-1.81,1.61.56,1,.87,1.83,1.05,2.95,1.23-.1.02-.29,3.13-1.8.49-.24,1.41-1.33,1.87-1.01,1.43.97-.74,2.54-.84,3.39-.03.23.51.64.57.86.87,3.56,3.78,3.54,3.96,4.65.09.6-.26,3.25-1.48,3.07-.81-.12.52-2.62-1.35-3.12-.21-.06-.82,0-.84.19l-.07.8c-.03.31-.32.96-.59,1.17-.21.16-.64.02-1.27-.06-.7,1.73.73,2.89-.81,3.65-.54.27-1.43,1.21-1.11,1.79.51.92,1.78.66,2.75.94.38.11.63.98.51,1.39-.11.36-.58.94-1,1.07-1.19.36-2.06,1.41-1.49,2.65.3.66,1.65,1.61,2.35,1.38,2.62-.85,2.94-4.06,5.6-3.41.36.09.37,1.16.12,1.41-.91.9-1.88,1.32-3.14,1.76-1.34,1.12-2.05,3.59-3.03,3.77l-2.07-1-1.82,1.02c-1.85,1.04-.09,1.32.61,4.19.68.19,2.64.05,3.1-.6.85-1.19-2.64-1.48-2.97-2.52,2.95-.3,3.27,1.94,4.2,1.95s1.11-1.15,1.7-1.65c.63-.54,2.17-.94,2.63-1.59.56-1.3.98-2.18,1.99-3.2.47-.47.48-1.64.72-2.34.41-1.2,1.05-2.23,1.76-3.27l.8,1.99c2.61,1.32,3.01-2.12,4.52-2.3,1.01.38,1.67,2.19.99,2.99-.83.99-2.11,1.65-2.08,3.01,3.59-1.54,1.2.78,4.55-1,.78-.42,2.24-1.53,1.39-2.44-.42-.46-1.73-.58-1.85-1.48-.16-1.2-1.33-1.61-1.81-2.48-.7-1.24-1.38-3.03-3.22-2.65-1.16.24-.62,3.41-2.49,2.71.12-1.58.77-3.17,1.11-4.76.23-1.11.29-2.59,1.82-2.61.24,0,.77.27.86.48.31.72-.79,1.6-.32,1.9l.69.44c1.7,1.09,2.91,2.55,4.02,2.14.93-.34,1.48-1.86,1.41-1.94ZM205.19,177.76c-.01-.18-.6-.58-.79-.45l-.84.62c-1.38,1.02-3.71-.51-4.46,1.59-.26.75-.14,2.11.9,2.35,2.07.49,4.43-2.32,5.18-4.11ZM170.04,181.74c.88-.24,1.53-1.23.95-2.1-.75-1.14-3.06-1.7-3.99-.48-.55.72-.69,1.85-1.39,2.47-.5.44-.79,1.16-.65,1.8.2.96,1.9,1.62,2.36,1.29,1.18-.83.36-2.33,2.73-2.98ZM183.92,187.22l1.16.94c.56-.1,1.27-.16,1.65.04-.01,2.81-3.39,1.13-3.38,3.99-.55.84-2.24-.34-2.72.19-.22.24-.55.74-.8,1.06-.64.83-1.47,1.41-1.18,2.46.2.73.81,1.98,1.87,1.86.98-.11,2.25-.6,3.05-.89.8.1-.34,1.74.23,2.22.47.4,1.82,1.43,2.34,1.49.35.04,1.08-.54,1.1-.83l-.49-1.19c.04-.48.94-.94,1.55-.8.44.1.75.76,1.04,1.34.43.88,2.11-.64,2.46-.32.98.89.13,2.87.67,4.54.29.91,2.03,1.24,2.75.98.92-.33.91-1.71.19-2.28-.41-.33-.78-1.63-.29-1.82,1.31-.5,2.57-.87,3.44-1.95l.56-2.34c.09-.37.15-1.14-.06-1.4-.69-.9-.91-.18-2.29-1.25-.29-.22-.9-.68-1.13-.49-.28.23-.64.6-.97.94-.56.57-1.64-.06-2.3-.3-1.11-.39-1.9-.68-3.05-1.2,1.16-1.56,2-.71,2.72-1.78.17-.25.14-.97-.02-1.27-1.21-2.33-4.05-1.79-3.87-2.55.04-.18.33-.62.52-.69l2.65-1.01c.49-.69.9-1.09,1.63-1.43l.12-2.21c.49-.54,1.42-1.69,1.04-2.33-.57-.95-1.73-.22-2.45.26-.39.26-1.34-.19-1.87-.44-1.1.47-2.19,1.41-3.13,2.4-.76.8,1.4,2.39-.36,3.41-.87.5-2.26.82-2.97.1l-1.15-1.16-2.63,1.26c-.37-.55-.64-.97-.89-1.16s-1.13.18-1.33.42c-1.14,1.39-3.16,2.45-4.89,1.66-2.22-1.02-1.26,0-4.31,1.83-.31.19-.85.7-.81,1.02.03.27.23.81.39,1.15,1.25,2.74,2.68.93,3.47,3.94l-1.61,1.13c-1.01.71.18,2.23-1.75,3-.4.16-.94.48-1.06.78-.13.33-.09,1.01,0,1.41.34,1.61.98,1.44,2.05,2.23.07.05-.09.39-.18.38l-.61-.06c-.79-.07-2.03-.42-2.72-.09-.9.43-.77,1.95-.17,2.57.88.91,3.88.09,4.2-1.68,1.03-.06,2.2-.17,3.11-.75.77-.49.91-1.74,1.26-2.55l1-.63c.24-.15.07-1.02-.08-1.26l-1.17-1.85c1.19-1.04,2.95-1.09,3.7-3.61.29-.99-2.23-1.9-1.55-3.34l1.86-.73c.56-.22,1.46-1.35,2.1-1.35l4.38-.02ZM253.07,184.72c.58-1.81-.79-2.37.31-4.92.07-.17-.35-.65-.51-.57s-.64.32-.73.48l-1.21,2.1-3.16,1.01c-.75.89-.82,2.28-.05,2.98,2.13,1.95,2.85-1.45,5.37-1.07ZM275.73,183.78c.07-.46-.39-1.5-.8-1.39-1.32.37-.59,1.59-.67,2.38-.07.73-.13,1.77.08,2.31.08.21.67.46.83.37.52-.3.25-1.62.56-3.68ZM284.31,192.92l-.59-2.56c-.05-.2-.5-.67-.62-.55-1.04,1.05.39,4.21,1.18,4.89.65-.65.2-1.04.03-1.78ZM179.98,213.46c.37-.52.8-1.38,1.26-1.49,2.87-.69,1.97-2.19,2.67-3.94,1.52.56,3.23.18,4.01-1.16.59-1,1.11-1.83,1.89-2.76.35-.42.5-1.59.15-2.08-.16-.23-1.03-.26-1.13,0-.09.22-.14.98-.37,1.06-.74.27-2.34.7-2.94,1.24-1.14,1.03-1.85,1.89-1.98,3.4-.52.08-1.5.28-1.67.65-.28.65-.77,1.95-1.48,1.8-1.12-.23-1.47-.19-2.26.55-.67.63-1.92,1.37-1.3,2.55.52,1,2.43,1.19,3.16.17ZM172.31,211.31c1.15-.49.14-3.38,3.16-3.29.53.02,1.23-.94,1.67-1.15.96-.44,4.88-2.23,4.58-3.58-.26-1.19-1.88-1-2.7-.6-.71.34-1.43-.08-2.02-.44-1-.61-2.27.31-2.61,1.34-.45,1.37-1.27,2.31-2.82,2.49-.89.1-1.68.64-2.53,1.03l-2,.92-2.55,1.3c-.55.28-.88,1.71-.68,2.26.77.73,2.09.7,3.03.3,4.7-2,4.04.03,5.48-.58ZM176.26,244.97c.44.09,1.36.06,1.37-.35.02-.72-.74-1.76-1.25-1.63s-1.11.3-1.38.35c.1-.7.26-1.32.52-1.48.22-.14.85.07,1.12,0,1.27-.28,2.53-.3,3.66.35l3.45-2.09c.25-.15.72-.71.58-.93l-.52-.81c-.18-.28-.38-.64-.45-.86-.05-.18.43-.57.49-.76l1.06-3.46c.09-.31-.3-.98-.55-1.14-1.99-1.31-.34,3.53-3.1,3.27-.3-.9.84-2.47.37-2.84l-.69-.53c-.22-.17-.22-.85-.11-1.14.4-1.04,1.38.23,2.12-.57.2-.22.28-1.09,0-1.15-.52-.12-1.36.43-1.76.7-.55,0-.64-1.59-.17-1.73,2.33-.26,1.41-1.49,2.53-2.31.19-.14,1.01.02,1.09.24l.96,2.62c1.34.06,2.48-.93,2.8-2.16.23-.92,2-.05,2.47-.78.56-.86-.08-1.67.06-2.31.12-.59,1.88-.29,3.58-.9.63-.22.51-1.68.02-1.69-.54.16-1.08.34-1.5.4l-1.86.26c-.15-.79-.38-2.3-.93-2.94-.67-.77-1.65.3-1.79,1.04-.06.33-.59.84-.86.77-.66-.18-1.21-1.93-1.01-2.45.1-.26,2.7-2.46,4.05-1.43,1.22.93,2.44,2.91,3.51,2.03,1.24-1.02.57-2.92.67-4.48l-1.49-.61.48-2.47c.06-.3.3-.88.57-.97s.86.19,1.07.39l1.09,1c.39-2.79-.71-1.82.17-3.67.09-.19.14-.68.05-.86s-.61-.24-.83-.19l-2.69.66c-1.68.42.92,3.99-3.44,5.63l.97-2,.31-2c.05-.34-.24-.9-.6-.94-.71-.08-1.12,1.88-2.05,1.93l-2.31.11c-2.76,2.55.78,4.25-.62,5.44-.52-.19-.91-.82-1.19-1.34l-.3-.55c-.07-.13-.77,0-.83.14-1.22,2.57-.81,4.26-2.22,4.6-.49.12-1.49.25-1.69.71-.36.8-.44,2.13-.51,2.85-.04.35-1.18.54-1.35.24-.68-1.17-.35-2.2-1.73-2.66-1.15-.38-1.77,1.86-2.6,1.95-.32.03-.97-.08-1.56-.15-.3.44.15,1.41.64,1.87,2.08,1.96,2.55,1.37,4.34.98.23-.05.6.61.55.88-.24,1.27-2.07,2.65-3.59,2.25l-1.66,1.68-1.38-.76c-.49.15-2.56,2.33-2.63,2.6-.08.33.22,1.07.52,1.21,1.15.54,2.5-1.6,3.67-.67.39.31-.03,1.46-.41,1.72-1.51,1.02-2.18-.28-2.89.41-.82.8.37,1.03-.45,3.34-.24.67-.43,1.76-.05,2.33.97,1.46,2.92-1.2,3.25-.1.22.73-.44,1.64-1.02,2.17-.94.87,1.47,3.61-.52,5.32l1.03,1.98-1.43.06-2.47.08c-.28,0-.79.33-.86.64-.16.77,1.1.57,2.2,1.69.7.71,1.67.8,2.39.11,1.16-1.1,2.33-2.1,3.62-3.09,1.65-1.28.5-3.31,1.02-3.19l.89.19ZM171.8,216.28c-1.14-1.37-1.17-1.73-2.38-1.46s-.61,2.74-.62,2.73c.29.33,1.65.92,2.21.84.27-.04,1.06-1.78.79-2.11ZM256.4,219.98l-1.4-1c-.65-.47-1.36-.64-2.21-.54.76,1.48.08,1.99-.58,2.81-.34.42-.34,1.74.06,2.12,1.95,1.83,3.05-2.44,4.13-3.39ZM169.91,224.23l.32-3.19-2.85.04c-.09,1.18-.31,3.4,1.08,3.59.45.06,1.41-.06,1.45-.44ZM253.33,228.89c.44,1.24.66,2.74,2.09,2.98,1.46-.59,2.41-2.38,3.27-3.61s.64-1.96.16-3.31l-1.28-3.58c-.07-.19-.74-.47-.87-.34-1.38,1.32.23,3.01-.6,3.79-1.35-.28-3.31-.23-4.13.65s.92,2.18,1.37,3.43ZM186.25,233.28c2.12,1.72,4.25-3.5,4.3-5.16-.49-.65-2.12-.49-2.44.2-.53,1.15-1.27,1.56-2.35,2.1-.98.49-.39,2.14.49,2.86ZM197.49,257.49l.27-2.58c.03-.28-.33-.93-.61-1-.23-.05-.83.09-1.03.26-1.05.87-2.24,1.8-3.37,2.58-.79.55-1.11,1.12-.92,2.29l-3.44.66c-.39.07-.52-1.17-.27-1.46.73-.84,1.61-.09,2.91-1.91.61-.85,1.19-1.35,1.9-2.01,1.06-.97,1.97-2.06,3.28-2.7,1.41-.69,1.21-2.35.51-3.23-.09-.12-.71,0-.78.14l-.96,1.88c-.13.25-.84.52-1.12.44-1.09-.31-.97-1.56-2.06-1.65-.44-.04-1.21.23-1.7.32-.38.07-1.48-.28-1.62.08l-.95,2.46-2.11,1.22-.37-1.93c1.19.52,2.52-2.79,2.18-3.33l-1.82-.51c-.1-.23.04-.9.27-1.06.64-.46,2.43-.3,3.5.42l2.96.21c1.8,2.12,1.33.37,3.89,1.01-.51-1.12.35-2.07.82-3.01.58-1.16,1.42-1.9,2.61-2.5.4-1.93,1.57-3.3,1.44-4.29-.05-.36-.89-.67-1.13-.97l-1.05-2.3c-.13-.28-.99-.6-1.12-.33-.15.3-.26.8-.21,1.05l.41,2.01c-.9.99-1.9.95-2.93.39-.79-.43-1.5-1.05-1.09-2.17.31-.82,1.17-1.53,1.7-2.33s-.57-2.66-1.53-2.64c-.76.02-.84,1.29-.52,1.86.26.47.24,1.11.04,1.51-.16.34-1.04.81-1.34.58l-1.24-1.48-1.04,1.35c-.46.6-2.15-.92-3.55.18-.73.58-1.29,2.03-.74,2.9.5.79,2.51-.88,2.98-.01.12.22.12.87.08,1.1-3.43.38-.86.16-4.32,2.49-.62.42-1.33,2.02-1.1,2.73l.66,2.09c.14.45-.37,1.4-.83,1.44-.43.04-1.16-.44-1.52-.72l-1.68.81-.05-1.82c0-.26-.24-.85-.48-.86l-.9-.04c.05.42.14,1.05-.02,1.2l-1.78,1.76c-.59.58-.92,1.61-1.67,1.93-2.28.96-.42,3.02-1.04,4.1-.54.94-2.55.37-2.76,1.89-.23,1.68,1.88,2.3,2.16,2.17s.61-.86.86-1.02c1.56-1.01,3.21-2.38,3.13-4.53l2.05-2.46c1.43-1.72.89,3.53.84,3.94-.15,1.26-3.48,1.55-3.02,2.79.49,1.31,1.01-.09,2.22,2.83l1.48-.45c.46-.14,1.28.68,1.61,1.07,1.27,1.51,2.4,0,3.06.65.58.57.7,2,1.6,2.1.52.06,1.39-.21,1.69-.56.75-.88,1.56-1.17,2.43-1.72,3.64-2.3,3-1.42,6.23-3.3ZM164.32,237.72c.83-.9,2.81-3.16,1.84-3.89s-1.28,1.21-3.1,1.18c-.58,0-1.56.95-1.09,1.4.63.6,1.41.91,2.35,1.32ZM267.91,258.22c3.08.76,1.13-3.19,7.43-2.06l.82-1.34c1.45-.98,1.54-2.42.93-3.94-.37-.94,0-2.97.78-3.66,1.09-.97,2-1.9,3.17-2.65l2.38-1.52c.3-.19.83-.2,1.4.02-2.81,2.72-1.69-.11-3.02,3.45-.36.98-.09,1.54.67,2.13.68.53,1.46.63,2.25.04l3.44-2.56c.55-.41,1.03-1.44.82-2.04-.4-1.1-.66-1.93-.96-3.06-.36-1.35-2.75.4-3.51-1.52-2.92-.06-2.45,3.17-4.13,2.82-.85-.18-1.58-.25-2.23.26l-3.16,2.41c-.57.43-.87,1.86-2.06,1.32-.76-.35-1.76-.75-2.66-.88-.56,1.4,2.06,1.24,2.04,2.69-.02,1.36-1.9,1.2-2.13,2.3-.15.7,2.82.83,3.24,1.79-.05.54-.93,1.06-1.4.99-.43-.06-.96-.34-1.4-.68-2.98-2.27-2.66-.09-5.89-.25-.09.44-.04,1.65.41,1.75.69.16,1.07.25,1.71.47l-1.83,1.59c.64,1.03,1.73,1.82,2.87,2.1ZM279.53,257.16l1.22-1.09c.95-.59,1.72-1.59,1.02-2.68-1.79-2.77.43-2.84-1.75-4.99-.21-.21-.87-.26-.98.01-.08.2,0,.61.16.8,1.09,1.24.68,2.83-.56,3.82-.69.55-1.37,1.2-.87,2.32.27.62,1.14,1.44,1.75,1.81ZM263.86,250.19c-.58-1.36-2.24-2.25-3.5-1.62-.31.49-.51,1.67-.3,2.14.23.5.96,1.1,1.45,1.07.69-.74,1.3-1.11,2.34-1.59ZM253.25,261.11c.09.78,1.12,1.41,1.75,1.48.84.09,1.48-.35,2-1.04.62-.82,1.46-1.21,2.34-1.77,1.12-.72,1.75-2.07,2.57-3.17.25-.33.4-.93.27-1.21-.16-.34-.84-.66-1.12-.52-1.14.57-.67,2.51-1.56,3.16-1.14.82-1.51-1.67-2.59-1.9-.25-.05-.63.67-.59.97.45,2.91-3.33,1.86-3.08,4.01ZM276.84,267.89c.32.32.76,1.02,1.1,1.06,1.29.14,2.01-.91,2.65-1.81s2.06-1.6,2.54-2.64l.93-2.02c.71-1.54.26-3.47-1.26-4.34-2.02-1.15-.22,3.04-.59,4.25l-1.72-.97c-.72-.05-.23,1.37-.24,1.88-.39.85-1.88,1.35-2.84,1.67l-1.41,1.2c-.18.15-.9-.15-.99-.36-.37-.84,2.44-.79,2.58-1.35.31-1.19.74-2.44,1.68-3.13.25-.15.76-.2.76-.4l.03-1.11c-2.9-.45-1.98-2.7-4.14-2.48-1,1.8,1.5,1.73.89,3.53-.52,1.56-2.84.8-4.2,2.16l-1.6-.72c.23-.98-3.52-2.95-3.33-2.91l-2.82-.64c-.33-.08-.97.07-1.17.29-.17.18-.22.83-.05.98.71.39,2.25,1.87,2.01,2.62-.26.81-1.14.38-2.38,1.28-.26.19-.33,1.11-.04,1.37,2.18,2.01-.37,2.49.4,4.16.39.84,2.28,2.11,3.12,1.67.44-.22,1.16-1.34.98-1.81l-.91-2.42,1.4-.31c1.41-.31,2.37-.18,3.25,1.07,1.05,1.48,4.22-.86,5.34.25ZM174.8,267.51l2.56-2.65c.43-.45.66-1.58.42-2.11-1.06-.54-2.13-.15-2.92.62-2.37,2.29-2.21.73-3.62,1.81-.32.24-.4,1.2-.29,1.63.25.98.82,1.63,1.55,1.76,1.06.19,1.58-.32,2.3-1.07ZM185.11,272.66c.34-.39.3-1.65.68-1.94l1.55-1.17c2.2-1.66,1.99,2.55,4.4,2.3.75-.49.99-1.95,1.36-2.73l1.4-2.98c.23-.49-.51-1.61-.93-1.37-1.05.61-1.91.95-2.99,1.44-.47.21-.99.98-1.72,1.13-.95.2-1.34,1.97-1.95,1.47-.88-.71-.18-2.02-1.56-2.95-.2-.13-.75-.14-.95-.03-.64.35.21,2.49-.93,3.71-1.32,1.4-2.53,2.5-3.81,4.02-.34.4.42,1.48.87,1.75,1.46.9,3.39-1.27,4.59-2.65Z"/>
  <path d="M252.1,135.28c3.4-.79,2.3-.14,5.56.02.26-.75-.2-1.4-.73-1.68-1.55-.82-1.87,1.06-3.42.33-1.01-.47-.24-2.75-.76-4.6.19-.44.89-.97,1.4-1.2,1.69-.8.56-2.02,1.2-2.55.73-.62,1.13.76,2.76.66.5-.03,1.04-.6,1.41-1.16,1.2-1.82,3.11.29,2.29-1.93l-.77-2.09c-2.5.03-4.29-1.51-5.36.16-.63.97-1.41.9-2.45,1-.83.08-1.63.27-2.51-.05-.81-.3-1.82-2.43-1.86-3.23-.04-.92,2.54-1.76.59-2.23-.76-.18-1.84-2.04-.96-2.67,3.26-2.32,4.97-.7,7.03-2.52.24-.22.56-.73.54-1-.08-1.02-2.75-.31-2.94-.25-1.97.71-3.64.64-5.67.43-1.65-.17-2.78-1.36-4.1-2.1-1.24-.69-2.44-.86-3.22-2.23-2.47-4.32,3.23-2.65,3.85-6.93.45-.1,1.22-.1,1.64.02l.59,3.55c.05.3.24.74.39.93s.92.22,1.21.16c.37-.48.01-1.48-.34-2.14-.28-.51-1.22-3.53-.83-3.87.71-.63,1.67-.85,2.36-1.32l2.44-1.66c1.19-.81,2.16-2.12,2.89-3.47l-1.7-3.73c-.76-.32-1.89.18-2.34.78-1.07,1.42-2.49,2.15-3.98,3.02-.89.52-1.59,1.48-2.93,1.05-.52-.17-.88-.96-.96-1.52-.42-2.73,2.24-1.07,3.1-3.3.15-.38-.41-1.14-.75-1.02-1.03.36-1.64.1-2.28-.64-.37-.44-.62-1.07-.52-1.65.26-1.45,2.47-.81,3.2-2.09.37-.64.29-1.5-.1-2.14-.93-1.54.87-1.65,2.15-3.23-1.71-.71-2.77-.88-4.06-.16l-2.23,1.24c-.92.51-1.26,3.76-2.4,3.05-1.29-.8-2.14.37-3.12.56-1.32.25-2.35.48-3.49,1.18-.81.5-1.66.46-1.69,1.77-.02.83-.95,2.09-1.9,1.99-1.34-.14-1.57-1.54-1.48-2.9l-2.27-.26c-1.93-1.74.49-3.54-1.29-4.5-.85-.46-1.87-1.69-1.31-2.65.66-1.13,2.28-1.06,3.42-1.19.98-.11,2.2-.26,2.83.59-.11,1.26-.9,2.3-1.6,3.37-.48.73.34,1.75.81,2.2.99.94,4.1-.16,3.82-1.47-.44-2.03,1.38-1.85,2.26-3.02l5.12-1.14c2.16-.48,4.57-.56,4.74-1.71.11-.74-.13-1.71-.51-2.38-1.76-.12-1.95,2.66-4.37,1.8l-1.98-.71c-.33-.12-.23-1.13-.03-1.42.9-1.38,1.63-.12,3.01-2.33,2.17-.14,4.89-1.98,5.72-1.14.45.46-.38,1.67-.28,1.79l.55.64c1.75-2.71,4.03-.03,5.03-1.5.19-.27.03-1-.16-1.28-.93-1.38-2.49,1.77-5.73-1.62-.52-.54-1-.99-.72-1.88.32-1-.5-1.25-.81-1.81-.66-1.21.92-2.47,2.03-2.69,2.4-.47,1.63-2.35,3.2-2.5.27-.02.79.47.8.74.02.52-.42,1.51-.86,1.7-.91.38-1.78,1.83-.87,2.42.42.27,1.46.71,1.96.85.58.17,1.27-1.21,1.99-.52.41.18-2.04,3.32-.67,2.82,2.07-.75.76-.58,2.16-.99.34-.1,1.14.57,1.07.96-.1.59-1.36.96-1.81,1.49-.66.78-.23,2.29-.07,3.28l-.23,1.21,3.29-.06c.86-.76,2.33-1.1,3.08-.09.33.44-.09,1.57-.49,1.85-.5.35-1.28.41-2.03.52-1,.14-1.9,1.09-2.93,1.3s-2.58-.02-3.41-.52-.14-1.76-.27-2.45c-.11-.56-1.1-.69-1.57-.49-1.03.44-1.14,1.46-1.11,2.59.02.88,1.86-.28,2.16,3.04l.25,2.78c4.86-2.78,1.47-2.09,6.28-4.2,1.01-.44,2.57-1.37,3.52,0,.33.48.61,1.8.34,2.3-.62,1.14-2.14,1.34-3.12,1.95-1.05.65-1.9,1.44-3.27,1.3-.38-.04-1.35.52-1.17.86l.9,1.69c2.72.07,2.81-.31,6.21-.12.94.05-.65,2.42.48,2.81,1.26-.05,1.46-1.42,1.93-2.3.23-.43,1.43-.47,1.95-.22,1.03.5,1.25,3,1.26,4.17-3.41.99-2.78.52-4.6,3.12l-2.86.06c-.19.36-.45,1.18-.46,1.59-.01.62,1.43-.14,2.27.75.26.27.45,1.21.09,1.39-1,.52-2.21,1.13-3.05,1.77-.81,2.41-1.45,4.68-1.45,7.17,0,.9.55,2.04-.12,2.79l-1.8,2c.98.93,2.56.84,3.03-.21.16-.37.37-.83.52-1.08s.76-.24,1.17-.26c2-.12,2.38.9,3.05-.07.17-.25-.32-.92-.62-.96-.66-.08-2.1-.17-2.34-.72-.4-.92-.63-1.84-.91-2.76l-1.27-.46c-.22-.76.28-1.24,1.11-1.61l.54,1.79c.67.32,1.65.07,2.34-.38l1.43-.95.36-2.79c2.29.69.95,3.44,1.56,4.38.72.14,1.31.18,1.55.44.99,1.07-1.08,3.34-.41,4.21l2.16.95c.54-.35,1.06-1.27,1.46-2.18l1.57.56.98-.93c1.18.24,1.52,1.42,1.4,2.62-.2,2.01,3.3,1.02,2.25,4.61l-1.99.78c-.48.19-.6,1.39-.44,1.94.24.85.07,1.5-.18,2.36s-.12,2.46-1.03,2.99c-1.32.76-2.22,1.51-3.13,2.73-.44.59-1.31,1.19-1.68,1.82-.56.96-1.09,1.79-1.69,2.65,1.63-.73,2.95.94,3.78.4s.61-1.83,1.37-2.29c.31-.19,1.26.34,1.28.72.09,1.83-1.14,3.41-2.24,4.63-2.22,2.45-2.68,2.74-5.93,4.24-2.11.97-8.82,4.72-9.8,1.23-.13-.46.31-1.44.8-1.56ZM255.68,115.24l.61,1.21c1.12,2.23,1.01-1.15,3.43-1.23s2.77-.85,4.05-3.36c.1-.2-.16-.9-.33-.8-1.26.67-.24,1.11-2.81,2.21-1.08.46-1.95.29-2.74-.72-2.11.35-1.42,1.88-4.59,2.99-.23.08-.6.53-.6.77,0,.19.24.54.42.58s.68-.11.85-.24l1.72-1.4ZM268.12,114.31c-.17-.12-.87-.06-.91.14l-.15.8c-.05.24.3.9.56.88.55-.04,1.12-1.38.51-1.82ZM263.23,118.8c.15-.19-.09-.88-.26-.78-.36.19-1.26.74-1.11,1.14.08.21.67.54.81.36l.57-.72Z"/>
  <path d="M281,229.11c.07.08-.48,1.6-1.41,1.94-1.11.4-2.32-1.05-4.02-2.14l-.69-.44c-.47-.3.63-1.18.32-1.9-.09-.21-.62-.48-.86-.48-1.53.02-1.58,1.51-1.82,2.61-.34,1.58-.99,3.18-1.11,4.76,1.88.7,1.33-2.47,2.49-2.71,1.84-.39,2.52,1.41,3.22,2.65.49.86,1.65,1.28,1.81,2.48.12.9,1.42,1.03,1.85,1.48.85.91-.61,2.02-1.39,2.44-3.34,1.78-.95-.54-4.55,1-.03-1.36,1.25-2.02,2.08-3.01.68-.8.02-2.61-.99-2.99-1.51.18-1.91,3.62-4.52,2.3l-.8-1.99c-.71,1.04-1.35,2.07-1.76,3.27-.24.7-.25,1.87-.72,2.34-1.01,1.02-1.43,1.9-1.99,3.2-.46.65-2,1.05-2.63,1.59-.59.5-.77,1.66-1.7,1.65s-1.25-2.25-4.2-1.95c.32,1.04,3.81,1.33,2.97,2.52-.46.65-2.43.79-3.1.6-.7-2.87-2.47-3.14-.61-4.19l1.82-1.02,2.07,1c.98-.17,1.69-2.65,3.03-3.77,1.26-.44,2.23-.86,3.14-1.76.25-.25.24-1.32-.12-1.41-2.65-.66-2.97,2.56-5.6,3.41-.71.23-2.05-.71-2.35-1.38-.56-1.24.3-2.29,1.49-2.65.41-.13.89-.71,1-1.07.12-.4-.13-1.28-.51-1.39-.98-.28-2.24-.02-2.75-.94-.32-.58.57-1.52,1.11-1.79,1.54-.76.11-1.92.81-3.65.62.08,1.06.22,1.27.06.27-.21.57-.86.59-1.17l.07-.8c.02-.2.63-.25.84-.19,1.87.5.54,3,1.35,3.12,1.22.18,1.57-2.46,1.48-3.07-.17-1.11-3.09-1.09-3.96-4.65-.06-.22-.6-.64-.57-.86.11-.86,2.28-2.42.84-3.39-.46-.31-1.38.78-1.87,1.01-3.1,1.51-1.89,1.7-3.13,1.8-.18-1.12-.49-1.95-1.05-2.95.58-.53,1.37-1.1,1.81-1.61,1.01-1.17,2.06-1.71,3.31-2.55l1.88-1.25.34-2.19c1.14-.15,1.74.62,2.54,1.37.99-.89,1.29-2.5.99-3.85l-2.82-1.13c-.72.52-1.25,1.59-1.52,2.47-.8,2.61-2.81.37-3.85,2.16-.94,1.63-2.19,2.69-3.69,3.79-.56.41-1.05.88-1.71.7-.71-.18-1.11-.91-1.17-1.61-.24-2.63,1.62-2.04,4.58-3.91s.97-1,3.56-2.96c1.45-1.1-.94-2.24,1.3-3.53.5-.29.88-1.02,1.22-1.67.34-.21,1.26-.25,1.9-.28-.14-1.16-1.41-1.69-2.56-1.19-1.03.45-2.08-1.7-2.1-2.01-.02-.33.42-.93.56-1.28l1.17-3.1c1.76-1.47,4.12-3.1,4.13-5.56l-1.82.04c-.3-.09-.88-.3-1.16-.29-.33.02-.77.74-.79,1.07l-.24,3.19c-.07.89-1.65,1.63-2.46,1.48-.67-.12-1.59-.36-2.14-.58-.42-.16-.52-1.31-.35-1.72.19-.45.75-.92,1.35-1.25.84-.46,1.92-1.63,1.96-2.74l.16-5.06c1.06-.41,1.91-.86,2.7-1.43,1.94-1.38,1.27-1.65,3.37-3.85l.77,3.54c.59.49,2.14-.4,2.11-1.1-.06-1.54-1-2.47-2.36-2.61-.34-.33-.23-1.32.12-1.71,1.51-1.65,7.34,1.94,7.08,5.08l-.9,2.25-3.74,1.9c-1.02.52-.9,1.09-1.13,2.09-.38,1.63-.9,3.32-1.53,4.88-.36.9-1.12,2.03-.06,2.82l2.3,1.74c.26.2.65.61.79.85.39.66-1.18,1.56-.86,1.98l.52.69c.79-.93,1.42-1.93,2.4-2.5.91-.53,2.39.16,3.38.11.05-.19.13-.71-.03-.71l-.96-.02c-.09-.56-.56-1.83-1.27-1.6-.57.18-1.38.83-1.89.65-1.19-.43-1.43-1.67-1.11-2.68.64-2.03-2.01-2.13-.29-3.33.26-.18,1.11-.06,1.26.26l1.53,3.36c2.53-.18,1.85,1.57,2.96,2.97.78-.65,1.65-.87,2.24-.27l.07,2.33c.04,1.15,2.56-.62,6.04,2.01.94.71,1.31,2.76.54,3.9-.48.71-1.51,1.14-2.31,1.53-1.63.8.34,2.36-1.7,3.67-.86-1.8-.26-2.74-1.27-3.91-.19-.22-.96-.11-1.12.19-1.16,2.09-.9,6.74,1.06,8.42l1.94-2.99c.33.66.02,1.25-.29,1.84l-1.25,2.41c-.35.67-.96.95-1.84,1.08l-1.37,1.51c-.33-.11-.73-.93-.58-1.3l.64-1.63c.29-.73.59-1.49-.28-2.24l-1.79,2.12c-.2.23-.64.79-.9.69s-.78-.32-1.1-.46c-.2-.09-.74.36-1.01.37-.42.02-.39-.97-.25-1.44.94-3,1.23-1.21,1.96-2.58.39-.72-.94-1.88-1.98-4.29-.16-.36-1.1-.33-1.45-.08-1.67,1.21.75,1.65-.48,3.75-1.03,1.75,1.25,2.76-.58,4.11-.65.48-1.55.4-2.28,0l-1.33-.73c-2.2,2.73,3.39,4.01-.9,6.39-1.13.63-.27,1.82.34,2.44.79.81,1.71,1.52,2.69.55.49-.49,1.42-1.3,1.96-1.54.41-.18,1.35.21,1.68.41l.71.44c.2.12-.07.92-.32,1.09-1.74,1.19-3.69,1.72-3.97,2.56-.11.31.14,1.11.29,1.22.58-.52,1.05-.97,1.47-.97,1.39-.02.73,1.83,2.02,2.19.3.09.88-.19.95-.47.37-1.51-1.08-1.28-.93-2.26.05-.31.41-1.05.68-1.18l1.7-.8c.47-1.85-.97-4.52.5-5.06.52-.19,1.59-.15,1.65.33.1.74.24,1.66.93,1.83.33.08,1.05-.09,1.22-.37.71-1.17-.15-1.76.83-2.69.31-.29,1.18-.1,1.32.4.27,1.01-.13,2.4-.94,2.9-.31.19-.67.34-.69.52-.03.23.44.48.86.67,1.04.46-2.56,2.91-2.8,4.71.76.31,2.15.52,2.61-.04.55-.67.69-1.77,1.28-2.38.91-.92,3.07-.77,2.65-3.78-.19-1.39.3-2.09,1.45-2.7l.87-.47c.24-.13.76.33,1.01.51l1.64,1.13c.25-.29.9-.9,1.26-.89.66.02.57,1.22.17,1.58-1.93,1.76.13,3.52-1.68,3.82-.98.16-1.57.69-2.31,1.32-.45.39-1.28.89-1.42,1.41.4,1.26.67,2.76.83,3.97.03.26.3.79.35,1.02.06.27-.28.66-.57,1.06-.37.5.54,1.94,1.17,1.74,1.49-.48.23-2.64,1.28-3.6.23-.21,1,.2,1.08.52l.46,1.87c-.75,1.22-2.06,2.86-3.65,2.74l-2.21-.16c-.55-.04-1.32-.34-1.5-.79-.53-1.32.75-3,1.59-3.93.73-.81-.29-2.49-.98-2.94-.17-.11-.83,0-.92.18-.12.22.01.71.18.9l.43.48ZM265.65,195.31c-.71-.4-2.08-.79-2.71-.6-.79.24-.83,1.49-.39,1.93,1.03,1.04,2.44.42,3.1-.19.19-.18.23-1.01,0-1.14ZM272.99,201.1c.27.11.49.86.32,1.12-.57.85-1.47,1.42-2.24,1.83-.22.35-.04,1.4.26,1.66.53.46,3.56-.05,3.88-.77l.16-2.26c2.47-.45,1.61-3.29,1.23-5.04-1.02.17-3.77,1.54-4.4,2.21l-2.74-.86-1.42.16c-.76.09-2.11.4-1.95,1.46.12.78,1.51.43,2.18.24.34.66-.69.6-.97.92-.62.7-1.21,1.58-1.72,2.35,1.2.98,2.42.62,3.62.29,3.36-.92,2.25-3.94,3.79-3.31ZM280.75,201.42c.31-.61-.6-1.57-1.08-1.46-1.08.25-1.44,1.35-1.22,2.36.75.04,1.88-.05,2.3-.9ZM263.51,233.58c2.43,1.12,5.4-1.35,5.66-2.01.16-.39.11-1.33-.25-1.55-1.85-1.12-1.57,2.75-4.73,1.22-.37-.08-.97.51-1.09.86s.05,1.31.41,1.48Z"/>
  <path d="M237.47,40.16c1.63,1.21,3.5.78,3.3,2.46-.05.4-.72.74-1.23.81l-2.61.37c-.52.13-.35,1.88.17,2.04l2.51.62c-.05,1.24-.91,1.71-1.66,2.36l-2.06,1.78c-2.83,2.44-1.28,1.02-5.39,2.49-2.18,1.9-7.29,2.86-10.18,2.62-3.26,1.04-2.21,1.07-5.99.89-.45-1.1-1.07-1.26-1.98-1.63-1.07-.44-2.33-1.6-3.58-.74-.95.66-1.64.43-2.79.23-2.11-.37-4.66,2-5.59.91-.68-.79-.6-2.4.13-2.96,2.52-.51,3.43.73,4.99-.29.28-.19.6-.48.69-.7.11-.26-.09-1-.24-1.19-.98.38-1.93.61-2.98.3-1.37-.41-1.43-4.42-.11-4.53l3.83-.32,3.07-.13c.43-.02,1.36-.43,1.7-.68,4.37-3.27,5.69-1.42,8.02-3.73l2.07-1.31-2.4-1.88c-.75-.59-1.4-1-2.4-.44-.64.36-2.25.33-2.48-.61-.28-1.16-.48-2.5-.52-3.64-.04-1.23,1.32-1.57,2.34-1.92-.43-1.3-4.18.09-5.42.71l-4.55,2.28c-.48.22-1.41-.7-1.55-1.2s-.03-1.86.51-2.03c.88-.27,1.93-.45,2.82-.58,3.73-.53,3.49-1.71,6.82-1.13l.71.13c1.3.23-1.47-2.89-.68-3.84,3.41-3.43-1.7-.38-.5-6.41.11-.56,1.73-1,2.06-.63l.76,2.41c.08.27.22.64.3.82.1.22.69.22,1.03.31,5.02,1.36,3.42-1.38,7.34.61l2.78.02c.35,0,.88-.87.9-1.23.2-2.83,2.15-1.92,3.3-3.64.45-.68,1.11-.81,1.76-.38,3.37,2.24,1.83.82,3.86,2.14s2.38.65,2.7,1.54c.35.98-3.37.54-4.16.18l-1.33.79-1.16-1.95c-.31-.53-1-.88-1.41-.59-.64.46-.65,1.09-.2,1.75.19.27.45.75.48,1.01.09.8-1.73.77-2.59,1.59l.15,2c1.54.27,2.82.12,4.3-.2s3.04-.38,4.61-.48c.78-.05,2.67-.54,2.84.58.23,1.61-1.84,1.91-3.03,1.94-3.46.09-5.32,1.66-9.17,1.77-1.07.03-2.29-.39-3.31.13-5.42,2.76-3.83-.84-5.24,1.33.72.85,2.42,1.52,3.58.83.76-.45,2.18-.97,2.55.31.22.75-.15,2.23.39,2.9.95,1.16,2.41,1.11,3.73,1.15,1.04.03,1.59-.22,2.4-.83s2.38.54,2.41,1.48c.04,1.34-1.3,1.78-2.39,1.71-1.56-.1-3.5.26-4.68.76-.41.17.26,1.76-.48,2.84-.23.33-1.09.51-1.57.47.13-.98.31-2.25.16-2.98-.06-.29-.86-.31-1.04-.12-1.13,1.09-.14,2.28-.97,3.11-.77.77-1.86.33-2.7.34-.71.01-1.56.25-2.15-.08-.66-.38-1.44-.6-2.12-.46-1.88,3.06-3.69,2.2-5.15,4,1.83,1.12,1.16,3.18,3.61,2.93.14-.01.57.14.69.2.15.08-.12.5-.25.64l-2.38,2.63c5.42.88,4.65-2.72,7.02-1.18,1.02.66,3.24,1.51,4.32.29.87-.99-.59-3.3-1.89-3.27-1.21.02-2.54,1.03-3.6.03-.07-2.87,2.24-3.46,4.92-4.55.79-.32,1.76.66,2.26,1.29.72-.25,1.53-.58,2.22-.75l3.4-.81-.8-1.63c.24-.64.79-1.52,1.28-2.1.85-.99,1.81-.86,2.85-.09ZM227.46,36.03c-1.11-.01-1.94.11-3,.39,1.07.49,2.14.65,3-.39ZM211.83,47.04l-1.92.96.38.77,1.92-.96-.38-.77Z"/>
  <path d="M176.26,244.97l-.89-.19c-.52-.11.64,1.91-1.02,3.19-1.28.99-2.46,1.99-3.62,3.09-.72.68-1.69.6-2.39-.11-1.1-1.12-2.36-.92-2.2-1.69.06-.31.58-.63.86-.64l2.47-.08,1.43-.06-1.03-1.98c2-1.7-.41-4.45.52-5.32.57-.53,1.24-1.44,1.02-2.17-.33-1.09-2.28,1.57-3.25.1-.37-.56-.18-1.65.05-2.33.82-2.31-.38-2.54.45-3.34.7-.68,1.38.61,2.89-.41.39-.26.8-1.41.41-1.72-1.17-.93-2.53,1.21-3.67.67-.3-.14-.61-.88-.52-1.21.07-.27,2.14-2.45,2.63-2.6l1.38.76,1.66-1.68c1.53.4,3.35-.97,3.59-2.25.05-.27-.32-.93-.55-.88-1.78.38-2.26.97-4.34-.98-.49-.46-.95-1.43-.64-1.87.59.06,1.25.18,1.56.15.83-.09,1.45-2.33,2.6-1.95,1.38.45,1.05,1.49,1.73,2.66.17.29,1.31.1,1.35-.24.07-.73.15-2.06.51-2.85.2-.46,1.2-.59,1.69-.71,1.41-.34,1-2.03,2.22-4.6.06-.14.76-.28.83-.14l.3.55c.28.52.67,1.16,1.19,1.34,1.4-1.18-2.14-2.89.62-5.44l2.31-.11c.93-.04,1.34-2.01,2.05-1.93.35.04.65.6.6.94l-.31,2-.97,2c4.36-1.64,1.76-5.22,3.44-5.63l2.69-.66c.22-.05.74,0,.83.19s.04.66-.05.86c-.89,1.85.21.88-.17,3.67l-1.09-1c-.21-.19-.81-.48-1.07-.39s-.51.67-.57.97l-.48,2.47,1.49.61c-.1,1.56.57,3.46-.67,4.48-1.07.88-2.29-1.09-3.51-2.03-1.35-1.03-3.95,1.17-4.05,1.43-.2.52.35,2.27,1.01,2.45.27.08.8-.44.86-.77.13-.73,1.12-1.81,1.79-1.04.55.63.78,2.15.93,2.94l1.86-.26c.42-.06.96-.24,1.5-.4.49,0,.61,1.46-.02,1.69-1.7.61-3.45.31-3.58.9-.13.64.5,1.45-.06,2.31-.47.73-2.24-.13-2.47.78-.31,1.23-1.46,2.22-2.8,2.16l-.96-2.62c-.08-.21-.89-.38-1.09-.24-1.12.82-.2,2.04-2.53,2.31-.47.15-.38,1.74.17,1.73.4-.27,1.23-.82,1.76-.7.28.06.2.94,0,1.15-.74.8-1.72-.47-2.12.57-.11.29-.11.97.11,1.14l.69.53c.47.36-.68,1.93-.37,2.84,2.76.26,1.1-4.58,3.1-3.27.24.16.64.84.55,1.14l-1.06,3.46c-.06.19-.54.58-.49.76.06.22.27.58.45.86l.52.81c.14.22-.32.78-.58.93l-3.45,2.09c-1.13-.65-2.4-.63-3.66-.35-.27.06-.9-.15-1.12,0-.26.16-.42.78-.52,1.48.27-.05.86-.21,1.38-.35s1.27.9,1.25,1.63c-.01.41-.93.45-1.37.35ZM184.39,221.27c.37,0,.4-1.05.3-1.42l-.19-.73c-.04-.15-.63.06-.75.15l-1.69,1.3c-.16.12-.18.96.03.95s.72-.05.88-.19l.53-.46c.11-.1.59.38.88.38ZM177.68,230.23c.02-.49-.27-1.15-.53-1.36-.22-.18-.98-.14-1.14.11-.58.91-.34,2.37.52,3.03.62-.03,1.11-.86,1.14-1.78ZM175.46,237.35l.73-1.44,1.15-2.18c.09-.36-.89-.88-1.18-.65-1.37,1.12.48,2.75-2.01,3.72-.61.24-.32,1.58.45,1.78.29-.26.66-.84.86-1.24Z"/>
  <path d="M203.58,70.93c-2.63,2.24-5.08,2.19-6.72,4.8.61,1.4,2.06,2.59,3.56,3.25.92.41,1.45,1.59,1.03,2.3-.12.2-.69.34-.94.2l-4.35-2.34c-2.41-1.29-.52.23-3.61,1.79-1.03.52-3.29,2.53-5.11,1.04-.26-.22-.21-1.08-.03-1.39,1.13-1.93-1.45-3.11-.52-4.41.87-1.23,3.29-.46,4-1.18.02-1.13-1.09-1.47-1.58-1.91-.11-2.64,2.48-1.05,3.37-2.53.19-.32-.05-1.26-.36-1.43-3.88,1.62-4.48-.38-5.89,2.71-.31.68-1.98.45-2.79.12-.65-.26-1.26-1.27-1.65-2.11-.53-1.14-.26-2.39.66-3.01,2.23-1.5,3.91,2.03,4.19.06.04-.3.02-.96-.13-1.24-1.31-2.35,1.23-1.76,2.33-4.41.22-.54.09-1.88-.52-1.85l-2.76.14c-.07-1.85,1.22-2.11,2.36-2.57.86-.35,1.72-.83,2.71-.79,1.2.04.91,1.56,1.63,1.93.56.29,2.66-2.81,4.27-1.41.27.23.33.86.36,1.54,1.59.31,3.37.23,4.96-.44l1.93-.81c.73-.31,1.69.53,2.32,1,.9.67,1.92.33,2.93-.02,1.09-.38,2.46.26,4.57-.54.77.58.22,1.68-.55,2.49l3.52.33c.33.03,1.26-.31,1.21.18l-2.02,2.64-2.77.25c-3.73.34-1.61.93-3.22,1.06-.32.03-.88-.6-.92-.94-.19-1.57-1.91-2.49-3.21-2.16-.28.07-.51.98-.32,1.19s.45.47.85.84c.79.74,1.48,2.5.85,3.07-1.01.92-2.12-.62-5.67,0-.6.1-1.67.93-1.49,1.45l.43,1.23c-.97.69-1.87,1.45-1.65,2.77,3.27-.36,2.07-1.69,3.42-1.79.61-.05,1.33.41,1.37.92ZM192.71,62.83c.3-.09.33-.87.11-1.06-.24-.2-.77-.38-1.01-.25-.2.11-.44.58-.49.96-.04.3.83.51,1.39.35ZM194.5,78.3c-.34-1.61-4.61-1.31-4.61.03.07.58,1.46,1.08,2,.75.81-.49,1.42-.59,2.61-.78Z"/>
  <path d="M197.49,257.49c-3.23,1.88-2.59,1-6.23,3.3-.87.55-1.68.85-2.43,1.72-.3.35-1.17.61-1.69.56-.9-.1-1.03-1.52-1.6-2.1-.66-.65-1.79.86-3.06-.65-.33-.39-1.15-1.22-1.61-1.07l-1.48.45c-1.21-2.92-1.73-1.52-2.22-2.83-.46-1.23,2.86-1.53,3.02-2.79.05-.41.59-5.66-.84-3.94l-2.05,2.46c.07,2.15-1.58,3.52-3.13,4.53-.25.16-.59.9-.86,1.02s-2.39-.49-2.16-2.17c.21-1.52,2.22-.95,2.76-1.89.62-1.09-1.23-3.14,1.04-4.1.75-.32,1.08-1.35,1.67-1.93l1.78-1.76c.16-.15.07-.79.02-1.2l.9.04c.24,0,.48.6.48.86l.05,1.82,1.68-.81c.36.28,1.09.77,1.52.72.46-.05.98-.99.83-1.44l-.66-2.09c-.23-.71.48-2.31,1.1-2.73,3.46-2.33.89-2.11,4.32-2.49.04-.22.04-.88-.08-1.1-.47-.87-2.47.8-2.98.01-.56-.87,0-2.33.74-2.9,1.4-1.1,3.08.42,3.55-.18l1.04-1.35,1.24,1.48c.3.23,1.18-.24,1.34-.58.19-.4.22-1.04-.04-1.51-.32-.57-.24-1.84.52-1.86.97-.02,2.08,1.81,1.53,2.64s-1.39,1.51-1.7,2.33c-.41,1.11.29,1.73,1.09,2.17,1.02.56,2.02.61,2.93-.39l-.41-2.01c-.05-.25.07-.75.21-1.05.13-.26.99.05,1.12.33l1.05,2.3c.24.3,1.08.61,1.13.97.13.99-1.04,2.36-1.44,4.29-1.2.6-2.03,1.34-2.61,2.5-.47.94-1.33,1.89-.82,3.01-2.56-.64-2.09,1.11-3.89-1.01l-2.96-.21c-1.07-.72-2.85-.88-3.5-.42-.23.16-.37.83-.27,1.06l1.82.51c.34.54-.99,3.85-2.18,3.33l.37,1.93,2.11-1.22.95-2.46c.14-.36,1.24-.01,1.62-.08.49-.09,1.26-.35,1.7-.32,1.08.09.97,1.34,2.06,1.65.28.08.99-.18,1.12-.44l.96-1.88c.07-.13.68-.26.78-.14.7.88.9,2.54-.51,3.23-1.31.64-2.22,1.73-3.28,2.7-.72.66-1.29,1.15-1.9,2.01-1.3,1.83-2.18,1.08-2.91,1.91-.25.29-.12,1.53.27,1.46l3.44-.66c-.19-1.17.13-1.74.92-2.29,1.13-.78,2.32-1.71,3.37-2.58.2-.17.8-.31,1.03-.26.28.06.64.71.61,1l-.27,2.58ZM192.78,244.43c.07-.23-.22-.62-.53-.88-.94-.77-.07-2.37-.66-2.73-.07-.04-2.84-.16-3.07,1.18-.08.47.14,1.65.53,1.95.6.47,3.51,1.21,3.73.47ZM198.43,242.1c.23-.33.46-1.07.24-1.13l-.92-.22c-.25-.06-.4.7-.27.93.14.26.8.64.95.42ZM183.09,257.75c1.2-.77,2.57-2.86,2.08-3.86-1.27,1.18-2.49.94-2.82,2.17-.13.47.3,1.86.75,1.7ZM188.41,256.67c.55-.19,1.11-.78,1.22-1.26.08-.35-.34-1.06-.69-1.34-.82.63-.98,1.7-.53,2.6Z"/>
  <path d="M183.92,187.22l-4.38.02c-.64,0-1.53,1.13-2.1,1.35l-1.86.73c-.68,1.44,1.84,2.35,1.55,3.34-.75,2.52-2.51,2.56-3.7,3.61l1.17,1.85c.15.24.32,1.11.08,1.26l-1,.63c-.35.81-.48,2.06-1.26,2.55-.9.58-2.07.69-3.11.75-.32,1.77-3.32,2.59-4.2,1.68-.59-.61-.72-2.14.17-2.57.69-.33,1.93.02,2.72.09l.61.06c.09,0,.25-.33.18-.38-1.07-.8-1.7-.62-2.05-2.23-.09-.41-.13-1.08,0-1.41.12-.3.66-.62,1.06-.78,1.93-.76.74-2.28,1.75-3l1.61-1.13c-.79-3.01-2.22-1.2-3.47-3.94-.16-.34-.36-.88-.39-1.15-.04-.32.5-.83.81-1.02,3.05-1.83,2.09-2.85,4.31-1.83,1.73.79,3.75-.27,4.89-1.66.2-.25,1.08-.61,1.33-.42s.51.61.89,1.16l2.63-1.26,1.15,1.16c.71.72,2.11.4,2.97-.1,1.76-1.02-.4-2.61.36-3.41.94-.99,2.03-1.92,3.13-2.4.53.25,1.48.7,1.87.44.72-.48,1.88-1.21,2.45-.26.38.64-.56,1.79-1.04,2.33l-.12,2.21c-.73.34-1.14.73-1.63,1.43l-2.65,1.01c-.19.07-.48.51-.52.69-.18.76,2.66.22,3.87,2.55.16.3.19,1.02.02,1.27-.72,1.07-1.56.23-2.72,1.78,1.15.52,1.94.81,3.05,1.2.66.23,1.74.86,2.3.3.33-.34.69-.71.97-.94.23-.19.84.27,1.13.49,1.38,1.06,1.6.35,2.29,1.25.2.26.15,1.03.06,1.4l-.56,2.34c-.87,1.09-2.13,1.45-3.44,1.95-.49.19-.13,1.5.29,1.82.72.56.73,1.95-.19,2.28-.72.26-2.46-.07-2.75-.98-.54-1.68.31-3.65-.67-4.54-.35-.32-2.03,1.2-2.46.32-.29-.59-.59-1.24-1.04-1.34-.61-.14-1.51.32-1.55.8l.49,1.19c-.02.29-.75.87-1.1.83-.53-.06-1.87-1.09-2.34-1.49-.57-.48.57-2.12-.23-2.22-.8.28-2.07.77-3.05.89-1.05.12-1.67-1.13-1.87-1.86-.29-1.05.54-1.63,1.18-2.46.25-.33.58-.82.8-1.06.48-.53,2.17.65,2.72-.19,0-2.86,3.37-1.18,3.38-3.99-.38-.2-1.09-.15-1.65-.04l-1.16-.94ZM175.78,192.94l-1.04-1.12c-.11-.12-.67-.11-.68.05l-.06.69c-.03.39.31,1,.66,1.11.33.1.99-.37,1.13-.73ZM186.39,196.18c.8-.15,3.82-.1,3.94-1.45.07-.75-2.07-1.72-2.83-1.46-.44.15-.96.81-1.33,1.23l-1.74,2.03,1.96-.36ZM195.19,196.97c.96-.26,1.96-.62,2.15-1.57.04-.19.04-.77-.12-.77s-.66.05-.79.14l-2.25,1.42c-.2.13-.32,1.15-.1,1.09l1.11-.31Z"/>
  <path d="M165.44,170.43c-.81-3.18,3.04-1.67,3.23-6.09,1.11-.46,2.39-.88,3.23-1.58,3.58-3.01,2.31-.42,4.98-2.75,1.43-1.25,3.27-2.42,3.66-4.56-.21-.3-.95-.12-1.3.27-1.4,1.57-2.88-.96-4.88,2.07-1.27.53-3.08-.98-3.17-2.47l-2.59.02c-.28,1.22.24,2.25.3,3.29-.3,1.23-2.54,1.88-3.63,1.4-1-.44-.94-1.76-.51-2.56l-1.1-1.09c.38-.9,1.1-1.51,1.92-2.15,3.38-2.62-.62-.55,4.8-2.1.63-.18,1.54.04,2.23-.44.41-.28,1.37-.33,1.63.05-.03,1.04-.86,1.96-1.64,2.54l-.38.28c-.1.07.06.34.17.4s.46,0,.56-.06l2.38-1.48c.97-.6,1.84-.96,3.01-.78l.14-1.42c.07-.66,1.93-.28,3.39-.82,1.06-.39,2.17-.67,3.27-.13-.36,2.2-2.35,1.88-2.17,2.93.11.67.74.95,1.36.93l.87-.04c.44-.02-.41,1.28.81,2.1.25.17.86-.31,1.1-.62.2-.25.07-1.09-.21-1.24l-1.37-.71c.04-1.12,1.37-1.95,2.42-2.19,2.15-.48.52-3.15,2.56-2.1.97.51,1.26,1.15.93,2.21-.14.45-.51,1-.95,1.16-1.84.67.05,2.4-.44,3.2-1.48,2.46-4.47,1.3-5.69,3.18-.65,1,.14,2.44,1.3,2.6.36.05.92.6.86.9-.3,1.51-1.99.49-3.38.99l-2.78,1c-.14,1.44-.02,3.15.42,4.68,1.24.19,2.43-.58,2.92-1.7.86-1.97,2.65.05,4.35-2.15.38-.49,1.78-.77,1.96-.25l.08,2.15c.04,1,.06,2.04,0,3.06-2.94,2.97-4.72,1.13-8.22,1.87-.8.17-1.48.47-2.25.09-.23-.12-.89-.38-1.05-.21s-.36.48-.58.85c-.66,1.08-2.64,1.07-3.48.13-.52-.58-.95-2.49-.24-2.87l2.25-1.23c1.12-.61,2.49-.69,2.57-1.63.02-.21-.3-.64-.5-.74l-1.98-1.01c-.32,2.09-1.97,3.57-3.93,3.3-.37-.6-1.03-1.63-1.45-2.06-.17-.18-.99-.03-1.15.16-1.41,1.63,1.59,3.88.41,5.56-1.66.09-4.59-.43-5.02-2.13ZM181.99,160.81c.26-.13.28-.94.14-1.17s-.67-.45-.94-.38c-.59.14-1.21.97-.8,1.47.24.31,1.23.27,1.6.08Z"/>
  <path d="M179.32,90.73c-.89,1.26.85,1.82-1.55,3.27-1.72,1.03-3.35.29-3.81-.45-.23-.38-.19-1.55.2-1.77l3.52-.8c2.13-.49-.67-1.07-.47-2.71.31-2.5,1.68-.5,3.48-2.98.55-.76,2.18-1.06,2.94-.6.67.4,1.31.7,2,1.03.37.18.83,1.21,1.23.92l-.08-1.94c-.02-.44.95-.97,1.41-.91l4.23.6c.31.55-.4,1.64-1.08,1.79l-3.32.75c1.17,1.25,1.75,1.99,2.57,3.1.35.48.99,1.05,1.04,1.52.07.76-.36,1.36-1.02,1.96l1.62.16c1.08.27,1.76.4,3.04.43-.19-.94-.3-1.38-.54-2.32-.13-.51.54-1.25,1.21-1.28l2.49-.09c.24,0,.51-.82.35-1-.73-.79-3-1.06-2.35-2.79.86-2.28,3.98-.91,3.91-3.13.37-.39,1.67-.35,2.33.05-1.44,3.17-2.11,1.11-2.05,3.85l.09,3.76-1.52.95c-.2.12-.14.76.02.93.83.91,1.43-.46,3.55-.83.34-.06,1.04.52,1.04.85,0,1.03-3.12,1.4-4.25,1.03-.09.37-.01,1.33.22,1.78.63,1.21-.03,1.94-1.08,2.48-.53.27-1.43.9-1.96.85-1.01-.1-1.86-.2-2.58.6-1.9,2.11-1.54,4.97-4.75,5.96-.7.22-1.49-.63-1.96-1.05l-2.39-2.11c-1.78.17-4.02-1.78-4.03-2.69,0-.73.74-3.25,1.78-3.68-.4-4.3,1.74-2.39,1.01-6.83-2.57-.62-1.99.6-4.44,1.32ZM184.79,97.87c1.8-.45,4.54-2.32,5.34-4.01-.35-.19-.97-.36-1.23-.25s-.57.59-.87.8c-1.4.97-3.05,1.39-4.8,2.04.02.55.86,1.61,1.57,1.43ZM194.89,96.73c.08-.23,0-.79-.18-.88-.14-.06-.58-.12-.76-.07l-2.41.74c-.46.14-1.02.87-1.25,1.39,2.47-.67,4.06.31,4.6-1.18Z"/>
  <path d="M257.7,176.49c-.73.35-2.35.81-2.5-.41-.12-.91,1.2-1.69,1.89-2.31.56-.5.51-1.56.34-2.32-.7-3.14.45-1.78,1.46-3.75s2.77-1.21,2.94-2.33-.55-1.99-1.33-2.48l-.64-1.37c-.19-.4-.57-1.2-.35-1.62.97-.38,2.27-.73,3.17-1.14.96-.44,1.68-.81,2.71-.93,2.25-.28,2.64-3.16,2.78-5.02.03-.44,1.09-.37,1.38-.08.48.47.43.94.3,1.63l-.11.57c-.03.16.52.09.74.04,1.94-.44,1.45,1.86,3.14,1.82l-.3-2.25c2.13-2.74,2.86-1.22,4.14-3.08-.95-.8-2.21-3.18-1.08-3.4,1.03-.2,1.41,1.43,2.81,1.35l.89-.05c.19,0,.33.72.3.92-.56,3.34-2.01,2.45-1.77,5.99-2.35,2.95-1.84,1.02-4.9,4.23-.87.91-2.46.77-3.45,2.5-.76-.64-1.71-1.29-2.63-1.62l-.97,4c-.31,1.27-.5,4.16-.87,4.08-1.33-.29-.54-.47-1.67-.74-.26-.06-.65.46-.9.63l-2.09,1.41c-.25.44.44,1.38.89,1.55,1.66.62,1.71-.45,2.93-.07.86.27-.17,2.31-1.37,2.91-.36-1.79-1.33-1.84-2.69-1.94-.6-.05-1.33-.21-1.7.13-.55.51-.6,1.25-.2,1.78.22.29.39.53.5.69.13.2-.25.84-.49.81-.26-.04-1.06-.24-1.29-.13ZM268.86,159.45l1.57-1.52c.17-.17.32-.82.35-1.06s-.53-.61-.75-.51c-1.19.55-2.43,2.02-2.44,3.43.42.1.99-.06,1.27-.34ZM265.88,162.64c.21-.22.4-1.04.08-1.09-1.35-.18-2.72.81-2.8,2.28-.02.33,0,.76.1.97.39.73,1.78-1.25,2.63-2.16Z"/>
  <path d="M267.91,258.22c-1.14-.28-2.23-1.08-2.87-2.1l1.83-1.59c-.64-.22-1.02-.31-1.71-.47-.45-.1-.5-1.31-.41-1.75,3.23.16,2.91-2.02,5.89.25.44.34.96.62,1.4.68.47.07,1.35-.46,1.4-.99-.42-.96-3.39-1.09-3.24-1.79.24-1.1,2.11-.94,2.13-2.3.02-1.45-2.6-1.29-2.04-2.69.89.13,1.89.53,2.66.88,1.19.54,1.49-.88,2.06-1.32l3.16-2.41c.66-.5,1.39-.43,2.23-.26,1.68.35,1.21-2.88,4.13-2.82.76,1.92,3.15.17,3.51,1.52.3,1.12.55,1.95.96,3.06.22.59-.27,1.63-.82,2.04l-3.44,2.56c-.79.59-1.57.49-2.25-.04-.76-.6-1.04-1.16-.67-2.13,1.33-3.56.2-.73,3.02-3.45-.57-.23-1.1-.21-1.4-.02l-2.38,1.52c-1.17.75-2.08,1.68-3.17,2.65-.78.69-1.15,2.73-.78,3.66.6,1.52.51,2.96-.93,3.94l-.82,1.34c-6.3-1.14-4.35,2.82-7.43,2.06Z"/>
  <path d="M228.04,71.44l-.04-2.11c-2.27-.27-2.47,2.49-4.39,1.07-.48-.35-.98-.82-1.09-1.23-.15-.54,0-1.68.44-1.89.81-.4,1.48-.7,2.23-.94l3.86-1.22c.92-.29,3.11,1.79,3.63.64.58-1.29-.82-1.71-1.6-2.09l-4.04-1.92c-1.11-.53-1.8-.52-1.72-1.86s1.2-1.01,2.03-1.55c1.29-.83,3.93-2.95,5.28-2.63.42.1.79.81,1.05,1.38.14.32,1.01.34,1.37.12,1.94-1.18,2.13,1.1,4.54.42.23-.07.85.1.92.33s-.21.77-.45.93l-3.64,2.47c-1.76,1.19,1.06,2.17,1.61,4.43.42,1.72-2.97,3.61-4.24,4.32l-3.42,1.93-2.33-.6Z"/>
  <path d="M276.84,267.89c-1.12-1.11-4.29,1.23-5.34-.25-.88-1.25-1.84-1.37-3.25-1.07l-1.4.31.91,2.42c.18.47-.54,1.59-.98,1.81-.84.43-2.73-.83-3.12-1.67-.77-1.67,1.77-2.14-.4-4.16-.29-.26-.22-1.18.04-1.37,1.23-.9,2.11-.47,2.38-1.28.24-.75-1.3-2.23-2.01-2.62-.18-.15-.13-.8.05-.98.21-.21.84-.36,1.17-.29l2.82.64c-.19-.04,3.56,1.93,3.33,2.91l1.6.72c1.36-1.37,3.68-.6,4.2-2.16.6-1.8-1.9-1.73-.89-3.53,2.16-.22,1.23,2.03,4.14,2.48l-.03,1.11c0,.2-.51.25-.76.4-.94.69-1.37,1.94-1.68,3.13-.14.56-2.95.5-2.58,1.35.09.21.81.51.99.36l1.41-1.2c.96-.31,2.45-.81,2.84-1.67.02-.51-.47-1.93.24-1.88l1.72.97c.37-1.21-1.43-5.4.59-4.25,1.52.86,1.97,2.79,1.26,4.34l-.93,2.02c-.48,1.04-1.88,1.72-2.54,2.64s-1.36,1.95-2.65,1.81c-.34-.04-.78-.73-1.1-1.06Z"/>
  <path d="M202.85,172.88c1.82-.14,4.82-1.98,5.87-3.44.49.07,1.15.7,1.54,1.16l1.83.08.36.59c.1.16.67,0,.77-.12-.54-.5-1.12-.91-1.1-1.33.08-1.8,1.88-1.41,2.62-2.67.28-.48-.87-1-1.27-.84-1.5.63-2.69.09-3.68-1-.35-.39-.62-.96-.47-1.48.33-1.21,2.8-.26,3.3-.78l.62-1.11c.14-.24,1.01-.23,1.19.03l2.5,3.74,2.37-.91c1.88-.72.22-1.87,1.02-3.13.86-1.35,3.13.43,4.16-2.14.4.06.94.37,1.14.68s.24,1.15,0,1.51c-1.78,2.66-2.71,1.62-3.48,2.16-.92.65.8,1.6-1.48,3.27l-.23,2.09c-2.99.91-3.43,1.59-6.66,2.41.08.79,1.07,1.46,1.74,1.94.15,1.58-1.51,2.5-2.85,2.81-1.06.25-1.72.66-2.76.06-1.86-1.06-2.74,1.23-3.87-.86-.15-.28-.65-.79-.92-.7s-.61.45-.89.8c-.5.63-2.05.73-2.6,0-.75-.99,0-2.73,1.22-2.83Z"/>
  <path d="M262.76,141.34l1.81-2.09c.37-.43,1.89-.48,2.19,0,.41.64.77,1.23,1.37,1.77.43-1.39.83-2.85,2.21-3.35l2.09-.77c.69.05,1.18,1.28,1.21,2.02.06,1.35,1.17.65,1.82,1.75.41.69,1.29.98,1.96.56.59-.37.45-1.32.26-1.99l-1.39-4.9c-.15-.52.53-1.13.93-1.04.8.18.96.56.93,1.36-.04,1.12.29,2.26.39,3.38l.29,2.93c.06.57-.88,1.51-1.16,2.06-1.65,3.2-2.41,2.2-3.77,3.88-.9,1.11-1.8,1.42-3.19,1.53-1.47.11-3.09.57-4.52-.16-.65-.88.03-3.19-.48-3.65-.77-.7-2.14-.5-2.83-1.33-.36-.43-.48-1.54-.14-1.93ZM273.11,145.58c.13-.18.21-.78.09-.96-.94-.3-2.39-.13-3.22.65.29.93,2.74.85,3.13.31Z"/>
  <path d="M280.05,176.18c-.26,1.21-.61,2.06-1.32,2.96-.63.79-1.31,1.68-2.33,2.1-.61-.2-1.77-1.28-1.73-1.91l.74-2.62,1.32-1.16c-5.04-3.58-1.84-3.72-4.26-5.7-1.09-.9-1.82-2.05-2.15-3.63l3.21-1.59c.92.14,2.38.66,3.02-.08.95-1.1.33-2.63-.51-3.74,1.9-.93.83,1.04,4.11.78,1.02,1.42-2.67,1.31-.79,4.99,1.29,2.53-1.59,1.36-2.81,3.53l-2.41.92c.04.29.26.77.41.97.17.23,1.07.4,1.21.14l.9-1.62c1.11-.17,2.05.69,2.11,1.93.15,2.94,1.73,1.55,1.26,3.74Z"/>
  <path d="M191.44,107.78c.45.57-.52,1.35-1,1.45-1.04.22-1.4.83-1.29,1.92l-2.42,2.24-1.27-1.5c-.33-.39-1.33-.87-1.8-.72-.61.19-1.25.81-1.73,1.28-1.25-.29-2.12-1.61-1.5-3.11l-2.27-.71c-2.47,1.88-3.76-.2-5.9.87l-2.91,1.46c-.28.14-.68.4-.91.41-.58.01-1.58-1.17-1.62-1.82-.07-1.08,1.18-1.5,2.78-3.2.3-.32,1.27-.4,1.81-.2,1.05.39.93,2.08,1.55,2.13.76.07.87-2.72,2.7-2.09.43.15,1.16.6,1.6.69,1.31.29,2.46.8,3.37,1.78,1.29.34,2.01-.66,3.13-.17.24.11.4.68.51,1.09l.66.48,1.05-2.18c.12-.25.45-.76.7-.82s.74.32.96.5l.76.64c.53.44,2.24-1.45,3.04-.44Z"/>
  <path d="M172.31,211.31c-1.44.62-.77-1.42-5.48.58-.94.4-2.26.43-3.03-.3-.21-.55.13-1.98.68-2.26l2.55-1.3,2-.92c.85-.39,1.63-.93,2.53-1.03,1.55-.18,2.37-1.12,2.82-2.49.34-1.03,1.61-1.95,2.61-1.34.59.36,1.32.78,2.02.44.82-.39,2.44-.58,2.7.6.3,1.35-3.62,3.14-4.58,3.58-.45.21-1.15,1.16-1.67,1.15-3.02-.1-2.02,2.79-3.16,3.29Z"/>
  <path d="M180.65,146.16c-.71.47-.04,1.72-1.39,2.05-2.89.72-3.1,2.23-4.26,1.78-.34-.13-.78-.76-1.14-.95-.99-.51-2.21-.51-2.87-1.59-.31-.5.37-1.45.82-1.82,1.64-1.34.1-1.23.69-2.53.44-.96,1.25-.21,2.48-1.9.99-.45,3.57,1.81,4.39,2.55.65.58,2.24.23,2.61,1.44l1.94.03c.56.3,1.37,1.23,1.59,1.82-.41,1.08-2.01,1.53-2.94.91l-1.1-1.7c-.08-.13-.68-.17-.81-.09Z"/>
  <path d="M176.44,183.48c-1.08.61-1.66,1.16-2.92.93l-1.27-.24c-.3-.9,0-2.24,1-2.54.91-.28,3.83-1.84,4.63-2.37.84-.56,1.58-.65,2.7-.79.85-.11,2.28-.84,2.87-1.49,1.01-1.12,1.89-1.83,3.05-2.53,1.09-.66,1.92-1.12,3.14-.14l.99.8c.27.22.09,1.09-.23,1.42-4.88.39-3.57,2.92-7.02,4.9-.41.24-1.1,1.06-1.5,1.38-.81.65-1.11-1.78-3.37-.5l-2.06,1.16Z"/>
  <path d="M192.48,171.69l3.74-2.15c.71-.41,2.9-2.01,3.57-.71.18.35.34.63.53.66.98.18.97-1.47,1.62-1.65,1.91-.56,1.43,1.14,3.47-1.1.5-.55,1.18-.75,1.69-.51.63.3,1.2,1.21.57,1.85-.83.85-2.22,1.32-3.15,2.08-3.63,2.93-2.84,1.24-5.76,3.84-.58.25-1.81.7-2.44.8l-2.95.47c-1-.24-2.1-2.89-.88-3.59Z"/>
  <path d="M185.11,272.66c-1.2,1.38-3.13,3.55-4.59,2.65-.45-.28-1.2-1.36-.87-1.75,1.28-1.52,2.5-2.62,3.81-4.02,1.14-1.21.29-3.36.93-3.71.2-.11.76-.1.95.03,1.39.93.69,2.24,1.56,2.95.62.5,1-1.28,1.95-1.47.73-.15,1.25-.91,1.72-1.13,1.08-.49,1.94-.83,2.99-1.44.41-.24,1.16.88.93,1.37l-1.4,2.98c-.37.78-.61,2.24-1.36,2.73-2.41.24-2.2-3.96-4.4-2.3l-1.55,1.17c-.38.29-.34,1.55-.68,1.94Z"/>
  <path d="M184.26,136.1c-2.89-1.91-3.72,2.83-6.92-.6-.31-.33-.13-1.38.26-1.53,2.87-1.07,2.18-1.68,3.76-1.61l1.59.06c2.22.09,1.21-2.23,3.29-1.31.66.3,3.17.99,3.3.37.29-1.38-.29-1.29.13-2.22.26-.57,1.9-.92,2.76-.56.99.42-.47,1.59.58,3.25l-1.22.32c-1,.26-1.97.84-2.93,1.43l-2.13-.55c-1.31.9-.56,2.09-1.24,2.97-.17.23-.92.18-1.23-.02Z"/>
  <path d="M234.07,170.91c-.68.41-3-.65-2.73-1.58.08-.26.49-.57.76-.84,1.64-1.66,2.05-.71,5.27-3.41l2.17-1.82,3.85-1.66c.29-.12,1.17.04,1.38-.16.48-.47.7-1.78,1.57-1.62.27.05.74.42.85.67s-.24.78-.46,1.04c-2.98,3.4-2.66,4.66-5.59,5.71-1.37.49-1.46-.87-2.45-1.18-.22-.07-.83.22-.97.45l-1.79,2.97c-.3.5-1.35,1.13-1.87,1.45Z"/>
  <path d="M221.39,171.59c-.02-4.08,4.33-1.74,3.93-4.08-.18-1.09.42-2.66,1.7-2.6.93.04,1.21-.13,1.74-.78.8-.98,2.37-1.17,3.47-1.77.58-.32,1.14-1.16,1.81-1.31.73-.16,1.25.45,1.52,1.03.19.42,0,1.32-.46,1.76-2.87,2.76-6.41.87-6.38,2.72l.03,2.19c-3.02,1.49-4.09,4.64-7.36,2.85Z"/>
  <path d="M172.09,122.99l-2.11.22c-1.03.11-2.19.18-3.24.09-.6-1.32.85-2.15.26-2.78-.2-.21-.92-.32-1.24-.16-1.11.57-3.65.27-3.59-1.37.06-1.85,2.88-3.14,4.45-2.95.35.41.97,1.14,1.39,1.08.98-.64,1.85-.46,2.89.04l.91.44c.26.12.5.95.24,1.07l-1.15.52c-.32.14-.29,1.21-.11,1.52l1.3,2.28Z"/>
  <path d="M246.19,173.95c-.24,1.23-5.16,2.05-6.8,1.58-.94-.27-1.07-2.04-.55-2.72,4.64.31,3.27-4.28,4.91-3.67l1.33.5,2.39-1.89c.52-.41,1-.9,1.57-1.43.45.14,1.24.46,1.82.72-.13,1.5-3.31,4.54-5.14,3.8.43,1.12.69,1.98.48,3.1Z"/>
  <path d="M231.08,180.13c-1.3.39-3.22-.42-3.51-1.82-.16-.75,1.13-1.18,1.53-1.55.96-.88,1.86-1.41,3.06-1.81,2.84-.95,2.16-.1,2.98-.77-.43-1-.73-1.81-.91-2.76.66-.23,1.56-.23,2.12-.18.83-.57,1.39-1.88,2.88-1.55.12.57.19,2.24-.57,2.71l-2.77,1.72c-.79.49,1.1,2.57-.89,3.72-.82.47-1.43,1.05-2.14,1.75l-1.77.53Z"/>
  <path d="M171.31,141.94c-1.71,1.29-2.43-1.14-3.37-.84-.26.08-.58.4-.96.71-.58.49-1.93.42-2.58-.15-.43-.38-.49-1.18-.29-1.67.19-.46.8-1.06,1.41-1.15l5.28-.72.51-2.35c.99-1.11,3.67-.53,4.39-.03.21.15.15.7.05,1.05-.46,1.61-1.81.87-2.19,1.61l1.12,1.79c-1.44.43-2.29.96-3.36,1.76Z"/>
  <path d="M253.33,228.89c-.45-1.25-2.22-2.53-1.37-3.43s2.78-.93,4.13-.65c.83-.78-.78-2.46.6-3.79.14-.13.81.16.87.34l1.28,3.58c.48,1.34.68,2.1-.16,3.31s-1.8,3.02-3.27,3.61c-1.44-.24-1.65-1.75-2.09-2.98Z"/>
  <path d="M179.98,213.46c-.73,1.02-2.64.83-3.16-.17-.62-1.19.63-1.93,1.3-2.55.79-.74,1.14-.78,2.26-.55.71.14,1.2-1.15,1.48-1.8.17-.38,1.15-.57,1.67-.65.13-1.51.85-2.37,1.98-3.4.6-.55,2.2-.98,2.94-1.24.23-.08.28-.84.37-1.06.11-.27.97-.24,1.13,0,.35.49.2,1.66-.15,2.08-.78.94-1.3,1.76-1.89,2.76-.78,1.34-2.49,1.71-4.01,1.16-.71,1.74.19,3.24-2.67,3.94-.45.11-.89.97-1.26,1.49Z"/>
  <path d="M193.87,49.32c-.59.28-2.06-.13-2.49-.6-.49-.53-.67-1.98-.1-2.42.66-.51,1.54-.76,2.43-1.05.95-.32-.83-1.73-.47-3.03,1.27-.54,4.52-1.55,5.52-1.34,1.21.26-.08,2.72-.58,3.41l-2.18.33c1.06.36,2.33-.22,2.75,1.09.48,1.5-3.31,1.63-4.87,3.62Z"/>
  <path d="M181.71,127.52l-2.4.85c-.25.09-.7.61-.95.67-.29.07-.81-.18-1.19-.37-.96-.49-1.27-1.32-1.67-2.2-.52-1.14-.09-2.08.77-2.82.22-.48.56-1.58.94-1.97,1.2-.23,3.53-1.34,4.33-.58.18.17.23.73.19,1.03l-.34,2.55c-.42.27-1.02.66-1.43,1.09.68.8.3.17,1.93.67.24.07.06.99-.18,1.08Z"/>
  <path d="M221.61,71.41c.09,1.14-1.24.61-3.21,1.68-2.79-1.72-5.18.48-6.17-1.7-.28-.62-.41-2.15.55-2.33,1.67-.31,3.56-1.3,4.74-2.47.21-.2,1.13-.15,1.27.09.43.76-.26,2.13-.61,2.91.29,1.77,3.35.73,3.44,1.81Z"/>
  <path d="M174.97,100.96c-.54.09-1.65-.53-1.99-1.08-.52-.86,1.66-.8,1.36-3.18.9-1.28,3.07-2.06,4.64-1.49.42.15,1.15.7,1.61,1.03.42.3.09,1.56-.19,1.99l-1.38,2.08-4.06.64Z"/>
  <path d="M272.01,133.39c-1.19.37-2.55-.42-2.48-1.61.14-2.37,3.53-2.01,3.83-2.5.44-.71,1.32-2.94.78-4.06-.68-1.43-1.13-2.83-.98-4.44.03-.28.51-.83.79-.83s.8.51.81.8l.09,2.79.11,1.97c.26,4.7,1.26,2.67.74,5.19-.36,1.75-1.63,3.07-3.7,2.69Z"/>
  <path d="M186.18,142.89c-3.16-2.35-6.24,1.59-7.1-.47-.21-.51-.17-1.05-.11-1.67l-.1-1.51c2.08,1.43,2.46-.08,4.54,1.4,1.15.82.88-.17,3.62-1.71.36-.2.92-.74,1.29-.75,1.17-.03.72.99,2.52,1.39-.55,2.15-1.11,1.06-2.31,2.34-.56.6-1.54,1.59-2.36.97Z"/>
  <path d="M258.44,156.6c.23,1.11-4.46,1.76-4.89.71-.25-.7-.75-1.97-.87-2.7-.24-1.57,1.5-2.68,2.88-2.54.87.09,1.96-.45,2.67.08.79.59.53,1.57.17,2.37-.26.57-.13,1.31.03,2.09Z"/>
  <path d="M253.25,261.11c-.25-2.14,3.53-1.1,3.08-4.01-.05-.3.34-1.02.59-.97,1.08.24,1.45,2.73,2.59,1.9.89-.65.42-2.59,1.56-3.16.29-.14.96.18,1.12.52.14.29-.02.88-.27,1.21-.83,1.1-1.45,2.45-2.57,3.17-.88.56-1.72.95-2.34,1.77-.51.69-1.16,1.13-2,1.04-.64-.07-1.66-.71-1.75-1.48Z"/>
  <path d="M248.65,174.02c-.42-.88-.64-2.11.08-2.6.64-.44,1.78-.98,2.46-1.34.96-.51-.04-2.51,1.68-3.45.94.46,1.8,1.31,1.94,2.29-2.06,2.72-.16,2.86-2.61,4.61-.49.35-1.1,1.08-1.59,1.17-.55.1-1.74-.2-1.96-.66Z"/>
  <path d="M215.87,41.34l-1.1,1.05c-1.1.13-2.07.26-3.17.47-1.68.31-3.63-.63-4.11-2.35-.3-1.05,1.09-1.43,1.69-1.7,1.47-.66,2.22.29,3.35.64.83.26,1.34-.71,3.41.9.19.15.1.84-.06,1Z"/>
  <path d="M223.03,15.12c-4.65-.11-4.9,1.24-6.43.42-.49-.26-1.03-.65-1.09-1.04-.16-1.07.85-2.17,2.42-2.33s7.14-.62,6.19,1.99c-.13.35-.68.97-1.09.96Z"/>
  <path d="M198.54,165.92c-.38-.23-.91-1.1-.87-1.49.05-.53.91-.91,1.4-1.14,2.31-1.11,2.78-1.93,5.97-3,.38.01.43,1.02.41,1.41-.11,2.07-1.46,3.15-3.43,3.66-.97.25-2.31,1.25-3.48.55Z"/>
  <path d="M174.91,84.95c-.35-.38-.69-1.29-.85-1.71.12-1.17,1.19-1.69,2.18-2.11l2.4-1.01c.38-.16,1.3.18,1.58.46.88.88-.06,1.13-1,3.64-.55,1.48-3.11,2.04-4.3.72Z"/>
  <path d="M174.8,267.51c-.72.74-1.24,1.26-2.3,1.07-.73-.13-1.3-.78-1.55-1.76-.11-.43-.02-1.38.29-1.63,1.4-1.08,1.25.48,3.62-1.81.8-.77,1.86-1.17,2.92-.62.24.53.02,1.66-.42,2.11l-2.56,2.65Z"/>
  <path d="M190,117.02c-.67,2.09-3.24,1.4-5.34,1.62-.9.1-1.83.4-2.65-.17-.5-.35-.63-1.49-.5-2.09.11-.51.77-1.32,1.37-1.47l1.89.55c1.5-.17,2.49.25,3.74.86l1.48.71Z"/>
  <path d="M253.07,184.72c-2.51-.38-3.23,3.02-5.37,1.07-.76-.7-.7-2.08.05-2.98l3.16-1.01,1.21-2.1c.09-.16.56-.4.73-.48s.59.4.51.57c-1.09,2.55.28,3.11-.31,4.92Z"/>
  <path d="M170.04,181.74c-2.36.65-1.55,2.15-2.73,2.98-.46.33-2.16-.33-2.36-1.29-.13-.64.16-1.36.65-1.8.7-.62.85-1.75,1.39-2.47.93-1.22,3.24-.66,3.99.48.58.87-.08,1.86-.95,2.1Z"/>
  <path d="M258.71,145.6c-2.35.61-4.34,1.14-6.75,1.01-.47-.02-.79-1.26-.65-1.71.42-1.4,1.52-1,3.1-2.23,1.4.09,2.73.36,4.27.72l.04,2.21Z"/>
  <path d="M175.24,116.73c-.31-.62-.32-1.44.32-1.65l2.76-.89c.98-.31,2.33-.85,3.19-1.32.25-.14.9.3.93.57.15,1.67-2.16,1.28-3.03,4.34-.19.67-1.6.84-2.25.75-.93-.14-1.39-.76-1.91-1.8Z"/>
  <path d="M257.02,163.77c-4.09.73-3.01,2.8-4.89,1.98-.79-.35-2.14-1-1.95-2.02.24-1.29,1.93-1.26,2.83-1.68.85-.39,2.7-2.23,4.32-.36.45.51.27,1.99-.31,2.09Z"/>
  <path d="M194.67,159.96c-1.67.1-2.37,1.58-3.33,2.62s-3.21-.15-3.36-1.48c-.07-.63-.04-1.39.28-1.74,1.25-1.37,3.54-.69,4.27-.59.63.08,1.92-.67,2.53-.32.19.11.4.59.4.78,0,.24-.46.71-.79.73Z"/>
  <path d="M194.03,121.52c-1.02.77-2.67,1.24-3.73.19-.47-.47-.06-1.57.31-2.05,1.05-1.36,2.57-.57,3.9-1.01,1.45-.49,4-.8,4.09.77.08,1.32-2.52.54-4.56,2.1Z"/>
  <path d="M246.63,54.11c1.78,2.38-1.17.97-3.55,2.66-1.06.75-2.18.36-2.84-.47-.47-.59-.78-2.52.2-2.64l3.84-.49c1-.13,1.75.15,2.35.94Z"/>
  <path d="M169.27,136.17c-1.21,1.06-4.35,2.7-6.15,1.7-.36-.2-.83-.83-.82-1.19.02-1.36,1.05-.62,3.06-2.65.46-.47,1.92-.57,2.32-.09l1.25,1.47c.13.16.48.64.34.76Z"/>
  <path d="M279.53,257.16c-.61-.37-1.48-1.19-1.75-1.81-.49-1.12.18-1.77.87-2.32,1.24-.99,1.65-2.59.56-3.82-.17-.19-.24-.6-.16-.8.11-.28.76-.22.98-.01,2.17,2.15-.05,2.22,1.75,4.99.7,1.08-.06,2.09-1.02,2.68l-1.22,1.09Z"/>
  <path d="M197.9,124.79l-5.12,1.68c-.7.23-1.64-.44-1.95-.86s-.34-1.83.19-2.01l2.57-.87c.57-.03,1.79.14,2.31.34l1.78.67.61.23c.18.07-.18.76-.4.83Z"/>
  <path d="M186.25,233.28c-.88-.71-1.48-2.37-.49-2.86,1.08-.54,1.82-.95,2.35-2.1.32-.7,1.95-.86,2.44-.2-.05,1.66-2.17,6.88-4.3,5.16Z"/>
  <path d="M233.57,95.07c-1.37.12-2.87-1.2-2.3-2.58.32-.79,1.57-1.1,2.32-1.49.66-.34,1.53-1.29,2.35-.94,1.04.45.9,2.41.04,3.09l-2.4,1.92Z"/>
  <path d="M226.5,176.42c-1.56.9-2.51-1.49-2.45-1.74s.5-.59.8-.79l3.42-2.25c.32-.21,1.13.26,1.27.57.16.37.1,1.08.05,1.59-.23,2.15-.74,1.27-3.08,2.62Z"/>
  <path d="M175.81,133.4l-3.67,1.03c-.79.22-1.94-.2-2.25-.83s-.47-1.3-.23-1.78c.72-1.42,6.69-1.17,6.16,1.58Z"/>
  <path d="M206.87,80.25c-.41.3-1.2.4-1.54.21-.7-.38-1.62-2.28-1.15-2.73,1.58-1.5,4.82-1.42,5.65-.87.25.16.27,1.03.02,1.21l-2.98,2.17Z"/>
  <path d="M205.19,177.76c-.75,1.79-3.11,4.6-5.18,4.11-1.04-.24-1.17-1.6-.9-2.35.74-2.1,3.07-.57,4.46-1.59l.84-.62c.19-.14.77.27.79.45Z"/>
  <path d="M185.2,124.93c-.59.32-1.24-.03-1.59-.56-.46-.72-.7-1.25-.42-1.79.79-1.55,1.14-.93,4.12-1.34.33-.05.95.36,1.08.67.14.35-.03,1.3-.37,1.48l-2.81,1.54Z"/>
  <path d="M192.37,139.08l-1.08-.19c-.19-.03-.73-1.27-.67-2.15.02-.29.54-.54.94-.67,1.98-.66,2.94-2,3.58-1.33.19.2.14.68.04,1.04l-.56,2.11c-.29,1.1-1.19,1.38-2.24,1.19Z"/>
  <path d="M267.52,93.18c-.55,1.09-1.63.43-3.59,1.64l-1.95-.83c-.44-.99-.02-1.84.65-2.39s1.65-.53,2.52-.12l2.09.98c.15.07.34.57.27.72Z"/>
  <path d="M256.4,219.98c-1.08.95-2.18,5.22-4.13,3.39-.4-.37-.4-1.7-.06-2.12.66-.81,1.34-1.32.58-2.81.85-.11,1.55.07,2.21.54l1.4,1Z"/>
  <path d="M190.77,147.33c-.87-.19-1.6-.92-2.15-1.35.52-2.24,2.32-1.47,4.67-1.98.39-.08,1.43.26,1.33.66-.24.94-1.11,1.34-1.92,1.72-.45.22-1.32,1.09-1.93.96Z"/>
  <path d="M265.96,154.61c-.59,1.55-.92.26-2.37,2.94-.63.3-2.02-.03-2.18-.86-.22-1.13.6-2.59,1.54-3.14,1.01-.6,2.46.13,3.02,1.06Z"/>
  <path d="M172.54,113.73c.91,1.31-2.9,1.6-3.46,2.23l-2.16-1.69c1.06-1.79,2.8-2.07,4.54-1.28.36.16.88.46,1.07.74Z"/>
  <path d="M249.18,44.16c-.45-.06-1.04-1.19-.96-1.66.17-1.02,1.26-1.63,2.14-1.93,1.01-.34,1.91-.79,2.99-.84.47-.02.47,1.38.07,1.44-2.82.41-2.12,3.28-4.23,2.99Z"/>
  <path d="M164.32,237.72c-.94-.41-1.71-.72-2.35-1.32-.47-.45.51-1.41,1.09-1.4,1.82.03,2.12-1.92,3.1-1.18s-1.01,2.99-1.84,3.89Z"/>
  <path d="M169.91,224.23c-.04.38-1,.51-1.45.44-1.39-.2-1.18-2.41-1.08-3.59l2.85-.04-.32,3.19Z"/>
  <path d="M171.8,216.28c.27.32-.52,2.07-.79,2.11-.57.08-1.92-.5-2.21-.84,0,0-.6-2.46.62-2.73s1.24.09,2.38,1.46Z"/>
  <path d="M263.86,250.19c-1.04.48-1.65.85-2.34,1.59-.5.03-1.22-.57-1.45-1.07-.22-.47-.02-1.65.3-2.14,1.26-.62,2.92.26,3.5,1.62Z"/>
  <path d="M275.73,183.78c-.31,2.06-.05,3.38-.56,3.68-.16.1-.75-.16-.83-.37-.2-.55-.15-1.58-.08-2.31.08-.8-.66-2.02.67-2.38.41-.11.88.93.8,1.39Z"/>
  <path d="M279.38,148.51c-1.94-.34-1.63-2.73-1.26-3.69.1-.27.96.02,1.19.23.9.82,1.02,2.41.07,3.46Z"/>
  <path d="M284.31,192.92c.17.74.62,1.13-.03,1.78-.79-.68-2.23-3.84-1.18-4.89.12-.12.57.35.62.55l.59,2.56Z"/>
  <path d="M188.6,129.62l-.74.52c-.15.1-.67-.4-.6-.57.16-.4.72-1.07,1.16-1.56.33.41.46.56.55.73s-.2.76-.37.88Z"/>
  <path d="M147.56,23.48c-.21-.84-.12-1.44.21-2.16l.8,1.04c.19.25-.17.68-1.01,1.12Z"/>
  <path class="cls-1" d="M255.68,115.24l-1.72,1.4c-.17.13-.66.28-.85.24s-.42-.39-.42-.58c0-.23.37-.69.6-.77,3.16-1.11,2.47-2.64,4.59-2.99.8,1.01,1.66,1.18,2.74.72,2.57-1.1,1.56-1.54,2.81-2.21.17-.09.44.6.33.8-1.28,2.51-1.7,3.28-4.05,3.36s-2.31,3.46-3.43,1.23l-.61-1.21Z"/>
  <path class="cls-1" d="M268.12,114.31c.61.44.04,1.78-.51,1.82-.25.02-.6-.65-.56-.88l.15-.8c.04-.2.74-.26.91-.14Z"/>
  <path class="cls-1" d="M263.23,118.8l-.57.72c-.14.18-.73-.15-.81-.36-.15-.4.75-.95,1.11-1.14.17-.09.41.59.26.78Z"/>
  <path class="cls-1" d="M272.99,201.1c-1.54-.63-.43,2.39-3.79,3.31-1.19.33-2.41.69-3.62-.29.51-.76,1.1-1.65,1.72-2.35.28-.32,1.31-.26.97-.92-.67.19-2.06.54-2.18-.24-.16-1.06,1.18-1.37,1.95-1.46l1.42-.16,2.74.86c.63-.67,3.38-2.05,4.4-2.21.37,1.75,1.24,4.59-1.23,5.04l-.16,2.26c-.31.72-3.34,1.23-3.88.77-.31-.26-.49-1.32-.26-1.66.78-.41,1.67-.98,2.24-1.83.18-.26-.04-1.01-.32-1.12Z"/>
  <path class="cls-1" d="M263.51,233.58c-.36-.17-.53-1.13-.41-1.48s.72-.94,1.09-.86c3.16,1.53,2.88-2.34,4.73-1.22.36.22.41,1.16.25,1.55-.26.65-3.23,3.12-5.66,2.01Z"/>
  <path class="cls-1" d="M265.65,195.31c.23.13.19.96,0,1.14-.66.61-2.07,1.23-3.1.19-.44-.44-.4-1.69.39-1.93.63-.19,2,.19,2.71.6Z"/>
  <path class="cls-1" d="M280.75,201.42c-.42.85-1.55.94-2.3.9-.22-1.01.15-2.11,1.22-2.36.48-.11,1.38.85,1.08,1.46Z"/>
  <rect class="cls-1" x="209.99" y="47.47" width="2.15" height=".86" transform="translate(.85 99.4) rotate(-26.55)"/>
  <path class="cls-1" d="M227.46,36.03c-.86,1.04-1.93.89-3,.39,1.06-.28,1.89-.41,3-.39Z"/>
  <path class="cls-1" d="M175.46,237.35c-.21.4-.57.98-.86,1.24-.76-.2-1.06-1.54-.45-1.78,2.49-.98.64-2.61,2.01-3.72.29-.23,1.27.29,1.18.65l-1.15,2.18-.73,1.44Z"/>
  <path class="cls-1" d="M177.68,230.23c-.03.91-.52,1.75-1.14,1.78-.86-.66-1.1-2.12-.52-3.03.16-.25.92-.29,1.14-.11.26.21.55.87.53,1.36Z"/>
  <path class="cls-1" d="M184.39,221.27c-.29,0-.77-.48-.88-.38l-.53.46c-.16.14-.67.18-.88.19s-.19-.83-.03-.95l1.69-1.3c.12-.09.71-.3.75-.15l.19.73c.1.36.06,1.43-.3,1.42Z"/>
  <path class="cls-1" d="M194.5,78.3c-1.19.2-1.8.29-2.61.78-.54.33-1.94-.17-2-.75,0-1.35,4.27-1.64,4.61-.03Z"/>
  <path class="cls-1" d="M192.71,62.83c-.56.16-1.43-.05-1.39-.35.04-.38.29-.86.49-.96.24-.13.77.05,1.01.25.22.19.19.97-.11,1.06Z"/>
  <path class="cls-1" d="M192.78,244.43c-.22.74-3.13,0-3.73-.47-.38-.3-.61-1.48-.53-1.95.23-1.34,3-1.22,3.07-1.18.59.35-.28,1.95.66,2.73.31.25.6.65.53.88Z"/>
  <path class="cls-1" d="M183.09,257.75c-.44.17-.87-1.23-.75-1.7.34-1.22,1.55-.99,2.82-2.17.49,1.01-.87,3.1-2.08,3.86Z"/>
  <path class="cls-1" d="M188.41,256.67c-.45-.9-.29-1.96.53-2.6.35.29.77.99.69,1.34-.11.48-.67,1.07-1.22,1.26Z"/>
  <path class="cls-1" d="M198.43,242.1c-.15.22-.81-.16-.95-.42-.13-.23.02-.99.27-.93l.92.22c.22.05,0,.8-.24,1.13Z"/>
  <path class="cls-1" d="M186.39,196.18l-1.96.36,1.74-2.03c.36-.42.89-1.08,1.33-1.23.76-.26,2.9.7,2.83,1.46-.12,1.36-3.15,1.31-3.94,1.45Z"/>
  <path class="cls-1" d="M195.19,196.97l-1.11.31c-.23.06-.1-.96.1-1.09l2.25-1.42c.14-.09.64-.14.79-.14s.16.57.12.77c-.18.95-1.19,1.31-2.15,1.57Z"/>
  <path class="cls-1" d="M175.78,192.94c-.14.36-.8.83-1.13.73-.35-.11-.7-.72-.66-1.11l.06-.69c.01-.16.57-.17.68-.05l1.04,1.12Z"/>
  <path class="cls-1" d="M181.99,160.81c-.37.19-1.36.22-1.6-.08-.4-.51.21-1.33.8-1.47.27-.07.8.15.94.38s.12,1.04-.14,1.17Z"/>
  <path class="cls-1" d="M184.79,97.87c-.71.18-1.55-.88-1.57-1.43,1.75-.64,3.4-1.06,4.8-2.04.3-.21.61-.7.87-.8s.88.07,1.23.25c-.8,1.69-3.54,3.56-5.34,4.01Z"/>
  <path class="cls-1" d="M194.89,96.73c-.54,1.49-2.14.52-4.6,1.18.23-.52.79-1.25,1.25-1.39l2.41-.74c.18-.05.62,0,.76.07.18.09.26.65.18.88Z"/>
  <path class="cls-1" d="M265.88,162.64c-.84.91-2.24,2.89-2.63,2.16-.11-.21-.12-.63-.1-.97.09-1.47,1.45-2.46,2.8-2.28.33.04.13.86-.08,1.09Z"/>
  <path class="cls-1" d="M268.86,159.45c-.28.27-.85.44-1.27.34.01-1.41,1.25-2.89,2.44-3.43.22-.1.78.27.75.51s-.18.89-.35,1.06l-1.57,1.52Z"/>
  <path class="cls-1" d="M273.11,145.58c-.39.53-2.84.62-3.13-.31.83-.78,2.28-.95,3.22-.65.12.18.04.78-.09.96Z"/>
</svg>