<?xml version="1.0" encoding="UTF-8"?>
<svg id="Layer_2" data-name="Layer 2" xmlns="http://www.w3.org/2000/svg" viewBox="0 0 432 288">
  <defs>
    <style>
      .cls-1 {
        fill: #fff;
      }
    </style>
  </defs>
  <path class="cls-1" d="M65.58,2.01h267.3v283.98H65.58M188.08,44.26c-.46-.42-.85-.68-.9-.94s.13-.87,0-1.12c-.22-.44-.79-1.37-.5-1.7.46-.52,1.12-.66,1.74-.54,1.21.22,2.07-.77,2.27-1.88l1.74.12-3.08-1.9-2.35.95c-.21.7-.46,1.42-.88,1.45l-.76.07c-.11,0,.02.51.12.47l.6-.24c.21-.09.18.67.06.86s-.59.36-.76.22c-.94-.72-.38-2.26-1.54-4.11-.45.37-1.01.81-.85,1l.85.98-1.85.6c-.47.15-1.88-.21-1.9.28-.02.45.46,1.28.79,1.25l1.39-.14c1.71,2.91-4.8,3.89-2.8,4.39l1.05.26c2.76.69,2.39-1.37,3.26-.4l.52.58,2.16.57c.5.13,1.51-.74,1.61-1.09ZM200.7,40.47l2.27-1.56c-.29-1.09-.54-1.82-1.29-2.78-1.04.99-2.3,3.43-.99,4.34ZM259.36,237.99c.36-.09.83-.33.9-.19l.36.7c.12.24.83.06.88-.18l.18-.89c.24-1.18,1.68-.22,1.95-.79l.48-.99,2.64.79c.27.09.37,1.07.14,1.26l-.98.8c-.48.4-1.28.74-1.97.93-.23,1.11-.67,2.45-1.52,3.24l-1.59-1.25c.53-.45.87-.88.87-1.22,0-.9-2.38.07-2.58-.67l-.34-1.23c-.29.85-.08,1.82.45,2.53-1.09,1.2.05.08-1.29-.46-.14-.06-.28.42-.28.57v2.53c.01.37.43,1,.7,1.37l-1.91.77-2.8,5.79-2.69,1.28c-1.34.64-2.11,2.49-1.52,3.41.42.65,1.37.12,4.46.88,1.03.25,1.98.13,2.34,1.42.15.54.77,1.39,1.26,1.56.6.21,1.48-.03,2.11-.2l1.73-.48,1.13,1.52,1.45-1.17.74,1.85c.28.13,1.11.64.92.83l-.98.97c.26.5.87,1.34,1.36,1.94,1.87-2.55,1.32-.22,3.66-1.53.18-.1-.08-.85-.29-.81l-1.81.39c-.57-.85.18-1.74.64-2.15-2.6-.81-.12-1.15-2.59-2.38-.24-.16.5-.81.82-.93.38-.14,3.47,3.44,4.88,1.76l1.36-1.61-.22-1.26c.67-.32,1.15-.64,1.32-1.1.12-.31.04-1.12-.26-1.27l-.78-.39c-.15-.07.15-.58.32-.59l.59-.05c.96-.08,2.01-.22,2.74-.43-.17-.7-.43-1.28-.18-1.37.41-.15.97-.27.95-.49-.01-.16-.16-.7-.11-.85l.93-2.84c.14-.42,1.16-.34,1.78-.14.14-.14.51-.86.36-1.14l-.59-1.1,1.73-1.46,2.1-.12.43-1.35c-.52.09-1.17.19-1.57.18-.31-.01-1.54-1.93-1.36-2.13l.78-.87.87,1.82c.06.13.46.47.5.34l.18-.61.23-.79c.05-.16.55-.14.63,0l.39.77c.34.67,2.56.35,2.92-.33,1.6-3,.76-3.85,3.16-7.51l2.01-3.08c.55-.84,1.15-1.41,2.04-2.1-1.85-.96-1.48-2.74-1.47-4.26l.03-4.27c0-1.17-1.2-2.9-1.5-4.16l-1.33-.63c-.73-.35-1.74-1.51-2.48-1.75l-3.22-1.07,2.36-1.32-.6-.99c-.13-.22-.93.16-1.16.05l-2.01-1,1.9-1.31-1.39-1.02,1.3-1.86c-1.51-.3-1.87-1.4-1.91-2.71l-1.64-.77c-.25-.31-.7-3.46-.57-3.42l.89.27c-.02.11.15-.75.21-1.05.06-.28-.46-.59-.91-.81-.96-.48-1.12-1.98-2.86-2.39l-2.92-.68c-.18-.04.2-.72.31-.83l-1.65-.99c-.11-.07-.7-.07-.67.06l.19.7c.06.22,0,.66-.12.83s-.82-.15-1.07-.06c-1.19.4-2.58-.04-3.43-1.41-.4-.65-1.05-.99-.92-2.03.2-1.58-1.77-1.44-1.5-2.13.06-.14.29-.43.44-.4l.85.17c.23.05.29-.73.11-.9s-.88-.4-1.12-.3l-2.87,1.13-1.25-.19c.25.81.36,2.12-.41,2.52-.7.37-2.13.18-2.78-.26-.3-.2.06-1.29.41-1.27l1.34.07-.59-1.2,1.05-1.26,3.68.45c.75-.8,1.45-1.32,2.08-1.72.24-.15.66-.66.87-.83.39-.31,2.06,1.05,2.06.37v-.94c0-.53-2.05.65-2.63-.23l-.85-1.28c-1.95.33-.28-.6-3.92-.95.15-.53,1.57-1.53,2.04-1.09.28.26.52,1.06.76.97l.96-.35c.22-.08.69-.34.89-.46s0-.86-.15-1.03l-2.02,1.09c-.12-.6-.32-1.5-.68-1.58-.26-.05-.86.7-1.08.56l-1.07-.67c2.35-2.45,2.64.67,4.29-.91l.19-.95c.04-.22,1.03-.15,1.2,0,.42.37.75,1.59,1.08,2.06l1.16,1.66c-1.18.6-1.8,1.52-1.54,2.43,1.08-.36,1.96-.28,2.67.12l-.8,1.4,2.14-.27c1.29.78,2.98.88,4.14-.2l-.91-1.83c-.61-1.22-.73,1.41-1.56,1.38-.29,0-.85-.27-1.09-.48l-1.62-1.47c-.16-.74-.32-2.5.25-2.97.52-.42,1.28-.79,1.41-1.2.11-.36-.48-1.29-.93-1.3l-4.39-.09c-.7-.01-1.58-.86-1.76-1.42s-.07-2.02.44-2l2.19.04c-1-.8-1.54-.93-2.33-1.39l-1.82-1.08c-.27-.57-.51-1.03-.73-1.39-.07,1.4-.1,2.58-.25,3.36-1.24.15-1.56.33-2.4,1.09l-1.73-2.6c-.43-.64-2.3.05-3.06.19l-2.28.43c-1.03.2-1.74.91-1.87,1.79l-1.67-.92c.82-2.49,3.42-.87,3.28-1.53-.24-1.16-.93-2.55-2.34-2.99l2.21-.96c.05.05.37.35.39.36.02.01-.36.21-.59.33l1.95.64c.53.18,1.18.36,1.57.2.52-.21.8-1.01.56-1.42-1.61-2.83.8-1.14,4.58-4.49l-1.71-1.76c-.36-.37-1.55-.44-2.21-.7l2.85-.56c.24-.53.62-1.16,1.28-1.57l-.3-1.18-3.32.06c.38.69.65,1.02,1.41,1.95l-2.15-.45c-.1-.31.27-1.38.46-1.76.18-.36-.61-.97-.99-1.02-.31-.04-.91.5-1.01.8-.82,2.41-.78.28-4.05,1.11.07.76.14,1.29.06,1.63-.11.49-2.31,1.36-3.99-.35-.16-.16-.83-.35-.96-.15l-.45.69c-.27.41-1.29,1.24-1.65.86-.92-.96-.74-2.42-.69-3.49-.32-.16-1.19-.42-1.08-.66l.48-.98c.29-.59-.23-2.08-.61-2.49-.54.1-1.11.36-1.29.17l-.61-.64c-.41-.05-1.18.05-1.27-.27l-.44-1.51c-.58-.51-2.47-.96-1.79-2.1.71-.21,1.75-.63,1.67-1.58-.83.64-1.32,1.06-2.5,1.26l.98-1.79-1.39-.69,1.7-2.02,1.46-1.81-2.43-.41c1.58-1.88-.78-1.93,1.18-3.58.15-.13.56-.54.42-.64l-.46-.34c-.23-.17-.71-.38-.68-.59l.14-.8c-.34-.4-.8-.91-.89-1.29-.08-.33.45-.94.84-1.22.49-.34.58-1.07.73-1.68.27-1.13.39-1.79-.62-2.61l-.57-.46c-.14-.11-.02-.72.15-.71s.97.01,1.12-.08c.96-.62.72-4.23-1.43-5.33,1.68-1.64,3.65-.78,4.07-.07.44.76.83,1.27,1.42,1.89l1.14,1.19c.24.25,1.31-.36,1.66-.2,1.08.48,2.75.3,4.07.36l2.94.12c-.05-.66-.14-.94.05-1.05s.96-.17.91.04l-.31,1.22c4.51.97,1.98-.18,5.69-1.98-.36.88-.66,1.4-.41,1.67.22.24.92.29,1.21.2l1.11-.36c.16-.05.28.65.16.78l-.5.55c-.52.58-1.06,1.32-1.36,1.96,1.49-.24,1.72-1.48,2.97-.63l-2.05,1.16c2.63.63,3.37-1.95,5.48-.22.08-.03.27-.62.11-.66l-.91-.21c-.38-.09-.89-.43-1.24-.78-.04.02-.3.34-.43.24l-.72-.55-.61-.46c-.12-.09,0-.46.14-.46l.68-.03c.36-.01,1.23-.08,1.3-.42.06-.28.1-1.07.08-1.1-.79.5-1.34.72-1.99.63l-1.78-.27,1.07-1-1.23.18c.66-.1-3.88-1.86-3.49-2.26.35-.65.61-1.24.5-1.3l-1.53.38c-.65.16-.92-1.26-2.31-1.48-.16-.96-1.19-1.59-2.43-1.53-.13.09-.33,1.02-.12,1.23l1,1.03c-.84.26-2.18-.03-2.45-.69l-.59-1.44c-.98.1-.75.04-.17-.09l1.4-.39c.29-.08.45-1.05.35-1.24l-1.36.97c-1.94-.11-3.3-1.62-3.83-3.3-1.13.14-2.15.11-2.88-.78l-2.7-.12c-1.02-1.37-2.61-1.38-4-.53l.44-1.34c.06-.18-.27-.45-.61-.96l1.96-.13c.55-.04,1.45-.83,1.12-1.22-.88-1.03-1.07-1.64-1.25-2.92-.25-1.73-3.08-.26-5.01-1.97-.24-.21-.26-1.14-.55-1.18l-1.5-.2c.25-.27.78-.92,1.12-.84,2.51.57,2.25.67,2.85,1.91.24.49,1.67-.51,2.12-.28l3.03,1.51,2.39-2.65c-1.35-.47-1.42-1.26-1.45-2.27-.59.31-1.27.53-1.72.41-.21-.06-.36-.85-.18-.98,1.03-.71,1.09.67,2.5-.44-.85-1.59,1.89-3.05,1.14-4.39l-1.16-2.08c-1.27.65-2.4.43-2.94-.84l2.27.22c.79-.4,1.69-1.59,1.97-2.46l-1.17-1.04-1.55-1.4c-.92-.84-1.63-1.78-2.78-2.25l-1.35,1.8-2.62-.72-2.43-.77-.79-1.04c-1.39-.75-6.59.13-4.94-1.4l.85-.79-1.71-.8c-.16.84-1.19,1.55-1.52,1-1.2-2.01-2.65-1.78-2.63-1.82l-.68,1.25-1.42-2.11-2.93-1.15c-.37-.14-1.46.02-1.46-.31l1.55-1.75-.94-1.66,1.25-.88-1.15-1.48c2.67.32,4.07-1.62,4.39-.95l.37.78,1.07-.56c.27-.14.38-.94.28-1.22s-.8-.47-1.11-.67c-.05-.48-.07-1.53-.06-1.95l1.04.3c.8.23-1.38-3.09-.23-3.86l1.84-1.23-.82-.96c-.13-.15.56-.59.48-.76-.12-.25-.74-.83-.56-1.03l.89-1.05-1.36-.52-.59-.74,2.27-1.25c-.01-.17-.6-.84-.86-.91s-.56.16-1.1.37l-.93-1.71.93-1.79,1.06.13c.22.03.49-.91.27-.94l-.89-.15c-.39-.07-1.01-.63-.98-.99.03-.3.45-.81.71-.96l.89-.53c.18-.11-.55-.78-.52-.99.54-3.84-.87-4.19-1.09-3.91l-.59.75c-.88,1.13-1.51,1.81-2.71,2.88l1.51.84-1.38,2.1.24,1.6c-2.1-1.51-4.08.35-4.44-.84l-.47-1.54c-.12-.38-1.06-.93-1.11-1.37-.04-.39.11-.92.28-1.48l-1.72.73-2.19-2.71c0-.29.09-.85-.14-.89-.35-.07-.91-.15-.9.09l.05,1,.04.83c0,.15.59-.17.71-.09l1.22.88-1.4,2.09-1.55-.83-1.8-.22c.98-1.18,1.65-3.83,1.62-5.01-.57.03-1.16.07-1.43.23-.81.49-.03,2.39-.8,2.67l-1.97.74c.12-1.62-.66-3.06-2.07-3.36,0,.79-.37,2.06-1.12,1.97-.29-.04-.93-.59-1.15-.45l-1.2.75-.61-1.91-3.63-.29c-.02,1.19-.74,2.43-1.13,3.52-.25.68.14,1.67-.55,2.13s-1.34.49-2.26.29c-.1.36-.09.93-.33,1.05l-1.16.59,1.03.1c.16.02.15.46.03.57l-.44.42,1.34,1.25c-.74.02-1.53.09-1.92-.04l-2.75-.88,2.06-1.28c-1.9-1.31-1.78,1.26-4.31.66l-.64,4.22,2.5.16.64,2.68-.19,1.37c3.24,1.78,1.26,3.62,3.85,4.54,2.9,1.02,1.39,1.49,5.16,2.98.62-1.31,1.46-1.08,2.6-1.33.45-.1,1.58-.37,1.75.06.06.17-.57.69-.46.84l.41.57c.08.11-.09.51-.19.65-.28.39-1.35-1.3-2.42-.05,1.07.39,1.41.81,1.23,1.82-.1.54-.87,1.14-1.38,1.05l.05-1.23c0-.2-2.68-.59-3.65.28-.14.13-.15,1.01.03.95l.88-.3c.39-.13,1.01-.29,1.31-.14.79.38,1.03,2.38.88,2.53l-.85.86c-.25.26-.8.99-1.11.85l-3.51-1.54-.07-1.7,1.08.11.66.07c.15.02.43-.55.3-.62l-.71-.37c-.25-.13-.93-.5-1.12-.31l-.86.83c-.2.19-1.08.48-.94.71l.57.96c-1.63,4.49.11,1.75.02,4.57-.09,2.68-1.14.98-1.98,4.56,4.59,1.74.28,4.13,3.38,6.38l.15.62c.03.14.56-.03.5-.11-.03-.33.14-.88.34-.98.38-.18,1.01-.33,1.28-.2,1.12.56-.93,1.51-.74,3.34l-1.38.45c.22.35.75.95.56,1.21l-.73.96c-.16.21.19.93-.01,1.09l-.8.62c-.31-.45-.74-1.16-.96-.99s-.52.49-.91.91c-.22.23-1-.31-.77-.61l.78-1.05-2.46-.15c-.14-.02.28-.82.53-1.02.62-.48,1.47,1.06,1.99.61l.66-.56-2.2-.65-.89.34c-.18.07-.62-.36-.82-.34l-3.21.22c-.29.02-.89.19-.84.39l.24.98-1.48-.04.21-1.26-3.34,1.89c-1.26.71-1.35,2.74-.69,3.85l1.66.72c.3,3.8.27,1.33,2.16,4.46.26.42.53.95.63,1.27.08.27-.68.88-.63,1.16l.4,2.19,3.13-1.36c.02.67-.37,1.44-.8,1.97l.78.56c.13.09-.35.56-.48.47l-.69-.47c-.61-.42-1.24.99-1.73.35l-.71-.94-1.47,2.17-.41-1.44c-.43.09-1.66.23-2.14.47l-2.12,1.09c-.22.11-.81.5-.7.69l.43.69c.34.56.67,1.1.7,1.52.03.47-.82,1.06-.99,1.43l-2.08,4.69,3.25.66c2.82,4.03,2.65,1.04,3.17,4.42.19,1.22.22,2.11-.62,3.61l1.44.59c.37.15-.24,1.49-.56,1.27-.39-.27-1.24-.78-1.48-.53-1.02,1.08-.8,1.25-1.64,1.75-.23.14-.8-.37-.89-.63-.34-1.06.44-.7.41-2.04-.01-.77-2.46.54-2.64,1.18.18.98,1.21,2.34,1.97,2.31l1.12-.05c1.16-.05-.94,1.7-.81,2.91-1.2-.17-2.01-1.58-2.51-2.83-.6-1.47-2.51-1.65-3.93-1.09l-2.75-.46c-.16-1.04-.72-1.46-1.61-1.85-.2-.48-.4-1.53-.63-2.46-1.58,4.1-3.18,2.18-5.06,4.62l-.91-.04c-.15,0-.38.48-.51.59l-3.79,3.02-2.02,1.39c-.42.29-1.05.35-1.74.26.2,2.72-1.21,2.57-2.69,3.94,1.67,2.09-.6.5,1.11,4.62-.67,0-1.76.25-1.74.64.32.76,1.13,1.97,1.49,2.51-.48.49-.89,1.16-.75,1.67l.7,2.49c-.49.84-1.05,1.78-.62,2.81.83-.16,1.7-.65,2.4-1.35.37-.37,1.01.46.98.98-.02.34-.74.59-1.18.7l-1.09.28c-.23.06-.08.9.04,1.13l1.31,2.29,1.65-.5-.87-1.24,1.79-1.08-.47,1.38c-.07.22.9.18,1.18.22l.81,2.01-1.48.88c.83-.09,1.2-.24,2.03-.57l1.11,1.11.58.52c.13.12-.39.65-.52.52l-.72-.69-2.39.92.99,1.3-1.33,2.19c-.48.03-1.11.09-1,.11.88,1.81.36,2.9,1.35,5.12.66,1.47,3.03.72,3.9-.51.77,2.41,3.56,3.11,2.36,3.32l-.62.11-.9.15c-.18.03.2.78.36.73l3.41-.99.93-1.11.7,1.44,2.6.57-1.44,1.31.41.87,2.01-.86,5.03,1.25c1.33.33,2.63-1.23,3.84-1.45.64-.12,1.84.95,2.28-.33.14-.4.6-.92,1-1.33.04-.17-.37-1.04-.11-1.12l1.17-.32c.57-.16-.49,1.52,3.51,2.47.62.27.09,2.07-.32,2.49.62.27,1.65.6,2.07.98l2.82,2.6c1.2-.55,1.58-1.2,2.26-1.97.95-.76,3.27-1.03,4.39-1.06.33,1.01,1.39,2.69,1.68,2.9.2.14.86-.31.75-.53-.18-.36-.32-1.27-.04-1.38.98-.39,1.45-1.74,1.81-2.73.25-.67.53-1.3.39-2.02,1.02-.42,1.79-1.14,2.57-2.11.3-.38.96-.97,1.24-1.36l1.44-2.03,2.12,1.32c.73-.14,1.23-.05,1.88.34l1.27-.72c.08.31.21,1.1.1,1.37s-.75.45-.98.7c-.51.63-1.73,1.25-2.15.45-.46-.88-.8-1.36-1.62-1.11-.75.23-1.16,1.25-.7,1.72l2.23-.27c-.09.74-.31,1.57.04,1.61l1.59.17c.1.05.13.86.04,1.14s-.69.51-1,.5l-2.12-.04c-.81-.95-2.98-1.1-3.69-.6-.32.22-.03,1.28-.11,1.67l-.57,2.6c-.16.72-1.01,2.39.03,2.82,1.29.53,2.04-1.51,2.15-2.46.03-.26.75-.75.61-.98l-.61-1.04c1.59.11.97,2.13,2.84,1.71,1.18-.26.27-1.17,2.13-2.4l1.04,1.36c.8-.11,1.27.16,1.68.68.15-.16.75-.76.59-.95l-.79-.9,1.17-1.29-2.02-.67c-.02-.29-.06-.8.12-.85,2.75-.74-.17-.39,2.94-1.44l.78-2.43-.68-1.21,1.4.42c.29.09.73-.62,1.02-.75.15-.07.5.64.35.71l-.84.37c-.38.25,1.07,1.34,1.33.95.34-.53.73-1.64.83-1.98l1.64.4c.53.13,1.27.59,1.75.91.21-.54.47-1.42.16-1.59l-1.15-.63c-.65-.35-1.04-.43-1.97-.5,2.29-2.09,2.97-.27,3.3-.86l.41-.73,1.14,1.42c.69.85,1.68,1.23,2.67.76l-1.71-1.12c-.22-.14-.67-.89-.43-.94l.86-.17c1.52-.31,2.11.39,2.87,1.38.23.29.97.97.71,1.2-.77.41-2.01,1.3-1.51,2.17.16.28.82.66,1.11.7s.83-.53.67-.77c-.29-.43-.67-1.14-.43-1.38.2-.2.79-.53,1.07-.59l.66-.15c.79-.18-1.47-.79-.96-1.19.18-.14.68-.42.91-.45l.93-.14c.67-.1-1.39-1.05-.73-1.56l.81-.65c.32-.25.92-.6,1.25-.71.28-.1.93.41,1.13.67-.74.31-.96.4-1.16,1.02-.15.44.44.88,1.02,1.21l-.14,1.16c.36.38.66.72.85.96.49.64-2.54.83-1.16,1.34.1.04.43.14.58.17,1.03.18,1.5,1.05,1.61,1.95.86-.2,1.98-.51,2.59.2.92,1.06-1.46,2.56-1.05,3.17.16.24.49.59.79.89l1.61,1.66-.69,1.5,2.07.6c.09-.37.17-1.01-.03-1.14l-.75-.52c1.5-1.02,2,.99,3.07,1.73.2.14,2.53-.12,1.71.37l-.47.28c-.2.12-.92.4-.79.58l.66.91c.19.5.24.56.11-.09l.59-1.31c.12-.27.96-.24,1.07.02l1.03,2.51c.29.7-.3,1.36,1.08,4.36l.94,2.04c.56,1.22,1.46,2.03,2.49,2.92.92.79,1.85,1.16,2.98,1.61,1.02.41,1.23,2.09,3.07,1.91l-1.17,1.8c-.16.25.81.71,1.04.52l.98-.81c.35-.29,1.43-.1,1.72.25,1.21,1.47,2.82.39,2.99,1.38.05.29-.03.91-.01,1.22l.1,1.66-1.44,1.22c.69,2.94-.57,2.86.48,7.11.13.52.9,1.57,1.28,1.96.81.82,2.37-.06,3.2-.33.1.8.3,2.26,1.07,2.53,1.11.39,2.25.99,3.25,1.18,1.46.29,3.01.25,4.1.83-.71.77-1.06,1.69-1.49,2.24-.85,1.09-2.16,1.65-1.96,3.09.18,1.35,1.2,1.9,2.05,2.81.72.76.88,1.9,2.39,1.74l2.08-.22c.54-.06,1.46-.09,2-.06l2.19.12-.57-1.44c.27-.43.74-1.26.77-1.49-1.39.45-2.59.94-3.45.24-.05-3.09,1.58-1.31,2.01-2.93,1.44-.81,3.18-2.03,3.55-3.87.46-.25,1.27-.28,1.76-.16.45.11,1.13.83.93,1.14l-1.53.63c-.32.13-.19,2.77-.81,2.27l-1.14-.94-1.2,2.01,3.55.33,1.07.93c.12.1.72-.32.78-.18l.29.71,1.45-.66c.22-.1.63-.3.49-.44l-.63-.61c1.51-.38,2.4-2.23,3.03-1.35.17.24.3.99.5,1.22.22.25,1.2.21,1.34.51.11.25.24.93-.02,1-.41.11-1.06.14-1.13.37l-.32,1.06c-.08.26-.26.68-.45.67l-.94-.08,1.19,1.73c.99,1.43-.94.19-.5,3.3.07.48-1.44.98-1.74.61l-1.35-1.65c-2.39-2.92-3.96-.15-6.31-.06l-.2,2.16c-.69.77-3.1-1.71-3.12-1.58l.26-1.47c-2.73.98.16-.05-4.22,0h-1.14c-.22.01-.29.93-.47,1.08-1.69,1.37-4.12-1.33-6.61-.35,0-.65-.21-1.67-.71-1.86l-2.05-.77c-.08,1.01.65,1.94,1.65,2.2l.82,1.86c.81.07,1.62.21,1.72.89.14.89-.79,2.05-2.05,2.62-1.61.72.69,2.31-.24,5.21ZM179.43,45.25c-.78-.84-1.66-1.14-2.42-.81l1.16,1.37c.21.25,1.21-.24,1.26-.56ZM224.72,52.95c.59-.02.93.02.88-.1s-.23-.55-.23-.67l-.05-2.83c0-.43-.37-1.32-.71-1.22-.62.18-3.38,1.84-2.24,3,.78.8.6,2.46,2.01,2.37-.23-.81-.12-1.11.34-.55ZM246.33,106.88c.16-.07.03-.76-.15-.78s-.61-.02-.8.04l-2.42.79c.98.47,2.64.28,3.37-.05ZM254.41,109.92c-1.15.19-2.48.19-2.85-.57-.09-.19,0-1.03-.19-.98-.19.06-.73.22-.72.22l.77,2.26c1.01.61,2.66.09,2.98-.93ZM259.71,116.31l1.37-1.05-1.46-.43c-.35-.1-1.33-.03-1.53.27s-.44,1-.57,1.41l1.29-.67c.24-.12.8.47.9.46ZM161.45,121.83l1.33-.07-.49-1.24c-1.2.73-2.31,1.49-2.55,3.11,1.3.04,1.04-1.76,1.71-1.79ZM245.53,126.91c.61-.44.94-1.35.35-1.95l-1.3,1.48c-.12.13-.2.68-.23.88-.02.16.46.1.6,0l.58-.41ZM242.44,131.31l2.06-1.14c-.59-.88-1.06-1.6-1.86-2.3.09.9.29,1.32.56,2.01l-.87.5c-.2.12.08,1.08.1.93ZM241.04,134.48l3.76-.97-1.14-1.2c-.72.6-1.61.55-2.69.33-.76-.16-.5,1.99.07,1.85ZM245.95,137.21l-1.89-.69-.28-1.95c-.95.26-1.8.64-2.35,1.05,1.19.88,1.47,1.04,2.21,1.83l2.31-.25ZM241.44,137.47c-.09-.26-1.34-.14-1.27.04.05,1.08.51,2.49,2.06,2.14l-.79-2.18ZM242.52,143.86l-.98-.7c-.33.6-.11,1.73.51,2.11.27.17,1.08-.11,1.16-.4s-.36-.78-.69-1.01ZM145.02,162.19c.37.11,1.17-.75,1-.83-1.22-.35-2.35-.77-3.39-1.28.57-.78.84-1.22.54-1.79l-2.55,2.3c.59,1.83.99.57,4.4,1.59ZM213.76,173.91c.37-.09.44-1.03.21-1.35s-1.49-.6-1.45-.22l.12,1.28c.02.24.74.39,1.11.3ZM148.12,268.1l1.33.66.72-2.06c.09-.25-.69-.89-.56-1.12l.61-1.06-2.82-1.64c-.39-.23-1.15-.48-1.13-.83.01-.29.35-.92.62-1.15l2.2-1.86-1.73-1.09c.98-.38,1.92-.6,2.75-.49l2.38.3c.67-1.91-.32-3.01-1.6-3.93l1.05-3.05.93-.4-.5-2.58c1.76-1.01,1.87-2.6,1.92-4.24.03-.87.17-1.49-.67-2.07l.4-1.2c.69.82,1.47,1.64,2.4,1.53.86-.1,2.25-.52,2.82-.99l2.32-1.92c.37-.31.83-.69.93-1.02.09-.27-.5-.94-.52-1.23l-.24-2.58-2.08-.92c.14-.41.58-1.13.89-1.54l-1.91-1.56-.49,3.01-2.16-1.09c-.27-.14-.95-.69-.74-.87.2-.17.63-.53.59-.5.55.39.49.37.63.4s.66-.16.57-.27l-.49-.66-1.44-.65,2.26-.5c.14-.03.5-.21.6-.25s-.04-.47-.14-.44l-.7.22c1.22-2.74,2.88-.04,4.88-1.83,2.33-2.08,1.95,0,3.71-2.05l1.05,1.24c3.12-1.29,1,2.21,5.7-1.66-1.33-.99-1.55-1.96-2.02-3.14-.22-.56-1.37-1.39-1.48-1.96l-.21-1.14c-.04-.21-.79.15-1.06.17-.63-.46-.65-1.49-.68-2.34l-.04-1.04c-.02-.41,1.55-.62,1.76-1.55.07-.33-.36-1.18-.68-1.3l-1.68-.65-1.71.2c-.26.03-.97.61-1.14.4l-.64-.79-.98.75c-.24-.68-.48-1.26-.26-1.47.77-.72,1.3.17,2.43-.26.31-.12.36-1.17.64-1.34.26-.16.99-.31,1.28-.4s.34-.9.28-1.09c-.92.4-3-.37-2.62.26l.4.66c.1.16.25.76.07.69-.12-.04-.55-.19-.68-.2l-2.78-.14c-.12-.99,1.45-1.51,2.08-1.2.21.1.41-.82.19-.78l-.86.14c-.41.07-.99-.75-1.41-1.18-.5.82-1.8,1.4-2.61,1.18-.19-.16.28-.84.47-1.09l.53-.72c.08-.11.46,0,.69.02l1.07-2.98,1.9,1.17c-.22.24-.69.91-.46,1.04.86.44,3.53.05,4.21-.67,1.18-1.25.07-3.06-1-3.74.96.04,2.45.19,2.9-.66.52-.98-1.05-2.65-1.78-2.26-.91.48-1.94,1.07-2.64.6l.16-1.32c.03-.2-.69-.41-.81-.6l-1.39-2.09c1.01-.12,1.73.79,2.08,1.77l1.99-.18c.46,0,1.25.02,1.49-.05l-.88-1.76c.78-.5,2.08-.99,2.27-1.67.43-1.56-1.76-4.44-1.84-4.43l-1.32.09c-.28.02-.92-.27-1.17-.43-.19-.12.67-.71.61-.93-.19-.67-1.08-1.76-1.74-2.26l-1.76-1.34c-.36-.88,1.14-1.63,1.82-2.09l1.95-1.33c-.55-1.81-1.92-.7-2.72-1.07-1.27-.6-2.15-.65-3.49-.63-1.02.02-2.08-.81-3.25,0-2.22,1.5-4.47-1.87-6.43.19-.57.59-1.59,1.91-1.71,2.69l-.31,2.21,2.8,2.02c.95.69,2.41,2.1,3.58,1.87.85-.17,2.02-.68,2.35.45l.25.83c.11.36,1.83-.38,1.89.2l.13,1.36c.02.25.52.82.31.94l-1,.54c-.06-.89-.38-1.25-1.24-1.54l-1.01-1.66c-.61.38-1.38.76-2.14.64-.4-.06-.96.86-.74,1.21.18.29.6.6,1.15,1.03l-.88.41c-.61.28-1.04.77-.72,1.4.28.54.84.53,1.54.52h.99s-.63-1.52-.63-1.52c-.11-.26.4-.69.79-1.05l.56,1.18.59-.56c.07-.07.3.32.34.37l-.57,1.36c-.15.36-.36,1.26-.72,1.22l-1.52-.16-.19,1.61c-.04.3-.72.51-1.11.72-.22.12-.75,0-.9-.19-.15-.2-.28-.69-.09-.75l.91-.29c.09-.03-.02-.26-.08-.35l-2.36-.96c-.28-.11-1.19-.26-1.18.04l.04,1.09c.01.37-.46,1.09-.68,1.34-.69-.35-1.71-.68-2.16-.4-.13.08-.42.6-.5.73-.06.09-.29-.11-.34-.2-.64-1.09-.82-.93-3.68.09-.47.17-1.72.03-2.15.32-1.44.95-3.15,1.69-4.91,1.98-.82.13-.95,1.45-1.28,1.92-.53.78-1.31,1.47-.59,2.8l-2.03.81c-1.58,3.29,1.76.92,1.14,6.64l-2.21,2.77c-1.13,1.42-2.77,2-3.19,1.87-.32-.1-.93-.53-1.32-.75-.48-.27-1.41.47-1.73.94l-1.07,1.6c-.52.16-1.66-.34-2.36-.87l-2.22-1.69c-1.08-.82-1.21,2.42-1.91,3.17l-1.28-.41.29-.89c.05-.15-.42-.41-.47-.43-.12,2.04-2.83,1.84-2.18,2.22l.64.38c2.67,1.59-.5.87,1.69,5.22,1.29,2.55-.31,4.92.82,5.72.11.08.81-.15.75-.03l-.33.73c3.28,2,2.07,4.06,4.57,5.61,1.86,1.15,2.25.46,3.31,2.3.99,1.74,3.91,4.16,5.61,5.67-3.33,1.47-3.16,0-4.43.63-.32.16-.44,1.07-.69,1.37-.58.66-1.21,1.37-.98,2.43-.31.48-1.67.31-2.12-.08l-.73,1.16c-.13.2-.87-.1-1.11-.12l-1.05-.08c-.31-.02.2.77-1.19,2.84-.87,1.29-1.7,2.41-2.9,3.47l.2,2.55c.06.77.31,3.83,1.51,3.77l1.35-.07c.12,0,.42.53.47.65s.18-.08.53-.43c.22.04.55,1.17.25,1.43s-.86.53-1.65.95c2.19,2.23,4.57,3.67,7.3,4.91,1.31.6,3.32,2.8,4.77,2.74l2.22-.09c.97-.04,2.22-.01,3.13.02l1.49-.5.51,2.13h2.86c.05-.88.18-1.87.68-2.16,1.78-1.06,2.52,1.67,3.96-.38.72-1.03,1.61-1.43,2.98-1.53,1.04-2.75-.62-3.4.74-4.43.4-.3,1.9-.11,1.8.42l-.58,3.31ZM275.8,190.8c.12.2.73.64.87.45l.49-.65c.51-.68.8-1.52.35-2.23-.48-.76-.86-.85-2.09-1.34l2.13-1.48-1.11-1.11c-.53.35-1.31.45-1.33.82l-.11,1.84-1.82-.94c.75,2.17,3.03,1.65,3.07,2.24.08,1.13-1.14,1.25-.87,1.71l.41.69ZM250.64,214.93l1.16,1.47c.51-.36.96-.8,1.01-1.15.06-.38-.37-1.29-.75-1.3-.99,0-2.86,1.22-2,1.9.07.06.17.04.21-.06l.37-.87ZM280.08,224.4l-1.81-.08h-1.71c-.22.02-.75.29-.93.42s.42.78.59.63c2.11-1.8,3.86,2.64,3.86-.97ZM247.17,229.51c.41.36.9.75,1.17.8s.47-.73.37-.98l-.49-1.25c-.11-.28-1.1-.25-1.28,0-.34.49-.78,1.18-1.22,1.9l1.45-.47Z"/>
  <path d="M259.36,237.99c.93-2.9-1.37-4.48.24-5.21,1.26-.57,2.19-1.73,2.05-2.62-.1-.68-.91-.82-1.72-.89l-.82-1.86c-1-.27-1.73-1.19-1.65-2.2l2.05.77c.5.19.71,1.21.71,1.86,2.49-.98,4.92,1.72,6.61.35.19-.15.26-1.07.47-1.07h1.14c4.38-.06,1.49.97,4.22-.01l-.26,1.47c.02-.12,2.43,2.35,3.12,1.58l.2-2.16c2.34-.09,3.92-2.86,6.31.06l1.35,1.65c.3.37,1.81-.13,1.74-.61-.44-3.11,1.49-1.87.5-3.3l-1.19-1.73.94.08c.19.02.37-.4.45-.67l.32-1.06c.07-.22.71-.26,1.13-.37.27-.07.14-.75.02-1-.13-.3-1.12-.26-1.34-.51-.2-.23-.32-.98-.5-1.22-.63-.88-1.52.98-3.03,1.35l.63.61c.14.13-.27.34-.49.44l-1.45.66-.29-.71c-.06-.14-.66.28-.78.18l-1.07-.93-3.55-.33,1.2-2.01,1.14.94c.61.5.48-2.14.81-2.27l1.53-.63c.2-.3-.48-1.02-.93-1.14-.49-.12-1.3-.09-1.76.16-.37,1.84-2.11,3.06-3.55,3.87-.43,1.62-2.06-.17-2.01,2.93.86.7,2.06.22,3.45-.24-.03.23-.5,1.06-.77,1.49l.57,1.44-2.19-.12c-.54-.03-1.46,0-2,.06l-2.08.22c-1.52.16-1.67-.97-2.39-1.74-.85-.9-1.87-1.45-2.05-2.81-.19-1.45,1.11-2.01,1.96-3.09.43-.55.78-1.47,1.49-2.24-1.1-.58-2.64-.54-4.1-.83-.99-.19-2.14-.79-3.25-1.18-.78-.28-.97-1.73-1.07-2.53-.82.27-2.39,1.15-3.2.33-.38-.38-1.15-1.43-1.28-1.96-1.05-4.25.21-4.17-.48-7.11l1.44-1.22-.1-1.66c-.02-.31.06-.94.01-1.22-.17-.99-1.78.1-2.99-1.38-.29-.35-1.37-.54-1.72-.25l-.98.81c-.23.19-1.2-.28-1.04-.52l1.17-1.8c-1.85.19-2.06-1.5-3.07-1.91-1.13-.45-2.06-.82-2.98-1.61-1.03-.89-1.93-1.7-2.49-2.92l-.94-2.04c-1.38-3.01-.8-3.67-1.08-4.36l-1.03-2.51c-.11-.27-.95-.29-1.07-.02l-.59,1.31c.13.66.08.59-.11.09l-.66-.91c-.13-.19.59-.47.79-.58l.47-.28c.82-.49-1.51-.23-1.71-.37-1.07-.74-1.57-2.75-3.07-1.73l.75.52c.2.14.12.77.03,1.14l-2.07-.6.69-1.5-1.61-1.66c-.3-.31-.63-.66-.79-.89-.41-.61,1.96-2.11,1.05-3.17-.61-.71-1.73-.4-2.59-.2-.12-.9-.59-1.77-1.61-1.95-.15-.03-.48-.13-.58-.17-1.37-.51,1.65-.7,1.16-1.34-.19-.24-.49-.58-.85-.96l.14-1.16c-.58-.33-1.17-.77-1.02-1.21.21-.61.43-.71,1.16-1.02-.2-.26-.86-.76-1.13-.67-.33.11-.94.46-1.25.71l-.81.65c-.65.52,1.41,1.46.73,1.56l-.93.14c-.22.03-.73.31-.91.45-.51.39,1.75,1.01.96,1.19l-.66.15c-.28.06-.87.39-1.07.59-.24.24.14.95.43,1.38.16.24-.38.82-.67.77s-.95-.41-1.11-.7c-.5-.87.74-1.76,1.51-2.17.27-.23-.48-.91-.71-1.2-.76-.99-1.34-1.68-2.87-1.38l-.86.17c-.24.05.21.8.43.94l1.71,1.12c-.99.46-1.98.08-2.67-.76l-1.14-1.42-.41.73c-.33.59-1.01-1.23-3.3.86.93.07,1.33.15,1.97.5l1.15.63c.31.17.05,1.05-.16,1.59-.48-.32-1.22-.79-1.75-.91l-1.64-.4c-.11.34-.49,1.45-.83,1.98-.26.4-1.71-.69-1.33-.95l.84-.37c.15-.07-.2-.78-.35-.71-.29.13-.73.84-1.02.75l-1.4-.42.68,1.21-.78,2.43c-3.11,1.05-.2.7-2.94,1.44-.18.05-.14.56-.12.85l2.02.67-1.17,1.29.79.9c.16.18-.44.79-.59.95-.41-.52-.88-.79-1.68-.68l-1.04-1.36c-1.87,1.23-.95,2.14-2.13,2.4-1.87.41-1.26-1.6-2.84-1.71l.61,1.04c.13.22-.59.72-.61.98-.11.95-.86,3-2.15,2.46-1.04-.43-.19-2.1-.03-2.82l.57-2.6c.09-.39-.2-1.45.11-1.67.71-.49,2.88-.35,3.69.6l2.12.04c.31,0,.91-.22,1-.5s.06-1.1-.04-1.14l-1.59-.17c-.34-.04-.12-.87-.04-1.61l-2.23.27c-.45-.47-.05-1.49.7-1.72.82-.25,1.16.23,1.62,1.11.42.8,1.63.18,2.15-.45.24-.25.88-.43.98-.7s-.02-1.06-.1-1.37l-1.27.72c-.65-.39-1.14-.47-1.88-.34l-2.12-1.32-1.44,2.03c-.28.39-.93.98-1.24,1.36-.78.97-1.55,1.69-2.57,2.11.14.71-.14,1.34-.39,2.02-.36.99-.83,2.34-1.81,2.73-.28.11-.14,1.02.04,1.38.11.22-.55.66-.75.53-.29-.21-1.35-1.89-1.68-2.9-1.12.03-3.44.31-4.39,1.06-.67.77-1.06,1.42-2.26,1.97l-2.82-2.6c-.42-.38-1.44-.72-2.07-.98.41-.42.94-2.22.32-2.49-4-.96-2.94-2.63-3.51-2.47l-1.17.32c-.27.07.14.95.11,1.12-.4.41-.86.93-1,1.33-.44,1.29-1.64.22-2.28.33-1.21.22-2.5,1.78-3.84,1.45l-5.03-1.25-2.01.86-.41-.87,1.44-1.31-2.6-.57-.7-1.44-.93,1.11-3.41.99c-.17.05-.55-.7-.36-.73l.9-.15.62-.11c1.2-.2-1.59-.91-2.36-3.32-.87,1.23-3.23,1.98-3.9.51-1-2.21-.48-3.3-1.35-5.12-.1-.02.52-.08,1-.11l1.33-2.19-.99-1.3,2.39-.92.72.69c.13.12.65-.4.52-.52l-.58-.52-1.11-1.11c-.83.33-1.2.48-2.03.57l1.48-.88-.81-2.01c-.29-.03-1.26,0-1.18-.22l.47-1.38-1.79,1.08.87,1.24-1.65.5-1.31-2.29c-.13-.22-.27-1.07-.04-1.13l1.09-.28c.44-.11,1.16-.36,1.18-.7.03-.51-.61-1.35-.98-.98-.7.7-1.57,1.19-2.4,1.35-.43-1.03.13-1.97.62-2.81l-.7-2.49c-.14-.51.27-1.18.75-1.67-.36-.54-1.17-1.75-1.49-2.51-.02-.39,1.07-.65,1.74-.64-1.72-4.12.56-2.53-1.11-4.62,1.49-1.37,2.9-1.22,2.69-3.94.69.09,1.32.03,1.74-.26l2.02-1.39,3.79-3.02c.13-.1.36-.59.51-.59l.91.04c1.87-2.44,3.48-.52,5.06-4.62.23.93.42,1.98.63,2.46.89.38,1.45.81,1.61,1.85l2.75.46c1.41-.57,3.33-.39,3.93,1.09.5,1.25,1.31,2.66,2.51,2.83-.13-1.21,1.97-2.96.81-2.91l-1.12.05c-.76.03-1.79-1.33-1.97-2.31.18-.64,2.63-1.95,2.64-1.18.02,1.34-.76.98-.41,2.04.08.26.65.77.89.63.84-.5.61-.67,1.64-1.75.24-.25,1.09.26,1.48.53.32.23.94-1.11.56-1.27l-1.44-.59c.84-1.5.81-2.39.62-3.61-.52-3.37-.35-.38-3.17-4.42l-3.25-.66,2.08-4.69c.16-.37,1.02-.96.99-1.43-.03-.42-.35-.96-.7-1.52l-.43-.69c-.12-.19.47-.57.7-.69l2.12-1.09c.48-.25,1.7-.38,2.14-.47l.41,1.44,1.47-2.17.71.94c.49.65,1.12-.77,1.73-.35l.69.47c.13.09.6-.38.48-.47l-.78-.56c.43-.53.82-1.31.8-1.97l-3.13,1.36-.4-2.19c-.05-.27.71-.89.63-1.16-.1-.32-.37-.85-.63-1.27-1.89-3.14-1.86-.66-2.16-4.46l-1.66-.72c-.66-1.11-.57-3.14.69-3.85l3.34-1.89-.21,1.26,1.48.04-.24-.98c-.05-.21.55-.37.84-.39l3.21-.22c.2-.01.64.41.82.34l.89-.34,2.2.65-.66.56c-.53.44-1.37-1.09-1.99-.61-.25.19-.67,1-.53,1.02l2.46.15-.78,1.05c-.22.3.55.85.77.61.39-.41.7-.73.91-.91s.65.54.96.99l.8-.62c.2-.16-.15-.89.01-1.09l.73-.96c.2-.26-.34-.86-.56-1.21l1.38-.45c-.18-1.84,1.86-2.78.74-3.34-.27-.13-.89.01-1.28.2-.21.1-.38.65-.34.98.06.09-.47.26-.5.11l-.15-.62c-3.1-2.25,1.2-4.64-3.38-6.38.84-3.58,1.9-1.88,1.98-4.56.09-2.82-1.66-.08-.02-4.57l-.57-.96c-.14-.24.74-.52.94-.71l.86-.83c.19-.19.86.18,1.12.31l.71.37c.14.07-.14.64-.3.62l-.66-.07-1.08-.11.07,1.7,3.51,1.54c.31.14.86-.6,1.11-.85l.85-.86c.15-.15-.09-2.15-.88-2.53-.3-.14-.92,0-1.31.14l-.88.3c-.18.06-.17-.83-.03-.95.97-.87,3.66-.48,3.65-.28l-.05,1.23c.51.09,1.28-.51,1.38-1.05.18-1.01-.15-1.43-1.23-1.82,1.06-1.24,2.14.44,2.42.05.1-.14.27-.54.19-.65l-.41-.57c-.1-.15.53-.67.46-.84-.17-.43-1.29-.16-1.75-.06-1.14.25-1.98.02-2.6,1.33-3.77-1.49-2.26-1.96-5.16-2.98-2.59-.91-.61-2.75-3.85-4.54l.19-1.37-.64-2.68-2.5-.16.64-4.22c2.53.6,2.41-1.97,4.31-.66l-2.06,1.28,2.75.88c.39.12,1.19.05,1.92.04l-1.34-1.25.44-.42c.12-.11.13-.55-.03-.57l-1.03-.1,1.16-.59c.24-.13.23-.7.33-1.05.92.2,1.58.17,2.26-.29s.31-1.45.55-2.13c.39-1.09,1.11-2.34,1.13-3.52l3.63.29.61,1.91,1.2-.75c.23-.14.86.41,1.15.45.75.09,1.13-1.18,1.12-1.97,1.41.3,2.19,1.73,2.07,3.36l1.97-.74c.76-.29-.02-2.18.8-2.67.26-.16.86-.21,1.43-.23.03,1.18-.64,3.83-1.62,5.01l1.8.22,1.55.83,1.4-2.09-1.22-.88c-.12-.08-.7.24-.71.09l-.04-.83-.05-1c-.01-.24.55-.15.9-.09.23.04.13.6.14.89l2.19,2.71,1.72-.73c-.17.56-.32,1.09-.28,1.48.05.44.99,1,1.11,1.37l.47,1.54c.37,1.19,2.34-.67,4.44.84l-.24-1.6,1.38-2.1-1.51-.84c1.2-1.06,1.83-1.75,2.71-2.88l.59-.75c.22-.28,1.63.07,1.09,3.91-.03.21.7.89.52.99l-.89.53c-.26.15-.68.67-.71.96-.03.37.59.93.98.99l.89.15c.22.04-.04.97-.27.94l-1.06-.13-.93,1.79.93,1.71c.54-.21.84-.44,1.1-.37s.85.74.86.91l-2.27,1.25.59.74,1.36.52-.89,1.05c-.18.21.44.79.56,1.03.08.17-.6.61-.48.76l.82.96-1.84,1.23c-1.15.77,1.03,4.09.23,3.86l-1.04-.3c0,.43.01,1.48.06,1.95.3.2,1,.39,1.11.67s0,1.08-.28,1.22l-1.07.56-.37-.78c-.32-.67-1.72,1.27-4.39.95l1.15,1.48-1.25.88.94,1.66-1.55,1.75c0,.32,1.09.16,1.46.31l2.93,1.15,1.42,2.11.68-1.25s1.43-.19,2.63,1.82c.33.55,1.36-.15,1.52-1l1.71.8-.85.79c-1.65,1.53,3.55.64,4.94,1.4l.79,1.04,2.43.77,2.62.72,1.35-1.8c1.16.48,1.86,1.42,2.78,2.25l1.55,1.4,1.17,1.04c-.28.87-1.17,2.06-1.97,2.46l-2.27-.22c.54,1.27,1.67,1.49,2.94.84l1.16,2.08c.75,1.34-1.98,2.8-1.14,4.39-1.4,1.11-1.46-.27-2.5.44-.19.13-.03.93.18.98.45.12,1.13-.1,1.72-.41.03,1,.1,1.79,1.45,2.27l-2.39,2.65-3.03-1.51c-.45-.23-1.89.77-2.12.28-.6-1.23-.35-1.33-2.85-1.91-.34-.08-.86.57-1.12.84l1.5.2c.3.04.32.97.55,1.18,1.93,1.71,4.76.25,5.01,1.97.18,1.28.38,1.89,1.25,2.92.34.4-.57,1.19-1.12,1.22l-1.96.13c.34.51.67.78.61.96l-.44,1.34c1.39-.85,2.98-.84,4,.53l2.7.12c.73.9,1.75.93,2.88.78.53,1.68,1.88,3.19,3.83,3.3l1.36-.97c.1.19-.06,1.16-.35,1.24l-1.4.39c-.57.13-.8.19.17.09l.59,1.44c.27.66,1.61.95,2.45.69l-1-1.03c-.2-.21,0-1.13.12-1.23,1.24-.06,2.27.57,2.43,1.53,1.39.22,1.66,1.65,2.31,1.48l1.53-.38c.11.06-.15.65-.5,1.3-.39.4,4.15,2.17,3.49,2.26l1.23-.18-1.07,1,1.78.27c.65.1,1.2-.13,1.99-.63.01.03-.02.81-.08,1.1-.07.34-.94.4-1.3.42l-.68.03c-.14,0-.26.37-.14.46l.61.46.72.55c.13.1.39-.21.43-.24.35.35.86.69,1.24.78l.91.21c.17.04-.03.63-.11.66-2.1-1.73-2.85.85-5.48.22l2.05-1.16c-1.25-.85-1.48.38-2.97.63.3-.63.83-1.38,1.36-1.96l.5-.55c.12-.13,0-.83-.16-.78l-1.11.36c-.29.1-.99.04-1.21-.2-.26-.28.05-.79.41-1.67-3.71,1.8-1.18,2.95-5.69,1.98l.31-1.22c.05-.21-.72-.15-.91-.04s-.1.38-.05,1.05l-2.94-.12c-1.32-.06-2.99.13-4.07-.36-.35-.16-1.42.45-1.66.2l-1.14-1.19c-.6-.62-.98-1.13-1.42-1.89-.41-.71-2.39-1.57-4.07.07,2.15,1.1,2.39,4.72,1.43,5.33-.15.1-.94.09-1.12.08s-.29.6-.15.71l.57.46c1.01.82.89,1.48.62,2.61-.15.61-.24,1.33-.73,1.68-.4.28-.92.89-.84,1.22.09.38.56.9.89,1.29l-.14.8c-.04.21.45.42.68.59l.46.34c.13.1-.27.52-.42.64-1.97,1.65.4,1.7-1.18,3.58l2.43.41-1.46,1.81-1.7,2.02,1.39.69-.98,1.79c1.18-.21,1.67-.62,2.5-1.26.08.96-.96,1.38-1.67,1.58-.68,1.14,1.21,1.59,1.79,2.1l.44,1.51c.09.31.86.21,1.27.27l.61.64c.18.18.75-.07,1.29-.17.38.41.9,1.9.61,2.49l-.48.98c-.12.24.75.5,1.08.66-.05,1.06-.23,2.53.69,3.49.37.38,1.39-.45,1.65-.86l.45-.69c.13-.19.8,0,.96.15,1.69,1.71,3.88.84,3.99.35.08-.34,0-.87-.06-1.63,3.27-.83,3.23,1.29,4.05-1.11.1-.3.7-.84,1.01-.8.37.04,1.16.66.99,1.02-.19.38-.56,1.46-.46,1.76l2.15.45c-.76-.93-1.04-1.26-1.41-1.95l3.32-.06.3,1.18c-.65.41-1.04,1.05-1.28,1.57l-2.85.56c.66.26,1.86.33,2.21.7l1.71,1.76c-3.79,3.35-6.2,1.66-4.58,4.49.23.41-.04,1.21-.56,1.42-.4.16-1.04-.03-1.57-.2l-1.95-.64c.23-.12.61-.32.59-.33-.02-.01-.34-.31-.39-.36l-2.21.96c1.42.44,2.1,1.83,2.34,2.99.14.67-2.46-.96-3.28,1.53l1.67.92c.13-.87.84-1.59,1.87-1.79l2.28-.43c.76-.14,2.63-.83,3.06-.19l1.73,2.6c.84-.77,1.16-.95,2.4-1.09.15-.78.18-1.96.25-3.36.23.36.46.82.73,1.39l1.82,1.08c.79.47,1.33.59,2.33,1.39l-2.19-.04c-.51-.02-.63,1.46-.44,2s1.06,1.41,1.76,1.42l4.39.09c.45,0,1.04.93.93,1.3-.13.41-.89.78-1.41,1.2-.57.47-.41,2.23-.25,2.97l1.62,1.47c.23.21.8.48,1.09.48.83.03.95-2.6,1.56-1.38l.91,1.83c-1.16,1.08-2.86.98-4.14.2l-2.14.27.8-1.4c-.71-.4-1.59-.48-2.67-.12-.26-.91.36-1.83,1.54-2.43l-1.16-1.66c-.33-.47-.65-1.69-1.08-2.06-.17-.15-1.16-.22-1.2,0l-.19.95c-1.64,1.59-1.94-1.54-4.29.91l1.07.67c.22.14.82-.61,1.08-.56.36.07.56.98.68,1.58l2.02-1.09c.14.17.35.91.15,1.03s-.66.38-.89.46l-.96.35c-.24.09-.48-.71-.76-.97-.47-.45-1.89.56-2.04,1.09,3.64.36,1.97,1.29,3.92.95l.85,1.28c.58.88,2.63-.3,2.63.23v.94c0,.68-1.67-.68-2.07-.37-.21.17-.63.68-.87.83-.64.4-1.33.91-2.08,1.72l-3.68-.45-1.05,1.26.59,1.2-1.34-.07c-.35-.02-.72,1.07-.41,1.27.65.44,2.08.63,2.78.26.76-.4.66-1.71.41-2.52l1.25.19,2.87-1.13c.25-.1.95.13,1.12.3s.12.95-.11.9l-.85-.17c-.15-.03-.38.26-.44.4-.28.69,1.7.55,1.5,2.13-.13,1.04.52,1.38.92,2.03.85,1.36,2.24,1.81,3.43,1.41.25-.08.96.24,1.07.06s.18-.62.12-.83l-.19-.7c-.03-.13.56-.12.67-.06l1.65.99c-.12.11-.49.79-.31.83l2.92.68c1.75.41,1.9,1.91,2.86,2.39.44.22.96.53.91.81-.06.3-.23,1.17-.21,1.05l-.89-.27c-.13-.04.32,3.11.57,3.42l1.64.77c.04,1.31.41,2.41,1.91,2.71l-1.3,1.86,1.39,1.02-1.9,1.31,2.01,1c.23.11,1.03-.27,1.16-.05l.6.99-2.36,1.32,3.22,1.07c.74.25,1.75,1.41,2.48,1.75l1.33.63c.31,1.26,1.51,2.99,1.5,4.16l-.03,4.27c0,1.52-.38,3.3,1.47,4.26-.89.69-1.5,1.26-2.04,2.1l-2.01,3.08c-2.39,3.66-1.55,4.51-3.16,7.51-.36.67-2.58.99-2.92.33l-.39-.77c-.08-.15-.58-.17-.63,0l-.23.79-.18.61c-.04.13-.44-.21-.5-.34l-.87-1.82-.78.87c-.18.2,1.04,2.12,1.36,2.13.4.01,1.04-.09,1.57-.18l-.43,1.35-2.1.12-1.73,1.46.59,1.1c.15.28-.22,1-.36,1.14-.63-.2-1.65-.28-1.78.14l-.93,2.84c-.05.16.1.69.11.85.01.22-.54.34-.95.49-.25.09.01.67.18,1.37-.73.2-1.78.35-2.74.43l-.59.05c-.16.01-.46.52-.32.59l.78.39c.3.15.38.97.26,1.27-.18.46-.66.78-1.32,1.1l.22,1.26-1.36,1.61c-1.42,1.67-4.51-1.9-4.88-1.76-.31.11-1.05.77-.82.93,2.47,1.23,0,1.57,2.59,2.38-.47.41-1.22,1.3-.64,2.15l1.81-.39c.21-.04.47.7.29.81-2.33,1.32-1.79-1.01-3.66,1.53-.49-.59-1.1-1.44-1.36-1.94l.98-.97c.19-.19-.64-.69-.92-.83l-.74-1.85-1.45,1.17-1.13-1.52-1.73.48c-.63.17-1.51.41-2.11.2-.49-.17-1.11-1.02-1.26-1.56-.36-1.3-1.31-1.17-2.34-1.42-3.09-.76-4.04-.23-4.46-.88-.59-.92.18-2.77,1.52-3.41l2.69-1.28,2.8-5.79,1.91-.77c-.26-.37-.69-1-.69-1.37v-2.53c0-.15.12-.63.27-.57,1.34.54.2,1.66,1.29.46-.53-.72-.75-1.68-.45-2.53l.34,1.23c.21.74,2.59-.23,2.58.67,0,.35-.34.78-.87,1.22l1.59,1.25c.86-.79,1.3-2.13,1.52-3.24.68-.19,1.48-.53,1.97-.93l.98-.8c.23-.19.13-1.17-.14-1.26l-2.64-.79-.48.99c-.28.58-1.71-.38-1.95.79l-.18.89c-.05.24-.76.41-.88.18l-.36-.7c-.07-.14-.54.1-.9.19ZM199.17,47.93l2.58-1.62c-.13-.17-.46-.51-.66-.44l-.78.28c-.72.25-1.95.62-2.41,1.07-.17.17.23,1.09.46,1.02.17-.05.62-.19.81-.31ZM212.97,54.07c-.22-.38-.93-1.17-1.34-1.27-.36-.09-1.14.27-1.47.54-.29.23.33,1.41.7,1.38.31-.03.71-.27,1.12-.47l.65.53c.12.1.42-.57.35-.7ZM217.29,53.82l.5-.53c.23-.25-.71-.59-1.05-.63-.28-.03-.83.52-.75.8s.39.74.61,1.03l.81,1.08c.14.19.86-.08.8-.32-.37-1.43-1.31-1.02-.93-1.43ZM217.37,57.92c-.04-.69-.4-1.3-1.02-1.54-.37-.15-1.25.09-1.35.5-.4,1.62,2.47,2.43,2.44,2.07l-.06-1.02ZM188.77,76.44c1.06,1.08,3.19,1.87,4.08.78.07-.09-.09-.39-.2-.4-2.39-.29-2.04-1.12-3.88-.38ZM194.64,80.64l1.04-.94c-1.18-.89-2.59-.74-3.78-.3l-.59-.69c-.1-.12-.39.07-.47.21s-.17.75-.09.89l.97,1.88c1.13.36,1.72.96,2.7,1.77.67-.48.58-1.95.23-2.81ZM214.77,80.43c.59-1.26-1.17-1.97-1.97-1.86-.24.03-.43.84-.2.92l.79.28,1.39.66ZM221.61,82.45c.31-.96.6-1.27,1.24-1.64-.05-.08-.37-.43-.51-.31-1.6,1.49-2.99.87-2.66,2.64l1.93-.69ZM225.8,115.44l-1.8-1.27,2.66-1.78,1.6,1.43-1.22,1.44c1.34-.34,1.87-.72,2.41-.24-.68.46-.68.53.11.49l.84-1.53c-.28-.16-.91-.35-.93-.62-.02-.22.35-.93.22-1.11l-.93-1.31c1.49-.17,2.2-.28,3.12-.9l-.67-2.26-2.37.09,1.41.5c.24.09.11.91.05,1.16-1.05.23-2.12,0-2.87-.84l.24,1.22-2.38,1.77c.73-.55-3.02,1.73-3.6.32.03-.2.5-.63.69-.59l.77.19c.9-1.12,1.94-1.78,3.55-1.95.03-.12-.35-.54-.53-.53l-.84.06c-.22-.7.25-1.85,1.01-1.84l1.38.02-.63-.98c-.78-1.21,3.21,0,4.05-.41l-1.41-1.49,1.32-.15c.41-.04,1.08-.84,1.11-1.18-2.94-.95-1.79-3.37-3.37-3.13l-1.63.25-.88,2.06,1.38,2.16c-1.63-.8-3.14,1.13-3.27-.1-.02-.22.35-.62.55-.74l1.3-.81c-.92-.86-5.03,1.65-4.21,2,1.58.34,1.51,1.98,1.89,1.74l.61-.39c.78-.5,1.35-1.38,2.48-.37-1.81,1.39-3.99.97-3.82,2.89.02.28-.24,1.06-.47,1l-.92-.25c-1.09.9-2.77-.57-2.76-.68l.1-1.17c.07-.86.81-1.39,1.49-1.79,1.68-3.46-.62-2.8.31-3.86l1.2-1.37-2.17-1.02c-.1-2.99-1.13-1.85-.78-4.33.03-.19-.34-.62-.44-.46-.07.12-.45.57-.6.57h-3.08c-.76,0,.22.51-.18,1.92-.06.21-.87-.1-.84-.28.68-2.29.34-1.75,2.74-3.62.48.39.88.97,1.18.89.26-.07.87-.27,1.22-.38l-1.67-1.62,2.11-.77c.41.63,1.18,1.27,1.63,1.07.74-.94,1.63-2.28,2.73-2.43.52.57,1.19,1.49,1.81,1.45.99-.06,1.21-1.49,1.6-2.2.49-.9,1.43-1.75.62-2.81-.9-1.17-2.22-1.61-3.58-2.08-.36-.12-1.12-.71-1.29-.4s-.33.93-.25,1.21,1.13.1,1.34.3l1.75,1.7-1.09.52c-.19.09-.47-.7-.64-.81l-1.9-1.25c-.43-.28-2.95-1.46-2.77-.75.03.13.14.53.22.63l1.31,1.79c-1.12.48-1.26-.5-2.25-1.29l.09,1.5c.02.33-.84.88-.94.83l-.35-.94c-.05-.14-.44.21-.4.35l.15.51c-1.18.03-2.54.12-3.54.4l.32,1.31c.01.06-.67.55-2.08-.29-.19-.11.41-.78.63-.84,1.92-.51,2.65-2.34,3.27-3.93.05-.14-.29-.34-.43-.31l-.74.14.15-1.81c-1.05.55-.86,1.53-.38,2.61l-2.51.32-.77-1.08c-.13-.19-.93.09-1.08.18.83.83.8,1.55.22,2.35l-2.64,3.6c-.62.85-1.8,1.28-1.3,2.78l-2.47,1.08c.54,1.15.44,1.81-.29,2.99l1.05-.1c.27-.03,1.15.06,1.05.32l-.39,1.07c-.92-.36-2.04-.4-2.38.52,2.16-.38,3.65,1.6,3.43,1.99-.28.5-1.56,1.39-.95,1.67l.53.24-.11.96c-.02.16.43.35.57.26s.54-.43.7-.45c.86-.07,2.35,1.68,1.66,2.54-.51.65-.77,1.17-1.01,1.81l-.54,1.45c1.95,2.05-2.13,3.69,1.5,4.95-.56,2.51-2.94,2.32-4.92,1.86l-.75-.17c-.88-.2.71.87-.55,2.3l-1.77,2.01c.12.2.45.63.36.79l-.51.96c2.97.67,2.55-3.3,3.45-1.88.21.33.26,1.43.61,1.64.84.49.77,1.85,1.05,2.54.32.79,1.1,1.42,1.11,2.44,0,.24.21.75.06.83l-.9.45,1.1,2.07c.44.83-.11,2.58-.84,3.18-1.22,1-.99,2.9.03,3.56l-.33,2.13c-.28.14-.92.38-.85.59.4,1.19,1.48.99,1.5,1.57,0,.28-.07.99-.04,1.3l.22,2.1c.07.72,1.31,1,2.08.65l1.64,1.99,2.06,2.6c-1.21.59-2.01,2.05-2.36,3.71l2.15,2.74c.57.15.69-1.11.36-1.53-.21-.26-.55-.14-1.35-.15l1.18-.57-.91-1.88c1.14-.2,1.66-.32,2.49-.64-.33,4.57,3.44,2.86,1.67,4.7-.17.17-.46.04-1.03-.25-.31-.16-.94.62-1.01,1.07l1.54-.14c-.27.87-.52,1.78-.55,2.29,1.2.38,2.38,1.24,3.21,1.29l2.86.17-.95-2.37c.03-.24.25-.79.07-.9l-.97-.58c-.73-.44,3.41-2.17,4.26-2.34l1.33-1.48c-1.42-.52-1.11,1.17-2.51.76-.36-.11-1-.37-1.09-.14l-.44,1.11-.36-.9c-.3-.75-2.02.29-2.51-.98-.14-.36-.11-.72-.14-1.72l-2.75.78c.45-3.25,4.15-.44,4-3.45-1.05-.26-2.17-.98-1.81-1.96l.79-2.13-1.76-.62.99-2.56c1.78-.66,2.54-2.69,2.01-4.23.07-.28.59-.9.39-1.05l-.99-.72c-.19-.14.03-.75.25-.83l.78-.29c-.06-.56-.16-1.22,0-1.57.13-.3,1.08-.61,1.1-.93l.1-1.94-2.18-2.18c1.99-2.83-.47-5.32.4-5.98l1.22-.92c-.28-.18-1.02-.77-.9-1.14.38-1.21,2.01-2.56,3.82-2.8l-1.57-.9c1.5-1.97,2.46-.25,4.27-1.05ZM180.24,90.79l-1.51.07c.17,1.05.67,1.86,1.75,2.39l-.24-2.46ZM229.7,97.36l1.24-.13c-.33-.91-.24-1.91.25-2.2l.73,1.24c.13.23.69-.06.96-.23l1.77-1.07c-1.11-.73-1.89-1.85-2.12-3.11l-1.32-.16c-.77-.21-1.85-.44-2.84-.12,2.1,2.41,3.71,1.27,3.79,1.41l.21.41-1.65,1.28-1.09-1.46c-.45-.6-1.83-1.01-2.64-.78s-.87,1-.73,1.68c.16.76,1.12.27,1.57.5l1.68.84-.57,1.13c-.12.23.52.79.76.77ZM181.22,94.11l-2.32.64-.29-2.44c-.72.77-1.42,3.27-1.17,3.5.21.2,1.08.61,1.17.34l.36-1.12c.49.1,1.24.26,1.52.11.23-.12.52-.58.72-1.04ZM238.32,97.11l-1.6-1.52-.46-1.54c-.52.46-1.03,1.02-.88,1.34l.55,1.17c-.09.6-.3,1.8.26,2.01l2.12-1.46ZM192.45,99.21c.43-.57-1.11-1.33-1.5-.76-.37.53-.55,1.44-.34,1.92.61-.29,1.52-.73,1.84-1.16ZM187.76,106.55c1.69.89,2.67-.15,3.45-1.26l.97-1.39c.26-.85.61-1.42,1.47-2.32-1.14-1.05-1.2.36-3.13.35l.13-1.39-1.11,1.58c-.32,0-1.24-.42-1.53-.24-.81.52-1.58,1.83-1.03,1.98l1.17.31c.26.07.42-.88.54-1.06l1.71.39c.34.08-.45.93-.88,1.15l.63.85-2.4,1.04ZM204.34,102.09c-.21.05-.88.22-.68.17l.39,2.31.85-.64c.11-.08-.05-1.96-.56-1.84ZM187.91,105.45l-4.33-.19c-.25-.01-.99.42-.86.62.82,1.24,1.27.25,3.72,1.25l1.46-1.67ZM233.35,105.9l-1.94-.81c-.16.12-.17,1.11.08,1.33s.97.57,1.23.36c.22-.18.63-.81.63-.88ZM234.35,109.64c.5-.75.74-1.1.78-1.39s-.91-.59-1.16-.44l-1.27.76,1.65,1.07ZM234.22,113.41l-2.05-1.57-.96,1.84h1.25c-.26-.18-.58-.4-.57-.39s.22-.26.28-.33c.44-.53.74.85,2.05.45ZM254.17,120.64c-.94-.54-1.91-.72-2.81-.5.76,1.08,2.06,1.52,2.81.5ZM199.37,125.48c.63-.04,2.15-.83,1.67-1.38l-2.2-2.54c-.51-.14-1.48.53-1.97,1.06l.97,1.16-.82,2.12c.16.22,1.03.57,1.27.39l1.08-.82ZM234.25,134.37c-.48-.12-1.21-.27-1.23-.51-.02-.25.08-.82.3-.88l1.12-.26c0-.9.26-1.69,1.03-2.32.01-.34-.94-1.18-1.25-.96-.48.37-1.43.89-1.79.59-.42-.35-.62-1.1-.64-1.59l1.7-.24c-.48-1.05-1.23-.7-1.93-.53l-.81-.52c-.19-.12-.79.23-.9.36.38.67.74,1.4.94,2.19l.85,3.31-3.41.41.54,1.71,1.46.24c.69.78,3.16,1.31,3.91.5.38-.41.56-1.39.11-1.5ZM174.87,132.17c.39-.15.73-.28.7-.39-.27-1-.97-.42-1.12-.99l-.26-1.02-2.75,1.95c.94.48,1.88-.05,2.48-.65.23.35.66,1.22.96,1.1ZM221.09,134.69c.51-.45,1.61-.79,2.84-.34,0-.76-.14-1.54-.44-2.5-2.35,1.48-.99.74-2.96,2.64-.07.07.48.26.56.2ZM170.75,143.29c-.16-.44-.39-.91-.25-.99l.77-.41c.1-.54.32-1.59.38-2.21.04-.38-.84-.89-1.37-1.28,1.24-.19,2.38-1.36,1.79-2.34l-1.36-.68,1.15-.45c.2-.08-.03-.71-.19-.87l-.74-.71c-.62-.59-.73,1.04-1.62,2.39l-.35.53c-.66,1,.76-.39,1.27-.33.21.03.66.43.61.63s-.44.57-.66.62l-1.76.38-.12,4.28c0,.22-.19.79-.23.96s.64.27.73.12l.31-.52c.12-.2.73-.48.79-.26l.35,1.18c.06.82.36.61.49-.06ZM178.45,136.75l-1.06-2.24c-.47.16-.7.99-.54,1.3l.53,1.05c.08.16.4,0,1.08-.12ZM162.04,146.14c2.51,1.43,3.5,1.66,5.73,3.05l-.86-1.69c-.15-.29.48-.79.67-1.12l.42-.72c.22-.38.93.56,1.83.49.25-.02.69-.68.51-.86l-1.12-1.07-1.25.59c-.21.1-.66-.43-.79-.65l-1.11-1.92c-.17-.3-1.17.29-1.06.61s.41.82.65.95l1.15.62-.33,1.88-2.57-.48.32-1.48c.05-.23-.7-.53-.79-.51-.12.59-.26,1.33-.53,1.19l-1.27-.65.4,1.76ZM183.52,144.75l.02-2.15-1.54.33c-.27.06-.52-.67-.82-.95-.11,0-.45.69-.3.78s.49.3.64.41l2,1.58ZM185.62,144.76c-.24.47-.38,1.51.19,1.67s.79-1.37.38-1.79-1.27-.36-2.01-.11c.22.24.44.49.63.43l.8-.21ZM230.44,150.34c.2-.17.57-.69.66-.55l.58.86.88-.74c.23-.19.06-.86-.09-1.46,1.31-.8,2.93-.3,2.91-1.47h-2.21c-1.35,2.54-1.27-.62-4.06,3.59l-.83.3c-.12.04,0,.63.11.68l1.36.59c-.1-.59-.27-.97-.12-1.1l.82-.7ZM223.81,151.44l-1.69.13.31-2.14,1.59.6,1.02-1.12c-.05-.13-.34-.54-.48-.49l-.82.25-.6-1.26-3.04.07c-.12,0-.44.33-.47.44s.06.46.17.43l.69-.19c.3-.08.89-.02,1.14.14,1.33.83-1.45.76-1.62,2.06-.05.38.34,1.24.66,1.51.59.5-1.5.88-1.06,1.33l.46.47c.1.1,1.09-1.35,1.5-1.16l1.02.46c.43.19,1.3-.14,1.74-.46l.66-.48c.14-.1-.15-.65-.31-.64l-.87.06ZM227.31,156.18c.79.78,1.32,1.16,1.73,1.09,1.28-2.93,2.59-1.89,2.18-3.47-.14-.53-.25-1.27.07-1.39l1.37-.51c.06.02-.42-.64-.57-.83l-2.1,1.43c.41.41,1.16,1.26.93,1.69-.13.19-.74-.16-1.07-.45l-.81,1.84c-.54.04-1.2.26-1.71.6ZM153.9,153.88c.25.04.22-.91,0-1.01-.16-.08-.54-.26-.68-.37l-.81-.64c-.18-.15-.91.32-.75.41.41.3.78.45.76.64l-.06.71,1.54.26ZM152.4,158.79l1.66-1.07c.02-.61.07-1.64-.07-2.21-.28-1.15-1.94-1.29-2.81-.88l-.21-1.69-1.76,1.18c.88,1.44,2.44,2.01,4.36,1.55l-1.17,3.12ZM194.38,158.83c-.14-.04-.24-.56-.12-.55l.75.07c.35.03.54-.81.56-1.23.01-.29-.66-.76-.93-.64-.72.31-1.9,1.43-2.19,2.17.68,1.2,2.53,1.97,3.48.6l-1.54-.42ZM223.55,160.78l.59-.89c-.38-.25-1.17-.9-1-1.27l.67-1.51c-.35-.32-1.82-.49-2.27-.13-.15.12-.16.84.03.86l1.01.08c-.54.79-.45,1.7-.06,2.41l-.57,1.27c-.12.27.76.5,1.03.63l.7.34c.82.4-.31-1.53-.13-1.8ZM247.01,162.2c-.28.99-.13,1.94.27,2.62l-.54.9c-.08.14.39.39.51.5.49.43.23-1.07,1.88-2.09.22-.13.82-.64.63-.76s-.68-.36-.91-.42l-1.1-.3c-.5-.14.5-1.88.05-2.07l-.85-.36c-.23-.1,0-.83.02-1.15-1.18-.8-3.23-.38-3.86,1.16l-.98-.56,1.39-1.42c.17-.17.36-1,.13-.96-.17.03-.76.21-.92.16l-2.53-.8c.71,2.12.91.69,1.88,2.83l-2.5.92c-.04.31.3,1.16.56,1.69l-.2,1.39c.72-.05,1.19-.08,1.27-.07v1.04c0,.15.69.21.75.08.43-.81-.06-2.45-1.6-2.93l1.78-1.23.71,1.87c.3-.74.48-1.39.74-1.66s1.08-.2,1.43,0,.44.64.37,1.42l1.6.19ZM184.87,165.86c.85.22,1.69-.77,2.3-1.45.65-.73,2-.92,2.1-2.12-.77.39-1.75.91-2.49,1.21-.48.19-1.57-.9-1.85-1.06-.66.33-1.25.63-1.97.85.1-.51.38-1.18.62-1.65-2-1.03-.83-3.2-2.56-2.94-.3.05-.4.65-.52,1.23l-1.56.8c-.77,5.41,1.73,2.39.37,6.27-.26.74-.31,2.24-.38,3.11,1.43.95,2.12-.39,3.2-.85.82-.35,2.11-.95,2.59-1.43-.26-.81-.38-1.36-.49-2.03l-.39-.95c-.07-.16.31-.47.49-.47.25,0,.79.16.75.39l-.2,1.1ZM203.88,162.98c.44.07,1.4.56,1.36.67l-.85,1.22c-.16.23.75.89.8.68.64-1.61,2.47-1.5,2.21-1.83-.86-1.09-.28-3.13-3.12-3.08-.13.71-.57,1.64-1.15,1.76.31-2.04-2.51-2.88-3.8-2.96l-.83,1.7c-.06.13.3.46.44.45l.91-.09-1.16,2.49c.47.08,1.25.15,1.56.34.52.32.16,2.14.44,2.07l.63-.15.53,1.46,2.58-.42c.1-.22-.23-1.38-.62-1.44-.33-.05-.91-.07-1.46-.11-.74-.05.62-2.89,1.53-2.75ZM235.35,160.65c-.6-.64-1.24-.93-1.71-.79-.58.18-.95.64-.94,1.29l2.65-.5ZM216.18,163.95l1.04-1.63c.02-.16-.39-.6-.54-.48l-.7.53c-.39-.57-.8-1.26-1.26-1.33s-1.65.52-1.42.91c.38.67.93,1.5,1.14,1.78l1.73.23ZM198.42,166.01c-.22-.26-.85-.83-1.17-.92l-1.94-.55c-.55.18-.98,2.05-.3,2.12l3.4-.65ZM250.66,174.22l.93-.7c.1-.08-.11-.6-.17-.72l-.9-1.73-1.68.86.68-1.88-2.3.24s-.3-.47-.41-.66c-.2-.32,1.64-.99,1.67-1.3l.12-1.14c.5.17,1.12.38,1.55.49.37.1,1.01-.78.78-1.22-.21-.41-1.37-.69-1.79-.48-1.5.74-1.22,2.71-3.06,2.22l-.4-1.48c-.79.36-1.79.47-1.86-.12-.02-.21.51-.69.42-.87l-.36-.78-.91.67c-.52.38-.98-1.07-1.74-.38-.15.14-.25.9-.05.89l.89-.04,1.55,2.21,1.12.02c.19,0,.22.58.32.76,1.49,2.65-1.1,2.7-.32,4.66.51,1.27,1.18,1.89,2.66,1.75.38-.03,1.1-.23,1.39-.45.22-.16.21-.89.02-1.01-3.6.78-3.63-.73-3.47-.75s.52-.07.7-.08l1.25-.03c.23,0,.36-.67.25-.86l-.51-.88c-.11-.19.64-.67.75-.48s.34.69.49.87l1.42,1.8c-.42,1.02-.05,1.6.65,2.36l.44.64c.1.15.77.01.75-.16-.19-1.92-1.03-.89-.89-2.24ZM239.35,167.76c.2-.23.16-1-.1-1.13-1.31-.66-2.27.78-2.21.93.16.41.63.99.98,1.09.3.08.99-.5,1.33-.89ZM242.5,168.74l-.79-2.27-1.34,2.68,2.13-.41ZM242.05,170.85c-.18-.02-.63,0-.79-.07l-.93-.42c-.84-.38-.74,1.82-.94,2.43.43.61,1.49,1.47,2.12,1.72,1.28-.16.53-3.67.54-3.66ZM237.33,172.86c.25-.43-.1-1.48-.5-1.72s-1.17-.46-1.66-.53l.37,3.7c.55.1,1.29-.6,1.78-1.45ZM239.14,179.68c.72-.87,1.33-1.86,1.51-2.89.31-.03,1.02-.17,1.2-.47.18-.28.4-1.05.38-1.19l-2.33.19c-.76-.79-1.22-1.23-2.23-1.88-.7,2.86,1.82,3.05,1.37,3.32-1.4.84-1.61.3-1.58.84.01.22.26.75.48.72l.84-.09.36,1.45ZM257.82,180.76c-.06.17.29.81.38.68.82-1.24.29-1.9.76-1.98l1.18-.21-.5-1.06c1.18.32,1.49-.63,1.96-1.43l-2.45-.72c-.59.2-1.84.73-2.34.99l-.25,2.24c-.91-.35-1.48-.36-1.77.3.99.91,3.45.04,3.3.45l-.27.73ZM250.19,179.76c.37.43,1.72-.65,1.78-1.2.38.18,1.25.54,1.54.23l1.08-1.2c.12-.13.42-.42.53-.53s-.34-.7-.5-.69c-.83.06-2.19.86-3.02,1.45l-2.11.28.1-.68c.02-.14-.54-.34-.62-.22l-.41.65,1.63,1.91ZM251.3,182.47c.51-.58.89-.95,1.31-1.31.26-.22-.24-.91-.55-1.17l-2.9,2.25,2.14.23ZM261.07,183.85c.5-.16.42-1.62.78-1.97l1.31-1.28c-.77-.36-1.48-.61-1.99-.51-.55.11-1.37.75-1.28,1.13.51.63.75,1.55.25,1.96-.82.68-3.19.56-2.05,1.37.09.06.47.08.58.04l2.42-.76ZM257.44,189.32l1.34-1.83c-.61-.2-2.18-.34-2.55.36s-.26,1.6-.18,2.59c.58-.25,1.01-.61,1.39-1.12ZM252.54,191.8l-.87-.15-.32.77c-1.01-.63-1.52-1.14-2.18-2.33.63-.67,3.55,2.04,2.62-.58l-.64-1.06c-.15-.24-.85-.03-1.25.02-2.92.36-2.05-.56-4.32-.1-.24.05.03,1,.27.98l1.02-.08c.27-.02.75.06.99.13.21.06-.27.74-.31.98-.19,1.18,1.21,2.7,2.5,2.99.43.1,1.26-.61,1.63-.85l2.96.25c.17.01.47.91.33.61l-1.04,1.68c.58-.05,1.44-.67,1.67-1.18.31-.66-.26-1.62-.4-2.32-.14-.74-.23-1.3-.9-1.52-1.21-.38-1.28,1.84-1.76,1.76ZM283.23,207.16l-2.71-2.32,1.37-.37c.24-.07-.11-1.14-.15-.95-.83.06-1.44.07-1.97-.06-.4-.1-.71-.07-.8-.24l-.51-.97-.44,2.33c1.47.7,1.24,2.24,1.11,3.5-.08.84,1.3,2.61,2.14,2.48,1.15-.45.46-2.17-.37-3.08.96.12,1.75.18,2.34-.32ZM285.95,217.11l-2.24-2.81c-1.13-.16-1.65-.52-1.85-1.57l-1.24.17-1.01-2.5c-1.95,2.02,1.34,1.86,1.83,5.45.47-.1,1.33-.22,1.72-.18.75.07.3,1.31,1.85,2.14.24.13,1-.42.93-.71ZM282.46,235.57c.34-.14.9-.29.85-.51-.04-.18-.22-.55-.34-.77l-.84-1.54c-.39.62-1.04,1.99-1.11,2.72-.02.15.55.45.69.4l.74-.3ZM275.4,234.87c-3.03.3-4.05-2.17-4.78-1.22l-.67.87,1.83,1.19,2.25.09c.58.02,1.36-.48,1.37-.93ZM274.47,240.01c-.27-1.57-1.22-2.62-2.58-2.98l-.85-.23c-.12-.03-.2.6-.11.7l1.89,2.11.7.78c.16.17,1.01-.12.97-.37ZM282.4,239.16c.22-.09.31-.96.14-1.25-.22-.36-.8-.78-1.24-.58-.27.12-.35,1.09-.09,1.22l1.19.61ZM270.44,243.72c.7-.36,1.29-.99,1.76-1.66l-2.26.12c-.37.02-.9.69-.85,1.04.04.29,1.06.65,1.35.5ZM263.64,252.97c.3-.24,1.19-.29,1.56-.14l1.65.65c.2.08.38.68.58.62l1.04-.27-.44,1.14c2.36,1.21.13,1.01,2.09,1.55.16.05.22-.55.11-.68l-.51-.57.53-.82c.12-.18-.14-.71-.32-.92-.64-.74-.7-1.5.27-2.12.64-.41,1.23-.1,1.75.62l.59-2.72c.21-.96.3-1.71,1.13-2.31.36-.26.63-1.22.51-1.63s-1.09-.79-1.53-.68l-2.36.62c-.31,1.44,2.8,1.05,1.04,2.37l-3.1,2.31c-.74.55-1.42,2.46-2.99,1.35-.9-.64-2.37-1.93-3.75-.63l-.27,2.39c-.12,1.1-2.17.5-1.69,1.64.09.2.49.64.68.52l.84-.56c.4.41.88.86,1.34.97.94.23.23-1.9,1.25-2.71ZM264.66,258.49l-1.77-2.6c-.54.19-.02,2.67.43,2.66l1.34-.06Z"/>
  <path d="M148.12,268.1l.58-3.31c.09-.53-1.41-.72-1.8-.42-1.36,1.03.3,1.69-.74,4.43-1.36.11-2.25.5-2.98,1.53-1.44,2.05-2.17-.67-3.96.38-.5.3-.64,1.28-.68,2.16h-2.86s-.51-2.12-.51-2.12l-1.49.5c-.9-.03-2.15-.06-3.13-.02l-2.22.09c-1.45.06-3.46-2.14-4.77-2.74-2.73-1.24-5.11-2.68-7.3-4.91.79-.42,1.35-.69,1.65-.95s-.03-1.39-.25-1.43c-.34.35-.47.55-.53.43s-.35-.66-.47-.65l-1.35.07c-1.2.06-1.45-3-1.51-3.77l-.2-2.55c1.2-1.06,2.03-2.17,2.9-3.47,1.39-2.07.88-2.86,1.19-2.84l1.05.08c.24.02.98.32,1.11.12l.73-1.16c.45.4,1.8.56,2.12.08-.23-1.06.4-1.77.98-2.43.25-.29.37-1.21.69-1.37,1.27-.63,1.1.84,4.43-.63-1.7-1.51-4.62-3.93-5.61-5.67-1.05-1.84-1.45-1.15-3.31-2.3-2.5-1.55-1.29-3.62-4.57-5.61l.33-.73c.06-.13-.64.1-.75.03-1.12-.8.47-3.16-.82-5.72-2.19-4.35.98-3.64-1.69-5.22l-.64-.38c-.65-.38,2.06-.18,2.18-2.22.06.02.52.28.47.43l-.29.89,1.28.41c.69-.76.83-4,1.91-3.17l2.22,1.69c.7.53,1.84,1.03,2.36.87l1.07-1.6c.31-.47,1.25-1.22,1.73-.94.38.22,1,.65,1.32.75.42.13,2.06-.46,3.19-1.87l2.21-2.77c.62-5.72-2.71-3.35-1.14-6.64l2.03-.81c-.72-1.33.06-2.02.59-2.8.33-.47.46-1.79,1.28-1.92,1.75-.28,3.46-1.03,4.91-1.98.43-.28,1.68-.15,2.15-.32,2.86-1.02,3.04-1.18,3.68-.09.05.09.28.29.34.2.09-.13.37-.64.5-.73.44-.28,1.47.05,2.16.4.22-.24.69-.97.68-1.34l-.04-1.09c-.01-.29.9-.15,1.18-.04l2.36.96c.06.09.18.32.08.35l-.91.29c-.18.06-.06.55.09.75.14.19.68.31.9.19.39-.21,1.07-.42,1.11-.72l.19-1.61,1.52.16c.35.04.57-.87.72-1.22l.57-1.36c-.04-.05-.27-.44-.34-.37l-.59.56-.56-1.18c-.39.36-.9.79-.79,1.05l.63,1.52h-.99c-.7,0-1.26.02-1.54-.52-.33-.64.11-1.12.72-1.4l.88-.41c-.55-.43-.97-.74-1.15-1.03-.22-.35.34-1.28.74-1.21.76.12,1.53-.26,2.14-.64l1.01,1.66c.86.29,1.18.66,1.24,1.54l1-.54c.22-.12-.28-.69-.31-.94l-.13-1.36c-.06-.59-1.78.15-1.89-.2l-.25-.83c-.34-1.13-1.5-.62-2.35-.45-1.17.24-2.62-1.18-3.58-1.87l-2.8-2.02.31-2.21c.11-.78,1.14-2.1,1.71-2.69,1.96-2.06,4.22,1.32,6.43-.19,1.18-.8,2.24.02,3.25,0,1.34-.02,2.23.03,3.49.63.8.38,2.17-.73,2.72,1.07l-1.95,1.33c-.68.46-2.18,1.21-1.82,2.09l1.76,1.34c.66.5,1.55,1.59,1.74,2.26.06.22-.8.81-.61.93.25.16.89.45,1.17.43l1.32-.09c.08,0,2.27,2.87,1.84,4.43-.19.68-1.49,1.17-2.27,1.67l.88,1.76c-.24.07-1.03.06-1.49.05l-1.99.18c-.35-.98-1.08-1.9-2.08-1.77l1.39,2.09c.12.19.84.39.81.6l-.16,1.32c.7.47,1.73-.12,2.64-.6.74-.39,2.3,1.27,1.78,2.26-.45.85-1.95.7-2.9.66,1.07.67,2.18,2.49,1,3.74-.68.72-3.35,1.12-4.21.67-.23-.12.23-.79.46-1.04l-1.9-1.17-1.07,2.98c-.23-.02-.61-.13-.69-.02l-.53.72c-.19.25-.65.93-.47,1.09.82.22,2.11-.36,2.61-1.18.42.42,1,1.24,1.41,1.18l.86-.14c.22-.03.01.89-.19.78-.63-.31-2.2.21-2.08,1.2l2.78.14c.14,0,.57.16.68.2.18.07.02-.53-.07-.69l-.4-.66c-.38-.63,1.7.14,2.62-.26.06.19.01,1.01-.28,1.09s-1.03.24-1.28.4c-.28.17-.33,1.23-.64,1.34-1.13.43-1.66-.46-2.43.26-.22.21.02.79.26,1.47l.98-.75.64.79c.17.21.87-.37,1.14-.4l1.71-.2,1.68.65c.32.12.76.97.68,1.3-.21.93-1.78,1.15-1.76,1.55l.04,1.04c.04.85.05,1.89.68,2.34.27-.02,1.03-.38,1.06-.17l.21,1.14c.1.57,1.25,1.4,1.48,1.96.47,1.18.69,2.14,2.02,3.14-4.7,3.87-2.58.37-5.7,1.66l-1.05-1.24c-1.76,2.06-1.38-.02-3.71,2.05-2,1.79-3.67-.91-4.88,1.83l.7-.22c.1-.03.23.39.14.44s-.46.23-.6.25l-2.26.5,1.44.65.49.66c.08.11-.44.29-.57.27s-.08-.01-.63-.4c.04-.03-.4.34-.59.5-.21.18.47.73.74.87l2.16,1.09.49-3.01,1.91,1.56c-.32.42-.76,1.13-.89,1.54l2.08.92.24,2.58c.03.29.61.95.52,1.23-.11.33-.56.71-.93,1.02l-2.32,1.92c-.57.47-1.96.89-2.82.99-.94.11-1.71-.72-2.4-1.53l-.4,1.2c.84.58.7,1.2.67,2.07-.05,1.64-.16,3.23-1.92,4.24l.5,2.58-.93.4-1.05,3.05c1.28.92,2.27,2.02,1.6,3.93l-2.38-.3c-.83-.11-1.77.11-2.75.49l1.73,1.09-2.2,1.86c-.27.23-.6.85-.62,1.15-.02.35.74.61,1.13.83l2.82,1.64-.61,1.06c-.13.23.65.88.56,1.12l-.72,2.06-1.33-.66ZM164.44,185.69l-.7-.92-1.5.79c-.27.14-.06,1.09.04,1.29l2.15-1.16ZM159.73,197.42c.97-.58,1.3-2.15.5-2.73-.35-.25-.91-.48-1.2-.48s-.7.83-.5,1.04l.68.75.52,1.41ZM155.24,199.75c.18.2.62.31.87.23,1.21-.39-.89-1.34.51-2.45.05-.19-.24-.78-.51-.84s-1.11-.04-1.14.01c.04.57.18,1.11-.03,1.23l-.86.51c-.33.19-.97.66-.97,1,0,.53,1.22,2,1.35,1.92.14-.08.56-.33.49-.47l-.34-.67c-.08-.16-.24-.59-.3-.77-.04-.11.4-.27.48-.18l.44.47ZM159.26,208.27c-.69-.61-2.42-.46-3.34-.07-.22.1-.48.88-.35,1.09s.83.09,1.06-.06c1.38-.93,4.28.5,2.63-.96ZM158.33,211.01c-.19-.26-.92-.39-1.21-.24s-.89.9-.66,1.12c.2.2.66.53,1.03.78.3.2,1.19-.17,1.28-.52.07-.27-.11-.69-.44-1.14ZM159.52,222.54l.39-1.39c.23-.84-.93-1.66-1.8-1.83-.22,1.12-.6,2.21-1.12,3.49l2.53-.27ZM125.7,249.73l-.04-.7c0-.12-.51.04-.47.15l.19.58-3.55,1.1.77-1.61c-.88,0-1.55-.05-2.51-.17l-1.23,1.07,3.27,1.62c.6-.42,1.57-.76,2.04-.6.15.05-.29.74-.13.76.18.03.69.24.74.09l.26-.72.29-.79c.31-.85-.21.61,1.65.53,1.61-.07-1.24-.79-1.27-1.32ZM127.25,253.61c-1.02-.74-2.53-1.17-3.81-.26l.37.39c-1.08-1.13,2.57,1.55,3.44-.13ZM127.41,257.97c-.81-.73-1.41-.48-2.16-.22l-1.73.07c-.15.91,3.67,1.32,3.89.14ZM126.81,262.64c-.31-.45-.47-.73-.61-.69l-.66.16.23-2.36-1.27.07-.97,1.92,1.01,1.34,2.27-.44Z"/>
  <path d="M188.08,44.26c-.1.35-1.1,1.22-1.61,1.09l-2.16-.57-.52-.58c-.88-.98-.5,1.08-3.26.4l-1.05-.26c-2-.5,4.51-1.48,2.8-4.39l-1.39.14c-.33.03-.81-.79-.79-1.25.02-.5,1.43-.13,1.9-.28l1.85-.6-.85-.98c-.17-.19.4-.63.85-1,1.16,1.85.6,3.39,1.54,4.11.18.14.64-.03.76-.22s.15-.95-.06-.86l-.6.24c-.1.04-.23-.46-.12-.47l.76-.07c.41-.04.67-.75.88-1.45l2.35-.95,3.08,1.9-1.74-.12c-.2,1.11-1.06,2.11-2.27,1.88-.62-.12-1.28.02-1.74.54-.29.33.28,1.26.5,1.7.12.25-.05.87,0,1.12s.44.51.9.94Z"/>
  <path d="M224.72,52.95c-.46-.56-.58-.26-.34.55-1.41.1-1.23-1.57-2.01-2.37-1.14-1.16,1.62-2.82,2.24-3,.34-.1.71.78.71,1.22l.05,2.83c0,.13.19.56.23.67s-.29.08-.88.1Z"/>
  <path d="M275.8,190.8l-.41-.69c-.27-.46.95-.58.87-1.71-.04-.59-2.32-.06-3.07-2.24l1.82.94.11-1.84c.02-.36.79-.47,1.33-.82l1.11,1.11-2.13,1.48c1.23.49,1.61.58,2.09,1.34.44.71.16,1.55-.35,2.23l-.49.65c-.14.19-.75-.25-.87-.45Z"/>
  <path d="M145.02,162.19c-3.42-1.02-3.81.24-4.4-1.59l2.55-2.3c.3.57.04,1.01-.54,1.79,1.04.5,2.16.93,3.39,1.28.17.08-.63.94-1,.83Z"/>
  <path d="M200.7,40.47c-1.31-.9-.05-3.34.99-4.34.75.96,1,1.69,1.29,2.78l-2.27,1.56Z"/>
  <path d="M241.04,134.48c-.57.15-.83-2-.07-1.85,1.08.22,1.97.27,2.69-.33l1.14,1.2-3.76.97Z"/>
  <path d="M245.95,137.21l-2.31.25c-.74-.8-1.01-.95-2.21-1.83.55-.41,1.41-.79,2.35-1.05l.28,1.95,1.89.69Z"/>
  <path d="M247.17,229.51l-1.45.47c.44-.72.88-1.41,1.22-1.9.18-.26,1.18-.28,1.28,0l.49,1.25c.1.25-.1,1.03-.37.98s-.75-.44-1.17-.8Z"/>
  <path d="M280.08,224.4c0,3.62-1.75-.83-3.86.97-.17.14-.76-.5-.59-.63s.71-.4.93-.41h1.71s1.81.07,1.81.07Z"/>
  <path d="M250.64,214.93l-.37.87c-.04.1-.14.11-.21.06-.86-.68,1.01-1.91,2-1.9.37,0,.81.92.75,1.3-.06.35-.5.79-1.01,1.15l-1.16-1.47Z"/>
  <path d="M254.41,109.92c-.33,1.02-1.97,1.54-2.98.93l-.77-2.26s.53-.16.72-.22c.18-.05.09.78.19.98.37.76,1.7.76,2.85.57Z"/>
  <path d="M241.44,137.47l.79,2.18c-1.55.35-2.01-1.06-2.06-2.14-.08-.18,1.18-.29,1.27-.04Z"/>
  <path d="M259.71,116.31c-.1,0-.67-.58-.9-.46l-1.29.67c.13-.41.37-1.11.57-1.41s1.18-.37,1.53-.27l1.46.43-1.37,1.05Z"/>
  <path d="M242.44,131.31c-.03.15-.31-.81-.1-.93l.87-.5c-.27-.69-.47-1.11-.56-2.01.8.7,1.27,1.42,1.86,2.3l-2.06,1.14Z"/>
  <path d="M161.45,121.83c-.67.04-.41,1.83-1.71,1.79.24-1.62,1.36-2.37,2.55-3.11l.49,1.24-1.33.07Z"/>
  <path d="M246.33,106.88c-.73.33-2.38.52-3.37.05l2.42-.79c.19-.06.62-.07.8-.04s.31.71.15.78Z"/>
  <path d="M213.76,173.91c-.37.09-1.09-.05-1.11-.3l-.12-1.28c-.04-.38,1.23-.09,1.45.22s.16,1.26-.21,1.35Z"/>
  <path d="M242.52,143.86c.33.24.76.73.69,1.01s-.89.56-1.16.4c-.62-.39-.84-1.51-.51-2.11l.98.7Z"/>
  <path d="M245.53,126.91l-.58.41c-.14.1-.62.16-.6,0,.03-.21.11-.75.23-.88l1.3-1.48c.59.6.26,1.52-.35,1.95Z"/>
  <path d="M179.43,45.25c-.05.32-1.04.81-1.26.56l-1.16-1.37c.77-.33,1.65-.03,2.42.81Z"/>
  <path class="cls-1" d="M225.8,115.44c-1.81.79-2.77-.92-4.27,1.05l1.57.9c-1.82.24-3.44,1.59-3.82,2.8-.12.37.63.96.9,1.14l-1.22.92c-.87.66,1.58,3.16-.4,5.98l2.18,2.18-.1,1.94c-.02.32-.97.63-1.1.93-.15.35-.06,1,0,1.57l-.78.29c-.22.08-.44.69-.25.83l.99.72c.2.15-.32.77-.39,1.05.53,1.54-.22,3.57-2.01,4.23l-.99,2.56,1.76.62-.79,2.13c-.36.97.75,1.7,1.81,1.96.16,3.01-3.54.2-4,3.45l2.75-.78c.03.99,0,1.35.14,1.72.48,1.27,2.21.23,2.51.98l.36.9.44-1.11c.09-.22.73.04,1.09.14,1.4.41,1.09-1.28,2.51-.76l-1.33,1.48c-.85.17-4.99,1.9-4.26,2.34l.97.58c.18.11-.04.66-.07.9l.95,2.37-2.86-.17c-.83-.05-2.02-.91-3.21-1.29.04-.51.29-1.41.55-2.29l-1.54.14c.07-.45.69-1.24,1.01-1.07.56.29.86.43,1.03.25,1.77-1.85-2-.14-1.67-4.7-.84.32-1.35.44-2.49.64l.91,1.88-1.18.57c.8.01,1.14-.1,1.35.15.34.42.21,1.68-.36,1.53l-2.15-2.74c.34-1.66,1.15-3.12,2.36-3.71l-2.06-2.6-1.64-1.99c-.77.36-2.01.07-2.08-.65l-.22-2.1c-.03-.31.05-1.01.04-1.3-.02-.58-1.1-.38-1.5-1.57-.07-.21.57-.45.85-.59l.33-2.13c-1.02-.66-1.25-2.56-.03-3.56.73-.6,1.28-2.35.84-3.18l-1.1-2.07.9-.45c.15-.08-.06-.59-.06-.83,0-1.03-.79-1.66-1.11-2.44-.28-.69-.21-2.05-1.05-2.54-.35-.2-.41-1.31-.61-1.64-.91-1.43-.48,2.55-3.45,1.88l.51-.96c.09-.16-.24-.58-.36-.79l1.77-2.01c1.27-1.44-.33-2.51.55-2.3l.75.17c1.98.45,4.36.65,4.92-1.86-3.63-1.26.45-2.9-1.5-4.95l.54-1.45c.24-.65.5-1.17,1.01-1.81.69-.87-.8-2.61-1.66-2.54-.16.01-.56.37-.7.45s-.59-.11-.57-.26l.11-.96-.53-.24c-.61-.28.67-1.16.95-1.67.22-.39-1.27-2.36-3.43-1.99.34-.92,1.46-.89,2.38-.52l.39-1.07c.09-.26-.78-.34-1.05-.32l-1.05.1c.73-1.19.83-1.84.29-2.99l2.47-1.08c-.5-1.5.67-1.93,1.3-2.78l2.64-3.6c.59-.8.61-1.52-.22-2.35.15-.09.94-.37,1.08-.18l.77,1.08,2.51-.32c-.48-1.07-.67-2.06.38-2.61l-.15,1.81.74-.14c.14-.03.48.17.43.31-.62,1.59-1.35,3.42-3.27,3.93-.22.06-.82.73-.63.84,1.42.84,2.1.35,2.08.29l-.32-1.31c1-.27,2.35-.37,3.54-.4l-.15-.51c-.04-.14.35-.49.4-.35l.35.94c.1.05.96-.5.94-.83l-.09-1.5c.99.79,1.13,1.77,2.25,1.29l-1.31-1.79c-.08-.11-.19-.51-.22-.63-.18-.71,2.34.47,2.77.75l1.9,1.25c.18.12.45.9.64.81l1.09-.52-1.75-1.7c-.21-.2-1.26-.02-1.34-.3s.07-.9.25-1.21.93.28,1.29.4c1.36.47,2.68.9,3.58,2.08.81,1.06-.13,1.91-.62,2.81-.39.72-.61,2.14-1.6,2.2-.61.04-1.28-.88-1.81-1.45-1.1.15-1.99,1.49-2.73,2.43-.44.21-1.22-.44-1.63-1.07l-2.11.77,1.67,1.62c-.35.12-.96.32-1.22.38-.3.08-.69-.5-1.18-.89-2.4,1.88-2.06,1.33-2.74,3.62-.03.18.79.48.84.28.4-1.4-.58-1.91.18-1.91h3.08c.14,0,.52-.45.6-.57.1-.16.46.27.44.46-.34,2.48.68,1.34.78,4.33l2.17,1.02-1.2,1.37c-.93,1.06,1.37.4-.31,3.86-.68.4-1.42.93-1.49,1.79l-.1,1.17c0,.11,1.67,1.58,2.76.68l.92.25c.23.06.5-.72.47-1-.17-1.92,2.02-1.5,3.82-2.89-1.13-1.02-1.7-.14-2.48.37l-.61.39c-.38.25-.31-1.4-1.89-1.74-.82-.35,3.29-2.86,4.21-2l-1.3.81c-.2.12-.57.52-.55.74.13,1.23,1.64-.7,3.27.1l-1.38-2.16.88-2.06,1.63-.25c1.57-.24.42,2.18,3.37,3.13-.03.34-.7,1.14-1.11,1.18l-1.32.15,1.41,1.49c-.84.41-4.83-.8-4.05.41l.63.98-1.38-.02c-.76,0-1.23,1.14-1.01,1.84l.84-.06c.18-.01.56.41.53.53-1.61.17-2.65.82-3.55,1.95l-.77-.19c-.2-.05-.66.39-.69.59.58,1.41,4.33-.86,3.6-.32l2.38-1.77-.24-1.22c.75.83,1.82,1.07,2.87.84.06-.25.19-1.08-.05-1.16l-1.41-.5,2.37-.09.67,2.26c-.92.62-1.63.73-3.12.9l.93,1.31c.13.18-.24.89-.22,1.11.02.28.65.47.93.62l-.84,1.53c-.79.04-.79-.04-.11-.49-.54-.49-1.07-.1-2.41.24l1.22-1.44-1.6-1.43-2.66,1.78,1.8,1.27ZM221.16,90.49c.62-.23,1.08-.72,1.49-1.43l-2.64-.06-.42,2.07,1.57-.59ZM213.91,95.14c-.33-.97-1.07-1.54-1.42-1.25-.46.38-.81,1.18-.43,1.32.68.25,1.96.36,1.85-.07ZM209.08,99.14l1.88-1.31c.37-.26.74-.96.62-1.44-.11-.44-.91-.91-1.27-.71-.82.45-1.3.63-2.41,1.01l1.19,2.45ZM218.9,159.71c.18-.49-.35-1.47-.79-1.75s-1.75-.04-1.74.42c.01,1.13,1.68,1.96,2.53,1.33Z"/>
  <path class="cls-1" d="M184.87,165.86l.2-1.1c.04-.23-.5-.39-.75-.39-.18,0-.56.31-.49.47l.39.95c.11.67.23,1.22.49,2.03-.48.48-1.77,1.08-2.59,1.43-1.08.46-1.77,1.8-3.2.85.07-.87.12-2.38.38-3.11,1.36-3.88-1.14-.85-.37-6.27l1.56-.8c.12-.58.23-1.18.52-1.23,1.73-.27.57,1.91,2.56,2.94-.24.47-.52,1.15-.62,1.65.72-.22,1.31-.51,1.97-.85.28.16,1.38,1.25,1.85,1.06.74-.3,1.73-.82,2.49-1.21-.1,1.21-1.45,1.39-2.1,2.12-.61.68-1.45,1.66-2.3,1.45Z"/>
  <path class="cls-1" d="M263.64,252.97c-1.02.81-.31,2.94-1.25,2.71-.46-.11-.94-.57-1.34-.97l-.84.56c-.18.12-.59-.31-.68-.52-.48-1.13,1.57-.54,1.69-1.64l.27-2.39c1.38-1.3,2.84,0,3.75.63,1.58,1.12,2.25-.79,2.99-1.35l3.1-2.31c1.76-1.32-1.35-.93-1.04-2.37l2.36-.62c.44-.12,1.41.28,1.53.68s-.15,1.37-.51,1.63c-.83.6-.92,1.35-1.13,2.31l-.59,2.72c-.52-.73-1.11-1.03-1.75-.62-.97.62-.91,1.37-.27,2.12.18.21.44.73.32.92l-.53.82.51.57c.11.13.06.72-.11.68-1.95-.54.27-.35-2.09-1.55l.44-1.14-1.04.27c-.21.05-.38-.54-.58-.62l-1.65-.65c-.37-.15-1.25-.1-1.56.14Z"/>
  <path class="cls-1" d="M250.66,174.22c-.14,1.35.69.32.89,2.24.02.18-.65.31-.75.16l-.44-.64c-.7-.76-1.07-1.33-.65-2.36l-1.42-1.8c-.14-.18-.38-.69-.49-.87s-.86.3-.75.48l.51.88c.11.2-.02.86-.25.86l-1.25.03c-.17,0-.54.06-.7.08s-.13,1.54,3.47.75c.19.12.2.85-.02,1.01-.3.22-1.01.41-1.39.45-1.48.13-2.15-.48-2.66-1.75-.79-1.97,1.81-2.01.32-4.66-.1-.18-.14-.76-.32-.76l-1.12-.02-1.55-2.21-.89.04c-.2,0-.1-.75.05-.89.76-.69,1.23.77,1.74.38l.91-.67.36.78c.08.18-.44.66-.42.87.06.59,1.07.48,1.86.12l.4,1.48c1.84.49,1.56-1.47,3.06-2.22.41-.2,1.58.07,1.79.48.22.44-.41,1.32-.78,1.22-.43-.11-1.05-.32-1.55-.49l-.12,1.14c-.03.3-1.87.98-1.67,1.3.12.18.42.66.41.66l2.3-.24-.68,1.88,1.68-.86.9,1.73c.07.13.28.65.17.72l-.93.7Z"/>
  <path class="cls-1" d="M203.88,162.98c-.91-.14-2.27,2.7-1.53,2.75.55.03,1.13.06,1.46.11.39.06.72,1.22.62,1.44l-2.58.42-.53-1.46-.63.15c-.28.07.08-1.75-.44-2.07-.31-.19-1.1-.26-1.56-.34l1.16-2.49-.91.09c-.14.01-.51-.32-.44-.45l.83-1.7c1.28.08,4.1.92,3.8,2.96.58-.12,1.02-1.06,1.15-1.76,2.85-.06,2.26,1.99,3.12,3.08.27.34-1.57.22-2.21,1.83-.05.21-.96-.44-.8-.68l.85-1.22c.04-.11-.92-.6-1.36-.67Z"/>
  <path class="cls-1" d="M234.25,134.37c.45.11.27,1.09-.11,1.5-.75.81-3.22.28-3.91-.5l-1.46-.24-.54-1.71,3.41-.41-.85-3.31c-.2-.79-.56-1.52-.94-2.19.11-.13.71-.48.9-.36l.81.52c.7-.16,1.45-.51,1.93.53l-1.7.24c.02.48.23,1.24.64,1.59.36.3,1.31-.22,1.79-.59.31-.23,1.26.62,1.25.96-.77.63-1.03,1.41-1.03,2.32l-1.12.26c-.23.05-.32.63-.3.88.02.23.75.39,1.23.51Z"/>
  <path class="cls-1" d="M247.01,162.2l-1.6-.19c.07-.78,0-1.22-.37-1.42s-1.18-.26-1.43,0-.44.92-.74,1.66l-.71-1.87-1.78,1.23c1.54.48,2.03,2.12,1.6,2.93-.07.13-.75.07-.75-.08v-1.04c-.08-.01-.56.02-1.27.07l.2-1.39c-.26-.53-.6-1.38-.56-1.69l2.5-.92c-.97-2.15-1.17-.72-1.88-2.83l2.53.8c.16.05.75-.13.92-.16.23-.04.04.79-.13.96l-1.39,1.42.98.56c.63-1.54,2.68-1.96,3.86-1.16-.02.32-.24,1.05-.02,1.15l.85.36c.45.19-.55,1.93-.05,2.07l1.1.3c.23.06.72.29.91.42s-.41.62-.63.76c-1.66,1.02-1.39,2.52-1.88,2.09-.12-.11-.59-.36-.51-.5l.54-.9c-.4-.68-.54-1.63-.27-2.62Z"/>
  <path class="cls-1" d="M229.7,97.36c-.24.02-.87-.54-.76-.77l.57-1.13-1.68-.84c-.45-.23-1.41.27-1.57-.5-.14-.68-.06-1.46.73-1.68s2.19.17,2.64.78l1.09,1.46,1.65-1.28-.21-.41c-.08-.15-1.69,1-3.79-1.41.99-.32,2.07-.09,2.84.12l1.32.16c.23,1.27,1.01,2.38,2.12,3.11l-1.77,1.07c-.27.16-.83.45-.96.23l-.73-1.24c-.49.29-.58,1.29-.25,2.2l-1.24.13Z"/>
  <path class="cls-1" d="M170.75,143.29c-.13.66-.43.88-.49.06l-.35-1.18c-.07-.22-.67.06-.79.26l-.31.52c-.09.15-.77.05-.73-.12s.23-.74.23-.96l.12-4.28,1.76-.38c.22-.05.61-.41.66-.62s-.4-.61-.61-.63c-.51-.06-1.93,1.33-1.27.33l.35-.53c.89-1.34,1-2.98,1.62-2.39l.74.71c.16.16.4.79.19.87l-1.15.45,1.36.68c.59.98-.55,2.14-1.79,2.34.53.39,1.41.89,1.37,1.28-.06.63-.28,1.68-.38,2.21l-.77.41c-.14.08.09.55.25.99Z"/>
  <path class="cls-1" d="M283.23,207.16c-.58.5-1.38.44-2.34.32.83.91,1.51,2.63.37,3.08-.84.13-2.23-1.64-2.14-2.48.13-1.26.36-2.8-1.11-3.5l.44-2.33.51.97c.09.18.41.15.8.24.52.13,1.14.13,1.97.06.04-.2.4.88.15.95l-1.37.37,2.71,2.32Z"/>
  <path class="cls-1" d="M162.04,146.14l-.4-1.76,1.27.65c.27.14.41-.6.53-1.19.1-.02.84.28.79.51l-.32,1.48,2.57.48.33-1.88-1.15-.62c-.24-.13-.54-.63-.65-.95s.89-.91,1.06-.61l1.11,1.92c.12.21.58.75.79.65l1.25-.59,1.12,1.07c.18.17-.26.83-.51.86-.9.07-1.61-.86-1.83-.49l-.42.72c-.19.33-.82.82-.67,1.12l.86,1.69c-2.23-1.39-3.22-1.62-5.73-3.05Z"/>
  <path class="cls-1" d="M223.81,151.44l.87-.06c.16-.01.45.54.31.64l-.66.48c-.44.32-1.31.65-1.74.46l-1.02-.46c-.41-.18-1.4,1.26-1.5,1.16l-.46-.47c-.44-.45,1.65-.83,1.06-1.33-.33-.28-.71-1.13-.66-1.51.17-1.3,2.95-1.23,1.62-2.06-.25-.15-.84-.22-1.14-.14l-.69.19c-.11.03-.2-.32-.17-.43s.36-.43.47-.44l3.04-.07.6,1.26.82-.25c.14-.04.43.37.48.49l-1.02,1.12-1.59-.6-.31,2.14,1.69-.13Z"/>
  <path class="cls-1" d="M187.76,106.55l2.4-1.04-.63-.85c.43-.23,1.22-1.07.88-1.15l-1.71-.39c-.12.19-.28,1.13-.54,1.06l-1.17-.31c-.55-.15.21-1.46,1.03-1.98.29-.18,1.21.24,1.53.24l1.11-1.58-.13,1.39c1.93,0,1.99-1.4,3.13-.35-.86.9-1.21,1.47-1.47,2.32l-.97,1.39c-.78,1.11-1.75,2.14-3.45,1.26Z"/>
  <path class="cls-1" d="M252.54,191.8c.47.08.55-2.14,1.76-1.76.67.21.75.78.9,1.52s.7,1.66.4,2.32c-.24.51-1.09,1.13-1.67,1.18l1.04-1.68c.14.3-.17-.6-.33-.61l-2.96-.25c-.37.24-1.2.94-1.63.85-1.29-.29-2.69-1.81-2.5-2.99.04-.24.53-.92.31-.98-.24-.07-.72-.15-.99-.13l-1.02.08c-.25.02-.52-.94-.27-.98,2.26-.45,1.4.46,4.32.1.4-.05,1.11-.27,1.25-.02l.64,1.06c.93,2.63-1.98-.09-2.62.58.67,1.19,1.17,1.7,2.18,2.33l.32-.77.87.15Z"/>
  <path class="cls-1" d="M257.82,180.76l.27-.73c.15-.41-2.31.47-3.3-.45.3-.66.86-.65,1.77-.3l.25-2.24c.51-.25,1.76-.79,2.34-.99l2.45.72c-.47.8-.79,1.75-1.96,1.43l.5,1.06-1.18.21c-.46.08.07.74-.76,1.98-.09.14-.45-.5-.38-.68Z"/>
  <path class="cls-1" d="M194.64,80.64c.34.86.44,2.33-.23,2.81-.98-.81-1.57-1.41-2.7-1.77l-.97-1.88c-.07-.14.01-.75.09-.89s.36-.33.47-.21l.59.69c1.19-.45,2.6-.59,3.78.3l-1.04.94Z"/>
  <path class="cls-1" d="M239.14,179.68l-.36-1.45-.84.09c-.22.02-.47-.5-.48-.72-.03-.54.19,0,1.58-.84.45-.27-2.08-.46-1.37-3.32,1.01.65,1.47,1.09,2.23,1.88l2.33-.19c.01.15-.21.92-.38,1.19-.19.3-.89.44-1.2.47-.18,1.04-.78,2.02-1.51,2.89Z"/>
  <path class="cls-1" d="M285.95,217.11c.06.28-.69.83-.93.71-1.55-.84-1.1-2.08-1.85-2.14-.4-.04-1.26.08-1.72.18-.48-3.59-3.77-3.42-1.83-5.45l1.01,2.5,1.24-.17c.19,1.05.71,1.4,1.85,1.57l2.24,2.81Z"/>
  <path class="cls-1" d="M199.37,125.48l-1.08.82c-.24.18-1.11-.17-1.27-.39l.82-2.12-.97-1.16c.49-.53,1.46-1.21,1.97-1.06l2.2,2.54c.47.54-1.04,1.34-1.67,1.38Z"/>
  <path class="cls-1" d="M250.19,179.76l-1.63-1.91.41-.65c.08-.12.64.07.62.22l-.1.68,2.11-.28c.82-.58,2.18-1.39,3.02-1.45.16-.01.61.58.5.69s-.41.4-.53.53l-1.08,1.2c-.28.31-1.16-.05-1.54-.23-.06.55-1.41,1.63-1.78,1.2Z"/>
  <path class="cls-1" d="M230.44,150.34l-.82.7c-.15.13.02.51.12,1.1l-1.36-.59c-.12-.05-.23-.64-.11-.68l.83-.3c2.79-4.21,2.71-1.05,4.06-3.6h2.21c.02,1.18-1.6.68-2.91,1.48.15.6.32,1.27.09,1.46l-.88.74-.58-.86c-.09-.13-.46.38-.66.55Z"/>
  <path class="cls-1" d="M242.05,170.85s.74,3.51-.54,3.66c-.63-.26-1.69-1.11-2.12-1.72.2-.61.1-2.81.94-2.43l.93.42c.16.07.61.05.79.07Z"/>
  <path class="cls-1" d="M152.4,158.79l1.17-3.12c-1.92.46-3.48-.12-4.36-1.55l1.76-1.18.21,1.69c.87-.41,2.53-.27,2.81.88.14.57.09,1.61.07,2.21l-1.66,1.07Z"/>
  <path class="cls-1" d="M261.07,183.85l-2.42.76c-.11.03-.49.02-.58-.04-1.13-.82,1.23-.7,2.05-1.37.5-.41.26-1.33-.25-1.96-.09-.38.73-1.03,1.28-1.13.51-.1,1.22.15,1.99.51l-1.31,1.28c-.35.34-.28,1.81-.78,1.97Z"/>
  <path class="cls-1" d="M223.55,160.78c-.18.27.95,2.21.13,1.8l-.7-.34c-.27-.13-1.15-.36-1.03-.63l.57-1.27c-.39-.71-.48-1.62.06-2.41l-1.01-.08c-.19-.02-.18-.74-.03-.86.45-.36,1.92-.19,2.27.13l-.67,1.51c-.17.38.62,1.02,1,1.27l-.59.89Z"/>
  <path class="cls-1" d="M194.38,158.83l1.54.42c-.95,1.37-2.8.6-3.48-.6.29-.73,1.48-1.86,2.19-2.17.27-.12.95.35.93.64-.02.42-.21,1.26-.56,1.23l-.75-.07c-.12-.01-.02.51.12.55Z"/>
  <path class="cls-1" d="M216.18,163.95l-1.73-.23c-.22-.28-.77-1.11-1.14-1.78-.22-.4.95-.99,1.42-.91s.86.77,1.26,1.33l.7-.53c.15-.11.56.32.54.48l-1.04,1.63Z"/>
  <path class="cls-1" d="M275.4,234.87c0,.45-.8.95-1.37.93l-2.25-.09-1.83-1.19.67-.87c.73-.95,1.75,1.52,4.78,1.22Z"/>
  <path class="cls-1" d="M238.32,97.11l-2.12,1.46c-.57-.21-.35-1.42-.26-2.01l-.55-1.17c-.15-.32.36-.88.88-1.34l.46,1.54,1.6,1.52Z"/>
  <path class="cls-1" d="M274.47,240.01c.04.26-.81.55-.97.37l-.7-.78-1.89-2.11c-.08-.09,0-.73.11-.7l.85.23c1.36.36,2.32,1.41,2.58,2.98Z"/>
  <path class="cls-1" d="M187.91,105.45l-1.46,1.67c-2.46-.99-2.9,0-3.72-1.25-.13-.2.6-.63.86-.62l4.33.19Z"/>
  <path class="cls-1" d="M237.33,172.86c-.49.85-1.23,1.54-1.78,1.45l-.37-3.7c.49.07,1.27.29,1.66.53s.75,1.29.5,1.72Z"/>
  <path class="cls-1" d="M227.31,156.18c.51-.34,1.18-.56,1.71-.6l.81-1.84c.34.29.94.64,1.07.45.23-.44-.51-1.28-.93-1.69l2.1-1.43c.15.19.64.86.57.83l-1.37.51c-.32.12-.2.86-.07,1.39.4,1.59-.9.54-2.18,3.47-.41.06-.93-.32-1.73-1.09Z"/>
  <path class="cls-1" d="M181.22,94.11c-.21.46-.49.92-.72,1.04-.28.14-1.03-.02-1.52-.11l-.36,1.12c-.09.27-.96-.15-1.17-.34-.25-.24.44-2.73,1.17-3.5l.29,2.44,2.32-.64Z"/>
  <path class="cls-1" d="M198.42,166.01l-3.4.65c-.68-.07-.25-1.94.3-2.12l1.94.55c.32.09.95.66,1.17.92Z"/>
  <path class="cls-1" d="M257.44,189.32c-.37.51-.81.87-1.39,1.12-.08-.99-.17-1.91.18-2.59s1.94-.56,2.55-.36l-1.34,1.83Z"/>
  <path class="cls-1" d="M217.37,57.92l.06,1.02c.02.36-2.85-.45-2.44-2.07.1-.41.99-.65,1.35-.5.62.25.98.86,1.02,1.54Z"/>
  <path class="cls-1" d="M221.09,134.69c-.07.06-.62-.13-.56-.2,1.97-1.91.61-1.16,2.96-2.64.3.96.44,1.74.44,2.5-1.23-.45-2.33-.11-2.84.34Z"/>
  <path class="cls-1" d="M199.17,47.93c-.19.12-.64.26-.81.31-.23.06-.62-.86-.46-1.02.45-.45,1.69-.82,2.41-1.07l.78-.28c.2-.07.53.27.66.44l-2.58,1.62Z"/>
  <path class="cls-1" d="M282.46,235.57l-.74.3c-.14.06-.71-.24-.69-.4.07-.73.72-2.1,1.11-2.72l.84,1.54c.12.22.3.59.34.77.05.22-.51.38-.85.51Z"/>
  <path class="cls-1" d="M212.97,54.07c.08.13-.23.8-.35.7l-.65-.53c-.41.2-.8.44-1.12.47-.37.04-.99-1.14-.7-1.38.33-.27,1.11-.63,1.47-.54.41.1,1.12.9,1.34,1.27Z"/>
  <path class="cls-1" d="M174.87,132.17c-.3.12-.73-.75-.96-1.1-.6.6-1.54,1.14-2.48.65l2.75-1.95.26,1.02c.15.57.85-.01,1.12.99.03.11-.31.24-.7.39Z"/>
  <path class="cls-1" d="M251.3,182.47l-2.14-.23,2.9-2.25c.32.26.81.95.55,1.17-.42.35-.79.73-1.31,1.31Z"/>
  <path class="cls-1" d="M239.35,167.76c-.34.39-1.03.97-1.33.89-.35-.1-.82-.68-.98-1.09-.06-.15.9-1.59,2.21-.93.26.13.3.9.1,1.13Z"/>
  <path class="cls-1" d="M188.77,76.44c1.84-.74,1.5.09,3.88.38.11.01.27.31.2.4-.9,1.09-3.02.3-4.08-.78Z"/>
  <path class="cls-1" d="M217.29,53.82c-.38.41.56,0,.93,1.43.06.24-.65.51-.8.32l-.81-1.08c-.22-.29-.53-.76-.61-1.03s.46-.83.75-.8c.34.04,1.28.38,1.05.63l-.5.53Z"/>
  <path class="cls-1" d="M270.44,243.72c-.3.15-1.31-.21-1.35-.5-.05-.35.49-1.02.85-1.04l2.26-.12c-.47.67-1.06,1.3-1.76,1.66Z"/>
  <path class="cls-1" d="M221.61,82.45l-1.93.69c-.33-1.77,1.05-1.15,2.66-2.64.14-.13.46.22.51.31-.64.37-.93.68-1.24,1.64Z"/>
  <path class="cls-1" d="M183.52,144.75l-2-1.58c-.14-.11-.49-.31-.64-.41s.19-.78.3-.78c.3.28.55,1.01.82.95l1.54-.33-.02,2.15Z"/>
  <path class="cls-1" d="M192.45,99.21c-.32.43-1.23.87-1.84,1.16-.21-.48-.03-1.39.34-1.92.4-.57,1.93.19,1.5.76Z"/>
  <polygon class="cls-1" points="242.5 168.74 240.37 169.15 241.71 166.47 242.5 168.74"/>
  <path class="cls-1" d="M153.9,153.88l-1.54-.26.06-.71c.02-.19-.35-.34-.76-.64-.16-.09.57-.55.75-.41l.81.64c.14.11.52.29.68.37.22.1.25,1.05,0,1.01Z"/>
  <path class="cls-1" d="M264.66,258.49l-1.34.06c-.45.02-.97-2.46-.43-2.66l1.77,2.6Z"/>
  <path class="cls-1" d="M180.24,90.79l.24,2.46c-1.08-.53-1.58-1.34-1.75-2.39l1.51-.07Z"/>
  <path class="cls-1" d="M214.77,80.43l-1.39-.66-.79-.28c-.23-.08-.04-.89.2-.92.8-.11,2.56.6,1.97,1.86Z"/>
  <path class="cls-1" d="M234.35,109.64l-1.65-1.07,1.27-.76c.25-.15,1.19.16,1.16.44s-.28.64-.78,1.39Z"/>
  <path class="cls-1" d="M233.35,105.9c0,.07-.42.7-.63.88-.26.22-.97-.13-1.23-.36s-.24-1.21-.08-1.33l1.94.81Z"/>
  <path class="cls-1" d="M185.62,144.76l-.8.21c-.2.05-.41-.19-.63-.43.74-.25,1.62-.29,2.01.11s.2,1.95-.38,1.79-.43-1.2-.19-1.67Z"/>
  <path class="cls-1" d="M204.34,102.09c.51-.13.67,1.75.56,1.84l-.85.64-.39-2.31c-.2.05.47-.12.68-.17Z"/>
  <path class="cls-1" d="M178.45,136.75c-.68.13-1,.28-1.08.12l-.53-1.05c-.16-.31.07-1.15.54-1.3l1.06,2.24Z"/>
  <path class="cls-1" d="M235.35,160.65l-2.65.5c0-.65.36-1.11.94-1.29.47-.14,1.11.15,1.71.79Z"/>
  <path class="cls-1" d="M282.4,239.16l-1.19-.61c-.26-.13-.18-1.1.09-1.22.45-.2,1.03.22,1.24.58.17.29.07,1.16-.14,1.25Z"/>
  <path class="cls-1" d="M234.22,113.41c-1.31.4-1.61-.98-2.05-.45-.06.07-.27.33-.28.33s.3.22.57.41h-1.25s.96-1.85.96-1.85l2.05,1.57Z"/>
  <path class="cls-1" d="M254.17,120.64c-.75,1.02-2.05.59-2.81-.5.9-.22,1.87-.04,2.81.5Z"/>
  <path class="cls-1" d="M125.7,249.73c.03.53,2.89,1.25,1.27,1.32-1.86.08-1.34-1.38-1.65-.53l-.29.79-.26.72c-.05.15-.56-.06-.74-.09-.15-.03.28-.71.13-.76-.48-.16-1.45.17-2.04.6l-3.27-1.62,1.23-1.07c.96.12,1.63.16,2.51.17l-.77,1.61,3.55-1.1-.19-.58c-.04-.11.47-.27.47-.15l.04.7Z"/>
  <path class="cls-1" d="M155.24,199.75l-.44-.47c-.08-.08-.52.07-.48.18.06.18.22.61.3.77l.34.67c.07.14-.35.39-.49.47-.13.08-1.34-1.4-1.35-1.92,0-.34.64-.8.97-1l.86-.51c.2-.12.07-.66.03-1.23.03-.05.87-.07,1.14-.01s.55.64.51.84c-1.4,1.11.7,2.06-.51,2.45-.25.08-.69-.03-.87-.23Z"/>
  <path class="cls-1" d="M159.52,222.54l-2.53.27c.52-1.27.89-2.37,1.12-3.49.87.18,2.04.99,1.8,1.83l-.39,1.39Z"/>
  <path class="cls-1" d="M126.81,262.64l-2.27.44-1.01-1.34.97-1.92,1.27-.07-.23,2.36.66-.16c.14-.03.3.24.61.69Z"/>
  <path class="cls-1" d="M159.73,197.42l-.52-1.41-.68-.75c-.2-.22.21-1.04.5-1.04s.85.23,1.2.48c.8.58.47,2.15-.5,2.73Z"/>
  <path class="cls-1" d="M159.26,208.27c1.65,1.46-1.25.04-2.63.96-.22.15-.93.27-1.06.06s.13-.99.35-1.09c.92-.4,2.64-.55,3.34.07Z"/>
  <path class="cls-1" d="M158.33,211.01c.33.45.51.86.44,1.14-.09.35-.98.72-1.28.52-.37-.25-.84-.58-1.03-.78-.23-.23.37-.98.66-1.12s1.02-.02,1.21.24Z"/>
  <path class="cls-1" d="M127.41,257.97c-.23,1.17-4.04.77-3.89-.14l1.73-.07c.76-.26,1.36-.51,2.16.22Z"/>
  <path class="cls-1" d="M127.25,253.61c-.87,1.68-4.52-1-3.44.13l-.37-.39c1.28-.92,2.79-.48,3.81.26Z"/>
  <path class="cls-1" d="M164.44,185.69l-2.15,1.16c-.11-.21-.31-1.15-.04-1.29l1.5-.79.7.92Z"/>
  <path d="M209.08,99.14l-1.19-2.45c1.12-.38,1.59-.56,2.41-1.01.36-.2,1.16.28,1.27.71.12.47-.25,1.18-.62,1.44l-1.88,1.31Z"/>
  <path d="M218.9,159.71c-.85.63-2.51-.2-2.53-1.33,0-.46,1.32-.69,1.74-.42s.97,1.26.79,1.75Z"/>
  <path d="M221.16,90.49l-1.57.59.42-2.07,2.64.06c-.42.71-.88,1.19-1.49,1.43Z"/>
  <path d="M213.91,95.14c.1.43-1.17.32-1.85.07-.38-.14-.03-.94.43-1.32.35-.29,1.09.28,1.42,1.25Z"/>
</svg>