<?xml version="1.0" encoding="UTF-8"?>
<svg id="Layer_2" data-name="Layer 2" xmlns="http://www.w3.org/2000/svg" viewBox="0 0 432 288">
  <defs>
    <style>
      .cls-1 {
        fill: #fff;
      }
    </style>
  </defs>
  <path class="cls-1" d="M255.41,106.98c-.27.55-1.22,1.47-1.99,1.26-.24-.07-.74-.56-.93-.45l-.95.48.94-1.22.73-.06c.14-.01.12-.47,0-.53l-.46-.25c-.12-.07-.18-.4-.22-.64-.01-.09.18-.09.24-.03l.41.39.7-1.06-1.95-.36,3.22-1.83-1.38-.88,1.57.33c0,.46-.06.59.06.63l.5.15-1.33.82c.37.58.69,1.23.43,1.47-.76.33-1.19.91-1.11,1.94l1.52-.14Z"/>
  <path class="cls-1" d="M87.53,1.24h311.22v286.94H87.53V1.24ZM251.54,108.27c.11.73-.35,1.24-1.08,1.75.73-.07,1.99,0,2.57.26.07.03-.19.45-.22.52-.05.1-.14.31-.04.29l.81-.12-.74,1.6c.15.22.52.95.33.86l-.62-.33c-.17-.09-.48.03-.85.1l.94-1.79c-.85.37-1.21.86-1.92,1.6l-.27-1.2-1.83-1.07c-.07-.04.02-.65.1-.62l.36.14.59-.27c.12-.05-.26-.41-.32-.5-.02-.27.06-.69-.13-.71-.23-.02-.95.22-1.09.42-.34.51-.18,1.39.14,1.96.26.48.99.85,1.67,1.08l.44.93c.87.11,1.33.3,1.93.7l-.76.33c-.56-.31-1.21-.48-1.6-.4.41.5.93,1.17.67,1.41-.35.33-.97-.44-1.08-.89-.01-.05-.49.22-.41.33l.4.59c.09.45.08.74-.21.39-.83-.4-1.23-.64-1.66-1.01l-.55,1.24.74-.2c.14-.04.26.21.28.35s-.37.39-.52.39l-.72-.04c-.17,0-.07.64.02.82,1.11-.16,2.5-.84,3.35-1.56.23.1.89.46.74.57l-.68.5c-.1.07-.71.21-.63.3l.41.47c-.61.5-1.17,1.08-1.63,1.62l1.57.37c-.68.69-1.34,1.09-1.42,1.84-.05.45.72.69.88.28s.25-.55.05-.98l1.18-.36c.14-.04.36.57.24.66l-.78.5.48.42c.13.11-.29.34-.48.38l-1.16.26c-.07-.1-.39-.82-.54-.69l-.66.6c-.69.12-1.28.37-2.03.96l-.28-.82c-.24-.71-.42-1.25-.43-2.02l-.88-1.18,3.09-.93c.22-.07.76.02.95.02s.07-.68.07-.91c-.01-.46-1.4.59-1.66.39l-.67-.5.24,1.05-1.28-.05.53-.65c.12-.14-.42-.45-.59-.54l-1.53-.81.53-1.25h-.93c-.57.84-.44,1.73.12,2.61.39.63.5,1.65.76,2.37.76,2.12,1.78,6.29,2,8.15.1.87-.01,1.51.89,2.03l-.42.59c-.1.14.34.59.36.76l.66,5.43c.02.15.47.51.43.63l-.27.77c-.16.46.28,1.48.49,1.92.08.16-.18.68-.05.81l.6.6.59,2.73,1.32,4.2s.47,4.61,1.07,5.95.94,3.17,1.2,4.64l.51,2.91c.13.77.47,1.62.56,2.4l.32,2.69c.06.52.18,1.26.35,1.93l.56,2.16.34,3.31.48,3.99c.16,1.34.63,2.52.66,3.94.05,2.66.21,5.21.44,7.85.07.75.05,1.43,0,2.03l.2,1.32c.31,2.03,1.61,2.37.89,4.56l.4,3.77c-.15.58-.42,1.33-.3,1.91l.32,1.63c.18.95-.1,2.22.01,3.23s-.53,1.5-.94,2.18c-.28.47-.38,1.36-.88,1.93l-1.54,1.78-2.62,3.23c-.92,1.13-1.78,2.45-2.58,3.67l-1.14,1.74c-2.66,4.05.46,1.22-4.26,5.27.36.14,1.08.72.94,1.03l-1.55,3.5c-.38.85-.41,1.66-.6,2.65-.23,1.19-.71,2.99-.7,4.04,0,.23.6.68.51.83l-.4.67.61,2.73.44,1.61.84,3.37.34,1.54c.39,1.77.49,3.29.42,5.12l-.17,4.54c-.04,1.02-.05,1.39-.47,2.18-.5.95-.09,2.9.66,3.39.24.06,1.02-.06,1.16.1s-.24.8-.14.99c.35.69,1.85,1.06,2.94.36l-.7-1.07c.01-.24.21-.79.42-.93.25-.17.89.48,1,.67.31-.28.92-.58,1.45-.65l1.23-.16.17-.65c.05-.2.65-.28.77-.45.29-.42,1.22-1.39,1.61-1.01.21.2.05,1.11.31,1.21.34.13,1.23,0,1.15-.34l-.26-1.05c-.1-.42,1.82-.21,3.05-.97l.16,1.34.66-1.09,2.42.44c.1.43-.4.69-1.11,1.01l.63.27s1.26,3.26.58,3.77l-2.66.19c-.14.01-.58-.09-.71-.1s-.22.35-.3.49.1.23.49.52c.76.7-.51,2.98-1.24,3.53-.99.74-1.98.97-2.93.26l-.71.46c-.73.47.57.97.37,1.88-.22,1.01-2.02-.27-2.11.41-.07.48-.11.84.09.74,1-.37,1.58-.52,2.39-.42-.02.03.36-.47.51-.55l2.16-1.14c.04-.48.46-1.5.73-1.26.55.5.79.83,1.33.84.5.01.74-.58.83-1.29l1.53-.89.99.66c1-1.08-.33-3.36.28-3.25l1.09.2.45-2.39c.23-1.23.71-2.05,1.67-2.89.47-.41.6-1.88.98-2.37.9-1.16,1.9-3.26,1.83-4.79,2.27-1.46,1.36-2.34,3.58-4.87l.63.63c.38.38-.31-.83,1.59-2.39,3.19-2.62,1.12-.29,3.73-3.6.38-.48.9-1.04,1.3-1.49l-.31-.78c-.07-.19.77-.24.86-.42l1.51-3.07c1.17-2.37.94-3.29,2.3-6.61.43-1.06,1.11-2.27.76-3.4-.09-.3-.55-.81-.44-1.03l.54-.98c.67-1.24-.02-3.01.18-4.29l.27-1.74c.26-1.72.31-3.12.21-4.94-.08-1.63.45-3.84,0-5.83-.74-3.35,1.43-5.09-.74-8.3.25-.63.28-1.31.24-2.06-.23-4.28.44-1.38.19-3.87l-.23-2.33c-.02-.16.3-.51.27-.67s-.25-.55-.27-.75l-.44-3.66c-.46-3.81-.09-4.91-.17-5.65l-.22-1.86c-.15-1.32-.75-4.57-1.21-5.71,0-.22.01-.78,0-1.02l-.14-3.42-.6-4.7c-.19-1.45-.51-3.01-1.12-4.26,0-.48.1-1.38-.06-1.81-.62-1.58-.85-3.19-1.17-4.76-.19-.94-.19-1.75-.39-2.75l-.41-2.08c-.15-.74-.71-1.13-1.61-1.26l.83-.6c.17-.13-.3-.64-.31-.87-.04-.6-.13-1.46-.21-2l-.45-3.01c-.45-3-.56-1.77-1.42-4.86-.33-1.19-.72-2.46-.94-3.58-.21-1.03.19-2.09-.48-3.19-.48-.79-1.19-5.7-1.59-6.75-.69.37-.99.51-1.46.37l1.53-1.14-1.45-5.13c-.17-.6-.61-1.35-.97-1.98l-.95.82c-.06-.01-.09-.83.11-.91l1.13-.43-1.11-1.25c-.07,0-.52.39-.42.37l.72.54c.14.11-.68.5-.79.37l-.97-1.17,1.48-.65c-.19-.87-3.27-3.04-3.36-2.52l.79,1.58c-.92,1.05,3.19-1.7.9.26l-1.43,1.22c-.17-.07-.59-.25-.43-.18l.59-.63c.15-.16-.85-1.69-1.57-2.05l1.61-1.62.58,1.09c.12.22.79.49,1.01.52l-1.95-3.55-.22-.4c-.05-.09-.48.07-.44.16s.15.38.2.46l.33.58c.43.75-1.38-.53-2.19.83-.11.19.25.64.46.71.23.08.55-.2.89-.4l.47-.27c.1-.06.04.44-.02.56-.39.8-2.2.88-2.8.06l-.19-1.85c-.01-.11.37-.44.39-.33l.11.56.1.51c.02.1.42,0,.38-.1l-.17-.55c.7.13,1.28-.18,1.93-.95.29-.34.05-.4-.59-.34.32-.56-.41-1.38-1.2-1.58-.37.08-.92,1-.96,1.39l.5-.33c.1-.07.52-.17.49-.05s-.15.54-.04.59l.61.28c.14.06-.18.67-.23.62-.5-.49-1.29-.89-1.7-.69-.16.94-.62,2.02-1.16,2.37-.09.06-.65-.17-.76-.15-1.2.19,1.85-1.26.79-1.53l-.64.42c-.11.07-.32-.01-.62-.17l1.65-1.02c.08-.05.5-.12.58-.13,4.08-.54-4.82-.05-1.26-.18.1-.32.28-.61.18-.64l-.45-.13c-.6-.18.11.81-.99,1.65-.11-.82-.08-1.64-.49-1.82-.58-.25-1.63-.13-1.82.7l-1.01-2.05,1.93.55-1.1-1.47c.1-.67,1.12-.65,2.04-1.01-.88-.13-1.73-.16-2.53-.18l.4-1.23c-.51-.27-.78-.84-.68-1.22.07-.23.84-.22,1.04-.07s.13.5.09.97l.95-.4c-.31-.82-1.4-1.69-1.97-1.23-.31.24-.77.7-.88.49-.54-1.09.2-1.39-.16-1.41-.14,0-.63-.1-.59.03l.14.48c.02.08-.14.3-.2.36-.06.05-.13.04-.17-.04l-.38-.65,1.74-1.43-.56-.27c-.06-.03-.11-.21-.05-.25l.41-.26c.11-.07.27-.34.38-.53.07-.11-.36,0-.46.08l-.5.41c-.1-.16-.09-1.01.16-.99l1.14.06c.2.01.43-.43.46-.67.03-.2-.14-.46-.26-.75.04-.07.56-.52.58-.38s.17.69.3.7l1.11.02c.21,0-.07-.68-.26-.77l-.76-.36c.17-.23.96-.19,1.39-.28.58-.12.81-1.54.93-2.12.12-.61.61-1.57.37-2.03l-.37-.71c-.04-.08.22-.08.31-.06l.47.11c.51-1.03.94-2.11,1.3-3.16,1.78-5.17.07-2.64,2.83-7.05.87-1.4,1.76-2.65,2.75-4.03,1.1-1.53,2.68-2.85,3.58-4.46l2.56-4.57c.31-.55.58-1.59.83-2.24.68-1.77.56-3.45.38-5.24-.26-2.66-1.63-5.26-3.07-7.46-.55-.85-1.14-1.19-2.03-1.7s-1.7-1.53-2.53-2.14c-1.05-.78-2.13-1.43-3.02-2.43-1.76-1.98-3.07-4.51-5.26-5.15-.7,0-.41-.31.38-.6l-2.11-1.45c-.48-1.49-.61-3.17-.96-4.69-.38-1.68-1.15-3.22-1.68-4.78-.62-1.84-1.47-3.28-2.47-4.91l-1.59-2.58c-1.35-2.18-3.47-4.58-5.56-5.94l-3.65-2.37c-.71-.46-1.49-1.25-2.24-1.6-2.33-1.09-4.37-1.66-7.14-1.7-5.37-.07-3,.77-6.94,1.35-.95.14-1.63.8-2.46,1.14l-3.9,1.63c-.9.38-3.61,2.24-8.33,3.95-1.55.56-2.91,1.5-4.08,2.66l-1.68,1.66-2.19,1.4c-1.22-.17-2.9.82-3.79,1.83-2,.36-3.81,1.04-5.55,2.41l.71.53c.09-.07-.09.07-.38.31-.16.03-.46.06-.53-.05l-.43-.64-1.38,2.05c-.9,1.33-2.36,3.42-3.69,4.36-.17.84-.98,1.41-1.71,2.13-.6.58-1.14,1.42-1.87,1.99-1.14.88-2.49,1.52-3.51,2.48l-1.64,1.54c-.6.56-1.4,1.15-2.05,1.54l-.24.88-.38-.53c-.59-.83-.14.88-.17,1.32-.02.2-.53.42-.65.58l-2.04,2.65c-.45.59-1.46.96-1.09,1.68l.6-.2c.09-.03.2.34.12.38l-.48.23c2.2,1.08-.88.47,1.17,4.62-.22-.02-.74-.55-.93-.4l-.88.66c-.05.54-.15.96-.29,1.19l1.01.53-1.73.9.48.15c.09.03.18.39.1.43s-.33.1-.37.19c-.86,2.01-2.37,1.69-4.26,2.59-.29.14-.72,1.02-1.02.92l-1.33-.46c-.05,2.53-2.01,1.86-2.65,2.62-.38.45.74,2.41-.21,4.35l.3.42c.04.06-.29.18-.37.17l-1.04-.15c.24.36.62.71.5.86l-.42.53,1.05.86c-1.08.55-.43,1.47-.28,1.99.07.23-.04,1.08-.25.98l-1.1-.59.4,1.69c.04.19.31.63.38.81s-.21.6-.41.57l-1.12-.16.46.97c.11.23-.45.78-.65,1.11l1.34.91c-.08.35-.13,1.01-.36,1.12l-.93.45c-.02.37-1.9,3.9-2.53,3.45l1.03.19c.26,2.65-1.01,2.29.37,2.51.09.01.06-.14.04-.29l-.05-.55c.83.24.6,1.16.53,1.94l-.22,2.25c-.04.46-1.41.58-1.82.78-.2.96,1.12,1.04,1.92.8l1.3,1.37c.24.25,1.09.35,1.21.68l.47,1.22c.6.06,1.59.89,1.12,1.22l-1.47,1.02c-.19.13.72.72.86.52l.63-.84c.25.43.55,1.07.75,1.58l.39-1.26c1.06-.16,2.1.47,2.67,1.24.21-.2.45-.52.58-.46l.64.31c.14.07.5.03.83.01l-.58,1.9c.49.13.81.2,1,.29s-.01.88.17.99c.25.15,1.05.24.99.5l-.27,1.14,2.14.81c-.18,1.41.75,2.68,1.67,3.42.22.18.28.92.52.99l1.34.35-2.99,4.03,1.51,1.34-1.36,1.65,1.17.32c.06,1.23-.76,2.54-2.26,2.83l.57.67c.13.15-.34.58-.5.76l.64.44c.17.12.16.77-.01.87l-1.12.71c.39.68.56,1.43.4,1.74-.57-.04-.8-.13-.9,0l-.36.5c-.1.14-.71-.18-.78-.02l-.35.77c-.22.48-.46.92-.8,1.46l.76,2.61-1.07,1.23c-.39.15-.54.21.33.14.17.17.49.78.42,1.03-.2.74-1.05,1.64-1.27,1.63l-.97-.03c-.66,3.23.05,4.02.09,4.94.01.26-1.06,0-1.17.24l-.77,1.72c.15.92-.17,1.92-.7,2.76.19.27.66.74.52.94l-.51.74c-.12.17-.25.68-.27.89-.02.15.48.17.75.22.25.04.8.63.63.81l-.8.84c.08.21.44.75.44,1.02,0-.16-.64,1.98-.89,1.92l-.93-.2.24,2.14c.36.28.69.8.63,1.44-.04.42-.16.9-.36.84l-.82-.28-.33,1.57.4.88c.08.17-.36.52-.37.7l-.08,1.53.48,1.02c-.27.4-.64,1.07-.42,1.32.2.23.61.55,1.08.94l-1.86,1.7.14,2.15c2.4,1.25-.68.75-.6,2.16.05.85,1.85.61,1.43,1.56-.56,1.27-1.57-.24-2.3,2.44l-.4,1.49,1.07.28c.08.02-.36,2.01-1.72,2.18-.27,1.74-.95,2.66-.08,3.83l-1.06.23c-.21.04-.23.65-.35.86l-1.19,2.2c.32.53.47,1.07.34,1.49l-.8,2.5c.17.29.45.72.4.95-.04.19-.46.62-.44.81l.15,1.95c.06.72-.21,1.45-.57,1.98.47.88.4,1.88.02,2.94l-.11,1.98.2,1.73c-.55,1-.69,1.89-.26,3.04l-1.45,1.36c.53.97.44,2.16.22,3.33l-.64,3.45c-.04.19-.53.57-.43.7l.41.5c-1.18,1.7-.5,3.14-1.55,5.31-1.53.96-1.33,4.39-1.82,5.5-.62,1.39-.64,2.5-.75,4l-.16,2.23c-.02.24-.47.8-.36,1.02l.35.74-.03,2.57c-.01.95-.23,2.01.27,2.8,1.41,2.27-1.33-.32,1.56,4.4,1.9,3.09,3.25,4.5,6.51,5.63,1.44.5,2.76,1.13,4.38,1.1,3.35-.07,7.27-.83,9.68-3.18,2-1.95,3.07-3.05,4.17-5.55.4-.9.83-1.78,1.14-2.72l.74-2.31.84-2.91c.44-1.54,1.29-3.44,1.34-5.08.13-4.82.37-9.35.9-13.98.1-.85-.21-1.98-.35-2.75.7-3.38-.03-1.57.45-4.19l.7-3.85c.12-.66.07-1.83.15-2.65.05-.47-.32-1.58-.1-2.01.64-1.25.87-2.58.06-3.92l.78.11c.13.02.27-.29.28-.44l.16-1.8c.04-.5-.24-1.25-.08-1.85.2-.76.23-1.61.2-2.23l.39-.77-.95-.1c-.23-.02-.11-.94.12-.94h.86s.32-2.06.32-2.06c.02-.14.69-.42.59-.52l-.34-.37.98-1.04c-.28-.44-.72-1.1-.55-1.41l.75-1.3c.31-.53.75-1.28.96-1.81l.81-2.07-.38-1.95c-.1-.51.8-1.38,1.1-1.69-.03-.96-.06-2.17.09-3.14l.39-2.42.26-1.74c-.15-.5-.66-1.71-.15-2.1.78-.59,1.1-.98.91-1.94s.34-2.09.46-3.02c.21-1.59-.07-1.19.64-3.52l.77-2.55c.21-.69-.19-1.54.56-2.25.46-.43.63-1.15.78-1.83l.52-2.36c.29-1.29.43-2.55.59-3.88.1-.82,1.01-1.63.49-2.76l1.3-1.03c.13-.73.26-1.62.58-2.05,1.66-2.2-.03-1.46,2.91-4.47-.53-1.67,1.11-2.21,1.56-3.35l1.26-3.17c.29-.72.77-1.43,1.23-1.95l2.28-2.62,2.03-2.22c-.08-.29-.29-.78-.12-.74.13.03.85-.02.84-.15l-.08-.81c-.01-.11,2.37-2.19,2.96-2.42l-.71-.44c-.1-.06.26-.35.37-.37l.49-.09,2.07-1.7-.98-1.34c1.05.39,1.28.48,2.12.22.93-.28,2.1-.4,2.94-.78,1.14-.51,2.07-1.02,3.34-1l.95-1.13v1.18c1.5-1.55,5.1-.91,6.63-.41.19.06.73-.19.86-.07s.34.67.51.72l2.52.77c3.25,1,2.83.19,5.85,1.5.08-.14.2-.39.08-.43l-.54-.16.68-1.75c-.83.47-.96.87-1.49,1.6l.19-1.3c-.53.38-1.29.61-1.73.37l.97-.26c1.09-.29-1.92-.24-1.85-.56l-.82.83-1.72-2.44,1.03-.18c.1-.02-.17-.34-.21-.32l-.82-.17c-.14-.03-.35.21-.55.38-.11.06-.6-.02-.54.11.05.13.14.46.26.46h.55c.02.06-.11.64-.27.63l-1.59-.05-1.6-1.49c.39-.29.7-.78,1.05-1.28l.62-.9c.21-.3-1.2-.81-.92-1.01.65-.47,1.57.82,1.9,1.76.3-.33.84-.97,1.13-.86s.5.53.6,1.02c-.28.87,3.05.19,2.79-.23l-.34-.54,1.45.19c.15-.27.73-.91.93-.74s.59.57.64.64l-.97.31c-.13.04,0,.36.03.48.35.2.83.55.78.83l-.17.93s.75.83.97.67c.06-.05.25-.31.26-.31.11-.02-.74-.56-.64-.74l.25-.44c-.17-.38-.29-.9.21-1.5l.55,1.92.75-.04-1.35,1.68,1.78-.34c-.16-.14-.58-.52-.43-.68l.64-.64c-.39-.29-1.05-1.23-.9-1.73.04-.13.59-.55.47-.6l-.91-.37,1.25-.87c.22,0,.85.29.9.58s-.3.96-.47,1.34c-.09.19.77.23.81.03l.16-.75c.76.67.82,1.39.33,2.15l.77-.12c.14-.02.35.22.31.35l-.21.73c-.33-.28-.5-.6-.62-.49l-.46.44,1.36.62-.78.88c-.07.08.68,1.31.82,1.27l.72-.17c.04.17.03.49.19.48l1-.04-.78-.98c.47.03,1.01.18,1.13-.04.11-.2.31-.66.39-.93-.93-.05-1.66.39-2.22.96l.04-2.05c0-.34.24-1.01.35-1.26l-1.19-.35c.71-.44.03-2.71.89-2.31l1.06.49-.15.39c-.03.08-.57.11-.62.18-.24.33-.06,1.37.26,1.61l.9-1.61.35-.65s-1.48-.72-.92-.85l.57-.13c.15-.03.65-.03.65-.16v-.56s1.45-.94,1.45-.94l.55,1.34c-.28,0-.58.03-.64-.06l-.37-.57.11,1.53c-.26.04-.76-.07-.74.14.04.32.02.95.18.88,1.35-.53.95-1.13,1.28-.99l.76.33c.16.07.44.44.33.56-.09.1-.3.3-.4.22l-.5-.43c-.25.3-.47.77-.72.83-.2.05-.71-.27-.92-.4-.34-.21-1.18.77-.95,1.1.25.36.73.62,1.31.84l-.64.68,1.52,1.33-1.38-.09c.2.72.95,1.31,1.26,1.15.22-.32.87-.94,1.05-.72s.41.64.6.99l.48-.73c.07-.11.41.46.35.36-.19.15-.64.52-.49.54.1,0,.35.05.43-.01l.94-.66ZM262.43,104.72c-.59,0-.91.06-.9-.06l.06-.43c.02-.13-.1-.43-.18-.54-.05-.07-.18-.05-.21.03l-.21.5c-.14.34-.4.73-.27.92s.71.59.85.5l.86-.93ZM260.75,107.8l1.91-.59c.18-.05.94.26.83.41l-.56.82c.71.23,1.32-.59,1.48-1.41l-1.65-1.68c-.69.1-.84.32-.01.74-.01.09-.5.51-.67.39l-.65-.5c-.36-.28-1.09-.19-2.09.03l1.01,1.19c.59-.38.7-.46,1.45-.77l-1.05,1.38ZM241.4,110.68l-1.67-.88-.93.93c.98.38,1.72.57,2.6-.04ZM245.55,112.02l.43-1.6-1.33.57c-.19.03-.14.79.01,1.08.13.25.81.26.89-.04ZM242.43,114.12l-.24-1.9c-.21-.52-1.56-.99-2.08-.74-.18.09-.04.73.14.82.14.07.51.24.66.32.39.58,1.08,1.43,1.51,1.5ZM271.04,263.48l-1.23-1.8c-.13-.18-1.07-.23-1.07,0v.8c.01.17.48.07.93.05l.41.51c0,.48.07.95.29.92.37-.05.81-.27.68-.47ZM242.93,281.39l.08-1.93c0-.17.18-.6.34-.63l.81-.16c-.56-.18-1.51-.67-1.81-1.13-.09-.13.05-.76.2-.8l.56-.18c-.18-.21-.69-.89-.49-1.01l.72-.42c.17-.1.43.2.8.5v-.94s-1.94.19-1.94.19c-.18.97-.3,1.89-.58,2.66l-.53,1.46c-.18.49-.06,1.08.16,1.68.28.79-.83,1.67.23,2.49l.16-2.07,1.3.31Z"/>
  <path class="cls-1" d="M258.02,104.63l-.03,1.24-1.03,1.14-.67-.5c-.17-.13-.79.28-.88.47,0-.12-.06-.64-.23-.63l-.76.03c-.19,0,.15-.75.34-.7s.61.39.8.36l1.43-.17c.15-.02.4-.46.27-.53l-.61-.3-.19-.88c.56.22,1.12.45,1.58.46Z"/>
  <path d="M258.02,104.63c-.46-.01-1.01-.24-1.58-.46l.19.88.61.3c.13.07-.12.51-.27.53l-1.43.17c-.19.02-.61-.31-.8-.36s-.52.71-.34.7l.76-.03c.17,0,.22.51.23.63l-1.52.14c-.08-1.03.35-1.6,1.11-1.94.27-.24-.06-.88-.43-1.47l1.33-.82-.5-.15c-.12-.04-.07-.17-.06-.63l-1.57-.33,1.38.88-3.22,1.83,1.95.36-.7,1.06-.41-.39c-.07-.06-.26-.07-.24.03.04.24.1.58.22.64l.46.25c.12.07.15.52,0,.53l-.73.06-.94,1.22-.94.66c-.09.06-.33.02-.43.01-.15-.01.3-.39.49-.54.07.09-.28-.47-.35-.36l-.48.73c-.19-.35-.41-.77-.6-.99s-.83.4-1.05.72c-.31.16-1.06-.42-1.26-1.15l1.38.09-1.52-1.33.64-.68c-.58-.23-1.06-.49-1.31-.84-.22-.32.61-1.31.95-1.1.2.12.72.44.92.4.25-.06.47-.52.72-.83l.5.43c.1.08.3-.12.4-.22.11-.12-.17-.49-.33-.56l-.76-.33c-.33-.14.07.46-1.28.99-.16.06-.14-.57-.18-.88-.02-.21.48-.1.74-.14l-.11-1.53.37.57c.06.09.36.07.64.06l-.55-1.34-1.46.94v.56c0,.13-.49.13-.64.16l-.57.13c-.55.12.94.82.92.85l-.35.65-.9,1.61c-.32-.24-.5-1.29-.26-1.61.05-.07.59-.09.62-.18l.15-.39-1.06-.49c-.85-.4-.18,1.87-.89,2.31l1.19.35c-.11.26-.34.92-.35,1.26l-.04,2.05c.56-.56,1.3-1.01,2.22-.96-.09.27-.28.73-.39.93-.12.21-.66.07-1.13.04l.78.98-1,.04c-.16,0-.14-.31-.19-.48l-.72.17c-.14.03-.89-1.19-.82-1.27l.78-.88-1.36-.62.46-.44c.12-.11.29.2.62.49l.21-.73c.04-.13-.18-.37-.31-.35l-.77.12c.49-.76.43-1.48-.33-2.15l-.16.75c-.04.2-.9.16-.81-.03.18-.38.53-1.05.47-1.34s-.68-.59-.9-.58l-1.25.87.91.37c.12.05-.43.46-.47.6-.16.5.51,1.44.9,1.73l-.64.64c-.16.16.26.54.43.68l-1.78.34,1.35-1.68-.75.04-.55-1.92c-.5.59-.38,1.12-.21,1.5l-.25.44c-.1.18.75.72.64.74,0,0-.19.26-.26.31-.22.17-.96-.71-.97-.67l.17-.93c.05-.28-.43-.63-.78-.83-.03-.11-.16-.43-.03-.48l.97-.31c-.05-.07-.44-.47-.64-.64s-.78.47-.93.74l-1.45-.19.34.54c.27.42-3.07,1.1-2.79.23-.11-.48-.31-.91-.6-1.02s-.82.53-1.13.86c-.33-.94-1.26-2.23-1.9-1.76-.28.2,1.12.71.92,1.01l-.62.9c-.35.5-.66.99-1.05,1.28l1.6,1.49,1.59.05c.16,0,.3-.57.27-.64h-.55c-.11.01-.2-.32-.26-.45-.06-.14.43-.05.54-.11.2-.17.42-.41.55-.38l.82.17s.31.3.21.32l-1.03.18,1.72,2.44.82-.83c-.07.32,2.94.27,1.85.56l-.97.26c.44.24,1.2.02,1.73-.37l-.19,1.3c.52-.72.66-1.12,1.49-1.6l-.68,1.75.54.16c.11.03,0,.29-.08.43-3.02-1.32-2.6-.51-5.85-1.5l-2.52-.77c-.17-.05-.38-.6-.51-.72s-.66.14-.86.07c-1.53-.5-5.13-1.14-6.63.41v-1.18s-.95,1.13-.95,1.13c-1.28-.02-2.2.49-3.34,1-.84.38-2,.49-2.94.78-.84.26-1.07.17-2.12-.22l.98,1.34-2.07,1.7-.49.09c-.11.02-.47.31-.37.37l.71.44c-.59.22-2.97,2.31-2.96,2.42l.08.81c.01.13-.71.18-.84.15-.17-.04.04.45.12.74l-2.03,2.22-2.28,2.62c-.46.52-.94,1.23-1.23,1.95l-1.26,3.17c-.45,1.13-2.09,1.67-1.56,3.35-2.94,3.01-1.26,2.27-2.91,4.47-.32.42-.45,1.31-.58,2.05l-1.3,1.03c.52,1.12-.39,1.94-.49,2.76-.17,1.32-.3,2.58-.59,3.88l-.52,2.36c-.15.68-.32,1.4-.78,1.83-.76.71-.35,1.56-.56,2.25l-.77,2.55c-.71,2.33-.43,1.93-.64,3.52-.12.92-.66,2.03-.46,3.02s-.13,1.35-.91,1.94c-.51.39,0,1.6.15,2.1l-.26,1.74-.39,2.42c-.15.97-.12,2.18-.09,3.14-.31.31-1.2,1.18-1.1,1.69l.38,1.95-.81,2.07c-.21.54-.65,1.29-.96,1.81l-.75,1.3c-.18.3.27.96.55,1.41l-.98,1.04.34.37c.1.11-.57.38-.59.52l-.32,2.05h-.86c-.23.01-.34.93-.12.95l.95.1-.39.77c.03.62,0,1.46-.2,2.23-.16.6.12,1.35.08,1.85l-.16,1.8c-.01.14-.15.46-.28.44l-.78-.11c.81,1.34.58,2.67-.06,3.92-.22.43.15,1.54.1,2.01-.08.82-.03,1.99-.15,2.65l-.7,3.85c-.47,2.62.25.81-.45,4.19.14.77.44,1.9.35,2.75-.53,4.63-.77,9.15-.9,13.98-.04,1.64-.89,3.55-1.34,5.08l-.84,2.91-.74,2.31c-.3.95-.74,1.82-1.14,2.72-1.1,2.5-2.16,3.6-4.17,5.55-2.41,2.35-6.33,3.11-9.68,3.18-1.62.04-2.94-.6-4.38-1.1-3.26-1.14-4.61-2.54-6.51-5.63-2.89-4.71-.15-2.13-1.56-4.4-.49-.79-.28-1.85-.27-2.8l.03-2.57-.35-.74c-.11-.22.35-.78.36-1.02l.16-2.23c.11-1.5.12-2.61.75-4,.5-1.11.29-4.54,1.82-5.5,1.05-2.17.37-3.61,1.55-5.31l-.41-.5c-.11-.13.39-.51.43-.7l.64-3.45c.22-1.17.31-2.36-.22-3.33l1.45-1.36c-.43-1.15-.3-2.04.26-3.04l-.2-1.73.11-1.98c.38-1.06.45-2.06-.02-2.94.36-.53.62-1.26.57-1.98l-.15-1.95c-.02-.19.41-.62.44-.81.04-.24-.24-.67-.4-.95l.8-2.5c.13-.42-.01-.96-.34-1.49l1.19-2.2c.11-.21.13-.82.35-.86l1.06-.23c-.87-1.17-.19-2.09.08-3.83,1.36-.17,1.8-2.16,1.72-2.18l-1.07-.28.4-1.49c.72-2.67,1.74-1.17,2.3-2.44.42-.95-1.38-.71-1.43-1.56-.08-1.41,3-.91.6-2.16l-.14-2.15,1.86-1.7c-.48-.39-.88-.71-1.08-.94-.22-.25.14-.92.42-1.32l-.48-1.02.08-1.53c0-.19.45-.54.37-.7l-.4-.88.33-1.57.82.28c.2.07.32-.42.36-.84.06-.64-.27-1.17-.63-1.44l-.24-2.14.93.2c.26.06.89-2.08.89-1.92,0-.28-.37-.81-.44-1.02l.8-.84c.17-.18-.38-.77-.63-.81-.27-.05-.77-.07-.75-.22.02-.2.16-.72.27-.89l.51-.74c.13-.2-.33-.67-.52-.94.53-.84.84-1.85.7-2.76l.77-1.72c.11-.24,1.18.02,1.17-.24-.04-.91-.75-1.7-.09-4.94l.97.03c.21,0,1.07-.9,1.27-1.63.07-.25-.25-.86-.42-1.03-.87.06-.72,0-.33-.14l1.07-1.23-.76-2.61c.34-.54.58-.99.8-1.46l.35-.77c.07-.16.69.16.78.02l.36-.5c.09-.13.33-.04.9,0,.17-.31,0-1.06-.4-1.74l1.12-.71c.17-.11.18-.76.01-.87l-.64-.44c.16-.18.62-.62.5-.76l-.57-.67c1.5-.29,2.32-1.6,2.26-2.83l-1.17-.32,1.36-1.65-1.51-1.34,2.99-4.03-1.34-.35c-.24-.06-.3-.81-.52-.99-.93-.74-1.86-2.01-1.67-3.42l-2.14-.81.27-1.14c.06-.26-.74-.35-.99-.5-.18-.11.02-.9-.17-.99s-.51-.17-1-.29l.58-1.9c-.33.02-.69.06-.83-.01l-.64-.31c-.13-.06-.37.26-.58.46-.57-.77-1.6-1.4-2.67-1.24l-.39,1.26c-.2-.52-.5-1.15-.75-1.58l-.63.84c-.14.19-1.06-.39-.86-.52l1.47-1.02c.48-.33-.52-1.15-1.12-1.22l-.47-1.22c-.12-.32-.97-.42-1.21-.68l-1.3-1.37c-.8.24-2.11.16-1.92-.8.41-.2,1.77-.32,1.82-.78l.22-2.25c.08-.79.3-1.7-.53-1.94l.05.55c.01.15.05.31-.04.29-1.38-.23-.1.14-.37-2.51l-1.03-.19c.63.45,2.51-3.08,2.53-3.45l.93-.45c.23-.11.27-.77.36-1.12l-1.34-.91c.2-.34.76-.88.65-1.11l-.46-.97,1.12.16c.19.03.48-.39.41-.57s-.34-.62-.38-.81l-.4-1.69,1.1.59c.2.11.32-.74.25-.98-.16-.52-.8-1.44.28-1.99l-1.05-.86.42-.53c.12-.15-.26-.5-.5-.86l1.04.15c.07.01.41-.11.37-.17l-.3-.42c.95-1.94-.17-3.89.21-4.35.64-.76,2.6-.09,2.65-2.62l1.33.46c.3.1.73-.78,1.02-.92,1.89-.91,3.41-.59,4.26-2.59.04-.09.28-.15.37-.19s-.01-.4-.1-.43l-.48-.15,1.73-.9-1.01-.53c.14-.23.24-.66.29-1.19l.88-.66c.2-.15.71.38.93.4-2.05-4.15,1.04-3.54-1.17-4.62l.48-.23c.08-.04-.03-.41-.12-.38l-.6.2c-.36-.73.64-1.09,1.09-1.68l2.04-2.65c.12-.15.63-.38.65-.58.04-.44-.41-2.15.17-1.32l.38.53.24-.88c.65-.39,1.45-.98,2.05-1.54l1.64-1.54c1.02-.95,2.37-1.6,3.51-2.48.74-.57,1.27-1.41,1.87-1.99.73-.71,1.55-1.28,1.71-2.13,1.34-.94,2.8-3.03,3.69-4.36l1.38-2.05.43.64c.07.11.37.07.53.05.29-.24.47-.38.38-.31l-.71-.53c1.74-1.36,3.54-2.05,5.55-2.41.88-1,2.57-1.99,3.79-1.83l2.19-1.4,1.68-1.66c1.17-1.15,2.53-2.1,4.08-2.66,4.73-1.71,7.43-3.58,8.33-3.95l3.9-1.63c.82-.35,1.51-1,2.46-1.14,3.94-.58,1.57-1.42,6.94-1.35,2.77.04,4.81.61,7.14,1.7.75.35,1.53,1.14,2.24,1.6l3.65,2.37c2.09,1.36,4.22,3.76,5.56,5.94l1.59,2.58c1,1.62,1.84,3.07,2.47,4.91.53,1.56,1.29,3.11,1.68,4.78.35,1.52.48,3.2.96,4.69l2.11,1.45c-.79.29-1.08.59-.38.6,2.19.65,3.5,3.17,5.26,5.15.89,1,1.97,1.65,3.02,2.43.82.61,1.67,1.65,2.53,2.14s1.48.85,2.03,1.7c1.44,2.2,2.81,4.8,3.07,7.46.18,1.8.3,3.47-.38,5.24-.25.65-.52,1.69-.83,2.24l-2.56,4.57c-.9,1.6-2.48,2.93-3.58,4.46-.99,1.37-1.88,2.63-2.75,4.03-2.76,4.41-1.05,1.88-2.83,7.05-.36,1.05-.8,2.13-1.3,3.16l-.47-.11c-.09-.02-.35-.02-.31.06l.37.71c.24.46-.25,1.41-.37,2.03-.11.57-.35,1.99-.93,2.12-.43.09-1.23.05-1.39.28l.76.36c.19.09.47.78.26.77l-1.11-.02c-.14,0-.28-.56-.3-.7s-.54.31-.58.38c.13.28.29.55.26.75-.03.23-.26.68-.46.67l-1.14-.06c-.25-.01-.26.83-.16.99l.5-.41c.1-.08.53-.2.46-.08-.11.19-.28.46-.38.53l-.41.26c-.06.04,0,.22.05.25l.56.27-1.74,1.43.38.65c.05.08.11.1.17.04.07-.06.23-.28.2-.36l-.14-.48c-.04-.13.46-.04.59-.03.36.02-.38.33.16,1.41.11.21.57-.25.88-.49.58-.45,1.66.41,1.97,1.23l-.95.4c.04-.47.11-.82-.09-.97s-.98-.17-1.04.07c-.11.37.17.95.68,1.22l-.4,1.23ZM236.74,20.45l-2.39-2.03c-.28.47-.53.9-.58,1.17s.72.58.92.79l3.78,3.69c1.16-1.58-.45-2.53-1.73-3.62ZM205.51,80.84c3.6-1.51,2.13.42,4.55-1.22l2.55-.09-.56-.71c2.25-.92,2.25.8,3.67-.89l1.95-.21.29.81c.13.37.84-.82.99-.69l.48.42c1.05-1.62,2.47-.13,3.21-1.65.24.19,1.03.37,1.41.33-.25-.34-.7-.79-.51-.87l.68-.29,1.45.09c-.1-.34-.34-.96-.2-.92.11.04.45.06.55,0l1.5-1.08,1.83-1.32c.4-.29,1.14-.65,1.41-.75l.2.74c.03.1.42-.02.38-.11l-.2-.52c-.06-.16.22-.58.37-.69s.6.25.56.43l-.14.69.94-.4-.52-1.09c-.11-.23.69-.52.85-.74.5-.68,1.3-1.48,2.09-1.95l-.47-.82c.9-3.36-.35-1.29-.14-3.44l-2.27-2.26c-1.29-.02-2.38-.94-3.46-1.16-1.87-.37-3.89-1.55-4.61-3.25-.12-.27-.76-.61-.93-.82-2.12-2.46-2.77-.38-3.76-3.03l-.57,1.07c-.1.19-.64-.24-.85-.24h-1.92c-.31.71-4.94.95-5.59.87-1.02-.13-2.12-.45-3.04-.19l-2.09.61c-.26.08-.9.13-1.08-.05l-.67-.67c-.23-.01.05.67.31.93l-1.63.81-1.53.85c-.15.08-.41.44-.58.42l-.68-.07c-.48.88-1.23,1.56-2.23,1.88l-1.16.43.52-.67c.07-.09-.42-.42-.47-.35l-.71,1.4-2.54,1.28c-.11.06-.52.19-.53.09s-.04-.5-.03-.41c-.29.36-2.21,1.44-2.08,1.54l-.87-.59.18,1.01c-4.59-.08-1.23-.52-4.37.75-.93.37-2.2,1.75-2.54,2.61-.08.19.49.77.32.89l-.86.63,1.68.37c.06.72.41,1.19,1.09,1.41l.92,1.33c-.19,1.16.33,2.05.98,2.99,1.89,2.71.92.18,2.57,3.63l1.72,1.18,1.44.97c1.67.36,3.6.94,5,1.79.28-.05,1.1-.34,1.2-.1l.48,1.09c2.2-2.8,1.24.02,6.03-1.99ZM252.15,101.11c-.03-.13-.52-.5-.39-.54l.91-.27-.44-.53c-.13-.16-.7.14-.88.24l-.86,1.18.89-.37c.16-.06.34.44.32.61-.01.13-.17.26-.36.48-.14.16.4.38.61.39.16,0,.42-.27.39-.42l-.18-.77ZM241.53,101.15c.24-.08-.1-.91-.35-.98l-.85-.23c.06.46.16.87,0,.86h-.63c.12.26.44.81.68.73l1.14-.39ZM244.03,102.55l-.42-2.13c-.64.1-1.41.93-1.22,1.61.11.39,1.03.54,1.65.52ZM249.71,103.57l1.88.83.54-.88-2.15-2.11c-.03,1.02.64,1.24,1.47,2.02l-1.73.14ZM227.72,104.87l.77-.59-.52-.58c-.35-.39,1.12-.72.84-1l-.41-.4-.81,1c-.12.14.24.76.06.82l-.77.26c-.18.06-.05.53.08.67s.62-.06.77-.18ZM235.31,103.2c-.08-.64-.19-.87-.38-.39l-1.27.27c-.34.07.17,1.14.52,1.13.53-.02.95-.42,1.13-1ZM249.87,104.07l-1.11.82c-.19.14-.71-.4-.92-.49l-.63-.28c-.13-.06-.39.42-.35.4.76.17,1.09.54,1.55,1.19.53-.05,1.48-.91,1.47-1.63ZM218.74,106.82l.62.4,1.05-1.02c.11-.11.61-.39.66-.26l.27.76c.15-.03.49-.63.38-.85s-.5-.7-.6-.72c-2.43,2.71-5.06-1.48-5.33,1.78.25.12,1.18.12,1.45-.17.1-.1.31-.69.4-.6l.41.41c.09.09-.22.28-.51.58.05.03.48.13.61.05l.6-.37Z"/>
  <path d="M259.31,132.81l-.85-.08,1.85-1.79.13,1.36c.64-.34,1.38-1.33.83-1.86-.38-.37-.6-.63-.62-.98l.95.37c.29-.14.81-.35.7-.21.12.98.29,1.59.6,2.46l-.87-.45c.07-.07-.36.16-.31.29l.26.71c.05.13-.52.22-.66.22-.09,0-.07-.13-.04-.26l.11-.51c-.36.28-.79.68-1.11.71-.16.01-.62-.52-.7-.39l-.25.42Z"/>
  <path d="M251.54,108.27l.95-.48c.2-.11.69.38.93.45.77.21,1.72-.71,1.99-1.26.1-.2.71-.6.88-.47l.67.5,1.03-1.14.03-1.24c.8.02,1.65.05,2.53.18-.92.35-1.94.34-2.04,1.01l1.1,1.47-1.93-.55,1.01,2.05c.19-.83,1.24-.96,1.82-.7.42.18.38,1,.49,1.82,1.1-.84.39-1.82.99-1.65l.45.13c.1.03-.08.32-.18.64-3.56.13,5.34-.36,1.26.18-.09.01-.51.08-.58.13l-1.65,1.02c.3.16.51.25.62.17l.64-.42c1.05.28-1.99,1.73-.79,1.53.11-.02.67.21.76.15.53-.35,1-1.43,1.16-2.37.41-.2,1.2.2,1.7.69.05.05.37-.56.23-.62l-.61-.28c-.11-.05.01-.47.04-.59s-.39-.01-.49.05l-.5.33c.04-.38.59-1.3.96-1.39.79.2,1.52,1.02,1.2,1.58.64-.05.89,0,.59.34-.66.77-1.23,1.08-1.93.95l.17.55c.03.1-.36.2-.38.1l-.1-.51-.11-.56c-.02-.11-.4.22-.39.33l.19,1.85c.6.82,2.41.74,2.8-.06.06-.13.12-.62.02-.56l-.47.27c-.35.2-.66.48-.89.4-.22-.07-.57-.53-.46-.71.81-1.35,2.62-.08,2.19-.83l-.33-.58c-.05-.09-.17-.37-.2-.46s.39-.25.44-.16l.22.4,1.95,3.55c-.22-.03-.89-.3-1.01-.52l-.58-1.09-1.61,1.62c.72.36,1.72,1.9,1.57,2.05l-.59.63c-.17-.07.26.11.43.18l1.43-1.22c2.29-1.97-1.82.78-.9-.26l-.79-1.58c.09-.52,3.17,1.65,3.36,2.52l-1.48.65.97,1.17c.11.14.94-.26.79-.37l-.72-.54c-.1.02.36-.37.42-.37l1.11,1.25-1.13.43c-.2.08-.17.9-.11.91l.95-.82c.36.63.8,1.37.97,1.98l1.45,5.13-1.53,1.14c.47.14.77,0,1.46-.37.39,1.04,1.11,5.95,1.59,6.75.67,1.1.27,2.16.48,3.19.22,1.12.61,2.38.94,3.58.85,3.09.97,1.85,1.42,4.86l.45,3.01c.08.54.17,1.4.21,2,.02.23.49.74.31.87l-.83.6c.9.13,1.46.52,1.61,1.26l.41,2.08c.2,1,.2,1.81.39,2.75.32,1.57.55,3.18,1.17,4.76.17.43.06,1.33.06,1.81.62,1.25.94,2.8,1.12,4.26l.6,4.7.14,3.42c0,.24,0,.8,0,1.02.46,1.13,1.05,4.39,1.21,5.71l.22,1.86c.09.74-.29,1.84.17,5.65l.44,3.66c.02.2.24.6.27.75s-.28.51-.27.67l.23,2.33c.25,2.49-.42-.4-.19,3.87.04.76.01,1.43-.24,2.06,2.18,3.21,0,4.95.74,8.3.44,1.99-.09,4.19,0,5.83.09,1.83.05,3.23-.21,4.94l-.27,1.74c-.2,1.28.49,3.05-.18,4.29l-.54.98c-.12.22.34.73.44,1.03.35,1.13-.33,2.34-.76,3.4-1.35,3.32-1.13,4.24-2.3,6.61l-1.51,3.07c-.09.18-.94.23-.86.42l.31.78c-.4.46-.92,1.01-1.3,1.49-2.61,3.31-.54.98-3.73,3.6-1.9,1.56-1.21,2.76-1.59,2.39l-.63-.63c-2.22,2.53-1.3,3.41-3.58,4.87.07,1.52-.94,3.63-1.83,4.79-.38.49-.5,1.95-.98,2.37-.96.83-1.44,1.66-1.67,2.89l-.45,2.39-1.09-.2c-.62-.11.71,2.17-.28,3.25l-.99-.66-1.53.89c-.09.71-.33,1.3-.83,1.29-.54-.01-.78-.34-1.33-.84-.27-.24-.69.77-.73,1.26l-2.16,1.14c-.15.08-.53.57-.51.55-.82-.1-1.39.04-2.39.42-.2.09-.15-.27-.09-.74.09-.68,1.89.61,2.11-.41.2-.91-1.1-1.41-.37-1.88l.71-.46c.95.72,1.94.49,2.93-.26.73-.55,2-2.82,1.24-3.53-.39-.3-.58-.37-.49-.52s.17-.51.3-.49.57.12.71.1l2.66-.19c.68-.51-.59-3.77-.58-3.77l-.63-.27c.71-.32,1.21-.58,1.11-1.01l-2.42-.44-.66,1.09-.16-1.34c-1.23.77-3.15.56-3.05.97l.26,1.05c.08.34-.81.46-1.15.34-.25-.1-.1-1-.31-1.21-.39-.38-1.32.59-1.61,1.01-.12.17-.72.25-.77.45l-.17.65-1.23.16c-.53.07-1.14.37-1.45.65-.11-.19-.75-.84-1-.67-.21.14-.41.69-.42.93l.7,1.07c-1.09.7-2.59.33-2.94-.36-.1-.19.28-.84.14-.99s-.92-.03-1.16-.1c-.75-.5-1.17-2.45-.66-3.39.42-.79.43-1.16.47-2.18l.17-4.54c.07-1.83-.03-3.35-.42-5.12l-.34-1.54-.84-3.37-.44-1.61-.61-2.73.4-.67c.09-.15-.51-.61-.51-.83-.02-1.05.47-2.85.7-4.04.19-.99.22-1.8.6-2.65l1.55-3.5c.14-.32-.58-.89-.94-1.03,4.72-4.05,1.6-1.22,4.26-5.27l1.14-1.74c.8-1.22,1.67-2.54,2.58-3.67l2.62-3.23,1.54-1.78c.49-.57.6-1.46.88-1.93.41-.68,1.05-1.19.94-2.18s.17-2.28-.01-3.23l-.32-1.63c-.11-.57.16-1.32.3-1.91l-.4-3.77c.72-2.19-.59-2.53-.89-4.56l-.2-1.32c.06-.6.07-1.28,0-2.03-.23-2.64-.38-5.2-.44-7.85-.03-1.43-.5-2.6-.66-3.94l-.48-3.99-.34-3.31-.56-2.16c-.17-.67-.29-1.41-.35-1.93l-.32-2.69c-.09-.77-.43-1.62-.56-2.4l-.51-2.91c-.26-1.47-.61-3.31-1.2-4.64s-1.06-5.91-1.07-5.95l-1.32-4.2-.59-2.73-.6-.6c-.12-.12.13-.65.05-.81-.21-.44-.65-1.46-.49-1.92l.27-.77c.04-.12-.41-.48-.43-.63l-.66-5.43c-.02-.18-.46-.62-.36-.76l.42-.59c-.91-.52-.79-1.17-.89-2.03-.22-1.86-1.24-6.03-2-8.15-.26-.72-.37-1.74-.76-2.37-.55-.88-.69-1.77-.12-2.6h.93s-.53,1.23-.53,1.23l1.53.81c.18.09.71.4.59.54l-.53.65,1.28.05-.24-1.05.67.5c.27.2,1.65-.85,1.66-.39,0,.23.12.91-.07.91s-.73-.09-.95-.02l-3.09.93.88,1.18c0,.77.19,1.31.43,2.02l.28.82c.76-.59,1.34-.85,2.03-.96l.66-.6c.15-.13.47.58.54.69l1.16-.26c.18-.04.61-.27.48-.38l-.48-.42.78-.5c.12-.08-.1-.7-.24-.66l-1.18.36c.2.42.11.58-.05.98s-.92.17-.88-.28c.08-.75.74-1.15,1.42-1.84l-1.57-.37c.46-.54,1.02-1.12,1.63-1.62l-.41-.47c-.08-.09.53-.23.63-.3l.68-.5c.15-.11-.52-.47-.74-.57-.85.72-2.23,1.4-3.35,1.56-.08-.17-.19-.82-.02-.82l.72.04c.15,0,.54-.25.52-.39s-.14-.39-.28-.35l-.74.2.55-1.24c.43.36.83.61,1.66,1.01.29.35.3.06.21-.39l-.4-.59c-.08-.12.4-.38.41-.33.11.45.73,1.22,1.08.89.25-.24-.26-.91-.67-1.41.39-.07,1.04.09,1.6.4l.76-.33c-.6-.4-1.06-.59-1.93-.7l-.44-.93c-.68-.23-1.41-.61-1.67-1.08-.31-.57-.48-1.45-.14-1.96.13-.2.86-.44,1.09-.42.18.02.11.43.13.71.07.09.44.45.32.5l-.59.27-.36-.14c-.08-.03-.17.57-.1.62l1.83,1.07.27,1.2c.7-.74,1.06-1.23,1.92-1.6l-.94,1.79c.36-.07.68-.19.85-.1l.62.33c.18.1-.19-.63-.33-.86l.74-1.6-.81.12c-.1.01-.01-.2.04-.29.03-.06.29-.49.22-.52-.57-.26-1.84-.32-2.57-.26.73-.51,1.18-1.02,1.08-1.75ZM258.5,111.02c-.41,0-.7.08-.72-.04l-.08-.56c-.04-.29-.19-.69-.33-.9-.15-.23-1.09-.04-.93.19.58.86,1.21,1.7.48,2.38-.2.19-.51.53-.38.62.11.08.37.11.46,0l1.5-1.7ZM260.12,112.32c.21-.06.77-.3.7-.5-.41-1.16-.39-1.98-.99-2.17-.52-.16-1.56-.09-1.61.29l1.86.35c-.47.34-1.1.48-1.02.71.12.36.65,1.44,1.07,1.31ZM263.57,113.76c.04-.19.38-.6.52-.48l.5.43c.44-.14-.31-1.1-.58-.9l-.97.75-1,.19c-.2.04-.1.83.11.83l1.19-.04c.17,0,.17-.48.23-.78ZM248.29,127.79l3.31-.6.27.99c.2-.22.5-.67.37-.88l-.57-.91c.72-.03,1.49.05,2.07.25-.86,1.18-1.09,1.7-.58,2.78.17-.14.49-.42.67-.37l.84.23-.82-1.87.87-.33c.12-.05.26.26.26.38l-.02.68c.11.05.89-.71.71-.92l-.95-1.11,2.9.17-2.31-2.88,1.23-1.78c-2.3,1.17-.62,2.09-2.16,1.71.25.06-.88-3.07.48-4.04-.93.06-1.45-.06-1.97-.79-.33-.46-.46-1.13.05-1.62.51.13.85.06,1.43-.71l-1.52-.16.42-.88c-.48-.18-1-.04-1.49.54-.63-.08-.62,0-.1.36-.06.28-.24.74-.1.77l.78.16-1.14,2.01c.8-.13,1.14-.25,1.5.12-.61.16-1.26.28-1.8.36l1.07,1.68c.19-.12.56-.42.46-.57l-.45-.67.95-.31c.21.54.56,1.3.67,1.74l.38,1.55c.04.14-.16.7-.25.59-.07-.09-.2-.26-.25-.34l-.32-.64c-.04-.16-.27.66-.1.8l.73.57-.75.45.86.79c-.18.19-1.06.09-1.15-.17-.07-.22-.09-.61-.09-.94l-2.04.54c-.39-.34-.71-.53-1.29-.56l1.05,1.14c.26.28-.73.97-.99,1.07l.65.4c.11.07,0,.39-.14.39h-.71s-.93.82-.93.82ZM265.16,118.01l1.01-1.13-1.56-.07.17-.82c.03-.14-.51-.13-.67-.16l-1.85-.44c-1.37.11.73.71.55,1.1l-.32.69.72.6-.45,1c-.06.14-.47.6-.32.63l.68.12c.4.07-.43-.96.89-1.71.24-.14.65.03,1.14.2ZM266.86,119.32l1.08.37c.12.04.22-.34.14-.44l-.47-.62,2.37-.18c.24-.22-.45-.73-.71-.65l-1.28.4s.2-.43.33-.54l.76-.59c-2.17-.78-.91,1.92-2.29,1.92l-.16-.97c-.03-.18-.91.04-.75.11.39.77.62,1.44.68,2.24l.86.4-.57-1.45ZM271.76,121.09c0-.14.02-.6.01-.45-.71.16-.87.02-.55-.32.18-.47.22-.69-.06-.28-.46.15-1.1.31-1.36.17s-.23-.63-.26-1.22l-.99.55c.3.7.29.84.31,1.56l.89-.56.46.7c-.04-.06,1.54.06,1.55-.14ZM260.64,129.46c-.08.02-.35.11-.36.21l-.04.5-2.39,2.6c.34.37.61.75.81.76s.49-.43.66-.72c.26.17.46.27.43.39l-.11.49c-.02.1-.02.4.08.43l.51.17c.37-.2,1.28-.53,1.63-.83l2.28-1.9.02-.58c.01-.49,1.53.31,1.44-.1l-.24-1.01,3.34-2.02c.14-.03.46-.11.59-.15.1-.02.16-.43.11-.37-.96-.08-.98-.34,0-.65.13.2-.21-.31-.31-.47-.09-.13-.44-.08-.48.07l-.27.83c-.07.21-.56.02-.68-.16-.14-.2-.27-.57-.13-.66l.76-.48c0-.5.28-1.72.71-1.54l1.06.45c.2.08.58-.42.53-.5l-.21-.82c-.04-.17.61-.17.78-.08l1.18.57.35-.59c.07-.12-.17-.35-.3-.32l-.64.18c-.19.05-.17-.62-.01-.73l.58-.4c.14-.1-.37-.49-.52-.4l-.67.4c-.16.1-.66-.48-.79-.35l-.42.41c.27.2.83.58.67.66l-.88.44c-.01-.25,0,.03.02.46-2.26.14-1.72-1.28-2.56-1.03-.15.05-.34.4-.29.54l.17.42-.26.59c-.03.08-.22-.2-.47-.49-.11-.06-.52.32-.42.4.43.3.73.42.7.56l-.12.75.76.28-.73,1.67.74-.59.35.96-1.41.87c-.87.54-1.59,1-2.4,1.83-.08-.07-.3-.43-.21-.54l.44-.57c.24-.31-.77-1.2-1.1-.99l-1.24.8c-.09.07-.29-.47-.18-.56l.38-.31c.11-.09.32-.42.39-.54.05-.08-.34-.14-.42-.08l-.33.27c-.11.09-.58.24-.57.09,0-.1.01-.38,0-.48-.15-.68-.28-1.49-.32-2.05l.92.24c.13.04.27-.26.42-.49l-1.79-.15c-.05-.13.03-.64.23-.7l.79-.23.55-2.12,1.04.82c-.57.8-.86,1.06-1.74,1.75l1.39-.02-.66,2.25,1.01-.13c.6-.08-.18.1.09,1.37.42,2,.48-1.5.97-1.34.33.11.77.28,1.17.47.54.24,1.39-.51,1.12-1.16-.28.15-.71.51-.91.41l-1.21-.56.56-1.22c.28-.6.51-1.23.48-1.78l-.55.8-.76-1.18c-.26-.04-.66.04-.73-.11l-.38-.73-1.92.4-.08-2.06c-.22-.03-1.04.4-.93.62l.48.99-1.35-.5-.15-.85c-.03-.16-.75.15-.71.26,1.17,2.02,1.85,1,2.01,1.65l.16.62c.41.15.97.77.69.93l-1.16.67-.24-.74c-.04-.13-.44.16-.53.26-.06.07-.02.26.03.33l.39.59c.08.12-.28.35-.53.59l1.18.53-1.72,1.37c-.27.21-1.03.28-1.1.58l-.29,1.16-1.25,1.6c-.08.1-.36.37-.45.46s.2.42.22.43l.69-.33c.17-.08.6.26.58.45l-.11.9c.29.01.77-.58.75-.96-.01-.26-.43-.61-.71-.8-.17-.12-.23-.76-.05-.84l.56-.24c.13.51.46,1.12.69,1.14.49-.53.82-.79,1.46-1.13l.04-.62-1.51.91c.02-.55.17-.94.02-1.1l-.69-.72,1.57-.33,1.02,1.26c.24-.12.72-.48.76-.33l.18.61ZM246.86,128.01c.09.41.13.67.28.74s.58.11.57-.06l-.02-.67c-.02-.85-.02-1.59.3-2.51l-1.54-2.27c-.36,1.01-.47,1.71-.38,2.71l1.12-1.1c.73.88-1.11,1.38-.8,2.16.1.25.29.62.46,1.01ZM271.7,125.45c-.4-.19-1.42-.36-1.56-.09s-.36.94-.12,1.14c.35.3,1.19.57,1.4.27.25-.38.59-1.17.29-1.32ZM266.79,140.26l1.81.91c.16-.46.51-1.09.87-1.22.27-.1.69.21,1.21.53l.19-1.26-.47.11c-.09.02-.16-.32-.09-.37l.39-.26.55-.38c.1-.07-.05-.22-.33-.58-.58.2-2.38,2.85-2.3,2.11.01-.1-.04-.49-.13-.47l-.69.17c-.13.03-.34-.33-.34-.4l1.28-1.34c.21-.22.74-.92.54-1.14l-.7-.75c.51.54-.62-.77-.27-.7l.59.12c.4-.7,1.81-1.2,2.38-.81.09.06.03.75-.07.7l-.5-.22c-.11-.05-.37-.37-.42-.26-.08.15-.25.35-.15.41.96.54.58,1.53,2.05,2.79.58-1.15-.43-1.25-1.12-1.9.37-.52,1.17-1.08,2.01-1.6l.16,1.54c.54-.94.99-1.31,1.87-1.97-.62.03-2.02-.19-1.85-.67l.62-1.79-.62-.29c-.08-.04.04-.3.12-.27l.46.14c.17.05.69-.11.62-.27l-.33-.86-1.05.8c-.1-.18-.21-.63-.38-.63h-.87s.47-1.37.47-1.37c-1.22.41.15.33-1.37.95-.19.08-.43-.48-.5-.71l-.16-.52c-.03-.1.33-.21.39-.13l.46.59c.39-.39.79-1.01,1.24-1.85-.52-.12-.99.25-1.46.72l-.45-.72c-.55.68-1.08.87-1.74,1.31-.71.47-1.7,1.4-2.55,1.54-.17.03-.36.4-.25.47,1.2.74,3.26-2.52,3.6-1.98.08.13.26.35.15.41-.07.04-.37.23-.46.3l-1.66,1.39,1.12.22-.34.62c-.07.13.57.14.69.23.35.24.47,1.24.34,1.68l-1.32-1.59-1.97.53c.16-.61.81-.95,1.56-.9-.38-1.86-1,.77-2.82-.11l-.47,1.65.93-.57c.11-.07.31.12.6.39l-.91.25,1.21,1.4c.2.23,1.04-.49,1.08-.8.05-.34-.02-.56-.25-1.02l1.6.04c-.54,1.17-1.21,1.68-2.28,2.57l1.1.03c.11,1.19-1.03,2.62-2.11,2.45-.2-.03-.84-.42-.92-.25l-.34.77-.85-.06c-.11.79-.27,1.21-.61,2.07.1.44,1.81-1.52,1.83-1.26,0-.12,0-.48,0-.47l1.34-.3c.09.04.54.4.65.31l.44-.36.08,1.09c.01.16-.46.19-.6.1l-.64-.43c-.32.1-.38.79-.06,1.35.18.32.76.29,1.18.02ZM248.06,132.46c1.51-2.22.24-.99.46-3.4l-1.63.55c.5.43,1.09.77,1.1,1.1l.07,1.75ZM253.8,131.9l1.77-2.18c-1.41-.19-1.12,1.5-2.99,2.23l.67.64c.13.12.42-.52.56-.69ZM264.85,135.12l.38-1c.04-.11-.44-.42-.56-.43l-2.14-.26c-.23,1.8,2.54,2.82,2.95,2.32.27-.33.37-.85.34-1.14l-.97.5ZM263.68,135.99c-.76-.71-.91.96-1.09.47l-.27-.72c-.1-.27-.94.47-.85.76.13.43.43,1.13.76,1.76.11-.58-.03-1.03.13-1.25.54-.75,1.66-.71,1.33-1.02ZM252.81,137.81c.18.11.75.1.74-.11-.01-.2-.13-.93-.12-.49-.7.43-.94-.35-1.45-.78-.79.35-1.99,2.6-1.15,2.43.12-.02.39-.07.4-.17l.06-.59c.03-.26.36-1.02.58-.88l.95.6ZM274.34,146.76c.55-.7.98-1.53,1.28-2.35l-1.09.09c-.17.01-.34-.31-.5-.56l1.36.02c-.35-.37-.89-.62-.79-.78l.42-.71-.95.48-.82-1.42.74-1.22-.47-.6c-.06-.07-.25,0-.26.09l-.11.7c-.04.24-.78.05-.84-.19l-.28-.99-.76.85,1.57,1.76s-.33.36-.41.45c-.05.06.22,0,.3,0l.62.06-1.89,1.21c.37.21.94.3,1.41.27l-.2.8c-.03.13.36.03.47-.06l.5-.4-.48,1.41,1.07-.87.14,1.95ZM264.99,142.1l1.31-.98-2.01-1.32.52,1.29c.07.18-.41.33-.76.5.06.14.73.66.94.5ZM267.11,144.37c1.15-.31,2.18-.79,2.85-1.36.35-.85.51-1.14,1.13-2.05-.08-.22-2.37.49-2.78.96-.02.06.09.33.19.39l.49.28-1.88,1.78ZM266.48,143.48l.82.02c.16,0,.2-.68.05-.7l-1.51-.15c.67-.55,1.35-.43,2.11.05.11-.49-.48-1.7-.89-1.51l-1.32.91c-.21.15-.65.35-.6.53l.26,1.04-1.29.27c.77.66,1.8.82,2.48.2l-.73-.22c-.1-.03.04-.41.14-.42s.32-.03.49-.02ZM266.29,148.54l1.43-1.6c.27-.31.37-1.31.06-1.58-.08-.07-.7-.05-.72.06l-.09.52c-.03.17-.5.62-.64.52s-.18-.19-.4-.6c0-.09-.37-.11-.47,0-.13.14-.4.45-.25.49.11.03.48.31.52.42l.46,1.38c-.4.52-.36.77.11.4ZM270.74,147.57c.13.07.33-.43.22-.5l-1.24-.83c-.56.27-1.3.83-1.8,1.28l.91.77c.28-.58.5-1.15.8-1.26.26-.09.81.37,1.11.54ZM272.59,151.74c.74.28,1.82-.18,2.06-.98-.31-.19-.9-.71-1.09-1.17-.15-.37.04-1.01.14-1.6l-1.07.18c-.21.03-.53-.3-.78-.4.49.93.68,1.56.33,2.21l1.53.42-.62.96c-.2-.23-.45-.6-.55-.51l-.42.4c-.1.09.34.44.47.5ZM276.33,148.76l-1.59.7c.08-.44.25-.83.12-.95l-.6-.58-.22,1.54c-.05.35,1.25.52,1.48.25l.8-.96ZM268.4,150.8c.17-.17.86-.53,1.08-.37l.83.64c-.06-.5-.73-1.08-1.22-1.2-.4-.1-1.26.75-1.07,1.11.27.51,1.04.83,1.64.73l-1.26-.92ZM276.27,153.62c-.07-.12-.26-.59-.36-.69-.43-.43-1.99-.09-2.17.46.55,1.57,2.24-.21,2.53.24ZM275.94,157.84c.41-.13.95-.25.98-.49.04-.36-.32-1.5-.24-1.5l-.81.03c-.39.01-.88.07-1.14.29-.21.17-.02.68.19.89l-1.83.55c-.12.1.27.58.41.47.12-.1.56-.39.7-.35.26.07.7.45.92.38l.83-.26ZM270.11,160.18l2.1-2.75c-.18.01-.95.24-1.28.4-.26.12-.25.63-.39,1.06-.13.16-.79.5-.7.7.07.16.3.65.27.6ZM267.69,158.68c-.57-.41-1.19-.67-1.28-.36-.18.6-.16,1.33.17,1.87l1.12-1.5ZM277.75,169.37c.16.04.93-.18.85-.33-.78-1.44.29-1.04-.87-2.12-.13-.12-.71.1-.6.23l.46.54c.27.32.18,1.19.17,1.68Z"/>
  <path d="M242.93,281.39l-1.3-.31-.16,2.07c-1.06-.83.06-1.7-.23-2.49-.21-.59-.34-1.18-.16-1.68l.53-1.46c.28-.77.41-1.69.58-2.66l1.93-.19v.94c-.36-.3-.63-.59-.79-.5l-.72.42c-.21.12.31.8.49,1.01l-.56.18c-.15.05-.29.67-.2.8.31.46,1.25.94,1.81,1.13l-.81.16c-.16.03-.34.46-.34.63l-.08,1.93Z"/>
  <path d="M260.75,107.8l1.05-1.38c-.75.3-.86.39-1.45.77l-1.01-1.19c1-.22,1.73-.3,2.09-.03l.65.5c.16.13.65-.29.67-.39-.83-.41-.68-.64.01-.74l1.65,1.68c-.16.82-.77,1.64-1.48,1.41l.56-.82c.11-.16-.65-.47-.83-.41l-1.91.59Z"/>
  <path d="M242.43,114.12c-.43-.07-1.13-.92-1.51-1.5-.16-.08-.53-.25-.66-.32-.18-.09-.33-.73-.14-.82.52-.26,1.87.22,2.08.74l.24,1.9Z"/>
  <path d="M271.04,263.48c.14.2-.31.43-.68.47-.22.03-.28-.45-.29-.92l-.41-.51c-.44.03-.92.12-.92-.05v-.8c-.01-.22.94-.18,1.06,0l1.23,1.8Z"/>
  <path d="M241.4,110.68c-.88.61-1.62.42-2.6.04l.93-.93,1.67.88Z"/>
  <path d="M245.55,112.02c-.08.3-.76.29-.89.04-.15-.29-.2-1.04-.01-1.08l1.33-.57-.43,1.6Z"/>
  <path d="M262.43,104.72l-.86.93c-.14.09-.73-.31-.85-.5s.13-.58.27-.92l.21-.5c.03-.08.16-.1.21-.03.08.11.2.41.18.54l-.06.43c-.02.12.31.07.9.06Z"/>
  <path class="cls-1" d="M205.51,80.84c-4.79,2-3.83-.81-6.03,1.99l-.48-1.09c-.1-.23-.92.05-1.2.1-1.4-.86-3.33-1.43-5-1.79l-1.44-.97-1.72-1.18c-1.65-3.46-.68-.92-2.57-3.63-.66-.95-1.17-1.83-.98-2.99l-.92-1.33c-.67-.22-1.03-.69-1.09-1.41l-1.68-.37.86-.63c.17-.12-.4-.7-.32-.89.34-.86,1.62-2.23,2.54-2.61,3.14-1.27-.22-.83,4.37-.75l-.18-1.01.87.59c-.14-.09,1.78-1.18,2.08-1.54,0-.09.02.3.03.41s.42-.03.53-.09l2.54-1.28.71-1.4c.05-.07.54.26.47.35l-.52.67,1.16-.43c.99-.32,1.75-1,2.23-1.88l.68.07c.16.02.42-.34.58-.42l1.53-.85,1.63-.81c-.26-.26-.54-.94-.31-.93l.67.67c.18.18.82.12,1.08.05l2.09-.61c.92-.27,2.01.05,3.04.19.64.08,5.28-.15,5.59-.87h1.92c.21,0,.76.43.85.25l.57-1.07c.99,2.65,1.63.57,3.76,3.03.18.2.82.54.93.82.72,1.7,2.74,2.88,4.61,3.25,1.08.21,2.17,1.14,3.46,1.16l2.27,2.26c-.21,2.16,1.04.08.14,3.44l.47.82c-.79.48-1.6,1.28-2.09,1.95-.16.22-.95.52-.85.74l.52,1.09-.94.4.14-.69c.04-.18-.42-.54-.56-.43s-.43.53-.37.69l.2.52c.04.09-.36.21-.38.11l-.2-.74c-.27.1-1.02.46-1.41.75l-1.83,1.32-1.5,1.08c-.09.07-.44.04-.55,0-.14-.05.1.57.2.92l-1.45-.09-.68.29c-.19.08.26.54.51.87-.39.04-1.17-.14-1.41-.33-.74,1.52-2.16.03-3.21,1.65l-.48-.42c-.15-.13-.86,1.06-.99.69l-.29-.81-1.95.21c-1.42,1.68-1.42-.03-3.67.89l.56.71-2.55.09c-2.42,1.65-.95-.28-4.55,1.22Z"/>
  <path class="cls-1" d="M236.74,20.45c1.28,1.09,2.89,2.04,1.73,3.62l-3.78-3.69c-.21-.2-.98-.51-.92-.79s.3-.7.58-1.17l2.39,2.03Z"/>
  <path class="cls-1" d="M218.74,106.82l-.6.37c-.13.08-.56-.02-.61-.05.3-.3.6-.49.51-.58l-.41-.41c-.09-.09-.3.49-.4.6-.27.29-1.19.29-1.45.17.27-3.25,2.9.93,5.33-1.78.1.01.49.49.6.72s-.24.82-.38.85l-.27-.76c-.05-.13-.55.15-.66.26l-1.05,1.02-.62-.4Z"/>
  <path class="cls-1" d="M244.03,102.55c-.62.02-1.54-.13-1.65-.52-.19-.69.58-1.51,1.22-1.61l.42,2.13Z"/>
  <path class="cls-1" d="M249.71,103.57l1.73-.14c-.83-.79-1.49-1.01-1.47-2.02l2.15,2.11-.54.88-1.88-.83Z"/>
  <path class="cls-1" d="M252.15,101.11l.18.77c.04.15-.23.43-.39.42-.21-.01-.75-.24-.61-.39.19-.22.35-.35.36-.48.01-.17-.17-.67-.32-.61l-.89.37.86-1.18c.18-.11.76-.4.88-.24l.44.53-.91.27c-.13.04.36.41.39.54Z"/>
  <path class="cls-1" d="M249.87,104.07c.01.72-.93,1.58-1.47,1.63-.46-.65-.79-1.02-1.55-1.19-.03.03.23-.45.35-.4l.63.28c.21.1.74.63.92.49l1.11-.82Z"/>
  <path class="cls-1" d="M227.72,104.87c-.16.12-.65.32-.77.18s-.26-.61-.08-.67l.77-.26c.18-.06-.18-.67-.06-.82l.81-1,.41.4c.29.28-1.19.6-.84,1l.52.58-.77.59Z"/>
  <path class="cls-1" d="M235.31,103.2c-.18.59-.61.99-1.13,1-.35.01-.86-1.05-.52-1.13l1.27-.27c.19-.48.3-.25.38.39Z"/>
  <path class="cls-1" d="M241.53,101.15l-1.14.39c-.24.08-.57-.47-.68-.74h.63c.16,0,.07-.39,0-.86l.85.23c.24.07.58.9.35.98Z"/>
  <path class="cls-1" d="M266.79,140.26c-.43.27-1,.3-1.18-.02-.32-.56-.26-1.25.06-1.35l.64.43c.13.09.61.06.6-.1l-.08-1.09-.44.36c-.11.09-.56-.27-.65-.31l-1.34.3s0,.35,0,.47c-.01-.26-1.72,1.7-1.83,1.26.34-.86.51-1.28.61-2.07l.85.06.34-.77c.08-.17.71.22.92.25,1.08.17,2.22-1.25,2.11-2.45l-1.1-.03c1.07-.89,1.74-1.4,2.28-2.57l-1.6-.04c.24.46.3.67.25,1.02-.04.31-.88,1.04-1.08.8l-1.21-1.4.91-.25c-.3-.26-.49-.46-.6-.39l-.93.57.47-1.65c1.82.88,2.44-1.75,2.82.11-.75-.05-1.4.28-1.56.9l1.97-.53,1.32,1.59c.14-.44.01-1.44-.34-1.68-.12-.08-.76-.1-.69-.23l.34-.62-1.12-.22,1.66-1.39c.09-.07.39-.26.46-.3.11-.07-.07-.29-.15-.41-.34-.54-2.4,2.71-3.6,1.98-.12-.07.08-.44.25-.47.84-.14,1.83-1.07,2.55-1.54.67-.44,1.19-.63,1.74-1.31l.45.72c.47-.47.93-.84,1.46-.72-.46.84-.86,1.46-1.24,1.85l-.46-.59c-.06-.08-.42.03-.39.13l.16.52c.07.22.3.79.5.71,1.52-.62.16-.54,1.37-.95l-.47,1.37h.87c.17,0,.28.46.38.63l1.05-.8.33.86c.06.16-.45.32-.62.27l-.46-.14c-.09-.03-.21.23-.12.27l.62.29-.62,1.79c-.17.47,1.23.7,1.85.67-.87.66-1.33,1.04-1.87,1.97l-.16-1.54c-.84.53-1.64,1.09-2.01,1.6.69.65,1.7.75,1.12,1.9-1.47-1.26-1.09-2.25-2.05-2.79-.11-.06.07-.26.15-.41.06-.11.31.22.42.26l.5.22c.1.04.16-.64.07-.7-.58-.39-1.98.11-2.38.81l-.59-.12c-.34-.07.78,1.25.27.7l.7.75c.21.22-.33.92-.54,1.14l-1.28,1.34c0,.06.22.43.34.4l.69-.17c.09-.02.14.36.13.47-.08.74,1.71-1.91,2.3-2.11.28.36.43.52.33.58l-.55.38-.39.26c-.08.05,0,.39.09.37l.47-.11-.19,1.26c-.52-.32-.94-.63-1.21-.53-.35.13-.7.76-.87,1.22l-1.81-.91ZM271.81,132.62l-.13,1.1c.54-.24,1.2-1.05,1.15-1.46l-1.39-1.93.06,1.4c-.15.07-1.04.05-1.09.31l-.22.96c-.04.16.09.68.21.58.14-.13.75-.25.65-.39l-.59-.8,1.34.24Z"/>
  <path class="cls-1" d="M259.31,132.81l.25-.42c.08-.14.54.4.7.39.31-.03.75-.43,1.11-.71l-.11.51c-.03.13-.05.26.04.26.15,0,.71-.08.66-.22l-.26-.71c-.05-.12.39-.36.31-.29l.87.45c-.32-.87-.48-1.47-.6-2.46.11-.14-.41.07-.7.21l-.95-.37-.18-.61c-.04-.14-.52.21-.76.33l-1.02-1.26-1.57.33.69.72c.16.16,0,.56-.02,1.1l1.51-.91-.04.62c-.64.34-.97.59-1.46,1.13-.22-.02-.55-.64-.69-1.14l-.56.24c-.19.08-.13.72.05.84.29.2.7.54.71.8.02.38-.46.97-.75.96l.11-.9c.02-.19-.41-.53-.58-.45l-.69.33s-.31-.34-.22-.43.37-.36.45-.46l1.25-1.6.29-1.16c.07-.3.84-.37,1.1-.58l1.72-1.37-1.18-.53c.25-.23.61-.47.53-.59l-.39-.59c-.05-.08-.09-.26-.03-.33.09-.1.49-.39.53-.26l.24.74,1.16-.67c.27-.16-.28-.78-.69-.93l-.16-.62c-.17-.66-.85.36-2.01-1.65-.04-.11.68-.43.71-.26l.15.85,1.35.5-.48-.99c-.11-.23.71-.66.93-.62l.08,2.06,1.92-.4.38.73c.08.15.48.06.73.11l.76,1.18.55-.8c.03.55-.2,1.18-.48,1.78l-.56,1.22,1.21.56c.2.1.63-.26.91-.41.27.64-.58,1.4-1.12,1.16-.4-.18-.84-.35-1.17-.47-.49-.16-.55,3.34-.97,1.34-.26-1.27.51-1.45-.09-1.37l-1.01.13.66-2.25-1.39.02c.87-.7,1.17-.96,1.74-1.75l-1.04-.82-.55,2.12-.79.23c-.19.06-.28.57-.23.7l1.79.15c-.15.24-.28.53-.42.49l-.92-.24c.03.56.17,1.37.32,2.05,0,.1,0,.39,0,.48-.01.14.46,0,.57-.09l.33-.27c.07-.06.46,0,.42.08-.07.12-.28.45-.39.54l-.38.31c-.12.09.09.63.18.56l1.24-.8c.33-.21,1.34.67,1.1.99l-.44.57c-.08.11.13.47.21.54.81-.83,1.53-1.29,2.4-1.83l1.41-.87-.35-.96-.74.59.73-1.67-.76-.28.12-.75c.02-.14-.27-.26-.7-.56-.1-.08.31-.46.42-.4.25.29.44.57.47.49l.26-.59-.17-.42c-.06-.15.13-.5.29-.54.84-.26.31,1.17,2.56,1.03-.02-.43-.03-.71-.02-.46l.88-.44c.16-.08-.4-.47-.67-.66l.42-.41c.14-.13.63.44.79.35l.67-.4c.15-.09.67.3.52.4l-.58.4c-.16.11-.18.79.01.73l.64-.18c.13-.04.38.2.3.32l-.35.59-1.18-.57c-.17-.08-.82-.09-.78.08l.21.82c.05.08-.33.58-.53.5l-1.06-.45c-.43-.18-.71,1.04-.71,1.54l-.76.48c-.15.09,0,.46.13.66.12.17.61.37.68.16l.27-.83c.05-.15.4-.21.48-.07.11.16.44.67.31.47-.99.31-.96.57,0,.65.05-.06,0,.35-.11.37-.13.03-.45.12-.59.15l-3.34,2.02.24,1.01c.1.41-1.42-.39-1.44.1l-.02.58-2.28,1.9c-.36.3-1.26.63-1.63.83l-.51-.17c-.1-.03-.1-.33-.08-.43l.11-.49c.03-.12-.18-.22-.43-.39Z"/>
  <path class="cls-1" d="M259.31,132.81c-.17.29-.45.74-.66.72s-.48-.39-.81-.76l2.39-2.6.04-.5c0-.11.28-.2.36-.21.02.35.24.61.62.98.55.53-.19,1.52-.83,1.86l-.13-1.36-1.85,1.79.85.08Z"/>
  <path class="cls-1" d="M248.29,127.79l.93-.84h.71c.13.01.25-.31.14-.38l-.65-.4c.26-.1,1.25-.79.99-1.07l-1.05-1.14c.58.02.9.22,1.29.56l2.04-.54c0,.33.02.72.09.94.09.27.97.36,1.15.17l-.86-.79.75-.45-.73-.57c-.18-.14.06-.96.1-.8l.32.64c.04.08.18.25.25.34.08.11.28-.45.25-.59l-.38-1.55c-.11-.43-.46-1.2-.67-1.74l-.95.31.45.67c.1.14-.27.45-.46.57l-1.07-1.68c.54-.08,1.19-.2,1.8-.36-.36-.37-.69-.24-1.5-.12l1.14-2.01-.78-.16c-.13-.03.05-.49.1-.77-.52-.36-.54-.44.1-.36.49-.58,1.01-.72,1.49-.54l-.42.88,1.52.16c-.58.77-.92.84-1.43.71-.51.49-.38,1.16-.05,1.62.52.73,1.04.85,1.97.79-1.36.97-.24,4.1-.48,4.04,1.53.38-.15-.54,2.16-1.71l-1.23,1.78,2.31,2.88-2.9-.17.95,1.11c.18.22-.6.97-.71.92l.02-.68c0-.13-.14-.43-.26-.38l-.87.33.82,1.87-.84-.23c-.19-.05-.5.22-.67.37-.51-1.07-.28-1.6.58-2.78-.58-.2-1.35-.28-2.07-.25l.57.91c.13.21-.17.65-.37.88l-.27-.99-3.31.6Z"/>
  <path class="cls-1" d="M274.34,146.76l-.14-1.95-1.07.87.48-1.41-.5.4c-.11.09-.5.19-.47.06l.2-.8c-.46.02-1.04-.07-1.41-.27l1.89-1.21-.62-.06c-.07,0-.35.05-.3,0,.08-.09.41-.45.41-.45l-1.57-1.76.76-.85.28.99c.07.24.8.44.84.19l.11-.7c.01-.09.2-.16.26-.09l.47.6-.74,1.22.82,1.42.95-.48-.42.71c-.1.16.44.41.79.78l-1.36-.02c.16.24.32.57.5.56l1.09-.09c-.3.82-.73,1.65-1.28,2.35Z"/>
  <path class="cls-1" d="M265.16,118.01c-.49-.17-.9-.34-1.14-.2-1.32.76-.49,1.79-.89,1.71l-.68-.12c-.15-.03.26-.49.32-.63l.45-1-.72-.6.32-.69c.18-.39-1.93-.99-.55-1.1l1.85.44c.15.04.7.03.67.16l-.17.82,1.56.07-1.01,1.13Z"/>
  <path class="cls-1" d="M246.86,128.01c-.18-.38-.36-.75-.46-1.01-.31-.78,1.53-1.28.8-2.16l-1.12,1.1c-.09-1,.02-1.7.38-2.71l1.54,2.27c-.31.93-.32,1.66-.3,2.51l.02.67c0,.17-.42.14-.57.06s-.19-.34-.28-.74Z"/>
  <path class="cls-1" d="M266.48,143.48c-.18,0-.39.01-.49.02s-.24.39-.14.42l.73.22c-.68.63-1.71.47-2.48-.2l1.29-.27-.26-1.04c-.04-.18.39-.39.6-.53l1.32-.91c.41-.18,1,1.03.89,1.51-.76-.47-1.44-.6-2.11-.05l1.51.15c.15.01.11.7-.05.7l-.82-.02Z"/>
  <path class="cls-1" d="M264.85,135.12l.97-.5c.04.29-.06.81-.34,1.14-.41.5-3.18-.52-2.95-2.32l2.14.26c.12.01.6.32.56.43l-.38,1Z"/>
  <path class="cls-1" d="M275.94,157.84l-.83.26c-.22.07-.65-.31-.92-.38-.14-.04-.58.25-.7.35-.14.11-.53-.37-.41-.47l1.83-.55c-.21-.21-.4-.71-.19-.89.26-.21.76-.27,1.14-.29l.81-.03c-.07,0,.28,1.14.24,1.5-.03.24-.57.36-.98.49Z"/>
  <path class="cls-1" d="M272.59,151.74c-.13-.05-.57-.4-.47-.5l.42-.4c.1-.09.34.28.55.51l.62-.96-1.53-.42c.35-.65.16-1.27-.33-2.21.25.1.57.44.78.4l1.07-.18c-.09.59-.29,1.24-.14,1.6.19.46.78.98,1.09,1.17-.24.8-1.32,1.27-2.06.98Z"/>
  <path class="cls-1" d="M267.11,144.37l1.88-1.78-.49-.28c-.1-.06-.21-.33-.19-.39.41-.47,2.7-1.18,2.78-.96-.62.91-.79,1.2-1.13,2.05-.67.57-1.7,1.05-2.85,1.36Z"/>
  <path class="cls-1" d="M266.29,148.54c-.47.37-.51.12-.11-.4l-.46-1.38c-.04-.11-.41-.39-.52-.42-.15-.03.12-.35.25-.49.1-.11.46-.09.47,0,.22.41.26.49.4.6s.61-.35.64-.52l.09-.52c.02-.11.64-.13.72-.06.31.27.22,1.28-.06,1.58l-1.43,1.6Z"/>
  <path class="cls-1" d="M260.12,112.32c-.42.13-.95-.95-1.07-1.31-.08-.23.55-.38,1.02-.71l-1.86-.35c.05-.38,1.1-.46,1.61-.29.6.19.58,1.01.99,2.17.07.2-.49.43-.7.5Z"/>
  <path class="cls-1" d="M271.76,121.09c0,.2-1.59.09-1.55.14l-.46-.7-.89.56c-.02-.71,0-.85-.31-1.56l.99-.55c.03.59,0,1.08.26,1.22s.91-.02,1.36-.17c.28-.41.24-.18.06.28-.32.34-.17.48.55.32,0-.15-.01.31-.01.45Z"/>
  <path class="cls-1" d="M258.5,111.02l-1.5,1.7c-.09.11-.35.07-.46,0-.13-.1.18-.44.38-.62.73-.68.1-1.51-.48-2.38-.16-.24.78-.43.93-.19.14.21.29.62.33.9l.08.56c.02.12.31.04.72.04Z"/>
  <path class="cls-1" d="M271.7,125.45c.31.15-.03.94-.29,1.32-.2.3-1.04.03-1.4-.27-.23-.2-.02-.87.12-1.14s1.16-.11,1.56.09Z"/>
  <path class="cls-1" d="M248.06,132.46l-.07-1.75c-.01-.33-.6-.66-1.1-1.1l1.63-.55c-.21,2.41,1.05,1.18-.46,3.4Z"/>
  <path class="cls-1" d="M270.74,147.57c-.3-.16-.85-.63-1.11-.54-.3.11-.52.68-.8,1.26l-.91-.77c.5-.45,1.24-1.01,1.8-1.28l1.24.83c.11.07-.1.57-.22.5Z"/>
  <path class="cls-1" d="M276.27,153.62c-.28-.45-1.98,1.34-2.53-.24.18-.55,1.74-.88,2.17-.46.1.1.28.57.36.69Z"/>
  <path class="cls-1" d="M266.86,119.32l.57,1.45-.86-.4c-.05-.8-.28-1.48-.68-2.24-.16-.07.72-.29.75-.11l.16.97c1.38,0,.12-2.7,2.29-1.92l-.76.59c-.13.1-.34.51-.33.54l1.28-.4c.26-.08.95.44.71.65l-2.37.18.47.62c.07.1-.03.48-.14.44l-1.08-.37Z"/>
  <path class="cls-1" d="M263.57,113.76c-.06.3-.06.77-.23.78l-1.19.04c-.21,0-.31-.79-.11-.83l1-.19.97-.75c.26-.2,1.02.76.58.9l-.5-.43c-.14-.12-.48.29-.52.48Z"/>
  <path class="cls-1" d="M252.81,137.81l-.95-.6c-.21-.13-.55.63-.58.88l-.06.59c-.01.11-.28.15-.4.17-.83.17.36-2.08,1.15-2.43.51.44.75,1.21,1.45.78-.01-.45.1.29.12.49.01.21-.55.22-.74.11Z"/>
  <path class="cls-1" d="M264.99,142.1c-.21.16-.88-.36-.94-.5.36-.17.83-.32.76-.5l-.52-1.29,2.01,1.32-1.31.98Z"/>
  <path class="cls-1" d="M253.8,131.9c-.14.17-.43.81-.56.69l-.67-.64c1.87-.73,1.58-2.42,2.99-2.23l-1.77,2.18Z"/>
  <path class="cls-1" d="M263.68,135.99c.33.31-.8.27-1.33,1.02-.16.22-.02.67-.13,1.25-.32-.63-.63-1.33-.76-1.76-.09-.29.75-1.03.85-.76l.27.72c.19.49.34-1.18,1.09-.47Z"/>
  <path class="cls-1" d="M276.33,148.76l-.8.96c-.23.27-1.53.1-1.48-.25l.22-1.54.6.58c.13.12-.04.51-.12.95l1.59-.7Z"/>
  <path class="cls-1" d="M270.11,160.18c.02.05-.2-.44-.27-.6-.09-.2.56-.53.7-.7.14-.43.13-.94.39-1.06.34-.16,1.11-.39,1.28-.4l-2.1,2.75Z"/>
  <path class="cls-1" d="M268.4,150.8l1.26.92c-.59.09-1.37-.23-1.64-.73-.19-.36.67-1.21,1.07-1.11.49.12,1.16.71,1.22,1.2l-.83-.64c-.21-.17-.9.2-1.08.37Z"/>
  <path class="cls-1" d="M267.69,158.68l-1.12,1.5c-.32-.54-.35-1.27-.17-1.87.09-.31.71-.05,1.28.36Z"/>
  <path class="cls-1" d="M277.75,169.37c0-.49.11-1.36-.17-1.68l-.46-.54c-.11-.13.47-.35.6-.23,1.16,1.08.1.68.87,2.12.08.15-.7.37-.85.33Z"/>
  <path d="M271.81,132.62l-1.34-.24.59.8c.1.13-.51.26-.65.39-.12.1-.24-.42-.21-.58l.22-.96c.06-.26.94-.24,1.09-.31l-.06-1.4,1.39,1.93c.04.41-.61,1.22-1.15,1.46l.13-1.1Z"/>
</svg>