<?xml version="1.0" encoding="UTF-8"?>
<svg id="Layer_2" data-name="Layer 2" xmlns="http://www.w3.org/2000/svg" viewBox="0 0 432 288">
  <defs>
    <style>
      .cls-1 {
        fill: #fff;
      }
    </style>
  </defs>
  <path class="cls-1" d="M-2.2,289.39V1.39h432v288H-2.2ZM209.14,52.6c-.19-1.29-.91-1.61-1.19-2.29-1.38-3.33-1.41-3.42-3.39-6.51-.96-1.5-1.66-3.35-2.44-5.02.19-.34.51-.71.38-.89-.95-1.31-1.4-.43-1.84-1.66l1.54.7-1.22-2.44-1.44-3.14c-.25-.54-.84-1.06-1.01-1.61-.24-.77-.89-.98-1.58-.6-1.03.57.16,2.85.59,2.84.49,0,1.28-.03,1.52.23s.46,1,.59,1.42c.24.74,1.34,1.01.57,2.01l-1.23-1.93c-.18-.28-.84-.49-1.12-.39.46,1.29.78,2.29,1.33,3.37l2.05,3.98,1.65,2.92,3.25,5.87,1.31,2.06c.34.53,1.12,1.01,1.67,1.08ZM241.36,77.39c-3.29-3.18-.92-1.38-2.49-3.56l-2.55-3.55.44-1.42c-1.24-.06-1.66-.76-2.15-1.62l-1.57-2.77c-.43-.77-1.08-1.52-1.42-2.36-.21-.53-.46-.95-.75-1.39l-2.14-3.16c-1.98-2.92-2.09-4.23-3.14-5.95-1.39-2.26-2.25-3.01-2.8-5.19-1.19-.6-2.73-2.83-2.87-4.24-.08-.76-.35-.9-.8-1.41-1.43-1.61-2.63-3.61-3.39-5.61.71-.56-1.45-5.47-2.61-5.72l-1.94.87.87,1.33.58-.9c.11-.18.81.17.91.36l1.19,2.29-1.07.3c-.01-.54.06-1.33-.2-1.45l-1.25-.59c.09.49.66,1.1.88,1.64.55,1.33.99,2.62,1.73,3.84l3.17,5.24,1.55,2.76c.72,1.29,1.49,2.35,2.15,3.64,1.05,2.03,2.29,3.9,3.46,5.86l1.63,2.72,1.69,2.83,1.97,3.27,3.55,5.67c.88,1.4,1.69,2.71,2.64,4.08l1.74,2.52c.64.93,1.35,1.59,2.43,2.31l.53-.62ZM241.88,71.84l-1.16-1.83-2.44-3.85c-.25-.4-.19-1.22-.36-1.63-1.65-4.03-3.85-5.03-4.5-6.63l-1.54-3.79c-1.43-3.52-3.13-3.63-3.07-4.77.08-1.65-1.88-1.64-1.43-2.22l.58-.76-1.15-.33-1.76-3.3c-.27-.51-.5-1.17-.74-1.68-.59-1.26-1.21-2.28-1.56-3.73-.28-1.16-1.18-2.56-1.91-3.46-.16-.2-.97-.47-.86-.68l.51-.95-1.43-1.93-.86.64-.73.28c-1.27.48,2.64,4.83,3.5,7.2.35.95.82,1.67,1.31,2.56l.95,1.71,4.29,7.95,1.28,2.29c.81,1.45,1.39,3.05,2.33,4.38.59.83.97,1.69,1.55,2.56l1.04,1.56c1.43,2.14,5.69,10.25,8.31,13.03l2.12,2.25,1.47,1.55.55-.54c-1.13-1.9-2.43-2.92-3.02-3.86l-1.26-2.01ZM232.79,77.22c.16-.84-.36-1.25-.77-1.83l-3-4.18-1.19-1.71c-.91-1.3-.65-1.3-1.65-2.88l-1.21-1.92-3.58-5.97c-.48-.81-.93-1.59-1.45-2.43l-1.22-1.94c-1.07-1.7-.91-2.21-2.82-4.61l-.13-2.19c-2.27-3.98-1.31-1.01-2.85-3.44l-1.4-2.21c-.44-.69-.92-1.25-1.07-2.07-.04-.22-.18-.59-.06-.64l.73-.35-.93-1.97-1.28-.08c-.25-.02-.27-.71-.42-.98l-2.98-5.19c-.48.08-1.27.31-1.65.52-.17.09-.17.69-.09.92.07.19.39.09.9-.03.73.48,1.4,1.29,1.95,2.04l1.74,2.37c-.99,1.76-1.05-2.04-3.59-2.58,1.95,4.48,4.56,8.2,6.81,12.27.76,1.37,1.45,2.64,2.3,3.98l3.53,5.57,2.16,3.82,2.92,4.53.93,1.96c.57,1.19,1.26,2.19,1.98,3.31l.9,1.39c.35.54.58,1.15.96,1.77l2.26,3.76c.5.83,1.54,1.34,2.47,1.9l-1.4-2.09-1.74-2.77c1.17-.43,1.26.89,1.7,1.43.7.86,1.35,1.59,2.24,2.53ZM202.34,55.53l-1.13-1.89c-1.08-1.79-2.34-3.41-3.38-5.21-.51-.88-.87-1.77-1.5-2.61-.52-.7-.69-1.52-.71-2.38-.44-.15-1.34-.45-1.57-.82l-1.56-2.52-1.87-3.16c-.9-1.52-1.62-3.08-3.25-4.13-.2,1.01.86,1.67,1.28,2.47.45.84.66,1.96,1.24,2.81,2.33,3.38,1.58,2.41,3.47,5.63l1.08,1.84c1.98,3.37,4.03,6.51,6.54,9.56.7.85,1,2.99,2.71,3.04-.38-.95-.77-1.69-1.34-2.63ZM193.51,52.2l.85,1.4c.4.66,1.28,1.44,1.61,2.09,2.06,4.04,1.51,2.37,3.33,5.42l1.07,1.8,3.36,5.28c.34.54.87,1.1,1.11,1.7.38.94.93,1.55,1.54,2.35.85,1.13,1.46,2.55,2.13,3.84,1.12,2.14,2.54,3.96,3.78,6.04l1.35,2.28c.35.6,1.11,1.59,1.69,1.86.28.13,1.01-.44,1.12-.72.09-.24-.12-.64-.36-1.08l-.78.97-2.67-5.05c-.61-1.16-1.53-2.3-2.01-3.5s-1.02-2.09-1.88-3.21c-2.67-3.45-1.7-2.2-3.59-5.71-1.46-2.72-2.03-3.86-3.78-6.31l-1.82-2.54c-.85-1.19-1.56-2.41-2.23-3.68l1.02-.2-1.18-.54c-1.09-.49-1.49-2.92-2.3-4.04l-2-2.75c-.68-.94-.95-1.96-1.74-2.86-.73-.84-1.15-1.7-.99-2.87l-2.21-1.05c.62-1.86-.26-3.4-1.2-4.89-.35-.55-.56-1.36-1.05-1.84l-1.8,1.38c-.08,1.95,1.81,2.99,1.62,3.39l-.46.98c-.07.15-.27.76-.11.8l.59.14c.17,1.45.59,2.79,1.38,4.35-1.98-.16-1.08-2.78-2.32-3.42-.55,1.46.17,2.54.73,3.81l1.38,3.14c.68,1.55,1.89,2.69,2.89,4.04l.2-1.91,1.24,1.44c.16.18.36.78.49,1.01l2.52,4.42c.66,1.15,1.46,2.26,2.01,3.44.79,1.69,2,2.95,2.98,4.52.28.45.31,1.19.83,1.78.6.69,1.18,1.62,1.65,2.41.69,1.18,1.46,2.19,2.17,3.36l1.9,3.13,2.55,3.54c-.34-1.35-.63-2.51-1.35-3.59l-1.22-1.83c1.44,2.17-6.02-10.13-4.87-8.04l-1.88-3.4-2.18-4.15-1.54-2.58c-.12-.2.17-.83,0-.97-2.08-1.68-1.58-1.56-2.94-3.96l-2.02-3.56c-.07-.13.1-.77.13-.9s.53.24.61.38c.78,1.43,1.77,3.25,2.64,4.67ZM263.43,96.92c.02-.33.17-.85.05-.81l-.78.26-.9-1.7c-.4-.75-2.56-3.22-1.73-3.07l.87.16c-.66-1.06-1.35-2.08-2.28-3.03-.16.99.7,1.23,1.09,1.75l-.57.57-1.08-1.71c-.13-.21-.38-.73-.25-.92l.47-.67-2.02-.69c-.58-.35-.86-1.53-1.24-2.07l-1.42-1.77c1.63.02.55.6,3.1,2.93l.47.43c.11.1.54-.36.43-.44l-.55-.4c-1.03-.74-1.98-2.89-1.86-3.09l.52-.89-1.13.48c-1.13-3.03-1.5-.65-2.28-3.56l-1.27,1.51c-1.8-2.15-1.19-2.37-2.57-4.48l-1.06-1.62c-.69-1.06-1.29-2.07-1.83-3.2l-1.62-3.4c-.23-.49-.7-.92-.94-1.45l-2.13-4.6-2.31-4.44c-.71-1.37-1.32-2.48-1.82-4-.54-1.63-1.99-3.18-2.8-4.75-.03-.06-1.14-2.47-.19-1.93l.46.26c0-.17-.23-.67-.42-.67l-.69-.02c-1.27-1.68-2.28-3.56-3.48-5.33-.73-1.08-1-2.19-.05-3.32l-1.12-1.65c-.29-.14-1.22.28-1.45.66-.3.49-.3,1.13-.27,1.72-.2.19-.84.51-.85.78,0,.61,1.03,2.96,2.21,3.6.2.57.37,1.69.65,2.18l2.62,4.63.95,1.92c1.08,2.18,2.36,4.14,3.59,6.22l1.69,2.85.98,1.68,2.33,3.92,1.9,3.37,1.49,2.58c1.65,2.86.86.53,2.36,3.84.91,2.01,1.6,3.09,2.82,4.91.36.53.94,1.07,1.32,1.56,1.07,1.38,2.07,2.82,3.44,4.01.62.53,2.66,4.18,3.3,5.07l.94,1.31c.7.98,1.26,2.18,1.67,3.31.82.32,2.01,3.1,2.26,3.44,1.24,1.69,2.39,3.23,3.43,5.02l.88,1.5c.38.65.83,1.21,1.28,1.83,1.61,2.24,2.88,4.64,4.15,7.11.34.66,1.21.99,1.77.52-.51-.6-1.15-1.22-1.38-1.8s-.6-1.04-.76-1.39c-.38-.83-.76-1.67-1.18-2.48l-1.91-3.66c-.44-.85-.93-1.8-1.42-2.54l-2.7-4.09c-.42-.64-1.22-1.46-1.18-2.21ZM205.05,51.12c.64-1.32-.63-1.71-.95-2.46-1.67-3.88-2-3.05-3.76-6.73l-.52,1.18c.22.47.53,1.35.79,1.74l2.29,3.53c.39,1.07,1.09,2.14,2.15,2.73ZM232.79,43.11l-.53-.74c-.08-.11-.61.13-.65.19l.61,1.19c.07.14.39.33.53.37s.47-.28.4-.41-.23-.41-.36-.6ZM206.94,88.79l2.61,3.77c1.27,1.83,2.67,3.59,4.78,4.83l-2.28-3.29-2.07-2.95c-1.56-2.23-2.57-4.87-4.25-7.02s-3.28-4.35-4.86-6.65c-.57-.83-1.13-1.56-1.62-2.47-.55-1.04-1.79-1.86-2.35-2.92l-.69-1.31c.1.2-2.38-3-2.65-3.32-.13-.16.22-.55.6-1.02-1.35.2-1.55-.73-2.12-1.52-.89-1.22-2.04-2.49-2.61-4.01-.47-1.23-.81-2.13-2.07-2.76-.78-.39-1.16-1.39-.91-2.19-.56-.87-1.2-1.85-1.76-2.8l-3.32-5.62c-.87.39-1.64.91-2.08,1.49.42,1.93,1.68,3.21,2.56,4.77l2.08,3.68c.25.45.5,1.19.8,1.57l1.73,2.2c1.22,1.56.64,2.35,2.34,3.53l.1-1.51,1.35,1.9-.84,1.1c-.14.18.34.89.48.85l.62-.78c.11-.14.55.35.66.49l1.52,2.06,3.44,4.74.97,1.46,1.24,1.85c1.73,2.58,2.58,3.41,4.07,5.52l1.2,1.69,1.26,1.87,2.07,2.79ZM212.81,102.05c-.14,1.46,1,2.27,1.3,4.4-.62-.34-1.27-.71-1.41-1.06l-.45-1.1-.63-1.54c-1.03-.2-1.72-.77-2.32-1.55l-1.34-1.76-1.26-1.6c-.52-1.67-1.96-3.51-3.19-4.96-.64-.75-.99-1.61-1.46-2.42l-2.72-4.66c-1.98-3.38-2.93-3.02-2.49-4.62.07-.24-.46-.75-.53-1.01-.24-.94-1.56-1.44-1.95-2.03l-1.83-2.8c-.36-.55-.36-1.27-1.13-1.53-.2-.07-.55-.37-.45-.5.08-.1.31-.42.38-.54.36-.64-1.04-.87-1.31-1.24l-2.99-4.14c-.11-.16-.26-.67-.16-.82l.34-.5c-.46-.41-.79-.81-1.15-1.38l-1.06-.76c-.88-2.19-2.01-4.13-3.33-6.05-1.39-2.02-1.28-2.65-2.71-4.07-.26-.25-1.25-.19-1.36.15l-.57,1.71,1.45,2.47c.82,1.39,1.64,2.57,2.65,3.83,2.7,3.37,1.49,2.07,2.98,4.93.4.77.83,1.4,1.26,2.12l1.65,2.7,7.06,11.16,1.56,2.95,1.77,2.8.95,1.67,3.63,5.75.9,1.43.97,1.7c.58,1.02,1.25,1.9,2,2.84.9,1.14,1.43,2.38,2.24,3.58l1.23,1.82,2.35,3.7c.43.68,1.23,1.66,1.71,2.28l1.09.63,1.05-1.09c.27-.28-.08-.99-.58-1.55.04-.15.73-.47,1.14-.54.6-.1,1.5-1.09,1.09-1.58-.17-.21-.62-.35-.58-.51.03-.12.17-.54.1-.64l-.79-1.32-1.09-1.78c-.39-.63-1.94-3.6-2-2.97ZM197.36,76.64l-1.91-2.39c-.49-.61-.91-1.34-1.37-1.98l-2.01-2.8c-.4-.56-.96-1.17-1.53-1.74.19.54.35,1.29.57,1.67l2.09,3.52c.58.99.95,2.22,1.83,2.93s1.2,1.26,1.93,2.46l.39-1.67ZM187.08,80.14l-2.8-4.51c-1.64-2.64-1.82-4.71-3.68-5.96l-.74-1.54c-.09-.18-1.03-.15-.98.04s.19.54.32.79l1.85,3.7,3.63,5.7c.58.91,1.31,1.69,1.86,2.7l1.23.66c.12-.73-.32-1-.69-1.59ZM229.68,152.33c.66.34,1,.75,1.31,1.29,1.53,2.7,3.23,5.15,5.03,7.69,1.22,1.72,2.16,3.67,3.77,5.06.66.57,1.02,1.03.86,1.92l.64.16c-.04-.73-.03-1.49-.27-1.8-2.35-3.04-3.51-5.14-5.49-8.28l-1.56-2.47c-.69-1.1-1.44-2.22-2.33-3.2.09-.18.38-.45.54-.42l.78.16-1.14-1.91c-.18-.31-.91-.55-1.13-.41.73.64,1.44.91,1.4,1.97-.84-.51-1.36-1.24-1.86-2.05l-.87-1.4,1.65.21-1.3-1.35-.38.9c-.83-.87-1.46-1.68-2.01-2.65l-1.93-3.36c-.33-.58-3.4-5.47-2.12-5.72-.45.03-.89.08-1.14.04s-.57-.61-.69-.86l-1.17-2.46c-.43-.9-.65-2.14-.94-3.1-2.64-.25-1.31-1.97-3.29-1.43-.23.06-.66.16-.67.02s-.05-.68.09-.63l.81.27.33-.42c-.1-.42-.3-.89-.12-1l.99-.59c-.16-.38-.85-.96-1.31-.97-.58-.02-1.33.32-1.54.67l.78,1.54-2.11-.87c-1.19-.49-1.86-1.89-2.53-2.92-.73-1.11-1.52-2.15-2.38-3.14-.55-.64-3.37-4.02-1.92-4.47.1-.03-.3-.24-.34-.33s-.42.54-.48.45l-.75-1.05c-.63-.88-1.53-1.77-1.96-2.75-.5-1.12-.97-1.94-1.75-2.89-.12-.14-2.02-3.72-2.67-4.43-1.24-1.35-2.23-2.39-3.08-3.99-.44-.83-1.69-1.72-2.25-2.44.1-1.43-.81-1.94-1.45-2.91l-2.76-4.18c-1.67-2.54-1.04-.89-2.28-3.47-.83-.37-1.08-.96-.85-1.76l-2.86-3.22c-.51-.58-.8-1.2-.53-2.01-.55,0-1.14-.28-1.44-.75-.36-.56-.34-1.41-.29-1.93-.55-.36-1.23-.81-1.78-1.34-.46-.45-1.79.09-1.71.65l3.38,4.45c2.53,3.32.27,1.62,2.15,3.81.7.81,1.42,1.67,2,2.54l1.44,2.17,2.05,3c1.33,1.95,2.1,3.52,3.27,4.86l1.36,1.54c.54.62,1.11,1.35,1.55,2.09l1.68,2.85,2.03,2.77c.79,1.09,1.45,2.24,2.19,3.38.62.95,1.5,1.81,2.08,2.87.66,1.21,1.52,2.07,2.39,3.13.49.6.71,1.97,1.27,2.52.66.65,1.2,1.22,1.7,1.93l1.52,2.14c.7.99,1.72,2.08,2.5,2.92.48,1.62,1.2,3.07,2.29,4.51l1.54,2.02c2.52,3.3.48.93,2.15,3.61l2.67,4.28,1.22,1.85,1.97,3.37,1.57,2.49,2.2,3.54.92,1.49,1.66,2.43,2.62,3.87,1.7,3.08,1.11,1.56,1.69,2.39,1.39,1.96c.42.59.89,1.03,1.72,1.19-.12-.84-.72-1.19-1.11-1.79l-1.22-1.89-1.73-2.58-2.16-3.16c-.21-.31-.51-1.01-.73-1.38-.84-1.4-1.61-2.65-2.52-4-.12-.18-.32-.58-.23-.73l.48-.8c-.68.11-1.07.03-1.61-.52-.25-.25-.4-.88-.56-1.14l-1.35-2.17c-1.07-1.71-2.07-3.36-3.04-5.1-.3-.55-.53-1.21-.88-1.74-.14-.22-.36-.62-.24-.75l.58-.62.24,1.55.82-.4c.59,1.47,1.48,2.82,2.39,4.03-.2.4-.45.98-.46,1.13,2.17-.53,1.37,2.3,1.94,2.6.36.18.78.35.8.56l.06.64ZM260.34,113.4c.97,1.83,1.95,3.57,3.08,5.22l2.23,3.26,1.18,1.67,2.3,3.23c2.07,2.92,1.21,1.51,3.37,3.75.12.01.98-.34,1.18-.47l-.72-1.45c-.15-.3-.79-.45-1.14-.53-.29-.22-.87-.86-1.07-1.2l-1.73-2.86c-.5-.83-.98-1.47-1.6-2.25l1.19-.37c.04-.12-.37-.78-.62-.76l-.93.1-1.2-1.97-.3-1.14c-1.05-.81-1.33-2.04-1.82-3.04-.61-1.24-1.52-2.16-1.71-3.66-.08-.65-.75-1.52-.99-2.2-.22-.65-.47-1.29-1.02-1.62-1.11-.66-1.65-1.81-1.08-3.02.92,1.72,1.81,3.09,2.82,4.57.78,1.13,1.35,2.36,1.97,3.59.52,1.03,1.45,1.95,2.06,2.92l1.58,2.52c.43.68.82,1.16,1.67,1.49.11-.82-.27-1.03-.59-1.58l-1.79-3.03-1.52-2.32-1.72-2.56-1.95-3.17c-.29-.48-.47-.88-.73-1.5-.36-.87-1.57-1.72-2.01-2.6l-.97-1.95c-.35-.71-.71-1.33-1.14-1.96l-.7-1.04c-.32-.47-.69-1.35-.97-1.88-.9-.67-1.36-1.73-.53-2.69-.52-1.13-2.07-.3-2.05-.95v-.54s-1.53-2.52-1.53-2.52l-2.09-3.38-1.6-2.43-.76.56c-.14.1-.49-.33-.65-.43-1.61-.99-1.72-2.63-2.21-2.24l-.65.51c-.4.32-.8.85-.75,1.31s.34.99.66,1.42c1.26,1.74,2.14,3.54,3,5.48l1.26,2.83c.28.62,1.21,1.37,1.44,2.01.31.85.6,1.34,1.09,2.14.58.96.94,2.26,1.43,3.32.09.2.62.56.54.75-.4.91-2.06,1.16-1.2,3.04.3.65,1.18,1.25,1.47,1.85l1.94,4.09,1.26,2.3,1.88,3.41,1.52,2.62c1.64,2.83.79,2.01,3.11,5.1l-1.71-.18c.26,1.48,2.92,3.63,3.8,4.93l1.36,2.01c.53.78,1.27,1.55,1.74,2.3l2.59,4.13,1.15,1.71,1.55,2.3.96,1.47,2.69,4.04c1.11,1.67,2.34,3.18,3.61,4.76.37.46.56.97,1.12.94.39-.02,1.21-.48,1.04-.8-.09-.16-.41-.45-.33-.53l.48-.5-1.29-1.06c-.16-1.11-.83-1.62-1.47-2.36l-2.04-2.33-1.23-1.64-.93-1.91c-.48-.99-1.35-1.72-1.94-2.62l-2.11-3.22c-.4-.61-.92-1.22-1.6-2.07l-1.63-2.05c-.62-.79-.41-1.66-.8-2.35l-1.38-2.49-1.24-2.14-1.44-2.29-3.28-6.14-.97-1.91c-.58-1.15-1.26-2.14-1.72-3.36,2.27,2.51,2.31.85,3.79,3.63ZM205.39,123.56l-1.37-1.5.47-.67c-1.01-1.05-1.83-2-2.68-3.11l-1.88-2.46c-1.13-1.48-2.41-2.9-3.37-4.49-1.12-1.86-2.32-3.31-3.73-4.95-.42-.49-4.92-7.4-5.34-8.37l.57-.55c.06-.06-.29-.16-.37-.13l-.39.14c-1.31-.72-1.69-2.19-1.76-3.7-.21-.51-1.38-.98-1.67-1.42l-1.36-2.02c-.3-.45-.13-1.07.18-1.43-.55-.92-.99-2.14-2.03-2.97l1.47,3c-.84-.34-1.35-1.06-1.63-1.83l-.81-2.24c.33-.47.6-1.18.31-1.68s-.93-.78-1.58-.75l.54,2.14-1.51-.96c.19.7.29,1.09.41,1.3.67,1.16,1.17,2.17,1.76,3.35.62,1.24,1.54,2.43,2.26,3.65l1.06,1.82,1.17,1.94,2.05,3.22,1.48,2.38,2.56,3.93,3.95,5.55,3.89,4.79c.61.75,1.07,1.48,1.68,2.17l1.9,2.18,2.13,2.43c.65.74,1.01,1.72,2.34,1.55-.25-.53-.65-1.11-.99-1.4l.29,1.07ZM197.2,119.67c-.58-.71-1.12-1.29-1.58-1.92l-4.25-5.84c-.64-.88-1.35-1.71-1.94-2.62l-3.35-5.07c-.52-.78-1.43-1.46-2.09-2.2s-1.14-1.76-1.74-2.57c-.54-.73-.9-1.43-1.11-2.33l-1.72-1.25c-.11-.08-.3-.46-.21-.54l.42-.37c-2.51.01-1.38-.99-2.73-1.05-.14,0-.31.34-.32.51-.05.59,1.03,1.03,1.35,1.49,1.22,1.72,2.6,4.25,4.13,5.85.64.67,1.09,1.19,1.58,1.87l2.9,4.05,1.89,2.67,2.02,2.3,3.68,5.15c.34.48.88.91,1.26,1.38l3.65,4.52c.22.27.66.62,1.03.99.2-.02.52-.88.31-1.14l-3.17-3.89ZM208.7,98.35l-2.07-3.03c-.11-.16-.17-.74-.28-.65-.13.09-.45.26-.38.38l.25.39,2.07,3.17c.4-.2.69-.36.41-.25ZM208.84,141.62l.06.91c.11,1.63-5.35-4.94-6.02-5.99-.5-.8-.82-1.61-1.32-2.2l-1.45-1.7c-.42-.49-.69-1.11-1.01-1.65l-1.49-2.58-.94-.78.15-.86c-.14.82-2.95-2.56-3.18-2.97l-1.13-1.97c.75,1.31-6.68-9.09-6.07-8.34l-2.36-2.91-2.01-2.59-3.19-4.46c-.82-1.15-2.68-2.94-3.27-4.86-.05-.17-.53-.42-.49-.58l.18-.84-1.68-1.92-1.4.48,2.51,1.55c-.58.72-1.7-.9-2.21-.11-.74,1.15,1.15,1.45,1.7,2.51.82,1.56,1.83,2.77,2.84,4.14l4.28,5.79,1.7,2.17,1.88,2.4,2.71,3.53,2.72,3.5c.89,1.14,1.46,2.2,2.53,3.2h-.51c-1.74-.05,2.53,1.01,3.04,3.76l1.09,1.54,3.2,4.51,2.81,3.91c.6.84,5.89,6.45,6.88,5.27.41-.48.24-1.37,0-1.97-.05-.13-.55-.01-.55.1ZM174.38,104.92l1.88-.27c-.39-.59-.86-1.16-1.28-1.45-.32-.22-1.15.14-1.57.48-.12.3.55,1.3.96,1.24ZM200.88,147.87l-1.38-2.32c-.44-.73-.85-1.38-1.3-2.06l-3.07-4.63-.75-1.22-1.91-2.85-2.24-2.97-1.59-2.75-.97-1.68c-.64-1.11-1.32-2.14-2.19-3.08-1.01-1.09-1.5-2.33-2.24-3.57-.44-.75-1.03-1.55-1.52-2.27l-1.4-2.01c-.38-.55-.95-1.17-1.4-1.69-1.57-1.8-1.52-2.55-2.89-4.77-.86-1.39-1.78-2.63-2.81-3.94-.51-.66-1.86-.84-2.78-.84.92,2.86,2.53,4.51,4.13,6.94l2.57,3.89,1.42,2.23c.68,1.07,1.16,2.23,2.15,3.15,1.94,1.81,2.04,2.86,3.3,4.59l3.01,4.13c.34.47.83.99,1.25,1.45,3.51,3.88,1.55,2.93,3.19,4.92l1.85,2.26c.92,1.12,1.72,2.23,2.63,3.38l.72.9c.92,1.15,1.49,2.48,2.46,3.56.64.71,1.16,1.4,1.53,2.13l.48-.42c.07-.06-.13-.27-.25-.48ZM178.62,119.76c-.3-1.01-1-1.9-1.84-2.4.17-.16.59-.6.45-.71l-.68-.53c-.65-.51-1.04-1.72-1.59-2.38-1.82-2.2-1.48-2.27-3.02-4.43l-2.32-3.25c-.29.25-.58.55-.51.7l.33.72c.4.88.76,1.91,1.37,2.68s1.05,1.48,1.63,2.25l1.83,2.43c.53.71.91,1.49,1.5,2.13.98,1.06,1.51,2.07,2.13,3.53l.71-.73ZM281.33,157.47c-.5-1.32-1.87-2.29-2.72-3.42l-4.28-5.66c-.49-.65-.63-1.67-.81-2.51-1.6-.47-.72-2.16-2.78-4.13-.96.12-1.9-.72-1.82-1.35.02-.16.71-.41.62-.55l-.4-.65c-.08-.13-.5-.52-.57-.38l-.41.77c-.26-.3-.75-.86-.9-1.2-1.05-2.43-2.52-4.86-4.2-6.99-.63-.79-.89-1.74-1.24-2.66l-1.47-1.64c-1.09-1.21.13-1.47-1.97-4.22-.97-1.27-1.55-2.61-2.31-3.94-.83-1.46-1.37-2.64-1.81-4.31-.33-1.24-1.61-2.44-2.21-3.65l-.97-1.96c-.34-.69-.9-1.54-1.25-2.17l-1.23,1.83c-.17.25-.41.64-.27.81.11.13.5.47.57.63l1.08,2.16.95,1.71c.22.4.36,1.3.54,1.87.13.43.56.82.78,1.18l4.67,7.52,2.27,3.56c.4.63.78,1.23,1.14,1.92,1.21,2.32.88.91,2.49,3.71l1.92,3.33c.47.81.83,1.55,1.37,2.27,1.05,1.42,2.25,2.76,3.22,4.24,2.38,3.62,4.87,6.98,7.52,10.44l2.2,2.87,1.4,1.73c.23.29,1.25.37,1.41.16l-.51-1.34ZM225.76,156.12l2.04,2.58,2.71,4.23,1.94,2.94,3.12,5.58c.18.31.38,1.12.75,1.33.27.15.56.09,1.25,0,.21-.42.04-1.39-.35-1.84l-1.72-2.01c.37-.53.59-1.15.24-1.7s-.94-.64-1.53-.48l-1.64-2.58-1.73-3.07c-.06-.1-.04-.45-.02-.56,0-.07.13.09.3.28.2.11.7.24.82.19l-2.07-3.43c-.21-.36-.75-.78-1.23-.96l1.48,2.72c-1.09.05-.93-1.15-1.48-1.63-.65-.58-1.14-1.18-1.47-1.95l-.66-1.52c-.13-.3-.6-.78-.83-1.01l.7-.68c.16-.15-.27-.68-.41-.85l-2.46-2.99c.22.77.35,1.03.7,1.89-.41-.28-.86-.74-1.2-1.2l-1.42-1.95c-.09-.12-.35-.49-.26-.6l.49-.57c-1.18-.18-1.81-1.38-1.6-2.49-4.2-3-1.95-3.36-4.15-4.55l.43-.74c-.5-.63-.78-1.14-1.02-1.77l-.21-.56c-.03-.07-.31.18-.3.26l.1.53c.1-.05-.25.11-.51.23-2.61-2.34-1.37-2.09-4.39-3.24-.44-.17-1.27.76-1.39,1.27.46.49,1.21,1.17,1.71,1.29l1.12.28-1.39,1.35c1.21,3.09,1.45,3.08,2.93,5.48l1.66,2.68c.36.58.88,1.32,1.16,1.89.9,1.9,2.04,4.62,3.75,6.16.04.17-.72.2-.92.06-.17-.12-.5-.51-.6-.69l-1.72-2.9c-.24-.4-.73-.95-.93-1.36-.63-1.28-1.28-2.35-2.11-3.47l-2.15-2.88-.62-1.71c-.66,2.55,3.29,6.41,3.31,8.75l-2.3-.83c-.54.12-.69.41.09.57.46.76.48,1.72.51,2.84l.31-.45c.06-.09.43.26.36.35l-.36.45.35,1.27-.83-.19c-.14-.03-.17.46-.09.58l.26.35.48.66c-.37-.51.74,2.87-3.18-3.47l-2.3-3.71-1.14-1.97-1.67-2.65-3.49-5.36-1.34-2.02-1.72-2.34-1.36-2.28c-.35-.58-.15-1.87-1.15-1.94-.81-.06-1.37-.34-1.49-1.22-.04-.27-.06-.55.07-.62l.51-.28c-.97-.05-1.26-.33-1.8-.93-1.05-1.18-2.06-2.3-2.85-3.65l-1.88-3.21c-.26-.44-.84-.92-1.26-1.35-2.03-2.08-3.57-4.58-5.37-6.78-.72-.88-1.16-1.2-1.28-2.44-.08-.84-1.79-1.61-2.76-1.85-.05,1.19.39,2.32,1.06,3.12l5.03,6.03c1.02,1.22,1.73,2.69,2.77,3.93l2.17,2.61,1.36,1.75c1.28,1.65,2.46,3.31,3.6,5.06l2.16,3.3c.67,1.03,1.18,1.75,1.99,2.65.44.49.92,1.55,1.34,2.18l1.08,1.58,1.71,2.47.91,1.43,2.16,3.38,2.01,3.27,1.18,1.92c1.61,2.62,3.16,5.24,5.95,6.24l.49-1.62c.65,1.36,1.14,2.25,1.85,3.41.47.77.58,2.06,1.36,2.7.63.51,1.76.08,2.53-.25.65-.27,1.23-1.72.68-2.15-.89-.69-1.22-1.32-1.73-2.24l-2.67-4.77c1.01-.13,1.31.73,1.71,1.45,1.69,3.05,2.72,4.37,4.31,7.19.72,1.28,1.54,2.44,2.33,3.63l1.05,1.61,1.5,2.32,1.89,2.89c.39.6.79,1.13,1.22,1.68l1.64,2.09c.39.11.93-.57.91-.96-.01-.27-.29-.64-.59-.89-.92-.76-1.5-1.69-2.16-2.68l-1.15-1.72c-.26-.39-.7-.84-.48-1.1,2.86,2.32,4.33,5.47,6.33,8.74.23.37,1.03.78,1.36.42.52-.57-.61-1.12-.64-2.01,0-.26.25.12,1.24-.49.08-.05-.06-.38-.15-.38l-.69.04-2.15-2.94c-.41.4-.91.79-.91.61l-.32-.98c-.04-.12-.4.02-.54.03-1.3-2.96-2.11-2.57-3.18-5.15l1.75.51c-.1-.57-.39-.96-.83-1.12-.37-.13-.88-.02-1.57.11l-.31-1.59.98-.15c.09-.01-.15-.37-.23-.41l-.57-.3c-.09-.05-.24.43-.36.62-.37.12-1.53-2.12-2.3-3.31l-1.25-1.92.88-.75-2.19-3.67c-.27-.46-.47-1.19-.93-1.48-.16.21-.26.59-.17.73l.42.68c-1.29.05-1.29-1.42-1.84-2.25l-2.33-3.58c.25-.3.51-.5.45-.64-.96-2.35-.18-1.11-1.29-3.09-.29-.51-.71-1.44-1.19-1.63-1.38-.55-1.92-1.71-1.47-3.04l-1.99-1.12.81-.88c-.78-.53-1-1.26-.68-2.2,2.23,2.9,1.41,2.59,3.95,5.84.35.45,1.38,2.41,2.19,3.52l3.65,4.98c1.71,2.33,1.82,3.21,3.38,5.18ZM172.73,126.76c.26-.89.14-1.67-.29-2.12-1.17-1.24-1.96-2.51-2.78-3.98-.22-.4-.83-1.02-.77-1.43.21-1.49-.74-2.76-1.2-2.64l-1.6.43c-.37,1.17.69,2.09,1.37,2.96l3.58,4.59c.57.73.89,1.42,1.7,2.19ZM270.12,155.58c.1-.08.43-.35.51-.25l.42.46,1.69,1.85c.04.22-.05.67.1.8l.57.49,1.27,1.12c.14.13.62.46.74.33l.34-.39c-3.06-3.07-1.95-2.98-5.12-6.49-.79-.87-1.91-3.3-2.57-3.85-.75-.61-.85-1.47-1.03-2.33l-1.97-1.68c-.28-.24-.47-1.13-.73-1.45-.61-.76-1.66-1.92-2.07-2.77.36-.19.94-.4.84-.52s-.31-.42-.43-.34c-.1.06-.5.4-.57.31-.61-.74-1.72-2.23-2.1-3.28l-.52-1.44c-.34-.94-1.83-1.63-2-2.58-.09-.52-.17-.81-.38-1.22l-1.11-2.14c-.64.16-1.05,0-1.37-.41l-.41-.5c-.09-.11-.02-.59.12-.59s.62.03.71.15l.83,1.12c-.28-1.07-.69-1.73-1.39-2.64l-.45,1c-1.12-.74-.44-2.09-.75-2.79l-1.27-2.8c-2.11-4.65,1.14,3.63-.18,1.58l-2.76-3.93-.26-1.15c-.04-.18-.03-.69.15-.73l.78-.15.82,1.77-.23-2.83c-.01-.16-.24-.49-.32-.6-.05-.07-.31.17-.38.25l-1.19,1.25c-.94.99.72,3.27,1.22,4.48.9,2.16,3.14,6.7,4.4,8.58l1.07,1.59c.23.34-.64,1.23-.91,1.48.19,1.63,1.49,2.71,2.39,3.85,1.18,1.49,1.84,3.24,2.85,4.69l1.69,2.43,1.1,1.76c1.93,3.07,4.56,6.15,6.01,8.58l1.25,2.1.92,1.49c.38.62.74,1.13,1.17,1.73l2.33,3.27c.9,1.27,1.86,2.38,2.77,3.69l2.27,3.24,2.86,3.8c.78,1.03,1.44,2.08,2.3,2.99l.53.56c.12.13.61.02.85-.06l-1.17-1.17c-.27-.63-.58-1.32-1.07-1.83-.84-.88-1.25-2.13-1.85-2.91-.67-.87-1.32-1.43-1.81-2.41-.62-1.22-2.24-2.97-2.05-3.86-.35.08-.98-.25-1.14-.73-.27-.75-.94-1.22-1.3-1.77l-1.24-1.92c-.56-.87-.66-2.11-1.84-2.61,0-2.19-2.58-3.13-1.96-3.62ZM184.7,127.71c-2.96-2.26-1.03,0-2.57-2.88-.6-1.12-1.2-2.13-2.06-3.15-.15-.18-.61.68-.46.86.13.15.38.44.51.62l2.2,3.07,1.68,2.54.7-1.06ZM197.65,159.62l-2.88-2.91-1.18-.47c-.52-.84-1.02-1.73-1.59-2.49l-1.12-1.49.73-.4c.86-.47-2.18.05-2.07-.88l.1-.9c-.09.81-2.51-1.37-2.68-2.46-.2-1.27-.31-1.93-1.63-2.38-.73-.25-1.05-1.08-1.46-1.61l-1.9-2.46c-.89-1.15-2.39-2.7-2.86-3.37l-1.86-2.62-3.07-3.91-2.9-3.77.43-.63c-2.6-2.5-.94.33-4.12-3.36-.33-.39-.65-1.04-1.01-1.03-.42,0-1.16.34-1.12.65.19,1.29,1.99,1.65,2.61,2.44,1.98,2.56,2.6,3.91,4.73,6.59l4.23,5.34c.6.76,1.31,1.48,1.82,2.26s.95,1.41,1.51,2.11l4.95,6.3,1.85,2.46,1.12,1.31,1.31,1.81,4.44,5.4c1.29,1.57,2.28,3.38,3.82,4.83l1.84,1.71c1.1,1.03,2.29,1.88,3.6,2.06-.25-.71-.1-1.14.33-1.69l-.9-1.02-1.62-1.7-2.3-2.59c-.37-.42-1.04-.33-1.74-.21l.57-.95ZM213.9,134.42l-.89-1.42-1.7-2.63c-.47-.72-1.03-1.33-1.73-2.02-.2.27-.37,1.16-.1,1.27l1.02.39.13,1.26,1.37,1.51c.63.69,1.1,1.38,1.9,1.64ZM211.97,134.2l-1.6-2.11-1.08-1.9c-.13-.24-.58-.62-.8-.78-.19-.13-.87.3-.79.52,1.07,2.28,3.35,2.32,2.98,3.91l1.29.35ZM202.38,175.07c-.33-.45-.54-1.44-.96-1.62l-.67-.28c-.12-.05.09-.5.16-.73-.52-.44-1.54-1.04-1.95-1.58l-1.48-1.97c-.48-.64-1.19-1.49-1.8-2.06-.1-.42-.26-1.15-.55-1.5-2.53-3.1-2.08-.91-4.79-4.84-1.62-2.35-1.67-.43-1.69-2.66-.85-.2-1.6-.66-1.77-1.61l-1.18-.88.14-1.03c.03-.22-.74-.32-.91-.48-.83-.85-1.8-1.98-2.48-2.97-.42-.6-.65-1.47-1.38-1.73-.93-.33-.98-1.47-1.47-1.92-1.03-.96-2.12-1.67-3.01-2.8-2.54-3.25,1.23.42-2.39-3.07l-.85-.82c-.81-1.19-1.7-2.36-2.39-3.53-.53-.91-.8-1.35-1.66-1.89l-1.44-.9c-2.27-1.41-.63-2.81-1.63-3.71-.19-.17-.67.29-.92.37l-1.7-.8c-.4,1.93,1.41,3.52,2.48,4.55,1.93,1.87,2.48,2.94,4.11,4.72.43.47.82.96,1.17,1.48l1.36,2,1.21,1.96c.72,1.16,1.99,2.17,2.97,3.17l2.63,2.67c-.34-.34,2.79,3.21,2.37,2.68l1.24,1.6c1.2,1.55,2.57,2.81,3.82,4.35l2.25,2.78,3.82,4.07,2.14,2.91,5.66,6.59c1.19,1.39,2.38,2.72,3.4,4.27s2.32,2.77,3.38,4.28l2.27,3.23c.32.46.78,1.05,1.2,1.35.31.22,1.28-.14,1.31-.54.13-1.65-.93-2.87-1.85-4.08-.33-.43-.83-.53-1.28-.95l-1.93-1.77c-.44-.4-.82-.51-.96-1-.21-.76-.64-1.24-1-1.84-1.43-2.38-1.27-1.09-3.01-3.49ZM285.44,213.09c.42.63.78,2.05,1.62,2.07.19,0,.79-.34.73-.51l-.21-.59c-.2-.54-.41-1.21-.54-1.66l1.54.55c-.37-1.14-1.05-1.39-1.85-1.94-2.38-1.63-2.68-2.23-4-4.47.7.05.91,0,.67-.36-.55-1.19-.86-2.06-1.86-2.79l1.04,2.79-1.01-1.23-2.48-3.19c-.16-.2-.08-.65.1-.97l1.08,1.43c.14.18.52.37.71.39.84.08-.85-1.44-1.34-2.13l-1.91-2.72c-.33-.46-.78-.93-1.34-1.53.52,2.61,1.11,1.18,1.49,2.76-1.16-.02-1.17-.99-1.66-1.58l-1.4-1.71-1.32-1.61c-2.43-2.97-1.83-3.73-1.96-4-.98-2.05-2.68-3.76-4.32-6.33-.28-.44-1.1-1.05-1.41-1.64-1.09-2.08-1.84-4.27-3.09-6.26l-1.2-1.89-2.25-3.56c-.34-.54-.55-1.4-.69-2.19,2.23,2.34,4,6.14,5.94,7.97.66.63,1.24,1.16,1.74,1.91l2.03,3.03,2.66,3.04,3.79,5.04c1.04,1.39,1.94,2.67,2.96,4.03l4.46,5.98c-.14-.18,1.77,1.8,1.67,1.89.05-.05.18-.15.33-.27.15-.02.63.02.57-.13-.07-.19-.28-.58-.4-.75l-3.78-4.99-3.61-5.15c.43,0,1.09.22,1.29.48l1.77,2.34c.68.9,1.43,1.79,2.12,2.52l.69-.37-3.46-4.66-2.62-3.39c-.34-.44-.77-1.36-1.08-1.76-1.66-1.86-3.07-3.63-4.17-5.95s.99-.52-1.87-3.01c.03-.31.09-.74.01-.91-.06-.14-.71.16-.84.08-.99-.6-2.31-2.51-2.52-3.65-.03-.18.52-.72.37-.83-.18-.13-.58-.44-.56-.43-.22.52-.23.64-.31.57l-.39-.32c-.11-.09-.33-.32-.41-.41s.18-.36.3-.32l.46.14c-.18-.55-.5-.74-1.29-.68-1.21-1.92-.45-2.91-2.1-3.82-1.32-.72-1.35-1.24-2.57-3.14l-1.42-2.21c-.56-.87-1.04-1.98-2.28-1.79,1.85,3.6.23,1.19,2.52,4.67l1.9,2.89,1.73,2.78c-1.15-.35-1.45-1.33-1.98-2.11l-3.07-4.56-1.46-2.11-1.36-2.19c-.61.4-1.65,1.18-1.65,2.06,0,.59.65,1.67,1.16,1.99,1.52.92,1.98,2.23,2.63,3.81-.52.1-.81.1-.85.28-.04.19-.07.65-.05.85l.15,2.66.73.41c.13.07,0,.53.02.67.58.44,1.13,1.02,1.45,1.62l-1.24.37c-1.54-2.69-.79-1.88-2.88-3.55.09.71.18,1.05-.09,1.61l-2.31-3.89-1.71-2.87-1.1-.69-.72-1.56.38-.95c-1.05-.2-.99-.83-1.36-1.49-.74-1.34-1.99-2.67-2.13-4.26-.04-.46-.13-1.23-.37-1.6-.18-.28-.92-.21-1.23-.36-.92-.46-.68-1.86-1.12-2.54-.86-1.35-2.13-2.64-2.21-4.16-.03-.56-.23-.83-.61-1.41-.65-1.01-1.88-3.31-2.3-4.34-.66-1.64-.93-3.56-2.37-4.79-.4.78-.87,1.18-1.72,1.57.27,2.04,2.08,3.83,2.84,5.54l1.52,3.42c.27.6.68,1.1,1.07,1.72l1.85,2.92c2.39,3.78,2.38,3.69,4.19,7.89.26.62.83,1.46,1.21,2.09l1.92,3.13c1.35,2.21,1.23,2.71,2.55,4.62.55.79,1.43,1.63,1.26,2.61-.09.51-.44,1.07-.76,1.07-.92,0-2.45-2.67-3.02-3.54l-2.9-4.47.37-.42c.46.91.52,1.73,1.74,1.42l-1.34-2.11c-.32-.51-.74-1.02-1.14-1.36l.39,1.69c-.79-.23-3.02-4.31-2.91-5.15.34.38.53.63.77.99l.35.53c.08.12.55-.14.69-.26l-1.57-1.56c-.26-.01-.76.09-.85-.09l-.35-.72c-.47-.97-.97-1.91-1.51-2.82l-3.11-5.27-.93-1.7-1.22-2.16,1.23-.17c.2-.03.12-.77-.01-.92s-.39-.24-.76-.41c-.47-1.73-1.62-3.23-3.22-4.19.09-.58.28-1.55-.29-1.89-.51-.3-1.6.35-1.83.85-.45.96.92,3.64,2.21,3.64l2,4.52c.34.78.82,1.3,1.25,1.99l2.44,3.92c.66,1.06,1.16,1.82,1.81,3.22l-.41.07-1.33-1.97c-.35-.52-.81-1.18-1.1-1.74-.63-1.23-1.35-2.15-2.02-3.29l-1.49-2.55c-.35-.6-.81-.96-1.14-1.54l-3.06-5.36-1.96-3.01-1.78-2.79c-.31-.48-.69-.83-1.17-1.21l-.29,1.41,1.89,3.42c.69,1.24,1.49,2.25,2.37,3.37,1.33,1.69,2.06,3.87,3.11,5.29l1.12,1.52c1.4,1.89,2.01,3.58,3.7,5.7,1.33,1.66,2.27,3.73,3.51,5.54l2.03,2.95c.68.99,1.17,1.96,2.04,2.83.35.35,1.03.94,1.27,1.32l2.59,4.13c.39.62.68,1.18,1.18,1.72l1.37,1.48c.37.4,1.64,3.21,3.82,3.71l1.25-1.72c1.51,2.18,1.21,1.15,1.06,3.61l-1.41.1c-.27.53.62.87.83,1.2.66,1.06,1.19,1.93,2.14,2.78.31.28.49.99.31,1.16l-.62-1.01s-1.55.28-1.7.49c-.11.15-.15.73-.05.91l2.31,4.63c.55,1.11,1.47,1.87,2.16,2.87l1.19,1.69,2.26,3.25c.97,1.39,2.07,2.55,2.99,3.94l1.56,2.37,2.4,3.37,2.41,3.07c.55.7,1.01,1.36,1.53,2.07l2.64,3.59c.47.64.94,1.06,1.37,1.78,1.16,1.91,1.48,1.68,2.72,3.26l3.15,4.03c.85,1.09,1.78,2.05,2.65,3.01-.44.2-.82.28-.73.4,1.44,1.84,1.22-.45,2.17,1.91l1.61,1.93c.46.55,1.08.88,1.66.65l-3.56-5c-.75-1.05-1.61-1.84-2.56-2.75-.69-.66-1.25-1.83-1.88-2.62-2.89-3.55-.69-2.1-3.64-5.05-.1-.1-3.43-4.29-3.5-4.39l-2.54-3.63c-.55-.78-.95-1.22-1.39-2.1-.56-1.13-1.39-1.45-2.57-3.37l-1.29-2.1-2.62-2.84c-.88-.96-.94-2.8-2.51-3.74l.24-1.08c.05-.23-.37-.49-.58-.75l-.37-.45c-.08-.1.27-.28.39-.33s.38.17.45.28l1.28,2.09c1.1,1.79,2.12,3.52,3.62,4.91l-.68.23c-.11.04.2.37.23.47s.18.01.53-.07c.59-.04,2.21,2.55,3.14,3.69l1.94,2.39,2.96,3.5,1.19,1.47,1.65,2.17c.48.64,1.07,1.05,1.82,1.74.21-.34.13-1.01-.16-1.16-1.15-.59-1.34-1.53-2.03-2.4l-4.32-5.46c-.63-.79-1.09-1.89-1.73-2.62s-1.2-1.32-1.74-2.1l-3.13-4.53-.89-1.31c-1.14-1.68-3.1-3.05-3.02-4.9-2.11-3.19-.93-1.05-2.63-3.31l-2.18-2.9c-.19-.26-1.94-1.97-1.74-2.16l.4-.39c.8.73,1.36,1.92,2.14,2.76,2.76,2.96,2.26,2.35,4.4,5.75-.02-.03,2.44,3.06,3.12,4l2.69,3.75c1.53,2.14,1.37,1.57,2.86,3.65l1.2,1.67,1.35,1.8,1.16,1.19,2.46,3.09,1.52,1.83,3,3.49c1.05,1.22,2.14,2.37,3.67,3.04.15-.8-.67-1.01-.97-1.41-2.18-2.93-3.39-4.19-5.57-7.21-.26-.36-.89-.8-1.19-1.14l-1.25-1.4-2.02-2.5-1.67-2.2-1.46-1.93c.06-.16.41-.51.59-.46l.69.19c-.38-.86-1.14-1.65-1.98-1.32l.73.56c.1.08-.31.46-.41.38s-.35-.3-.42-.41l-.73-1c-.54-.74-1.48-1.29-1.15-2.44l1.41,2.08.5-.51-1.86-2.2-.63.88-1.29-2.06.79-.46c.15-.09-.33-.59-.49-.54s-.18.08-.61.38c-.75-.63-1.54-1.6-1.69-2.57l1.13.06c-.66-.58-1.45-.9-2.22-1.12l-.84-1.28c-.07-.11-.48-.38-.4-.47l.39-.37c.09-.09.28.36.36.46l.37.5c.05.07.42-.21.38-.28l-.87-1.22c-.85.31-1.16.23-1.56-.36-.25-.37-.06-.85.29-1.36l-1.83-2.38c-.64-.83-.46-1.89-1.7-2.44l.13,1.02c-.2-.07-.83-.34-.94-.61s.3-.83.4-1.13l-.29-.65c-.04-.08-.28.11-.31.19l-.18.51c-.07.18-.6-.04-.65-.23l-.2-.66c-.06-.21-.22-.53-.1-.51l.84.2-.21-1.05c-.05-.27-.66-.46-.93-.65-.12-.08-.05-.55.09-.6l.56-.2-.77-1.96c-.07-.19.48-.9.63-.78.53.51,1.2,1.63,1.59,2.39.27.53.7.94.98,1.44l2.11,3.85,2.33,3.46,3.45,5.12c.33.49.63.99,1.01,1.42,1.03,1.16,1.69,2.44,2.97,4.01,1.21,1.48,2.16,2.97,3.17,4.59.44.71,1.17,1.55,1.69,2.24l2.81,3.73,1.76,2.52,3.66,5.48ZM204.9,189.49c-.28-.42-.64-1.26-.96-1.62-1.21-1.4-2.1-2.88-3.02-4.51-1.35-1.08-2.54-3.32-3.31-5.03-2.09-1.14-3.51-3.56-4.66-5.45-.74-1.21-2.92-3.19-3.48-4.8-1.12-.59-1.65-1.18-2.4-2.26-1.07-1.54-2.38-3.01-3.61-4.5l-1.83-2.23c-.43-.52-.81-1.12-1.35-1.51-.69-.49-1.1-1.15-.98-1.98-1.23-.44-1.91-1.49-2.7-2.54l-1.54-2.05-1.54-2.09-1.18-1.63c-1.25-.56-1.9-1.67-2.05-3-.73-.31-1.12-.76-1.4-1.56-.32-.94-3.23-4.48-3.93-3.85.88,3.25,2.92,2.13,2.96,3.66,0,.19-.42.38-.6.33l-.77-.22c.31,1.38,1.03,2.42,1.86,3.47l1.4,1.76,1.4,1.43,3.02,3.49c1.83,2.12,1.61,1.42,2.94,3.58,1.1,1.77,2.82,3.06,4.11,4.68l4.58,5.77,2.19,2.61,1.2,1.44,5.59,6.88,2.3,2.98,2.14,2.88,2.09,2.95,2.78,4.16,2.74,3.95,1.21,1.69c.4.55.9.77,1.54.61.44-.11.65-1.23.24-1.31-1.27-.25-1.58-.96-2.14-1.82l-1.52-2.32-1.34-2.06ZM247.98,155.65c-.63-1-1.72-1.87-2.21-2.82l-2.14-4.14,1.45.1c.06,0-.29-.6-.49-.81-.18-.19-.7.09-1.13.37-.06-.2-.27-1.03-.27-1.12l.83.17c.13.03.22-.52.1-.58l-.44-.24c-.41.12-.72.25-.99.22s-.84-.55-.99-.81l-1.71-3.07c-.32,1.22.49,1.86.84,2.77.4,1.02.69,2.4,1.27,3.19s1.21,1.5,1.66,2.23l1.94,3.18c1.44,2.35,2.68,4.85,4.55,6.92s1.32,2.8,2.71,2.46l-3.07-4.97-1.91-3.05ZM277.7,176.93l-4.73-5.8c-.75-.92-2.1-1.34-1.22-3.13-.69.18-1.05.35-1.19.18l-.51-.64c-1.27-1.58-2.69-3.69-3.02-5.45-1.01,1.76-1.7-2.2-2.98-4.37-.48-.83-.91-1.73-1.23-2.52-.34.05-.97.03-1.19-.15s-.29-1.08-.02-.97l.64.26c.07.03.21-.18.31-.3l-1.3-1.61c-.97-.26-1.48-.64-1.69-1.88l.83.41s.1-.54-.02-.69l-.5-.62-.44.83-1.74-2.25c-.34-.44-.41-1.55-1.09-1.73-.77-.21-1.71-1.13-1-1.87.49-.51,1.19.59,1.78,1.23.7.42-.71-3.1-.96-2.9l-1.44,1.51c.83,1.34-1.38,1.62-1.39,2.86s1.3,1.74,2.66,4.33c.73,1.39,1.55,2.73,2.41,4.02l1.45,2.18,1.89,2.9.84,1.37.8,1.3,2.61,4.28c1.19,1.95,2.19,2.26,3.28,4.84.44,1.04.93,1.12,1.59,1.96l2.27,2.91c.14.18.58.26.72.16.11-.08.33-.4.24-.49l-.44-.45c-1.66-1.69-.41-1.09-2.46-2.98-.38-.92-.7-1.64-.75-2.78l4.53,5.02c1.49,1.66,1.77,1.48,2.92,2.76.2.22.57.5.73.37.16-.14.61-.55.44-.68l-.63-.47c-.35-.26-.71-.57-1-.92ZM167.57,147.52c-.4-1.26-1.37-2.41-2.53-3.02-.29-.15-1.17.34-1.07.61.42,1.07,1.41.3,3.6,2.41ZM203,196.67c-.45-.92-.82-1.23-.63-2.04l-1.59-1.97-3.31-4.61-3.25-4.17-1.47-1.87c-1.7-2.17-2.89-4.69-4.85-6.66-.31-.31-.73-.67-.92-.96l-.79-1.18c-1.71-2.54-5.81-7.75-7.89-10.12-.46-.53-.33-1.67-1.43-1.66-1.01-2.13-3.41-4.51-3.85-6.34-.19-.47-.91-1.3-1.28-1.66-1.27-.2-3.13-2.56-2.85-3.93.07-.33-.65-.96-.96-.84l-1.6.58c.27,1.04,1.01,2.04,1.77,2.94,1.07,1.27,2.07,2.57,3.03,3.92l1.8,2.53,2.49,3.05,4.04,5.29,1.47,1.89,2.25,3.03c1.76,2.37,3.09,3.37,4.94,6.29.45.71.84,1.2,1.34,1.81l6.21,7.7,1.69,2.14,1.59,2.03,1.27,1.59,1.46,1.92c.38.5.88,1,1.31,1.3ZM191.83,189.77c.88.92,1.26,2.48,2.79,2.38l-1.32-1.3c-.28-.99-1.21-1.58-1.7-2.34-2.42-3.76-3.29-3.76-5.93-7.5-.46-.66-.75-1.45-1.3-2.09-1.53-1.78-2.78-3.61-4.13-5.53s-2.9-3.6-4.39-5.45l-3.3-4.11-1.67-2.17c-2.2-2.87-1.22-2.41-3.52-4.88l-.39-1.4-.96-.71c-.19-.14.33-.71.35-.92-1.58-1.81-1.61-4.59-3.54-4.61.1.34.3.72.18.77l-.66.25,1.77.8c.27.12.53.99.25.96l-1.65-.18,1.48,2.41c.86,1.4,1.67,2.75,2.61,4.08l2.54,3.59c1.18,1.67,2.88,2.88,3.68,4.86.35.87,1.08,1.28,1.65,1.95.79.93,1.56,1.99,2.26,3,1,1.44,2.25,2.54,3.29,3.91l2.49,3.28c1.26,1.66,2.63,3.04,4.11,4.53.16.16.51.64.39.82l-.38.56c.81.16,1.36.66,1.83,1.35.93,1.36,1.96,2.44,3.15,3.68ZM257.09,156.51c-.1-1.3-.65-2.75-1.8-3.5-.39-.25-1.45.41-1.54.87-.03.17.16.75.33.73s.52-.36.72-.4c1.66-.35,1.52,3.14,2.29,2.31ZM208.74,213.31c-.07-.5-1.45-.49-1.79-.86l-.96-1.46c-2.11-3.19-3.09-2.32-1.9-3.94.11-.15-.43-.43-.56-.6l-2.67-3.53c-.65-.86-1.06-1.7-1.72-2.78l.11.95c-.55.05-1.25-.38-1.51-1.05-.66-1.7-1.6-1.99-2.93-3.77l-4-5.35-1.65-2.45c-.74-1.1-1.63-2.01-2.59-2.92l-1.13-1.07c-.23-.22-.33-.93-.52-1.16l-2.76-3.39c-.65-.79-1.18-1.57-1.97-2.13-.17-.12-.6-.59-.49-.75l.41-.6c-1.61-.48-2.5-1.62-3.44-2.84l-1.15-1.49c-1.88-2.44-.84-2.71-2.78-3.42-.91-.33-1.07-.97-1.46-1.73-.65-1.24-1.46-2.49-2.45-3.56l-1.68-1.81c-.17-.18-.82-.37-1.04-.27s-.4.67-.34.86l1.51,1.37c.28.25,1.17.62,1.27.77-.65.05-.9.03-1.1.13-.56.26,1.16,2.01,1.69,2.76.9,1.26,1.8,2.28,2.77,3.49l1.6,1.99,2.04,2.29c.67.75,1.38,1.52,2.02,2.29l2.06,2.5,2.1,2.2c.51.54,1,1.23,1.52,1.86,1.29,1.56,1.02,1.83,2.35,2.92l2.37,3.11c.36.47.73.86,1.11,1.3l1.55,1.8,2.16,2.66c.4.49.79,1.14,1.21,1.66l1.7,2.14c1.4,1.76,2.53,3.67,3.88,5.49l2.33,3.15c1.21,1.64,2.3,3.24,3.55,4.84.96,1.24,2.51,3.97,4.19,4.04.27.01.78-.68.66-.92-1.35-2.6-1.29-.82-1.57-2.73ZM198.55,209.12c-2.86-1.79-.2-1.43-3.36-3.88-.13-.1-.42-.47-.34-.59l.44-.65-1.33-1.41c-1.38.22-2-.91-2.3-1.97l-1.02-.84c-.23-.19-.01-.94-.08-1.26-.2-.91-1.64-1.23-2.17-1.8-.82-.88-1.27-2.14-2.38-2.69-.52-.26-.7-.95-1.03-1.37-1.12-1.4-2.07-2.74-3.08-4.24-.45-.67-1.34-1.5-1.93-2.26l-2.55-3.23c-1.26-1.59-2.45-3.1-3.6-4.8-.3-.45-2.68-3.34-2.29-3.29-.1-.01-.47-.06-.52-.14l-1.68-2.28.16-.87c.07-.36-1.21-.08-2.95-2.67-1.01-1.5-2.1-2.99-3.27-4.37-.4-.47-.74-.84-1.06-1.34l-.68-1.06c-.23-.35-.84-.65-1.25-.5.96,2.75,1.39,1.49,2.55,4.02.75,1.65,1.57,2.67,2.56,3.94l3.88,5.01,2.75,3.74,5.67,7.27,6.47,8.19,3.88,4.73c.75.91,1.38,1.76,2.11,2.69l2.41,3.07,1.05,1.38,3.09,4.11,2.35,2.89,2.76,3.14,3.2,3.7-.38.77c2.5,0,1.28,1.7,3,1.41.35-.06.64-.66.46-1.13-.5-1.28-1.48-2.21-2.43-3.24-.44-.48-1.12-.85-1.58-1.28-.3-.28-2.95-3.28-3.11-3.51-1.49-2.1-1.17-.51-2.4-3.4ZM248.14,168.15l.79,1.82c.1.23.89.35.96.12.23-.82-1.04-1.88-1.75-1.93ZM161.09,172.97c.74-.38-1.32-2.09-1.49-2.03-.21.07-.53.4-.79.73l2.28,1.3ZM197.69,220.91c-.46-.7-.81-1.04-1.28-1.61l-2.11-2.57-1.11-1.56-1.46-1.93c-.29-.39-.63-1.05-.93-1.43l-2.59-3.21-3.67-4.72c-1.12-1.43-2.22-2-1.53-3.33-.68-.57-1.78-1.08-2.77-1.49l-1.14-1.92c-.1-.16-.57-.53-.45-.66l.47-.53c-1.32.55-8.39-9.87-8.55-10.04l-2.06-2.17-1.5-2.07c-.05-3.46-.2,1-3.86-4.83-.62-.98-1.44-1.74-2.16-2.61l-.84-1.01c-.17-.21-.94-.1-1.13.16,1.88,2.06,1.9,2.87,3.93,5.34l2.57,3.14.99,1.44,1.97,2.62c.45.6.91,1.14,1.38,1.75l4.3,5.55,2.73,3.23c-.09-.1,4.57,5.74,4.27,5.31,1.34,1.98,2.72,3.78,4.26,5.58l2.64,3.11c.47.55,1,1.13,1.42,1.7l5.23,7.02,1.43,2.15c.46.69.96,1.24,1.47,1.86l2.31,2.78c.87,1.05,1.83,1.91,3.36,1.72l-.81-1.6-.93.23c-.6-.87-1.26-1.48-1.82-2.33l-2.01-3.05ZM160.17,186.12c-1.29-.41-1.61-1.05-1.85-2.19-.71.81-.02,1.71.63,2.13l.68.45c.14.1.52-.32.55-.4ZM197.49,237.52l-1.6-1.81-2.23-2.57c-1.12-1.29-2.18-2.59-3.24-3.93l-.96-1.22-2.34-2.9-1.39-1.72c-.4-.5-.66-.8-1.25-1.24-.49-.36-.83-1.33-1.19-1.78l-3.26-4.01c-.56-.69-1.02-1.31-1.68-1.96-.49-.49-.52-.9-.48-1.91.08-.07-.43.19-.75.37-2.11-2.2-2.24-3.84-4.21-5.48-1.14-.95-3.37-5.02-2.96-4.47l-2.96-3.98-2.41-3.12c-1.13-1.46-.89-2.2-3.64-5.51-.95-1.14-2.13-2.26-2.67-3.49-.16-.36-.99-.33-1.11.03-.24.72.96,1.06,1.22,1.48.76,1.24,1.41,2.46,1.99,3.78.32.74.88,1.34,1.32,2.02.87,1.34,1.79,2.44,2.82,3.7s1.8,2.68,2.69,4c1.24,1.84,2.56,3.47,3.96,5.18,1.55,1.89,1.7,2.44,3.37,4.55l3.72,4.69,2.11,2.91c1,1.37,1.94,2.64,3.01,3.95l3.79,4.58c.59.71,1.03,1.26,1.73,1.91s1.34,1.58,1.98,2.33l2.54,2.96,1.21,1.42,1.46,1.66,2.24,2.56,1.96,2.12c.5.55,1.48.55,1.88.11-.86-.45-1.54-1.49-1.88-2.15-.1-.2-.89-.37-.87-.58l.07-.76c-.57-.49-1.46-1.15-1.97-1.72ZM195.07,227.12c-.34-.27-.75-.87-1.04-1.29l-1.49-2.09c-.47-.66-.9-1.3-1.45-1.94l-3-3.51-4.25-5.08-1.45-1.68c-1.13-1.31-1.83-2.61-3.29-4.11-.76-.78-1.3-1.53-2.04-2.36l-3.34-3.78.06-.72c.01-.15-.67-.21-.79-.34-.77-.8-4.49-5.35-5.15-6.28l-1.1-1.57c-.34-.49-.63-1.11-.91-1.7l-1.38-.23-1.73-2.02c-.24-.28-.13-.9.09-1.61.03.02-.32-.23-.51-.36l-2.08,2.2c-.04.07.22.59.29.5l.37-.46c.07-.09.27-.56.36-.48l.44.4c1.16,1.05,1.8,2.86,3.64,4.93l5.89,6.66,2.28,2.72,2.73,3.26,2.07,2.48,1.24,1.4,2.21,2.59c.9,1.06,1.82,2.01,2.64,3.1l2.27,3.03,1.24,1.65,3.24,3.7,3.34,4.08,1.46,1.67c1.32,1.5,2.42,3.18,4.18,4.13l1.41-.41c-.87-.93-1.84-1.75-2.88-2.6-3.02-2.48-1.99-2.6-3.58-3.88ZM292.77,236.45l-1.6-1.77-4.34-4.51c-2.07-2.15-3.8-4.44-5.86-6.6l-3.41-3.58-2.81-3.62c-.64-.83-1.43-1.36-1.24-2.5-1.27.19-1.68-.47-2.26-1.26-.85-1.15-1.48-.98-.96-2.49-.28.83-3.18-2.55-3.33-2.72-.82-.9-1.05-1.68-1.47-2.73-.81-2.03-2.74-3.47-4.06-5.19-1.69-2.18-.55-1.42-1.55-2.76-2.16-2.9-3.37-2.28-2.25-3.79l-1.37-2.71c-.33-.66-.54-1.16-.7-2.02l-1.6-.79c-2.45,2.25.16,4.78.4,5.16l2.15,3.38c2.14,3.37,4.19,5.27,6.16,8.02.97,1.36,1.97,2.63,3.05,3.91l2.2,2.6,4.33,5.29c.77.94,1.54,1.96,2.4,2.86l1.86,1.96c2.43,2.56,2.9,4.22,5.53,5.44.03.3.1.93.24,1.08l1.44,1.62,3.4,3.56,3.58,4.09c.45.51.93.98,1.46,1.4l2.06,1.65.21-.22c-.61-.59-.8-1.85-1.63-2.77ZM195.22,243.35l-2.75-3.98-1.06-1.54.58.2c.08.03.13-.28.12-.36-.01-.12-.2-.36-.31-.31l-.6.29-1.9-2.62.76.11c.13.02.18-.45.09-.55l-.29-.3c-.67-1.06-1.37-2.03-2.32-2.69.44,1.42,1.9,1.75,1.88,3.34-1.93-1.66-3.06-4.05-4.57-6.17-.48-.67-.9-1.07-.73-2.02l-1.32-1.96-1.96-2.76c-1.42.14-1.36-.7-1.93-1.54-.31-.46-.84-1.13-1.19-1.61l-1.71-2.31c.1-.28.24-.56.14-.61l-.5-.24c-.93-.45-1.08-.89-1.24-1.83-.14-.78-1.09-1.64-1.64-2.27l-1.02-1.18-1.99-2.35-.72-1.59c-.66-.5-.98-.94-1.45-1.52l-1.09-1.35c-.72-.89.13-.83-3.06-4.54-.31-.36-1.18-.83-1.57-1.18.73-1.35-.71-1.78-1.12-2.51-1.1-1.95-1.79-3.95-3.81-5.32l-.84,1.06c-.55.7,2.87,1.16,2.07,2.36-.1.16-.75.38-.68.55.21.47,2.61,4.29,3.19,4.89l1.57,1.63c.27.28.34.99.54,1.26l1.56,2.07,4.05,5.34,2.54,2.98,2.52,3.45c.5.68.95,1.25,1.4,1.99,2.07,3.34,2.19,2.25,4.18,5.87.64,1.16,1.39,2.24,2.21,3.27l2.82,3.49c.5.62,1.03,1.35,1.5,2.01l3.09,4.36,1.68,2.37,2.14,3.11,1.6,2.29,2.93,4.27c1.11,1.62,2.16,3.94,4.34,3.33,1.21-.34-3.88-5.55-4.46-5.94l.17-1.15c-1.39.06-1.36-.89-1.84-1.58ZM178.89,236.88l-1.93-2.65c-.4-.55-.78-1.03-.95-1.71,1.67,1.63,1.86,2.59,3.28,4.18.91,1.03,1.72,2.11,2.53,3.21l1.21,1.64,2.73,3.57,1.78,2.3c1.65,2.13,2.51,2.75,4.54,5.5l2.05,2.77c.57.77,1.19,1.53,1.79,2.29l2.54,3.2,2.96,3.48c.26.3,1.12.57,1.4.36.25-.18.67-.76.78-1.16.47-1.72-2.81-3.27-3.52-4.21l-1.28-1.69c-.6-.8-1.53-1.27-2.2-1.91-2.79-2.66-2.59-3.77-3.48-4.87l-1.17-1.45c-1.53-.89-2.28-2.32-3.3-3.73l-1.76-2.43c-.29-.39-.38-.95-.74-.96-.91-.02-.99-.5-1.36-1.17-.33-.59-.99-1.28-1.41-1.9-.62-.91-1.21-1.64-2.01-2.56-2.81-3.23-1.54-3.54-4.1-5.26-1.42-.96-1.92-2.94-3.01-4.15-.69-.77-1.31-1.33-1.83-2.3-.47-.87-1.42-1.62-2.16-2.32-.14-.27-.36-.71-.53-.97l-2.16-3.31c-.25-.39-1.14-.84-1.4-1.19l-1.46-1.99c-.74-1.01-1.38-1.91-1.95-3.13-.3-.64-1.33-1.47-1.51-2.09-.22-.77-.37-1.25-.66-1.8l-1.51-2.84c-.13.4.04.77.32,1.32-1.07.2-3.36-3.78-3.78-4.6l-1.39-2.67c.62.08,1.16.26,1.3.02.64-1.14-.68-1.02-.7-2.85,0-.45-.77-.93-1.11-.68-.27.2-.39.68-.57,1.32l.96,1.07.26.54c.05.12-.26.45-.37.39l-.69-.38c.21-.13-.16.1-.32.2l.34,2.15c.83.31,2.81,2.65,1.81,3.48-1-1.08-1.47-2.16-2.17-3.52-.62.97.41,1.6.71,2.41l1.08,2.93c.28.75-.33,1.61.93,2.12.81.32,1.55,1.3,2.06,2.13l1.4,2.24,1.48,2.36,2.41,3.57c.36.53.39.99.36,1.65-.06,1.11,1.38,1.52,2.27,1.7.97.19.89,1.41,1.3,2.08,1.08,1.75,2.18,3.55,3.48,5.12.66.8,1.2,1.52,1.79,2.32l2.58,3.47c1.72,2.32,1.67,2.82,2.89,4.45l1.56,2.07c1.72,2.28,2.09,3.19,4.09,5.72l.97,1.22,2.53,3.2,1.22,1.61,4.9,6.4c.39.51.83.97,1.17,1.5,1.25,1.91,2.83,3.61,3.96,5.57.35.62.35,1.05,1.09,1.66.95.77,3.65,4.8,3.95,4.81l.97.04c0-1.3-.52-2.25-1.32-3.23l-1.62-2.01c-2.46-3.05-1.79-2.66-3.62-5.23l-1.62-2.26-1.02-1.05c-.35-.36-.76-1.37-1.08-1.8l-1.05-1.42-1.4-1.95-1.43-1.94c-.98-1.33-2.04-2.6-2.92-4.03-2.79-4.52-3.49-4.72-6.17-8.48-.25-.35-.7-1.72-1.99-3.5ZM257.74,200.45c-.21-1.23-.75-2.12-1.46-3.1l-.53.22c-.11.05-.1.4.01.44l.47.16,1.5,2.27ZM282.28,235.1l-1.37-1.92c-1-1.39-2.04-2.72-3.11-4.06-.88-1.1-1.98-2.07-2.77-3.23-1.15-1.69-2.27-3.22-3.85-4.43l.53-.56c.08-.09-.63-.14-.7-.24l-2.02-2.84c-.76-1.07-1.55-1.79-2.27-2.85-.85-1.26-1.43-2.91-2.43-4-.74-.8-.79-1.1-1.12-2.24-.08-.28-3.19-6.58-2.62-3.42-1.98-1.4-1.93-2.79-4-4.23.95,3.53,2.44,4.38,3.06,5.41l1.44,2.39c.65,1.08,1.36,2.01,2.09,3.01l3.12,4.27,1.24,1.65,1.23,1.67,1.34,2.01c1.11,1.66,2.42,3.15,3.71,4.68l2.96,3.51,1.64,1.95c.38.45,2.98,4.12,3.9,3.46ZM283.36,247.06c1.13,1.39,2.16,2.59,3.11,4.14,2.24,3.65,3.74,2.25,4.79,6.04.19.68,1,1.42,1.4,2.04,1.02,1.59,2.28,2.82,3.58,4.18.41.43.76,1.4,1.6.87.45-.28.69-1.46.41-1.9l-1.55-2.41c-.32-.08-1.14-.13-1.46-.13.47.59.77.88.59,1.26-1.07-.69-1.33-2.03-2.01-2.69-2.92-2.87-2.42-2.75-4.72-5.87l-1.86-2.52,1.94,1.39c.09.07.59-.23.52-.32-1.15-1.38-.37-1.21-2.53-1.72-1.04-.69-2.11-2.02-2.81-3.08l-1.61-2.44,1.9,1.37-2.59-3.39c-.52-.69-.93-1.28-1.6-1.85l.06,1.18c-1.44-1.28-2.45-2.74-3.67-4.23l-1.72-2.09c-.11-.13-.38-.63-.23-.66l.64-.13c.12-.02-.16-.58-.32-.53l-.69.19-2.37-3.16c-.24-.32-.18-.84-.03-1.3l-1.62-1.7c-.8.04-1.28-.26-1.47-1.06l1.05.18-.23-.78c-.04-.14-.74-.03-.84-.14l-1.78-1.95c1.02-.48-.71-.66-.44-1l.45-.56c-1.04.01-1.73-.21-2.02-1.41l1-.17-.96-1.14c-.65-.77-1.13-1.79-2.1-2.19-.44-.18-.85-.37-1.07-.55s-.11-1.07-.29-1.3c-1.58-2.06-1.03-1.78-2.37-2.99-.73-3.26-3.41-4.51-3.75-6.36-.18-.97.21-2.32-.88-2.81-.66-.3-1.73.78-1.5,1.52.24.79.55,1.92.64,2.54.02.17-.49.59-.41.75l.37.74,1.34,1.87c.49.68.1,1.94.75,2.69.97,1.1,1.43,2.44,2.13,3.69l1.02,1.82,1.94,3.33,1.76,2.77,1.41,2.21,2.05,2.96c1.52,2.21,2.98,4.29,4.64,6.4.72.92,1.16,2.23,1.93,3.11.49.56.79,1.13,1.2,1.75l1.13,1.71,2.71,3.73,1.3,2.02c2.18,3.39,2.27,2.69,4.66,6.42,1.2,1.86,2.6,3.4,4.03,5.07l1.34,1.57c.13.15.44.62.56.5l.39-.38c.09-.09-.15-.46-.24-.57l-1.05-1.38c-.39-.51-.77-.94-1.3-1.38l-.51-1.12-1.35-1.77-2.55-3.24-2.15-2.88c-.34-.45-.67-.92-.96-1.41l-1.22-2.03c.3-.2.93-.56.79-.71l-.59-.6c-.11-.11-.58.4-.73.35-.45-.16-.98-1.11-1.01-1.52l.64-.19c.1-.03-.04-.42-.14-.39l-.44.12c-1.07.29-1.18-.95-1.62-1.49-1.22-1.49-2.08-3.1-3.11-4.61l-4.12-5.99c-.65-.94-.99-1.84-1.34-3.04-1.79-2.39-.19-.87-1.96-3.43-.48-.69-.98-1.46-1.38-2.19l-.96-1.75c.65.41,1.34,1.01,1.77,1.62l2.69,3.79,1.81,2.51,4.45,5.86,2.66,3.34c1.65,2.07,3.17,4.15,4.83,6.2l2.26,2.79ZM267.44,238.52l-1.87-3.13c-.87-1.46-1.86-2.54-2.91-3.83-.79-.96-1.5-2.23-2.21-3.33l-5.55-8.55c-.14-.22-.66-.67-.57-.89l.38-.84c-.27.13-.61.51-.72.35l-.45-.68c-.75-1.14-1.6-2.39-1.99-3.62.27-.49.94-1.37.71-1.73l-1.02-1.58-.85,1.07c-.3.37-.7,1.06-.46,1.53l1.73,3.39c.21.42.55,1.13.81,1.53l3.57,5.55,1.04,1.59c.69,1.06,1.39,2.09,2.18,3.11l2.82,3.65,1.47,2.12c.66.95,1.46,1.75,2.12,2.69.46.66.39,1.69,1.76,1.6ZM273.23,253.01l1.59,1.62c1.23,1.25,4.88,5.92,5.82,4.46.7-1.08-.29-.98-.66-2.74-.41-1.93-2.23-2.84-3.72-3.89-.55-.39-1.01-1.31-1.44-1.91-.22.1-.62.63-.51.82.12.21.39.56.59.78l2.74,3.04c.61.67,1.28,1.07,1.61,2.26-.54.3-2.13-1.98-3.04-2.99l-1.38-1.55-2.62-2.79c0-.19.39-.56.57-.53l.85.15-2.21-2.4c-.1-.11-.45-.32-.55-.39-.06-.04-.23.23-.33.34l1.68,1.42c.42,1.54-2.32-1.57-2.11-1.32l-1.14-1.37c-.54-.65-1.31-1.91-1.8-2.68-.12-.18.61-.44.8-.39-.12-.26-.44-.92-.65-1.19l-1.08-1.39c-.92-1.19-2.05-2.26-2.85-3.58-.64-1.05-1.44-1.89-2.17-2.81l-1.41-1.76-1.23-1.54c-.25-.31-.49-.61-.83-.96l-1.32-1.37c-.36-.38-.99-1.32-1.18-1.83l-.68-1.78c1.6-1.4-3.07-1.72-2.24-3.43.39.24.59.37.79.21l-1.41-.97c-.3-.2.13-1.14.26-1.32-1.52-.21-2.27-2.76-2.19-4.45.02-.47-.82-1.18-1.24-1.2-.34.88.19,1.37,1.01,1.94l-1.3,1.03c-.05,1.14-.22,2.85.3,3.93l2.17,4.5,1.12,2.21c.35.69.68,1.34,1.1,2l1.05,1.62,3.5,5.36c.63.97,1.29,1.91,1.88,2.91l1.26,2.13c.9,1.52.67.18,2.1,2.63.67,1.14,1.27,2.21,2.1,3.23,1.39,1.72,2.27,3.61,3.47,5.47l2.52,3.92c.49.77.98,1.55,1.51,2.32l1.84,2.69c.11.15.58.42.72.3l.52-.42c.25-.2.71-.8.61-1.09s-.58-.71-.93-.95l-1.95-1.35c-1.74-3.48-1.41-1.63-3.17-5.01,1.15,0,1.44,1.26,1.99,2.12l.92,1.45c.06.1.45.11.44,0s-.1-.39-.17-.5l-1.35-2.03-1.25-1.88c-.06-.09-.28-.34-.33-.25-.03.06-.22.21-.37.34-2.33-1.67-1.47-2.04-3.5-4.72-.42-.56-.73-1.05-1.07-1.62l-1.61-2.7c-.14-.23-.3-.55-.41-.78l1.22.48-.85-1.69-.31.6c-.03.06-.1,0-.26-.11-1.37-.41-2.95-3.77-1.83-4.41.53.81.85,1.19,1.35,1.75.83.93,1.51,2.05,2.26,3.08l2.41,3.3,2.92,3.82,3.06,3.78ZM271.48,219.86l-.91-1.75-1.73-1.92c-.77-.64,3.11,5.11,2.63,3.67ZM274.17,222.98l-2.08-2.58c-.1,1.15.9,1.93,1.56,2.79l.37.49c.05.07.41-.06.39-.15s-.17-.48-.23-.56ZM281.67,223.52c.93-.67-4.82-5.16-2.04-2.18l2.04,2.18ZM183.12,230.05l-1.3-.17.13-1.15c-.52.22-.83.75-.71,1.04.09.21.52.52.74.61l.9.32c.19.07.42-.62.22-.64Z"/>
  <path d="M285.44,213.09l-3.66-5.48-1.76-2.52-2.81-3.73c-.52-.69-1.25-1.53-1.69-2.24-1-1.62-1.96-3.11-3.17-4.59-1.28-1.57-1.94-2.85-2.97-4.01-.38-.43-.68-.94-1.01-1.42l-3.45-5.12-2.33-3.46-2.11-3.85c-.28-.5-.71-.91-.98-1.44-.39-.76-1.06-1.89-1.59-2.39-.15-.12-.7.6-.63.78l.77,1.96-.56.2c-.14.05-.21.52-.09.6.26.19.88.38.93.65l.21,1.05-.84-.2c-.11-.03.04.29.1.51l.2.66c.05.19.59.41.65.23l.18-.51c.03-.09.27-.27.31-.19l.29.65c-.11.3-.52.86-.4,1.13s.74.54.94.61l-.13-1.02c1.24.55,1.06,1.61,1.7,2.44l1.83,2.38c-.35.51-.54.98-.29,1.36.4.59.71.67,1.56.36l.87,1.22c.05.07-.33.35-.38.28l-.37-.5c-.07-.1-.27-.55-.36-.46l-.39.37c-.09.09.32.36.4.47l.84,1.28c.77.21,1.56.54,2.22,1.12l-1.13-.06c.15.96.94,1.94,1.69,2.57.43-.3.45-.33.61-.38s.64.46.49.54l-.79.46,1.29,2.06.63-.88,1.86,2.2-.5.51-1.41-2.08c-.33,1.14.61,1.69,1.15,2.44l.73,1c.08.11.32.33.42.41s.52-.3.41-.38l-.73-.56c.83-.33,1.6.46,1.98,1.32l-.69-.19c-.17-.05-.53.31-.59.46l1.46,1.93,1.67,2.2,2.02,2.5,1.25,1.4c.3.34.93.78,1.19,1.14,2.18,3.02,3.39,4.28,5.57,7.21.3.4,1.12.61.97,1.41-1.53-.67-2.62-1.82-3.67-3.04l-3-3.49-1.52-1.83-2.46-3.09-1.16-1.19-1.35-1.8-1.2-1.67c-1.49-2.08-1.32-1.51-2.86-3.65l-2.69-3.75c-.68-.95-3.14-4.03-3.12-4-2.14-3.41-1.64-2.79-4.4-5.75-.78-.84-1.33-2.03-2.14-2.76l-.4.39c-.19.19,1.55,1.91,1.74,2.16l2.18,2.9c1.7,2.26.52.13,2.63,3.31-.08,1.85,1.88,3.22,3.02,4.9l.89,1.31,3.13,4.53c.54.78,1.12,1.4,1.74,2.1s1.1,1.82,1.73,2.62l4.32,5.46c.69.87.89,1.82,2.03,2.4.29.15.38.82.16,1.16-.75-.69-1.33-1.1-1.82-1.74l-1.65-2.17-1.19-1.47-2.96-3.5-1.94-2.39c-.93-1.14-2.54-3.73-3.14-3.69-.35.09-.5.18-.53.07s-.33-.44-.23-.47l.68-.23c-1.5-1.4-2.52-3.13-3.62-4.91l-1.28-2.09c-.07-.11-.33-.33-.45-.28s-.47.24-.39.33l.37.45c.21.26.63.52.58.75l-.24,1.08c1.58.94,1.63,2.78,2.51,3.74l2.62,2.84,1.29,2.1c1.18,1.92,2,2.24,2.57,3.37.44.88.85,1.32,1.39,2.1l2.54,3.63c.07.1,3.4,4.29,3.5,4.39,2.95,2.95.75,1.5,3.64,5.05.64.78,1.2,1.96,1.88,2.62.95.92,1.81,1.7,2.56,2.75l3.56,5c-.58.23-1.2-.1-1.66-.65l-1.61-1.93c-.95-2.36-.73-.07-2.17-1.91-.1-.13.28-.21.73-.4-.87-.96-1.8-1.92-2.65-3.01l-3.15-4.03c-1.24-1.58-1.56-1.34-2.72-3.26-.44-.72-.9-1.14-1.37-1.78l-2.64-3.59c-.52-.71-.98-1.37-1.53-2.07l-2.41-3.07-2.4-3.37-1.56-2.37c-.91-1.39-2.02-2.55-2.99-3.94l-2.26-3.25-1.19-1.69c-.69-.99-1.61-1.75-2.16-2.87l-2.31-4.63c-.09-.19-.06-.76.05-.91.15-.21,1.72-.45,1.7-.49l.62,1.01c.18-.17,0-.89-.31-1.16-.94-.84-1.48-1.71-2.14-2.78-.2-.33-1.09-.66-.83-1.2l1.41-.1c.16-2.46.46-1.43-1.06-3.61l-1.25,1.72c-2.19-.49-3.45-3.31-3.82-3.71l-1.37-1.48c-.5-.54-.79-1.1-1.18-1.72l-2.59-4.13c-.24-.38-.91-.97-1.27-1.32-.87-.87-1.36-1.84-2.04-2.83l-2.03-2.95c-1.24-1.81-2.19-3.88-3.51-5.54-1.69-2.12-2.3-3.8-3.7-5.7l-1.12-1.52c-1.05-1.42-1.78-3.6-3.11-5.29-.88-1.12-1.68-2.13-2.37-3.37l-1.89-3.42.29-1.41c.48.37.86.72,1.17,1.21l1.78,2.79,1.96,3.01,3.06,5.36c.33.58.79.94,1.14,1.54l1.49,2.55c.67,1.15,1.4,2.07,2.02,3.29.28.56.74,1.21,1.1,1.74l1.33,1.97.41-.07c-.66-1.41-1.16-2.16-1.81-3.22l-2.44-3.92c-.43-.69-.91-1.22-1.25-1.99l-2-4.52c-1.29,0-2.66-2.67-2.21-3.64.23-.5,1.32-1.15,1.83-.85.57.34.37,1.32.29,1.89,1.6.96,2.75,2.47,3.22,4.19.38.17.63.26.76.41s.21.89.01.92l-1.23.17,1.22,2.16.93,1.7,3.11,5.27c.53.9,1.04,1.85,1.51,2.82l.35.72c.09.18.59.08.85.09l1.57,1.56c-.14.12-.61.38-.69.26l-.35-.53c-.24-.36-.43-.61-.77-.99-.11.85,2.12,4.92,2.91,5.15l-.39-1.69c.4.34.82.85,1.14,1.36l1.34,2.11c-1.22.31-1.28-.51-1.74-1.42l-.37.42,2.9,4.47c.56.87,2.1,3.53,3.02,3.54.31,0,.67-.55.76-1.07.16-.98-.71-1.81-1.26-2.61-1.32-1.91-1.2-2.41-2.55-4.62l-1.92-3.13c-.38-.62-.94-1.47-1.21-2.09-1.81-4.2-1.79-4.11-4.19-7.89l-1.85-2.92c-.39-.62-.8-1.12-1.07-1.72l-1.52-3.42c-.76-1.71-2.57-3.5-2.84-5.54.85-.39,1.32-.79,1.72-1.57,1.45,1.23,1.72,3.15,2.37,4.79.41,1.03,1.65,3.33,2.3,4.34.37.58.58.84.61,1.41.08,1.53,1.36,2.81,2.21,4.16.43.68.2,2.08,1.12,2.54.3.15,1.05.08,1.23.36.24.37.33,1.14.37,1.6.14,1.59,1.39,2.92,2.13,4.26.37.67.3,1.29,1.36,1.49l-.38.95.72,1.56,1.1.69,1.71,2.87,2.31,3.89c.27-.56.17-.9.09-1.61,2.1,1.67,1.34.86,2.88,3.55l1.24-.37c-.32-.61-.87-1.18-1.45-1.62-.02-.14.11-.6-.02-.67l-.73-.41-.15-2.66c-.01-.2.01-.66.05-.85.04-.18.32-.17.85-.28-.66-1.58-1.11-2.88-2.63-3.81-.52-.32-1.17-1.4-1.16-1.99,0-.87,1.05-1.66,1.65-2.06l1.36,2.19,1.46,2.11,3.07,4.56c.53.79.83,1.76,1.98,2.11l-1.73-2.78-1.9-2.89c-2.29-3.48-.68-1.07-2.52-4.67,1.24-.19,1.72.92,2.28,1.79l1.42,2.21c1.23,1.9,1.25,2.42,2.57,3.14,1.65.9.89,1.9,2.1,3.82.79-.06,1.11.13,1.29.68l-.46-.14c-.12-.04-.38.22-.3.32s.31.33.41.41l.39.32c.09.07.1-.05.31-.57-.02-.02.38.29.56.43.15.11-.4.65-.37.83.2,1.14,1.53,3.05,2.52,3.65.14.08.78-.22.84-.08.07.18.01.61-.01.91,2.87,2.5.74.61,1.87,3.01s2.51,4.08,4.17,5.95c.31.39.74,1.32,1.08,1.76l2.62,3.39,3.46,4.66-.69.37c-.69-.73-1.44-1.62-2.12-2.52l-1.77-2.34c-.2-.26-.86-.47-1.29-.48l3.61,5.15,3.78,4.99c.13.17.33.55.4.75.06.14-.42.11-.57.13-.15.12-.27.22-.33.27.1-.09-1.81-2.08-1.67-1.89l-4.46-5.98c-1.02-1.36-1.92-2.64-2.96-4.03l-3.79-5.04-2.66-3.04-2.03-3.03c-.5-.75-1.08-1.28-1.74-1.91-1.94-1.84-3.7-5.64-5.94-7.97.14.8.35,1.66.69,2.19l2.25,3.56,1.2,1.89c1.26,1.99,2,4.18,3.09,6.26.31.59,1.13,1.2,1.41,1.64,1.63,2.57,3.33,4.28,4.32,6.33.13.28-.47,1.03,1.96,4l1.32,1.61,1.4,1.71c.49.59.5,1.56,1.66,1.58-.38-1.58-.97-.15-1.49-2.76.57.6,1.02,1.07,1.34,1.53l1.91,2.72c.49.7,2.19,2.22,1.34,2.13-.2-.02-.57-.2-.71-.39l-1.08-1.43c-.18.33-.25.77-.1.97l2.48,3.19,1.01,1.23-1.04-2.79c1,.74,1.31,1.6,1.86,2.79.24.35.03.41-.67.36,1.33,2.24,1.62,2.84,4,4.47.8.54,1.48.79,1.85,1.94l-1.54-.55c.13.45.34,1.12.54,1.66l.21.59c.06.17-.54.51-.73.51-.84-.02-1.2-1.44-1.62-2.07ZM233.77,144.76c.78-.96,0-1.09-.25-1.61l-.97-1.98c-.25-.51-1.75-.36-2.23,0,.93.44,1.67.67,2.09,1.37l1.36,2.22ZM258.28,171.35h.8c-.27-.8-.92-1.86-1.55-2.06-.13-.04-.6.28-.73.34-.39.21,1.05.54,1.47,1.71ZM267.07,175.6l-1.22-1.7-1.49-2.35-1.64-2.37c-.25,1.69,1,2.79,1.83,4.08l1.6,2.48c.57.89.96,1.65,2.02,2.14-.2-.91-.6-1.57-1.11-2.28ZM252.53,174.94c.35-.79.02-2.25-.85-2.39-.23-.04-.64.25-.91.52l1.76,1.87ZM274.38,185.58c-1.66-2.36-2.19-2.44-3.07-4.43-1.81-1.39-1.66-2.69-3.04-3.01,1.42,2.64,2.75,4.15,4.51,6.35,1.34,1.68,2.38,3.45,3.94,4.97-.17-2.69-1.04-2.04-2.34-3.88ZM258.1,185.54c-.85-.39-1.32-.84-1.57-1.89l-.74-.29c-.13-.05-.24.53-.13.61l.51.36c.47.56.82,1.86,1.92,1.21ZM260.94,190.76c.12.02.69-.34.75-.39l-1.9-2.57.04,1.83c0,.38.73,1.09,1.11,1.14Z"/>
  <path d="M225.76,156.12c-1.56-1.97-1.67-2.85-3.38-5.18l-3.65-4.98c-.81-1.11-1.84-3.07-2.19-3.52-2.54-3.25-1.72-2.93-3.95-5.84-.32.94-.1,1.66.68,2.2l-.81.88,1.99,1.12c-.45,1.33.09,2.49,1.47,3.04.48.19.91,1.13,1.19,1.63,1.11,1.97.33.74,1.29,3.09.06.15-.21.35-.45.64l2.33,3.58c.54.84.55,2.3,1.84,2.25l-.42-.68c-.09-.14,0-.52.17-.73.46.29.65,1.02.93,1.48l2.19,3.67-.88.75,1.25,1.92c.78,1.19,1.93,3.44,2.3,3.31.11-.19.27-.67.36-.62l.57.3c.08.04.32.39.23.41l-.98.15.31,1.59c.69-.13,1.21-.25,1.57-.11.44.16.74.55.83,1.12l-1.75-.51c1.07,2.58,1.88,2.19,3.18,5.15.14,0,.5-.14.54-.03l.32.98c0,.18.5-.21.91-.61l2.15,2.94.69-.04c.09,0,.23.33.15.38-.98.61-1.25.23-1.24.49.03.88,1.16,1.44.64,2.01-.33.36-1.14-.05-1.36-.42-2-3.27-3.47-6.42-6.33-8.74-.21.26.22.71.48,1.1l1.15,1.72c.66.99,1.24,1.92,2.16,2.68.3.25.58.62.59.89.02.38-.52,1.07-.91.96l-1.64-2.09c-.43-.55-.82-1.08-1.22-1.68l-1.89-2.89-1.5-2.32-1.05-1.61c-.79-1.2-1.61-2.35-2.33-3.63-1.59-2.82-2.61-4.14-4.31-7.19-.4-.72-.7-1.58-1.71-1.45l2.67,4.77c.52.93.84,1.56,1.73,2.24.55.42-.04,1.87-.68,2.15-.77.33-1.9.76-2.53.25-.78-.63-.89-1.92-1.36-2.7-.71-1.17-1.2-2.06-1.85-3.41l-.49,1.62c-2.79-1-4.34-3.61-5.95-6.24l-1.18-1.92-2.01-3.27-2.16-3.38-.91-1.43-1.71-2.47-1.08-1.58c-.43-.62-.9-1.68-1.34-2.18-.81-.91-1.32-1.63-1.99-2.65l-2.16-3.3c-1.15-1.75-2.32-3.41-3.6-5.06l-1.36-1.75-2.17-2.61c-1.04-1.25-1.74-2.71-2.77-3.93l-5.03-6.03c-.67-.8-1.11-1.94-1.06-3.12.97.24,2.68,1.01,2.76,1.85.12,1.24.55,1.55,1.28,2.44,1.8,2.2,3.34,4.71,5.37,6.78.42.43,1,.9,1.26,1.35l1.88,3.21c.79,1.34,1.8,2.47,2.85,3.65.54.6.82.89,1.8.93l-.51.28c-.13.07-.11.35-.07.62.12.89.68,1.17,1.49,1.22,1,.07.8,1.36,1.15,1.94l1.36,2.28,1.72,2.34,1.34,2.02,3.49,5.36,1.67,2.65,1.14,1.97,2.3,3.71c3.92,6.33,2.81,2.95,3.18,3.47l-.48-.66-.26-.35c-.08-.11-.05-.61.09-.58l.83.19-.35-1.27.36-.45c.07-.09-.29-.44-.36-.35l-.31.45c-.03-1.12-.05-2.08-.51-2.84-.78-.16-.63-.45-.09-.57l2.3.83c-.02-2.34-3.97-6.2-3.31-8.75l.62,1.71,2.15,2.88c.84,1.12,1.49,2.19,2.11,3.47.2.4.69.96.93,1.36l1.72,2.9c.1.18.44.57.6.69.2.14.96.11.92-.06-1.71-1.54-2.85-4.26-3.75-6.16-.27-.57-.8-1.31-1.16-1.89l-1.66-2.68c-1.48-2.39-1.72-2.38-2.93-5.48l1.39-1.35-1.12-.28c-.49-.12-1.25-.8-1.71-1.29.12-.52.95-1.44,1.39-1.27,3.02,1.15,1.78.9,4.39,3.24.25-.12.61-.28.51-.23l-.1-.53c-.01-.07.27-.33.3-.26l.21.56c.24.63.52,1.14,1.02,1.77l-.43.74c2.2,1.19-.05,1.55,4.15,4.55-.21,1.1.42,2.3,1.6,2.49l-.49.57c-.09.1.17.47.26.6l1.42,1.95c.33.46.79.91,1.2,1.2-.34-.86-.48-1.11-.7-1.89l2.46,2.99c.14.17.57.69.41.85l-.7.68c.23.23.71.71.83,1.01l.66,1.52c.34.77.82,1.37,1.47,1.95.55.48.39,1.67,1.48,1.63l-1.48-2.72c.48.19,1.01.61,1.23.96l2.07,3.43c-.12.05-.62-.08-.82-.19-.17-.19-.29-.35-.3-.28-.01.11-.03.46.02.56l1.73,3.07,1.64,2.58c.59-.16,1.18-.07,1.53.48s.14,1.17-.24,1.7l1.72,2.01c.39.46.56,1.42.35,1.84-.69.1-.98.16-1.25,0-.37-.2-.58-1.01-.75-1.33l-3.12-5.58-1.94-2.94-2.71-4.23-2.04-2.58ZM228.13,167.98c-1.87-4-.94-1.5-2.53-3.94l-3.18-4.88c-.12,1.15.65,1.93,1.2,2.77l1.59,2.42c.7,1.07,1.22,2.11,1.92,3.14l.23.75c.05.15.83-.12.76-.27Z"/>
  <path d="M260.34,113.4c-1.47-2.78-1.52-1.12-3.79-3.63.46,1.22,1.13,2.21,1.72,3.36l.97,1.91,3.28,6.14,1.44,2.29,1.24,2.14,1.38,2.49c.38.69.17,1.57.8,2.35l1.63,2.05c.68.85,1.2,1.46,1.6,2.07l2.11,3.22c.59.9,1.46,1.63,1.94,2.62l.93,1.91,1.23,1.64,2.04,2.33c.64.73,1.31,1.25,1.47,2.36l1.29,1.06-.48.5c-.08.08.24.37.33.53.17.33-.65.79-1.04.8-.56.02-.75-.49-1.12-.94-1.27-1.58-2.5-3.09-3.61-4.76l-2.69-4.04-.96-1.47-1.55-2.3-1.15-1.71-2.59-4.13c-.47-.75-1.21-1.52-1.74-2.3l-1.36-2.01c-.88-1.29-3.54-3.44-3.8-4.93l1.71.18c-2.32-3.09-1.47-2.27-3.11-5.1l-1.52-2.62-1.88-3.41-1.26-2.3-1.94-4.09c-.28-.6-1.17-1.19-1.47-1.85-.86-1.88.8-2.12,1.2-3.04.09-.2-.45-.55-.54-.75-.49-1.06-.85-2.36-1.43-3.32-.49-.8-.78-1.29-1.09-2.14-.23-.64-1.17-1.39-1.44-2.01l-1.26-2.83c-.86-1.93-1.74-3.73-3-5.48-.31-.43-.61-.94-.66-1.42s.35-1,.75-1.31l.65-.51c.49-.39.6,1.25,2.21,2.24.16.1.51.53.65.43l.76-.56,1.6,2.43,2.09,3.38,1.54,2.52v.54c-.02.65,1.52-.18,2.04.95-.83.96-.37,2.02.53,2.69.28.53.65,1.41.97,1.88l.7,1.04c.43.63.78,1.25,1.14,1.96l.97,1.95c.44.88,1.65,1.73,2.01,2.6.26.62.44,1.02.73,1.5l1.95,3.17,1.72,2.56,1.52,2.32,1.79,3.03c.33.55.71.75.59,1.58-.85-.33-1.24-.81-1.67-1.49l-1.58-2.52c-.61-.97-1.54-1.89-2.06-2.92-.62-1.23-1.19-2.46-1.97-3.59-1.01-1.47-1.9-2.84-2.82-4.57-.57,1.2-.04,2.36,1.08,3.02.55.33.8.98,1.02,1.62.23.69.91,1.56.99,2.2.19,1.5,1.1,2.42,1.71,3.66.49,1,.76,2.23,1.82,3.04l.3,1.14,1.2,1.97.93-.1c.25-.03.66.64.62.76l-1.19.37c.62.78,1.09,1.41,1.6,2.25l1.73,2.86c.2.34.78.97,1.07,1.2.35.08.99.23,1.14.53l.72,1.45c-.2.13-1.06.48-1.18.47-2.16-2.24-1.3-.83-3.37-3.75l-2.3-3.23-1.18-1.67-2.23-3.26c-1.13-1.65-2.11-3.39-3.08-5.22ZM251.67,94.94c.14-.83.28-1.73.08-2.1-.84-1.6-1.69-3.11-2.59-4.63-1.59-2.68-.6-3.25-2.71-3.38l.69,2.28c.12.41.59.93.79,1.3l1.25,2.33,1.18,2.21c.4.75.79,1.37,1.32,1.98ZM253.51,98.04c.17.24.92-.6.79-.86l-.47-.98c-.13-.27-.64-.74-.9-.91s-.9.06-1.19.25l1.76,2.5Z"/>
  <path d="M178.89,236.88c1.3,1.79,1.74,3.15,1.99,3.5,2.68,3.76,3.38,3.96,6.17,8.48.88,1.42,1.94,2.7,2.92,4.03l1.43,1.94,1.4,1.95,1.05,1.42c.32.43.73,1.44,1.08,1.8l1.02,1.05,1.62,2.26c1.84,2.57,1.17,2.18,3.62,5.23l1.62,2.01c.79.98,1.32,1.93,1.32,3.23l-.97-.04c-.3-.01-3-4.04-3.95-4.81-.74-.61-.74-1.04-1.09-1.66-1.12-1.97-2.71-3.67-3.96-5.57-.35-.53-.78-.99-1.17-1.5l-4.9-6.4-1.22-1.61-2.53-3.2-.97-1.22c-2-2.53-2.37-3.44-4.09-5.72l-1.56-2.07c-1.22-1.62-1.17-2.13-2.89-4.45l-2.58-3.47c-.6-.8-1.13-1.52-1.79-2.32-1.3-1.57-2.4-3.37-3.48-5.12-.41-.67-.33-1.88-1.3-2.08-.89-.18-2.32-.59-2.27-1.7.03-.67,0-1.12-.36-1.65l-2.41-3.57-1.48-2.36-1.4-2.24c-.51-.82-1.25-1.8-2.06-2.13-1.26-.51-.66-1.37-.93-2.12l-1.08-2.93c-.3-.81-1.33-1.43-.71-2.41.7,1.36,1.17,2.44,2.17,3.52.99-.83-.98-3.16-1.81-3.48l-.34-2.15c.17-.1.53-.33.32-.2l.69.38c.11.06.43-.27.37-.39l-.26-.54-.96-1.07c.18-.64.3-1.13.57-1.32.35-.25,1.11.23,1.11.68.02,1.83,1.34,1.71.7,2.85-.14.24-.67.06-1.3-.02l1.39,2.67c.42.81,2.71,4.79,3.78,4.6-.27-.55-.45-.91-.32-1.32l1.51,2.84c.29.55.44,1.03.66,1.8.18.62,1.21,1.45,1.51,2.09.58,1.22,1.21,2.12,1.95,3.13l1.46,1.99c.26.35,1.15.8,1.4,1.19l2.16,3.31c.17.26.39.7.53.97.74.7,1.7,1.44,2.16,2.32.52.97,1.14,1.53,1.83,2.3,1.09,1.22,1.59,3.2,3.01,4.15,2.55,1.72,1.28,2.04,4.1,5.26.8.91,1.38,1.65,2.01,2.56.43.62,1.08,1.31,1.41,1.9.37.67.45,1.15,1.36,1.17.36,0,.45.56.74.96l1.76,2.43c1.02,1.41,1.77,2.85,3.3,3.73l1.17,1.45c.88,1.1.69,2.21,3.48,4.87.67.64,1.59,1.11,2.2,1.91l1.28,1.69c.71.94,3.99,2.5,3.52,4.21-.11.4-.53.98-.78,1.16-.29.21-1.14-.06-1.4-.36l-2.96-3.48-2.54-3.2c-.6-.76-1.23-1.52-1.79-2.29l-2.05-2.77c-2.03-2.74-2.89-3.37-4.54-5.5l-1.78-2.3-2.73-3.57-1.21-1.64c-.81-1.11-1.62-2.19-2.53-3.21-1.42-1.6-1.61-2.55-3.28-4.18.17.68.55,1.16.95,1.71l1.93,2.65Z"/>
  <path d="M229.68,152.33l-.06-.64c-.02-.21-.45-.37-.8-.56-.57-.3.23-3.12-1.94-2.6.01-.15.26-.73.46-1.13-.91-1.21-1.8-2.56-2.39-4.03l-.82.4-.24-1.55-.58.62c-.12.13.09.53.24.75.35.53.58,1.19.88,1.74.96,1.74,1.97,3.4,3.04,5.1l1.35,2.17c.16.26.31.89.56,1.14.53.54.93.63,1.61.52l-.48.8c-.09.16.1.55.23.73.91,1.34,1.69,2.6,2.52,4,.22.37.52,1.07.73,1.38l2.16,3.16,1.73,2.58,1.22,1.89c.39.6.99.95,1.11,1.79-.83-.16-1.3-.6-1.72-1.19l-1.39-1.96-1.69-2.39-1.11-1.56-1.7-3.08-2.62-3.87-1.66-2.43-.92-1.49-2.2-3.54-1.57-2.49-1.97-3.37-1.22-1.85-2.67-4.28c-1.67-2.68.36-.31-2.15-3.61l-1.54-2.02c-1.09-1.43-1.82-2.89-2.29-4.51-.78-.84-1.79-1.93-2.5-2.92l-1.52-2.14c-.5-.7-1.05-1.27-1.7-1.93-.56-.56-.78-1.93-1.27-2.52-.87-1.06-1.73-1.92-2.39-3.13-.58-1.06-1.47-1.92-2.08-2.87-.74-1.14-1.4-2.29-2.19-3.38l-2.03-2.77-1.68-2.85c-.43-.74-1.01-1.47-1.55-2.09l-1.36-1.54c-1.17-1.33-1.94-2.91-3.27-4.86l-2.05-3-1.44-2.17c-.58-.87-1.3-1.73-2-2.54-1.88-2.18.37-.48-2.15-3.81l-3.38-4.45c-.08-.56,1.25-1.1,1.71-.65.55.53,1.22.98,1.78,1.34-.04.53-.07,1.37.29,1.93.3.47.89.75,1.44.75-.27.81.01,1.43.53,2.01l2.86,3.22c-.23.8.02,1.39.85,1.76,1.23,2.58.6.93,2.28,3.47l2.76,4.18c.64.97,1.55,1.48,1.45,2.91.55.71,1.81,1.61,2.25,2.44.85,1.6,1.84,2.64,3.08,3.99.65.71,2.56,4.29,2.67,4.43.78.95,1.25,1.77,1.75,2.89.43.98,1.33,1.86,1.96,2.75l.75,1.05c.06.09.44-.55.48-.45s.45.3.34.33c-1.45.45,1.37,3.83,1.92,4.47.85.99,1.64,2.02,2.38,3.14.67,1.03,1.35,2.43,2.53,2.92l2.11.87-.78-1.54c.21-.35.96-.69,1.54-.67.46.02,1.15.59,1.31.97l-.99.59c-.18.11.02.58.12,1l-.33.42-.81-.27c-.14-.04-.1.49-.09.63s.45.05.67-.02c1.98-.55.65,1.17,3.29,1.43.29.97.51,2.2.94,3.1l1.17,2.46c.12.25.44.82.69.86s.69-.01,1.14-.04c-1.28.26,1.79,5.15,2.12,5.72l1.93,3.36c.56.97,1.19,1.77,2.01,2.65l.38-.9,1.3,1.35-1.65-.21.87,1.4c.5.81,1.02,1.55,1.86,2.05.04-1.07-.67-1.34-1.4-1.97.22-.15.95.1,1.13.41l1.14,1.91-.78-.16c-.16-.03-.45.24-.54.42.89.97,1.63,2.1,2.33,3.2l1.56,2.47c1.98,3.14,3.14,5.24,5.49,8.28.24.31.24,1.07.27,1.8l-.64-.16c.15-.89-.21-1.35-.86-1.92-1.6-1.39-2.55-3.34-3.77-5.06-1.8-2.54-3.5-4.99-5.03-7.69-.31-.54-.65-.96-1.31-1.29ZM217.85,133.54c-.28-.62-.46-.98-.6-1.42l-.82-2.71-.56,1.12c-.08.16-.45.25-.87.45l1.53,1.84c.35.42.91.8,1.31.71ZM222.05,141.6c.28.46.77.9,1,.72l-.9-2.91c-.67-2.18-2.05-3.97-3.84-5.3-.24,1.05.41,1.61.82,2.37l1.71,3.12,1.21,2Z"/>
  <path d="M212.81,102.05c.06-.64,1.62,2.34,2,2.97l1.09,1.78.79,1.32c.07.1-.07.52-.1.64-.04.16.4.3.58.51.41.49-.48,1.48-1.09,1.58-.41.07-1.1.39-1.14.54.49.56.85,1.27.58,1.55l-1.05,1.09-1.09-.63c-.48-.62-1.27-1.6-1.71-2.28l-2.35-3.7-1.23-1.82c-.81-1.2-1.34-2.44-2.24-3.58-.74-.94-1.41-1.82-2-2.84l-.97-1.7-.9-1.43-3.63-5.75-.95-1.67-1.77-2.8-1.56-2.95-7.06-11.16-1.65-2.7c-.44-.72-.86-1.35-1.26-2.12-1.49-2.86-.28-1.56-2.98-4.93-1.01-1.26-1.83-2.44-2.65-3.83l-1.45-2.47.57-1.71c.11-.33,1.11-.4,1.36-.15,1.42,1.42,1.31,2.05,2.71,4.07s2.45,3.86,3.33,6.05l1.06.76c.36.56.68.96,1.15,1.38l-.34.5c-.1.15.04.66.16.82l2.99,4.14c.27.37,1.66.6,1.31,1.24-.07.12-.3.45-.38.54-.1.13.25.43.45.5.77.26.77.98,1.13,1.53l1.83,2.8c.39.59,1.71,1.09,1.95,2.03.07.26.6.77.53,1.01-.44,1.6.51,1.24,2.49,4.62l2.72,4.66c.47.81.82,1.67,1.46,2.42,1.24,1.45,2.67,3.29,3.19,4.96l1.26,1.6,1.34,1.76c.6.78,1.29,1.35,2.32,1.55l.63,1.54.45,1.1c.15.36.79.73,1.41,1.06-.3-2.14-1.44-2.94-1.3-4.4Z"/>
  <path d="M283.36,247.06l-2.26-2.79c-1.66-2.05-3.17-4.13-4.83-6.2l-2.66-3.34-4.45-5.86-1.81-2.51-2.69-3.79c-.43-.6-1.12-1.2-1.77-1.62l.96,1.75c.4.73.9,1.5,1.38,2.19,1.77,2.56.16,1.04,1.96,3.43.35,1.2.69,2.09,1.34,3.04l4.12,5.99c1.03,1.5,1.89,3.11,3.11,4.61.45.54.55,1.78,1.62,1.49l.44-.12c.1-.03.24.36.14.39l-.64.19c.03.41.55,1.36,1.01,1.52.15.05.62-.47.73-.35l.59.6c.14.14-.48.51-.79.71l1.22,2.03c.29.49.63.96.96,1.41l2.15,2.88,2.55,3.24,1.35,1.77.51,1.12c.53.43.91.87,1.3,1.38l1.05,1.38c.08.11.33.48.24.57l-.39.38c-.12.12-.43-.34-.56-.5l-1.34-1.57c-1.43-1.67-2.83-3.2-4.03-5.07-2.4-3.74-2.49-3.03-4.66-6.42l-1.3-2.02-2.71-3.73-1.13-1.71c-.41-.62-.71-1.18-1.2-1.75-.77-.88-1.21-2.19-1.93-3.11-1.66-2.12-3.11-4.2-4.64-6.4l-2.05-2.96-1.41-2.21-1.76-2.77-1.94-3.33-1.02-1.82c-.7-1.25-1.16-2.59-2.13-3.69-.65-.75-.26-2.01-.75-2.69l-1.34-1.87-.37-.74c-.08-.15.43-.58.41-.75-.09-.62-.4-1.74-.64-2.54-.22-.74.84-1.82,1.5-1.52,1.09.5.7,1.84.88,2.81.33,1.85,3.02,3.1,3.75,6.36,1.34,1.22.79.94,2.37,2.99.18.23.06,1.12.29,1.3s.63.37,1.07.55c.97.4,1.45,1.42,2.1,2.19l.96,1.14-1,.17c.29,1.19.99,1.42,2.02,1.41l-.45.56c-.27.33,1.46.52.44,1l1.78,1.95c.1.11.8,0,.84.14l.23.78-1.05-.18c.19.8.67,1.11,1.47,1.06l1.62,1.7c-.14.46-.2.99.03,1.3l2.37,3.16.69-.19c.16-.05.44.52.32.53l-.64.13c-.15.03.12.54.23.66l1.72,2.09c1.22,1.48,2.23,2.95,3.67,4.23l-.06-1.18c.66.57,1.07,1.17,1.6,1.85l2.59,3.39-1.9-1.37,1.61,2.44c.7,1.06,1.77,2.39,2.81,3.08,2.16.51,1.38.34,2.53,1.72.07.09-.42.39-.52.32l-1.94-1.39,1.86,2.52c2.3,3.12,1.8,3,4.72,5.87.68.67.94,2,2.01,2.69.18-.38-.12-.67-.59-1.26.31,0,1.13.05,1.46.13l1.55,2.41c.29.44.05,1.62-.41,1.9-.84.52-1.2-.45-1.6-.87-1.3-1.37-2.56-2.59-3.58-4.18-.4-.63-1.21-1.37-1.4-2.04-1.04-3.79-2.55-2.39-4.79-6.04-.95-1.55-1.99-2.75-3.11-4.14Z"/>
  <path d="M263.43,96.92c-.04.75.76,1.58,1.18,2.21l2.7,4.09c.49.74.98,1.69,1.42,2.54l1.91,3.66c.42.81.8,1.66,1.18,2.48.16.35.55.83.76,1.39s.87,1.2,1.38,1.8c-.56.47-1.43.14-1.77-.52-1.27-2.47-2.54-4.87-4.15-7.11-.45-.62-.9-1.18-1.28-1.83l-.88-1.5c-1.04-1.78-2.19-3.32-3.43-5.02-.25-.34-1.44-3.13-2.26-3.44-.42-1.13-.97-2.33-1.67-3.31l-.94-1.31c-.64-.89-2.68-4.54-3.3-5.07-1.37-1.18-2.37-2.63-3.44-4.01-.38-.49-.96-1.03-1.32-1.56-1.23-1.82-1.91-2.9-2.82-4.91-1.5-3.31-.71-.99-2.36-3.84l-1.49-2.58-1.9-3.37-2.33-3.92-.98-1.68-1.69-2.85c-1.23-2.08-2.51-4.04-3.59-6.22l-.95-1.92-2.62-4.63c-.28-.49-.45-1.62-.65-2.18-1.18-.64-2.22-2.99-2.21-3.6,0-.27.65-.59.85-.78-.02-.59-.03-1.23.27-1.72.23-.38,1.16-.8,1.45-.66l1.12,1.65c-.96,1.13-.68,2.24.05,3.32,1.19,1.77,2.21,3.65,3.48,5.33l.69.02c.19,0,.41.51.42.67l-.46-.26c-.95-.54.16,1.88.19,1.93.81,1.57,2.27,3.12,2.8,4.75.5,1.52,1.11,2.64,1.82,4l2.31,4.44,2.13,4.6c.24.53.7.95.94,1.45l1.62,3.4c.54,1.14,1.14,2.14,1.83,3.2l1.06,1.62c1.38,2.11.77,2.34,2.57,4.48l1.27-1.51c.77,2.91,1.15.52,2.28,3.56l1.13-.48-.52.89c-.12.2.83,2.35,1.86,3.09l.55.4c.12.08-.32.54-.43.44l-.47-.43c-2.55-2.33-1.47-2.91-3.1-2.93l1.42,1.77c.38.54.66,1.72,1.24,2.07l2.02.69-.47.67c-.13.19.12.72.25.92l1.08,1.71.57-.57c-.38-.51-1.24-.76-1.09-1.75.93.95,1.62,1.97,2.28,3.03l-.87-.16c-.83-.15,1.33,2.32,1.73,3.07l.9,1.7.78-.26c.12-.04-.03.48-.05.81Z"/>
  <path d="M273.23,253.01l-3.06-3.78-2.92-3.82-2.41-3.3c-.75-1.03-1.43-2.15-2.26-3.08-.49-.56-.82-.93-1.35-1.75-1.12.63.46,4,1.83,4.41.16.11.23.18.26.11l.31-.6.85,1.69-1.22-.48c.12.23.27.55.41.78l1.61,2.7c.34.57.64,1.06,1.07,1.62,2.03,2.68,1.17,3.05,3.5,4.72.16-.13.35-.29.37-.34.04-.09.27.17.33.25l1.25,1.88,1.35,2.03c.07.11.16.39.17.5s-.38.09-.44,0l-.92-1.45c-.55-.86-.83-2.12-1.99-2.12,1.77,3.38,1.44,1.53,3.17,5.01l1.95,1.35c.35.24.82.66.93.95s-.35.89-.61,1.09l-.52.42c-.14.12-.61-.15-.72-.3l-1.84-2.69c-.53-.77-1.02-1.56-1.51-2.32l-2.52-3.92c-1.19-1.86-2.07-3.75-3.47-5.47-.83-1.02-1.43-2.1-2.1-3.23-1.43-2.44-1.2-1.1-2.1-2.63l-1.26-2.13c-.59-1-1.24-1.94-1.88-2.91l-3.5-5.36-1.05-1.62c-.43-.66-.75-1.31-1.1-2l-1.12-2.21-2.17-4.5c-.52-1.08-.36-2.79-.3-3.93l1.3-1.03c-.82-.57-1.35-1.06-1.01-1.94.41.02,1.26.73,1.24,1.2-.08,1.69.67,4.24,2.19,4.45-.13.19-.56,1.12-.26,1.32l1.41.97c-.21.16-.4.03-.79-.21-.83,1.7,3.84,2.03,2.24,3.43l.68,1.78c.19.51.82,1.45,1.18,1.83l1.32,1.37c.34.35.58.65.83.96l1.23,1.54,1.41,1.76c.74.92,1.54,1.76,2.17,2.81.8,1.32,1.92,2.39,2.85,3.58l1.08,1.39c.2.26.52.93.65,1.19-.19-.05-.91.2-.8.39.49.78,1.27,2.04,1.8,2.68l1.14,1.37c-.21-.26,2.53,2.86,2.11,1.32l-1.68-1.42c.09-.11.26-.38.33-.34.1.06.45.28.55.39l2.21,2.4-.85-.15c-.18-.03-.57.34-.57.53l2.62,2.79,1.38,1.55c.91,1.01,2.5,3.29,3.04,2.99-.33-1.18-1.01-1.58-1.61-2.26l-2.74-3.04c-.2-.22-.46-.57-.59-.78-.12-.2.28-.72.51-.82.43.61.89,1.53,1.44,1.91,1.49,1.05,3.31,1.95,3.72,3.89.37,1.76,1.36,1.65.66,2.74-.94,1.46-4.59-3.2-5.82-4.46l-1.59-1.62ZM262.72,236.64c-.32-.51-.51-.96-1.14-.98.55,1.35,1.37,2.34,2.46,3.06l-1.32-2.08ZM265.27,240.35l-.42-.6c-.08-.11-.49.07-.59.13.81.98,1.52,1.74,2.5,2.66.33-1.18-.87-1.45-1.49-2.19Z"/>
  <path d="M193.51,52.2c-.87-1.42-1.85-3.24-2.64-4.67-.08-.14-.58-.51-.61-.38s-.2.77-.13.9l2.02,3.56c1.37,2.41.86,2.28,2.94,3.96.17.13-.12.77,0,.97l1.54,2.58,2.18,4.15,1.88,3.4c-1.16-2.09,6.31,10.21,4.87,8.04l1.22,1.83c.72,1.07,1.01,2.24,1.35,3.59l-2.55-3.54-1.9-3.13c-.71-1.18-1.48-2.18-2.17-3.36-.46-.79-1.04-1.72-1.65-2.41-.52-.59-.55-1.34-.83-1.78-.98-1.57-2.19-2.83-2.98-4.52-.55-1.18-1.35-2.29-2.01-3.44l-2.52-4.42c-.13-.22-.33-.82-.49-1.01l-1.24-1.44-.2,1.91c-1-1.34-2.21-2.48-2.89-4.04l-1.38-3.14c-.56-1.28-1.28-2.35-.73-3.81,1.24.64.34,3.27,2.32,3.42-.79-1.57-1.21-2.9-1.38-4.35l-.59-.14c-.15-.04.05-.65.11-.8l.46-.98c.19-.4-1.7-1.44-1.62-3.39l1.8-1.38c.49.48.71,1.29,1.05,1.84.94,1.49,1.82,3.04,1.2,4.89l2.21,1.05c-.16,1.17.25,2.03.99,2.87.79.9,1.05,1.92,1.74,2.86l2,2.75c.81,1.12,1.21,3.54,2.3,4.04l1.18.54-1.02.2c.68,1.27,1.38,2.5,2.23,3.68l1.82,2.54c1.75,2.44,2.32,3.59,3.78,6.31,1.89,3.52.92,2.27,3.59,5.71.86,1.11,1.39,1.98,1.88,3.21s1.4,2.35,2.01,3.5l2.67,5.05.78-.97c.24.44.45.84.36,1.08-.11.28-.85.85-1.12.72-.57-.26-1.33-1.26-1.69-1.86l-1.35-2.28c-1.24-2.08-2.66-3.9-3.78-6.04-.68-1.29-1.28-2.71-2.13-3.84-.6-.8-1.15-1.41-1.54-2.35-.25-.6-.77-1.16-1.11-1.7l-3.36-5.28-1.07-1.8c-1.82-3.06-1.27-1.39-3.33-5.42-.33-.65-1.21-1.43-1.61-2.09l-.85-1.4ZM188.4,43.93c-.09-1.12-.55-1.21-1-1.98l-.71-.32c-.14-.06-.23.77-.11.86l1.82,1.43ZM188.14,47.54c-.21-.56-.57-1.33-1.18-.88l1.98,3.27c.06.11.56.29.67.34s.14-.46.07-.56c-.21-.34-.61.36-1.55-2.16Z"/>
  <path d="M270.12,155.58c-.62.49,1.97,1.43,1.96,3.62,1.17.49,1.28,1.74,1.84,2.61l1.24,1.92c.36.55,1.03,1.02,1.3,1.77.17.48.8.81,1.14.73-.19.89,1.43,2.64,2.05,3.86.49.98,1.14,1.55,1.81,2.41.6.78,1.01,2.03,1.85,2.91.49.51.8,1.2,1.07,1.83l1.17,1.17c-.23.09-.72.2-.85.06l-.53-.56c-.86-.91-1.52-1.95-2.3-2.99l-2.86-3.8-2.27-3.24c-.91-1.31-1.86-2.42-2.77-3.69l-2.33-3.27c-.42-.6-.78-1.11-1.17-1.73l-.92-1.49-1.25-2.1c-1.45-2.43-4.08-5.51-6.01-8.58l-1.1-1.76-1.69-2.43c-1.01-1.45-1.67-3.2-2.85-4.69-.9-1.14-2.21-2.22-2.39-3.85.27-.26,1.13-1.15.91-1.48l-1.07-1.59c-1.26-1.87-3.51-6.42-4.4-8.58-.5-1.21-2.17-3.48-1.22-4.48l1.19-1.25c.07-.08.32-.32.38-.25.08.1.31.44.32.6l.23,2.83-.82-1.77-.78.15c-.18.03-.19.55-.15.73l.26,1.15,2.76,3.93c1.32,2.05-1.93-6.23.18-1.58l1.27,2.8c.32.7-.37,2.05.75,2.79l.45-1c.7.91,1.11,1.57,1.39,2.64l-.83-1.12c-.08-.11-.55-.14-.71-.15s-.22.47-.12.59l.41.5c.32.4.73.57,1.37.41l1.11,2.14c.21.4.29.7.38,1.22.17.95,1.66,1.64,2,2.58l.52,1.44c.38,1.05,1.49,2.54,2.1,3.28.07.09.47-.26.57-.31.13-.07.34.23.43.34s-.48.33-.84.52c.41.86,1.46,2.02,2.07,2.77.26.32.45,1.21.73,1.45l1.97,1.68c.18.87.28,1.72,1.03,2.33.66.55,1.79,2.98,2.57,3.85,3.17,3.51,2.06,3.42,5.12,6.49l-.34.39c-.12.13-.59-.2-.74-.33l-1.27-1.12-.57-.49c-.15-.13-.06-.58-.1-.8l-1.69-1.85-.42-.46c-.09-.1-.41.17-.51.25Z"/>
  <path d="M202.38,175.07c1.75,2.39,1.59,1.1,3.01,3.49.36.6.79,1.08,1,1.84.14.5.52.6.96,1l1.93,1.77c.46.42.96.52,1.28.95.91,1.21,1.97,2.43,1.85,4.08-.03.4-1,.76-1.31.54-.42-.3-.88-.89-1.2-1.35l-2.27-3.23c-1.06-1.51-2.37-2.74-3.38-4.28s-2.2-2.88-3.4-4.27l-5.66-6.59-2.14-2.91-3.82-4.07-2.25-2.78c-1.25-1.54-2.62-2.8-3.82-4.35l-1.24-1.6c.41.53-2.71-3.03-2.37-2.68l-2.63-2.67c-.98-1-2.25-2.01-2.97-3.17l-1.21-1.96-1.36-2c-.35-.52-.74-1.02-1.17-1.48-1.63-1.78-2.19-2.86-4.11-4.72-1.06-1.03-2.88-2.62-2.48-4.55l1.7.8c.25-.09.73-.55.92-.37,1,.9-.64,2.3,1.63,3.71l1.44.9c.87.54,1.13.98,1.66,1.89.69,1.16,1.58,2.34,2.39,3.53l.85.82c3.62,3.49-.16-.18,2.39,3.07.89,1.13,1.99,1.84,3.01,2.8.49.46.53,1.59,1.47,1.92.73.26.96,1.13,1.38,1.73.68.99,1.65,2.12,2.48,2.97.16.17.93.26.91.48l-.14,1.03,1.18.88c.18.95.93,1.41,1.77,1.61.02,2.23.07.31,1.69,2.66,2.71,3.92,2.25,1.73,4.79,4.84.29.36.44,1.08.55,1.5.6.57,1.32,1.42,1.8,2.06l1.48,1.97c.41.55,1.43,1.14,1.95,1.58-.07.22-.28.67-.16.73l.67.28c.42.18.64,1.17.96,1.62Z"/>
  <path d="M195.22,243.35c.48.69.45,1.64,1.84,1.58l-.17,1.15c.58.39,5.67,5.6,4.46,5.94-2.18.62-3.23-1.71-4.34-3.33l-2.93-4.27-1.6-2.29-2.14-3.11-1.68-2.37-3.09-4.36c-.47-.67-1-1.39-1.5-2.01l-2.82-3.49c-.83-1.02-1.58-2.11-2.21-3.27-1.99-3.62-2.11-2.53-4.18-5.87-.46-.74-.91-1.31-1.4-1.99l-2.52-3.45-2.54-2.98-4.05-5.34-1.56-2.07c-.2-.27-.27-.98-.54-1.26l-1.57-1.63c-.57-.59-2.97-4.42-3.19-4.89-.07-.17.58-.39.68-.55.79-1.2-2.62-1.66-2.07-2.36l.84-1.06c2.02,1.37,2.71,3.36,3.81,5.32.41.73,1.85,1.16,1.12,2.51.39.36,1.26.83,1.57,1.18,3.19,3.7,2.34,3.64,3.06,4.54l1.09,1.35c.47.58.79,1.02,1.45,1.52l.72,1.59,1.99,2.35,1.02,1.18c.54.63,1.5,1.49,1.64,2.27.17.94.31,1.38,1.24,1.83l.5.24c.1.05-.04.33-.14.61l1.71,2.31c.36.48.88,1.15,1.19,1.61.57.84.51,1.68,1.93,1.54l1.96,2.76,1.32,1.96c-.17.95.25,1.34.73,2.02,1.52,2.11,2.64,4.51,4.57,6.17.03-1.6-1.44-1.92-1.88-3.34.95.66,1.65,1.63,2.32,2.69l.29.3c.09.09.04.57-.09.55l-.76-.11,1.9,2.62.6-.29c.11-.05.3.19.31.31,0,.08-.04.39-.12.36l-.58-.2,1.06,1.54,2.75,3.98Z"/>
  <path d="M208.74,213.31c.29,1.91.23.13,1.57,2.73.13.24-.39.94-.66.92-1.68-.06-3.23-2.8-4.19-4.04-1.24-1.6-2.33-3.2-3.55-4.84l-2.33-3.15c-1.35-1.82-2.48-3.73-3.88-5.49l-1.7-2.14c-.42-.52-.81-1.17-1.21-1.66l-2.16-2.66-1.55-1.8c-.38-.44-.75-.83-1.11-1.3l-2.37-3.11c-1.33-1.09-1.06-1.36-2.35-2.92-.52-.63-1.01-1.33-1.52-1.86l-2.1-2.2-2.06-2.5c-.64-.78-1.36-1.55-2.02-2.29l-2.04-2.29-1.6-1.99c-.97-1.21-1.87-2.22-2.77-3.49-.53-.75-2.25-2.5-1.69-2.76.2-.09.45-.08,1.1-.13-.1-.15-.99-.51-1.27-.77l-1.51-1.37c-.06-.19.13-.77.34-.86s.87.08,1.04.27l1.68,1.81c1,1.07,1.8,2.32,2.45,3.56.4.76.55,1.4,1.46,1.73,1.94.71.89.98,2.78,3.42l1.15,1.49c.94,1.22,1.83,2.36,3.44,2.84l-.41.6c-.11.16.32.63.49.75.8.56,1.33,1.34,1.97,2.13l2.76,3.39c.19.23.29.94.52,1.16l1.13,1.07c.96.91,1.85,1.82,2.59,2.92l1.65,2.45,4,5.35c1.33,1.78,2.27,2.06,2.93,3.77.26.67.96,1.1,1.51,1.05l-.11-.95c.65,1.08,1.07,1.92,1.72,2.78l2.67,3.53c.13.17.67.45.56.6-1.19,1.62-.21.75,1.9,3.94l.96,1.46c.33.37,1.71.36,1.79.86Z"/>
  <path d="M277.7,176.93c.29.35.65.66,1,.92l.63.47c.17.12-.28.53-.44.68s-.52-.14-.73-.37c-1.15-1.28-1.43-1.11-2.92-2.76l-4.53-5.02c.05,1.14.37,1.86.75,2.78,2.05,1.9.8,1.3,2.46,2.98l.44.45c.09.09-.14.41-.24.49-.14.1-.58.02-.72-.16l-2.27-2.91c-.66-.85-1.15-.92-1.59-1.96-1.08-2.58-2.09-2.89-3.28-4.84l-2.61-4.28-.8-1.3-.84-1.37-1.89-2.9-1.45-2.18c-.86-1.29-1.68-2.64-2.41-4.02-1.36-2.58-2.67-3.13-2.66-4.33s2.22-1.52,1.39-2.86l1.44-1.51c.24-.19,1.65,3.32.96,2.9-.59-.63-1.28-1.74-1.78-1.23-.72.74.22,1.67,1,1.87.68.18.75,1.29,1.09,1.73l1.74,2.25.44-.83.5.62c.12.15.05.73.02.69l-.83-.41c.21,1.24.73,1.63,1.69,1.88l1.3,1.61c-.11.12-.24.33-.31.3l-.64-.26c-.27-.11-.21.79.02.97s.85.2,1.19.15c.32.79.74,1.7,1.23,2.52,1.27,2.17,1.97,6.13,2.98,4.37.34,1.75,1.76,3.87,3.02,5.45l.51.64c.14.17.5,0,1.19-.18-.88,1.79.47,2.21,1.22,3.13l4.73,5.8Z"/>
  <path d="M281.33,157.47l.51,1.34c-.15.21-1.17.12-1.41-.16l-1.4-1.73-2.2-2.87c-2.65-3.45-5.14-6.81-7.52-10.44-.97-1.48-2.17-2.82-3.22-4.24-.53-.72-.9-1.46-1.37-2.27l-1.92-3.33c-1.61-2.8-1.29-1.4-2.49-3.71-.36-.7-.74-1.29-1.14-1.92l-2.27-3.56-4.67-7.52c-.23-.36-.65-.75-.78-1.18-.17-.57-.32-1.47-.54-1.87l-.95-1.71-1.08-2.16c-.08-.16-.47-.5-.57-.63-.14-.16.1-.56.27-.81l1.23-1.83c.35.63.91,1.47,1.25,2.17l.97,1.96c.6,1.21,1.89,2.41,2.21,3.65.44,1.67.98,2.85,1.81,4.31.76,1.33,1.34,2.67,2.31,3.94,2.1,2.76.88,3.01,1.97,4.22l1.47,1.64c.35.92.61,1.87,1.24,2.66,1.69,2.13,3.15,4.56,4.2,6.99.15.34.64.9.9,1.2l.41-.77c.07-.14.49.25.57.38l.4.65c.08.14-.6.38-.62.55-.07.62.86,1.46,1.82,1.35,2.05,1.97,1.17,3.65,2.78,4.13.19.84.32,1.86.81,2.51l4.28,5.66c.85,1.12,2.23,2.1,2.72,3.42Z"/>
  <path d="M198.55,209.12c1.22,2.89.9,1.3,2.4,3.4.16.23,2.81,3.23,3.11,3.51.46.43,1.13.81,1.58,1.28.95,1.03,1.93,1.95,2.43,3.24.18.48-.11,1.07-.46,1.13-1.72.29-.5-1.41-3-1.41l.38-.77-3.2-3.7-2.76-3.14-2.35-2.89-3.09-4.11-1.05-1.38-2.41-3.07c-.73-.93-1.37-1.78-2.11-2.69l-3.88-4.73-6.47-8.19-5.67-7.27-2.75-3.74-3.88-5.01c-.98-1.27-1.8-2.3-2.56-3.94-1.16-2.53-1.59-1.27-2.55-4.02.4-.14,1.02.15,1.25.5l.68,1.06c.32.49.66.87,1.06,1.34,1.17,1.38,2.27,2.87,3.27,4.37,1.74,2.59,3.02,2.31,2.95,2.67l-.16.87,1.68,2.28c.06.08.43.13.52.14-.39-.04,1.99,2.84,2.29,3.29,1.16,1.71,2.34,3.21,3.6,4.8l2.55,3.23c.6.76,1.48,1.58,1.93,2.26,1.01,1.51,1.96,2.84,3.08,4.24.34.42.51,1.11,1.03,1.37,1.1.55,1.56,1.82,2.38,2.69.53.57,1.97.89,2.17,1.8.07.32-.15,1.07.08,1.26l1.02.84c.3,1.06.92,2.2,2.3,1.97l1.33,1.41-.44.65c-.08.12.21.49.34.59,3.16,2.44.5,2.09,3.36,3.88Z"/>
  <path d="M206.94,88.79l-2.07-2.79-1.26-1.87-1.2-1.69c-1.49-2.11-2.34-2.94-4.07-5.52l-1.24-1.85-.97-1.46-3.44-4.74-1.52-2.06c-.11-.14-.54-.63-.66-.49l-.62.78c-.14.03-.62-.67-.48-.85l.84-1.1-1.35-1.9-.1,1.51c-1.7-1.19-1.12-1.98-2.34-3.53l-1.73-2.2c-.3-.38-.55-1.13-.8-1.57l-2.08-3.68c-.88-1.56-2.14-2.84-2.56-4.77.44-.59,1.21-1.11,2.08-1.49l3.32,5.62c.56.95,1.2,1.93,1.76,2.8-.25.8.13,1.8.91,2.19,1.25.63,1.6,1.52,2.07,2.76.57,1.52,1.72,2.78,2.61,4.01.58.79.78,1.71,2.12,1.52-.38.48-.73.87-.6,1.02.27.33,2.76,3.52,2.65,3.32l.69,1.31c.56,1.06,1.8,1.88,2.35,2.92.48.92,1.05,1.64,1.62,2.47,1.57,2.3,3.13,4.44,4.86,6.65s2.68,4.79,4.25,7.02l2.07,2.95,2.28,3.29c-2.11-1.24-3.51-3-4.78-4.83l-2.61-3.77Z"/>
  <path d="M204.9,189.49l1.34,2.06,1.52,2.32c.56.86.87,1.57,2.14,1.82.41.08.2,1.2-.24,1.31-.64.16-1.14-.06-1.54-.61l-1.21-1.69-2.74-3.95-2.78-4.16-2.09-2.95-2.14-2.88-2.3-2.98-5.59-6.88-1.2-1.44-2.19-2.61-4.58-5.77c-1.29-1.62-3.02-2.91-4.11-4.68-1.33-2.16-1.11-1.46-2.94-3.58l-3.02-3.49-1.4-1.43-1.4-1.76c-.84-1.05-1.56-2.09-1.86-3.47l.77.22c.18.05.61-.14.6-.33-.05-1.54-2.09-.41-2.96-3.66.7-.62,3.62,2.92,3.93,3.85.27.81.67,1.25,1.4,1.56.15,1.33.8,2.44,2.05,3l1.18,1.63,1.54,2.09,1.54,2.05c.8,1.06,1.48,2.11,2.7,2.54-.12.83.29,1.49.98,1.98.54.39.93.99,1.35,1.51l1.83,2.23c1.22,1.49,2.54,2.96,3.61,4.5.75,1.08,1.28,1.66,2.4,2.26.56,1.6,2.74,3.59,3.48,4.8,1.15,1.89,2.57,4.31,4.66,5.45.77,1.71,1.96,3.95,3.31,5.03.92,1.63,1.82,3.11,3.02,4.51.31.36.68,1.2.96,1.62Z"/>
  <path d="M232.79,77.22c-.89-.94-1.54-1.66-2.24-2.53-.44-.54-.53-1.85-1.7-1.43l1.74,2.77,1.4,2.09c-.94-.56-1.98-1.08-2.47-1.9l-2.26-3.76c-.37-.62-.61-1.22-.96-1.77l-.9-1.39c-.72-1.12-1.41-2.12-1.98-3.31l-.93-1.96-2.92-4.53-2.16-3.82-3.53-5.57c-.85-1.34-1.54-2.61-2.3-3.98-2.25-4.07-4.86-7.79-6.81-12.27,2.54.54,2.6,4.34,3.59,2.58l-1.74-2.37c-.55-.75-1.22-1.55-1.95-2.04-.52.13-.83.22-.9.03-.08-.23-.09-.82.09-.92.39-.21,1.18-.44,1.65-.52l2.98,5.19c.15.26.17.96.42.98l1.28.08.93,1.97-.73.35c-.11.05.02.42.06.64.15.82.63,1.37,1.07,2.07l1.4,2.21c1.54,2.43.58-.54,2.85,3.44l.13,2.19c1.91,2.4,1.74,2.91,2.82,4.61l1.22,1.94c.52.83.97,1.62,1.45,2.43l3.58,5.97,1.21,1.92c1,1.59.74,1.58,1.65,2.88l1.19,1.71,3,4.18c.42.58.93.99.77,1.83Z"/>
  <path d="M197.65,159.62l-.57.95c.69-.12,1.37-.21,1.74.21l2.3,2.59,1.62,1.7.9,1.02c-.43.54-.59.98-.33,1.69-1.31-.18-2.5-1.03-3.6-2.06l-1.84-1.71c-1.54-1.44-2.53-3.25-3.82-4.83l-4.44-5.4-1.31-1.81-1.12-1.31-1.85-2.46-4.95-6.3c-.56-.71-1.01-1.34-1.51-2.11s-1.22-1.5-1.82-2.26l-4.23-5.34c-2.12-2.68-2.74-4.03-4.73-6.59-.61-.79-2.41-1.15-2.61-2.44-.05-.31.7-.64,1.12-.65.36,0,.67.65,1.01,1.03,3.18,3.69,1.52.86,4.12,3.36l-.43.63,2.9,3.77,3.07,3.91,1.86,2.62c.47.66,1.97,2.21,2.86,3.37l1.9,2.46c.4.52.73,1.36,1.46,1.61,1.32.45,1.43,1.11,1.63,2.38.17,1.09,2.59,3.27,2.68,2.46l-.1.9c-.1.92,2.93.4,2.07.88l-.73.4,1.12,1.49c.58.76,1.07,1.66,1.59,2.49l1.18.47,2.88,2.91Z"/>
  <path d="M292.77,236.45c.83.92,1.02,2.18,1.63,2.77l-.21.22-2.06-1.65c-.53-.42-1.01-.89-1.46-1.4l-3.58-4.09-3.4-3.56-1.44-1.62c-.14-.15-.21-.79-.24-1.08-2.63-1.22-3.1-2.88-5.53-5.44l-1.86-1.96c-.86-.9-1.62-1.92-2.4-2.86l-4.33-5.29-2.2-2.6c-1.08-1.28-2.08-2.55-3.05-3.91-1.96-2.75-4.01-4.65-6.16-8.02l-2.15-3.38c-.24-.38-2.85-2.91-.4-5.16l1.6.79c.16.86.37,1.36.7,2.02l1.37,2.71c-1.12,1.51.09.89,2.25,3.79,1,1.34-.14.58,1.55,2.76,1.32,1.71,3.25,3.16,4.06,5.19.42,1.06.65,1.84,1.47,2.73.15.17,3.04,3.55,3.33,2.72-.52,1.51.11,1.34.96,2.49.58.79.99,1.45,2.26,1.26-.19,1.14.6,1.67,1.24,2.5l2.81,3.62,3.41,3.58c2.06,2.16,3.78,4.44,5.86,6.6l4.34,4.51,1.6,1.77Z"/>
  <path d="M197.49,237.52c.51.57,1.4,1.24,1.97,1.72l-.07.76c-.02.21.77.38.87.58.34.66,1.01,1.7,1.88,2.15-.4.44-1.38.44-1.88-.11l-1.96-2.12-2.24-2.56-1.46-1.66-1.21-1.42-2.54-2.96c-.64-.75-1.29-1.69-1.98-2.33s-1.14-1.19-1.73-1.91l-3.79-4.58c-1.08-1.3-2.02-2.57-3.01-3.95l-2.11-2.91-3.72-4.69c-1.68-2.11-1.82-2.66-3.37-4.55-1.4-1.71-2.72-3.34-3.96-5.18-.89-1.32-1.7-2.78-2.69-4s-1.95-2.36-2.82-3.7c-.44-.67-1-1.27-1.32-2.02-.57-1.32-1.23-2.54-1.99-3.78-.26-.42-1.46-.77-1.22-1.48.12-.35.95-.39,1.11-.03.54,1.23,1.72,2.35,2.67,3.49,2.75,3.31,2.51,4.04,3.64,5.51l2.41,3.12,2.96,3.98c-.41-.55,1.82,3.52,2.96,4.47,1.98,1.64,2.1,3.28,4.21,5.48.33-.18.83-.43.75-.37-.04,1.01-.01,1.43.48,1.91.66.65,1.12,1.27,1.68,1.96l3.26,4.01c.36.45.7,1.42,1.19,1.78.59.44.85.74,1.25,1.24l1.39,1.72,2.34,2.9.96,1.22c1.06,1.34,2.12,2.64,3.24,3.93l2.23,2.57,1.6,1.81Z"/>
  <path d="M241.88,71.84l1.26,2.01c.59.94,1.89,1.95,3.02,3.86l-.55.54-1.47-1.55-2.12-2.25c-2.62-2.78-6.89-10.9-8.31-13.03l-1.04-1.56c-.58-.87-.96-1.73-1.55-2.56-.94-1.33-1.52-2.92-2.33-4.38l-1.28-2.29-4.29-7.95-.95-1.71c-.49-.89-.97-1.61-1.31-2.56-.86-2.37-4.78-6.72-3.5-7.2l.73-.28.86-.64,1.43,1.93-.51.95c-.11.21.7.49.86.68.73.9,1.63,2.31,1.91,3.46.35,1.45.97,2.47,1.56,3.73.24.51.47,1.17.74,1.68l1.76,3.3,1.15.33-.58.76c-.44.59,1.52.57,1.43,2.22-.06,1.14,1.64,1.25,3.07,4.77l1.54,3.79c.65,1.6,2.85,2.6,4.5,6.63.16.4.11,1.23.36,1.63l2.44,3.85,1.16,1.83Z"/>
  <path d="M200.88,147.87c.12.2.32.42.25.48l-.48.42c-.38-.74-.89-1.42-1.53-2.13-.97-1.08-1.54-2.41-2.46-3.56l-.72-.9c-.91-1.14-1.71-2.26-2.63-3.38l-1.85-2.26c-1.63-1.99.32-1.04-3.19-4.92-.41-.46-.9-.98-1.25-1.45l-3.01-4.13c-1.26-1.73-1.37-2.79-3.3-4.59-.99-.92-1.47-2.08-2.15-3.15l-1.42-2.23-2.57-3.89c-1.61-2.43-3.21-4.08-4.13-6.94.92,0,2.26.18,2.78.84,1.03,1.31,1.95,2.55,2.81,3.94,1.37,2.23,1.32,2.98,2.89,4.77.45.51,1.02,1.14,1.4,1.69l1.4,2.01c.5.71,1.08,1.52,1.52,2.27.73,1.24,1.23,2.48,2.24,3.57.87.94,1.55,1.97,2.19,3.08l.97,1.68,1.59,2.75,2.24,2.97,1.91,2.85.75,1.22,3.07,4.63c.45.68.86,1.33,1.3,2.06l1.38,2.32Z"/>
  <path d="M197.69,220.91l2.01,3.05c.56.85,1.22,1.45,1.82,2.33l.93-.23.81,1.6c-1.53.19-2.49-.67-3.36-1.72l-2.31-2.78c-.51-.62-1.01-1.17-1.47-1.86l-1.43-2.15-5.23-7.02c-.42-.57-.95-1.15-1.42-1.7l-2.64-3.11c-1.54-1.81-2.91-3.61-4.26-5.58.3.44-4.36-5.41-4.27-5.31l-2.73-3.23-4.3-5.55c-.47-.61-.93-1.15-1.38-1.75l-1.97-2.62-.99-1.44-2.57-3.14c-2.02-2.47-2.05-3.28-3.93-5.34.19-.26.95-.37,1.13-.16l.84,1.01c.72.87,1.54,1.63,2.16,2.61,3.66,5.83,3.8,1.36,3.86,4.83l1.5,2.07,2.06,2.17c.17.18,7.24,10.6,8.55,10.04l-.47.53c-.11.13.36.49.45.66l1.14,1.92c1,.41,2.09.91,2.77,1.49-.69,1.33.41,1.9,1.53,3.33l3.67,4.72,2.59,3.21c.3.38.64,1.05.93,1.43l1.46,1.93,1.11,1.56,2.11,2.57c.47.57.82.91,1.28,1.61Z"/>
  <path d="M241.36,77.39l-.53.62c-1.07-.72-1.79-1.38-2.43-2.31l-1.74-2.52c-.95-1.38-1.76-2.69-2.64-4.08l-3.55-5.67-1.97-3.27-1.69-2.83-1.63-2.72c-1.17-1.96-2.41-3.83-3.46-5.86-.66-1.29-1.43-2.35-2.15-3.64l-1.55-2.76-3.17-5.24c-.74-1.22-1.18-2.51-1.73-3.84-.22-.53-.79-1.15-.88-1.64l1.25.59c.26.12.19.91.2,1.45l1.07-.3-1.19-2.29c-.1-.19-.8-.54-.91-.36l-.58.9-.87-1.33,1.94-.87c1.16.25,3.31,5.16,2.61,5.72.76,2,1.95,4,3.39,5.61.45.51.72.65.8,1.41.14,1.41,1.69,3.64,2.87,4.24.54,2.19,1.41,2.93,2.8,5.19,1.06,1.72,1.17,3.03,3.14,5.95l2.14,3.16c.29.43.54.86.75,1.39.33.84.98,1.59,1.42,2.36l1.57,2.77c.49.86.91,1.56,2.15,1.62l-.44,1.42,2.55,3.55c1.57,2.19-.79.38,2.49,3.56Z"/>
  <path d="M208.84,141.62c0-.11.5-.23.55-.1.23.6.4,1.48,0,1.97-.99,1.18-6.28-4.43-6.88-5.27l-2.81-3.91-3.2-4.51-1.09-1.54c-.51-2.75-4.78-3.81-3.04-3.77h.51c-1.07-.99-1.64-2.05-2.53-3.19l-2.72-3.5-2.71-3.53-1.88-2.4-1.7-2.17-4.28-5.79c-1.01-1.36-2.02-2.57-2.84-4.14-.55-1.06-2.44-1.36-1.7-2.51.51-.8,1.62.82,2.21.11l-2.51-1.55,1.4-.48,1.68,1.92-.18.84c-.04.16.44.41.49.58.59,1.92,2.45,3.71,3.27,4.86l3.19,4.46,2.01,2.59,2.36,2.91c-.61-.75,6.82,9.65,6.07,8.34l1.13,1.97c.23.4,3.04,3.79,3.18,2.97l-.15.86.94.78,1.49,2.58c.32.55.59,1.16,1.01,1.65l1.45,1.7c.5.58.81,1.39,1.32,2.2.66,1.05,6.13,7.62,6.02,5.99l-.06-.91Z"/>
  <path d="M203,196.67c-.43-.3-.93-.79-1.31-1.3l-1.46-1.92-1.27-1.59-1.59-2.03-1.69-2.14-6.21-7.7c-.5-.62-.89-1.1-1.34-1.81-1.85-2.92-3.18-3.92-4.94-6.29l-2.25-3.03-1.47-1.89-4.04-5.29-2.49-3.05-1.8-2.53c-.96-1.35-1.95-2.65-3.03-3.92-.77-.9-1.5-1.91-1.77-2.94l1.6-.58c.31-.11,1.02.51.96.84-.28,1.38,1.58,3.74,2.85,3.93.38.35,1.09,1.18,1.28,1.66.43,1.83,2.83,4.21,3.85,6.34,1.1-.01.97,1.13,1.43,1.66,2.07,2.37,6.18,7.59,7.89,10.12l.79,1.18c.2.29.62.65.92.96,1.96,1.96,3.15,4.48,4.85,6.66l1.47,1.87,3.25,4.17,3.31,4.61,1.59,1.97c-.19.81.18,1.12.63,2.04Z"/>
  <path d="M195.07,227.12c1.59,1.29.56,1.4,3.58,3.88,1.05.86,2.02,1.68,2.88,2.6l-1.41.41c-1.76-.95-2.86-2.62-4.18-4.13l-1.46-1.67-3.34-4.08-3.24-3.7-1.24-1.65-2.27-3.03c-.82-1.1-1.74-2.04-2.64-3.1l-2.21-2.59-1.24-1.4-2.07-2.48-2.73-3.26-2.28-2.72-5.89-6.66c-1.83-2.07-2.48-3.88-3.64-4.93l-.44-.4c-.09-.08-.29.39-.36.48l-.37.46c-.07.09-.33-.43-.29-.5l2.08-2.2c.19.13.53.38.51.36-.23.71-.33,1.34-.09,1.61l1.73,2.02,1.38.23c.27.58.56,1.21.91,1.7l1.1,1.57c.65.93,4.38,5.49,5.15,6.28.12.12.8.18.79.34l-.06.72,3.34,3.78c.74.84,1.27,1.58,2.04,2.36,1.45,1.49,2.15,2.8,3.29,4.11l1.45,1.68,4.25,5.08,3,3.51c.54.64.97,1.28,1.45,1.94l1.49,2.09c.3.42.7,1.02,1.04,1.29Z"/>
  <path d="M205.39,123.56l-.29-1.07c.35.29.74.87.99,1.4-1.33.17-1.69-.81-2.34-1.55l-2.13-2.43-1.9-2.18c-.61-.69-1.07-1.42-1.68-2.17l-3.89-4.79-3.95-5.55-2.56-3.93-1.48-2.38-2.05-3.22-1.17-1.94-1.06-1.82c-.71-1.22-1.63-2.41-2.26-3.65s-1.09-2.19-1.76-3.35c-.12-.21-.22-.6-.41-1.3l1.51.96-.54-2.14c.65-.03,1.29.24,1.58.75s.02,1.21-.31,1.68l.81,2.24c.28.77.79,1.49,1.63,1.83l-1.47-3c1.04.83,1.47,2.05,2.03,2.97-.31.36-.48.98-.18,1.43l1.36,2.02c.29.44,1.46.91,1.67,1.42.08,1.52.46,2.98,1.76,3.7l.39-.14c.08-.03.44.07.37.13l-.57.55c.42.98,4.92,7.88,5.34,8.37,1.41,1.65,2.61,3.09,3.73,4.95.96,1.59,2.24,3.01,3.37,4.49l1.88,2.46c.85,1.11,1.67,2.06,2.68,3.11l-.47.67,1.37,1.5Z"/>
  <path d="M191.83,189.77c-1.2-1.25-2.22-2.33-3.15-3.68-.47-.69-1.02-1.19-1.83-1.35l.38-.56c.12-.18-.23-.66-.39-.82-1.48-1.5-2.85-2.87-4.11-4.53l-2.49-3.28c-1.04-1.37-2.29-2.47-3.29-3.91-.7-1.01-1.47-2.07-2.26-3-.57-.67-1.3-1.08-1.65-1.95-.81-1.98-2.5-3.19-3.68-4.86l-2.54-3.59c-.94-1.33-1.75-2.68-2.61-4.08l-1.48-2.41,1.65.18c.28.02.01-.84-.25-.96l-1.77-.8.66-.25c.12-.05-.08-.43-.18-.77,1.93.02,1.96,2.8,3.54,4.61-.02.21-.54.77-.35.92l.96.71.39,1.4c2.3,2.48,1.31,2.02,3.52,4.88l1.67,2.17,3.3,4.11c1.49,1.85,3.05,3.54,4.39,5.45s2.61,3.75,4.13,5.53c.55.64.83,1.43,1.3,2.09,2.64,3.74,3.51,3.75,5.93,7.5.49.75,1.41,1.35,1.7,2.34l1.32,1.3c-1.53.1-1.91-1.47-2.79-2.38Z"/>
  <path d="M282.28,235.1c-.92.66-3.52-3.01-3.9-3.46l-1.64-1.95-2.96-3.51c-1.29-1.53-2.6-3.02-3.71-4.68l-1.34-2.01-1.23-1.67-1.24-1.65-3.12-4.27c-.73-1-1.44-1.93-2.09-3.01l-1.44-2.39c-.62-1.03-2.12-1.87-3.06-5.41,2.06,1.44,2.01,2.83,4,4.23-.58-3.16,2.53,3.14,2.62,3.42.33,1.14.38,1.44,1.12,2.24,1.01,1.09,1.58,2.74,2.43,4,.72,1.06,1.5,1.77,2.27,2.85l2.02,2.84c.07.1.78.15.7.24l-.53.56c1.58,1.21,2.7,2.74,3.85,4.43.79,1.16,1.89,2.13,2.77,3.23,1.07,1.34,2.12,2.67,3.11,4.06l1.37,1.92Z"/>
  <path d="M197.2,119.67l3.17,3.89c.22.27-.11,1.12-.31,1.14-.37-.37-.81-.72-1.03-.99l-3.65-4.52c-.38-.47-.92-.9-1.26-1.38l-3.68-5.15-2.02-2.3-1.89-2.67-2.9-4.05c-.49-.68-.94-1.2-1.58-1.87-1.53-1.6-2.91-4.13-4.13-5.85-.32-.46-1.4-.9-1.35-1.49.02-.17.19-.52.32-.51,1.35.07.23,1.07,2.73,1.05l-.42.37c-.09.08.1.46.21.54l1.72,1.25c.21.91.56,1.6,1.11,2.33.6.81,1.06,1.82,1.74,2.57s1.58,1.42,2.09,2.2l3.35,5.07c.6.9,1.3,1.73,1.94,2.62l4.25,5.84c.46.63,1,1.21,1.58,1.92Z"/>
  <path d="M209.14,52.6c-.55-.07-1.34-.55-1.67-1.08l-1.31-2.06-3.25-5.87-1.65-2.92-2.05-3.98c-.56-1.08-.87-2.08-1.33-3.37.27-.1.94.11,1.12.39l1.23,1.93c.77-1.01-.33-1.28-.57-2.01-.14-.41-.35-1.15-.59-1.42s-1.04-.24-1.52-.23c-.43,0-1.62-2.28-.59-2.84.7-.38,1.35-.17,1.58.6.17.55.77,1.08,1.01,1.61l1.44,3.14,1.22,2.44-1.54-.7c.44,1.23.89.35,1.84,1.66.13.18-.19.55-.38.89.78,1.67,1.49,3.52,2.44,5.02,1.98,3.09,2.01,3.18,3.39,6.51.28.68,1,1,1.19,2.29Z"/>
  <path d="M267.44,238.52c-1.37.1-1.31-.94-1.76-1.6-.65-.94-1.46-1.73-2.12-2.69l-1.47-2.12-2.82-3.65c-.79-1.02-1.49-2.05-2.18-3.11l-1.04-1.59-3.57-5.55c-.25-.4-.59-1.11-.81-1.53l-1.73-3.39c-.24-.47.17-1.16.46-1.53l.85-1.07,1.02,1.58c.23.36-.44,1.24-.71,1.73.39,1.23,1.24,2.48,1.99,3.62l.45.68c.11.16.44-.22.72-.35l-.38.84c-.1.22.42.66.57.89l5.55,8.55c.71,1.1,1.42,2.37,2.21,3.33,1.05,1.29,2.04,2.37,2.91,3.83l1.87,3.13Z"/>
  <path d="M202.34,55.53c.57.94.96,1.68,1.34,2.63-1.71-.05-2.01-2.19-2.71-3.04-2.5-3.05-4.56-6.19-6.54-9.56l-1.08-1.84c-1.89-3.22-1.15-2.25-3.47-5.63-.59-.85-.8-1.97-1.24-2.81s-1.48-1.46-1.28-2.47c1.63,1.06,2.35,2.61,3.25,4.13l1.87,3.16,1.56,2.52c.23.38,1.13.68,1.57.82.02.86.19,1.68.71,2.38.63.84.99,1.73,1.5,2.61,1.04,1.8,2.31,3.42,3.38,5.21l1.13,1.89Z"/>
  <path d="M247.98,155.65l1.91,3.05,3.07,4.97c-1.39.34-.89-.45-2.71-2.46s-3.11-4.57-4.55-6.92l-1.94-3.18c-.45-.73-1.07-1.42-1.66-2.23s-.87-2.17-1.27-3.19c-.35-.91-1.16-1.54-.84-2.77l1.71,3.07c.15.26.72.78.99.81s.58-.1.99-.22l.44.24c.12.07.04.61-.1.58l-.83-.17c0,.09.21.92.27,1.12.42-.28.94-.56,1.13-.37.21.21.55.82.49.81l-1.45-.1,2.14,4.14c.49.95,1.59,1.82,2.21,2.82Z"/>
  <path d="M178.62,119.76l-.71.73c-.62-1.46-1.15-2.47-2.13-3.53-.59-.64-.96-1.42-1.5-2.13l-1.83-2.43c-.58-.77-1.02-1.48-1.63-2.25s-.97-1.8-1.37-2.68l-.33-.72c-.07-.15.22-.46.51-.7l2.32,3.25c1.54,2.16,1.19,2.23,3.02,4.43.55.67.94,1.87,1.59,2.38l.68.53c.14.11-.28.54-.45.71.83.51,1.54,1.39,1.84,2.4Z"/>
  <path d="M187.08,80.14c.36.58.81.86.69,1.59l-1.23-.66c-.55-1.01-1.28-1.79-1.86-2.7l-3.63-5.7-1.85-3.7c-.12-.25-.27-.6-.32-.79s.9-.22.98-.04l.74,1.54c1.86,1.25,2.04,3.32,3.68,5.96l2.8,4.51Z"/>
  <path d="M172.73,126.76c-.8-.77-1.12-1.46-1.7-2.19l-3.58-4.59c-.68-.88-1.74-1.8-1.37-2.96l1.6-.43c.46-.12,1.41,1.15,1.2,2.64-.06.4.55,1.03.77,1.43.82,1.47,1.61,2.74,2.78,3.98.43.45.55,1.23.29,2.12Z"/>
  <path d="M197.36,76.64l-.39,1.67c-.73-1.2-1.05-1.75-1.93-2.46s-1.25-1.95-1.83-2.93l-2.09-3.52c-.22-.38-.38-1.12-.57-1.67.57.57,1.13,1.18,1.53,1.74l2.01,2.8c.46.64.88,1.37,1.37,1.98l1.91,2.39Z"/>
  <path d="M205.05,51.12c-1.06-.59-1.76-1.66-2.15-2.73l-2.29-3.53c-.25-.39-.56-1.28-.79-1.74l.52-1.18c1.76,3.68,2.09,2.85,3.76,6.73.32.75,1.6,1.14.95,2.46Z"/>
  <path d="M213.9,134.42c-.8-.26-1.27-.95-1.9-1.64l-1.37-1.51-.13-1.26-1.02-.39c-.28-.11-.11-1,.1-1.27.7.69,1.26,1.3,1.73,2.02l1.7,2.63.89,1.42Z"/>
  <path d="M211.97,134.2l-1.29-.35c.37-1.59-1.91-1.63-2.98-3.91-.07-.22.6-.65.79-.52.22.15.66.54.8.78l1.08,1.9,1.6,2.11Z"/>
  <path d="M257.09,156.51c-.77.84-.63-2.65-2.29-2.31-.2.04-.55.38-.72.4s-.37-.56-.33-.73c.09-.45,1.15-1.12,1.54-.87,1.16.75,1.7,2.2,1.8,3.5Z"/>
  <path d="M184.7,127.71l-.7,1.06-1.68-2.54-2.2-3.07c-.13-.18-.38-.48-.51-.62-.15-.18.31-1.04.46-.86.85,1.02,1.46,2.03,2.06,3.15,1.54,2.88-.39.62,2.57,2.88Z"/>
  <path d="M167.57,147.52c-2.19-2.11-3.18-1.34-3.6-2.41-.1-.26.78-.76,1.07-.61,1.16.6,2.13,1.76,2.53,3.02Z"/>
  <path d="M174.38,104.92c-.41.06-1.08-.94-.96-1.24.42-.34,1.24-.7,1.57-.48.42.29.89.86,1.28,1.45l-1.88.27Z"/>
  <path d="M161.09,172.97l-2.28-1.3c.26-.33.58-.66.79-.73.17-.05,2.24,1.65,1.49,2.03Z"/>
  <path d="M208.7,98.35c.28-.11-.01.05-.41.25l-2.07-3.17-.25-.39c-.08-.12.25-.29.38-.38.11-.08.18.5.28.65l2.07,3.03Z"/>
  <path d="M274.17,222.98c.06.08.21.47.23.56s-.33.22-.39.15l-.37-.49c-.65-.86-1.66-1.64-1.56-2.79l2.08,2.58Z"/>
  <path d="M248.14,168.15c.71.05,1.98,1.11,1.75,1.93-.07.24-.86.11-.96-.12l-.79-1.82Z"/>
  <path d="M271.48,219.86c.47,1.45-3.4-4.3-2.63-3.67l1.73,1.92.91,1.75Z"/>
  <path d="M257.74,200.45l-1.5-2.27-.47-.16c-.12-.04-.13-.39-.01-.44l.53-.22c.71.98,1.25,1.86,1.46,3.1Z"/>
  <path d="M160.17,186.12c-.03.07-.4.49-.55.4l-.68-.45c-.64-.43-1.33-1.32-.63-2.13.24,1.14.56,1.78,1.85,2.19Z"/>
  <path d="M183.12,230.05c.19.02-.04.7-.22.64l-.9-.32c-.23-.08-.65-.4-.74-.61-.13-.28.19-.82.71-1.04l-.13,1.15,1.3.17Z"/>
  <path d="M281.67,223.52l-2.04-2.18c-2.78-2.98,2.97,1.51,2.04,2.18Z"/>
  <path d="M232.79,43.11c.14.19.3.47.36.6s-.27.45-.4.41-.46-.23-.53-.37l-.61-1.19c.04-.05.57-.3.65-.19l.53.74Z"/>
  <path class="cls-1" d="M274.38,185.58c1.3,1.85,2.17,1.19,2.34,3.88-1.56-1.52-2.6-3.29-3.94-4.97-1.76-2.2-3.09-3.71-4.51-6.35,1.38.33,1.23,1.62,3.04,3.01.88,1.99,1.42,2.07,3.07,4.43Z"/>
  <path class="cls-1" d="M267.07,175.6c.51.71.91,1.38,1.11,2.28-1.07-.49-1.45-1.25-2.02-2.14l-1.6-2.48c-.84-1.29-2.08-2.39-1.83-4.08l1.64,2.37,1.49,2.35,1.22,1.7Z"/>
  <path class="cls-1" d="M233.77,144.76l-1.36-2.22c-.42-.69-1.17-.92-2.09-1.37.48-.36,1.98-.52,2.23,0l.97,1.98c.25.52,1.03.65.25,1.61Z"/>
  <path class="cls-1" d="M260.94,190.76c-.38-.05-1.1-.75-1.11-1.14l-.04-1.83,1.9,2.57c-.06.05-.63.41-.75.39Z"/>
  <path class="cls-1" d="M252.53,174.94l-1.76-1.87c.27-.27.68-.55.91-.52.87.14,1.2,1.6.85,2.39Z"/>
  <path class="cls-1" d="M258.28,171.35c-.42-1.17-1.86-1.5-1.47-1.71.12-.07.59-.38.73-.34.62.2,1.28,1.26,1.55,2.04h-.8Z"/>
  <path class="cls-1" d="M258.1,185.54c-1.11.65-1.45-.64-1.92-1.21l-.51-.36c-.11-.08,0-.66.13-.61l.74.29c.25,1.04.72,1.5,1.57,1.89Z"/>
  <path class="cls-1" d="M228.13,167.98c.07.15-.71.42-.76.27l-.23-.75c-.71-1.03-1.22-2.07-1.92-3.14l-1.59-2.42c-.55-.84-1.32-1.62-1.2-2.77l3.18,4.88c1.59,2.44.66-.07,2.53,3.94Z"/>
  <path class="cls-1" d="M251.67,94.94c-.53-.61-.91-1.23-1.32-1.98l-1.18-2.21-1.25-2.33c-.2-.37-.67-.89-.79-1.3l-.69-2.28c2.11.12,1.12.69,2.71,3.38.9,1.51,1.75,3.03,2.59,4.63.2.37.05,1.27-.08,2.1Z"/>
  <path class="cls-1" d="M253.51,98.04l-1.76-2.5c.3-.19.94-.42,1.19-.25s.77.64.9.91l.47.98c.12.26-.63,1.1-.79.86Z"/>
  <path class="cls-1" d="M222.05,141.6l-1.21-2-1.71-3.12c-.42-.76-1.06-1.32-.82-2.37,1.79,1.34,3.16,3.13,3.84,5.3l.9,2.91c-.23.18-.72-.26-1-.72Z"/>
  <path class="cls-1" d="M217.85,133.54c-.4.08-.96-.3-1.31-.71l-1.53-1.84c.42-.2.79-.29.87-.45l.56-1.12.82,2.71c.13.44.31.8.6,1.42Z"/>
  <path class="cls-1" d="M265.27,240.35c.62.75,1.82,1.01,1.49,2.19-.98-.92-1.68-1.69-2.5-2.66.09-.06.51-.24.59-.13l.42.6Z"/>
  <path class="cls-1" d="M262.72,236.64l1.32,2.08c-1.1-.72-1.91-1.71-2.46-3.06.63.02.82.47,1.14.98Z"/>
  <path class="cls-1" d="M188.14,47.54c.93,2.52,1.34,1.82,1.55,2.16.06.11.04.62-.07.56s-.61-.24-.67-.34l-1.98-3.27c.61-.45.98.32,1.18.88Z"/>
  <path class="cls-1" d="M188.4,43.93l-1.82-1.43c-.12-.09-.02-.92.11-.86l.71.32c.45.77.91.86,1,1.98Z"/>
</svg>