<?xml version="1.0" encoding="UTF-8"?>
<svg id="Layer_2" data-name="Layer 2" xmlns="http://www.w3.org/2000/svg" viewBox="0 0 432 288">
  <defs>
    <style>
      .cls-1 {
        fill: #fff;
      }
    </style>
  </defs>
  <path class="cls-1" d="M249.91,71.05c-.01.43-.01,1.05,0,1.44l-1.67.15c.33-.84.89-1.63,1.67-1.59Z"/>
  <path class="cls-1" d="M355.7-.65l-1.23,1.48-.75-.58-.31,1.07c-.39-.12-.74-.31-.81-.15-.08.2-.25.63-.25.63.26.09.53.2.51.33-.03.24-.19.41-.36.41h-1.65c.33.6.43,1.44-.19,1.89l.17,1-1.45.49.93.17c.15.03.12.49,0,.59l-1.08.85c.23.88.47,1.43.9,1.82-.33.06-1,.29-1.2.6-.19.29.09.8.3,1.36l-.37-.21c-.11-.06-.47-.35-.49-.23l-.13.72-.1.6c-.02.11.3.14.6.23l-.87,1.52.66.52-.68,1.79c-.04.11.48.47.39.54s-.28.23-.41.34l-.5.38c-.13.1.36.54.38.71l.26,2.57.19,1.24c.07.05.56.19.53.31l-.16.74.42-.12c.08-.02.31-.04.29.04l-.14.64c.39.32.71.63,1.05,1l1.13,1.25c2.02,2.23,2.95,1.83,4.6,4.32l2.04.2c.13.24.4.77.53.66l.66-.57c.66,1.29,2.09,3.18,3.79,2.75v1.62s-.67-.2-.67-.2c-.08-.02-1.63,1.92-1.81,2.45.44.2.72.4.87.32l.78-.48c.33.11.52.6.05.51-.54.3-.82.52-.33.43.42.07,1.11,0,1.09.2l-.09.97,1.08-1.14c1.05-.02,1.44.99,1.38,1.87.21-.28.41-.95.66-1,.29-.06,1.01.05,1.1.12l-.22.67c-.04.13.23.4.34.33l.64-.41.17.14c.15.12.41.34.42.23l.09-.82,1.1-.13c-.03.37-.04.82,0,1.02.44-.38.56-.78.7-1.26l.3.66,1.42-.03-.05-.84.63.8c.11.14.68-.03.85.03l1.34.45-.19.56c-.03.08-.06.32.02.3.17-.05.52-.15.63-.21l.51-.3c.1-.06.38.23.34.34l-.22.63c.61,0,.32-.16,1.89-1.15.18-.11.23-.63.21-.95l-1.51.41c-.08-.1.04-.77.23-.93s.68-.49.87-.34c.14.11.39.47.51.46l.79-.07-.43,1c-.07.16.07.6.15.77.45.89,1.55-1.53,1.84-1.36-.14,1.07-.27,2.02.14,2.37.07.06.68.01.63-.06l-.26-.44c-.12-.21-.18-.83-.04-1.03s.73-.21.9,0l.7-.98c.55.17.91.2,1.11-.02.27-.29.52-.9.53-1.19l.02-.56c0-.09.38-.01.37.07l-.08.41,1.09-.29-.48,1.8c.82-.44.78-1.38.9-2.13l1.11-.43.49.81c.22.35,1.41-.14,1.59.17.11.19.09.74.03,1.14-.09,0,.32.03.45.03.16,0,0-.53.03-.72l.55-2.29.97,1.15,1.16-.99c.09-.03.43.03.47-.09l.34-.95.53,1.16.35-1.03.36.43c.11.13.5-.14.59-.29.06-.1.2-.45.25-.39l.3.32-.75,1.29.9-.22c.18-.04.04-.49.03-.77.44-.2.81-.37.18-.3.04-.41.09-.61.21-.59l.61.09c.12.02-.16.55-.05.62.31.21,1.15.13,1.53.14.16,0,.55.27.7.32.18.06.97-.8,1.01-.52l.1.81c.92-.27,1.74-2.04,1.9-1.77l.33.58,1.22-.89s-.22-.24-.31-.34c-.12-.13-.04-.59.14-.6.19-.01.7-.05.67-.04-.09.35-.24.71-.13.79l.43.29-.37.36c-.09.09-.03.49.09.4l1.27-.9.81-1.59.6.99c.23-.33.41-.87.62-.83l1.05.19.36-1.39.12.77c.01.08.23.17.29.1l.3-.34c.12-.13.57-.36.55-.53l-.11-1.08c.48.14.85.77,1.05,1.32l.97-.56c.24-.14.7.36.97.72.51.67.55-2.37,1.27-1.79.8.64,1.57.87,1.58.85l.45-.94.34.88c.29-.34.63-.74.52-.95l-.53-.99,1.57.3.48-.04-.4.49c-.09.11.51.41.58.29.25-.4.91-1.3,1.39-1.21.58.1.72.18,1.12-.17.31-.27.22-.66-.04-.91.94-.24,1.03-.95,1.49-1.8l-.11,1.34c.68-.37,1.05-.8,1.51-1.54l.42.71c.2-.13.53-.42.68-.32l.79.52c.91-.64,1.89-1.46,3.04-1.03l-1.96.78c-.09.38-.19.57-.06.56.23-.03.84-.11.97-.19l1.7-1.05c-.03.39-.07.55-.29,1.31-.12-.16,0,0,.2.26l.68-1.33c.36.42.71.74,1.14.73v45.08l-.87-.32c-.14-.05-.55-.26-.62-.14l-.37.65-1.42-.32c-.2-.05-.56-.14-.65-.05l-.54.52c-.73.13-3.4.51-3.76.67-2.9,1.31-1.2.49-4.76,1.18-.37.07-1.03.2-1.37.18l-1.87-.1c-.17,0-.54-.29-.7-.35s-.41.42-.55.61c-1.63-.12-5-.12-6.51.86-.28.18-1.07.07-1.4.12-.6.09-1.11.16-1.75.18l-2.5.08c-.18,0-.57.37-.73.31l-.72-.27c-.98.37-5.12.55-5.95.48l-4.71-.43c-.2-.02-.7-.11-.77.03l-.31.67-.31-.69c-.08-.17-.71.12-.9.12-2.86.01-2.81-.57-6.33-.59-.09,0-.43-.1-.5-.15-.1-.07-.2-.26-.11-.34l.61-.49-1.99.37c-3.38-.02-.25-.02-3.5-.57l-1.35-.23.32-.97-1.95.59c-.05.29-.27.9-.61,1.27l-.79.86c-.22.24-2.04-.3-2.06.65,0,.4.17.93.8.73.05-.09-.18.31-.27.45-.1.16-.76-.16-.86,0l-.72,1.1c-.18.28-.93.29-1.52.25-.39-.03-.69.43-.93.99l-.61-.48c-.03.6.06,1.59-.3,1.81-.24.15-1,.05-1.12.26s-.3.7-.45.9l-1.28,1.67.85.82.8-.71-.09,1.2.53-.65c.1-.12.55-.26.54-.09-.01.15-.16.64-.19.76-.04.17,1.58,1.18,2.71.26l.21.52c.03.07.21.22.24.15l.18-.39.2-.43c.05-.11.47.11.41.22l-.44.87,1.45,1.09-1.67.09-1.33.13c-.13.61.1,1.2.72,1.7l-1.4.3c-.12.03-.43-.37-.53-.29l-.56.49,1.06.31c-1.19.09-3.39,1.28-3.53,1.04l-.5-.83-.74,1.16.43.17c.08.03.16.1.21.15.08.08-.4.33-.51.32l-.95-.08c-.21-.02-.24-.37-.4-.64l-.21.66c-.04.13-.67.02-.62-.11l.27-.59c.22-.48.47-.78.17-1.25l-1.33,1.43c-.09.1.3.7.17.72-.18.02-.61.02-.74-.09l-.35-.29s-.18.05-.16.1l.18.5c.13.35-.92.33-1.27.12l-.1,1.15c-.12.02-.58,0-.61-.15l-.11-.77-1.49,1.17.5.22c.12.05.35.34.32.36l-1.07.22c-.13.03-.5.42-.41.52l.41.49c-1.48,1.41.05,1.4-1.59,2.25l-.55.87c-.08.12-.39.44-.5.37l-.55-.35c-1.47.39-2.15-.41-2.45-.05l-.24.28c-.08.1.61.07.76.08l1,1.33h-.55c-.14,0-.3.32-.48.52-.36.34-1.57-.3-1.72-.83s-.35-.96-.72-1.59l.67-.15c.21-.05.12-.61.1-1.16.13-.02.75.21,1.08.38.13-.14.27-.28.2-.37s-.34-.47-.31-.57c.66-2.5.19-2.6,1.2-3.18-.06-2.67,1.92-2.52,1.45-3.68-.13-.31-.39-.71-.23-.76s.4-.07.8-.08c0,.13.17-.38.08-.49l-.52-.65s.35-.3.42-.24l.5.39c.13.1.53.49.64.36l.49-.62.38-.49c.1-.13-.41-.28-.75-.44l1.02-.66c.42.07.77.06,1.23.04h.36c.1,0,.26-.1.35-.15.12-.07-.36-.3-.5-.32l-.53-.08c-.1-.02.17-.38.29-.44l1.85-1.1-.63-.38,1.23-1.47,1.43-.03-.4-.8c-.09-.17.12-.46.26-.77l.74-1.62,1.1.77c.07-.09.25-.51.15-.6l-.49-.41c-.45-.38-.74-.56-1.45-.94,2.55-1.24,1.77-.03,3.19-1.72.38-.45,1.11-1.44,1.2-2.05.03-.22.68-.41.62-.22-.08.27-.17.44-.12.51l.29.37.6-1.97.49.45c1.06.97-.3-2.27,2.65-4,.63-.37.61-1.97.57-2.49l.92-.54-1.24-.21-.35-2.21-1.62-.39.19-.54c.03-.07.04-.31-.04-.3l-.57.14-.15-1.13c-.03-.25-.81-.18-1.02-.32l-.54-.36c-.36-.24-.14.36-.86.72-.11.06-.34-.18-.31-.31l.19-.82c-2.05.83-.94,0-3.01-.66-.17-.06-.02-.42.15-.87l-2.69-2.06-1.59.83c-.3-.22-.42-.37-.57-.33-.18.04-.52.3-.43.43l.61.82-1.41-.04c-.38.68-.94,1.28-1.52,1.63.39.59.39,1.34-.05,2.09l-1.38,2.33c-.63,1.07-1.21,2.09-1.7,3.26l-.31.73c-.07.16.4.46.46.51l-1.23.38.75.56c-2.16.84-.3.99-2.01,2.16l.02.53c0,.15-.34.35-.44.49l-1.27,1.82-1.33,1.98c-1.54,2.29-1.35.84-1.31,2.27-.96.94-1.78,2.37-2.08,3.73-.18.3-.95.81-.85,1.12l.18.54c.04.11-.46-.08-.57-.04-.44.16-.37,1.34-.57,1.78-.27.61-1.04,1.32-1.06,2.28h-.65c0,.87-.26,1.76-.99,2.08-.53-.65-.57-.5-.24.18-.22,1.07-.82,2.2-1.54,3,.11.24.29.64.17.83l-.59.87-.1,1.05-.85.71-1.05,1.62c-.64,1,1.39.69-1.49,3.05l.47.67c-1.41,1.35-1.27,3.42-1.69,5.17-.17.71-1.32,1.36-.29,2.41l-1.08,1.19c1.02.28-.43,3.56-1.1,4.31l.97.18c-1.95,2.32.18,2.29-1.75,5.53l1.09.25-1.27.97.82.62-1.83.65,1.08.93c-.3.03-1-.07-1.21-.3s-.42-.83-.53-1.15c.27-.02.35-.03.43-.04s.1-.25.11-.33c.02-.12-.34-.24-.47-.22l-1.21.18.21-.83c.03-.11-.3,0-.5.01l-.4-.36c-.11-.1-.36.56-.47.68-.55.05-1.39-.71-1.55-1.26l-.92-.47-.19,1.87c-.22-.42-.36-.99-.45-1.47l.39-.24c.07-.04-.04-.34-.12-.33s-.41.06-.49.05l-1.29-.16.42-.52c.1-.12-.57-.28-.82-.35l.11-.95-.61.49c-.14.11-.52-.27-.67-.38l-.52-.39c-.15-.11-.49.36-.55.54l-.16.49c-.69,2.07-.04-2.36-.18-1.86l-1.1.03-.14-.86c-.02-.14-.51.31-.61.37l-1.24-.49,1.08-.49-1.57-.36-.65-1.17-.63.18c-.1.03-.29-.21-.25-.31s.22-.34.32-.39l.41-.21c.12-.06.13-.52,0-.47l-.79.28-.35-.39.78-1.42-.58-.22c-.15-.06-.02-.36.09-.78l-.98-.19.64-1.3s.22.27.31.37c.1.12.46-.21.56-.33l.38-.48c.1-.12-.41-.32-.64-.43l.87-1.38.47.39c.07.06.39-.38.31-.43-.36-.18-1.15-.4-1.62-.5l.22-.8c.05-.18-.4-.26-.96-.4l1.77-1.02-.6-.43c.15-.07.54-.19.6-.34l.26-.63c.12,0,.58.11.53.02s-.15-.5-.05-.53l.77-.23c.16-.05-.23-.68-.39-.74l-2.48-.98c.31-.18.7-.34,1-.42.22-.06.44.42.63.63l.27-.89c.06-.2-.27-.46-.55-.71-1.58-1.44.7-2.34-.15-3.05l-1.61.3-.4-.34,1.68-.41-.28-.31-.99-.06c-.21-.01-.48.22-.83.47l-.68-1.47,1.65.62,1.14-.96c-.86.04-1.28.08-2.03-.27l-1.08.26.64-.64c.13-.13.06-.44.06-.95-.07.04-.31.26-.82.72l-.25-.99.28-.03c.08,0,.34-.12.28-.15l-.54-.3c-.06-.03-.32-.07-.38-.06-.1.01-.36.17-.29.25l.38.47-1.45.82c.49-.89.87-1.46.76-2.4l-.28.49c-.07.12-.4.12-.55.17-.38.3-.58.48-1.09.57l1.01-1.22-.82-.17c-.21-.04-.54.35-.71.56l-.34.42c-.07.09-.38-.17-.32-.27l.29-.49.23-.4c.05-.08-.3-.17-.39-.23l-1.23-.75c-.14.15-.61.68-.51.57l-.82-.71c-.14-.12-.37-.46-.52-.43l-.66.13-.08-.3c-.03-.1-.2-.42-.26-.33l-.44.73-.95-1.36c-.06-.08-.22-.39-.27-.33l-.31.35c-.22.25-.79.74-1.12.75s-.75-.75-1-1.06c-.66.05-1.98.4-2.47.02-.28-.24-.72-.76-.82-.52l-.22.55c-.05.14-.6.23-.58.08.01-.12.02-.36.01-.46-.06-.77-.76.91-.99.24l-.43-1.2c-.67.43-1.01.57-1.65.38l-1.27.87-.1-1.71-.94,1.69-.43-.96c-.53-.21-.85-.43-1.41-.92l-1.17,1.23c-.07.07-.1.46-.14.55-.07.13-.51.09-.52.05l-.52-1.23-.45,1-1.38-1.08,1.57.14-1.24-1.07-.88,1.04-.73-.46c-.16-.1-.25.33-.34.58l-.88-.36c-.17-.07-.47.36-.73.6l-1.55-.88-.76.77c-.07.07-.49.05-.45-.04s.14-.33.21-.41l.3-.36c.08-.1-.22-.41-.33-.34s-.39.32-.52.31c-.62-.07-1.64-.76-2.21-1.46-.1-.13-.32.56-.39.84-.16-.11-.73-.2-.86-.01-.25.35-.28.55-.55,1.28l-.71-1.95c-.9-.12-1.83-.67-2.4-1.4l-.59.46c-.1.08-.4-.15-.41-.27l-.1-1.5s-.42,0-.41.11l.1.68-1.76.18c.2.24.29.27.68.28.14-.3.09.4-.03.52-.13.13-.51.49-.51.49-.27-.53-.38-1.18-.67-1.16l-1.26.13c0-.09.03-.5.17-.54l.78-.19-.91-.4c-.25-.11-.32-.84-.35-1.1-1.26.67-.28-.12-2.06-.22-.02.02.56-.5.41-.64l-.64-.61c-.17-.17-.65.45-.94.66-.22-.44.07-1,.62-1.63l-1.48.1c-.14-.72-.48-.98-1.15-1.24-.39-.29-.1-1.49.21-1.97l-1.13.07c-.15,0-.57.4-.45.49l.69.55-1.52.07-.34-.91.05-.64c.72-.04.7-.04.14,0l-.41-1.1-1.25.23c.24-.4.43-.73.42-.94.35-.03,1.06.25,1.31.36l.97-.89-1.2-.38-.24.42c-.07.12-.5.18-.48.04l.08-.66c.02-.16-.26-.27-.43-.33l-.3-.83-2.16-.56.39-.35c.09-.08.14-.51.03-.45l-.77.41c-.1-.46.38-1.18.9-1.65.03-.1-.5-.49-.71-.58-.18-.07-.38.35-.55.55l-1.46-.02c-.07-.25-.08-.55-.21-.54l-.78.05c.13-.27.63-.79.97-1.03.2-.14-.13-.55-.38-.76l-.5-.42c-.13-.11.47-.34.76-.52l-1.65.09-.23-.94c.33-.23.55-.39.43-.49-.2-.18-.54-.51-.62-.38l-.47.73-.57-2.03,1.19.12c.15.01.42-.04.54-.11.15-.1-.04-.53-.22-.53l-1.34.03c.13-.44.25-.8.27-1.1s-.7-1.02-.76-.95c-.34.68-.63,1.11-1.03,1.29l.3-1.26c.08-.33.47-.87.75-1.3.16-.25-.69-.85-.9-.65l.41.65c.09.14-.67.39-.73.24-.23-.48-1-1.14-1.71-1.33.46-.38,1.35-1.06,1.38-1.51-.14-.71-.21-1.3.05-2.03l-1.75.06.18-.79c.04-.17.61.01.76.11l.36.25c.1.07.34-.12.5-.22l.52-.35c.11-.07-.12-.51-.24-.5l-.58.04-.6.04c-.12,0-.26-.34-.15-.39l.62-.32-.97-.51,2.09-.36c-.85-.7-1.48-.41-2.68-.29l.78-1.08c-.7-.21-1.41-.83-1.71-1.61l-.47-.1c-.71-.15.65-1.38.27-1.74l-.87-.82c-.34-.24-.52-.4-.27.21l-1.32.37-.52-1.14,1.53-1.59c-.85-.27-1.43-.13-1.99.23l-.54-.5c-.11-.1.31-.43.45-.47s.27.09.67.3c.22-.38-.49-1.17-.56-1.61l-.24-1.52,1.71-1-1.48-.04-.39-.4c-.1-.1-.58.02-.72-.06l-2.04-1.11-1.48-.8.83-.82-1.66.39.47-.97c-.67.22-1.06.67-1.66,1.37l-.26-1.01-1.15.74c.24-1.47,1.53-.92,2.57-1.89l-2.75.41c-.59-.68-1.18-1.26-1.82-1.75l.55-.32c.13-.08-.19-.52-.26-.65l-.34-.64c-.08-.15-.53-.07-.82-.1.06-1.56.83-.05.52-1.27-.03-.1-.4.26-.5.27l-1.88.12c.4-.4.68-.7.62-.97-.08-.36-.33-.97-.41-.98l-.67.53c-.13.11-.38-.55-.55-.59-.51-.1-1.34.38-1.99.72l1.03-1.23c.1-.2.27-.68.39-.87l.37-.6c.27-.44-.83-.12-1.6-.84-.2-.19-.03-.73.03-1.21-.3.14-.86.53-1.01.8l-.33.61c-.07.13-.42-.16-.59-.24s.23-.55.24-.76c.04-.78-.72-1.5-1.74-1.55l1.59-.66-.59-.08c-.1-.01-.09-.34-.07-.36l1.21-.43-2.29-.71c.42-.31.63-.44.78-.35l.67.43.33-1.41c-.89.46-1.44.74-2.58.95l1.03-1.08-.03-.41c-.02-.26-.7.49-.73.47-.1-.07-.47-.29-.36-.33,2.06-.79.22-1.1,2.55-1.11l-.18-.58c-.03-.11-.22.11-.37.24l-2.34-.28.68-1.39-1.85-.03c-.17-.16-.43-.57-.62-.55l-1.08.1c.11-.24.33-.64.61-1.1.06.04-.31-.18-.45-.26-.35-.21-.5,1.09-.7,1.02l-.67-.25c-.2-.07-.54-.11-.91-.15l.92-2.07c.11-.25-.46-.71-.73-.86l.58-.44s-.52-.21-.6-.1l-.47.67c-.21-.29-.65-.74-.97-.82-.07-.02-.37.27-.39.35-.03.11-.14-.21-.28-.58l-1.96.21-.55-1.18c-.12-.26-.78-.16-1.05-.26-.93-.55-1.5-.87-2.81-.52l.36-2.07c-.42.29-.68.76-1.05,1.21-.7.87-2.6.8-3.37.15-.42-.36-.91-.78-1.2-.62-.38.21-.7.79-.68,1.12l.03.46c0,.11-.4.07-.49,0,.12-.68.31-1.47.51-2.15l-1.3.45c-.25.09-.74.46-.94.52l.4-1.05-1.36,1.14-1.12,1.03c-.53.14-1.11-.76-1.56-1.42l.07,1.68-1.16-.05c-.01-.63-.35-.89-.91-1.13-.05-.17.04-.63-.14-.67l-.85-.21.58,1.05-1.29.96.49.52c.08.09-.09.39-.2.44-.15.07-.53-.04-.68-.15l-.96-.71.03,1.36c-.8-.07-1.21-.68-1.78-1.43-.9.88,0-.27-.29,1.91-.02.13-.46-.02-.46-.15l.04-.59c0-.13-.02-.5-.05-.63s-.34-.24-.48-.26c-.18-.02-.21.69-.39.73-.53.12-1.61.39-2.07.59.18.29.39.67.5.57l.61-.59c.55.09,1.21,1.34.36,1.86l.03-.91c.17-.03-.55.03-.84.06-.27.03-.16.61-.03,1.1.04.04-.54.31-.59.18l-.26-.71-.55.45c-.17.14.15.71.23.93l.25.69c.07.19-.5.44-.63.28l-.53-.64c-.12-.15-.55-.11-.58.09-.05.27-.17.86-.13.66l1.38.77-.93.44c-.45.21-.86.45-.97.84-.17.59,0,1.11.38,1.43l-.2,1.58c-.03.2,0,.85.13.99.16.17.38.25.71.44l1.45.95c-.5.31-1.12.11-1.75-.3,0,.52.25,1.63-.37,1.79-.24.06-.74.04-.92.07-.22.03-.38.69-.38.78.83-.43,1.03-.53,1.91-.32l.27-1.72c.9.43.57,1.27.17,2.07l1.13-.42c.05-.03-.05.62-.27.7l-1.02.37c-.13.04.11.45.25.49.15.05.56.17.53.16.08-.37.09-.62.19-.63s.4,0,.5.01c.15.01.04.36-.07.76-.08.29.14.78.48,1.02.59.41,2.01-.58,2.57-1.86.21.62-.29,1.81-.98,2.03l-.62.19c-.14.04-.34.39-.23.48l.57.5c.13.11-.46.51-.4.66l.29.74,1.48-1.2c.03.35.05.57-.03.66l-.65.77c1.12-.33,1.93-.76,3-1.39l-.61,1.56-.54-.04c-.16-.01-.33.44-.35.62,1.12-.32,1.66-.11,2.54.38.59.33.91.39,1.26,1.13.15.32.86.94,1.2.85l1.61-.44-.93,1.26.76.38c.14.07-.22.43-.42.67-.03,0,.51.22.57.09l.39-.86.12,1.06.61.14c.11.02.06.23-.01.31l-.55.58,1.98.92c.15.07.71-.02.71.13s.04.65-.11.62l-.88-.2c-.31.38-.21,1.62.15,2.06l.5-.14c.07-.02.37,0,.32.06l-.55.62,1.64,1.3c-.7.08-1.24.16-1.61.46l1.05.22c.15.03.7,1.12.64,1.21l-.41.6c.17.02.58.04.63-.09.07-.17.24-.59.37-.73l.66-.73c.15-.16-.33-.6-.64-.91-.11.08.31-.22.44-.31.16-.11.43.42.45.62.01.21-.05.79.1.76l.74-.17.67.02-.98.97.3,1.21,1.22-.3.49-.85c.54.3.67.97.72,1.8l.81-.45c.13-.07.39.18.48.28l-1,.49c-.22.11-.19.75-.14,1.06.2-.25.36-.7.6-.69l1.05.03c-.82.68-.92.79-.92,1.83l1.27-.1c-.27-.25-.79-.61-.63-.69l.81-.39.32,1.52c.25-.33.59-.93.45-1.14l-.61-.87,1,.33c.16.44.27.67.46,1.06l.62,1.25-.55.52c-.13.12,0,.71.07.79l.49-.56c.1-.11.51.01.64.1l.4.28c.11.07-.29.33-.48.49l1.16.65c-.41.06-.74.09-.96.05l-.8-.13c-.19-.03-.1.64-.11.85-.01.45,1.14-.23,1.07-.35,0,0,.23.19.28.24.07.08-.08.17-.29.33l-.39.31c-.66.53,1.3-.02,1.85.34l1.86-.53-1.52,1.08s.24.2.35.21l.73.06-1.07.79,1.23-.05c.3-.01.41-.66.53-1.14.13.14.4.4.38.58s-.25.66-.39.77l-1.52,1.14,1.08.75c.14.1.6.41.72.3l.72-.61.6.92-2.2.08.57,1.17-1.67-1.02.13.89c-1.35-.61-2.89.49-3.74,2.37.52.33,1.11.18,1.99-.03.49-.18.19.07-.19.38l-.64.42c-.17.11.37.59.47.72l-1.01.16c-.21.03-.2.57-.3.9l-.22-.57c-.07-.18-1.69.05-1.79.43l-.25.98c.45.15.55.19.52.18-1.55.45-2.43.9-3.14,2.33-.32-.42-.49-.94-.69-1.7-.43.02-.47.58-.42,1.21,0,.14,0,.41-.02.53s-.42.2-.43.08l-.05-.7c0-.1.02-.55-.07-.5l-.39.22-.53.57c-.13.14-.58-.44-.65-.41l-1.12,1.11c.24-.86.35-.99.67-1.67l-.97.38c-.28.11-.32.33-.24,1.13l-1.78-.41c-.03.15-.34.84-.57.87-.5.07-1.51-.74-1.87-.95-.57.28-1.18.5-1.75.3l-.37.56c-.09.13-.63-.13-.77-.06-.28.13-.18.96-.12,1.25-2.57-.5-1.66.7-3.21-.31l-.46.64c-.1.13-.51-.25-.64-.34-.17.12-.35.33-.43.22l-.55-.68c-.01-.49-.02-.45-.03.03l-.31.66c-.06.13-.5.09-.55-.04l-.27-.65-.33.51c-1.88-.62-1.15.81-2.17-.07l.64-.46c.11-.08-.04-.5-.13-.6-.11-.14-.51.3-.77.45-.5.31-1.49-.48-2.01-.52l-1.83-.14c-.13,0,.05-.75.17-.7l.67.28c.22.09.74.03,1.11-.13-1.99-1.09-1.44-.35-2.57-.29-.11,0-.52-.36-.53-.25l-.11.69c-.02.15.51-.07.67-.06.19.01-.12.79-.29.7l-.8-.46-.75.39-.76-.45-.89,1.39,1.08.14c.17.02-.42.69-.36.57l-1.78-.6c-.66,0,1.63-.93.72-.88-1.31.07-.46.41-1.02.19l-.89-.35.9,1.15c.06.11-.2.64-.42.68s-.75-.04-.98,0l-1.54.19-.5-.3c-.14-.08-.4.29-.52.48l.6.05c.15.01-.03.75-.18.71-.34-.09-1.12-.28-1.48-.37l.24.38c.32.51-1.26-.22-1.32,1.46l.59-.48c.12-.1.44.27.6.31l.54.14c.08.02.06.08,0,.15l-.27.38c-.43.61-.82,1.06-1.46,1.46l.35,1.03c-.6.3-1.03,1.18-.65,1.62.47.54.78,1.02.92,1.5l-.86-.16c-.17-.03-.42.2-.6.37l1.02.45-.48.25c-.11.05-.19.35-.09.39l.8.32c.16.07-.12.66-.16.69l-.66-.65-.14.88c-.18,1.13-2.23-.6-2.16.45l.59.23c.08.03.09.1.03.15l-.38.27c-.13.09-.47.25-.43.35l.29.64.24.53c.06.14-.23.4-.42.62l-.81-1-.19,1.76c-.07.14-.63.13-.69-.07l-.35-1.17-1.37,1.09h1.35c.02.42-.14,1.43-.32,1.62-.68-.12-1.19-.08-1.93.02-.04.54.34,1.15.85,1.61l.11,1.65-1.61-.26.62-.79c-.73-.22-1.36-.27-1.98.41l1.15.31-1.49.37.69.66c.38-.23.88-.44,1.25-.39,0,.3-.47.89-.75,1.01-.91.37-1.65-1.2-2.52-.33l2.56,1.11c-1.03.79-.91,2.14-.62,3.61l2.12-.09c.1-.07.42-.34.45-.24.04.15.1.37.01.41l-1.61.75c1.06.07,1.94.05,2.35,1.07l-.75.04c-.15,0-.27.49-.13.52.24.05.62.1.94.12l.19-1.48,1.97.16-1.06.42c.02.21.1.49.02.56l-.48.38,1.36.75c.19.11.83-.17,1.05-.09.25.09.51.52.75.91.29.47,1.72.05,1.75.45.02.19.07.7.06.63l-1.24-.39.73,1.27,1.44.32-.68.5c-.15.11-.21.52-.2.76l.74-.56c.67-.51,1.4,1.67.95,2.92.33-.15.7-.29,1.25-.44l-.87,1.59.8.37,1.75,2.29.13.5c.04.14.55.03.5-.12l-.24-.67c-.04-.13.18-.45.31-.42l1.59.42c-.96.43-1.66,1.2-1.85,1.99l1.43.7-.91,1.44,1.13-.05c.08,0,.32-.41.34-.33l.18.66.82-1.43v.97c0,.19.2.21.8.55l-1.01,1.63,1.38-.9.96,1.1c.17.26-.35.92-.6,1.2l2.35.23.88,1.15c.42.01.77,0,.32-.09l-.55-.65c-.12-.14.3-.62.47-.56s.37.19.74.4c-.01.1.19-.47.06-.53l-.92-.43c-.09-.11.27-.48.4-.41.43.23.82.34.83.51.13,1.49.54,1.47.21,1.47h-.58s.68,1.07.68,1.07l-.21.38c-.05.08.42.29.53.3l2.73.18.32-.55c.05-.09.35.26.43.33.12.08-.09.34-.21.54s.07.78.2.95l1.66-.11-1.08.61,2.16.39-.1.49c-.02.12.27.35.32.39l.22-.72c.04-.13.47.2.6.23l.46.13c.13.04.24.33.33.51l.92-.68c-.04.31-.23.6-.48.93l.83.16.2,2.5.47-1.07c.2.21.95.69,1.34.83.14.05-.03.61-.15.53l-.66-.49c-.29.27-.87.98-1.22.87-.12-.04-.48-.31-.59-.38-.14-.1-.43.28-.56.51l1.61.55c.13.04-.04.34-.25.73-.26-.08.18.06.24.08l.68-.52c.14-.11.27.55.27.72v.33c0,.11.36.23.4.13s.14-.39.12-.5l-.14-.72c-.04-.19.43-.33.71-.39l-.29,1.78-1.23.49,1.11.32-.39.38c-.06.05-.14.22-.19.3-.04.07.34.07.4.07h.38c.13-.01.33.42.2.44l-.71.11c-.34.05-.66.11-.85.15s-.04.94.12.81l.6-.51c.13-.11.41.05.79.26l-1.04.52.4,1.67-.49-.82c-.8.4-.83,1.39-.24,1.96.15.14.56.46.48.62l-.39.72c-.1.18-.16.73.03.79l.93.28c-.71.34-1.36.79-1.53,1.54l1.76,1.17c.11.35-.52.63-1.17.69l-.05.41.85.19c.17.04-.28.52-.44.7l.21.27c.04.06.33.26.26.25l-.62-.05c-.14-.01-.46-.02-.47.1,0,.13-.03.49-.03.45.32-.08.66-.22.7-.1l.19.62.13.44c.02.08.15.31.21.25l.44-.55.3.83c.06.17.45.28.57.33-1.31.78-1.06,2.97-1,2.96l.79-.15c-.05.44-.15,1.05.07,1.22l.44.35c.1.08-.36.27-.49.29l-.72.11c-.13.02.1.51.23.51l.76.02c.23-.23.11-.1-.39.45l1.06.11-.96,1.57c.79.15,1.25.2,1.27.45s-.29.66-.59.9c-.01.07-.11.61-.06.33l1.34-.59-.34.66s.2,1.05.46.84l.45-.36.03-.41c0-.08.28-.31.29-.23l.11.73c.08.56.05,1.03,0,1.77-.06-.02.23.07.29.09l.51-.21c.09-.04.22.35.13.39l-.49.19c-.19.07-.56.46-.44.62.19.24.59.73.55.68l.44-.91c.07-.15.46-.08.64-.03l.49.13c.09.02-.02.41-.11.39l-.69-.16c-.42.36-.82,1.3-.88,2.1l.74-.49c.06-.07.12-.13.12-.05l-.04.43-.06.77c-.01.16.47.13.54.16l.55.91-.11-1.2,1.65.74c-.91.53-1.36.74-2.15,1,0-.05-.02.21-.03.32.11-.03.32-.09.34-.08.02,0,.13.21.17.28l-.24,1.07.66-.18.27-.71c.05-.13.29-.07.81-.08.17.3.04.07-.22-.39-.04.15.05-.18.08-.28.04-.13.69.12.67.25l-.14,1.27c.43-.18,1.11-.39,1.61-.41.04.2-.19.69-.38.68l-.42-.02c-.08,0,.05.16.21.39l-.36,1.35c-.06.21-.09.36-.1.48s.4.32.5.24l.59-.51-.19.94c-.04.21.23.5.46.86-.55-.07-1.01.17-1.47.73l.69.5c.35.25,1.59-1.04,1.56-.44l-.03.5c0,.07,0,.24.07.23l.6-.14-.3,2.02-1.03.05-.26-.94c-.55.7-.01,1.97.76,2.24,1.02-.79.96-1.03,2.36-.34l-1.07,2.06c1.45.1,1.2,2.03,1.79,2.08l1.32.11-.18.71c-.04.17.29.47.44.69.36.54-3.3.66-.99.77l.44.02c.13,0,.41-.05.42.04l.06.59c.74-.06,3.55.96,2.4,1.37l-.74.26c-.27.1.03.84.16,1.1.15.3.86.33,1.45.31l.3.99.09-.86c.02-.16.74-.19.71-.04-.05.34-.21.94-.33,1.33l.29.48c.09.15-.1.47-.21.67l-.23.4c-.05.08.05.45.14.41l.58-.28.39-.19c.08-.04.42.01.37.09l-.37.61.28.64c.09.21-.6.53-.91.73-.11.07.35.31.5.23l.6-.34c.88,1.5,1.23.24,1.86,1.25.19.3.08.82-.13,1.35,0,0,.15.14.24.22s.5-.15.57-.25l.46-.65c.1-.14.44.05.72.23l-.75,1.81,1.2.21c.25.04.18.59.14.93l.86-.02c.49-.01.27,1.13.34,1.14l.7.15c.22.05.64.28.82.49s-.32.71-.46.9l.17,1.4,1.03.61c.07.04.02.49-.05.46l-.37-.15-.45.37c-.14.12.01.67.13.81l.45.52c.09.11.55-.35.68-.3l1.33.59c-.22,1.04-.3,1.78-.12,2.68l.58-1.9.63,1.64,1.07-.02c.17,0,.45-.4.57-.54.05-.06.34-.09.35-.02v.27s.31,1.16.31,1.16c.3.12.44.17.38.19s-.33.28-.31.33l.35.86-.83-.05c-.17.15-.6.47-.84.52l-.48.11c-.64.15,1.37.31,1.41,2.09l.67-.37c.11-.06.39.11.52.16.68-.59,1.45-1.15,2.22-1.56.14.53.2.63.09.68-1.74.65-1.28,1.56-3.35,1.66l-.77,1.29.32.48c.07.1.43-.03.57-.06.12-.02-.2-.52-.1-.59.63-.49,2.79.12,1.82-.41l-.47-.26c-.13-.07.23-.47.35-.39l.66.42c.34.22.98-.47,1.03-.91.02-.19.07-.46.09-.6.02-.12.19.11.38.34.39.24,1.11.59,1.51.65l.39.05c.06,0-.12.24-.17.27l-.66.44.36.11.32.09,1.71.05c.52.01.62-.56.51-.56h-.62c-.08.01-.32.2-.39.15l-.43-.33c-.1-.08.36-.34.48-.31l2.09.46c.13.03.14.52.16.76l1.91-1.49-.91-.96,1.08.24.46-.62,1.36,1.29.95-1.41.43.98.64-1.96c.3.3.38.45.47.39l.56-.33c1.29-.75,1.09-2.66,1.38-1.67.32,1.09-.76,1.08.03,1.84.24-.46.46-.94.65-1.15l1.08-1.25s-.08-.06-.66-.5c.26-.26,1.08-.39,1.67-.35l.18-.35c.05-.1-.07-.22-.25-.51.58-.7.8-1.76.75-2.74l-1.05-.57c.66-1.35,1.72-2.22,3.5-2.28.13-.16.3-.7.11-.54l-.7.16c-.13.03.01-.4.08-.52l.75-1.44.44.19-.3.47.56.38c.36.24.11-.52.69-.9l.52-.34c.16-.1-.22-.69-.3-.62-.41.35-1.07.56-1.42.2.22-.12.62-.24.73-.35l.96-.93c.06-.05.36-.15.44-.17s.38,0,.33.06c-.07.1-.33.47-.33.59l-.05,1.65.75-.02c.15,0,.29-.46.41-.72l1.35-.23c.1-.44.27-1.16.59-1.17l.87-.03c.16,0-.03-.44-.06-.78l.9.52s.25.27.29.33c.04.05.2-.16.2-.22l.02-.38c.81-.66,1.56-.92,2.76-.91l.3-1.43.91.43c.19.09.14.56.02.74l-.3.44c-.05.07.33.21.38.13l.2-.33.79.35c.64.28.85-1.54,1.22-1.76.19-.12.55-.04.99.01.24.03.28.55.22,1.08.03.44.19.08.24-.29l.46-1.1-1.11-.74.65-.08,1.88-.11.06.56c-.46.05-.78.03-.8.14l-.1.59c-.01.08-.32.24-.38.3-.05.06-.06.18.01.17l.48-.07c.39-.07.85-.13.25.07l.22.55c.05.12-.14.29-.3.49l-.5.64c-.12.15-.47-.02-1-.22.02-.28-.05-.19-.38.31l.52.96c.1.18.37.65.29.8l-.44.77,1.03-.45s.12.51.21,1.12c0,.48-.22.22-.43-.22-.06-.05-.42-.3-.43-.2l-.11.75c-.01.08.05.46.13.44l.87-.16c-.05.13-.36.59-.7,1.07l.67.42-.68.51c-.38.29.97.63.91.69l-.44.47.48,1.04-.36.34c-.09.09-.1.41-.07.4.7-.2.81-.12.49.21-.16.35-.27.58-.22.47.94.23.83.87.87,1.63l.6.1c.13.02.03.46-.05.57-.05.06-.36.24-.31.3.08.08.26.41.35.34s.38-.28.43-.38l.31-.55c.08-.14.48.25.62.32l.35-.04c.73-.08.13-.02-.53,1.28-.11.22.28.91.5.81.4-.18,1.33-.15,1.24.14l-.24.75c-.05.14.24.4.36.49.79.6.28-1.77,1.8-1.49l.15,1.98c.02.32,1.07.55,1.26.61-.1.4-.18,1.1.06,1.46.19.3.86.58,1.21.51l.64-.12c.43-.08-.35,1.23-.04,1.22l.69-.03c.13,0,.37.1.49.15.38.19.62-1.55.88-.5l.13.54c0,.22.02.69,0,.39l-.77.13c-.56.1,1.12.89,1.07,1.13l-.23,1.13c.09.02.29.08.23.07l.28-.52c.04-.08.4-.22.41-.13l.04.66s-.16.27-.2.33l-.48.63c.86.34,1.61.63,2.38.8l.51.11c.1.02-.11.33-.18.41l-.3.33c-.05.06.33.05.47.06l.8.03c.41.02-.23,1.5,1.51,1.91-.17.34-.45,1.01-.18,1.25.33.3,1.08.68,1.41.81.28.39-1.11.11-.88.44l.34.5-.1.43.45-.28c.2-.22.21-.27.23-.19l.07.46c.02.12-.02.46-.03.57s.43-.05.56-.07c.17-.03.72.15.64.31l-.45.99.8.17c.21.05.26.36.49.91l.91-.66c.08-.06.39-.13.48-.15s.17.28.14.36c-.27.59-1.37.59-1.86.72-.23,1.07.41-.68,1.93,1.75l1.37.15c-1,.31-1.71.69-2.32,1.35l.3.28c.4.38.18-1.27,1.99-.67-.06.34-.16.56-.07.63l.52.37-.35,1.25-.83-1.13c-.09-.12-.07-.48-.08-.63,0-.08-.22-.41-.25-.34l-.19.43-.34.77c-.27.62.83.44.68.8l-.21.5c-.04.09.07.36.14.29.72-.65,1.01.02,1.26-.49l.42-.87c.12.3.17.69.17.96v.51c0,.65-.01-.04-.63.17l-.48.16c-.1.03.11.3.12.4-.13-.74,1.97.55,2.29,1.28l-.2.52c-.03.08.02.41.09.37l.41-.24c.1-.06.33-.19.31-.19-.02,0,.28.13.35.17l.29.16-.21.5.06.36,1.81-.31-.67,1.05c-.09.15.1.58.26.55l.81-.16-.08.98c-.02.2.44.34.71.38.14.35.54,1.02.91,1.16l.87.33c.19.07.16.41.12.76-.43.34-.66.55-.29.33.58.12.99.12,1.08.28l.44.82.29-.45c.04-.06.16-.32.2-.26l.33.49.2.31c.23.35-.61.74-.36,1.01l.47.52c.37.41,2.14,1.12,1.08.96l-.47-.07c-.13-.02-.34-.03-.45-.03-.14,0-.02.47.08.56.2.2.54-.38.68-.09.06.11.2.4.17.33l-.68.14c.35.32.85.88,1.15.73.07-.04.29-.15.34-.18l.38-.16.1.49s-.18.17-.25.21l-.35.22c-.06.04-.1.31-.02.29l.76-.22s.06.27.08.36l-.41.33c-.09.07.13.29.25.36l1.33.48-.05,1.33-.05,1.15-1.12.44,2.06.34c-.04-.47.04-.07.09.22l.14.42c.06.19.1.3.04.28l-.67-.18c-.21-.06-.44.68-.26.81l.75.54-.19,1.11.95-.64c.1-.07.28-.15.25-.07-.04.1-.2.5-.26.59l-.39.56c-.05.08-.06.46.03.42l.57-.3c.12-.06.5-.17.65-.21.17-.05-.05.64-.04.73,1.17.75.7,1.67,1.09,1.49l.58-.26c.06-.49.04-.06.01.3l-.27.34c.44.62,1.41,1.19,2.29,1.28l.79.07c.19.02-.41.56-.32.73l.61,1.23c.9,1.82,2.44,2.78,4.24,3.51,1.16.47,2.24,1.51,3.36,2.04.42.2.72.39,1.04.68l1.58,1.44c.9.09,1.4.22,1.99.7,2.83,2.35,1.98.99,4.05,2.96l1.1,1.05.81.03c.26,0,.58.59.79.87.99,0,1.65.63,2.2,1.61.41.74,1.9.77,2.54,1.25.53.39.98.75,1.59,1.01l8.19,3.54,4.12,2.07,3.39,1.51c5.28,2.36,4.99,1.32,8.54,2.44.89.28,1.71.64,2.61.98,1,.37,2.26.6,3.24,1.16,1.57.89,2.95,1.45,4.8,1.12l2.61-.46c2.27-.4,3.79.33,6.34,0l1.44-1.26,3.5-.29,2.93-.21,8.44-.71,4.27-.5,3.57-.5c2.79-.39,4.77-.1,7.27-1,.73-.26,1.41-.55,2.19-.67l2.31-.36c.92-.14,5.9-2.42,7.1-2.93l3.17-1.35,4.13-2.16c.25-.13,4.91-1.79,4.67-1.78l2.23-.17v15.11H-.75V-.65h356.44ZM233.53,35.73c-.16-.35-1.29-.6-1.35-.26-.1.55.19,1.04.55,1.09.5.07,1.1-.19.8-.83ZM355.48,45.79c1.12-.34,1.85-.32,1.84-1.27l1.34-.54-.6,1.04,2.02,1.13-.62-1.96,1.52.24-.46-.61c-.08-.1.11-.44.18-.61l.06-.44c.01-.11-.36-.36-.42-.26l-.29.53-.35.64c-.05.09-.29-.39-.27-.33l-.78.55c-.24-.77-.6-1.44-.37-1.74.31-.4.76-.82,1.12-1.12.16.4.22.76.35.68l.52-.34c.1-.06-.09-.15-.42-.25l-.78-1.56-1.21-.44,1.66-.62-.84-.31c-.45-.17.69-1.5-.18-2.22l-.46,1.25c-.75.01-1.52-.1-2.23-.3l.87-.84c-.62.03-1.23.39-1.69.73l.76.93-1.52-.43c.59-.57.57-.59.03-.59l-.96.92.52.66c-.62.16-1.54.49-1.42.89.11.37.46.75.32.89l-.62.64,1.29,2.43.07,1.24c-.49.07-.96.11-.97.31,0,.16.06.59.22.58l.86-.08-.86.46c-.16.09-.09.77-.03.69l1.27.89c.03.1.15-.56.02-.7l-.37-.38.64-.32.14,2.29,2.22-1.07-.87-.42c.03-.09.59-.43.8-.34l.7.33s.28-.38.18-.45l-.48-.32-1.43-.1ZM257.98,189.69c.44-1.15-.86-1.18-1.32-1.2-.16,0-.28-.68-.42-.61l-.6.32c-.14.07-.21.56-.04.57.32.03.86.06.91.25l.21.72c.15-.11.53-.55.7-.43l.56.38ZM235.42,205c.66-.29,1.15-.77,1.41-1.28l-.9.07c-.16.01-.41-.3-.6-.48-.08-.08-.43,0-.43.1-.05.78.65.22.59.81l-.07.77Z"/>
  <path d="M249.91,71.05c-.77-.03-1.33.75-1.67,1.59l1.67-.15c0,.22-.18.54-.42.94l1.25-.23.41,1.1c.57-.03.58-.03-.14,0l-.05.64.34.91,1.52-.07-.69-.55c-.12-.1.3-.48.45-.49l1.13-.07c-.31.48-.6,1.68-.21,1.97.67.26,1.01.52,1.15,1.24l1.48-.1c-.55.63-.85,1.19-.62,1.63.29-.2.76-.83.94-.66l.64.61c.15.14-.44.67-.41.64,1.78.1.8.89,2.06.22.03.26.1.99.35,1.1l.91.4-.78.19c-.15.04-.18.45-.17.54l1.26-.13c.29-.03.4.62.67,1.16,0,0,.38-.36.51-.49.12-.12.17-.82.03-.52-.39-.01-.49-.04-.68-.28l1.76-.18-.1-.68c-.02-.1.38-.15.41-.11l.1,1.5c0,.12.31.35.41.27l.59-.46c.58.73,1.5,1.29,2.4,1.4l.71,1.95c.28-.73.3-.93.55-1.28.14-.19.7-.1.86.01.06-.28.28-.97.39-.84.58.69,1.59,1.39,2.21,1.46.13.01.41-.24.52-.31s.42.24.33.34l-.3.36c-.07.08-.17.31-.21.41s.38.11.45.04l.76-.77,1.55.88c.26-.24.56-.67.73-.6l.88.36c.09-.25.18-.68.34-.58l.73.46.88-1.04,1.24,1.07-1.57-.14,1.38,1.08.45-1,.52,1.23s.44.08.52-.05c.05-.09.08-.47.14-.55l1.17-1.23c.57.48.88.71,1.41.92l.43.96.94-1.69.1,1.71,1.27-.87c.64.19.98.05,1.65-.38l.43,1.2c.24.67.94-1.01.99-.24,0,.1,0,.34-.01.46-.02.15.53.05.58-.08l.22-.55c.09-.23.54.29.82.52.49.39,1.81.03,2.47-.02.24.31.67,1.06,1,1.06s.9-.5,1.12-.75l.31-.35c.05-.06.22.25.27.33l.95,1.36.44-.73c.05-.09.23.23.26.33l.08.3.66-.13c.15-.03.38.3.52.43l.82.71c-.09.11.38-.42.51-.57l1.23.75c.09.06.43.15.39.23l-.23.4-.29.49c-.06.1.25.35.32.27l.34-.42c.18-.22.5-.61.71-.56l.82.17-1.01,1.22c.51-.09.72-.26,1.09-.57.14-.05.48-.04.55-.17l.28-.49c.11.94-.27,1.51-.76,2.4l1.45-.82-.38-.47c-.07-.08.19-.23.29-.25.07,0,.32.02.38.06l.54.3c.07.04-.2.15-.28.15l-.28.03.25.99c.51-.46.75-.68.82-.72,0,.51.07.82-.06.95l-.64.64,1.08-.26c.75.35,1.17.31,2.03.27l-1.14.96-1.65-.62.68,1.47c.35-.25.61-.48.83-.47l.99.06.28.31-1.68.41.4.34,1.61-.3c.84.7-1.43,1.61.15,3.05.27.25.61.51.55.71l-.27.89c-.19-.21-.41-.69-.63-.63-.3.08-.69.24-1,.42l2.48.98c.16.06.56.69.39.74l-.77.23c-.1.03,0,.44.05.53s-.41,0-.53-.02l-.26.63c-.06.15-.45.27-.6.34l.6.43-1.77,1.02c.56.15,1.01.22.96.4l-.22.8c.47.1,1.26.32,1.62.5.09.04-.23.49-.31.43l-.47-.39-.87,1.38c.23.1.74.3.64.43l-.38.48c-.1.13-.46.46-.56.33-.08-.1-.31-.38-.31-.37l-.64,1.3.98.19c-.11.42-.24.73-.09.78l.58.22-.78,1.42.35.39.79-.28c.12-.04.11.41,0,.47l-.41.21c-.1.05-.28.29-.32.39s.15.34.25.31l.63-.18.65,1.17,1.57.36-1.08.49,1.24.49c.1-.06.59-.5.61-.37l.14.86,1.1-.03c.14-.51-.51,3.93.18,1.86l.16-.49c.06-.18.4-.65.55-.54l.52.39c.15.11.53.49.67.38l.61-.49-.11.95c.25.06.92.22.82.35l-.42.52,1.29.16c.08,0,.41-.04.49-.05s.19.28.12.33l-.39.24c.09.49.23,1.05.45,1.47l.19-1.87.92.47c.16.54,1,1.3,1.55,1.26.11-.13.36-.78.47-.68l.4.36c.21-.02.53-.13.5-.01l-.21.83,1.21-.18c.12-.02.48.1.47.22-.01.08-.03.31-.11.33s-.16.02-.43.04c.11.32.32.92.53,1.15s.91.33,1.21.3l-1.08-.93,1.83-.65-.82-.62,1.27-.97-1.09-.25c1.93-3.24-.2-3.21,1.75-5.53l-.97-.18c.67-.75,2.13-4.03,1.1-4.31l1.08-1.19c-1.03-1.05.12-1.7.29-2.41.42-1.74.28-3.82,1.69-5.17l-.47-.67c2.88-2.35.84-2.05,1.49-3.05l1.05-1.62.85-.71.1-1.05.59-.87c.13-.19-.05-.59-.17-.83.73-.8,1.33-1.93,1.54-3-.33-.68-.29-.83.24-.18.73-.33,1-1.21.99-2.08h.65c.03-.96.79-1.67,1.06-2.28.2-.44.13-1.61.57-1.78.11-.04.61.15.57.04l-.18-.54c-.1-.31.67-.83.85-1.12.3-1.36,1.12-2.78,2.08-3.73-.04-1.42-.23.02,1.31-2.27l1.33-1.98,1.27-1.82c.1-.14.45-.34.44-.49l-.02-.53c1.7-1.18-.16-1.32,2.01-2.16l-.75-.56,1.23-.38c-.06-.05-.53-.35-.46-.51l.31-.73c.49-1.17,1.07-2.19,1.7-3.26l1.38-2.33c.44-.74.44-1.5.05-2.09.57-.36,1.13-.95,1.52-1.63l1.41.04-.61-.82c-.09-.12.25-.38.43-.43.15-.03.27.12.57.33l1.59-.83,2.69,2.06c-.17.44-.33.81-.15.87,2.06.67.96,1.49,3.01.66l-.19.82c-.03.12.2.36.31.31.72-.36.51-.95.86-.72l.54.36c.21.14.98.07,1.02.32l.15,1.13.57-.14c.07-.02.06.22.04.3l-.19.54,1.62.39.35,2.21,1.24.21-.92.54c.03.52.06,2.12-.57,2.49-2.94,1.73-1.59,4.97-2.65,4l-.49-.45-.6,1.97-.29-.37c-.05-.06.04-.23.12-.51.06-.19-.59,0-.62.22-.09.61-.82,1.6-1.2,2.05-1.42,1.69-.64.49-3.19,1.72.7.39,1,.57,1.45.94l.49.41c.11.09-.08.51-.15.6l-1.1-.77-.74,1.62c-.14.31-.34.6-.26.77l.4.8-1.43.03-1.23,1.47.63.38-1.85,1.1c-.11.07-.39.43-.29.44l.53.08c.14.02.63.25.5.32-.08.05-.25.14-.35.14h-.36c-.46.03-.81.04-1.23-.03l-1.02.66c.34.16.85.31.75.44l-.38.49-.49.62c-.1.13-.5-.26-.64-.36l-.5-.39c-.07-.06-.39.19-.42.24l.52.65c.09.11-.08.62-.08.49-.4.02-.64.03-.8.08s.1.45.23.76c.47,1.16-1.51,1.01-1.45,3.68-1,.58-.53.68-1.2,3.18-.03.11.24.49.31.57s-.07.23-.2.37c-.33-.17-.96-.4-1.08-.38.02.55.11,1.11-.1,1.16l-.67.15c.37.63.58,1.09.72,1.59s1.36,1.17,1.72.83c.18-.2.34-.53.48-.53h.55s-1-1.33-1-1.33c-.15,0-.85.02-.76-.08l.24-.28c.3-.36.98.44,2.45.05l.55.35c.12.07.42-.25.5-.37l.55-.87c1.64-.85.11-.84,1.59-2.25l-.41-.49c-.09-.1.28-.5.41-.52l1.07-.22s-.19-.3-.32-.36l-.5-.22,1.49-1.17.11.77c.02.15.48.17.61.15l.1-1.15c.35.21,1.4.24,1.27-.12l-.18-.5c-.02-.06.11-.14.16-.1l.35.29c.14.11.57.11.74.09.13-.01-.26-.62-.17-.72l1.33-1.43c.3.47.06.77-.17,1.25l-.27.59c-.06.13.57.24.62.11l.21-.66c.16.28.19.63.4.64l.95.08c.11,0,.6-.24.51-.32-.05-.05-.14-.12-.21-.15l-.43-.17.74-1.16.5.83c.15.24,2.34-.95,3.53-1.04l-1.06-.31.56-.49c.1-.09.41.31.53.29l1.4-.3c-.62-.5-.85-1.09-.72-1.7l1.33-.13,1.67-.09-1.45-1.09.44-.87c.05-.11-.36-.33-.41-.22l-.2.43-.18.39c-.03.07-.21-.09-.24-.15l-.21-.52c-1.13.92-2.75-.09-2.71-.26.03-.13.18-.62.19-.76.01-.17-.43-.04-.54.09l-.53.65.09-1.2-.8.71-.85-.82,1.28-1.67c.15-.2.32-.69.45-.9s.88-.11,1.12-.26c.37-.22.27-1.21.3-1.81l.61.48c.24-.55.54-1.01.93-.99.59.04,1.34.03,1.52-.25l.72-1.1c.1-.16.77.16.86,0,.08-.14.32-.54.27-.45-.63.2-.8-.33-.8-.73.02-.96,1.84-.41,2.06-.65l.79-.86c.34-.37.56-.98.61-1.27l1.95-.59-.32.97,1.35.23c3.25.56.13.55,3.5.57l1.99-.37-.61.49c-.1.08,0,.27.11.34.07.04.41.14.5.15,3.53.02,3.48.6,6.33.59.2,0,.83-.29.9-.12l.31.69.31-.67c.07-.14.57-.05.77-.03l4.71.43c.83.08,4.96-.11,5.95-.48l.72.27c.16.06.55-.3.73-.31l2.5-.08c.64-.02,1.15-.09,1.75-.18.34-.05,1.12.06,1.4-.12,1.51-.98,4.88-.98,6.51-.86.14-.19.4-.67.55-.61s.53.34.7.35l1.87.1c.34.02,1.01-.11,1.37-.18,3.56-.69,1.86.13,4.76-1.18.36-.16,3.03-.54,3.76-.67l.54-.52c.09-.09.45,0,.65.05l1.42.32.37-.65c.07-.12.47.09.62.14l.87.32v200.95l-2.23.17c.24-.02-4.42,1.64-4.67,1.78l-4.13,2.16-3.17,1.35c-1.2.51-6.19,2.79-7.1,2.93l-2.31.36c-.78.12-1.46.41-2.19.67-2.5.89-4.48.61-7.27,1l-3.57.5-4.27.5-8.44.71-2.93.21-3.5.29-1.44,1.26c-2.55.33-4.06-.4-6.34,0l-2.61.46c-1.85.33-3.23-.23-4.8-1.12-.98-.56-2.24-.78-3.24-1.16-.9-.34-1.72-.7-2.61-.98-3.54-1.13-3.25-.09-8.54-2.44l-3.39-1.51-4.12-2.07-8.19-3.54c-.6-.26-1.06-.62-1.59-1.01-.65-.47-2.13-.51-2.54-1.25-.55-.99-1.21-1.61-2.2-1.61-.21-.28-.53-.86-.79-.87l-.81-.03-1.1-1.05c-2.07-1.97-1.22-.61-4.05-2.96-.59-.49-1.09-.62-1.99-.7l-1.58-1.44c-.32-.29-.62-.49-1.04-.68-1.13-.53-2.2-1.57-3.36-2.04-1.8-.73-3.34-1.7-4.24-3.51l-.61-1.23c-.08-.17.51-.71.32-.73l-.79-.07c-.88-.08-1.85-.66-2.29-1.28l.27-.34c.03-.36.05-.79-.01-.3l-.58.26c-.4.18.08-.74-1.09-1.49-.01-.09.21-.78.04-.73-.14.04-.53.15-.65.21l-.57.3c-.08.04-.08-.34-.03-.42l.39-.56c.06-.09.22-.49.26-.59.03-.07-.15,0-.25.07l-.95.64.19-1.11-.75-.54c-.18-.13.05-.86.26-.81l.67.18c.06.02.02-.09-.04-.28l-.14-.42c-.05-.29-.13-.7-.09-.22l-2.06-.34,1.12-.44.05-1.15.05-1.33-1.33-.48c-.11-.07-.34-.28-.25-.36l.41-.33c-.02-.08-.09-.4-.08-.36l-.76.22c-.08.02-.04-.25.02-.29l.35-.22c.07-.04.26-.17.25-.21l-.1-.49-.38.16c-.05.02-.26.14-.34.18-.31.15-.81-.41-1.15-.73l.68-.14c.03.07-.11-.22-.17-.33-.15-.29-.48.28-.68.09-.1-.09-.21-.56-.08-.56.1,0,.32,0,.45.03l.47.07c1.06.16-.72-.56-1.08-.96l-.47-.52c-.25-.28.59-.66.36-1.01l-.2-.31-.33-.49c-.04-.06-.16.2-.2.26l-.29.45-.44-.82c-.08-.16-.5-.16-1.08-.28-.38.21-.14,0,.29-.33.04-.35.07-.69-.12-.76l-.87-.33c-.36-.14-.76-.81-.91-1.16-.28-.04-.73-.18-.71-.38l.08-.98-.81.16c-.16.03-.35-.4-.26-.55l.67-1.05-1.81.31-.06-.36.21-.5-.29-.16c-.08-.04-.37-.17-.35-.17.02,0-.22.14-.31.19l-.41.24c-.08.05-.12-.28-.09-.37l.2-.52c-.32-.73-2.42-2.02-2.29-1.28-.02-.1-.22-.37-.12-.4l.48-.16c.62-.2.63.49.63-.17v-.51c0-.27-.06-.67-.17-.96l-.42.87c-.25.51-.54-.16-1.26.49-.08.07-.18-.2-.14-.29l.21-.5c.15-.37-.95-.19-.68-.8l.34-.77.19-.43c.03-.07.25.26.25.34,0,.15,0,.51.08.63l.83,1.13.35-1.25-.52-.37c-.09-.06,0-.29.07-.63-1.81-.6-1.59,1.04-1.99.67l-.3-.28c.6-.66,1.32-1.04,2.32-1.35l-1.37-.15c-1.51-2.43-2.16-.68-1.93-1.75.48-.13,1.59-.13,1.86-.72.04-.08-.04-.38-.14-.36s-.41.09-.48.15l-.91.66c-.23-.55-.27-.86-.49-.91l-.8-.17.45-.99c.07-.16-.47-.34-.64-.31-.13.02-.57.19-.56.07s.05-.45.03-.57l-.07-.46c-.01-.08-.03-.03-.23.19l-.45.28.1-.43-.34-.5c-.22-.33,1.16-.05.88-.44-.34-.13-1.08-.5-1.41-.81-.27-.25,0-.91.18-1.25-1.74-.42-1.11-1.9-1.51-1.91l-.8-.03c-.14,0-.53,0-.47-.06l.3-.33c.07-.08.29-.39.18-.41l-.51-.11c-.77-.17-1.52-.46-2.38-.8l.48-.63c.04-.06.2-.28.2-.33l-.04-.66c0-.09-.36.05-.41.13l-.28.52c.05.02-.15-.04-.23-.07l.23-1.13c.05-.25-1.63-1.04-1.07-1.13l.77-.13c0,.31,0-.17,0-.39l-.13-.54c-.25-1.05-.49.69-.88.5-.12-.06-.36-.16-.49-.15l-.69.03c-.31.01.47-1.3.04-1.22l-.64.12c-.35.07-1.02-.21-1.21-.51-.23-.36-.16-1.06-.06-1.46-.18-.05-1.23-.28-1.26-.61l-.15-1.98c-1.51-.28-1.01,2.09-1.8,1.49-.12-.09-.41-.35-.36-.49l.24-.75c.09-.29-.84-.32-1.24-.14-.22.1-.61-.59-.5-.81.65-1.3,1.26-1.36.53-1.28l-.35.04c-.14-.08-.54-.46-.62-.32l-.31.55c-.05.09-.34.31-.43.38s-.28-.26-.35-.34c-.05-.05.26-.24.31-.3.07-.11.18-.54.05-.57l-.6-.1c-.03-.75.08-1.39-.87-1.63-.05.11.06-.12.22-.47.32-.33.22-.41-.49-.21-.03.01-.02-.31.07-.4l.36-.34-.48-1.04.44-.47c.06-.06-1.3-.4-.91-.69l.68-.51-.67-.42c.34-.48.65-.94.7-1.07l-.87.16c-.08.02-.14-.36-.13-.44l.11-.75c.01-.09.37.15.43.2.22.44.43.7.43.22-.09-.62-.17-1.1-.21-1.12l-1.03.45.44-.77c.09-.15-.19-.62-.29-.8l-.52-.96c.33-.51.4-.59.38-.31.53.2.89.37,1,.22l.5-.64c.16-.2.34-.38.3-.49l-.22-.55c.61-.2.15-.13-.25-.07l-.48.07c-.07.01-.06-.12-.01-.17.06-.06.36-.22.38-.3l.1-.59c.02-.11.35-.1.8-.14l-.06-.56-1.88.11-.65.08,1.11.74-.46,1.1c-.05.37-.21.74-.24.29.06-.54.02-1.05-.22-1.08-.44-.05-.8-.13-.99-.01-.37.23-.58,2.05-1.22,1.76l-.79-.35-.2.33c-.05.08-.43-.06-.38-.13l.3-.44c.12-.18.17-.65-.02-.74l-.91-.43-.3,1.43c-1.2,0-1.95.25-2.76.91l-.02.38c0,.06-.17.27-.2.22-.04-.06-.24-.3-.29-.33l-.9-.52c.03.34.21.78.06.78l-.87.03c-.32.01-.49.73-.59,1.17l-1.35.23c-.12.26-.26.71-.41.72l-.75.02.05-1.65c0-.12.27-.49.33-.59.05-.06-.25-.08-.33-.06s-.38.12-.44.17l-.96.93c-.11.11-.51.23-.73.35.35.36,1.01.15,1.42-.2.08-.07.46.52.3.62l-.52.34c-.58.38-.33,1.14-.69.9l-.56-.38.3-.47-.44-.19-.75,1.44c-.06.12-.21.55-.08.52l.7-.16c.18-.16.02.39-.11.54-1.78.06-2.85.94-3.5,2.28l1.05.57c.05.98-.18,2.04-.75,2.74.18.29.3.41.25.51l-.18.35c-.59-.04-1.42.09-1.67.35.58.43.7.53.66.5l-1.08,1.25c-.19.21-.4.69-.65,1.15-.8-.76.28-.76-.03-1.84-.29-.99-.09.91-1.38,1.67l-.56.33c-.09.05-.18-.1-.47-.39l-.64,1.96-.43-.98-.95,1.41-1.36-1.29-.46.62-1.08-.24.91.96-1.91,1.49c-.03-.24-.04-.73-.16-.76l-2.09-.46c-.12-.03-.58.23-.48.31l.43.33c.07.05.31-.14.39-.14h.62c.11-.01.01.57-.51.55l-1.71-.05-.32-.09-.36-.11.66-.44c.05-.04.23-.27.17-.27l-.39-.05c-.4-.06-1.12-.4-1.51-.65-.19-.23-.36-.45-.38-.34-.03.14-.08.41-.09.6-.04.45-.69,1.13-1.03.91l-.66-.42c-.12-.08-.48.32-.35.39l.47.26c.98.53-1.18-.08-1.82.41-.1.08.23.57.1.59-.14.02-.5.16-.57.06l-.32-.48.77-1.29c2.08-.09,1.62-1.01,3.35-1.66.11-.04.05-.14-.09-.68-.77.41-1.54.97-2.22,1.56-.14-.04-.41-.22-.52-.16l-.67.37c-.04-1.78-2.05-1.94-1.41-2.09l.48-.11c.24-.06.67-.37.84-.52l.83.05-.35-.86c-.02-.06.25-.31.31-.33s-.08-.07-.38-.19l-.3-1.16v-.27c0-.08-.3-.05-.35.02-.12.14-.4.54-.57.54l-1.07.02-.63-1.64-.58,1.9c-.18-.91-.1-1.64.12-2.68l-1.33-.59c-.13-.06-.59.4-.68.3l-.45-.52c-.12-.14-.28-.69-.13-.81l.45-.37.37.15c.07.03.12-.42.05-.46l-1.03-.61-.17-1.4c.14-.2.64-.7.46-.9s-.61-.45-.82-.49l-.7-.15c-.07-.01.15-1.15-.34-1.14l-.86.02c.05-.34.12-.88-.14-.93l-1.2-.21.75-1.81c-.28-.17-.62-.36-.72-.23l-.46.65c-.07.1-.48.33-.57.25s-.25-.22-.24-.22c.21-.53.32-1.05.13-1.35-.64-1.02-.98.25-1.86-1.25l-.6.34c-.15.08-.6-.16-.5-.23.3-.2,1-.52.91-.73l-.28-.64.37-.61c.05-.08-.29-.13-.37-.09l-.39.19-.58.28c-.09.04-.18-.33-.14-.41l.23-.4c.12-.2.3-.52.21-.67l-.29-.48c.12-.4.28-1,.33-1.33.02-.15-.7-.12-.71.04l-.09.86-.3-.99c-.6.01-1.3-.02-1.45-.31-.13-.26-.44-1-.16-1.1l.74-.26c1.15-.41-1.66-1.43-2.4-1.37l-.06-.59c0-.09-.29-.04-.42-.04l-.44-.02c-2.31-.11,1.36-.23.99-.77-.15-.22-.48-.52-.44-.69l.18-.71-1.32-.11c-.59-.05-.33-1.99-1.79-2.08l1.07-2.06c-1.4-.69-1.34-.45-2.36.34-.78-.27-1.32-1.55-.76-2.24l.26.94,1.03-.05.3-2.02-.6.14c-.06.02-.07-.15-.07-.23l.03-.5c.04-.6-1.21.69-1.56.44l-.69-.5c.46-.56.91-.79,1.47-.73-.23-.36-.5-.65-.46-.86l.19-.94-.59.51c-.09.08-.51-.12-.5-.24s.05-.27.1-.48l.36-1.35c-.17-.23-.3-.39-.21-.39l.42.02c.19,0,.42-.49.38-.68-.51.02-1.18.23-1.61.41l.14-1.27c.01-.14-.63-.38-.67-.25-.03.1-.13.43-.08.28.27.46.4.69.22.39-.52,0-.76-.05-.81.08l-.27.71-.66.18.24-1.07c-.04-.07-.15-.28-.17-.28-.02,0-.23.05-.34.08.01-.11.03-.37.03-.32.79-.26,1.24-.47,2.15-1l-1.65-.74.11,1.2-.55-.91c-.07-.03-.55,0-.54-.16l.06-.77.04-.43c0-.08-.06-.02-.12.05l-.74.49c.06-.8.45-1.74.88-2.1l.69.16c.09.02.2-.37.11-.39l-.49-.13c-.18-.05-.57-.12-.64.03l-.44.91s-.36-.44-.55-.68c-.12-.15.25-.55.44-.62l.49-.19c.09-.03-.05-.42-.13-.39l-.51.21c-.06-.02-.35-.11-.29-.09.06-.74.09-1.21,0-1.77l-.11-.73c-.01-.08-.28.14-.29.23l-.03.41-.45.36c-.26.21-.46-.84-.46-.84l.34-.66-1.34.59c-.05.28.05-.26.06-.33.31-.24.61-.64.59-.9s-.48-.3-1.27-.45l.96-1.57-1.06-.11c.5-.55.62-.68.39-.45l-.76-.02c-.13,0-.36-.49-.23-.51l.72-.11c.13-.02.59-.21.49-.29l-.44-.35c-.22-.17-.12-.78-.07-1.22l-.79.15c-.06.01-.3-2.18,1-2.96-.12-.05-.51-.16-.57-.33l-.3-.83-.44.55c-.05.07-.18-.16-.21-.25l-.13-.44-.19-.62c-.04-.12-.38.02-.7.1,0,.04.02-.32.03-.45,0-.12.33-.11.47-.1l.62.05c.07,0-.21-.2-.26-.25l-.21-.27c.15-.17.6-.66.44-.7l-.85-.19.05-.41c.65-.06,1.28-.34,1.17-.69l-1.76-1.17c.16-.75.82-1.2,1.53-1.54l-.93-.28c-.18-.06-.12-.61-.03-.79l.39-.72c.08-.15-.33-.47-.48-.62-.59-.58-.56-1.56.24-1.96l.49.82-.4-1.67,1.04-.52c-.39-.21-.66-.37-.79-.26l-.6.51c-.15.13-.31-.77-.12-.81s.52-.1.85-.15l.71-.11c.13-.02-.06-.45-.2-.45h-.38c-.05.01-.44,0-.4-.06.04-.07.13-.24.19-.3l.39-.38-1.11-.32,1.23-.49.29-1.78c-.28.07-.75.2-.71.39l.14.72c.02.11-.07.39-.12.5s-.39-.02-.39-.13v-.33c0-.17-.14-.83-.28-.72l-.68.52c-.06-.02-.5-.16-.24-.08.2-.4.37-.69.25-.73l-1.61-.55c.13-.23.42-.61.56-.51.1.07.46.34.59.38.35.1.93-.6,1.22-.87l.66.49c.12.09.28-.48.15-.53-.38-.14-1.13-.61-1.34-.83l-.47,1.07-.2-2.5-.83-.16c.25-.33.44-.62.48-.93l-.92.68c-.09-.19-.2-.48-.33-.51l-.46-.13c-.13-.04-.56-.37-.6-.23l-.22.72c-.06-.04-.35-.28-.32-.39l.1-.49-2.16-.39,1.08-.61-1.66.11c-.13-.17-.32-.76-.2-.95s.33-.45.21-.54c-.09-.06-.38-.42-.43-.33l-.32.55-2.73-.18c-.1,0-.57-.22-.53-.3l.21-.38-.68-1.08h.58c.34.02-.08.03-.21-1.46-.01-.17-.41-.28-.83-.51-.13-.07-.49.3-.4.41l.92.43c.13.06-.07.63-.06.53-.37-.22-.57-.34-.74-.4s-.59.42-.47.56l.55.65c.45.09.09.11-.32.09l-.88-1.15-2.35-.23c.26-.28.77-.94.6-1.2l-.96-1.1-1.38.9,1.01-1.63c-.6-.34-.79-.36-.79-.55v-.97s-.83,1.43-.83,1.43l-.18-.66c-.02-.08-.27.33-.34.33l-1.13.05.91-1.44-1.43-.7c.19-.78.89-1.55,1.85-1.99l-1.59-.42c-.13-.03-.35.29-.31.42l.24.67c.05.15-.46.26-.5.12l-.13-.5-1.75-2.29-.8-.37.87-1.59c-.55.15-.92.29-1.25.44.45-1.25-.28-3.43-.95-2.92l-.74.56c0-.23.05-.65.2-.76l.68-.5-1.44-.32-.73-1.27,1.24.39c0,.07-.04-.45-.06-.63-.04-.4-1.47.03-1.75-.45-.24-.39-.49-.82-.75-.91-.21-.08-.85.2-1.05.09l-1.36-.75.48-.38c.09-.07,0-.35-.02-.56l1.06-.42-1.97-.16-.19,1.48c-.32-.02-.71-.07-.94-.12-.14-.03-.01-.51.13-.52l.75-.04c-.41-1.02-1.29-1-2.35-1.07l1.61-.75c.09-.04.03-.25-.01-.41-.03-.1-.34.17-.45.24l-2.12.09c-.29-1.48-.41-2.83.62-3.61l-2.56-1.11c.87-.87,1.6.7,2.52.33.28-.12.75-.71.75-1.01-.38-.05-.87.16-1.25.39l-.69-.66,1.49-.37-1.15-.31c.62-.68,1.25-.63,1.98-.41l-.62.79,1.61.26-.11-1.65c-.51-.46-.88-1.07-.85-1.61.74-.1,1.25-.14,1.93-.02.18-.2.34-1.2.32-1.62h-1.35s1.37-1.08,1.37-1.08l.35,1.17c.06.2.63.21.69.07l.19-1.76.81,1c.19-.21.48-.47.42-.62l-.24-.53-.29-.64c-.05-.1.3-.26.43-.35l.38-.27c.06-.04.05-.12-.03-.15l-.59-.23c-.08-1.05,1.97.68,2.16-.45l.14-.88.66.65s.33-.63.16-.69l-.8-.32c-.1-.04-.02-.34.09-.39l.48-.25-1.02-.45c.19-.17.43-.4.6-.37l.86.16c-.15-.48-.46-.96-.92-1.5-.38-.45.05-1.32.65-1.62l-.35-1.03c.64-.4,1.03-.85,1.46-1.46l.27-.38c.05-.08.07-.13,0-.15l-.54-.14c-.15-.04-.47-.41-.6-.31l-.59.48c.05-1.67,1.64-.95,1.32-1.46l-.24-.38c.36.09,1.14.28,1.48.37.15.04.33-.7.18-.71l-.6-.05c.12-.19.38-.56.52-.48l.5.3,1.54-.19c.23-.03.76.06.98,0s.47-.58.42-.68l-.9-1.15.89.35c.56.22-.29-.12,1.02-.19.91-.05-1.39.88-.72.88l1.78.6c-.07.13.53-.54.36-.57l-1.08-.14.89-1.39.76.45.75-.39.8.46c.16.09.48-.68.29-.7-.15,0-.69.21-.67.06l.11-.69c.02-.11.42.25.53.25,1.13-.06.58-.8,2.57.29-.38.17-.9.22-1.11.13l-.67-.28c-.12-.05-.3.69-.17.7l1.83.14c.52.04,1.5.82,2.01.52.26-.16.66-.6.77-.45.08.11.24.52.13.6l-.64.46c1.01.88.29-.54,2.17.07l.33-.51.27.65c.06.14.49.18.55.04l.31-.66c0-.47.02-.51.03-.03l.55.68c.08.1.26-.11.43-.22.13.1.54.48.64.34l.46-.64c1.55,1.01.64-.19,3.21.31-.06-.28-.17-1.12.12-1.25.14-.06.68.2.77.06l.37-.56c.57.2,1.18-.02,1.75-.3.36.21,1.37,1.02,1.87.95.23-.03.54-.72.57-.87l1.78.41c-.08-.8-.04-1.02.24-1.13l.97-.38c-.32.68-.42.81-.67,1.67l1.12-1.11c.08-.03.53.55.65.41l.53-.57.39-.22c.09-.05.06.4.07.5l.05.7c0,.12.42.04.43-.08s.03-.39.02-.53c-.04-.63,0-1.19.42-1.21.2.76.37,1.28.69,1.7.71-1.43,1.6-1.88,3.14-2.33.03,0-.08-.03-.52-.18l.25-.98c.1-.39,1.72-.61,1.79-.43l.22.57c.1-.33.09-.87.3-.9l1.01-.16c-.1-.13-.64-.61-.47-.72l.64-.42c.37-.31.67-.55.19-.38-.88.21-1.47.36-1.99.03.85-1.87,2.39-2.98,3.74-2.37l-.13-.89,1.67,1.02-.57-1.17,2.2-.08-.6-.92-.72.61c-.12.11-.58-.2-.72-.3l-1.08-.75,1.52-1.14c.14-.1.37-.59.39-.77s-.24-.44-.38-.58c-.12.48-.23,1.13-.53,1.14l-1.23.05,1.07-.79-.73-.06c-.11,0-.32-.18-.35-.21l1.52-1.08-1.86.53c-.55-.37-2.51.18-1.85-.34l.39-.31c.21-.17.36-.25.29-.33-.05-.05-.28-.24-.28-.24.07.12-1.08.8-1.07.35,0-.21-.08-.88.11-.85l.8.13c.22.04.55,0,.96-.05l-1.16-.65c.19-.15.59-.41.48-.49l-.4-.28c-.12-.09-.54-.21-.64-.1l-.49.56c-.08-.07-.2-.66-.07-.79l.55-.52-.62-1.25c-.19-.39-.3-.62-.46-1.06l-1-.33.61.87c.14.2-.2.81-.45,1.14l-.32-1.52-.81.39c-.16.07.37.44.63.69l-1.27.1c0-1.04.1-1.15.92-1.83l-1.05-.03c-.24,0-.39.44-.6.69-.05-.31-.08-.96.14-1.06l1-.49c-.08-.1-.35-.36-.48-.28l-.81.45c-.04-.84-.17-1.5-.72-1.8l-.49.85-1.22.3-.3-1.21.98-.97-.67-.02-.74.17c-.14.03-.08-.54-.1-.76-.01-.19-.29-.73-.45-.62-.13.1-.55.39-.44.31.31.31.79.75.64.91l-.66.73c-.13.14-.29.56-.37.73-.06.13-.47.11-.63.09l.41-.6c.06-.09-.49-1.18-.64-1.21l-1.05-.22c.37-.3.91-.38,1.61-.46l-1.64-1.3.55-.62c.05-.06-.25-.08-.32-.06l-.5.14c-.36-.43-.46-1.68-.15-2.06l.88.2c.14.03.11-.47.11-.62s-.56-.06-.71-.13l-1.98-.92.55-.58c.08-.08.12-.29.01-.31l-.61-.14-.12-1.06-.39.86c-.06.13-.6-.08-.57-.09.2-.24.56-.6.42-.67l-.76-.38.93-1.26-1.61.44c-.34.09-1.05-.52-1.2-.85-.35-.74-.67-.8-1.26-1.13-.88-.49-1.42-.7-2.54-.38.02-.18.19-.63.35-.62l.54.04.61-1.56c-1.07.63-1.88,1.06-3,1.39l.65-.77c.08-.1.06-.31.03-.66l-1.48,1.2-.29-.74c-.06-.16.53-.55.4-.66l-.57-.5c-.11-.09.1-.44.23-.48l.62-.19c.69-.22,1.19-1.41.98-2.03-.57,1.27-1.98,2.27-2.57,1.86-.34-.24-.56-.73-.48-1.02.11-.4.22-.74.07-.76-.1,0-.4-.01-.5-.01s-.11.25-.19.63c.03,0-.38-.12-.53-.16-.14-.04-.38-.45-.25-.49l1.02-.37c.21-.08.32-.73.27-.7l-1.13.42c.4-.8.74-1.64-.17-2.07l-.27,1.72c-.89-.21-1.08-.11-1.91.32,0-.09.16-.75.38-.78.18-.03.68,0,.92-.07.62-.16.37-1.27.37-1.79.63.41,1.24.61,1.75.3l-1.45-.95c-.33-.2-.55-.27-.71-.44-.13-.14-.16-.79-.13-.99l.2-1.58c-.38-.32-.55-.84-.38-1.43.11-.39.52-.62.97-.84l.93-.44-1.38-.77c-.04.21.08-.39.13-.66.04-.2.46-.24.58-.09l.53.64c.13.16.7-.09.63-.28l-.25-.69c-.08-.21-.4-.78-.23-.93l.55-.45.26.71c.05.14.63-.13.59-.18-.13-.5-.25-1.07.03-1.1.29-.03,1-.09.84-.06l-.03.91c.85-.52.19-1.78-.36-1.86l-.61.59c-.11.1-.31-.28-.5-.57.46-.2,1.54-.48,2.07-.59.17-.04.21-.75.39-.73.14.01.46.13.48.26s.06.5.05.63l-.04.59c0,.13.44.27.46.15.29-2.19-.61-1.03.29-1.91.57.75.98,1.36,1.78,1.43l-.03-1.36.96.71c.15.11.53.22.68.15.11-.05.28-.35.2-.44l-.49-.52,1.29-.96-.58-1.05.85.21c.17.04.09.5.14.67.56.24.9.5.91,1.13l1.16.05-.07-1.68c.46.66,1.03,1.56,1.56,1.42l1.12-1.03,1.36-1.14-.4,1.05c.2-.05.69-.43.94-.52l1.3-.45c-.19.69-.39,1.47-.51,2.15.1.08.5.11.49,0l-.03-.46c-.02-.33.3-.91.68-1.12.29-.15.78.27,1.2.62.77.65,2.67.72,3.37-.15.36-.45.63-.91,1.05-1.21l-.36,2.07c1.3-.35,1.88-.03,2.81.52.27.1.93,0,1.05.26l.55,1.18,1.96-.21c.14.37.25.69.28.58.02-.07.32-.36.39-.35.32.08.76.52.97.82l.47-.67c.08-.12.59.08.6.1l-.58.44c.27.15.84.61.73.86l-.92,2.07c.37.04.71.07.91.15l.67.25c.2.07.35-1.22.7-1.02.15.09.52.3.45.26-.27.46-.5.86-.61,1.1l1.08-.1c.19-.02.45.39.62.55l1.85.03-.68,1.39,2.34.28c.15-.14.34-.35.37-.24l.18.58c-2.33.01-.5.32-2.55,1.11-.11.04.26.27.36.33.03.02.71-.73.73-.47l.03.41-1.03,1.08c1.13-.21,1.69-.49,2.58-.95l-.33,1.41-.67-.43c-.15-.09-.36.04-.78.35l2.29.71-1.21.43s-.03.35.07.36l.59.08-1.59.66c1.02.05,1.78.76,1.74,1.55-.01.21-.41.68-.24.76s.52.37.59.24l.33-.61c.15-.27.71-.67,1.01-.8-.07.48-.23,1.02-.03,1.21.77.73,1.87.4,1.6.84l-.37.6c-.12.2-.3.67-.39.87l-1.03,1.23c.65-.34,1.48-.82,1.99-.72.17.03.41.69.55.59l.67-.53c.09.02.33.63.41.98.06.27-.22.57-.62.97l1.88-.12c.11,0,.48-.37.5-.27.31,1.22-.46-.29-.52,1.27.29.03.74-.06.82.1l.34.64c.07.13.39.57.26.65l-.55.32c.63.48,1.23,1.06,1.82,1.75l2.75-.41c-1.04.96-2.34.42-2.57,1.89l1.15-.74.26,1.01c.61-.69,1-1.15,1.66-1.37l-.47.97,1.66-.39-.83.82,1.48.8,2.04,1.11c.14.08.62-.04.72.06l.39.4,1.48.04-1.71,1,.24,1.52c.07.45.77,1.23.56,1.61-.4-.22-.54-.35-.67-.3s-.56.37-.45.47l.54.5c.56-.36,1.14-.49,1.99-.23l-1.53,1.59.52,1.14,1.32-.37c-.24-.61-.07-.45.27-.21l.87.82c.38.36-.98,1.59-.27,1.74l.47.1c.29.78,1,1.4,1.71,1.61l-.78,1.08c1.2-.12,1.82-.41,2.68.29l-2.09.36.97.51-.62.32c-.11.06.02.4.15.39l.6-.04.58-.04c.13,0,.35.43.24.5l-.52.35c-.16.1-.4.29-.5.22l-.36-.25c-.15-.1-.72-.28-.76-.11l-.18.79,1.75-.06c-.26.73-.19,1.32-.05,2.03-.03.45-.92,1.13-1.38,1.51.7.19,1.48.85,1.71,1.33.07.15.82-.11.73-.24l-.41-.65c.21-.2,1.06.4.9.65-.28.44-.68.97-.75,1.3l-.3,1.26c.41-.18.69-.61,1.03-1.29.06-.07.78.65.76.95s-.13.66-.27,1.1l1.34-.03c.17,0,.37.43.22.53-.12.07-.39.13-.54.11l-1.19-.12.57,2.03.47-.73c.08-.13.42.2.62.38.12.1-.1.26-.43.49l.23.94,1.65-.09c-.28.18-.89.41-.76.52l.5.42c.25.21.58.62.38.76-.34.24-.83.76-.97,1.03l.78-.05c.13,0,.14.29.21.54l1.46.02c.17-.2.37-.63.55-.55.21.09.74.48.71.58-.52.47-1,1.19-.9,1.65l.77-.41c.11-.06.06.36-.03.45l-.39.35,2.16.56.3.83ZM207.65,11.1c0-.32-1.11-.64-1.12-.38.04.42.16.74.05.85l-.65.59c.61.15,1.71-.43,1.72-1.06ZM208.88,63.3c.15.05.66-.39.53-.48s-.72-.35-.71-.51l.15-2.26-1.12.46.65,1.26c-.26.41.11,1.4.52,1.54ZM395.92,96.2c-.27.46-1.13,1.19-1.56,1.49.18.41.64,1.69.19,1.91-.48.24-1.1.48-1.13.8.38.43.78.49,1.47.53l-1.03,1.11c-.27.29-.42,1.09-.57,1.62.53.08.64.1.48.07l.16-.8c.02-.1.09.27.17.32l.42.28-1.36,1.42,1.16.02-.18,1.24c-.02.11.37.32.42.22.03-.06.24-.24.31-.23l1.3.26c.28.06.93-.11,1.22-.32.23-.16.11-.62.15-1.21l2.19-.51.21-.72,1.44-.43c2.01-.6,1.06-2,1.88-2.06l1.04-.07.25-.82c.05-.16.41-.12.66-.14.95-1.09,1.68-2.51,2.8-3.49.49-.42.81-.71,1.18-1.2l.86-1.15c.07.12.41.57.46.44.05-.13.13-.3.1-.38l-.19-.51,1.12-.28c-.07-.35-.23-.73-.07-.79l.85-.32-.47-.5c-.07-.07.34-.17.44-.17l.49-.02c.16-1.12.85-1.57,1.83-1.77.44-.4,1.1-.99,1.7-1.35s1.04-.9,1.53-1.29c.73-.58,1.49-1.13,2.17-1.74l1.9-1.72c.61-.55,1.09-1.43,1.64-2.22.64.15.52,0,0-.37.63-.84.58-1.91-.14-2.73-1.98.42-3.81-.36-4.05,1.22-.29-.03-.53-.06-.54-.06-.07.37-.09.86-.27.93l-.64.26c-.17.07-.49.35-.61.26l-.36-.27-1.68,1.22.08-.69c.01-.12-.24-.35-.28-.36-.28.74-.91,1.27-1.52,1.3-.15-.24-.29-.57-.42-.56s-.52.14-.67.15l-3.08.18c-.24.01-.84.53-1.01.38l-.81-.74c-.41-.37-1.57.18-2.11.43-.27-.16-.66-.42-.87-.45-.17-.02-.43.49-.6.53l-1.2.33-.34.92-.24-.68c.06.17-2,.69-1.78,1.62.07.32.39.77.19.85l-1.07.44.75.73c-.06.41-.14.72-.18.24l-.87-.21c-.13-.03.13.52.09.65l-.62,1.95-1.63-.09.08-1.11c.02-.24-.09-.81-.31-.9s-.82.14-.85.37.17.64.33.94l-.3,1.7,2.81-.29c-.61.41-1.33.84-1.96,1.09-.34,0-.91-.44-1.36-.73l-.31,1.24c-.06.22-.46.72-.65.57-.17-.13-.6-.41-.7-.28-.08.1-.38.47-.26.51l.69.24c-.13.1-.53.47-.41.64l.48.65c-.87-.14-1.36-.16-2,.17l1.37.25-.91,1.14c.12.08.67.16.66.32l-.09.97c.28-.13,1.22-1.08,2.12-1.02.12,0,.47.5.41.61ZM394.87,90.4c-.1-.47-.31-.98-.16-1.11l.69-.62c-.89-.18-1.67.45-1.84,1.29l.65-.15c.13-.03.12.46.15.8.02.62.35.37.51-.2ZM345,101.65l1.77.45c.2-.21.23-.98-.04-1.14-.37-.22-.88-.09-1.2.15l-.8.58c-.02.53-.02.8.28-.03ZM341.42,127.63c.39.28.62.52.65.39l.16-.65c.17-.7.4-1.48.61-2.09l-.29-1.09c-.06-.21.38-.6.37-.84l-.02-2.17c.19-.14.62-.4.5-.46l-.7-.38.85-1.9.08-1.65c.04-.73-.35-1.98-.39-2.62.38-.29.75-.59.92-.77.14-.15-.54-.5-.74-.48-.52.04-1.43-.02-1.88-.15l.44-.6c.07-.1-.24-.36-.35-.33l-.5.12c-.07.1-.26.39-.26.38.4.65.5,1.2.37,1.61-.17-.37-.57-1.11-.83-.96-1.04.59-.58.73-1.46,2.67s-.83,3.94-1.08,5.97c-.19,1.56-.17,2.98.02,4.56l.24,2.04c-.04.36-.17.95-.11,1.39.04.32.93.37,1.27.53l.7.32c.15.07.44-.41.34-.55l-.34-.5-.32-.48c-.07-.1.22-.34.34-.31l.51.12c.36.09.7-.7.9-1.12ZM348.53,127.32c.12-.02.08-.18-.15-.51l1.13-.8.48-.34c.09-.06-.14-.26-.25-.3-.83-.29.35-.43-.13-2.32-.03-.11-.68-.24-.61-.34l.38-.49c.39-.5.51-.97.47-1.63.1-.12.34-.33.25-.39-.08-.05-.21-.18-.28-.17s-.24.07-.5.15l.4-1.34c.08-.27.24-.64.11-.8l-.48-.62c-.54-.69-1.3-1.5-2.23-1.51-.18.37.19.78.65,1.07l-.74.47c-.39.25-.02,1.26.38,1.92l-1.48.64c1.19,1.52.02.71.79,2.02-.14-.24-1.06,1.22-.53,2.94-.09.23-.45.87-.26.98l.61.35c-.45.26-.86.52-.92.79-.05.22.21.82.32.85.17-.57.27-1.11.5-1.3.63-.5.64.98,2.1.7ZM238.89,186.02l-1.29.06c.27-.67.95-.99,1.22-.69.33.36.98.92,1.3.77.28-.13.73-.64.86-.8l-1.13-.69-.4.04c-.09,0-.15-.3-.09-.36l.32-.29c.23-.21.48-.58.65-.47l.87.56c.16.1.55-.47.73-.39l.96.45-.11-1.29c-.12-.05.62-.26.71-.09l.46.84,1.17-1.12c.2-.19.46-.65.71-1-.04-.22-.52-.72-.4-.94l.52-.94c.92.66,2.5.53,2.82-.24.07-.16-.03-.64-.03-.82,0,.51,2.12-1.9,3.2-2.15l-1.73-.5.33-.89.46.83,1.52-2.05,1.05-.87-1.66-.13-.75-1.03c.28-.05.92-.06,1.01-.28l.34-.81c.07-.18.45-.58.29-.68l-.79-.47c.13-.13.65-.37,1.3-.67l-1.39-.18-.17-.69c-.03-.12-.49.08-.51.07l-.5-1.68c.27-.34.64-.52.51-.09l.33.99s1.39-.02,1.26-.42l-.13-.4c-.03-.08-.34.08-.49.12-.29-.88-1.32-1.37-2.24-1.61.17-.54.34-1.21.41-1.73-.67.72-.79,1.03-1.16.98-.68-.09-1.12-.41-1.17-.93-.03-.31.35-.72.81-1.27l-.95-.83c-.25.34-.49.68-.69.7-1.22.07.28-1.77-1.46-2.04-.14-.3-.23-.82-.5-.88l-1.32-.28c-.03-.08.18-.59.35-.57l.78.11c.16.02-.17-.66-.01-.71l.81-.26c-.07-.08-.26-.37-.38-.36l-.57.09c-.08.01-.25-.2-.32-.25s-.18-.08-.16,0l.11.56c.03.18-.11.53-.29.52l-.98-.06c-.46.08-.17-.15.22-.35.15-.07.56-.28.47-.37l-.37-.4c-.09-.09-.28.39-.39.47l-.6.43c-.13.1-.44-.52-.29-.6l1.27-.71c.12-.07.35-.33.41-.45s-.22-.35-.36-.34l-.72.07.95-.69c.12.09-.43-.31-.66-.48-.15-.11-.35.33-.49.55l-.32.54c-.05.08-.38-.12-.37-.12.26-.3.5-.5.39-.59l-.7-.52c.56-.58,1.61-1.32,1.5-2.03l-.2-1.34c-.04-.27.59-.62.76-.86.09-.13-.09-.55-.12-.69.11-.28.34-.84.13-.98l-.86-.59.76-.82c-.59-.69-.87-1.16-1.07-2.03l-.98.24-.11-1.16c-.1-1.09-.25-2.03-1.64-2.39.09-.43.35-.96.63-1.46-.28-.01-1.06,0-1.34.07-.24.06-.37.52-.58.86l-.62-.33c.52-.26,1.05-.63,1.19-1.36-.29.11-.64.39-.86.63-.09.09-.48.06-.61.04-.08-.01.1-.31.18-.35l.29-.17c-.23-.08-.84-.3-.71-.41l.51-.44c.2-.17.31-.97.05-1.03l-.85-.19c-.16-.04-.42-.6-.52-.47l-.36.53c-.06.08-.3.2-.38.25-.5.29.43-1.13.02-1l-.71.22c-.15.05-.21-.63-.05-.63h.5s.81-.67.81-.67l-1.19-.57c-.39-.19-.99.82-1.07,1.15-.15-.41-.3-1.19-.64-1.25l-1.35-.23c.51-.26,1.01-1.11.88-1.44-.19.27-2.53-.66-2.49-.58-.11-.21-.26-.76-.35-1.05-.03-.11-.36-.16-.46-.09l-.6.42c.08-.64-.24-1.48-.72-1.64l-1.31.47.23-.99-1.11-.11-.59-.06c-.08,0,.14-.24.19-.3l.31-.39-2,.72.9-1.24-1.23-.47.1-1.77c-.07.7-1.02,1.48-1.56,1.28-.1-.04-.34-.54-.43-.48l-.44.32c-.96-1.19-1.04-1.18-2.29-.98l.55-1.56-.53-.18c-.07.45-.08.93-.27.98l-.69.17c-.71.43-1.21.87-2.11,1.17l2.47-2.34-1.42.06c.09,0-1.59-1.12-1.39-.51l.22.7c-1.45.48-2.45-2.09-2.6-.92l-.1.82-.59-1.35-1.02,1.33c-.17-.06-.66-.54-.82-.4l-.69.6-.58-.4c-.61-.42-1.58,1.28-1.76,1.41l-.86.66-.58-.36c.09.56.3,1,.13,1.13l-.76.58c-.12.1.19.63.07.74l-.68.61c.49.05.97.04,1.49-.04-.11.68-1.16.45-1.61.47-.15,0-.49.31-.57.2l-.36-.45c-.32.09-1.27.34-1.41.69l-.73,1.81c-.02.32.02.58-.14.6l-.9.13.55,2.05,1.03.41-1.01.69,1.08.03.24,1.32c.22.21.53.44.39.52l-.59.33c-.21.12-.64.47-.59.68s.41.62.49.61l-.12-.82c-.01-.09.88-.26,1.13-.23.12.02.26.39.15.35-.07-.02-.54.11-.56.18l-.54,2.15c-.59.34-1.08.7-.97,1.24l1.54-1.09c.08.31.02.95-.12,1.17-.22.32-1.8.47-1.26.75l.59.3-.77.24,1.57.44c.23.61.25.76-.45.37l-.26,1.11c-.06.24.44.54.61.86.08.15-.1.66-.2.85-.06.11-.12,0-.5-.4l-1.49,1.08c.91.18,1.29.35,1.98.85l1.66-.99-.68,1.01.92-.25c.2-.05.81-.36.88-.16s.31.69.15.82l-.72.58,1.28.52c-.43.55-1.14.37-1.85.01l1.12,2.01c.32-.2.5-.31.57-.37.05-.04.11.14.07.19l-.31.37,1.63.98-.82.32c-.12.05.03.34.16.38l.6.16c-.56.56-1.14,1.27-1.69,2.04.58-.16,1.33-.38,1.39-.04s0,.71.14.71h.69c.2.37-.53.92-1.09,1.03,0,0,.22.41.3.56.06.11.41-.2.7-.4,1.13-.49-.58,1.04.23,2.65l1.08-.6c.37.87.89,1.25,1.78,1.08l-.49.52c-.06.06.01.34.02.26l.65-.07c.13-.01.37.46.25.51l-.62.23-.57.21c-.11.04.28.28.35.38.04.06.24-.32.3-.36.1-.06.36,0,.43.1s.01.36-.07.45l-.41.46,1.29-.14c0,.21.01.58-.12.64l-.52.24c-.24.11-.24.73-.04.97.14.17.51.29.97.44.08-.08-.07.48-.21.42l-.76-.31.11,1.28c.02.17.72.32.61.45l-.47.53c-.06-.02.51.46.58.32l.39-.89.92,1.36c.34.49,1.2,1.67,1.71,1.37.58-.37,1.12-.64,1.6-.58l-.68,1.66.7.79c.62-.18,1.49-.18,1.96.06,0,.24-.16.74-.04.84l.69.6-1.67,1.5c.45,0,.95-.17,1.11,0l.53.58c-.24.3-.32.34-.25.39l.47.33-.33.57c-.07.13.6.43.7.34l1.19-1.03c.51.28.57,1.26.08,1.49l-.11-.61c-.02-.1-.24-.06-.55-.04.18.66.51,1.48.86,2.1l1.4-1.26c-.13.55-.23.8-.47,1.35l.38-.04c.07,0,.11.29.04.32l-.37.16c-.14.06-.64.43-.52.52l.59.41-1.08.49,1.21.42,1.22.9c.48-.47.68-.49.61-.08.04.41.01.92.16.89,1.22-.26,1.41-.7,1.51-.4.05.16.38.6.24.68l-.75.46c.67.07,1.09.1,1.54.34l.9.47c-.16.3-.23.72-.42.76l-1.02.18.62.37c.12.07.12.44.18.96.68-.26,1.43-.67,2.12-1.15l.29.66c.3-.14.74-.44.96-.34l.94.42,1.09-1.31.04.77.66,1.14c.17-.27.79-1.03,1.13-1.04.55.17,1.28.41,1.55.18,1.26-1.08,1.9.58,2.18-.15l.29-.75ZM348.62,130.31l.6-2.41-2.52.14.84.54-.93,1.14c.88.36,1.58.59,2.01.59ZM350.33,136.48l.98-.87c-.68-.14-1.06-.17-1.27-.33-.12-.09.07-.64-.05-.72l-.54-.36.91-.25c.15-.04.19-.78.1-.91-.28-.38-1.01-.92-1.42-1.33l-.67-.68c-.14-.14-.55.41-.51.63.16.97-.2,2.77.07,3.7l.92,3.2,1.47.47.02-2.57ZM337.2,201.32c-.37.78-.66,1.3-.75,1.67l-.42,1.91,1.31.84c.28-.18,1.01-.6,1.09-.33l.33,1.1.29-.33c.07-.08.4.18.45.27.81,1.48,2.64,2.44,2.63,2.5l.22-.69c.76,1.54,2.8,1.71,4.2.63l.19-3.36c-.47-.53-.87-1.02-1.2-1.51,1.14-.4,1.46-1.14,1.23-1.99-.21.03-.74.17-.79-.02-.04-.15-.1-.64-.06-.8l.48-1.98-1.5-.37,1.71-.41c-.37-.32-.97-.26-1.41-.15-.12-.07-.24-.47-.12-.57l.46-.39.33-.27c.07-.05,0-.31-.09-.3l-.38.03-.53.05c-.46.04.26,1.07-.74,2.67l1.72.1c-.52.71-.95,1.93-2.2,1.88.19-.59.64-.73,1.48-1.25l-2.33-.8.34-.29c.09-.08-.14-.39-.15-.5l-.14-1.02s-.47.36-.67.52c-.12.09.07.27.35.64-.16.25-.36.62-.61.74s-.97-.05-1.36-.1l.48,1.19c-.49.21-.78.38-1.34.77,0,.08.04-.41.07-.72-.22.07-.68.17-.73.39l-.23.96-.77-.51-.1.95-.71-1.15ZM360.29,204.04l-.45-.26c-.11-.06-.36-.31-.27-.39l.4-.33c-.32-.21-.75-.44-.7-.67l.18-.9c-.46.72-.72,1.39-1.59,1.55-.4-2.68-1.84-1.39-2.65-2.48-.75.5-1.74.75-2.6.47.5.43,1.73,2.75,1.27,3.5l1.04.41c.17.07.64-.12.75.02l.4.55,2.89-.3.13-.69c.06-.33,1.96-.04,1.2-.49Z"/>
  <path d="M249.92,72.48c-.01-.39-.02-1,0-1.44.17.07.45.17.43.33l-.08.66c-.02.13.42.08.48-.04l.24-.42,1.2.38-.97.89c-.25-.11-.96-.39-1.31-.36Z"/>
  <path d="M356.66-.65l-1,.93c1.21-.49,2.01-.61,3.37-.32l-.21-.62h1.2c.13.18.46.53.64.61,1.31-.52,4.06-.19,3.92-.61h.48s-.29.5-.17.5l.57.02-.11.42c-.03.12.21.25.32.32s.41-.51.54-.53l2.72-.59-.47,1.37.91-.5c.32.27,1.17.58,1.37.29l.32-.47c.06-.09.23.1.37.2.86.02,1.71.13,2.54.31l.32-.86c.11-.31.89.78.96.71l.39-.4c.08-.09-.39-.29-.58-.36-.11-.04-.01-.22.07-.42h56.13v24.94c-.51,0-1.09-.12-1.63-.31l-.45.31c-.09.07.05.4.16.4l.62-.04c.24.42.74.79,1.29,1.09v.48c-.43.01-.78-.3-1.14-.73l-.68,1.33c-.2-.27-.31-.43-.2-.26.23-.76.27-.92.29-1.31l-1.7,1.05c-.14.08-.74.16-.97.19-.13.02-.04-.18.06-.56l1.96-.78c-1.15-.43-2.13.39-3.04,1.03l-.79-.52c-.16-.1-.48.19-.68.32l-.42-.71c-.46.74-.83,1.17-1.51,1.54l.11-1.34c-.45.85-.54,1.56-1.49,1.8.26.25.35.63.04.91-.39.35-.54.27-1.12.17-.48-.09-1.14.81-1.39,1.21-.07.12-.67-.19-.58-.29l.4-.49-.48.04-1.57-.3.53.99c.11.2-.22.61-.52.95l-.34-.88-.45.94s-.78-.21-1.58-.85c-.73-.58-.77,2.47-1.27,1.79-.28-.37-.73-.86-.97-.72l-.97.56c-.21-.55-.58-1.18-1.05-1.32l.11,1.08c.02.17-.43.39-.55.53l-.3.34c-.06.07-.27-.02-.29-.1l-.12-.77-.36,1.39-1.05-.19c-.21-.04-.39.49-.62.83l-.6-.99-.81,1.59-1.27.9c-.12.09-.18-.32-.09-.4l.37-.36-.43-.29c-.11-.07.03-.43.13-.79.03,0-.48.03-.67.04-.17.01-.25.47-.14.6.09.1.32.36.31.34l-1.22.89-.33-.58c-.16-.28-.98,1.49-1.9,1.77l-.1-.81c-.03-.28-.83.58-1.01.52-.15-.05-.54-.32-.7-.32-.38,0-1.23.07-1.53-.14-.1-.07.17-.6.05-.62l-.61-.09c-.12-.02-.17.18-.21.59.63-.07.26.1-.18.3.01.28.15.73-.03.77l-.9.22.75-1.29-.3-.32c-.05-.06-.19.29-.25.39-.09.15-.48.42-.59.29l-.36-.43-.35,1.03-.53-1.16-.34.95c-.04.11-.37.06-.47.09l-1.16.99-.97-1.15-.55,2.29c-.04.19.13.72-.03.72-.13,0-.55-.04-.45-.03.06-.4.09-.95-.03-1.14-.18-.31-1.38.18-1.59-.17l-.49-.81-1.11.43c-.12.75-.07,1.69-.9,2.13l.48-1.8-1.09.29.08-.41c.02-.09-.36-.16-.37-.07l-.02.56c-.01.29-.25.89-.53,1.19-.2.21-.55.19-1.11.02l-.7.98c-.17-.2-.77-.19-.9,0s-.08.82.04,1.03l.26.44c.05.08-.56.12-.63.06-.41-.35-.28-1.3-.14-2.37-.28-.17-1.38,2.25-1.84,1.36-.08-.16-.22-.6-.15-.77l.43-1-.79.07c-.13.01-.37-.35-.51-.46-.19-.15-.68.17-.87.34s-.32.83-.23.93l1.51-.41c.02.32-.04.84-.21.95-1.58.99-1.28,1.15-1.89,1.15l.22-.63c.04-.1-.25-.39-.34-.34l-.51.3c-.11.07-.46.17-.63.21-.08.02-.05-.22-.02-.3l.19-.56-1.34-.45c-.17-.06-.73.11-.85-.03l-.63-.8.05.84-1.42.03-.3-.66c-.14.48-.26.88-.7,1.26-.04-.2-.02-.65,0-1.02l-1.1.13-.09.82c-.01.11-.27-.11-.42-.23l-.17-.14-.64.41c-.12.07-.39-.2-.34-.33l.22-.67c-.08-.07-.81-.18-1.1-.12-.25.05-.45.72-.66,1,.06-.88-.33-1.89-1.38-1.87l-1.08,1.14.09-.97c.02-.19-.67-.13-1.09-.2-.49.09-.21-.13.33-.43.47.09.28-.41-.05-.51l-.78.48c-.14.09-.43-.12-.87-.32.19-.54,1.73-2.48,1.81-2.45l.67.2v-1.62c-1.7.43-3.13-1.46-3.79-2.75l-.66.57c-.13.11-.4-.42-.53-.66l-2.04-.2c-1.64-2.48-2.57-2.09-4.6-4.32l-1.13-1.25c-.34-.38-.66-.68-1.05-1l.14-.64c.02-.08-.21-.06-.29-.04l-.42.12.16-.74c.03-.12-.47-.25-.53-.31l-.19-1.24-.26-2.57c-.02-.17-.51-.61-.38-.71l.5-.38c.13-.1.32-.26.41-.34s-.43-.44-.39-.54l.68-1.79-.66-.52.87-1.52c-.29-.09-.62-.11-.6-.23l.1-.6.13-.72c.02-.12.38.16.49.23l.37.21c-.22-.57-.49-1.07-.3-1.36.2-.31.87-.54,1.2-.6-.43-.39-.67-.94-.9-1.82l1.08-.85c.12-.1.16-.56,0-.59l-.93-.17,1.45-.49-.17-1c.62-.45.52-1.29.19-1.88h1.65c.17-.01.33-.18.36-.42.02-.13-.25-.23-.51-.33,0,0,.17-.43.25-.63.06-.16.41.04.81.15l.31-1.07.75.58,1.23-1.48h.96ZM381.34,28.1c.23-.51.28-.81.47-.86l1.06-.29-2.11-.47-.74.17c-.17.04.02.68.17.77l1.16.68Z"/>
  <path class="cls-1" d="M375.13-.65c-.08.2-.17.38-.07.42.19.07.67.28.58.36l-.39.4c-.06.07-.84-1.02-.96-.71l-.32.86c-.83-.18-1.68-.29-2.54-.31-.15-.1-.32-.29-.37-.2l-.32.47c-.2.29-1.04-.01-1.37-.29l-.91.5.47-1.37-2.72.59c-.13.03-.43.6-.54.53-.12-.07-.36-.19-.32-.32l.11-.42-.57-.02c-.12,0,.16-.48.17-.5h10.07Z"/>
  <path class="cls-1" d="M431.25,24.29v1.44c-.54-.29-1.05-.67-1.29-1.09l-.62.04c-.12,0-.26-.33-.16-.4l.45-.31c.53.19,1.11.32,1.63.31Z"/>
  <path class="cls-1" d="M358.81-.65l.21.62c-1.36-.29-2.16-.17-3.37.32l1-.93h2.16Z"/>
  <path d="M355.48,45.79l1.43.1.48.32c.1.07-.15.45-.18.45l-.7-.33c-.21-.1-.77.24-.8.34l.87.42-2.22,1.07-.14-2.29-.64.32.37.38c.13.13.01.79-.02.7l-1.27-.89c-.06.08-.13-.6.03-.69l.86-.46-.86.08c-.16.01-.22-.42-.22-.58,0-.2.48-.24.97-.31l-.07-1.24-1.29-2.43.62-.64c.14-.14-.21-.52-.32-.89-.12-.4.79-.73,1.42-.89l-.52-.66.96-.92c.54,0,.55.02-.03.59l1.52.43-.76-.93c.46-.34,1.06-.71,1.69-.73l-.87.84c.71.2,1.48.31,2.23.3l.46-1.25c.87.72-.26,2.05.18,2.22l.84.31-1.66.62,1.21.44.78,1.56c.33.1.52.19.42.25l-.52.34c-.13.08-.19-.29-.35-.68-.36.3-.81.72-1.12,1.12-.23.3.13.97.37,1.74l.78-.55c-.02-.06.22.42.27.33l.35-.64.29-.53c.05-.1.43.15.42.26l-.06.44c-.07.17-.26.5-.18.61l.46.61-1.52-.24.62,1.96-2.02-1.13.6-1.04-1.34.54c.02.94-.72.92-1.84,1.27Z"/>
  <path d="M257.98,189.69l-.56-.38c-.17-.11-.56.32-.7.43l-.21-.72c-.05-.19-.6-.22-.91-.25-.17-.01-.1-.5.04-.57l.6-.32c.14-.07.26.6.42.61.46.03,1.77.05,1.32,1.2Z"/>
  <path d="M233.53,35.73c.3.64-.3.89-.8.83-.36-.05-.65-.54-.55-1.09.06-.34,1.19-.09,1.35.26Z"/>
  <path d="M235.42,205l.07-.77c.05-.6-.64-.04-.59-.81,0-.11.35-.18.43-.1.19.18.43.5.6.48l.9-.07c-.26.5-.75.98-1.41,1.28Z"/>
  <path class="cls-1" d="M238.89,186.02l-.29.75c-.28.72-.92-.93-2.18.15-.27.23-1-.01-1.55-.18-.34.02-.96.77-1.13,1.04l-.66-1.14-.04-.77-1.09,1.31-.94-.42c-.23-.1-.66.2-.96.34l-.29-.66c-.68.48-1.44.88-2.12,1.15-.06-.52-.06-.89-.18-.96l-.62-.37,1.02-.18c.19-.03.27-.45.42-.76l-.9-.47c-.45-.23-.88-.27-1.54-.34l.75-.46c.14-.09-.19-.53-.24-.68-.1-.3-.29.14-1.51.4-.15.03-.12-.47-.16-.89.07-.41-.13-.39-.61.08l-1.22-.9-1.21-.42,1.08-.49-.59-.41c-.12-.09.38-.46.52-.52l.37-.16c.07-.03.03-.32-.04-.32l-.38.04c.24-.55.34-.81.47-1.35l-1.4,1.26c-.35-.62-.68-1.44-.86-2.1.31-.02.53-.06.55.04l.11.61c.49-.23.42-1.21-.08-1.49l-1.19,1.03c-.1.09-.78-.21-.7-.34l.33-.57-.47-.33c-.07-.05,0-.09.25-.39l-.53-.58c-.16-.18-.66-.02-1.11,0l1.67-1.5-.69-.6c-.12-.1.04-.59.04-.84-.47-.24-1.34-.24-1.96-.06l-.7-.79.68-1.66c-.48-.06-1.02.21-1.6.58-.51.3-1.37-.87-1.71-1.37l-.92-1.36-.39.89c-.06.15-.63-.34-.58-.32l.47-.53c.11-.13-.59-.28-.61-.45l-.11-1.28.76.31c.14.06.29-.49.21-.42-.46-.16-.83-.27-.97-.44-.19-.24-.2-.86.04-.97l.52-.24c.13-.06.12-.43.12-.64l-1.29.14.41-.46c.08-.09.14-.35.07-.45s-.33-.15-.43-.1c-.07.04-.26.42-.3.36-.07-.09-.45-.34-.35-.38l.57-.21.62-.23c.12-.04-.12-.52-.25-.51l-.65.07c0,.08-.08-.2-.02-.26l.49-.52c-.89.17-1.41-.21-1.78-1.08l-1.08.6c-.81-1.61.91-3.14-.23-2.65-.29.2-.63.51-.7.4-.08-.15-.31-.57-.3-.56.56-.11,1.29-.67,1.09-1.03h-.69c-.14,0-.09-.37-.14-.7s-.81-.12-1.39.04c.55-.77,1.12-1.48,1.69-2.04l-.6-.16c-.13-.03-.28-.33-.16-.38l.82-.32-1.63-.98.31-.37s-.02-.23-.07-.19c-.08.06-.26.17-.57.37l-1.12-2.01c.71.36,1.42.54,1.85-.01l-1.28-.52.72-.58c.16-.13-.07-.63-.15-.82s-.68.11-.88.16l-.92.25.68-1.01-1.66.99c-.69-.5-1.07-.67-1.98-.85l1.49-1.08c.37.4.44.51.5.4.1-.18.28-.7.2-.85-.17-.32-.66-.62-.61-.86l.26-1.11c.71.4.68.24.45-.37l-1.57-.44.77-.24-.59-.3c-.54-.27,1.04-.43,1.26-.75.15-.21.21-.86.12-1.17l-1.54,1.09c-.11-.54.38-.9.97-1.24l.54-2.15c.02-.08.48-.21.56-.18.11.04-.03-.34-.15-.35-.24-.03-1.14.14-1.13.23l.12.82c-.08,0-.44-.4-.49-.61s.37-.56.59-.68l.59-.33c.14-.08-.17-.31-.39-.52l-.24-1.32-1.08-.03,1.01-.69-1.03-.41-.55-2.05.9-.13c.16-.02.12-.28.14-.6l.73-1.81c.14-.35,1.09-.59,1.41-.69l.36.45c.08.11.43-.2.57-.2.46-.02,1.5.21,1.61-.47-.53.08-1,.09-1.49.04l.68-.61c.12-.11-.2-.64-.07-.74l.76-.58c.17-.13-.05-.57-.13-1.13l.58.36.86-.66c.18-.14,1.15-1.83,1.76-1.41l.58.4.69-.6c.15-.13.65.34.82.4l1.02-1.33.59,1.35.1-.82c.14-1.17,1.14,1.4,2.6.92l-.22-.7c-.2-.62,1.48.5,1.39.51l1.42-.06-2.47,2.34c.9-.3,1.4-.74,2.11-1.17l.69-.17c.19-.05.2-.52.27-.98l.53.18-.55,1.56c1.25-.2,1.33-.22,2.29.98l.44-.32c.09-.06.33.44.43.48.54.2,1.49-.58,1.56-1.28l-.1,1.77,1.23.47-.9,1.24,2-.72-.31.39c-.05.06-.27.3-.19.3l.59.06,1.11.11-.23.99,1.31-.47c.48.16.8,1,.72,1.64l.6-.42c.1-.07.42-.01.46.09.09.29.24.84.35,1.05-.04-.08,2.3.85,2.49.58.14.34-.37,1.19-.88,1.44l1.35.23c.34.06.49.84.64,1.25.07-.33.67-1.34,1.07-1.15l1.19.57-.81.68h-.5c-.16-.02-.1.66.05.61l.71-.22c.41-.12-.52,1.3-.02,1,.09-.05.33-.16.38-.25l.36-.53c.09-.14.35.43.52.47l.85.19c.25.06.14.86-.05,1.03l-.51.44c-.13.11.49.33.71.41l-.29.17c-.07.04-.26.34-.18.35.13.02.52.05.61-.04.22-.23.57-.52.86-.63-.14.73-.67,1.09-1.19,1.36l.62.33c.21-.34.35-.8.58-.86.29-.08,1.06-.08,1.34-.07-.28.5-.54,1.04-.63,1.46,1.39.36,1.53,1.3,1.64,2.39l.11,1.16.98-.24c.19.87.47,1.34,1.07,2.03l-.76.82.86.59c.21.14-.02.7-.13.98.03.14.21.56.12.69-.17.24-.8.59-.76.86l.2,1.34c.11.71-.94,1.46-1.5,2.03l.7.52c.12.09-.12.28-.39.59-.01,0,.32.2.37.12l.32-.54c.13-.22.34-.66.49-.55.23.17.78.57.66.48l-.95.69.72-.07c.13-.01.42.21.36.34s-.28.38-.41.45l-1.27.71c-.15.08.16.69.29.6l.6-.43c.11-.08.3-.56.39-.47l.37.4c.09.09-.32.31-.47.37-.39.2-.68.43-.22.35l.98.06c.18.01.33-.34.29-.52l-.11-.56c-.01-.07.1-.04.16,0s.24.26.32.25l.57-.09c.12-.02.31.27.38.36l-.81.26c-.15.05.17.73.01.71l-.78-.11c-.17-.02-.38.49-.35.57l1.32.28c.27.06.36.58.5.88,1.73.26.24,2.11,1.46,2.04.21-.01.45-.35.69-.7l.95.83c-.46.55-.84.96-.81,1.27.06.52.5.84,1.17.93.37.05.49-.26,1.16-.98-.07.53-.24,1.2-.41,1.73.91.24,1.95.73,2.24,1.61.14-.04.46-.2.49-.12l.13.4c.13.4-1.25.45-1.26.42l-.33-.99c.13-.43-.24-.25-.51.09l.5,1.68s.48-.19.51-.07l.17.69,1.39.18c-.65.3-1.17.54-1.3.67l.79.47c.15.09-.22.5-.29.68l-.34.81c-.09.22-.73.24-1.01.28l.75,1.03,1.66.13-1.05.87-1.52,2.05-.46-.83-.33.89,1.73.5c-1.08.25-3.19,2.66-3.2,2.15,0,.17.1.66.03.82-.32.76-1.9.9-2.82.24l-.52.94c-.12.22.37.72.4.94-.25.35-.51.8-.71,1l-1.17,1.12-.46-.84c-.09-.17-.83.04-.71.09l.11,1.29-.96-.45c-.18-.08-.57.49-.73.39l-.87-.56c-.17-.11-.41.26-.65.47l-.32.29c-.06.06,0,.37.09.36l.4-.04,1.13.69c-.13.16-.59.67-.86.8-.32.15-.97-.41-1.3-.77-.27-.3-.96.02-1.22.69l1.29-.06ZM213,125.78c.05-.07-.32-.69-.36-.61l-.28.51-1.53-.37c-.19.12-.38.31-.49.25l-.39-.2-1.62,1.01,1.86.51-.55-.61c-.6-.67,2.47.3,3.37-.49ZM202.74,131.46l-.23,1c-.11.46,1.52-.11,1.56-.71.02-.25-.04-.77-.09-1.05l-.76,1.22-.48-.46Z"/>
  <path class="cls-1" d="M395.92,96.2c.06-.1-.29-.6-.41-.61-.9-.07-1.84.89-2.12,1.02l.09-.97c.01-.16-.54-.24-.66-.32l.91-1.14-1.37-.25c.63-.33,1.12-.31,2-.17l-.48-.65c-.12-.16.29-.53.41-.64l-.69-.24c-.12-.04.18-.41.26-.51.11-.14.53.15.7.28.18.14.59-.35.65-.57l.31-1.24c.46.3,1.03.73,1.36.73.63-.25,1.35-.67,1.96-1.09l-2.81.29.3-1.7c-.16-.3-.36-.71-.33-.94s.63-.47.85-.37.33.66.31.9l-.08,1.11,1.63.09.62-1.95c.04-.13-.23-.68-.09-.65l.87.21c.05.48.13.17.18-.24l-.75-.73,1.07-.44c.19-.08-.12-.54-.19-.85-.22-.93,1.84-1.46,1.78-1.62l.24.68.34-.92,1.2-.33c.17-.05.43-.55.6-.53.21.03.6.29.87.45.54-.24,1.7-.8,2.11-.43l.81.74c.17.16.77-.36,1.01-.38l3.08-.18c.15,0,.54-.13.67-.15s.27.32.42.56c.61-.03,1.23-.56,1.52-1.3.03.01.29.24.28.36l-.08.69,1.68-1.22.36.27c.12.09.44-.19.61-.26l.64-.26c.18-.07.2-.56.27-.93,0,0,.25.03.54.06.24-1.58,2.06-.81,4.05-1.22.72.82.76,1.89.14,2.73.52.38.65.52,0,.37-.55.79-1.03,1.67-1.64,2.22l-1.9,1.72c-.68.61-1.44,1.16-2.17,1.74-.49.39-.94.94-1.53,1.29s-1.27.95-1.7,1.35c-.99.2-1.68.65-1.83,1.77l-.49.02c-.1,0-.51.1-.44.17l.47.5-.85.32c-.16.06,0,.44.07.79l-1.12.28.19.51c.03.08-.05.25-.1.38-.05.12-.39-.32-.46-.44l-.86,1.15c-.37.49-.69.78-1.18,1.2-1.13.97-1.86,2.4-2.8,3.49-.25.03-.61-.02-.66.14l-.25.82-1.04.07c-.82.06.13,1.46-1.88,2.06l-1.44.43-.21.72-2.19.51c-.04.59.07,1.04-.15,1.21-.29.21-.94.37-1.22.32l-1.3-.26c-.08-.02-.28.17-.31.23-.05.1-.43-.11-.42-.22l.18-1.24-1.16-.02,1.36-1.42-.42-.28c-.08-.05-.15-.42-.17-.32l-.16.8c.17.03.06,0-.48-.07.15-.52.3-1.33.57-1.62l1.03-1.11c-.69-.05-1.1-.1-1.47-.53.03-.32.65-.56,1.13-.8.45-.23,0-1.5-.19-1.91.43-.3,1.28-1.03,1.56-1.49ZM400.89,91.4l.53.76.33-.84c.11-.29-1.17-1.12-.87-1.33l.86-.62-.63-.27c-.15-.07-.38.16-.65.32l-.52-.4-1.06,1.91c.51-.21.69-.36,1.31-.78l.38,1.26c-.72-.15-1.58,0-1.53.95l.89-.58c.11.08.65.56.71.38l.24-.75Z"/>
  <path class="cls-1" d="M341.42,127.63c-.2.42-.53,1.2-.9,1.12l-.51-.12c-.12-.03-.41.22-.34.31l.32.48.34.5c.09.14-.19.62-.34.55l-.7-.32c-.34-.16-1.23-.2-1.27-.53-.05-.45.07-1.03.11-1.39l-.24-2.04c-.19-1.57-.21-3-.02-4.56.25-2.03.24-4.12,1.08-5.97.88-1.95.42-2.08,1.46-2.67.26-.15.66.59.83.96.13-.42.03-.97-.37-1.61,0,0,.19-.28.26-.38l.5-.12c.12-.03.43.23.35.33l-.44.6c.45.13,1.37.18,1.88.15.2-.01.88.33.74.48-.17.18-.54.48-.92.77.04.64.43,1.89.39,2.62l-.08,1.65-.85,1.9.7.38c.13.07-.31.33-.5.46l.02,2.17c0,.24-.43.63-.37.84l.29,1.09c-.21.61-.43,1.39-.61,2.09l-.16.65c-.03.12-.26-.11-.65-.39Z"/>
  <path class="cls-1" d="M337.2,201.32l.71,1.15.1-.95.77.51.23-.96c.05-.22.51-.32.73-.39-.03.31-.08.8-.07.72.56-.39.86-.56,1.34-.77l-.48-1.19c.39.05,1.11.22,1.36.1s.45-.49.61-.74c-.28-.37-.47-.55-.35-.64.2-.16.69-.54.67-.52l.14,1.02c.02.11.24.42.15.5l-.34.29,2.33.8c-.83.52-1.28.66-1.48,1.25,1.25.05,1.68-1.17,2.2-1.88l-1.72-.1c1-1.6.29-2.63.74-2.67l.53-.05.38-.03c.08,0,.15.25.09.3l-.33.27-.46.39c-.12.1,0,.5.12.57.44-.11,1.04-.16,1.41.15l-1.71.41,1.5.37-.48,1.98c-.04.17.03.65.06.8.05.19.59.05.79.02.23.85-.08,1.59-1.23,1.99.33.49.72.98,1.2,1.51l-.19,3.36c-1.4,1.08-3.44.91-4.2-.63l-.22.69c.02-.06-1.81-1.02-2.63-2.5-.05-.09-.38-.35-.45-.27l-.29.33-.33-1.1c-.08-.27-.81.15-1.09.33l-1.31-.84.42-1.91c.08-.38.37-.89.75-1.67Z"/>
  <path class="cls-1" d="M348.53,127.32c-1.46.28-1.47-1.2-2.1-.7-.24.19-.33.73-.5,1.3-.1-.03-.37-.62-.32-.85.06-.27.47-.53.92-.79l-.61-.35c-.19-.11.17-.75.26-.98-.52-1.72.39-3.17.53-2.94-.77-1.3.4-.5-.79-2.02l1.48-.64c-.41-.66-.78-1.67-.38-1.92l.74-.47c-.47-.29-.83-.7-.65-1.07.93.01,1.7.82,2.23,1.51l.48.62c.13.16-.03.54-.11.8l-.4,1.34c.27-.09.43-.14.5-.15s.2.12.28.17c.09.06-.15.26-.25.39.04.66-.07,1.13-.47,1.63l-.38.49c-.07.09.58.22.61.34.48,1.89-.7,2.03.13,2.32.1.04.34.24.25.3l-.48.34-1.13.8c.23.33.27.49.15.51Z"/>
  <path class="cls-1" d="M360.29,204.04c.77.45-1.13.16-1.2.49l-.13.69-2.89.3-.4-.55c-.1-.14-.58.04-.75-.02l-1.04-.41c.46-.75-.78-3.07-1.27-3.5.86.28,1.85.04,2.6-.47.8,1.08,2.25-.2,2.65,2.48.87-.16,1.13-.83,1.59-1.55l-.18.9c-.05.22.38.46.7.67l-.4.33c-.09.08.16.33.27.39l.45.26Z"/>
  <path class="cls-1" d="M350.33,136.48l-.02,2.57-1.47-.47-.92-3.2c-.27-.93.09-2.73-.07-3.7-.04-.22.37-.77.51-.63l.67.68c.4.41,1.14.95,1.42,1.33.09.13.05.87-.1.91l-.91.25.54.36c.12.08-.06.63.05.72.21.16.59.19,1.27.33l-.98.87Z"/>
  <path class="cls-1" d="M348.62,130.31c-.43,0-1.13-.24-2.01-.59l.93-1.14-.84-.54,2.52-.14-.6,2.41Z"/>
  <path class="cls-1" d="M208.88,63.3c-.4-.14-.78-1.13-.52-1.54l-.65-1.26,1.12-.46-.15,2.26c-.01.16.58.42.71.51s-.37.53-.53.48Z"/>
  <path class="cls-1" d="M345,101.65c-.29.83-.3.56-.28.03l.8-.58c.33-.24.83-.36,1.2-.15.27.16.24.94.04,1.14l-1.77-.45Z"/>
  <path class="cls-1" d="M394.87,90.4c-.16.57-.49.83-.51.2-.04-.33-.02-.82-.15-.8l-.65.15c.17-.84.95-1.46,1.84-1.29l-.69.62c-.15.14.06.64.16,1.11Z"/>
  <path class="cls-1" d="M207.65,11.1c0,.63-1.11,1.21-1.72,1.06l.65-.59c.11-.1,0-.43-.05-.85.01-.26,1.12.06,1.12.38Z"/>
  <path class="cls-1" d="M381.34,28.1l-1.16-.68c-.15-.09-.34-.73-.17-.77l.74-.17,2.11.47-1.06.29c-.19.05-.24.35-.47.86Z"/>
  <path d="M213,125.78c-.9.79-3.97-.17-3.37.49l.55.61-1.86-.51,1.62-1.01.39.2c.11.06.31-.13.49-.25l1.53.37.28-.51c.05-.08.41.53.36.61Z"/>
  <path d="M202.74,131.46l.48.46.76-1.22c.05.29.11.8.09,1.05-.05.6-1.67,1.18-1.56.71l.23-1Z"/>
  <path d="M400.89,91.4l-.24.75c-.06.18-.6-.31-.71-.38l-.89.58c-.05-.95.81-1.1,1.53-.95l-.38-1.26c-.62.42-.8.57-1.31.78l1.06-1.91.52.4c.26-.16.49-.38.65-.32l.63.27-.86.62c-.3.22.98,1.04.87,1.33l-.33.84-.53-.76Z"/>
</svg>