<?xml version="1.0" encoding="UTF-8"?>
<svg id="Layer_2" data-name="Layer 2" xmlns="http://www.w3.org/2000/svg" viewBox="0 0 432 288">
  <defs>
    <style>
      .cls-1 {
        fill: #fff;
      }
    </style>
  </defs>
  <path class="cls-1" d="M0,2.31h432v288H0V2.31ZM285.73,18.36l-.52.37c-.1.07.16.44.22.58l1.23,3.16c.99-.25-.35-4.52-.93-4.11ZM232.44,115.75c.33,1.1-.05,2.36.09,3.29l.67,4.35.79,6.15c.27,2.06,1.01,3.9,1.15,6.03.09,1.31.79,2.71,1.13,3.98l.97,3.64c.33,1.23.82,2.34,1.28,3.55.8,2.1.08,3.74,1.15,7.73l.82,3.05c.76,2.83,1.58,5.55,2.13,8.41l.35,1.83c.23,1.22.49,2.53.86,3.7l1.32,4.17c1.58,5.02.96,5.45,2.08,9.93.3,1.2.57,2.29.74,3.53.25,1.84.77,3.56,1.04,5.39l.44,3,1.58,9.58.86,6.08.73,4.54.5,3.18c.23,1.46.08,3.04-.02,4.54-.14,2.18-.15,4.33.01,6.5.13,1.74.28,3.56-.02,5.28l-.75,4.37-1.23,6.92c-.45,2.52-1.74,4.84-2.37,7.35-.41,1.64-1.18,3.05-1.92,4.49-.84,1.65-1.86,2.63-3.45,3.46-2.43,1.26-4.63,2.86-7.33,3.71-1.09-.12-2.74-.78-3.5-1.59-2.57-2.76-3.95-6.82-2.57-10.53l1.75-1.88c.52-.56,1.45-.77,2.25-.5.33,1.26-1.92,1.68-2.06,3.26.27.82,2.02,2.08,2.84,1.47,1.23-.9,2.31-1.83,3.47-2.82.71-.61,1.25-1.6,1.9-2.46-.75-1.44-1.53-2.7-2.58-3.78-.73-.75-1.61-.71-2.58-.62-4.36.38-3.56-.43-7.62,3.02-1.76,4.06-2.67,8.51-2.01,12.88.27,1.77,1.23,4.9,3.22,5.41.07,1.63,1.81,3.72,3.01,4.18,3.46,1.32,7.38,1.67,10.96.57,3.17-.98,7.15-3.2,8.9-6.09l1.84-3.03c.44-.72,1.01-1.65,1.33-2.41l1.21-2.9,1.19-2.71c.34-.78.68-1.8.83-2.66.94-5.54,1.85-4.74,2-10.02l.2-7.07.1-6.11c.02-1.34-.25-2.67-.09-4.12.21-1.82-.2-6.02-.55-7.95-.21-1.17-.23-2.36-.38-3.54-.35-2.84.06-5.57-.11-8.41l-.43-7.18-.41-5.06c-.16-1.96-.87-3.88-1.24-5.78-.26-1.31-.81-2.27-1.11-3.55l-.81-3.47c-1.02-1.51-1.58-2.83-1.7-4.66-.09-1.31-.84-2.65-1.21-3.9-1.48-5.02-2.06-3.93-2.96-8.67-.84-4.42-1.96-7.1-2.95-11.67l-1.37-6.31c-.84-3.85-.31-3.55-1.36-7.88l-.65-2.71c-.24-.98-.29-2.09-.63-3.05-.96-2.7-1.76-5.27-1.62-8.17l1.32,2.12c1.11-1.32-.52-1.99-.82-2.84-.57-1.57-.94-3.25-1.63-4.88-.35-.82-.45-2.1.1-2.72,2.27-.43,4.43-.74,6.42-1.75,1.77-.9,3.76-1.4,5.37-2.6,2.7-2.02,4.6-4.98,7-6.62,1.39-.95,4.14-2.56,2.86-4.93-.47-.87-2.04-1.33-2.71-.68l-2.93,2.85c-1.55,1.51-3.97,2.93-6.16,3.06l-6.03.38c-1.13.07-2.55.27-3.44-.41-.56-3.53-.6-6.85-.74-10.33-.11-2.82-.26-5.65,0-8.46l.41-4.59.7-7.43.47-5.77c.17-2.06.28-4.13.65-6.12.25-1.33.51-2.56.62-3.92l.33-4.08c.2-2.51.43-4.78.95-7.25.3-1.44-.55-3.09-.55-4.52,0-2.34-.61-4.33-1.14-6.54-.3-1.26-.38-2.46-.89-3.8-1.94-5.12-4.29-4.25-9.32-4.52-2.26-.12-3.23.97-3.57.33-.5-.94-.03-4.55-2.39-6.69-1.23-1.12-3.56-1.85-5.23-1.4s-3.3,1.25-4.8,2.13c-.74.44-1.38,1.44-2.06,1.97-.93.73-1.18,1.88-1.84,2.74l-2.29,2.96-1.25,1.68c-.94,1.25-2.44,2.6-2.64,4.18l-.47,3.73c-.15,1.17.22,2.09.81,3.04-.43,1.24-.6,3.19.22,4.27.15.2.8.2.91.01.67-1.04-.08-.68-.5-3.3-.32-2.01,1.37.23,4.22-.5.05.44-.2,1.15-.55,1.53-1.41,1.52-2.53,3.03-3.68,4.73l-4.83,7.16-2.63,3.61c-1.11,1.51-2.08,3.02-3.08,4.61l-2.57,4.1-2.25,3.74-3.23,6.61-3.35,6.52c-.44.86-1.32,2.05-1.51,2.85-.42,1.81-1.21,2.06-2.82,2.56-1.78.55-3.96,1.23-5.54,2.22-6.21,3.89-7.7,5.77-12.33,11.15-.63.73-1.06,2.01-1.7,2.83-.82,1.06-.96,3,.24,3.69.68.39,1.51-.79,2.11-1.04,3.73-1.58,7.03-6.43,9.23-8.01l3.9-2.81c1.22-.88,2.28-1.8,3.62-2.7.03,1.44-.58,2.36-1.07,3.52l-1.43,3.36-2.04,5.49c-.37,1-.71,1.96-1.05,2.99l-.92,2.84c-.89,2.75-1.4,5.5-2.33,8.27-1.24,3.71-2.02,10.69-2.35,14.71l-.25,3.05-.45,2.91-.21,12.11c-.03,1.86-.31,3.69-.26,5.51.06,2.34.36,8.55.75,10.58,1.06,5.51,1.55,4.35,2.17,10.12l.41,3.81c.17,1.57.35,3.2.61,4.69l.61,3.46c.65,3.65,3.39,12.24,5.53,15.2l1.56,2.16c1.11,1.54,2.42,3.15,3.85,4.42,5.15,4.58,6.71,5.13,12.78,8.09,1.94.95,4.53.33,8.68,1.62,1.51.47,2.98-.32,4.27-1.21,1.53-1.05,2.45-2.79,3.7-4.17l2.75-3.04c.75-.83,1.21-2.19,1.38-3.34l-1.62-2.23c-.23-1.71-.66-3-1.31-4.48-.4-.93-.59-2.11-1.12-3.01-.82-1.4-2.36-2.54-3.83-2.99-1.28-.39-2.24-.12-3.23.28-1.85.75-2.75,1.97-2.99,3.87l-.4,3.19c-.12.95-.77,2.35-.14,3.21.76,1.03,2.66.46,3.11-.78.62-1.7,2.5-3.25,4.41-2.38,1,.45,1.29,2.08,1.46,3.09.16.91-.03,1.65-.19,2.51-.21,1.1-.09,2.39-.88,3.22l-1.99.3c-1.13.17-2.12.27-3.28.13l-3.6-.43c-1.45-.17-2.51-.46-3.76-1.14l-2.2-1.2c-.99-.54-2.02-1.03-2.97-1.67-2.09-1.41-4.71-4.91-6.37-7.01l-1.69-2.14c-1.49-1.89-2.46-3.99-3.45-6.18-.15-.32-4.91-9.33-4.7-9.01l-1.39-2.13c-.57-.88-1.53-8.61-1.64-10.21l-.23-3.37c-.24-3.52-.04-5.11-.39-8.38-.24-2.27.28-4.72-.16-6.91-.36-1.78-.28-3.11-.02-4.92.35-2.54.05-5.19.68-7.75.29-1.18.75-2.19.94-3.38l.67-4.28c.23-1.49.87-2.78,1.22-4.24l1.47-6.16c.15-.64.36-1.22.58-1.83,1.61-4.4.47-5.66,2.97-10.51.68-1.33.85-2.73,1.34-4,.61-1.57,1.51-2.88,1.75-4.64.14-1.06.7-1.89,1.37-2.65.82-.93.64-2.44,1.11-3.51.58-1.33,1.39-2.58,2.18-3.84,3.61.11,6.68,1.38,9.84,2.82,1.19.54,2.58.8,3.62,1.51,1.9,1.28,3.9,1.99,6.03,2.86,1.2.49,2.36,1.33,3.52,1.98,1.61.89,3.17,1.65,4.84,2.4l4.6,2.07c1.74.78,3.83,1.77,5.44,2.71,2.06,1.2,4.17,1.95,6.62,2.65ZM129.27,126.17c.04-.18-.3-.46-.39-.36-.84.95-.71,2-.18,2.89l.56-2.53ZM130.18,161.32c.49-.86.8-2.3.98-3.12.06-.19.75-.49.68-.66l-.32-.78c-.06-.14-.3-.49-.2-.57l.45-.39c.17-.15.54-.42.4-.5-.18-.1-.47-.27-.59-.24l-.65.14c-.11.03-.19-.24-.27-.47-.07-.19-.54-.58-.71-.47-.92.64.55.97-.73,2.07-.2.17-.05,1.2.2,1.11l.91-.33-.55,1.31c.06.98.19,1.86.41,2.9Z"/>
  <path d="M129.27,126.17l-.56,2.53c-.54-.89-.67-1.94.18-2.89.09-.1.43.18.39.36Z"/>
  <g>
    <path d="M130.18,161.32c-.22-1.05-.35-1.92-.41-2.9l.55-1.31-.91.33c-.25.09-.4-.94-.2-1.11,1.29-1.09-.18-1.42.73-2.07.17-.12.64.28.71.47.08.23.16.5.27.47l.65-.14c.12-.03.41.14.59.24.14.08-.23.35-.4.5l-.45.39c-.1.09.15.43.2.57l.32.78c.07.17-.62.47-.68.66-.19.82-.49,2.26-.98,3.12Z"/>
    <path d="M285.73,18.36c.57-.41,1.92,3.86.93,4.11l-1.23-3.16c-.05-.14-.32-.5-.22-.58l.52-.37Z"/>
    <path class="cls-1" d="M194.36,83.41c.79-1.87,2.14-3.37,3.18-5.01l1.49-2.37c.74-1.18,1.46-2.38,2.15-3.61.59-1.06,1.05-2.09,1.86-3,.98-1.09,1.62-2.23,2.19-3.59.51-1.22,1.79-2.08,2.57-3.1,2.53-3.29,3.35-5.09,5.73-8.18.67-.86.92-1.82,2.05-2.38l-.57,2.62c-.21.97-.08,1.82.14,2.76.68,2.85,2.73,4.79,5.73,5.11,1.72.18,3.04-.93,4.1-2.24s4.55-5.63,1.66-6.92c-.65-.29-2.18.02-2.73.59-.37.38-.52,1.33-.67,1.95-.27,1.13-1.29,2.81-2.73,2.54-.83-.16-2.01-1.73-2.05-2.58l-.14-3.2c.66-.76,3.42.06,3.09-2.03-.2-1.27-.29-2.67.05-3.87.91-3.27,2.79-6.2,4.74-8.94,1.2-1.69,2.33-3.16,4.26-4.02.92-.41,2.11-1.07,3.13-.57.71,1.41,1.25,3.25,1.04,4.77-.58,4.26.07,3.7-.64,8.05l-1.16,7.15c-.98,6.06-1.98,6.64-2.56,12.5-.19,1.97-.42,3.79-.82,5.75-.22,1.1-.07,2.25-.11,3.34-.1,2.31-.19,4.44.04,6.73.16,1.55-.1,3.22.16,4.72.22,1.23.27,2.22.26,3.45s.18,2.57.31,3.83l.4,3.85c.18,1.7.21,3.36.53,5.03l.41,2.18c-1.28.25-5.39-1.97-6.78-2.73-2.72-1.49-5.39-3.09-8.34-4.04-1.09-.35-1.98-.62-2.93-1.21-3.07-1.91-6.47-3.01-9.76-4.43-1.77-.76-3.37-1.5-5.32-1.68l-4.18-.39-2.52-.21c-.18-.02-.66-.26-.73-.41-.09-.19.09-.61.25-.82,1.25-1.72,2.33-3.35,3.2-5.4Z"/>
    <g>
      <path d="M232.44,115.75c-2.45-.71-4.56-1.45-6.62-2.65-1.6-.94-3.7-1.93-5.44-2.71l-4.6-2.07c-1.67-.75-3.23-1.5-4.84-2.4-1.17-.65-2.32-1.49-3.52-1.98-2.13-.87-4.13-1.58-6.03-2.86-1.05-.71-2.44-.97-3.62-1.51-3.16-1.43-6.23-2.71-9.84-2.82-.79,1.26-1.6,2.5-2.18,3.84-.47,1.07-.29,2.58-1.11,3.51-.66.76-1.22,1.59-1.37,2.65-.24,1.76-1.14,3.07-1.75,4.64-.5,1.27-.66,2.68-1.34,4-2.5,4.84-1.36,6.11-2.97,10.51-.22.61-.43,1.19-.58,1.83l-1.47,6.16c-.35,1.46-.98,2.75-1.22,4.24l-.67,4.28c-.19,1.19-.65,2.2-.94,3.38-.63,2.55-.32,5.2-.68,7.75-.25,1.82-.34,3.14.02,4.92.44,2.18-.08,4.64.16,6.91.35,3.27.15,4.86.39,8.38l.23,3.37c.11,1.6,1.06,9.32,1.64,10.21l1.39,2.13c-.2-.31,4.56,8.69,4.7,9.01.99,2.19,1.97,4.3,3.45,6.18l1.69,2.14c1.66,2.1,4.28,5.6,6.37,7.01.95.64,1.98,1.13,2.97,1.67l2.2,1.2c1.25.68,2.31.96,3.76,1.14l3.6.43c1.15.14,2.15.03,3.28-.13l1.99-.3c.79-.83.67-2.12.88-3.22.16-.86.35-1.6.19-2.51-.18-1.01-.47-2.64-1.46-3.09-1.9-.86-3.79.69-4.41,2.38-.45,1.24-2.35,1.81-3.11.78-.63-.85.02-2.26.14-3.21l.4-3.19c.24-1.89,1.14-3.12,2.99-3.87.99-.4,1.95-.67,3.23-.28,1.47.45,3.01,1.59,3.83,2.99.53.9.72,2.09,1.12,3.01.65,1.49,1.08,2.77,1.31,4.48l1.62,2.23c-.17,1.15-.63,2.51-1.38,3.34l-2.75,3.04c-1.24,1.38-2.16,3.12-3.7,4.17-1.29.88-2.76,1.68-4.27,1.21-4.16-1.3-6.74-.68-8.68-1.62-6.07-2.95-7.64-3.5-12.78-8.09-1.43-1.28-2.74-2.89-3.85-4.42l-1.56-2.16c-2.14-2.96-4.88-11.55-5.53-15.2l-.61-3.46c-.27-1.5-.44-3.12-.61-4.69l-.41-3.81c-.62-5.77-1.11-4.61-2.17-10.12-.39-2.03-.68-8.24-.75-10.58-.05-1.82.23-3.65.26-5.51l.21-12.11.45-2.91.25-3.05c.32-4.02,1.1-10.99,2.35-14.71.93-2.77,1.44-5.52,2.33-8.27l.92-2.84c.34-1.03.68-1.99,1.05-2.99l2.04-5.49,1.43-3.36c.49-1.15,1.09-2.08,1.07-3.52-1.33.9-2.39,1.82-3.62,2.7l-3.9,2.81c-2.2,1.58-5.5,6.43-9.23,8.01-.6.25-1.44,1.43-2.11,1.04-1.2-.69-1.06-2.62-.24-3.69.63-.82,1.07-2.09,1.7-2.83,4.63-5.38,6.12-7.26,12.33-11.15,1.58-.99,3.75-1.67,5.54-2.22,1.6-.5,2.4-.75,2.82-2.56.18-.8,1.07-1.99,1.51-2.85l3.35-6.52,3.23-6.61,2.25-3.74,2.57-4.1c1-1.59,1.97-3.09,3.08-4.61l2.63-3.61,4.83-7.16c1.15-1.7,2.27-3.21,3.68-4.73.35-.38.59-1.09.55-1.53-2.85.73-4.53-1.51-4.22.5.41,2.61,1.16,2.25.5,3.3-.12.18-.76.19-.91-.01-.82-1.08-.64-3.03-.22-4.27-.59-.96-.96-1.87-.81-3.04l.47-3.73c.2-1.58,1.71-2.92,2.64-4.18l1.25-1.68,2.29-2.96c.66-.86.91-2.02,1.84-2.74.68-.53,1.32-1.53,2.06-1.97,1.5-.89,3.07-1.66,4.8-2.13s3.99.27,5.23,1.4c2.35,2.14,1.89,5.75,2.39,6.69.34.64,1.31-.45,3.57-.33,5.02.27,7.37-.6,9.32,4.52.51,1.34.58,2.54.89,3.8.54,2.22,1.15,4.2,1.14,6.54,0,1.43.85,3.08.55,4.52-.52,2.47-.75,4.74-.95,7.25l-.33,4.08c-.11,1.36-.37,2.59-.62,3.92-.37,2-.48,4.06-.65,6.12l-.47,5.77-.7,7.43-.41,4.59c-.25,2.81-.11,5.64,0,8.46.14,3.48.18,6.8.74,10.33.89.68,2.31.48,3.44.41l6.03-.38c2.19-.14,4.62-1.56,6.16-3.06l2.93-2.85c.67-.65,2.23-.2,2.71.68,1.28,2.36-1.47,3.97-2.86,4.93-2.4,1.64-4.3,4.6-7,6.62-1.6,1.2-3.59,1.7-5.37,2.6-1.99,1.01-4.15,1.32-6.42,1.75-.55.62-.45,1.9-.1,2.72.69,1.62,1.06,3.3,1.63,4.88.31.85,1.94,1.52.82,2.84l-1.32-2.12c-.14,2.91.66,5.48,1.62,8.17.34.95.4,2.07.63,3.05l.65,2.71c1.04,4.33.52,4.03,1.36,7.88l1.37,6.31c1,4.57,2.11,7.25,2.95,11.67.9,4.74,1.47,3.65,2.96,8.67.37,1.26,1.13,2.59,1.21,3.9.12,1.83.68,3.15,1.7,4.66l.81,3.47c.3,1.28.85,2.24,1.11,3.55.37,1.9,1.08,3.82,1.24,5.78l.41,5.06.43,7.18c.17,2.84-.24,5.57.11,8.41.15,1.18.16,2.37.38,3.54.35,1.93.75,6.13.55,7.95-.16,1.46.11,2.78.09,4.12l-.1,6.11-.2,7.07c-.15,5.28-1.06,4.48-2,10.02-.15.85-.48,1.88-.83,2.66l-1.19,2.71-1.21,2.9c-.32.76-.9,1.69-1.33,2.41l-1.84,3.03c-1.75,2.89-5.74,5.11-8.9,6.09-3.57,1.1-7.49.75-10.96-.57-1.2-.46-2.93-2.54-3.01-4.18-1.99-.5-2.95-3.64-3.22-5.41-.66-4.37.24-8.82,2.01-12.88,4.06-3.45,3.25-2.64,7.62-3.02.97-.08,1.85-.13,2.58.62,1.05,1.08,1.83,2.34,2.58,3.78-.66.86-1.19,1.86-1.9,2.46-1.16.99-2.24,1.92-3.47,2.82-.82.6-2.58-.65-2.84-1.47.14-1.58,2.38-2,2.06-3.26-.79-.28-1.72-.07-2.25.5l-1.75,1.88c-1.38,3.71,0,7.77,2.57,10.53.76.82,2.41,1.47,3.5,1.59,2.7-.85,4.9-2.45,7.33-3.71,1.59-.83,2.61-1.81,3.45-3.46.74-1.44,1.51-2.85,1.92-4.49.63-2.5,1.92-4.83,2.37-7.35l1.23-6.92.75-4.37c.29-1.71.15-3.54.02-5.28-.16-2.18-.15-4.32-.01-6.5.1-1.5.25-3.08.02-4.54l-.5-3.18-.73-4.54-.86-6.08-1.58-9.58-.44-3c-.27-1.83-.79-3.55-1.04-5.39-.17-1.25-.44-2.34-.74-3.53-1.12-4.48-.49-4.92-2.08-9.93l-1.32-4.17c-.37-1.17-.63-2.48-.86-3.7l-.35-1.83c-.54-2.86-1.37-5.57-2.13-8.41l-.82-3.05c-1.07-3.99-.35-5.63-1.15-7.73-.46-1.21-.95-2.32-1.28-3.55l-.97-3.64c-.34-1.27-1.05-2.68-1.13-3.98-.14-2.12-.88-3.97-1.15-6.03l-.79-6.15-.67-4.35c-.14-.93.24-2.19-.09-3.29ZM186.19,88.47c-.36.64-1.25,1.5-.71,2.03,1.96.23,2.69-1.51,3.41-2.85,1.2-2.23,2.49-4.31,3.82-6.46l5.69-9.19,4.2-6.58c2.35-3.68,4.44-5.77,6.65-9.39,1.11-1.82,2.39-3.26,3.76-4.92.9-1.09,3.2-4.42,3.73-5.8l1.15-2.96.94-2.45c.95-2.46,2.01-4.79,3.63-6.92,1.51-1.98,1.75-4.74.35-6.86-.63,1.81-1.19,3.3-1.89,4.86l-1.27,2.84-1.3,2.75-1.36,2.97c-.55,1.2-1.21,2.24-1.95,3.34l-4.32,6.47c-.47.7-1.31,1.33-1.76,2.11-2.49,4.27-5.51,7.96-8.39,11.96-.83,1.15-1.59,2.42-2.36,3.64l-2.89,4.55-2.1,3.43c-1.67,2.73-1.26,3.18-2.93,6.14l-1.31,2.33-2.8,4.98ZM211.39,43.12c1.25-2.24,2.37-4.08,3.3-6.17l2.07-4.65c1.25-2.81,1.96-2.92,2.11-4.58-2.27.43-4.12,1.89-5,3.89-.61,1.37-1.67,2.27-2.98,3.04-.57.34-2.41,2.96-1.38,3.78,1.59,1.27,1.63,2.54,1.9,4.69ZM194.36,83.41c-.87,2.05-1.95,3.68-3.2,5.4-.15.21-.34.64-.25.82.07.15.55.4.73.41l2.52.21,4.18.39c1.95.18,3.55.92,5.32,1.68,3.29,1.42,6.69,2.52,9.76,4.43.96.59,1.84.86,2.93,1.21,2.96.95,5.62,2.55,8.34,4.04,1.39.77,5.5,2.98,6.78,2.73l-.41-2.18c-.32-1.67-.35-3.32-.53-5.03l-.4-3.85c-.13-1.27-.32-2.59-.31-3.83s-.04-2.22-.26-3.45c-.26-1.5,0-3.17-.16-4.72-.23-2.29-.14-4.42-.04-6.73.05-1.09-.11-2.24.11-3.34.4-1.95.63-3.77.82-5.75.57-5.87,1.57-6.44,2.56-12.5l1.16-7.15c.71-4.36.06-3.8.64-8.05.21-1.53-.33-3.36-1.04-4.77-1.03-.5-2.21.15-3.13.57-1.93.87-3.06,2.33-4.26,4.02-1.95,2.74-3.83,5.67-4.74,8.94-.33,1.2-.25,2.61-.05,3.87.33,2.09-2.43,1.27-3.09,2.03l.14,3.2c.04.85,1.21,2.42,2.05,2.58,1.44.27,2.45-1.41,2.73-2.54.15-.62.3-1.57.67-1.95.55-.57,2.08-.88,2.73-.59,2.89,1.29-.64,5.64-1.66,6.92s-2.38,2.42-4.1,2.24c-3.01-.32-5.05-2.27-5.73-5.11-.23-.94-.35-1.79-.14-2.76l.57-2.62c-1.14.55-1.39,1.51-2.05,2.38-2.38,3.09-3.2,4.89-5.73,8.18-.78,1.02-2.06,1.88-2.57,3.1-.57,1.36-1.21,2.5-2.19,3.59-.81.9-1.27,1.94-1.86,3-.68,1.23-1.41,2.43-2.15,3.61l-1.49,2.37c-1.03,1.64-2.38,3.13-3.18,5.01ZM234.94,93.03l-1.21.83c-.06.65.35,1.46.7,2.24,1,2.25-1.35,4.77,1.69,9.08.55.77,1.35,1.42,2.27,1.05-.53-1.48-1.39-2.93-1.21-4.34.52-3.92-.19-5.63-.12-9.88.02-.97.45-2.1.26-3.14-.35-1.88-.09-3.6.05-5.51l.36-5.24c.24-3.53.88-6.8.91-10.38,0-1.05.24-2.26.41-3.35.71-4.58.98-9.01,1.08-13.63.02-1.17.14-2.24-.03-3.41-.56-3.74.06-6.07-1.23-9.14l-.2,4.31c-.07,1.38-.18,2.68.26,4.02l-.23,5.89c-.06,1.5-.22,3.02-.14,4.53.09,1.61-.21,2.85-.71,4.33-1.01,2.95-1.92,8.76-1.69,11.86.02.24-.15.64-.24.75s-.53.07-.59-.06l-.78-1.85c-1.4.43-.25,1.18-1.18,3.3-.14.32-.39.89-.2,1.05l.75.61c.95.77,0,2.41.1,3.5.11,1.39.3,2.63.49,4.02.8.38.8,1.79.66,2.43-.04.18-.65.37-.76.24s-.27-.38-.39-.61l-.81-1.53c-1.11.32.84,7.32,1.74,8.01ZM232.87,69.92c.51-1.94.95-3.62.86-5.53l-.6,2.08c-.32,1.11-1.13,2.16-.26,3.44ZM232.6,112.3c-1.31-3.05-.15-3.77-1.88-4.09s-3.28-.84-4.83-1.71c-3.22-1.8-6.43-3.42-9.92-4.64-2.4-.84-4.34-2.05-6.5-3.34-2.03-1.21-4.54-1.62-6.68-2.72-3.69-1.89-9.16-2.8-13.41-2.28,1.51,1.15,3.17.69,4.73,1.18,2.23.71,4.38,1.58,6.47,2.62l2.56,1.27,2.86,1.45,6.25,2.91c1,.47,1.91,1.34,2.92,1.78l6.7,2.88c1.66.71,3.33,1.11,4.9,2.15,1.77,1.18,3.71,2.21,5.81,2.53ZM172.81,132.88c2.36-9.02,1.89-11.26,5.54-20.04.66-1.59,1.03-3.4,1.83-4.89s1.3-2.86,1.78-4.56,1.32-3.25,2.04-4.79c.28-.6.93-1.2.66-1.93-.16-.43-1.11-.44-1.51-.22-.34.19-.53.72-.69,1.22-.88,2.86-2.22,5.41-3.19,8.22l-1.8,5.23-1.61,4.92c-.28.86-.56,1.62-.81,2.55l-1.27,4.71c-.51,1.87-.87,3.66-.82,5.62-.05,1.34-.91,2.54-.16,3.97ZM246.57,109.66l-5.84.12-.6,1.94c-.43-.16-.79-.28-.78-.46l.05-.98c.03-.51-1.3-.87-1.85-.57l.44,2.22c.13.64.25,1.29.82,1.58.48.25,1.16-.07,1.74-.28,1.17-.43,2.54-.63,3.7-1.13,1.69-.73,3.23-1.34,5.18-2.04-.69-.76-1.82-.41-2.86-.39ZM240.6,142.88c.63-1.59-.28-2.9-.59-4.33l-1.08-5.15-1.66-9.02c-.35-1.92-2.09.89-.07,5.15,1.13,2.38.13,3.07.65,5.1l1.29,5.04c.26,1.04,1.13,2.16,1.46,3.21ZM255.68,201.83l-.77-5.29c-.11-.75.04-1.81-.13-2.52l-.79-3.38-1.3-4.34c-.22-.74-.49-1.37-.9-2.04.08,1.16.18,2.13.42,3.16l.6,2.58c.38,1.64.92,3.27,1.16,4.97s.33,6.05,1.71,6.85ZM200.91,221.83l-4.18-1.48-3.36-1.61c-.14-.49-.35-1.25-.6-1.51s-1.16-.16-1.58-.13c-1.97-.86-3.36-2.75-4.9-4.27-1.44-1.42-2.45-2.96-3.55-4.64l-2.27-3.47c-.54-.82-.95-1.59-1.37-2.48l-2.31-4.86-1.66-3.28c-.99.14.86,5.15,1.14,5.87.45,1.16.53,2.63,1.09,3.75.63,1.27,1.41,2.36,2.2,3.56,1.48,2.25,2.67,4.97,4.91,6.6l6.29,4.56c.65.47,1.69,1.01,2.45,1.33l3.07,1.28c1.5.63,3.12,1.22,4.63.76ZM245.68,268.25l2.85-2.01c.71-1.29,1.22-2.51,1.87-3.77l1.62-3.13c.77-1.5,1.49-3.06,1.99-4.66l.97-3.09c.45-1.42.73-2.97,1.1-4.46.69-2.71.74-5.35.83-8.11l.07-2.19c-.61.41-.31.94-.4,1.48-.45,2.66-.82,5.32-1.56,7.88-.28.95-.93,1.88-1.11,2.92-.84,4.89-1.9,4.52-2.59,8.78-.11.7-2.22,5.33-3.09,6.17l-2.55,4.2ZM234.18,269.57c2.49,2.02,6.02,1.08,8.06-1.23.48-.55.91-.89,1.03-1.64-1.48.54-2.33,1.32-3.53,1.97-1.1.59-2.49,1.04-3.68,1.41-.58-.35-1.22-.9-1.88-.51Z"/>
      <path class="cls-1" d="M186.19,88.47l2.8-4.98,1.31-2.33c1.67-2.96,1.26-3.42,2.93-6.14l2.1-3.43,2.89-4.55c.77-1.21,1.53-2.48,2.36-3.64,2.88-4,5.9-7.69,8.39-11.96.45-.77,1.29-1.4,1.76-2.11l4.32-6.47c.74-1.1,1.4-2.15,1.95-3.34l1.36-2.97,1.3-2.75,1.27-2.84c.7-1.56,1.26-3.05,1.89-4.86,1.4,2.12,1.16,4.88-.35,6.86-1.62,2.13-2.68,4.45-3.63,6.92l-.94,2.45-1.15,2.96c-.53,1.37-2.83,4.71-3.73,5.8-1.37,1.67-2.65,3.1-3.76,4.92-2.21,3.62-4.3,5.71-6.65,9.39l-4.2,6.58-5.69,9.19c-1.33,2.15-2.62,4.23-3.82,6.46-.72,1.34-1.45,3.08-3.41,2.85-.54-.53.35-1.39.71-2.03Z"/>
      <path class="cls-1" d="M234.94,93.03c-.9-.69-2.85-7.68-1.74-8.01l.81,1.53c.12.23.28.47.39.61s.72-.06.76-.24c.14-.63.14-2.05-.66-2.43-.18-1.39-.37-2.63-.49-4.02-.09-1.1.85-2.73-.1-3.5l-.75-.61c-.19-.16.06-.72.2-1.05.93-2.12-.22-2.88,1.18-3.3l.78,1.85c.05.13.5.18.59.06s.25-.51.24-.75c-.22-3.1.68-8.92,1.69-11.86.51-1.48.8-2.72.71-4.33-.08-1.51.08-3.02.14-4.53l.23-5.89c-.44-1.34-.33-2.64-.26-4.02l.2-4.31c1.29,3.07.67,5.4,1.23,9.14.17,1.17.06,2.23.03,3.41-.1,4.62-.37,9.05-1.08,13.63-.17,1.08-.4,2.3-.41,3.35-.03,3.58-.66,6.85-.91,10.38l-.36,5.24c-.13,1.91-.39,3.63-.05,5.51.19,1.04-.24,2.17-.26,3.14-.07,4.25.64,5.96.12,9.88-.19,1.41.68,2.86,1.21,4.34-.92.38-1.73-.27-2.27-1.05-3.04-4.32-.69-6.83-1.69-9.08-.35-.78-.76-1.59-.7-2.24l1.21-.83Z"/>
      <path class="cls-1" d="M232.6,112.3c-2.11-.32-4.05-1.35-5.81-2.53-1.57-1.04-3.24-1.44-4.9-2.15l-6.7-2.88c-1.01-.44-1.92-1.31-2.92-1.78l-6.25-2.91-2.86-1.45-2.56-1.27c-2.09-1.04-4.25-1.91-6.47-2.62-1.56-.5-3.22-.04-4.73-1.18,4.25-.52,9.72.39,13.41,2.28,2.14,1.09,4.65,1.5,6.68,2.72,2.17,1.29,4.1,2.5,6.5,3.34,3.49,1.22,6.7,2.83,9.92,4.64,1.55.87,3.06,1.37,4.83,1.71s.56,1.04,1.88,4.09Z"/>
      <path class="cls-1" d="M200.91,221.83c-1.51.46-3.13-.14-4.63-.76l-3.07-1.28c-.75-.31-1.8-.86-2.45-1.33l-6.29-4.56c-2.24-1.63-3.43-4.35-4.91-6.6-.79-1.2-1.57-2.29-2.2-3.56-.56-1.12-.65-2.59-1.09-3.75-.28-.72-2.13-5.73-1.14-5.87l1.66,3.28,2.31,4.86c.42.89.84,1.66,1.37,2.48l2.27,3.47c1.1,1.68,2.11,3.22,3.55,4.64,1.55,1.52,2.93,3.41,4.9,4.27.42-.04,1.32-.14,1.58.13s.47,1.02.6,1.51l3.36,1.61,4.18,1.48Z"/>
      <path class="cls-1" d="M211.39,43.12c-.26-2.15-.31-3.42-1.9-4.69-1.03-.82.81-3.45,1.38-3.78,1.32-.78,2.38-1.67,2.98-3.04.89-1.99,2.73-3.46,5-3.89-.15,1.67-.86,1.78-2.11,4.58l-2.07,4.65c-.93,2.09-2.04,3.93-3.3,6.17Z"/>
      <path class="cls-1" d="M172.81,132.88c-.75-1.43.11-2.63.16-3.97-.05-1.95.31-3.75.82-5.62l1.27-4.71c.25-.93.53-1.69.81-2.55l1.61-4.92,1.8-5.23c.97-2.81,2.31-5.36,3.19-8.22.15-.5.35-1.03.69-1.22.39-.22,1.35-.21,1.51.22.27.73-.38,1.33-.66,1.93-.73,1.55-1.58,3.18-2.04,4.79-.48,1.7-.96,3.03-1.78,4.56s-1.17,3.3-1.83,4.89c-3.65,8.78-3.18,11.02-5.54,20.04Z"/>
      <path class="cls-1" d="M245.68,268.25l2.55-4.2c.88-.83,2.98-5.46,3.09-6.17.69-4.26,1.74-3.9,2.59-8.78.18-1.03.83-1.96,1.11-2.92.75-2.56,1.11-5.22,1.56-7.88.09-.54-.21-1.07.4-1.48l-.07,2.19c-.09,2.76-.14,5.4-.83,8.11-.38,1.49-.66,3.03-1.1,4.46l-.97,3.09c-.5,1.6-1.22,3.16-1.99,4.66l-1.62,3.13c-.65,1.27-1.16,2.48-1.87,3.77l-2.85,2.01Z"/>
      <path class="cls-1" d="M246.57,109.66c1.05-.02,2.17-.38,2.86.39-1.94.7-3.49,1.31-5.18,2.04-1.16.5-2.53.7-3.7,1.13-.58.21-1.26.53-1.74.28-.58-.29-.69-.94-.82-1.58l-.44-2.22c.54-.29,1.87.06,1.85.57l-.05.98c0,.18.35.3.78.46l.6-1.94,5.84-.12Z"/>
      <path class="cls-1" d="M240.6,142.88c-.33-1.05-1.19-2.18-1.46-3.21l-1.29-5.04c-.52-2.03.48-2.72-.65-5.1-2.02-4.26-.29-7.08.07-5.15l1.66,9.02,1.08,5.15c.3,1.43,1.21,2.74.59,4.33Z"/>
      <path class="cls-1" d="M255.68,201.83c-1.38-.8-1.47-5.18-1.71-6.85s-.78-3.33-1.16-4.97l-.6-2.58c-.24-1.02-.34-1.99-.42-3.16.41.67.68,1.3.9,2.04l1.3,4.34.79,3.38c.16.7.02,1.77.13,2.52l.77,5.29Z"/>
      <path class="cls-1" d="M234.18,269.57c.65-.39,1.3.16,1.88.51,1.19-.37,2.57-.81,3.68-1.41,1.2-.65,2.05-1.43,3.53-1.97-.11.74-.55,1.09-1.03,1.64-2.04,2.31-5.57,3.25-8.06,1.23Z"/>
      <path class="cls-1" d="M232.87,69.92c-.88-1.28-.06-2.34.26-3.44l.6-2.08c.09,1.91-.35,3.59-.86,5.53Z"/>
    </g>
  </g>
</svg>