<?xml version="1.0" encoding="UTF-8"?>
<svg id="Layer_2" data-name="Layer 2" xmlns="http://www.w3.org/2000/svg" viewBox="0 0 432 288">
  <defs>
    <style>
      .cls-1 {
        fill: #fff;
      }
    </style>
  </defs>
  <path class="cls-1" d="M290.53,287.58l1.27-1.35,1.31-1.13c.57-.5.99-.8,1.46-1.42l.99-1.29s.44.01.6.02.3-.33.45-.51l1.33-1.56,1.44-1.54c.4-.43,1.25-.99,1.85-1.39,1.03-.7,1.69-1.65,2.6-2.51.47-.44,1.23-.68,1.72-1.38,1.54-2.17,1.41-.74,3-2.5.35-.39.83-.81,1.23-1.16l1.28-1.1,2.64-2.17,1.32-1.05c.67-.53,1.13-.85,1.59-1.65l1.34-.98c.77-.56,1.46-1.27,2.19-1.89l3.26-2.76c.24-.21.7-.52.88-.73,1.47-1.72,4.11-3.43,5.6-4.62l1.57-1.26c.5-.4,1.35-.74,1.73-1.07l1.58-1.35c.88-.76,1.75-1.4,2.73-2.1.48-.34.94-.82,1.58-1.01.82-.25,1.09-.8,1.78-1.19l2.56-1.42c-2.8,1.56,6.46-4.38,5.52-3.81l2.68-1.64c1.71-1.05,3.44-1.99,5.07-3.13.6-.42,1.1-.84,1.79-1.14l1.79-.79c.91-.4,1.67-.89,2.58-1.28,2.94-1.25,3.58-1.69,6.05-2.9l1.57-.77c.71-.35,1.37-.72,2.09-1.03l2.02-.89c.82-.36,1.66-.54,2.53-.85l3.52-1.24c2.08-.73,2.9-.62,3.77-1.13.11-.06-.26-.41-.38-.45-.94-.24-.37.94-2.2-.04-.44-.24-1.5.14-1.99.04-1.46-.31-.92-.34-3.8.46l-3.56.99-2.74,1.02-4.25,1.48c-1.27.44-2.27,1.02-3.45,1.59-3.57,1.73-7.56,2.66-10.87,5.16-.15.11-.72,0-.79.15l-.36.85c-.1.23-.83-.16-1.09-.11-.3.05-.67.6-.99.78-1.35.76-2.91,1.35-4.23,2-2.34,1.16-2.25,2.12-4.72,2.12h-1.89c-.27.03-.98.33-1.28.34l-6.31.16-6.96.25-1.85.07c-.85.03-1.71-.02-2.61-.12-4.08-.45-2.05,0-4.79-.22l-3.81-.32-4.33-.49-4.57-.48c-1.89-.2-5.73-.8-7.52-1.17l-2.07-.43c-1.12-.23-2.01-.25-3.16-.7l2.03-.91c-3.08-.54-.74,1.42-4.59.56l-5.76-1.29c-3-.67-5.92-1.65-8.79-2.67-2.4-.85-2.1-.58-4.71-1.51l-4.93-1.74c-1.89-.67-4.91-1.75-6.38-2.99.87-.25,1.86.05,2.44.28,1.44-.45,2.79,1.31,4.63-.3l1.15-1-2.3.35-.47.09c-.11.02-.34-.2-.27-.3.15-.24.54-.53,1.01-.77,0,.15,0-.26-.01-.44l-2.54.29c-.4.05-1.19-.16-1.65-.24-.14.18-.28.67-.48.69l-1.23.1-.5,1.54-2.42-1c-1.2-.49-2.23-1.12-3.44-1.62l-2.92-1.21-1.63-.77-3.29-1.54c-.3-.14-1.02-.93-3.42-2.09l-3.42-1.65-1.58-1.45c-1.22-.33-2.56-.66-2.89-2.14l.86-.06c.19-.01.39-.54.43-.85-1.85.26-1.59,1.54-3.51.24l-1.31-.89-1.53-1.09-3.57-2.25-4.63-3.26c-.4-.28-.88-.62-1.25-.91-3.66-2.95-5.95-4.28-9.58-7.46l-8.94-7.85c-1.87-1.64-5.48-3.94-7.82-4.53-.19-.05-.9.2-.86.38.22,1.04.69,1.57,1.43,2.26l1.25,1.18,2.84,2.66,1.47,1.41,3.21,3.05,1.9,1.69,2.53,2.24,5.12,4.2,3.66,2.9,1.91,1.4,1.67,1.24,3.02,2.02c.69.46,1.25.96,1.96,1.44l1.84,1.21,3.94,2.56,5.22,3.19c1.29.79,2.56,1.64,3.88,2.28,1.1.53,2.06,1.15,3.13,1.7l3.08,1.59c4.65,2.39,9.32,4.47,14.17,6.37l4.17,1.63,10.54,3.63c7.24,2.49,14.51,4.56,22.13,5.63l8.01,1.13,4.83.58,1.95.11,8.61.83c1.65.16,3.26.24,4.87.09l2.32-.21c2.61-.24,5.03-.4,7.68-.48.78-.02,1.93-.43,2.68-.56.13.13.5.53.39.41l-1.15,2.16c-.16.13-.64.24-.67.43l-.13.9c-.62.08-1.27.27-1.67.74-.36.43-1.07.72-1.38,1-.64.58-1.15,1.05-1.93,1.49-.18.1-.43.44-.73.51l-2.69.59-2.04,1.35c-.5.33-1.05.72-1.58,1l-2.07,1.1.51.83c.19.32-2.16,1.86-2.07,1.82l-2.09.86c-2.22.91-3.01,2.54-3.3,2.37l.63.36c.09,0-.18.57-.32.48l-.8-.46-.27,1.19-1.85,1.43c-.14.11-.31.22-.25.27l.5.43-2.33,1.54c-.37.24-.99.56-1.37.78-.68.66-1.33,1.09-2.31,1.11l.18.82c-2.84,1.7-.94,1.03-4.16,3.54l-1.62,1.27c-.3.24-.98.39-1.3.83-.59.8-1.98,2.02-2.93,1.99l.19.93c.04.22-.61.41-.78.59-1.7,1.75-.36-.05-2.44,2.09-.49.5-.93.69-1.59,1.09-1.19.73-2.31,2-3.33,2.88.13.31.32.67.23.77s-.36.3-.49.37l-1.68.89c-.93,1.43-2.48.98-4.29,2.27M432.81,287.58.81,287.58V-.42h360.24c.18.85.75,1.5,1.33,2.26l2.18,2.89,2.63,3.58c1.13,1.55,2.46,2.81,3.55,4.39.72,1.04,1.61,1.92,2.39,2.86l1.2,1.44,1.44,1.72,1.56,1.77,2.09,2.71,1.07,1.35,2.01,2.54,1.39,1.73,2.86,3.38,1.33,1.31,2.6,2.91c2.61,2.92,5.3,5.52,8.2,8.14l1.25,1.13c.43.39.81.77,1.25,1.16l2.05,1.8c.89.78,1.74,1.6,2.7,2.3l2.26,1.62,4.94,3.46c.64.45,1.19,1.04,1.89,1.46l2.41,1.45c1.43.86,2.9,1.54,4.41,2.28,3.94,1.91,6.71,4.01,10.77,5.08v7.92c-1.65.08-1.57,2.72-1.58,3.61v1.94c-.02.96-.61,2.25-.43,3.19s-.18,1.06-.44,1.74l-1.26,3.32c-1.19,3.14.02,1.2-.69,3.53-.23.74-.46,1.3-.68,2l-.79,2.46-2.11,5.03c-.59,1.41-1.03,2.93-1.75,4.25l-1.03,1.91-1.25,3.02-3.26,5.39c-.46.77-.96,1.59-1.49,2.33l-3.72,5.15c-.54.75-.97,1.57-1.58,2.27-1.99,2.29-3.82,4.63-5.93,6.75l-4.71,4.74c-2.25,2.27-4.91,4.14-7.44,6.18l-3.19,2.57c-.91.73-2.02,1.4-3.09,1.37-1.15-5.86-2.81-12.19-4.8-17.65-.42-1.14-1-2.11-1.32-3.29l-.41-1.5-4.07-9.36-1.35-3.03-.83-1.76c-.75-1.6-1.52-3.11-2.37-4.61-1.26-2.23-1.03-2.4-2.25-4.22-.38-.57-.65-1.07-1-1.66l-2.57-4.33c-.48-.81-.83-1.49-1.33-2.26l-2.15-3.29-3.83-5.38-3.53-4.88c-.71-.98-1.43-1.97-2.2-2.86l-3.91-4.54c-1.15-1.33-2.27-2.6-3.57-3.84-1.97-1.9-1.64-2.14-3.48-3.51s-1.37-1.38-3.27-3.21l-2.43-2.33c-.06-.08-.21-.29-.25-.37-.06-.12-.42.07-.53.14-.33.21,1.44,2.11,1.69,2.38l4.44,4.73c.4.43.76.83,1.15,1.27l1.88,2.15,1.39,1.76,5.43,7.05,1.25,1.65,1.39,1.97c1.26,1.78,2.33,3.55,3.53,5.35l3.05,4.6,1,1.65,1.22,1.89c1.66,2.57,2.89,5.29,4.2,8.05l4.03,8.46.67,1.49c.93,2.09,1.72,4.19,2.47,6.38l2.32,6.78c.22.63.5,1.36.68,1.97l2.21,7.42.71,2.35.67,2.72c.3,1.22.56,2.51.78,3.77l.73,4.34c.21,1.27-1.83,2.15-2.73,2.55l-3.75,1.66-11.8,5.71c-6.66,3.22-13.74,5.4-20.96,7.04l-5.14,1.17-3.46.88c-1.42.36-2.83.54-4.26.78l-4.45.75-2.44.42-2.22.44c-1.11.22-2.35.29-3.52.44-2.92.39-5.67.57-8.6.77l-2.68.18-3.81.29-4.74.5-3.17.34-3.62.2c-2.46.14-4.86.07-7.36.02-1.12-.02-2.38.18-3.31-.55.46.73-4.76,1.08-5.24.68.7-1.03,1.63-1.13,2.71-1.06l1.97.13c.09,0,.44.14.41.06l-.21-.5c2.77-2.31,1.22-.48,3.58-1.58.62-.29,1.99.34,2.59-.25.4-.4.71-.63,1.25-.74.8-.15,1.58-.99,2.28-1.21l3.29-1.04c.25-.08.57-.83.35-.88l-1.14-.28c.12-.96,1.42-.87,2.11-.78.45-.5.9-.74,1.57-.76l2.37-.09,2.09-.02c.45-.56,1.13-1.13,1.91-1.19l.54-.04c.09,0-.24-.57-.19-.66,1.01-1.86,4.14-1.06,3.82-2.41-1.09.12-2.06.21-2.95.48-2.88.88-3.08.67-5.6,1.61-.93.35-1.84.76-2.77,1.04l-4.42,1.32c-1.16.35-2.21.77-3.37,1.15l-2.34.77c-.82.27-1.62.32-2.25,1.01l-1.62.14-.62,1.24.57.22c.18.07.21.6.05.69-1.35.71-.45-.46-3.44.69l-4,1.54-.27-.83c-.12-.36-1.27-.28-1.31-.13-.26,1.13,1.03.16.71,2.14-1.14.38-2.57.21-3.83-.05-.27.02-.95.2-1.23.2l-9.21-.05c-1.12,0-2.47-.6-3.47-.55-4.94.24-4.23.03-8.92-.26l-6.43-.4c-2.16-.13-4.1,0-6.25-.4-.76-.14-1.96-.11-2.85-.2l-3.17-.33-3.59-.28-2.62-.24c-2.22-.21-4.27-.4-6.5-.49-.88-.04-1.97-.12-2.83-.26l-4.98-.77c-1.32-.2-2.97-.22-4.03-.94l-1.75-1.18c-.27-.18-.5-.35-.62-.49-.16-.18.37-.82.62-.82l2.35-.02c.3,0,.9-.37,1.17-.46l5.43-1.82c.97-.32,1.86-.57,2.83-.83s1.75-1.41,3.08-.7c.69.37,1.32-.61,1.82-.76l3.24-1c1-.31,2.13-.77,3.12-.99s1.96-.08,2.94-.48l2.13-.88c.38-.16,1.2-.22,1.73-.34.77-.18,1.92.2,2.48-.62.37-.55.7-.88,1.26-1.11.47-.19,1.27.21,1.69.16.86-.1,2.96-.68,3.67-1.13l2.09-1.32.51-1.28c-1.02.21-1.61.36-2.48.59l-4.29,1.13-2.46.76c-2.69.83-5.31,1.34-7.91,2.4l-.84.34c-.03.57-.02.34-.01.27.05-.91-2.24.17-2.01.09l-1.84.65c-1.26.44-2.28.85-3.67,1.18-.59.14-1.48.89-2.03,1.26l-1.94-.56c-.09-.02-.32-.15-.39-.18l-.35-.15c-.09-.04.02.27.12.65l-1.42.79-.37.3c-.07.06-.08.14,0,.14l.58.04c.12,0,.54.04.48.1l-.3.29-.65.63c-.78-1.65-3.3-.69-4.52-.68l-1.4-.41c-.21.38-.31.55-.23.41.3.31.51.5.4.51l-.54.03c-.86.05-1.4.36-2.17.65-1.51.58-2.42.46-3.35,1.09l.15.49.58.14c.13.03.28.31.17.38-.12.07-.46.15-.56.08l-1.75-1.21-3.88-2.93-4.3-3.41c-.46-.36-.8-1.14-1.38-1.46-4.32-2.43-3.79-3.96-5.46-4.53-1.17-.4-1.64-1.47-2.51-2.13-2.17-1.65-4-3.43-6.03-5.27l-1.87-1.69-1.91-1.97-1.73-1.84-.41-.45c-.11-.12.53-.29.68-.2,1.08.65,3.54-.52,4.08-.58l2.44-.3,1.96-.32c.74-.12,1.34-.4,1.99-.62,3.58-1.23,4.83-1.04,6.57-1.62l2.05-.69c1.37-.46,2.59-.75,4.06-.44-.71,1.52-1.13-.38-2.37.78-.49.46-1.32.61-2.1.6s-.09,1.66-.76,1.45c-.15-.05-.59-.19-.58-.19-.17-.47-.23-.63-.18-.5l-.57.66c-.99-.56-1.88-.27-2.58.62-.98.1-2.33-.13-3.3.22l-3.3,1.2-2.23.45c-.92.19-1.81.4-2.58.61l.71.84-.36.33c-.1.09.04.65.17.54l.63-.54c.15-.13.36-.06.98.03l-.02-.44-.79-.25c-.18-.06,0-.82.18-.74l1.98.87,2.47-.55,2.38-.48c.46-.09.92-1.32,1.45-1.19l.37.3c.09.07.39,0,.43-.1l.19-.53c.23-.62.61.84,1.39.64l1.72-.44c.51-.13.81-.26,1.54-.24l1.5-.82,2.65-.43c1.37-.22,2.98-.55,4.21-.94.41-.13,1.39.16,1.62-.16,1.34-1.89,1.53.53,3.52-1.13l.88-.74c.23-.19.98.44,1.3.37l3.46-.76c.13-.03.41-.22.32-.25l-.81-.32.67-.61c.07-.06.42-.29.34-.31l-.49-.11c-1.16-.26-2.41-.07-3.3.8-.58.56-1.48.15-2,.33-2.4.8-2.2,1.16-5.3,1.06-.37-.01-1.07.2-1.5.16-.35-.04-.76,0-.95.09l-.49.26c-.09.05-.21-.5-.14-.57.28-.27.94-.91,1.32-.99l2.77-.63c1.22-.28,2.12-.65,3.32-.85.73-.12,1.61-.31,2.31-.51l2.42-.7,4.5-1.07c.56-.13,1.16-.52,1.84-.48.78.04,1.41-.22,2.1-.5l1.86-.74c.66-.26,1.31-.47,1.95-.8.3.09.95.32,1.3.31,2.24-.08-.25-1.81,3.04-1.55.05-.06-.05.06-.34.42l.05.57,2.71-.76-.18-.43-.51-.21c.67-.67,1.65-.87,2.35-.08l1.39-.39c.07-.02.42-.25.35-.29l-.55-.27-.44-.22c-.71-.35,2.19-.6,2.52-1.27.98-1.6-9.54,1.26-9.04,1.07l-1.72.64c-1.15.43-4.16.76-5.14.97l-3.83.81c-1.12.24-2.01.27-3.03.57-.35.1-1.01.22-1.42.3-3.71.74-2.07.87-4.92,1.48l-3.34.72c-.92.2-2.16.39-2.97.82l-2.04,1.1c-.7.38-1.48.1-2.23.18-1.55.16-3.17.48-4.63.89l-2.29.63c-.97.27-1.78.43-2.82.21-.68-.14-1.2.54-1.8.87-.57.31-3.06,1.11-3.17.9l-.44-.83-.8,1.07-.63-.17c-.16-.04-.26.17-.42.63l-.73.4.21-1.62-2.92.45-2.54.39c1.36,2.28,1.29.77,1.62,2.49.03.14-.48.07-.61,0-2.4-1.44-3.63-3.55-4.41-4.16l-1.26-.98c-1.01-.79-1.82-1.67-2.47-2.98.18-.1.74-.31.89-.19l.7.56c1.14.87,1.95-.5,2.82-.73s1.24-.51,2.08-1.13c1.34-.99,3.42-1.44,4.96-2.05l.33.76c.08.18.58-.26.62-.48.15-.79,1.25-1.05,2.14-.73-.33-1.34-1.73-.94-2.57-.31-.22.16-.77.15-.95.03l-.83-.57c-.17-.12.32-.57.56-1.11-.53-.06-3.7.87-3.72,1.09-.03.29-.01.64-.1.62s-.37-.07-.46-.09l-1.33-.41c-.11.08-.5.43-.72.62-.53.46-.56-.37-1.54-.64-.22-.06-.59.52-.81.59l-1.62.58c-.28.1-.94-.34-1.14-.62-.08-.11.01-.57.08-.7,1.38-3.12,3.63.23,4.8-2.99l1.22.55,2.45-.33c.66-.09,1.65-.9,2.36-1.34l-3.65-.08c-.58-.01-1.19.04-1.69.06l-1.51.06-2.92.23c-.57.04-1.68-.38-2.22.24l.34,2.29.43,3.41.5,4.26c.28,2.4.83,4.82,1.44,7.07.72.55,1.42,1.07,2.02,1.65l2.08,2.02,1.07,1.09,2.27,2.05c.62.56,1.06,1.13,1.8,1.58.94.57,1.59,1.64,2.4,2.35l1.8,1.56,3.4,2.81,2.83,2.27c.37.29.88.66,1.18.96l1.67,1.71c.53.54.93.94,1.52,1.41,1.06.85,2.05,1.93,3.21,2.77l3.05,2.22c1.81,1.32,3.73,2.55,5.61,3.74,2.62.78-3.28.42-3.27.42l-4.2-.42-6.82-.82c-.97-.12-1.61-.73-2.19-1.43l-5.89-7.07-5.33-6.92c-.64-.84-1.29-1.76-1.88-2.65l-3.74-5.63c-.46-.69-2.07-3.99-2.34-4.76-.03-.1-.39.47-.37.61l1.74,9.83c.27,1.52.6,3.15,1.23,4.18,1.51,1.06,2.47,2.25,3.53,3.65l1.44,1.88,2.51,3.03,1.88,2.2c.41.48,1.43.53,1.12,1.72l-2.41-.12c-2.28-.12-4.32-.45-6.65-1.02-.17,1.26.29,2.77.91,3.67,1.04-.1,2.16-.16,3.17,0l4.55.74,2.6.3,7.67.98,6.72.71,3,.32,3.04.31,5.73.52,9.94.9,2.94.26,13.14,1.18,3.42.23,8.14.47,3.48.22,2.87.23,2.41.23,3.85.26,3.58.18,2.67.15,6.34.18,3.36.3h17.98s2.87-.29,2.87-.29l4.36-.23,5.62-.35,2.64-.17,3.6-.3,4.34-.3c1.51-.1,3.02-.25,4.55-.44l5.51-.69,2.32-.31c4.95-.66,9.69-1.63,14.59-2.67l3.76-.8,3.36-.75c1.53-.34,2.95-.81,4.46-1.29l7.88-2.46,5.96-2.23c6.23-2.33,12.76-5.26,18.53-8.54l3.67-2.08,1.7-.96,2.7-1.61,1.66-.97c1.09-.63,2.1-1.23,3.1-1.97l4.03-2.97c3.86-2.84,7.3-6.23,10.49-9.86l1.81-2.06c1.63-1.86,3.26-3.59,4.77-5.55l1.47-1.91,2.2-2.82c.33-.42.65-.98.96-1.44l2.51-3.74c.54-.81,1.09-1.64,1.53-2.51l1.88-3.63c.92-1.78,1.65-3.62,2.47-5.49,1.99-4.52,3.43-9.16,4.78-13.94.71-2.52.94-4.84,1.04-7.43.05-1.37.52-2.67.36-4.14-.04-.34.23-.84.49-.92M148.5,82.39,418.31,100c.43-.08.08-1.44-.24-1.28l-1.44,1.43c.41,0,1.09-.04,1.69-.15ZM152.42,109.37,235.01,120.37c.23.45.3.67.44.68.1,0,.48-.11.56-.17l1.62-1.41c.11-.1.65-.12.67.02l.07.57c2.54-.75,1.84.13,3.04-.53.23-.13,0-.84.04-1.1l1.53-1.3c1.02.41,1.65.17,2.55-.19,2.5.29,1.48.53,3.98-.43.13-.33.4-.92.6-.81l.82.47c.13-.21.09-1.2-.29-1.27-1.15-.21-4.09-.25-4.28,1.44-.67-.09-2.02-.23-2.65,0-.98.75-1.97,1.32-3.3,1.08-.9-.16-1.72.27-2.55.51l-3.4.98-2.55.88c-.81.28-1.6.06-2.53.15-.99.09-2.57.84-3.6,1.04-.22.05-.24.81-.03.78l1.92-.19c1.09.59,2.42.6,3.64.53,1.05-.06,1.97-.11,2.45-1.29l1.27-.44ZM169.68,144.32c.13.06.5.22.68.22l2.59.03c.96.01,2.15-.79,3.14-1l5.45-1.15,4.41-1.28,9.31-2.16,4.03-.85,2.42-.44c.45-.08,1.3-.63,1.7-.91.9-.64,1.85-.51,2.95-.71,3.36-.61,3.89-1.85,10.31-2.73.6-.08,1.64-.66,2.39-.83,1.67-.38,3.48-.42,5-1.2,3.1-1.59,2.32.04,7.09-1.97l2.4-1.01c.63-.27,2.01.02,2.7-.18l1.74-.49,3.42-1.08,5.12-1.44c.21-.06.54-.61.66-.5.09.08.43.34.55.32l3.02-.55c.44-.08.83-.33,1.1-.62.82.2,1.45-.03,2.26-.61.62-.44,1.97-.36,2.73-.59l1.66-.49c.79-.56,1.43-.95,2.28-1.35l.41-.19c.08-.04.05-.26-.04-.25-1.95.07-.39.49-3.44.77-1.1.1-2.02.44-3.03.79-4.14,1.44-2.27-.4-6.53,1.59-2.5,1.17-2.66.22-4.04,1.24l-1.46.25-4.07.7c-.56.59-1.15,1.04-1.83,1.35l-.55.25c-.1.05-.2-.65-.31-.66-.77-.04-2.13.75-2.83,1.23-2.32-.89-6.17.82-8.29,2.34-.82-.28-1.7-.41-2.58-.21l-5.13,1.19-2.57.57c-.44.1-1.28.63-1.71.78-3.22.13-3.47.72-6.98,1.79l-2.78.85c-2.46.75-6.43.58-8.87,2.33-3.06.52-7.34,1.33-10.17,2.51l-1.16-.2c-3.01,1.12-4.09,1.09-6.97,1.73-.73.54-1.79,1.7-2.7,1.44-2.35-.66-4.29,1.03-3.48,1.42ZM174.09,123.22c-.43.15-1.38.68-1.87.75l-1.53.22,1.23,1.81.88-.28M222.47,127.59c1.99-1.27,2.69-.52,4.8-2.07-1.09-.91-1.58.33-2.4.56-1.24.34-2.45.51-3.45,1.29.38.35.77.41,1.05.23ZM159.46,133.67c.81-.36,1.36-1.09,1.75-1.53,1.6.1,3.68-.56,5.2-1.1,2.37-.84,2.36-.86,4.39-.17l-.45-.71c.37-.28.96-.69,1.32-.75.32-.05.9.34,1.25.53.92.49,2.11.21,2.69-.95l-1.46-.23c-.44-.07-1.07-.27-1.49-.39l-.96.57-2.59-.43c-1.45,2.18-2.23.4-3.61,2.1-.61-.37-1.56-.66-2.32-.4-3.1,1.08-2.62.22-5.93,1.48l.67.61c.12.11,0,.4,0,.78l1.15-.47c.12-.05.58,0,.72,0,.61.06-.88.68-.33,1.05ZM206.88,131.44l-.54-.51c-.06-.06.11-.24.27-.45.65,1.78,4.13.17,4.97-.49,2.72.42.83-.05,3.44-1.32-.97-.35-2.38-.38-3.28.16-1.82,1.09-3.27.82-3.21.81l-2.65.51c-1.17.22-3.57,1.21-3.88,1.81l1.64-.13-.18.6c-.2.67,1.8-1.09,3.42-1ZM252.17,135.09l1.21-.8,1.94-.33-1.21-.94-1.66.58c-2.55.89-2.14-.05-4.29,1.62,1.95.83,1.26-.71,4.01-.12ZM247.41,136.5c.16-.1.35-.34.57-.7-1.37-.68-2.69-.39-4.08-.04l-1.74.44c-.13.16.25.87.57,1.16.25.23.91-.01,1.31-.1l3.36-.76ZM226.21,136.56c.02-.16.09-.62-.06-.64l-.6-.09c-.89-.13-2.02-.36-2.47.8,1.93.03,1.45-1.03,3.14-.08ZM266.29,138.9l1.63-.71c.18-.08.06-.72-.13-.78s-.47.01-.79.12l-1.76.61c-.18.07-.07.71.12.78s.72.06.93-.03ZM195.64,140.87c.7.88,1.25.42,1.95.23l2.25-.63,3.92-1.08c1.35-.37,2.58-.7,3.84-1.3-2.26-.72-2.14.56-5.42.03-.12-.02-.3.45-.41.49l-2.48.86c-1.75.61-.49-.83-3.65,1.4ZM297.75,140.38l1.27-.45c-.55-.64-1.35-.75-2-.27l-1,.74c.7.37,1.07.22,1.73-.02ZM209.9,141.56c.55-.26,1.65-.75,2.4-.72l.81-1.41c-1.03.36-1.48.5-2.05.75l-2.76,1.22.31.77c.18-.43.23-.74.41-.75.14,0,.73.2.87.14ZM289.16,144.3c1.23.33,2.2-.8,3.9-1.8.47-.28.86-.53.91-1,.18-1.58-3.5.46-4.88.78l-2.17.5c-.57.13-.98.24-1.59.42l1.29,1.26c.21.21.82.4,1.09.25.2-.11.13-.51.04-1.05-.02,0,.57-.06.78-.09.19-.02.32.33.64.73ZM180.98,151.42c.08.6.15.85.05,1s-.55.43-.57.59c-.05.41,1.07.4,1.48.31l3.2-.65c1.31-.27,2.52-.85,3.79-1.19,2.51-.68,6.52-1.13,8.5-2.64,1.02-.78,2.48-.81,3.68-1.13,4.39-1.16,2.86.12,5.62-1.07l1.89-.82c1.28-.55,2.66-.82,4.06-.71l1.36-.97c1.13-.08,1.88-.29,2.8-.89.84-.54,3.05-.34,4.59-1.64-1.31-.26-6.59,1.33-8.02,1.83-2.07.72-2.92-.07-5.38,1.83-.22-.12-.59-.52-.73-.38l-.56.58c-.21-.21-.57-.56-.83-.67s-.82.2-1.13.3l-1.12.39c-.5.41-.96.44-1.6.48l-1.98.13c-.81.05-1.84,1.05-2.58,1.22l-3.72.87-2.43.49-4.43,1.14c-.6.16-1.24.26-1.83.48l-2.19.8-1.93.32ZM251.36,142.93c.41-.26.24-1.45-.09-1.4l-2.31.67,2.41.73ZM182.6,148.6c.6-.26,1.9-.15,2.54-.33l1.71-.47,3.07-.8,2.34-.75c1.11-.36,2.07-.69,3.17-.92l2.02-.41c.43-.09,1.27-.44,1.69-.55,2.4.41,3.06-.37,4.11-.91.65-.33,1.54-.01,1.96-.91l-.89-.03c-.19-.35-.47-.8-.73-.9-.22-.08-.72.42-.95.49l-4.17,1.28-2.21.63c-.57,0-1.06-.03-1.5.13-1.35.5-2.75.61-3.98,1.19-.63.3-1.38.14-1.94.3-2.16.63-4.64,1.28-6.73,1.51-.33.04-.95.59-1.25.46-.35-.15-.84-.29-.93-.11l-.3.63c-.1.22-.37.75-.59.7l-.89-.18-1.05.43-.64-.22c-.12-.04-.39.43-.32.61.24.55,1.45.57,2.22.3,2.51-.88,2.15-.29,4.22-1.17ZM218.04,166.15c1.03-.27,2.21-.33,2.91-1.09,1.18.49,2.27-.05,3.33-.4l5.82-1.91,4.16-1.73c.66-.27,3.96-.27,4.89-1.77.12.1.33.35.41.28l.44-.35c.61.74,1.55.42,2.15-.24.3-.23,1.1-.55,1.47-.58h.65c.12,0,.17-.25.12-.36l-.37-.69c2.19.81,2.88.05,4.94-.96.56.09,1.27.13,1.71-.05l2.14-.88,2.1-.15c.79-1.17,2.31-.88,3.47-1.21l3.7-1.07,1.54-.54c1.03-.36,2.12-.47,3.12-.97l1.62-.81,1.66-.85c.23.46,1.01,1.12,1.42.88.86-.49,1.45-.73,2.29-.98l3.51-1.07c.54-.16,1.53-.44,1.96-.69l1.78-1.08c.95-.57,2.05-.62,3.09-.8-.67.11,2.87-.88,2.48-1.16-1.09-.76-1.58-.15-1.41-.53.79-1.69-3.41-.32-4.03.02l-.64,1.09c-2.12-.63-4.27-.15-6.01,1.15l-2.07.17.1,1.11c.02.2-.69.16-.92.12l-1.44-.25c-.75-.13-2.31.3-3.09.54l-4.23,1.33-4.02,1.04-1.99.41c-.7.15-1.61.36-2.22.61-.99.41-1.79.59-2.82.91l-1.9.6-3.77,1.19-3.04.84-6.94,1.97-2.26.81-2.72.88c-1.68.54-3.28,1.15-4.93,1.79-1.11.43-2.33.66-3.43,1.21-.98.49-1.96.47-2.95.72l-3.98,1.02c-.71.18-1.73.93-2.42,1.05-.96.16-1.85.28-2.84.54l-1.89.51-1.98.56c-.6.17-1.06.18-1.64-.05-.93.26-2.02,1.51-3.15.94l-.76-.39c-.17-.08-.68.24-.63.34l.77.31c.11.05-.17.34-.27.42l-.49.37c1.21.77,5.53,1.1,7.03.81,4.67-.9,6.06-1.76,10.48-2.93ZM365.27,151.53l3.01-1.08c.31-.11.38-1.1,1.08-.84.26.1.69-.45.56-.7-.38-.73-1.57-.38-1.57-.41v.95c-.5-.05-1.05-.02-1.58.26-3.04,1.56-4.25.87-4.47,2.17-.04.23.49.64.72.55l2.26-.89ZM366.34,149.61c.21-.17.36-.85.24-.95l-1.78.14-1.89,1.2c.06.14,3.63-.55,3.43-.39ZM242.29,152.1c1.11-.07,2.19.03,3.19-.3l2.61-.85c.26-.09.92,0,.95-.27.03-.22.11-.99-.11-1l-.99-.03c-.37-.01-.98.05-.95.32.04.36.04.83-.14.91-.78.33-.92-1.07-1.69-.84-2.49.72-4.75,1.42-7.14,2.81.84.86,3.21-.68,4.26-.74ZM221.55,151.32l-.45-.73c-.04-.07-.37.05-.46.05-.85-.27-1.41.31-2.16.71-.49.26-1.66.04-1.72,1.04-.29.95,4.75-.84,4.79-1.08ZM197.11,154.57c.08-.07.33-.28.31-.3l-.44-.33c.47-.02,1.39.14,1.83-.04l1.44-.57c2.78-1.1.02.07,2.45-1.87l-1.39.35c-.22.06-.84-.06-.99.1-.27.3-.95.98-1.33.95s-.97-.44-1.51-.75l.38-.36c.1-.09-.02-.57-.05-.44-.76.32-1.49.47-2.15.51-.19.79-1.17,2.04-2.12,1.39-.3-.21-.84-.54-.96-.55-1.14,2.78-2.31,1.12-3.27,1.95-.69.59-1.7.93-2.62.87-1.2-.08-1.27,1.29-2.34.45-.1.21-.09.98.13,1.22s1.03-.22,1.37-.27c1.44-.22,3.26.13,4.58-.66.54-.33,1.03-.4,1.71-.55,3.18-.7,2.67-1.45,4.97-1.14ZM188.8,160.06c1.7.4,4.38-.35,6.07-1.31l1.86-.07c2.41-.76,4.72-1.77,7.22-2.06,1.41-.17,2.67-.33,3.94-.88l1.86-.8c1-.43,2.05-.97,3.12-1.17l2.42-.46c.34-.06.72-.2.78-.39s.11-.75.13-1.01c.01-.17-.58-.16-.58,0l-.02.48c-1.14.16-2.43.25-3.47.53l-3.1.84c-1.75.47-3.41.92-5.18,1.28-1.09.23-2.18.48-3.17.87-2.65,1.06-3.46,1.02-5.82,1.84-.59.21-1.47.66-1.98.77l-2.65.59c-.59.13-1.03.33-1.44.93ZM327.32,155.82c.3.09,1.09-.31.98-.57-.1-.22-.35-.53-.69-.9l.7-1.79c-.97-.3-2.23-.14-2.77.7l1.16.69c.43.25-.4,1.55-.02,1.67l.63.2ZM310.16,159.75c1.19-.69,2.07-.98,3.28-.19.39-1.98,1.78-.67,3.4-1.62l-.8-1.42c.72.25,1.33.5,1.75.52.32.01.61-.57.99-1.05l1.01.83-1.13.49c.15.14.45.32.38.45l-.35.68c.25.02.98-.05,1.32-.18.51-.2.13-1.94.14-1.93l-.51-.41c.23-.59.98-1.02,1.78-1.25.04-.09.03-.47-.1-.48s-.53,0-.69.04l-2.4.46c-1.36.26-2.63,1.09-3.94,1.47l-3.17.93c-1.12.33-2.05.76-3.11,1.18-.93.37-2.37.25-3.41.78l-2.09,1.06-.76,1.8,2.13.7.7-2.4,1.64-.57c-.26.76-.46,1.12-.33,1.36.4.75,1.57-.42,2.03-.57.57-.19,1.72-.38,2.25-.69ZM353.5,158.95l2.01-.9.97-.62c.73-.46,1.41-.91,1.98-1.47-1.55-1.36-1.92,2.35-4.4.92l-1.08.76c.23.16.66.34.64.5l-.12.81ZM275.89,156.88c.1-.17-.4-.71-.55-.63l-.78.43c-.32.17-.54.58-.54,1.06.65.01,1.57-.35,1.88-.87ZM299.63,157.68c-.59-1.1-1.72-1.18-2.49-.31.86.21,1.61.33,2.49.31ZM198.07,161.38c1.7-.24,3.17-.89,3.94-2.29.23.35.76.95,1.07.86s.77-.61.97-.9c.56.89,2.85-.04,3.72-.98-2.53-.71-3.11.46-5.91.74-1.5.15-3.59.57-4.91,1.26l-1.89.98c-.97-.1-1.51,0-2.43.69l.75.49c.18.12.62-.27.83-.31l3.88-.54ZM277.87,160.02l4.2-1.51c-.32-.25-.72-.58-.91-.48l-.87.44-1.47.29c-.39.08-.78.13-.97.29-.17.15-.2,1,.01.97ZM286.26,159.79c.5.41.92.79.75.89l-.6.35c-.16.09-.68.28-.6.42l.35.62c.07.12,2.6-1.41,4.71-.67l2.49-1.51c.12-.07.09-.61-.05-.66l-.67-.24.87-.84-2.17-.23c-.16-.02-.58.19-.68.28s-.1.44.02.5l.72.37c.44-.15.39-.08.04.19-.38.49-.75.77-1.31,1.02l1.19.45c-.32.19-1.07.48-1.3.24l-1.33-1.32.62-.06c.11-.01.03-.58-.02-.69-.96.1-2.35.44-3.02.88ZM381.34,165.95l1.02-1.87c1.08-1.98,1.53-4.02.75-6.25-1.38.31-2.35.85-3.38,1.43-3.15,1.79-2.11,4.94-2.22,8.5,1.19,1.24,3.33-.88,3.83-1.8ZM255.91,159.32l-.47-.73c-1.15.16-1.85.33-2.13,1.33l2.6-.6ZM259.47,165.93l.28.48c.05.08.32-.21.34-.33.24-1.61,1.68-.29,2.64-1.42l2.4-.38c1.29-1.56-.05.66,3.41-.86.48-.21,1.13-.52,1.5-.72,2.11-.22,4.01-.99,5.94-2.04.36-.19,1.24-.07,1.21-.64-.02-.37-.38-.88-.65-.89-.49.96-.9,1.03-1.82,1.01-1.91-.04-3.69.96-5.29,1.79-.61-.09-1.32-.1-1.92.32-1.01.7-2.33.75-3.47,1.15l-2.33.82-2.25.8c-.15.05-.44.34-.54.46-.08.09.48.3.55.43ZM337.49,160.79l1.99-1.06c-.79-.89-1.34.13-2.02.09-.32-.02-.94-.17-.96.07l-.08.87c-.02.19.85.14,1.06.03ZM279.43,163.15c.37-.32,1.5-.04,1.94.19.16-.06.54-.41.68-.31l.73.53c.44-.27,1.09-.79,1.59-1.19l.84-.11-1.13-1.7c-.41-.2-1.55-.41-2.06-.27-.77.21-.78,1.3-1.06,1.81-.42.77-1.97.67-2.65.24-.33-.21-.88-.29-1.1-.09-.19.18-.21.66-.18,1.09.07,1.03-2.31.04-2.72,1.52,1.67.61,2.87.23,3.94-.7l1.16-1.01ZM331.36,162.72l1.81-.53c.32-.09.86-.13,1.32-.19l.97-1.61-1.67.49-2.28.74c-1.12.36-2.12.64-3.21,1.29,1.24,1.36,1.93.14,3.06-.19ZM260.92,161.01c-.72-.29-1.43-.43-2.08-.3.02.51.56,1.2.87,1.12.25-.06.66-.36,1.21-.82ZM300.34,171.73l1.04-.58c.92.9,1.94.45,2.95.17l2.3-.63c1.29-.35,2.68-.5,3.92-.93.81-.28,1.48-.5,2.31-.59l1.95-.22c-.46-.52-.69-.79-.71-1.42l1.19,1.01,1.56-.82c.22.32.57.99.7.82l.49-.64c.13-.18.49-.62.66-.53l.63.34c2.11-1.97.68.03,4.52-2.12,3.47-1.94,3.73-.55,4.49-2.33l-2.68-.78-1.4.76c-1.15-.76-2.09.2-3.09.31-1.29.13.18-1.07-4.33.62l.02.9-1.48.67c-2.68,1.21-3.85.23-4.82,1.3-.11.12-.03.83-.17.8s-.65.03-.61-.12l.19-.83-2.06.39c.08.49.22,1.06-.02,1.19s-.67.27-.97.36l-2.38.7c-.28.08-1.09-.13-1.25.07s-.23.67-.34,1.08c-3.19.14-.95.27-3.1-.24-.16-.04-.12.45-.16.61-.08.3-.12.5-.15.65s.62.13.79.03ZM229.16,167.88l1.48-.48c.92-.3,2.32-.37,3.05-1.02l1.75-1.6c.38.17,1,.4,1.32.46.24-.3.41-.73.61-.67l1.05.31c.55.16,3.57-.95,2.97-1.87l-2.43.32-.41,1.01c-.64-.86-1.25-.63-2.01-.38l-2.75.93-3,.96-1.04.79c-.03.29-.02.52-.11.64l-.5.6ZM243.36,169.75c-.72.72-1.47.57-2.51.56.52.49,1.68,1.21,2.33,1.49.23.1.69-.34.94-.56l.6.39c.14.09.48-.12.76-.32l-1.49-.47c.36-.45,1.28-.84,1.73-.47,1.4,1.16,2.76,0,2.63.71l-.2,1.08c1.95-.86,3.25,1.02,3.66.33l.39-.66c2.71,1.55,1.12-.4,3.96-.37,1.09.01,2.21-1.24,3.2-1.42.61.15,1.19.28,1.77.12l2.64-.72c.74-.2,1.29-.35,2-.68,2.83-1.32,2.65.09,3.88-1.65.35.07.96.2,1.16.05.17-.12.2-.53.21-.9l1.07-.55c.76.24,1.46.3,1.98-.57l-1.87-.28v-1.06s-.74,1.11-.74,1.11l-1.65-1.3-2.22,1.86c-.31.01-.82.02-.77.2l.19.73-2.59.47.23-.9-1.68-.45c-.38.22-.53,1.27-.49,1.76-1.18.07-2.34.29-3.45.65l-1.44.46c-.17-.6-.3-1.11-.57-1.19-.23-.06-.74.02-1.04.11-.21.06-.63.71-.45.85l.75.57-1.91.99c.95.26,1.13.27,1.76.68l-2.38.93c-.13-.54-.13-.95-.31-1l-.85-.27c-.24-.08-.76-.4-.91-.24l-.53.57-.53.57c-.12.12.02.45.06.75-.12,0-1.06-.34-1.07-.61l-.08-2.49,1.44-.69c2.75.56.86-.47,3.88-.18.16.02.52-.26.42-.39-1.39-1.9,1.95.03,1.89-1.86-2.02.21-3.67.87-5.53,1.53-.83.3-2.32.01-3.03.56l-1.74,1.35,1.54.96c-3.25,1.39-2.21-2.96-5.03-.12ZM368.14,167.35c.84.79,1.79-.2,2.58-.12.94.1,2.44.27,2.82-.9.17-.52.31-1.4.62-1.69.3-.28.42-.31.34-.39-.05-.05-.27-.25-.27-.26,0-.01-.26.36-.33.37l-1.5.11c-.36.03-1.14.02-1.21.32l-.26,1.15-1.25.69c-.16-.55-.83-.91-1.27-.62-.29.2-.6,1.04-.28,1.34ZM227.56,166.07c-.99-.39-1.88.01-2.34.69.95.27,1.71.03,2.34-.69ZM292.71,168l1.91-.78c-.77.01-1.6-.1-2.01.03l-3.01.94c.36.52,2.04.25,3.11-.19ZM237.19,169.67l1.93-1.35-.98-.85c-.12-.1-.68-.12-.7.04l-.05.69-1.09.98.89.49ZM219.85,168.38c.23.01.82-.17,1.23-.28-.13-.56-2.97-.73-3.48.14l2.25.14ZM229.88,171.19c1.5-1.82,4.07.08,3.99-1.69-1.37-.45-1.24-1.71-2.27-1.05-.18.11-.15.35-.18.9l-1.47-.58-1.5.93c.4.46,1.01,1.12,1.43,1.51ZM289.94,170.34l-2,.02,1.43-1.27c-.32-.3-1.29-.66-1.74-.32-.37.28-.91,1.14-.79,1.38.52.55.8.99,1.12,1.53.67,0,1.72-.78,1.97-1.34ZM220.26,170.19l3.5-1.23c.71-.74-4.91.88-3.5,1.23ZM345.94,178.14l2.03.17c-.67,1.2-1.48,1.31-2.73,1.46l.5.68c.43.58-2.05-.25-2.24.25-.05.56,0,.74-.14.87l-.72.68c1.99-.47,3.84-1.08,5.62-1.86.16-.34.29-.95.53-1.11.41-.28,2.04-.44,3,.02l4.98-1.89,2-.68c1.2.02,2.17-.23,3.01-1.11l2.53.08c.9.03,1.92-.73,2.86-.87,1.23-.18,3.26.09,3.89-1.1.02-.32.09-1.21.12-1.24.94.24,3.6-1.37,4.13-1.94.09-.1-.26-.66-.37-.61-1.26.61-2.53-1.01-4.24.88l.89.11c.14.02.13.39.03.48-.77.73-.75-.51-2.35.44l-.45-.78c-.79.07-1.63.28-2.29.73l.91.66c.16.11.06.68-.13.74l-2.29.8c-.16.06-.65-.45-.5-.53l.86-.51c-1.01-.13-3.18-.62-3.79.86.34.63,1.1.49,1.83.22.12-.03.18.8-.05.82-2.29.25-2.44.75-3.52.56-.44-.08-1.05-.49-1.29-.32s-.73.66-1.01.83l-1.94,1.22-1.47-.46c-.6.97-2.61,1.38-3.33.62-.17-.18-.34-1.07-.54-.95l-.8.47c-.56.33-2.71.59-3.5,1.29ZM283.43,172.56c.86.26,2.73-.22,3.51-.99-.72-1.31-1.89.85-3.47.26l.91-.96-1.78.21c-.6.07-1.43.35-2.26.68l2.59-.11c.05.04.31.86.5.91ZM352.27,176.14l2.25-.72c.08-.03.32-.25.39-.3s-.48-.13-.56-.1l-1.97.64-.64-.05c-.12,0-.32.54-.2.55s.62.02.73-.02ZM333.09,180.43l4.02-1.46,2.54-1.01c-.21-.23-.95-.72-1.13-.53l-.72.78c-1.37-.1-3.03.44-4.25,1.08-.39-.02-1.31-.3-1.54-.03l-.89,1.05c.72.44,1.29.37,1.96.12ZM315.74,183.6l2.36-.99c.17-.07.71.13.8-.02l.36-.59.77.72c.57-.45,1.09-.81,1.69-1l3.31-1.01c.9-.27,1.77-.59,2.65-1l2.76-1.29c-1.17-.19-2.18.24-3.3.49l-3.33.74c-1.21.27-2.59.58-3.75,1-.48-.13-1.16-.27-1.69.04-.85.51-1.74.55-2.58.79l-2.86.8c-.25.07-.59.22-.76.32s.09.77.28.78l3.29.22ZM273.07,204.85c-.45.22-1.27.45-1.63.69-.94.64-1.82.43-2.83.12-1.4-.43-2.81-.81-4.19-1.35l-4.03-1.56-2.53-1.01-5.44-2.21-5.95-2.49c-5.96-2.49-11.65-5.25-17.34-8.34-2.48-1.34-9.65-5.04-12.37-3.59.39.73,1.03,1.12,1.73,1.52,2.86,1.65,5.6,3.38,8.57,4.81l1.62.78,4.26,2.23c.52.27,1.24.55,1.81.81l2.32,1.06,3.93,1.9,2.11,1c.55.26,1.21.41,1.79.68l1.73.81,8.08,3.51c.9.39,1.76.76,2.69,1.1l2.47.91,4.42,1.57,4.14,1.37,4.22,1.31,3.06.95,1.67.5c2.38.72,4.75,1.41,7.21,1.9l5.27,1.04c3.34.66,6.6.98,9.96,1.35l3.23.36,5.77.85c1.69.25,3.56.14,5.23-.05l4.1-.45,2.43-.21c.84-.07,1.76-.17,2.57-.31l2.43-.41,6.95-1.24c3.38-.6,10.91-3.23,13.99-4.71l3.22-1.55c1.13-.54,2.17-1.13,3.26-1.74,1.8-1.01,3.33-2.23,5.06-3.38l1.3-.86c.84-.56,1.79-1.16,2.5-1.8l3.92-3.55,2.66-2.42c.53-.48,1.22-1.06,1.71-1.59l3.01-3.27c1.79-1.94,2.84-4.43,4.05-6.75.66-1.27,1.33-4.34.62-4.65-.65-.29-1.42.57-1.83,1.01l-1.28,1.38-1.99,2.38-1.82,2.69-3.58,4.39c-.57.7-1.2,1.35-1.85,1.97l-1.73,1.65c-1.65,1.58-3.31,3.07-5.17,4.41l-3.21,2.32c-1,.72-2.01,1.35-3.1,1.96l-2.14,1.21-3.85,2.15c-2.34,1.3-9.52,4.05-12.05,4.67l-3.87.94c-2.7.66-5.32.91-7.99,1.24-1.84.23-3.5.68-5.42.54-.95-.07-1.95.1-2.89.15-2.21.13-4.4.04-6.59-.04l-5.56-.22c-3.49-.14-6.1-1.18-8.29-1.11-.4.01-.9-.31-1.17-.62,2.32.04,3.95-1.22,4.95-.66.02.26-.02.76.12.73l.56-.12c.16-.03.57-.21.55-.37l-.09-.69c.88-.35,2.16-.57,3.2-.79l3.69-.78c.71-.15,3.45-.36,4.75-1.15-1.23-1.07-2.34-.24-3.5-.38-1.72-.21-3.05.06-4.66.7.06-.02-5.19,1.54-5.01.8l1.02-1.19c-.45-.05-1.33.08-1.43.42-.06.21.33.96.12,1.03l-.79.25-2.87.95-2.14.74c-1.78.26-7.28-.83-9.17-1.35-1.73-.47-3.32-1.03-5.06-1.4-1.41-.3-2.64-.74-4.04-1.33.94-.82,2.03-.53,2.93-.9,1.62-.67,3.22-1.37,4.78-2.14l2.5-1.25.24,1.31.64-.42c.1-.06-.22-1.17-1.09-1.63-.28-.15-.97.25-1.29.29-1.69.19-3.23.58-4.44,1.96-1.52-.9-2.57,0-3.87.65ZM163.88,181.14c-.25-.29-.85-.81-1.07-1.11l-.58-.8c-.12-.16-.54.47-.5.67l.58,2.72,1.57-1.47ZM340.69,180.32c.09-.27-.19-.59-.41-.47l-1.91.95c.85.46,1.71.36,2.33-.48ZM224.07,181.7l-2.89-.88c-2.49.61-3.87-1.13-4.85-.19l2.42,1.48c2.62,1.61,2.6,1.25,5.32-.41ZM296.65,185.22l1.75-.44c.68-.17,1.68-.07,2.41-.29.99-.3,2.31-.35,3.11-.67,1.32-.53,2.28-1.44,3.78-1.54.76-.05,1.44-.33,1.89-1.06l-4.42.41c-1.68.15-3.32.21-5.02.5l-2.63.46c-.7.12-1.23.29-1.68.78l-.98-.15c-.22-.03-.56.49-.78.54l-2.53.56c-.13.03-.48.2-.65.28-.11.05.11.29.26.44,4.87-1.38,2.15,1.02,5.5.17ZM240.11,183.87c.98.56,1.84.74,2.76.12l1.8.39c.21-.75.13-1.51-.77-1.48-.55.02-.95.36-1.31,1.06l-.83-.59.81-.29c.08-.03-.33-.31-.42-.32l-4.76-.33-3.21.34c-.97.1-1.66-.19-2.46-.8l-2.05.28c-.19.03-.7.46-.55.53l.78.35-1.67.87,2.04.35c.15.02.51-.37.65-.33s.53.31.68.32l3.44.18c.06,0,2.69-.08,2.86-.5l.47-1.12,1.72.98ZM310.14,184.3c.64.02,1.4-.75,1.84-1.17l-1.89-.32c-.29-.05-.81-.12-1.02,0s-.49.59-.51.73c.45.23,1.17.75,1.57.77ZM261.8,185.11c2.1-.53,4.01-.77,5.9-.77.05-.12.17-.9-.03-.89-2.31.16-2.92-.3-4.42.17-.2.27-.7,1.02-.81.76l-.46-1.04c-.16-.37-.95.22-2.28.5-1.4.3-2.22.05-2.3.64-.03.24.53.73.77.7.91-.1,1.63-.57,2.41-1.07l1.23,1ZM312.04,205.47c.98-.11,1.59-.13,2.38-.59.54-.32.97-.41,1.53-.99-2.38-.11-4.71.11-6.86.94s-1.68-.36-2.56.39c-.11.09-.12.42-.02.52s.53.29.72.27l4.82-.54ZM285.67,206.23c.43-.07,1.37.03,1.77-.09l4.32-1.23c.1-.03.39-.48.29-.51l-.54-.16c-.6-.18-1.18.1-1.49.67l-3.58.54c-.42.06-1,.29-1.37.15-.93-.35-1.62.33-1.69.99l2.3-.36ZM318.07,211.78c1.68.15.87-.6,4.21-1.1l2.81-.42c1.77,2.09,2.5,1.04,5.09.34.51-.14,1.52,0,1.86-.29,1.52-1.27.49.49,3.74-.91.66-.28,1.17-.48,1.98-.76-1.12-1.47-2.72.62-3.29.18-.11-.09-.32-.38-.46-.45l-.98-.56.89-.77.41.43c.23.24-.12-.72.15-.51l.92.71c.24.18,1.65-.92,1.51-1.06l-.68-.64,1.04-1.32c-3.13-.49-.9,3.07-5.49,1.8-.43.14-.68.47,0,.42.36.12.96.44.84.64-.1.16-.39.43-.53.59-.79.89-1.51,1.08-2.61,1.37l-3.33.88-1.63-1.75-1.89.97c-1.25-.63-3.09.6-3.54.81-.37.17-1.35.13-1.76.06-.9-.15-1.19.05-1.95.4-.69.32-1.96.26-2.69.68-.58.33-1.43.71-1.87.53l-.55-.23c-.07-.03-.29.43-.25.5.87,1.66,3.46-.94,8.06-.53ZM343.37,205.75c.88.33,2.29.07,2.87-.61l-1.65-.62.22.65c.04.12-.22.4-.32.33l-.41-.28c-.15-.1-.58-.16-.75-.11s-.16.57.03.64ZM305.2,206.03l-2.36.03c-.47,0-1.18.03-1.47.27l-1.58,1.32c1.07,0,4.56-1.2,5.42-1.62ZM342.82,206.12c-.79-.48-2.35.07-2.93.6-.15.13.08.74.27.72.76-.1,1.68-.52,2.67-1.31ZM292.37,208.48l3.29-1.24c.67-.25,1.61.14,1.96-.96l-1.7.46c-.24-.19-.67-.65-.83-.5l-.65.6c-4.16-.32-1.74.78-5.05,2.01,1.14.79,1.98,0,2.96-.37ZM281.27,208.45l2.21-.51c.32-.07-.16-1.06-.48-.99-2.02.44-2.36-.01-2.57.81-.06.23.58.75.84.69ZM228.65,208.45l-1.82-.56c-.37.23-.77.46-.95.49-.56-.73-1.41-1.12-2.22-.29-.22.22-.75.2-1.44.14-.14.06.32.79.62.87s.95-.25,1.16-.43l.29,1.05c.19.67,3.66-.87,4.35-1.27ZM328.26,208.65c.16-.03.7.25.75.13l.22-.5c.05-.12-.42-.39-.55-.39l-2.1.04c-.36,0-.93.78-1.01,1.19l2.7-.47ZM229.04,212.61l3.1-1.19c.42-2.02-1.88.11-3.16-.06l.06,1.25ZM230.46,214.03c2.84,1.76,2.56-1.84,5.37-.62.4-.3.19-1.05-.15-1.36-.22-.2-.81-.23-1.15-.03l-2.98,1.8-.72-.33c-.13-.06-.5.46-.37.54ZM237.38,217.61c1.23.81,2.67.23,3.8-.31l3.49-1.67c-.82-.87-.83.42-3.76.27-.92.7-4.68.96-3.9,1.47l.37.24ZM246.24,218.92c-1.36-.36-2.03-.18-2.5.14-.14.09.42.68.58.62l1.92-.76ZM248.33,222.77c.85.12,4.77-.39,3.96-1.41l-2.72.28c-.42.04-.98.74-1.24,1.13ZM274.09,230.3l3.89-.46,2.75-.64c.48-.11,1.1-.49,1.51-.8l-2.12-.3c-3.58,1.73-2.52-.5-4.26.55-.2.12-.62.49-.7.35l-.42-.76-1.44.61.79,1.45ZM272.82,228.73c-1.21.05-2.23.52-3.24,1.11l-1.29.43c1.62.59,4.35.59,4.54-1.53ZM295.26,231.94l1.95-.8c-.66-.47-1.41.06-2.11.16-1.25.18-2.39.58-3.31,1.2-.61-.08-1.78-.27-2.19.33-.36,1.35,5.25-.73,5.65-.89ZM295.87,233.96l-2.22-.19c-.15.45-.2.99-.03,1.38l2.26-1.19ZM300.16,234.66c-1.41-.19-2.46.15-3.14,1.07,1.22.03,2.43-.31,3.14-1.07ZM306.22,238.03l3.14-1.63c-1.4-1.52-.71-.12-3.16.42l.02,1.21ZM297.5,251.19c.72-.18,2.22-.36,2.39-1.03.44-1.68-2.92-.87-3.35-1.13-1.51,1.24-3.57.55-3.21,3.18l4.17-1.02ZM301.5,252.57c.26-.06.88-.51,1.14-.51.82,0,2.45-.38,2.43-1.67l2.53.51c-.69.45-1.2.85-1.73,1.34l3.63-.28c.63-.05,1.67-.63,2.36-.91l-3.33-.51c-.22-.03-.76.34-.88.19l-.49-.64c-.43-.15-1.47-.42-1.9-.31l-1.86.46-.93,1.57-.49-.4c-.07-.05-.41.45-1.23.85-.2.1-.67-.33-.92-.35-.3-.03-.93.32-1.25.42l-4.29,1.26c1.04,1.52,1.02.54,4.1-.23l3.11-.78Z"/>
  <path class="cls-1" d="M386.34-.42l2.56,1.78,4.37,3.13,2.72,2.25c2.87,2.37,5.63,4.7,8.21,7.35l1.19,1.23,2.21,2.39c1.55,1.68,2.93,3.42,4.36,5.21l1.18,1.48c.9,1.13,1.77,2.19,2.52,3.47.38.65.74,1.14,1.38,1.51.49-1.18-1.72-3.39-2.53-4.63l-1.06-1.63c-1.42-2.18-3.04-4.1-4.76-6.04l-2.01-2.28c-1.12-1.28-2.2-2.46-3.4-3.62l-2.06-1.99-1.35-1.3c-.69-.67-4.93-3.99-5.8-4.54-2.34-1.45-4.58-2.49-6.77-3.76h41.28v61.92l-2.24-.88c-1.23-.49-2.36-1.08-3.56-1.71-3.92-2.05-7.66-4.14-11.24-6.76l-7.63-5.57c-.58-.42-1.16-.95-1.7-1.42l-4.45-3.94-1.78-1.59-2.23-2.1-1.88-1.97-5.79-5.95-1.24-1.41-6.8-8.08-6.42-7.47c-2.3-2.67-4.49-5.25-6.66-7.98l-4.05-5.09h25.44Z"/>
  <path d="M428.58,74.22v5.04c-.26.08-.52.58-.49.92.15,1.47-.31,2.77-.36,4.14-.1,2.59-.32,4.91-1.04,7.43-1.35,4.78-2.79,9.42-4.78,13.94-.83,1.87-1.55,3.72-2.47,5.49l-1.88,3.63c-.45.86-.99,1.7-1.53,2.51l-2.51,3.74c-.31.46-.63,1.02-.96,1.44l-2.2,2.82-1.47,1.91c-1.51,1.96-3.14,3.7-4.77,5.55l-1.81,2.06c-3.19,3.62-6.63,7.02-10.49,9.86l-4.03,2.97c-1,.74-2.01,1.34-3.1,1.97l-1.66.97-2.7,1.61-1.7.96-3.67,2.08c-5.77,3.27-12.3,6.21-18.53,8.54l-5.96,2.23-7.88,2.46c-1.51.47-2.93.94-4.46,1.29l-3.36.75-3.76.8c-4.9,1.05-9.64,2.01-14.59,2.67l-2.32.31-5.51.69c-1.52.19-3.04.34-4.55.44l-4.34.3-3.6.3-2.64.17-5.62.35-4.36.23-2.87.3h-17.98s-3.36-.31-3.36-.31l-6.34-.18-2.67-.15-3.58-.18-3.85-.26-2.41-.23-2.87-.23-3.48-.22-8.14-.47-3.42-.23-13.14-1.18-2.94-.26-9.94-.9-5.73-.52-3.04-.31-3-.32-6.72-.71-7.67-.98-2.6-.3-4.55-.74c-1.01-.17-2.13-.11-3.17,0-.62-.89-1.08-2.41-.91-3.67,2.33.57,4.37.91,6.65,1.02l2.41.12c.31-1.2-.71-1.24-1.12-1.72l-1.88-2.2-2.51-3.03-1.44-1.88c-1.07-1.39-2.02-2.59-3.53-3.65-.63-1.03-.96-2.66-1.23-4.18l-1.74-9.83c-.03-.15.34-.71.37-.61.26.77,1.88,4.07,2.34,4.76l3.74,5.63c.59.89,1.24,1.81,1.88,2.65l5.33,6.92,5.89,7.07c.59.7,1.22,1.32,2.19,1.43l6.82.82,4.2.42s5.89.36,3.27-.42c-1.88-1.19-3.8-2.42-5.61-3.74l-3.05-2.22c-1.16-.85-2.15-1.92-3.21-2.77-.59-.48-.99-.87-1.52-1.41l-1.67-1.71c-.29-.3-.81-.66-1.18-.96l-2.83-2.27-3.4-2.81-1.8-1.56c-.81-.71-1.46-1.78-2.4-2.35-.74-.45-1.18-1.02-1.8-1.58l-2.27-2.05-1.07-1.09-2.08-2.02c-.6-.58-1.3-1.1-2.02-1.65-.61-2.26-1.16-4.67-1.44-7.07l-.5-4.26-.43-3.41-.34-2.29c.54-.62,1.65-.2,2.22-.24l2.92-.23,1.51-.06c.5-.02,1.11-.08,1.69-.06l3.65.08c-.71.44-1.69,1.25-2.36,1.34l-2.45.33-1.22-.55c-1.17,3.22-3.42-.13-4.8,2.99-.06.14-.15.59-.08.7.2.28.85.72,1.14.62l1.62-.58c.22-.08.59-.65.81-.59.98.27,1.01,1.1,1.54.64.22-.19.61-.53.72-.62l1.33.41c.09.03.37.08.46.09s.07-.33.1-.62c.02-.23,3.19-1.15,3.72-1.09-.24.54-.73.99-.56,1.11l.83.57c.19.13.74.14.95-.03.84-.64,2.24-1.03,2.57.31-.9-.32-1.99-.06-2.14.73-.04.22-.55.66-.62.48l-.33-.76c-1.55.61-3.62,1.06-4.96,2.05-.84.62-1.23.91-2.08,1.13s-1.69,1.6-2.82.73l-.7-.56c-.15-.12-.71.09-.89.19.65,1.31,1.45,2.18,2.47,2.98l1.26.98c.78.61,2.01,2.71,4.41,4.16.12.08.63.15.61,0-.32-1.72-.26-.21-1.62-2.49l2.54-.39,2.92-.45-.21,1.62.73-.4c.16-.46.27-.67.42-.63l.63.17.8-1.07.44.83c.11.21,2.6-.59,3.17-.9.6-.33,1.13-1.01,1.8-.87,1.04.22,1.85.05,2.82-.21l2.29-.63c1.46-.4,3.08-.73,4.63-.89.75-.08,1.53.2,2.23-.18l2.04-1.1c.81-.44,2.04-.62,2.97-.82l3.34-.72c2.85-.61,1.21-.74,4.92-1.48.41-.08,1.07-.19,1.42-.3,1.01-.3,1.91-.33,3.03-.57l3.83-.81c.98-.21,4-.54,5.14-.97l1.72-.64c-.5.19,10.01-2.67,9.04-1.07-.33.67-3.23.91-2.52,1.27l.44.22.55.27c.07.03-.27.27-.35.29l-1.39.39c-.71-.79-1.68-.58-2.35.08l.51.21.18.43-2.71.76-.05-.57c.29-.36.38-.48.34-.42-3.29-.26-.8,1.47-3.04,1.55-.34.01-1-.22-1.3-.31-.64.33-1.29.54-1.95.8l-1.86.74c-.69.27-1.32.54-2.1.5-.68-.04-1.29.35-1.84.48l-4.5,1.07-2.42.7c-.7.2-1.58.39-2.31.51-1.21.2-2.11.57-3.32.85l-2.77.63c-.38.09-1.04.73-1.32.99-.08.07.04.62.14.57l.49-.26c.19-.1.6-.13.95-.09.43.05,1.13-.17,1.5-.16,3.09.1,2.9-.25,5.3-1.06.52-.17,1.43.23,2-.33.89-.86,2.14-1.06,3.3-.8l.49.11c.08.02-.27.25-.34.31l-.67.61.81.32c.09.03-.19.22-.32.25l-3.46.76c-.31.07-1.07-.56-1.3-.37l-.88.74c-1.99,1.67-2.18-.76-3.52,1.13-.23.33-1.21.03-1.62.16-1.23.39-2.84.71-4.21.94l-2.65.43-1.5.82c-.74-.02-1.03.1-1.54.24l-1.72.44c-.78.2-1.16-1.26-1.39-.64l-.19.53c-.04.1-.34.17-.43.1l-.37-.3c-.53-.13-.99,1.1-1.45,1.19l-2.38.48-2.47.55-1.98-.87c-.18-.08-.36.68-.18.74l.79.25.02.44c-.62-.09-.83-.16-.98-.03l-.63.54c-.13.11-.27-.45-.17-.54l.36-.33-.71-.84c.77-.21,1.66-.42,2.58-.61l2.23-.45,3.3-1.2c.97-.35,2.32-.12,3.3-.22.7-.89,1.59-1.18,2.58-.62l.57-.66c-.05-.13,0,.02.18.5-.01,0,.42.14.58.19.67.22-.02-1.46.76-1.45s1.61-.14,2.1-.6c1.24-1.15,1.67.74,2.37-.78-1.47-.31-2.69-.02-4.06.44l-2.05.69c-1.74.58-3,.4-6.57,1.62-.65.22-1.25.5-1.99.62l-1.96.32-2.44.3c-.54.07-3.01,1.24-4.08.58-.15-.09-.78.08-.68.2l.41.45,1.73,1.84,1.91,1.97,1.87,1.69c2.02,1.83,3.86,3.61,6.03,5.27.87.66,1.34,1.73,2.51,2.13,1.67.57,1.14,2.1,5.46,4.53.58.33.92,1.1,1.38,1.46l4.3,3.41,3.88,2.93,1.75,1.21c.11.07.44,0,.56-.08.11-.07-.05-.35-.17-.38l-.58-.14-.15-.49c.93-.63,1.84-.51,3.35-1.09.77-.3,1.31-.6,2.17-.65l.54-.03c.11,0-.1-.2-.4-.51-.08.15.02-.03.23-.41l1.4.41c1.22,0,3.74-.97,4.52.68l.65-.63.3-.29c.06-.06-.37-.09-.48-.1l-.58-.04c-.08,0-.07-.09,0-.14l.37-.3,1.42-.79c-.1-.37-.21-.69-.12-.65l.35.15c.06.03.3.15.39.18l1.94.56c.56-.37,1.44-1.12,2.03-1.26,1.39-.33,2.41-.74,3.67-1.18l1.84-.65c-.23.08,2.06-1,2.01-.09,0,.07-.01.3.01-.27l.84-.34c2.6-1.06,5.21-1.56,7.91-2.4l2.46-.76,4.29-1.13c.87-.23,1.46-.38,2.48-.59l-.51,1.28-2.09,1.32c-.71.45-2.8,1.02-3.67,1.13-.41.05-1.21-.35-1.69-.16-.55.22-.89.56-1.26,1.11-.56.82-1.71.44-2.48.62-.53.13-1.35.19-1.73.34l-2.13.88c-.98.4-1.99.27-2.94.48s-2.12.68-3.12.99l-3.24,1c-.49.15-1.13,1.13-1.82.76-1.33-.71-2.09.44-3.08.7s-1.86.5-2.83.83l-5.43,1.82c-.27.09-.87.46-1.17.46l-2.35.02c-.25,0-.78.64-.62.82.13.14.35.31.62.49l1.75,1.18c1.06.72,2.71.73,4.03.94l4.98.77c.86.13,1.94.22,2.83.26,2.23.09,4.29.28,6.5.49l2.62.24,3.59.28,3.17.33c.89.09,2.1.06,2.85.2,2.16.4,4.09.27,6.25.4l6.43.4c4.68.29,3.98.49,8.92.26,1-.05,2.35.54,3.47.55l9.21.05c.28,0,.96-.18,1.23-.2,1.25.26,2.69.44,3.83.05.32-1.98-.97-1.01-.71-2.14.04-.16,1.19-.24,1.31.13l.27.83,4-1.54c2.99-1.15,2.09.02,3.44-.69.17-.09.13-.62-.05-.69l-.57-.22.62-1.24,1.62-.14c.63-.68,1.43-.74,2.25-1.01l2.34-.77c1.17-.38,2.22-.8,3.37-1.15l4.42-1.32c.94-.28,1.84-.69,2.77-1.04,2.52-.94,2.72-.72,5.6-1.61.9-.28,1.86-.36,2.95-.48.31,1.35-2.82.55-3.82,2.41-.04.08.28.65.19.66l-.54.04c-.78.05-1.46.63-1.91,1.19l-2.09.02-2.37.09c-.66.03-1.12.26-1.57.76-.69-.09-1.99-.18-2.11.78l1.14.28c.22.05-.09.8-.35.88l-3.29,1.04c-.7.22-1.49,1.06-2.28,1.21-.54.1-.85.34-1.25.74-.6.59-1.98-.03-2.59.25-2.35,1.1-.8-.73-3.58,1.58l.21.5c.03.08-.32-.05-.41-.06l-1.97-.13c-1.08-.07-2.01.03-2.71,1.06.48.4,5.69.05,5.24-.68.92.74,2.19.53,3.31.55,2.5.05,4.9.12,7.36-.02l3.62-.2,3.17-.34,4.74-.5,3.81-.29,2.68-.18c2.93-.19,5.68-.37,8.6-.77,1.17-.16,2.41-.22,3.52-.44l2.22-.44,2.44-.42,4.45-.75c1.42-.24,2.84-.42,4.26-.78l3.46-.88,5.14-1.17c7.23-1.64,14.3-3.82,20.96-7.04l11.8-5.71,3.75-1.66c.9-.4,2.94-1.28,2.73-2.55l-.73-4.34c-.21-1.26-.48-2.54-.78-3.77l-.67-2.72-.71-2.35-2.21-7.42c-.18-.61-.47-1.34-.68-1.97l-2.32-6.78c-.75-2.19-1.54-4.29-2.47-6.38l-.67-1.49-4.03-8.46c-1.31-2.76-2.54-5.47-4.2-8.05l-1.22-1.89-1-1.65-3.05-4.6c-1.19-1.8-2.27-3.57-3.53-5.35l-1.39-1.97-1.25-1.65-5.43-7.05-1.39-1.76-1.88-2.15c-.38-.44-.74-.84-1.15-1.27l-4.44-4.73c-.25-.27-2.02-2.17-1.69-2.38.11-.07.47-.26.53-.14.04.08.19.29.25.37l2.43,2.33c1.9,1.83,1.45,1.86,3.27,3.21s1.5,1.6,3.48,3.51c1.29,1.25,2.42,2.51,3.57,3.84l3.91,4.54c.77.89,1.49,1.87,2.2,2.86l3.53,4.88,3.83,5.38,2.15,3.29c.5.76.85,1.45,1.33,2.26l2.57,4.33c.35.59.62,1.1,1,1.66,1.22,1.82.99,1.99,2.25,4.22.85,1.5,1.62,3.01,2.37,4.61l.83,1.76,1.35,3.03,4.07,9.36.41,1.5c.32,1.18.9,2.14,1.32,3.29,1.98,5.46,3.65,11.78,4.8,17.65,1.08.03,2.18-.64,3.09-1.37l3.19-2.57c2.53-2.04,5.19-3.91,7.44-6.18l4.71-4.74c2.11-2.13,3.94-4.47,5.93-6.75.61-.69,1.04-1.52,1.58-2.27l3.72-5.15c.53-.73,1.03-1.56,1.49-2.33l3.26-5.39,1.25-3.02,1.03-1.91c.72-1.33,1.16-2.84,1.75-4.25l2.11-5.03.79-2.46c.22-.69.46-1.26.68-2,.72-2.33-.5-.39.69-3.53l1.26-3.32c.26-.68.61-.82.44-1.74s.42-2.23.42-3.19v-1.94c.02-.88-.06-3.53,1.59-3.61Z"/>
  <path d="M288.42,287.58h-12.72c1.81-1.29,3.36-.84,4.29-2.27l1.68-.89c.13-.07.39-.28.49-.37s-.1-.46-.23-.77c1.02-.88,2.14-2.15,3.33-2.88.65-.4,1.1-.59,1.59-1.09,2.08-2.14.74-.34,2.44-2.09.18-.18.83-.37.78-.59l-.19-.93c.94.03,2.33-1.19,2.93-1.99.32-.44,1-.59,1.3-.83l1.62-1.27c3.21-2.51,1.32-1.84,4.16-3.54l-.18-.82c.98-.02,1.63-.45,2.31-1.11.38-.22,1-.54,1.37-.78l2.33-1.54-.5-.43c-.06-.05.12-.16.25-.27l1.85-1.43.27-1.19.8.46c.15.08.42-.48.32-.48l-.63-.36c.29.17,1.08-1.46,3.3-2.37l2.09-.86c-.08.03,2.27-1.5,2.07-1.82l-.51-.83,2.07-1.1c.53-.28,1.08-.67,1.58-1l2.04-1.35,2.69-.59c.3-.07.55-.4.73-.51.79-.45,1.29-.91,1.93-1.49.32-.29,1.03-.58,1.38-1,.4-.48,1.04-.66,1.67-.74l.13-.9c.03-.19.51-.3.67-.43l1.15-2.16c.11.11-.26-.28-.39-.41-.75.13-1.9.54-2.68.56-2.65.08-5.07.24-7.68.48l-2.32.21c-1.61.15-3.22.07-4.87-.09l-8.61-.83-1.95-.11-4.83-.58-8.01-1.13c-7.62-1.07-14.89-3.14-22.13-5.63l-10.54-3.63-4.17-1.63c-4.85-1.9-9.52-3.98-14.17-6.37l-3.08-1.59c-1.07-.55-2.03-1.17-3.13-1.7-1.32-.64-2.59-1.49-3.88-2.28l-5.22-3.19-3.94-2.56-1.84-1.21c-.72-.47-1.27-.97-1.96-1.44l-3.02-2.02-1.67-1.24-1.91-1.4-3.66-2.9-5.12-4.2-2.53-2.24-1.9-1.69-3.21-3.05-1.47-1.41-2.84-2.66-1.25-1.18c-.74-.7-1.21-1.22-1.43-2.26-.04-.18.67-.43.86-.38,2.33.59,5.95,2.89,7.82,4.53l8.94,7.85c3.62,3.18,5.92,4.51,9.58,7.46.36.29.85.63,1.25.91l4.63,3.26,3.57,2.25,1.53,1.09,1.31.89c1.92,1.3,1.66.02,3.51-.24-.04.31-.24.84-.43.85l-.86.06c.33,1.48,1.67,1.81,2.89,2.14l1.58,1.45,3.42,1.65c2.4,1.16,3.12,1.95,3.42,2.09l3.29,1.54,1.63.77,2.92,1.21c1.21.5,2.24,1.12,3.44,1.62l2.42,1,.5-1.54,1.23-.1c.2-.02.33-.51.48-.69.46.08,1.26.28,1.65.24l2.54-.29c0,.18.02.59.01.44-.47.24-.86.53-1.01.77-.07.11.16.32.27.3l.47-.09,2.3-.35-1.15,1c-1.85,1.61-3.19-.15-4.63.3-.57-.22-1.57-.53-2.44-.28,1.47,1.24,4.49,2.33,6.38,2.99l4.93,1.74c2.61.92,2.31.65,4.71,1.51,2.87,1.02,5.79,2,8.79,2.67l5.76,1.29c3.85.86,1.51-1.1,4.59-.56l-2.03.91c1.15.45,2.05.47,3.16.7l2.07.43c1.79.37,5.63.98,7.52,1.17l4.57.48,4.33.49,3.81.32c2.75.23.71-.23,4.79.22.9.1,1.75.16,2.61.12l1.85-.07,6.96-.25,6.31-.16c.3,0,1.01-.3,1.28-.34h1.89c2.47,0,2.38-.95,4.72-2.12,1.32-.66,2.89-1.24,4.23-2,.32-.18.69-.73.99-.78.25-.04.99.35,1.09.11l.36-.85c.07-.16.64-.03.79-.15,3.3-2.49,7.3-3.43,10.87-5.16,1.17-.57,2.17-1.15,3.45-1.59l4.25-1.48,2.74-1.02,3.56-.99c2.88-.8,2.34-.77,3.8-.46.49.1,1.55-.27,1.99-.04,1.83.98,1.26-.2,2.2.04.12.03.49.38.38.45-.88.52-1.7.4-3.77,1.13l-3.52,1.24c-.87.31-1.71.49-2.53.85l-2.02.89c-.72.32-1.38.68-2.09,1.03l-1.57.77c-2.47,1.21-3.1,1.65-6.05,2.9-.91.39-1.67.88-2.58,1.28l-1.79.79c-.69.31-1.19.72-1.79,1.14-1.63,1.14-3.36,2.08-5.07,3.13l-2.68,1.64c.94-.57-8.33,5.37-5.52,3.81l-2.56,1.42c-.7.39-.96.94-1.78,1.19-.64.19-1.1.66-1.58,1.01-.97.7-1.85,1.35-2.73,2.1l-1.58,1.35c-.39.33-1.23.67-1.73,1.07l-1.57,1.26c-1.49,1.19-4.13,2.9-5.6,4.62-.18.21-.64.53-.88.73l-3.26,2.76c-.73.62-1.42,1.33-2.19,1.89l-1.34.98c-.46.8-.91,1.11-1.59,1.65l-1.32,1.05-2.64,2.17-1.28,1.1c-.4.35-.88.77-1.23,1.16-1.59,1.75-1.46.32-3,2.5-.49.69-1.25.94-1.72,1.38-.91.86-1.57,1.82-2.6,2.51-.59.4-1.44.96-1.85,1.39l-1.44,1.54-1.33,1.56c-.15.18-.3.51-.45.51s-.61-.02-.6-.02l-.99,1.29c-.47.61-.89.92-1.46,1.42l-1.31,1.13-1.27,1.35Z"/>
  <path d="M360.9-.42l4.05,5.09c2.17,2.73,4.37,5.31,6.66,7.98l6.42,7.47,6.8,8.08,1.24,1.41,5.79,5.95,1.88,1.97,2.23,2.1,1.78,1.59,4.45,3.94c.54.47,1.12,1,1.7,1.42l7.63,5.57c3.59,2.62,7.32,4.71,11.24,6.76,1.2.63,2.33,1.22,3.56,1.71l2.24.88v4.8c-4.05-1.07-6.83-3.17-10.77-5.08-1.51-.73-2.98-1.41-4.41-2.28l-2.41-1.45c-.69-.42-1.25-1.01-1.89-1.46l-4.94-3.46-2.26-1.62c-.97-.69-1.81-1.51-2.7-2.3l-2.05-1.8c-.44-.39-.82-.77-1.25-1.16l-1.25-1.13c-2.9-2.62-5.59-5.23-8.2-8.14l-2.6-2.91-1.33-1.31-2.86-3.38-1.39-1.73-2.01-2.54-1.07-1.35-2.09-2.71-1.56-1.77-1.44-1.72-1.2-1.44c-.78-.94-1.67-1.82-2.39-2.86-1.09-1.58-2.42-2.84-3.55-4.39l-2.63-3.58-2.18-2.89c-.57-.76-1.15-1.41-1.33-2.26h4.08Z"/>
  <path d="M387.3-.42c2.2,1.28,4.43,2.31,6.77,3.76.87.54,5.11,3.87,5.8,4.54l1.35,1.3,2.06,1.99c1.21,1.16,2.28,2.34,3.4,3.62l2.01,2.28c1.71,1.95,3.33,3.86,4.76,6.04l1.06,1.63c.81,1.24,3.02,3.45,2.53,4.63-.64-.37-1-.86-1.38-1.51-.75-1.27-1.62-2.33-2.52-3.47l-1.18-1.48c-1.43-1.8-2.81-3.54-4.36-5.21l-2.21-2.39-1.19-1.23c-2.58-2.66-5.34-4.98-8.21-7.35l-2.72-2.25-4.37-3.13-2.56-1.78h.96Z"/>
  <path d="M273.07,204.85c1.31-.65,2.35-1.55,3.87-.65,1.2-1.38,2.74-1.77,4.44-1.96.32-.04,1.01-.44,1.29-.29.87.47,1.19,1.57,1.09,1.63l-.64.42-.24-1.31-2.5,1.25c-1.56.78-3.15,1.48-4.78,2.14-.9.37-1.99.08-2.93.9,1.4.59,2.63,1.03,4.04,1.33,1.74.37,3.33.93,5.06,1.4,1.89.51,7.39,1.61,9.17,1.35l2.14-.74,2.87-.95.79-.25c.21-.07-.18-.82-.12-1.03.1-.34.97-.47,1.43-.42l-1.02,1.19c-.18.75,5.07-.82,5.01-.8,1.62-.65,2.94-.92,4.66-.7,1.16.14,2.27-.69,3.5.38-1.3.79-4.04,1-4.75,1.15l-3.69.78c-1.04.22-2.32.44-3.2.79l.09.69c.02.15-.39.33-.55.37l-.56.12c-.14.03-.1-.47-.12-.73-1-.56-2.62.7-4.95.66.27.31.78.63,1.17.62,2.19-.07,4.79.98,8.29,1.11l5.56.22c2.19.09,4.38.17,6.59.04.95-.05,1.94-.22,2.89-.15,1.91.13,3.57-.31,5.42-.54,2.67-.33,5.3-.59,7.99-1.24l3.87-.94c2.54-.62,9.71-3.36,12.05-4.67l3.85-2.15,2.14-1.21c1.09-.61,2.1-1.24,3.1-1.96l3.21-2.32c1.86-1.34,3.52-2.83,5.17-4.41l1.73-1.65c.65-.62,1.28-1.27,1.85-1.97l3.58-4.39,1.82-2.69,1.99-2.38,1.28-1.38c.41-.45,1.18-1.3,1.83-1.01.71.31.04,3.39-.62,4.65-1.21,2.32-2.27,4.81-4.05,6.75l-3.01,3.27c-.49.53-1.18,1.11-1.71,1.59l-2.66,2.42-3.92,3.55c-.71.64-1.66,1.25-2.5,1.8l-1.3.86c-1.73,1.14-3.26,2.36-5.06,3.38-1.08.61-2.13,1.2-3.26,1.74l-3.22,1.55c-3.09,1.48-10.61,4.11-13.99,4.71l-6.95,1.24-2.43.41c-.81.14-1.73.23-2.57.31l-2.43.21-4.1.45c-1.67.18-3.55.29-5.23.05l-5.77-.85-3.23-.36c-3.36-.37-6.62-.7-9.96-1.35l-5.27-1.04c-2.46-.48-4.83-1.18-7.21-1.9l-1.67-.5-3.06-.95-4.22-1.31-4.14-1.37-4.42-1.57-2.47-.91c-.94-.35-1.79-.71-2.69-1.1l-8.08-3.51-1.73-.81c-.58-.27-1.24-.42-1.79-.68l-2.11-1-3.93-1.9-2.32-1.06c-.57-.26-1.29-.53-1.81-.81l-4.26-2.23-1.62-.78c-2.97-1.43-5.71-3.16-8.57-4.81-.71-.41-1.35-.79-1.73-1.52,2.72-1.45,9.89,2.24,12.37,3.59,5.69,3.09,11.38,5.85,17.34,8.34l5.95,2.49,5.44,2.21,2.53,1.01,4.03,1.56c1.38.53,2.79.91,4.19,1.35,1.01.31,1.89.52,2.83-.12.35-.24,1.18-.46,1.63-.69Z"/>
  <path d="M218.04,166.15c-4.42,1.17-5.82,2.03-10.48,2.93-1.5.29-5.82-.05-7.03-.81l.49-.37c.1-.08.39-.37.27-.42l-.77-.31c-.05-.1.46-.42.63-.34l.76.39c1.13.58,2.22-.68,3.15-.94.58.23,1.04.22,1.64.05l1.98-.56,1.89-.51c.99-.27,1.88-.38,2.84-.54.69-.12,1.71-.87,2.42-1.05l3.98-1.02c.99-.25,1.96-.23,2.95-.72,1.1-.55,2.32-.78,3.43-1.21,1.65-.64,3.25-1.24,4.93-1.79l2.72-.88,2.26-.81,6.94-1.97,3.04-.84,3.77-1.19,1.9-.6c1.03-.33,1.83-.51,2.82-.91.61-.25,1.52-.46,2.22-.61l1.99-.41,4.02-1.04,4.23-1.33c.78-.24,2.34-.67,3.09-.54l1.44.25c.23.04.93.08.92-.12l-.1-1.11,2.07-.17c1.74-1.3,3.89-1.78,6.01-1.15l.64-1.09c.62-.34,4.82-1.71,4.03-.02-.18.38.32-.23,1.41.53.39.27-3.16,1.27-2.48,1.16-1.04.18-2.14.22-3.09.8l-1.78,1.08c-.42.26-1.42.53-1.96.69l-3.51,1.07c-.83.25-1.42.5-2.29.98-.42.24-1.19-.42-1.42-.88l-1.66.85-1.62.81c-1,.5-2.09.61-3.12.97l-1.54.54-3.7,1.07c-1.16.34-2.68.04-3.47,1.21l-2.1.15-2.14.88c-.44.18-1.15.15-1.71.05-2.06,1.01-2.75,1.78-4.94.96l.37.69c.06.11,0,.36-.12.36h-.65c-.37.03-1.16.34-1.47.58-.6.67-1.54.98-2.15.24l-.44.35c-.08.06-.29-.18-.41-.28-.93,1.5-4.23,1.5-4.89,1.77l-4.16,1.73-5.82,1.91c-1.06.35-2.15.89-3.33.4-.69.76-1.88.82-2.91,1.09ZM265.12,150.92l1.38-.24c-.71-.88-1.09-.58-1.74-.29l-1.09.32c-.12.04-.51.35-.42.44l.35.35c.14.14.55-.42,1.52-.58Z"/>
  <path d="M169.68,144.32c-.81-.38,1.14-2.08,3.48-1.42.91.26,1.97-.9,2.7-1.44,2.88-.64,3.96-.61,6.97-1.73l1.16.2c2.83-1.17,7.11-1.98,10.17-2.51,2.44-1.75,6.4-1.58,8.87-2.33l2.78-.85c3.51-1.07,3.76-1.66,6.98-1.79.43-.15,1.27-.68,1.71-.78l2.57-.57,5.13-1.19c.87-.2,1.76-.07,2.58.21,2.13-1.52,5.97-3.23,8.29-2.34.7-.48,2.06-1.28,2.83-1.23.11,0,.21.71.31.66l.55-.25c.68-.31,1.27-.77,1.83-1.35l4.07-.7,1.46-.25c1.38-1.02,1.54-.07,4.04-1.24,4.25-1.99,2.38-.15,6.53-1.59,1.02-.35,1.93-.69,3.03-.79,3.05-.28,1.49-.7,3.44-.77.09,0,.12.22.04.25l-.41.19c-.85.4-1.49.79-2.28,1.35l-1.66.49c-.76.23-2.12.15-2.73.59-.81.58-1.44.81-2.26.61-.28.3-.67.54-1.1.62l-3.02.55c-.12.02-.46-.24-.55-.32-.12-.11-.45.45-.66.5l-5.12,1.44-3.42,1.08-1.74.49c-.69.19-2.07-.09-2.7.18l-2.4,1.01c-4.76,2.01-3.99.38-7.09,1.97-1.52.78-3.33.82-5,1.2-.75.17-1.79.75-2.39.83-6.42.88-6.95,2.12-10.31,2.73-1.1.2-2.05.07-2.95.71-.4.28-1.24.83-1.7.91l-2.42.44-4.03.85-9.31,2.16-4.41,1.28-5.45,1.15c-.98.21-2.18,1.01-3.14,1l-2.59-.03c-.18,0-.55-.16-.68-.22Z"/>
  <path d="M243.36,169.75c2.83-2.84,1.78,1.51,5.03.12l-1.54-.96,1.74-1.35c.7-.55,2.2-.26,3.03-.56,1.86-.66,3.51-1.33,5.53-1.53.05,1.89-3.28-.04-1.89,1.86.09.13-.26.41-.42.39-3.03-.3-1.14.73-3.88.18l-1.44.69.08,2.49c0,.27.95.61,1.07.61-.04-.31-.17-.63-.06-.75l.53-.57.53-.57c.15-.16.67.17.91.24l.85.27c.18.06.19.46.31,1l2.38-.93c-.63-.42-.81-.42-1.76-.68l1.91-.99-.75-.57c-.18-.13.24-.78.45-.85.3-.09.81-.17,1.04-.11.27.08.4.59.57,1.19l1.44-.46c1.11-.36,2.27-.57,3.45-.65-.04-.48.11-1.53.49-1.76l1.68.45-.23.9,2.59-.47-.19-.73c-.05-.17.47-.18.77-.2l2.22-1.86,1.65,1.3.73-1.11v1.06s1.88.28,1.88.28c-.52.87-1.22.81-1.98.57l-1.07.55c-.02.37-.05.78-.21.9-.2.15-.81.02-1.16-.05-1.23,1.74-1.05.33-3.88,1.65-.71.33-1.26.48-2,.68l-2.64.72c-.58.16-1.16.02-1.77-.12-.99.18-2.11,1.43-3.2,1.42-2.84-.03-1.25,1.92-3.96.37l-.39.66c-.4.69-1.71-1.19-3.66-.33l.2-1.08c.13-.72-1.23.45-2.63-.71-.45-.37-1.37.02-1.73.47l1.49.47c-.28.2-.62.41-.76.32l-.6-.39c-.25.21-.72.66-.94.56-.65-.29-1.8-1.01-2.33-1.49,1.04.01,1.79.17,2.51-.56ZM270.36,165.65c.26-.05.37-1.03.13-.98-1.02.21-1.91.69-2.49,1.45l2.36-.47Z"/>
  <path d="M300.34,171.73c-.17.09-.82.12-.79-.03s.08-.35.15-.65c.04-.16,0-.65.16-.61,2.15.51-.09.38,3.1.24.11-.41.19-.88.34-1.08s.96,0,1.25-.07l2.38-.7c.31-.09.74-.24.97-.36s.1-.7.02-1.19l2.06-.39-.19.83c-.03.14.47.09.61.12s.07-.68.17-.8c.97-1.07,2.14-.09,4.82-1.3l1.48-.67-.02-.9c4.5-1.69,3.04-.48,4.33-.62,1-.1,1.94-1.07,3.09-.31l1.4-.76,2.68.78c-.76,1.77-1.02.38-4.49,2.33-3.84,2.15-2.42.16-4.52,2.12l-.63-.34c-.17-.09-.52.35-.66.53l-.49.64c-.13.17-.48-.5-.7-.82l-1.56.82-1.19-1.01c.02.63.25.9.71,1.42l-1.95.22c-.83.1-1.5.32-2.31.59-1.23.42-2.63.57-3.92.93l-2.3.63c-1.01.27-2.03.73-2.95-.17l-1.04.58Z"/>
  <path d="M180.98,151.42l1.93-.32,2.19-.8c.59-.22,1.23-.32,1.83-.48l4.43-1.14,2.43-.49,3.72-.87c.74-.17,1.77-1.17,2.58-1.22l1.98-.13c.64-.04,1.1-.07,1.6-.48l1.12-.39c.3-.11.87-.41,1.13-.3s.62.46.83.67l.56-.58c.13-.14.51.26.73.38,2.46-1.89,3.31-1.11,5.38-1.83,1.43-.49,6.71-2.08,8.02-1.83-1.54,1.31-3.75,1.1-4.59,1.64-.92.6-1.66.8-2.8.89l-1.36.97c-1.39-.12-2.78.15-4.06.71l-1.89.82c-2.76,1.19-1.23-.09-5.62,1.07-1.2.32-2.66.35-3.68,1.13-1.99,1.52-5.99,1.97-8.5,2.64-1.27.34-2.48.93-3.79,1.19l-3.2.65c-.42.08-1.53.1-1.48-.31.02-.16.48-.45.57-.59s.02-.39-.05-1Z"/>
  <path d="M345.94,178.14c.79-.7,2.94-.96,3.5-1.29l.8-.47c.2-.12.37.77.54.95.72.76,2.73.34,3.33-.62l1.47.46,1.94-1.22c.28-.17.76-.66,1.01-.83s.85.24,1.29.32c1.08.2,1.23-.3,3.52-.56.22-.02.16-.85.05-.82-.73.28-1.49.41-1.83-.22.6-1.47,2.77-.99,3.79-.86l-.86.51c-.15.09.34.59.5.53l2.29-.8c.19-.07.29-.63.13-.74l-.91-.66c.66-.45,1.5-.66,2.29-.73l.45.78c1.6-.95,1.58.29,2.35-.44.1-.09.1-.46-.03-.48l-.89-.11c1.71-1.89,2.98-.27,4.24-.88.12-.06.46.51.37.61-.53.57-3.19,2.18-4.13,1.94-.03.03-.1.92-.12,1.24-.62,1.19-2.66.92-3.89,1.1-.93.14-1.96.9-2.86.87l-2.53-.08c-.83.88-1.81,1.13-3.01,1.11l-2,.68-4.98,1.89c-.96-.46-2.59-.3-3-.02-.23.16-.37.77-.53,1.11-1.77.78-3.63,1.38-5.62,1.86l.72-.68c.13-.13.09-.31.14-.87.19-.5,2.67.33,2.24-.25l-.5-.68c1.25-.15,2.06-.27,2.73-1.46l-2.03-.17Z"/>
  <path d="M310.16,159.75c-.53.31-1.68.5-2.25.69-.46.15-1.62,1.32-2.03.57-.13-.24.07-.6.33-1.36l-1.64.57-.7,2.4-2.13-.7.76-1.8,2.09-1.06c1.04-.53,2.48-.41,3.41-.78,1.05-.42,1.99-.85,3.11-1.18l3.17-.93c1.3-.38,2.58-1.21,3.94-1.47l2.4-.46c.15-.03.56-.05.69-.04s.15.39.1.48c-.79.22-1.55.65-1.78,1.25l.51.41s.37,1.73-.14,1.93c-.34.13-1.07.2-1.32.18l.35-.68c.07-.14-.23-.31-.38-.45l1.13-.49-1.01-.83c-.38.48-.67,1.07-.99,1.05-.41-.02-1.02-.27-1.75-.52l.8,1.42c-1.62.95-3.01-.36-3.4,1.62-1.2-.79-2.08-.51-3.28.19Z"/>
  <path d="M381.34,165.95c-.5.92-2.64,3.04-3.83,1.8.11-3.55-.93-6.71,2.22-8.5,1.03-.58,2-1.12,3.38-1.43.78,2.23.33,4.28-.75,6.25l-1.02,1.87Z"/>
  <path d="M318.07,211.78c-4.59-.41-7.19,2.19-8.06.53-.04-.07.18-.53.25-.5l.55.23c.44.19,1.29-.19,1.87-.53.73-.42,2-.36,2.69-.68.76-.35,1.06-.56,1.95-.4.41.07,1.38.11,1.76-.06.45-.2,2.29-1.43,3.54-.81l1.89-.97,1.63,1.75,3.33-.88c1.1-.29,1.82-.48,2.61-1.37.14-.16.43-.43.53-.59.12-.2-.48-.52-.84-.64-.67.04-.43-.28,0-.42,4.59,1.27,2.36-2.28,5.49-1.8l-1.04,1.32.68.64c.14.13-1.27,1.24-1.51,1.06l-.92-.71c-.27-.21.09.76-.15.51l-.41-.43-.89.77.98.56c.13.08.34.37.46.45.57.44,2.17-1.66,3.29-.18-.81.28-1.32.47-1.98.76-3.25,1.4-2.21-.36-3.74.91-.34.28-1.35.15-1.86.29-2.59.7-3.31,1.74-5.09-.34l-2.81.42c-3.34.5-2.53,1.25-4.21,1.1Z"/>
  <path d="M182.6,148.6c-2.07.88-1.71.29-4.22,1.17-.77.27-1.97.25-2.22-.3-.08-.18.19-.65.32-.61l.64.22,1.05-.43.89.18c.22.04.49-.48.59-.7l.3-.63c.08-.18.58-.04.93.11.29.13.91-.42,1.25-.46,2.09-.23,4.57-.88,6.73-1.51.56-.16,1.31,0,1.94-.3,1.23-.58,2.63-.69,3.98-1.19.43-.16.92-.13,1.5-.13l2.21-.63,4.17-1.28c.23-.07.73-.57.95-.49.27.1.54.55.73.9l.89.03c-.42.9-1.32.58-1.96.91-1.05.54-1.71,1.32-4.11.91-.42.11-1.26.46-1.69.55l-2.02.41c-1.11.23-2.06.56-3.17.92l-2.34.75-3.07.8-1.71.47c-.63.18-1.94.07-2.54.33Z"/>
  <path d="M188.8,160.06c.41-.6.85-.8,1.44-.93l2.65-.59c.51-.11,1.38-.56,1.98-.77,2.36-.82,3.17-.78,5.82-1.84.99-.4,2.08-.65,3.17-.87,1.77-.36,3.43-.81,5.18-1.28l3.1-.84c1.03-.28,2.33-.37,3.47-.53l.02-.48c0-.15.59-.17.58,0-.02.26-.07.81-.13,1.01s-.44.32-.78.39l-2.42.46c-1.08.2-2.13.74-3.12,1.17l-1.86.8c-1.27.54-2.53.71-3.94.88-2.5.29-4.8,1.31-7.22,2.06l-1.86.07c-1.69.96-4.37,1.71-6.07,1.31Z"/>
  <path d="M235.01,120.37l-1.27.44c-.47,1.18-1.39,1.23-2.45,1.29-1.22.07-2.54.06-3.64-.53l-1.92.19c-.21.02-.19-.74.03-.78,1.03-.21,2.61-.95,3.6-1.04.93-.09,1.72.13,2.53-.15l2.55-.88,3.4-.98c.84-.24,1.65-.67,2.55-.51,1.34.24,2.32-.33,3.3-1.08.63-.23,1.98-.08,2.65,0,.19-1.69,3.13-1.65,4.28-1.44.37.07.41,1.06.29,1.27l-.82-.47c-.2-.11-.47.48-.6.81-2.5.96-1.48.72-3.98.43-.9.36-1.53.6-2.55.19l-1.53,1.3c-.05.26.19.98-.04,1.1-1.2.66-.5-.22-3.04.53l-.07-.57c-.02-.15-.56-.12-.67-.02l-1.62,1.41c-.07.06-.46.18-.56.17-.15,0-.22-.23-.44-.68Z"/>
  <path d="M296.65,185.22c-3.35.85-.63-1.55-5.5-.17-.15-.16-.37-.39-.26-.44.16-.07.52-.25.65-.28l2.53-.56c.22-.05.56-.57.78-.54l.98.15c.45-.49.98-.66,1.68-.78l2.63-.46c1.7-.3,3.35-.35,5.02-.5l4.42-.41c-.45.73-1.13,1.01-1.89,1.06-1.5.1-2.46,1-3.78,1.54-.8.32-2.13.37-3.11.67-.73.22-1.72.12-2.41.29l-1.75.44Z"/>
  <path d="M197.11,154.57c-2.3-.31-1.79.43-4.97,1.14-.68.15-1.17.22-1.71.55-1.31.79-3.14.44-4.58.66-.34.05-1.14.51-1.37.27s-.23-1.01-.13-1.22c1.07.84,1.13-.53,2.34-.45.92.06,1.93-.28,2.62-.87.96-.83,2.13.83,3.27-1.95.12.01.66.34.96.55.95.65,1.93-.59,2.12-1.39.67-.04,1.4-.19,2.15-.51.03-.13.15.34.05.44l-.38.36c.54.3,1.12.72,1.51.75s1.06-.65,1.33-.95c.15-.16.77-.04.99-.1l1.39-.35c-2.42,1.94.34.77-2.45,1.87l-1.44.57c-.44.17-1.36.02-1.83.04l.44.33s-.23.22-.31.3Z"/>
  <path d="M315.74,183.6l-3.29-.22c-.19-.01-.44-.67-.28-.78s.5-.25.76-.32l2.86-.8c.84-.24,1.72-.27,2.58-.79.53-.32,1.22-.18,1.69-.04,1.16-.42,2.54-.73,3.75-1l3.33-.74c1.12-.25,2.12-.68,3.3-.49l-2.76,1.29c-.88.41-1.75.73-2.65,1l-3.31,1.01c-.6.18-1.12.54-1.69,1l-.77-.72-.36.59c-.09.15-.63-.05-.8.02l-2.36.99Z"/>
  <path d="M159.46,133.67c-.55-.37.93-.99.33-1.05-.14-.01-.6-.06-.72,0l-1.15.47c.01-.38.12-.67,0-.78l-.67-.61c3.32-1.26,2.84-.4,5.93-1.48.76-.27,1.71.02,2.32.4,1.38-1.7,2.16.07,3.61-2.1l2.59.43.96-.57c.42.12,1.05.32,1.49.39l1.46.23c-.58,1.16-1.77,1.44-2.69.95-.35-.19-.94-.58-1.25-.53-.36.06-.95.47-1.32.75l.45.71c-2.03-.69-2.03-.66-4.39.17-1.52.54-3.6,1.2-5.2,1.1-.39.43-.94,1.16-1.75,1.53Z"/>
  <path d="M240.11,183.87l-1.72-.98-.47,1.12c-.18.42-2.8.51-2.86.5l-3.44-.18c-.16,0-.54-.28-.68-.32s-.5.35-.65.33l-2.04-.35,1.67-.87-.78-.35c-.16-.07.36-.5.55-.53l2.05-.28c.8.61,1.49.9,2.46.8l3.21-.34,4.76.33c.09,0,.5.29.42.32l-.81.29.83.59c.35-.7.76-1.04,1.31-1.06.9-.03.98.74.77,1.48l-1.8-.39c-.92.62-1.78.44-2.76-.12Z"/>
  <path d="M259.47,165.93c-.08-.13-.63-.34-.55-.43.11-.12.39-.41.54-.46l2.25-.8,2.33-.82c1.14-.4,2.46-.45,3.47-1.15.6-.42,1.31-.41,1.92-.32,1.6-.83,3.38-1.84,5.29-1.79.92.02,1.34-.05,1.82-1.01.27.02.63.52.65.89.04.56-.85.44-1.21.64-1.93,1.05-3.83,1.82-5.94,2.04-.37.2-1.02.5-1.5.72-3.47,1.51-2.12-.7-3.41.86l-2.4.38c-.96,1.13-2.4-.19-2.64,1.42-.02.12-.29.41-.34.33l-.28-.48Z"/>
  <path d="M198.07,161.38l-3.88.54c-.21.05-.65.43-.83.31l-.75-.49c.92-.69,1.46-.78,2.43-.69l1.89-.98c1.32-.69,3.41-1.11,4.91-1.26,2.8-.28,3.39-1.45,5.91-.74-.87.93-3.15,1.86-3.72.98-.2.3-.66.81-.97.9s-.84-.51-1.07-.86c-.77,1.39-2.24,2.05-3.94,2.29Z"/>
  <path d="M279.43,163.15l-1.16,1.01c-1.08.93-2.27,1.31-3.94.7.42-1.48,2.8-.49,2.72-1.52-.03-.43-.01-.92.18-1.09.22-.2.78-.12,1.1.09.67.43,2.23.53,2.65-.24.28-.51.28-1.6,1.06-1.81.51-.14,1.65.07,2.06.27l1.13,1.7-.84.11c-.5.41-1.15.92-1.59,1.19l-.73-.53c-.14-.1-.52.25-.68.31-.45-.22-1.57-.51-1.94-.19Z"/>
  <path d="M206.88,131.44c-1.62-.09-3.62,1.67-3.42,1l.18-.6-1.64.13c.32-.6,2.72-1.59,3.88-1.81l2.65-.51c-.06.01,1.39.29,3.21-.81.9-.54,2.31-.51,3.28-.16-2.6,1.26-.72,1.74-3.44,1.32-.84.66-4.32,2.26-4.97.49-.17.2-.34.39-.27.45l.54.51Z"/>
  <path d="M289.16,144.3c-.32-.41-.45-.75-.64-.73-.21.02-.8.09-.78.09.08.54.16.94-.04,1.05-.27.15-.87-.04-1.09-.25l-1.29-1.26c.62-.18,1.02-.29,1.59-.42l2.17-.5c1.38-.32,5.06-2.36,4.88-.78-.05.47-.45.73-.91,1-1.69,1-2.67,2.13-3.9,1.8Z"/>
  <path d="M229.16,167.88l.5-.6c.1-.12.08-.35.11-.64l1.04-.79,3-.96,2.75-.93c.76-.26,1.36-.48,2.01.38l.41-1.01,2.43-.32c.59.93-2.42,2.04-2.97,1.87l-1.05-.31c-.2-.06-.37.38-.61.67-.32-.06-.94-.29-1.32-.46l-1.75,1.6c-.72.66-2.13.73-3.05,1.02l-1.48.48Z"/>
  <path d="M242.29,152.1c-1.05.07-3.43,1.6-4.26.74,2.39-1.39,4.65-2.09,7.14-2.81.77-.22.9,1.17,1.69.84.18-.08.18-.55.14-.91-.03-.27.57-.33.95-.32l.99.03c.22,0,.14.77.11,1-.03.27-.69.18-.95.27l-2.61.85c-1,.33-2.08.23-3.19.3Z"/>
  <path d="M195.64,140.87c3.16-2.24,1.91-.8,3.65-1.4l2.48-.86c.11-.04.29-.51.41-.49,3.28.53,3.16-.75,5.42-.03-1.27.6-2.5.92-3.84,1.3l-3.92,1.08-2.25.63c-.69.19-1.25.65-1.95-.23Z"/>
  <path d="M301.5,252.57l-3.11.78c-3.08.77-3.05,1.75-4.1.23l4.29-1.26c.32-.1.95-.45,1.25-.42.24.02.72.45.92.35.82-.4,1.16-.9,1.23-.85l.49.4.93-1.57,1.86-.46c.43-.11,1.47.16,1.9.31l.49.64c.12.16.66-.22.88-.19l3.33.51c-.69.28-1.73.86-2.36.91l-3.63.28c.53-.49,1.05-.88,1.73-1.34l-2.53-.51c.02,1.29-1.6,1.68-2.43,1.67-.26,0-.88.44-1.14.51Z"/>
  <path d="M297.5,251.19l-4.17,1.02c-.35-2.62,1.71-1.94,3.21-3.18.42.26,3.79-.55,3.35,1.13-.17.66-1.67.85-2.39,1.03Z"/>
  <path d="M368.14,167.35c-.32-.3-.02-1.15.28-1.34.43-.29,1.11.07,1.27.62l1.25-.69.26-1.15c.07-.29.85-.29,1.21-.32l1.5-.11c.07,0,.33-.38.33-.37,0,0,.23.2.27.26.07.08-.04.12-.34.39-.32.29-.46,1.17-.62,1.69-.38,1.17-1.88,1-2.82.9-.79-.08-1.74.91-2.58.12Z"/>
  <path d="M224.07,181.7c-2.72,1.66-2.7,2.02-5.32.41l-2.42-1.48c.99-.94,2.36.8,4.85.19l2.89.88Z"/>
  <path d="M261.8,185.11l-1.23-1c-.78.5-1.5.97-2.41,1.07-.24.03-.8-.47-.77-.7.08-.59.9-.34,2.3-.64s2.12-.87,2.28-.5l.46,1.04c.11.26.61-.49.81-.76,1.5-.47,2.12-.02,4.42-.17.2-.01.08.77.03.89-1.89,0-3.79.25-5.9.77Z"/>
  <path d="M274.09,230.3l-.79-1.45,1.44-.61.42.76c.08.14.5-.23.7-.35,1.74-1.05.68,1.18,4.26-.55l2.12.3c-.41.31-1.03.68-1.51.8l-2.75.64-3.89.46Z"/>
  <path d="M312.04,205.47l-4.82.54c-.19.02-.63-.16-.72-.27s-.08-.43.02-.52c.88-.76.35.46,2.56-.39s4.48-1.05,6.86-.94c-.56.58-.99.67-1.53.99-.79.46-1.4.48-2.38.59Z"/>
  <path d="M365.27,151.53l-2.26.89c-.23.09-.75-.32-.72-.55.22-1.3,1.43-.61,4.47-2.17.54-.28,1.08-.31,1.57-.26v-.95s1.2-.32,1.58.41c.13.25-.29.8-.56.7-.7-.27-.77.72-1.08.84l-3.01,1.08Z"/>
  <path d="M172.8,125.73l-.88.28-1.23-1.81,1.53-.22c.49-.07,1.44-.6,1.87-.75"/>
  <path d="M237.38,217.61l-.37-.24c-.78-.51,2.98-.78,3.9-1.47,2.93.15,2.93-1.13,3.76-.27l-3.49,1.67c-1.13.54-2.56,1.12-3.8.31Z"/>
  <path d="M229.88,171.19c-.42-.39-1.03-1.05-1.43-1.51l1.5-.93,1.47.58c.03-.55,0-.78.18-.9,1.03-.66.9.6,2.27,1.05.08,1.78-2.49-.12-3.99,1.69Z"/>
  <path d="M292.37,208.48c-.99.37-1.82,1.15-2.96.37,3.3-1.23.89-2.33,5.05-2.01l.65-.6c.16-.15.59.31.83.5l1.7-.46c-.35,1.1-1.29.71-1.96.96l-3.29,1.24Z"/>
  <path d="M333.09,180.43c-.68.25-1.24.32-1.96-.12l.89-1.05c.22-.27,1.15,0,1.54.03,1.22-.64,2.88-1.18,4.25-1.08l.72-.78c.18-.2.91.3,1.13.53l-2.54,1.01-4.02,1.46Z"/>
  <path d="M228.65,208.45c-.69.4-4.16,1.94-4.35,1.27l-.29-1.05c-.21.18-.86.51-1.16.43s-.76-.81-.62-.87c.69.06,1.21.08,1.44-.14.82-.83,1.67-.43,2.22.29.18-.03.58-.26.95-.49l1.82.56Z"/>
  <path d="M247.41,136.5l-3.36.76c-.4.09-1.06.33-1.31.1-.32-.29-.7-1-.57-1.16l1.74-.44c1.39-.35,2.71-.64,4.08.04-.22.36-.41.61-.57.7Z"/>
  <path d="M331.36,162.72c-1.13.33-1.82,1.54-3.06.19,1.09-.64,2.09-.92,3.21-1.29l2.28-.74,1.67-.49-.97,1.61c-.46.06-1,.09-1.32.19l-1.81.53Z"/>
  <path d="M286.26,159.79c.67-.45,2.06-.78,3.02-.88.05.11.13.68.02.69l-.62.06,1.33,1.32c.23.23.98-.06,1.3-.24l-1.19-.45c.56-.25.93-.53,1.31-1.02.35-.27.4-.34-.04-.19l-.72-.37c-.12-.06-.12-.41-.02-.5s.52-.3.68-.28l2.17.23-.87.84.67.24c.13.05.17.59.05.66l-2.49,1.51c-2.1-.74-4.64.79-4.71.67l-.35-.62c-.08-.15.44-.33.6-.42l.6-.35c.16-.09-.25-.48-.75-.89Z"/>
  <path d="M252.17,135.09c-2.76-.59-2.06.95-4.01.12,2.16-1.67,1.74-.73,4.29-1.62l1.66-.58,1.21.94-1.94.33-1.21.8Z"/>
  <path d="M285.67,206.23l-2.3.36c.07-.66.75-1.34,1.69-.99.37.14.95-.09,1.37-.15l3.58-.54c.32-.57.89-.85,1.49-.67l.54.16c.1.03-.19.48-.29.51l-4.32,1.23c-.4.11-1.35.02-1.77.09Z"/>
  <path d="M230.46,214.03c-.13-.08.23-.6.37-.54l.72.33,2.98-1.8c.34-.21.92-.17,1.15.03.34.3.55,1.06.15,1.36-2.8-1.22-2.53,2.38-5.37.62Z"/>
  <path d="M327.32,155.82l-.63-.2c-.38-.12.45-1.42.02-1.67l-1.16-.69c.53-.84,1.8-1,2.77-.7l-.7,1.79c.34.38.59.68.69.9.11.27-.69.66-.98.57Z"/>
  <path d="M295.26,231.94c-.4.16-6.01,2.24-5.65.89.4-.6,1.58-.41,2.19-.33.92-.63,2.06-1.02,3.31-1.2.7-.1,1.45-.63,2.11-.16l-1.95.8Z"/>
  <path d="M353.5,158.95l.12-.81c.02-.16-.41-.34-.64-.5l1.08-.76c2.48,1.43,2.85-2.28,4.4-.92-.57.56-1.25,1.01-1.98,1.47l-.97.62-2.01.9Z"/>
  <path d="M221.55,151.32c-.04.24-5.08,2.03-4.79,1.08.07-1,1.24-.78,1.72-1.04.75-.4,1.31-.98,2.16-.71.09,0,.41-.12.46-.05l.45.73Z"/>
  <path d="M289.94,170.34c-.25.56-1.3,1.34-1.97,1.34-.32-.54-.6-.98-1.12-1.53-.12-.24.42-1.1.79-1.38.45-.34,1.42.02,1.74.32l-1.43,1.27,2-.02Z"/>
  <path d="M283.43,172.56c-.19-.06-.44-.88-.5-.91l-2.59.11c.83-.33,1.66-.61,2.26-.68l1.78-.21-.91.96c1.57.59,2.75-1.56,3.47-.26-.78.78-2.65,1.25-3.51.99Z"/>
  <path d="M272.82,228.73c-.19,2.12-2.92,2.12-4.54,1.53l1.29-.43c1.01-.59,2.04-1.06,3.24-1.11Z"/>
  <path d="M222.47,127.59c-.28.18-.67.12-1.05-.23.99-.78,2.2-.94,3.45-1.29.82-.23,1.31-1.46,2.4-.56-2.11,1.55-2.81.8-4.8,2.07Z"/>
  <path d="M209.9,141.56c-.14.07-.73-.14-.87-.14-.19,0-.23.32-.41.75l-.31-.77,2.76-1.22c.56-.25,1.02-.4,2.05-.75l-.81,1.41c-.75-.03-1.85.46-2.4.72Z"/>
  <path d="M163.88,181.14l-1.57,1.47-.58-2.72c-.04-.2.38-.83.5-.67l.58.8c.22.3.82.82,1.07,1.11Z"/>
  <path d="M305.2,206.03c-.86.43-4.35,1.61-5.42,1.62l1.58-1.32c.29-.24,1-.26,1.47-.27l2.36-.03Z"/>
  <path d="M248.33,222.77c.26-.39.83-1.08,1.24-1.13l2.72-.28c.81,1.02-3.12,1.53-3.96,1.41Z"/>
  <path d="M229.04,212.61l-.06-1.25c1.28.17,3.58-1.96,3.16.06l-3.1,1.19Z"/>
  <path d="M310.14,184.3c-.4-.01-1.13-.54-1.57-.77.03-.15.3-.62.51-.73s.73-.04,1.02,0l1.89.32c-.44.42-1.2,1.19-1.84,1.17Z"/>
  <path d="M277.87,160.02c-.21.04-.18-.82-.01-.97.19-.16.57-.22.97-.29l1.47-.29.87-.44c.19-.1.59.24.91.48l-4.2,1.51Z"/>
  <path d="M281.27,208.45c-.26.06-.9-.46-.84-.69.22-.83.56-.37,2.57-.81.32-.07.8.92.48.99l-2.21.51Z"/>
  <path d="M306.22,238.03l-.02-1.21c2.45-.55,1.76-1.95,3.16-.42l-3.14,1.63Z"/>
  <path d="M237.19,169.67l-.89-.49,1.09-.98.05-.69c.01-.16.58-.14.7-.04l.98.85-1.93,1.35Z"/>
  <path d="M328.26,208.65l-2.7.47c.08-.41.66-1.18,1.01-1.19l2.1-.04c.13,0,.6.27.55.39l-.22.5c-.05.12-.59-.16-.75-.13Z"/>
  <path d="M292.71,168c-1.07.44-2.74.71-3.11.19l3.01-.94c.41-.13,1.24-.02,2.01-.03l-1.91.78Z"/>
  <path d="M266.29,138.9c-.22.09-.74.1-.93.03s-.3-.71-.12-.78l1.76-.61c.32-.11.61-.18.79-.12s.31.7.13.78l-1.63.71Z"/>
  <path d="M366.34,149.61c.2-.16-3.37.53-3.43.39l1.89-1.2,1.78-.14c.12.1-.03.78-.24.95Z"/>
  <path d="M337.49,160.79c-.21.11-1.08.16-1.06-.03l.08-.87c.02-.24.64-.08.96-.07.68.04,1.23-.98,2.02-.09l-1.99,1.06Z"/>
  <path d="M342.82,206.12c-.99.79-1.91,1.21-2.67,1.31-.19.03-.41-.58-.27-.72.58-.53,2.15-1.08,2.93-.6Z"/>
  <path d="M297.75,140.38c-.66.23-1.03.39-1.73.02l1-.74c.65-.48,1.45-.37,2,.27l-1.27.45Z"/>
  <path d="M251.36,142.93l-2.41-.73,2.31-.67c.33-.04.5,1.14.09,1.4Z"/>
  <path d="M343.37,205.75c-.19-.07-.2-.6-.03-.64s.59,0,.75.11l.41.28c.1.07.36-.21.32-.33l-.22-.65,1.65.62c-.58.67-1.99.93-2.87.61Z"/>
  <path d="M300.16,234.66c-.71.75-1.92,1.09-3.14,1.07.69-.92,1.74-1.26,3.14-1.07Z"/>
  <path d="M219.85,168.38l-2.25-.14c.52-.87,3.35-.69,3.48-.14-.41.1-1,.29-1.23.28Z"/>
  <path d="M255.91,159.32l-2.6.6c.28-1,.98-1.17,2.13-1.33l.47.73Z"/>
  <path d="M295.87,233.96l-2.26,1.19c-.16-.39-.12-.93.03-1.38l2.22.19Z"/>
  <path d="M275.89,156.88c-.31.52-1.23.88-1.88.87,0-.48.23-.89.54-1.06l.78-.43c.15-.08.66.45.55.63Z"/>
  <path d="M226.21,136.56c-1.69-.95-1.21.1-3.14.08.45-1.16,1.58-.93,2.47-.8l.6.09c.15.02.09.48.06.64Z"/>
  <path d="M260.92,161.01c-.55.46-.95.76-1.21.82-.31.08-.85-.62-.87-1.12.65-.13,1.36.01,2.08.3Z"/>
  <path d="M340.69,180.32c-.62.84-1.47.93-2.33.48l1.91-.95c.23-.11.5.21.41.47Z"/>
  <path d="M220.26,170.19c-1.41-.35,4.21-1.96,3.5-1.23l-3.5,1.23Z"/>
  <path d="M246.24,218.92l-1.92.76c-.16.06-.72-.53-.58-.62.47-.32,1.14-.5,2.5-.14Z"/>
  <path d="M352.27,176.14c-.11.04-.61.02-.73.02s.08-.56.2-.55l.64.05,1.97-.64c.08-.03.62.06.56.1s-.31.28-.39.3l-2.25.72Z"/>
  <path d="M418.31,100c-.6.11-1.28.14-1.69.15l1.44-1.43c.32-.15.68,1.21.24,1.28Z"/>
  <path d="M299.63,157.68c-.88.03-1.63-.1-2.49-.31.77-.88,1.89-.8,2.49.31Z"/>
  <path d="M227.56,166.07c-.63.72-1.4.96-2.34.69.46-.68,1.35-1.08,2.34-.69Z"/>
  <path class="cls-1" d="M265.12,150.92c-.97.17-1.37.72-1.52.58l-.35-.35c-.09-.09.3-.41.42-.44l1.09-.32c.65-.29,1.03-.6,1.74.29l-1.38.24Z"/>
  <path class="cls-1" d="M270.36,165.65l-2.36.47c.58-.75,1.47-1.24,2.49-1.45.24-.05.14.93-.13.98Z"/>
</svg>