<?xml version="1.0" encoding="UTF-8"?>
<svg id="Layer_2" data-name="Layer 2" xmlns="http://www.w3.org/2000/svg" viewBox="0 0 432 288">
  <path d="M240.74,210.2c-.93-.34-.66-1.57-.75-2.37-.16-1.57-1.4-3.03-1.45-4.55-.05-1.31-.45-1.72-1.2-2.64-1.28-1.6-2.41-3.4-4.43-4.21-.76-1.32-1.6-2.67-3.02-3.26l-2.71-1.12-4.41-.65-2.39-.75c-.89-.28-1.5-.22-2.36-.26-2.23-.12-4.47-.63-6.85-.47-1.94,3.88-.66,3.82-3.97,6.23-.98.71-1.22,1.34-1.66,2.38-.59,1.4-1.12,2.67-1.35,4.19-.19,1.25-1.51,2.26-1.74,3.47l-.73,3.79c-.28,1.45-1.4,2.48-3.12,2.41-.19,1.26-.99,1.99-1.67,2.87-.74.95-.23,2.46-.67,3.52s-.77,2.5-1.56,3.34c-1.03,1.08-1.89,1.97-2.52,3.32s-1.45,2.44-1.54,4.05c-.08,1.33.43,3.26-.29,4.46s-3.02.7-4.16.38-2.03-.03-3.11-.12c-.86-.07-1.74-.5-2.61-.22-1.17.38-2.04,1.45-3.25,1.7-1.61.33-3.25-1.57-5.7-.78-.86.27-2.17.11-2.68-.74-.79-1.32-1.01-2.91-.96-4.45.08-2.6-.18-5.01.12-7.62.11-.94.57-2.68-.88-3.08-3.02-.82-8.92-2.05-11.29-4.49-.7-.72-1.18-1.88-1.7-2.75-1.22-2.04-.91-5.54-1.68-6.1-3.9-2.88-6.58-2.64-7.93-3.61l-1.97-1.41c-.54-.39-1.41-1-1.86-1.42-.71-1.65-3.63-5.77-4.81-6.93-.41-.41-.19-1.31-.61-1.78-.65-.73-1.37-1.38-1.81-2.25s-.16-2.08-.66-2.95c-.94-1.63-1.81-3.25-1.69-5.22-2.67-1.94-2.21-5.67-2.32-7.76-.13-2.51.04-4.92.9-7.36.3-.85.45-1.7,1.14-2.4,1.94-1.94,1.78-4.25,4.25-5.02.61-.19.78-.88,1.25-1.18,1.88-1.22,3.82-2.17,5.57-3.71-.81-3.06.83-5.4-.54-6.4-1.13-.83-1.05-2.29-.16-3.3,1.66-1.9-.55-2.52.59-4.72.47-.9.89-1.9,1.75-2.49.61-.42,1.25-1.03.9-1.87s-.15-1.64-.24-2.48c-.14-1.29-.33-2.5-.3-3.85.06-2.82-3.64-.31-3.57-3.36.03-1.41-.09-2.68-.25-4.07-.1-.93.5-1.89.26-2.81s-1.43-1.48-2.19-1.86c-.71-.36-.65-.77-.68-1.4-.07-1.34-.24-2.73-.57-4.04-.3-1.19.06-2.38-.17-3.52l-.67-3.2c-.35-1.66.02-3.35-.52-5.04-.29-.91-.13-2,.38-2.79,1.26-1.98,1.79-4.11,2.38-6.35.75-2.84,2.7-5.18,2.96-6.82.28-1.75,1.27-3.01,2.21-4.46,1.2-1.85,2.06-3.94,2.87-5.97.51-1.26,1.14-1.66,2.3-2.31.77-.8,1.79-2.92,3.09-3.29.81-.23,1.82-.98,1.78-1.9-.02-.58-1.03-.73-1.24-1.15-1.22-2.53-.8.24-1.81-4.99-.38-1.99-.04-4.09-.54-6.04-.62-2.43,0-4.8,2.1-6.3.36-.26,3.36-3.13,2.71-4.24,1.39-.41,2.47.27,3.76.78.63.25,1.65.37,2.27.76,3.36-.66,6.18,1.18,7.1,4.41.77,2.69.43,3.97.97,4.61.14.16.52-.2.73-.2,2.02.02,4.59-1.54,11.61-1.3,1.59.05,2.9-.37,4.42-.63l8.22-1.37c3.78-.63,4.86-.06,9.05-1.76.66-.27,1.63-.31,2.36-.44,2.7-.48,5.35,1.82,8.83,2.25,2.01.25,3.66,1.22,5.5,1.87l4.97,1.76c5.68,2.02,5.56,4.03,8.96,4.26.79.05,1.39.35,2.1.56,2.25.67,4.34,1.64,6.09,3.18,2.71,2.38-.23,3.86,1.91,5.83,1.15,1.06,2.54,2.61,4.26,2.63,5.59.07,5.09,1.8,9.55,2.54,1.39.23,2.4,1.03,3.64,1.61,1.89.89,4.01,1.38,5.66,2.69.9.72,1.68,1.27,2.83,1.62,1.24.37,2.4,1.07,3.58,1.62.87.41,1.42,1.26,2.14,1.87l6.34,5.4c.74.63.56,2.02.91,2.87.38.91,1.24,1.41,1.52,2.32.48,1.54.57,3.11,1.16,4.64.53,1.38,1.77,2.72,1.88,4.27.09,1.39-.35,2.97-.52,4.36s.34,2.56.63,3.87c1.01,4.57,2.53,3.14,3.17,8.5.14,1.18.78,2.2,0,3.45-.88,1.43,1.95,1.16,1.66,3.26-.25,1.8,0,3.5.14,5.28.08.96.42,1.39.76,2.25.26.66.51,2.03.43,2.81-.34,3.32-.71,6.44-.47,9.8.07.98-.38,2.09.17,3.09l.93,1.71c.8,1.47,1.49,2.78,1.5,4.49s.6,3.25.7,4.84.07,3.07.94,4.56c.5.86-.56,2.28-.16,3.1s.58,1.44.72,2.32c.6,3.6-.9,4.58-2.47,8.52-.56,1.4-1.31,2.51-1.93,3.85l-5.33,11.45c-.54,1.16-.88,2.28-1.4,3.42l-2.55,5.63c-.94,2.07-2.06,3.92-2.81,6.06-.29.85-.86,1.58-1.09,2.51-.19.78-1.04,1.36-1.15,2.15-.18,1.34-.63,2.33-1.53,3.32-.81.9-.76,2.5-1.65,3.28-.81.72-1.89.98-1.9,2.31-.05,5.16-.86,2.8-3.69,8.75-.81,1.69-1.5,3.47-2.69,4.96-.4.51-2.94,1.14-3.15,1.77-.11.33.08.68.11,1.08.07.79-1.01,1.35-1.08,2.06-.16,1.5,3.92.23,2.1,2.38-3.11,3.67-6.57,1.23-8.32,3.42-.97,1.21-1.26,2.78-1.93,4.13l-2.51,5.1c-2.32.91-4.47-.19-5.25-2.55-.13-.4-.34-1.27-.89-1.37-1.1-.2-2.54-.45-2.89-1.73-1-3.57-.44-5.76-.88-7.04-.68-1.96-.8-3.9-1.09-5.95-.27-1.86-.8-3.6-.64-5.43.1-1.13-.83-1.39-1.33-1.94-1.6-1.74-1.07-3.93-2.46-5.24-.49-.46-.48-1.44-.02-1.97,1.01-1.14,1.62-2.4,2.23-3.77.36-.82,1.36-1.2,1.97-1.8.86-.83.72-2.03.79-3.12s-.37-1.61-1.42-1.99ZM227.45,148.02c-.32.2-.54.46-.42.62.67.9,2.68.2,3.34.57,1.08.62,2.38,1.09,3.37,1.8.61.44.69,1.56,1.97,1.46,1.35-.1,1.61,1.24,2.74.91.3-.09.43-.34.6-.73.42-.94,1.59,1,2.39-.66.31-.63,1.05-.88,1.29-1.58.15-.45-.08-1.42-.44-1.71-.59-.19-.86.66-1.45.94.77-3.39-1.65-1.32-.71-7.21.38-.14.74-.03.91-.13.29-.17.34-.54.32-.86-.06-1.29.99-1.84,2.08-1.95.78-.08.67-1.26,1.08-1.63.84-.75,2.23-.72,3.14-1.45.8-.64.58-2.21-.43-2.75,1.29-.93.21-2.16.42-2.87,1.22-4.28,3.23-11.46,3.05-15.98-.06-1.55-.64-2.48-1.58-3.59-.51-.61-.66-1.85-1.73-2.04-.69-.12-1.67-.05-2.35.44-.24-.37-.47-.7-.74-.79-.21-.07-.67.12-.83.3-.74.81-1.23.15-2.03,0-.53-.1-1.25.67-2.01.42-.9-.29-.97,1.37-1.85,1.63s-1.72-.66-2.18-1.65c-.24-.52-4.95-.05-5.3-.09-1.55-.15-3.67-2.07-6.99-.41-.79.4-1.88.27-2.55.74-.84.58-1.48,1.06-2.65.38-.08.86-.3,1.24-.81,1.39-1.51.44-1.06-.93-2.38-.56-.32.09-.39.46-.6.69-.27-.45.03-1.04-.34-1.14-.43-.12-.58.61-.87.8-1.07-.24-2.17.25-3.22.49-.58.13-1.22-.43-1.58.07-1.27,1.8.75,1.45.03,2.85-.44.86.11,1.39.57,1.97,1.16,1.46,2.25,1.59,4.38,2.88.51.31-.13,1.28-.28,1.72-1.06,3.03-1.93,6-3.39,8.83-1.64,3.2-1.27,3.41-3.03,3.69-1.21.19-1.14,1.48-1,2.37.11.69.71,1.18.92,1.59.05,1.05-.07,2.14.32,3.24,1.1,3.1-1.58,6.37,2.06,8.57-.19.37-.48.54-.8.98.57.88,4.17.79,3.03-.4.12-.17.67-.12.97-.12.27,0,.41.53.71.74.55.39,1.2.25,1.68-.07,1.18-.79.66-2.63,1.33-3.9,1.88-.58,4.15,1.19,4.19-1.1,2.89.38,4.74,1.7,7.62,2.28Z"/>
</svg>