<?xml version="1.0" encoding="UTF-8"?>
<svg id="Layer_2" data-name="Layer 2" xmlns="http://www.w3.org/2000/svg" viewBox="0 0 432 288">
  <defs>
    <style>
      .cls-1 {
        fill: #fff;
      }
    </style>
  </defs>
  <path class="cls-1" d="M104.55,34.77c.59.27,1.6.82,2.18.73l1.71-.27c.1-.36.28-1.16.45-1.49.58-1.16,7.37-1.02,8.94-1.13,5.19-.36,5.8.43,10.44.12,1.83-.12,3.45-.42,5.32-.67.96-.13.83,1.35,1.1.96l.26-.37c.83-1.2,1.74.32,3.56,0,2.08-.35,6.26-.48,8.37-.3l3.14.27c1.96.17,3.77-.28,5.56-.37s3.34-.04,5.09-.3c1.05-.16,2.25-.16,3.29-.2l2.82-.12c.64-.03,1.45-.45,2.07-.36.81.12,1.41.05,2.18.04l5.68-.11,2.13-.08c1.15-.04,2.24-.05,3.39.1l3.01.38,5.23.66c.46.06,3.61-.31,5.33-.26.97.03,2.06-.18,2.96-.42.42.37.93.76,1.56.51,1.78-.71,3.37-.18,5.23-.59.54-.51.96-.52,1.69-.54,1.2-.04,2.35-.39,3.54-.64,3.99-.85,4.1.38,6.82-1.01.71-.36,1.7-.34,2.53-.45l2.01-.24c.85-.76,1.79-.77,2.91-1.01l2.33-.51c1.19-.26,2.2-.31,3.35-.71.3-.11,1-.26,1.33-.35.52-.57,1.37.05,1.87-.03,1.2-.18,2.86-.42,4.21-.51.92-.06,1.84-.35,2.81-.35-.49,1.9-3.65,1.14-4.43,1.4s-1.53.49-2.19.77l-2.09.89c-.64.27-1.46.48-2.05.92l-1.53,1.16c-1.96,1.47-4.5,2.57-7.09,2.38l-2.05-.15-.25.65c-3.65,1.41-2.67-.44-4.29.5-1.6.93-3.48.46-5.15.86l-2.74.66c-.43.1-1,.59-1.52.43-1.36-.41-2.53-.04-3.67.65-.98.58-3.44.2-4.45.31-1.88.2-3.54.65-5.45-.27-.47-.23-1.34-.02-1.91.16-2.09.68-2.76-.61-4.66-.59l-2.79.03h-3.49s-3.5.33-3.5.33h-2.57c-1.59.02-3.39-.46-4.9.26-2.65,1.26-4.62,1.65-7.55,1.82-.95.05-1.97.36-2.98.3-2.79-.15-1.75.56-4.79.46-.49,1.02-1.23.65-2.05.67-1.65.05-3.25.81-4.79,1.37-1.92.7-3.92.34-5.9.3-1.54-.04-5.13.23-6.49.48-1.51.28-2.83.45-4.33.59l-4.93.45c-1.3.12-2.98.53-3.76-.92-.6-1.11-1.09-2.21-2.75-1.83-.29-.1-.87-.3-1.15-.38-.24-.07-.65.47-.88.56-1.9.68-1.54,2.74-1.29,4.52.22,1.56.15,3.29.1,4.9,0,.26-.33.93-.16,1.11l.67.66-.54,1.44c.39,1.77.7,3.47.28,5.2-.15.62-2.06,1.94-1.47,2.24l.64.32c.23.11.65.58.55.81-.31.73-1.42.04-1.48,1.58-.08,2.39-.45,2.77.15,4.41.5.55.51.89.24,1.56-1.72,4.23.02.85-.96,4.08-.23.76-.01,1.86-.19,2.64-.39,1.68-.3,3.22-.35,4.9-.02.79-.29,1.78-.21,2.7l.32,3.49c.06.66-.31,1.73-.3,2.36.3.53.36,1.06,0,1.36-1.27,1.04.33,1.06.05,4.61l-.27,3.41c1.21,1.61,1.31,3.78.23,5.5.43.47.68,1.13.85,1.64,1.22.82,2.73,1.32,4.21,1.65l1.55-1.19c.88-.67,1.45-2.03,2.31-2.96s1.79-2.05,2.02-3.4c.05-.28.96-.65,1.09-.4.2.36.15,1.3-.05,1.64-.48.82.04,1.73-.16,2.45-.94,3.33-1.61,3.2-1.35,7.2.04.64-.66,1.36-.13,2.07.31.41.69,1.26,1.5,1.17,1.18-1.69,1.83-1.95,1.38-3.76.92-1.46,1.02-4.96,1-6.82-.01-.93.2-1.86.27-2.66l.22-2.56c.04-.52.01-1.2.2-1.64l.72-1.69c.94-2.24.14-2.08,1.16-3.28l1.09-1.28,1.14-1.79,1.71-1.93,1.02-1.27,2.5-2.59,1.98-2.05c.35-.37,1.25-.78,1.49-1.19,1.01-1.73,1.98-2.5,3.4-3.63l3.56-2.83c.59-.47.99-1.12,1.76-1.43,1.93-.79.51-1.18,3.82-1.74.44,1.85-.62.29-3.4,3.3-.25.27-.9.7-1,1.02-.58,1.89-.29,2.24.55,3.72,2.01-1.52,7.1-.64,7.59-1.29.55-.73-.32-1.2.73-2.54.65-.83,1.35-1.23,2.37-1.49l1.16-1.09c.84-.03,1.48-.23,2.15-.62,1.36-.78,2.85-1.33,4.08-2.28.75-.58,1.37-.67,2.32-.91s1.75-.8,2.82-.73l.6-1.25,3.21-1.72c.51-.27,1.02-.34,1.48-.03-.93.74-2.24,4.15-1.7,4.46l1.42.82c.66.38,2.51.15,2.87-.53l1.12-2.08c.6,1.21.24,1.68-.08,2.48s-.61,1.23-1.29,1.78c-.85.69-.71,2.04-.95,3.02-.59,2.39-1.38,1.62-.12,5-.24,1.18-.77,2.25-1.32,3.29l-.76,1.46c-.86,1.65-.42,1.83-1.32,4.17-.21.55-.34,1.05-.49,1.63l-.97,3.88c-.09.38-.34.83-.49,1.19l-1.08,2.71c-.34.84-.78,1.52-1.02,2.42l-.67,2.57-.74,1.58-1,2.49c-.27.67-.57,1.15-.79,1.92-.15.55-.64,1.32-.74,1.88-.29,1.61-1.12,2.75-1.7,4.22-1.09,2.73-.35,3.64-2.61,5.88-.48.73-.92,2.23-1.3,3.14l-2.27,5.41c-.31.75-.71,1.37-1.12,2.08-1.07,1.84-.33,2.36-2.34,4.63-.29,1.34-.82,2.45-1.48,3.62l-1.93,3.38c-.38.66-1.04,3.43-1.82,4.55-1.85,2.68-.85,2.47-2.4,6.49-.4,1.03-.61,2.23-1.06,3.23-.32.72-.63,1.34-.8,2.13-.17.85-.56,1.52-.88,2.28-.37.88-1.89,5.17-2.11,6.06l-.43,1.68c-.3,1.19-1.34,2.4-1.49,3.61-.12,1.03-.3,1.28-.89,1.99-.78.92-.4,2.59-.85,3.62-.23.52-.45,1-.6,1.54-.43,1.56-1.31,3.14-1.52,4.74-.15,1.14.21,2.2-1.26,2.75l-1.68.63c-.82.31-1.06,2-.82,2.74.28.88.39,1.88.05,2.73l-.85,2.11c.62,1.01-.61,1.74-.65,2.37-.07,1.1-.23,2-.83,2.95-.31.48-1.95,5-1.91,4.84l-.58,2.83c-.16.77-.61,1.9-.63,2.64-.07,3.43-.52,1.92-.36,5.24.05.99.69,1.19,1.4,1.57.86.45,1.89.55,2.72.04.58-.35,1.3-1.67.67-2.36-.75-.83-1.61-1.54-1.92-2.78-.28-1.15.8-2.25,1.51-3-.15-.94-.08-1.81.19-2.73l.82-2.82.57-2.15c.22-.84.82-1.63,1.25-2.35-.01.02,1.25-3.71,1.37-4.14.2-.7.3-1.95.28-2.64-.06-1.64.4-2.63.96-4.01.43-1.07.82-2.02,1.38-3.07,2.51-4.76.84-4.59,3-7.65.14-.2,1.08-3.18,1.36-3.51.67-.79,1.04-1.66,1.2-2.68.04-.28.23-.8.25-1.08.08-1.04.29-1.88.7-2.75l.95-2.02c.83-1.75,1.54-3.59,2.12-5.45.22-.71.42-1.15.79-1.81.3-.51.21-1.56.67-2.1,1-1.17.96-2.59,1.36-1.98.08.12.08.49,0,.61-.3.45-.22,1.42-.42,1.85-.83,1.81-2.02,5.29-2.05,5.36-.36.67-.56.98-.68,1.74-.18,1.11-1.05,2.21-1.17,3.31-.18,1.63-.63,3.03-1.08,4.57-.28.96.26,2.36-.32,3.24s-.88,1.64-.91,2.74c-.03.94-.62,1.89-.79,2.7-.43,1.95-.69,3.77-1.47,5.64-.08.5.03,1.56-.11,2.02l-1.68,5.57c-.25.82-.54,1.61-.63,2.48-.1,1-.77,1.77-1.05,2.59-.16.48-.04,1.39-.34,1.93-1.09,1.97,1.2,1.99-.46,3.22l.17,1.16c-.76,2.25-1.2,4.51-1.83,6.75-.24.84-.4,1.38-.49,2.27-.37,3.7-.78,3.96-1.91,7.66l-1.21,3.95-.42,3.77c-.13,1.15,0,2.47-1.48,2.9-.16.62-.57,1.07-1.07,1.5-1.59,1.36-3.55,4.64-4.3,5.34-2.38,2.19-1.68,1.95-3.44,4.86-.69,1.15-2.6,1-3.37,1.85-1.89,2.07-.59.53-2.87,2.53-.56.49-1.22,1.04-1.28,1.88-.17,2.35.16,3.15,2.5,4.3l1.56.05c.58.02,1.57-.11,2.08-.3l2-.95c.94-.45,1.19-.94,2.31-.7,1.26.27,2.56.55,3.64,1.18.27-.16.77-.51,1-.42l.79.29c.52.04,1.03.13,1.54.26l1.38.34c.87.22,1.54.53,2.29.83.81.32,2.39-.21,3.38.1,3.71,1.18,1.42-.11,5.58.59l1.43-.46c.77,1,2.13,1.26,3.07.6,1.77-1.24,2.68.75,5.4,1.55l2.69.79c1.35-.65,2.25.02,3.38.38l2.74.87,1.49.26,1.3.85c.54.35,1.27.46,1.86.7,2.39.96,5.44,2.42,7.36.14.68-.81,1.95-2.04,1.41-3.22-.37-.81-.6-1.54-.82-2.41-.26-1.06-1.2-2.26-.3-3.41.51-.65.9-1.46.71-2.41-.18-.89.47-1.32.73-2.01.17-.43.26-1.35.41-1.87l.84-2.97c.33-1.19.45-2.26.85-3.44.18-.55.37-1.24.48-1.8.2-1.08.58-1.92.92-2.94.82-2.48.93-4.35,1.53-6.35l.99-3.3c.42-1.4.74-2.94,1.5-4.2.59-.98.71-2.03.92-3.19,2.63-2.78.15-2.62,2.53-5.02.28-.28.38-1.14.36-1.52-.05-.98.79-1.59,1-2.27.36-1.14.56-2.1,1.27-3.07,1.03-1.41,1.77-2.85,2.41-4.46l.57-.87c.04-2.01,1.62-4.78,2.58-6.48.3-.53.55-1.18.9-1.69.75-1.09,1.55-2.12,2.21-3.25l1.68-2.88c1.43-.38,2.17,3.36,2.04,4.42-.11.89.75,1.19,1.05,1.87.65,1.48.25,2.35.86,4l.91,2.45.93,2.45.6,1.76c.2.58.35,1.44.61,1.93,1.64,3.03.88,2.63,1.86,4.88l.66,1.51c.25.57.55,1.16.72,1.79l.91,3.45c.17.65.24.99.66,1.46.65.71.53,1.97.87,2.77l.75,1.81c.82,1.99,1.14,3.91,1.79,5.92l.66,2.01c.2.61.39,1.52.69,1.98.5.77.73,1.36.88,2.18.66,3.42,1.48,1.76,1.71,6.77.06,1.33.92,2.82.27,4.16l-2.06,1.45c-.15.1-.19.76-.03.82l.58.23c1.07-1.29-.18.97.43,1.93.28.44.79.5,1.37.67,2.88.84,3.45-.32,4,.32.62.73-.16.93.84,2.2.1.13-.02.53-.17.57l-2.72.74c-1.22.33-1.87.62-2.52,1.68-.8,1.31-.84,3.22.48,4.28.59.48,2.07.77,2.77.63,1.12-.21,2-.26,2.89.42.86-1.19,2.1-1.05,3.32-1.29.65-.13,1.28-.29,1.96-.28l4.54.07c.6,0,1.02.19,1.65.26l1.79.2c1.61.18,3.1.37,4.71.24s6.11,1.53,9.04,1.47c1.54-.03,2.93.01,4.54.11,1.86.11,3.36-.59,5.47-.52.99.03,1.87-.14,2.81-.31l2.36-.42c.92-.16,2.24-.12,2.98-.56.64-.38,1.05-.65,1.77-.7l2.36-.14,2.01-.09c2.21-.1,4.01-.26,5.96.47.88.32,1.58.57,2.48-.08l2.7.6c.34.08,1.17-.07,1.46-.03,1.98.93,11.38,2.76,13.08,2.79.53,0,4.31-.6,4.63-.69,1.22-.37,1.92-.51,3.29-.42.69.04,1.76-.4,2.73-.23,1.08-1.61.79-1.56,2.21-3.48.45-.6,1.46-1.09,1.66-1.91s-.49-1.91-.97-2.58l-1.17-1.65-.78-1.47-2.78.19c-.67.21-1.83.72-2.16-.03,1.27-2.28.64-2.69,2.26-4.84.23-.98-.63-2.59-1.2-4.01-.17-.44-.83-1.09-1.11-1.59l-1.35-2.44c-.31-.57-.79-1.07-1.12-1.65-.64-1.13-1.54-2.22-2.03-3.39l-1.18-2.79c-.37-.88-.52-1.39-1.38-1.9l-1.66-.98c-.05-.94-.49-1.35-1.06-2.01s-.21-2.02-.32-2.9c-1.07-8.43-2.47-6.31-3.04-9.19-.37-1.86-2.23-1.7-2.14-2.19.18-.98.63-1.57.34-1.91l-.64-.76c0-.79-.38-1.19-.8-1.75-.66-.88-2.47-4.18-2.71-4.85-.62-1.74-1.89-4.43-2.09-5.05-.42-1.32-.78-2.42-1.29-3.65-.23-.55-.31-1.19-.67-1.71-.63-.89-.8-4.68-1.1-5.5l-1.21-3.25c-.5-1.34-.74-2.53-.68-3.97.03-.8-.77-1.86-.81-2.66l-.21-4.16c-.29-.5-.77-1.31-.82-2-.1-1.45-.43-2.66-.74-4.01-.15-.64.26-1.68-.15-2.31-.57-.88-.67-1.71-.78-2.73l-.22-2.08c-.25-2.36-.84-4.63-1.04-7-.12-1.37-.98-2.31-.72-6.38.02-.36-.35-1.07-.44-1.4,0-1.09-.3-2.22-.46-3.36l-.56-4.1-.68-2.53c-.2-.74-.18-1.4-.12-2.21l.2-2.49c-.62-1.17-.71-2.29-.75-3.6-.04-1.24-.58-2.95-.64-4.29l-.09-1.84-.35-2.58-.62-3.31c.6-1.07,0-1.67-.2-2.67l-.52-2.53c-.07-.35.17-1.19-.03-1.5s-.91-.67-1.08-.98l-1.06-2.25c-.36-.76-.68-1.5-1.15-2.14l.63-3.1c.48.08.93.21,1.08.04.13-.14.26-.63.25-.84l-.14-2.63c-.06-.48-.82-1.1-.64-1.82.2-.8-.31-1.78-.25-2.47.05-.56.34-.97,0-1.47-.94-1.43-1.11-5.51-1.17-7.29l-.06-1.88c-.03-.92-.11-1.29-.69-2.07-.31-.58-.58-1.86-.59-2.56l-.04-1.94c-.05-2.21-.46-7.64-.96-9.63-.31-1.23.02-2.62-.09-3.87-.21-2.5-.96-3.15-.36-4.7-.1-.4-.11-1.03-.2-1.51l-.25-1.28c-.24-1.26.36-9.04-.14-10.83-.24-.85-.26-1.29.04-2.08,0-.59-.23-1.65-.19-2.26l.15-2.81c.08-1.43-.18-2.99-1.35-3.96l-2.16-.7c-.86-.71-.05-1.66.05-2.4M114.13,37.1c.59.27,1.69-.31,1.9-.82.22-.56.52-1.59-.08-2.03-.42-.31-1.49-.51-1.92-.33-.93.39-1.22,1.41-1.48,2.3.57.34,1.02.63,1.58.89ZM156.75,264.12"/>
  <path class="cls-1" d="M230.82,133.58l-.66,1.42c-.48,1.03-1.34,1.54-2.46,1.35l-2.77-.46c-.65-.11-1.32-.37-1.92-.54-1.14-.33-2.19-.24-3.11-1.13-1.24-1.21-2.19-.62-3.57-1.62l-2.33-1.68c-1.34-.97-7.16-3.06-7.5-5.22s-1.28-1.71-1.21-6.14c.02-1.43-.27-2.99.01-4.32.33-.91.63-1.75.86-2.78.19-.82.93-1.72,1.08-2.61.15-.95.5-1.82,1.2-2.44,1.1-.98,1.39-2.43,2.16-3.61,2.55-3.91.62-1.44,2.54-5.05.64-1.2,1.11-3.71,1.78-5.67.46-1.32,1.27-2.46,1.34-3.93.04-.84.34-1.78.66-2.47l-1.07-1.28c-.68-.82-.33-1.36,0-2.14.7-1.63.93-3.26,2.18-4.86l1.38,2.62c2.59,4.91,2.39,2.9,4.15,3.88,1.57.87,2.11,1.21,2.19,3.43l.06,1.55c.03.72-.45,1.56-.08,2.44.12.29-.09,1-.17,1.24.44.6,1.11,3.94.87,4.56-1.21-.03-1.77.02-2.59.23l.6.59c.26.25,1.15-.87,1.98-.37.72.44-.2,1.42,1.6,4.46.6,1.01.53,2.36.26,3.52,2.8,3.4.45,4.15,1.51,5.17.84.81.54,1.5.63,2.49.31,3.27,1.03,2.98.49,5.6-.13.62.76,1.59-.33,2.3.9,1.17.72,2.55.12,3.8.59.79.49,1.61.38,2.56l-.15,1.35c-.13,1.18.38,2.64-.14,3.76Z"/>
  <path d="M114.13,37.1c-.56-.25-1.01-.54-1.58-.89.26-.89.54-1.91,1.48-2.3.43-.18,1.5.02,1.92.33.6.44.3,1.47.08,2.03-.21.52-1.31,1.09-1.9.82Z"/>
  <g>
    <path d="M316.77,254.93l-1.17-1.65-.78-1.47-2.78.19c-.67.21-1.83.72-2.16-.03,1.27-2.28.64-2.69,2.26-4.84.23-.98-.63-2.59-1.2-4.01-.17-.44-.83-1.09-1.11-1.59l-1.35-2.44c-.31-.57-.79-1.07-1.12-1.65-.64-1.13-1.54-2.22-2.03-3.39l-1.18-2.79c-.37-.88-.52-1.39-1.38-1.9l-1.66-.98c-.05-.94-.49-1.35-1.06-2.01-.59-.68-.21-2.02-.32-2.9-1.07-8.43-2.47-6.31-3.04-9.19-.37-1.86-2.23-1.7-2.14-2.19.18-.98.63-1.57.34-1.91l-.64-.76c0-.79-.38-1.19-.8-1.75-.66-.88-2.47-4.18-2.71-4.85-.62-1.74-1.89-4.42-2.09-5.05-.42-1.32-.78-2.42-1.29-3.65-.23-.55-.31-1.19-.67-1.71-.63-.89-.8-4.68-1.1-5.5l-1.21-3.25c-.5-1.34-.74-2.53-.68-3.97.03-.8-.77-1.86-.81-2.66l-.21-4.16c-.29-.5-.77-1.31-.82-2-.1-1.45-.43-2.66-.74-4.01-.15-.64.26-1.68-.15-2.31-.57-.88-.67-1.71-.78-2.73l-.22-2.08c-.25-2.36-.84-4.63-1.04-7-.12-1.37-.98-2.31-.72-6.38.02-.36-.35-1.07-.44-1.4,0-1.09-.3-2.22-.46-3.36l-.56-4.1-.68-2.53c-.2-.74-.18-1.4-.12-2.21l.2-2.49c-.62-1.17-.71-2.29-.75-3.6-.04-1.24-.58-2.95-.64-4.29l-.09-1.84-.35-2.58-.62-3.31c.6-1.07,0-1.67-.2-2.67l-.52-2.53c-.07-.35.17-1.19-.03-1.5-.19-.3-.91-.67-1.08-.98l-1.06-2.25c-.36-.76-.68-1.5-1.15-2.14l.63-3.1c.48.08.93.21,1.08.04.13-.14.26-.63.25-.84l-.14-2.63c-.06-.48-.82-1.1-.64-1.82.2-.8-.31-1.78-.25-2.47.05-.56.34-.97,0-1.47-.94-1.43-1.11-5.51-1.17-7.29l-.06-1.88c-.03-.92-.11-1.29-.69-2.07-.31-.58-.58-1.86-.59-2.56l-.04-1.94c-.05-2.21-.46-7.64-.96-9.63-.31-1.23.02-2.62-.09-3.87-.21-2.5-.96-3.15-.36-4.7-.1-.4-.11-1.03-.2-1.51l-.25-1.28c-.24-1.26.36-9.04-.14-10.83-.24-.85-.26-1.29.04-2.08,0-.59-.23-1.65-.19-2.26l.15-2.81c.08-1.43-.18-2.99-1.35-3.96l-2.16-.7c-.86-.71-.05-1.66.05-2.4.01-.08.01-.16.02-.24-1.21.51-2.57.78-4.08.7-3.27-.17-6.53-.37-9.78-.73-4.32.17-8.7.8-12.96.45-1.17-.09-2.23-.34-3.2-.69l-.33.14c-.64.27-1.46.48-2.05.92l-1.53,1.16c-1.96,1.47-4.5,2.57-7.09,2.38l-2.05-.15-.25.65c-3.65,1.41-2.67-.45-4.29.5-1.59.93-3.48.46-5.15.86l-2.74.66c-.43.1-1,.59-1.52.43-1.36-.41-2.53-.04-3.67.65-.98.58-3.44.2-4.45.31-1.88.2-3.54.65-5.45-.27-.47-.23-1.34-.02-1.91.16-2.09.68-2.76-.61-4.66-.59l-2.79.03h-3.49s-3.5.33-3.5.33h-2.57c-1.59.02-3.39-.46-4.9.26-2.65,1.26-4.62,1.65-7.55,1.82-.95.05-1.97.36-2.98.3-2.79-.15-1.75.56-4.79.46-.49,1.02-1.23.65-2.05.67-1.65.05-3.25.81-4.79,1.37-1.92.7-3.92.34-5.9.3-1.54-.04-5.12.23-6.49.48-1.51.28-2.83.45-4.33.59l-4.93.45c-1.3.12-2.98.53-3.76-.92-.6-1.11-1.09-2.21-2.75-1.83-.29-.1-.87-.3-1.15-.38-.24-.07-.65.47-.88.56-1.9.68-1.54,2.74-1.29,4.52.22,1.56.15,3.29.1,4.9,0,.26-.33.93-.16,1.11l.67.66-.54,1.44c.39,1.77.7,3.47.28,5.2-.15.62-2.06,1.94-1.47,2.24l.64.32c.23.11.65.58.55.81-.31.73-1.42.04-1.48,1.58-.08,2.39-.45,2.77.15,4.41.5.55.51.89.24,1.56-1.72,4.23.02.85-.96,4.08-.23.76-.01,1.86-.19,2.64-.39,1.68-.3,3.22-.35,4.9-.02.79-.29,1.78-.21,2.7l.32,3.49c.06.66-.31,1.73-.3,2.36.3.53.36,1.06,0,1.36-1.27,1.04.33,1.06.05,4.61l-.27,3.41c1.21,1.61,1.31,3.78.23,5.5.43.47.68,1.13.85,1.64.28.19.58.36.88.51,2.27-3.59,4.67-7.11,7.18-10.51,4.6-6.22,10.18-14.42,17.59-17.58.96-.41,1.94-.72,2.92-.93.5-.49,1.05-.93,1.7-1.44l3.56-2.83c.59-.47.99-1.12,1.76-1.43,1.65-.68.86-1.06,2.65-1.5.33-.23.66-.46.99-.68,5.77-3.96,12.29-8.22,19.44-8.74,5.72-.41,10.56,5.16,10.56,10.56,0,3.41-1.58,6.22-3.98,8.09-.27,1.02-.72,1.95-1.2,2.87l-.76,1.46c-.86,1.65-.42,1.83-1.31,4.17-.21.55-.34,1.05-.49,1.63l-.97,3.88c-.09.38-.34.83-.49,1.19l-1.08,2.71c-.34.84-.78,1.52-1.02,2.42l-.67,2.57-.74,1.58-1,2.49c-.27.67-.57,1.15-.79,1.92-.15.55-.64,1.32-.74,1.88-.29,1.61-1.12,2.75-1.7,4.22-1.09,2.73-.35,3.64-2.61,5.88-.48.73-.92,2.23-1.3,3.14l-2.27,5.41c-.31.75-.71,1.37-1.12,2.08-1.07,1.84-.33,2.36-2.34,4.63-.29,1.34-.82,2.45-1.49,3.62l-1.93,3.38c-.38.66-1.04,3.43-1.82,4.55-1.85,2.68-.85,2.47-2.4,6.49-.4,1.03-.61,2.23-1.06,3.23-.32.72-.63,1.34-.8,2.13-.17.85-.56,1.52-.88,2.28-.37.88-1.89,5.17-2.11,6.06l-.43,1.68c-.3,1.19-1.34,2.4-1.48,3.61-.12,1.03-.3,1.28-.89,1.99-.78.92-.4,2.6-.85,3.62-.23.52-.45,1-.6,1.54-.43,1.56-1.31,3.14-1.52,4.74-.15,1.14.21,2.2-1.26,2.75l-1.68.63c-.82.31-1.06,2-.82,2.74.28.88.39,1.88.05,2.73l-.85,2.11c.62,1.01-.61,1.74-.65,2.37-.07,1.1-.23,2-.83,2.95-.31.48-1.95,5-1.91,4.84l-.58,2.83c-.16.77-.61,1.9-.63,2.64-.07,3.43-.52,1.92-.36,5.24.05.99.69,1.19,1.4,1.57.86.45,1.89.55,2.72.04.58-.35,1.3-1.67.67-2.36-.75-.83-1.61-1.54-1.92-2.78-.28-1.15.8-2.25,1.51-3-.15-.94-.08-1.81.19-2.73l.82-2.82.57-2.15c.22-.84.82-1.63,1.25-2.35-.01.02,1.25-3.71,1.37-4.14.2-.7.3-1.95.28-2.64-.06-1.64.4-2.63.96-4.01.43-1.07.82-2.02,1.38-3.07,2.51-4.76.84-4.59,3-7.65.14-.2,1.08-3.18,1.36-3.51.67-.79,1.04-1.66,1.2-2.68.04-.28.23-.8.25-1.08.08-1.04.29-1.88.7-2.75l.95-2.02c.83-1.75,1.54-3.59,2.12-5.45.22-.71.42-1.15.79-1.81.3-.51.21-1.56.67-2.1,1-1.17.96-2.59,1.36-1.98.08.12.08.49,0,.61-.3.45-.22,1.42-.42,1.85-.83,1.81-2.02,5.29-2.05,5.36-.35.67-.56.98-.68,1.74-.18,1.11-1.05,2.21-1.17,3.31-.18,1.63-.63,3.03-1.08,4.57-.28.96.26,2.36-.32,3.24-.58.89-.88,1.64-.91,2.74-.03.94-.62,1.89-.79,2.7-.43,1.95-.69,3.77-1.47,5.64-.08.5.03,1.56-.11,2.02l-1.68,5.57c-.25.82-.54,1.61-.63,2.48-.1,1-.77,1.77-1.05,2.59-.16.48-.04,1.39-.34,1.93-1.09,1.97,1.2,1.99-.46,3.22l.17,1.16c-.76,2.25-1.2,4.51-1.83,6.75-.24.84-.4,1.38-.49,2.27-.37,3.7-.78,3.96-1.91,7.66l-1.21,3.95-.42,3.77c-.13,1.15,0,2.47-1.48,2.9-.16.62-.57,1.07-1.07,1.5-1.59,1.36-3.55,4.64-4.3,5.34-2.38,2.19-1.68,1.95-3.44,4.86-.69,1.15-2.6,1-3.37,1.85-1.89,2.07-.59.53-2.87,2.53-.56.49-1.22,1.04-1.28,1.88-.17,2.35.16,3.15,2.5,4.3l1.56.05c.58.02,1.57-.11,2.08-.3l2-.95c.94-.45,1.19-.94,2.31-.7,1.26.27,2.56.55,3.64,1.18.27-.16.77-.51,1-.42l.79.29c.52.04,1.03.13,1.54.26l1.38.34c.87.22,1.54.53,2.29.83.81.32,2.39-.21,3.38.1,3.71,1.18,1.42-.11,5.58.59l1.43-.46c.77,1,2.13,1.26,3.07.6,1.77-1.24,2.68.75,5.4,1.55l2.69.79c1.35-.65,2.25.02,3.38.38l2.74.87,1.49.26,1.3.85c.54.35,1.27.46,1.86.7,2.39.96,5.44,2.42,7.36.14.68-.81,1.95-2.04,1.41-3.22-.37-.81-.6-1.54-.82-2.41-.26-1.06-1.2-2.26-.3-3.41.51-.65.9-1.46.71-2.41-.18-.89.47-1.32.73-2.01.17-.43.26-1.35.41-1.87l.84-2.97c.33-1.19.45-2.26.85-3.44.18-.55.37-1.24.48-1.8.2-1.08.58-1.92.92-2.94.82-2.48.93-4.35,1.53-6.35l.99-3.3c.42-1.4.74-2.94,1.5-4.2.59-.98.71-2.03.92-3.19,2.63-2.78.15-2.62,2.53-5.02.28-.28.38-1.14.36-1.52-.05-.98.79-1.59,1-2.27.36-1.14.56-2.1,1.27-3.07,1.03-1.41,1.77-2.85,2.41-4.46l.57-.87c.04-2.01,1.62-4.78,2.58-6.48.3-.53.55-1.18.9-1.69.75-1.09,1.55-2.12,2.21-3.25l1.68-2.88c1.43-.38,2.17,3.36,2.04,4.42-.11.89.75,1.19,1.05,1.87.65,1.48.25,2.35.86,4l.91,2.45.93,2.45.6,1.76c.2.58.35,1.44.61,1.93,1.64,3.03.88,2.63,1.86,4.88l.66,1.51c.25.57.55,1.16.72,1.79l.91,3.45c.17.65.24.99.66,1.46.65.71.53,1.97.87,2.77l.75,1.81c.82,1.99,1.14,3.91,1.79,5.92l.66,2.01c.2.61.39,1.52.69,1.98.5.77.73,1.36.88,2.18.66,3.42,1.48,1.76,1.71,6.77.06,1.33.92,2.82.27,4.16l-1.42,1c.48,1.32.94,2.65,1.35,4.01.12.03.23.06.36.1,2.88.84,3.45-.32,4,.32.62.73-.16.93.84,2.2.1.13-.02.53-.17.57l-2.72.74c-.45.12-.83.24-1.15.39.47,2.06.83,4.13,1.05,6.2.31.03.6.04.82,0,1.12-.21,2-.26,2.89.42.86-1.19,2.1-1.05,3.32-1.29.65-.13,1.28-.29,1.96-.28l4.54.07c.6,0,1.02.19,1.65.26l1.79.2c1.61.18,3.1.37,4.71.24,1.55-.13,6.11,1.53,9.04,1.47,1.54-.03,2.93.01,4.54.11,1.86.11,3.36-.59,5.47-.52.99.03,1.87-.14,2.81-.31l2.36-.42c.92-.16,2.24-.12,2.98-.56.64-.38,1.05-.65,1.77-.7l2.36-.14,2.01-.09c2.21-.1,4.01-.26,5.96.47.88.32,1.58.57,2.48-.08l2.7.6c.34.08,1.17-.07,1.46-.03,1.98.93,11.38,2.76,13.08,2.79.53,0,4.31-.6,4.63-.69,1.22-.37,1.92-.51,3.29-.42.69.04,1.76-.4,2.73-.23,0,0,0,0,0,0,1.07-1.61.79-1.56,2.21-3.48.45-.6,1.46-1.09,1.66-1.91.2-.85-.49-1.91-.97-2.58ZM124.79,52.6l-.81,3.08-.55,1.75c-.86,2.74.83,2.24-.27,5.15l-.62,4.25c-.05.31-.78.73-.74,1.01.28,1.65.88,1.16-.32,3.11-.07.12-.32.32-.43.4-.6.45-.71-1.92-.46-2.78.19-.63.4-1.16.33-1.71l-.28-2.39c-.07-.64-.02-1.28.02-1.93l.22-3.3c.14-2.13-.73-1.24.07-4.94-.35-2.57-.8-2.49.2-4.76.15-.34,1.12-.57,1.51-.48l2.03.47c.25,1.04.37,2.03.1,3.05ZM133.49,76.96l-3.22,2.56c-.08.79-.52,1.75-1.41,1.46-.33-.11-.05-.96.15-1.39.31-.67-.1-1.84.18-2.55.46-1.18,1.05-2.38,1.59-3.48l2.88,1.28c.36.16.77.89.82,1.36.03.29-.74.58-.98.77ZM160.09,44.34l3.6-.67c.17-.03.37.62.22.65-.99.17-2.64.52-3.67.57-2.8.12-.87.29-3.87.51-.16-1.86,2.9-.89,3.73-1.05ZM163.38,57.11l-2.06.54c-1.78.46-3.2,1.09-4.66,2.06-2.47,1.65-2.63.53-4.25,2.12-.56-1.2.72-1.74,1.08-2.54.37-.82.56-.8,1.29-1.17,1.24-.63,2.4-1.65,3.6-2.46.68-.46.91-1.08,1.04-2.02,1.67.02,5.5,0,6.88.76.44.04,1.12-.04,1.68.15-1.66,1.25-2.66,2.05-4.61,2.56ZM167.65,42.99c-.52-.77,5.84-.64,6.38-.41-.47.3-7.18,1.95-6.38.41ZM176.85,42.84c-.48.1-1.57-.27-2.04-.41-.44-.83,3.44-.94,3.88-.56l-1.84.97ZM153.38,148.86c.02.3-.01.73-.1.92l-.93,1.97c-.7-1.21.02-2.25,1.04-2.89ZM149.83,241.09c-.72,2.69-.54,3.26-2.29,3.44-3.79.38-1.31.78-5.84.46-.69-.05-1.87.05-2.44.26-.73.5-1.22.58-2.04.64-1.01.07-1.92.34-2.94-.07-.97-.38-2.06-.11-3.01-.24l-2.59-.36c-.24-.03-.64-.24-.76-.41-.15-.2-.07-.88.17-.95l.82-.24c.21-.06.2-.59.24-.94.12-1.01,1.67-1.68,2.47-.98.25.22.48.93.64,1.35,1.81.36,3.95.33,5.75-.31.79-.28,1.47-.51,2.27-.22,1.9.71,3.36.04,4.61-1.29.61-.65,1.81-.78,2.61-.82,2.11-.1,1.55-2.49,3.02-1.94l-.7,2.63ZM165.43,253.84c-.2.52-1.12.52-1.56.22-1.98-1.35-.13-1.05-2.53-2.24h1.2s3.72-.11,3.72-.11l-.83,2.13ZM166.19,223.94c-1.45,3.58-.17,2.38-1.37,5.37-.29.72-.36,1.39-1.34,1.57.3,1.6-.06,3.74-.46,5.36-.78,3.23.3,3.24,1.32,4.44.34.39-.8,3.02-1.18,3.63-3.06-.04-2.33.46-4.8-.76-.34-2.65.75-2.51.68-5.48,1.01-1.47,1.26-2.72,1.55-4.48.09-.57.4-1.18.55-1.71l1.18-4.24.64-1.89.75-2.05c.46-.39,1.5-1.02,2.07-1.33.19-.03.7.37.69.57-.02.26-.15.67-.29,1.02ZM165.79,194.44l-.63,2.35s-2,5.91-2.1,6.19l-1.05,2.82-1.78,4.39-.15,1.31-1.29,3.1c-.21.5-.28,1.2-.44,1.68l-1.02,2.98c-.35,1.01-.91,2.19-2.33,2.33-.35-.11-.01-.93.07-1.35l.29-1.44.9-2.79c.34-1.06.93-2.24.81-3.35-.08-.73,0-.98.43-1.5,1.09-1.29,1.37-2.99,1.76-4.61.26-.72.89-1.5,1.09-2.22l.89-3.22c.32-1.17,1.37-2.21,1.6-3.43.15-.79.41-1.38.63-2.13l.79-2.65c.49-1.65,2.06-4.38,2.63-6.21l1.12-3.54c.91-2.88,1.34-2.87,2.31-5.95.51-1.6.92-3.14,2.45-3.91.28,1.19-.51,2-.69,2.94-.18.98-.38,1.75-.86,2.61-.64,1.14-1,2.45-1.41,3.71l-.59,1.79c-.19.58-.41,1.4-.64,1.92-.6,1.36-1.1,2.54-1.4,4.03-.38,1.94-1.32,3.85-1.4,4.14ZM172.69,197.48l-.66,2.11-.61,1.96c-.37,1.18-.72,2.47-.94,3.67-.33,1.79-.29,3.51-1.49,5.02.27.78.12,1.84-1.08,1.92-.8.05,1.13-1.9.71-4.03l.63-1.63c-.06-1.32.22-2.33.88-3.42l.35-1.53.67-2.16c.16-.51.46-1.34.69-1.77l.92-1.68c.27.5.1,1.02-.07,1.56ZM178.77,105.1l-.67,2.23c-1.86,1.75-.31,2.39-1.76,3-.19.08-.68.45-.56.59l.56.68c.18.22-.14.8-.29,1.11l-.85,1.68c-.87,1.72-1.59,1.63-1.37,1.86l.38.39c.11.12.32.47.34.63.09.53-1.42-.06-1.49.64l-.08.78c-.67,1.88,1.39.66-.56,4.59l-1.21,2.43-.45,2.07c-.18.81-.58,1.62-.81,2.48-.65,1.01-1.03,2.02-1.36,3.29l-1.1,1.61c.04,2.8-.49,2.08-1.73,5.26l-2.32,5.93-.47,1.59-.74,2.07c-.13.37-.41.95-.55,1.25.05,1.69-.74,1.92-1.15,3.8-.22,1.03-.39,1.78-1.24,2.45l-.28,1.58c-1,.5-1.01,1.21-.99,2.3.02.63-.47,1.55-.66,2.25l-.38,1.37c-.24.86-.84,1.65-.96,2.62-.09.69-.67,1.24-1.09,1.86-.39.57-.33,1.71-.61,2.35l-.96,2.21c-1.46,3.34.01,1.62-1.82,4.74-.45.77.38,1.34-.53,3.25-.42.89-.65,1.64-1.66,2.36-.43-.68.55-3.81,1.08-4.26-.88-2.97.47-1.28.34-3.35-.08-1.29.23-2.41.77-3.48-.25-.75.04-1.35.23-2.05.39-1.48.57-2.92,1.29-4.32.44-.84.45-1.99.44-2.88,1.32-1.4,1.08-2.52,2.29-4.55.52-3.07,2.29-6.26,2.94-8.93l.77-3.15c.11-.44.5-1.27.74-1.7.76-1.32.71-2.8,1.22-4.17l1.2-3.22c.43-1.14.92-2.22,1.21-3.44l.45-1.88.71-.74c.15-1.33.56-2.51,1.14-3.71.3-.63.32-1.75.64-2.29l.86-1.43c-.58.96,2.49-6.38,2.53-6.46l1.11-2.19,1.27-3.5.86-1.56c.39-.71.35-1.61.74-2.29l.82-1.41c.31-.54.44-1.23.66-1.89.32-.97.86-1.92,1.33-2.87l2.03-.59c.44,1.05.05,1.95-.26,2.99ZM180.93,99.47c-.11.36-.8.79-1.17.71-.39-.71-.08-1.84.78-2.01.33.14.51.92.4,1.29ZM188.78,70.5c-.25.92-.1,1.98-.66,2.77l-1.41,1.98c-.21-.01-.9-.15-.91.02-.02.34.02.81-.05,1.02-.07.21-.6.4-.74.43.89-1.8-.05-1.54,1.15-3.68.33-.58.3-1.16.26-1.86-.04-.77.22-1.83.05-2.63-.21-.98-.88-2.09.01-2.86,1.2,1.2,2.57,1.29,2.94,2,.28.53-.41,1.91-.65,2.78ZM189.64,52.77c-.26.17-.97.12-1.25-.07-.28-.19-.5-.75-.64-1.25l-1.03-.59c.74-1,2.23-.96,3.24-.27.06.6-.06,1.61-.33,2.18ZM190.56,181.08c-.39-.56.68-3.1,1.4-3.35.33.71-.02,3.11-1.4,3.35ZM195.6,172.91c-.52.21-1.38,1.1-1.73,1.56-.49,1.24-.74,2.63-2.16,3.03.3-3.05,2.57-3.58,2.99-6.43l.94-1.16c.56-.02,1.41,0,1.79.14l1.3.99c1,.57-2.61,1.79-3.13,1.87ZM197.15,167.8c-.2-.04-.5-.5-.42-.69.17-.41,2.27-1.35,3.23-.91-.22.98-2.19,1.74-2.8,1.6ZM254.55,150.17c.26.05.36.64.4.97l.27,2.23c.02.15-.16.59-.23.69-.37.45-.52-1.63-2.01-3.19-.1-.1-.22-.58-.11-.65.54-.31,1.2-.14,1.67-.04ZM221.53,53.72l2.18-1.51c.2-.14,2.35-1.24,2.51-.82.07.17.2.57.22.75l.2,1.99c-1.76.16-2.82.82-3.9,2.06-.38.44-1.55,1.02-1.95.2-.32-.65.12-2.24.73-2.66ZM204.49,87.13c-.61.62.4,1.37-1.27,3.73.33,1.02.02,1.86-.54,2.77-.13.11-.42.33-.42.32l.22-4.07c.04-.76.37-1.77.49-2.57.32-2.14.65-4.14,1.2-6.24.48-1.84.66-.76,1.06-2.74-.14-1.21.21-2.36,1.02-3.29.8-.91.55-2.35.85-3.45l.74-2.66.96-3.33c.61-2.11.07-.94.72-3.48.15-.59.34-1.12.36-1.73.01-.4.12-1.39.51-1.53l2.48-.93c.24-.09.87-.17,1.01,0,.17.2.29.6.45,1.06.7,2,3.39,2.08,2.84,2.96l-1.01,1.6c-3.47,2.53-2.47,4.18-2.96,4.86-.64.88-1.31,1.89-1.84,2.81l-1.56,2.72c-.32.55-.59,1.02-.9,1.64l-1.08.58c.84,1.53-.59,1.74-1.14,3.45l-1.27,3.95c-1.01,3.16.92,1.7-.92,3.58ZM208.39,138.55c-.36-.41-.6-.74-.55-.98.05-.28.38-1,.66-1.01.39-.02.94.26,1.6.69l-1.71,1.31ZM214.77,180.7c.33,1.09.83,3.26-.51,3.66-1.23-2.11-1.73-3.53-2.28-5.84-.14-.59-.63-1.25-.53-1.93.19-1.27-.45-2.45-.44-3.6,0-.76.36-1.6-.04-2.44-.09-.19-.11-.79.02-.96.65-.82,1.64.26,3.22-1.65,1.17-.08,1.03,3.09.57,3.9l.53,1.68c-1.23,2.94.81,1.14-.34,5.04-.21.71-.39,1.53-.2,2.15ZM216.24,142.03c-.25.09-.91.06-.94,0l.19-1.92,1.47.42c.51.14.85.25,1.44.69l-2.15.81ZM222.32,203.86l-.77-1.48c-.35-.67-.69-1.49-.65-2.23l1.54-.86c.13.2.07.92.11,1.2.17,1.16.73,2.13-.23,3.37ZM225.09,144.7c-2.96.89-2.57,2.11-3.39,1.87-.76-.22.22-1.69-.26-3.78.36-.57,1.21-.05,1.74.02l4.54.59c.21.03.58.21.66.37.42.73-.93.21-3.29.93ZM231.12,128.47l-.15,1.35c-.13,1.18.38,2.64-.14,3.76l-.66,1.42c-.48,1.03-1.34,1.54-2.46,1.35l-2.77-.46c-.65-.11-1.32-.37-1.92-.54-1.14-.33-2.19-.24-3.11-1.13-1.24-1.21-2.19-.62-3.57-1.62l-2.33-1.68c-1.34-.97-7.16-3.06-7.5-5.22-.32-2.09-1.28-1.71-1.21-6.14.02-1.43-.27-2.99.01-4.32.33-.91.63-1.75.86-2.78.19-.82.93-1.72,1.08-2.61.15-.95.49-1.82,1.2-2.44,1.1-.98,1.39-2.43,2.16-3.61,2.55-3.91.62-1.44,2.54-5.05.64-1.2,1.11-3.71,1.78-5.67.46-1.32,1.27-2.46,1.34-3.93.04-.84.34-1.78.66-2.47l-1.07-1.28c-.68-.82-.33-1.36,0-2.14.7-1.63.93-3.26,2.18-4.86l1.38,2.62c2.59,4.91,2.39,2.9,4.15,3.88,1.57.87,2.11,1.21,2.19,3.43l.06,1.55c.03.72-.45,1.56-.08,2.44.12.29-.09,1-.17,1.24.44.6,1.11,3.94.87,4.56-1.21-.03-1.77.02-2.59.23l.6.59c.26.25,1.15-.87,1.98-.37.72.44-.2,1.42,1.6,4.46.6,1.01.53,2.36.26,3.52,2.8,3.4.45,4.15,1.51,5.17.84.81.54,1.5.63,2.49.31,3.27,1.03,2.98.49,5.6-.13.62.76,1.59-.33,2.3.9,1.17.72,2.55.12,3.8.59.79.49,1.61.38,2.56ZM232.93,67.22l-.11,2.75c-.48.57-2.08.59-2.71.03-.03-1.87.49-3.69.91-5.48.26-1.1.23-3.1,1.57-3.22.15-.01.26.43.24.61-.27,1.84.24,2.05.11,5.31ZM235.11,102.76c-.36-.83-.53-2-1.08-2.7-.65-.83-.67-1.38-.45-2.43.17-1.25-1.06-3.49-.45-4.06,1.15,1.88,1.35.98,3.23,2.01.14,2.4.18,2.15-.04,4.46-.38,4.13.54,1.4-.03,4.39-.05.24.34.78.25,1-.09.21-.35.53-.58.8-1.68-2.83.12-1.25-.86-3.47ZM236.07,217.66c.61,1.04.85,2.17.74,3.41-.68-1.07-.93-2.13-.74-3.41ZM236.28,224.61c-.09-.36.12-.97.6-1.15.31-.02.61.9.42,1.34-.11.25-.95.07-1.02-.19ZM238.47,233.99c-.23.46-1.08.9-1.91.87-.31-1.13.2-2.12.52-3.18-.07-.49-.33-1.39-.32-1.89l.02-1.79c0-.45.27-1.06.59-1.76.37.78.44,1.31.52,2.07l.38,3.58c.07.63.54,1.43.2,2.1ZM240.28,138.93c-.09.14-.45.37-.68.4l-2.88.33c-.13-.39-.13-1.25.13-1.75.52-.04,3.99.1,3.43,1.02ZM239.62,51.9c-.53-.14-1.31-.84-1.69-1.24-.2-.21-.03-.9.05-1.3.05-.26-.46-.55-.9-.73-.48-.2-.44-1.5-.16-1.99.26-.44,1.36-.93,1.75-.59.67.58.76,1.7,1,2.45l.93,2.9c-.05.24-.73.57-.99.5ZM239.46,32.75c.55-.19,1.34-.29,1.68-.55,2.08-1.54,1.14.29,3.48-1.22.22-.14.79-.12.96.09.15.7-5.65,2.59-6.13,1.67ZM248,30.34l1.07-.47,3.97-.82c.52-.11.69.93.58,1.33-.38,1.35-3.07.88-3.88.81-1.23-.1-2.32-.08-3.61-.09.56-.41,1.29-.5,1.87-.75ZM250.96,122.35l-.43,1.98c-.21.97-.14,1.97.27,2.81-.34,1.05-.25,4.6-.02,5.77.15.74-.07,1.55-.79,1.63-.61-.71-.53-1.83-.34-2.74l.35-1.63c-1.13-.98-.89-2.13-.73-3.45.1-.84-.48-2.2-.46-3.02,0-.25.28-.85.36-1.08.09-.26-.56-.69-.58-.99l-.22-3.34c-.04-.66.17-1.48.27-2.1l1.59.37c1.33.8,1.12,2.3.82,3.54-.04.66.04,1.6-.1,2.26ZM247.85,182.25c-.22-.82-.43-1.47-.39-2.47.04-.97-.72-2.11.25-3.06,1.02,2.66.51,2.78,1.35,6.04.29,1.14.66,2.33-.11,3.61-1.59-.82-.76-2.85-1.1-4.11ZM257.21,223.87c-.25.61-1.02.75-1.65.98-1.08.4-1.5,1.83-2.36,1.53-.9-.31.4-1.07-.63-3.68-.21-.53-.59-1.31-.69-1.82l-.47-2.32c-.05-.23.06-.81.04-1.03-.08-.96-.48-2.14-.5-3.13-.02-1.93-.32-3.65-.55-5.52l-.44-3.61c-.31-2.56-.12-2.67-.61-5.35-.15-.81-.05-1.81-.13-2.68-.35-3.8-.6-2.22-.85-5.93-.06-.97-.23-4.62.7-4.9.63.18.75.98.94,1.51.62,1.68,1.18,3.37,1.3,5.19.1,1.49.55,2.62,1.01,4.06.17.53.54,4.65,1.31,6.04l.78,5.71c.22,1.63.29,3.14.94,4.73.13.32.06,1.03.12,1.39l1.22,6.9c.1.57.75,1.33.5,1.94ZM260.29,101.44c-.26-1.23-1.15-2.62-.5-4,.68-.23,2.25.26,2.45,1.19.16.73.1,3.6-.11,4.29.37.62.89,2.28.36,2.79-.22.21-1.12.31-1.15.02-.26-2.01-.43-1.36-1.05-4.29ZM262.08,110.96l-.57-1.99c-.19-.66-.37-2.38.62-2.4,1.21-.02.74,1.78.76,2.48l.07,2.36c.01.42-.01.99-.04,1.33-1.14-.35-.65-1.13-.84-1.78ZM262.54,254.28c.37-1.07,1.61-1.18,2.57-.36l-2.57.36ZM273.02,186.79c.1-.14.65.02.75.18.42.67.58,2.09.18,2.55-.08.1-.35-.19-.42-.3l-.59-1.8c-.05-.16-.02-.49.08-.63ZM271.2,253.84c-.94.19-1.21,1.36-3.74-.74l4.89-.23c1.44-.07,2.91-.75,4.4.16-1.89.81-3.77.44-5.56.8ZM285.36,220.79c-.94-.71-1.25-1.67-1.63-2.71l-.71-1.99c-.19-.54-.56-1.17-.85-1.65-.13-1.01-.23-2.1-.94-2.91-.64-.73-.49-1.99-.9-2.74-.48-.87-.84-1.64-1.29-2.59-1.34-2.81-3.11-4.47-3.56-8.61-.06-.53-.66-1.44-.67-1.93-.01-.62-.02-1.14-.08-1.71l-.25-2.32c1.39,1.02,1.65,2.45,2.06,3.99.22.8.93,1.8,1.01,2.6.14,1.29.46,2.11,1.28,3.05.17,1.21.72,2.89,1.19,4.02l1.37,3.28c.47,1.13.59,2.29,1.38,3.34.46.61.44,1.65.68,2.33.43,1.26.89,2.45,1.41,3.63.41.93.76,1.75.5,2.91Z"/>
    <path class="cls-1" d="M153.35,174.05c-1.46,3.34.01,1.62-1.82,4.74-.45.77.38,1.34-.53,3.25-.42.89-.65,1.64-1.66,2.36-.43-.68.55-3.81,1.08-4.26-.88-2.97.47-1.28.34-3.35-.08-1.29.23-2.41.77-3.48-.25-.75.04-1.35.23-2.05.39-1.48.57-2.92,1.29-4.32.44-.84.45-1.99.44-2.88,1.32-1.4,1.08-2.52,2.29-4.55.52-3.07,2.29-6.26,2.94-8.93l.77-3.15c.11-.44.5-1.27.74-1.7.76-1.32.71-2.8,1.22-4.17l1.2-3.22c.43-1.14.92-2.22,1.21-3.44l.45-1.88.71-.74c.15-1.33.56-2.51,1.14-3.71.3-.63.32-1.75.64-2.29l.86-1.43c-.58.96,2.49-6.38,2.53-6.46l1.11-2.19,1.27-3.5.86-1.56c.39-.71.35-1.61.74-2.29l.82-1.41c.31-.54.44-1.23.66-1.89.32-.97.86-1.92,1.33-2.87l2.03-.59c.44,1.05.05,1.95-.26,2.99l-.67,2.23c-1.86,1.75-.31,2.39-1.76,3-.19.08-.68.45-.56.59l.56.68c.18.22-.14.8-.29,1.11l-.85,1.68c-.87,1.72-1.59,1.63-1.37,1.86l.38.39c.11.12.32.47.34.63.09.53-1.42-.06-1.49.64l-.08.78c-.67,1.88,1.39.66-.56,4.59l-1.21,2.44-.45,2.07c-.18.81-.58,1.62-.81,2.48-.65,1.01-1.03,2.02-1.36,3.29l-1.1,1.61c.04,2.8-.49,2.08-1.73,5.26l-2.32,5.93-.47,1.59-.74,2.07c-.13.37-.41.95-.55,1.25.05,1.69-.74,1.92-1.15,3.8-.22,1.03-.39,1.78-1.24,2.45l-.28,1.58c-1,.5-1.01,1.21-.99,2.3.02.63-.47,1.55-.66,2.25l-.38,1.37c-.24.86-.84,1.65-.96,2.62-.09.69-.67,1.24-1.09,1.86-.39.57-.33,1.71-.61,2.35l-.96,2.21Z"/>
    <path class="cls-1" d="M177.64,25.83c-1.28.08-2.5.72-3.81.18.97-1.01,2.25-.72,3.35-.55,1.3.21,2.43-.91,3.61-.89l3.37.03c.65,0,1.38.13,2-.14,4.68-2.09,5.75.02,10.4-1.66.74-.27,3.18-.67,4.27.03.88.57,1.09-.1,1.72-.39,1.03-.49,2.51-.06,3.63-.13l2.76-.16c1.22-.07,2.49-.57,3.84-.69l2.09-.18c.67-.06,8.57-.17,10.03-.57.66-.18,1.73-.01,2.45-.12,1.03-.15,1.92-.31,2.95.05-1.4.37-2.42.63-3.64,1.02-1.54.5-3.07.74-4.7,1.06-2.51.49-1.22,1.04-3.72,1.3-1.94.2-3.95.44-5.79.99-.72.21-1.09.28-1.86.36l-3.77.41c-1.25.14-2.21.06-3.46.51-2.02.73-3.71-.22-6.02.5-.7.22-1.47-.09-2.21-.04l-3.97.28-3.86-.25c-.6-.04-1.38-.39-2.08-.34-1.75.11-2.67-.9-7.59-.59Z"/>
    <path class="cls-1" d="M253.21,226.38c-.9-.31.4-1.07-.63-3.68-.21-.53-.59-1.31-.69-1.82l-.47-2.32c-.05-.23.06-.81.04-1.03-.08-.96-.48-2.14-.5-3.13-.02-1.93-.32-3.65-.55-5.52l-.44-3.61c-.31-2.56-.12-2.67-.61-5.35-.15-.81-.05-1.81-.13-2.68-.35-3.8-.6-2.22-.85-5.93-.06-.97-.23-4.62.7-4.9.63.18.75.98.94,1.51.62,1.68,1.18,3.37,1.3,5.19.1,1.49.55,2.62,1.01,4.06.17.53.54,4.65,1.31,6.04l.78,5.71c.22,1.63.29,3.14.94,4.73.13.32.06,1.03.12,1.39l1.22,6.9c.1.57.75,1.33.5,1.94s-1.02.75-1.65.98c-1.08.4-1.5,1.83-2.36,1.53Z"/>
    <path class="cls-1" d="M204.49,87.13c-.61.62.4,1.37-1.27,3.73.33,1.02.02,1.86-.54,2.77-.13.11-.42.33-.42.32l.22-4.07c.04-.76.37-1.77.49-2.57.32-2.14.65-4.14,1.2-6.24.48-1.84.66-.76,1.06-2.74-.14-1.21.21-2.36,1.02-3.29s.55-2.35.85-3.45l.74-2.66.96-3.33c.61-2.11.07-.94.72-3.48.15-.59.34-1.12.36-1.73.01-.4.12-1.39.51-1.53l2.48-.93c.24-.09.87-.17,1.01,0,.17.2.29.6.45,1.06.7,2,3.39,2.08,2.84,2.96l-1.01,1.6c-3.47,2.53-2.47,4.18-2.96,4.86-.64.88-1.31,1.89-1.84,2.81l-1.56,2.72c-.32.55-.59,1.02-.9,1.64l-1.08.58c.84,1.53-.59,1.74-1.14,3.45l-1.27,3.95c-1.01,3.16.92,1.7-.92,3.58Z"/>
    <path class="cls-1" d="M155.01,221.6c-.35-.11-.01-.93.07-1.35l.29-1.44.9-2.79c.34-1.06.93-2.24.81-3.35-.08-.73,0-.98.43-1.5,1.09-1.29,1.37-2.99,1.76-4.61.26-.72.89-1.5,1.09-2.22l.89-3.22c.32-1.17,1.37-2.21,1.6-3.43.15-.79.4-1.38.63-2.13l.79-2.65c.49-1.65,2.06-4.38,2.63-6.21l1.12-3.54c.91-2.88,1.34-2.87,2.31-5.95.51-1.6.92-3.14,2.45-3.91.28,1.19-.51,2-.69,2.94s-.38,1.75-.86,2.61c-.64,1.14-1,2.45-1.41,3.71l-.59,1.79c-.19.58-.41,1.4-.64,1.92-.6,1.36-1.1,2.54-1.4,4.03-.38,1.94-1.32,3.85-1.4,4.14l-.63,2.35s-2,5.91-2.1,6.19l-1.05,2.82-1.78,4.39-.15,1.31-1.29,3.1c-.21.5-.28,1.2-.44,1.68l-1.02,2.98c-.35,1.01-.91,2.19-2.33,2.33Z"/>
    <path class="cls-1" d="M163.16,244.31c-3.06-.04-2.33.46-4.8-.76-.34-2.65.75-2.51.68-5.48,1.01-1.47,1.26-2.72,1.55-4.48.09-.57.4-1.18.55-1.71l1.18-4.24.64-1.89.75-2.05c.46-.39,1.5-1.02,2.07-1.33.19-.03.7.37.68.57-.02.26-.15.67-.29,1.02-1.45,3.58-.17,2.38-1.37,5.37-.29.72-.36,1.39-1.34,1.57.3,1.6-.06,3.74-.46,5.36-.78,3.23.3,3.24,1.32,4.44.34.39-.8,3.02-1.18,3.63Z"/>
    <path class="cls-1" d="M128.69,245.22c-.24-.03-.64-.24-.76-.41-.15-.2-.07-.88.17-.95l.82-.24c.21-.06.2-.59.24-.94.12-1.01,1.67-1.68,2.47-.98.25.22.48.93.64,1.35,1.81.36,3.95.33,5.75-.31.79-.28,1.47-.51,2.27-.22,1.9.71,3.36.04,4.61-1.29.61-.65,1.81-.78,2.61-.82,2.11-.1,1.55-2.49,3.02-1.94l-.7,2.63c-.72,2.69-.54,3.26-2.29,3.44-3.79.38-1.31.78-5.84.46-.69-.05-1.87.05-2.44.26-.73.5-1.22.58-2.04.64-1.01.07-1.92.34-2.94-.07s-2.06-.11-3.01-.24l-2.59-.36Z"/>
    <path class="cls-1" d="M121.04,71.35c-.6.45-.71-1.92-.46-2.78.19-.63.39-1.16.33-1.71l-.28-2.39c-.07-.64-.02-1.28.02-1.93l.22-3.3c.14-2.13-.73-1.24.07-4.94-.35-2.57-.8-2.49.2-4.76.15-.34,1.12-.57,1.51-.48l2.03.47c.25,1.04.37,2.03.1,3.05l-.81,3.08-.55,1.75c-.86,2.74.83,2.24-.27,5.15l-.62,4.25c-.05.31-.78.73-.74,1.01.28,1.65.88,1.16-.32,3.11-.07.12-.32.32-.43.4Z"/>
    <path class="cls-1" d="M214.77,180.7c.33,1.09.83,3.26-.51,3.66-1.23-2.11-1.73-3.53-2.28-5.84-.14-.59-.63-1.25-.53-1.93.19-1.27-.45-2.45-.44-3.6,0-.76.36-1.6-.04-2.44-.09-.19-.11-.79.02-.96.65-.82,1.64.26,3.22-1.65,1.17-.08,1.03,3.09.57,3.9l.53,1.68c-1.23,2.94.81,1.14-.34,5.04-.21.71-.39,1.53-.2,2.15Z"/>
    <path class="cls-1" d="M161.32,57.65c-1.78.46-3.2,1.09-4.66,2.06-2.47,1.65-2.63.53-4.25,2.12-.56-1.2.72-1.74,1.08-2.54s.56-.8,1.29-1.17c1.24-.63,2.4-1.65,3.6-2.46.68-.46.91-1.08,1.04-2.02,1.67.02,5.5,0,6.88.76.44.04,1.12-.04,1.68.15-1.66,1.25-2.66,2.05-4.61,2.56l-2.06.54Z"/>
    <path class="cls-1" d="M285.36,220.79c-.94-.71-1.25-1.67-1.63-2.71l-.71-1.99c-.19-.54-.56-1.17-.85-1.65-.13-1.01-.23-2.1-.94-2.91-.64-.73-.49-1.99-.9-2.74-.48-.87-.84-1.64-1.29-2.59-1.34-2.81-3.11-4.47-3.56-8.61-.06-.53-.66-1.44-.67-1.93-.01-.62-.02-1.14-.08-1.71l-.25-2.32c1.39,1.02,1.65,2.45,2.07,3.99.22.8.93,1.8,1.01,2.6.14,1.29.46,2.11,1.28,3.05.17,1.21.72,2.89,1.19,4.02l1.37,3.28c.47,1.13.59,2.3,1.38,3.34.46.61.44,1.65.67,2.33.43,1.26.89,2.45,1.41,3.63.41.93.76,1.75.5,2.91Z"/>
    <path class="cls-1" d="M250.79,132.91c.15.74-.07,1.55-.79,1.63-.61-.71-.53-1.83-.34-2.74l.35-1.63c-1.13-.98-.89-2.13-.73-3.45.1-.84-.48-2.2-.46-3.02,0-.25.28-.85.36-1.08.09-.26-.56-.69-.58-.99l-.22-3.34c-.04-.66.17-1.48.27-2.1l1.59.37c1.33.8,1.12,2.3.82,3.54-.04.66.04,1.6-.1,2.26l-.43,1.98c-.21.97-.14,1.97.27,2.81-.35,1.05-.25,4.6-.02,5.77Z"/>
    <path class="cls-1" d="M236.31,104.43c-.05.24.34.78.25,1s-.35.53-.58.8c-1.68-2.83.12-1.25-.86-3.47-.36-.83-.53-2-1.08-2.7-.65-.83-.67-1.38-.45-2.43.17-1.25-1.06-3.49-.45-4.06,1.15,1.88,1.35.98,3.23,2.01.14,2.4.18,2.15-.04,4.46-.38,4.13.54,1.4-.03,4.39Z"/>
    <path class="cls-1" d="M185.8,75.28c-.02.34.02.81-.05,1.02s-.6.4-.74.43c.89-1.8-.05-1.54,1.15-3.68.33-.58.3-1.16.26-1.86-.04-.77.22-1.83.05-2.63-.21-.98-.88-2.09.01-2.86,1.2,1.2,2.57,1.29,2.94,2,.28.53-.41,1.91-.65,2.78-.25.92-.1,1.98-.66,2.77l-1.41,1.98c-.21-.01-.9-.15-.91.02Z"/>
    <path class="cls-1" d="M130.27,79.51c-.08.79-.52,1.75-1.41,1.46-.33-.11-.05-.96.15-1.39.31-.67-.1-1.84.18-2.55.46-1.18,1.05-2.38,1.59-3.48l2.88,1.28c.36.16.77.89.82,1.36.03.29-.74.58-.98.77l-3.22,2.56Z"/>
    <path class="cls-1" d="M232.82,69.97c-.48.57-2.08.59-2.71.03-.03-1.87.49-3.69.91-5.48.26-1.1.23-3.1,1.57-3.22.15-.01.26.43.24.61-.27,1.84.24,2.05.11,5.31l-.11,2.75Z"/>
    <path class="cls-1" d="M222.74,56.19c-.38.44-1.55,1.02-1.95.2-.32-.65.12-2.24.73-2.66l2.18-1.51c.2-.14,2.35-1.24,2.51-.82.07.17.2.57.22.75l.2,1.99c-1.76.16-2.82.82-3.9,2.06Z"/>
    <path class="cls-1" d="M262.13,102.91c.37.62.89,2.28.36,2.79-.22.21-1.12.31-1.15.02-.26-2.01-.43-1.36-1.05-4.29-.26-1.23-1.15-2.62-.5-4,.68-.23,2.25.26,2.45,1.19.16.73.1,3.6-.11,4.29Z"/>
    <path class="cls-1" d="M167.91,212.16c-.8.05,1.13-1.9.71-4.03l.63-1.63c-.06-1.32.21-2.33.88-3.42l.35-1.53.67-2.16c.16-.51.46-1.34.69-1.77l.92-1.68c.27.5.1,1.02-.07,1.56l-.66,2.11-.61,1.96c-.37,1.18-.72,2.47-.94,3.67-.33,1.79-.29,3.51-1.49,5.02.27.78.12,1.84-1.08,1.92Z"/>
    <path class="cls-1" d="M195.6,172.91c-.52.21-1.38,1.1-1.73,1.56-.49,1.24-.74,2.63-2.16,3.03.3-3.05,2.57-3.58,2.99-6.43l.94-1.16c.56-.02,1.41,0,1.79.14l1.3.99c1,.57-2.61,1.79-3.13,1.87Z"/>
    <path class="cls-1" d="M225.09,144.7c-2.96.89-2.57,2.11-3.39,1.87-.76-.22.22-1.69-.26-3.78.36-.57,1.21-.05,1.74.02l4.54.59c.21.03.58.21.66.37.42.73-.93.21-3.29.93Z"/>
    <path class="cls-1" d="M239.62,51.9c-.53-.14-1.31-.84-1.69-1.24-.2-.21-.03-.9.05-1.3.05-.26-.46-.55-.9-.73-.48-.2-.44-1.5-.16-1.99.26-.44,1.36-.93,1.75-.59.67.58.76,1.7,1,2.45l.93,2.9c-.05.24-.73.57-.99.5Z"/>
    <path class="cls-1" d="M236.56,234.86c-.31-1.13.2-2.12.52-3.18-.07-.49-.33-1.39-.32-1.89l.02-1.79c0-.45.27-1.06.59-1.76.37.78.44,1.31.52,2.07l.38,3.58c.07.63.54,1.43.2,2.1-.23.46-1.08.9-1.91.87Z"/>
    <path class="cls-1" d="M246.13,31.1c.56-.41,1.29-.5,1.87-.75l1.07-.47,3.97-.82c.52-.11.69.93.58,1.33-.38,1.35-3.07.88-3.88.81-1.23-.1-2.32-.08-3.61-.09Z"/>
    <path class="cls-1" d="M248.94,186.37c-1.59-.82-.76-2.85-1.1-4.11-.22-.82-.43-1.47-.39-2.47.04-.97-.72-2.11.25-3.06,1.02,2.66.51,2.78,1.35,6.04.29,1.14.66,2.33-.11,3.61Z"/>
    <path class="cls-1" d="M271.2,253.84c-.94.19-1.21,1.36-3.74-.74l4.89-.23c1.44-.07,2.91-.75,4.4.16-1.89.81-3.77.44-5.56.8Z"/>
    <path class="cls-1" d="M165.43,253.84c-.2.52-1.12.52-1.56.22-1.98-1.35-.13-1.05-2.53-2.24h1.2s3.72-.11,3.72-.11l-.83,2.13Z"/>
    <path class="cls-1" d="M262.96,111.41c.01.42-.01.99-.04,1.33-1.14-.35-.65-1.13-.84-1.78l-.57-1.99c-.19-.66-.37-2.38.62-2.4,1.21-.02.74,1.78.76,2.48l.07,2.36Z"/>
    <path class="cls-1" d="M189.64,52.77c-.26.17-.97.12-1.25-.07s-.5-.75-.64-1.25l-1.03-.59c.74-1,2.23-.96,3.24-.27.06.6-.06,1.61-.33,2.18Z"/>
    <path class="cls-1" d="M222.32,203.86l-.77-1.48c-.35-.67-.69-1.49-.65-2.23l1.54-.86c.13.2.07.92.11,1.2.17,1.16.73,2.13-.23,3.37Z"/>
    <path class="cls-1" d="M174.03,42.58c-.47.3-7.18,1.95-6.38.41-.52-.77,5.84-.64,6.38-.41Z"/>
    <path class="cls-1" d="M165.49,63.24c-1.88.63-3.26,1.37-4.65,2.81h-1.79s1.69-1.98,1.69-1.98l3.38-.69c1.13-.78,2.1-1.51,3.75-1.5-.1.43-.53.74-.99.89l-1.4.47Z"/>
    <path class="cls-1" d="M239.6,139.33l-2.88.33c-.13-.39-.13-1.25.13-1.75.52-.04,3.99.1,3.43,1.02-.09.14-.45.37-.68.4Z"/>
    <path class="cls-1" d="M255.23,153.37c.02.15-.16.59-.23.69-.37.45-.52-1.63-2.01-3.19-.1-.1-.22-.58-.11-.65.54-.31,1.2-.14,1.67-.04.26.05.36.64.4.97l.27,2.23Z"/>
    <path class="cls-1" d="M160.23,44.88c-2.8.12-.87.29-3.87.51-.16-1.86,2.9-.89,3.73-1.05l3.6-.67c.17-.03.37.62.22.65-.99.17-2.64.52-3.67.57Z"/>
    <path class="cls-1" d="M239.46,32.75c.55-.19,1.34-.29,1.68-.55,2.08-1.54,1.14.29,3.48-1.22.22-.14.79-.12.96.09.15.7-5.65,2.59-6.13,1.67Z"/>
    <path class="cls-1" d="M218.39,141.22l-2.15.81c-.25.09-.91.06-.94,0l.19-1.92,1.47.42c.51.14.85.25,1.44.69Z"/>
    <path class="cls-1" d="M199.95,166.2c-.22.98-2.19,1.74-2.8,1.6-.2-.04-.5-.5-.42-.69.17-.41,2.27-1.35,3.23-.91Z"/>
    <path class="cls-1" d="M190.56,181.08c-.39-.56.68-3.1,1.4-3.35.33.71-.02,3.11-1.4,3.35Z"/>
    <path class="cls-1" d="M176.85,42.84c-.48.1-1.57-.27-2.04-.41-.44-.83,3.44-.94,3.88-.56l-1.84.97Z"/>
    <path class="cls-1" d="M210.09,137.25l-1.71,1.31c-.36-.41-.6-.74-.55-.98.05-.28.38-1,.66-1.01.39-.02.94.26,1.6.69Z"/>
    <path class="cls-1" d="M273.78,186.97c.42.67.58,2.09.18,2.55-.08.1-.35-.19-.42-.3l-.59-1.8c-.05-.16-.02-.49.08-.63s.65.02.75.18Z"/>
    <path class="cls-1" d="M179.76,100.18c-.39-.71-.08-1.84.78-2.01.33.14.51.92.4,1.29s-.8.79-1.17.71Z"/>
    <path class="cls-1" d="M153.28,149.78l-.93,1.97c-.7-1.21.02-2.25,1.04-2.89.02.3-.01.73-.1.92Z"/>
    <path class="cls-1" d="M158.16,66.25c-.62,1.09-1.55,1.61-2.74,1.46.75-.71,1.69-1.27,2.74-1.46Z"/>
    <path class="cls-1" d="M236.81,221.08c-.68-1.07-.93-2.13-.74-3.41.61,1.04.85,2.17.74,3.41Z"/>
    <path class="cls-1" d="M237.29,224.8c-.11.25-.95.07-1.02-.19-.09-.36.12-.97.6-1.15.31-.02.61.9.42,1.34Z"/>
    <path class="cls-1" d="M265.11,253.92l-2.57.36c.37-1.07,1.61-1.18,2.57-.36Z"/>
  </g>
</svg>