<?xml version="1.0" encoding="UTF-8"?>
<svg id="Layer_2" data-name="Layer 2" xmlns="http://www.w3.org/2000/svg" viewBox="0 0 432 288">
  <defs>
    <style>
      .cls-1 {
        fill: #fff;
      }
    </style>
  </defs>
  <path class="cls-1" d="M-2.11,288V0h432v288H-2.11ZM223.51,114.03c-2.19-2.37-1.27-2.22-1.71-4.51-.12-.64-.77-1.4-1.26-1.48-1.33-.23-3.03,1.11-2.93,3.33.17,3.78-.6,5.95-.56,10.1l-2.41-.84c-2.6-.91-3.38,2.01-5.84,2.87l-.91-4.62c-.09-.46-.52-1.03-.88-1.18-1.58-.64-2.56,1.08-3.6,2.15l-.68-1.05c-1.28-.69-2.55.28-3.7.88-2.66,1.36-1.23,2.61-1.13,5.6.1,3.09.09,6.06,0,9.13-.04,1.29-.23,2.45.2,3.75.33.98,2.93.36,3.4-.31,1.27-1.8-.58-5.48.57-8.24,1.33,2.78,1.73,5.56,2.02,8.49.11,1.08.09,2.57.56,3.41l3.22.97c.74.22,2.31-.18,2.97-.65,1.67-3.53-.18-5.55.75-8.68.77-.3,2.5-.03,2.98.64,1.31,1.83,1.48,3.92,1.67,6.06.06.66.43,1.06.97,1.45,1.11.81,3.04.77,3.61-.77,1.33-3.52-1.37-9.07.12-12.48l1.58,1.68c1.19.08,2.31.42,3.16,1.28l2.51-.69.74-3.14c.02-.1.26-.42.31-.5.63-.98.94,4.87,1.01,5.22.29,1.5.53,2.69.63,4.19l.21,3.13c.16,2.39.22,4.67.11,7.04,2.21,3.58.45,2.06,1.44,8.08l.41,2.46,1.03,8.11.22,1.76c1.07.75,2.81.79,3.58-.43,1.32-2.08,0-5.21.81-7.13,1.12,1.75.57,3.55.83,5.3.29,1.95.37,3.79.5,5.75l.19,2.86c.07,1.07,1.32,1.01,1.97,1.38,1.01.57-.01,2.1.24,2.85.48,1.38.6,2.53.76,3.97.23,2.17,1.65,5.17.1,6.55-.24-.09-.57-.74-.46-.98.41-.91-.14-1.9-.37-2.82-.27-1.11-.79-6.71-2.79-5.78-1.52.71-1.96,3.58-1.74,4.57.36,1.64.73,3.23.53,4.81-2.65,1.55-2.69,4.06-2.3,6.65.34,2.25.3,4.46.81,6.71,1.05,4.67.43,6.04,1.57,9.98,1.14.06,2.16-.12,3.09-.62l.99-1.4c.12-.17.82-.16.9.03.06.14.2.52.21.68.09,3.84-.31,3.82.81,7.72l1.8.99.42,5.64c.11,1.47.08,2.84-.02,4.31l-.23,3.6c-.03.49.37,1.5.24,1.97l-1.09,3.82c-.45,1.57-.39,2.97-.29,4.58l.48,7.71c.13,2.03.1,4.23.88,6.1,1.06,2.55,1.77,4.95,1.62,7.77-.06,1.05.14,2.25.17,3.32.06,2.23.28,4.24.86,6.37.45,1.67.16,3.64,1.34,3.89.93.2,3.09-.27,3.09-2.1.02-9.32.36-11.6-1.93-20.73-1.21-4.83.04-5.65-2.39-12.1-.75-1.99.38-4.04.4-6.04l.18-15.55c.01-1.02.03-1.92,0-2.94l-.21-9.46c-.04-1.71-.38-3.36-.8-5.02-.2-.8-1.47-1.43-1.99-1.95-.89-.9-.23-2.19-.27-3.26-.05-1.36-.44-2.69-.68-4.03l-.65-3.75c-.18-1.05-.5-1.98-.13-3.06s.1-2.02.13-3.12l.04-2.22c.03-1.44-.3-2.54-.21-3.98.15-2.22-1.36-3.07.71-5.18v-2.11c-.03-3.38-.83-2.57-.85-5.88l-.07-11.27c0-1.09-.6-6.5-2.35-6.84-1.36-.27-2.14,1.14-2.76,2.07l-2.01.96c-.42.2-1.35.31-1.54-.09-.31-.66-.86-1.4-.99-1.92-1.35-5.28-1.21-4.97-1.44-10.27-.09-2.12-.17-4.01-.53-6.12-.06-.38.13-1.12.35-1.37.73.49,1.34,1,1.88.99.57-.01,1.37-.37,1.72-.75l2.04-2.22c.07-1.17.06-2.9-.52-4-.52-.99-.34-1.66-.42-2.66l-.42-5.39-.25-4.28c-.09-1.5-.59-2.83-1.81-3.76-.16-.84-.25-1.8-.54-2.56-.38-1.02-1.37-2.07-.94-3.23.73-1.93,1.09-3.87.47-5.95-1.17-3.91-.78-5.96-1.26-10.27-.22-1.98-.06-3.9-.03-5.91.04-2.93-.54-5.84-.74-8.83-.09-1.42-.28-2.88-1.43-3.83-1.39-1.15-2.53,1.48-2.85,1.04-.51-.68-.34-2.56-1.03-4.86-.27-.91-1.35-1.66-2.15-1.13-.41.27-1.49.69-1.58.28-.08-.65-.07-1.22-.24-1.52s-1.02-.58-1.25-.86c-.82-.99-.44-2.89.55-3.79.08-1.03.13-2.25-.02-3.24-.2-1.35,0-2.55-.02-3.88l-.07-3.25c-.04-1.76-.02-3.6-.2-5.39-.16-1.59-.7-3.18-.65-4.79.06-2.12-2.03-1.97-3.35-3.25-1.06-1.03-2.51-.72-3.31.31-.19.24-1.04.4-1.19.15-.59-.96.21-2.2-.57-3.41-.83-1.29-2.53-.35-3.02-2s-.69-3.27-1.33-4.72l-1.84-4.19c-1.27-2.89-.55-6.05-2.58-9.88-.43-.81-2.46-.93-3.09-.4-.96.82-.82,2.24-1.23,3.35-1.46,4-.17,5.54-.9,6.61-.1.15-.63-.01-.77-.14-1.4-1.29-.91-3.3-3.36-6.72-.87-1.22-3.16-.71-3.74.51l-.26,2.03c-.34.41-1.31,1.09-1.39,1.59-.72,4.56.09,2.39-.29,6.21-.11,1.1.08,2.41-.6,3.35-.38.5-1.87.57-2.51.38l-.51-2.73c-.09-.49-1.14-.89-1.6-.8-2.12.42-.91,1.45-3.5,1.84-.86.13-2.62.92-2.47,1.99l.41,2.89c.25,1.8.33,3.48.4,5.3l.17,3.91c-.59-1.02-1.11-1.68-2.34-1.48l-.15-3.51c-.02-.59-.77-1.38-1.27-1.5-1.41-.34-1.79,1.72-2.68,1.1-1.07-.74.11-2.42-1.2-4.77-.18-.31-.59-.66-.86-.72s-.89.23-1.07.47c-2.16,3-3.14,1.71-2.68,4.42.15.89-.03,2.1.21,2.92.51,1.69.74,3.18.94,4.9l.49,4.1.05,3.32.44,5.54c.06.76.51,1.87.29,2.5l-.33.95c-.07.19.55.52.62.72.41,1.18.44,2.69.67,3.88l1.06,5.35,3.51.09c.97.83.19,2.48.47,3.46l.69,2.39c4.33.92,2.63-1.98,5.69-1.7l-.94,4.74c-.38,1.91.4,4.44-.88,5.98-.3-.21-.61-.64-.65-.91l-.45-3.06c-.11-.73-.59-2.17-1.66-1.89-1.79.47-5.39,2.12-4.98,4.6.79,2.2,1.17,4.14,1.42,6.5l.51,4.8c.28,2.67.45,5.23.34,7.95-.03.82.01,1.64.55,2.16.44.42,1.09.69,1.87.67,2.12-.06.72,4.82,1.32,6.45.68.97,2.91.7,3.43-.32.33-.66.5-.98.96-1.52l.59,5.76.75,4.14.74,5.76c.24,1.91.27,3.98.24,5.93l-.05,3.24c1.38.65,3.04.52,4.15-.38l.09-8.13c.02-1.4-.28-2.74-.4-4.11l-.47-5.29-.24-7.34c-.02-.54-.59-3.97.24-4.24.2-.07.75.2.85.43,1.34,3-.52,3.25,1.48,5.4l1.1,2.59c.57-.63.6-1.17.53-1.82l-.3-2.67-.16-3.33c-.1-2.2-.75-4.18-.85-6.43-.04-.83-1.3-1.17-1.97-1.59-.48-1.93-.43-4.15-.66-6.12l-.5-4.33c-.09-.75-.03-1.43-.16-2.14-.3-1.64-.53-3.17-.67-4.85-.35-4.16-.76-8.24-1.39-12.31-.21-1.36-.39-2.22.06-3.64.07-.23.59-3.78-.51-3.92-.26-.03-.71.26-.91.48l-1.3,1.42c-.02,2.58-.09,5.04.09,7.62.06.94.63,2.11.29,3.07-.08.23-.88-.11-.97-.37-.47-1.4-.45-2.93-.76-4.32-.54-2.45-1-4.72-1.18-7.25l-.24-3.35-.49-5.5c-.06-.66-.08-1.42-.05-2.05,1.08-.29,1.78-.06,2.89.35.34-.37.84-1.31.85-1.88l.03-2.96c0-.6.72-1.06,1.32-.96.44.07.79.72.82,1.24l.19,3.14.3,4.52c.05.72-.03,1.59.44,2.06.87.84,2.71.7,3.15.27.24-.24.55-.97.52-1.31l-.59-7.23c-.45-5.45,2.26-2.04,3.31-5.91l2.06-.21c.51-.05,1.23-1.14,1.31-1.66.41-2.45-.19-4.89-.27-7.35-.11-3.1-.09-6.01-.67-9.05-.05-.25,0-.58.06-.75.05-.13.67-.07.77.03l2.21,2.26.64,4.02c.15.94.14,1.85.21,2.77.19,2.52.33,4.88.37,7.48.02,1.19.45,2.48.72,3.74.74.31,3.38.8,3.86-.02.66-1.14.27-2.35.2-3.52l-.45-7.25c-.1-1.6.87-3.41,1.08-5.04,1.29.83,2.7,2.54,2.29,4.06-.26.96-1.1,1.72-.89,2.97l.94,5.6c.58,3.48-.3,4.9,1.69,5.79,2.32,1.04,2.91-.9,3.83-.12.54.45.31,3.08.52,5.27.15,1.55-.11,3.24.23,4.78.21.96,2.69.6,2.8-.48.13-1.37.24-2.4.47-3.86.54.31.6.71.62,1.22l.16,3.63c.06,1.41.4,2.72.44,4.14l.2,6.64c.03,1.14.15,2.21.17,3.36.03,1.63.04,3.15.62,4.7.54.49,1.71.59,2.65.67,1.42,6.58.84,10.94,1.96,17.66.08.47-.04,1.62.33,1.86,1.39.92,3.43-.6,3.67,1.41.05.42.14,1,.4,1.12,1.04.48,1.54-.22,2.26.15.81.41-.39,1.25,1.04,3.38.66.98.45,2.41.52,3.62.05.79.43,1.85-.27,2.43-.93.47-3.08,1.22-2.99,2.62l.74,4.49c1.36,8.23.97,3.77-.22,10.55-.08.45-.9,1.39-1.28.95-1-1.15.32-4.21-.23-6.04-.72-.68-1.58-1.44-2.32-1.97-.44-.32-1.83-.12-2.21-.53ZM202.19,246.61l.06,9.59c.85.12,1.21.49,1.22,1.31l.08,9.03c1.08.87,3.23.93,4.05-.34.78-1.2.29-2.97.22-4.34l-.23-4.35c-.07-1.24-.1-2.58,0-3.83.18-2.3.02-4.43-.02-6.71l-.13-7c-.02-1.16.8-2.71.03-3.59-.83-.94-1.78-1.27-2.99-.97l-.2-4.23-.52-7.09-.19-9.74c0-.11-.48-3.27-1.74-3.57-.53-.13-1.39.06-1.57.45-.39.88-.45,1.61-1.48,1.75l-.72-8.18c-.04-.41-.27-1.36.01-1.63s.89-.62,1.32-.88c.75-2.39-.14-4.83-.66-7.23-1.14-5.3-.57-8.94.14-14.29.14-1.09,1.07-2.05-.29-3-.45.48-.87,1.04-1.24,1.72-.61,1.13-2.14-1.04-2.49-1.75-.63-1.29-.47-2.82-.6-4.25-.16-1.82-.35-3.61-.07-5.39.2-1.33-.13-2.43-.19-3.74l-.09-2.24c-.06-1.47-.18-3.37.02-4.71.04-.31,1.03-.85,1.23-.61,1.02,1.24-.96,3.88,2.34,6.79.43-4.58,2.04-3.47,2.53-5.41.21-.85-.22-1.53-.64-2.22-.89-1.45-.57-3.16-.77-4.8l-1.62-13.65c-.15-1.26-.11-2.59-.34-3.86-.44-2.37-.68-4.54-.18-6.96.23-1.11-.58-2.65-1.87-2.52-.98.32-.78,3.4-1.27,3l-.59-.48c-.42-.34-1.54.03-1.99.42-1.48,1.31-.02,3.03-.11,4.83-.07,1.32-.25,2.51-.06,3.76l.86,5.63.92,6.6c-1.41-.76-2.2-.37-2.99.46l-1.84,1.92c1.64,2.28,1.54,4.67.44,6.98-.43.91.28,2.13.22,3.08-.15,2.44-.02,4.69.35,7.14.28,1.9.36,3.81.52,5.74l.49,6c.07.91-.18,2.2.43,2.84.73.76,1.1,1.4,1.37,2.37l.72,2.65c.96,3.55.51,8.74,1.02,10.78.48,1.9,1.3,3.3,1.07,5.4-.15,1.36.94,2.83-.43,4.22-.72-1.05-.49-3.73-2.65-3.26-.67.15-1.4,1-.98,1.78.49.9.66,1.62.5,2.62-.28,1.71.23,4.9.5,6.68.47,3.1.83,6.14,1.05,9.28l.21,3.15c.07.96.14,2.02.49,2.93,1.35.67,1.85-.6,2.94-.3.2.05.46.56.46.81l.03,5.92c0,.99.5,1.89,1.1,2.73l1.34-1.02c.65-.49,1.68-1.28,1.71-2.21l.18-4.69c1.27,2.28.74,4.56.93,6.87l.62,7.81ZM201.81,139.24l-.84.11c.16,1.11.25,1.75.72,2.56l.13-2.68Z"/>
  <g>
    <path d="M201.81,139.24l-.13,2.68c-.47-.81-.55-1.45-.72-2.56l.84-.11Z"/>
    <g>
      <path d="M223.51,114.03c.38.41,1.77.22,2.21.53.73.53,1.59,1.29,2.32,1.97.56,1.83-.77,4.88.23,6.04.38.44,1.2-.5,1.28-.95,1.19-6.78,1.58-2.32.22-10.55l-.74-4.49c-.09-1.4,2.06-2.15,2.99-2.62.69-.57.32-1.64.27-2.43-.08-1.21.14-2.64-.52-3.62-1.44-2.13-.23-2.97-1.04-3.38-.73-.37-1.22.33-2.26-.15-.26-.12-.35-.7-.4-1.12-.25-2-2.29-.48-3.67-1.41-.37-.24-.25-1.39-.33-1.86-1.11-6.72-.54-11.08-1.96-17.66-.94-.09-2.11-.18-2.65-.67-.58-1.55-.59-3.07-.62-4.7-.02-1.15-.14-2.22-.17-3.36l-.2-6.64c-.04-1.43-.38-2.73-.44-4.14l-.16-3.63c-.02-.5-.08-.91-.62-1.22-.23,1.46-.34,2.49-.47,3.86-.1,1.08-2.58,1.44-2.8.48-.34-1.54-.08-3.23-.23-4.78-.22-2.19.01-4.82-.52-5.27-.92-.78-1.51,1.16-3.83.12-1.99-.89-1.11-2.32-1.69-5.79l-.94-5.6c-.21-1.25.63-2.01.89-2.97.41-1.52-1.01-3.23-2.29-4.06-.21,1.64-1.18,3.44-1.08,5.04l.45,7.25c.07,1.17.47,2.38-.2,3.52-.48.82-3.12.32-3.86.02-.27-1.26-.7-2.55-.72-3.74-.03-2.6-.18-4.95-.37-7.48-.07-.92-.06-1.84-.21-2.77l-.64-4.02-2.21-2.26c-.1-.1-.72-.16-.77-.03-.07.17-.11.5-.06.75.57,3.04.56,5.95.67,9.05.09,2.46.69,4.9.27,7.35-.09.52-.8,1.61-1.31,1.66l-2.06.21c-1.05,3.87-3.75.46-3.31,5.91l.59,7.23c.03.34-.27,1.08-.52,1.31-.45.43-2.28.57-3.15-.27-.48-.46-.4-1.34-.44-2.06l-.3-4.52-.19-3.14c-.03-.52-.38-1.17-.82-1.24-.6-.1-1.31.35-1.32.96l-.03,2.96c0,.57-.51,1.51-.85,1.88-1.11-.41-1.81-.63-2.89-.35-.03.64,0,1.39.05,2.05l.49,5.5.24,3.35c.18,2.52.64,4.8,1.18,7.25.3,1.39.29,2.92.76,4.32.09.26.89.61.97.37.34-.96-.23-2.13-.29-3.07-.18-2.58-.11-5.05-.09-7.62l1.3-1.42c.2-.22.65-.52.91-.48,1.1.14.58,3.69.51,3.92-.45,1.42-.27,2.28-.06,3.64.63,4.07,1.04,8.15,1.39,12.31.14,1.68.37,3.21.67,4.85.13.72.07,1.4.16,2.14l.5,4.33c.23,1.97.18,4.18.66,6.12.66.42,1.93.76,1.97,1.59.1,2.26.75,4.24.85,6.43l.16,3.33.3,2.67c.07.66.04,1.2-.53,1.82l-1.1-2.59c-2-2.15-.13-2.4-1.48-5.4-.1-.23-.65-.5-.85-.43-.83.27-.26,3.69-.24,4.24l.24,7.34.47,5.29c.12,1.37.42,2.71.4,4.11l-.09,8.13c-1.11.89-2.77,1.03-4.15.38l.05-3.24c.03-1.95,0-4.01-.24-5.93l-.74-5.76-.75-4.14-.59-5.76c-.46.54-.63.87-.96,1.52-.51,1.03-2.75,1.29-3.43.32-.6-1.63.8-6.51-1.32-6.45-.78.02-1.42-.24-1.87-.67-.54-.52-.59-1.33-.55-2.16.11-2.72-.06-5.28-.34-7.95l-.51-4.8c-.25-2.36-.63-4.31-1.42-6.5-.41-2.47,3.19-4.13,4.98-4.6,1.06-.28,1.55,1.16,1.66,1.89l.45,3.06c.04.26.34.7.65.91,1.28-1.54.51-4.07.88-5.98l.94-4.74c-3.07-.28-1.36,2.62-5.69,1.7l-.69-2.39c-.28-.98.5-2.63-.47-3.46l-3.51-.09-1.06-5.35c-.24-1.19-.27-2.7-.67-3.88-.07-.2-.68-.53-.62-.72l.33-.95c.22-.63-.23-1.74-.29-2.5l-.44-5.54-.05-3.32-.49-4.1c-.2-1.72-.43-3.21-.94-4.9-.24-.81-.06-2.03-.21-2.92-.46-2.71.52-1.42,2.68-4.42.18-.25.81-.54,1.07-.47s.69.4.86.72c1.31,2.35.13,4.03,1.2,4.77.89.62,1.27-1.44,2.68-1.1.5.12,1.24.91,1.27,1.5l.15,3.51c1.24-.19,1.75.47,2.34,1.48l-.17-3.91c-.08-1.83-.15-3.5-.4-5.3l-.41-2.89c-.15-1.07,1.61-1.86,2.47-1.99,2.59-.39,1.38-1.43,3.5-1.84.46-.09,1.51.32,1.6.8l.51,2.73c.64.19,2.13.12,2.51-.38.68-.94.49-2.25.6-3.35.39-3.82-.43-1.65.29-6.21.08-.5,1.05-1.18,1.39-1.59l.26-2.03c.57-1.22,2.87-1.73,3.74-.51,2.45,3.42,1.96,5.44,3.36,6.72.14.13.67.29.77.14.73-1.06-.56-2.6.9-6.61.41-1.11.27-2.53,1.23-3.35.63-.53,2.66-.41,3.09.4,2.03,3.82,1.31,6.98,2.58,9.88l1.84,4.19c.64,1.45.86,3.14,1.33,4.72s2.19.7,3.02,2c.78,1.21-.03,2.45.57,3.41.15.25,1.01.09,1.19-.15.8-1.03,2.24-1.35,3.31-.31,1.32,1.28,3.41,1.14,3.35,3.25-.05,1.61.49,3.19.65,4.79.18,1.79.16,3.63.2,5.39l.07,3.25c.03,1.33-.18,2.52.02,3.88.15.99.1,2.21.02,3.24-.98.91-1.36,2.8-.55,3.79.23.28,1.08.56,1.25.86s.16.87.24,1.52c.08.41,1.17-.01,1.58-.28.8-.53,1.88.22,2.15,1.13.69,2.3.52,4.18,1.03,4.86.32.43,1.46-2.19,2.85-1.04,1.15.95,1.34,2.4,1.43,3.83.2,2.99.78,5.9.74,8.83-.03,2.01-.19,3.93.03,5.91.48,4.31.08,6.36,1.26,10.27.62,2.08.26,4.01-.47,5.95-.44,1.16.56,2.21.94,3.23.28.77.38,1.72.54,2.56,1.22.92,1.72,2.26,1.81,3.76l.25,4.28.42,5.39c.08,1-.11,1.67.42,2.66.58,1.09.59,2.83.52,4l-2.04,2.22c-.35.38-1.15.74-1.72.75-.54.01-1.14-.5-1.88-.99-.21.25-.41.99-.35,1.37.36,2.11.44,4.01.53,6.12.22,5.3.09,4.99,1.44,10.27.13.52.68,1.26.99,1.92.19.4,1.12.29,1.54.09l2.01-.96c.62-.93,1.4-2.34,2.76-2.07,1.76.35,2.34,5.75,2.35,6.84l.07,11.27c.02,3.31.82,2.49.84,5.88v2.11c-2.05,2.11-.55,2.96-.69,5.18-.1,1.44.24,2.53.21,3.98l-.04,2.22c-.02,1.1.22,2.09-.13,3.12-.37,1.08-.06,2.01.13,3.06l.65,3.75c.23,1.34.63,2.68.68,4.03.04,1.07-.62,2.36.27,3.26.51.52,1.78,1.14,1.99,1.95.42,1.66.77,3.31.8,5.02l.21,9.46c.02,1.01,0,1.91,0,2.94l-.18,15.55c-.02,2-1.15,4.05-.4,6.04,2.43,6.45,1.17,7.27,2.39,12.1,2.3,9.13,1.95,11.42,1.93,20.73,0,1.83-2.16,2.3-3.09,2.1-1.18-.26-.89-2.23-1.34-3.89-.58-2.13-.8-4.13-.86-6.37-.03-1.06-.23-2.26-.17-3.32.15-2.81-.55-5.21-1.62-7.77-.78-1.88-.75-4.07-.88-6.1l-.48-7.71c-.1-1.62-.16-3.01.29-4.58l1.09-3.82c.13-.46-.27-1.47-.24-1.97l.23-3.6c.1-1.46.13-2.84.02-4.31l-.42-5.64-1.8-.99c-1.11-3.9-.71-3.88-.81-7.72,0-.16-.15-.54-.21-.68-.08-.18-.78-.2-.9-.03l-.99,1.4c-.93.49-1.95.68-3.09.62-1.15-3.95-.53-5.32-1.57-9.98-.5-2.25-.47-4.46-.81-6.71-.39-2.6-.35-5.1,2.3-6.65.2-1.58-.18-3.17-.53-4.81-.22-.98.22-3.86,1.74-4.57,2-.93,2.51,4.67,2.79,5.78.22.91.77,1.91.37,2.82-.11.25.23.9.46.98,1.55-1.38.14-4.38-.1-6.55-.16-1.44-.28-2.59-.76-3.97-.26-.75.76-2.28-.24-2.85-.66-.37-1.9-.31-1.97-1.38l-.19-2.86c-.13-1.97-.21-3.81-.5-5.75-.26-1.75.29-3.55-.83-5.3-.8,1.92.51,5.06-.81,7.13-.77,1.22-2.51,1.19-3.58.43l-.22-1.76-1.03-8.11-.41-2.46c-.99-6.02.77-4.5-1.44-8.08.1-2.38.05-4.66-.11-7.04l-.21-3.13c-.1-1.5-.35-2.7-.63-4.19-.07-.35-.38-6.2-1.01-5.22-.05.08-.28.4-.31.5l-.74,3.14-2.51.69c-.85-.86-1.96-1.21-3.16-1.28l-1.58-1.68c-1.48,3.41,1.21,8.96-.12,12.48-.58,1.53-2.51,1.57-3.61.77-.54-.39-.91-.79-.97-1.45-.18-2.14-.36-4.24-1.67-6.06-.48-.68-2.22-.95-2.98-.64-.93,3.13.92,5.15-.75,8.68-.66.48-2.24.87-2.97.65l-3.22-.97c-.47-.84-.46-2.33-.56-3.41-.29-2.93-.69-5.7-2.02-8.49-1.16,2.76.7,6.44-.57,8.24-.47.66-3.07,1.29-3.4.31-.43-1.29-.25-2.46-.2-3.75.1-3.07.11-6.03,0-9.13-.1-2.99-1.53-4.24,1.13-5.6,1.16-.59,2.42-1.57,3.7-.88l.68,1.05c1.04-1.08,2.02-2.79,3.6-2.15.36.14.79.72.88,1.18l.91,4.62c2.46-.86,3.24-3.77,5.84-2.87l2.41.84c-.04-4.15.73-6.32.56-10.1-.1-2.22,1.59-3.55,2.93-3.33.5.09,1.14.84,1.26,1.48.44,2.3-.48,2.14,1.71,4.51Z"/>
      <path d="M202.19,246.61l-.62-7.81c-.18-2.31.34-4.59-.93-6.87l-.18,4.69c-.04.94-1.07,1.72-1.71,2.21l-1.34,1.02c-.6-.84-1.1-1.74-1.1-2.73l-.03-5.92c0-.25-.26-.75-.46-.81-1.09-.3-1.59.97-2.94.3-.35-.91-.43-1.96-.49-2.93l-.21-3.15c-.21-3.14-.58-6.18-1.05-9.28-.27-1.78-.77-4.98-.5-6.68.16-1-.01-1.72-.5-2.62-.42-.77.3-1.63.98-1.78,2.16-.47,1.93,2.21,2.65,3.26,1.37-1.39.28-2.85.43-4.22.23-2.1-.59-3.5-1.07-5.4-.51-2.03-.06-7.22-1.02-10.78l-.72-2.65c-.26-.97-.64-1.6-1.37-2.37-.61-.64-.35-1.93-.43-2.84l-.49-6c-.16-1.93-.23-3.84-.52-5.74-.36-2.45-.5-4.69-.35-7.14.06-.95-.66-2.18-.22-3.08,1.1-2.31,1.2-4.7-.44-6.98l1.84-1.92c.8-.83,1.59-1.22,2.99-.46l-.92-6.6-.86-5.63c-.19-1.25,0-2.44.06-3.76.09-1.8-1.37-3.52.11-4.83.44-.39,1.57-.77,1.99-.42l.59.48c.49.4.28-2.69,1.27-3,1.29-.13,2.1,1.41,1.87,2.52-.5,2.41-.26,4.59.18,6.96.23,1.26.2,2.6.34,3.86l1.62,13.65c.19,1.64-.12,3.35.77,4.8.42.69.85,1.38.64,2.22-.49,1.94-2.1.84-2.53,5.41-3.3-2.91-1.32-5.55-2.34-6.79-.19-.24-1.18.3-1.23.61-.19,1.34-.08,3.24-.02,4.71l.09,2.24c.05,1.31.39,2.4.19,3.74-.27,1.78-.08,3.57.07,5.39.12,1.43-.04,2.95.6,4.25.35.71,1.88,2.88,2.49,1.75.37-.68.79-1.24,1.24-1.72,1.35.95.43,1.91.29,3-.71,5.35-1.28,8.99-.14,14.29.52,2.4,1.41,4.84.66,7.23-.43.25-1.05.61-1.32.88s-.05,1.22-.01,1.63l.72,8.18c1.03-.15,1.09-.87,1.48-1.75.18-.4,1.04-.58,1.57-.45,1.27.3,1.74,3.46,1.74,3.57l.19,9.74.52,7.09.2,4.23c1.21-.3,2.16.03,2.99.97.78.88-.05,2.43-.03,3.59l.13,7c.04,2.28.2,4.41.02,6.71-.1,1.25-.07,2.59,0,3.83l.23,4.35c.07,1.38.56,3.15-.22,4.34-.82,1.27-2.97,1.21-4.05.34l-.08-9.03c0-.82-.37-1.19-1.22-1.31l-.06-9.59Z"/>
    </g>
  </g>
</svg>