<?xml version="1.0" encoding="UTF-8"?>
<svg id="Layer_2" data-name="Layer 2" xmlns="http://www.w3.org/2000/svg" viewBox="0 0 432 288">
  <defs>
    <style>
      .cls-1 {
        fill: #fff;
      }
    </style>
  </defs>
  <path class="cls-1" d="M63.37-27.8h285.77v287.48H63.37V-27.8ZM159.14,229.58c5.08-3.32,9.45-7.22,13.25-11.79,1.24-1.49,2.33-2.7,3.74-4.06.65-.63,3.89-6.61,4.57-7.96l2.06-4.06c.94-1.86,1.66-3.68,2.55-5.53l1.9-3.92,3.21-6.04c.87-1.64,1.72-3.2,2.68-4.79l2.91-4.83,2.26-4.43c1.01-1.98,3.77-6.22,5.14-8.16,1.27-1.81,2.38-3.6,3.52-5.48l3.52-5.82,6.41-10.85c1.44-2.44,2.55-4.96,4.12-7.37,1.39-2.14,2.47-4.49,4.43-6.18,1.64-1.42,3.84-1.63,5.78-2.28,3.16-1.07,6.11-1.86,9.47-2.21s1.85.44,3.9,6.92l1.27,4c1.68,5.31,1.59,5.74,4.42,10.83,1.51,2.71,3.05,5.13,5.2,7.41.87.92,1.51,2.2,2.61,2.91,1.45.93,2.75,2.15,4.2,2.96l2.98,1.66c.61.34,7.66,2.2,8.82,2.25,4.72.2,9.5-1.3,13.16-4.31,1.18-.97,2.23-2,3.33-3.09,1.17-1.17,1.58-3.16,2.29-4.64,1.55-3.25,2.05-8.45,1.3-12.02-.93-4.4-3.46-8.42-6.32-11.86-1.01-1.21-2.44-1.97-3.41-2.96-1.2-1.23-2.12-2.13-3.69-2.82l-9.33-4.12c-2.14-.94-4.63-1.22-6.97-1.53l-4.47-.59c-.98-.13-2.16-.27-3.13-.29l-7.21-.1c.35-3.83.55-7.59,1.62-11.22l1.72-5.82c1.11-3.75,2.37-7.4,3.83-11.05.46-1.15,1.43-2.38,2.04-3.52,1.06-1.99,2.26-3.84,3.66-5.61.4-.5,1.54-1.22,2.06-1.73,1.45.35,2.84.38,4.17-.21l4.09-1.79c.64-.28,1.23-.71,1.73-1.21,2.48-2.46,6.88.1,9.53-1.97.7-.55,1.24-1.68,1.78-2.46,2.78-1.45,5.16-.65,8.9-.81,4.02-.17,7.96-.27,11.74-1.55,1.22-.41,2.31-1.03,3.42-1.52,1.7-.75,2.93-1.86,4.21-3.19,2.77-2.87,4.95-6.65,4.04-10.76-.43-1.97-2.09-3.29-3.78-4.2-.7-.38-.89-1.44-1.42-2.02-1.53-1.67-4.13-2.2-6.43-2.09-3.17.14-6.22,1.37-8.92,3-1.51.91-3.07,1.71-4.41,2.81-1.77,1.45-3.51,2.66-5.44,3.93-1.02.67-1.84,1.76-3.29,2.01-.75.13-1.75-.92-2.5-1.13-2.03-.57-4.26-.5-6.06-1.43-1.45-.75-2.59-1.03-4.02.06l-2.13,1.63c-1.01.77-1.62-.94-2.98-.68-.33.06-.71.63-.84,1.03-.91,2.71-2.93,5.14-4.87,7.1l-3.3,3.34c-.58.59-1.67.95-1.01,2.05l1.52,2.53-2.6,2.15-2.19,1.78-1.78,1.39c-.6.47-1.16,1.02-1.73,1.5-2.96,2.53-5.69,5.01-8.15,8.09l-2.25,2.81c-2.16,2.7-4.28,5.33-6.21,8.21l-3.3,4.93-3.07,4.39-1.9,2.91-2.21,3.13c-.68.96-1.15,2.08-1.75,3.06l-3.24,5.29-1.97,3.36-2.52,4.42-1.97,3.04c-.62.96-1.38,1.57-2.3,2.16l-4.66,3c-1.06.68-2.02,1.3-3.06,2.04-1.13.8-2.52,1.41-3.75,2.11l-4.78,2.71-6.98,3.89c-1.63.91-2.95,2.01-4.69,2.8-.8.36-1.75,1.18-2.48,1.73l-2.74,2.07-4.99,3.49-2.73,1.8-3.58,2.47-1.92,1.04c-1.56.84-2.9,1.91-4.38,2.89-4.14,2.73-8.39,5.14-12.8,7.62-.83.47-2.22.59-3.17.76-1.02.18-1.54.7-2.4,1.13l-7.05,3.55-10.91,6.93c-4.97,3.16-9.86,6.26-14.11,10.36l-10.02,9.67c-2.31,2.23-3.85,4.66-5.37,7.45-1.18,2.17-1.89,4.42-2.47,6.89-1.16,4.92-1.26,9.46.43,14.27,1.42,4.07,2.73,6.66,5.68,9.74.24,1.28,1.29,1.76,2.33,2.3,1.32.69,1.67,1.13,3.25.67,2.67-.79,5.46-2.18,8.28-2.55,4.98-.65,24.15.14,26.5-.77l4.35-1.68c5.12-1.98,5.09-.79,12.64-5.73l5.56-3.63Z"/>
  <path class="cls-1" d="M117.89,233.87l-7.48.09c-2.69.03-5.32.07-7.97.22-1.43.08-2.65.16-4.15.04-1.16-2.18-2.45-4.2-2.67-6.69-.59-6.69-.33-11.85,3.8-17.22,1.69-2.21,4.32-2.98,6.58-4.17,1.65-.87,3.02-2.23,4.52-3.4,4.4-3.43,8.65-6.79,13.47-9.6l5.56-3.25,6.37-3.74c2.38-1.39,4.44-3,6.83-4.37s4.8-2.73,7.13-4.26l5.15-3.38,8.82-5.88,8.2-5.32,2.41-1.77c2.75-2.02,5.53-3.79,8.19-5.93l3.41-2.74c1.92-1.54,3.93-2.97,6.02-4.34l7.5-4.93c1.89-1.25,3.63-2.49,5.89-3.62-.28,2.11-1.84,3.19-2.77,4.8l-6.26,10.8-4.3,7.38-3.22,5.1-6.69,10.9-1.82,2.7c-1.36,2.02-4.3,7.36-5.34,9.62-1.51,3.27-3.02,6.45-4.77,9.58-.55.98-1.39,1.83-1.87,2.88-1.16,2.52-5.3,8.74-7.46,10.69l-7.69,6.92c-1.44,1.3-2.78,2.56-4.38,3.63l-2.72,1.81c-.92.61-1.28.53-2.46.45-1.39-.09-3.39.02-4.65.66l-5.09,2.59-10.21,3.04c-1.88.56-3.74.72-5.88.75Z"/>
  <path class="cls-1" d="M276,156.78c-3.13.32-5.71-.19-8.34-1.99l-2.07-1.41c-3.05-2.08-3.41-3.76-6.32-6.18-.48-1.53-1.73-2.67-2.59-4.04-1.11-1.77-1.9-3.79-2.78-5.75.67-3.26-.25-3.6-1.99-5.97-1.33-1.81-2.55-7.62-2.17-9.9,7.71.11,13.25.26,20.63,2.78.84.29,1.99.4,2.74.73,11.34,5.01,7.93,5.4,12.7,10.73.78.87,1.61,2.27,1.69,3.54.16,2.91.08,5.89-.66,8.66-.62,2.34-2.66,3.75-4.19,5.3-1.9,1.94-3.89,3.23-6.65,3.51Z"/>
  <path class="cls-1" d="M236.96,117.52l-7.16,2.04,2.7-4.68,3.85-6.84,2.94-5.12,1.75-2.71,3.73-6.14,3.29-5.21c.51-.81.91-1.21,2.11-1.58,0,.87-.21,1.7-.5,2.69l-.9,3.06c-.3,1.04-.44,2.2-.84,3.22-1.4,3.6-2.1,7.26-2.8,11.05-.3,1.6-.56,3.09-.51,4.77.04,1.29-.39,2.87-1.67,3.33l-2.72.98c-1.02.37-2.13.81-3.26,1.13Z"/>
  <g>
    <path d="M159.14,229.58l-5.56,3.63c-7.56,4.93-7.53,3.74-12.64,5.73l-4.35,1.68c-2.35.91-21.53.12-26.5.77-2.82.37-5.61,1.76-8.28,2.55-1.58.47-1.93.02-3.25-.67-1.04-.54-2.09-1.01-2.33-2.3-2.96-3.07-4.26-5.67-5.68-9.74-1.68-4.81-1.58-9.34-.43-14.27.58-2.47,1.29-4.72,2.47-6.89,1.51-2.78,3.05-5.21,5.37-7.45l10.02-9.67c4.24-4.1,9.13-7.2,14.11-10.36l10.91-6.93,7.05-3.55c.86-.43,1.38-.95,2.4-1.13.95-.17,2.34-.29,3.17-.76,4.41-2.48,8.66-4.89,12.8-7.62,1.48-.98,2.83-2.05,4.38-2.89l1.92-1.04,3.58-2.47,2.73-1.8,4.99-3.49,2.74-2.07c.73-.55,1.68-1.36,2.48-1.73,1.74-.79,3.06-1.89,4.69-2.8l6.98-3.89,4.78-2.71c1.23-.7,2.62-1.31,3.75-2.11,1.05-.74,2-1.35,3.06-2.04l4.66-3c.92-.59,1.68-1.2,2.3-2.16l1.97-3.04,2.52-4.42,1.97-3.36,3.24-5.29c.6-.98,1.07-2.09,1.75-3.06l2.21-3.13,1.9-2.91,3.07-4.39,3.3-4.93c1.93-2.88,4.05-5.51,6.21-8.21l2.25-2.81c2.46-3.08,5.19-5.56,8.15-8.09.57-.49,1.12-1.03,1.73-1.5l1.78-1.39,2.19-1.78,2.6-2.15-1.52-2.53c-.66-1.1.43-1.46,1.01-2.05l3.3-3.34c1.94-1.96,3.96-4.39,4.87-7.1.13-.4.51-.97.84-1.03,1.36-.26,1.97,1.45,2.98.68l2.13-1.63c1.43-1.09,2.57-.81,4.02-.06,1.8.93,4.03.86,6.06,1.43.75.21,1.75,1.26,2.5,1.13,1.45-.25,2.27-1.34,3.29-2.01,1.93-1.27,3.67-2.48,5.44-3.93,1.33-1.1,2.89-1.9,4.41-2.81,2.7-1.63,5.75-2.86,8.92-3,2.29-.1,4.89.42,6.43,2.09.53.58.72,1.64,1.42,2.02,1.68.9,3.34,2.22,3.78,4.2.91,4.12-1.27,7.89-4.04,10.76-1.28,1.32-2.51,2.43-4.21,3.19-1.11.49-2.2,1.11-3.42,1.52-3.78,1.28-7.72,1.38-11.74,1.55-3.74.16-6.13-.64-8.9.81-.54.78-1.08,1.91-1.78,2.46-2.65,2.07-7.06-.49-9.53,1.97-.5.5-1.08.93-1.73,1.21l-4.09,1.79c-1.33.58-2.72.55-4.17.21-.52.52-1.66,1.23-2.06,1.73-1.4,1.76-2.6,3.61-3.66,5.61-.61,1.14-1.58,2.37-2.04,3.52-1.47,3.65-2.73,7.3-3.83,11.05l-1.72,5.82c-1.07,3.63-1.27,7.39-1.62,11.22l7.21.1c.97.01,2.15.16,3.13.29l4.47.59c2.34.31,4.83.58,6.97,1.53l9.33,4.12c1.57.7,2.49,1.6,3.69,2.82.97.99,2.4,1.75,3.41,2.96,2.86,3.44,5.39,7.45,6.32,11.86.76,3.56.25,8.77-1.3,12.02-.71,1.48-1.12,3.47-2.29,4.64-1.1,1.09-2.15,2.12-3.33,3.09-3.66,3.01-8.44,4.51-13.16,4.31-1.17-.05-8.22-1.91-8.82-2.25l-2.98-1.66c-1.45-.81-2.75-2.04-4.2-2.96-1.1-.71-1.73-1.98-2.61-2.91-2.15-2.28-3.69-4.7-5.2-7.41-2.83-5.08-2.74-5.52-4.42-10.83l-1.27-4c-2.05-6.48-.57-7.27-3.9-6.92s-6.3,1.14-9.47,2.21c-1.94.66-4.14.87-5.78,2.28-1.96,1.69-3.04,4.04-4.43,6.18-1.57,2.42-2.68,4.93-4.12,7.37l-6.41,10.85-3.52,5.82c-1.14,1.89-2.25,3.67-3.52,5.48-1.37,1.94-4.13,6.19-5.14,8.16l-2.26,4.43-2.91,4.83c-.95,1.58-1.8,3.14-2.68,4.79l-3.21,6.04-1.9,3.92c-.89,1.84-1.61,3.67-2.55,5.53l-2.06,4.06c-.68,1.35-3.92,7.33-4.57,7.96-1.41,1.36-2.5,2.57-3.74,4.06-3.8,4.57-8.17,8.47-13.25,11.79ZM307.47,50.98c-.77-.06-2.09.47-2.2,1.08-.11.65-.3,1.53-.35,2.09-.03.29.5.75.78.68,1.37-.31,1.47-2.51,1.77-3.85ZM236.96,117.52c1.13-.32,2.24-.76,3.26-1.13l2.72-.98c1.28-.46,1.71-2.04,1.67-3.33-.05-1.68.22-3.17.51-4.77.7-3.79,1.4-7.45,2.8-11.05.4-1.02.53-2.18.84-3.22l.9-3.06c.29-.99.5-1.82.5-2.69-1.2.37-1.6.77-2.11,1.58l-3.29,5.21-3.73,6.14-1.75,2.71-2.94,5.12-3.85,6.84-2.7,4.68,7.16-2.04ZM276,156.78c2.77-.28,4.75-1.57,6.65-3.51,1.53-1.56,3.57-2.97,4.19-5.3.73-2.76.82-5.74.66-8.66-.07-1.27-.91-2.67-1.69-3.54-4.77-5.33-1.36-5.72-12.7-10.73-.76-.33-1.9-.45-2.74-.73-7.38-2.51-12.91-2.67-20.63-2.78-.37,2.29.85,8.09,2.17,9.9,1.74,2.38,2.66,2.71,1.99,5.97.88,1.95,1.67,3.98,2.78,5.75.86,1.37,2.11,2.52,2.59,4.04,2.91,2.42,3.27,4.1,6.32,6.18l2.07,1.41c2.63,1.8,5.21,2.31,8.34,1.99ZM117.89,233.87c2.14-.02,4-.18,5.88-.75l10.21-3.04,5.09-2.59c1.26-.64,3.26-.75,4.65-.66,1.18.08,1.54.16,2.46-.45l2.72-1.81c1.6-1.06,2.94-2.33,4.38-3.63l7.69-6.92c2.16-1.95,6.3-8.16,7.46-10.69.48-1.05,1.32-1.9,1.87-2.88,1.75-3.13,3.26-6.3,4.77-9.58,1.04-2.26,3.98-7.6,5.34-9.62l1.82-2.7,6.69-10.9,3.22-5.1,4.3-7.38,6.26-10.8c.93-1.61,2.49-2.69,2.77-4.8-2.25,1.13-3.99,2.37-5.89,3.62l-7.5,4.93c-2.08,1.37-4.1,2.8-6.02,4.34l-3.41,2.74c-2.66,2.14-5.44,3.91-8.19,5.93l-2.41,1.77-8.2,5.32-8.82,5.88-5.15,3.38c-2.33,1.53-4.7,2.88-7.13,4.26s-4.45,2.97-6.83,4.37l-6.37,3.74-5.56,3.25c-4.82,2.81-9.07,6.17-13.47,9.6-1.5,1.17-2.87,2.53-4.52,3.4-2.26,1.2-4.89,1.97-6.58,4.17-4.13,5.37-4.39,10.53-3.8,17.22.22,2.48,1.51,4.51,2.67,6.69,1.51.12,2.72.05,4.15-.04,2.66-.16,5.28-.19,7.97-.22l7.48-.09Z"/>
    <path class="cls-1" d="M307.47,50.98c-.3,1.35-.4,3.54-1.77,3.85-.27.06-.8-.39-.78-.68.05-.55.24-1.44.35-2.09.1-.61,1.42-1.14,2.2-1.08Z"/>
  </g>
</svg>