<?xml version="1.0" encoding="UTF-8"?>
<svg id="Layer_2" data-name="Layer 2" xmlns="http://www.w3.org/2000/svg" viewBox="0 0 432 288">
  <defs>
    <style>
      .cls-1 {
        fill: #fff;
      }
    </style>
  </defs>
  <path class="cls-1" d="M-3.23,286.81V-1.19h432v288H-3.23ZM180.71,171.74c.06-.54.26-1.08.57-1.38,1.85-1.84,2.86-3.59,4.06-5.82l1.6-2.97c.14-.25.62-.67.9-.68.23,0,.66.25.89.42,1.66,1.2,3.19,2.17,5,3.27.34.25,0,1.25-.24,1.64-.65,1.03-1.08,1.91-1.64,2.99-.39.75-1.54,1.95-.9,2.88.46.67,2.37,1.12,3,.63.82-.81,1.55-1.94,2.1-2.97s.81-2.41,1.5-3.2c.94-1.07,2-.24,2.92.04l5.55,1.67c2.26.68,4.56,1.08,6.89,1.52l4.67.88c2.12.4,4.29.81,6.46.98.69-.71,1.21-2.32.65-3.17-.47-.52-1.12-1.11-1.56-1.72-.53-.73-1.17-1.25-1.72-1.87-.39-.44-3.31-3.78-2.93-3.98.16-.08.28-.17.38-.11l.36.23c.98.62,1.76,1.21,2.64,1.99.59.52,1.59.84,2.29,1.26l2.34,1.41c.43,2.07,4.33,1.67,4.84,1.04-.22-1.25,2.35-3.9,3.33-4.43.74.45,1.41,1.07,2.1,1.32l1.96.69c2.57.91.31.89,3.85,1.7.25.06.75.73.56.92-.62.6-1.59.55-2.35.8l-3.25,1.06c-.71.23-1.31,1.11-1.03,1.72,1.05,2.32,2.35.92,6.85,1.28.35.03.22,1.05-.05,1.31-.61.58-1.13,1.32-1.64,1.95-1.04,1.26-1.89,2.4-2.69,3.85-.57,1.04-2.77,3.04-1.66,3.97,2.01,1.68,3.77.25,5.52-1.37,1.11-1.02,2.65-1.69,3.65-2.78,1.31-1.43,2.43-2.86,4.03-3.97,3.62,1.38,6.69,3.18,9.96,5.02l1.73.97v.6s-2.21,1.23-2.21,1.23c-1.02.57-1.81,1.35-2.69,2.13l-4.48,3.94c-.65.58-2.07.7-2.93.92-3.96,1.04-5.51-.7-5.92,2.02-.37,2.41,4.15,1.1,2.32,2.94l-2.79,2.8c-.49.49-1.4,1.74-.55,2.38s2.52.56,3.56.39l.57-.09c1.07-.17-1.34,1.57-1.53,1.7l-1.63,1.1c-.62.42-.45,2.04.22,2.31.87.36,1.46,1,2.21,1.43.3.17,4.6,2.19,3.97,2.7-.92.74-2.61.9-5.16,2.87l-4.65,3.59c-.51.39-.34,1.95.01,2.43,4.62.43,4.07-2.48,8.3-3.08.5-.07,6.51-.75,4.59.64-1.44,1.05-2.81,2.86-3.86,4.4s-2.45,2.53-3.81,3.72c-.02.75.43,1.99,1.01,2.52.83.04,1.88-.31,2.59-.66l3.71-1.84c1.12-.55,1.98-.45,2.84.57.78.92,1.85,1.65,2.79,2.43l4.46,3.7c.19.15.82.3.82.53.01.91-1.65,2.41-2.28,3.08-.59.62-1.32,1.59-2.05,2.02-.34.2-1.3-.31-1.62-.56-1.05-.83-2.46-1.56-3.63-2.29-2.59-1.62-5.46-2.24-8.54-1.82-.68,2.74,1.17,2.65,3.1,4.14,1.51,1.17,3.06,1.98,4.68,3.05l3,1.98-1.77,2.73c-1.91,2.94-3.1,3.42-4.85,6.72l.43,1.97c.46-.32,1.67.25,1.32.63-3.44,3.76-6.68,7.41-9.69,11.55-.05.72.92,1.55,1.48,1.64,1.73.3,3.16-1.52,4.13-2.85l1.31-1.8c.61-.84,1.24-1.6,1.93-2.39l4.48-5.06c2.91-3.3,6.49-3.3,10.7-3.07,1.07.06,1.87.18,2.76.65,1.48.79,2.74,1.67,3.97,2.78l2.16,1.93c1.93,1.73,2.68,3.02,4.47,3.84l2.32,1.06c.21.1.78.17.97.13.35-.08,1.44-2.57.62-3.28-1.56-1.35-3.18-1.48-4.93-3.82,1.59-.26,2.71-.73,2.77-2.33.03-.68-.9-1.64-1.58-1.84-3.52-1.02-5.38-1.82-8.29-3.74-2.67-1.76.06-2.36-3.49-3.98-1.8-.82,4.41-5.27,6.14-4.94l2.22,1.58c1.85,1.32,3.48,2.55,5.31,3.83l2.82,1.97c2.69,1.88,4.23,1.17,4.24.97l.02-.7c0-.32.06-.83.12-1.37-.74-.85-1.67-1.99-2.68-2.75l-2.54-1.9c-.16-.12-.22-.95-.03-1l.66-.17c.34-.09.77-.2.96-.35.14-.11.67-2.14-.33-3.06-1.36-1.24-3.66-.32-6.27-1.07-.26.15-1.05.5-1.34.37-.73-.32-1.35-1.49-1.76-2.04-1.36-.98-2.46-2.33-1.75-4.14.08-.21.29-.6.48-.58.14.01.56.2.67.32l2.88,3.33c.88,1.02,4.93,3.31,6.07,1.56.24-.67-.23-2.3-.8-2.75l-4.3-3.45-1.47-1.18c-.14-.11-.39-.39-.48-.52-.19-.27,2.79-2.34,3.04-2.6.63-.62,1.11-1.41,1.99-1.85.48-.24.66-1.66.32-2.07-.28-.33-1-.8-.9-1.17.11-.42.33-1.02.5-1.46-.55-1.43-1.68-2.81-2.91-3.89-.23-.2-.05-.95.21-1.12l6.2-4.12c.33-.22,2.52-1.41,1.75-2.68-.89-1.48-10.51-2.21-12.83-1.84l-2.44.38c-1.85.29-3.63.35-5.43.83l-2.48.65-2.26-2.13c-.46-.44-.87-.89-.91-1.44,1.93-.1,3.39-.56,5.06-1.28l5.03-2.16c2-.86,4.07-1.43,5.42-3.44-2.32-2.96-3.39-.68-7.33-1.56l-.47-.11c-.08-.02.26-.43.35-.48l3.8-2.23,2.22-.68c.81-.25,1.25-1.39,1.87-1.94.65-.59,1.47-1.14,1.56-1.76.12-.77.13-2.09-.37-2.36-2.58-1.4-5.18-1.69-7.98-1.47-2.17.17-2.72-1.15-5.01-2.5l-4.98-2.94-5.2-3.19c-.21-.13-.49-.7-.29-.92l3.22-3.44,1.75-1.6c1.26-1.15,1.71.49,3.08,1.6l2.39,1.95c1.42,1.16,5.54,5.67,6.94,4.09.36-.41.85-1.2,1.08-1.71-2.58-3.74-3.54-3.8-5.5-8.05-.7-1.53-1.44-2.94-1.61-4.65-.07-.75.48-1.12,1-1.46,1.75-1.11,3.16-2.55,4.7-3.9.65-.57,1.29-1.04,1.08-1.97-.13-.56-.85-1.09-1.6-1.22-2.06-.35-4.36,1.88-5.43,3.44-.15.22-.96.37-.93.12.08-.58.31-1.5.42-2.04.27-1.29-1.39-2.12-2.55-1.85-1.77.41-2.86,1.64-4.2,2.77-1,.84-2.23,2-2.79,3.12-.11.22-.94.57-1.02.34l-.3-.86-1.39-1.35c-.33-.73-.62-1.12-1.06-1.65-1.29-1.54-2.46-3.13-4.03-4.38-.23-.18-.75-.72-.57-.92l.67-.72c.88-.94,4.24-4.02,4.97-4.09.34-.03.87.42,1.1.73.92,1.25,4.51,4.67,5.65,3.44.31-.34.98-2.2-.28-3.77l-2.32-2.9c-.12-.15-.17-.76-.03-.89,3.4-3.22,3.6-1.28,4.38-3.62.23-.7.44-1.9-.45-2.26-.83-.34-1.88-.67-2.54-1.32l-3.04-2.98.84-3.65c.29-1.27.11-2.55.04-3.85-.1-1.78-.13-3.63-1.91-4.69-1.09-.65-2.94-.34-3.72.84-.5.76-.39,2-.49,2.89-.25,2.21-.28,4,.02,6.34l-2.73-.9-7.66-2.67c-1.34-.47-2.83-.78-4-1.54-1.75-1.13-2.24-1.13-2.2-1.8.02-.29.55-.74.83-.76,1.15-.08,1.81-.67,2.71-1.17,3-1.65,4.81-2.13,7.81-3.69l4.58-2.37c1.98-1.02,1.75.41,4.38,2.68,1.38,1.19,5.29,4.12,7.08,3.37,1.07-.45.8-2.52.08-3.28-.95-.99-1.95-1.34-3.13-2.05-.71-.43-1.45-1.88-1.65-2.73-.24-1.02-.04-2.18-.72-3.01-.42-.52-1.71-.36-2.34-.17-.83.25-1.46-.14-2.01-.69l-3.53-3.47-2.77-2.92c-1.04-1.09.98-1.59,2.88-2.88l2.01-1.38c.78-.53,1.6-.91,2.55-1.1,1.04-.21,1.01-1.43.63-2.24-.84-1.75-2.55-.75-3.21-2.01-1.19-2.28-3.46-3.41-5.58-5.98l-2.11-2.55c-1-1.21-1.75-2.82-3.19-3.71-2.52-1.54-3.49-.47-5.37-3.04-.76-1.03-1.5-2.18-2.38-3.12-3.37-3.6-6.81-6.84-10.76-9.54-.16-.1-.28-.77-.11-.86l.75-.38c2.85-2.48,6-4.17,9.51-5.64.95-.4,1.49-2.31.97-3.09-1.85-1.29-4.04-.64-6-.02-1.78.57-3.4,1.15-5.11,1.81l-3.83,1.47-3.58,1.49c-2.15.89-4.44,1.55-6.67,2.09-1.58.38-2.09-3.37-1.89-3.61,1.11-1.34,2.3-2.18,3.59-3.22,3.61-2.91.07-.18,3.42-2.04l2.82-1.57c.52-.29,1.4-.78,1.87-.34,2.39,2.21,2.1,1.61,3.98,3.51,1.27.61,3.09-1.28,2.72-2.69-.36-.54-1.03-1.27-1.5-1.55l-2.58-1.57,1.48-.95c3.36-2.15,5.3-1.09,9.33-2.11l-.05-3.28-3.99-1.32-7.73-2.38c-2.5-.77-5-1.52-7.24-2.89-1.6-2.35-2.62-1.75-2.21-4.18.37-2.2-3.4-2.5-6.57-5.23l-3.64-3.14c-2.37-2.04-5.51-4.81-8.93-4.12-.39.08-1.15.24-1.22.57-.38,1.79.44,2.54.93,3.18l2.34,3.09-.64,1.84c2.08,3.52,3.95.74,8.3,7.14.67.99,1.5,1.69,2.36,2.45l2.17,1.93,2.86,2.41,1.72,1.68,2.81,2.51c.07.06.22.46.26.53s-.43.08-.52.05l-3.47-1.22c-1.2-.42-2.18-1.23-3.25-1.73l-2.97-1.39-3.08-1.49c-.93-.45-1.75-.92-2.66-1.47-1.4-.85-3.17-1.14-4.65-1.84-1.89-.89-9.59-4.96-10.68-3.28-.74,1.15.08,1.96.75,2.69.89.97,1.27,2.4,2.14,3.4l1.09,1.26,4.56,6.24,3.41,4.51c.29.38,1.34,1.03.66,1.53l-1.97,1.45c-.79.58-1.82,1.06-2.78,1.58l-.14,1.99c-2.32-.37-.8-.04-3.57-.17-1.67-.08-3.34.03-4.95-.16-1.96-.23-3.69.09-5.68.26l-2.48.21c-.51.04-1.09,1.41-.87,1.89.59,1.3,2.53,1.72,2.74,2.68.1.46-.12,1.2-.45,1.26-.54.09-1.32.23-1.49.27l1.8,1.41c.6.47,1.77.66,2.59.95l3.42,1.2c1.95.68,3.9,1.86,5.75,2.8.37.2.48,1.41.24,1.78-.58.89-1.77-.26-3.5-1.19-1.42-.77-3,.65-2.94,1.35.03.28.39.76.62.98l1.86,1.74c.28.26.95.64,1.1.99.13.32-.35.91-.58,1.28l-2.22,3.55-1.25,1.64-2.31,3.24c-.36.5-.66,1.23-.52,1.89.23,1.04,1.61.75,2.25,3.59l-3.96-.57c-.39-.06-1.05.38-1.12.73-.16.92.78,1.76.4,2l-.7.43c-6.09,3.73-7.61,7.37-13.57,10.72.73,2.67,3.62,3.3,5.38,5.05.35,1.13-.54,1.63-1.22,2.22-.75.65-1.74,2.07-1.81,3.04.13,1.08,2.11,1.58,2.87,1.1.82-.52,1.93-1.15,2.45-1.8l1.92-2.4.94,1.39c.5.52.86.99,1.17,1.63l-2.06.31c-.33.15-.55,1.23-.3,1.5,1.1,1.18,1.96,1.06,2.11,2.09s-1.6,1.4-2.51,2.35c-.94-1.48-2.81-1.67-4.24-2.3l-3.65-1.61-1.68-.74c-1.89-.83-4.07-1.36-6.27-1.2-1.27,1.75,2.52,2.9,3.86,3.46l1.86.77c2.03.85,3.95,1.63,6.02,2.34s1.8,1.36,5.38,2.33l-2.52.54c-1.25.27-2.63.44-3.64,1.5-.36.37.17,1.51.4,2.12-.05.46-.89,1.09-1.3,1.45-1.51,1.32-1.68,3.23-2.22,5.03-.12.42-.39,1.02-.24,1.32.7,1.43,3.98-.55,3.92.23l-.06.87c-.01.15,0,.48.14.5l.78.09c.32.03.92.51.93.83.01.28-.47.79-.76.85-2.97.63-3.01-.93-4.9.21-2.07.23-5.09-1.42-6.54-1.13l-3.03.6c-.36.07-.84.63-.91.95s.39,1.18.74,1.07c1.33-.43,2.71-.18,3.97.25s2.22.75,3.26,1.33c.61.34,1.51.44,2.01,1.06-.24,1.15-2.74,1.69-2.13,2.82.26.47.99.7,1.38.4l1.67-1.3c.19.16.5.47.63.64.52.68-1.65,2-2.54,2-1.49,0-1.69,1.51-2.46,2.17-.63.53-2.5,0-2.99,1.53-.14.44.61.9,1.17,1.23,1.16.68,1.94,1.91,2.8,2.92.31.36.67.74.75,1.15.06.33-.56.79-.76,1.07l-2.85,3.91c-.45.62-.4,1.53.26,1.87.6.31,1.2.16,1.68-.41l1.88-2.25c.55-.66,1.22-1.26,1.99-1.46l2.82,4.07c.18.27.46.75.37,1-.3.85-1.11.3-2.92,1.82-.61.51-1.77.53-2.42.92l-8.33,4.87c-.45.26-.94.64-1.12.96-.16.28.09,1.25.41,1.35.64.2,1.94.24,2.58.05l4.29-1.3c1.25-.38,2.48-.89,3.77-1.2s2.44-.85,3.69-1.34c1.76-.69,3.53-1.16,5.35-1.66.26.96-.18,1.55-.87,2.05-1.13.82-2.1,1.64-3.14,2.63-2.32,2.19-4.86,4.29-6.57,7.03-.93,1.5-1.8,2.72-3.05,3.96l-1.57,1.55c-1.62,1.6-3.28-.82-5.04.38-.37.25-.77.77-.85,1.08s.45.92.68,1.12l2.56,2.31c-1.12-1.01,6.34,4.02,6.11,3.88.78.45,1.69.56,1.74,1.65l-1.89.8c-.18.65-.06,1.59.37,1.99.33.3,1.24.75,1.67.62l2.82-.9c.66-.21,1.72.94,2.24,1.39l1.96,1.68c.34.29,1.06.61,1.45.91,1.64,1.24,2.87,1.57,2.67,2.27-.07.23-.32.69-.49.87l-4.08,4.1c-.42.43-1.01,1.3-1.65,1.2l-1.57-1.87-3.9-3.1c-1.03-.82-2.25-1.59-3.73-1.26-.49.11-.97,1-.98,1.53s.63,1.01,1.11,1.44l2.43,2.16c1.25,1.11,2.4,2.16,3.76,3.17.55.41,1.15,1.42.36,2.01-.49.36-1.4-.38-1.82-.78l-2.98-2.8-2.46-2.32c-1.71-1.61-8.8-8.71-9.72-3.59l1.8,1.46c.63.51,1.28,1.12,1.87,1.68,1.27,1.23,2.49,2.26,3.8,3.44l2.37,2.14c1.12,1.01,2.09,2.02,3.12,3.15.25.28,1.01.7,1.01,1.06,0,.43-.49.88-.84,1.22l-3.86,3.81c-1.56,1.54-3.33,2.69-4.94,4.18-1.98,1.84-4.08,3.18-6.56,4.23-.81.34-1.31,1.12-1.09,1.85.23.79.99,1.15,1.9,1.21,2.95.18,4.77-2.81,9.34-2.5.48.92.82,1.85,1.14,2.79l.79,2.35c.14.43.25,1.02,0,1.36l-2.2-.42c-.67-.13-1.88-.11-2.33-.49-1.71-1.42-3.82-.43-4.24.17-.21.3.05,1.21.34,1.49l3.63,3.57c.37.36,1.05.82.63,1.34-.74.18-2.34.33-2.45,1.31-.1.92,1.07,1.6,1.93,1.83.02.94-1.8,1.3-1.57,2.33.06.27.38.6.77.98.61.6-1.19,3.4-2.05,4.34l1.56,1.35,1.8-.23c.88.95,4.46-.86,5.42-1.5,1.04-.7,1.79.41,3.82,1.4l2.91,1.42c2.35,1.15,4.5,2.4,6.68,3.9.47.33,1.4.58,1.88.96l3.65,2.88,2.96,2.33c1.8,1.42,3.9,2.73,6.1,3.46.92-.42,1.81-2.63.9-3.27l-4.1-2.87c-2.34-1.64-2.08-1.62-3.48-3.53-.76-1.04-2.2-1.68-3.25-2.42l-2.99-2.1c-.94-.66-2.38-.97-3.24-1.74-.98-.88-1.85-1.67-2.86-2.46l-2.73-2.12c-.24-.18-.37-.97-.07-1.07.94-.32,1.3-1.19,1.85-1.79l1.51-1.66,1.61,1.13,2.61,1.22c.86.4,1.42.94,2.29,1.35,1.77.84,3.43,1.99,5.31,2.54,1.48.43,2.53,1.23,3.76,1.99l2.28,1.41c.62.39,1.93.25,2.79.24l.1-3.13-3.7-2.28c-.19-.12-.5-.75-.69-.9-.93-.76-2.28-1.81-3.33-2.54-3.03-2.08-3-2.61-6.45-4.87-.62-.41-2.06-.69-2.05-1.66.02-2.1,4.62-6.71,5.52-9.24.35-.31,1.21.3,1.67.5l3.21,1.37c.81.35,1.68.48,2.53.89l3.02,1.47c.66.32,1.49-.18,1.77-.81.64-1.45,1.46,0,4.37.62.21.05.86-.13.9-.32l.18-.87c.27-1.34.03-2.2-.76-3.17l-1.73-2.13c-1.19-1.47-1.39-3.61-2.1-5.33-.58-1.39-1.1-2.71-.96-4.27.43-.6,2.67,2.63,3.98,1.1.29-.34.7-1.26.95-1.76.32-.63-4.11-4.04-5.12-4.91,1.75-.75,1.26,1.29,4.16.72l.79-1.74c.19-.42-.46-1.44-.91-1.55-2.49-.62-4.35-1.85-6.38-3.27-.83-.58-1.95-.89-2.92-1.43l-.13-2.88c-.77-1.25-2.3-1.24-3.51-.82-.51-.29-1.32-.85-1.6-1.28-.55-.86.59-1.48.97-1.91,1.23-1.39,2.6-1.79,4.39-1.71,1.26.06,2.59-1.52,1.78-2.56-.19-.24-.71-.43-.75-.66-.09-.55.63-2.51-.1-2.82l-2.9-1.23c-.67-1.15-1.26-2.6-1.59-3.85s.53-1.69,1.09-2.33l1.37-1.55c.57-.65,1.12-1.18,1.78-1.83.44-.43,1.14-1.59,1.92-1.28,1.27,1.47,2.35,2.89,3.76,4.23.81.77,2.53,1.21,3.46.44.73-.61.25-2.21-.36-2.83-1.47-1.51-2.83-2.88-4.36-4.29-.33-.31-.81-.63-.79-1.07.01-.32.68-.59,1.03-.83,1.1-.73,2.12-1.51,3.16-2.4.86-.74.54-2.89-.62-3.26-.73-.23-2.08.12-2.66.49l-2.66,1.71c-.53.34-1.08.53-1.82.59Z"/>
  <path d="M180.71,171.74c.74-.06,1.29-.25,1.82-.59l2.66-1.71c.59-.38,1.94-.73,2.66-.49,1.16.37,1.47,2.52.62,3.26-1.04.89-2.05,1.66-3.16,2.4-.35.23-1.01.5-1.03.83-.02.44.46.77.79,1.07,1.53,1.41,2.89,2.78,4.36,4.29.6.62,1.09,2.22.36,2.83-.92.77-2.65.33-3.46-.44-1.41-1.34-2.48-2.76-3.76-4.23-.78-.3-1.48.85-1.92,1.28-.66.65-1.21,1.18-1.78,1.83l-1.37,1.55c-.56.63-1.42,1.1-1.09,2.33s.92,2.7,1.59,3.85l2.9,1.23c.72.31,0,2.27.1,2.82.04.24.56.42.75.66.82,1.03-.52,2.61-1.78,2.56-1.79-.08-3.16.31-4.39,1.71-.38.43-1.52,1.05-.97,1.91.28.43,1.09.99,1.6,1.28,1.22-.42,2.74-.43,3.51.82l.13,2.88c.97.54,2.09.85,2.92,1.43,2.04,1.42,3.89,2.65,6.38,3.27.45.11,1.1,1.13.91,1.55l-.79,1.74c-2.9.57-2.42-1.47-4.16-.72,1.01.87,5.44,4.28,5.12,4.91-.26.5-.66,1.41-.95,1.76-1.31,1.53-3.55-1.7-3.98-1.1-.14,1.56.39,2.88.96,4.27.71,1.71.91,3.86,2.1,5.33l1.73,2.13c.79.97,1.03,1.83.76,3.17l-.18.87c-.04.19-.69.37-.9.32-2.91-.63-3.73-2.07-4.37-.62-.28.62-1.11,1.13-1.77.81l-3.02-1.47c-.86-.42-1.72-.55-2.53-.89l-3.21-1.37c-.46-.2-1.32-.82-1.67-.5-.9,2.53-5.49,7.14-5.52,9.24-.01.97,1.43,1.26,2.05,1.66,3.45,2.27,3.43,2.79,6.45,4.87,1.05.72,2.4,1.78,3.33,2.54.19.16.5.79.69.9l3.7,2.28-.1,3.13c-.86.01-2.17.14-2.79-.24l-2.28-1.41c-1.23-.76-2.28-1.56-3.76-1.99-1.88-.55-3.53-1.7-5.31-2.54-.86-.41-1.43-.95-2.29-1.35l-2.61-1.22-1.61-1.13-1.51,1.66c-.54.6-.9,1.47-1.85,1.79-.3.1-.16.89.07,1.07l2.73,2.12c1.01.78,1.89,1.57,2.86,2.46.86.78,2.31,1.08,3.24,1.74l2.99,2.1c1.05.74,2.49,1.39,3.25,2.42,1.4,1.92,1.14,1.9,3.48,3.53l4.1,2.87c.91.64.03,2.85-.9,3.27-2.21-.73-4.31-2.04-6.1-3.46l-2.96-2.33-3.65-2.88c-.48-.38-1.41-.63-1.88-.96-2.18-1.5-4.32-2.75-6.68-3.9l-2.91-1.42c-2.03-.99-2.78-2.1-3.82-1.4-.95.64-4.54,2.46-5.42,1.5l-1.8.23-1.56-1.35c.86-.93,2.66-3.74,2.05-4.34-.39-.38-.71-.71-.77-.98-.23-1.03,1.59-1.39,1.57-2.33-.86-.23-2.03-.91-1.93-1.83.11-.98,1.71-1.13,2.45-1.31.42-.53-.26-.98-.63-1.34l-3.63-3.57c-.29-.28-.55-1.19-.34-1.49.42-.6,2.53-1.59,4.24-.17.46.38,1.67.36,2.33.49l2.2.42c.25-.34.14-.93,0-1.36l-.79-2.35c-.32-.94-.66-1.87-1.14-2.79-4.57-.3-6.39,2.69-9.34,2.5-.91-.06-1.67-.42-1.9-1.21-.21-.73.29-1.51,1.09-1.85,2.49-1.05,4.58-2.38,6.56-4.23,1.6-1.49,3.38-2.65,4.94-4.18l3.86-3.81c.35-.34.84-.79.84-1.22,0-.36-.76-.78-1.01-1.06-1.03-1.14-2-2.14-3.12-3.15l-2.37-2.14c-1.31-1.18-2.53-2.21-3.8-3.44-.59-.57-1.24-1.17-1.87-1.68l-1.8-1.46c.93-5.11,8.02,1.98,9.72,3.59l2.46,2.32,2.98,2.8c.42.39,1.33,1.14,1.82.78.78-.58.19-1.6-.36-2.01-1.36-1.02-2.52-2.07-3.76-3.17l-2.43-2.16c-.48-.42-1.11-.9-1.11-1.44s.49-1.42.98-1.53c1.49-.33,2.7.44,3.73,1.26l3.9,3.1,1.57,1.87c.63.1,1.22-.78,1.65-1.2l4.08-4.1c.18-.18.43-.64.49-.87.21-.7-1.03-1.02-2.67-2.27-.39-.3-1.11-.62-1.45-.91l-1.96-1.68c-.52-.45-1.58-1.6-2.24-1.39l-2.82.9c-.43.14-1.34-.31-1.67-.62-.43-.4-.54-1.33-.37-1.99l1.89-.8c-.05-1.09-.97-1.19-1.74-1.65.24.14-7.22-4.88-6.11-3.88l-2.56-2.31c-.22-.2-.75-.81-.68-1.12s.48-.82.85-1.08c1.76-1.2,3.42,1.22,5.04-.38l1.57-1.55c1.26-1.24,2.12-2.47,3.05-3.96,1.71-2.74,4.25-4.84,6.57-7.03,1.04-.99,2.01-1.81,3.14-2.63.69-.5,1.12-1.09.87-2.05-1.83.5-3.6.97-5.35,1.66-1.25.49-2.37,1.03-3.69,1.34s-2.52.81-3.77,1.2l-4.29,1.3c-.63.19-1.93.15-2.58-.05-.32-.1-.57-1.07-.41-1.35.19-.32.67-.69,1.12-.96l8.33-4.87c.66-.38,1.81-.41,2.42-.92,1.82-1.52,2.62-.97,2.92-1.82.09-.25-.18-.73-.37-1l-2.82-4.07c-.78.2-1.44.8-1.99,1.46l-1.88,2.25c-.47.57-1.08.72-1.68.41-.66-.35-.71-1.25-.26-1.87l2.85-3.91c.21-.28.83-.74.76-1.07-.08-.4-.44-.79-.75-1.15-.86-1-1.64-2.23-2.8-2.92-.56-.33-1.31-.79-1.17-1.23.49-1.53,2.35-.99,2.99-1.53.77-.65.97-2.17,2.46-2.17.89,0,3.06-1.32,2.54-2-.13-.18-.45-.49-.63-.64l-1.67,1.3c-.39.31-1.12.08-1.38-.4-.61-1.13,1.89-1.67,2.13-2.82-.51-.62-1.4-.72-2.01-1.06-1.05-.58-2.05-.92-3.26-1.33s-2.64-.68-3.97-.25c-.35.11-.81-.75-.74-1.07s.55-.88.91-.95l3.03-.6c1.46-.29,4.47,1.36,6.54,1.13,1.88-1.14,1.93.42,4.9-.21.29-.06.77-.57.76-.85-.01-.32-.61-.79-.93-.83l-.78-.09c-.14-.01-.15-.35-.14-.5l.06-.87c.06-.77-3.22,1.2-3.92-.23-.15-.3.12-.91.24-1.32.54-1.8.71-3.71,2.22-5.03.41-.36,1.24-.99,1.3-1.45-.23-.61-.76-1.75-.4-2.12,1.02-1.05,2.39-1.23,3.64-1.5l2.52-.54c-3.58-.97-3.34-1.64-5.38-2.33s-3.99-1.49-6.02-2.34l-1.86-.77c-1.34-.56-5.12-1.71-3.86-3.46,2.19-.16,4.38.37,6.27,1.2l1.68.74,3.65,1.61c1.43.63,3.3.82,4.24,2.3.91-.95,2.66-1.36,2.51-2.35s-1.01-.92-2.11-2.09c-.25-.27-.03-1.34.3-1.5l2.06-.31c-.3-.64-.67-1.11-1.17-1.63l-.94-1.39-1.92,2.4c-.52.65-1.63,1.29-2.45,1.8-.76.48-2.74-.02-2.87-1.1.07-.97,1.06-2.39,1.81-3.04.68-.59,1.57-1.09,1.22-2.22-1.76-1.75-4.65-2.38-5.38-5.05,5.96-3.35,7.48-6.99,13.57-10.72l.7-.43c.38-.23-.56-1.08-.4-2,.06-.34.73-.78,1.12-.73l3.96.57c-.64-2.84-2.02-2.55-2.25-3.59-.14-.66.16-1.38.52-1.89l2.31-3.24,1.25-1.64,2.22-3.55c.23-.37.71-.96.58-1.28-.15-.36-.82-.73-1.1-.99l-1.86-1.74c-.24-.22-.6-.7-.62-.98-.06-.69,1.51-2.11,2.94-1.35,1.73.93,2.92,2.08,3.5,1.19.24-.37.13-1.57-.24-1.78-1.86-.94-3.8-2.12-5.75-2.8l-3.42-1.2c-.82-.29-1.99-.48-2.59-.95l-1.8-1.41c.17-.04.95-.18,1.49-.27.33-.05.55-.8.45-1.26-.21-.96-2.15-1.38-2.74-2.68-.22-.48.36-1.84.87-1.89l2.48-.21c1.99-.17,3.72-.49,5.68-.26,1.61.19,3.27.08,4.95.16,2.77.13,1.24-.2,3.57.17l.14-1.99c.96-.52,1.99-.99,2.78-1.58l1.97-1.45c.68-.5-.37-1.15-.66-1.53l-3.41-4.51-4.56-6.24-1.09-1.26c-.87-1.01-1.25-2.43-2.14-3.4-.67-.73-1.49-1.54-.75-2.69,1.08-1.68,8.79,2.39,10.68,3.28,1.48.69,3.25.99,4.65,1.84.91.55,1.73,1.02,2.66,1.47l3.08,1.49,2.97,1.39c1.07.5,2.05,1.31,3.25,1.73l3.47,1.22c.09.03.57.02.52-.05s-.2-.47-.26-.53l-2.81-2.51-1.72-1.68-2.86-2.41-2.17-1.93c-.86-.77-1.69-1.46-2.36-2.45-4.35-6.4-6.21-3.62-8.3-7.14l.64-1.84-2.34-3.09c-.49-.64-1.31-1.39-.93-3.18.07-.32.83-.49,1.22-.57,3.42-.69,6.56,2.08,8.93,4.12l3.64,3.14c3.17,2.73,6.94,3.03,6.57,5.23-.4,2.43.62,1.83,2.21,4.18,2.25,1.37,4.74,2.12,7.24,2.89l7.73,2.38,3.99,1.32.05,3.28c-4.02,1.02-5.96-.04-9.33,2.11l-1.48.95,2.58,1.57c.47.29,1.15,1.02,1.5,1.55.37,1.41-1.45,3.3-2.72,2.69-1.88-1.9-1.6-1.31-3.98-3.51-.48-.44-1.35.05-1.87.34l-2.82,1.57c-3.35,1.86.19-.87-3.42,2.04-1.29,1.04-2.48,1.88-3.59,3.22-.19.23.31,3.99,1.89,3.61,2.23-.54,4.52-1.2,6.67-2.09l3.58-1.49,3.83-1.47c1.71-.66,3.33-1.24,5.11-1.81,1.96-.63,4.15-1.27,6,.02.53.78-.01,2.69-.97,3.09-3.51,1.47-6.66,3.16-9.51,5.64l-.75.38c-.17.09-.06.75.11.86,3.95,2.7,7.39,5.93,10.76,9.54.88.94,1.63,2.09,2.38,3.12,1.88,2.57,2.85,1.5,5.37,3.04,1.44.88,2.18,2.49,3.19,3.71l2.11,2.55c2.12,2.57,4.4,3.69,5.58,5.98.66,1.27,2.38.26,3.21,2.01.38.8.41,2.03-.63,2.24-.95.19-1.77.56-2.55,1.1l-2.01,1.38c-1.9,1.3-3.92,1.79-2.88,2.88l2.77,2.92,3.53,3.47c.56.55,1.18.93,2.01.69.64-.19,1.92-.35,2.34.17.67.84.47,1.99.72,3.01.2.84.94,2.3,1.65,2.73,1.18.71,2.18,1.06,3.13,2.05.73.76.99,2.83-.08,3.28-1.79.75-5.7-2.18-7.08-3.37-2.64-2.27-2.41-3.7-4.38-2.68l-4.58,2.37c-3.01,1.56-4.82,2.04-7.81,3.69-.9.5-1.56,1.09-2.71,1.17-.28.02-.81.47-.83.76-.04.67.45.67,2.2,1.8,1.17.76,2.65,1.07,4,1.54l7.66,2.67,2.73.9c-.3-2.34-.27-4.13-.02-6.34.1-.89-.01-2.13.49-2.89.78-1.18,2.63-1.49,3.72-.84,1.78,1.06,1.81,2.91,1.91,4.69.07,1.29.26,2.57-.04,3.85l-.84,3.65,3.04,2.98c.66.65,1.71.98,2.54,1.32.89.36.68,1.57.45,2.26-.78,2.33-.98.4-4.38,3.62-.14.13-.09.73.03.89l2.32,2.9c1.27,1.58.6,3.43.28,3.77-1.14,1.23-4.72-2.19-5.65-3.44-.23-.32-.76-.77-1.1-.73-.73.07-4.09,3.15-4.97,4.09l-.67.72c-.18.19.34.73.57.92,1.58,1.25,2.74,2.84,4.03,4.38.44.52.73.91,1.06,1.65l1.39,1.35.3.86c.08.23.91-.12,1.02-.34.55-1.12,1.79-2.28,2.79-3.12,1.34-1.13,2.43-2.36,4.2-2.77,1.17-.27,2.83.56,2.55,1.85-.11.54-.34,1.46-.42,2.04-.04.25.78.1.93-.12,1.07-1.56,3.36-3.79,5.43-3.44.75.13,1.47.66,1.6,1.22.21.92-.43,1.4-1.08,1.97-1.54,1.35-2.96,2.79-4.7,3.9-.52.33-1.08.71-1,1.46.17,1.71.91,3.13,1.61,4.65,1.96,4.26,2.92,4.31,5.5,8.05-.23.51-.72,1.3-1.08,1.71-1.4,1.59-5.52-2.93-6.94-4.09l-2.39-1.95c-1.36-1.11-1.81-2.75-3.08-1.6l-1.75,1.6-3.22,3.44c-.2.22.08.79.29.92l5.2,3.19,4.98,2.94c2.28,1.35,2.84,2.67,5.01,2.5,2.8-.22,5.4.07,7.98,1.47.51.28.5,1.6.37,2.36-.1.62-.91,1.17-1.56,1.76-.62.56-1.06,1.69-1.87,1.94l-2.22.68-3.8,2.23c-.09.05-.43.46-.35.48l.47.11c3.94.88,5-1.39,7.33,1.56-1.35,2.01-3.42,2.58-5.42,3.44l-5.03,2.16c-1.67.72-3.13,1.18-5.06,1.28.03.55.44,1,.91,1.44l2.26,2.13,2.48-.65c1.8-.47,3.58-.54,5.43-.83l2.44-.38c2.32-.36,11.94.37,12.83,1.84.77,1.27-1.42,2.46-1.75,2.68l-6.2,4.12c-.26.17-.43.93-.21,1.12,1.23,1.08,2.36,2.46,2.91,3.89-.17.44-.39,1.04-.5,1.46-.1.36.62.84.9,1.17.35.41.16,1.82-.32,2.07-.88.45-1.36,1.23-1.99,1.85-.26.25-3.24,2.32-3.04,2.6.09.13.34.41.48.52l1.47,1.18,4.3,3.45c.56.45,1.03,2.08.8,2.75-1.15,1.74-5.19-.55-6.07-1.56l-2.88-3.33c-.1-.12-.53-.31-.67-.32-.19-.02-.39.37-.48.58-.72,1.81.39,3.15,1.75,4.14.41.55,1.03,1.72,1.76,2.04.3.13,1.08-.22,1.34-.37,2.61.75,4.91-.17,6.27,1.07,1,.92.48,2.95.33,3.06-.19.15-.61.26-.96.35l-.66.17c-.19.05-.13.88.03,1l2.54,1.9c1.01.75,1.94,1.9,2.68,2.75-.06.54-.11,1.05-.12,1.37l-.02.7c0,.2-1.55.91-4.24-.97l-2.82-1.97c-1.84-1.28-3.46-2.52-5.31-3.83l-2.22-1.58c-1.74-.32-7.95,4.12-6.14,4.94,3.55,1.61.83,2.21,3.49,3.98,2.9,1.92,4.77,2.72,8.29,3.74.69.2,1.61,1.16,1.58,1.84-.06,1.6-1.18,2.07-2.77,2.33,1.75,2.34,3.37,2.47,4.93,3.82.82.71-.27,3.2-.62,3.28-.19.05-.76-.03-.97-.13l-2.32-1.06c-1.79-.82-2.54-2.11-4.47-3.84l-2.16-1.93c-1.23-1.11-2.5-1.99-3.97-2.78-.89-.47-1.69-.6-2.76-.65-4.21-.23-7.79-.22-10.7,3.07l-4.48,5.06c-.7.79-1.32,1.54-1.93,2.39l-1.31,1.8c-.97,1.33-2.4,3.15-4.13,2.85-.56-.1-1.53-.93-1.48-1.64,3.01-4.14,6.25-7.79,9.69-11.55.35-.38-.87-.95-1.32-.63l-.43-1.97c1.75-3.29,2.94-3.78,4.85-6.72l1.77-2.73-3-1.98c-1.62-1.07-3.17-1.88-4.68-3.05-1.93-1.49-3.78-1.41-3.1-4.14,3.08-.41,5.95.21,8.54,1.82,1.17.73,2.59,1.46,3.63,2.29.32.25,1.29.76,1.62.56.73-.43,1.46-1.4,2.05-2.02.63-.67,2.29-2.18,2.28-3.08,0-.23-.64-.38-.82-.53l-4.46-3.7c-.94-.79-2.01-1.51-2.79-2.43-.86-1.02-1.72-1.12-2.84-.57l-3.71,1.84c-.7.35-1.76.7-2.59.66-.58-.53-1.03-1.77-1.01-2.52,1.35-1.2,2.8-2.23,3.81-3.72s2.42-3.36,3.86-4.4c1.92-1.39-4.09-.71-4.59-.64-4.23.59-3.69,3.5-8.3,3.08-.35-.48-.52-2.04-.01-2.43l4.65-3.59c2.55-1.97,4.24-2.13,5.16-2.87.63-.51-3.67-2.52-3.97-2.7-.75-.43-1.33-1.08-2.21-1.43-.67-.27-.84-1.89-.22-2.31l1.63-1.1c.19-.13,2.59-1.87,1.53-1.7l-.57.09c-1.03.16-2.7.25-3.56-.39s.06-1.89.55-2.38l2.79-2.8c1.83-1.84-2.69-.53-2.32-2.94.42-2.73,1.96-.99,5.92-2.02.86-.23,2.27-.35,2.93-.92l4.48-3.94c.88-.78,1.67-1.56,2.69-2.13l2.2-1.23v-.6s-1.72-.97-1.72-.97c-3.27-1.84-6.34-3.64-9.96-5.02-1.61,1.11-2.72,2.54-4.03,3.97-1,1.09-2.55,1.76-3.65,2.78-1.76,1.62-3.51,3.06-5.52,1.37-1.11-.93,1.09-2.93,1.66-3.97.8-1.44,1.65-2.59,2.69-3.85.51-.62,1.03-1.37,1.64-1.95.27-.25.4-1.28.05-1.31-4.5-.36-5.8,1.03-6.85-1.28-.28-.61.32-1.49,1.03-1.72l3.25-1.06c.76-.25,1.74-.2,2.35-.8.19-.19-.31-.87-.56-.92-3.54-.81-1.28-.79-3.85-1.7l-1.96-.69c-.69-.25-1.36-.87-2.1-1.32-.98.53-3.56,3.18-3.33,4.43-.51.62-4.41,1.03-4.84-1.04l-2.34-1.41c-.71-.43-1.7-.74-2.29-1.26-.88-.78-1.66-1.38-2.64-1.99l-.36-.23c-.09-.06-.22.02-.38.11-.39.2,2.54,3.55,2.93,3.98.55.62,1.2,1.14,1.72,1.87.44.61,1.09,1.21,1.56,1.72.56.86.04,2.46-.65,3.17-2.17-.17-4.34-.58-6.46-.98l-4.67-.88c-2.33-.44-4.63-.84-6.89-1.52l-5.55-1.67c-.92-.28-1.99-1.1-2.92-.04-.69.79-.96,2.21-1.5,3.2s-1.28,2.16-2.1,2.97c-.63.49-2.55.03-3-.63-.64-.93.52-2.13.9-2.88.56-1.09.99-1.96,1.64-2.99.24-.39.58-1.39.24-1.64-1.81-1.1-3.34-2.07-5-3.27-.23-.17-.66-.42-.89-.42-.28,0-.76.43-.9.68l-1.6,2.97c-1.2,2.23-2.22,3.98-4.06,5.82-.31.31-.51.84-.57,1.38ZM194.83,21.33l-.56-.72c-.09-.11-.59.18-.61.31.4,1.26,1.67,2.96,3.15,3.15.17-1.41-1.18-1.84-1.97-2.74ZM205.28,30.68c-1.29-1-2.57-2.2-4.36-1.72,1.35,1.02,2.71,1.78,4.36,1.72ZM195.92,47.96l2.25-1.56c3.2-2.22,5.26-1.54,5.17-2.1-.02-.15-.26-.49-.4-.55-2.23-.95-4.41-2.4-6.6-3.42l-3.66-1.7c-1.16-.54-2.23-1.13-3.43-1.58-1.32-.99-2.62-1.93-4.51-1.76.2.95.72,1.79,1.46,2.42.97.83,1.48,1.84,2.17,2.91.53.82,1.21,1.68,1.83,2.45,2.03,2.49.99,1.83,3.02,3.93l1.58,1.63c.25.26.77-.43,1.11-.67ZM221.53,40.34c-1.19-.52-1.71-.6-2.54-.91l-2.96-1.1c-1.23-.46-2.15-.96-3.54-1.12.63,1.74,2.54,4.61,3.45,5.8.45,0,1.05-.56,1.36-.7l4.24-1.98ZM207,48.58c1.07-.67,1.81-1.19,2.83-2.19l-1.31-.61c-.29-.14-1.05-.22-1.33-.07-.24.13-.4.65-.68.96l-1.92,2.11c-.67.73-.9,1.75-1.4,2.96,1.51-.2.94-1.37,3.81-3.16ZM215.92,59.78c.73-.14,1.68-.73,1.81-1.51l-1.51.49c-.22.07-.58.26-.74.36-.12.08.24.7.44.66ZM190.44,59.43c-.27-.22-.81-.43-1.02-.44l-2.21-.14-4.05-.16c-.75-.03-1.45-.05-2.2-.04l-2.37.04c-.5,0-1.74-.16-1.89.29-.43,1.28,3.1,1.01,5.65,2.09,2.04.87,5.23,3.61,5.59,2.9.09-.17.2-.62.3-.79l2.19-3.74ZM212.74,61.66c-.56-.09-1.07,0-1.62.33.61.4,1.03.63,1.67.96l.39-.69c.07-.12-.29-.58-.44-.6ZM204.7,68.68l2.6-2.31c.14-.12.45-.6.33-.74-.68-.79-1.54-.56-2-1.08-1.53-1.73-3.88-2.46-6.21-1.74-.38.12-1.35.02-1.69.2-2.23,1.19-2.39-1.83-3.78.32l-2.26,3.49c-.94,1.45,1.33,1.57,3.53,2.87,3.42,2.01,3.66.16,5.09,1.87.13.16.53.45.71.41s.44-.26.64-.44l3.04-2.85ZM245.22,92.38c-1.56-1.02-2.8-1.63-4.03-2.7l-1.65-1.44c-1.23-1.06-2.29-1.99-3.64-2.89-.7-.47-1.49-1.32-2-1.99l-1.57-2.06c-.9-1.18-1.71-2.26-3.11-2.97.09-.78.49-1.34,1.26-1.86-.22-.52-.56-1.34-.93-1.73l-3.85-4.09c-2.12-2.25-4.33-4.13-6.99-5.75-.5-.31-1.19-1.41-1.91-1.1l-2.39,1.04c-.51.55.49,1.24.88,1.56,2.62,2.24,3.32,3.87,6.53,5.47,2.3,1.15-.74,2.97,1.55,4.45.71,1.04,1.77,1.78,2.59,2.68,1.04,1.12,1.94,1.96,3.22,2.82l2.14,1.44,3.77,2.65c.27.8.67,1.71,1.23,2.38l4.38,5.3c.45.55,3.85-.67,4.53-1.24ZM220.87,77.88l-1.73-2.09c-.8-.97-1.38-1.93-2.51-2.56-.99-.55-1.77-1.42-2.66-2.12s-1.68-1.26-2.47-2.11c-.33-.36-.91-.72-1.36-.72-.33,0-.73.58-1.04.79l-1.17.79c-1.21,2.18-3.36,1.51-3.19,3.65,4.81,1.35,6.94,2.14,11.8,3.22,1.48.33,2.6,1.55,4.33,1.16ZM229.71,154.99l1.99,1.54c.17.13.54.29.73.34s.18-.94-.05-1.08c-1.75-1.05-3.32-3.6-4.21-5.57l-1.37-3.02c-1.04-2.29-2.25-4.65-4.2-6.3-.78-.66-1.77-1.57-.84-2.6.34-.37,1.47-.6,1.98-.56.89.87,2.06.81,3.08.13.86-.58,1.88.02,2.8.29,1.94.58,4.16.79,5.89,1.79l3.67,2.13c.37.21.98.73,1.37.64.31-.07.77-.6,1.08-.78,1.4-.81,2.81-1.48,4.09-2.47,1.76-1.36,2.59-1.62,2.18-2.84-.12-.36-.61-.71-1-1.1-1.45-1.46-2.65-3.08-4.27-4.35-1.05-.83-1.88-2.02-3-2.73-5.05-3.2-5.72-2.32-10.9-2.57-5.73-.28-5.87,2.21-9.41.78-.18-.51-.36-1.7-.08-2.11.46-.67,1.75-.97,2.29-1.49l1.69-1.64c-.15-.16-.8-.38-1.11-.29l-3.24.92c-1.71.49-3.08-.62-3.32-1.14-.14-.3.06-1.18.3-1.43,1.59-1.62,3.94-3.94,5.68-5.31l2.15-1.69c.63-.5,1.3-.92,1.86-1.52s1.24-.82,1.93-1.22c1.4-.82,2.71-1.81,4.16-2.54,2.27-1.15,4.41-2.33,6.95-2.86.55-.11,1.68.14,1.9-.54.49-.34-2.08-1.64-2.51-1.67-.37-.02-.98.47-1.38.68-4.23,2.22-6.19,4.13-10.93,5.21-1.15.26-2.28.9-3.43,1.29-1.24.43-2.44.84-3.66,1.36-1.99.85-3.65-.52-3.78-1.22-.07-.41.32-1.1.65-1.35l1.68-1.27c.39-.29.97-.61,1.18-.93s-.04-1.22-.06-1.63c-.2-5.47-.16-7.28,1.12-12.46.32-1.31,1.38-2.55,2.62-2.84,2.9-.69,4.11.19,6.34,1.59l2.98,1.87c1.38.86,2.97,2.1,4.08,3.22.17.17.74.28.93.3s.08-.74-.09-.94l-4.99-5.61c-1.87-2.1-3.88-4.45-6.34-5.66l-3.71-1.82c-1.77-.87-3.76-1.31-5.6-2.09-1.57-.67-3.09-.99-4.75-1.35-.74-.16-1.61-.47-2.37-.69l-3.4-.96c-.75-.21-1.72-.57-2.45-.8-1.09.36-2.1.37-2.95-.47-.7-.69-1.56-.96-2.49-1.35l-3.93-1.66c.07,1.36-.05,2.27-.79,3.22-2.86,3.69,6.14,6.35.71,8.1-2.16.7-3.39,2.52-5.12,3.74-1.44,1.01-3.21,1.65-3.43,3.77l1.6.63c.55.21.76,1.64,1.13,2.12,1.97,2.6,3.49,2.29,3.28,3.83-.05.41-.73.96-1.26,1.1-1.83.49-3.31-.75-4.14-2.3-.59-1.09-2.02-1.86-3.04-1.09-.81.62.12,1.62.46,2.14.66.98,1.29,1.74,2.19,2.43l2.33,1.78c1.15.88,1.19,2.68.37,3.46-.37.35-1.34.67-1.69.32-.77-.75-1.37-1.8-2.3-2.07s-2.05.51-2.38,1.31l1.54,1.67c.81.88,1.54-.61,2.39-.22s.93,2.68,2.69,5.08c.19.25.21,1.1-.04,1.23l-1.77.92c-.94-.59-1.93-1.28-2.7-2.09l-2.83-2.96c-.22-.23-.72-.61-.99-.54s-.76.42-.95.65l-3.55,4.43.93,1.29c1.86-1.66,3.12-2.82,5.83-2.18,1.17.27,2.39,1.5,2.84,2.59-.58,1.62-2.72-1.59-3.9-.91l-1.89,1.09c-.31.18-.74.57-.73.87,0,.28.62.54.88.75l3.27,2.71c.22.18.58.9.84.79l1-.43c.45-.19,1.54,0,1.92.47.31.39-.2,1.37-.46,1.71.88.1,1.22.35,1.74.8l2.23,1.93c.32.27.55,1.08.51,1.47s-.52,1.18-.95,1.3c-2.96.86-3.43-1.91-5.09-.85-.17.11-.08.83.11.87l2.36.47c.58.61,1.2,1.67,1.79,2.2l1.69,1.49c1,.89,1.96,1.67,2.79,2.74,1.42,1.82,2.94,3.18,5.11,4.08.55.23,1.61,1.14,2.16.48,1.14-1.36,2.09-2.68,3.45-3.82.91-.76,2.69-1.45,3.77-.83.95.54,1.72,1.01,2.71,1.37l1.9.7c.15.55.62,1.73.31,2.12l-1.33,1.66c-.31.38-.8,1.47-.16,1.66,1.22.36,2.21.72,3.29,1.34,1.32.76,2.72,1.38,3.97,2.29,2.18,1.58,4.29,3.17,6.36,4.94l3.48,2.98,2.02,1.66ZM183.98,83.36c1.06-1.22,2.43-2.9,3.27-4.13.1-.14-.25-.73-.37-.66-1.29.8-.79,1.51-3.03,3.71-.74.73-1.21,1.82-1.73,2.9.99-.23,1.18-1.04,1.86-1.83ZM232.41,97.8c-.05-1.52-1.25-1.73-2.17-2.24s-1.89-1.3-2.83-1.92l-2.46-1.62c-.86-.57-2.03.34-2.34,1.15-.84,2.21-1.53,4.22-1.85,6.63-.07.55.63,1.49.84,1.98.18.43.26.99.54,1.09.23.08.88-.08,1.08-.21,2.91-1.89,5.88-3.44,9.18-4.87ZM165.46,105.51c1.28-.29,1.83-1.6,2.58-2.37,1.8-1.84,3.34-3.64,4.77-5.81.6-.91,2.6-1.9,1.23-3.35-1.48.39-2.62,1.4-3.73,2.3l-3.84,3.13c-.88.72-1.55,1.59-2.41,2.37l-.99.91c-.24.22-.06,1.14.21,1.33l2.17,1.5ZM179.57,103.28l1.52-2.46c.16-.26.22-1.02.02-1.23s-.99-.36-1.24-.15l-2.47,2.1c.82.87,1.3,1.22,2.16,1.74ZM174.65,108.93c1.19-1.92,2.44-2.78,2.11-3.39-.17-.31-.86-.49-1.26-.57l-2.23-1.9c-.47.08-1.05.64-1.33,1.06-2.13,3.12-2.95,2.63-1.71,4.24l2.2,2.87c.19.25,1-.37,1.17-.64l1.04-1.68ZM228.79,116.46l4.82-1.99,2.73-1.07c4.98-1.95,5.58-2.76,10.29-4.9-1.38-2.78-4.05-2.1-6.2-1.56l-3.68.92c-1.18.29-10.28,5.29-11.6,7.04.97.52,3.15,1.77,3.64,1.57ZM171.16,119.86c.6.03.89-1,.62-1.39-.32-.47-1.04-.65-1.58-.22-.31.24-.69.8-.79,1.14.63.27,1.19.45,1.75.48ZM179.08,122.06l-3.02-3.23c.25,1.57,1.36,3.09,3.02,3.23ZM230.22,122.27c-.41-.47-.87-.75-1.39-.75s-.98.28-1.39.75c.98.42,1.8.42,2.77,0ZM174.72,123.86l-2.59-.87c-.24-.08-.92.16-1.03.37s-.12.59-.12,1.01c1.41.1,2.44.41,3.75-.51ZM165.9,125.52l2-.74c.29-.11.48-.99.2-1.05l-2.3.66c-.25.07-.17,1.14.1,1.13ZM180.11,126.29l1.74,1.82.37-.63c.15-.25-1.39-1.84-2.1-1.19ZM170.99,130.25l3.41-3.3c-1.6-.15-5.99-.34-6.87,1.03-.09.15.28.55.45.65l3,1.63ZM180.03,133.34c.28,0,.79-.27.88-.49.25-.61-.43-2.01-.76-2.48l-1.79-2.55c-.55-.78-1.3.09-1.74.41l-2.94,2.18c-.3.22-.52,1.1-.19,1.22,1.35.03,2.92.42,3.27,1.74l3.27-.03ZM164.12,128.34c-.6-.58-1.57-.31-1.93.4l-1.17,2.33c-.05.09.14.54.15.64.14.9.92-2.57,2.94-3.37ZM172.41,136.2c-.8-.69-1.75-1.36-2.76-2.01-.17.25-.22.98,0,1.14l.66.51-.02.88c0,.37,2.37.35,2.12-.52ZM196.46,142.78l-2.06-2.23c-1.05-1.14-2.06-2.22-3.26-3.23-.45-.38-.76-1.03-1.42-.98l3.02,3.73c.25.3,3.47,3.75,3.73,2.71ZM204.22,141.73c1.2-.7,2.9-1.76,3.76-2.59.15-.15.18-1.08,0-1.02l-.88.26c-1.5.45-3.26,1.57-4.01,2.79-.14.23.12,1.15.32,1.04l.81-.48ZM174.27,140.57l1.9-1.04c.1-.27-.19-1.01-.47-1.07-.23-.05-.79-.03-1.02.04l-2.15.64,1.74,1.43ZM168.43,144.04l-2.41-2.22c-1.01-.8-2.02-1.58-3.46-.78l1.52.58c1.26,1.02,2.37,2.51,4.34,2.42ZM182.84,150.06c.97.77,1.62,1.4,2.97,1.28,2.34-.22,3.26,1.07,4.33-.72,1.58-2.64,2.92-2.29,1.68-3.88l-1.49-1.92c-1.34-1.73-.56-2.68-4.46-3.21.58.93,3.73,2.48,2.68,3.61-1.82,1.97-6.62-1.42-8.3-2.77-.25-.2-.95-.53-1.25-.45-.42.11-1.62,1.38-1.67,2.02-.02.32.45.82.71,1.13l1.53,1.84c.97,1.17,2.02,2.08,3.27,3.08ZM231.06,147.99c1.32-.83-1.82-4.02-2.47-3l1.38,1.68c.24.55.55,1.34,1.09,1.32ZM229.98,161.52c.55-.47,1.15-1.75.32-2.14-1.31-.63-2.1-1.47-3.19-2.42-.57-.5-1.57-1.01-2.23-1.52-1.06-.81-1.85-1.66-2.78-2.53-1.53-1.43-9.69-8.07-11.79-7.51,1.18,1.21,2.26,2.05,3.18,3.14l1.08,1.29c.75.89,1.49,1.48,2.37,2.23l2.72,2.3c1.23,1.04,2.31,2.15,3.48,3.27l4.51,4.31c.79.76,1.5.27,2.32-.43ZM163.14,146.79c-.52.77.09,1.5.77,1.8,1.26.55,2.37-.62,2.49-.99.16-.52-2.71-1.62-3.26-.81ZM241.34,147.12c-.32-.35-1.37-.59-1.85-.02.24.26.78.64,1.12.69l.62.09c.13.02.21-.66.12-.77ZM171.35,150.33c.02-.16-.03-.62-.2-.63-.56.26-2.46-1.02-2.4-.43l.06.53,2.55.53ZM235.68,155.02c.59-.82.87-1.27,1.32-2l-1.36-1.67c-.73-.9-1.64-1.11-2.75-1.39l-.82-.21c-.15-.04-.51.57-.44.73.37.86,3.39,5.45,4.05,4.54ZM247.92,152.78c-.65-1.23-1.52-1.87-2.37-2.71l-.65-.21c-.14-.04-.43.22-.4.36s.23.49.39.59l3.03,1.96ZM198.66,155.65c.18.13.7-.61.58-.8-1.3-1.94-1.14-.83-2.3-2.14l-1.32-1.5c-.87.35-1.18,1.11-1.67,1.83-.31.45-1.21,1.2-.87,1.83.25.46,1.62.37,2.1.11,1.22-.63,2.35-.13,3.48.67ZM175.59,156.74l2.11-1.28.68-.43c.12-.07-.17-.64-.33-.63l-2.98.07c1.43-.03-9.58-2.07-11.28-.95.92,1.44,2.18,2.57,3.38,3.69l1.37,1.28c.28.26.71,1.11,1.06,1.01,1.85-.52,4.17-1.65,6-2.76ZM261.02,156.53c.81-.5,1.47-.94,1.24-2.15-1.41-.14-3.38,1.63-4.28,2.69l-1.33,1.57c.67.72,2.88-1.21,4.37-2.12ZM248.99,162.96c-.85-.15-1.53-1.13-2.15-1.65l-2.38-1.98c-.43-.36-.79-.81-1.19-1.21l-2.94-2.94c-.92.91-1.49,1.43-2.16,2.28-.33.42.66,1.49,1.1,1.78l2.01,1.34c2.62,1.75,3.52,2.9,5.82,4.49,1.55-1.75,2.39-.86,1.89-2.13ZM251.49,159.64l-2.66-1.8c-1.64-1.11-1.91-1.6-3.65-2.41.69,1.62,2.21,1.55,3.17,2.69,2.87,3.43,4.37,2.57,3.67,1.96-.11-.09-.34-.3-.54-.44ZM215.63,163.04c-.29.1-.73.28-1.22.48-2.13-.75-3.38-4.02-4.79-1.86-.99-.47-2.24-1.06-3.22-1.67l-1.79-1.12c-.4-.25-.97-1.27-1.5-1.05-1.77.75-1.12,2.18-3.05,4.36-.13.15-.2.78-.02.86s.6.28.81.33l5.64,1.51,4.96,1.33c.85.23,6.36,1.4,6.79.86-1.13-1.31-1.87-4.3-2.6-4.05ZM197.21,158.7l-5.03-.66c-.28-.04-.82.5-.66.78.16.26.54.61.81.81l3.04,2.24,1.83-3.17ZM173.61,162.18c1.65-1.12,3.58-2,4.68-3.16-1.06.24-1.67.7-2.48,1.06l-4.43,1.95c-.21.4.63.82,1.1.78.31-.03.76-.37,1.13-.62ZM177.44,167.59l2.17-3.22c.67-.99,1.34-1.83,2.09-2.73,1.34-1.6,2.24-1.63,1.86-2.17-.1-.14-.49-.14-.66-.04l-1.79,1.12c-1.57.98-3.13,1.82-4.77,2.7-2.11,1.13,1.19.94.49,3.58l-.19.69c-.04.14.65.1.79.07ZM264.3,164.07l-.86-3.59c-.87.7-1.44,1.74-1,2.47.33.56,1.1,1.02,1.87,1.12ZM251.87,168.77c1.16-.83.92-2.13.7-3.16-.84.53-1.69,1.01-2.1,1.71-.32.55.94,1.78,1.4,1.45ZM167.65,173c1.98-2.14.8-2.33.77-2.32-.13.07-.45.28-.56.42-2.23,2.87-5.58,4.23-7.66,7.34,2.04-.45,6.22-4.12,7.44-5.44ZM245.77,174.95l1.8-1.59c-.27-.21-.9-.2-1.08,0l-3.01,3.28c1.46.2,1.56-1.05,2.29-1.69ZM175.13,181.57l2.23-2.45c.55-.6,1.08-1.29,1.27-2.1-.93-.59-3.44.09-4.11,1.58-.48,1.06-.46,2.07.61,2.97ZM163.21,191.49c-.87-.79-1.46-1.57-1.41-2.46.02-.3.43-.9.69-.93,1.96-.2,3.31,2.21,4.33,1.45l1.44-1.08c1.2-.9,2.45-1.91,3.52-2.85,1.17-1.03.74-1.97.46-3.18-.2-.89-.27-2.31-.88-3.01-.29-.1-.91.26-1.16.44-1.22.87-2.65,1.62-3.98,2.29l-5.08,2.54-3.38,1.43-2.1.8c-.31.12-.82.34-.98.55-.41.54,1.25,1.3,2.5,2.25l3.18,2.41c.39.29,1.23.49,1.71.42.41-.05,1.14-.7,1.14-1.07ZM264.52,188.27l1.88-1.15,2.69-1.56c-.76-.98-1.72-1.9-2.98-2.07-3.04-.41-6.51,3.11-8.87,4.99-.32.25-.8.53-.77.85.03.28.69.6.99.6l3.34.07c1.27.03,2.62-1.07,3.71-1.73ZM174.78,189.87l-.16-.79c-.07-.35-.26-.94-.51-1.07s-.84.23-1.09.44l-2.29,1.93c.72.14,4.14-.09,4.06-.5ZM255.08,194l1.54-.94c-1.21-.83-4.36-1.1-3.91.18.37,1.04,1.48,1.31,2.37.77ZM267.09,193.88c-5.26-1.28-3.16.97-6.45,1.61-.35.07-.71.63-.96,1.13,1.3-.1,6.41-1.25,7.41-2.73ZM173.16,197.25c.39-.29,1.02-1.64.46-1.82l-2.65-.86c-.31-.1-1.18.25-1.09.52.09.25.3.7.46.89l1.21,1.48c.15.18.67.51.85.37l.76-.58ZM254.54,206.82l3.43-1.55c.84-.5-3.36-3.79-3.57-3.49-.87-.2-4.95,1.56-4.87,1.93.04.18.32.58.51.69l4.49,2.43ZM270.95,206.07c2.1.54,4.27,1.08,6.45,1.4,1.1-.98,2.23-1.84,3.54-2.56l.05-.85-5.51.06-5.96.89c-1.19.18-2.29-.09-3.28.7.37,1.13,1.47,1.1,2.41.88l2.3-.53ZM260.33,208.97l1.3-.93c-.98-1.46-3.09.16-4.31.72,1.01,1.19,2.02.92,3.02.2ZM169.02,215.59c.71-1.08,1.38-2.28,2.19-3.01.63-.57,1.01-1.04,1.58-1.61l2.06-2.04c-.48-.85-1.43-.93-2.13-.37l-3.3,2.63-1.92,1.27c-.3.2-.77.76-.73,1.09.08.69,1.63,2.37,2.25,2.04ZM274.08,209.55c-1.17-.64-1.69-.66-2.64-.75l-1.77-.18c.12.83.49,1.4,1.14,1.82l1.07.68,2.19-1.57ZM268.32,213.84l-1.26-1.12c-.92-.82-1.89-1.7-3.08-2.18-.63.02-1.61.64-1.97,1.27-.16.28.7.41.94.52l2.33,1.03c.97.43,1.7,1.35,3.05.48ZM254.13,211.95c.26.07.69-.64.52-.8-.59-.55-2.49-.59-2.81.19l2.3.61ZM177.53,217.97c.29-.29.99-.67,1.34-.91.87-.61,1.74-.46,2.82-.34.52-.26-.03-1.14-.22-1.57-.69-1.51-1.52-2.44-2.81-3.5l-.73-.6c-.11-.09-3.37.79-4.39,2.52-.7,1.18-1.32,2.11-2.33,3.05-.25.23-.58.85-.47,1.13.49,1.15,1.04.18,2.78,2.66.19.27,1.01.5,1.26.25l2.75-2.71ZM276.65,214.2c.46-.43.23-1.6-.15-2.03-.23-.26-1.13-.22-1.38.02-.29.29-.48.69-.74,1.35l2.27.66ZM261.38,217.33c.27-.05.15-1.01-.11-1.05l-1.06-.15c-.91-.13-2.31-1.15-3.22-.29-.5.47-1.05,1.23-1.63,1.65s-1,.88-1.21,1.58c4.83.54,3.67-1.1,7.23-1.74ZM166.74,219.28c-.19-.72-2.21-3.41-3.47-2.88-.39.16-.41,1.33-.05,1.57l2.52,1.74c.14.1.56.2.71.22s.33-.52.3-.65ZM277.73,218.04c.18.06.83-.55.68-.64-.11-.07-.36-.27-.49-.26l-2.22.25,2.03.65ZM266.71,223.04c-.63-1.51-1.38-2.58-2.47-3.76l-3.17,1.3,3.16,1.5c.81.38,1.38.91,2.48.97ZM185.08,228.75c-.7-1.94-1.24-3.39-1.59-5.14l-.61-3.04c-.05-.27-.4-.73-.73-1l-3.18,3.18c-.37.37-.67,1.37-.64,1.87,1.79,1.1,3.5,2.12,5.08,3.37.53.42,1,.85,1.65.76ZM158.92,226.68c2.99-.48,2.64,0,4.92-3.02-.46-.72-3.07-3.26-3.64-3.3-.48-.04-1.12.4-1.59.65-1.05.54-1.81,1.09-2.69,1.94-.94.9-2.9,1.46-3.39,2.75-.43,1.15,1.42,1.78,2.27,1.65l4.12-.66ZM171.47,223.54c-.96-1.05-1.55-1.62-2.42-2.38-.59.44-.66,1.19-.39,1.55.19.26.67.63,1.01.82l.92.5c.2.11,1.02-.28.89-.48ZM165.81,230.11c-.36-.4-1.32-.8-1.94-.77-1.02.05-1.52,1.72-3.15,3.14-.17.15-.5.74-.35.92l.54.61c2.71-.76,1.78-2,4.9-3.9ZM158.87,230.08l-1.56-.03c0-.05-.07.54-.09.74s.59.51.76.4c.32-.2.87-.98.9-1.12ZM166.96,235.48l2.93-3.89c.31-.41.8-.94.87-1.21-1.37-.79-1.64.65-2.31,1.18-1.88,1.47-3.63,2.64-5.16,4.59.7.68,1.33,1.17,1.96,1.59l1.7-2.26ZM156.23,234.27c-.16-.54-.82-1.61-1.83-1.69.2.58.62,2.47,1.5,2.22.13-.04.37-.4.33-.53ZM269.5,235.77c.27-.16.36-1.18.07-1.24-2.04-.32-1.38,1.53-3.74,4.01,1.63-.49,1.16-1.26,3.67-2.78ZM264.27,236.7c.43-.36.75-.93.79-1.63l-2.55,2.08c-.21.17-.45.61-.51.87-.04.19.49.44.68.4.91-.22-.03-.37,1.6-1.72ZM156.84,238.97c.91.02,1.84-.82,2.22-1.41.22-.34-.14-1.33-.55-1.44-1.45-.4-2.37,2.84-1.67,2.86ZM162.06,241.31c.15.08.88-.14.89-.29s.03-.54,0-.76c-.07-.45-1.04-1.03-1.49-.94s-.98.48-1.4.91l2,1.09ZM151.55,242.19c.75-.55.61-1.61.22-1.87-.17-.11-.98.08-.98.29,0,.43.33,1.09.76,1.58ZM170.45,245.8l-1.97-1.39-2.75-2.08c-.21-.16-.84-.03-1.06.2.77,1.28,2.11,1.93,3.47,2.48.79.32,1.42.84,2.31.79ZM156.5,246.87c.39.19.81.44.95.28l.53-.61,2.01-2.06c.22-.22.49-.9.35-1.15-.11-.21-.5-.43-.77-.57-.98-.5-1.83-.32-2.34.68-.34.66-.95,1.25-1.53,1.79-.6.57.15,1.32.79,1.63ZM255.61,248.21l2.31-2.66c.73-.84,1.25-1.66.94-2.72-1.35.3-.99,1.57-1.61,2.25l-2.39,2.6c-.14.16-.33.81-.15.77.14-.03.79-.12.9-.25ZM264.35,247.17c-.61-.72-1.11-1.04-1.6-1.05-.35,0-.85.7-1.01,1.13l2.61-.08ZM149.86,252.56c.44-.05.9-.21.92-.4s-.05-.75-.25-.76l-.94-.03c-.23,0-.65.57-.53.77.1.16.6.44.81.42Z"/>
  <path class="cls-1" d="M229.71,154.99l-2.02-1.66-3.48-2.98c-2.07-1.77-4.18-3.36-6.36-4.94-1.25-.91-2.66-1.53-3.97-2.29-1.08-.62-2.07-.99-3.29-1.34-.64-.19-.15-1.27.16-1.66l1.33-1.66c.32-.39-.16-1.57-.31-2.12l-1.9-.7c-.99-.36-1.77-.83-2.71-1.37-1.08-.62-2.86.07-3.77.83-1.36,1.14-2.31,2.46-3.45,3.82-.55.66-1.61-.25-2.16-.48-2.17-.91-3.69-2.27-5.11-4.08-.83-1.07-1.78-1.85-2.79-2.74l-1.69-1.49c-.59-.52-1.22-1.58-1.79-2.2l-2.36-.47c-.19-.04-.27-.76-.11-.87,1.66-1.06,2.13,1.71,5.09.85.43-.12.9-.89.95-1.3s-.19-1.2-.51-1.47l-2.23-1.93c-.52-.45-.86-.7-1.74-.8.26-.34.77-1.32.46-1.71-.38-.47-1.47-.67-1.92-.47l-1,.43c-.26.11-.62-.61-.84-.79l-3.27-2.71c-.26-.21-.88-.47-.88-.75,0-.3.42-.69.73-.87l1.89-1.09c1.18-.68,3.32,2.52,3.9.91-.45-1.09-1.67-2.32-2.84-2.59-2.71-.63-3.97.52-5.83,2.18l-.93-1.29,3.55-4.43c.18-.23.68-.58.95-.65s.77.32.99.54l2.83,2.96c.78.81,1.76,1.49,2.7,2.09l1.77-.92c.25-.13.23-.97.04-1.23-1.76-2.41-1.81-4.69-2.69-5.08s-1.58,1.1-2.39.22l-1.54-1.67c.32-.8,1.47-1.57,2.38-1.31s1.53,1.32,2.3,2.07c.35.34,1.31.03,1.69-.32.82-.78.77-2.58-.37-3.46l-2.33-1.78c-.9-.69-1.53-1.45-2.19-2.43-.35-.51-1.28-1.52-.46-2.14,1.02-.78,2.45,0,3.04,1.09.84,1.55,2.32,2.79,4.14,2.3.53-.14,1.21-.69,1.26-1.1.2-1.54-1.31-1.23-3.28-3.83-.37-.48-.58-1.91-1.13-2.12l-1.6-.63c.23-2.13,2-2.76,3.43-3.77,1.73-1.22,2.96-3.05,5.12-3.74,5.43-1.75-3.58-4.41-.71-8.1.74-.96.86-1.86.79-3.22l3.93,1.66c.93.39,1.79.66,2.49,1.35.85.83,1.86.82,2.95.47.73.23,1.7.59,2.45.8l3.4.96c.76.21,1.63.53,2.37.69,1.65.36,3.17.68,4.75,1.35,1.83.78,3.83,1.22,5.6,2.09l3.71,1.82c2.46,1.21,4.47,3.55,6.34,5.66l4.99,5.61c.18.2.29.96.09.94s-.77-.13-.93-.3c-1.12-1.11-2.7-2.35-4.08-3.22l-2.98-1.87c-2.23-1.4-3.44-2.28-6.34-1.59-1.24.3-2.3,1.53-2.62,2.84-1.28,5.19-1.31,6.99-1.12,12.46.01.41.27,1.3.06,1.63s-.79.63-1.18.93l-1.68,1.27c-.33.25-.72.94-.65,1.35.13.71,1.78,2.08,3.78,1.22,1.23-.53,2.42-.94,3.66-1.36,1.15-.4,2.27-1.03,3.43-1.29,4.74-1.08,6.71-2.98,10.93-5.21.4-.21,1.02-.7,1.38-.68.43.03,3,1.32,2.51,1.67-.22.68-1.35.43-1.9.54-2.54.52-4.69,1.71-6.95,2.86-1.46.74-2.76,1.73-4.16,2.54-.69.4-1.37.62-1.93,1.22s-1.23,1.02-1.86,1.52l-2.15,1.69c-1.74,1.37-4.09,3.68-5.68,5.31-.25.25-.44,1.13-.3,1.43.24.52,1.62,1.62,3.32,1.14l3.24-.92c.31-.09.96.13,1.11.29l-1.69,1.64c-.54.52-1.82.82-2.29,1.49-.29.41-.1,1.61.08,2.11,3.55,1.42,3.69-1.06,9.41-.78,5.18.25,5.85-.63,10.9,2.57,1.11.71,1.95,1.9,3,2.73,1.62,1.28,2.82,2.89,4.27,4.35.39.39.88.74,1,1.1.41,1.22-.43,1.48-2.18,2.84-1.28.99-2.69,1.66-4.09,2.47-.31.18-.76.71-1.08.78-.39.09-1-.43-1.37-.64l-3.67-2.13c-1.73-1-3.95-1.21-5.89-1.79-.92-.28-1.94-.87-2.8-.29-1.01.68-2.19.74-3.08-.13-.51-.04-1.64.19-1.98.56-.93,1.03.06,1.94.84,2.6,1.95,1.64,3.16,4,4.2,6.3l1.37,3.02c.89,1.97,2.46,4.52,4.21,5.57.23.14.24,1.13.05,1.08s-.57-.22-.73-.34l-1.99-1.54Z"/>
  <path class="cls-1" d="M245.22,92.38c-.68.58-4.07,1.79-4.53,1.24l-4.38-5.3c-.55-.67-.96-1.58-1.23-2.38l-3.77-2.65-2.14-1.44c-1.28-.86-2.19-1.7-3.22-2.82-.82-.89-1.88-1.64-2.59-2.68-2.29-1.49.75-3.31-1.55-4.45-3.2-1.6-3.9-3.23-6.53-5.47-.38-.33-1.39-1.02-.88-1.56l2.39-1.04c.72-.31,1.4.8,1.91,1.1,2.66,1.62,4.87,3.49,6.99,5.75l3.85,4.09c.37.39.72,1.21.93,1.73-.78.51-1.17,1.07-1.26,1.86,1.4.71,2.21,1.78,3.11,2.97l1.57,2.06c.51.67,1.3,1.52,2,1.99,1.35.9,2.41,1.82,3.64,2.89l1.65,1.44c1.23,1.07,2.47,1.68,4.03,2.7Z"/>
  <path class="cls-1" d="M163.21,191.49c0,.37-.73,1.02-1.14,1.07-.48.06-1.32-.13-1.71-.42l-3.18-2.41c-1.25-.95-2.91-1.71-2.5-2.25.16-.21.67-.43.98-.55l2.1-.8,3.38-1.43,5.08-2.54c1.34-.67,2.77-1.42,3.98-2.29.25-.18.87-.53,1.16-.44.61.71.68,2.13.88,3.01.28,1.2.71,2.14-.46,3.18-1.06.94-2.32,1.95-3.52,2.85l-1.44,1.08c-1.02.76-2.37-1.65-4.33-1.45-.27.03-.67.63-.69.93-.05.89.54,1.68,1.41,2.46Z"/>
  <path class="cls-1" d="M204.7,68.68l-3.04,2.85c-.19.18-.46.4-.64.44s-.58-.25-.71-.41c-1.43-1.7-1.67.14-5.09-1.87-2.21-1.3-4.47-1.42-3.53-2.87l2.26-3.49c1.4-2.16,1.55.87,3.78-.32.35-.19,1.32-.09,1.69-.2,2.32-.72,4.68,0,6.21,1.74.46.52,1.32.29,2,1.08.12.14-.19.61-.33.74l-2.6,2.31Z"/>
  <path class="cls-1" d="M195.92,47.96c-.34.23-.86.93-1.11.67l-1.58-1.63c-2.03-2.09-1-1.44-3.02-3.93-.62-.77-1.3-1.63-1.83-2.45-.69-1.06-1.2-2.07-2.17-2.91-.74-.63-1.26-1.48-1.46-2.42,1.88-.17,3.18.77,4.51,1.76,1.2.45,2.27,1.04,3.43,1.58l3.66,1.7c2.19,1.02,4.37,2.47,6.6,3.42.15.06.38.41.4.55.09.57-1.97-.11-5.17,2.1l-2.25,1.56Z"/>
  <path class="cls-1" d="M228.79,116.46c-.49.2-2.66-1.05-3.64-1.57,1.32-1.75,10.42-6.75,11.6-7.04l3.68-.92c2.14-.53,4.81-1.22,6.2,1.56-4.71,2.15-5.31,2.95-10.29,4.9l-2.73,1.07-4.82,1.99Z"/>
  <path class="cls-1" d="M182.84,150.06c-1.25-.99-2.3-1.91-3.27-3.08l-1.53-1.84c-.26-.31-.74-.8-.71-1.13.05-.64,1.24-1.9,1.67-2.02.3-.08,1.01.25,1.25.45,1.68,1.36,6.48,4.74,8.3,2.77,1.04-1.13-2.11-2.68-2.68-3.61,3.9.53,3.12,1.48,4.46,3.21l1.49,1.92c1.24,1.59-.1,1.25-1.68,3.88-1.07,1.79-1.98.5-4.33.72-1.35.13-2.01-.51-2.97-1.28Z"/>
  <path class="cls-1" d="M215.63,163.04c.73-.26,1.46,2.74,2.6,4.05-.42.54-5.93-.63-6.79-.86l-4.96-1.33-5.64-1.51c-.21-.06-.63-.25-.81-.33s-.11-.72.02-.86c1.93-2.18,1.27-3.61,3.05-4.36.53-.22,1.1.8,1.5,1.05l1.79,1.12c.98.61,2.23,1.2,3.22,1.67,1.42-2.16,2.66,1.1,4.79,1.86.49-.2.92-.38,1.22-.48Z"/>
  <path class="cls-1" d="M232.41,97.8c-3.3,1.42-6.28,2.98-9.18,4.87-.2.13-.85.29-1.08.21-.27-.09-.36-.66-.54-1.09-.21-.49-.92-1.43-.84-1.98.32-2.41,1.01-4.42,1.85-6.63.31-.81,1.48-1.72,2.34-1.15l2.46,1.62c.94.62,1.88,1.4,2.83,1.92s2.12.72,2.17,2.24Z"/>
  <path class="cls-1" d="M220.87,77.88c-1.73.4-2.85-.83-4.33-1.16-4.87-1.08-6.99-1.87-11.8-3.22-.17-2.14,1.98-1.47,3.19-3.65l1.17-.79c.3-.21.71-.78,1.04-.79.45,0,1.04.36,1.36.72.79.85,1.61,1.43,2.47,2.11s1.67,1.57,2.66,2.12c1.13.63,1.7,1.6,2.51,2.56l1.73,2.09Z"/>
  <path class="cls-1" d="M229.98,161.52c-.82.7-1.52,1.19-2.32.43l-4.51-4.31c-1.17-1.12-2.25-2.23-3.48-3.27l-2.72-2.3c-.89-.75-1.63-1.34-2.37-2.23l-1.08-1.29c-.92-1.1-2-1.93-3.18-3.14,2.09-.56,10.25,6.08,11.79,7.51.94.87,1.72,1.72,2.78,2.53.66.51,1.66,1.02,2.23,1.52,1.09.95,1.88,1.79,3.19,2.42.82.39.23,1.67-.32,2.14Z"/>
  <path class="cls-1" d="M177.53,217.97l-2.75,2.71c-.25.25-1.07.01-1.26-.25-1.74-2.48-2.29-1.51-2.78-2.66-.12-.28.22-.9.47-1.13,1.01-.94,1.63-1.87,2.33-3.05,1.01-1.72,4.28-2.6,4.39-2.52l.73.6c1.29,1.05,2.11,1.99,2.81,3.5.19.42.74,1.31.22,1.57-1.08-.12-1.94-.27-2.82.34-.35.24-1.04.62-1.34.91Z"/>
  <path class="cls-1" d="M175.59,156.74c-1.83,1.11-4.15,2.23-6,2.76-.35.1-.78-.75-1.06-1.01l-1.37-1.28c-1.21-1.13-2.46-2.26-3.38-3.69,1.71-1.12,12.71.92,11.28.95l2.98-.07c.16,0,.45.56.33.63l-.68.43-2.11,1.28Z"/>
  <path class="cls-1" d="M158.92,226.68l-4.12.66c-.85.14-2.7-.5-2.27-1.65.49-1.29,2.44-1.85,3.39-2.75.88-.85,1.64-1.4,2.69-1.94.48-.25,1.12-.69,1.59-.65.57.05,3.18,2.58,3.64,3.3-2.28,3.02-1.93,2.54-4.92,3.02Z"/>
  <path class="cls-1" d="M165.46,105.51l-2.17-1.5c-.27-.19-.45-1.11-.21-1.33l.99-.91c.85-.78,1.52-1.65,2.41-2.37l3.84-3.13c1.11-.9,2.25-1.91,3.73-2.3,1.36,1.45-.63,2.44-1.23,3.35-1.43,2.17-2.97,3.98-4.77,5.81-.75.77-1.3,2.08-2.58,2.37Z"/>
  <path class="cls-1" d="M264.52,188.27c-1.09.67-2.44,1.76-3.71,1.73l-3.34-.07c-.3,0-.96-.32-.99-.6-.03-.32.45-.6.77-.85,2.36-1.88,5.83-5.4,8.87-4.99,1.26.17,2.22,1.1,2.98,2.07l-2.69,1.56-1.88,1.15Z"/>
  <path class="cls-1" d="M190.44,59.43l-2.19,3.74c-.1.17-.21.62-.3.79-.36.71-3.55-2.03-5.59-2.9-2.55-1.08-6.08-.81-5.65-2.09.15-.44,1.39-.28,1.89-.29l2.37-.04c.74-.01,1.45.01,2.2.04l4.05.16,2.21.14c.22.01.76.23,1.02.44Z"/>
  <path class="cls-1" d="M248.99,162.96c.5,1.27-.35.37-1.89,2.13-2.31-1.59-3.2-2.74-5.82-4.49l-2.01-1.34c-.44-.29-1.43-1.36-1.1-1.78.68-.86,1.24-1.37,2.16-2.28l2.94,2.94c.4.4.76.85,1.19,1.21l2.38,1.98c.62.52,1.3,1.5,2.15,1.65Z"/>
  <path class="cls-1" d="M174.65,108.93l-1.04,1.68c-.17.27-.98.89-1.17.64l-2.2-2.87c-1.24-1.61-.42-1.12,1.71-4.24.28-.41.86-.98,1.33-1.06l2.23,1.9c.4.08,1.09.26,1.26.57.33.61-.92,1.47-2.11,3.39Z"/>
  <path class="cls-1" d="M270.95,206.07l-2.3.53c-.94.22-2.03.24-2.41-.88.99-.79,2.09-.52,3.28-.7l5.96-.89,5.51-.06-.05.85c-1.31.72-2.44,1.57-3.54,2.56-2.18-.33-4.36-.87-6.45-1.4Z"/>
  <path class="cls-1" d="M185.08,228.75c-.65.09-1.12-.34-1.65-.76-1.59-1.25-3.29-2.27-5.08-3.37-.03-.51.27-1.5.64-1.87l3.18-3.18c.32.27.67.73.73,1l.61,3.04c.35,1.75.88,3.2,1.59,5.14Z"/>
  <path class="cls-1" d="M180.03,133.34l-3.27.03c-.35-1.32-1.92-1.71-3.27-1.74-.33-.12-.1-1,.19-1.22l2.94-2.18c.43-.32,1.19-1.19,1.74-.41l1.79,2.55c.33.47,1.01,1.87.76,2.48-.09.22-.6.48-.88.49Z"/>
  <path class="cls-1" d="M254.54,206.82l-4.49-2.43c-.2-.11-.47-.51-.51-.69-.08-.37,4-2.13,4.87-1.93.2-.3,4.41,2.98,3.57,3.49l-3.43,1.55Z"/>
  <path class="cls-1" d="M221.53,40.34l-4.24,1.98c-.3.14-.91.69-1.36.7-.91-1.19-2.82-4.06-3.45-5.8,1.39.16,2.31.67,3.54,1.12l2.96,1.1c.83.31,1.35.39,2.54.91Z"/>
  <path class="cls-1" d="M169.02,215.59c-.62.33-2.17-1.35-2.25-2.04-.04-.32.43-.89.73-1.09l1.92-1.27,3.3-2.63c.7-.56,1.65-.48,2.13.37l-2.06,2.04c-.57.57-.96,1.04-1.58,1.61-.81.73-1.48,1.93-2.19,3.01Z"/>
  <path class="cls-1" d="M177.44,167.59c-.14.03-.83.08-.79-.07l.19-.69c.7-2.63-2.59-2.44-.49-3.58,1.64-.88,3.2-1.72,4.77-2.7l1.79-1.12c.16-.1.56-.1.66.04.38.54-.52.57-1.86,2.17-.75.9-1.43,1.74-2.09,2.73l-2.17,3.22Z"/>
  <path class="cls-1" d="M166.96,235.48l-1.7,2.26c-.63-.42-1.26-.91-1.96-1.59,1.53-1.95,3.28-3.12,5.16-4.59.67-.52.93-1.96,2.31-1.18-.07.27-.56.8-.87,1.21l-2.93,3.89Z"/>
  <path class="cls-1" d="M261.38,217.33c-3.57.64-2.4,2.28-7.23,1.74.2-.7.61-1.15,1.21-1.58s1.13-1.18,1.63-1.65c.91-.86,2.31.16,3.22.29l1.06.15c.26.04.38,1,.11,1.05Z"/>
  <path class="cls-1" d="M235.68,155.02c-.66.91-3.68-3.68-4.05-4.54-.07-.16.29-.77.44-.73l.82.21c1.11.28,2.02.5,2.75,1.39l1.36,1.67c-.45.73-.73,1.18-1.32,2Z"/>
  <path class="cls-1" d="M198.66,155.65c-1.14-.8-2.26-1.31-3.48-.67-.48.25-1.85.34-2.1-.11-.34-.62.56-1.37.87-1.83.49-.71.8-1.47,1.67-1.83l1.32,1.5c1.16,1.31,1,.21,2.3,2.14.13.19-.39.93-.58.8Z"/>
  <path class="cls-1" d="M170.99,130.25l-3-1.63c-.18-.1-.55-.5-.45-.65.87-1.37,5.27-1.18,6.87-1.03l-3.41,3.3Z"/>
  <path class="cls-1" d="M156.5,246.87c-.64-.31-1.39-1.06-.79-1.63s1.19-1.13,1.53-1.79c.51-1.01,1.36-1.18,2.34-.68.28.14.66.36.77.57.14.25-.14.93-.35,1.15l-2.01,2.06-.53.61c-.14.16-.56-.09-.95-.28Z"/>
  <path class="cls-1" d="M207,48.58c-2.88,1.79-2.3,2.95-3.81,3.16.5-1.2.74-2.23,1.4-2.96l1.92-2.11c.29-.32.44-.83.68-.96.28-.16,1.03-.07,1.33.07l1.31.61c-1.02,1-1.76,1.53-2.83,2.19Z"/>
  <path class="cls-1" d="M167.65,173c-1.22,1.32-5.41,4.99-7.44,5.44,2.08-3.11,5.43-4.47,7.66-7.34.11-.14.43-.35.56-.42.03-.02,1.2.18-.77,2.32Z"/>
  <path class="cls-1" d="M197.21,158.7l-1.83,3.17-3.04-2.24c-.28-.2-.66-.55-.81-.81-.17-.28.37-.82.66-.78l5.03.66Z"/>
  <path class="cls-1" d="M175.13,181.57c-1.06-.9-1.09-1.91-.61-2.97.67-1.49,3.19-2.17,4.11-1.58-.19.81-.72,1.49-1.27,2.1l-2.23,2.45Z"/>
  <path class="cls-1" d="M165.81,230.11c-3.13,1.9-2.19,3.13-4.9,3.9l-.54-.61c-.15-.17.18-.76.35-.92,1.63-1.42,2.13-3.09,3.15-3.14.62-.03,1.58.37,1.94.77Z"/>
  <path class="cls-1" d="M268.32,213.84c-1.35.87-2.08-.05-3.05-.48l-2.33-1.03c-.23-.1-1.1-.23-.94-.52.36-.63,1.34-1.25,1.97-1.27,1.19.48,2.16,1.36,3.08,2.18l1.26,1.12Z"/>
  <path class="cls-1" d="M267.09,193.88c-1,1.48-6.1,2.63-7.41,2.73.25-.5.61-1.06.96-1.13,3.3-.63,1.2-2.89,6.45-1.61Z"/>
  <path class="cls-1" d="M266.71,223.04c-1.1-.05-1.68-.58-2.48-.97l-3.16-1.5,3.17-1.3c1.1,1.19,1.85,2.25,2.47,3.76Z"/>
  <path class="cls-1" d="M261.02,156.53c-1.49.91-3.7,2.84-4.37,2.12l1.33-1.57c.9-1.06,2.87-2.84,4.28-2.69.23,1.21-.43,1.65-1.24,2.15Z"/>
  <path class="cls-1" d="M204.22,141.73l-.81.48c-.2.12-.46-.8-.32-1.04.74-1.22,2.51-2.34,4.01-2.79l.88-.26c.19-.06.16.88,0,1.02-.86.83-2.57,1.89-3.76,2.59Z"/>
  <path class="cls-1" d="M179.57,103.28c-.86-.52-1.34-.87-2.16-1.74l2.47-2.1c.25-.21,1.05-.06,1.24.15s.14.97-.02,1.23l-1.52,2.46Z"/>
  <path class="cls-1" d="M173.16,197.25l-.76.58c-.18.14-.7-.19-.85-.37l-1.21-1.48c-.16-.19-.38-.64-.46-.89-.09-.27.79-.62,1.09-.52l2.65.86c.56.18-.07,1.53-.46,1.82Z"/>
  <path class="cls-1" d="M166.74,219.28c.04.14-.16.68-.3.65s-.57-.12-.71-.22l-2.52-1.74c-.35-.24-.33-1.41.05-1.57,1.27-.52,3.28,2.16,3.47,2.88Z"/>
  <path class="cls-1" d="M196.46,142.78c-.25,1.05-3.48-2.4-3.73-2.71l-3.02-3.73c.67-.05.97.6,1.42.98,1.2,1.01,2.21,2.09,3.26,3.23l2.06,2.23Z"/>
  <path class="cls-1" d="M274.08,209.55l-2.19,1.57-1.07-.68c-.66-.42-1.02-.99-1.14-1.82l1.77.18c.95.09,1.47.1,2.64.75Z"/>
  <path class="cls-1" d="M183.98,83.36c-.68.79-.88,1.6-1.86,1.83.52-1.08.98-2.17,1.73-2.9,2.25-2.21,1.74-2.92,3.03-3.71.12-.07.47.51.37.66-.84,1.22-2.21,2.91-3.27,4.13Z"/>
  <path class="cls-1" d="M255.61,248.21c-.11.13-.76.22-.9.25-.18.03,0-.62.15-.77l2.39-2.6c.63-.68.26-1.95,1.61-2.25.31,1.06-.22,1.88-.94,2.72l-2.31,2.66Z"/>
  <path class="cls-1" d="M173.61,162.18c-.37.25-.82.59-1.13.62-.47.05-1.31-.38-1.1-.78l4.43-1.95c.81-.36,1.43-.81,2.48-1.06-1.1,1.15-3.03,2.04-4.68,3.16Z"/>
  <path class="cls-1" d="M163.14,146.79c.55-.81,3.43.29,3.26.81-.12.37-1.23,1.55-2.49.99-.69-.3-1.3-1.04-.77-1.8Z"/>
  <path class="cls-1" d="M174.78,189.87c.08.41-3.34.64-4.06.5l2.29-1.93c.25-.21.84-.57,1.09-.44s.45.72.51,1.07l.16.79Z"/>
  <path class="cls-1" d="M168.43,144.04c-1.97.1-3.09-1.4-4.34-2.42l-1.52-.58c1.44-.81,2.44-.03,3.46.78l2.41,2.22Z"/>
  <path class="cls-1" d="M260.33,208.97c-1,.71-2.01.99-3.02-.2,1.22-.57,3.33-2.19,4.31-.72l-1.3.93Z"/>
  <path class="cls-1" d="M170.45,245.8c-.9.06-1.53-.47-2.31-.79-1.36-.55-2.7-1.2-3.47-2.48.22-.23.85-.36,1.06-.2l2.75,2.08,1.97,1.39Z"/>
  <path class="cls-1" d="M255.08,194c-.89.54-2,.27-2.37-.77-.45-1.27,2.7-1.01,3.91-.18l-1.54.94Z"/>
  <path class="cls-1" d="M156.84,238.97c-.7-.02.22-3.26,1.67-2.86.4.11.76,1.1.55,1.44-.38.6-1.31,1.43-2.22,1.41Z"/>
  <path class="cls-1" d="M251.87,168.77c-.47.33-1.73-.9-1.4-1.45.41-.7,1.26-1.18,2.1-1.71.22,1.03.47,2.33-.7,3.16Z"/>
  <path class="cls-1" d="M174.27,140.57l-1.74-1.43,2.15-.64c.23-.07.79-.09,1.02-.04.28.07.57.81.47,1.07l-1.9,1.04Z"/>
  <path class="cls-1" d="M269.5,235.77c-2.52,1.51-2.05,2.29-3.67,2.78,2.36-2.48,1.7-4.33,3.74-4.01.29.06.2,1.07-.07,1.24Z"/>
  <path class="cls-1" d="M194.83,21.33c.79.9,2.15,1.34,1.97,2.74-1.48-.18-2.74-1.89-3.15-3.15.02-.13.53-.42.61-.31l.56.72Z"/>
  <path class="cls-1" d="M171.47,223.54c.13.21-.68.6-.89.48l-.92-.5c-.34-.19-.82-.55-1.01-.82-.27-.37-.2-1.12.39-1.55.88.76,1.46,1.34,2.42,2.38Z"/>
  <path class="cls-1" d="M264.3,164.07c-.77-.1-1.54-.56-1.87-1.12-.43-.73.14-1.77,1-2.47l.86,3.59Z"/>
  <path class="cls-1" d="M172.41,136.2c.25.87-2.13.89-2.12.52l.02-.88-.66-.51c-.21-.16-.16-.88,0-1.14,1.01.65,1.96,1.32,2.76,2.01Z"/>
  <path class="cls-1" d="M174.72,123.86c-1.31.93-2.33.61-3.75.51,0-.41.01-.8.12-1.01s.79-.45,1.03-.37l2.59.87Z"/>
  <path class="cls-1" d="M276.65,214.2l-2.27-.66c.26-.67.45-1.06.74-1.35.24-.24,1.15-.28,1.38-.02.38.44.61,1.6.15,2.03Z"/>
  <path class="cls-1" d="M162.06,241.31l-2-1.09c.41-.42.93-.82,1.4-.91s1.42.49,1.49.94c.03.22.01.61,0,.76s-.74.38-.89.29Z"/>
  <path class="cls-1" d="M251.49,159.64c.2.14.43.34.54.44.69.61-.8,1.47-3.67-1.96-.96-1.15-2.48-1.08-3.17-2.69,1.74.81,2.01,1.3,3.65,2.41l2.66,1.8Z"/>
  <path class="cls-1" d="M231.06,147.99c-.53.02-.84-.77-1.09-1.32l-1.38-1.68c.65-1.02,3.79,2.16,2.47,3Z"/>
  <path class="cls-1" d="M171.16,119.86c-.57-.03-1.13-.22-1.75-.48.11-.33.49-.89.79-1.14.54-.43,1.25-.25,1.58.22.27.39-.02,1.43-.62,1.39Z"/>
  <path class="cls-1" d="M264.27,236.7c-1.62,1.35-.69,1.5-1.6,1.72-.19.05-.72-.21-.68-.4.06-.26.3-.7.51-.87l2.55-2.08c-.03.71-.35,1.27-.79,1.63Z"/>
  <path class="cls-1" d="M164.12,128.34c-2.02.8-2.8,4.27-2.94,3.37-.02-.11-.2-.55-.15-.64l1.17-2.33c.36-.71,1.33-.98,1.93-.4Z"/>
  <path class="cls-1" d="M205.28,30.68c-1.65.06-3-.7-4.36-1.72,1.79-.47,3.07.72,4.36,1.72Z"/>
  <path class="cls-1" d="M245.77,174.95c-.73.64-.83,1.9-2.29,1.69l3.01-3.28c.18-.2.81-.21,1.08,0l-1.8,1.59Z"/>
  <path class="cls-1" d="M247.92,152.78l-3.03-1.96c-.16-.1-.36-.45-.39-.59s.26-.41.4-.36l.65.21c.85.84,1.73,1.48,2.37,2.71Z"/>
  <path class="cls-1" d="M165.9,125.52c-.27,0-.35-1.06-.1-1.13l2.3-.66c.28.06.08.94-.2,1.05l-2,.74Z"/>
  <path class="cls-1" d="M179.08,122.06c-1.67-.15-2.78-1.67-3.02-3.23l3.02,3.23Z"/>
  <path class="cls-1" d="M254.13,211.95l-2.3-.61c.32-.78,2.22-.74,2.81-.19.18.16-.25.87-.52.8Z"/>
  <path class="cls-1" d="M156.23,234.27c.04.13-.2.49-.33.53-.88.25-1.3-1.63-1.5-2.22,1.01.07,1.67,1.14,1.83,1.69Z"/>
  <path class="cls-1" d="M230.22,122.27c-.98.42-1.8.42-2.77,0,.41-.47.87-.75,1.39-.75s.98.28,1.39.75Z"/>
  <path class="cls-1" d="M264.35,247.17l-2.61.08c.16-.43.66-1.14,1.01-1.13.48,0,.99.34,1.6,1.05Z"/>
  <path class="cls-1" d="M180.11,126.29c.71-.65,2.25.94,2.1,1.19l-.37.63-1.74-1.82Z"/>
  <path class="cls-1" d="M151.55,242.19c-.43-.49-.75-1.15-.76-1.58,0-.21.81-.4.98-.29.39.26.52,1.32-.22,1.87Z"/>
  <path class="cls-1" d="M215.92,59.78c-.2.04-.56-.58-.44-.66.16-.1.52-.29.74-.36l1.51-.49c-.13.78-1.08,1.36-1.81,1.51Z"/>
  <path class="cls-1" d="M149.86,252.56c-.2.02-.71-.26-.81-.42-.12-.2.3-.78.53-.77l.94.03c.2,0,.26.56.25.76s-.47.35-.92.4Z"/>
  <path class="cls-1" d="M212.74,61.66c.14.02.51.48.44.6l-.39.69c-.64-.33-1.05-.56-1.67-.96.55-.33,1.06-.42,1.62-.33Z"/>
  <path class="cls-1" d="M171.35,150.33l-2.55-.53-.06-.53c-.06-.59,1.84.69,2.4.43.17.01.22.47.2.63Z"/>
  <path class="cls-1" d="M241.34,147.12c.1.1,0,.79-.12.77l-.62-.09c-.33-.05-.88-.44-1.12-.69.48-.57,1.53-.32,1.85.02Z"/>
  <path class="cls-1" d="M158.87,230.08c-.02.14-.58.91-.9,1.12-.17.11-.78-.21-.76-.4s.1-.79.09-.74l1.56.03Z"/>
  <path class="cls-1" d="M277.73,218.04l-2.03-.65,2.22-.25c.13-.01.38.19.49.26.14.09-.5.7-.68.64Z"/>
</svg>