<?xml version="1.0" encoding="UTF-8"?>
<svg id="Layer_2" data-name="Layer 2" xmlns="http://www.w3.org/2000/svg" viewBox="0 0 432 288">
  <defs>
    <style>
      .cls-1 {
        fill: #fff;
      }
    </style>
  </defs>
  <path class="cls-1" d="M312.66,266.47v20.36H96.7V-1.17h215.96v123.89l-.59-.72c-.21-.25-.65-.42-1.04-.41-.3,0-.63.55-.67.98-.1,1.17,1.79,2.27,2.3,1.85v141.12c-.14.06-.4.26-.45.41-.06.17.29.47.45.51ZM228.29,3.22c.03-.06-.01-.41-.07-.38l-.32.12c-.35.13-.39.81-.1,1.09l.5-.83ZM256.26,13.43c.7.31,1.32,1.02,2.23.51-.62-.57-3.22-2.63-3.63-1.48.26.51.86.72,1.41.97ZM270.59,15.15c0-.18-.15-.33-.33-.33s-.33.15-.33.33.15.33.33.33.33-.15.33-.33ZM140.93,18.65c.02-.17-.57-.32-.61-.17-.05.17-.09.5-.1.78.2.12.67-.27.71-.62ZM208.94,161.16c.44.38,1.19.59,1.73.93.43.27,1.02.22,1.53.34l1.4.34-.05.56c0,.1.28.21.39.28.3.84.7,1.71,1.61,2.05.5.18.9.55,1.31.81s.8.51,1.08.91c1.04-.52.54,1.09,2.93.83.13.48.54.57.89.82l1.82,1.29c.36.26.36.94,1.23.86l-1.38.38c-2.14.58-2.88.33-4.22-.83.78.68-3.23-2.2-2.53-1.59l-1.4-1.22c-.22-.19-.52-.8-.82-.85-1.34-.22-2.55-.64-3.64-1.49-1.48-1.14-1.94-2.38-3.19-2.83-.4-.21-1.51-2.47-1.45-2.43-.59-.41-.51.57-1.43.87-.28.09-.86.71-.68.94l1.23,1.48,1.57.22c.16.92.58,1.43,1.53,1.46.03.25-.1.81-.05,1.05l.2,1.1c.04.2.13.49.28.54.12.04.46.05.58.02l1.68-.34.53-.11c.12-.03.38.31.53.31.42,0,1.16.14,1.57.3,2.55,1.02.38.59,2.86,1.67.86.38,1.4.92,2.06,1.53.5.47,1.51.68,1.9,1.31l.84,1.34-.02.69c0,.12.29.27.35.38.61,1.2,1.27,1.49,1.36,1.81l.27,1.04c.04.13-.24.57-.13.66l.47.38c.08.07.24.31.25.42s-.13.27-.23.37l-.22.23c-.14.15.64.47.44.89-.3.64-1.05.85-.76,1.31.19.3.41.81.24.97-.48.44-1.13,1.05-1.4,1.46.23.6.16.95.18,1.47.03.78.07,1.46-.33,2.2l-.05.87c-.75,1.07-1.89,2.23-1.16,3.53l-.26.51c-.06.12-.16.29-.09.33l.27.16c.1.06.33.23.25.27s-.46.2-.47.29l-.13,1.22c-.09.81.16,1.61.38,2.39.11.41-.03.8-.07,1.22-.06.71.43,1.71.5,2.38-.41.78-.15,1.27.03,2.04.06.38.05,1.08.08,1.58.12,2.64.64-.12.24,2.85-.08.6-.11,1.04-.14,1.65-.03.49-.56,1.99-.21,2.67s.09,1.11-.22,1.6l.17,1.26c.07.52.57.97.06,1.47l.8,1.31,1.09-.28.36-1.36c.14-.53.37-1.05.62-1.62.71.55.32,1.15.49,1.74l.61,2.16c.21.75.14,1.74.82,2.27.34.26.6.58.72.96,1.17.48.27,1.05,1.68,1.85-.57-.33,3.32,2.09,2.31,1.36l1.29.93c.86.62,1.63.3,3.07,1.65.33.31.44.59.95.51,1.05-.15.8,1.44,1.82,1.11.08-.03.32.14.38.19l.65.5c.15.12.63.06.83.12l1.46.44c.18.05.35.6.53.58s.43-.17.69-.32l.99,1.86c.06.11.45.12.58.08l.29-.09c.05-.02.07.19.09.35l.75.46s-.05.25-.03.26l.71.44c.13.08.19.51.34.55l.66.16c.07.02.23.08.21.14l-.12.36c-.22.68-.2,1.6.1,1.54l.42-.08c.33-.03.75.09,1.04.29.52.34.02.73.26,1.59.14.49.57-.8,1.27-.34l.89.58-.2.52c-.09.23.92.3,1.44,1.13s.57-.67,1.9-1.07l.07.45.07.45c.01.08.31.13.33.05l.13-.48c.03-.13-.13-.46-.23-.55l-.63-.56c-.16-.14-.67.15-.7-.04l-.07-.5-.04-.27c-.01-.1-.09-.23.15-.32.3.15.66.27.84.16l.83-.47.6-1.15c-.67-.69.98-.89.73-1.38l-.3-.59c1.19-1.07.05-1.32.74-1.74.13-.08.45-.33.49-.46l.37-1.11c.08-.23.03-.73.18-.9.16-.18.31-.36.3-.49l-.03-.43c-.03-.36,1.68.28,2.05-.75l.84-2.3-.53-.54.39-.08.21.29.12-.12.12-.3c.27-.66-.98-.48-.66-1.33.05-.12.29-.26.4-.2.05.03.18.11.23.14l.16.09c.98-1.22-.41-1.43-.05-1.82l.34-.36c.24-.26.39-.62.29-.63l-.48-.04s-.3.11-.37.12c-.31.06-.55-.74-.51-1.14.03-.29.34-.63.67-.84.12.23.26.54.29.68l.09.44c.01.05.22-.04.24-.09l.39-1.01c.04-.1.15-.43.2-.59.02-.07-.12-.14-.2-.14l-1.04.4c-.23.09-.71.04-.87-.2-.2-.3.15-.45.4-1.17.07-.2-.23.1-.92-.26-.11-.06-.2-.51-.09-.56.45-.18,1.46-.42,1.53.23l.05.49c0,.05.25-.1.23-.15l-.41-1.1c-.03-.09-.13-.4-.13-.39,0,0-.11.1-.14.14l-.19.18-.18.18-1.77-.11c-.46.08-.37-.12-.01-.28.43-.18.61-.53.39-.97-.39-.78.55-1.31.04-1.44l-.35-.09c-.08-.02-.37-.19-.35-.27l.43-1.22c-.17-.51.29-2.04.43-2.15.12-.1.44-.16.62-.23l.36-.15c.33-.13-.59-.42-.52-.59l.21-.48c.48-1.1,1.53-1.21,1.04-1.68-.84-.79-.36.32-1.16-1.53-.54-1.25.24-.2.24-1.68v-1.24c0-.28.22-.87.33-1.13l.63-1.55.45-1.13-.16-.59c-.06-.2.99-.33.96-.5l-.11-.55c-.04-.21,0-.71.05-.9l1.09-.3c.31-2.09,1.32-1.72,1.42-2.09.03-.12,0-.57.08-.67.89-1,.66-1.62.98-1.64l.53-.03c.05,0,.23-.12.27-.15l.22-.15.54.26.51-.36c.11-.08.06-.41-.03-.51l-.41-.46c-.07-.07-.83.45-.96.19l-.12-.25.96-.27c.69-.19,1.49-.35,2.16-.48.14-.24.32-.53.48-.67.78-.68-.03-.94.33-1.12.98-.49.46-.46.87-.82.54-.48,1.32-.88,2.05-1.16l.41-.86c.07-.15-.03-.54-.15-.64l-.45-.4c-.09-.08.19-.35.33-.5l.35.12.26.33c.05.06.16-.25.21-.3l.55-.52c.14-.46.26-.78.46-1.14l-.26-.14c-.1-.06-.31-.16-.27-.23l.18-.36.27-.55c.04-.08.24-.18.3-.25s-.03-.32-.1-.38l-.17-.14c-.08-.06-.37-.33-.28-.36l.56-.18c.22-.27.76-1.02.75-1.41l-.03-1.53c0-.34-.23-.82-.44-1.09-.35-.44.35-2.13.28-2.87l-.18-1.99c-.06-.69.14-1.33.15-1.99l.02-1.81c0-.21-.38-.54-.35-.73.13-.73.73-.8.58-.99l-.29-.37c-.11-.15-.16-.55-.12-.77.26-1.57-.14-2.07-.37-3.86-.11-.9-.28-1.82-1.01-2.48-.57-.52-.45.52-1.55-1.2h-.53c-1.3-1.55-.42.06-1.33-1.42-.31-.5-1.21-.62-1.7-.88l-1.43-.76c-.61-.32-1.05-.66-1.73-.94l-1.48-.62c-.79-1.8-.83-1.54-.8-3.36,0-.44-.39-1.18-.03-1.53.64-.63.72-1.48.79-2.51l.08-1.21.38-.44c.36-.41-1.56-1.21-.77-3,.03-.08.17-.01.48.07-.02.03.08-.12.24-.36l-.65-.02.41-1.02c-.63-.33-1.11-.61-1.23-1.25-.12-.11-.25-.26-.29-.18l-.18.32c0,.25.02.31-.07.31l-.58.03.8-1.44c-.11-.29-.12-.61.03-.79.44-.52.77.92,1.37.96l1.03-1.33c-.51-.5-.6-1.1-.14-1.58.16.07.28.09.29.15l.03.35c0,.11.16.42.24.35l.22-.16c.36-.26-.27-1.23-.51-1.5-.11-.12-.61-.18-.69-.05l-.38.59-.9-.28c-.27-1.38-.94-1.07-.87-1.2.04-.09.06-.19.11-.19h.35c.13,0,.54.03.54-.1v-.45c-.01-.08.05-.28.12-.26l.41.15.93-.35c.08-.03.26-.16.32-.22s-.17-.15-.3-.23c-.69-.45-1.16-1.67-.82-2.45.48-.16,1.37-.61.99-1.23-.17-.27-.3-.57-.41-.9l-.82-2.4c.1-.18.24-.46.11-.46l-.63.03c-.07,0-.35,0-.32-.07l.15-.28c.09-.17.13-.61.02-.79l-.48-.83-.11-.18c-.06-.09-.33-.36-.39-.27l-.25.41-.07-.73-.58-.89c-.09-.14-.48-.33-.49-.49,0-.14.06-.47.03-.61-.06-.27-.42-.73-.46-.98-.05-.27.02-.82-.12-1.07-.79-1.43.21-1.35-.39-3.92l-.3-1.28-.27-1.11c-.24-1.01-.37-1.99-.49-3.06-.1-.89-.73-1.76-1.01-2.59s-.83-1.11-1.4-1.64l-1.92-1.77-1.04-.98c-1.89-1.78-.83-2.3-1.08-3.52-.16-.79.02-1.49,0-2.22l-.04-1.65c-.01-.67-.12-1.32-.01-1.96.35-2.03-1.51-2.55-1.77-3.8-.13-.59-.22-1.02-.63-1.51l-.81-.98-.41-1.52c-.29-.14-.88-.52-.74-.8.35-.71-.03-1.06-.2-1.6-.08-.26-.09-.69-.31-.91-.57-.58-1.03-.99-1.63-1.49-.48-.4-.82-.98-1.2-1.43l-.72-.84c-.16-.18-1.6-.56-2.01-.96-.16-.16-.03-.57.01-.99-1.86.15-1.57-.67-2.49-2.19-1.09-1.81,0-1.21-1.32-3.1-.33-1.05.25-2.79-.31-3.41-.18-.2-.54-.49-.49-.7.27-1.2-1.09-.4-2.13-2.84-.42-.99-1.34-1.99-1.71-3.27.58-1.79-1.2-1.18-1.09-2.6.02-.2-.06-.71-.24-.76l-.74-.2c-.37-.1-.51-.83-.79-1.19l-1.23-1.55c-.43-.54.68-.47-1.56-1.95-.35-.23-.87-.5-1.21-.6-.19-.05-.37-.48-.53-.47l-.69.06.03-.6h-.33s-2.55-1.35-2.55-1.35c-.13-.07-.23-.45-.35-.47l-.42-.08-1.76-.66-.88.61c-.12.08-.31.33-.41.42-.17.13-.05-.38-1.63-.34-.35,0-.73-.78-1.04-.99l-1.38-.93c.15-.87-.43-.9-.93-1.29-.32-.27-.56-1.2-1-1.38-1.51-.62-1.26-1.37-1.24-2.27,0-.15-.55-.14-.6-.28-.13-.41-.25-1.31-.47-1.7l-.54-.98c-.05-.09-.33-.21-.4-.28-.06-.05.05-.28.03-.36-.02-.13-.27-.4-.31-.54-.1-.36-.3-.92-.59-1.21-1.99-1.97-1.8-.14-2.3-1.3-.1-.22.15-.43.48-.73-.05-.16-.44-.42-.75-.57l-.64-.78c-.39.07-.67.03-.93-.16l-.58.06.02-.29c0-.06.17-.06.26-.06.36,0,.57-.1.57-.3,0-.55-.11-.61-.56-.62l-1.25-.04c-.06,0-.15-.26-.12-.32l.31-.57c-.69-.11-1.11-.19-1.64-.52-.64-.39-.3-1.21-.49-1.18l-.34.06c-.19.03-.51-.14-.65-.29l-.71-.73c-.13-.13-.29-.54-.45-.5l-.63.16c-.07.02-.25-.01-.32-.02s.1-.21.16-.26l.54-.53c-.04-.09-.26-.42-.37-.39l-.39.1c-.41-1.17-1.2-.18-2.03-1.37-.74-1.05-.32-1.67-.98-1.72-1.96-.15-4.15-.82-4.41-.83l-2.42-.07c-.55.48-1.08,1.01-2.05.93-.4-.04-.97.5-1.32.71l-1.07.63c-.39.23-.83.4-.98.78-.1.26-.68.43-1.01.4-.76-.07-1.34.55-1.95,1.09-.41.36-1.2.58-1.55,1.06-.22.32-.67.71-.94.96-.09.71-1.18,1.07-1.47,1.52l-1.26,2.02-.85,1.35c-.33.53-.86,1.05-1.14,1.57l-.66,1.24c-.2.37-.56.8-.71,1.13l-.65,1.4c-.15.33-.46.62-.73.8-.21.6-.7,1.23-1.18,1.75-1.06,1.58-.3,1.4-1.18,2.47l-1.28,1.57c-.27.33-.2,1.01-.91.88l-.25.85c-.37.3-.81,2.09-1.07,2.65l-1.02,2.21c-.14.29-.66.49-.63,1,.04.59-.37,1.08-.64,1.57l-.66,1.19-.58,1.02-.93,1.49-1.53,2.64c-.37.64-.55,1.38-1.11,2.02-.27.31-.32,1.09-.32,1.5,0,1.63-2.02.15-2.69,4.11-.23,0-.6-.06-.93-.11-.77.76-1.55,1.77-2.39,2.5-.41.36-.89.52-1.02,1.11-1.34.47-2.5,1.51-3.06,2.79-.53.09-.8.36-1.1.76-.23.3-.73.65-.91.94-.33.56-.59,1.05-1.02,1.48-.24.24-.4.56-.57.8l-1.33,1.77c-.31.41-.5.64-.27,1.23.15.39-.33.95-.39,1.37-.14,1-.24,2.11-.29,3.11-.01.26.27.83.23,1.09-.09.6-.11,1.22-.14,1.78-.05.91-.12,1.76.12,2.68.21.78.24,1.55-.46,2.11l.19.81c-.63.81-.47,1.66-.45,2.52l.04,1.81-.39.81c.25.64.12,1.17-.04,1.75l.07,1.52.05,1.22c.01.32-.19,1.06-.07,1.37.41,1.02.84,2.06,1.33,2.99.97,1.83-.02.41.83,2.09l.68,1.35c.14.28.23.96.27,1.25-.5,1.04.68,1.73.3,1.93l-.4.21-.57,2-.84.43-1.22,1.95c0,.45.15,1.34-.21,1.69l-.77-.06c-.36.38-.72.67-1.1.99l-1.12.95c-.34.29-.75.76-1.11,1.13-1.43,1.48-1.43.16-1.9,1.51-.77.05-1.45.71-1.54,1.52l-.63.6-.67,1.18c-.3.53-.26,1.29-1.11,1.39-1.01,1.55-.44,2.25-1.44,3.33-.37.4-.56.91-.8,1.44-.18.4-.2.65-.24,1.18-.04.47-.61,1.16-.61,1.71,0,.42-.06.76-.23,1.15-.93,2.2-.35.08-1.42,2.9-.31.81-.42,1.68-.59,2.55-.35,1.86.37-.08-.46,2.49-.13.4-.18.73.1,1.05-.27.17-4.15,2.93-3.47,3.43l.86-.92c.26-.27,2.31-2.07,2.43-1.78.26.64-.11.96-.54,1.53,1.25,1.91.17,1.64.19,2.84l.03,1.72c0,.14-.23.48-.2.61s.32.39.35.52l.05,1.29c.03.71.19,1.27.37,1.94.27,1,.29,2.13.64,3.12l.66,1.84.83.84c.1.83.57,1.46,1.19,1.89-.15.18-.29.62-.13.73.43.32.32.83.39,1.34.17,1.26,1.34,1.87,1.83,4.81.14.84.81,1.72,1.14,2.43-.25.79-.28,1.55.07,2.36.15.35.1,1.06.22,1.48l.38,1.36c.08.28.21.63.3.91l.46,1.53c.12.41.44.77.25,1.24-.15.38.05.67.24.99l.63,1.1c.31.54.72,1.53.9,2.06.04.12-.21.54-.11.6l.45.27c.17.11.5.26.5.42v.69c.51.1.75-.59.72-1.1l-.09-1.69c-.01-.28.09-.65.22-1,.09-.26-.23-.88-.2-1.15.04-.47-.16-1.01-.25-1.34,0-1.23.05-2.44-.37-3.67-.73-2.16.06-2.24-.84-3.52l.12-.72c-.53-.56-.56-1.28-.48-2.06l-.72-1.41c.07-.29.34-.77.59-1.12.22.23.37.54.43.73l.45,1.32c1.11,3.26.8,1.49,1.59,4.11l.34,1.14c.18.62.41,1.16.71,1.76.28.56.31,1.17.47,1.77.09.34.4.76.39,1.21,0,.5.4,1.06.54,1.41,0,1.23,1.06,3.07,1.87,3.68l.22,1.75c.15,1.15.41,2.22,1.55,2.72l.32.97.65-.45,1.16,1.59-.35,1.04c.11.14.64,0,.76.11l.77.63c-.45.94-.05,1.97.58,2.61l-.27.93,1.45.14c.68.69-.21,1.21-.35,2.09-.03.2.43.52.47.73l.32,1.47c-1.19,1.43.97.98.09,3.79l.48.7c-.93,1.65.71,1.3-.5,2.66-.28.32-.66.85-.86,1.16.08.45.03.71-.16.98l-.78,1.12c-.18-.36.04-.54.23-.68-.19-.53-.25-1.24-.27-1.82l-.73-.51c.13-.47.04-.31-.09-.15.32.78-.14,1.44-.5,2.06l-.7,1.22c-.36.63-.52,1.24-.64,1.99l-.73,1.19c-.14.66-.36,1.11-.62,1.69l-.68,1.52-.62,1.03c-.41.69-.56,1.5-1.13,2.17-.31,1.78-1.1,1.94-1.01,3.5.04.65-1.06,1.33-.04.86.26-.36.47-.72.62-1.1l.66-1.65,1.03-2.01c.5-.98.94-2.24,1.68-3.04.13-.14.85-1.98,1.11-2.05.4.6-.21.89-.49,1.21l.2.51c.04.11-.26.32-.32.43l-.92,1.73c-.09.18-.34.57-.24.71l.4.54c.14.19-.18.65-.41.75-.5.22-.49.5-.51.95l-.04,1.07c-.13.22-.74.56-.84.82-.28.73-.09,1.81.45,2.29.22.2.53.44.6.62s-.16.6-.14.79l.12,1.09.51.82c-.19.18-.48.37-.41.49l.26.43.64,1.06.54-.18c-.26.47-.52.72-.9,1.03-.4.33.22.94.28,1.29.12.62.25.87.92,1.05l.94,1.13-1.09.74c-.2.32.06,1.29.25,1.66.06.11.45.08.64.08-.02.33-.07,1.22.26,1.39l.99.52c-.45.39-.71.59-.92.87-.19.25.1.93.37,1.04.53.22.76.5.82,1.05l.55.93c1.1,1.86,1.48.6,2.6,1.37l-.21.43c-.27.55,2.31,1.46,2.66,1.68l1.3.83c.82,1.3,2.12,2.18,3.68,2.21l.9.68c.25.19.52.83.75,1.06l.76.76.9-.33c.5,1.91,2.43.46,3.1,1.11.44.43.76.6,1.32.63.23.01.74.21.85.04.15-.24.22-.66.4-.7l.82-.16c.18-.45.45-.77.76-1.1l.75-.81c.38-.41.93-.6,1.48-.76l-.12-.64c-.02-.12.29-.36.29-.48,0-.8.37-1.39,1.13-1.82l-.24-.39c-.05-.08.18-.21.32-.32.78-.59-.1-.91,1.01-1.64.08-.05.17-.45.27-.44h.44c-.02-.87.38-1.4,1.18-1.65.37-.21.86-.95,1.28-1.14.69-.31,1.54-.49,1.99-1.05.74-.92,1.3-.31,1.58-.84.09-.17.09-.56.11-.86.66,0,1.27-.58,1.62-1.12h.62c.15.01.18-.51.31-.6,1.16-.8,1.03-.97,2.36-2.23,1.62-1.54,1.92-1.18,2.4-2.8l.89.05c.44-.91,1.22-1.87,1.84-2.62.65-.79.52-2.18,1.52-3.1l.15-.86.89-.34c-.06-.37-.14-.64-.08-.79.05-.13.31-.32.44-.44-.03-.3-.24-.98-.03-1.2.19-.19.52-.45.55-.64s-.33-.43-.57-.6l.27-.85c.02-.44.01-.83.26-1.08.43-.44,1.62-.31,1.31-.7-.35-.44-.8-.13-.75-.34l.1-.41c.34-1.34.42-3.08,1.63-2.66l-.28.61c-.05.11.18.45.22.38l.4-.5c.06-.08.35,0,.46-.03.54-.16.04-.87.09-1.18l.46-2.92c.08-.48.43-.85.4-1.47l-.07-1.42-.4-2.06c-.02-.12-.25-.35-.18-.45s.35-.34.39-.45c.69-2.06,0-2.28.08-2.78.12-.76-.13-1.66-.41-2.34-.2-.49-.01-1.22-.68-1.63-.72-.43-.91-1.08-1.11-1.85-.29-1.11-.39-2.46.22-3.49.06-.11.28-.28.33-.38s-.03-.39-.09-.49l-.63-1.14c.13-.65,0-1.24-.4-1.98l.86-.34c.2-1.42-.55-1.48.27-2.12-.93-1.33.87-1.92.47-2.87-.26-.61-.38-1.36.35-1.72v-1.13c0-.15-.23-.47-.19-.61.04-.11.33-.31.38-.42.25-.55-.42-1.43-.35-2,.13-1.06.27-2.13.73-2.95.13-.23.63-.57.49-.84-.09-.18-.3-.53-.41-.71-.04-.4-.13-.79-.27-1.15-.08-.2.36-.5.62-.6l-.24-1.01c-1.72-.37-1.28-2.53-1.26-2.44l-.51-2.1c-.13-.51-.13-1.1-.32-1.56.26-.1.58-.38.59-.68.07-2.65-.67-1.42-.77-2.28l.68-.2c.28-.08.03-1.49.46-1.4.24.05.58.37.78.58.16-.69.53-.73,1.17-.82.44-.06.55-1.32.08-1.59l.68-.59c-.49-.1-.98-.08-1.34.06-1.11.44-1.73-.2-2.64-.48l-1.79-.56.07-1.66,1.35-1.35c.51-.51.89-.82,1.54-1.15.72-.36,1.44-.77,2.3-.53l.56-.33.66.71c1.02-.59,2-.16,3.03.04.36.07.97-.16,2.95.27,2.31.51,1.56,1.11,3.77,2.03.21-.02.76-.06.81-.06-.13.32-.26.67-.28.79.4.21.59.36.95.67ZM131.96,23.57l-.34.37.57.51.34-.37-.57-.51ZM133.08,26.2c.86-.27.76-1.18.46-1.63-.16-.24-.96.03-.99.3l.53,1.33ZM254.02,26.98c.17-.24.17-.68-.01-.99l-1.66.42c-.17.06-.16.64-.01.75.48.37,1.41.23,1.69-.18ZM288.74,27.64l-.25.27.52.48.25-.27-.52-.48ZM249.79,36.01c-.55-.72-1.49-.55-1.78.11.58.3,1.34.36,1.78-.11ZM137.58,38.59c-.36-.28-.56-.81-.49-1.36-.37-.48-.89-1.02-1.54-1.19-.26-.07-.68.45-.72.71-.14.89,1.69,2.26,2.75,2.46.15.03.13-.53,0-.63ZM223.71,42.42c.16.07.41-.31.43-.49s-.3-.64-.44-.54c-.2.14-.39.39-.35.52s.24.45.36.51ZM144.26,44.96c.11-.12.3-.52.29-.66,0-.26-.28-.58-.57-.61-.2-.02-.55.35-.43.59s.4.5.7.68ZM238.91,60.69c.22-.62.29-.95.3-1.4-.29.3-.49.53-.57.72-.08.17.07.48.28.68ZM128.42,89.42c0-.23-.07-.46-.19-.53s-.54.19-.53.33l.04,1.03c0,.16.69.07.69-.09v-.74ZM308.37,121.17c.18.62.28.89.58,1.02.23.1.79-.02.95-.21.6-.69.51-1.48.68-2.31.07-.35.47-.77.3-1.11-.38-.79-2.21-1.07-2.44-.46-.35.9-.63,1.62-1.39,2.26-.23.19-.35.76-.16.98.15.17.68.15.9.07l.58-.23ZM289.28,126.05c0-.13-.11-.24-.24-.24s-.24.11-.24.24.11.24.24.24.24-.11.24-.24ZM198.05,160.56c-.03-.12-.5-.21-.52-.07-.2,1-.03,2.79,1.26,3.25-1.67-2.62-.51-2.33-.73-3.18ZM211.76,193.83l-.03-.77c0-.12-.16-.09-.46-.06l.49.83ZM146.13,209.52l.42-1.67c.2-.78-.02-1.53-.06-2.3l-.04-.65c0-.15-.48-.26-.58-.15-.56.62-.59,1.62-.1,2.53-.97.97-.1,1.08-.09,2.94.04.09.48.1.5-.02s-.07-.55-.04-.69ZM195.43,218.98l.4-.39c.06-.06-.17-.33-.26-.34-.25,0-.32.47-.13.73ZM222.13,219.57c.3-.3.17-1.21-.18-1.38-.61.17-.34,1.23.18,1.38ZM192.18,225.1c.14-.19.13-.69-.07-.69-.11,0-.33.4-.24.46l.3.23ZM102.65,229.17c-.18-.54-.22-.66-.3-.81-.07-.14-.62-.22-.71-.09-.16.24-.27.62-.35,1.04l1.35-.14ZM138.44,229.21c.06-.06.03-.39-.06-.38s-.33.06-.34.14l-.08.76.48-.53ZM141.02,234.48c-.07.02,0,.31.06.28l.25-.1c.07-.03.06-.3-.01-.28l-.3.1ZM250.37,239.96l-.15.42c-.02.07.25.19.28.13s.12-.26.07-.32l-.2-.23ZM226.75,255.43c.65-.17.19-1.32-.27-1.37-.4.27-.27,1.52.27,1.37ZM231.93,254.85c0-.19-.16-.35-.35-.35s-.35.16-.35.35.16.35.35.35.35-.16.35-.35ZM268.94,255.08c.01-.26-.72-.24-.95-.09-.21.14-.49.69-.29.85.44.35,1.21-.15,1.24-.76ZM310.06,269.73l.03.44c0,.06.25-.03.26-.09v-.3c.01-.06-.29-.11-.28-.05Z"/>
  <path d="M312.66,122.72v1.7c-.51.42-2.41-.68-2.3-1.85.04-.43.37-.97.67-.98.39-.01.84.16,1.04.41l.59.72Z"/>
  <path d="M312.66,266.47c-.16-.05-.51-.34-.45-.51.05-.15.31-.35.45-.41v.92Z"/>
  <path d="M208.94,161.16c-.36-.31-.55-.46-.95-.67.02-.12.16-.47.28-.79-.05,0-.6.04-.81.06-2.21-.92-1.46-1.53-3.77-2.03-1.97-.43-2.59-.2-2.95-.27-1.03-.19-2.01-.62-3.03-.04l-.66-.71-.56.33c-.87-.24-1.58.16-2.3.53-.65.33-1.03.64-1.54,1.15l-1.35,1.35-.07,1.66,1.79.56c.91.28,1.53.92,2.64.48.36-.14.85-.17,1.34-.06l-.68.59c.47.27.36,1.52-.08,1.59-.64.09-1.01.13-1.17.82-.19-.21-.53-.53-.78-.58-.43-.09-.18,1.32-.46,1.4l-.68.2c.1.86.85-.37.77,2.28,0,.29-.33.58-.59.68.19.46.19,1.04.32,1.56l.51,2.1c-.02-.09-.46,2.07,1.26,2.44l.24,1.01c-.26.1-.7.4-.62.6.14.36.23.75.27,1.15.11.19.32.53.41.71.14.27-.37.61-.49.84-.46.82-.6,1.89-.73,2.95-.07.57.6,1.46.35,2-.05.11-.34.31-.38.42-.05.14.18.46.18.61v1.13c-.73.37-.6,1.11-.35,1.72.4.95-1.4,1.54-.47,2.87-.82.64-.07.71-.27,2.12l-.86.34c.4.74.52,1.33.4,1.98l.63,1.14c.06.1.13.39.09.49s-.26.27-.33.38c-.61,1.04-.51,2.38-.22,3.49.2.77.4,1.41,1.11,1.85.67.41.48,1.14.68,1.63.28.68.54,1.58.41,2.34-.08.51.61.72-.08,2.78-.04.11-.32.35-.39.45s.16.33.18.45l.4,2.06.07,1.42c.03.62-.32.98-.4,1.47l-.46,2.92c-.05.32.45,1.02-.09,1.18-.12.03-.4-.04-.46.03l-.4.5c-.04.07-.27-.27-.22-.38l.28-.61c-1.21-.43-1.29,1.32-1.63,2.66l-.1.41c-.05.2.4-.11.75.34.31.4-.88.26-1.31.7-.25.25-.23.64-.26,1.08l-.27.85c.24.17.6.41.57.6s-.36.45-.55.64c-.21.22,0,.9.03,1.2-.13.12-.39.32-.44.44-.06.15.02.42.08.79l-.89.34-.15.86c-1,.92-.87,2.3-1.52,3.1-.62.75-1.4,1.71-1.84,2.62l-.89-.05c-.47,1.62-.77,1.26-2.4,2.8-1.33,1.26-1.2,1.44-2.36,2.23-.13.09-.17.61-.31.61h-.62c-.35.53-.96,1.11-1.62,1.11-.02.3-.02.68-.11.86-.28.53-.84-.08-1.58.84-.45.56-1.3.73-1.99,1.05-.43.19-.92.93-1.28,1.14-.8.25-1.19.77-1.18,1.66h-.44c-.1-.01-.19.38-.27.43-1.11.73-.23,1.05-1.01,1.64-.15.11-.37.24-.32.32l.24.39c-.76.43-1.13,1.02-1.13,1.82,0,.12-.31.37-.29.48l.12.64c-.55.17-1.1.35-1.48.76l-.75.81c-.31.33-.58.65-.76,1.1l-.82.16c-.18.04-.25.46-.4.7-.11.17-.63-.02-.85-.04-.56-.03-.87-.2-1.32-.63-.66-.65-2.6.8-3.1-1.11l-.9.33-.76-.76c-.23-.23-.5-.87-.75-1.06l-.9-.68c-1.56-.03-2.86-.91-3.68-2.21l-1.3-.83c-.35-.22-2.93-1.13-2.66-1.68l.21-.43c-1.12-.77-1.51.49-2.6-1.37l-.55-.93c-.06-.55-.29-.84-.82-1.05-.27-.11-.56-.79-.37-1.04.21-.28.47-.48.92-.87l-.99-.52c-.32-.17-.27-1.06-.26-1.39-.19,0-.58.03-.64-.08-.2-.38-.45-1.35-.25-1.66l1.09-.74-.94-1.13c-.66-.18-.8-.43-.92-1.05-.07-.35-.68-.97-.28-1.29.38-.31.63-.56.9-1.03l-.54.18-.64-1.06-.26-.43c-.07-.12.22-.31.41-.49l-.51-.82-.12-1.09c-.02-.19.21-.61.14-.79s-.38-.42-.6-.62c-.54-.49-.73-1.56-.45-2.29.1-.26.71-.6.84-.82l.04-1.07c.02-.45,0-.73.51-.95.23-.1.55-.56.41-.75l-.4-.54c-.11-.14.14-.53.24-.71l.92-1.73c.06-.11.36-.32.32-.43l-.2-.51c.27-.31.89-.61.49-1.21-.26.07-.98,1.91-1.11,2.05-.74.79-1.18,2.06-1.68,3.04l-1.03,2.01-.66,1.65c-.15.38-.36.74-.62,1.1-1.03.47.07-.22.04-.86-.09-1.55.69-1.72,1.01-3.5.57-.67.72-1.48,1.13-2.17l.62-1.03.68-1.52c.26-.58.48-1.03.62-1.69l.73-1.19c.12-.76.28-1.36.64-1.99l.7-1.22c.36-.63.81-1.28.5-2.06.13-.16.22-.32.09.15l.73.51c.02.58.09,1.28.27,1.82-.18.13-.41.31-.23.68l.78-1.12c.19-.28.24-.53.16-.98.2-.31.58-.84.86-1.16,1.2-1.36-.43-1.01.5-2.66l-.48-.7c.88-2.81-1.28-2.36-.09-3.79l-.32-1.47c-.05-.21-.51-.52-.47-.73.14-.88,1.03-1.41.35-2.09l-1.45-.14.27-.93c-.62-.64-1.02-1.68-.58-2.61l-.77-.63c-.13-.1-.65.03-.76-.11l.35-1.04-1.16-1.59-.65.45-.32-.97c-1.13-.5-1.4-1.57-1.55-2.72l-.22-1.75c-.8-.61-1.87-2.45-1.87-3.68-.13-.35-.54-.91-.54-1.41,0-.45-.3-.87-.39-1.21-.16-.59-.18-1.21-.47-1.77-.3-.6-.53-1.14-.71-1.76l-.34-1.14c-.79-2.62-.48-.85-1.59-4.11l-.45-1.32c-.07-.19-.22-.5-.43-.73-.25.35-.52.83-.59,1.12l.72,1.41c-.09.77-.05,1.49.48,2.06l-.12.72c.9,1.28.11,1.36.84,3.52.42,1.23.37,2.44.37,3.67.08.33.28.87.25,1.34-.02.28.29.89.2,1.15-.12.35-.23.72-.22,1l.09,1.69c.03.5-.22,1.2-.73,1.1v-.69c.01-.16-.32-.31-.49-.42l-.45-.27c-.1-.06.15-.48.11-.6-.18-.53-.58-1.52-.9-2.06l-.63-1.1c-.18-.32-.39-.61-.24-.99.19-.47-.13-.83-.25-1.24l-.46-1.53c-.09-.29-.22-.63-.3-.91l-.38-1.36c-.12-.42-.07-1.13-.22-1.48-.34-.82-.31-1.57-.07-2.36-.33-.71-1-1.59-1.14-2.43-.49-2.94-1.66-3.55-1.83-4.81-.07-.51.04-1.01-.39-1.34-.15-.12-.01-.55.13-.73-.63-.44-1.09-1.07-1.19-1.89l-.83-.84-.66-1.84c-.35-.98-.37-2.12-.64-3.12-.18-.67-.34-1.23-.37-1.94l-.05-1.29c-.03-.14-.31-.39-.35-.52s.2-.47.2-.61l-.03-1.72c-.02-1.2,1.06-.93-.19-2.84.43-.57.81-.89.54-1.53-.12-.29-2.17,1.51-2.43,1.78l-.86.92c-.68-.5,3.19-3.27,3.47-3.43-.28-.32-.23-.65-.1-1.05.83-2.56.11-.63.46-2.49.16-.88.28-1.75.59-2.55,1.07-2.82.49-.7,1.42-2.9.16-.39.23-.72.23-1.15,0-.55.57-1.25.61-1.71.05-.53.06-.78.24-1.18.25-.53.43-1.04.8-1.44,1-1.07.43-1.77,1.44-3.33.85-.1.81-.86,1.11-1.39l.67-1.18.63-.6c.09-.81.77-1.47,1.54-1.52.47-1.35.47-.02,1.9-1.51.36-.37.77-.83,1.11-1.13l1.12-.95c.38-.32.74-.61,1.1-.99l.77.06c.36-.36.21-1.25.21-1.69l1.22-1.95.84-.43.57-2,.4-.21c.38-.21-.8-.89-.3-1.93-.04-.29-.13-.98-.27-1.25l-.68-1.35c-.85-1.68.14-.26-.83-2.09-.5-.93-.92-1.97-1.33-2.99-.12-.31.08-1.05.07-1.37l-.05-1.22-.07-1.52c.16-.58.29-1.11.04-1.75l.39-.81-.04-1.81c-.02-.86-.18-1.72.45-2.52l-.19-.81c.7-.56.67-1.33.46-2.11-.25-.92-.18-1.77-.12-2.68.03-.57.05-1.18.14-1.78.04-.25-.24-.83-.23-1.09.05-1,.15-2.11.29-3.11.06-.42.54-.98.39-1.37-.23-.59-.04-.81.27-1.23l1.33-1.77c.18-.23.34-.56.57-.8.43-.43.69-.92,1.02-1.48.18-.3.68-.65.91-.94.3-.4.58-.67,1.1-.76.57-1.28,1.72-2.32,3.06-2.79.12-.59.61-.75,1.02-1.11.84-.73,1.62-1.74,2.39-2.5.33.06.7.11.93.11.67-3.96,2.69-2.49,2.69-4.11,0-.41.05-1.19.32-1.5.56-.64.74-1.38,1.11-2.02l1.53-2.64.93-1.49.58-1.02.66-1.19c.27-.49.68-.97.64-1.57-.04-.51.49-.7.63-1l1.02-2.21c.26-.56.7-2.35,1.07-2.65l.25-.85c.71.13.64-.54.91-.88l1.28-1.57c.88-1.08.11-.89,1.18-2.47.48-.51.98-1.14,1.18-1.75.28-.18.58-.47.73-.8l.65-1.4c.16-.33.51-.76.71-1.13l.66-1.24c.28-.52.8-1.04,1.14-1.57l.85-1.35,1.26-2.02c.29-.46,1.38-.82,1.47-1.52.26-.25.72-.64.94-.96.34-.49,1.13-.7,1.55-1.06.61-.53,1.19-1.15,1.95-1.09.33.03.91-.14,1.01-.4.15-.39.59-.56.98-.78l1.07-.63c.35-.21.92-.75,1.32-.71.97.09,1.5-.44,2.05-.93l2.42.07c.25,0,2.45.69,4.41.83.66.05.24.67.98,1.72.84,1.19,1.62.19,2.03,1.37l.39-.1c.11-.03.33.3.37.39l-.54.53c-.06.06-.23.26-.16.26s.25.04.32.02l.63-.16c.16-.04.32.36.45.5l.71.73c.14.14.47.32.65.29l.34-.06c.18-.03-.15.78.49,1.18.54.33.95.41,1.64.52l-.31.57c-.03.05.06.32.12.32l1.25.04c.44.01.55.08.56.62,0,.21-.21.3-.57.3-.09,0-.26,0-.26.06l-.02.29.58-.06c.27.19.54.23.93.16l.64.78c.31.15.69.42.75.57-.33.3-.57.5-.48.73.5,1.16.31-.67,2.3,1.3.29.29.49.85.59,1.21.04.14.29.41.31.54.01.08-.09.31-.03.36.07.07.35.19.4.28l.54.98c.22.39.34,1.3.47,1.7.04.14.6.13.6.28-.02.9-.27,1.65,1.24,2.27.44.18.68,1.11,1,1.38.5.39,1.08.42.93,1.29l1.38.93c.31.21.69,1,1.04.99,1.58-.03,1.46.48,1.63.34.1-.08.3-.34.41-.42l.88-.61,1.76.66.42.08c.12.02.22.4.35.47l2.55,1.35h.33s-.03.6-.03.6l.69-.06c.16-.01.35.41.53.47.33.1.86.37,1.21.6,2.25,1.48,1.13,1.41,1.56,1.95l1.23,1.55c.29.36.42,1.09.79,1.19l.74.2c.19.05.26.56.24.76-.11,1.43,1.67.81,1.09,2.6.37,1.28,1.29,2.27,1.71,3.27,1.04,2.44,2.4,1.64,2.13,2.84-.05.2.31.49.49.7.56.62-.02,2.36.31,3.41,1.32,1.89.24,1.29,1.32,3.1.91,1.52.62,2.33,2.49,2.19-.04.41-.17.83-.01.99.4.4,1.85.78,2.01.96l.72.84c.39.45.72,1.03,1.2,1.43.6.5,1.06.91,1.63,1.49.22.22.23.65.31.91.17.54.54.89.2,1.6-.14.28.45.66.74.8l.41,1.52.81.98c.41.49.5.92.63,1.51.26,1.25,2.12,1.77,1.77,3.8-.11.64,0,1.29.01,1.96l.04,1.65c.02.73-.17,1.43,0,2.22.25,1.22-.81,1.74,1.08,3.52l1.04.98,1.92,1.77c.57.53,1.12.81,1.4,1.64s.91,1.7,1.01,2.59c.12,1.07.24,2.04.49,3.06l.27,1.11.3,1.28c.6,2.58-.39,2.49.39,3.92.14.25.08.8.12,1.07.04.24.4.71.46.98.03.13-.04.47-.03.61.01.16.4.35.49.49l.58.89.07.73.25-.41c.06-.09.33.17.39.27l.11.18.48.83c.11.18.07.62-.02.79l-.15.28c-.03.06.25.07.32.07l.63-.03c.12,0-.01.28-.11.46l.82,2.4c.11.33.25.63.41.9.38.62-.51,1.07-.99,1.23-.34.78.13,2,.82,2.45.14.09.36.17.3.23s-.23.19-.32.22l-.93.35-.41-.15c-.07-.03-.13.18-.13.26v.45c.01.12-.4.1-.53.1h-.35c-.06,0-.07.1-.11.19-.07.14.61-.18.87,1.2l.9.28.38-.59c.08-.13.59-.07.69.05.24.27.86,1.24.51,1.5l-.22.16c-.09.06-.24-.25-.24-.35l-.03-.35c0-.06-.12-.09-.29-.15-.46.47-.37,1.08.14,1.58l-1.03,1.33c-.61-.04-.93-1.48-1.37-.96-.15.18-.14.5-.03.79l-.8,1.44.58-.03c.09,0,.07-.07.07-.31l.18-.32c.05-.08.17.07.29.18.12.64.61.92,1.23,1.25l-.41,1.02.65.02c-.16.24-.26.39-.24.36-.31-.08-.45-.14-.48-.07-.79,1.8,1.13,2.59.77,3l-.38.44-.08,1.21c-.07,1.03-.15,1.88-.79,2.51-.36.35.03,1.09.03,1.53-.03,1.82,0,1.56.8,3.36l1.48.62c.68.29,1.12.62,1.73.94l1.43.76c.49.26,1.39.38,1.7.88.91,1.47.03-.14,1.33,1.4h.53c1.1,1.74.98.7,1.55,1.21.72.66.89,1.58,1.01,2.48.23,1.79.63,2.3.37,3.86-.04.22.01.62.12.77l.29.37c.15.19-.46.26-.58.99-.03.19.34.53.35.73l-.02,1.81c0,.66-.21,1.3-.15,1.99l.18,1.99c.07.75-.63,2.43-.28,2.87.21.27.44.74.44,1.09l.03,1.53c0,.39-.53,1.14-.75,1.41l-.56.18c-.09.03.2.3.28.36l.17.14c.07.05.17.31.1.38s-.26.17-.3.25l-.27.55-.18.36c-.04.07.17.18.27.23l.26.14c-.2.36-.32.68-.46,1.14l-.55.52c-.05.05-.17.36-.21.3l-.26-.33-.35-.12c-.14.15-.42.42-.33.5l.45.4c.12.1.22.49.15.64l-.41.86c-.73.28-1.51.69-2.05,1.16-.41.36.11.34-.87.82-.36.18.45.44-.33,1.12-.16.14-.34.42-.48.67-.67.13-1.47.29-2.16.48l-.96.27.12.25c.13.27.89-.26.96-.19l.41.46c.09.1.14.44.03.51l-.51.36-.54-.26-.22.15s-.22.15-.27.15l-.53.03c-.32.02-.09.64-.98,1.64-.08.09-.05.54-.08.67-.1.37-1.11,0-1.42,2.09l-1.09.3c-.05.18-.09.69-.05.9l.11.55c.03.18-1.01.3-.96.5l.16.59-.45,1.13-.63,1.55c-.11.26-.33.85-.33,1.13v1.24c0,1.48-.79.42-.24,1.68.8,1.85.32.73,1.16,1.53.5.47-.56.58-1.04,1.68l-.21.48c-.07.17.85.46.52.59l-.36.15c-.19.07-.5.13-.62.23-.14.11-.6,1.64-.43,2.15l-.43,1.22c-.03.08.27.25.35.27l.35.09c.51.13-.44.66-.04,1.44.22.44.04.79-.39.97-.36.16-.45.36.01.28l1.77.11.18-.18.19-.18s.14-.13.14-.14c0,0,.1.3.13.39l.41,1.1c.02.05-.22.2-.23.15l-.05-.49c-.06-.65-1.08-.41-1.53-.23-.11.05-.02.5.09.56.69.36.99.06.92.26-.24.73-.6.87-.4,1.17.16.24.64.29.87.2l1.04-.4c.08,0,.22.06.2.14-.05.16-.16.49-.2.59l-.39,1.01s-.23.14-.24.09l-.09-.44c-.03-.14-.17-.45-.29-.68-.33.21-.64.55-.67.84-.04.41.2,1.2.51,1.14.07-.01.34-.12.37-.12l.48.04c.1,0-.05.37-.29.63l-.34.36c-.37.39,1.03.59.05,1.82l-.16-.09s-.18-.11-.23-.14c-.11-.06-.36.08-.4.2-.32.86.93.67.66,1.33l-.12.3-.12.12-.21-.29-.39.08.53.54-.84,2.3c-.37,1.03-2.08.39-2.05.75l.03.43c.01.13-.14.31-.3.49-.15.16-.1.66-.18.9l-.37,1.11c-.04.13-.36.38-.49.46-.69.42.45.67-.74,1.74l.3.59c.25.48-1.4.69-.73,1.38l-.6,1.15-.83.47c-.18.1-.54-.01-.84-.16-.24.09-.17.22-.15.32l.04.27.07.5c.03.2.54-.1.7.04l.63.56c.1.09.26.42.23.55l-.13.48c-.02.08-.32.03-.33-.05l-.07-.45-.07-.45c-1.33.4-1.35,1.93-1.9,1.07s-1.53-.89-1.44-1.13l.2-.52-.89-.58c-.7-.46-1.13.83-1.27.34-.23-.85.27-1.25-.26-1.59-.3-.19-.72-.32-1.04-.29l-.42.08c-.3.06-.32-.86-.1-1.54l.12-.36c.02-.06-.15-.13-.21-.14l-.66-.16c-.14-.04-.21-.47-.34-.55l-.71-.44s.02-.21.03-.26l-.75-.46c-.03-.16-.04-.37-.09-.35l-.29.09c-.13.04-.52.03-.58-.08l-.99-1.86c-.26.15-.52.3-.69.32s-.35-.52-.53-.58l-1.46-.44c-.21-.06-.68,0-.83-.12l-.65-.5c-.06-.05-.31-.21-.38-.19-1.03.33-.78-1.25-1.82-1.11-.51.07-.62-.2-.95-.51-1.45-1.35-2.21-1.03-3.07-1.65l-1.29-.93c1.01.73-2.89-1.69-2.31-1.36-1.42-.8-.51-1.38-1.68-1.85-.13-.38-.39-.7-.72-.96-.69-.53-.61-1.52-.82-2.27l-.61-2.16c-.16-.59.22-1.19-.49-1.74-.26.57-.48,1.09-.62,1.62l-.36,1.36-1.09.28-.8-1.31c.52-.5.02-.96-.06-1.47l-.17-1.26c.31-.49.56-.94.22-1.6s.19-2.18.21-2.67c.03-.62.06-1.05.14-1.65.41-2.97-.11-.21-.24-2.85-.02-.5-.02-1.21-.08-1.58-.18-.77-.45-1.26-.03-2.04-.07-.68-.56-1.68-.5-2.38.04-.41.18-.8.07-1.22-.22-.78-.46-1.58-.38-2.39l.13-1.22c0-.09.39-.24.47-.29s-.15-.22-.25-.27l-.27-.16c-.07-.04.03-.21.09-.33l.26-.51c-.73-1.3.41-2.46,1.16-3.53l.05-.87c.4-.73.35-1.41.33-2.2-.02-.52.05-.87-.18-1.47.27-.41.92-1.02,1.4-1.46.18-.16-.05-.67-.24-.97-.29-.47.46-.67.76-1.31.2-.42-.58-.74-.44-.89l.22-.23c.1-.11.25-.27.23-.37s-.17-.35-.25-.42l-.47-.38c-.11-.09.16-.53.13-.66l-.27-1.04c-.08-.32-.75-.61-1.36-1.81-.06-.11-.36-.26-.35-.38l.02-.69-.84-1.34c-.39-.63-1.4-.84-1.9-1.31-.66-.62-1.2-1.16-2.06-1.53-2.48-1.08-.31-.65-2.86-1.67-.41-.17-1.16-.31-1.57-.3-.15,0-.41-.33-.53-.31l-.53.11-1.68.34c-.12.02-.47.02-.58-.02-.15-.04-.25-.34-.28-.54l-.2-1.1c-.04-.24.08-.8.05-1.05-.95-.03-1.37-.54-1.53-1.46l-1.57-.22-1.23-1.48c-.18-.23.4-.85.68-.94.92-.3.84-1.28,1.43-.87-.06-.04,1.04,2.21,1.45,2.43,1.25.45,1.7,1.68,3.19,2.83,1.09.84,2.3,1.27,3.64,1.49.3.05.6.65.82.85l1.4,1.22c-.7-.61,3.31,2.26,2.53,1.59,1.34,1.16,2.09,1.41,4.22.83l1.38-.38c-.87.07-.87-.61-1.23-.86l-1.82-1.29c-.35-.25-.76-.34-.89-.82-2.38.26-1.89-1.35-2.93-.83-.29-.39-.69-.66-1.08-.91s-.81-.62-1.31-.81c-.91-.34-1.31-1.21-1.61-2.05-.12-.07-.4-.18-.39-.28l.05-.56-1.4-.34c-.51-.12-1.1-.08-1.53-.34-.54-.33-1.28-.54-1.73-.93ZM200.39,75.22c-.12-.11-.53-.25-.72-.27-.17-.01-.39.43-.31.58l.29.55c.29-.26.55-.53.75-.87ZM198.41,82.36c.18-.19.37-.39.33-.49l-.53-1.19c-.13-.29-.43-.5-.36-.84.22-1.14-1.77-.59-1.42-1.25.43-.8,1.46-.82,2.41-.62-.58-.68-.9-1.68-.51-1.32l.24.22c.27-.14-.21-1.01-.46-.87l-1.09.59.06.72-1.71-.7c-.14.17-.27.35-.38.39s-.38-.03-.54-.08c-.19-.05-.55-.53-.42-.69s.34-.37.55-.59c-.24-.26-.86-.35-1.2-.26l.15,1.16c-.68-.08-1.13-.17-1.75-.36-.18,2.57-3.53,3.47-2.87,5.36l.52,1.47c.06.17.26.53.42.59.13.05.46,0,.61,0l1.38.6c.38.16.65.43,1.07.36l.96-.16,1.34.46c.44.15.93.89,1.48.63l.77-1.02c.41.19.66.35.86.3.18-.04.59-.4.61-.59.06-.5-.28-1.41-.52-1.84ZM196.86,76.56l-.45-.59v.56c0,.11.23.1.45.03ZM199.39,77.56l-.23.31.41.3.23-.31-.41-.3ZM201.37,82.39c.28-.24.53-.41.86-.6,0-.11-.24-.63-.41-.6-.14.02-.39.17-.63.31-.36-.3-.61-.78-.78-1.41-.06.03-.3.4-.33.57-.02.14.21.31.38.49.61.62.32,1.75.57,1.54l.34-.29ZM202.61,83.7c.38-.19.59-.32.53-.4l-.22-.32c-.04-.06-.33.06-.33.13v.59ZM201.74,91.99c.13.09.5.45.67.52l1.02.4c.31-.46.72-.33,1.27-.34.47-.01.47-1.06.16-1.35l-.06-.85-.86.46c-.14.02-.16-.76.05-.86l1.19-.55.52.07c.09.01.25-.38.2-.45-.11-.18-.62-.4-.81-.32l-1.19.83c-.43.3-.68.58-1.25.58,1.1-1.48.66-.1,1.42-1.96.16-.38.26-.73.2-1.15l-.23-1.61c-.48.66-2.26-.17-2.06.32l.21.51-.8.26c0-1.36.73-1.48.38-2.11-.04-.07-.18.05-.27.13l-.76.73c-.1.09-.29.38-.37.48s-.35-.17-.47-.18l-.43-.04c-.3-.03.38-.31.21-.93-.03-.12-.44-.13-.48-.02-.34.86-1.31.53-1.2,1.05.13.6.92.6.84.77l-.17.35c-.03.06-.24-.15-.3-.18l-.43-.24c-.1-.05-.35.21-.28.21l.5,1.06c.14.3,1.04.37.98.93-.03.28-.31.79-.51,1.08l-1.05-.52c-.1-.05-.29-.05-.38-.03-.07.01.08.31.13.34l1.16.68c.1.17-.5.58-.67.46l-.79-.55-.43,1.05c.27.46.51,1.06.64,1.47.06.17.62.22.77.11s.27-.39.42-.67c.12-.23.76-.38.99-.25,1.12.65,1.4-.06,1.56.35l.22.59c.06.17.39-.33.51-.6ZM205.01,86.18c-.05.1-.13.32-.07.34l.21.07c.06.02.14-.16.12-.23s-.24-.25-.27-.19ZM196.95,86.87c-.11-.31-.58-.36-.61-.06.05.05.54.08.61.06ZM199.35,92.51l-.29-.19c-.17.2-.19.22-.19.22,0,0,.04.18.05.18,0,0,.12-.06.43-.22ZM263.71,133.99c.13-.07-.09-.41-.26-.56-.12-.1-.46.09-.53.26-.1.27.5.45.79.29ZM264.72,134.39c.06,0-.32-.04-.5-.06-.12-.02-.16.2-.16.45l.66-.38ZM262.91,139.01l-.33.37.42.37.33-.37-.42-.37ZM192.99,164.13c.08.16.25.41.27.32l.09-.31c.02-.07-.39-.07-.36-.01ZM226.77,177.76c.33-.23.85-.81,1-1.23-.39-.59-1.31.26-1.45.81-.03.13.33.42.45.42ZM224.53,199.1c.43-.02.39-2.44.09-2.74-.27.19-.48.56-.4.73.83,1.79-.1.29.31,2.02ZM224.62,205.3c.03.51.2.88.82,1.25.48-2-.21-2.74-.38-5.14-.01-.17.09-.7-.13-.65-.37.09-.27.6-.29.88l-.08,1.35c-.03.48-.05.84-.01,1.35l.06.95ZM194.81,208.68c-.09.02.13.3.22.27l.25-.09c.06-.02-.03-.26-.09-.25l-.37.08ZM146.06,215.49c.28-.02.11-.78-.16-.66-.21.1-.49.43-.64.72l.8-.06ZM144.38,217.55c.59-.12.95-.8.64-1.35-.42.24-.65.85-.64,1.35ZM142.69,225.16l-.46.28.22.37.46-.28-.22-.37ZM189.74,228.85l.03.44c0,.06.25-.03.26-.09v-.3c.01-.06-.29-.12-.28-.05ZM252.51,239.07c0-.13-.1-.23-.23-.23s-.23.1-.23.23.1.23.23.23.23-.1.23-.23Z"/>
  <path d="M308.37,121.17l-.58.23c-.22.09-.75.11-.9-.07-.18-.22-.07-.79.16-.98.76-.64,1.04-1.36,1.39-2.26.24-.6,2.07-.32,2.44.46.17.35-.23.76-.3,1.11-.17.83-.08,1.62-.68,2.31-.17.19-.72.3-.95.21-.3-.12-.39-.4-.58-1.02Z"/>
  <path d="M137.58,38.59c.12.1.14.66,0,.63-1.05-.2-2.89-1.57-2.75-2.46.04-.26.46-.78.72-.71.65.17,1.17.71,1.54,1.19-.07.55.13,1.07.49,1.36Z"/>
  <path d="M146.13,209.52c-.03.14.05.56.04.69s-.45.11-.5.02c0-1.86-.88-1.97.09-2.94-.49-.92-.46-1.91.1-2.53.1-.11.57,0,.58.15l.04.65c.05.76.26,1.52.06,2.3l-.42,1.67Z"/>
  <path d="M256.26,13.43c-.54-.24-1.15-.46-1.41-.97.42-1.15,3.01.91,3.63,1.48-.91.51-1.53-.2-2.23-.51Z"/>
  <path d="M254.02,26.98c-.27.4-1.21.55-1.69.18-.14-.11-.16-.7.01-.75l1.66-.42c.18.31.18.75.01.99Z"/>
  <path d="M198.05,160.56c.22.85-.93.56.73,3.18-1.29-.46-1.46-2.25-1.26-3.25.03-.14.49-.05.52.07Z"/>
  <path d="M133.08,26.2l-.53-1.33c.03-.27.83-.54.99-.3.3.45.4,1.37-.46,1.63Z"/>
  <path d="M102.65,229.17l-1.35.14c.08-.42.18-.8.35-1.04.09-.13.63-.06.71.09.08.16.11.27.3.81Z"/>
  <path d="M249.79,36.01c-.44.46-1.2.41-1.78.11.29-.65,1.23-.83,1.78-.11Z"/>
  <path d="M268.94,255.08c-.03.61-.8,1.11-1.24.76-.2-.16.08-.71.29-.85.23-.15.97-.17.95.09Z"/>
  <path d="M144.26,44.96c-.3-.19-.58-.45-.7-.68s.23-.6.43-.59c.29.03.56.35.57.61,0,.14-.18.54-.29.66Z"/>
  <path d="M128.42,89.42v.74c0,.16-.68.24-.69.09l-.04-1.03c0-.15.41-.41.53-.33s.19.31.19.53Z"/>
  <path d="M226.75,255.43c-.54.14-.67-1.1-.27-1.37.46.05.92,1.21.27,1.37Z"/>
  <path d="M222.13,219.57c-.52-.14-.78-1.21-.18-1.38.35.17.48,1.08.18,1.38Z"/>
  <path d="M223.71,42.42c-.13-.06-.32-.37-.36-.51s.15-.39.35-.52c.14-.1.46.36.44.54s-.26.57-.43.49Z"/>
  <path d="M238.91,60.69c-.21-.2-.35-.51-.28-.68.09-.19.29-.42.57-.72,0,.46-.08.78-.3,1.4Z"/>
  <path d="M140.93,18.65c-.04.34-.51.73-.71.62,0-.28.04-.62.1-.78.05-.15.63,0,.61.17Z"/>
  <path d="M228.29,3.22l-.5.83c-.29-.28-.24-.96.1-1.09l.32-.12c.06-.02.11.32.07.38Z"/>
  <rect x="131.82" y="23.63" width=".5" height=".76" transform="translate(25.48 105.6) rotate(-47.73)"/>
  <circle cx="231.58" cy="254.85" r=".35"/>
  <circle cx="270.26" cy="15.15" r=".33"/>
  <path d="M138.44,229.21l-.48.53.08-.76c0-.09.25-.13.34-.14s.12.31.06.38Z"/>
  <path d="M195.43,218.98c-.18-.26-.12-.74.13-.73.09,0,.33.27.26.34l-.4.39Z"/>
  <path d="M192.18,225.1l-.3-.23c-.09-.07.13-.46.24-.46.19,0,.2.5.07.69Z"/>
  <rect x="288.7" y="27.66" width=".37" height=".71" transform="translate(72.95 221.95) rotate(-47.47)"/>
  <path d="M211.76,193.83l-.49-.83c.3-.03.45-.05.46.06l.03.77Z"/>
  <circle cx="289.03" cy="126.05" r=".24"/>
  <path d="M141.02,234.48l.3-.1c.07-.02.09.25.01.28l-.25.1c-.07.03-.13-.26-.06-.28Z"/>
  <path d="M250.37,239.96l.2.23c.05.05-.04.25-.07.32s-.31-.05-.28-.13l.15-.42Z"/>
  <path d="M310.06,269.73c0-.06.29,0,.29.05v.3c-.01.06-.26.15-.26.09l-.03-.44Z"/>
  <path class="cls-1" d="M198.41,82.36c.23.42.58,1.34.52,1.84-.02.19-.44.55-.61.59-.2.05-.45-.11-.86-.3l-.77,1.02c-.55.25-1.04-.48-1.48-.63l-1.34-.46-.96.16c-.42.07-.69-.2-1.07-.36l-1.38-.6c-.15,0-.47.05-.61,0-.16-.06-.36-.41-.42-.59l-.52-1.47c-.66-1.89,2.68-2.79,2.87-5.36.62.19,1.07.28,1.75.36l-.15-1.16c.34-.09.96,0,1.2.26-.22.22-.43.44-.55.59s.23.63.42.69c.16.05.43.11.54.08s.24-.22.38-.39l1.71.7-.06-.72,1.09-.59c.25-.14.73.73.46.87l-.24-.22c-.39-.36-.06.64.51,1.32-.95-.2-1.98-.18-2.41.62-.35.66,1.64.12,1.42,1.25-.07.34.23.55.36.84l.53,1.19c.04.1-.15.3-.33.49ZM193.91,78.05l.3-1.02c-.39.22-.68.62-.3,1.02ZM198.08,83.75c0,.2.06.44.15.41l.29-.11c.3-.11-.44-.35-.44-.31Z"/>
  <path class="cls-1" d="M201.74,91.99c-.12.27-.45.78-.51.6l-.22-.59c-.15-.4-.44.31-1.56-.35-.23-.13-.87.02-.99.25-.15.28-.27.56-.42.67s-.71.06-.77-.11c-.13-.4-.36-1.01-.64-1.47l.43-1.05.79.55c.17.12.77-.28.67-.46l-1.16-.68c-.06-.03-.2-.33-.13-.34.09-.02.29-.02.38.03l1.05.52c.19-.29.47-.8.51-1.08.06-.56-.84-.63-.98-.93l-.5-1.06c-.07,0,.19-.26.28-.21l.43.24c.06.03.27.24.3.18l.17-.35c.08-.16-.71-.17-.84-.77-.11-.52.86-.19,1.2-1.05.05-.11.45-.11.48.02.17.63-.51.9-.21.93l.43.04c.12.01.39.27.47.18s.27-.38.37-.48l.76-.73c.08-.08.23-.2.27-.13.35.63-.39.74-.38,2.11l.8-.26-.21-.51c-.2-.49,1.58.33,2.06-.32l.23,1.61c.06.42-.04.77-.2,1.15-.76,1.85-.32.47-1.42,1.96.57,0,.81-.28,1.25-.58l1.19-.83c.19-.08.7.15.81.32.05.07-.12.46-.2.45l-.52-.07-1.19.55c-.21.1-.19.88-.05.86l.86-.46.06.85c.3.29.3,1.34-.16,1.35-.55.01-.96-.12-1.27.34l-1.02-.4c-.18-.07-.54-.43-.67-.52ZM202.23,87.78l-.69-.4-.83-.93-1.26-.41.09.51c.07.4,1.37.01,1.71,1.23h.98ZM203.39,87.2c.09-.38-.28-1.01-.53-.94-.31.09-.44.72-.2.87.17.11.69.26.73.07ZM200.98,89.41c.02-.36-.08-.93-.3-1.11l-.72-.58c-.27.06-.49.76-.27,1l1.29.69ZM201.61,88.75c-.06.05.1.4.17.35l.2-.15c.06-.05.02-.22-.05-.26-.04-.03-.28.02-.32.06ZM201.67,90.23c-.1.15-.22.62-.09.62h.49c.13.01.07-.32,0-.43-.06-.09-.33-.27-.39-.19ZM200.15,91.04c.08-.03.41-.15.36-.19l-.25-.21c-.06-.05-.15.09-.32.28-.27.07-.2.09.22.12ZM203.26,90.87l-.21-.12-.67.42s.29.3.36.22l.52-.52Z"/>
  <path class="cls-1" d="M224.62,205.3l-.06-.95c-.03-.51-.01-.87.01-1.35l.08-1.35c.02-.28-.08-.79.29-.88.22-.05.12.48.13.65.16,2.4.85,3.14.38,5.14-.62-.38-.79-.74-.82-1.25Z"/>
  <path class="cls-1" d="M201.37,82.39l-.34.29c-.25.22.04-.92-.57-1.54-.18-.18-.41-.35-.38-.49.03-.17.27-.53.33-.57.17.63.42,1.1.78,1.41.25-.14.49-.29.63-.31.17-.02.42.49.41.6-.33.19-.58.36-.86.6Z"/>
  <path class="cls-1" d="M226.77,177.76c-.12,0-.49-.29-.45-.42.15-.55,1.07-1.4,1.45-.81-.15.43-.67,1-1,1.23Z"/>
  <path class="cls-1" d="M224.53,199.1c-.41-1.73.52-.23-.31-2.02-.08-.17.13-.54.4-.73.3.31.34,2.73-.09,2.74Z"/>
  <path class="cls-1" d="M200.39,75.22c-.2.34-.45.61-.75.87l-.29-.55c-.08-.15.14-.6.31-.58.18.01.6.16.72.27Z"/>
  <path class="cls-1" d="M144.38,217.55c-.01-.5.21-1.11.64-1.35.32.54-.04,1.23-.64,1.35Z"/>
  <path class="cls-1" d="M263.71,133.99c-.29.16-.89-.03-.79-.29.07-.18.41-.36.53-.26.17.14.39.48.26.56Z"/>
  <path class="cls-1" d="M146.06,215.49l-.8.06c.15-.28.43-.62.64-.72.27-.12.44.63.16.66Z"/>
  <path class="cls-1" d="M202.61,83.7v-.59c-.02-.07.27-.19.31-.13l.22.32c.06.08-.16.21-.53.4Z"/>
  <rect class="cls-1" x="262.71" y="139.1" width=".49" height=".56" transform="translate(-15.03 245.65) rotate(-48.85)"/>
  <path class="cls-1" d="M264.72,134.39l-.66.38c0-.25.04-.46.16-.45.17.02.56.07.5.06Z"/>
  <circle class="cls-1" cx="252.28" cy="239.07" r=".23"/>
  <path class="cls-1" d="M196.86,76.56c-.22.07-.45.08-.45-.03v-.56s.45.59.45.59Z"/>
  <rect class="cls-1" x="142.29" y="225.27" width=".54" height=".43" transform="translate(-96.83 107.77) rotate(-31.51)"/>
  <rect class="cls-1" x="199.29" y="77.61" width=".38" height=".51" transform="translate(18.68 192.6) rotate(-53.72)"/>
  <path class="cls-1" d="M205.01,86.18c.03-.06.25.13.27.19s-.06.25-.12.23l-.21-.07c-.06-.02.02-.24.07-.34Z"/>
  <path class="cls-1" d="M196.95,86.87c-.07.03-.56,0-.61-.06.03-.3.49-.25.61.06Z"/>
  <path class="cls-1" d="M192.99,164.13c-.03-.06.38-.05.36.01l-.09.31c-.02.09-.19-.16-.27-.32Z"/>
  <path class="cls-1" d="M199.35,92.51c-.32.16-.42.22-.43.22,0,0-.05-.18-.05-.18,0,0,.02-.03.19-.22l.29.19Z"/>
  <path class="cls-1" d="M189.74,228.85c0-.06.29,0,.29.05v.3c-.01.06-.26.15-.26.09l-.03-.44Z"/>
  <path class="cls-1" d="M194.81,208.68l.37-.08c.06-.01.15.23.09.25l-.25.09c-.09.03-.31-.25-.22-.27Z"/>
  <path d="M193.91,78.05c-.38-.41-.09-.8.3-1.02l-.3,1.02Z"/>
  <path d="M198.08,83.75s.74.2.44.31l-.29.11c-.08.03-.14-.21-.15-.41Z"/>
  <path d="M202.23,87.78h-.98c-.34-1.21-1.64-.82-1.71-1.22l-.09-.51,1.26.41.83.93.69.4Z"/>
  <path d="M200.98,89.41l-1.29-.69c-.22-.24,0-.93.27-1l.72.58c.22.18.31.74.3,1.11Z"/>
  <path d="M203.39,87.2c-.05.19-.56.04-.73-.07-.24-.15-.11-.78.2-.87.25-.08.62.56.53.94Z"/>
  <path d="M201.67,90.23c.06-.08.32.1.39.19.08.12.14.44,0,.44h-.49c-.13-.01,0-.48.09-.63Z"/>
  <path d="M203.26,90.87l-.52.52c-.08.08-.36-.21-.36-.22l.67-.42.21.12Z"/>
  <path d="M200.15,91.04c-.42-.03-.49-.06-.22-.12.17-.19.26-.33.32-.28l.25.21c.05.05-.27.17-.36.19Z"/>
  <path d="M201.61,88.75s.28-.09.32-.06c.07.04.11.21.05.26l-.2.15c-.07.05-.23-.29-.17-.35Z"/>
</svg>