<?xml version="1.0" encoding="UTF-8"?>
<svg id="Layer_2" data-name="Layer 2" xmlns="http://www.w3.org/2000/svg" viewBox="0 0 432 288">
  <defs>
    <style>
      .cls-1 {
        fill: #fff;
      }
    </style>
  </defs>
  <path d="M428.54,288.59l-3.01-.04c.41-.61.97-1.11,1.25-1.64l1.76-3.36v5.04Z"/>
  <g>
    <path class="cls-1" d="M147.66.83h9.11c-1.01,2,.99,1.68.66,3.3-.27,1.36.33,2.21,1.54,2.67-.14.2-.42.58-.56.49l-.79-.5c.02.24.03.75.22.8l.97.26-.66.76,2.34-.05-.77.74c.19.33.44.73.37.92l-.35.89.97-.11c.21-.02.27.66.39.87l.68,1.19c.28.49.52,1.03.77,1.61l-.96-.31c-.15-.05-.39.14-.65.41l1.01.07.13.95c.03.19.62.23.78.29l-.09.71c-.03.21.52.49.58.51l-.67.96.66-.09c.12-.02.26.25.36.42l.74,1.15c-.44,1.06-.16,2.04.38,2.92l.29-.75c.52.76.47,1.57.67,2.33.24.92.47,1.77.37,2.43,2.75,2.65.76,2.21,1.5,3.72.23.46.92.69,1.42.79-.2.27-.49.65-.47.63,1.1.55,2.73,3.63,1.72,3.77l-.77.11.75,1.44c.1.19.53.47.64.33s.15-.52.07-.67l-.29-.58c-.08-.15.57-.42.43-.27l.96,1.16c-.11.05-.79.28-.73.52l.27,1.12c.24-.31.36-.66.54-.66l.97.02c-.62.66-1.11,1.1-1.28,1.67-.14.45.09,1.56.55,1.67,1.03.25,1.32.87,1.63,1.7.4,1.11,1.03,2.22.73,3.46.57-.2,1.1-.28,1.53.3l-1.35.34c.62.37,1.18.59,1.33,1.1s.13,1.3.14,1.88c2.14.96-.25,3.04,2.55,3.66.06.09.2.27.25.33.07.09-.12.36-.21.41l-.46.26c-.08.05.14.44.22.4l.53-.26c.2-.1.88-.35.96-.14s.17.61.19.88l.14,1.73-1.15.08,1.92,1.51.91-1.33c.7.58-.98,1.33-.88,1.7l.23.85c.31,1.12.89,3.31,1.95,3.91l.37,1.72c.04.17.63.39.58.56l-.22.78c-.06.2,0,.93.19.89l.82-.14-.24.82c.54.52.57,1.27.06,1.8-1.65,1.72-6.37,5.78-8.56,6.02l-.4-.86c-.07-.14-.36-.1-.65-.13-1.13-2.27.32-1.56-.16-2.38-.16-.27-.71-.17-1.04.07-.26.19-.79-.53-.86-.71l.93-.14-.8-1.16c.33-.94.01-1.88-1-2.27l.28-.2c.63-.45-1.22-.49-1.76-2.68-.14-.66-.3-.47-.5.29l-.78-.92,1.35-.45c-.71-.88-1.19-1.67-1.55-2.67l-1.33-.41-.52.06c-.12.01-.3-.42-.19-.46l.69-.23c.08-.3.41-1.13.34-1.49l-.45-1.76c-.55.27-.42.91-.32,1.51l-.28,1.27c-.45-.94-.34-2.02-.16-3.11-2.75.26.81-1.45-1.72-3.04l.17-.55c.02-.07-.24-.15-.29-.1l-.27.27-.94-.37c.09-.66-.12-1.02-.41-1.43l-.5-2.51.47-.99-2.42-1.23c-.13-.07-.36-.34-.43-.47s.23-.43.36-.38c.97.35-.06,1.13,1.03.67.53-.23-.92-.5-1.23-1.78-.88-.12.07,1.62-.34,1.74l-.4.11c-.38.1.18-1.43-.52-2.1.26-.06.87-.39,1.14-.68-.63-.05-1.19,0-1.39-.24-.23-.29-.41-.91-.45-1.23l.65.32c.13.07.38-.13.35-.28s-.24-.4-.46-.63.23-.77.56-1.1c-1.12-.34-2.49-.99-2.31-2.38l.83.7v-1.77s-1.07-.49-1.07-.49l-.81.02-1-2.16-.45.66c-.08.12-.3-.16-.42-.39,2.21-1.87-.15-1.11-.22-4.26,0-.19-.14-.62-.2-.74s-.3.12-.67.37l-.32-1.66-1.2-1.7-1.02-.2c.07-1.13.05-1.97-.13-2.82l-1.32-.44c-.09-1.06-.28-1.99-.89-2.76-.52.14-1.28.82-1.24,1.29l1.93,18.7.83,7.03c.2,1.65-.45,4,1.14,3.65l.47-.1c.11-.02.27.37.17.43s-.36.19-.48.2l-.62.03c-.26.01-.47,1.81.3,2.35.87.61.98-.22,2.27-.09.16.02-.23.69-.39.69l-2.07.06.7,8.3.5,4.79.46,4.35,1.49,14.6c.41,3.96.61,7.68,1.5,11.83.6-4.35.71-8.51,1.06-12.83,2.29,2.51,3.27,5.34,4.53,8.29,1.95,4.57,4.59,8.7,7.09,12.94l.36-1.06c.46,3.95,2.39,5.89,4.68,8.84s4.16,6.19,5.27,9.83c.21.7.27,1.56-.06,2.21l-4.29-.03-11.16-.08c-.4,0-1.17-.39-1.49-.66.06-3.08-.33-6.05-1.27-8.99l-2.57-7.98c-.83-2.59-1.31-5.09-2.12-7.81l2.52,24.82.64,6.81c.84.1,1.98.25,2.88.25h1.8c-.71.16-1.59.37-2.12.34l-2.31-.11.04,1.28c3.48.8,6.97.83,10.6.69s9.56.09,13.39.45c4.31,4.91,7.36,10.54,9.27,16.78l1.57,5.13c1.18,3.87,2.64,7.39,4.82,10.81,1.12,1.75,2.11,3.35,3.72,4.75,1.31,1.14,2.28,2.66,3.18,4.18l3.76,6.34,4.65,6.6c.6.85.91,2.17.83,3.19-1.16.84-2.5,1.14-4.01,1.49l1.88,3.13c.44.73,1.4,1.51,1.64,2.33.41,1.38,1.67,2.45,2.06,3.58l1.86,5.45c2.32,6.79,5.4,13.16,9.64,18.98,2.94,4.04,5.15,8.2,7.08,12.8,1.07,2.55,2.41,4.89,3.67,7.35,1.86,3.65,3.89,7,6.06,10.46l3.44,5.51c4.56,7.29,8.23,14.86,12.24,22.59h16.94c.28,0,.41-.84.31-1.08l-.27-.69c-.24-.35-.62-.99-.87-1.49-.28-.56-.97-1.26-1.15-1.83-.49-1.51-2.41-6.27-3.07-7.56l-.91-1.78c-.24-.48-.94-1.29-1.28-1.76.1-.67.03-1.16-.46-1.75-1.72-2.08-.97-2.65-3.01-5.81l-1.15-1.77c-.36-.55-1-1.73-1.15-2.35l-.67-2.62c-.15-.59-.49-1.12-1.02-1.6.31-1.07-.12-2.36-1.29-2.78l-1.19-1.95c-.74-1.21-.18,1.34-1.32-3.09l-.54-2.11-.19-.93c-.04-.2-.51-.26-.75-.37l-1.15-2.54c.29-.62.55-1.12.67-1.85-4.96,2.3-9.77,3.31-14.96,2.37-1.46-.26-4.79-1.95-4.34-2.27l.32-.23.36-.26c-1.88-.18.21-.4-1.64-1.2-.19-.41-.48-1.04-.76-1.51l-.25-.42c-.05-.09.41-.13.55-.07,1.8.69,4.19,1.46,6.31,1.55,7.84.33,15.55-3.18,20.19-9.5,1.94-2.65,2.72-5.86,2.1-8.93l-.09-.46c-.02-.08.24-.2.27-.13l.15.37c.52,1.27,1.04,2.48,1.44,3.84,1.09,3.73-.28,7.52-2.38,10.76l1.94,3.72,1.28,2.75c.42.91.93,1.82,1.38,2.64.23,1.56.09.55,1.4,2.51.82,1.22,1.34,2.47,1.91,3.83l.79,1.9,1.07,2.49.73,1.71c.21.5.63,1.14.92,1.66l1.46,2.67c.72,1.32,1.65,2.71,1.73,4.19,3.03,2.96.65,2.21,2.15,3.8.7.74.95,1.34,1.15,2.37.14.7,1.2,1.55,1.51,2.23.62,1.36.54,3.32.55,3.33l1.05.84c-.34.89.74,1.59.95,2.12,1.55,3.84,1.35,2.53,3.46,6.22.29.93.48,1.8,1.14,2.77l3.59.06c.17,0,.55-.15.65-.2s-.09-.35-.17-.51l-3.51-7.48-1.15-2.58c-.04-.09-.07-.56-.07-.65s.19-.09.23-.01l.2.41,1.17,2.43,1.22,2.43,2.61,5.57c.12.26.71.66.98.61l.72-.14c.12-.02-.24-.36-.3-.46-1.47-2.87-2.65-5.76-3.57-8.85l-3.03-10.2c-2.11-7.11-4.94-13.76-7.94-20.51l-4.59-10.33-3.47-7.81-4.96-10.38c-1.12-2.34-2.2-4.53-3.59-6.74l-7.53-11.89c-3.12-4.93-5.28-10.69-8.12-15.62l.03,4.76c0,.19-.42.66-.64.78-4.27-7.89-1.87-5.11-2.64-10.49-.2-1.41-1.92-1.23-.92-2.94-.65-1.16-1.42-2.36-2.23-3.48-2.18-3.01-3.93-6.13-5.65-9.43l-2.1-4.01c-.21.01-.55.03-.49.03l-.86,1.56c-.32.58-.79,1.05-1.43,1.45-.5-.05-.95-.09-.3-.26l.02-1.26.67-.56-.28-.56c-.08-.16.21-.37.59-.7l-1.34-.71c-1.13-.6,1.74-3.48-.22-5.22-1.78,1.04-1.5,3.87-2.03,4.86-1.56,2.88-4.16,3.43-4,4.74-.22.29-.42.69.04.59l4.02-3.38c.06-.05.22-.47.27-.54.04-.06.21-.07.18,0l-.21.5c-.13.31-.33.9-.22,1.17s.97.09,1.24-.02c.28-.43.47-.73.2-.25l-.13,1.02c-.03.24.51.48.78.66-.86.38-1.57,1.23-2.14,2.19.59-.03.97-.07,1.27,0s.56,1.02.37,1.26l-.3.38c-.06.08,0,.11.18.39.66.52,1.42,1.04,2,1.38-.34.31-.72,1.07-.63,1.55.16.85,2.86,1.53.87,2.01,1.19.86,1.61,2.22,1.78,3.41.28.4,1.17.99.7,1.62.81.59-.12.13.78-.12.16-.04.44.41.37.56-.9,2.05,1.15.99,1.43,4.07l.72.63c.17.15-.06.73.02.94l.57,1.44c.99,2.49,1.28,2.26,2.34,4.81.37.88.43,2.22,1.07,2.98l.34-.41c.05-.05.15-.43.17-.36.04.11.21.54.21.64v1.08c1.03,1.11,1.63,2.43,2.32,3.82.22.45.63.97.86,1.54.46,1.15,1.35,2.33,2.03,3.31l-.59.49c-.34.28,1.28.45,1.11,1.46-.14.86.61,1.14.94,1.72l.71,1.66c.38.9.94,1.8,1.14,2.67s.44,1.13,1.15,1.55c1.03.62.24,3.15,1.03,3.17l.98.03c.39.45.29,1.87.61,2.4s.65,1.05.92,1.74l1.33,1.94-.33.79c-.17.4,1.03.63,1.21,1.89l.18,1.21c.01.09-.13.42-.2.49-.1.09.36.23.46.33l.88,1.02.65.23c.12.04-.7,1.82-1.27,2.55-1.83,2.33-4.08,3.91-6.81,5.17l-1.63-2.13-.33.68c-.11,0-.52-.05-.49-.15l.15-.44c.04-.11.46-.4.36-.46-1.94-1.01.09-.86-1.96-2.48-.24-.19-.61-.6-.73-.83-.1-.2.1-.49.22-.82l-.47-.35c-.11-.08.1-.37.17-.52l-1.26-2.42c-.5-.95-.7-1.27-.63-2.8-.01-.37-.95-.56-1.39-.71-.8-.27-.04-1.36-.04-1.91-.01-.66-1.55.37-1.34-.23.07-.2.22-.69.36-.7l.74-.07-1.44-1.14c-.07-2.09-1.04-1.79-1.75-5.09-.04-.2-.54-.13-.92-.06-.82-.94-.85-2.39-.97-3.69l-1.1-1.7-.83-.56c-.04-.64-.15-1.04-.41-1.6l-.34-1.62-.87-.09c-.24-.02-.05-.83,0-1.15-.01-.46-.98-1.18-1.38-1.49-.14-.11.07-.68-.08-.77-.18-.11-.48-.24-.82-.38-.14-.59.07-1.54.59-2.11l-1.13-1.07-.51.13c-.76.19.79-.04-.9-1.55-.07-.94-.28-1.92-.8-2.78l-.64-1.06c-.11-.19.17-1.19-2.28-1.42l-.56-1.64,1.02.48c-.16-.08,1.28.29.82.07-.38-.18.22-.59-.96-1.43-.22-.15-.12-.8-.11-1.11l-1.36-1.25.44-.08c.18-.03.38-.08.31-.16-1.22-1.48.08-.22-.89-2.08l-1.99-3.84-.86-1.59c-.06-.12-.31-.44-.36-.32l-.27.67c-1.15,2.82,0-1.15-.9-1.2.43-1.57.27-.79-.15-3.19l-.08-.47c-.02-.1-.16.05-.39.24-.03.04-.43-.22-.35-.32s.28-.33.39-.43l1.59-1.34c-1.13.41-1.98.81-3,1.31-2.98,1.47-6.15,2.51-9.66,2.6.69-1.69-.97-2.52-.7-2.81l.36-.39.34-.37c.06-.07.32.16.42.2l2.42-.5c.06-.06.19-.24.13-.27-.07-.03-.28-.14-.35-.13l-.65.06-1.76-3.82c-.07-.27-.14-.36-.44-.23l1.94,4.2-1.25.39-2.08-4.59c-.06,1.44,1.25,3.02,1.64,4.53.04.16-.52.06-.59-.09l-.32-.76c.06.42.1.69-.09,1.24l-2.3-4.85c-.17-.32-.38-.68-.39-.17l2.16,4.77-2.59.38c-1.01-1.74-1.77-3.45-2.54-5.51.02-.27.17-.49.29-.41l.15.71.4.16-.21-.63c-.04-.12-.05-.38.06-.38l.59.03,1.49.03c.2.41.09.19-.05-.11-.39-.95-.88-2.49-.74-3.45l-1.09-.09c-.41.1-.34.03.11-.26l3.04-.53c.06-.01.44.25.4.3-.07.08.2-.25.29-.36l2.11-.75c3.35-1.18,6.47-2.88,9.41-4.95,1.9-1.33,3.35-3.22,4.88-4.93.18-.2.42-.42.55-.32s.15.59,0,.74c-1.41,1.5-3.24,3.37-4.84,4.83l-.34.31c-.78.71,2.05-.67,3.1-1.74l2.75-2.81c.22.93-1.3,1.19-.86,2.16.08.18.64.42.78.28l.68-.67c.15.07.68.28.92.33.74.15.74-1.24.89-1.31l.77-.35-1.9-.9c-.41-1.9,1.14-2.92.29-5.1-.95-2.45-1.59-4.75-2.41-7.28-2.37-7.38-4.99-14.6-8.34-21.59-1.95-4.07-3.68-7.79-4.92-12.13-1.06-3.72-2.76-7.11-4.1-10.74-1.6-4.34-3.49-8.3-5.57-12.44-2.77-5.51-5.48-10.81-7.99-16.45l-8.04-18.08c-.52-1.18-1.12-2.49-1.81-3.54-1.43-.79-2.99-1.65-4.34-2.75-.31-.18-1.16.46-1.31.88l1.21,2.5,4.66,9.98c.44.95.84,1.85,1.21,2.82.46,1.19,1.08,2.2,1.3,3.67-.86-1.42-1.57-2.91-2.29-4.54-.93-2.1-1.56-3.02-2.36-4.87l-2.54-5.88-1.99-4.68c-.89-2.1-2-3.94-2.7-6.07l-.13-.55c2.18,1.21,4.26,2.38,6.24,4.07l-5.53-3.04c.49,1.42,1.31,2.1,2.1,3.02l1.47.17c.54.46,1.15,1.08,1.68,1.36l1.96,1.05c.8-1.43-3.17-3.04-1.28-2.49l.58.17-5.09-13.57c-1.1.57-1.21,1.29-1.31,2.18l-.44,3.87-.16,2.19c0,.1-.23.5-.29.63s-.19,0-.5-.19c-.52-1.22-.97-2.51-1.57-3.7-.51-1-.79-1.74-.68-2.88l.29-2.94c.21-2.16.76-.52,1.11-2.64l1.48-.12.57-.09c-1.75-3.79-3.66-7.23-5.78-10.77l-2.26-3.77c-1.26-2.1-2.48-4.11-3.8-6.07h262.65v282.72l-1.76,3.36c-.28.53-.83,1.03-1.25,1.64l3.01.04v.24H-3.46V.83h.24v287.77s157.66-.01,157.66-.01l-.3-2.88-1.19-10.07-.98-9.05-1.01-8-.48-4.31-1.48-12.68c-.2-1.69-.29-3.41-.68-4.99-.16-.65-.18-.91-.17-1.55.02-3.33-1.02-5.62-.59-7.93.28,1.14.51,2.14.64,3.18l.92,7.42.3,2.33,2.22,18.12,1.58,13.57,1.89,16.73.66-.02-.68-5.2-4.08-34.76-.9-7.79c-.07-.65.77-1.65,1.05-2.24l-1.06.62c-.29-.43-.39-1.57-.06-1.9l.59-.12c-.37-.34-1-.68-1.05-1.09l-2-15.62-.52-5.33-.9-7.31-4.25-36.19c-.42-3.54-.3-4.51-.96-7.86l.6-.21c.07-3.83-.4-1.37-.91-4.07-.45-2.37-.73-4.58-1.03-6.98l-2.1-17.02-.31-2.7-.78-6.7-.37-2.93-.58-4.5-.41-4.03-.43-3.6-.43-3.67c-.25-2.1-.67-3.7-.7-5.21l-.62-.17c.33.09.15-3.17.09-3.63l-.93-7.47-1.08-.03c-.15,0-.28-.53-.13-.54h.66c.14-.02.65.06.59-.07-.04-.08-.18-.4-.19-.53l-.22-3.53c-.04-.64-.65-2.08.23-2.32.18-.05.59-.07.73-.09,0,0,.66-1.84-.72-4.32-.32-.57-.25-1.78-.27-2.52l-.08-3.1c-.02-.63-.97-1.53-.1-2.12l1.18-.79c-.46,1.51-.23,2.75-.03,4.19l.95,6.77.7.04c-1.5,3.43-1.46-.14-1.12,3.93l.24,2.86.4,4.8-.55-.81c.19.75.28.94.69,1.92.1.03.1.05-.39.22-.07.98.07,2.2.21,3.34l.75,6.22.55,3.99.85,7.04c.45.07.68.11.44.07-.05.78-.07.92-.07,1.31v1.28c-.01,1.24.19,2.53.44,3.98,1.16-.3-.39-1.41.21-2.83.14-.18.36-.36.39-.31.18,1.02.41,1.76.39,2.4l-.11,2.82,1.15-1.16c.04,1.39-.18,1.9.67,2.56l1.49-1.86.23.33c.06.09-.11.42-.04.5.97,1.04.58,1.35.73,1.66-.3-.59.05.97-1.02-1.17-.06-.11-.46.1-.6.2-.08.06-.03.08.22.44-.26.47-.8,1.05-1.33,1.43l.07,1.46c.06,1.14.36,2.56.02,3.59l-.43,1.29c-.09.27.35.61.79.63l.07-.67c.58-1,.39-3.54.94-2.53.04.08.16.4.15.5l-.29,2.56.76.47c.17.62-.54,1.62-1.15,1.77l-.34,1.5c-.09.4.39,1.19.45,1.59.09.61.18,1.12.38,1.62.62-1.07.38-2.76-.03-3.66-.12-.25.49-1,.63-.83l.54.61c.42.48.62,1.09.68,1.79.29.11.84.39,1.06.64.26.3.03,1.26-.29,1.12-.43-.19-.89-.54-1.04-.33-.17.23-.21.85-.29,1.09l-.51,1.62c-.11.34-.73.83-.63,1.42l.83,5.26c.04.24-.15.58-.15.79,0,.16.38.47.58.65l-.35,2.46-.47,3.16c-.54,3.64.68,1.72,1.14,7.03.37-.4.96-1,1.32-1.24.18-.12.85.03.81.23l-.17.93c-.03.16-.66-.12-.82-.06-.45.18-.8,1-1.06,1.59-.29.67-.24,1.13-.07,1.97.15.73-.4,1.48.36,2.32l.59-1.94c1.46.52-.63.83-.16,2.3l.36,1.11c.06.2.14.69.03.85s-.39.25-.78.4l.38,1.51.27-1.03c.04-.13,1.15.03,1.09.61l-.64-.22c-.16-.06-.58.46-.43.56.18.13.56.39.48.53l-.37.68c-.1.18-.47.71-.28.77l.72.24c.09.03.02.36-.07.38l-.53.12.12,2.6.98-.29s-.05.56-.17.56h-.66s.58,4.33.58,4.33c.08.32,1.05-.07,1.16-.38.09-.26-.01-.74-.13-1.36.39.06,1.2.77,1.06,1.22-.03.11-.46.49-.35.52l.41.11,1.2.26-1.35,1.19,1.6,1.11c-.21.85.05,1.28.47,1.89l-.32,2.59c-.02.15-.3.5-.35.56v1.18s.08,3.46.08,3.46c.01.56-.23,1.42-.35,2.14,1.74,3.29.34,3.1.29,4.7l-.02.67c0,.13-.54.06-.56-.07-.23-1.49.53-1.28-.62-1.9l.02,1.98c0,.36.41.92.62,1.13l.33.33c.06.06-.23.04-.61.05l.64,5.33c.29,2.39.46,4.75.59,7.27.03.56.16.8.72,1.22.46,0,.3.07-.41.23l.29,1.54c2.06-.12.33.84,1.6,3.17.25.46,0,1.56.11,2.11.9,4.66,0,1.18.2,4.77l-.34,1.89,1.09-1.21c.32.26.34.92.13,1.26-.12.2-.28.08-1.18-.03,0,2.04.78,4.46,1.8,6.2.29.49-.12,1.13-.09,1.5.21,2.55,1.09,6.08.11,8.2.32.96.4,2,.48,3.02l.29,4.09.1,1.7c.78.11,1.08.38,1.13,1.1.08,1.01.28,1.92.41,2.89l.81,6.19c.12.89-.12,1.97.07,2.91,1.12,5.48.32,9.4.72,13.71l.43,4.73h5.93s.66-6.15.66-6.15l.21-1.46.51-3.45.54-5.29c.07-.68.57-1.43.97-1.88-.24-.14-.69-.51-.66-.7.17-.82.42-2.43.5-3.33l.43-4.84.84-5.57.16-3.68c.05-1.16.36-2.27.66-3.49.07-.06.25-.18.27-.1l.11.38.15.56c.02.09.41-.06.41-.16l.07-1.9c-.04-.18-.66-.41-.9-.48.31-1.57.48-3.24.57-4.9l.25-4.37.14-4.1.06-2.32c-.44-.49,0-1.22-.08-1.64-.22-1.09-.67-2.4-.65-3.47l.04-1.6c0-.26.05-1.01-.2-1.05l-.88-.17c-.82-2.65,1.77-4.18-.2-7.75-.18-.33-.32-1.2-.43-1.58-.48-.51-.59-1.02-.28-1.82-.43-.07-.83-.56-1.01-.93-.3-.62-.02-1.26.2-1.92l-1.03-.59.96-1.3c-.08-.82-1.16-1.54-2.09-1.97l.32-1.17-.93-.74c.42-.78.48-1.13.58-1.83s.4-1.41.13-2.08c-.23-.58.11-1.25.11-1.71l-.04-2.24c-.02-.82-.2-1.39.32-2.17l-.81-1.8c.02-1.09-.17-2.11-.5-3.09.19-.17.56-.54.5-.73-.68-1.93.75-1.9-.21-2.79-.72-.67-.04-1.5-.15-1.98-.61-2.82.45-2.35-.84-6.78l.26-.58c.09-.21-2.36-1.67-1.07-3.47.08-.11.12-.5.07-.61s-.41-.25-.47-.15-.18.3-.23.44l-.55,1.53c-.17.49.11,1.49.26,2.16l-.95,1.2c-.19-1.38-.35-2.12-1.55-2.32.29-.32.67-.76.83-1.02v-2.16c0-.17-.12-.49-.2-.63-.36-.69-.56,1.89-.9,2.92-.11.33-1.19-.08-1.3-.22-.21.47-.56,1.1-.88,1.1-.53-.83.55-1.41,1.13-1.53.19-.04-.06-.78-.24-.73l-.76.21-.71-.47-.8.23.48.77c.22.35-1.54,1.4-.05,2.84,1.3,1.25-1.52,1.09.87,4.4-.17,3.57.75,5.52.31,9.2-.29.04-.76.04-.81-.09l-.55-1.34c.55-1.24.66-2.54.39-3.87l-.4-1.96c-.06-.3-.38-.81-.54-1.02.14-.28.39-1,.19-1.39-1.31-2.55.12-2.89-1.09-4.19-.06-3.11-1.54-3.72-1.05-7.38-.3-.26-1.39-.35-1.74-.12.69.51.44,1.14.64,1.8.14.47.51.99.47,1.56-.03.42-.58.78-1.11,1.2l.93.42-.7.55c-.09.07.68,2.51-.48,2.34l-1.03-1.75c.74-3.54-.97-1.87.26-4.11-.23-.26-.65-.64-.59-.87l.26-1.06c.05-.19-.45-.67-.36-.84l.4-.8c-1.15.12-1.79-.83-1.8-1.67.37-.04,1.05-.07,1.04-.27l-.04-.84c-.16-.33-.31-.51-.18-.55,1.72-.41.49-.97,2.41-.72.16.06.18-.41.15-.59-.02-.15-.45,0-.77.09-.84-.73-1.19-1.97-1.07-3.21l.72-.74c-.24-.59-.03-1.58.72-1.63l1.04,2.09c.39.77,1.42-.04,1.86-.42.3-.25,1.03-.5,1.03-.81v-1.38s-1.72,1.14-1.72,1.14c-.14.09-.23.79-.39.75-.17-.05-.68-.2-.57-.17l.74-.87c.11-.13-.41-.5-.56-.62-.02-.1-.09-.4.02-.38l.66.08c.15.02.47-.08.65-.17.69-.35-1.03-.53-.85-1.19.06-.2.29-.58.48-.53.36.1.79.2,1.01.23s.53-.67.37-.82l-1.28-1.27c.63-.3,1.09-.46,1.29-.7s-.17-.97-.45-1.2c-.52-.42,1.12-.9.93-1.57-.07-.24-.33-.64-.54-.99-.03.04.17-.21.23-.29.72-.89.79,2.04.45,2.67.1.36.43,1.09.68,1.34.38.36.68.58.57.92-.41,1.32-1.41.4-1.03,1.51.04.13.44.27.54.18l.41-.37.32-.29c.07-.06.28.52.21.57l-1.4.92,2.94-.08-1.05,1.29,2.41.88-1.19,2.53c.99.26.28,2.62.73,3.74l.56.61c.1.11-.38.46-.35.62l.42,1.71c.44-.62.62-1.21.69-1.87l1.03-10.22c.09-.86.27-2.11.02-2.83-.06-.16-.63-.47-.54-.61l.33-.5c.11-.17.68-.62.53-.74l-.7-.54c-.18-.14-.4-.26-.31-.29l.44-.16c.13-.05.38-.29.45-.41s-.19-.34-.32-.31l-.58.13c-.31-.33.14-1.11.49-1.5.87-.97-.3-1.82-.87-2.67l.69.22c.13.04.3-.39.23-.43-1.91-1.36.27-.03-1.55-2.01-.12-.13.14-.66.09-.85l-.76-2.47c.57-1.62.8-3.46.3-5.18l.44-.5c-1.06-.77-.75-2.75-.76-3.29-.01-.89-.4-1.66.05-2.58.3-.61,0-1.32-.43-1.8.75-1.22.57-2.74-.02-3.95.1-.35.11-.75.09-1.11l-.09-2.07c-.02-.48-.48-1.24-.8-1.68l.43-.67c.23-.36-.92-.81-.68-1.31l.32-.67c.32-.68-.44-1.84-.37-2.47.19-1.86-.73-2.91-.81-4.46-.05-1.14-.1-2.1-.8-2.91.26-2.29.09.03-.55-3.08-.6-2.9.49-1.93.09-5.59l-.22-2.05-1.12.11,1-1.09-.06-1.55-.54.22-1.39-.78.32-2.28-1.56-.77-.16,1.59c-.04.42-.02,1.36.18,1.76l.6,1.2c-.5-.03-.76-.09-.96,0s-.38.75-.21.88l.58.42c-1.4,1.5.6.15-.93,3.26-.28.57.91,1.49-.06,2.15l-.98-2.8.61-.67c.08-.09-.12-.21-.4-.49l-1.39,1.82c-.11-.04-.63-.36-.6-.59l.12-.87.47-3.35c.13-.93-.11-1.86.72-2.63l-.59-1.27c-.69.57-.5,1.23-.49,2.25-.28.13-.96-.25-1.21-.56-.83-1.05-.41-1.64-.27-2.75l.73-5.82.45-1.67c.36-1.32.34-2.55.46-4.03-.31.35-.61.83-.69,1.19l-.54,2.29c.07.22.38.67.24.82l-.5.56-1.7-.4.31-1.84c1.21-.02,1.01-2.93.91-3.67l-.27-2.06c-.11-.82.03-1.58.55-2.25-.19-.13-.71-.57-.8-.85s.12-.81.25-1.12c-.09-.12-.58-.51-.49-.7l.42-.9-.49-1.13c1.74-3.19-.29-2.88,1.44-5.56l-.53-1.1.53-.63c.11-.13-.38-.5-.45-.67-.08-.2.76-.17.83-.12-.5-1.33.48-2.18.07-2.29l-.85-.23.67-2.48c.13-.47.05-1.06-.03-1.47l.4-1.2.37-.53c.11-.16-.55-.47-.89-.62.49-1.14,2.48-1.22,2.21-1.63l-.36-.55c-.08-.12-.4.14-.75.25-.12,0,.09-.61.25-.8.14-.18.47.03,1.19.24l-.45-1.71c-.13-.48.27-1.53.07-2-1.03-2.48-.05-5.98-.32-6.06l-.77-.22.62-.37c.09-.05-.11-.22-.21-.27l-.31-.14c.22-.17.66-.46.53-.57l-.65-.51.54-2.29-.43-.6c-.06-.09.33-.35.34-.46l.04-1.51c-.69,0-.67-2.62-.52-2.83.19-.26.86-.76.71-1.01-.12-.21-.46-.49-.8-.78l.17-1.61c.03-.33.01-.55-.04-.99-.25-2.15.16-2.98-.78-3.79.63-.68.84-1.86.56-2.74l-.58.18c-.09.03-.1-.25-.14-.34.7,1.4,2.03-7.61,2.05-7.75.23-1.51.4-2.73.17-4.12l-.28-1.69ZM418.81,7l1.6-.89c.23-.13.47-.93.21-.9-.93.24-2.98,1.05-2.39,2.15.07.13.3-.1.59-.35ZM427.38,7.84l-1.31-.76-.93,1.33c.85.19,1.59.07,2.24-.57ZM148.2,20.57l.88.1c-.28-.51-.39-.76-.6-.89-.17-.11-.84.06-.9.17l.19,1.7c.27-.22.55-.43.52-.59l-.09-.49ZM149.02,57.7c.28-1.03,1.15-6.22.63-7.06-.53,1.97-.63,3.7-.78,5.62-.04.52-.42.99.15,1.44ZM146.89,73.39l.68-2.96c.19-.83.98-5.37.35-5.91l-.94,6.38c-.12.82-.39,2.13-.66,2.8-.05.13.19.55.3.49.12-.07.37-.2.35-.33l-.07-.47ZM166.21,202.82l2.56.2c.18-1.3.23-2.19,0-3.37-.21-1.01,0-2.1-.04-3.14-.07-2.09-.3-4.03.65-6.01l-2.05-11.95-1.81-8.92c-1.08-5.33-.53-17.81-1.92-23.54-.73-3.03-1.12-5.87-1.37-9.07l-2.52-.76.34,3.11.24,3.61.34,3.16.72,7.43.49,4.81.54,5.27,1.91,18.42,1.25,12.51.42,4.56.27,3.68ZM230.63,155.16c-.07-.47-.55-1.01-.89-1.14-.3-.12-.98.23-1.22.59.34.55,1.43,1,2.11.56ZM234.34,159.63c.1.11.69-.23.69-.37,0-.47-.34-1.47-.59-1.79l-.95.58.56.33c.27.16-.41.47.29,1.26ZM149.95,161.83c.33.06,1.03-.52.97-.9-.09-.55-.83-1.37-1.07-.71l.1,1.61ZM161.48,173.46v-.7c0-.13-.41-.15-.63-.16-.02.88.13,1.79.5,2.52.36-.31.74-.71.7-.95-.03-.2-.57-.46-.57-.71ZM171.1,241.48l.23-3.76c.17-2.7.06-5.39,0-8.09l-.09-4.15c-.02-1,.03-2.27-.11-3.31-.68-4.82-2.18-9.37-4.21-13.74l.92,10.6.67,5.78,1.63,17.29.32,4.3c.81-.31.26-.88.26-1.51,0-1.03.3-2.25.37-3.41ZM169.71,249.07l.09-2.41c0-.18-.04-.58-.16-.59s-.42.04-.41.16c.26,2.08-.78.18-.34,3.13.36-.06.81-.13.82-.28ZM169.93,254.99c.26-.92-.23-1.65-.45-2.23.18-.94.43-1.97.39-3.16-.45.01-1.11.32-1.26.62-.13.26.29.98.26,1.29l-.23,2.71,1.28.77ZM167.82,278.36s.62.43.49.51l-.77.53.55,1.17-1.13,1.09c.48.75.73,1.71.68,2.45-.17.2-.62.53-.57.75s.2.73.23.97l.2,1.68.13,1.09,6.12-.02-.35-3.59-.43-4.33c-.1-.99-.39-2.13-.35-3.03.04-1.14,0-1.97-.23-3.11-.17-.87-.14-1.96-.25-2.88l-.68-5.85c-.06-.5-.41-1.1-.64-1.4.15-.34.37-.97.37-1.39,0-.34-.67-.83-.84-1.12-.34-.55-.51-.97-1.43-1.03l1.02-1.89c.37-.67-.19-1.91-.22-3.29,0-.12-.33-.04-.4.05l-.27.31c-.71.48-1.24,1-1.29,1.87l-.03.6c0,.11.32.19.37.1l.24-.44.37-.69c.07-.13.6.11.45.17-.08.99-.16,1.73-.43,2.44l-.5-.79c-.07-.1-.4-.09-.63-.06l.09,3.03.03,2.49v.5c0,.09.4-.07.39-.17l-.09-.57,1.46-.42-.72,2.58c.5.99.71,1.78-.32,2.53l1.35.48-1.4.35.31,1.33c.63.04.69.09.21.24l-.97.12c-.03.58-.21,1.14-.19,1.45l.12,1.75c.21.1,1.02.31.92.55l-.36.87-.41-1.3c-1.21,1.06.56,2.11-.18,3.31ZM163.58,283.4c-.02.18.54.6.56.45l.07-.54.42-3.78c.25-2.21,1.17-4.33.41-6.64-.93.86-.69,2.09-.14,2.89-.23.61-.46,1.24-.53,1.75l-.51,3.65-.29,2.22Z"/>
    <path d="M418.81,7c-.29.25-.52.48-.59.35-.58-1.09,1.47-1.91,2.39-2.15.26-.03.02.77-.21.9l-1.6.89Z"/>
    <path d="M427.38,7.84c-.65.64-1.39.76-2.24.57l.93-1.33,1.31.76Z"/>
    <g>
      <g>
        <path d="M120.56.83l.38,1.07c.35.97.39,1.95.72,2.97l1.1,3.35c-2-1.12-1.11-5.43-2.34-6.44.02,2.07.32,4.26.89,6.26.12.41.87,1.08.85,1.58l-.05,1.78-.32-.44c-.07-.1-.34-.25-.44-.28.63,2.96.62,5.77.72,8.95.55-.77.27-1.7.35-2.81.12.11.41.78.46,1.03-.14,1.29,0,2.49.17,3.79l1.27,9.64c.43,3.29.88,6.5,1.52,9.75.25,1.27.7,2.23.37,3.65-.15.65.23,1.47.35,2.09l.92,4.7.64,7.51c.08.99.28,1.88.38,2.88s.47,2.13.62,3.05c.02.11.27,4.99,1.07,4.95.84-2.58.06-5.96,1.14-7.65l-.51-.3c-.11-.06-.62-1.51.08-2.95.08-.16.15-.66-.02-.71-.82-.22-.76.56-1.54.6-.45.03-.73-.7-.68-1.58,0-.17.28.03.54.19l.62.38c.14.08.36-.41.37-.57.06-1.22-1.15.27-1.38-.38.14-.85-.14-1.31-.22-1.89-.33-2.37-.74-4.56-1.09-6.89l-1-6.55-.6-2.76-.54-3.61-.71-4.99-.71-6.69-.42-3.45c-.14-1.11-.21-2.43-.29-3.5-.03-.43-.79-1.2-.4-1.55l.49.62c.1.12.48-.29.61-.43.73-.85-1.4-2.5-1.09-5.37l.24-2.18.7-.33c.15-.07-.04-.56-.08-.8,2.17-1.08,1.05-2.37,2.25-4.33l-.09-1.35h14.15c.2,1.98,1.04,2.63,1.64,4.81,2.46-.09,1.91-3.49,2.43-4.81h1.92l-.37,1.73-.76,4.56c-.24,1.47-.35,2.85-.82,4.31-.34,1.07-.35,2.39-.23,3.36l1.21.22.17-.58c.04-.14-.49-.04-.73-.05-.48-.67.5-1.17.96-1.75.39-.65.94-2.1.9-2.88l-.17-3.69c.36,0,1.2-.37,1.16-.69l-.28-2.16.51-.18-.36-2.22h.48l.28,1.69c.23,1.39.06,2.61-.17,4.12-.02.14-1.35,9.15-2.05,7.75.04.08.06.37.14.34l.58-.18c.28.88.07,2.06-.56,2.74.94.81.53,1.65.78,3.79.05.43.07.66.04.99l-.17,1.61c.34.29.68.57.8.78.15.25-.52.75-.71,1.01-.15.21-.17,2.83.52,2.83l-.04,1.51c0,.11-.4.37-.34.46l.43.6-.54,2.29.65.51c.14.11-.31.4-.53.57l.31.14c.1.05.3.21.21.27l-.62.37.77.22c.27.08-.71,3.57.32,6.06.2.47-.2,1.52-.07,2l.45,1.71c-.72-.21-1.04-.43-1.19-.24-.15.19-.36.8-.25.8.35-.11.67-.37.75-.25l.36.55c.27.41-1.71.49-2.21,1.63.33.16,1,.46.89.62l-.37.53-.4,1.2c.08.42.15,1,.03,1.47l-.67,2.48.85.23c.41.11-.57.96-.07,2.29-.07-.05-.92-.08-.83.12.07.17.56.55.45.67l-.53.63.53,1.1c-1.73,2.68.3,2.37-1.44,5.56l.49,1.13-.42.9c-.09.19.4.58.49.7-.13.32-.33.84-.25,1.12s.6.72.8.85c-.52.66-.66,1.43-.55,2.25l.27,2.06c.1.74.3,3.64-.91,3.67l-.31,1.84,1.7.4.5-.56c.13-.15-.18-.6-.24-.82l.54-2.29c.08-.36.38-.84.69-1.19-.12,1.47-.1,2.71-.46,4.03l-.45,1.67-.73,5.82c-.14,1.1-.56,1.7.27,2.75.25.31.93.69,1.21.56,0-1.02-.2-1.68.49-2.25l.59,1.27c-.83.77-.59,1.7-.72,2.63l-.47,3.35-.12.87c-.03.23.49.54.6.59l1.39-1.82c.28.28.48.4.4.49l-.61.67.98,2.8c.97-.66-.23-1.58.06-2.15,1.54-3.11-.47-1.77.93-3.26l-.58-.42c-.18-.13,0-.78.21-.88s.45-.04.96,0l-.6-1.2c-.2-.4-.22-1.34-.18-1.76l.16-1.59,1.56.77-.32,2.28,1.39.78.54-.22.06,1.55-1,1.09,1.12-.11.22,2.05c.4,3.66-.68,2.69-.09,5.59.64,3.11.81.79.55,3.08.69.81.75,1.77.8,2.91.07,1.54,1,2.6.81,4.46-.06.63.7,1.79.37,2.47l-.32.67c-.24.5.91.95.68,1.31l-.43.67c.32.44.78,1.2.8,1.68l.09,2.07c.01.36,0,.76-.09,1.11.6,1.21.77,2.73.02,3.95.43.48.73,1.18.43,1.8-.45.92-.06,1.69-.05,2.58,0,.54-.3,2.52.76,3.29l-.44.5c.5,1.72.27,3.56-.3,5.18l.76,2.47c.06.19-.21.72-.09.85,1.82,1.99-.36.66,1.55,2.01.07.04-.09.47-.23.43l-.69-.22c.57.85,1.73,1.7.87,2.67-.34.39-.8,1.17-.49,1.5l.58-.13c.13-.03.39.2.32.31s-.32.36-.45.41l-.44.16c-.09.04.13.15.31.29l.7.54c.16.12-.42.58-.53.74l-.33.5c-.09.14.48.45.54.61.25.71.07,1.96-.02,2.83l-1.03,10.22c-.07.66-.25,1.25-.69,1.87l-.42-1.71c-.04-.15.45-.5.35-.62l-.56-.61c-.45-1.12.26-3.48-.73-3.74l1.19-2.53-2.41-.88,1.05-1.29-2.94.08,1.4-.92c.08-.05-.14-.63-.21-.57l-.32.29-.41.37c-.1.09-.5-.05-.54-.18-.38-1.11.62-.19,1.03-1.51.11-.34-.19-.56-.57-.92-.25-.25-.58-.98-.68-1.34.34-.63.28-3.56-.45-2.67-.06.08-.26.32-.23.29.22.34.47.74.54.99.19.67-1.45,1.15-.93,1.57.28.23.65.96.45,1.2s-.66.41-1.29.7l1.28,1.27c.16.16-.15.86-.37.82s-.65-.13-1.01-.23c-.19-.05-.42.32-.48.53-.19.66,1.53.83.85,1.19-.17.09-.5.19-.65.17l-.66-.08c-.11-.01-.04.28-.02.38.16.12.68.48.56.62l-.74.87c-.11-.03.4.12.57.17.16.05.25-.65.39-.75l1.73-1.14v1.38c0,.31-.74.55-1.03.81-.44.38-1.47,1.2-1.86.42l-1.04-2.09c-.75.04-.96,1.03-.72,1.63l-.72.74c-.13,1.24.23,2.48,1.07,3.21.31-.09.74-.24.77-.09.03.18,0,.65-.15.59-1.92-.25-.69.31-2.41.72-.13.03.02.21.18.55l.04.84c0,.2-.67.23-1.04.27,0,.85.65,1.79,1.8,1.67l-.4.8c-.09.17.41.66.36.84l-.26,1.06c-.06.24.35.61.59.87-1.23,2.24.48.57-.26,4.11l1.03,1.75c1.17.17.4-2.27.48-2.34l.7-.55-.93-.42c.53-.41,1.08-.78,1.11-1.2.04-.57-.33-1.1-.47-1.56-.2-.67.05-1.29-.64-1.8.35-.23,1.44-.14,1.74.12-.5,3.66.98,4.28,1.05,7.38,1.21,1.3-.21,1.64,1.09,4.19.2.38-.05,1.1-.19,1.39.16.21.48.72.54,1.02l.4,1.96c.27,1.33.16,2.63-.39,3.87l.55,1.34c.05.13.52.13.81.09.44-3.68-.47-5.63-.31-9.2-2.39-3.31.43-3.15-.87-4.4-1.49-1.43.27-2.49.05-2.84l-.48-.77.8-.23.71.47.76-.21c.18-.05.42.69.24.73-.58.12-1.66.7-1.13,1.53.31,0,.66-.64.88-1.1.11.15,1.19.56,1.3.22.34-1.03.54-3.62.9-2.92.07.14.2.46.2.63v2.16c-.16.26-.55.7-.84,1.02,1.2.2,1.36.94,1.55,2.32l.95-1.2c-.15-.67-.44-1.68-.26-2.16l.55-1.53c.05-.13.16-.34.23-.44s.42.05.47.15.01.5-.07.61c-1.3,1.81,1.16,3.26,1.07,3.47l-.26.58c1.29,4.43.23,3.96.84,6.78.11.48-.58,1.31.15,1.98.96.89-.47.85.21,2.79.07.19-.3.56-.5.73.33.98.52,2,.5,3.09l.81,1.8c-.52.78-.33,1.34-.32,2.17l.04,2.24c0,.46-.34,1.13-.11,1.71.27.68-.03,1.4-.13,2.08s-.16,1.05-.58,1.83l.93.74-.32,1.17c.93.42,2.01,1.14,2.09,1.97l-.96,1.3,1.03.59c-.21.66-.49,1.3-.2,1.92.18.37.59.86,1.01.93-.31.81-.2,1.31.28,1.82.11.38.25,1.24.43,1.58,1.97,3.58-.62,5.11.2,7.75l.88.17c.24.05.2.79.2,1.05l-.04,1.6c-.02,1.07.43,2.38.65,3.47.08.42-.35,1.14.08,1.64l-.06,2.32-.14,4.1-.25,4.37c-.1,1.66-.26,3.34-.57,4.9.25.07.87.3.9.48l-.07,1.9c0,.09-.39.25-.41.16l-.15-.56-.11-.38c-.02-.08-.2.04-.27.1-.3,1.22-.6,2.33-.66,3.49l-.16,3.68-.84,5.57-.43,4.84c-.08.9-.33,2.51-.5,3.33-.03.19.42.56.66.7-.4.45-.9,1.2-.97,1.88l-.54,5.29-.51,3.45-.21,1.46-.66,6.15h-5.93s-.43-4.73-.43-4.73c-.39-4.3.4-8.23-.72-13.71-.19-.94.05-2.02-.07-2.91l-.81-6.19c-.13-.97-.32-1.89-.41-2.89-.06-.71-.35-.99-1.13-1.1l-.1-1.7-.29-4.09c-.07-1.02-.16-2.06-.48-3.02.98-2.12.09-5.64-.11-8.2-.03-.37.37-1.01.09-1.5-1.02-1.73-1.8-4.16-1.8-6.2.91.11,1.06.22,1.18.03.21-.34.19-1-.13-1.26l-1.09,1.21.34-1.89c-.2-3.6.7-.11-.2-4.77-.11-.55.14-1.65-.11-2.11-1.27-2.33.45-3.29-1.6-3.17l-.29-1.54c.7-.15.87-.22.41-.23-.56-.42-.69-.66-.72-1.22-.13-2.52-.3-4.87-.59-7.27l-.64-5.33c.38-.01.67,0,.61-.05l-.33-.33c-.21-.21-.62-.77-.62-1.13l-.02-1.98c1.15.62.39.41.62,1.9.02.13.55.2.56.07l.02-.67c.05-1.6,1.45-1.41-.29-4.7.13-.71.37-1.57.35-2.14l-.09-3.46v-1.18c.05-.06.33-.41.35-.56l.32-2.59c-.42-.61-.68-1.04-.47-1.89l-1.6-1.11,1.35-1.19-1.2-.26-.41-.11c-.11-.03.32-.41.35-.52.14-.45-.67-1.16-1.06-1.22.12.62.22,1.1.13,1.36-.11.31-1.08.7-1.16.38l-.58-4.33h.66c.12,0,.21-.52.17-.56l-.98.29-.12-2.6.53-.12c.1-.02.16-.35.07-.38l-.72-.24c-.19-.06.19-.59.28-.77l.37-.68c.07-.13-.3-.4-.48-.53-.14-.1.27-.62.43-.56l.64.22c.06-.58-1.05-.74-1.09-.61l-.27,1.03-.38-1.51c.39-.16.67-.24.78-.4s.03-.66-.03-.85l-.36-1.11c-.47-1.47,1.62-1.78.16-2.3l-.59,1.94c-.76-.84-.21-1.59-.36-2.32-.17-.84-.22-1.3.07-1.97.26-.6.61-1.42,1.06-1.59.16-.06.79.22.82.06l.17-.93c.04-.2-.63-.35-.81-.23-.36.24-.95.84-1.32,1.24-.46-5.31-1.68-3.4-1.14-7.03l.47-3.16.35-2.46c-.2-.18-.58-.48-.58-.65,0-.21.19-.55.15-.79l-.83-5.26c-.09-.59.53-1.08.63-1.42l.51-1.62c.08-.25.12-.86.29-1.09.15-.21.6.15,1.04.33.33.14.56-.82.29-1.12-.22-.25-.77-.53-1.06-.64-.06-.7-.25-1.31-.68-1.79l-.54-.61c-.15-.17-.75.58-.63.83.41.9.65,2.58.03,3.66-.21-.5-.29-1.01-.38-1.62-.06-.4-.54-1.2-.45-1.59l.34-1.5c.61-.16,1.33-1.15,1.15-1.77l-.76-.47.29-2.56c.01-.09-.1-.42-.15-.5-.55-1.01-.36,1.53-.94,2.53l-.07.67c-.44-.02-.88-.36-.79-.63l.43-1.29c.34-1.03.04-2.45-.02-3.59l-.07-1.46c.53-.38,1.07-.96,1.33-1.43-.25-.36-.3-.38-.22-.44.14-.1.54-.32.6-.2,1.07,2.14.72.58,1.02,1.17-.16-.31.24-.61-.73-1.66-.07-.08.1-.41.04-.5l-.23-.33-1.49,1.86c-.84-.66-.63-1.17-.67-2.56l-1.15,1.16.11-2.82c.02-.64-.21-1.39-.39-2.4-.03-.05-.25.13-.39.31-.6,1.42.95,2.53-.21,2.83-.25-1.44-.45-2.73-.44-3.98v-1.28c0-.39.02-.53.07-1.31.24.04.01,0-.44-.07l-.85-7.04-.55-3.99-.75-6.22c-.14-1.15-.28-2.36-.21-3.34.49-.17.49-.19.39-.22-.41-.98-.51-1.18-.69-1.92l.55.81-.4-4.8-.24-2.86c-.34-4.07-.38-.49,1.12-3.93l-.7-.04-.95-6.77c-.2-1.44-.43-2.67.03-4.19l-1.18.79c-.87.58.09,1.49.1,2.12l.08,3.1c.02.74-.05,1.95.27,2.52,1.38,2.48.72,4.32.72,4.32-.14.02-.55.04-.73.09-.88.24-.27,1.68-.23,2.32l.22,3.53c0,.13.15.45.19.53.06.12-.44.05-.59.05h-.66c-.15.02-.02.55.13.55l1.08.03.93,7.47c.06.46.23,3.72-.09,3.63l.62.17c.04,1.51.46,3.11.7,5.21l.43,3.67.43,3.6.41,4.03.58,4.5.37,2.93.78,6.7.31,2.7,2.1,17.02c.3,2.4.58,4.61,1.03,6.98.51,2.7.99.24.91,4.07l-.6.21c.66,3.35.54,4.32.96,7.86l4.25,36.19.9,7.31.52,5.33,2,15.62c.05.41.69.75,1.05,1.09l-.59.12c-.33.33-.23,1.47.06,1.9l1.06-.62c-.28.59-1.12,1.59-1.05,2.24l.9,7.79,4.08,34.76.68,5.2-.66.02-1.89-16.73-1.58-13.57-2.22-18.12-.3-2.33-.92-7.42c-.13-1.04-.36-2.04-.64-3.18-.43,2.31.61,4.6.59,7.93,0,.64.01.9.17,1.55.39,1.58.49,3.29.68,4.99l1.48,12.68.48,4.31,1.01,8,.98,9.05,1.19,10.07.3,2.88H-3.2S-3.22.83-3.22.83h123.77ZM121.33,17.82c.18-1.51.04-2.69-.13-3.96-.29-2.27-.55-4.41-1.02-6.6-.12,1.57-.34,2.97.02,4.45l.72,3.02c.26,1.1-.26,2.16.4,3.1ZM143.23,21.39c.95-.48.84-1.26.79-1.96l-.14-2.22c-.04-.65.31-1.48-.48-1.55-.03.74-.11,1.34-.25,2.01l-.57,2.7c-.07.34.35,1.17.65,1.02ZM121.31,25.8l1.03.98c.64-.81.2-1.75-.26-2.65l-.14-1.87-.75-2.24c-.26,1.45-.8,3.59-1.22,4.96-.06.21.12.83.2,1.07.04.13.27.03.45-.07.13-1.36.35-2.51.78-3.63v2.64c0,.1.53.43.61.48s-.16.17-.25.2l-.44.12ZM137.73,47.53c-1.03,1.22-1.25,2.67-.76,3.95.89-1.71.9-2.14.76-3.95ZM127.58,65.15c.44-1.72.08-3.33-.2-5.1l-1.43-9.19c-.86,1.05-.18,2.22-.03,3.27l1.07,7.41.59,3.61ZM138.35,57.48l.96-3.14c.05-.16-.36-.65-.52-.67s-.46.09-.53.23c-.33.63.45,1.53.21,1.65l-.82.43.7,1.5ZM135.04,61.9l.57-2.37c.41-1.71.7-3.36.93-5.11l.06-.47c.01-.1-.3-.24-.35-.15s-.17.34-.19.45l-.78,3.81c-.27,1.3-1.32,2.5-.25,3.84ZM122.49,76.89l-.4-.7c.67-1.03.82-2.08,1.01-3.34l.1-.67c.02-.12-.17-.27-.29-.29-.34,1.2-.59,2.23-.97,3.25l-.89,2.41,1.44-.65ZM134.78,76.31c.99-.64-.01-1.5-.06-2.08.03-.26.57-.79.43-1.01l-.59-.91c-.4.19-.32,4.68.22,4.01ZM116.07,83.29c-.11-.8-.08-1.55-.66-2.31,0,1.52.02,2.84.91,4.21l-.25-1.9ZM130.74,86.21l-1.08-1.25c-.28-.03-.58,0-.65-.15l-.29-.75s-.32.5-.43.67c-.47.73,1.4.49,1.31,1.14l-.16,1.09,1.3-.75ZM140.58,115.23c2.42.29.2-.25.48-2.18l.36-2.49c.18-1.26.35-2.43.77-3.68.13-.41.1-.86-.22-1.2-.44,1.69-.73,3.14-1.05,4.75l-1.98,9.98c1.12.06.71-3.54,1.64-5.17ZM136.86,107.89l-.83-2.1-.43,2.72,1.26-.62ZM151.1,116.39c.91-2.18.15-2.03.71-3.33-1.93-1.2.34-2.67-1.22-5.18-.93,1.16-.85,2.34-.16,3.52-.64,1.27-.19,2.65.74,3.5-1.64,1.88.02-.08-1.37,2.62-.06.11.4.27.51.22l.3-.15.5-1.18ZM140.31,110.76l-.14-2.22c-.09-.07-.65.4-.75.72-.08.23.1.71.25,1.06-.35.38-.79,1.15-.49,1.59.54-.27,1.12-.84,1.13-1.15ZM137.24,112.66l-.32-2.81c-.78-.03-.35,2.93-.36,2.93.22-.04.76-.14.68-.12ZM141.09,174.85c.08,0,.28-.18.4-.36-.78-3.78-.54-5.4-.9-8.68l-.56-5.04-.7-5.76-.67-4.84c-.21-1.5-.16-2.92-.76-4.3-.06.95,0,1.77.11,2.67l.33,2.64.67,5.41.51,4.2.61,4.99.47,5.28.5,3.79ZM144.47,177.31l.27-3.14c-1.19.49-.15,1.43-.54,2.09-.12.2-.56.56-.47.75s.73.51.74.3ZM148.73,178.62c.47.16,1.15-.68.93-1.05-.26-.44-1.03-1.14-1.45-.63-.28.34.07,1.53.51,1.68ZM150.6,181.91c.1.08-.29-.23-.43-.34-.33-.03-.97-.14-.94-.33l.13-.82c-.01-.13-.6-.26-.79-.14-.61.39-.95,1.83-.38,2.25.24.18.9.47.95.39.39-.65.46-.62,1.45-1.01ZM155.74,236.53c.27.35.05.75,0,1.2-.08.72.16,1.25-.68,1.84l.67,1.51,1.27-.18-.26,2.21c-.03.13-.42.59-.29.61.78.13,1.66-.24,1.7-.41.07-.27.1-.8.06-1.21l-.18-2.02c-.07-.73.05-1.54-.04-2.38l-.29-2.93c-.09-.94-.04-2.03.03-3.02l-1.23-.21,1.21-.31v-2.35c-.02-.96.12-1.87.2-2.75.04-.42-.07-1.13.1-1.53l-.17-.58c-.03-.1.13-.39.11-.5l-.25-2.07c-.14-1.22-.11-2.35-.1-3.53l.02-3.93-.1-5.5c-.03-1.56-.17-3.11-.41-4.64-.44-2.81-.19-5.61-.35-8.4l-.14-2.5c-.11-2.04-.88-4.07-.49-6.07.06-.09-.76-.24-.77-.07l-.26,3.45c-.2,2.69-.67,5.12-1.12,7.73-.3,1.77-.08,3.78-.53,5.55-.42,1.65-.85,3.16.11,4.83.15.26,0,1.02-.29,1.04l-.68.04c-.11,0,0,.5.03.38.39-.07.97-.09,1.08.12.09.18-.07.53-.1.82-.29,2.52.47,1.69-.48,3.69,1.11.7.07,3.16-.06,3.61l-.51,1.77,2.56,1.96-.37.49c-.06.09.22.35.31.48-1.33,1.78.68,2.87-.28,4.28-.12.17-.89.26-.86.45l.09.62-1.26.62,1.56.88-.04-1.22c.24.02.81.07.96.28s.2.81.19,1.12c-.1,1.92-1.13,1.61-1.63,3.94l1.25.03c-.07.53-.21.93-.03,1.04l.84.54c-.31,1.1-2.23-.63-2.06.57.12.9,1.41-.17,1.98.58ZM145.58,210.72c-.08-2.07-.28-4.06-.71-6.02-.04,2.19.21,4.04.71,6.02ZM152.05,210.57c-.1-.2-.61-.55-.72-.37l-.63,1.98c.56.12,1.59-1.14,1.34-1.61ZM152.82,222.55c-.21-.87-.42-1.1-.02-1.83l-.75-.44c-.17-.1-.65.36-.67.55l-.12,1.36c.3-.06.7-.22.84-.12l.73.48ZM152.36,229.33l-.45-2.07c-.03-.15-.18-.44-.25-.54-.05-.07-.29.07-.29.15s.01.33,0,.44l-.24,1.95c.28.14,1.32.16,1.23.07ZM166.34,238.95v-3.65c-.33.32-.55.78-.56,1.19l-.06,4.81c.66-.79.62-1.58.62-2.36ZM165.31,247.4c1.86.04.88-4.39.34-5.28-1.1.79-.77,1.84-.31,2.89l-.03,2.39ZM157.55,282.56c0,.16.68.15.69-.01l.05-.53c.01-.12-.06-.57.06-.55l.51.1c-.4-1.6-.2-2.86-.34-4.85l-.15-2.28c3.1-5.39.03-4.41,1.05-7.96l-1.03-1.43-.03-1.62c0-.32.46-.95.36-1.26-.09-.26-.51-.77-.52-1.05l-.04-1.74-.8,1.08c-.58-.26-1.42.23-1.54.75l1.28-.02c.2,0,.52.55.48.74l-.56,2.8c-.26,1.3.22,2.15,1.48,2.97-1.46.54-1.62,1.27-1.61,2.45l.02,2.16c0,.21.59.64.7.72l-.53,1.34c.44.81.55,1.54.51,2.38.08.36.14.53.14.71s-.56.67-.48.83l.5,1.01c.1.19-.34.68-.33.89l.13,2.34ZM161.33,280.38c.7-1.51.2-2.82-.78-3.93-.25,1.41-.07,2.77.78,3.93ZM158.76,286.44c.25-.2.6-.38.53-.51-.05-.1-.29-.43-.31-.54l-.38-1.56c-.05-.22-.54-.67-.71-.54-.62.49-.17,3.64,1.12,3.89.12.02.08-.35,0-.45l-.26-.29Z"/>
        <path class="cls-1" d="M121.31,25.8l.44-.12c.09-.03.34-.15.25-.2s-.6-.38-.6-.48v-2.64c-.44,1.12-.66,2.27-.79,3.63-.18.1-.41.2-.45.07-.08-.24-.26-.86-.2-1.07.42-1.37.96-3.51,1.22-4.96l.75,2.24.14,1.87c.47.9.9,1.84.26,2.65l-1.03-.98Z"/>
        <path class="cls-1" d="M127.58,65.15l-.59-3.61-1.07-7.41c-.15-1.05-.83-2.22.03-3.27l1.43,9.19c.27,1.77.63,3.38.2,5.1Z"/>
        <path class="cls-1" d="M121.33,17.82c-.66-.95-.14-2-.4-3.1l-.72-3.02c-.35-1.48-.13-2.87-.02-4.45.47,2.19.72,4.33,1.02,6.6.16,1.27.31,2.45.13,3.96Z"/>
        <path class="cls-1" d="M122.49,76.89l-1.44.65.89-2.41c.38-1.02.63-2.05.97-3.25.11.02.31.17.29.29l-.1.67c-.19,1.26-.34,2.31-1.01,3.34l.4.7Z"/>
        <path class="cls-1" d="M130.74,86.21l-1.3.75.16-1.09c.09-.65-1.77-.41-1.31-1.14.11-.17.43-.66.43-.67l.29.75c.06.16.36.13.65.15l1.08,1.25Z"/>
        <path class="cls-1" d="M116.07,83.29l.25,1.9c-.89-1.37-.91-2.68-.91-4.21.58.76.55,1.51.66,2.31Z"/>
      </g>
      <g>
        <g>
          <path class="cls-1" d="M246.82,184.73l-2.97-6.21-2.01-4.22-1.69-3.63-2.15-4.78c-.67-1.48-1.57-2.75-1.79-4.49.49.88.9,1.67,1.33,2.58l6.04,12.81,1.79,3.83c.45,1.35,1.66,2.36,1.45,4.09Z"/>
          <path class="cls-1" d="M260.83,213.86c.47.7.87,1.15.63,1.93l-2.85-5.59-1.77-3.92c-.38-.84-.71-1.81-1.09-2.56-.46-.91-.94-1.77-1.36-2.7l-1.73-3.93c1.29.54,2,3.94,3.39,6.18.31.5.47.81.68,1.29l3.51,7.74c.19.41.32,1.18.57,1.56Z"/>
          <path class="cls-1" d="M282.34,260.5l-3.06-6.47-4.07-8.82c-.31-.67-1.18-1.27-.36-2.14l2,4.41,5.06,10.74c.33.7,1.3,1.26.43,2.27Z"/>
          <path class="cls-1" d="M271.14,235.47c.53.74.96,1.57.96,2.57-1.6-2.38-2.84-4.87-3.56-7.81,1.23,1.62,1.8,3.42,2.59,5.24Z"/>
          <path class="cls-1" d="M285.74,267.37s-2.85-4.88-1.62-4.54l2.87,6.28c-1.16,0-.86-1.04-1.25-1.73Z"/>
          <path class="cls-1" d="M290.48,276.56c-1.34-.16-1.04-1.53-1.59-2.34-.38-.56-.91-1.1-.4-1.87.91,1.33,1.56,2.63,1.99,4.2Z"/>
          <path class="cls-1" d="M252.42,196.22c-1.09-1.33-2-2.96-2.17-4.92,1,1.56,1.61,3.08,2.17,4.92Z"/>
          <g>
            <path d="M161.09.83l1.15,2.68,2.85,6.08,1.69,3.57,2.49,5.37,4.05,8.59c0,.06.18-.21.28-.39l-7.79-16.93-3.33-7.42.06-1.55h3.36c1.32,1.95,2.54,3.96,3.8,6.07l2.26,3.77c2.12,3.54,4.04,6.98,5.78,10.77l-.57.09-1.48.12c-.35,2.12-.9.49-1.11,2.64l-.29,2.94c-.11,1.14.17,1.88.68,2.88.6,1.19,1.05,2.47,1.57,3.7.31.19.44.31.5.19s.28-.53.29-.63l.16-2.19.44-3.87c.1-.89.21-1.61,1.31-2.18l5.09,13.57-.58-.17c-1.89-.55,2.08,1.06,1.28,2.49l-1.96-1.05c-.53-.29-1.14-.91-1.68-1.36l-1.47-.17c-.79-.92-1.61-1.6-2.1-3.02l5.53,3.04c-1.98-1.69-4.05-2.86-6.24-4.07l.13.55c.71,2.14,1.81,3.97,2.7,6.07l1.99,4.68,2.54,5.88c.8,1.85,1.43,2.77,2.36,4.87.72,1.63,1.43,3.12,2.29,4.54-.22-1.47-.84-2.47-1.3-3.67-.37-.97-.77-1.87-1.21-2.82l-4.66-9.98-1.21-2.5c.15-.41,1-1.05,1.31-.88,1.35,1.1,2.91,1.96,4.34,2.75.69,1.05,1.28,2.36,1.81,3.54l8.04,18.08c2.51,5.65,5.22,10.94,7.99,16.45,2.08,4.13,3.97,8.1,5.57,12.44,1.34,3.63,3.04,7.02,4.1,10.74,1.23,4.34,2.96,8.06,4.92,12.13,3.35,6.99,5.97,14.21,8.34,21.59.81,2.53,1.45,4.83,2.41,7.28.85,2.18-.7,3.19-.29,5.1l1.9.9-.77.35c-.15.07-.15,1.46-.89,1.31-.24-.05-.77-.26-.92-.33l-.68.67c-.14.14-.7-.1-.78-.28-.44-.97,1.08-1.23.86-2.16l-2.75,2.81c-1.05,1.07-3.88,2.45-3.1,1.74l.34-.31c1.6-1.46,3.42-3.33,4.84-4.83.14-.15.12-.64,0-.74s-.37.12-.55.32c-1.53,1.71-2.98,3.6-4.88,4.93-2.95,2.06-6.07,3.76-9.41,4.95l-2.11.75c-.09.11-.36.44-.29.36.04-.05-.33-.31-.4-.3l-3.04.53c-.46.28-.52.36-.11.26l1.09.09c-.15.96.35,2.5.74,3.45.14.3.25.53.05.11l-1.49-.03-.59-.03c-.11,0-.1.25-.06.38l.21.63-.4-.16-.15-.71c-.12-.08-.27.14-.29.41.77,2.06,1.52,3.76,2.54,5.51l2.59-.38-2.16-4.77c0-.51.22-.15.39.17l2.3,4.85c.19-.55.15-.82.09-1.24l.32.76c.06.15.63.25.59.09-.39-1.51-1.71-3.1-1.64-4.53l2.08,4.59,1.25-.39-1.94-4.2c.31-.13.37-.04.44.23l1.76,3.82.65-.06c.07,0,.28.1.35.13.06.03-.07.21-.13.27l-2.42.5c-.1-.03-.35-.27-.42-.2l-.34.37-.36.39c-.26.29,1.39,1.12.7,2.81,3.52-.09,6.68-1.13,9.66-2.6,1.02-.5,1.87-.9,3-1.31l-1.59,1.34c-.11.09-.31.33-.39.43s.32.36.35.32c.24-.19.38-.34.39-.24l.08.47c.41,2.4.58,1.62.15,3.19.91.05-.25,4.02.9,1.2l.27-.67c.05-.12.3.2.36.32l.86,1.59,1.99,3.84c.97,1.87-.34.6.89,2.08.07.08-.13.13-.31.16l-.44.08,1.36,1.25c-.01.31-.11.95.11,1.11,1.18.84.58,1.26.96,1.43.46.21-.98-.15-.82-.07l-1.02-.48.56,1.64c2.45.23,2.16,1.23,2.28,1.42l.64,1.06c.52.86.73,1.84.8,2.78,1.7,1.51.14,1.74.9,1.55l.51-.13,1.13,1.07c-.52.58-.73,1.52-.59,2.11.34.14.64.27.82.38.15.09-.06.67.08.77.39.31,1.36,1.03,1.38,1.49-.06.32-.25,1.13,0,1.15l.87.09.34,1.62c.26.56.37.96.41,1.6l.83.56,1.1,1.7c.12,1.31.15,2.76.97,3.69.39-.07.88-.13.92.06.71,3.3,1.68,2.99,1.75,5.09l1.44,1.14-.74.07c-.15.01-.29.51-.36.7-.21.6,1.33-.43,1.34.23,0,.54-.76,1.63.04,1.91.45.15,1.38.34,1.39.71-.07,1.52.13,1.84.63,2.8l1.26,2.42c-.07.15-.28.44-.17.52l.47.35c-.11.33-.32.63-.22.82.12.23.49.64.73.83,2.04,1.62.02,1.47,1.96,2.48.1.05-.32.35-.36.46l-.15.44c-.03.1.38.14.49.15l.33-.68,1.63,2.13c2.73-1.25,4.98-2.83,6.81-5.17.57-.73,1.39-2.51,1.27-2.55l-.65-.23-.88-1.02c-.1-.1-.56-.24-.46-.33.08-.07.22-.4.2-.49l-.18-1.21c-.18-1.25-1.38-1.49-1.21-1.89l.33-.79-1.33-1.94c-.27-.69-.58-1.19-.92-1.74s-.22-1.95-.61-2.4l-.98-.03c-.78-.02,0-2.56-1.03-3.17-.71-.43-.94-.66-1.15-1.55s-.76-1.77-1.14-2.67l-.71-1.66c-.33-.58-1.08-.87-.94-1.72.16-1.01-1.45-1.18-1.11-1.46l.59-.49c-.68-.98-1.57-2.16-2.03-3.31-.23-.57-.64-1.09-.86-1.54-.69-1.39-1.29-2.71-2.32-3.82v-1.08c0-.1-.17-.53-.2-.64-.02-.07-.12.31-.17.36l-.34.41c-.63-.76-.7-2.1-1.07-2.98-1.07-2.55-1.35-2.32-2.34-4.81l-.57-1.44c-.08-.21.15-.79-.02-.94l-.72-.63c-.29-3.07-2.33-2.01-1.43-4.07.06-.15-.22-.6-.37-.56-.9.25.03.71-.78.12.47-.63-.42-1.22-.7-1.62-.17-1.19-.6-2.56-1.78-3.41,1.98-.47-.71-1.15-.87-2.01-.09-.48.3-1.24.63-1.55-.58-.34-1.34-.86-2-1.38-.18-.28-.25-.31-.18-.39l.3-.38c.19-.24-.07-1.18-.37-1.26s-.68-.03-1.27,0c.57-.97,1.28-1.82,2.14-2.19-.26-.18-.81-.42-.78-.66l.13-1.02c.27-.48.07-.18-.2.25-.27.11-1.13.3-1.24.02s.09-.86.22-1.17l.21-.5c.03-.07-.14-.05-.18,0-.05.06-.2.48-.27.54l-4.02,3.38c-.47.1-.27-.29-.04-.59-.16-1.31,2.44-1.86,4-4.74.54-.99.25-3.81,2.03-4.86,1.96,1.74-.91,4.62.22,5.22l1.34.71c-.38.33-.67.53-.59.7l.28.56-.67.56-.02,1.26c-.65.16-.2.2.3.26.64-.39,1.11-.87,1.43-1.45l.86-1.56c-.06,0,.29-.02.49-.03l2.1,4.01c1.72,3.29,3.47,6.41,5.65,9.43.81,1.12,1.58,2.32,2.23,3.48-1,1.72.71,1.54.92,2.94.77,5.38-1.63,2.6,2.64,10.49.22-.12.64-.59.64-.78l-.03-4.76c2.85,4.93,5,10.69,8.12,15.62l7.53,11.89c1.39,2.2,2.47,4.39,3.59,6.74l4.96,10.38,3.47,7.81,4.59,10.33c3,6.76,5.83,13.41,7.94,20.51l3.03,10.2c.92,3.09,2.1,5.99,3.57,8.85.06.11.42.44.3.46l-.72.14c-.27.05-.86-.35-.98-.61l-2.61-5.57-1.22-2.43-1.17-2.43-.2-.41c-.04-.07-.23-.07-.23.01s.03.56.07.65l1.15,2.58,3.51,7.48c.08.16.28.46.17.51s-.48.2-.65.2l-3.59-.06c-.65-.97-.85-1.85-1.14-2.77-2.11-3.69-1.91-2.38-3.46-6.22-.21-.53-1.29-1.23-.95-2.12l-1.05-.84s.07-1.97-.55-3.33c-.31-.68-1.37-1.53-1.51-2.23-.2-1.02-.45-1.63-1.15-2.37-1.5-1.58.88-.83-2.15-3.8-.08-1.49-1.01-2.88-1.73-4.19l-1.46-2.67c-.29-.52-.71-1.17-.92-1.66l-.73-1.71-1.07-2.49-.79-1.9c-.57-1.37-1.09-2.61-1.91-3.83-1.32-1.96-1.17-.95-1.4-2.51-.45-.82-.95-1.73-1.38-2.64l-1.28-2.75-1.94-3.72c2.1-3.25,3.47-7.04,2.38-10.76-.39-1.35-.92-2.57-1.44-3.84l-.15-.37c-.03-.07-.28.05-.27.13l.09.46c.62,3.07-.16,6.28-2.1,8.93-4.64,6.32-12.35,9.83-20.19,9.5-2.13-.09-4.51-.87-6.31-1.55-.14-.05-.61-.02-.55.07l.25.42c.28.47.57,1.1.76,1.51,1.85.8-.24,1.02,1.64,1.2l-.36.26-.32.23c-.45.32,2.88,2.01,4.34,2.27,5.2.93,10-.07,14.96-2.37-.12.73-.38,1.23-.67,1.85l1.15,2.54c.24.11.71.18.75.37l.19.93.54,2.11c1.14,4.42.58,1.87,1.32,3.09l1.19,1.95c1.17.42,1.6,1.71,1.29,2.78.53.48.87,1,1.02,1.6l.67,2.62c.16.62.8,1.8,1.15,2.35l1.15,1.77c2.04,3.15,1.29,3.72,3.01,5.81.49.59.56,1.09.46,1.75.34.47,1.03,1.29,1.28,1.76l.91,1.78c.65,1.29,2.58,6.05,3.07,7.56.18.57.87,1.27,1.15,1.83.25.49.63,1.14.87,1.49l.27.69c.1.25-.03,1.09-.31,1.09h-16.94c-4.01-7.73-7.68-15.31-12.24-22.6l-3.44-5.51c-2.17-3.47-4.2-6.81-6.06-10.46-1.25-2.46-2.59-4.8-3.67-7.35-1.93-4.59-4.14-8.76-7.08-12.8-4.24-5.82-7.32-12.18-9.64-18.98l-1.86-5.45c-.39-1.13-1.65-2.2-2.06-3.58-.25-.82-1.2-1.6-1.64-2.33l-1.88-3.13c1.52-.36,2.85-.66,4.01-1.49.08-1.02-.23-2.34-.83-3.19l-4.65-6.6-3.76-6.34c-.9-1.52-1.87-3.04-3.18-4.18-1.61-1.4-2.6-3-3.72-4.75-2.18-3.42-3.63-6.93-4.82-10.81l-1.57-5.13c-1.91-6.25-4.96-11.87-9.27-16.78-3.82-.36-9.65-.59-13.39-.45s-7.12.1-10.6-.69l-.04-1.28,2.31.11c.53.03,1.41-.18,2.12-.33h-1.8c-.9-.02-2.04-.16-2.88-.26l-.64-6.81-2.52-24.82c.82,2.72,1.29,5.22,2.12,7.81l2.57,7.98c.95,2.94,1.33,5.91,1.27,8.99.33.27,1.09.65,1.49.66l11.16.08,4.29.03c.33-.65.27-1.51.06-2.21-1.11-3.64-2.94-6.84-5.27-9.83s-4.22-4.89-4.68-8.84l-.36,1.06c-2.5-4.24-5.15-8.37-7.09-12.94-1.26-2.95-2.24-5.77-4.53-8.29-.35,4.32-.45,8.48-1.06,12.83-.88-4.15-1.09-7.87-1.5-11.83l-1.49-14.6-.46-4.35-.5-4.79-.7-8.3,2.07-.06c.16,0,.55-.67.39-.69-1.29-.13-1.4.7-2.27.09-.77-.54-.56-2.34-.3-2.35l.62-.03c.12,0,.38-.14.48-.2s-.06-.45-.17-.43l-.47.1c-1.58.35-.94-2-1.14-3.65l-.83-7.03-1.93-18.7c-.05-.47.71-1.16,1.24-1.29.61.78.8,1.71.89,2.76l1.32.44c.18.85.2,1.69.13,2.82l1.02.2,1.2,1.7.32,1.66c.37-.24.61-.49.67-.37s.19.55.2.74c.08,3.15,2.43,2.39.22,4.26.12.23.33.51.42.39l.45-.66,1,2.16.81-.02,1.07.49v1.77s-.82-.7-.82-.7c-.18,1.38,1.19,2.04,2.31,2.38-.33.33-.78.87-.56,1.1s.44.48.46.63-.22.35-.35.28l-.65-.32c.04.32.22.94.45,1.23.2.25.77.19,1.39.24-.26.29-.88.62-1.14.68.71.67.14,2.2.52,2.1l.4-.11c.41-.11-.54-1.85.34-1.74.31,1.28,1.76,1.55,1.23,1.78-1.08.47-.06-.31-1.03-.67-.14-.05-.43.25-.36.38s.3.4.43.47l2.42,1.23-.47.99.5,2.51c.29.41.5.77.41,1.43l.94.37.27-.27c.05-.05.32.03.29.1l-.17.55c2.53,1.59-1.04,3.3,1.72,3.04-.18,1.09-.29,2.17.16,3.11l.28-1.27c-.1-.61-.23-1.24.32-1.51l.45,1.76c.08.36-.26,1.18-.34,1.49l-.69.23c-.11.04.07.47.19.46l.52-.06,1.33.41c.36,1,.84,1.79,1.55,2.67l-1.35.45.78.92c.2-.76.36-.95.5-.29.53,2.19,2.39,2.23,1.76,2.68l-.28.2c1.01.38,1.33,1.32,1,2.27l.8,1.16-.93.14c.07.18.6.9.86.71.33-.24.88-.33,1.04-.07.48.82-.96.11.16,2.38.29.03.59-.01.65.13l.4.86c2.2-.24,6.91-4.3,8.56-6.02.51-.53.49-1.28-.06-1.8l.24-.82-.82.14c-.2.03-.25-.69-.19-.89l.22-.78c.05-.17-.55-.39-.58-.56l-.37-1.72c-1.06-.6-1.64-2.8-1.95-3.91l-.23-.85c-.1-.37,1.57-1.12.88-1.7l-.91,1.33-1.92-1.51,1.15-.08-.14-1.73c-.02-.28-.11-.67-.19-.88s-.76.04-.96.14l-.53.26c-.08.04-.3-.35-.22-.4l.46-.26c.09-.05.28-.32.21-.41-.05-.06-.19-.24-.25-.33-2.8-.62-.41-2.7-2.55-3.66-.01-.58,0-1.38-.14-1.88s-.71-.73-1.33-1.1l1.35-.34c-.43-.59-.96-.5-1.53-.3.3-1.24-.33-2.35-.73-3.46-.3-.83-.59-1.45-1.63-1.7-.46-.11-.69-1.22-.55-1.67.17-.57.65-1.01,1.28-1.67l-.97-.02c-.18,0-.3.34-.54.66l-.27-1.12c-.06-.24.62-.48.73-.52l-.96-1.16c.15-.15-.5.12-.43.27l.29.58c.08.16.04.53-.07.67s-.53-.14-.64-.33l-.75-1.44.77-.11c1.01-.14-.62-3.21-1.72-3.77-.02.03.26-.35.47-.63-.5-.1-1.2-.33-1.42-.79-.74-1.51,1.25-1.07-1.5-3.72.11-.67-.12-1.51-.37-2.43-.2-.77-.15-1.57-.67-2.33l-.29.75c-.54-.88-.82-1.86-.38-2.92l-.74-1.15c-.1-.16-.24-.43-.36-.42l-.66.09.67-.96c-.06-.03-.61-.31-.58-.51l.09-.71c-.16-.07-.76-.11-.78-.29l-.13-.95-1.01-.07c.27-.27.5-.46.65-.41l.96.31c-.26-.59-.49-1.12-.77-1.61l-.68-1.19c-.12-.21-.19-.89-.39-.87l-.97.11.35-.89c.08-.2-.18-.59-.37-.92l.77-.74-2.34.05.66-.76-.97-.26c-.19-.05-.2-.56-.22-.8l.79.5c.15.09.42-.29.56-.49-1.21-.45-1.81-1.31-1.54-2.67.32-1.62-1.68-1.3-.66-3.3h4.32ZM175.16,21.76c-1.36.15-1.82,1.59-1.29,2.56.22-.95.7-1.81,1.29-2.56ZM157.88,38.89c.05-.11-.49-.51-.51-.39l-.1.47-.11.54c-.39,1.87-.16-1.3-.74-1.45-.29-.07-1.07.09-1.08.31l1,.5c.56.28-.35,1.45.31,1.62.15.04.59-.11.66-.26l.57-1.36ZM155.1,59.28c-.92-.32-4.12-.42-2.63.53.87-.11,1.9-.25,2.63-.53ZM222.08,153.72c1.44-1.22,1.75-1.58,1.97-3.54.02-.22-.43-.69-.66-.87l.14,1.43c-.91-.52-.48-1.34-.41-2.17l-1.39-1.52c.01-.42.37-1.34.55-1.8l-1.39.68.47-1.14-.42-.55c-.09-.11.16-.31.39-.61l-1.67-1.96.88-.03c.09,0,.08-.15.12-.42l-1.86-.53-.32-2.29c-.46-.12-1.09-.57-1.17-.96.72-.03.65-.6.61-.98-.08-.77-1.47-.85-.85-1.33l.36-.28c.07-.05.19-.25.25-.32.2-.26-.87.09-.85-.13l.08-.61c.45-3.24-1.43.68-3.07-3.96l.69.57-.49-1.78-.8,1.18v-2.3c-1.09-.87-1.2-1.98-.64-3.26-.43.34-.73.68-1,1-.03.02-.49-.22-.41-.33l.36-.52c.06-.09.4-.42.3-.42s-.55-.09-.61-.17l-.86-1.19c-.03-.53-.17-.87-.39-1.11l.35-.69c.08-.16-.45-.38-.67-.48v-1.02s-.61.44-.61.44c-.09.06-.41-.24-.35-.33l.28-.44c.06-.09.16-.36.19-.46s-.15-.41-.23-.35l-.52.37-.24-.72c-.05-.15.69-.3.6-.43l-.6-.82-.54.91-.11-2.17c-.55-.41-.93-.86-1.24-1.45-1.08-2.1.19-2.56-.59-2.72l-.63-.13-.69-1.63c-.03-.25,0-.5-.13-.55l-.67-.28c.64-1.22-.5-1.96-1.25-2.66l-.85-1.92-.07-1.09c-.04-.65-.11-1.41-.82-1.7-.82-.34-1.09-1.19-.73-1.9.11-.22.13-.94-.09-.99l-.94-.25c-.59-.16-.28-1.72-1.27-4.2-.11-.27-.83-.57-.76-.84l.27-1.05c.03-.1-.29-.38-.36-.47-.04-.05,0,.23,0,.3s-.02.18-.1.63l-.94-1.51c-.19-.02-.51-.05-.65-.15-.1-.07-.07-.42.04-.48l.67-.34c.23-.67-.65-1.8-1.51-2.14l-.88-2.18c-.06-.16.05-.82-.11-.88-.51-.19-1.51-.82-1.7-1.41-.05-.16.16-.62.31-.62h.53s-.99-1.05-.99-1.05l-.13,1.01c-.23-.18-.64-.68-.53-.9l.48-.9-.83-1.19c-.58-.83-1.44-1.71-1.49-2.74,2.06-2.13,3.22-4.46,4.26-7.19l1.31,2.99,2.14,4.56,2.65,5.74,1.49,3.26,1.19,2.43,1.25,2.61,1.67,3.62,3.38,7.17c.13-1.34-.73-2.27-1.21-3.34l-2.31-5.11-3.18-6.87-6.05-13.1c-.72-1.57-1.59-3.01-2.17-4.61-.39-1.08.09-2.61-.43-3.69l-2.92-6.13c.34,2.51.32,4.61-.74,6.76-1.41,2.84-3.48,5.07-5.9,7.11-6.04,5.09-14.1,8.85-22.15,8.17-2.58-.22-4.7-.89-6.99-2.58l2.21,4.48c1.06,2.16,3.39,3.45,5.75,3.89,6.87,1.26,13.3-.97,19.31-4.16l-.14,2.08c-.18,0-.58-.11-.55-.27l.18-.98s-.48.15-.74.23c-.16.05,0,.56.06.72l.64,1.74c.8.31,1.36.89,1.79,1.62l-1.32-.13c.16.54.76.7,1.42.62l.32,2.68.65.18c.13.03-.15.67-.08.79l1.22,2.18.14,1.62c.28-.2.72-.56.76-.38l.17.8.13.6c.03.13.36.08.4-.04l.22-.79c.14.43.12.96.04,1.49.68,2.5,1.12,1.01,1.13,3.29l.76.22c-.13.48-.25,1.58-.05,2.01.17.39.88.69,1.26.72-.62-.88-.93-1.48-.87-2.19.35.7,2.29,2.29,1.62,2.6l-.86.39c.3,1.03.74,1.97,1.48,2.58,1.5,1.22-.94,1.86.36,2.82l.4-1.26c2.22,2.29.42,3,2.42,3.94.21.1.65.56.54.75l-.4.67.68,1.47c.36.07.54.06.63.19.4.57-1.42,2.82.87,3.54-.27-.86-.43-1.38-.19-1.9.68.51.52,1.15.34,1.86l1.25,1.23c-.42.02-.6.01-.69-.09l-.53-.61c.04.53.13,1.09.26,1.63.37-.33.97-.73,1.14-.57l.68.68-.99,1.27c.31.2.47.32.54.27l.47-.31,1.22,1.98c-.27.17-.64.32-.59.46l.2.62c.04.14-.08.77.05.7l.76-.35.9,1.17-.36.54c-.05.08.24.16.34.15l.53-.05c.01.7.26,1.25.75,1.82-.13.29-.59,1.08-.54,1.45s.48.94.7,1.3l-.07-2.3c2.22,2.41,2.03,2.34,2.08,5.14,1.65.48.54,2.47,1.2,2.58l.54.09c-.31.76.52,2.14.68,2.02l.37-.3.43,1.59-.43.3c-.1.07,0,.38.12.41l.49.12.49.12c.32.08-.58,1,.34,1.69.19.14.51-.05,1.03-.14l-.71,1.79,1.3,1.22-.87-.04,1.59,2.04c-.2-.4-.52-1.33-.38-1.8.05-.17.64.07.82.22.11.1.07.24-.09.61.15,1.25.91,2.56,1.76,3.54-.08.34-.3.99-.14,1.2l.51.69c-.08.15-.45.54-.34.66l.42.48c.4.45.92.81,1.54,1.17l-.55.8c-.04.06.73,1.1,1.08,1.14.2.02.61-.19.81-.31l1.99-1.23c.4-.25,1.01-.67,1.35-.96l1.8-1.52ZM155.41,66.1c.98.07,2.17.06,3.02-.04.08-.45.07-1.24,0-1.5l-.58.91c-.08.13-.51-.31-.66-.27-.21.06-.59.41-.77.31l-.79-.4c-.24-.12-.5.97-.21.99ZM160.34,73.52c.48-.79,1.59-.62,2.48-.57-.85-.84-2.48-.81-3.25.29.02.68.14,1.48.38,2.27l.39-1.99ZM169.87,93.22l3.58-.12c.2,0,.42-.05.55-.09s.05-.52-.09-.53c-.87-.08-1.44.19-2.86.31l-2.31.19c.27.42.56.27,1.13.25ZM213.35,112.63c-.65-1.86-1.37-3.54-2.24-5.23l-1.76-3.42c.08,1.66,1.09,2.7,1.64,3.99.7,1.64,1.36,3.21,2.36,4.66ZM225.59,139.09c-.32-1.7-1.02-2.61-1.52-3.84l-1.25-2.79-1.87-3.9-1.71-3.81-3.87-7.91c.15,1.24.74,2.24,1.24,3.33l2.35,5.07,2.22,4.94,2.68,5.72c.56,1.19.92,2.4,1.74,3.19ZM192.99,132.66c-.04-.11-.22-.6-.09-.24-1.07,1-1.98.72-3.48.86,1.3.94,3.79-.03,3.57-.61ZM171.17,134.4v.24h5.88v-.24h-5.88ZM246.82,184.73c.21-1.73-1-2.75-1.45-4.09l-1.79-3.83-6.04-12.81c-.43-.91-.85-1.71-1.33-2.58.22,1.74,1.12,3,1.79,4.49l2.15,4.78,1.69,3.63,2.01,4.22,2.97,6.21ZM202.78,165.49l-1.2-3.05c-.27-.68-2.04-.86-2.53-.59,3.41,1.31,1.26,4.02,3.73,3.64ZM201.28,169.92l-1.54-3.87c-.32-.81-.25-2.01-1.53-1.78l.59.59c.07.07-.04.26-.13.48l1.33,3.04c.29.67.61,1.26,1.3,1.54ZM252.42,196.22c-.56-1.84-1.18-3.36-2.17-4.92.17,1.96,1.09,3.59,2.17,4.92ZM260.83,213.86c-.26-.38-.39-1.15-.57-1.56l-3.51-7.74c-.22-.48-.37-.79-.68-1.29-1.39-2.24-2.11-5.64-3.39-6.18l1.73,3.93c.41.93.9,1.79,1.36,2.7.38.75.71,1.73,1.09,2.56l1.77,3.92,2.85,5.59c.24-.78-.16-1.22-.63-1.93ZM271.14,235.47c-.79-1.82-1.37-3.62-2.59-5.24.71,2.94,1.96,5.43,3.56,7.81,0-1-.44-1.83-.96-2.57ZM282.34,260.5c.87-1.01-.1-1.57-.43-2.27l-5.06-10.74-2-4.41c-.82.86.05,1.47.36,2.14l4.07,8.82,3.06,6.47ZM285.74,267.37c.4.69.1,1.73,1.25,1.73l-2.87-6.28c-1.24-.33,1.61,4.53,1.62,4.54ZM290.48,276.56c-.43-1.58-1.07-2.88-1.99-4.2-.51.77.02,1.31.4,1.87.55.81.25,2.17,1.59,2.34Z"/>
            <path class="cls-1" d="M162.53.83l-.06,1.55,3.33,7.42,7.79,16.93c-.1.18-.28.45-.28.39l-4.05-8.59-2.49-5.37-1.69-3.57-2.85-6.08-1.15-2.68h1.44Z"/>
            <path d="M230.63,155.16c-.68.45-1.77,0-2.11-.56.24-.36.92-.71,1.22-.59.33.13.81.68.89,1.14Z"/>
            <path d="M234.34,159.63c-.7-.79-.01-1.1-.29-1.26l-.56-.33.95-.58c.25.32.6,1.32.59,1.79,0,.15-.59.49-.69.37Z"/>
            <path d="M148.2,20.57l.09.49c.03.16-.25.37-.52.59l-.19-1.7c.06-.12.73-.28.9-.17.21.14.32.38.6.89l-.88-.1Z"/>
            <path class="cls-1" d="M222.08,153.72l-1.8,1.52c-.34.29-.95.71-1.35.96l-1.99,1.23c-.19.12-.61.33-.81.31-.35-.04-1.12-1.08-1.08-1.14l.55-.8c-.62-.36-1.14-.73-1.54-1.17l-.42-.48c-.11-.12.27-.51.34-.66l-.51-.69c-.15-.21.06-.86.14-1.2-.85-.98-1.61-2.29-1.76-3.54.16-.37.2-.51.09-.61-.17-.15-.77-.39-.82-.22-.13.47.19,1.4.38,1.8l-1.59-2.04.87.04-1.3-1.22.71-1.79c-.52.09-.84.28-1.03.14-.92-.69-.02-1.61-.34-1.69l-.49-.12-.49-.12c-.12-.03-.22-.34-.12-.41l.43-.3-.43-1.59-.37.3c-.15.13-.98-1.25-.68-2.02l-.54-.09c-.66-.11.44-2.1-1.2-2.58-.04-2.8.14-2.73-2.08-5.14l.07,2.3c-.22-.35-.66-.93-.7-1.3s.42-1.16.54-1.45c-.5-.57-.74-1.12-.75-1.82l-.53.05c-.1,0-.39-.07-.34-.15l.36-.54-.9-1.17-.76.35c-.13.06,0-.57-.05-.7l-.2-.62c-.04-.13.32-.29.59-.46l-1.22-1.98-.47.31c-.08.05-.23-.07-.54-.27l.99-1.27-.68-.68c-.16-.16-.76.23-1.14.57-.13-.54-.22-1.1-.26-1.63l.53.61c.09.11.27.11.69.09l-1.25-1.23c.18-.71.34-1.35-.34-1.86-.24.53-.08,1.05.19,1.9-2.29-.71-.47-2.96-.87-3.54-.09-.13-.27-.12-.63-.19l-.68-1.47.4-.67c.11-.19-.33-.65-.54-.75-2-.94-.21-1.65-2.42-3.94l-.4,1.26c-1.3-.95,1.14-1.6-.36-2.82-.74-.61-1.18-1.55-1.48-2.58l.86-.39c.67-.31-1.27-1.9-1.62-2.6-.06.71.25,1.31.87,2.19-.38-.03-1.09-.33-1.26-.72-.2-.44-.07-1.53.05-2.01l-.76-.22c0-2.28-.45-.79-1.13-3.29.09-.53.1-1.06-.04-1.49l-.22.79c-.04.13-.37.17-.4.04l-.13-.6-.17-.8c-.04-.18-.48.18-.76.38l-.14-1.62-1.22-2.18c-.06-.11.21-.75.08-.79l-.65-.18-.32-2.68c-.66.09-1.26-.07-1.42-.62l1.32.13c-.42-.73-.98-1.31-1.79-1.62l-.64-1.74c-.06-.16-.22-.68-.06-.72.25-.08.78-.24.74-.23l-.18.98c-.03.16.37.27.55.27l.14-2.08c-6,3.19-12.44,5.42-19.31,4.16-2.36-.44-4.69-1.73-5.75-3.89l-2.21-4.48c2.29,1.69,4.41,2.36,6.99,2.58,8.05.68,16.11-3.08,22.15-8.17,2.43-2.05,4.5-4.27,5.9-7.11,1.07-2.15,1.08-4.26.74-6.76l2.92,6.13c.51,1.08.03,2.61.43,3.69.58,1.6,1.45,3.04,2.17,4.61l6.05,13.1,3.18,6.87,2.31,5.11c.49,1.08,1.34,2,1.21,3.34l-3.38-7.17-1.67-3.62-1.25-2.61-1.19-2.43-1.49-3.26-2.65-5.74-2.14-4.56-1.31-2.99c-1.03,2.73-2.2,5.06-4.26,7.19.05,1.03.9,1.91,1.49,2.74l.83,1.19-.48.9c-.12.22.29.72.53.9l.13-1.01.99,1.04h-.53c-.15.01-.36.47-.31.63.19.59,1.2,1.22,1.7,1.41.16.06.05.72.11.88l.88,2.18c.86.34,1.75,1.47,1.51,2.14l-.67.34c-.11.06-.14.41-.04.48.14.09.46.13.65.15l.94,1.51c.07-.46.09-.57.1-.63s-.04-.35,0-.3c.07.09.38.38.36.47l-.27,1.05c-.07.26.65.57.76.84.98,2.48.67,4.04,1.27,4.2l.94.25c.21.06.2.77.09.99-.36.7-.09,1.56.73,1.9.71.29.77,1.05.82,1.7l.07,1.09.85,1.92c.75.7,1.89,1.44,1.25,2.66l.67.28c.13.05.09.3.13.55l.69,1.63.63.13c.78.16-.5.61.59,2.72.31.6.69,1.05,1.24,1.45l.11,2.17.54-.91.6.82c.09.13-.64.28-.6.43l.24.72.52-.37c.09-.06.26.25.23.35s-.13.38-.19.46l-.28.44c-.06.09.26.39.35.33l.63-.44v1.02c.21.1.74.32.66.48l-.35.69c.22.24.36.59.39,1.11l.86,1.19c.06.08.51.17.61.17s-.24.33-.3.42l-.36.52c-.07.11.39.35.41.33.27-.32.57-.66,1-1-.56,1.28-.45,2.39.63,3.26v2.3s.81-1.18.81-1.18l.49,1.78-.69-.57c1.64,4.65,3.52.73,3.07,3.96l-.08.61c-.03.21,1.04-.14.85.13-.05.07-.18.26-.25.32l-.36.28c-.62.48.77.56.85,1.33.04.38.11.94-.61.98.09.39.72.85,1.17.96l.32,2.29,1.86.53c-.05.27-.03.42-.12.42l-.88.03,1.67,1.96c-.23.3-.48.5-.39.61l.42.55-.47,1.14,1.39-.68c-.18.46-.54,1.38-.55,1.8l1.39,1.52c-.08.83-.51,1.65.41,2.17l-.14-1.43c.24.18.69.65.66.87-.21,1.96-.53,2.32-1.97,3.54Z"/>
            <path class="cls-1" d="M225.59,139.09c-.82-.79-1.18-2-1.74-3.19l-2.68-5.72-2.22-4.94-2.35-5.07c-.5-1.08-1.09-2.09-1.24-3.33l3.87,7.91,1.71,3.81,1.87,3.9,1.25,2.79c.5,1.23,1.2,2.13,1.52,3.84Z"/>
            <path class="cls-1" d="M202.78,165.49c-2.47.38-.32-2.33-3.73-3.64.49-.26,2.26-.09,2.53.59l1.2,3.05Z"/>
            <path class="cls-1" d="M201.28,169.92c-.68-.29-1-.88-1.3-1.54l-1.33-3.04c.1-.21.21-.4.13-.48l-.59-.59c1.28-.23,1.21.97,1.53,1.78l1.54,3.87Z"/>
            <path class="cls-1" d="M213.35,112.63c-1-1.45-1.66-3.02-2.36-4.66-.55-1.29-1.56-2.33-1.64-3.99l1.76,3.42c.87,1.68,1.58,3.37,2.24,5.23Z"/>
            <path class="cls-1" d="M157.88,38.89l-.57,1.36c-.06.15-.51.3-.66.26-.66-.17.24-1.34-.31-1.62l-1-.5c0-.23.79-.39,1.08-.31.58.14.35,3.32.74,1.45l.11-.54.1-.47c.03-.13.56.27.51.39Z"/>
            <path class="cls-1" d="M155.41,66.1c-.29-.02-.02-1.11.21-.99l.79.4c.18.09.56-.25.77-.31.15-.05.58.39.66.27l.58-.91c.06.25.07,1.04,0,1.5-.84.1-2.03.12-3.02.04Z"/>
            <path class="cls-1" d="M160.34,73.52l-.39,1.99c-.24-.8-.36-1.59-.38-2.27.77-1.11,2.4-1.13,3.25-.29-.89-.04-2-.22-2.48.57Z"/>
            <path class="cls-1" d="M169.87,93.22c-.57.02-.86.17-1.13-.25l2.31-.19c1.41-.12,1.98-.39,2.86-.31.14.01.22.49.09.53s-.36.08-.55.09l-3.58.12Z"/>
            <path class="cls-1" d="M175.16,21.76c-.59.75-1.07,1.62-1.29,2.56-.53-.97-.07-2.42,1.29-2.56Z"/>
            <path class="cls-1" d="M155.1,59.28c-.73.28-1.76.41-2.63.53-1.5-.94,1.71-.85,2.63-.53Z"/>
            <path class="cls-1" d="M192.99,132.66c.22.59-2.28,1.55-3.57.61,1.51-.13,2.41.14,3.48-.86-.13-.35.05.13.09.24Z"/>
          </g>
        </g>
        <rect class="cls-1" x="171.17" y="134.4" width="5.88" height=".24"/>
        <g>
          <path class="cls-1" d="M121.99.83l.06,3.49c0,.51.62,1.42.8,1.93l1.2-.5c-.25-.56-.2-.98-.04-1.69.1-.43.11-1.29.35-1.66.33-.51.61-1.02.51-1.58h.96l.09,1.35c-1.2,1.96-.08,3.25-2.25,4.33.04.24.23.73.08.8l-.7.33-.24,2.18c-.31,2.87,1.82,4.52,1.09,5.37-.13.15-.51.56-.61.43l-.49-.62c-.38.35.37,1.12.4,1.55.08,1.07.16,2.39.29,3.5l.42,3.45.71,6.69.71,4.99.54,3.61.6,2.76,1,6.55c.35,2.33.77,4.52,1.09,6.89.08.57.37,1.04.22,1.89.23.66,1.44-.83,1.38.38,0,.16-.23.66-.37.57l-.62-.38c-.26-.16-.53-.35-.54-.19-.05.88.23,1.61.68,1.58.78-.05.72-.82,1.54-.6.16.04.09.55.02.71-.7,1.45-.19,2.89-.08,2.95l.51.3c-1.08,1.69-.3,5.08-1.14,7.65-.8.04-1.06-4.84-1.07-4.95-.15-.92-.53-2.01-.62-3.05s-.29-1.9-.38-2.88l-.64-7.51-.92-4.7c-.12-.62-.5-1.44-.35-2.09.33-1.42-.12-2.39-.37-3.65-.64-3.25-1.08-6.46-1.52-9.75l-1.27-9.64c-.17-1.3-.31-2.5-.17-3.79-.04-.26-.34-.92-.46-1.03-.08,1.12.2,2.04-.35,2.81-.09-3.17-.08-5.99-.72-8.95.1.02.37.18.44.28l.32.44.05-1.78c.02-.5-.73-1.17-.85-1.58-.57-1.99-.86-4.18-.89-6.26,1.23,1.01.35,5.32,2.34,6.44l-1.1-3.35c-.34-1.02-.37-2-.72-2.97l-.38-1.07h1.44Z"/>
          <path class="cls-1" d="M147.18.83l.36,2.22-.51.18.28,2.16c.04.32-.8.69-1.16.69l.17,3.69c.04.77-.52,2.23-.9,2.88-.45.58-1.43,1.08-.96,1.75.24,0,.77-.1.73.05l-.17.58-1.21-.22c-.12-.98-.12-2.3.23-3.36.47-1.46.57-2.84.82-4.31l.76-4.56.37-1.73h1.2Z"/>
          <path class="cls-1" d="M144.06.83c-.53,1.32.02,4.72-2.43,4.81-.61-2.18-1.44-2.83-1.64-4.81h4.08Z"/>
          <path d="M124.87.83c.1.56-.18,1.07-.51,1.58-.24.37-.24,1.22-.35,1.66-.17.7-.21,1.12.04,1.69l-1.2.5c-.18-.51-.79-1.42-.8-1.93l-.06-3.49h2.88Z"/>
          <path d="M166.21,202.82l-.27-3.68-.42-4.56-1.25-12.51-1.91-18.42-.54-5.27-.49-4.81-.72-7.43-.34-3.16-.24-3.61-.34-3.11,2.52.76c.25,3.21.64,6.04,1.37,9.07,1.38,5.73.84,18.21,1.92,23.54l1.81,8.92,2.05,11.95c-.95,1.99-.73,3.92-.65,6.01.04,1.04-.16,2.12.04,3.14.24,1.18.19,2.07,0,3.37l-2.56-.2Z"/>
          <path d="M167.82,278.36c.74-1.2-1.03-2.25.18-3.31l.41,1.3.36-.87c.1-.24-.71-.46-.92-.55l-.12-1.75c-.02-.31.16-.87.19-1.45l.97-.12c.48-.15.42-.21-.21-.24l-.31-1.33,1.4-.35-1.35-.48c1.03-.76.82-1.54.32-2.53l.72-2.58-1.46.42.09.57c.01.09-.38.26-.38.17v-.5s-.03-2.49-.03-2.49l-.09-3.03c.23-.03.56-.05.63.06l.5.79c.27-.72.36-1.46.43-2.44.15-.07-.38-.31-.45-.17l-.37.69-.24.44c-.05.1-.37.01-.37-.1l.03-.6c.05-.87.58-1.4,1.29-1.87l.27-.31c.08-.09.4-.17.4-.05.03,1.38.58,2.62.22,3.29l-1.02,1.89c.92.06,1.09.48,1.43,1.03.18.29.84.78.84,1.12,0,.42-.22,1.05-.37,1.39.23.31.58.9.64,1.4l.68,5.85c.11.92.08,2.01.25,2.88.22,1.14.28,1.97.23,3.11-.03.9.26,2.05.35,3.03l.43,4.33.35,3.59-6.12.02-.13-1.09-.2-1.68c-.03-.24-.18-.75-.23-.97s.4-.54.57-.75c.05-.74-.21-1.7-.68-2.45l1.13-1.09-.55-1.17.77-.53c.13-.09-.46-.48-.49-.51ZM171.25,273.46l-.17,4.5c0,1.02.07,2.02.35,3.17.29-.02.63-8.66-.18-7.67Z"/>
          <path d="M171.1,241.48c-.07,1.17-.36,2.38-.37,3.41,0,.63.55,1.2-.26,1.51l-.32-4.3-1.63-17.29-.67-5.78-.92-10.6c2.03,4.37,3.52,8.92,4.21,13.74.15,1.04.09,2.3.11,3.31l.09,4.15c.06,2.71.16,5.39,0,8.09l-.23,3.76Z"/>
          <path d="M163.58,283.4l.29-2.22.51-3.65c.07-.51.3-1.15.53-1.75-.56-.8-.79-2.03.14-2.89.76,2.31-.16,4.42-.41,6.64l-.42,3.78-.07.54c-.02.15-.58-.27-.56-.45Z"/>
          <path d="M146.89,73.39l.07.47c.02.12-.23.26-.35.33-.11.06-.35-.36-.3-.49.27-.67.54-1.98.66-2.8l.94-6.38c.63.54-.16,5.08-.35,5.91l-.68,2.96Z"/>
          <path d="M169.93,254.99l-1.28-.77.23-2.71c.03-.32-.39-1.03-.26-1.29.15-.3.8-.6,1.26-.62.04,1.19-.21,2.22-.39,3.16.22.57.71,1.31.45,2.23Z"/>
          <path d="M149.02,57.7c-.57-.44-.19-.92-.15-1.44.15-1.93.24-3.65.78-5.62.53.84-.35,6.03-.63,7.06Z"/>
          <path d="M169.71,249.07c0,.16-.46.22-.82.28-.44-2.94.59-1.04.34-3.13-.01-.12.29-.16.41-.16s.17.4.16.59l-.09,2.41Z"/>
          <path d="M161.48,173.46c0,.25.54.5.57.71.04.25-.34.64-.7.95-.37-.74-.52-1.65-.5-2.52.22,0,.62.03.62.16v.7Z"/>
          <path d="M149.95,161.83l-.1-1.61c.24-.66.98.16,1.07.71.06.37-.64.96-.97.9Z"/>
          <path class="cls-1" d="M155.74,236.53c-.58-.75-1.86.32-1.98-.58-.16-1.2,1.76.53,2.06-.57l-.84-.54c-.18-.11-.04-.51.03-1.04l-1.25-.03c.51-2.34,1.54-2.02,1.63-3.94.02-.31-.05-.91-.19-1.12s-.72-.27-.96-.28l.04,1.22-1.56-.88,1.26-.62-.09-.62c-.03-.19.74-.28.86-.45.96-1.41-1.05-2.5.28-4.28-.09-.13-.37-.39-.31-.48l.37-.49-2.56-1.96.51-1.77c.13-.46,1.17-2.91.06-3.61.95-2,.19-1.16.48-3.69.03-.29.19-.64.1-.82-.11-.21-.68-.19-1.08-.12-.02.11-.13-.38-.03-.38l.68-.04c.28-.02.44-.78.29-1.04-.96-1.67-.54-3.18-.11-4.83.46-1.77.23-3.78.53-5.55.45-2.62.92-5.04,1.12-7.73l.26-3.45c.01-.18.83-.02.77.07-.4,2,.37,4.03.49,6.07l.14,2.5c.16,2.79-.09,5.59.35,8.4.24,1.53.39,3.08.41,4.64l.1,5.5-.02,3.93c0,1.18-.04,2.31.1,3.53l.25,2.07c.01.11-.14.39-.11.5l.17.58c-.17.4-.06,1.11-.1,1.53-.08.89-.22,1.79-.22,2.75v2.35s-1.19.31-1.19.31l1.23.21c-.07.99-.12,2.07-.03,3.02l.29,2.93c.08.84-.03,1.65.04,2.38l.18,2.02c.04.4,0,.94-.06,1.21-.04.18-.92.55-1.7.41-.13-.02.26-.48.29-.61l.26-2.21-1.27.18-.67-1.51c.84-.59.59-1.12.68-1.84.05-.45.27-.85,0-1.2Z"/>
          <path class="cls-1" d="M157.55,282.56l-.13-2.34c-.01-.21.43-.7.33-.89l-.5-1.01c-.08-.16.48-.65.48-.83s-.06-.36-.14-.71c.03-.84-.08-1.56-.51-2.38l.53-1.34c-.1-.09-.69-.51-.7-.72l-.02-2.16c0-1.17.15-1.91,1.61-2.45-1.27-.81-1.75-1.66-1.48-2.97l.56-2.8c.04-.2-.28-.75-.48-.74l-1.28.02c.12-.53.96-1.01,1.54-.75l.8-1.08.04,1.74c0,.29.43.79.52,1.05.11.3-.36.93-.36,1.26l.03,1.62,1.03,1.43c-1.02,3.54,2.05,2.56-1.05,7.96l.15,2.28c.13,1.99-.07,3.25.34,4.85l-.51-.1c-.12-.02-.05.43-.06.55l-.05.53c-.01.16-.69.17-.69.01Z"/>
          <path class="cls-1" d="M141.09,174.85l-.5-3.79-.47-5.28-.61-4.99-.51-4.2-.67-5.41-.33-2.64c-.11-.9-.16-1.72-.11-2.67.61,1.38.56,2.8.76,4.3l.67,4.84.7,5.76.56,5.04c.37,3.28.12,4.9.9,8.68-.12.18-.32.36-.4.36Z"/>
          <path class="cls-1" d="M140.58,115.23c-.93,1.64-.52,5.23-1.64,5.17l1.98-9.98c.32-1.61.61-3.06,1.05-4.75.31.34.35.79.22,1.2-.42,1.25-.59,2.42-.77,3.68l-.36,2.49c-.28,1.94,1.94,2.48-.48,2.18Z"/>
          <path class="cls-1" d="M151.1,116.39l-.5,1.18-.3.15c-.11.05-.56-.11-.51-.22,1.39-2.69-.27-.74,1.37-2.62-.92-.85-1.37-2.23-.74-3.5-.69-1.18-.77-2.36.16-3.52,1.56,2.51-.71,3.98,1.22,5.18-.56,1.3.2,1.15-.71,3.33Z"/>
          <path class="cls-1" d="M143.23,21.39c-.3.15-.72-.68-.65-1.02l.57-2.7c.14-.67.22-1.28.25-2.01.79.07.44.9.48,1.55l.14,2.22c.04.7.15,1.48-.79,1.96Z"/>
          <path class="cls-1" d="M165.31,247.4l.03-2.39c-.46-1.05-.79-2.1.31-2.89.54.89,1.52,5.32-.34,5.28Z"/>
          <path class="cls-1" d="M135.04,61.9c-1.07-1.34-.02-2.54.25-3.84l.78-3.81c.02-.11.15-.36.19-.45s.36.05.35.15l-.06.47c-.23,1.75-.52,3.4-.93,5.11l-.57,2.37Z"/>
          <path class="cls-1" d="M158.76,286.44l.26.29c.08.09.12.47,0,.45-1.29-.25-1.74-3.41-1.12-3.89.17-.13.65.32.71.54l.38,1.56c.03.11.26.44.31.54.07.14-.29.31-.53.51Z"/>
          <path class="cls-1" d="M150.6,181.91c-.99.39-1.05.35-1.45,1.01-.05.08-.71-.21-.95-.39-.57-.43-.22-1.86.38-2.25.19-.12.78.01.79.14l-.13.82c-.03.19.6.31.94.33.14.11.53.42.43.34Z"/>
          <path class="cls-1" d="M161.33,280.38c-.86-1.16-1.03-2.52-.78-3.93.98,1.11,1.49,2.42.78,3.93Z"/>
          <path class="cls-1" d="M166.34,238.95c0,.77.05,1.57-.62,2.36l.06-4.81c0-.41.23-.88.55-1.19v3.65Z"/>
          <path class="cls-1" d="M138.35,57.48l-.7-1.5.82-.43c.24-.12-.54-1.02-.21-1.65.08-.15.37-.25.53-.23s.57.51.52.67l-.96,3.14Z"/>
          <path class="cls-1" d="M140.31,110.76c-.01.31-.6.88-1.13,1.15-.3-.44.13-1.21.49-1.59-.15-.35-.33-.83-.25-1.06.11-.31.66-.79.75-.72l.14,2.22Z"/>
          <path class="cls-1" d="M152.82,222.55l-.73-.48c-.15-.1-.54.06-.84.12l.12-1.36c.02-.19.49-.65.67-.55l.75.44c-.39.74-.19.96.02,1.83Z"/>
          <path class="cls-1" d="M134.78,76.31c-.54.67-.62-3.82-.22-4.01l.59.91c.14.22-.4.75-.43,1.01.05.59,1.05,1.45.06,2.08Z"/>
          <path class="cls-1" d="M148.73,178.62c-.44-.15-.79-1.34-.51-1.68.41-.5,1.19.2,1.45.63.22.37-.46,1.21-.93,1.05Z"/>
          <path class="cls-1" d="M144.47,177.31c-.02.2-.66-.12-.74-.3s.35-.54.47-.75c.4-.66-.64-1.6.54-2.09l-.27,3.14Z"/>
          <path class="cls-1" d="M152.36,229.33c.09.09-.95.07-1.23-.07l.24-1.95c.01-.11,0-.35,0-.44s.25-.22.29-.15c.07.11.21.39.25.54l.45,2.07Z"/>
          <path class="cls-1" d="M137.73,47.53c.14,1.8.13,2.23-.76,3.95-.49-1.28-.27-2.73.76-3.95Z"/>
          <path class="cls-1" d="M137.24,112.66c.09-.02-.45.08-.68.12,0,0-.42-2.96.36-2.93l.32,2.81Z"/>
          <path class="cls-1" d="M145.58,210.72c-.51-1.97-.75-3.83-.71-6.02.44,1.96.64,3.95.71,6.02Z"/>
          <path class="cls-1" d="M152.05,210.57c.25.47-.78,1.73-1.34,1.61l.63-1.98c.11-.18.61.18.72.37Z"/>
          <polygon class="cls-1" points="136.86 107.89 135.59 108.51 136.02 105.79 136.86 107.89"/>
          <path class="cls-1" d="M171.25,273.46c.81-.98.47,7.65.18,7.67-.28-1.15-.34-2.15-.35-3.17l.17-4.5Z"/>
        </g>
      </g>
    </g>
  </g>
</svg>