<?xml version="1.0" encoding="UTF-8"?>
<svg id="Layer_2" data-name="Layer 2" xmlns="http://www.w3.org/2000/svg" viewBox="0 0 432 288">
  <defs>
    <style>
      .cls-1 {
        fill: #fff;
      }
    </style>
  </defs>
  <path class="cls-1" d="M110.63,284.08V1.85h218.85v282.23H110.63ZM187.69,177.78c.3-.22.21-.97.38-1.22.13-.19,2.13-4.75,1.64-3.96l1.21-1.97c.35-.56.49-1.24.81-1.82l.67-1.23c.43-.78,1-1.27,1.86-1.68l.75-1.83c.06-.14-.02-.56.09-.64s.37-.2.58-.25c.96-.25,1.07-1.73,1.67-2.43.87-1.01,1.64-1.92,2.41-3.02.13-.19,1.69-1.77,2.12-2.37.4-.55.96-.63,1.6-.6.24-.25.61-.65.86-.83l1.6-1.12c.61-.43,1.76-.91,2.95-1.62.51-.3,1.46-.22,2.05-.44,1.14-.43,3.18.25,4.37.66.67.23,1.71-.01,2.09.79.14.29.47.79.78.73.76-.14,1.03.56,1.45.72,1.31.52,1.74,1.46,2.44,2.54.52.8,1.78,1.21,1.95,2.41l.13.92c.91.81,1.94,2.96,2.08,4.11.49.69,1.24,1.26,1.47,2.12.36,1.36,1.13,2.49,1.73,3.74.23.48.38,1.1.66,1.54.39.61.7,1.37,1.08,1.89.62.85.77,1.54,1.06,2.5.43,1.44,1.27,2.87,2,4.17,1.48,2.65,1.02,2.8,1.43,4.14.59,1.93,1.12,2.35,1.71,4.88l.29,1.27.33,1.39c.17.74.41,1.45.64,2.17.53,1.64.33,3.08,1.48,5.22s.67,2.64,1.54,5.88c.25.92.6,1.65.49,2.64-.17,1.52.96,2.51,1.23,4.1l.75,4.31c.11.66.57,1.38.51,2.07-.09,1.04.34,1.76.64,2.66l.52,1.56c.24.73.02,1.69.19,2.44l.76,3.32c.13.58.16,1.27.42,1.79.29.58.4,1.18.2,1.85-.05.16.18.46.28.64,1.29,2.41.32,4.53,1.19,6.06.22.39.53.82.59,1.28.18,1.4.34,2.76.8,4.08.19.53.36,1,.5,1.55.35,1.41,1.19,2.74,1.39,4.16.11.78.15,1.47.32,2.23.14.6-.09,1.51.22,1.98.27.42.46.67.48,1.15.02.92.64.46,1.05,1.14.45.74.43,1.73.61,2.58.2.97.34,1.84.49,2.83.07.47.39,1.03.37,1.58-.06,1.44-.05,3.33.35,4.6l.8,2.53c.34,1.07.43,2.18,1.6,2.81.72.39,1.97.96,2.13,1.9l.32,1.91c.12.73.5,1.37.8,2,.58,1.21,1.36,1.78,2.75,1.72.43-.02.95.16,1.32-.19.25-.24.36-.71.51-1.12.37-1.03.75-1.95.64-3.09l.39-.44c.8-.9-1.12-.96-1.29-1.86l-.24-1.29c-.15-.82-.15-1.79-.43-2.56-.25-.66-.5-1.51-.04-2.02.65-.73-.41-1.26-.72-1.86-.41-.79-.09-1.71-.04-2.55.04-.66-.29-1.41-.36-2.04-.04-.35-.02-.73-.11-1.03l-.68-2.29c-.14-.47-.23-.87-.43-1.33-.65-1.49-.3-1.71-.69-3.05l-.33-1.15c-.14-.48-.68-1.09-.65-1.6.06-1.07-.24-1.83-.53-2.77-.17-.57-.21-1.36-.36-2.01-.45-2.01-.38.36-.7-3.08-.01-.15-.28-.47-.35-.59l-.22-1.02c-.65-.42-1.11-3.06-1.25-3.88-.09-.52-.83-1.13-.82-1.72,0-1.03-.06-1.86-.38-2.81-.53-1.58.57-1.38.36-2.07-.05-.17-.47-.44-.5-.63l-.54-2.5c-.11-.52.01-1.25-.14-1.67-.23-.64-.17-.99-.12-1.68.17-2.35-.99-4.8-.83-6.34.13-1.26-.04-2.8-.29-4.01l-.33-1.59-.15-2.89c-.04-.83-.25-1.55-.26-2.39l-.02-2.11c0-.75.12-1.62-.07-2.34-.11-.4-.16-.66-.08-1.06.22-1.07-.34-2.09-.34-3.12,0-2.21-.54-.65-.36-3.27.1-1.55.01-2.61-.3-4.14-.17-.85.09-1.94-.15-2.76-.28-.94-.37-1.71-.43-2.71l-.16-2.65-.14-1.74c-.15-1.92-.43-1.43-.33-2.98.07-1.14.07-2.29-.02-3.42-.22-2.8.21-1.11-.14-4.08s.43-2.82-.16-4.82c-.27-.92.03-1.96-.03-2.86-.1-1.58-.15-3.01.22-4.57.15-.63-.07-1.32-.21-1.89l-.44-1.76c-.25-1.02-.03-2.19-.25-3.25l-.27-1.28-.14-4.83c-.02-.67-.05-1.24,0-1.91l.12-1.82c.45-.78,1.71-.96,2.44-.49.26.17.52.62.77.61s.65-.14.91-.24c.9-.37,1.75.15,2.65.28.76.11,1.56.11,2.38.16.88.05,1.93-.26,2.8.03.6.2.94.06,1.52,0,1.28-.12,2.49-.28,3.75-.51,1.81-.33,1.51,0,3.68-.94.84-.36,1.93-.22,2.81-.51.54-.18,1.12-.6,1.62-.86.67.44,1.02.08,1.55-.13s1.24-.35,1.75-.66c.83-.51,1.64-.88,2.5-1.28.81-.38,1.54-1,2.56-.87l1.24-.68c.55-1.34,1.05-2.65.65-4.06-.11-.37-.62-.99-.95-1.12l-1.36-.55-3.43-.56-1.84-.68c-.4-.15-.78-.36-1.21-.47-.35-.09-.64-.28-.96-.44l-1.54-.8-1.64-.83c-.83-.42-1.66-.73-2.49-1.17-.58-.31-1.18-.53-1.8-.74-1.3-.43-2.17-1.62-3.31-2.27l-1.71-.97c-.77-.44-1.77-.63-2.43-1.2-1.36-1.17-1.18-.81-2.3-1.35-1.03-.5-2.1-1.25-2.87-2.09l-1.44-1.57-1.84-1.77-1.08-1.14c-.3-.32-.44-.88-.63-1.29-.88-1.91-1.11-1.21-2.14-2.66l-1.12-1.58c-1.82-2.57-1.04-2.62-1.92-3.72-.94-1.17-1.03-1.12-1.36-2.62-.1-.44-.73-.84-1.04-1.23-.37-.48-.57-1.12-.83-1.7-.31-.69-.94-1.31-1.29-1.98l-1.39-2.7c-.15-.3-.66-2.5-.86-2.9l-.97-2.01c-.88-1.81-.77-.58-.82-3.11,0-.15.21-.49.25-.63s-.38-.29-.48-.42c-2.11-2.78-1.15-2.23-1.61-3.53-.29-.83-.61-1.63-.84-2.42-.17-.6-.29-1.02-.51-1.57-1.62-3.91-.13-3.59-1.55-6.06-.37-.65-.21-1.74-.51-2.43-.86-2.01-1.02-1.38-1.19-3.11-.31-3.24-.91-2.01-1-3.01-.05-.59-.51-1-.7-1.47-.36-.87.1-2-.52-2.82-.28-.37-.37-.79-.44-1.29l-.33-2.13c-.08-.52-.2-1.03-.4-1.54-.26-.63-.24-1.37-.42-1.98l-.43-1.43-.68-2.65c-.18-.69-.53-1.55-.85-2.2-.49-1-.29-2.09-.55-3.12-.21-.81-1.02-1.4-.64-2.45.22-.6-.3-.99-.6-1.41-.74-1.05-.6-2.46-.71-3.71-.14-.42-.63-1.01-.73-1.42l-.74-3.03c-.16-.64-.14-1.18-.42-1.78-.37-.78-.61-4.01-.86-4.65-.39-.97-.59-1.58-.7-2.67l-.27-2.6c-.1-.98.26-1.79-.18-2.75l.18-1.6c-.68-.49-1.08-1.15-1.39-1.81-1.74-.47-4.3,1.5-5.18,2.78-.05.08-.46.1-.44.18l.13.43c.05.17-.25.54-.31.71-.33.97-.77,1.84-1.54,2.6-.31.3-.44.99-.66,1.32-.43.65-.45.98-.35,1.79.06.53-.49,1.33-.67,1.85-.41,1.18-.68,1.84-1.3,2.84l-1.4,2.26c-.26.42-.43,1.28-.7,1.63-.47.59-2.08,2.14-2.03,3.08.05.87-.48,1.14-.85,1.7l-1.2,1.78c-.22.32-.8.76-.97,1.07l-1.29,2.28c-.71,1.27-1.32,2.7-2.54,3.61.09,1.44-.79,1.51-1.59,3l-.67.53c-.61,1.3-2.08,1.65-3.65,2.83l-1.43,1.07-1.68,1.29c-1.29,2.94-1.9.88-2.56,2.49-.25.34-.95.93-1.36,1.08-.75.26-1.09.82-1.64,1.22l-1.92,1.38c-.36.26-.87.44-1.28.65l-1.81.96c-.69.36-1.52.73-2.09,1.19-.24.2-.93.2-1.18.26-.31.4-.63.53-1.11.7-2.49.87-1.73-.27-2.86.81l-1.2,1.14c-.23,3.09-.12,1.34.97,3.14.36.6,2.29.44,2.68.45.84.02,1.58.14,2.43-.03.26-.05.72-.03.89,0-.29.6-.46.99-.45,1.47.76.54,1.55,1.07,2.34,1.47l1.66-.26,2.06-.91c.7-.31.98-.98,1.91-1.3l1.87-.64c1.1-.38,2.22-.14,3.37-.4l1.89-.43,2.31-.6,1.33.21c.48.9-.8,2.23-1.22,3.26l-.61,1.49c-.27.67-.58,1.29-.96,1.89l-.73,1.17c-1.03,1.65-.17.77-1.79,2.9-1.26,1.65-.66.3-2.47,1.78-.55.46-.49,1.46-.85,1.99-1.45,2.15-.6,2.01-2.29,5.25-.15.28-.55.7-.72.98-.47.77-1.05.46-1.77.44-1.02-.04-2.31.74-3,1.54-.4.46-.58,1.28-.78,1.85-.57,1.61-1.93,3.92-2.03,4.38l-.56,2.6c-.55,2.57-2.82,4.26-4.24,6.59l-1.08,1.77c-1.24,2.04-2.46,4.01-4.23,5.67-.13,1.08-.75,1.84-1.6,2.53l-.5,1.01c-.85.67-1.55,1.35-2.2,2.2-.58.75-1.25,1.36-1.91,2.05l-2.14,2.21-.99,1.04-1.67,1.91c-.88,1.01-1.64,1.87-2.63,2.75-.31.28-1.81,2.29-2.6,2.42-.63.11-1.04.35-1.59.62-.39.19-.98.35-.89.9.17,1-.64,1.13-1.12,1.63-.39.42-.79.88-1.22,1.28l-2.39,2.18-1.51,1.76c-1.73,2.01-2.89,2.32-4.61,4.17-.52.56-1.17,1.21-1.84,1.6l-3.49,1.99c-1.18.67-2.59,1.09-3.49,2.16-.75.89-.22,1.99.48,2.65.63.6,1.2.93,2.13.75.8-.16,1.79-.2,2.46-.7l.96-.72,1.88-.49c.57-.15.88-.35,1.32-.75.6-.53,1.54-.79,2.21-1.25l1.2-.84c1.48-1.03,2.04.37,2.5-.58.19-.39.47-.59.87-.57.88.05.87-.36,2.22-1.09.58-.31,1.51-.3,2.12-.59l2.44-1.16c1.6-.76,3.06-1.64,4.67-2.36,2.04-.91.51-.5,2.3-1.31l1.74-.78c3.44-1.55,1.97-.03,3.32-.86,1.62-1.01.8-.65,2.68-1.26,1.07.28,2.32.13,3.13-.64l3.74-.4c2.43-.26,1.46,1.68,2.96,2.23.17,1.31.5,2.64.37,4l-.15,1.55c.73.53.36,1.34.4,2.05l.13,2.19c.12,2.02-.34.22-.47,3.05.72,1.09.4,2.34-.26,3.36-.15.24.15.88.13,1.16l-.12,1.83c-.19,2.94.2.95-.37,4.74-.14.92.1,2.03-.15,2.88-.21.69-.39,1.24-.42,1.96l-.06,1.55c-.09,2.18-.42,1.48-.71,4.11l-.37,3.29c-.06.55-.46,4.61-.41,4.37l-.86,4.32c-.12.6-.17,1.18-.23,1.83-.09.93-.36,1.88-.39,2.81-.04,1.15-.43,2.11-.55,3.2l-.53,4.72c-.12,1.09-.21,2.26-.52,3.25-.34,1.09-.65,1.97-.67,3.16,0,.63-.57,1.49-.52,2.13.06.84.13,1.57-.06,2.36l-.41,1.64c-.12.47-.15,1.13-.19,1.68-.07.91-.54,1.66-.78,2.51l-.56,1.94-.64,2.39.04,1.12c-.24.93-.42,1.74-.53,2.68-.08.63-.55,1.42-.51,2.02.13,1.55-.04,3.61-.27,5.12-.14.94-.42,1.78-.57,2.73l-.52,3.3c-.07.43-.55.97-.56,1.42l-.04,3.08c-.63.72-.85,1.32-.78,2.31.05.78-.67.83-.69,3.38,0,.54.07,1.06-.07,1.55l-.43,1.49c-.15.51.1,1.43-.15,1.89-.82,1.52-.4,2.59-1.11,4.91l-.62,2.02c-.46,1.5-.56.9-.61,2.76-.04,1.24-.29,2.29-.66,3.47-.29.93-.2,2.1-.68,2.93-.65,1.13-.5,2.26-.66,3.49-.25,1.98-.92,3.87-1.31,5.85-.15.76.53,1.31,1.02,1.8.18.18.35.52.52.49.93-.16-.39-.3,2.21-.21l1.58-1.74c.11-2.19.45-3.34,1.44-5.31-.45-1.8.53-2.22.54-3.86,0-.67.08-1.16.18-1.81l.73-4.45c.15-.91.42-1.73.66-2.62.15-.55.4-1.02.63-1.58.28-.7-.02-1.74.18-2.5.25-.97.14-1.47.46-2.88l.64-2.81c.21-.91.38-1.89.66-2.77s.5-1.55.61-2.44l.25-2.04.17-1.86.69-1.14c-.02-1.57.25-2.07.67-3.27.35-.98.4-2.1,1.05-3.08l-.27-.85c1-1.84.72-2.91,1.35-4.96.28-.92.36-1.75.45-2.75l.77-1.61c.48-1.02.59-2.08,1.04-3.1.53-1.21.25-2.6.53-3.92l.34-1.59c.17-.81.47-1,.99-1.45l1.51-1.32.33-1.46c.15-.66.06-1.62.39-2.16.35-.57.46-.89.5-1.58.06-1.12.93-2.05,1.26-3.09l.38-1.21,1.02-1.84c.21-.38.2-1.15.36-1.5.55-1.19,1.02-2.29,1.51-3.54.16-.4,1.08-1.86,1.66-3.45.25-.69.72-1.12,1.14-1.71.47-.66.32-2,.94-2.63.99-.99,1.3-2.12,1.74-3.4.17-.49.68-.89.75-1.58.05-.58.79-.99,1.35-1.39ZM204.51,168.1c.31-.03.66-.46.72-.71.07-.32,0-.87-.26-.96-.73.14-.99,1.28-.45,1.68ZM234.81,196.2c.08-.15-.06-.53-.17-.64s-.53-.16-.71-.07c-.21.11-.08.62.07.77.14.14.66.2.81-.06ZM121.95,199.3l-.24-.6c-.04-.11-.33-.08-.51.02.28.92.92,1.8,1.67,2.22.05-.83-.67-1.02-.92-1.64ZM283.72,265.49l-.89-.64c-.18-.13-.08-.76-.21-.93s-.72,0-.79.21c-.06.18-.12.68.05.76l.77.33c.24.43.66,1.18,1.28.89.14-.07-.08-.51-.22-.61ZM199.49,272.68l.93-1.14c-.05-.22-.61-.48-.73-.34l-.46.5c-.11.12-.26.49-.29.65s.44.47.56.32Z"/>
  <path d="M187.69,177.78c-.56.41-1.3.81-1.35,1.39-.06.69-.58,1.09-.75,1.58-.44,1.28-.75,2.41-1.74,3.4-.62.63-.46,1.97-.94,2.63-.43.6-.89,1.02-1.14,1.71-.58,1.58-1.5,3.04-1.66,3.45-.49,1.25-.96,2.34-1.51,3.54-.16.35-.15,1.12-.36,1.5l-1.02,1.84-.38,1.21c-.33,1.05-1.2,1.98-1.26,3.09-.04.69-.15,1.01-.5,1.58-.33.54-.24,1.5-.39,2.16l-.33,1.46-1.51,1.32c-.52.45-.82.64-.99,1.45l-.34,1.59c-.28,1.32,0,2.71-.53,3.92-.45,1.02-.55,2.09-1.04,3.1l-.77,1.61c-.09,1-.17,1.83-.45,2.75-.63,2.05-.35,3.12-1.35,4.96l.27.85c-.65.98-.71,2.1-1.05,3.08-.42,1.2-.68,1.7-.67,3.27l-.69,1.14-.17,1.86-.25,2.04c-.11.89-.33,1.58-.61,2.44s-.46,1.86-.66,2.77l-.64,2.81c-.32,1.41-.22,1.91-.46,2.88-.19.76.11,1.8-.18,2.5-.22.56-.48,1.03-.63,1.58-.24.89-.51,1.72-.66,2.62l-.73,4.45c-.11.65-.18,1.14-.18,1.81-.01,1.64-.99,2.05-.54,3.86-.98,1.96-1.32,3.12-1.44,5.31l-1.58,1.74c-2.6-.08-1.27.06-2.21.21-.17.03-.35-.32-.52-.49-.49-.48-1.17-1.04-1.02-1.8.39-1.99,1.05-3.87,1.31-5.85.16-1.23,0-2.36.66-3.49.48-.83.39-1.99.68-2.93.37-1.18.62-2.23.66-3.47.06-1.86.15-1.26.61-2.76l.62-2.02c.71-2.32.29-3.39,1.11-4.91.25-.46,0-1.38.15-1.89l.43-1.49c.14-.49.06-1.01.07-1.55.03-2.55.75-2.6.69-3.38-.07-.99.15-1.6.78-2.31l.04-3.08c0-.45.49-.99.56-1.42l.52-3.3c.15-.95.43-1.79.57-2.73.23-1.51.39-3.57.27-5.12-.05-.61.43-1.39.51-2.02.11-.95.29-1.75.53-2.68l-.04-1.12.64-2.39.56-1.94c.24-.85.72-1.6.78-2.51.04-.55.07-1.21.19-1.68l.41-1.64c.2-.79.12-1.52.06-2.36-.05-.64.51-1.5.52-2.13.02-1.19.33-2.07.67-3.16.3-.99.4-2.16.52-3.25l.53-4.72c.12-1.08.51-2.05.55-3.2.03-.93.3-1.88.39-2.81.06-.65.12-1.23.23-1.83l.86-4.32c-.05.24.35-3.82.41-4.37l.37-3.29c.29-2.63.62-1.93.71-4.11l.06-1.55c.03-.72.21-1.27.42-1.96.26-.85.01-1.96.15-2.88.58-3.79.18-1.8.37-4.74l.12-1.83c.02-.29-.29-.93-.13-1.16.67-1.02.98-2.27.26-3.36.13-2.83.59-1.03.47-3.05l-.13-2.19c-.04-.71.33-1.51-.4-2.05l.15-1.55c.13-1.36-.2-2.69-.37-4-1.5-.55-.53-2.49-2.96-2.23l-3.74.4c-.82.77-2.06.93-3.13.64-1.87.61-1.06.25-2.68,1.26-1.35.84.12-.68-3.32.86l-1.74.78c-1.79.81-.27.4-2.3,1.31-1.61.72-3.07,1.6-4.67,2.36l-2.44,1.16c-.61.29-1.54.28-2.12.59-1.36.73-1.34,1.15-2.22,1.09-.4-.02-.68.18-.87.57-.46.95-1.02-.45-2.5.58l-1.2.84c-.66.46-1.6.72-2.21,1.25-.45.39-.76.6-1.32.75l-1.88.49-.96.72c-.67.5-1.66.54-2.46.7-.92.18-1.49-.15-2.13-.75-.7-.66-1.23-1.76-.48-2.65.89-1.06,2.31-1.48,3.49-2.16l3.49-1.99c.67-.38,1.32-1.03,1.84-1.6,1.72-1.86,2.88-2.16,4.61-4.17l1.51-1.76,2.39-2.18c.43-.4.83-.85,1.22-1.28.47-.51,1.29-.63,1.12-1.63-.09-.55.5-.71.89-.9.55-.27.96-.51,1.59-.62.79-.14,2.29-2.14,2.6-2.42,1-.88,1.75-1.74,2.63-2.75l1.67-1.91.99-1.04,2.14-2.21c.67-.68,1.33-1.3,1.91-2.05.65-.85,1.35-1.53,2.2-2.2l.5-1.01c.85-.68,1.47-1.44,1.6-2.53,1.77-1.66,2.99-3.63,4.23-5.67l1.08-1.77c1.42-2.33,3.69-4.02,4.24-6.59l.56-2.6c.1-.46,1.46-2.76,2.03-4.38.2-.57.38-1.39.78-1.85.69-.8,1.98-1.58,3-1.54.72.03,1.3.34,1.77-.44.17-.28.58-.7.72-.98,1.69-3.24.84-3.1,2.29-5.25.36-.53.3-1.53.85-1.99,1.8-1.48,1.21-.13,2.47-1.78,1.62-2.13.76-1.25,1.79-2.9l.73-1.17c.38-.6.68-1.22.96-1.89l.61-1.49c.42-1.03,1.7-2.36,1.22-3.26l-1.33-.21-2.31.6-1.89.43c-1.15.26-2.28.03-3.37.4l-1.87.64c-.94.32-1.21,1-1.91,1.3l-2.06.91-1.66.26c-.79-.4-1.59-.93-2.34-1.47,0-.48.17-.86.45-1.47-.17-.04-.63-.06-.89,0-.85.17-1.59.05-2.43.03-.39-.01-2.32.15-2.68-.45-1.1-1.8-1.2-.05-.97-3.14l1.2-1.14c1.14-1.08.38.06,2.86-.81.48-.17.8-.3,1.11-.7.24-.06.94-.06,1.18-.26.57-.46,1.4-.83,2.09-1.19l1.81-.96c.41-.22.92-.39,1.28-.65l1.92-1.38c.55-.39.89-.96,1.64-1.22.41-.14,1.11-.74,1.36-1.08.66-1.61,1.27.44,2.56-2.49l1.68-1.29,1.43-1.07c1.57-1.18,3.04-1.53,3.65-2.83l.67-.53c.8-1.49,1.68-1.57,1.59-3,1.22-.91,1.82-2.35,2.54-3.61l1.29-2.28c.17-.3.75-.74.97-1.07l1.2-1.78c.38-.56.9-.82.85-1.7-.05-.93,1.56-2.48,2.03-3.08.28-.35.44-1.21.7-1.63l1.4-2.26c.62-.99.9-1.66,1.3-2.84.18-.52.73-1.32.67-1.85-.1-.81-.08-1.14.35-1.79.22-.33.36-1.02.66-1.32.77-.75,1.21-1.63,1.54-2.6.06-.17.36-.54.31-.71l-.13-.43c-.02-.08.39-.1.44-.18.87-1.28,3.44-3.25,5.18-2.78.31.66.71,1.32,1.39,1.81l-.18,1.6c.44.95.08,1.77.18,2.75l.27,2.6c.11,1.09.31,1.7.7,2.67.26.64.49,3.87.86,4.65.29.6.27,1.14.42,1.78l.74,3.03c.1.41.59,1,.73,1.42.11,1.25-.03,2.66.71,3.71.3.42.82.81.6,1.41-.38,1.05.43,1.64.64,2.45.26,1.03.06,2.12.55,3.12.32.65.67,1.51.85,2.2l.68,2.65.43,1.43c.18.61.17,1.35.42,1.98.21.51.32,1.02.4,1.54l.33,2.13c.08.5.16.92.44,1.29.62.82.16,1.95.52,2.82.19.47.65.88.7,1.47.09,1,.69-.23,1,3.01.17,1.73.33,1.1,1.19,3.11.3.69.14,1.78.51,2.43,1.42,2.47-.07,2.15,1.55,6.06.22.54.34.97.51,1.57.22.79.55,1.59.84,2.42.45,1.3-.51.75,1.61,3.53.1.13.51.28.48.42s-.25.49-.25.63c.04,2.53-.06,1.3.82,3.11l.97,2.01c.19.4.7,2.6.86,2.9l1.39,2.7c.34.67.98,1.29,1.29,1.98.26.58.46,1.21.83,1.7.3.39.94.8,1.04,1.23.34,1.49.42,1.45,1.36,2.62.88,1.1.1,1.15,1.92,3.72l1.12,1.58c1.03,1.44,1.26.75,2.14,2.66.19.41.33.97.63,1.29l1.08,1.14,1.84,1.77,1.44,1.57c.77.84,1.85,1.6,2.87,2.09,1.12.54.94.18,2.3,1.35.66.57,1.66.76,2.43,1.2l1.71.97c1.15.65,2.01,1.83,3.31,2.27.63.21,1.22.43,1.8.74.83.44,1.65.75,2.49,1.17l1.64.83,1.54.8c.31.16.61.36.96.44.44.11.82.32,1.21.47l1.84.68,3.43.56,1.36.55c.33.13.84.75.95,1.12.4,1.41-.1,2.71-.65,4.06l-1.24.68c-1.02-.13-1.76.49-2.56.87-.86.41-1.67.77-2.5,1.28-.5.31-1.2.44-1.75.66s-.88.57-1.55.13c-.5.25-1.08.68-1.62.86-.88.29-1.97.15-2.81.51-2.17.93-1.88.61-3.68.94-1.27.23-2.47.39-3.75.51-.58.05-.92.2-1.52,0-.87-.29-1.91.02-2.8-.03-.82-.05-1.62-.05-2.38-.16-.9-.13-1.76-.65-2.65-.28-.26.11-.67.23-.91.24-.25.02-.51-.44-.77-.61-.72-.47-1.99-.29-2.44.49l-.12,1.82c-.04.67-.02,1.24,0,1.91l.14,4.83.27,1.28c.22,1.06,0,2.23.25,3.25l.44,1.76c.14.57.36,1.26.21,1.89-.38,1.56-.32,2.99-.22,4.57.06.9-.25,1.94.03,2.86.59,2-.17,1.99.16,4.82s-.08,1.28.14,4.08c.09,1.13.09,2.28.02,3.42-.1,1.56.17,1.06.33,2.98l.14,1.74.16,2.65c.06,1,.16,1.77.43,2.71.24.82-.03,1.91.15,2.76.31,1.53.4,2.59.3,4.14-.17,2.63.36,1.07.36,3.27,0,1.03.56,2.05.34,3.12-.08.4-.03.66.08,1.06.2.71.07,1.59.07,2.34l.02,2.11c0,.83.21,1.56.26,2.39l.15,2.89.33,1.59c.25,1.21.41,2.76.29,4.01-.16,1.54,1,3.99.83,6.34-.05.69-.11,1.04.12,1.68.15.42.03,1.15.14,1.67l.54,2.5c.04.18.46.46.5.63.2.68-.89.49-.36,2.07.32.95.38,1.78.38,2.81,0,.59.74,1.2.82,1.72.14.82.6,3.46,1.25,3.88l.22,1.02c.07.12.34.44.35.59.33,3.44.26,1.07.7,3.08.14.65.18,1.45.36,2.01.29.95.59,1.7.53,2.77-.03.51.51,1.12.65,1.6l.33,1.15c.39,1.35.04,1.57.69,3.05.2.46.3.87.43,1.33l.68,2.29c.09.3.08.68.11,1.03.06.63.39,1.37.36,2.04-.05.84-.37,1.76.04,2.55.31.59,1.37,1.13.72,1.86-.46.51-.2,1.35.04,2.02.28.77.28,1.74.43,2.56l.24,1.29c.17.9,2.09.96,1.29,1.86l-.39.44c.11,1.14-.27,2.06-.64,3.09-.15.41-.26.88-.51,1.12-.37.36-.9.18-1.32.19-1.39.06-2.17-.5-2.75-1.72-.3-.63-.68-1.27-.8-2l-.32-1.91c-.16-.93-1.4-1.51-2.13-1.9-1.17-.63-1.26-1.74-1.6-2.81l-.8-2.53c-.4-1.26-.41-3.16-.35-4.6.02-.55-.3-1.11-.37-1.58-.15-.99-.29-1.87-.49-2.83-.18-.85-.16-1.85-.61-2.58-.41-.68-1.02-.22-1.05-1.14-.01-.48-.2-.74-.48-1.15-.31-.47-.09-1.38-.22-1.98-.17-.75-.21-1.44-.32-2.23-.2-1.42-1.05-2.75-1.39-4.16-.14-.55-.31-1.03-.5-1.55-.46-1.31-.63-2.67-.8-4.08-.06-.46-.37-.89-.59-1.28-.87-1.53.1-3.65-1.19-6.06-.09-.17-.32-.48-.28-.64.21-.67.1-1.27-.2-1.85-.27-.53-.29-1.21-.42-1.79l-.76-3.32c-.17-.75.05-1.71-.19-2.44l-.52-1.56c-.3-.9-.72-1.63-.64-2.66.06-.69-.4-1.41-.51-2.07l-.75-4.31c-.28-1.59-1.4-2.57-1.23-4.1.11-.99-.24-1.72-.49-2.64-.87-3.24-.36-3.67-1.54-5.88s-.95-3.58-1.48-5.22c-.23-.72-.47-1.44-.64-2.17l-.33-1.39-.29-1.27c-.58-2.53-1.12-2.95-1.71-4.88-.41-1.34.05-1.5-1.43-4.14-.73-1.3-1.57-2.74-2-4.17-.29-.96-.43-1.64-1.06-2.5-.38-.52-.69-1.29-1.08-1.89-.28-.44-.43-1.06-.66-1.54-.6-1.25-1.37-2.38-1.73-3.74-.23-.86-.98-1.44-1.47-2.12-.14-1.15-1.17-3.3-2.08-4.11l-.13-.92c-.17-1.19-1.43-1.6-1.95-2.41-.7-1.08-1.13-2.02-2.44-2.54-.42-.17-.69-.87-1.45-.72-.31.06-.64-.44-.78-.73-.38-.8-1.42-.56-2.09-.79-1.19-.41-3.23-1.09-4.37-.66-.59.22-1.54.14-2.05.44-1.19.71-2.34,1.19-2.95,1.62l-1.6,1.12c-.26.18-.63.58-.86.83-.64-.03-1.2.05-1.6.6-.43.6-1.99,2.18-2.12,2.37-.77,1.1-1.54,2.01-2.41,3.02-.6.7-.72,2.17-1.67,2.43-.21.06-.47.18-.58.25s-.03.5-.09.64l-.75,1.83c-.86.41-1.43.9-1.86,1.68l-.67,1.23c-.32.58-.46,1.25-.81,1.82l-1.21,1.97c.48-.79-1.51,3.77-1.64,3.96-.17.25-.08,1-.38,1.22ZM201.56,56.99l.32-1.92c.07-.42.05-.79-.2-1.14-.73.63-1.3,1.23-1.72,2.04.28.58.85.97,1.6,1.02ZM182.01,61.36c.85-.34,1.56-.76,2.13-1.57.51-.73,1.25-.5,1.22-1.21,0-.16-.27-.45-.44-.44-.56.02-1.28,1.94-3.86,2.5-.42.09-.71.27-.99.67.72.57,1.29.31,1.95.05ZM225.61,64.62c.49-.43.11-1.21-.53-1.32-.03.17-.1.64-.13.88-.02.21.49.59.66.44ZM204.94,73.1c.2-.33.21-.99-.2-.97-.39.02-.74,1.23-.2,1.42.12.04.27-.23.4-.45ZM203.69,80.74c.5-.94.42-1.61.58-2.5l.55-3.05c.03-.14-.37-.51-.45-.42s-.3.36-.32.48l-.35,2.53c-.09.64.01,1.33-.15,1.95-.09.36-.14.65.14,1ZM216.84,118.63l2.1.19c.52.51,1.71,1.27,2.48,1.48,1.42.41,1.19,1.66,2.12,2.35,1.19-.47-.36-.69-.57-2.04-.09-.56-.08-1.32-.26-1.77-.53-1.34-1.01-2.54-1.46-3.88-.19-.57-.48-1.04-.87-1.5l-.14-1.23c-.37-.48-.66-.93-.67-1.53s-.4-1.07-.55-1.57c-.52-1.73-1.06-2.65-1.23-3.2-.37-1.19-.7-2.2-1.31-3.32-.4-.73-.43-1.77-.75-2.55-.8-1.92-.5-2-1.79-4.34-.22-.39-.4-.68-.37-1.16.11-1.47-.83-.42-.79-3.78.02-1.6-.82-.9-1.12-2.33-.15-.72-.4-1.3-1.1-1.67l-.92,2.2c-.25.6-.31,1.38-.5,2.01-.37,1.25-.65,2.39-.95,3.66-.08.33-1.07,3.03-1.26,3.42-.42.9-.82,1.71-1.1,2.67l-.42,1.44c-.08.26-.39.74-.53,1,.05.9-.22,1.58-.63,2.33l-2.3,4.21-2.12,2.8-.82,1.4-.64,1.09c-.74,1.27-1.31,1.67-1.8,2.89l-.86,2.16c-.08.19-.13.58,0,.68.94.67.97-1.15,2.92-.83.77.13,1.64.14,2.4.15,1.08.01,2.06-.29,3.12-.47,2.26-.38,3.16.6,4.4-1.09.43-.07,1.13-.28,1.5-.32l2.21-.19c.56-.05,1.13-.12,1.59-.26.53.35,2.14.81,2.97.89ZM220.76,87.2c-.43-.03-.86.49-.79.82.09.39.34.83.78.76.04-.44.04-.97,0-1.57ZM233.85,102.9c.42-1.18.33-2.28,0-3.5-.09-.34-.06-.95-.33-1.12-.78.35-.44,1.11-.48,1.65-.12,1.41-.11,2.75.32,4.2.56-.36.34-.86.48-1.23ZM185.49,105.04l.52-1.65c.14-.46.23-.88-.16-1.35-.32.6-.86,2.42-.91,2.98,0,.08.25.42.31.36s.22-.25.25-.34ZM184.77,111.46l.1-2.18c.08-1.72,1.43-3.32-.11-3.13l-.53,2.32c-.2.89-.14,1.82-.28,2.71-.12.78-.34,1.54-.4,2.37.89-.4,1.19-1.16,1.23-2.09ZM245.68,111.75c-.41.5-.03,1.3.5,1.51.16.06.62-.09.63-.25.03-.48-.68-1.17-1.13-1.25ZM212.6,123.01l-1.75-.12c-.36.21-.64.45-.83.8,1,.26,1.71.06,2.58-.68ZM165.09,126.07c.5-.11,1.15-.4,1.56-.58.23-.09.94.05.94-.3,0-.43-.45-.83-.82-1.01l-1.72,1.23c-.39-.15-1.16-.04-1.23.35.01.16.38.51.55.47l.72-.16ZM163.45,125.75c-.05-.24-.72-.35-.95-.29s-.54.52-.4.74c.33.53,1.49.19,1.34-.45ZM182.91,127.84l.23-1.6c.03-.21-.57-.45-.71-.32l-.48.47c-.66.64-1.3,1.64-.68,2.56.53.04,1.56-.53,1.64-1.11ZM192.19,131.75c.6.07,1.15-.32,1.14-.95l-.05-1.64c-.66-.32-1.28-.26-1.91-.19-.96.1-1.29.59-1.48,1.47l-.36,1.62c-.16.73.08,1.27.72,1.78,1.05-.86.73-2.22,1.94-2.09ZM189.58,134.31c-1,.95-1.75,2.16-1.55,3.49.54.82,2.26-3.28,1.55-3.49ZM259.44,136.51c-1.48-.94-1.4-1.95-2.22-2.03-.56.22-.8,1.28-.35,1.65.37.29,1.22.14,1.64.26.35.1.71.28.93.12ZM254.44,136.35c.13.05.57-.18.54-.31-.04-.14-.1-.36-.16-.48s-.47-.06-.59,0c-.13.07-.4.33-.32.44.06.09.33.26.53.34ZM207.06,136.52c-.03-.11-.49-.34-.57-.36-.21.4-.32.78-.31,1.25.44-.04.96-.59.88-.89ZM231.02,137.8c-.41-1.11-1.41-1.66-1.58-1.22-.05.12-.05.47.02.57l.61.99c.08.13.46.22.63.21.13,0,.38-.43.33-.56ZM144.48,138.36c.86,0,1.57.03,2.17-.71-.56-.37-1.6-.86-2.21-.69l-2.04,1.93c-.28.27-.52.52-.81.87,1.09.73,1.92-.95,2.89-1.4ZM223.53,149.44c.27-.03.19-.82.13-1.08l-.57-2.28c-.04-.17-.21-.58-.37-.56-.12.02-.39.14-.5.23l-1.94,1.62c.29.33.72.68,1.16.97.6.39,1.11,1.19,2.07,1.1Z"/>
  <path d="M283.72,265.49c.14.1.36.55.22.61-.62.29-1.04-.47-1.28-.89l-.77-.33c-.18-.08-.11-.58-.05-.76.07-.21.66-.39.79-.21s.03.81.21.93l.89.64Z"/>
  <path d="M199.49,272.68c-.12.14-.59-.16-.56-.32s.18-.53.29-.65l.46-.5c.13-.14.68.13.73.34l-.93,1.14Z"/>
  <path d="M204.51,168.1c-.53-.4-.28-1.54.45-1.68.27.09.33.64.26.96-.05.25-.4.68-.72.71Z"/>
  <path d="M121.95,199.3c.25.62.97.81.92,1.64-.76-.42-1.39-1.29-1.67-2.22.18-.1.47-.13.51-.02l.24.6Z"/>
  <path d="M234.81,196.2c-.14.26-.67.2-.81.06-.15-.15-.28-.66-.07-.77.18-.09.6-.05.71.07s.25.49.17.64Z"/>
  <path class="cls-1" d="M216.84,118.63c-.83-.08-2.44-.54-2.97-.89-.46.14-1.03.22-1.59.26l-2.21.19c-.38.03-1.08.25-1.5.32-1.24,1.69-2.14.71-4.4,1.09-1.05.18-2.04.48-3.12.47-.76,0-1.63-.03-2.4-.15-1.95-.32-1.98,1.5-2.92.83-.14-.1-.09-.49,0-.68l.86-2.16c.48-1.21,1.06-1.62,1.8-2.89l.64-1.09.82-1.4,2.12-2.8,2.3-4.21c.41-.75.69-1.43.63-2.33.14-.26.45-.74.53-1l.42-1.44c.28-.97.68-1.78,1.1-2.67.18-.4,1.18-3.09,1.26-3.42.3-1.27.58-2.41.95-3.66.19-.63.25-1.41.5-2.01l.92-2.2c.69.37.94.95,1.1,1.67.3,1.42,1.14.73,1.12,2.33-.04,3.36.89,2.31.79,3.78-.04.48.15.77.37,1.16,1.29,2.33.99,2.41,1.79,4.34.32.78.35,1.82.75,2.55.61,1.12.94,2.12,1.31,3.32.17.55.71,1.48,1.23,3.2.15.5.54.96.55,1.57s.3,1.05.67,1.53l.14,1.23c.39.46.68.93.87,1.5.45,1.34.92,2.54,1.46,3.88.18.45.17,1.21.26,1.77.21,1.35,1.75,1.58.57,2.04-.92-.7-.7-1.95-2.12-2.35-.77-.22-1.95-.97-2.48-1.48l-2.1-.19Z"/>
  <path class="cls-1" d="M192.19,131.75c-1.21-.13-.89,1.23-1.94,2.09-.64-.51-.88-1.06-.72-1.78l.36-1.62c.19-.87.53-1.37,1.48-1.47.62-.07,1.25-.13,1.91.19l.05,1.64c.02.62-.54,1.01-1.14.95Z"/>
  <path class="cls-1" d="M223.53,149.44c-.97.09-1.47-.71-2.07-1.1-.44-.29-.88-.63-1.16-.97l1.94-1.62c.11-.09.37-.21.5-.23.15-.02.33.39.37.56l.57,2.28c.06.26.13,1.05-.13,1.08Z"/>
  <path class="cls-1" d="M184.77,111.46c-.04.93-.34,1.69-1.23,2.09.07-.83.28-1.59.4-2.37.14-.9.08-1.83.28-2.71l.53-2.32c1.54-.19.19,1.41.11,3.13l-.1,2.18Z"/>
  <path class="cls-1" d="M144.48,138.36c-.97.44-1.79,2.13-2.89,1.4.29-.35.52-.61.81-.87l2.04-1.93c.61-.17,1.65.32,2.21.69-.6.74-1.31.71-2.17.71Z"/>
  <path class="cls-1" d="M182.01,61.36c-.66.26-1.23.52-1.95-.05.28-.4.57-.58.99-.67,2.58-.56,3.3-2.48,3.86-2.5.16,0,.43.28.44.44.04.71-.71.48-1.22,1.21-.57.81-1.28,1.22-2.13,1.57Z"/>
  <path class="cls-1" d="M233.85,102.9c-.14.38.08.87-.48,1.23-.43-1.46-.44-2.79-.32-4.2.04-.54-.3-1.3.48-1.65.27.18.24.78.33,1.12.33,1.22.41,2.31,0,3.5Z"/>
  <path class="cls-1" d="M182.91,127.84c-.08.58-1.11,1.15-1.64,1.11-.63-.93.02-1.93.68-2.56l.48-.47c.14-.13.74.11.71.32l-.23,1.6Z"/>
  <path class="cls-1" d="M201.56,56.99c-.76-.05-1.33-.43-1.6-1.02.42-.82.99-1.41,1.72-2.04.25.35.28.72.2,1.14l-.32,1.92Z"/>
  <path class="cls-1" d="M165.09,126.07l-.72.16c-.17.04-.53-.31-.55-.47.07-.38.84-.5,1.23-.35l1.72-1.23c.36.18.82.57.82,1.01,0,.35-.71.21-.94.3-.42.18-1.07.47-1.56.58Z"/>
  <path class="cls-1" d="M203.69,80.74c-.27-.35-.23-.63-.14-1,.16-.63.06-1.32.15-1.95l.35-2.53c.02-.12.24-.39.32-.48s.47.28.45.42l-.55,3.05c-.16.89-.08,1.56-.58,2.5Z"/>
  <path class="cls-1" d="M189.58,134.31c.71.21-1.01,4.31-1.55,3.49-.2-1.33.55-2.54,1.55-3.49Z"/>
  <path class="cls-1" d="M259.44,136.51c-.22.16-.58-.02-.93-.12-.42-.13-1.27.03-1.64-.26-.46-.37-.22-1.43.35-1.65.83.07.75,1.09,2.22,2.03Z"/>
  <path class="cls-1" d="M231.02,137.8c.05.13-.2.56-.33.56-.16,0-.54-.08-.63-.21l-.61-.99c-.07-.11-.07-.45-.02-.57.18-.44,1.18.11,1.58,1.22Z"/>
  <path class="cls-1" d="M185.49,105.04c-.03.09-.19.28-.25.34s-.31-.28-.31-.36c.06-.56.59-2.38.91-2.98.4.47.3.89.16,1.35l-.52,1.65Z"/>
  <path class="cls-1" d="M212.6,123.01c-.87.74-1.58.94-2.58.68.19-.35.47-.59.83-.8l1.75.12Z"/>
  <path class="cls-1" d="M245.68,111.75c.45.08,1.16.77,1.13,1.25,0,.16-.47.31-.63.25-.54-.2-.91-1-.5-1.51Z"/>
  <path class="cls-1" d="M163.45,125.75c.14.64-1.02.99-1.34.45-.14-.23.18-.68.4-.74s.89.05.95.29Z"/>
  <path class="cls-1" d="M220.76,87.2c.04.6.03,1.13,0,1.57-.44.07-.69-.37-.78-.76-.08-.32.35-.85.79-.82Z"/>
  <path class="cls-1" d="M225.61,64.62c-.17.15-.68-.23-.66-.44.03-.24.1-.71.13-.88.64.12,1.02.9.53,1.32Z"/>
  <path class="cls-1" d="M204.94,73.1c-.13.22-.28.49-.4.45-.54-.19-.18-1.4.2-1.42.41-.02.4.63.2.97Z"/>
  <path class="cls-1" d="M207.06,136.52c.08.31-.44.86-.88.89-.01-.47.1-.85.31-1.25.08.01.54.25.57.36Z"/>
  <path class="cls-1" d="M254.44,136.35c-.2-.08-.47-.25-.53-.34-.08-.11.19-.37.32-.44.12-.06.54-.12.59,0s.12.34.16.48c.03.13-.41.35-.54.31Z"/>
</svg>