<?xml version="1.0" encoding="UTF-8"?>
<svg id="Layer_2" data-name="Layer 2" xmlns="http://www.w3.org/2000/svg" viewBox="0 0 432 288">
  <defs>
    <style>
      .cls-1 {
        fill: #fff;
      }
    </style>
  </defs>
  <path class="cls-1" d="M154.76,0c-1.67,1.65-2.75,3.71-2.94,6.18l-1.01,1.05c.4,1.21,1,2.12,2.06,2.96,1.34-1.25,2.2-2.66,3.12-4.14.85-1.37,1.04-2.54.79-4.1-.08-.51.43-1.46.14-1.94h277.29v288H2.2V0h152.56ZM187.35,134.49l5.66-5.64c1.63-1.63.27-5.45-2.02-6.11-2.87-.83-5.66-1-8.55-1.44l-2.91-.44-10.92-1.23c-1.94-.22-6.29-.37-6.72-2.76,1.99.38,3.8.64,5.93.82l-3.4-7.11-3.5-7.51c-.46-.99-1.64-1.05-2.54-1.12l-3.26-.24v-.25c.86-.19,1.3-.29,1.87-.55l2.7-1.2c2.24-1,4.4-2.04,6.75-2.82l9-2.96c.7-.23,1.36-.38,2.03-.64,3.1-1.19,6.14-2.17,9.62-3.15-1.3,2.38-2.52,4.72-3.37,7.27.64,1.93,7.42,1.97,9.19,2.03,1.27.04,2.45.14,3.59-.56.5-.31,1.44-1.45.86-2.05l-3.44-3.53c-1.34-1.37-2.71-2.48-4.18-3.71.6-.1,1.25.08,1.65.48l8.3,8.26c.24.24,1.16.39,1.19.87.04.68-.16,1.97-.5,2.55-.18.31-1.1.55-1.47.48-1.68-.34-3.35-.14-5.02-.05l-4.32.24-4.56.26c-4.21.24-5.14-.68-6.21,1.8l-5.13,11.89c-.32.74-.33,2.2.21,2.72,2.38,1.28,4.99,1.47,7.66,1.35l3.53-7.8c.37-.81,1.03-1.38,1.97-1.42l4.21-.15,4.32-.25,4.07-.24,2.63-.23,3.61-.25,3.59-.24,2.55-.26c2.37-.25,4.51-1.89,4.33-4.42-.06-.8-.36-2.16-.82-2.68l-2.21-2.45c-.71-.79-1.37-1.56-1.96-2.34,1.45,0,1.72,1.03,2.32,1.76l5.5,6.75,8.6,10.18c.98.03,2.01-.58,2.63-1.38,2.12-2.78,3.51-5.98,3.93-9.47.26-2.11.93-3.95,1.85-5.85,1.03-2.11,1.92-4.18,2.73-6.42.76-2.08-1.5-3.12-1.63-4.27,1.31.78,2.23,3.4,3.65,3.63l.47,2.03c.32,1.4-.99,2.73-1.44,3.94l-.79,2.13-1.15,2.78c-.39.95-1.84,5.86-1.89,6.98-.59.83-1,1.74-1.29,2.74l-.64,2.18c-.78,2.65-1.94,4.25-3.88,6.32-.19,3.06,3,6.32,6.16,5.58s6.06-2.42,9.05-3.84l15.79-7.45c2.79-1.32,3.55-.15,5.55,1.48,2.73,2.23,5.47,4.23,8.34,6.34.81.6,7.09.62,9.45-1.08,2.7-1.95,6.02-8.05,6.04-10.43l.07-9.86c0-1.14.23-2.6,1.24-3.31l11.4-8.01,7-5.27c1.84-1.38,2.09-4.22.66-6.29-.98-1.02-2.3-1.7-3.59-2.19l-7.09-2.74c-.8-.31-1.54-.69-2.32-1.05-2.61-1.22-3.29-1.46-6.01-2.36l-2.18-.72-2.04-.76c-1.94-.72-2.82-1.81-3.44-3.66-1.1-3.27-2.36-6.39-3.9-9.5l-5.23-10.58c-.72-1.46-1.88-2.68-3.37-2.82l.08.55c.01.07-.21.25-.28.28l-2.1.88c-.34.14-.98.5-1.21.82l-3.23,4.43c-1.6,2.2-2.93,4.32-4.47,6.84.73-.55,1.17-1.27,1.88-2.12-.04.6-.39,1.19-.76,1.81l-.51.83-1.04,1.64c-1.73,2.74-.63,1.84-2.28,3.76-.61.71-.81,1.81-1.82,2.07l.19-.49c.02-.06.04-.3-.01-.26l-.4.26c-1.12.73-2.97,1.43-4.14,1.41-2.78-.03-5.67.55-8.3.07-1.59-.29-2.77-.33-4.39.12s-3.45.58-5.15.79l-3.74.46c-1.26.15-1.09,3.37-1.75,2.25l-.14-.24c-.43-.73-.88-1.54-1.2-2.38l-4.88-13.08c-.42-1.12-.49-1.93.45-2.82l5.34-5.03c.61.33,1.13.65,1.65.83l4.43,1.51c.03,1.6.27,2.89.41,4.39l.3,3.08.25,2.43c.12,1.18-.09,2.87.73,3.85.87,1.04,2.39,1.51,3.51,2.24s2.31,1.34,3.73,1.09l6.49-1.14c.96-.17,2-1.18,1.79-2.16-.44-.62-1.48-1.16-2.2-1.58l-3.59-2.13c-1.67-.99-2.48-2.38-2.56-4.29-.07-1.57-.24-3.18-.43-4.79l-.51-4.33c.95-1.81,2.04-3.5,2.44-5.5,1.47-7.48,1.7-9.61.05-17.07-.68-3.08-2.2-7.56-5.33-8.77-4.57-1.76-7.21,2.3-12.74,2.97-1.54.19-3.03,1.21-3.76,2.4-.13.22-.86.34-.89.55s-.04.67-.08.89l-.56,2.71-1.09,5.02c-.07.34-.2,1.23-.17,1.57l.45,5.44-.38,1.2c.72.23,1.7.77,2.04,1.28-.48,1.1-1.7-.05-2.16.2-.68.37-1.91,1.18-2.97.7-.39,1.18.46,2.35,1.2,3.28l.85,1.07-3.99,2.74c-1.09.75-2.47,1.01-3.7.89l-16.19-1.6c-3.43-.34-7.82-.88-9.58,2.47-.2.39-.26,1.2-.47,1.7-1.42,3.35,5.76,1.81,6.92,1.64l2.39-.34c1.34-.19,2.91-.31,3.97.18l.26.82-1.3.09c-4.08.9-3.56,1.6-6.27,2.6-.94.35-1.81.93-2.68,1.31l-5.58,2.42-4.66,2.25-3.46,1.64c-.98.47-1.86.71-2.96.69-3.78-.06-1.28-1.34-6.45-3.69l-2.57-1.17c-.9-.41-1.75-.77-2.59-1.24l-4.78-2.64-1.79-.99c-.75-.41-1.45-.69-2.35-.55l-.13-.42c-.02-.07-.43,0-.51.03l-2.18.92c-.64.27-.85.9-.6,1.59.46,1.3-.79,2.75-.88,3.65l-.21,2.26c-.05.57-.05,1.08,0,1.65l.58,7.32.34,3.7.23,2.86c.18,2.24-.04,4.75-1.55,6.51-1.72,2.01-3.55,3.85-5.65,5.39-.58.43-1.1.79-1.59,1.29l-1.45,1.49-1.35,1.24-3.68,4.08c-2.57,2.85-3.66,2.43-5.09,5.94l-.05,2.94c1.26,1.27,3.12.84,4.5.07,2.82-1.58,3.45-2.56,5.31-5.06l2.36-3.17c1.21-1.63,2.65-3.29,4.71-3.87,1.14-.32,2.06-.59,2.88-1.53l3.17,1.42-3.2-.59c-.98-.18-2.24,1.05-3.02,1.9-1.03,1.12-1.66,2.85-2.45,4.23.2.28.4.44.34.57l-.34.68c-.39.78-.75,1.47-1.18,2.19l-2.34,3.88-1.29,2.32-1.41,2.64-1.61,3.03c-.81,1.51-1.54,3.37-3.1,4.27-1.29.74-2.99.29-4.38.46l-11.95,1.44-5.08.69c-2.04.28-4.03.78-6.03,1.44-1.86.62-2.33,2.32-2.86,4.1l.09-2.98c-.63,1.59-.7,4.27.75,5.65l6.28,5.96,5.28,5.01,3.25,3,3.83,3.42c.63.57,1.54,1.41,1.71,2.31.66,3.6-1.01,6.36-.48,9.3.83,1.48,7.31,4.07,7.56,3.96.11-.04.31-.43.33-.57l2.25-14.34c.21-1.31-.82-2.35-1.53-3.03l-2.55-2.43,13.42,4.43,20.09,5.61c.87.24,1.21-.05,1.98-.48.69-.38,2.36-.06,3.03.44,1.17.86,2.1,1.89,2.9,3-1.49.58-1.97,3.65-1.71,4.6l.36-1.76c1.18-.5,2.73-1.09,3.82-.42.32.2.66,1.19.54,1.53-.11.3-.46.65-.91,1.06l.86.87-.92.83-1-.34c-.41.43-1.69.6-1.91.12l-.77-1.71-.34,1.46c-1.64-.1-2.53.9-3.87,1.51l-1.92.88c-1.2.55-2.08,1.66-2.98,2.55l-1.96,1.92c-2.02,1.98-1.2.88-1.68,3.36-.66-.55-.52-1.58,0-2.25l2.01-2.6c.08-.1.11-.8-.02-.78l-.59.07c-.14.02-.09.2-.11.57l-.99.21c-1.18,1.21-2.1,3.48-1.34,5.14.12.27.33.59.35.85.1.94.09,2.09.44,2.92.89,2.11,2.49,3.72,4.04,5.31,2.82,2.89,6.01,4.96,9.61,6.74,4.25,2.1,9.59,4.47,13.5.21,2.17-2.37,2.8-5.21,3.69-8.17l1.32-4.43c.12-.4.69-.79,1.06-.88l-.8-.57c-.16-.11.18-.46.25-.62l-.67-1.33c-.14-.27-.61-.59-.68-.86-.07-.23.3-.94.2-1.16-1.44-3.04-5.23-6.22-8.26-7.89-1-.55-2.52-.61-3.58-.98l.09-1.1c.03-.35.9-.38,1.4-.4l-1.8-8.5c-.37-1.73.82-2.84,1.9-3.84l3.13-2.89,5.27-5.02c1.29-1.22,2.47-2.45,3.8-3.77ZM219.36,20.15c-.56-.67-.59-.83.22-.42.85-1.48-.44-.71,1.66-3.27-.26-.39-1.27-.8-1.74-.79l-.42.94c-.07.17-.45.08-.78.13.31,1.35-.61,1.68-1.45,2.24-.31.42.21,1.58.7,1.64.65.09,1.55-.13,1.8-.48ZM63.73,23.01c1.04-.09,1.44-1.09,1.7-1.95.17-.57-.39-1.4-1-2.16l-.73,1.41c-.39.75-.61,2.24.02,2.7ZM135.77,30.88l.89,1.03.98-3.22c.12-.41.1-1.3.06-1.69l-.68-.23c-.1-.04.24-.27.35-.27h.48s-.1-.5-.1-.5c-.19-.91-2.81,1.14-2.39,3.59l-.68,2.37,1.03,1.36.53-1.13c-.44-.28-.93-.91-.47-1.31ZM36.01,32.68c-.31-.35-1.39-.82-1.81-.65-1.33.52-2.22,2.06-1.96,3.48.24,1.31,3.99-.47,3.77-2.83ZM160.76,53.03c.51.57,2.3.29,2.97-.14.21-.71.26-1.99,0-2.57l-.59-1.34c-.1-.22-.86-.45-.98-.23l-.41.77-2.11,1.03-.2,1,1.32,1.49ZM92.21,103.17l.57-1.84c-.52-.91.56-3.4.48-3.36l.77-.36-1-3.48c-.08-.28.02-.83-.23-.86s-.93-.1-.84-.09c.04.72.03,1.18-.24,1.29l-.86.35c.3-.12-.73,3.84-1,4.56l-.81,2.15c1.45,1.93-1.27,1.68-.13,3.17,1.95,2.54,1.15-2.14,3.29-1.54ZM273.19,195.95l.17-.57c.02-.06.11.06.17.13l.2.23c.1.18.2.41.09.5l-.67.54c.41.27,1.09.69,1.6.87l2.52.86c-.44.49-.32.41-.07.54h.8c.15,0,.44.18.51.24-1.56.47-2.77,1.03-4.15,1.74l-1.27.66c-.76.4-1.96.87-2.3,1.71-.67,1.67.18,3.11.91,4.7-1.54-1.13-2.52-2.71-3.12-4.48l-1.57-4.66c-.19-.55-.47-.88.23-1.38l-.24-.31-1.26.64-2.41,1.21c-.26-.69,1.07-1.68.19-1.86-.95-.2-1.41.99-2.91,2.65l-1.19,1.31c-.22.24-.53.51-.59.73s.37.68.6.8c1.83,1,.07,1.17.94,4.44.59,2.23,1.93,4.06,3.2,6.02.2.31,2.56,5.77,2.52,5.63l.34,1.05c.07.21.72.17.89.11l-.51-.95c.43-.3,1.88,1.41,1.91,1.64s-.34.61-.55.85l-.21,1.43c.08.24-.1.1-.52-.27-.29-.05-.85.24-.66.49l.45.61c-.53.05-.85.12-1.6.44,1.7.57,3.39-.5,3.69-2.33.16-.94,1.05-1.61,2.04-1.38,3.25.75,6.47.68,9.76.05l5.22,3.7c1.53,1.08,3.16,2.36,3.3,4.42.16,2.43-.68,5.24-1.25,7.6l1.01.45c-.26.62-.31.7-.21.36l-.48-.48c-.07-.07-.38.14-.38.23,0,.23.07.8.24.87.05.02,3.31-.53,4.24,1.02l.45,1.66-.68.39c-.45.03-.47.04-.01.04l.39.3.84.66-2.9.69c-.41.1-1.09-.61-1.47-.99-.24-.25-1.2.14-1.28.51l-.26,1.22c-.15.72,0,1.08.25,1.74.68,1.82.22,3.91.02,5.81l-.17,1.65c2.09,2.81,6.49,1.87,9.03.29l10.05-6.24,7.58-4.64c1.74-1.07,3.67-1.44,5.59-.88l3.74,1.1,14.76,3.94c1.88.5,3.52.31,5.36-.49,1.18-.51,2.13-2.06,2.51-3.54l-3.48-14.87-1.99-7.28c-.19-.69.18-1.65.63-2.19l3.38-4.11,2.06-2.73,5.39-6.86c.59-.75,1.11-1.6,1.67-2.4,1.46-2.06,2.84-3.99,4.19-6.15.36-.57.43-1.47.47-2.16.1-2.09-1.16-3.83-3.07-4.2-.04-.28-.07-.66-.23-.63l-.6.13c.6.32.52.33.09.41-4.28,1.03-3.81-.59-6.2.08-.31.09-1.04.03-1.33.02-.51.65-1.06,1.21-1.88,1.4l.21-1.36-2.98.28-4.2.17-3.09.16-2.66.21c-2.65.21-5.75,1.43-7.42-1.21l-2.8-4.44c.76-.27,1.81-.4,2.35-.84.91-.74,1.04-2.27.94-3.39l-.52-5.8-.3-4.29-.22-3.39-.26-4.25c-.19-3.1.63-5.32,3-7.25l8.42-6.87,5-3.91c.85-.66,1.65-1.56,2.4-2.37,1.24-1.35,1.5-3.04.95-4.92-.38-1.29-1.76-2.63-3.38-3.07l-6.38-1.75-5.72-1.68-7.37-2.01c-2.37-.64-4.24-2.15-5.11-4.55l-7.02-19.26c-.77-2.12-2.46-6.21-5.09-5.87-2.05.26-3.65,4.04-5.53,5.51l.19.76c.03.13-.55.03-.6.15-.48,1.25-1.51,3.63-2.38,4.53-1.02,1.05-1.57,2.25-2.36,3.51l-1.37,2.2-2.05,3.63c-2.01,3.56-2.97,6.15-8.36,6.37l-6.14.25-4.25.28-2.45.19c-4.63.36-11.67.05-11.85,6.73.49,1.37,1.35,2.87,2.28,3.91l3.96,4.47,2.63,2.9c1.67,1.84,3.02,2.59,5.37,5.41,3.27,3.93,1.07,2.39,3.16,5.18-.72-.06-1.35-.04-1.93.06l-2.38.41c-.55.09-1.48.94-1.77,1.33l1.37.43-3.24,1.95c0,1.14-1.02,1.41-1.66,2.12-.86.95-2.14,2.76-2.16,4.4l2.87.88c.21.07.63.44.74.59.09.12-.31.46-.46.46l-.63-.04.05.51c.01.11-.25.27-.4.38-3.72,2.53-3.35,7.21-4.27,7.9-.19.14-.62-.38-.84-.5l-1.39-.76-.93,1.27c-.19.26-.3.5-.42.42l-.57-.37.54,1.3-.97.65c-.72,1.35-.46,2.89-.05,4.32,1.14,3.95,4.92,5.13,8.53,4.91l3.9-.25c1.39-.09,4.12.42,5.72.78,2.74.62,1.94-.66,4.41-1.33,1.17,0,1.41,1.4,1.75,2.01l.62,1.12c.76-.97.21-1.84-.12-2.72l-.71-1.9c.51-2.04,2.43-3.02,3.48-5.85,3.24-1.3,6.44-2.51,9.76-3.65,1.8-.62,3.41-1.33,4.75-2.74,4.36-4.59,3.9-8.24,7.07-8.62l1.31-7.42,1.88-11.09c.29-1.68.47-3.31.6-4.97l.19-2.47.26-3.36.18-3.41c.02-.33.16-.7.34-.98l.53,1.55c.5,1.46,1.23,2.76,2.87,3.17l14.67,3.69c1.7.43,2.73,2.21,1.98,3.63-.7,1.31-2.17,1.53-3.22,2.36l-8.66,6.92c-.81.64-1.99,1.52-2.17,2.58-.44,2.64.13,5.2.31,7.83l.21,3.14.24,3.61c.2,2.93,1.31,3.11.58,4.34-.24.39-.92,1.08-1.38,1.04-.62-.06-1.14-.89-1.47-1.34l-3.03-4.21c-1.39-1.94-3.13-3.68-5.86-3.33-.72.09-3.85,1.99-3.43,2.71l1.45-.11c.15.62-.26,1.31-1,1.85l-.79-.88-2.91,10.49-1.35,5.42-2.15,9.2c-.33,1.4-2.85,2.47-4.04,2s-1.9-.66-3.04-.91l-6.68-1.46c-.55-.12-1-.23-1.53-.21l-3.99.17c-2.91.12-8.76,1.35-11.42,2.71-.04.4.02.66.19.6,2.61-.79,6.3-1.92,8.22-1.12ZM80.22,126.77c1.22-.79,2.48-1.19,2.93-2.6l.17-1.92,1.11-.26c-1.36-1-1.05-2.07-.8-3.19l.6-2.68-1.15-1.38-1.08,2.56c-.23.56-.54.97-.87,1.49l-1.46,2.29c-.33.02-.57-.03-.61.12l-.18.69-.52,2.12c-.37,1.52-.04,3.03.49,4.47.9-.26.87-1.4,1.36-1.71ZM93.57,213.39l-1.21,1.04-.92.45.46.3c.06.04.01.21-.05.22l-.34.06-.06,2.02c.63.89,1.34,2.28,2.24,3.01l11.26,9.11,3.19,2.35c2.45,1.81,3.43,1.74,3.58,5.95l.13,3.68c.06,1.66.03,3.24.22,4.92.14,1.27.2,2.65.18,4.07l-.04,2.06c0,.1-.23.38-.21.47l.11.41-.07,1.82c-.04,1.14,0,2.2.09,3.3.07.83-.06,1.74.31,2.63.47,1.12,1.75,1.86,2.69,2.01,1.42.22,2.35-.19,3.47-.91l14.98-9.7,4.92-3.33c.67-.13,1.82.42,2.44.68l10.87,4.48,12.95,5.06c2.49.97,5.35-.24,6.6-2.41,1.03-1.8.86-3.57.17-5.3l-1.58-3.97-6.68-16.08-1.73-4.11c-.11-1.3,1.36-2.5,2.1-3.45l5.71-7.33,9.4-12.59c.79-1.05.55-2.69.1-3.76-.35-.85-1.44-1.71-2.45-1.98-.39.19-1.03.49-1.39.52l-3.67.34-2.41.21c-2.45.21-3.71.28-6.02.1l-3.26-.27-2.99-.29c-1.55-.15-3.39-.48-4.87-.04-2,.58-3.94.42-5.02-1.51l-3.47-6.22c2.97-3.47,2.01-7.34.41-11.34-.25-.63-.56-1.16-.91-1.74l-2.17-3.61c-1.25-2.08-2.65-2.86-2.04-3.85,2.73-1.49,5.26-2.99,8.09-4.24.83-.37,2.2.2,3.13-.42l.38-1.32c1.54-2.58,2.32-2.38,3.63-4.8l-3.07-1.81c-1.24-.73-3.17-1.69-4.71-.88l-12.55,6.62c-.55.29-.65.81-.74,1.52-1.39-.99-2.69-1.83-4.09-2.37l-1.28-.02,1.02-.79c-1.74-.7-3.77-.93-5.33.24l.61.17c.08.02.04.1,0,.2-3.63,1.65-4.46,3.63-6.06,6.55l-1.18,2.17-3.3,5.78c-1.67.72-1.39,1.83-2.64,1.7l-.12.55c-.03.14-.56-.37-.68-.34l-1.82.88-.96.46c.82,1.19,4.35,2.05,4.77,1.52l.8-1.02,1.08,3.33.68,1.7c-.62-.4-.99-1.04-1.52-1.64-.29-.26-1.02-.59-1.6-.85l-3.38,3.5c-.48.5-.35,2.17-.21,2.72,1.85-.43,2.38.9,3.18,2.56-.97.44-1.41-2.81-3.09-1.42l1.24,1.7c.27.37-.56,1.27-.94,1.61l1.37,3.45c2.51.77,2.27-1.03,4.15-2.23,1.55-.06,3.15-.24,4.45-.51.05-1.52.61-.34,1.65-2.54.18.47.38,1.31.66,1.58l1.51,1.47c.69-.23,2.02-.43,2.29.51.16.56-.56,1.69-1.1,1.74-.32.03-.81-.1-.92.09l-.39.66,1.28.21c-.88.36-2.03.54-2.91.19l-.77-.31c-.79-.32-1.38,4.56-4.04,6.21-.48.3-1.27.85-1.74.97l-2.02.52c-1.14.3-2.18.76-3.18,1.12-.6.22-1.34.35-1.91.75l-.95.28c-3.24.65-5.17,1.31-7.88,2.81l-1.6.88c-1.11-.1-1.56.48-2.31,1.12ZM168.45,159.73l.88-.12c.16-.02-.07-.62-.2-.72-.16-.12-.78-.29-.89-.24l-.07,1.67c0,.14.43.22.62.26.13.02.13-.39.04-.48l-.37-.37ZM250.74,199.43c.13-1.45,0-2.84.46-3.81l.91-1.9c.94-.65,1.76-1.45,2.16-2.39.26-.04.83-.02.91-.2.06-.13.21-.46.26-.61,2.36-1.62,2.03-4.52.72-6.83l-3.27-5.77c-.68-1.2-4.28-2-5.81-3.39l-2.65-.17,3.36-.22c-.03-1.29-.32-2.35-.56-3.58-.42-2.11-2.14-3.74-4.47-3.74-2.1,0-.23-2.34-5.3-1.54-.31.14-.88.79-1.13,1.12s.55,1.13.98,1.46l-.83,3.06-.67,3.07c1.7.93,3.62.65,5.59.59-1.47.37-2.84.55-4.57.76l.56.95-2.5,1.42c-.11.06-.51.09-.64.09-.1,0-.24-.25-.19-.34l.32-.57-1.1.11c-.21.02-.18.47-.16.77-2.13-.53-1.21.86-2.36.57-.18-.04-.49-.41-.41-.58l.3-.63.53.48c.11.1.44-.3.33-.38-.22-.15-.56-.4-.44-.44l.59-.21c.61-.05.4-.33-.33-.56l1.52-.51c.5.5,1.79.53,2.07-.35.17-.63-.4-1.92-1-2.39-1.49-1.17-4.54-.49-3.36-.33l.55.07c.84.11,1.74.78,2.42,1.4l-1,1.11c-.27.3-1.24.06-1.62-.02-.14.63-1.04,1.75-1.6,1.26-.46-.4-1.08-.85-1.37-1.15-6.51-6.79-6.24-1.69-9.45-5.5-.54-.64-2.21-1.02-3.07-1.29-2.61-.84-.5-2.98-2-4.14l-.36.97c-.05.14-.44-.16-.61-.18l-.91-.11c-.19-.02-.37.43-.51.66l-.5-.43c-.73-.63-1.56,3.09-2.12,2.18l-.61-.99c-.12.74-.11,1.68.05,2.43l.92.33c-1.86,1.93-1.42-.41-5.06,2.76-.93.81-1.76,1.61-2.51,2.57l-2.31,2.95c.92.91-.35,2.84-.56,2.68l-.75-.54-.46,3.43c-.02.17-.64.58-.71.43l-.33-.76-.79.73.39-1.09-.52-.31c-.1-.06.02-.35.14-.37.32-.06.31-.9.21-1.45-1.18-.04-1.17,2.21-.8,3.01-.57.09-1.57-.18-1.94-.71-1.04-1.51.56-2.47-.51-2.83-.95,1.03-.75,2.71.3,3.68,2.15,2,4.53.73,5.07,2.49.87,2.83,1.21,3.65,3.62,5-.85,2.09.58,6.15,2.43,7.54,2.85,2.14,6.74,1.2,9.64-.47,2.36-1.36,4.53-2.71,6.51-4.55,3.41-3.18,6.24-6.72,8.28-10.91.77-1.59.79-3.06.87-4.91l1.38,1.57c-1.56,2.04-2.02,4.99-2.64,6.12-1.49,2.73-2.54,6.06-1.2,9.07l.67,1.49c.8,1.79,2.61,2.98,4.51,3.58,4.99,1.58,14.07,2.14,19.05.16ZM194.66,172.74c.34,1.58,2.19,4.83,3.51,4.1,1.03-.56,1.84-1.48,2.58-2.43.97-1.23,2.04-2.25,3.17-3.3l1.15-1.08c.42-.4.83-1.31.81-1.97l-2.66-1.55c-2.27-1.32-3.06-.91-5.64.17l-.14,1.26,1.33.25.26-1.81c1.63,1.27-.26,3.05-1.2,3.59-.15.09-.62-.38-.55-.35.51-.44.96-.88,1.21-1.23-.63.18-1.2.3-1.75.23-.38-.05-.61-.76-.86-1.4-1.47.64-2.9,1.59-4.2,2.78.08.48.32,1.15.54,1.49.57.87,2.07-.43,2.42,1.25ZM189.79,172.34l-1.02,1.08c.95.05,1.85-.89,2.27-1.74.66-1.36-.26-2.79-1.36-3.55-.82-.57-1.84-.62-2.37.4l1.3.77c.16.1.85-.19.91-.02l.27.68c.07.18.25.4.14.44l-.47.19c-1.37.55.93,1.12.34,1.74ZM252.58,175.15l1.04-.54c-.9-.32-1.8-.17-2.51.49l-.46.42c-.1.09.24.46.35.39.07-.05.27-.16.35-.21.34-.13.8-.34,1.23-.56ZM389.6,180.89l-.54-1.49c-.17-.48,1.68-.98,1.23-1.6l-.5-.68.67-.51.55-1.54c-.55-.55-1.99-.83-2.74-.28l-2.25,1.65c-.24.18-.65.78-.53,1.02l.41.84c-.95.77.39,3.06,1.09,3.04.79-.03,1.94-.3,2.6-.43ZM404.12,176.73c.09-.14.03-.92-.03-.8l-2.16.36c.22,1.09,1.79,1.09,2.19.44ZM111.57,177.41c.41-.35.36-.5-.26-.37-.23-.45-.78-.83-1.26-.67-.31.1-.8.44-1.1.71l-1.05.93,1.7.05c.71.02,1.21-.09,1.96-.64ZM19.21,202.55l-.25-.08c-.88.61-1.59.97-2.28,1.72.44.19,3.14-1.45,2.53-1.64ZM68.58,224.03c-1.02-.46-2.05-.3-2.95.71.43.31,1.33.46,1.89.41.4-.03.82-.58,1.06-1.12ZM424.41,250.93c-.47-.41-4.09-.34-4.15.39.24.27,3.96-.26,4.15-.39ZM359.2,265.54c.08-.29.16-.66.02-.78l-.57-.53c.31-.69.17-1.41-.51-1.87l-1.07-.73c-.21-.15-.86.51-1.15.47-.71-.09-1.86-.3-2.78-.48l-.49,1.28,3.22,2.26c.62.43,1.93.59,2.58.66.13.02.54.48.57.35l.18-.64ZM421.6,263c.12,0,.7-.24.61-.31-.1-.08-.26-.21-.36-.27-.07-.04-.17-.03-.42-.07-2.1-.35.46.33-1.98-.02-.09-.01-.16.25-.12.33s.28.28.37.28l1.91.06ZM425.45,262.92c.41.07,1.26-.03,1.32-.25-.59-.09-1.39-.23-1.81-.15l-1.39.26c.24.18.74.51,1.02.66.23.12.61-.56.85-.52ZM233.09,265.62c.08-.57.17-1.56-.07-1.95s-.98-.79-1.48-.87c-1.24-.19-2.07.17-2.48,1.26-.67,1.75,1.55,3.02,1.36,3.08.17-.05.58-.24.77-.27.58-.1,1.73-.05,1.91-1.25ZM415.91,263.74l1.38.44c-.33-.53-.55-.67-.89-.8l-.77-.31c-.16-.06-.49.35-.67.38l-1.4.18c.16.24.69.38,1.01.33l1.33-.2ZM410.36,266.12c.03-.64.01-.95.19-.92l.63.08-.48.5c-.05.06.27.37.35.35l1.09-.31c-.35-.51-.82-1.13-1.19-1.08-.47.06-.96.27-1.23.64-.62.84-1.77-.37-3.36.95l2.39-.02c.49,0,1.33-.09,1.6-.17ZM149.43,271.07l.02-1.8c0-.33-.04-.75-.24-.73-.14.01-.67-.02-.65.12s.08.5.09.7l.11,1.77c0,.12.29.46.37.56s.3-.47.3-.61ZM394.9,269.09l1.56.12c-.84-.99-1.65-.2-2.43-.03l-2.36.5c.39.92,1.2.27,1.68.28.25.05.84.37.97.15l.58-1.02ZM410.19,271.02l-2.29.66,1.14-.98-1.39.35-.18,1.11.93-.2c.17-.04.35.47.43.63l1.36-1.57ZM433.85,274.55l.04-1.17-1.34-.47c-.1-.03-.48.1-.6.16-.1.04.12.24.22.28l.31.11c.16.06.49.24.65.33.12.07-.33.4-.36.43l1.09.32ZM431.22,275.71c.15,0,.73-.02.68-.15l-.21-.58c.06-.12.39-.45.26-.54l-.58-.38c-.13-.09-.61.28-.51.39.14.16.63.68.46.72l-.86.17c-.08-.13.04.32.15.33l.62.04ZM425.74,276.21l.95-.23c-.83-.44-1.45-.12-2.19.09l-1.47.42c.95.46,1.59.54,2.48.61l.68.06c.1,0,.04-.36-.03-.44l-.43-.51ZM403.25,278.09c.02-.17-.43-.74-.72-.86s-.98.09-1.47.3c.09.22.47.77.74.8s.74-.1,1.45-.25ZM393.35,278.97l-.54.14c-.08.02-.06-.21.01-.24l.42-.17.43-.17c.08-.03-.02-.35-.1-.33l-.43.09-2.16.49c1.22.99,2.56,1.18,3.69.47-.45-.16-1.05-.35-1.32-.28ZM413.97,280.35l-1.25-.84c.37-.57,2.57.19,2.25-.47-.07-.15-.15-.58-.32-.56l-.67.08c-.76.09-1.4.63-2.03,1.08-.97.7-2.54-.13-3.58,1.05l2-.24c1.28.72,1.47-.23,3.59-.09ZM427.3,281.37l-1.58.02,1.37-1.14c1.47,1.17.79.29,3.3.22.17,0,.09-.51-.07-.51-.33,0-.9-.06-.97-.45.98-.05,2.29-.13,3.03-.34.12-.03.48-.71.35-.72s-.53-.05-.66-.04l-.7.05c-.08,0,.14.4.18.5l-3.19-.11.92,1.57c-1.61-.58-2.63-.99-3.83-.03l.03.71c-.47-.31-.9-.68-1.14-.58l-.87.37c.75.35,1.14.54,1.57.9.69.56,1.85.32,2.25-.42ZM396.7,280.47l-1.09-.4c.12.23.55.74.81.86.28.13,1.02-.18,1.03-.63,1.3.96,2.53.36,3.73-.28l2.3-1.23-1.75.16c-.11.16-.26.58-.41.6-1.63.13-1.49.35-2.36-.12-.28-.15-.54-.27-.55-.13l-.05.45c-.59-.07-1.17.26-1.66.74ZM407.63,280.01l1.41-.53c-.47-.45-1.3-.52-1.88-.05-.33.26-.52.73-.39,1.05.1.25.63.54.89.48l.55-.13c.11-.02-.04-.41-.15-.4-.08.01-.15.01-.38.01h-.59c-.09,0,.02-.41.11-.42l.42-.03ZM385.4,280.75l-.39-.92-.86.47c-.18.1-.5-.48-.55-.54l-2.43.45c.29.31.81.2,1.3.25l2.93.29ZM422.03,281.94l.79-.76c-.47-.11-1.39-.37-1.77-.26l-1.73.5,1.73.19c.14.02.47-.44.55-.32l.43.65ZM403.34,282.26l2.48-.02c.08,0,.41-.21.47-.25s-.01-.13-.08-.18c-.64-.16-1.25-.35-1.83-.58-.16.07-.46.27-.63.19l-.75-.38c-1.47,1.51-1.24.36-2.65,1.29l1.82.35c.74.14,1.24.23,2.14.29l-.96-.71ZM381.11,281.76l-1.57.79.2-.68c.02-.08-.44-.14-.51-.1l-1.45.78,2.46.45.88-1.23ZM415.89,284.13l1.49-.19c.53-.07,1.26-.14,1.7-.56l-.45-.87c1.01.12,1.93.11,2.87-.14-.66-.28-1.06-.33-1.6-.32h-.79s-1.82.19-1.82.19l.07.48-3.16.03.49,1.13-.93.14,1.14.52c.13.06.46.07.55-.01s.31-.38.42-.39ZM392.89,284.5l-1.42-.23c.7-.52,1.72-.62,2.62-.64.24-1.46-3.2.45-3.73.7-.2.1-.96-.27-1-.06-.06.28-.17.84-.17.82,2.82-.65,3.64.68,3.7-.6ZM430.4,284.51l1.52-.45.45.27c.09.05.5-.09.3-.08l-.96-.85c-.17-.15-.71.45-.94.47l-2.13.12,1.25.7c.43.24.83.39,1.46.38l-.95-.56ZM398.71,285.36l-.51-.13c-.1-.03.13-.18.22-.21l1.03-.3-2.45.11c-.25-.05-.67-.39-.89-.27l-.85.46-1.4-.1c1.57,1.51.89-.57,5.05.86.1.03.47-.24.37-.27l-.58-.14Z"/>
  <path d="M156.92,0c.29.48-.22,1.44-.14,1.94.25,1.56.06,2.74-.79,4.1-.91,1.48-1.77,2.89-3.12,4.14-1.06-.84-1.66-1.74-2.06-2.96l1.01-1.05c.19-2.47,1.27-4.53,2.94-6.18h2.16Z"/>
  <path d="M187.35,134.49c-1.32,1.32-2.51,2.55-3.8,3.77l-5.27,5.02-3.13,2.89c-1.08,1-2.27,2.11-1.9,3.84l1.8,8.5c-.51.01-1.37.04-1.4.4l-.09,1.1c1.06.37,2.57.43,3.58.98,3.03,1.67,6.82,4.86,8.26,7.89.1.22-.26.93-.2,1.16.08.27.55.59.68.86l.67,1.33c-.07.16-.4.51-.25.62l.8.57c-.37.08-.94.47-1.06.88l-1.32,4.43c-.89,2.97-1.52,5.81-3.69,8.17-3.9,4.26-9.25,1.89-13.5-.21-3.59-1.78-6.79-3.85-9.61-6.74-1.55-1.59-3.14-3.2-4.04-5.31-.35-.83-.34-1.98-.44-2.92-.03-.25-.23-.57-.35-.85-.76-1.66.16-3.93,1.34-5.14l.99-.21c.03-.37-.03-.55.11-.57l.59-.07c.13-.02.09.68.02.78l-2.01,2.6c-.52.67-.66,1.7,0,2.25.49-2.48-.34-1.38,1.68-3.36l1.96-1.92c.91-.89,1.78-2,2.98-2.55l1.92-.88c1.34-.61,2.23-1.6,3.87-1.51l.34-1.46.77,1.71c.22.48,1.5.31,1.91-.12l1,.34.92-.83-.86-.87c.45-.41.8-.76.91-1.06.12-.35-.22-1.33-.54-1.53-1.09-.67-2.64-.08-3.82.42l-.36,1.76c-.26-.95.21-4.02,1.71-4.6-.8-1.11-1.73-2.14-2.9-3-.66-.49-2.33-.82-3.03-.44-.77.42-1.11.72-1.98.48l-20.09-5.61-13.42-4.43,2.55,2.43c.71.67,1.74,1.72,1.53,3.03l-2.25,14.34c-.02.14-.22.53-.33.57-.26.1-6.73-2.48-7.56-3.96-.53-2.94,1.14-5.7.48-9.3-.16-.89-1.07-1.74-1.71-2.31l-3.83-3.42-3.25-3-5.28-5.01-6.28-5.96c-1.45-1.38-1.38-4.06-.75-5.65l-.09,2.98c.53-1.78,1-3.48,2.86-4.1,2-.66,3.99-1.17,6.03-1.44l5.08-.69,11.95-1.44c1.4-.17,3.1.28,4.38-.46,1.57-.9,2.3-2.76,3.1-4.27l1.61-3.03,1.41-2.64,1.29-2.32,2.34-3.88c.43-.72.79-1.41,1.18-2.19l.34-.68c.07-.13-.13-.29-.34-.57.79-1.39,1.42-3.12,2.45-4.23.78-.85,2.05-2.07,3.02-1.9l3.2.59-3.17-1.42c-.82.94-1.74,1.21-2.88,1.53-2.06.58-3.49,2.24-4.71,3.87l-2.36,3.17c-1.86,2.5-2.49,3.48-5.31,5.06-1.37.77-3.23,1.2-4.5-.07l.05-2.94c1.43-3.51,2.53-3.1,5.09-5.94l3.68-4.08,1.35-1.24,1.45-1.49c.49-.5,1-.86,1.59-1.29,2.09-1.54,3.93-3.38,5.65-5.39,1.5-1.76,1.73-4.27,1.55-6.51l-.23-2.86-.34-3.7-.58-7.32c-.04-.57-.04-1.07,0-1.65l.21-2.26c.08-.9,1.33-2.34.88-3.65-.24-.69-.03-1.32.6-1.59l2.18-.92c.08-.03.49-.1.51-.03l.13.42c.91-.14,1.6.14,2.35.55l1.79.99,4.78,2.64c.85.47,1.69.83,2.59,1.24l2.57,1.17c5.17,2.35,2.67,3.63,6.45,3.69,1.11.02,1.98-.22,2.96-.69l3.46-1.64,4.66-2.25,5.58-2.42c.87-.38,1.75-.96,2.68-1.31,2.71-1,2.2-1.7,6.27-2.6l1.3-.09-.26-.82c-1.07-.49-2.63-.37-3.97-.18l-2.39.34c-1.16.16-8.34,1.71-6.92-1.64.21-.49.27-1.3.47-1.7,1.75-3.35,6.14-2.81,9.58-2.47l16.19,1.6c1.23.12,2.61-.14,3.7-.89l3.99-2.74-.85-1.07c-.74-.93-1.59-2.09-1.2-3.28,1.06.48,2.29-.33,2.97-.7.46-.25,1.68.91,2.16-.2-.35-.52-1.32-1.05-2.04-1.28l.38-1.2-.45-5.44c-.03-.35.1-1.23.17-1.57l1.09-5.02.56-2.71c.05-.22.05-.68.08-.89s.76-.33.89-.55c.73-1.19,2.22-2.22,3.76-2.4,5.53-.67,8.16-4.73,12.74-2.97,3.12,1.2,4.65,5.69,5.33,8.77,1.65,7.46,1.42,9.58-.05,17.07-.39,2-1.49,3.69-2.44,5.5l.51,4.33c.19,1.61.36,3.22.43,4.79.08,1.91.89,3.3,2.56,4.29l3.59,2.13c.72.42,1.75.96,2.2,1.58.21.99-.83,2-1.79,2.16l-6.49,1.14c-1.42.25-2.56-.34-3.73-1.09s-2.63-1.19-3.51-2.24c-.82-.98-.61-2.67-.73-3.85l-.25-2.43-.3-3.08c-.15-1.49-.38-2.78-.41-4.39l-4.43-1.51c-.53-.18-1.04-.5-1.65-.83l-5.34,5.03c-.94.89-.87,1.7-.45,2.82l4.88,13.08c.32.85.77,1.65,1.2,2.38l.14.24c.66,1.12.49-2.1,1.75-2.25l3.74-.46c1.69-.21,3.57-.34,5.15-.79s2.8-.41,4.39-.12c2.63.48,5.52-.1,8.3-.07,1.17.01,3.03-.69,4.14-1.41l.4-.26c.05-.03.03.2.01.26l-.19.49c1.01-.26,1.21-1.36,1.82-2.07,1.65-1.92.54-1.02,2.28-3.76l1.04-1.64.51-.83c.38-.62.73-1.22.76-1.81-.71.85-1.15,1.57-1.88,2.12,1.54-2.52,2.87-4.65,4.47-6.84l3.23-4.43c.23-.32.87-.68,1.21-.82l2.1-.88c.07-.03.29-.2.28-.28l-.08-.55c1.49.14,2.65,1.36,3.37,2.82l5.23,10.58c1.54,3.11,2.8,6.23,3.9,9.5.62,1.85,1.5,2.94,3.44,3.66l2.04.76,2.18.72c2.73.89,3.4,1.14,6.01,2.36.78.36,1.52.74,2.32,1.05l7.09,2.74c1.28.5,2.6,1.17,3.59,2.19,1.43,2.07,1.18,4.91-.66,6.29l-7,5.27-11.4,8.01c-1.01.71-1.23,2.17-1.24,3.31l-.07,9.86c-.02,2.37-3.34,8.48-6.04,10.43-2.36,1.7-8.63,1.68-9.45,1.08-2.87-2.1-5.6-4.1-8.34-6.34-2-1.63-2.76-2.8-5.55-1.48l-15.79,7.45c-2.99,1.41-5.81,3.07-9.05,3.84s-6.35-2.52-6.16-5.58c1.94-2.07,3.1-3.67,3.88-6.32l.64-2.18c.29-1,.7-1.9,1.29-2.74.05-1.11,1.49-6.03,1.89-6.98l1.15-2.78.79-2.13c.44-1.21,1.76-2.53,1.44-3.94l-.47-2.03c-1.43-.23-2.35-2.85-3.65-3.63.14,1.15,2.39,2.18,1.63,4.27-.81,2.24-1.7,4.31-2.73,6.42-.92,1.9-1.6,3.74-1.85,5.85-.42,3.49-1.81,6.7-3.93,9.47-.61.8-1.64,1.42-2.63,1.38l-8.6-10.18-5.5-6.75c-.59-.73-.86-1.75-2.32-1.76.59.78,1.25,1.55,1.96,2.34l2.21,2.45c.46.51.76,1.88.82,2.68.18,2.53-1.96,4.17-4.33,4.42l-2.55.26-3.59.24-3.61.25-2.63.23-4.07.24-4.32.25-4.21.15c-.94.03-1.6.6-1.97,1.42l-3.53,7.8c-2.67.12-5.28-.07-7.66-1.35-.55-.52-.53-1.98-.21-2.72l5.13-11.89c1.07-2.48,2-1.56,6.21-1.8l4.56-.26,4.32-.24c1.67-.09,3.34-.3,5.02.05.37.08,1.29-.17,1.47-.48.34-.57.54-1.87.5-2.55-.02-.47-.94-.62-1.19-.87l-8.3-8.26c-.4-.4-1.05-.59-1.65-.48,1.47,1.23,2.85,2.34,4.18,3.71l3.44,3.53c.59.6-.36,1.75-.86,2.05-1.15.7-2.32.6-3.59.56-1.77-.06-8.55-.1-9.19-2.03.85-2.56,2.07-4.89,3.37-7.27-3.48.98-6.52,1.97-9.62,3.15-.67.26-1.33.41-2.03.64l-9,2.96c-2.35.77-4.5,1.82-6.75,2.82l-2.7,1.2c-.57.25-1.02.36-1.87.55v.25s3.26.24,3.26.24c.9.07,2.08.13,2.54,1.12l3.5,7.51,3.4,7.11c-2.12-.18-3.94-.44-5.93-.82.42,2.39,4.78,2.55,6.72,2.76l10.92,1.23,2.91.44c2.89.44,5.68.61,8.55,1.44,2.29.66,3.65,4.49,2.02,6.11l-5.66,5.64ZM236.34,23.31c.72-.02,1.31-.13,1.93-.43-1.12-.29-2.08-.34-3.12-.38l.08-.7c.01-.12-.44-.19-.78-.3.52-.49,1.47-1.26,2.3-1.31l2.47-.14c-.85-.49-1.8-.31-2.68-.43-3.44-1.57-4.49-1.19-7.41.51-.85.5.08,1.69.46,2.14l.84.98c.22,1.14.77,2.36,1.69,3.27.24-2.29.31-1.53,1.52-3.24l-.31,1.14c-.05.2.39.58.57.71.68.5.36-1.76,2.45-1.82ZM229.42,33.96c.6,0,.99-.6.95-.94-.06-.5-.15-.98-.33-1.2-.49.49-.78.79-1.05,1.1-.2.22.1,1.04.43,1.04ZM204.39,89.91l10.12-2.06c.77-.38,1.76-.14,2.31.52l2.01,2.42-3.22-15.38-4.46-18.52c-.26-1.09-.82-1.56-1.92-1.76l-6.88-1.23c-.16.93-.26,1.43-.41,2.12l-1.6,7.14,4,6.99c.41.72.41,1.52.02,2.26l-4.62,8.81c-.41.79-.78,1.64-1.16,2.51.63,1.05,1.3,1.94,2.16,2.74l3.65,3.43ZM250.49,94.57c1.58-1.3,2.97-2.64,4.4-3.97l3.87-3.6,3.85-3.57,3.45-3.28,4.09-3.83,4.77-4.58c.57-.55,1.22-1.01,1.74-1.65s0-1.39-.19-1.97l-.87-2.53-.7-1.89-1.52-4.49c-.3-.89-.59-1.74-1.4-2.17-.58-.31-2.02-.68-2.5.12l-6.84,11.36,1.72,1.17c.48.32.31,1.72,0,2.22-.92,1.49-2.01,2.6-3.23,3.79-4.16,4.06-5.21,3.85-9,7.05l-2.49,2.11c-.64.54-1.6.94-2.41,1.44l1.96,2.14,1.74,2.02c1.11,1.29-.19,2.34-.42,4.09ZM186.06,78.27c1.1-.23,1.65-1.23,1.88-2.08l.65-2.49c.62-2.35,1.09-4.82,2.16-6.97.52-1.04.92-1.9.06-2.93-.69-.82-1.82-.75-2.8-.31l-4.33,1.91-6.69,3.18-4.19,2.27c-2.51,1.36-2.56.6-6-1.34-3.77-2.12-7.49-4.41-11.43-6.25-1.42-.66-2.16,1.75-2.06,2.72l.98,9.86.49,4.35c.49,4.36.68,3.28-2.33,6.1,1.07.22,2.07-.32,3.02-.59l1.7-.48c.17-.05.27.56.11.63l-.64.27c.7.32,1.04-.29,1.34-.81l.27-.46c.06-.1.45-.02.59-.11,1.49-.87,3.78-1.57,5.74-1.98l21.48-4.49ZM228.61,85.54c-1.06-3.77-1.99-7.35-3.32-10.92l-3.39-9.08c-.35-.94-1.04-1.41-2.04-1.21-.82.16-1.34,1.17-1.06,2.18,1.85,6.88,3.41,13.68,4.72,20.66.28,1.5,2.1,2.13,3.21,1.76,1.26-.42,2.36-1.73,1.89-3.39ZM239.12,76.42l2.26,2.89c3.11-1.33,6.03-2.69,9.2-3.81,1.18-.41,2.63-.66,2.55-2.32-1.4.2-2.71.25-4.11.34l-4.08.24-3.62.17c-.66.03-1.34.26-1.79.68-.33.31-.81,1.31-.41,1.82ZM266.02,105.09l13.52,10.52c.8.62,1.68,1.38,2.56.61.96-.85,1.08-1.51.68-2.66-.36-1.03-.17-2.51-.09-3.64l.12-1.69.07-12.7c0-.81,1.15-1.44,1.73-1.84l11.82-8.09c.7-.48,1.74-.65,2.06-1.6.18-.51-.16-1.46-.45-2.01-3.79-1.4-7.58-2.57-11.42-3.7-1.35-.4-2.09-.05-3,1.02l-15.32,18.19-2.04,2.31-2.28,2.52-2.75,3.01c-.69.76-1.34,1.4-2.41,1.7l-15.11,4.28c.45.98,1.22,1.71,1.97,1.89,1.41.33,2.15-.12,3.73-.78.11-.05.05-.24.05-.5l10.48-5.02,3.69-1.81c.79-.39,1.49-.69,2.38,0ZM255.57,96.45c-1.12,1.03-1.48,2.61-.64,3.85.75,1.1,2.31,1.71,3.7.92.9-.51,1.63-1.57,2.35-2.36l2.64-2.91,9.79-11.52c.82-.96,1.22-1.84.13-2.78-.86-.74-1.89-.61-2.69.5-.32.45-1.03.91-1.48,1.35l-5.46,5.33-2.52,2.29-2.38,2.17-3.45,3.17ZM234.53,86.44l.45.03c.06,0,.07-.27.03-.32l-2.04-2.39c.28,1.67.64,2.8,1.05,4.1l.5-1.43ZM161.6,94.89l1.94-1.37c1.38-.97,3.22-1.35,4.85-1.87l7.79-2.5c1.14-.37,1.56-1.09,1.37-2.15-.16-.91-1.05-1.58-2.18-1.33l-5.91,1.3c-4.81,1.06-9.77,1.84-14.23,4.04-2,.99-.85,4.55.79,5.31,1.51.7,2.45-.42,3.8-.7.68-.14,1.2-.32,1.78-.73ZM228.96,103.54c.74,1,1.73,1.22,2.42.87,1.1-.56,1-1.37,1.11-2.42l1.12-10.11-2.03,8.94c-.41,1.32-1.12,2.11-2.62,2.72ZM176.71,133.22c1.06-.99,1.1-2.36.02-3.2-.55-.42-1.76-1.07-2.36-.49-.65.63-1.21,1.28-2.02,1.58l-2.66.95c-1.23.44-2.54.19-3.07-1.11l-.88-2.17,2.24-.25-9.29-1.18c-1.39-.18-2.48-1.55-2.99-2.72l-2.41-5.55-4.19-9.22c-.39-.85-1.89-.73-2.63-.53s-1.19.9-1.61,1.7l-1.4,2.67-5.64,11.11c-.76,1.5-2.39,1.56-4.08,1.84l9.05,4.14,11.68,4.64,11.76,4.57c1.01.39,2.54.8,3.46-.07,1.56-1.49,3.31-3,4.59-4.68.93-1.22.5-3.33,2.16-4.13l-1.54,3.8,1.83-1.7ZM157.86,145.26c.9.25,1.61-.55,1.8-1.25.13-.47-.27-1.34-.92-1.6l-8.27-3.23-8.49-3.28c-2.9-1.12-5.55-2.73-8.47-3.75-1.44-.5-2.6,1.38-2.73,2.38-.44,3.51,3.52,3.53,7.56,5.25,1.58.67,3.16.99,4.84,1.44l4.9,1.31,9.77,2.71ZM168.35,170.59c.39-.62-.36-2.14-1.12-2.12-.75.65.26,2.22,1.12,2.12ZM161.99,178.71c.8-1.61,2.09-2.46,3.51-3.38,2.38-1.54,1.5-.27,3.22-1.5-3.53.21-2.38.95-4.13,1.33-1.43.31-1.59,2.16-3.03,2.81-.32,1.7.59,3.79,2.09,4.6-.93-1.28-1.66-2.45-1.67-3.86ZM168.54,179.82l-.24.29-1.95,2.29c.85.78,4.07-4.79,2.19-2.57Z"/>
  <path d="M273.19,195.95c-1.92-.8-5.61.33-8.22,1.12-.17.06-.23-.2-.19-.6,2.66-1.36,8.51-2.58,11.42-2.71l3.99-.17c.54-.02.98.09,1.53.21l6.68,1.46c1.14.25,1.9.45,3.04.91s3.72-.6,4.04-2l2.15-9.2,1.35-5.42,2.91-10.49.79.88c.73-.54,1.15-1.23,1-1.85l-1.45.11c-.41-.72,2.71-2.62,3.43-2.71,2.73-.35,4.47,1.39,5.86,3.33l3.03,4.21c.33.45.85,1.28,1.47,1.34.47.04,1.15-.65,1.38-1.04.74-1.24-.38-1.42-.58-4.34l-.24-3.61-.21-3.14c-.18-2.63-.74-5.19-.31-7.83.18-1.06,1.36-1.93,2.17-2.58l8.66-6.92c1.04-.83,2.52-1.05,3.22-2.36.75-1.42-.28-3.2-1.98-3.63l-14.67-3.69c-1.64-.41-2.38-1.71-2.87-3.17l-.53-1.55c-.18.28-.32.65-.34.98l-.18,3.41-.26,3.36-.19,2.47c-.13,1.66-.31,3.29-.6,4.97l-1.88,11.09-1.31,7.42c-3.17.37-2.71,4.03-7.07,8.62-1.34,1.41-2.96,2.12-4.75,2.74-3.31,1.14-6.51,2.35-9.76,3.65-1.05,2.82-2.97,3.81-3.48,5.85l.71,1.9c.33.89.88,1.76.12,2.72l-.62-1.12c-.34-.61-.58-2.02-1.75-2.01-2.47.68-1.66,1.95-4.41,1.33-1.6-.36-4.33-.87-5.72-.78l-3.9.25c-3.61.23-7.39-.96-8.53-4.91-.41-1.43-.67-2.98.05-4.32l.97-.65-.54-1.3.57.37c.12.08.23-.16.42-.42l.93-1.27,1.39.76c.22.12.65.64.84.5.92-.68.55-5.36,4.27-7.9.15-.1.41-.26.4-.38l-.05-.51.63.04c.15,0,.55-.33.46-.46-.11-.15-.52-.52-.74-.59l-2.87-.88c.02-1.63,1.3-3.45,2.16-4.4.65-.71,1.67-.99,1.66-2.12l3.24-1.95-1.37-.43c.3-.39,1.22-1.23,1.77-1.33l2.38-.41c.58-.1,1.21-.12,1.93-.06-2.09-2.79.11-1.25-3.16-5.18-2.35-2.82-3.7-3.57-5.37-5.41l-2.63-2.9-3.96-4.47c-.92-1.04-1.78-2.54-2.28-3.91.18-6.67,7.22-6.37,11.85-6.73l2.45-.19,4.25-.28,6.14-.25c5.4-.22,6.36-2.81,8.36-6.37l2.05-3.63,1.37-2.2c.79-1.27,1.34-2.46,2.36-3.51.87-.89,1.89-3.28,2.38-4.53.05-.13.63-.02.6-.15l-.19-.76c1.88-1.46,3.49-5.25,5.53-5.51,2.63-.33,4.32,3.75,5.09,5.87l7.02,19.26c.88,2.4,2.75,3.91,5.11,4.55l7.37,2.01,5.72,1.68,6.38,1.75c1.61.44,3,1.78,3.38,3.07.55,1.88.29,3.57-.95,4.92-.74.81-1.55,1.71-2.4,2.37l-5,3.91-8.42,6.87c-2.37,1.93-3.19,4.15-3,7.25l.26,4.25.22,3.39.3,4.29.52,5.8c.1,1.12-.03,2.65-.94,3.39-.54.44-1.58.56-2.35.84l2.8,4.44c1.67,2.64,4.77,1.42,7.42,1.21l2.66-.21,3.09-.16,4.2-.17,2.98-.28-.21,1.36c.82-.19,1.38-.75,1.88-1.4.29,0,1.03.06,1.33-.02,2.39-.67,1.92.95,6.2-.08.43-.09.51-.09-.09-.41l.6-.13c.16-.03.19.35.23.63,1.9.37,3.17,2.11,3.07,4.2-.03.69-.11,1.59-.47,2.16-1.35,2.15-2.74,4.09-4.19,6.15-.57.8-1.08,1.65-1.67,2.4l-5.39,6.86-2.06,2.73-3.38,4.11c-.44.54-.82,1.5-.63,2.19l1.99,7.28,3.48,14.87c-.38,1.48-1.34,3.03-2.51,3.54-1.84.81-3.48.99-5.36.49l-14.76-3.94-3.74-1.1c-1.92-.56-3.84-.19-5.59.88l-7.58,4.64-10.05,6.24c-2.54,1.58-6.94,2.52-9.03-.29l.17-1.65c.2-1.9.66-3.98-.02-5.81-.25-.66-.4-1.02-.25-1.74l.26-1.22c.08-.36,1.04-.76,1.28-.51.38.39,1.06,1.09,1.47.99l2.9-.69-.84-.66-.39-.3c-.46,0-.43,0,.01-.04l.68-.39-.45-1.66c-.93-1.55-4.19-1-4.24-1.02-.17-.07-.23-.64-.24-.87,0-.09.31-.3.38-.23l.48.48c-.1.33-.05.25.21-.36l-1.01-.45c.57-2.36,1.41-5.17,1.25-7.6-.14-2.07-1.77-3.34-3.3-4.42l-5.22-3.7c-3.29.62-6.51.69-9.76-.05-1-.23-1.89.44-2.04,1.38-.31,1.83-1.99,2.9-3.69,2.33.74-.32,1.07-.4,1.6-.44l-.45-.61c-.18-.25.37-.54.66-.49.42.37.6.5.52.27l.21-1.43c.22-.25.59-.63.55-.85s-1.48-1.95-1.91-1.64l.51.95c-.16.07-.82.1-.89-.11l-.34-1.05c.05.14-2.32-5.32-2.52-5.63-1.27-1.96-2.61-3.79-3.2-6.02-.87-3.27.89-3.44-.94-4.44-.23-.12-.65-.58-.6-.8s.37-.49.59-.73l1.19-1.31c1.5-1.66,1.96-2.84,2.91-2.65.88.18-.45,1.17-.19,1.86l2.41-1.21,1.26-.64.24.31c-.7.5-.41.82-.23,1.38l1.57,4.66c.6,1.77,1.58,3.35,3.12,4.48-.74-1.59-1.58-3.03-.91-4.7.34-.85,1.54-1.32,2.3-1.71l1.27-.66c1.38-.72,2.59-1.27,4.15-1.74-.07-.06-.36-.25-.51-.25h-.8c-.25-.12-.37-.04.07-.53l-2.52-.86c-.51-.18-1.2-.59-1.6-.87l.67-.54c.11-.09.01-.33-.09-.5l-.2-.23c-.06-.07-.15-.18-.17-.13l-.17.57ZM309.23,128.22l-2.68-7.2c-.58-1.55-.95-3.26-1.84-4.67-.71-1.13-2.73-.44-3,.43l4.39,6.81c1.05,1.62,1.92,3.1,3.12,4.64ZM301.41,158.59l1.38-8.81.72-4.09c.32-1.83.71-3.57.81-5.42l.18-3.22.23-3.15c.07-1,.15-1.87-.47-2.56-1.35-1.48-3.76-1.34-4.62-.19-.47.63-.53,1.5-.23,2.3l-.05,11.98-.26,2.42-.26,4.32-.15,2.88c-.15,2.79-.74,4.3.89,4.78.64.19,1.68-.23,1.83-1.23ZM284.18,165.91c1.92-.64,3.92-.88,5.7-.17l1.75,2.08c.53-.64,1.12-1.47,1.6-2.23-.78-1.3-.49-2.48-.39-3.86l.27-3.8.12-3.14.25-4.32.24-4.07.24-3.37c.13-1.81.08-3.46.01-5.28l-.16-4.75-.13-2.38c-1.63,2.62-2.31,2.68-5.61,2.75l-8.23.18-5.55.22c-.93.04-2.06.75-2.34,1.41-.42.96-.14,2.17.52,2.86l2.26,2.35c1.08,1.13,2.21,2.49,3.33,3.41.64-.29,1.51-.43,1.66.11.1.39-.12,1.04-.4,1.41l3.64,3.9c2.3,2.47.83,4.55-.38,7.93-.41,1.15-.79,2.11-1.36,3.22.58,1.87,2.02,3.16,2.96,5.55ZM288.93,170.43c.02-.34-.03-.61.09-.7l.55-.42-1-.38.71-.88c-.69.18-.96.18-.4-.43-.15-.53-.54-1.3-.97-1.52-.4-.21-1.28-.25-1.75-.13l-1.56.42c-.27.07-.7.75-.61,1.01s.6.44,1.03.68c-.22.73-.55,2.5.47,2.67,1.88.31,2.32.69,3.44-.32ZM276.29,168.92c-.15-.11-.74-.28-.92-.19-.49.24-.97,1.12-1.13,1.84,1.31.11,2.54-1.3,2.05-1.65ZM268.57,173.02c-.73.5-1.28.88-1.65.7l-2.04-.97c-.74-.35-1.29-.65-2.24-.66.47.57.93.89,1.53,1.15l2.84,1.21,1.59-.67-.04-.77ZM270.43,182.16c.42-.45-.33-1.67-.94-1.72l-.23,1.82c-.02.15.43.71.53.6l.64-.69ZM299.84,215.36l13.96-6.78c.85-.41,1.78-.79,2.55-1.31l11.1-7.57-3.66.06c-1.28.02-2.49-.56-3.19-1.61l-5.92-8.94-3.27-4.66c-.67-.96-1.52-1.4-2.77-1.19-.9.15-1.47,1.2-1.74,2.26l-4.11,16.25c-.38,1.52-2.43,2.24-3.68,2.48l-5.1.97-1.9,4.81c-.39.99-.65,2.24-1.1,3.18-.71,1.47-.23,2.5.65,3.73.52.72,1.02,1.54,2.18,1.06,1.98-.83,3.91-1.73,6-2.74ZM342.19,203.03c.49-.65,1.03-1.54,1.32-2.1-.04-1.28-1.08-2.01-2.07-2.21-.08,1.08-.28,2.01-.73,2.94-1.84,3.38-3.74,6.48-5.29,10.22l6.76-8.84ZM275.62,207.36c.67.37,1.21,1.3,1.84.37l-1.43-.53-.6-3.9-.11-.74c-.02-.15-.63.14-.61.29l.33,2.52c.09.67.16,1.59.04,2.01-.73.16-1.74.53-1.21,1.07.57.53,1.36-.75,1.76-1.08ZM303.21,219.11c-.68.33-1.03,1.12-.96,1.77.05.46.65,1.45,1.29,1.27,3.66-1.05,7.05-2.5,10.66-3.79,3.06-1.1,5.96-2.13,8.77-3.74l6.58-3.75c1.5-.85,1.27-3.06.38-4.23-.76-1.01-1.91-1.22-3-.5l-5.62,3.7c-1.65,1.09-3.38,2.1-5.14,2.95l-2.62,1.27-5.77,2.87-4.56,2.18ZM284.35,209.95c-.56-.58-1.51-.62-2.1-.18.17.37.65.69.98.76.36.07.95-.19,1.11-.57ZM270.22,210.88c.12-.15.13-.81-.05-.79l-.66.05c-.5.03-1.43.75-1.23,1.15.47.65,1.45.19,1.94-.41ZM314.27,232.82c1.38-.89,2.82-.99,4.39-.55l13.11,3.68,1.3.37.75.99.52-1.7c.98-.91,1.04-1.96.69-3.18l-3.82-13.14c-.49-1.68,1.12-2.83,1.82-4.39l-10.37,5.66-19.1,7.01c-4.11,1.51-5.36.72-5.9,5.45l-.54,4.77c-.21,1.87,1.45,4.44,2.69,3.82,3.01-1.5,5.82-3.2,8.64-5.03l5.83-3.77ZM291.47,221.95c-.25-.16-.82-.61-.93-.95-.09-.28.78-.44,1.26-.58-.22-.26-.71-.78-.95-1.01l.5-.67c.12-.16-.2-.72-.34-.88l-1.32-1.64-1.45,1.37.02.7c0,.15-.52.22-.68.27l-1.91.54c1.54,1.67,1.12,3.42,4.04,3.61.31-.7.99-.77,1.74-.75Z"/>
  <path d="M93.57,213.39c.75-.64,1.2-1.22,2.31-1.12l1.6-.88c2.71-1.49,4.64-2.16,7.88-2.81l.95-.28c.57-.41,1.31-.53,1.91-.75,1-.37,2.04-.83,3.18-1.12l2.02-.52c.47-.12,1.25-.67,1.74-.97,2.67-1.65,3.25-6.53,4.04-6.21l.77.31c.87.35,2.02.17,2.91-.19l-1.28-.21.39-.66c.11-.18.61-.06.92-.09.54-.05,1.26-1.18,1.1-1.74-.28-.95-1.6-.75-2.29-.51l-1.51-1.47c-.27-.26-.47-1.11-.66-1.58-1.05,2.2-1.61,1.02-1.65,2.54-1.3.27-2.9.45-4.45.51-1.88,1.2-1.64,3-4.15,2.23l-1.37-3.45c.38-.34,1.21-1.24.94-1.61l-1.24-1.7c1.68-1.39,2.12,1.86,3.09,1.42-.8-1.66-1.32-2.99-3.18-2.56-.14-.54-.27-2.22.21-2.72l3.38-3.5c.57.26,1.3.58,1.6.85.54.6.91,1.25,1.52,1.64l-.68-1.7-1.08-3.33-.8,1.02c-.42.54-3.95-.33-4.77-1.52l.96-.46,1.82-.88c.12-.03.66.48.68.34l.12-.55c1.25.14.97-.98,2.64-1.7l3.3-5.78,1.18-2.17c1.6-2.92,2.43-4.9,6.06-6.55.04-.1.07-.18,0-.2l-.61-.17c1.56-1.17,3.58-.94,5.33-.24l-1.02.79,1.28.02c1.41.54,2.71,1.38,4.09,2.37.08-.71.19-1.24.74-1.52l12.55-6.62c1.54-.81,3.47.15,4.71.88l3.07,1.81c-1.31,2.42-2.1,2.22-3.63,4.8l-.38,1.32c-.93.62-2.3.05-3.13.42-2.83,1.25-5.35,2.75-8.09,4.24-.61.99.79,1.77,2.04,3.85l2.17,3.61c.35.58.66,1.11.91,1.74,1.6,4,2.56,7.87-.41,11.34l3.47,6.22c1.08,1.93,3.02,2.09,5.02,1.51,1.48-.43,3.32-.11,4.87.04l2.99.29,3.26.27c2.31.19,3.57.12,6.02-.1l2.41-.21,3.67-.34c.36-.03,1-.33,1.39-.52,1.01.27,2.1,1.14,2.45,1.98.45,1.07.69,2.7-.1,3.76l-9.4,12.59-5.71,7.33c-.74.95-2.21,2.15-2.1,3.45l1.73,4.11,6.68,16.08,1.58,3.97c.69,1.72.86,3.5-.17,5.3-1.24,2.17-4.11,3.38-6.6,2.41l-12.95-5.06-10.87-4.48c-.62-.26-1.78-.81-2.44-.68l-4.92,3.33-14.98,9.7c-1.12.72-2.05,1.14-3.47.91-.93-.15-2.22-.89-2.69-2.01-.37-.89-.24-1.79-.31-2.63-.1-1.09-.13-2.16-.09-3.3l.07-1.82-.11-.41c-.02-.09.21-.38.21-.47l.04-2.06c.03-1.41-.03-2.8-.18-4.07-.19-1.68-.16-3.26-.22-4.92l-.13-3.68c-.15-4.21-1.13-4.14-3.58-5.95l-3.19-2.35-11.26-9.11c-.9-.73-1.61-2.12-2.24-3.01l.06-2.02.34-.06c.07-.01.11-.18.05-.22l-.46-.3.92-.45,1.21-1.04ZM130.87,174.42c-1.9.03-2.83,1.35-4.21,2l-1.19-.49c-.32-.13-.55-.25-.71-.37-.9-.65,3.53-4.34,4.29-4.47,1-.02,2.19.3,3.17.47-.49-.79-1.87-1.33-2.63-1.04-.13.05-.57.5-.6.38-.25-1.27-2.39-.59-2.66-.46l-1.96.98c-.78.39-1.35.96-1.49,1.89l-.3,2.08c-.14.99.71,2.18,1.36,3.2l.44-1.56,1.98.37-.38.85c-.1.22.33.84.55.95.23.12.77-.54.64-.76l-.55-.95,4.25-3.06ZM120.75,176l-.86-1.23c-.15-.22-.85-.32-1.1-.21-.21.09-.52.63-.41.83.37.57,1.69,1.13,2.37.61ZM126.65,185.4c-.42.64-.63,1.54-.24,2.02.13.16.73.34.91.25.1-.05.49-1.72-.67-2.27ZM151.67,224.67l7.91-9.82c1.14-1.42,2.14-2.76,3.63-3.92.97-.75.93-3.18-.57-3.44-1.73-.3-3.64-.07-5.39-.01l-7.14.24-5.2.19c-.86.03-2.32.42-3.02-.37l-7.02-12.51-6.94,1.05-2.28,6.92c-.21.63-.32,2.1.13,2.57,1.78,1.86,3.45,3.41,5.24,5.17l8.62,8.43c1.38,1.35,2.56,2.8,4.14,4l8.61,6.55-1.1-2.83c-.27-.69-.11-1.59.38-2.21ZM133.96,241.64l1.73-1.31c.73-.55,1.74-1.06,2.63-.72l3.08,1.18-2.32-2.17-4.81-4.55c-2.46-2.32-5.14-6.49-7.89-9.62-3.02-3.44-5.76-6.95-8.6-10.57-.46-.58-1.35-1.2-2.07-1.03l-11.33,2.66c-.73.17-1.06,1.37-.96,2s.54,1.23,1.12,1.69l6.61,5.15c2.44,1.9,4.86,3.54,7.45,5.29.26.18.66.88.66,1.22l.11,11.89c.01,1.58.16,3.08.1,4.7s.94,3.08,2.66,2.8c.79-.13,1.29-1.22,1.86-1.69,3.13-2.56,6.66-4.42,9.96-6.92ZM147.78,233.05c.18-1.7-4.91-4.25-6.94-6.26l-10.13-9.98c-.68-.67-1.77-.31-2.34.25-.45.44-.63,1.51-.06,2.17l3.09,3.61c1.69,1.98,3.19,3.94,4.8,5.99,1.71,2.17,3.89,3.94,5.83,5.9,1.02,1.03,2.15,1.5,3.67,1.11.94-.24,1.92-1.27,2.08-2.79ZM155.82,246.69c.21.09.61.75.82.69.29-.09.71-.11.95-.1.71-.43,1.56-1.71,1.47-2.7-.1-1.07-1.03-1.94-1.44-2.84l-2.54-5.65c.03,2.14,1.46,3.6,1.79,5.68.14.89-1.35,2.57-2.33,2.58-3.06-.68-5.87-1.43-8.84-2.26-.91-.25-1.73-.65-2.72-.58l12.85,5.18Z"/>
  <path d="M250.74,199.43c-4.98,1.97-14.05,1.42-19.05-.16-1.9-.6-3.71-1.78-4.51-3.58l-.67-1.49c-1.35-3.01-.3-6.34,1.2-9.07.61-1.12,1.08-4.08,2.64-6.12l-1.38-1.57c-.08,1.84-.1,3.32-.87,4.91-2.04,4.2-4.86,7.74-8.28,10.91-1.97,1.84-4.14,3.19-6.51,4.55-2.91,1.67-6.79,2.61-9.64.47-1.85-1.39-3.28-5.44-2.43-7.54-2.41-1.35-2.75-2.17-3.62-5-.54-1.76-2.92-.49-5.07-2.49-1.04-.97-1.24-2.65-.3-3.68,1.07.36-.54,1.32.51,2.83.37.53,1.36.8,1.94.71-.37-.8-.38-3.05.8-3.01.1.55.11,1.38-.21,1.45-.12.02-.24.31-.14.37l.52.31-.39,1.09.79-.73.33.76c.07.16.69-.26.71-.43l.46-3.43.75.54c.22.15,1.48-1.77.56-2.68l2.31-2.95c.75-.95,1.58-1.76,2.51-2.57,3.64-3.17,3.2-.83,5.06-2.76l-.92-.33c-.15-.75-.17-1.69-.05-2.43l.61.99c.56.91,1.39-2.81,2.12-2.18l.5.43c.14-.24.32-.69.51-.66l.91.11c.17.02.56.32.61.18l.36-.97c1.5,1.16-.62,3.3,2,4.14.86.28,2.53.65,3.07,1.29,3.21,3.81,2.93-1.29,9.45,5.5.29.3.91.75,1.37,1.15.56.49,1.47-.63,1.6-1.26.38.08,1.35.32,1.62.02l1-1.11c-.68-.62-1.58-1.29-2.42-1.4l-.55-.07c-1.19-.15,1.86-.84,3.36.33.6.47,1.17,1.76,1,2.39-.28.88-1.57.85-2.07.35l-1.52.51c.73.23.93.51.33.56l-.59.21c-.12.04.22.29.44.44.11.08-.22.48-.33.38l-.53-.48-.3.63c-.08.17.24.53.41.58,1.15.29.22-1.1,2.36-.57-.02-.3-.05-.75.16-.77l1.1-.11-.32.57c-.05.08.09.34.19.34.13,0,.53-.03.64-.09l2.5-1.42-.56-.95c1.74-.21,3.1-.39,4.57-.76-1.97.06-3.89.35-5.59-.59l.67-3.07.83-3.06c-.43-.33-1.23-1.13-.98-1.46s.82-.98,1.13-1.12c5.07-.8,3.2,1.54,5.3,1.54,2.34,0,4.06,1.63,4.47,3.74.24,1.23.54,2.29.56,3.58l-3.36.22,2.65.17c1.53,1.39,5.13,2.19,5.81,3.39l3.27,5.77c1.31,2.31,1.64,5.21-.72,6.83-.05.15-.2.48-.26.61-.08.18-.64.16-.91.2-.4.94-1.22,1.75-2.16,2.39l-.91,1.9c-.47.98-.33,2.36-.46,3.81ZM241.33,169.01l.02-2.05c-.09-.16-1.02-.31-1.18-.07s-.38.79-.51,1.15l1.67.97ZM239.66,169.87c1.31.67,3.38.48,3.81-1.18l-1.56.65c-.67.28-1.33.34-2.24.53ZM215.57,173.73c-.37-.08-.92.46-1.1.87-.14.33-.03,1.01.15,1.38.93-.46,1.28-1.36.95-2.25ZM209.29,183.93l2.12-2.19.9-.88c.65-.63,1.83-.78,2.92-1.02-2.52-1.27-3.55-.46-5.26.73-.62.43-.86.7-1.2,1.43-1,2.15-.93,3.43,1.08,5.59l-.53-2.32c-.07-.29-.05-1.03-.05-1.35ZM215.11,185.01c.68.63,1.06,1.48,2.14,1.41l-3.27-3.65c.66-.38.99-1.47.61-1.77-.13-.1-.9-.01-.95.14-.15.4-.05,1.31.02,1.74-.79-.06-2.21,0-1.99,1.03.1.47,1.5.05,1.68-.52l1.76,1.62ZM206.59,183.61c-.97,0-1.63.27-2.2.8l.61.56s1.25-.31,1.59-1.36ZM237.11,186.1c-.56-.69-.87-1-1.28-1.23-.3-.16-1,.29-1.3.68.75.67,1.67.86,2.58.55ZM249.56,186.02c.24-.03.66-.36.73-.58.06-.18-.39-.66-.57-.62-.48.13-1.29.82-1.51,1.36l1.35-.16ZM238.97,195.18c-.97-2.62.11-4.78,1.82-6.63.69-.75,1.16-1.29,2.2-1.85l-1.55-.43-2.34.57c-.54.13-1.4,1.03-1.43,1.59l-.12,2.45c-.06,1.13.69,3.89,1.41,4.31ZM242.99,189.58c.15-.99-1.45-1.22-1.61-.73-.27.82,1.52,1.37,1.61.73ZM243.84,189.75c.77-.28,1.23-.47,1.65-.79-.46-.21-.88-.27-1.27-.23-.27.02-.56.46-.8.81-.69,1.02-.23,4.4.19,4.79l.23-4.57Z"/>
  <path d="M194.66,172.74c-.36-1.69-1.85-.39-2.42-1.25-.23-.34-.47-1.01-.54-1.49,1.3-1.19,2.73-2.14,4.2-2.78.25.64.48,1.35.86,1.4.55.07,1.12-.05,1.75-.23-.25.35-.7.79-1.21,1.23-.07-.03.4.44.55.35.94-.54,2.83-2.32,1.2-3.59l-.26,1.81-1.33-.25.14-1.26c2.57-1.08,3.37-1.5,5.64-.17l2.66,1.55c.02.66-.39,1.58-.81,1.97l-1.15,1.08c-1.13,1.05-2.2,2.07-3.17,3.3-.74.94-1.55,1.86-2.58,2.43-1.32.72-3.17-2.52-3.51-4.1Z"/>
  <path d="M80.22,126.77c-.48.31-.46,1.46-1.36,1.71-.53-1.45-.86-2.96-.49-4.47l.52-2.12.18-.69c.04-.15.28-.11.61-.12l1.46-2.29c.33-.52.63-.93.87-1.49l1.08-2.56,1.15,1.38-.6,2.68c-.25,1.13-.56,2.19.8,3.19l-1.11.26-.17,1.92c-.45,1.41-1.71,1.82-2.93,2.6Z"/>
  <path d="M92.21,103.17c-2.13-.6-1.34,4.09-3.29,1.54-1.14-1.49,1.58-1.24.13-3.17l.81-2.15c.27-.72,1.31-4.69,1-4.56l.86-.35c.27-.11.28-.57.24-1.29-.1-.01.59.06.84.09s.15.57.23.86l1,3.48-.77.36c.08-.04-1,2.46-.48,3.36l-.57,1.84Z"/>
  <path d="M389.6,180.89c-.67.13-1.82.4-2.6.43-.69.02-2.04-2.26-1.09-3.04l-.41-.84c-.12-.25.29-.84.53-1.02l2.25-1.65c.74-.54,2.19-.26,2.74.28l-.55,1.54-.67.51.5.68c.45.62-1.4,1.12-1.23,1.6l.54,1.49Z"/>
  <path d="M359.2,265.54l-.18.64c-.03.12-.45-.34-.57-.35-.66-.08-1.96-.23-2.58-.66l-3.22-2.26.49-1.28c.92.18,2.07.39,2.78.48.29.03.93-.62,1.15-.47l1.07.73c.68.46.82,1.18.51,1.87l.57.53c.14.13.06.49-.02.78Z"/>
  <path d="M233.09,265.62c-.17,1.2-1.33,1.15-1.91,1.25-.19.03-.6.22-.77.27.19-.06-2.03-1.33-1.36-3.08.42-1.09,1.25-1.45,2.48-1.26.5.08,1.25.5,1.48.87s.15,1.38.07,1.95Z"/>
  <path d="M160.76,53.03l-1.32-1.49.2-1,2.11-1.03.41-.77c.12-.22.88,0,.98.23l.59,1.34c.26.59.21,1.87,0,2.57-.66.43-2.46.71-2.97.14Z"/>
  <path d="M135.77,30.88c-.47.4.03,1.03.47,1.31l-.53,1.13-1.03-1.36.68-2.37c-.42-2.46,2.2-4.51,2.39-3.59l.1.49h-.48c-.11.01-.46.24-.35.28l.68.23c.04.39.07,1.28-.06,1.69l-.98,3.22-.89-1.03Z"/>
  <path d="M219.36,20.15c-.24.35-1.14.56-1.8.48-.49-.07-1.01-1.22-.7-1.64.84-.56,1.76-.89,1.45-2.24.33-.05.7.04.78-.13l.42-.94c.47,0,1.48.4,1.74.79-2.1,2.56-.81,1.79-1.66,3.27-.81-.41-.78-.26-.22.42Z"/>
  <path d="M36.01,32.68c.22,2.35-3.53,4.13-3.77,2.83-.27-1.42.62-2.96,1.96-3.48.43-.17,1.5.3,1.81.65Z"/>
  <path d="M189.79,172.34c.59-.62-1.71-1.19-.34-1.74l.47-.19c.11-.04-.07-.26-.14-.44l-.27-.68c-.07-.17-.75.12-.91.02l-1.3-.77c.53-1.03,1.55-.97,2.37-.4,1.1.76,2.02,2.2,1.36,3.55-.42.86-1.32,1.79-2.27,1.74l1.02-1.08Z"/>
  <path d="M415.89,284.13c-.11.01-.33.31-.42.39s-.42.07-.55.01l-1.14-.52.93-.14-.49-1.13,3.16-.03-.07-.48,1.82-.18h.79c.54-.02.94.03,1.6.31-.94.25-1.87.26-2.87.14l.45.87c-.44.42-1.18.5-1.7.56l-1.49.19Z"/>
  <path d="M63.73,23.01c-.63-.45-.41-1.95-.02-2.7l.73-1.41c.61.76,1.17,1.6,1,2.16-.26.86-.66,1.86-1.7,1.95Z"/>
  <path d="M396.7,280.47c.49-.48,1.07-.81,1.66-.74l.05-.45c.01-.14.27-.02.55.13.87.47.73.25,2.36.12.15-.01.29-.43.41-.6l1.75-.16-2.3,1.23c-1.2.64-2.43,1.24-3.73.28-.01.46-.75.77-1.03.63-.26-.12-.69-.63-.81-.86l1.09.4Z"/>
  <path d="M403.34,282.26l.96.71c-.9-.07-1.41-.15-2.14-.29l-1.82-.35c1.42-.93,1.18.21,2.65-1.29l.75.38c.17.09.47-.12.63-.19.58.22,1.19.41,1.83.58.07.05.14.13.08.18s-.39.25-.47.25l-2.48.02Z"/>
  <path d="M427.3,281.37c-.4.75-1.57.98-2.25.42-.44-.36-.82-.55-1.57-.9l.87-.37c.24-.1.67.27,1.14.58l-.03-.71c1.2-.96,2.22-.55,3.83.03l-.92-1.57,3.19.11c-.04-.1-.26-.5-.18-.5l.7-.05c.12,0,.53.04.66.04s-.23.68-.35.72c-.73.21-2.05.28-3.03.34.07.39.64.46.97.45.17,0,.24.51.07.51-2.51.07-1.84.95-3.3-.22l-1.37,1.14,1.58-.02Z"/>
  <path d="M413.97,280.35c-2.12-.13-2.3.81-3.59.09l-2,.24c1.04-1.18,2.6-.35,3.58-1.05.62-.45,1.27-.99,2.03-1.08l.67-.08c.16-.02.24.42.32.56.32.65-1.88-.11-2.25.47l1.25.84Z"/>
  <path d="M410.36,266.12c-.27.08-1.11.17-1.6.17l-2.39.02c1.59-1.32,2.73-.11,3.36-.95.27-.36.76-.58,1.23-.64.36-.04.83.58,1.19,1.08l-1.09.31c-.08.02-.4-.3-.35-.35l.48-.5-.63-.08c-.18-.02-.16.28-.19.92Z"/>
  <path d="M111.57,177.41c-.75.56-1.25.66-1.96.64l-1.7-.05,1.05-.93c.3-.27.79-.61,1.1-.71.48-.16,1.03.22,1.26.67.62-.13.67.02.26.37Z"/>
  <path d="M392.89,284.5c-.06,1.27-.88-.06-3.7.6,0,.02.11-.54.17-.82.04-.2.8.16,1,.06.52-.26,3.97-2.17,3.73-.7-.9.02-1.93.12-2.62.64l1.42.23Z"/>
  <path d="M398.71,285.36l.58.14c.1.03-.27.3-.37.27-4.16-1.42-3.49.65-5.05-.86l1.4.1.85-.46c.21-.12.64.22.89.27l2.45-.11-1.03.3c-.1.03-.32.19-.22.21l.51.13Z"/>
  <path d="M425.74,276.21l.43.51c.07.08.14.45.03.44l-.68-.06c-.89-.07-1.54-.15-2.48-.61l1.47-.42c.74-.21,1.36-.54,2.19-.09l-.95.23Z"/>
  <path d="M68.58,224.03c-.24.54-.66,1.09-1.06,1.12-.56.05-1.46-.1-1.89-.41.9-1,1.93-1.16,2.95-.71Z"/>
  <path d="M393.35,278.97c.27-.07.87.12,1.32.28-1.13.71-2.48.52-3.69-.47l2.16-.49.43-.09c.09-.02.19.3.1.33l-.43.17-.42.17c-.08.03-.09.26-.01.24l.54-.14Z"/>
  <path d="M394.9,269.09l-.58,1.02c-.13.22-.72-.11-.97-.15-.49-.01-1.29.64-1.68-.28l2.36-.5c.78-.16,1.59-.95,2.43.03l-1.56-.12Z"/>
  <path d="M430.4,284.51l.95.56c-.63,0-1.02-.14-1.46-.38l-1.25-.7,2.13-.12c.23-.01.78-.61.94-.47l.96.85c.2,0-.21.13-.3.08l-.45-.27-1.52.45Z"/>
  <path d="M385.4,280.75l-2.93-.29c-.49-.05-1.01.06-1.3-.25l2.43-.45c.05.05.37.63.55.54l.86-.47.39.92Z"/>
  <path d="M149.43,271.07c0,.14-.22.71-.3.61s-.36-.44-.37-.56l-.11-1.77c-.01-.2-.07-.56-.09-.7s.51-.11.65-.12c.19-.02.24.4.24.73l-.02,1.8Z"/>
  <path d="M381.11,281.76l-.88,1.23-2.46-.45,1.45-.78c.07-.04.53.02.51.1l-.2.68,1.57-.79Z"/>
  <path d="M410.19,271.02l-1.36,1.57c-.08-.16-.26-.66-.43-.63l-.93.2.18-1.11,1.39-.35-1.14.98,2.29-.66Z"/>
  <path d="M407.63,280.01l-.42.03c-.09,0-.2.42-.11.42h.59c.23,0,.3,0,.38-.02.11-.02.26.37.15.4l-.55.13c-.26.06-.79-.24-.89-.48-.13-.32.06-.79.39-1.05.58-.47,1.41-.4,1.88.05l-1.41.53Z"/>
  <path d="M404.12,176.73c-.41.65-1.97.65-2.19-.44l2.16-.36c.06-.12.12.66.03.8Z"/>
  <path d="M424.41,250.93c-.19.13-3.91.66-4.15.39.06-.73,3.67-.8,4.15-.39Z"/>
  <path d="M415.91,263.74l-1.33.2c-.32.05-.85-.09-1.01-.33l1.4-.18c.18-.02.51-.44.67-.38l.77.31c.34.14.56.27.89.8l-1.38-.44Z"/>
  <path d="M252.58,175.15c-.43.22-.89.43-1.23.56-.08.05-.27.16-.35.21-.11.07-.45-.3-.35-.39l.46-.42c.71-.66,1.61-.81,2.51-.49l-1.04.54Z"/>
  <path d="M403.25,278.09c-.7.15-1.18.28-1.45.25s-.66-.58-.74-.8c.49-.21,1.18-.42,1.47-.3s.74.68.72.86Z"/>
  <path d="M422.03,281.94l-.43-.65c-.08-.12-.41.34-.55.32l-1.73-.19,1.73-.5c.38-.11,1.29.15,1.77.26l-.79.76Z"/>
  <path d="M433.85,274.55l-1.09-.32s.48-.36.36-.43c-.15-.09-.48-.27-.65-.33l-.31-.11c-.1-.04-.32-.24-.22-.28.12-.06.51-.19.6-.16l1.34.47-.04,1.17Z"/>
  <path d="M425.45,262.92c-.24-.04-.62.64-.85.52-.28-.15-.78-.48-1.02-.66l1.39-.26c.41-.08,1.22.06,1.81.15-.06.22-.91.31-1.32.25Z"/>
  <path d="M168.45,159.73l.37.37c.09.09.09.51-.04.48-.19-.03-.62-.12-.62-.26l.07-1.67c.1-.05.73.12.89.24.13.09.35.7.2.72l-.88.12Z"/>
  <path d="M421.6,263l-1.91-.06c-.09,0-.33-.2-.37-.28s.03-.35.12-.33c2.44.35-.12-.33,1.98.02.25.04.36.04.42.07.1.06.26.19.36.27.09.07-.49.32-.61.31Z"/>
  <path d="M431.22,275.71l-.62-.04c-.11,0-.23-.46-.15-.33l.86-.17c.17-.03-.32-.56-.46-.72-.1-.11.38-.48.51-.39l.58.38c.13.09-.2.41-.26.54l.21.58c.05.13-.54.16-.68.15Z"/>
  <path d="M19.21,202.55c.61.19-2.09,1.83-2.53,1.64.69-.75,1.4-1.11,2.28-1.72l.25.08Z"/>
  <path class="cls-1" d="M266.02,105.09c-.89-.69-1.59-.39-2.38,0l-3.69,1.81-10.48,5.02c0,.26.06.46-.05.5-1.58.66-2.32,1.12-3.73.78-.74-.18-1.51-.9-1.97-1.89l15.11-4.28c1.07-.3,1.72-.94,2.41-1.7l2.75-3.01,2.28-2.52,2.04-2.31,15.32-18.19c.91-1.08,1.64-1.42,3-1.02,3.83,1.14,7.63,2.3,11.42,3.7.3.54.63,1.49.45,2.01-.33.95-1.36,1.12-2.06,1.6l-11.82,8.09c-.58.4-1.73,1.03-1.73,1.84l-.07,12.7-.12,1.69c-.08,1.14-.27,2.61.09,3.64.4,1.15.28,1.81-.68,2.66-.88.77-1.76.01-2.56-.61l-13.52-10.52Z"/>
  <path class="cls-1" d="M186.06,78.27l-21.48,4.49c-1.96.41-4.25,1.11-5.74,1.98-.15.09-.54.01-.59.11l-.27.46c-.31.52-.65,1.13-1.34.81l.64-.27c.16-.07.07-.68-.11-.63l-1.7.48c-.95.27-1.95.81-3.02.59,3.01-2.82,2.82-1.75,2.33-6.1l-.49-4.35-.98-9.86c-.1-.96.64-3.38,2.06-2.72,3.94,1.84,7.67,4.13,11.43,6.25,3.44,1.94,3.49,2.71,6,1.34l4.19-2.27,6.69-3.18,4.33-1.91c.98-.43,2.11-.51,2.8.31.86,1.03.46,1.89-.06,2.93-1.07,2.15-1.54,4.62-2.16,6.97l-.65,2.49c-.22.85-.77,1.85-1.88,2.08Z"/>
  <path class="cls-1" d="M176.71,133.22l-1.83,1.7,1.54-3.8c-1.65.79-1.22,2.91-2.16,4.13-1.29,1.68-3.03,3.19-4.59,4.68-.91.87-2.45.46-3.46.07l-11.76-4.57-11.68-4.64-9.05-4.14c1.69-.28,3.32-.35,4.08-1.84l5.64-11.11,1.4-2.67c.42-.8.88-1.5,1.61-1.7s2.24-.32,2.63.53l4.19,9.22,2.41,5.55c.51,1.18,1.6,2.55,2.99,2.72l9.29,1.18-2.24.25.88,2.17c.53,1.3,1.84,1.55,3.07,1.11l2.66-.95c.82-.29,1.37-.94,2.02-1.58.6-.58,1.82.07,2.36.49,1.08.84,1.04,2.21-.02,3.2Z"/>
  <path class="cls-1" d="M204.39,89.91l-3.65-3.43c-.85-.8-1.53-1.69-2.16-2.74.37-.88.74-1.72,1.16-2.51l4.62-8.81c.39-.74.4-1.54-.02-2.26l-4-6.99,1.6-7.14c.16-.69.25-1.19.41-2.12l6.88,1.23c1.1.2,1.66.67,1.92,1.76l4.46,18.52,3.22,15.38-2.01-2.42c-.55-.66-1.54-.91-2.31-.52l-10.12,2.06Z"/>
  <path class="cls-1" d="M250.49,94.57c.23-1.75,1.53-2.8.42-4.09l-1.74-2.02-1.96-2.14c.81-.5,1.77-.9,2.41-1.44l2.49-2.11c3.79-3.2,4.84-2.99,9-7.05,1.22-1.19,2.32-2.3,3.23-3.79.31-.5.48-1.9,0-2.22l-1.72-1.17,6.84-11.36c.48-.81,1.92-.44,2.5-.12.81.43,1.1,1.28,1.4,2.17l1.52,4.49.7,1.89.87,2.53c.2.58.69,1.37.19,1.97s-1.17,1.1-1.74,1.65l-4.77,4.58-4.09,3.83-3.45,3.28-3.85,3.57-3.87,3.6c-1.43,1.33-2.82,2.66-4.4,3.97ZM264.69,78.33c.24-.12.62-.69.68-.94s-.45-.67-.7-.72c-.21-.04-.63.12-.81.26l-2.2,1.75c-1.6,1.27-3.48,2-5.26,3.1,2.7-.65,5.8-2.22,8.29-3.45Z"/>
  <path class="cls-1" d="M157.86,145.26l-9.77-2.71-4.9-1.31c-1.68-.45-3.26-.77-4.84-1.44-4.04-1.72-8-1.74-7.56-5.25.12-1,1.29-2.88,2.73-2.38,2.92,1.02,5.57,2.63,8.47,3.75l8.49,3.28,8.27,3.23c.66.26,1.05,1.13.92,1.6-.19.71-.9,1.5-1.8,1.25Z"/>
  <path class="cls-1" d="M255.57,96.45l3.45-3.17,2.38-2.17,2.52-2.29,5.46-5.33c.45-.43,1.15-.9,1.48-1.35.8-1.11,1.83-1.24,2.69-.5,1.09.94.69,1.82-.13,2.78l-9.79,11.52-2.64,2.91c-.72.79-1.45,1.85-2.35,2.36-1.39.79-2.95.18-3.7-.92-.84-1.24-.48-2.82.64-3.85Z"/>
  <path class="cls-1" d="M161.6,94.89c-.58.41-1.1.59-1.78.73-1.36.29-2.3,1.41-3.8.7-1.64-.77-2.79-4.33-.79-5.31,4.45-2.19,9.42-2.98,14.23-4.04l5.91-1.3c1.13-.25,2.02.42,2.18,1.33.19,1.06-.23,1.79-1.37,2.15l-7.79,2.5c-1.62.52-3.47.9-4.85,1.87l-1.94,1.37Z"/>
  <path class="cls-1" d="M228.61,85.54c.47,1.67-.63,2.97-1.89,3.39-1.1.37-2.93-.26-3.21-1.76-1.31-6.98-2.87-13.78-4.72-20.66-.27-1.01.24-2.02,1.06-2.18,1-.2,1.69.27,2.04,1.21l3.39,9.08c1.33,3.56,2.26,7.15,3.32,10.92Z"/>
  <path class="cls-1" d="M239.12,76.42c-.4-.51.08-1.51.41-1.82.45-.42,1.13-.64,1.79-.68l3.62-.17,4.08-.24c1.39-.08,2.71-.14,4.11-.34.08,1.66-1.36,1.91-2.55,2.32-3.17,1.11-6.09,2.47-9.2,3.81l-2.26-2.89Z"/>
  <path class="cls-1" d="M236.34,23.31c-2.09.06-1.77,2.32-2.45,1.82-.18-.13-.62-.51-.57-.71l.31-1.14c-1.21,1.71-1.29.95-1.52,3.24-.91-.91-1.46-2.13-1.69-3.27l-.84-.98c-.38-.44-1.32-1.64-.46-2.14,2.92-1.7,3.97-2.08,7.41-.51.89.11,1.83-.07,2.68.43l-2.47.14c-.82.05-1.78.81-2.3,1.31.34.11.8.18.78.3l-.08.7c1.04.03,2,.09,3.12.38-.62.3-1.2.41-1.93.43Z"/>
  <path class="cls-1" d="M228.96,103.54c1.5-.61,2.22-1.39,2.62-2.72l2.03-8.94-1.12,10.11c-.12,1.04-.02,1.86-1.11,2.42-.69.35-1.68.13-2.42-.87Z"/>
  <path class="cls-1" d="M161.99,178.71c0,1.41.73,2.58,1.67,3.86-1.5-.81-2.41-2.9-2.09-4.6,1.44-.66,1.6-2.5,3.03-2.81,1.75-.38.6-1.11,4.13-1.33-1.72,1.24-.84-.04-3.22,1.5-1.42.92-2.71,1.77-3.51,3.38Z"/>
  <path class="cls-1" d="M234.53,86.44l-.5,1.43c-.41-1.3-.77-2.43-1.05-4.1l2.04,2.39s.03.32-.03.32l-.45-.03Z"/>
  <path class="cls-1" d="M229.42,33.96c-.34,0-.63-.82-.43-1.04.27-.31.56-.61,1.05-1.1.18.22.27.7.33,1.2.04.34-.35.93-.95.94Z"/>
  <path class="cls-1" d="M168.35,170.59c-.86.1-1.87-1.47-1.12-2.12.76-.02,1.51,1.5,1.12,2.12Z"/>
  <path class="cls-1" d="M168.54,179.82c1.88-2.22-1.34,3.36-2.19,2.57l1.95-2.29.24-.29Z"/>
  <path class="cls-1" d="M299.84,215.36c-2.09,1.02-4.02,1.91-6,2.74-1.16.48-1.66-.33-2.18-1.06-.88-1.23-1.36-2.26-.65-3.73.45-.94.71-2.19,1.1-3.18l1.9-4.81,5.1-.97c1.25-.24,3.3-.96,3.68-2.48l4.11-16.25c.27-1.07.83-2.11,1.74-2.26,1.25-.21,2.1.23,2.77,1.19l3.27,4.66,5.92,8.94c.7,1.05,1.91,1.63,3.19,1.61l3.66-.06-11.1,7.57c-.76.52-1.7.9-2.55,1.31l-13.96,6.78Z"/>
  <path class="cls-1" d="M314.27,232.82l-5.83,3.77c-2.82,1.82-5.63,3.52-8.64,5.03-1.24.62-2.9-1.96-2.69-3.82l.54-4.77c.54-4.73,1.79-3.94,5.9-5.45l19.1-7.01,10.37-5.66c-.7,1.55-2.31,2.7-1.82,4.39l3.82,13.14c.35,1.22.29,2.27-.69,3.18l-.52,1.7-.75-.99-1.3-.37-13.11-3.68c-1.57-.44-3.01-.35-4.39.55Z"/>
  <path class="cls-1" d="M284.18,165.91c-.94-2.39-2.37-3.68-2.96-5.55.56-1.12.95-2.07,1.36-3.22,1.2-3.38,2.68-5.46.38-7.93l-3.64-3.9c.29-.36.51-1.01.4-1.41-.14-.54-1.02-.4-1.66-.11-1.12-.92-2.24-2.28-3.33-3.41l-2.26-2.35c-.66-.69-.93-1.9-.52-2.86.28-.65,1.42-1.37,2.34-1.41l5.55-.22,8.23-.18c3.3-.07,3.98-.13,5.61-2.75l.13,2.38.16,4.75c.06,1.82.12,3.47-.01,5.28l-.24,3.37-.24,4.07-.25,4.32-.12,3.14-.27,3.8c-.1,1.38-.38,2.56.39,3.86-.48.76-1.08,1.59-1.6,2.23l-1.75-2.08c-1.78-.71-3.78-.47-5.7.17Z"/>
  <path class="cls-1" d="M303.21,219.11l4.56-2.18,5.77-2.87,2.62-1.27c1.76-.85,3.49-1.86,5.14-2.95l5.62-3.7c1.09-.72,2.24-.51,3,.5.88,1.17,1.11,3.38-.38,4.23l-6.58,3.75c-2.81,1.6-5.71,2.64-8.77,3.74-3.6,1.29-7,2.74-10.66,3.79-.64.18-1.24-.81-1.29-1.27-.07-.65.28-1.45.96-1.77Z"/>
  <path class="cls-1" d="M301.41,158.59c-.16,1.01-1.19,1.42-1.83,1.23-1.63-.48-1.04-1.99-.89-4.78l.15-2.88.26-4.32.26-2.42.05-11.98c-.3-.8-.25-1.67.23-2.3.87-1.15,3.28-1.3,4.62.19.63.69.55,1.56.47,2.56l-.23,3.15-.18,3.22c-.1,1.85-.49,3.59-.81,5.42l-.72,4.09-1.38,8.81Z"/>
  <path class="cls-1" d="M309.23,128.22c-1.2-1.54-2.08-3.01-3.12-4.64l-4.39-6.81c.26-.86,2.28-1.56,3-.43.89,1.41,1.27,3.11,1.84,4.67l2.68,7.2Z"/>
  <path class="cls-1" d="M291.47,221.95c-.75-.02-1.44.05-1.74.75-2.92-.19-2.5-1.94-4.04-3.61l1.91-.54c.16-.04.69-.11.68-.27l-.02-.7,1.45-1.37,1.32,1.64c.13.17.46.73.34.88l-.5.67c.23.23.73.75.95,1.01-.48.14-1.35.3-1.26.58.1.34.68.79.93.95Z"/>
  <path class="cls-1" d="M342.19,203.03l-6.76,8.84c1.55-3.74,3.45-6.83,5.29-10.22.45-.92.65-1.85.73-2.94,1,.2,2.03.93,2.07,2.21-.3.56-.83,1.46-1.32,2.1Z"/>
  <path class="cls-1" d="M288.93,170.43c-1.12,1.01-1.56.63-3.44.32-1.01-.17-.69-1.93-.47-2.67-.42-.24-.93-.43-1.03-.68s.34-.94.61-1.01l1.56-.42c.47-.13,1.34-.08,1.75.13.43.22.82.99.97,1.52-.56.61-.28.61.4.43l-.71.88,1,.38-.55.42c-.12.09-.07.36-.09.7Z"/>
  <path class="cls-1" d="M275.62,207.36c-.4.33-1.19,1.62-1.76,1.08-.52-.55.48-.91,1.21-1.07.12-.43.05-1.35-.04-2.01l-.33-2.52c-.02-.15.59-.45.61-.29l.11.74.6,3.9,1.43.53c-.63.94-1.17,0-1.84-.37Z"/>
  <path class="cls-1" d="M268.57,173.02l.04.77-1.59.67-2.84-1.21c-.61-.26-1.06-.58-1.53-1.15.94,0,1.5.3,2.24.66l2.04.97c.37.18.91-.2,1.65-.7Z"/>
  <path class="cls-1" d="M276.29,168.92c.49.34-.74,1.76-2.05,1.65.15-.72.64-1.6,1.13-1.84.18-.09.77.08.92.19Z"/>
  <path class="cls-1" d="M270.22,210.88c-.48.59-1.47,1.05-1.94.41-.21-.4.72-1.12,1.23-1.15l.66-.05c.18-.01.17.65.05.79Z"/>
  <path class="cls-1" d="M270.43,182.16l-.64.69c-.11.12-.55-.44-.53-.6l.23-1.82c.61.05,1.35,1.27.94,1.72Z"/>
  <path class="cls-1" d="M284.35,209.95c-.17.38-.75.64-1.11.57-.34-.06-.81-.38-.98-.76.59-.43,1.54-.4,2.1.18Z"/>
  <path class="cls-1" d="M151.67,224.67c-.5.62-.65,1.52-.38,2.21l1.1,2.83-8.61-6.55c-1.57-1.2-2.76-2.65-4.14-4l-8.62-8.43c-1.8-1.76-3.46-3.31-5.24-5.17-.45-.47-.34-1.93-.13-2.57l2.28-6.92,6.94-1.05,7.02,12.51c.7.79,2.16.4,3.02.37l5.2-.19,7.14-.24c1.75-.06,3.66-.29,5.39.01,1.5.26,1.54,2.69.57,3.44-1.49,1.15-2.49,2.5-3.63,3.92l-7.91,9.82Z"/>
  <path class="cls-1" d="M133.96,241.64c-3.31,2.5-6.83,4.36-9.96,6.92-.57.46-1.07,1.56-1.86,1.69-1.73.28-2.72-1.25-2.66-2.8s-.09-3.12-.1-4.7l-.11-11.89c0-.34-.4-1.04-.66-1.22-2.59-1.75-5.01-3.39-7.45-5.29l-6.61-5.15c-.59-.46-1.03-1.09-1.12-1.69s.23-1.83.96-2l11.33-2.66c.72-.17,1.61.45,2.07,1.03,2.84,3.62,5.57,7.12,8.6,10.57,2.75,3.13,5.44,7.3,7.89,9.62l4.81,4.55,2.32,2.17-3.08-1.18c-.89-.34-1.9.16-2.63.72l-1.73,1.31Z"/>
  <path class="cls-1" d="M147.78,233.05c-.16,1.52-1.15,2.55-2.08,2.79-1.52.4-2.65-.07-3.67-1.11-1.94-1.96-4.12-3.73-5.83-5.9-1.61-2.05-3.11-4.01-4.8-5.99l-3.09-3.61c-.56-.66-.38-1.73.06-2.17.57-.56,1.66-.92,2.34-.25l10.13,9.98c2.04,2.01,7.13,4.56,6.94,6.26Z"/>
  <path class="cls-1" d="M155.82,246.69l-12.85-5.18c.99-.07,1.81.33,2.72.58,2.97.83,5.79,1.58,8.84,2.26.98,0,2.47-1.69,2.33-2.58-.33-2.08-1.75-3.54-1.79-5.68l2.54,5.65c.41.9,1.34,1.77,1.44,2.84.09.98-.76,2.27-1.47,2.7-.24,0-.66,0-.95.1-.21.07-.61-.6-.82-.69Z"/>
  <path class="cls-1" d="M130.87,174.42l-4.25,3.06.55.95c.13.22-.41.88-.64.76-.21-.11-.64-.73-.55-.95l.38-.85-1.98-.37-.44,1.56c-.65-1.01-1.5-2.2-1.36-3.2l.3-2.08c.13-.92.71-1.49,1.49-1.89l1.96-.98c.27-.13,2.41-.81,2.66.46.02.12.46-.33.6-.38.76-.28,2.14.26,2.63,1.04-.98-.17-2.17-.49-3.17-.47-.76.13-5.19,3.81-4.29,4.47.16.12.39.23.71.37l1.19.49c1.38-.66,2.3-1.97,4.21-2Z"/>
  <path class="cls-1" d="M120.75,176c-.68.52-2-.04-2.37-.61-.11-.2.2-.74.41-.83.25-.11.95,0,1.1.21l.86,1.23Z"/>
  <path class="cls-1" d="M126.65,185.4c1.15.55.77,2.22.67,2.27-.18.09-.78-.09-.91-.25-.39-.48-.18-1.38.24-2.02Z"/>
  <path class="cls-1" d="M238.97,195.18c-.72-.42-1.47-3.18-1.41-4.31l.12-2.45c.03-.56.88-1.46,1.43-1.59l2.34-.57,1.55.43c-1.05.57-1.51,1.11-2.2,1.85-1.71,1.85-2.79,4.01-1.82,6.63Z"/>
  <path class="cls-1" d="M209.29,183.93c0,.32-.02,1.06.05,1.35l.53,2.32c-2.01-2.16-2.08-3.44-1.08-5.59.34-.72.58-1,1.2-1.43,1.71-1.19,2.74-2,5.26-.73-1.09.23-2.27.38-2.92,1.02l-.9.88-2.12,2.19Z"/>
  <path class="cls-1" d="M215.11,185.01l-1.76-1.62c-.18.57-1.58.99-1.68.52-.22-1.03,1.2-1.09,1.99-1.03-.07-.44-.17-1.34-.02-1.74.06-.15.83-.23.95-.14.38.29.05,1.39-.61,1.77l3.27,3.65c-1.08.07-1.46-.79-2.14-1.41Z"/>
  <path class="cls-1" d="M243.84,189.75l-.23,4.57c-.43-.39-.89-3.76-.19-4.79.24-.35.53-.79.8-.81.4-.04.82.02,1.27.23-.42.32-.88.52-1.65.79Z"/>
  <path class="cls-1" d="M241.33,169.01l-1.67-.97c.13-.36.35-.91.51-1.15s1.1-.09,1.18.07l-.02,2.05Z"/>
  <path class="cls-1" d="M237.11,186.1c-.91.31-1.83.12-2.58-.55.3-.39,1-.85,1.3-.68.42.23.73.54,1.28,1.23Z"/>
  <path class="cls-1" d="M239.66,169.87c.91-.18,1.58-.25,2.24-.53l1.56-.65c-.43,1.66-2.5,1.85-3.81,1.18Z"/>
  <path class="cls-1" d="M215.57,173.73c.33.9-.02,1.8-.95,2.25-.17-.37-.28-1.05-.15-1.38.17-.41.73-.95,1.1-.87Z"/>
  <path class="cls-1" d="M206.59,183.61c-.34,1.05-1.58,1.37-1.59,1.36l-.61-.56c.57-.53,1.23-.8,2.2-.8Z"/>
  <path class="cls-1" d="M249.56,186.02l-1.35.16c.22-.54,1.03-1.24,1.51-1.36.18-.05.63.44.57.62-.07.22-.49.55-.73.58Z"/>
  <path class="cls-1" d="M242.99,189.58c-.09.64-1.88.09-1.61-.73.16-.49,1.76-.26,1.61.73Z"/>
  <path d="M264.69,78.33c-2.49,1.22-5.59,2.79-8.29,3.45,1.79-1.1,3.67-1.83,5.26-3.1l2.2-1.75c.18-.14.6-.3.81-.26.25.05.76.48.7.72s-.45.82-.68.94Z"/>
</svg>