<?xml version="1.0" encoding="UTF-8"?>
<svg id="Layer_2" data-name="Layer 2" xmlns="http://www.w3.org/2000/svg" viewBox="0 0 432 288">
  <defs>
    <style>
      .cls-1 {
        fill: #fff;
      }
    </style>
  </defs>
  <path class="cls-1" d="M-1.43,288.83V.83h432v288H-1.43ZM201.95,164.58c.76.96,1.96,1.02,3.06,1.33,2.19.62,4.26,1.37,6.54,1.6,1.05.1,1.73-.3,2.53-.82,3.9-2.55,4.41-1.38,7.17-3.47,2.26-1.72,1.93,1.79,8.78-3.66.31-.25,1.34-.34,1.68-.14.3.17.5.76.67,1.22l1.35,3.61c.39,1.04-1.79,7.15,4.17,11.07l.14,3.6c.06,1.5.06,2.83.88,4.23,1.15,1.96.12,5.37.6,9.25.16,1.3,1.06,2.58,1.37,3.84l-1.04,1.34c-1.29,2.81-.82,3.27-1.73,5.78-1.33,3.66-1.7,7.94,1.38,10.76,1.05.96,2.34,1.88,2.02,3.49-2.24,11.36,3.51,9.24,1.14,12.88-.22,3.98-.89,2.94-1.54,7.54-.22,1.54.05,2.7.6,4.05s1.05,2.64,2.13,3.72c.75.75.19,1.81-.26,2.59l-1.88,3.19c-.66,3.56.93,7.31,3.85,9.5,1,.75,6.49,1.31,8.16-.4,4.42-4.52,5.08-9.51,2.59-15.34-.47-1.1-.32-2.3-.32-3.43,0-1.33-.68-2.92-.12-4.22.8-1.86,1.13-3.62,1.07-5.69-.09-3.62-.67-2.99-1.73-6.47.26-2.11.57-4.16-.09-6.17-1.04-3.15.47-2.96.67-5.8.09-1.23.38-2.71-.14-3.81-2.22-4.72-1.23-2.34-1.99-7.43l-.5-3.35c-.18-1.21-.52-2.16-.07-3.41s.85-2.65.8-3.98c-.13-3.5-1.15-6.88-2.61-10.06-.15-.32-.73-.91-.67-1.27,1.73-9.96-3.79-14.04-2.1-19.35.36-1.12,1.28-1.75,1.09-3.29l-.4-3.22c-.52-4.19-3.93-7.07-3.74-9.21l.58-6.7c.12-1.44-.4-3.04-.02-4.44.09-.32.51-.95.55-1.29l.31-2.92c.17-1.61-.06-3.13.16-4.78.11-.85-.16-1.52-.52-2.36-.29-.66-.07-1.88-.22-2.63l-.83-4.05c-.2-.95-.59-2.12-1-2.98l-1.55-3.27c-.94-1.98-.63-5.85-.45-8.2l.25-3.37c.15-1.97-.16-4.1.27-5.99.35-1.55.59-2.77.36-4.34-.13-.92-.04-2.08-.26-2.98-.36-1.44-1.13-2.89-.96-4.39.15-1.26.04-2.23-.24-3.43l-1.23-5.26-.39-3.73c-.12-1.14-1.66-3.83-2.21-6.01-.36-1.42-.67-3.08-1.35-4.3-.54-.97-.75-1.39-.55-2.55l.52-3.03c-1.4-3.39-2.99-5.44-4.57-8.53-.46-.91-1.44-1.7-2.04-2.41-.62-1.5-.61-3.44-1.14-5.01-.44-1.32-.72-2.52-.99-3.85s-1.92-2.01-2.77-2.82c-.91-.88-1.55-1.03-2.77-1.2-1.15-.16-2.34-.87-3.57-1.16-1.47-.35-3.45-.27-4.81.59-5.07,3.21-7.29,7.18-8.38,13.05-.27,1.44-.67,2.01-1.56,3.07-1.83,2.18-2.3,5.17-3.26,7.81-.47,1.28-1.94,2.02-2.52,3.19l-1.51,3.05c-1.23,2.49-3.29,4.51-4.3,7.21-.51,1.36-.03,3.05-.45,4.4-.55,1.78-1.57,3.38-2.24,5.15-.44,1.15-.32,2.62-.88,3.71-1.14,2.2-3.13,4.18-3.23,6.73-.06,1.51.06,2.57-1.27,3.69-1.24,1.04-1.15,3.06-1.34,4.53-.27,2.1-.59,3.96-.5,6.03.05,1.17-.53,1.98-1.21,2.85-.82,1.06-.95,2.55-1.17,3.87-.86,5.01,1.05,2.69-.76,6.16-.43.84-.97,1.87-1.24,2.81-.5,1.76-.1,3.99.52,5.63.29.78,1.23,1.35.58,2.25-1.38,1.91-2.08,4.13-2.75,6.34-.85,2.81-.29,5.23.21,7.97s-2.03,6.82-1.74,11.71c.19,3.1,1.87,3.27.42,5.88-.97,1.74-1.1,3.86-1.35,5.86-.39,3.09.42,3.94.03,8.87-.57,7.23,2.72,5.14,1.49,8.62-.88,2.51-1.66,4.95-2.26,7.56-.77,3.31,1.21,5.02-.1,7.34-2.11,3.74-.27,5.2.03,9.35l.68,1.51c-2.91,4.85-2.68,7.03-2.51,12.4.08,2.51,1.15,6.07,2.26,8.43-.6,2.85-1.07,5.78-.59,8.75.18,1.15,1.03,2.33,1.35,3.42.38,1.28-.67,2.13-.87,3.19-1.14,5.95,1.05,7.85,1.17,9.61l.32,4.97c.06.88-.09,2.28.42,2.97.93,1.26,2.42,2.1,3.75,2.68,1.2.53.89,1.51,1.26,2.48.52,1.35,1.23,2.69,2.03,3.99s3.28,1.73,4.55.82c2.78-2,3.59-4.12,4.42-7.35.66-2.59.08-5.44-.5-8.06-.33-1.49.05-3.17.07-4.76.05-3.78-2.74-4.94-1.43-8.91,1.08-3.26,1.51-6.88.46-10.15-.81-2.52.18-2.14-.09-5.14-.11-1.25.12-2.8-.2-3.89-1.38-4.65.28-3.94-.6-7.82l-.63-2.79c-.13-.56-1.36-1.26-1.15-2.03.36-1.35,1.21-2.84.99-4.25-.53-3.52-.43-5.29-1.47-8.26-.38-1.07.57-2.27.57-3.28v-4.6c-.02-1.57-.37-3.16-.07-4.73s1.34-3.56.94-5.22c-1.09-4.56,1.34-1.95.34-8.02l2.14-2.67c.26-.33.64-1.25.69-1.68.58-5,.68-3.94.22-8.83-.11-1.13-.6-2.46-.53-3.58l.24-4.1c.97.87.85,1.79.98,2.81.57,4.59,1.83,5.88,5.76,7.12,2.53.79-.18,2.16,3.71,7.07ZM172.88,255.11l.31-4.65c0-.15-.21-.5-.36-.53s-.31.34-.3.54c.11,3-.22,4.32.03,6.96.14-.76.27-1.49.32-2.32Z"/>
  <g>
    <path d="M172.88,255.11c-.06.83-.18,1.56-.32,2.32-.25-2.64.09-3.96-.03-6.96,0-.2.16-.57.3-.54s.37.38.36.53l-.31,4.65Z"/>
    <path class="cls-1" d="M207.09,151.94c-2.42-1.11-5.32,1.72-6.36,3.92-1.5-.26-2.8-1.13-3.98-2.06-.91-.72-1.27-1.69-1.62-2.83-.14-.45-.56-1.57-.02-1.79,3.27-.32,6.54.7,7.9-3.73,1.32-1.54.86-4.77-1.32-5.16l-2.48-.44c.82-1.44,1.89-1.39,1.43-3.19l-.5-1.98c-.69-2.73-3.81-4.07-6.47-3.53l-2.57,1.74c-.25-.85.22-1.33.71-1.93,1.03-1.26,2.11-3.41,2.35-5.13.41-2.99-.45-3.18-.07-3.99.11-.24,3.06.05,4.97-2.08,1.05-1.18,1.53-3.16,1.29-4.53-.26-1.52-1.29-1.99-2.48-2.39-2.59-.87-3.34.18-4.57.15-1.01-.03,1.32-1.93.95-5.43-.11-1.03.56-1.42,1.13-2.08.7-.82,1.33-1.92,1.84-2.91,1.9-3.73,1.31-5.47,2-6.66,2.18-3.77,3.83-7.71,4.35-12.09.11-.93.31-1.64.63-2.51.5-1.32.83-2.65,1.42-3.97.41-.9,1.51-1.61,2.04-2.42.83-1.26,1.14-2.77,1.72-4.09l1.53-3.44c1.47-3.32,2.08-1.01,3.3-4.5.32-.92,1.67-1.17,2.45-1.62,3.08-1.76,3.73-3.83,4.36-4.15.21-.11.8.3.83.59l.25,2.87c.05.57-.53,1.6-.59,2.17l-.47,4.44c-.09.89.19,1.58.63,2.46s.2,2.31.57,3.35c.45,1.23,1.78,2.51,2.9,3.1.76.4,1.49.71,2.09,1.19l-.85,7.46c1.29,1.77.29,4.96.05,8.45-.04.63.73,1.73.67,2.32l-.53,4.8c-.11,1.03-.14,1.95.39,2.85l2.48,4.18c.57,1.85-1.09,3.73-1.23,5.5s-.1,3.59.03,5.42c.03.44.56,1.49.29,1.85-.74,1-1.15,1.92-1.25,3.18-.11,1.34-1.18,2.97-.69,4.37.67,1.91,2.49,3.21,4.1,4.5.93,2.67.36,7.26,1.72,8.97.77.97.45,1.65.17,2.75-.54,2.16-.6,4.85-.08,7.03.25,1.05.84,1.67.3,2.82-.27.59-.34,1.49-.35,2.23v.65c0,.17-.46.15-.62.1-.87-.25,1.31-3.3-1.1-7.93-.22-.42-.44-1.07-.71-1.29-.35-.28-1.17-.26-1.61-.16-4.2.97-2.58,4-3.5,5.81l-1.79-3.74c-2.95-1.2-4.88-.37-7.07,1.94l-.38,2.24-2.15-.26c-1.68.29-3.47.47-5.08.07-.46-.11-.96-1.24-1.34-1.46Z"/>
    <g>
      <path d="M201.95,164.58c-3.89-4.91-1.18-6.27-3.71-7.07-3.93-1.24-5.19-2.53-5.76-7.12-.13-1.03,0-1.94-.98-2.81l-.24,4.1c-.07,1.12.43,2.45.53,3.58.46,4.89.36,3.83-.22,8.83-.05.43-.43,1.35-.69,1.68l-2.14,2.67c.99,6.06-1.44,3.46-.34,8.02.4,1.66-.63,3.57-.94,5.22s.05,3.17.06,4.73v4.6c.02,1.01-.93,2.21-.56,3.28,1.05,2.97.94,4.74,1.47,8.26.21,1.41-.63,2.9-.99,4.25-.21.78,1.02,1.47,1.15,2.03l.63,2.79c.88,3.88-.78,3.17.6,7.82.32,1.09.09,2.64.2,3.89.26,3-.72,2.62.09,5.14,1.05,3.27.62,6.9-.46,10.15-1.31,3.97,1.48,5.13,1.43,8.91-.02,1.58-.4,3.26-.07,4.76.58,2.62,1.16,5.47.5,8.06-.82,3.23-1.63,5.35-4.42,7.35-1.26.91-3.72.52-4.55-.82s-1.51-2.64-2.03-3.99c-.37-.96-.05-1.95-1.26-2.48-1.33-.58-2.81-1.42-3.75-2.68-.51-.69-.36-2.09-.42-2.97l-.32-4.97c-.11-1.77-2.31-3.67-1.17-9.61.2-1.06,1.25-1.91.87-3.19-.32-1.08-1.17-2.27-1.35-3.42-.48-2.97-.01-5.91.59-8.75-1.12-2.36-2.18-5.92-2.26-8.43-.17-5.37-.39-7.55,2.51-12.4l-.68-1.51c-.3-4.15-2.14-5.61-.03-9.35,1.3-2.31-.68-4.02.1-7.34.61-2.61,1.39-5.06,2.26-7.56,1.22-3.49-2.07-1.39-1.49-8.62.39-4.93-.42-5.78-.03-8.87.25-2.01.38-4.13,1.35-5.86,1.46-2.61-.23-2.78-.42-5.88-.29-4.89,2.26-8.84,1.74-11.71s-1.06-5.16-.21-7.97c.67-2.21,1.38-4.43,2.75-6.34.65-.91-.29-1.47-.58-2.25-.62-1.65-1.02-3.88-.52-5.63.27-.94.81-1.97,1.24-2.81,1.8-3.47-.1-1.15.76-6.16.23-1.33.35-2.81,1.17-3.87.67-.87,1.26-1.69,1.21-2.85-.09-2.07.23-3.93.5-6.03.19-1.47.09-3.49,1.34-4.53,1.33-1.11,1.2-2.18,1.27-3.69.1-2.55,2.09-4.53,3.23-6.73.56-1.09.44-2.56.88-3.71.67-1.76,1.69-3.36,2.24-5.15.42-1.35-.06-3.04.45-4.4,1-2.69,3.06-4.71,4.3-7.21l1.51-3.05c.58-1.17,2.06-1.91,2.52-3.19.96-2.64,1.43-5.63,3.26-7.81.89-1.06,1.29-1.63,1.56-3.07,1.09-5.87,3.31-9.84,8.38-13.05,1.36-.86,3.34-.94,4.81-.59,1.23.29,2.42,1,3.57,1.16,1.23.17,1.86.32,2.77,1.2.84.81,2.49,1.48,2.77,2.82s.55,2.53.99,3.85c.53,1.57.52,3.52,1.14,5.01.59.71,1.57,1.51,2.04,2.41,1.57,3.09,3.17,5.14,4.57,8.53l-.52,3.03c-.2,1.17.01,1.58.55,2.55.68,1.22,1,2.88,1.35,4.3.55,2.18,2.09,4.86,2.21,6.01l.39,3.73,1.23,5.26c.28,1.2.39,2.17.24,3.43-.17,1.5.6,2.95.96,4.39.22.9.13,2.06.26,2.98.23,1.57-.01,2.79-.36,4.34-.43,1.89-.13,4.02-.27,5.99l-.25,3.37c-.18,2.35-.49,6.22.45,8.2l1.55,3.27c.41.86.81,2.03,1,2.98l.83,4.05c.16.76-.06,1.97.22,2.63.36.84.64,1.51.52,2.36-.22,1.64.01,3.17-.16,4.78l-.31,2.92c-.04.33-.46.97-.55,1.29-.38,1.4.14,3.01.02,4.44l-.58,6.7c-.19,2.14,3.22,5.02,3.74,9.21l.4,3.22c.19,1.54-.74,2.17-1.09,3.29-1.68,5.31,3.83,9.39,2.1,19.35-.06.36.53.95.67,1.27,1.47,3.18,2.48,6.56,2.61,10.06.05,1.33-.38,2.8-.8,3.98-.45,1.25-.11,2.2.07,3.41l.5,3.35c.77,5.09-.22,2.71,1.99,7.43.52,1.1.22,2.58.14,3.81-.2,2.84-1.72,2.65-.67,5.8.66,2,.35,4.06.09,6.17,1.07,3.48,1.65,2.85,1.73,6.47.05,2.07-.27,3.83-1.07,5.69-.56,1.3.11,2.89.12,4.22,0,1.13-.15,2.33.32,3.43,2.49,5.82,1.83,10.81-2.59,15.34-1.67,1.7-7.16,1.14-8.16.4-2.92-2.18-4.51-5.93-3.85-9.5l1.88-3.19c.46-.78,1.02-1.84.26-2.59-1.08-1.07-1.57-2.34-2.13-3.72s-.81-2.51-.6-4.05c.65-4.6,1.32-3.56,1.54-7.54,2.36-3.64-3.38-1.52-1.14-12.88.32-1.62-.97-2.53-2.02-3.49-3.08-2.82-2.71-7.09-1.38-10.76.91-2.5.44-2.97,1.73-5.78l1.04-1.34c-.31-1.26-1.21-2.55-1.37-3.84-.48-3.88.55-7.28-.6-9.25-.82-1.4-.82-2.73-.88-4.23l-.14-3.6c-5.96-3.92-3.78-10.03-4.17-11.07l-1.35-3.61c-.17-.46-.37-1.04-.67-1.22-.34-.2-1.37-.11-1.68.14-6.85,5.45-6.51,1.94-8.78,3.66-2.75,2.09-3.26.91-7.17,3.47-.8.52-1.48.93-2.53.82-2.28-.23-4.35-.98-6.54-1.6-1.1-.31-2.3-.36-3.06-1.33ZM211.53,41c0-1.99-.13-3.7.63-5.23l1.59-3.23c.96-1.94,2.4-2.7,4.82-3.15-2.18-1.17-4.31.22-5.77,1.68l-1.71,1.7c-.98.98-2.23,4.69-2.63,6.19l-.74,2.76,3.8-.71ZM219.84,33.17c2.79-.55,3.79.9,5.06,1.7.11.07.58-.2.55-.33-.12-.56-.59-1.77-1.14-2.05-1.03-.54-2.25-.84-3.41-.91-1.31-.08-4.99.67-5.18,2.67.69-.21,1.47-.57,2.18-.9.39-.19,1.37-.07,1.93-.18ZM217.83,40.8c1.54.16,3.51-.03,3.43-1.48-.05-.79-.6-1.13-1.47-1.17l-.83-.74c-.83,0-2.08.89-2.01,1.8.19,2.46-1.24,2.99-.42,3.1.19.02.65-.13.73-.3l.57-1.21ZM224.5,47.89c2.04-2.63,3.23-1.82,3.33-4.89-1.12,2-4.11,3.63-3.33,4.89ZM211.15,47.61c.86-.17.44-2.94-.18-3.75s-2.33-.77-2.98-.07c-.31.34.39,1.2.46,1.56l.38,1.99c.03.15.59.61.66.47l.26-.54.28-.42c.27-.4.49.88,1.12.75ZM217,43.79c1.26,1.2,2.71.59,3.75-.18-1.78.23-3.09-.57-3.75.18ZM230.72,45.14c-.14-.64-.67-1.24-1.04-1.42-.43.35-.49,1.08-.18,1.34.24.21,1.09.38,1.22.08ZM233.62,51.47c-.34-1.24-.74-2.24-1.44-3.13-.93-1.17-2.94-1.96-4.07-1.38-.32.17-.67,1.27-.34,1.46l2.83,1.23c.96.74,1.67,1.24,3.02,1.82ZM222.67,49.12c.05-.17-.39-.62-.55-.63-.65-.04-1.59.85-1.38,1.42.12.32.96.48,1.24.36s.56-.72.69-1.15ZM208.93,51.1c-.04-.3-.18-.7-.3-.79l-2.01-1.48c-.54.05-1.51.91-1.79,1.42l4.1.85ZM215.91,51.33c.07-.82.01-1.92-.46-2.33-.81-.32-1.18,2.27-.4,2.93.19.16.83-.31.86-.6ZM215.42,53.27c.1-.65-1.86-.59-1.89-1.04l-.06-1.05c-.02-.34.02-.97-.2-1.11-.44-.27-2.19.06-2.56.89-.23.52-.05,1.28.18,1.82.39.92.28,2.24.72,3.13l1.36,2.72c1,2,2.44-5.36,2.44-5.37ZM226.83,51.16c-1.69.29-1.88,2.8-1.46,3.87-.14-1.64,2.25-4,1.46-3.87ZM204.64,54.31l1.63-1.84c-.02-.37-2.13-.33-2.59.31-.24.33-.32,1.18-.16,1.59.07.17.58.55.7.42l.42-.48ZM231.93,56.52c.57-.31.97-1.45.94-2.11-.03-.81-1.51-2.52-2.23-2.28-.27.09-.42.71-.53,1.04l-.71,2.17,2.52,1.18ZM219.31,53.76c-.29-.6-1.09-1.69-1.87-.98l-1.38,5.84c-.05.2.28.56.4.46.14-.11.46-.39.57-.52,2.56-2.96,3.24-2.81,2.29-4.8ZM208.26,55.83c.06-.42-.15-1.07-.44-1.39l-1.85,1.18c-.33.21-.21,1.27.1,1.42.83.42,2.1-.5,2.2-1.2ZM207.09,151.94c.38.22.88,1.35,1.34,1.46,1.6.4,3.4.21,5.08-.07l2.15.26.38-2.24c2.19-2.31,4.12-3.15,7.07-1.94l1.79,3.74c.92-1.81-.7-4.84,3.5-5.81.45-.1,1.26-.12,1.61.16.28.22.49.87.71,1.29,2.41,4.64.23,7.69,1.1,7.93.16.05.62.07.62-.1v-.65c0-.74.08-1.64.35-2.23.54-1.15-.05-1.77-.3-2.82-.52-2.19-.46-4.87.08-7.03.28-1.1.6-1.78-.17-2.75-1.36-1.71-.79-6.3-1.72-8.97-1.6-1.29-3.43-2.59-4.1-4.5-.49-1.4.58-3.03.69-4.37.1-1.26.51-2.18,1.25-3.18.27-.36-.26-1.41-.29-1.85-.12-1.83-.18-3.59-.03-5.42s1.8-3.65,1.23-5.5l-2.48-4.18c-.53-.9-.51-1.82-.39-2.85l.53-4.8c.07-.59-.71-1.69-.67-2.32.24-3.48,1.24-6.67-.05-8.45l.85-7.46c-.6-.48-1.33-.79-2.09-1.19-1.12-.59-2.46-1.87-2.9-3.1-.38-1.04-.12-2.45-.57-3.35s-.72-1.57-.63-2.46l.47-4.44c.06-.58.64-1.61.59-2.17l-.25-2.87c-.03-.29-.61-.7-.83-.59-.63.32-1.28,2.39-4.36,4.15-.79.45-2.13.7-2.45,1.62-1.22,3.49-1.83,1.18-3.3,4.5l-1.53,3.44c-.59,1.33-.89,2.84-1.72,4.09-.53.8-1.64,1.51-2.04,2.42-.59,1.32-.92,2.65-1.42,3.97-.33.86-.52,1.58-.63,2.51-.52,4.38-2.17,8.32-4.35,12.09-.69,1.19-.1,2.93-2,6.66-.5.99-1.14,2.1-1.84,2.91-.57.66-1.24,1.05-1.13,2.08.37,3.5-1.96,5.4-.95,5.43,1.23.03,1.98-1.02,4.57-.15,1.18.4,2.21.87,2.48,2.39.24,1.38-.24,3.36-1.29,4.53-1.91,2.13-4.86,1.84-4.97,2.08-.37.81.48,1,.07,3.99-.24,1.71-1.32,3.86-2.35,5.13-.49.6-.96,1.09-.71,1.93l2.57-1.74c2.66-.54,5.77.8,6.47,3.53l.5,1.98c.46,1.81-.61,1.75-1.43,3.19l2.48.44c2.18.38,2.63,3.62,1.32,5.16-1.36,4.43-4.63,3.41-7.9,3.73-.54.22-.12,1.34.02,1.79.35,1.14.72,2.11,1.62,2.83,1.18.94,2.48,1.8,3.98,2.06,1.04-2.2,3.93-5.02,6.36-3.92ZM203.85,62.16l.11-2.16c.05-.99-.96-2.61-2.13-1.96-.9.49-.85,2.22-.84,3.21l2.86.91ZM207.61,63.91c.31.65,2.02,1.17,2.14.4.28-1.82.17-3.47.09-5.41-1.05.04-2.02.24-2.82.64l-.06,2.51c-.01.51.33,1.19.65,1.86ZM230.08,62.11c-1.43-.49-2.14-.79-2.99-1.76-.41-.46-1.35-.87-1.87-.26-.36.42.28,4.46,1.9,4.53,2.04-2.62,1.16-.81,2.97-2.51ZM233.94,67.45c1.27.19,2.07-.28,2.44-1.22.6-1.54-1.38-3.31-2.68-4.56-.18-.17-1-.24-1.03,0-.17,1.71.91.46,1.06,2.64l.21,3.13ZM196.83,66.25c.52-.71-.13-2.17-1.14-1.88-.28.64-.54,1.57-.71,2.41.66-.02,1.57-.18,1.85-.54ZM230.09,65.04c-1.08.04-1.35.13-1.82.82.39.37.97.54,1.34.33.3-.17.45-.71.48-1.16ZM202.37,73.59c.65,1.03,1.94.6,2.14.43.95-.78,1.47-7.59-.29-8.89-1.23,1.14-4.03,1.56-3.45,1.97,2.77,1.96,1.13-.07,3.73,4.62.65,1.18-2.58,1.15-2.13,1.86ZM224.93,72.02l.61-4.99-1.28-1.57c-1.13,1.08.12,1.76,0,5.44-.01.44.29.94.67,1.13ZM209.08,67.33c-.75-.66-1.73-1.09-2.44-1.11l.73,4.06,1.71-2.96ZM228.3,74.23l1.08-3.66c.47-1.58,1-1.03,1.68-2.25.07-.12-.35-.3-.49-.29l-2.97.27c-.65,1.41-.89,4.22.7,5.93ZM196.75,69.68c-.03-.3-.63-.68-.84-.56-.17.1-.6.43-.7.62-.24.47,0,1.38.21,1.87,1.11-.04,1.43-.82,1.34-1.94ZM237.53,75.84c1.38-1.22.93-3.01,0-4.28l-.95-1.3c-1.1-.37-2.69-.2-3.44.84-.53.74-.84,1.45-1.22,2.41l2.23-.45c.59-.12,3.25.59,3.39,2.79ZM194.05,73.91c-.02-.2-.84-.3-.94-.11l-.43.82c-.16.31-.26.95-.23,1.22.88-.17,1.48-1.21,1.6-1.93ZM199.57,82.1c.55-.04,1.84-.65,2.04-1.25.38-1.17-.08-2.39-.26-3.58-.13-.88-.53-1.7-1.24-2.11-.6-.36-1.57-.15-2.28.12l-.58.22c-.52.2,2.3,1.59,2.87,2.84s-.59,2.28-.55,3.75ZM234.78,78.1c.99-.35.59-1.94.16-2.42-1.13-1.24-3.96.03-3.62.81.49,1.13,2.28,2.03,3.46,1.61ZM240.18,78.96l-.4-2.34c-.79.36-.84,1.67-.41,2.52.09.18.85.07.81-.18ZM197.33,80.58c.81-1.21.16-2.73-1.24-3.16l.14,2.02c.03.5.68,1.35,1.1,1.14ZM194.24,79.56c-.03-.28-.65-1-.85-.8-.52.52-1.18,1.87-.95,2.53.35,1.02,1.8,1.66,2.74,1.46.41-1.55-.57-.11-.94-3.2ZM230.85,80.82c.15-.23-.5-.86-.67-.76-1.16.72-1.64,1.92-1.02,3.36l1.7-2.6ZM238.05,86.17c1.67-1.27,1.58-2.71,1.68-4.32-.56-.7-.9-1.08-1.91-1.61l-.02,1.64.24,4.29ZM235.17,81.27c-.26,1.37-.21,2.89.56,4.14.92-.39.5-4.76-.56-4.14ZM234.92,87.59c-3.06-3-.89-3.65-1.11-4.91-.05-.29-.96-.46-1.24-.36s-.64.42-.84.77l-1.26,2.16c-.24.41-.45,1.67-.1,2l1.5,1.41c1.05.31,2.41-.16,3.04-1.07ZM199.63,90.69l1.2-3.77.91-3.22-1.53.65-3.05-.13c-2.17-.09,1.82,2.88,1.98,3.77l.49,2.68ZM237.27,88.5c1.89.33,2.62.81,3.99,2.21.12-1.85.11-3.39-.05-5.23-2.14,4.08-2.75,1.33-3.94,3.02ZM191.34,90.5c.58-.07,1.45-.5,1.81-.86.4-.41.62-1.65.29-2.11-.57-.1-1.48.38-1.77.79-.34.49-.56,1.46-.33,2.18ZM192.96,93.25c1.37.96,2.73,1.59,4.24,1.05.66-.52.47-5.59-.47-6.1-.44,1.16-.7,1.88-1.33,2.7-1.41,1.86-1.49.8-2.45,2.35ZM230.11,90.53c.02-.3-.95-.29-1.04-.04-.17.48-.39,1.24-.48,1.66.93.29,1.45-.61,1.52-1.62ZM236.7,95.13l.57-2.76c.11-.53-.18-1.39-.79-1.68-.79.9-1.43,2.43-1.06,3.39.15.4.78.95,1.29,1.06ZM232.15,97.05c.6.62,1.66.64,2.13-.01,1.17-1.62-1.25-1.1.35-5.59-2.16-.82-2.86.45-3.6,1.79-.24.44-1.06,1.55-.71,1.91l1.84,1.89ZM185.47,96.71l1.87-2.68c.29-.42.48-1.08.32-1.46-.15-.36-.85-.96-1.18-.81-1.14.52-1.02,3.83-1.01,4.95ZM238.19,95.92c1.99-.05,2.64-2.12,2.15-3.4-.09-.23-.77-.38-.95-.24-.14.11-.53.47-.57.66l-.64,2.98ZM238.74,104.47c1.03-.42,1.4-2.17,1.1-3.12-.41-1.26-1.45-2.49-2.6-3.09-2.07-.03-2.05,1.73-2.34,3.7-.06.39.82.94,1.18,1.04,1.56.45,1.57,1.92,2.67,1.47ZM233.48,103.56c-.27-1.52-.26-2.12-.23-3.36-2.43.14-2.95-2.18-3.72-1.47-1.22,1.14.76,5.14,1.94,5.92l2-1.1ZM190.02,99.21c-.09-.02-.41-.05-.53-.03-1.11.2-2.25,1.6-1.55,2.88,1.26.03,2.97-2.68,2.08-2.85ZM192.68,104.01l.58-2.59c.09-.41.07-.79-.19-1.26l-.81,2.05c-.49.29-1.5.9-1.49,1.46.01.87,1.74,1.06,1.9.35ZM190.56,108.64c.87-2.08-1.23-1.35-3.53-3.28-.27-.14-.52.8-.44,1.12l.28,1.14c.07.27,2.49.43,3.7,1.02ZM234.51,105.35c-.76.08-1.02.15-1.47.66-.18.21.07,1.17.35,1.18.92.03,1.45-1.88,1.11-1.84ZM183.5,108.41c.88.12,1.65-.15,1.73-.77s-.16-1.17-.8-1.77l-.93,2.54ZM238.34,112.41c1.35-.73,2.7-3.25,1.12-4.2-1.11,1.35-2.22,1.8-3.95,2.04-.44.06-.16,1.34.3,1.61.63.38,1.84.93,2.53.55ZM234.97,114.3l-1.44-1.54-.62-2.26c-.09-.34-.76-.74-1.05-.66-.97.26-.74,2.43-1.1,4.18-.22,1.09-.94,2.08.25,3.01l1.12-1.28c1.06-.42,1.84-.83,2.83-1.45ZM243.83,117.34c.09-1.34-.61-2.22-1.07-3.26-.24-.66-.53-1.3-.92-1.89-1.01,1.41-2.33,2.36-3.77,2.92-.13.17.02.75.2.88,1.33.98,2.13-2.25,5.56,1.36ZM182.24,114.22c.08-.19-.14-.76-.31-.71-1.37.43-1.49,5.69.09,6.66-.39-1.96-.53-4.21.22-5.95ZM194.25,119.68c1.5.43,2.48-.13,3.5-1.09.91-.86,1-2.69-.16-3.59-.99-.77-3.12-.72-3.87.31-.96,1.33-.15,3.08.52,4.37ZM188.19,118.17c.26-1.42-1.77-3.39-3.86-2.81-.76.21-.89,2.47,0,2.99.4.23.95.14,1.51-.09,1.21-.48,2.24.5,2.35-.09ZM236.36,119.64c.33-.93.84-2.32-.04-3.18-1.48-.48-4.18,1.02-4.23,2.82-.05,1.67,2.58,2.34,3.75,1.82l.52-1.47ZM243.54,120.54l-1.32-2.18c-.45-.61-.99-.77-1.65-.74-.57.03-1.48,1.18-.83,1.55,1.09.63,2.34.99,3.8,1.36ZM192.09,124.3c.11-.25.36-4.57-.8-3.63l-.59.47c1.23,1.7.32,2.39,1.39,3.16ZM233.64,124.38c.57-1.09-1.21-.43-2.36-1.98-.12-.16-.69-.4-.8-.24-.08.12-.28.46-.33.63l-.79,2.76c-.43,1.49.85,3.01,1.95,3.77.69-1.68,1.38-3.1,2.34-4.94ZM189.94,128.75l.09-3.23c.03-1.24-.19-2.36-1.37-3.28-.55,1.1-.69,2.3-.6,3.51l.31,4.19c.65-.26,1.56-.76,1.57-1.2ZM186.13,128.4l-.09-3.04c-.02-.63.8-1.66-.07-1.95l-2.39,1.18c-.86,1.03.39,2.08,1.09,2.64l1.46,1.17ZM240.38,124.77c-.3-1.19-2.34-1.02-2.8-.9-.36.1-.66.94-.42,1.09s.79.27,1,.13c1.23-.82,2.33.15,2.21-.33ZM235.28,130.74c-.06-2.07.15-3.75.62-5.54-1.09.64-1.27,1.76-1.83,2.73-.32.56-.63,1.49-.45,2.14.14.52,1.23,1.16,1.67.66ZM240.73,126.5c-.61-.45-2.99.85-3.1,1.34-.3,1.36.65,2.42,1.17,2.29.26-.07,2.94-2.27,1.93-3.63ZM186.74,135.57l-1.07-2.9c-.6-1.62-2.18-2.65-3.52-3.64-.66-.48-1.22-.93-2.03-.51-.55.29-.72,1.07-.75,1.79-.09,1.83-.58,3.73.55,5.32,2.84-1.45,3.84-.9,6.83-.07ZM241.27,131.06c1.49.08,2.07-1.03,1.53-2.13-.68.68-1.1,1.34-1.53,2.13ZM195.87,139.65c.45-.35,1.11-.92,1.42-1.25,2.11-2.27-1.28-5.21-1.79-5.4-1.43-.51-3.63,2.06-3.83,4.49-.12,1.42,2.93,3.12,4.2,2.15ZM237.31,134.53c1.46-.11-1.68-1.85-3.2-1.32-.66.62-.63,2.06-.3,2.98,1.49-.08.84-1.45,3.49-1.66ZM239.15,137.33c-.75-.93-2.34-.68-2.91-.17-.17.15-.27.78-.19.98s.58.06.82-.03l2.28-.78ZM239.42,139.92l-2.13-.09c-.19,0-.69.54-.58.69l.53.67c.24.3,1.16.56,1.52.4s.56-.84.66-1.67ZM181.31,143.73c1.02-.03,2.41.14,3.27-.06.95-.94,1.49-2.1,1.74-3.46l-2.58,1.37c-1.28.07-2.74-.12-4.06-.22-.61.34-.78,1.83-.26,2.45.29.35,1.34-.06,1.89-.08ZM241.18,142.43c.44.34,1.31-.2,1.52-.59.26-.48.06-1.25-.54-1.4-.48.27-1.07,1.34-.98,1.99ZM193.29,144.28l1.1-1.75c-.71-.86-1.69-1.38-2.9-1.01l.38,3.16c.03.25.73.71.85.52l.57-.92ZM189.41,146.45l-.5-1.49c.17-.93.09-1.91-.81-2.72l-.81,2.57c.63.65,1.02,1.05,1.47,1.58l.37.43c.05.06.31-.3.28-.37ZM199.22,146.42c1.53-.44,2.17-1.85,1.74-3.35-.85-.96-2.25-1.1-3.34-.33-1.2.84-2.75,2.36-2.52,4.04,1.47.22,2.68.06,4.12-.36ZM237.25,145.94c.17-.71-1.49-1.76-2.02-1.06-.66.89-.58,2.57-.13,3.51.37-1.34,1.16-1.74,2.16-2.46ZM178.14,145.62c-.1.11-.43.46-.42.6l.07,2.32c1.39-.93,1-3.65.35-2.92ZM183.73,153.12c3.26-.47,2.5-.5,4.8-2.44-.12-1.73-2.14-5.44-4.13-4.19s-3.49.17-4,1.1c-.43.78-.26,2.66.51,2.9s1.73.42,2.31.64l.51,1.99ZM243.32,150.65l.48-1.94c-.05-.62-.31-1.16-.9-1.58-.61.33-1.34,1.42-.85,2.01l1.26,1.51ZM229.55,155.76c.79-1.39-.03-5.06-.79-6.08-1.71.71-2.03,2.65-1.14,4.15.48.8,1.12,1.42,1.93,1.93ZM247.21,155.11l-1.04-3.77c-.06-.21-.5-.82-.63-.65-.9,1.18-.1.88-1.43,2.96,1.36.77,2.4,1.71,3.09,3.29.16-.51.17-1.25,0-1.83ZM222.99,155.12c-.41-1.51-.63-3.51-2.41-4.14-.83-.13-2.08,1.08-2.24,1.87-.47,2.36.59,4.18,1.91,5.94.32.43.79.91,1.28.89.38-.02,2.29-1.49,1.46-4.55ZM181.56,157.06c1.15.19,2.46.46,3.1,1.67l3.19,5.96c.72-.11,1.06-.81,1.27-1.46.85-2.67,1.07-5.19.63-7.98-.06-.4.01-1.42-.32-1.61-.52-.3-1.04.61-1.43.82-1.41.77-3.32,1.23-4.91.88-1.13-.25-2.04-.33-3.21-.22s-1.93.15-2.36,1.45c-.31.96-.58,2.02-.68,3.13.98-2.21,2.42-3.02,4.71-2.63ZM207.97,162.88c.88-.57,1.7-1.38,2.19-2.13-.09-.99-.32-2.02-.35-2.92-.02-.72.15-1.47-.39-1.94-1.15-.99-3.41.55-3.57,2.02-.14,1.33-.02,2.63.32,3.9.16.6,1.14,1.49,1.79,1.07ZM216.66,159.17c-.48-2.05-2.59-4.49-3.22-3.62-.51.71-.05,3.58.19,4.69.14.67,1.23,1.53,1.72,2,1.11-.64,1.64-1.7,1.32-3.08ZM244.12,156.28c-.62-.5-1.86-.62-2.67-.4.76.62,1.56.92,2.05,1.5,1.3,1.56.77,2.87,1.76,2.97.81.08.2-2.98-1.15-4.07ZM227.5,158.26l-1.51-2.35c-1.03.66.15,1.18-1.52,3.89,1.22.04,2.34-.45,3.03-1.54ZM237.05,157.72c.12-.19.06-.68-.16-.57l-.59.29c-.61.3-1.31.71-1.44,1.17-.19.68-.14,1.45.45,1.94l1.74-2.82ZM242.35,160.25c-.11-1.43-.49-1.48-1.05-2.14-.25-.19-.72-.53-.96-.41-.25.13-.62.53-.67.79-.14.75,2,1.72,2.68,1.77ZM240.87,162.61c-.62-.15-1.35-.21-1.53-.39l-1.65-1.57c-.71.96-1.28,2.27-.85,3.35.65.36,2.03.58,2.71.28.63-.28,1.18-1.19,1.33-1.67ZM181.85,163.67c.66-.29-.05-1.96-.63-2.21-.68-.29-1.58-.26-2.21.3-.74.66-1.28,1.78-.82,2.57l3.66-.66ZM213.27,164.47c-.37-.82-.91-1.25-1.71-1.27-.47-.01-1.09.95-.86,1.34.78.22,1.63.17,2.57-.07ZM246.01,166.6c-.63-1.22-1.39-2.16-2.27-3.08-.71.19-.82.98-1.03,1.62-.5,1.52.21,3.65,1.96,3.81.68.03,1.66-1.71,1.34-2.34ZM185.81,167.14c.23-1.2.09-2.34-.97-3.13l-.23,1.86c-.07.57.63,1.42,1.2,1.28ZM241.53,169.58c-.78-.89-.01-1.52-.08-2.28-.11-1.16-1.86-.82-2.52-.3l-2.75-.4c-.67,1.97.27,3.58,1.46,5l1.22,1.44,2.26-2.18c.27-.26.66-1,.41-1.28ZM185.23,173.22l-.55-3.09c-2.09-.18-3.61,1.21-5.57-.87-.18-.19-.71-.34-.93-.26s-.5.63-.5.89l.07,2.77c2.11,1.46,1.98-2.62,6.27,1.03.17.14.57.29.76.33s.49-.59.45-.79ZM249.13,175.87l-.83-2.91c-.15-.53-.47-3.86-1.11-3.12-.09.11-.33.41-.38.54l-.57,1.55c-.48.58-.98,1.28-1.2,1.9l2.05-.05c.84-.02,1.18,2.22,2.04,2.09ZM245.95,179.01c.58.11,1.21.21,1.6,0-.44-1.21-.95-2.07-1.7-3.14l-2.35.51c-1.5.33-.82,3.13-.28,4.19l2.73-1.55ZM184.4,180.58c.28-1.01.04-2.73-.98-3.42-.34-.23-1.2.28-1.6.4l-2.93.84c-.32.09-.65.93-.52,1.21s.42.64.68.97c2.27,2.8,5.31.15,5.34,0ZM185.1,190.93c.43-2.79.36-5.16.28-7.76-1.02-.17-1.62.44-2.42.79-2.1.94-4.5-.05-6.21-1.72-.75.04-1.23,5.47-.55,5.8,1.21-.78,1.87-.92,2.97-.62l2.85.77c1.47.4,2,1.35,3.09,2.75ZM242.7,193.78c1.95-1.35,3.74-2.34,5.63-1.34,1.08.57,2.05,1.42,3.17,2.18.5-2.65-.03-8.46-1.43-10.42-.5.92-.7,1.65-1.28,2.31-.77.87-2.43,1.78-3.63,1.61-1.11-.15-2.03-.75-3.28-.71-.35,1.86.26,4.5.84,6.36ZM181.08,194.93c1.39-.92,2.83-1.38,2.86-2.64,0-.22-.71-.42-.78-.21-.74,2.06-2.97,1.87-2.08,2.85ZM185.51,203.3c1.11.98.26-3.48.29-3.22-.25-1.73-.15-3.26-.79-5.06-2.82,2.8-6.6,2.74-9.93,1.41.13,1.11.22,2.18.39,3.08l.52,2.81,3.25-1.89c3.32-1.93,5.01,1.74,6.27,2.86ZM248.19,196.46c.15-.33-.86-.9-1.16-.7l-1.17.82c.7.37,1.74.72,2.32-.12ZM244.89,200.15l-2.49-1.87c-.79.9-1.04,1.47-1.12,2.64l3.61-.77ZM251.7,202.45l-.36-2.14c-.75.25-1.39.52-1.72.91.15.96,1.15,1.42,2.08,1.24ZM242.98,203.45c.23-.39.43-.71.36-1.05-.92.4-1.61.79-2.34,1.33.24.95,1.46,4.48,2.5,3.75.96-.68-1.46-2.41-.52-4.03ZM180.51,203.33l-.53-.46c-1.11.27-1.79,1.02-1.34,2.27l1.86-1.8ZM181.18,209.17c1.81.77,3.89-2.26,3.55-2.95-.58-1.17-1.1-1.9-1.91-2.95l-.4,1.33c-.6,1.55-2.12,2.02-3.61,2.9.78.64,1.61,1.35,2.38,1.68ZM249.29,209.2c1.24-.49,2.27-1.81,1.81-3.06-.39-1.03-1.37-1.97-2.42-2.63-.24,1.22-.28,2.3-.67,3.29-.22.57-1.14,1.11-.55,1.81l1.83.59ZM187.64,223.68v-4.04s-1.61.74-1.61.74c-.91.42-2.85,1.11-3.87.74l-3.05-1.12c-1.13-.42-1.81-1.77-2.36-2.82s-.04-2.1.33-3.14c.35-.98.91-1.74,1.79-2.27.23-.14.62-.75.44-.91-.77-.72-2.22-.36-2.4-1.38-.09-.5.11-1.21.24-1.83.1-.48-1.3-.91-1.75-.7-1.01.76-.95,2.29-1.32,3.45-.41,1.3-.48,2.32-.3,3.68.31,2.36-.23,4.41,1.05,6.67l1.26,2.22c1.09-.52,2.24-1.04,3.34-1.19s1.26.54,1.65,1.25c.34.63,1.41-.2,1.8-.53l2.45-.8c.87.84,1.32,1.25,2.32,2ZM246.31,210.28c-.08-.34-.87-.77-1.28-.61l-2.53,1c-1.28-.36-1.8-1.6-2.78-2.57-.32,2.1,1,3.68,2.23,4.97.48-.59,1.05-1.52,1.62-1.74l2.74-1.06ZM186.91,213.08l-.57-3.88c-.37-.31-1.17.19-1.35.72-.12.37.2.88.53,1.33.49.67.63,1.31,1.38,1.83ZM253.64,214.47c.33-1.83.15-3.71-.64-5.23l-2.4,1.82.99,1.27c.61.79.72,2.05,2.05,2.14ZM183.43,211.83c-2.2-.38-4.57,1.75-4.09,4.05.27,1.3,3.33,4.29,5.82,2.37s-.38-4.02-1.73-6.42ZM251.71,217.91c.67-.57-.08-2.63-.87-2.33-1.14.42-2.07,1.39-3.13,1.86l-1.31.59c1.78,1.97,3.69,1.24,5.31-.12ZM250.81,223.09c.75.33,1.48.93,2.18.74.41-1.29.49-2.6.14-3.87l-2.87,1.22c-2.12.9-4.65-.24-5.89-2.07-.54.14-.66.79-.76,1.37-.52,3.06,1.14,5.45,1.16,5.45,1.05-.19.17-1.62,2.39-2.02,1.13-.2,2.45-1.35,3.64-.82ZM185.03,229.4c.79-.06,1.56-1.12,1.65-1.84.19-1.48-1.71-3.35-2.31-3.27-.95.13-2.79,2.18-1.94,3.87.4.79,1.39,1.33,2.6,1.24ZM187.94,230.35l-1.85,1.33c-1.37.1-2.81.16-4.19-.03-1.5-1.47-2.59-2.21-2.74-4.47l-3.12.02c-.64,2.8-.61,5.5.18,8.35,1.77-1.86,3.99-2.61,6.2-1.64.77.34,1.48,1.27,1.97,1.96.56,1.11,1.23,1.95,2.49,2.55.77-2.48,1.18-5.67,1.06-8.07ZM254.38,233.35c.4-.99,0-5.73-.92-4.96l-.63.52c-.31.26-.73.75-.81,1.07-.07.28.25.92.46,1.17l1.9,2.21ZM247.02,233.61c.68-.6,1.03-1.27.99-2.13-.61.03-1.49.3-2.1.59-.33.16-.25.99-.08,1.28.14.25.95.47,1.2.26ZM252.76,237.38c.28-1.21.08-2.64-.79-2.55-.68.06-1.34,1.82-.82,2.35.27.27,1.53.58,1.61.2ZM253.28,240.26c-.62,0-1.41.11-1.73-.04-1.04-.49-2.67-.74-3.41-1.34l-2.68-2.18c-.48-.4-.93-.77-1.6-1.06-.99,2.9-.04,5.72,1.43,8.17,4.42-4.87,4.9-2.67,7.75-2.47.31.02.54-1.09.25-1.08ZM180.61,239.45l.8-1c.23-.28.49-.92.46-1.28-.02-.33-.51-.8-.97-.98-.87-.34-2.87.02-3.04,1.08-.22,1.3,1.63,2.34,2.75,2.18ZM185.22,240.78c0-.38-.31-.69-.69-.69s-.69.31-.69.69.31.69.69.69.69-.31.69-.69ZM187.92,247.32c-.15-1.55-.53-2.9-1.02-4.01l-2.45.92c-.66.25-1.3.19-1.85-.31-3.94-3.59-2.69-.33-5.92-3.18-.34.53-.64,1.39-.58,2.02l.31,3.28,2.71-1.55c1.51-.86,4.77.24,5.14,2.39,1.35-.33,2.24-.05,3.66.46ZM252.98,243.93c-.77-.62-1.75.51-2.03,1.43.4.1,1.09.08,1.53-.07.33-.11.77-1.11.51-1.36ZM254.95,255.69c1.3-3.25.17-4.81.03-7.9-.02-.36-.12-.83-.32-.97s-.89.2-1.03.42c-1.3,2.09.7,4.45-.03,6.92-.45,1.54-1.77,3.01-3.26,3.54-.81.29-1.48.4-2.19.96,3.05,1.11,5.72-.28,6.8-2.96ZM181.06,249.83c.55-.26.58-1.46.3-1.91-.37-.59-1.19-.97-1.74-.82-.81.22-1.5.74-1.2,1.73.26.84,1.72,1.43,2.64,1ZM250.18,250.56c.41-1.33-3.04-2-3.35-1.19-.28.72,3.01,2.3,3.35,1.19ZM187.54,252.2c.06-1.17-.39-2.32-1.47-2.72-.53-.19-1.4.45-1.65.87-.62,1.08.14,3.33,1.19,3.56l1.93-1.71ZM250.96,253.33l-2.73.83-2.74-2.07c-.14-.11-.84,0-.84.18v.63c0,1.04.31,2.51,1.46,2.77,2.03.46,5.81-.5,4.85-2.34ZM182.37,255.14l-1.58-2.31-2.82-.46c-.91,2.06,1.09,4.67,2.95,5.59.64-.6,2.06-1.93,1.45-2.82ZM185.09,264.71c2.04,1.5,5.42-7.02,3.85-9.42-.23,0-.64.18-.63.37l.04.81c.08,1.83-.93,4.35-2.77,5.05l-1.89.72c.37.89.76,2.01,1.39,2.48Z"/>
      <path class="cls-1" d="M187.64,223.68c-1-.75-1.45-1.16-2.32-2l-2.45.8c-.39.33-1.46,1.17-1.8.53-.38-.71-.6-1.39-1.65-1.25s-2.25.67-3.34,1.19l-1.26-2.22c-1.28-2.26-.74-4.3-1.05-6.67-.18-1.36-.12-2.38.3-3.68.37-1.16.31-2.69,1.32-3.45.45-.21,1.85.22,1.75.7-.13.62-.33,1.33-.24,1.83.19,1.02,1.64.66,2.4,1.38.18.17-.22.78-.44.91-.88.53-1.44,1.28-1.79,2.27-.37,1.04-.86,2.11-.33,3.14s1.23,2.4,2.36,2.82l3.05,1.12c1.01.37,2.96-.32,3.87-.74l1.62-.74v4.04Z"/>
      <path class="cls-1" d="M187.94,230.35c.12,2.4-.29,5.58-1.06,8.07-1.27-.6-1.93-1.43-2.49-2.55-.48-.69-1.2-1.62-1.97-1.96-2.21-.97-4.42-.22-6.2,1.64-.8-2.85-.83-5.55-.18-8.35l3.12-.02c.15,2.27,1.23,3,2.74,4.47,1.38.19,2.83.12,4.19.03l1.85-1.33Z"/>
      <path class="cls-1" d="M181.56,157.06c-2.29-.38-3.73.42-4.71,2.63.1-1.1.37-2.16.68-3.13.42-1.3,1.24-1.34,2.36-1.45s2.08-.03,3.21.22c1.59.35,3.5-.12,4.91-.88.39-.21.91-1.12,1.43-.82.33.19.25,1.21.32,1.61.44,2.78.22,5.31-.63,7.98-.21.65-.55,1.34-1.27,1.46l-3.19-5.96c-.65-1.21-1.96-1.48-3.1-1.67Z"/>
      <path class="cls-1" d="M242.7,193.78c-.58-1.85-1.19-4.5-.84-6.36,1.26-.04,2.17.56,3.28.71,1.2.16,2.86-.74,3.63-1.61.59-.66.78-1.39,1.28-2.31,1.4,1.96,1.94,7.77,1.43,10.42-1.12-.76-2.09-1.61-3.17-2.18-1.89-1-3.68-.02-5.63,1.34Z"/>
      <path class="cls-1" d="M185.51,203.3c-1.26-1.12-2.95-4.79-6.27-2.86l-3.25,1.89-.52-2.81c-.17-.9-.25-1.97-.39-3.08,3.33,1.33,7.11,1.39,9.93-1.41.65,1.81.54,3.33.79,5.06-.04-.26.81,4.2-.29,3.22Z"/>
      <path class="cls-1" d="M185.1,190.93c-1.08-1.4-1.62-2.35-3.09-2.75l-2.85-.77c-1.1-.3-1.76-.15-2.97.62-.68-.33-.2-5.76.55-5.8,1.71,1.67,4.11,2.66,6.21,1.72.8-.36,1.4-.97,2.42-.79.08,2.61.15,4.98-.28,7.76Z"/>
      <path class="cls-1" d="M183.73,153.12l-.51-1.99c-.58-.22-1.56-.41-2.31-.64s-.94-2.12-.51-2.9c.51-.93,2.07.11,4-1.1s4.01,2.46,4.13,4.19c-2.3,1.94-1.54,1.97-4.8,2.44Z"/>
      <path class="cls-1" d="M186.74,135.57c-2.99-.83-3.99-1.38-6.83.07-1.12-1.59-.64-3.49-.55-5.32.04-.73.2-1.51.75-1.79.81-.43,1.37.02,2.03.51,1.35.99,2.92,2.02,3.52,3.64l1.07,2.9Z"/>
      <path class="cls-1" d="M183.43,211.83c1.35,2.41,4.18,4.53,1.73,6.42s-5.54-1.07-5.82-2.37c-.48-2.3,1.88-4.43,4.09-4.05Z"/>
      <path class="cls-1" d="M211.53,41l-3.8.71.74-2.76c.4-1.5,1.65-5.22,2.63-6.19l1.71-1.7c1.46-1.46,3.59-2.85,5.77-1.68-2.42.44-3.86,1.21-4.82,3.15l-1.59,3.23c-.76,1.54-.64,3.24-.63,5.23Z"/>
      <path class="cls-1" d="M195.87,139.65c-1.27.98-4.32-.73-4.2-2.15.2-2.44,2.4-5.01,3.83-4.49.51.18,3.9,3.13,1.79,5.4-.31.33-.96.9-1.42,1.25Z"/>
      <path class="cls-1" d="M222.99,155.12c.83,3.06-1.07,4.53-1.46,4.55-.49.02-.96-.46-1.28-.89-1.32-1.76-2.38-3.58-1.91-5.94.16-.79,1.41-2,2.24-1.87,1.77.63,2,2.64,2.41,4.14Z"/>
      <path class="cls-1" d="M250.81,223.09c-1.19-.53-2.51.62-3.64.82-2.22.39-1.35,1.82-2.39,2.02-.02,0-1.67-2.39-1.16-5.45.1-.58.22-1.23.76-1.37,1.24,1.84,3.77,2.98,5.89,2.07l2.87-1.22c.34,1.27.26,2.58-.14,3.87-.69.19-1.42-.41-2.18-.74Z"/>
      <path class="cls-1" d="M253.28,240.26c.29,0,.06,1.1-.25,1.08-2.84-.2-3.33-2.4-7.75,2.47-1.47-2.45-2.42-5.27-1.43-8.17.67.29,1.12.67,1.6,1.06l2.68,2.18c.74.6,2.37.86,3.41,1.34.32.15,1.11.04,1.73.04Z"/>
      <path class="cls-1" d="M187.92,247.32c-1.41-.51-2.31-.78-3.66-.46-.37-2.15-3.62-3.25-5.14-2.39l-2.71,1.55-.31-3.28c-.06-.62.24-1.48.58-2.02,3.23,2.86,1.98-.41,5.92,3.18.55.5,1.19.56,1.85.31l2.45-.92c.49,1.11.87,2.46,1.02,4.01Z"/>
      <path class="cls-1" d="M241.53,169.58c.25.28-.15,1.02-.41,1.28l-2.26,2.18-1.22-1.44c-1.19-1.41-2.14-3.03-1.46-5l2.75.4c.66-.52,2.41-.86,2.52.3.07.76-.7,1.39.08,2.28Z"/>
      <path class="cls-1" d="M215.42,53.27s-1.45,7.36-2.44,5.37l-1.36-2.72c-.44-.88-.33-2.21-.72-3.13-.23-.54-.41-1.3-.18-1.82.37-.84,2.12-1.16,2.56-.89.22.13.17.76.2,1.11l.06,1.05c.03.45,1.98.39,1.89,1.04Z"/>
      <path class="cls-1" d="M207.97,162.88c-.65.42-1.62-.46-1.79-1.07-.35-1.27-.47-2.56-.32-3.9.16-1.47,2.42-3.01,3.57-2.02.54.46.37,1.22.39,1.94.02.9.26,1.93.35,2.92-.49.75-1.31,1.56-2.19,2.13Z"/>
      <path class="cls-1" d="M254.95,255.69c-1.07,2.68-3.75,4.07-6.8,2.96.71-.56,1.38-.67,2.19-.96,1.49-.53,2.81-2,3.26-3.54.72-2.47-1.27-4.83.03-6.92.13-.22.82-.56,1.03-.42s.31.62.32.97c.15,3.1,1.27,4.66-.03,7.9Z"/>
      <path class="cls-1" d="M194.25,119.68c-.67-1.3-1.48-3.05-.52-4.37.75-1.04,2.88-1.09,3.87-.31,1.15.9,1.06,2.74.16,3.59-1.02.96-2,1.53-3.5,1.09Z"/>
      <path class="cls-1" d="M238.74,104.47c-1.1.45-1.1-1.01-2.67-1.47-.36-.11-1.24-.65-1.18-1.04.3-1.97.27-3.74,2.34-3.7,1.15.61,2.2,1.83,2.6,3.09.3.95-.06,2.69-1.1,3.12Z"/>
      <path class="cls-1" d="M184.4,180.58c-.04.14-3.07,2.79-5.34,0-.27-.33-.55-.69-.68-.97s.19-1.11.52-1.21l2.93-.84c.4-.11,1.26-.62,1.6-.4,1.03.69,1.26,2.41.98,3.42Z"/>
      <path class="cls-1" d="M185.23,173.22c.04.2-.27.83-.45.79s-.59-.18-.76-.33c-4.28-3.65-4.16.43-6.27-1.03l-.07-2.77c0-.26.28-.81.5-.89s.75.07.93.26c1.96,2.08,3.49.7,5.57.87l.55,3.09Z"/>
      <path class="cls-1" d="M199.22,146.42c-1.44.42-2.65.58-4.12.36-.23-1.68,1.32-3.21,2.52-4.04,1.09-.76,2.49-.63,3.34.33.43,1.51-.21,2.91-1.74,3.35Z"/>
      <path class="cls-1" d="M232.15,97.05l-1.84-1.89c-.35-.36.47-1.48.71-1.91.74-1.34,1.45-2.61,3.6-1.79-1.6,4.49.82,3.97-.35,5.59-.48.66-1.53.63-2.13.01Z"/>
      <path class="cls-1" d="M233.64,124.38c-.96,1.84-1.65,3.26-2.34,4.94-1.09-.76-2.38-2.27-1.95-3.77l.79-2.76c.05-.17.25-.51.33-.63.11-.16.68.08.8.24,1.15,1.55,2.93.89,2.36,1.98Z"/>
      <path class="cls-1" d="M202.37,73.59c-.45-.7,2.79-.68,2.13-1.86-2.6-4.69-.96-2.66-3.73-4.62-.58-.41,2.22-.83,3.45-1.97,1.76,1.3,1.23,8.11.29,8.89-.2.17-1.49.59-2.14-.43Z"/>
      <path class="cls-1" d="M234.92,87.59c-.63.92-2,1.38-3.04,1.07l-1.5-1.41c-.35-.33-.14-1.59.1-2l1.26-2.16c.2-.35.56-.67.84-.77s1.19.07,1.24.36c.22,1.26-1.95,1.91,1.11,4.91Z"/>
      <path class="cls-1" d="M185.09,264.71c-.63-.46-1.03-1.59-1.39-2.48l1.89-.72c1.84-.7,2.85-3.21,2.77-5.05l-.04-.81c0-.19.4-.36.63-.37,1.57,2.39-1.81,10.92-3.85,9.42Z"/>
      <path class="cls-1" d="M237.53,75.84c-.13-2.19-2.79-2.91-3.39-2.79l-2.23.45c.39-.95.69-1.67,1.22-2.41.74-1.03,2.34-1.2,3.44-.84l.95,1.3c.93,1.27,1.39,3.06,0,4.28Z"/>
      <path class="cls-1" d="M236.36,119.64l-.52,1.47c-1.17.52-3.8-.16-3.75-1.82.05-1.8,2.75-3.3,4.23-2.82.88.86.37,2.25.04,3.18Z"/>
      <path class="cls-1" d="M182.37,255.14c.61.89-.81,2.23-1.45,2.82-1.87-.91-3.87-3.53-2.95-5.59l2.82.46,1.58,2.31Z"/>
      <path class="cls-1" d="M181.18,209.17c-.77-.33-1.6-1.04-2.38-1.68,1.49-.88,3.01-1.35,3.61-2.9l.4-1.33c.81,1.05,1.33,1.78,1.91,2.95.34.69-1.74,3.72-3.55,2.95Z"/>
      <path class="cls-1" d="M185.03,229.4c-1.21.09-2.2-.45-2.6-1.24-.85-1.7.99-3.75,1.94-3.87.59-.08,2.49,1.79,2.31,3.27-.09.72-.86,1.79-1.65,1.84Z"/>
      <path class="cls-1" d="M234.97,114.3c-.99.62-1.78,1.03-2.83,1.45l-1.12,1.28c-1.2-.93-.47-1.92-.25-3.01.36-1.76.13-3.92,1.1-4.18.29-.08.96.32,1.05.66l.62,2.26,1.44,1.54Z"/>
      <path class="cls-1" d="M233.48,103.56l-2,1.1c-1.18-.78-3.16-4.79-1.94-5.92.76-.71,1.29,1.61,3.72,1.47-.04,1.23-.04,1.84.23,3.36Z"/>
      <path class="cls-1" d="M216.66,159.17c.32,1.38-.21,2.44-1.32,3.08-.49-.47-1.57-1.33-1.72-2-.24-1.11-.7-3.98-.19-4.69.63-.87,2.74,1.57,3.22,3.62Z"/>
      <path class="cls-1" d="M181.31,143.73c-.55.02-1.6.43-1.89.08-.51-.62-.34-2.1.26-2.45,1.31.11,2.78.29,4.06.22l2.58-1.37c-.25,1.36-.79,2.52-1.74,3.46-.86.2-2.25.03-3.27.06Z"/>
      <path class="cls-1" d="M207.61,63.91c-.32-.67-.66-1.35-.65-1.86l.06-2.51c.8-.39,1.77-.6,2.82-.64.08,1.94.19,3.59-.09,5.41-.12.77-1.82.25-2.14-.4Z"/>
      <path class="cls-1" d="M192.96,93.25c.96-1.55,1.03-.49,2.45-2.35.62-.82.89-1.54,1.33-2.7.94.51,1.13,5.58.47,6.1-1.51.54-2.88-.09-4.24-1.05Z"/>
      <path class="cls-1" d="M199.63,90.69l-.49-2.68c-.16-.89-4.15-3.86-1.98-3.77l3.05.13,1.53-.65-.91,3.22-1.2,3.77Z"/>
      <path class="cls-1" d="M245.95,179.01l-2.73,1.55c-.54-1.05-1.22-3.86.28-4.19l2.35-.51c.75,1.07,1.27,1.93,1.7,3.14-.39.22-1.01.12-1.6,0Z"/>
      <path class="cls-1" d="M199.57,82.1c-.03-1.47,1.1-2.53.55-3.75s-3.39-2.64-2.87-2.84l.58-.22c.71-.27,1.68-.48,2.28-.12.7.42,1.11,1.24,1.24,2.11.18,1.19.64,2.4.26,3.58-.19.6-1.49,1.21-2.04,1.25Z"/>
      <path class="cls-1" d="M219.84,33.17c-.56.11-1.54,0-1.93.18-.71.34-1.49.69-2.18.9.19-2,3.86-2.75,5.18-2.67,1.15.07,2.38.38,3.41.91.54.28,1.01,1.49,1.14,2.05.03.13-.44.39-.55.33-1.27-.8-2.27-2.25-5.06-1.7Z"/>
      <path class="cls-1" d="M250.96,253.33c.96,1.83-2.82,2.8-4.85,2.34-1.15-.26-1.47-1.73-1.46-2.77v-.63c0-.17.7-.28.84-.18l2.74,2.07,2.73-.83Z"/>
      <path class="cls-1" d="M249.29,209.2l-1.83-.59c-.59-.7.32-1.25.55-1.81.39-.99.43-2.08.67-3.29,1.05.66,2.03,1.6,2.42,2.63.47,1.25-.56,2.57-1.81,3.06Z"/>
      <path class="cls-1" d="M246.01,166.6c.32.62-.66,2.37-1.34,2.34-1.76-.15-2.46-2.28-1.96-3.81.21-.63.32-1.42,1.03-1.62.88.92,1.64,1.86,2.27,3.08Z"/>
      <path class="cls-1" d="M230.08,62.11c-1.81,1.71-.93-.11-2.97,2.51-1.62-.08-2.26-4.11-1.9-4.53.53-.62,1.47-.2,1.87.26.85.98,1.57,1.27,2.99,1.76Z"/>
      <path class="cls-1" d="M219.31,53.76c.95,1.99.27,1.84-2.29,4.8-.11.13-.43.4-.57.52-.12.1-.44-.26-.4-.46l1.38-5.84c.78-.71,1.59.39,1.87.98Z"/>
      <path class="cls-1" d="M217.83,40.8l-.57,1.21c-.08.17-.55.33-.73.3-.82-.11.61-.64.42-3.1-.07-.91,1.17-1.79,2.01-1.8l.83.74c.87.04,1.42.37,1.47,1.17.09,1.45-1.89,1.64-3.43,1.48Z"/>
      <path class="cls-1" d="M233.94,67.45l-.21-3.13c-.15-2.18-1.23-.94-1.06-2.64.02-.24.84-.18,1.03,0,1.31,1.24,3.29,3.02,2.68,4.56-.37.94-1.17,1.41-2.44,1.22Z"/>
      <path class="cls-1" d="M233.62,51.47c-1.35-.58-2.06-1.08-3.02-1.82l-2.83-1.23c-.33-.19.02-1.29.34-1.46,1.12-.58,3.14.2,4.07,1.38.7.89,1.1,1.89,1.44,3.13Z"/>
      <path class="cls-1" d="M228.3,74.23c-1.59-1.71-1.36-4.52-.7-5.93l2.97-.27c.15-.01.56.17.49.29-.68,1.22-1.22.67-1.68,2.25l-1.08,3.66Z"/>
      <path class="cls-1" d="M189.94,128.75c-.01.43-.92.93-1.57,1.2l-.31-4.19c-.09-1.21.06-2.41.6-3.51,1.18.91,1.4,2.04,1.37,3.28l-.09,3.23Z"/>
      <path class="cls-1" d="M238.34,112.41c-.7.38-1.9-.17-2.53-.55-.46-.28-.74-1.56-.3-1.61,1.73-.23,2.84-.68,3.95-2.04,1.59.96.24,3.47-1.12,4.2Z"/>
      <path class="cls-1" d="M211.15,47.61c-.63.13-.85-1.15-1.12-.75l-.28.42-.26.54c-.07.14-.63-.32-.66-.47l-.38-1.99c-.07-.37-.78-1.23-.46-1.56.65-.7,2.39-.69,2.98.07.62.8,1.04,3.58.18,3.75Z"/>
      <path class="cls-1" d="M243.83,117.34c-3.43-3.61-4.23-.38-5.56-1.36-.18-.13-.33-.71-.2-.88,1.44-.55,2.76-1.5,3.77-2.92.4.59.68,1.24.92,1.89.46,1.04,1.16,1.92,1.07,3.26Z"/>
      <path class="cls-1" d="M251.71,217.91c-1.62,1.36-3.52,2.09-5.31.12l1.31-.59c1.06-.48,1.99-1.44,3.13-1.86.79-.29,1.54,1.77.87,2.33Z"/>
      <path class="cls-1" d="M188.19,118.17c-.11.6-1.13-.39-2.35.09-.56.22-1.11.32-1.51.09-.89-.52-.76-2.78,0-2.99,2.08-.58,4.12,1.39,3.86,2.81Z"/>
      <path class="cls-1" d="M229.55,155.76c-.82-.52-1.45-1.13-1.93-1.93-.89-1.49-.57-3.43,1.14-4.15.76,1.02,1.58,4.69.79,6.08Z"/>
      <path class="cls-1" d="M187.54,252.2l-1.93,1.71c-1.05-.22-1.81-2.47-1.19-3.56.24-.43,1.12-1.07,1.65-.87,1.08.39,1.53,1.55,1.47,2.72Z"/>
      <path class="cls-1" d="M180.61,239.45c-1.12.16-2.97-.88-2.75-2.18.18-1.06,2.18-1.42,3.04-1.08.45.18.94.65.97.98.03.36-.24,1-.46,1.28l-.8,1Z"/>
      <path class="cls-1" d="M231.93,56.52l-2.52-1.18.71-2.17c.11-.33.26-.95.53-1.04.72-.24,2.19,1.47,2.23,2.28.03.66-.38,1.8-.94,2.11Z"/>
      <path class="cls-1" d="M246.31,210.28l-2.74,1.06c-.57.22-1.15,1.15-1.62,1.74-1.23-1.29-2.55-2.87-2.23-4.97.98.96,1.5,2.21,2.78,2.57l2.53-1c.41-.16,1.2.27,1.28.61Z"/>
      <path class="cls-1" d="M203.85,62.16l-2.86-.91c0-1-.06-2.72.84-3.21,1.17-.64,2.18.97,2.13,1.96l-.11,2.16Z"/>
      <path class="cls-1" d="M234.78,78.1c-1.19.42-2.97-.48-3.46-1.61-.34-.78,2.49-2.05,3.62-.81.44.48.83,2.07-.16,2.42Z"/>
      <path class="cls-1" d="M240.87,162.61c-.15.48-.7,1.39-1.33,1.67-.68.3-2.06.08-2.71-.28-.43-1.08.14-2.39.85-3.35l1.65,1.57c.19.18.91.24,1.53.39Z"/>
      <path class="cls-1" d="M253.64,214.47c-1.33-.08-1.44-1.35-2.05-2.14l-.99-1.27,2.4-1.82c.79,1.52.98,3.4.64,5.23Z"/>
      <path class="cls-1" d="M249.13,175.87c-.87.13-1.2-2.11-2.04-2.09l-2.05.05c.22-.62.72-1.31,1.2-1.9l.57-1.55c.05-.14.29-.44.38-.54.64-.74.96,2.59,1.11,3.12l.83,2.91Z"/>
      <path class="cls-1" d="M181.85,163.67l-3.66.66c-.46-.79.08-1.91.82-2.57.64-.56,1.54-.59,2.21-.3.58.24,1.29,1.92.63,2.21Z"/>
      <path class="cls-1" d="M186.13,128.4l-1.46-1.17c-.7-.56-1.95-1.62-1.09-2.64l2.39-1.18c.87.29.05,1.31.07,1.95l.09,3.04Z"/>
      <path class="cls-1" d="M247.21,155.11c.16.58.15,1.32,0,1.83-.69-1.57-1.73-2.52-3.09-3.29,1.32-2.08.53-1.78,1.43-2.96.13-.17.58.44.63.65l1.04,3.77Z"/>
      <path class="cls-1" d="M240.73,126.5c1,1.36-1.67,3.56-1.93,3.63-.52.13-1.47-.93-1.17-2.29.11-.49,2.49-1.79,3.1-1.34Z"/>
      <path class="cls-1" d="M237.27,88.5c1.19-1.69,1.79,1.06,3.94-3.02.16,1.84.17,3.38.05,5.23-1.37-1.4-2.1-1.88-3.99-2.21Z"/>
      <path class="cls-1" d="M238.05,86.17l-.24-4.29.02-1.64c1.01.53,1.35.91,1.91,1.61-.1,1.6-.01,3.05-1.68,4.32Z"/>
      <path class="cls-1" d="M254.38,233.35l-1.9-2.21c-.21-.24-.53-.88-.46-1.17.08-.33.5-.81.81-1.07l.63-.52c.92-.76,1.32,3.97.92,4.96Z"/>
      <path class="cls-1" d="M181.06,249.83c-.91.43-2.38-.16-2.64-1-.3-.99.39-1.5,1.2-1.73.55-.15,1.36.23,1.74.82.28.44.25,1.65-.3,1.91Z"/>
      <path class="cls-1" d="M237.31,134.53c-2.65.21-2,1.57-3.49,1.66-.33-.91-.36-2.36.3-2.98,1.52-.53,4.65,1.21,3.2,1.32Z"/>
      <path class="cls-1" d="M190.56,108.64c-1.21-.59-3.63-.75-3.7-1.02l-.28-1.14c-.08-.32.17-1.25.44-1.12,2.31,1.93,4.4,1.21,3.53,3.28Z"/>
      <path class="cls-1" d="M193.29,144.28l-.57.92c-.12.19-.82-.27-.85-.52l-.38-3.16c1.21-.37,2.19.15,2.9,1.01l-1.1,1.75Z"/>
      <path class="cls-1" d="M194.24,79.56c.37,3.09,1.35,1.65.94,3.2-.94.2-2.4-.44-2.74-1.46-.23-.67.43-2.01.95-2.53.21-.21.82.51.85.8Z"/>
      <path class="cls-1" d="M242.98,203.45c-.94,1.62,1.48,3.35.52,4.03-1.04.73-2.26-2.8-2.5-3.75.73-.54,1.42-.93,2.34-1.33.08.34-.13.66-.36,1.05Z"/>
      <path class="cls-1" d="M224.93,72.02c-.38-.19-.68-.68-.67-1.13.12-3.67-1.12-4.35,0-5.44l1.28,1.57-.61,4.99Z"/>
      <path class="cls-1" d="M235.28,130.74c-.44.5-1.53-.15-1.67-.66-.17-.65.13-1.58.45-2.14.56-.97.75-2.1,1.83-2.73-.47,1.79-.68,3.47-.62,5.54Z"/>
      <path class="cls-1" d="M244.12,156.28c1.34,1.09,1.95,4.15,1.15,4.07-.99-.09-.46-1.41-1.76-2.97-.49-.59-1.29-.88-2.05-1.5.81-.22,2.05-.1,2.67.4Z"/>
      <path class="cls-1" d="M185.47,96.71c0-1.11-.13-4.42,1.01-4.95.33-.15,1.03.45,1.18.81.16.39-.03,1.05-.32,1.46l-1.87,2.68Z"/>
      <path class="cls-1" d="M243.54,120.54c-1.46-.37-2.71-.73-3.8-1.36-.65-.38.27-1.52.83-1.55.66-.03,1.2.14,1.65.74l1.32,2.18Z"/>
      <path class="cls-1" d="M236.7,95.13c-.51-.12-1.13-.66-1.29-1.06-.37-.95.28-2.49,1.06-3.39.61.29.9,1.16.79,1.68l-.57,2.76Z"/>
      <path class="cls-1" d="M227.5,158.26c-.69,1.1-1.8,1.58-3.03,1.54,1.67-2.71.49-3.24,1.52-3.89l1.51,2.35Z"/>
      <path class="cls-1" d="M238.19,95.92l.64-2.98c.04-.19.43-.54.57-.66.18-.14.86.01.95.24.49,1.28-.16,3.35-2.15,3.4Z"/>
      <path class="cls-1" d="M237.25,145.94c-1,.72-1.79,1.12-2.16,2.46-.45-.95-.53-2.63.13-3.51.53-.71,2.2.35,2.02,1.06Z"/>
      <path class="cls-1" d="M244.89,200.15l-3.61.77c.08-1.17.33-1.74,1.12-2.64l2.49,1.87Z"/>
      <path class="cls-1" d="M191.34,90.5c-.23-.72-.01-1.69.33-2.18.29-.41,1.19-.89,1.77-.79.33.46.11,1.7-.29,2.11-.36.37-1.22.8-1.81.86Z"/>
      <path class="cls-1" d="M192.68,104.01c-.16.71-1.89.53-1.9-.35,0-.56,1-1.17,1.49-1.46l.81-2.05c.25.48.28.86.19,1.26l-.58,2.59Z"/>
      <path class="cls-1" d="M209.08,67.33l-1.71,2.96-.73-4.06c.72.02,1.69.44,2.44,1.11Z"/>
      <path class="cls-1" d="M189.41,146.45c.02.07-.24.43-.28.37l-.37-.43c-.45-.53-.84-.93-1.47-1.58l.81-2.57c.9.81.98,1.78.81,2.72l.5,1.49Z"/>
      <path class="cls-1" d="M182.24,114.22c-.75,1.75-.61,3.99-.22,5.95-1.58-.97-1.46-6.23-.09-6.66.17-.05.39.52.31.71Z"/>
      <path class="cls-1" d="M208.93,51.1l-4.1-.85c.28-.51,1.25-1.37,1.79-1.42l2.01,1.48c.12.09.26.48.3.79Z"/>
      <path class="cls-1" d="M208.26,55.83c-.1.7-1.37,1.62-2.2,1.2-.31-.15-.43-1.21-.1-1.42l1.85-1.18c.29.32.5.98.44,1.39Z"/>
      <path class="cls-1" d="M250.18,250.56c-.34,1.11-3.63-.47-3.35-1.19.31-.8,3.76-.14,3.35,1.19Z"/>
      <path class="cls-1" d="M190.02,99.21c.89.17-.82,2.88-2.08,2.85-.69-1.28.44-2.67,1.55-2.88.12-.02.44,0,.53.03Z"/>
      <path class="cls-1" d="M252.76,237.38c-.09.38-1.35.07-1.61-.2-.52-.53.15-2.29.82-2.35.87-.08,1.07,1.35.79,2.55Z"/>
      <path class="cls-1" d="M204.64,54.31l-.42.48c-.12.14-.64-.25-.7-.42-.16-.41-.08-1.27.16-1.59.46-.64,2.57-.69,2.59-.31l-1.63,1.84Z"/>
      <path class="cls-1" d="M243.32,150.65l-1.26-1.51c-.49-.59.24-1.68.85-2.01.58.42.85.96.9,1.58l-.48,1.94Z"/>
      <path class="cls-1" d="M186.91,213.08c-.75-.52-.89-1.17-1.38-1.83-.33-.45-.65-.96-.53-1.33.17-.53.98-1.03,1.35-.72l.57,3.88Z"/>
      <path class="cls-1" d="M242.35,160.25c-.68-.05-2.81-1.01-2.68-1.77.05-.26.42-.66.67-.79.23-.12.71.22.96.41.56.66.94.72,1.05,2.14Z"/>
      <path class="cls-1" d="M235.17,81.27c1.06-.62,1.48,3.75.56,4.14-.77-1.25-.82-2.77-.56-4.14Z"/>
      <path class="cls-1" d="M224.5,47.89c-.78-1.26,2.21-2.89,3.33-4.89-.1,3.08-1.29,2.26-3.33,4.89Z"/>
      <path class="cls-1" d="M239.42,139.92c-.1.83-.29,1.51-.66,1.67s-1.28-.09-1.52-.4l-.53-.67c-.12-.15.39-.7.58-.69l2.13.09Z"/>
      <path class="cls-1" d="M237.05,157.72l-1.74,2.82c-.58-.49-.64-1.26-.45-1.94.13-.46.83-.86,1.44-1.17l.59-.29c.22-.11.28.38.16.57Z"/>
      <path class="cls-1" d="M247.02,233.61c-.24.22-1.05,0-1.2-.26-.17-.29-.25-1.12.08-1.28.61-.3,1.5-.56,2.1-.59.04.86-.31,1.53-.99,2.13Z"/>
      <path class="cls-1" d="M196.83,66.25c-.28.36-1.19.51-1.85.54.17-.84.43-1.78.71-2.41,1.01-.29,1.67,1.17,1.14,1.88Z"/>
      <path class="cls-1" d="M197.33,80.58c-.42.21-1.06-.65-1.1-1.14l-.14-2.02c1.41.44,2.05,1.95,1.24,3.16Z"/>
      <path class="cls-1" d="M230.85,80.82l-1.7,2.6c-.62-1.43-.14-2.64,1.02-3.36.17-.11.83.52.67.76Z"/>
      <path class="cls-1" d="M215.91,51.33c-.03.29-.67.76-.86.6-.78-.65-.41-3.24.4-2.93.47.41.53,1.51.46,2.33Z"/>
      <path class="cls-1" d="M196.75,69.68c.09,1.11-.22,1.9-1.34,1.94-.21-.5-.45-1.41-.21-1.87.1-.19.53-.53.7-.62.21-.12.82.26.84.56Z"/>
      <path class="cls-1" d="M192.09,124.3c-1.07-.77-.16-1.46-1.39-3.16l.59-.47c1.16-.93.91,3.38.8,3.63Z"/>
      <path class="cls-1" d="M240.38,124.77c.12.48-.98-.49-2.21.33-.21.14-.76.02-1-.13s.06-.99.42-1.09c.46-.13,2.5-.29,2.8.9Z"/>
      <path class="cls-1" d="M239.15,137.33l-2.28.78c-.24.08-.75.22-.82.03s.02-.83.19-.98c.57-.51,2.16-.76,2.91.17Z"/>
      <path class="cls-1" d="M251.7,202.45c-.92.19-1.93-.28-2.08-1.24.33-.39.97-.66,1.72-.91l.36,2.14Z"/>
      <path class="cls-1" d="M181.08,194.93c-.89-.98,1.34-.78,2.08-2.85.07-.21.79-.01.78.21-.04,1.25-1.48,1.71-2.86,2.64Z"/>
      <path class="cls-1" d="M213.27,164.47c-.93.24-1.79.29-2.57.07-.23-.39.39-1.36.86-1.34.8.02,1.34.45,1.71,1.27Z"/>
      <path class="cls-1" d="M185.81,167.14c-.57.14-1.27-.7-1.2-1.28l.23-1.86c1.06.79,1.2,1.94.97,3.13Z"/>
      <path class="cls-1" d="M222.67,49.12c-.13.43-.41,1.04-.69,1.15s-1.12-.05-1.24-.36c-.22-.57.72-1.46,1.38-1.42.16,0,.6.46.55.63Z"/>
      <path class="cls-1" d="M252.98,243.93c.26.25-.18,1.24-.51,1.36-.43.15-1.12.17-1.53.07.28-.92,1.26-2.05,2.03-1.43Z"/>
      <path class="cls-1" d="M217,43.79c.65-.75,1.97.05,3.75-.18-1.04.77-2.49,1.38-3.75.18Z"/>
      <path class="cls-1" d="M183.5,108.41l.93-2.54c.64.6.89,1.15.8,1.77s-.86.89-1.73.77Z"/>
      <path class="cls-1" d="M226.83,51.16c.79-.13-1.6,2.23-1.46,3.87-.42-1.07-.23-3.58,1.46-3.87Z"/>
      <path class="cls-1" d="M241.18,142.43c-.08-.66.51-1.72.98-1.99.6.16.8.92.54,1.4-.21.39-1.08.93-1.52.59Z"/>
      <path class="cls-1" d="M178.14,145.62c.66-.73,1.05,1.98-.35,2.92l-.07-2.32c0-.15.33-.5.42-.6Z"/>
      <path class="cls-1" d="M194.05,73.91c-.12.72-.72,1.76-1.6,1.93-.04-.27.06-.91.23-1.22l.43-.82c.1-.18.92-.09.94.11Z"/>
      <path class="cls-1" d="M248.19,196.46c-.58.84-1.62.49-2.32.12l1.17-.82c.29-.21,1.3.37,1.16.7Z"/>
      <path class="cls-1" d="M240.18,78.96c.04.25-.72.35-.81.18-.43-.85-.38-2.16.41-2.52l.4,2.34Z"/>
      <path class="cls-1" d="M230.11,90.53c-.07,1-.6,1.91-1.52,1.62.09-.42.31-1.18.48-1.66.09-.25,1.06-.26,1.04.04Z"/>
      <path class="cls-1" d="M180.51,203.33l-1.86,1.8c-.45-1.25.23-1.99,1.34-2.27l.53.46Z"/>
      <path class="cls-1" d="M230.09,65.04c-.03.44-.18.99-.48,1.16-.37.21-.94.03-1.34-.33.46-.69.74-.78,1.82-.82Z"/>
      <path class="cls-1" d="M234.51,105.35c.34-.04-.19,1.88-1.11,1.84-.28-.01-.54-.97-.35-1.18.44-.51.7-.58,1.47-.66Z"/>
      <path class="cls-1" d="M241.27,131.06c.42-.79.85-1.45,1.53-2.13.54,1.1-.03,2.2-1.53,2.13Z"/>
      <path class="cls-1" d="M230.72,45.14c-.13.3-.98.13-1.22-.08-.31-.26-.25-1,.18-1.34.37.19.9.79,1.04,1.42Z"/>
      <circle class="cls-1" cx="184.54" cy="240.78" r=".69"/>
    </g>
  </g>
</svg>