<?xml version="1.0" encoding="UTF-8"?>
<svg id="Layer_2" data-name="Layer 2" xmlns="http://www.w3.org/2000/svg" viewBox="0 0 432 288">
  <defs>
    <style>
      .cls-1 {
        fill: #fff;
      }
    </style>
  </defs>
  <path class="cls-1" d="M206.07,110.95c1.29-.58,6.37-.38,7.63.01.43.14.7.22,1.15.23,3.55.04,4.38,2.25,5.36,2.7.6.28,1.27.62,1.8.81.77.27,1.28.33,1.89.93.42.42,1.26.69,1.33,1.45.07.8.41,1.29.94,1.9.64.74.84,1.89,1.36,2.71,1.07,1.72,1.35,3.49,1.12,5.52l-.27,2.38c-.43,3.75-.71,3.92-1.36,7.28l-.67,3.45c-.25,1.3-.72,2.55-.62,3.9.07.84-.21,1.67-.36,2.49l-.29,1.61-.41,2.4c-.23,1.3-.6,2.5-.85,3.8l-.79,4.11c-.44,2.28-1.12,2.81-1.59,6.97-.28,2.51-.58,1.98-.85,3.7l-.82,5.06c-.15.93-.23,1.63-.68,2.54-.19.38-.26,1.18-.27,1.66-.02.91-.44,1.53-.65,2.36l-1.92,7.33c-.39,1.49-.96,2.84-1.04,4.41-.04.78-.29,1.43-.72,2.09-.07.32-.15.86-.24,1.18l-.62,2.22-.65,2.32-.5,1.68c-.46,1.55-.53,3.42-.58,3.6-.23.72-.48,1.36-.63,2.08l-.45,2.22c-.23,1.13-.72,2.16-.84,3.34-.09.92-.14,2.03-.44,2.85l-1.02,2.85c-.81,2.26-1.38,4.28-1.95,6.61l-1.09,4.44c-.19.79-.46,1.47-.53,2.31-.21,2.36-1.2,2.55-1.43,5.8-.05.74-.32,1.11-.68,1.71-.64,1.04-.69,2.46-.89,3.65l-.29,1.73-.67,1.18c.1,1.01-.42,1.74-.81,2.58-.45.97-.07,2.35-.42,3.36l-1.79,5.24c-.21.6-.19,1.45-.47,2.03-.65,1.34-.49,2.97-.94,4.24l-1.01,2.81-.61,3.04c-1.63.73-.27,2.42-1.28,2.92-.88.43-1.63.45-2.57.52-1.15.09-2.14,1.3-2.31,2.38-.11.72.13,1.22.46,1.75.89,1.41,4.16.72,4.35.74l3.6.27c.52.04.98-.05,1.49-.09,1.16-.1,2.4.22,3.55-.27l1.03-.87c.32-.27.41-1,.55-1.45.27-.88.61-1.84.48-2.78-.66-4.59.23-2.56.26-4.25,0-.55.08-.99.33-1.4.35-.58.48-1.2.71-1.82l.59-1.58c.25-.67.65-1.41.26-2.15l-1.07-.91s.01-.34.07-.34h.36s.25.06.28.09l.46.39c.11.09.45-.11.53-.22l.42-.55c.32-.41.37-.83.5-1.37l.67-2.67c.21-.84.34-1.46.57-2.29l.99-3.6c.22-.79.27-1.51.52-2.3l.59-1.86.29-1.3.75-2.98c.08-.33.22-.76.33-1.09l1.22-3.47c.17-.48.25-1.01.37-1.53l.69-3.07.35-1.63,1.11-6.19.47-2.27c.17-.84.22-1.55.58-2.29.19-.39.29-1.17.37-1.63.21-1.17.51-2.13.84-3.25.35-1.2.34-2.56.81-3.75.84-2.12.02-1.04,1.04-3.83.33-.89.46-1.72.63-2.69.06-.35.35-.88.36-1.27.04-2.35,1.29-5.1,1.62-7.38.11-.79.43-1.31.64-2.02.41-1.43.83-2.94,1.03-4.45l.59-4.6c.12-.96-.1-1.99.27-2.89.35-.83.38-1.69.64-2.53l.7-2.25c.16-.5.28-.98.37-1.5l.51-2.98c.14-.8.38-1.49.38-2.4,0-.54.07-1.3.19-1.79l.47-1.89c.08-.31.3-.78.42-1.06.19-1.19.42-2.33.73-3.5l.89-3.35c.36-1.37.3-2.13.59-3.62.45-2.3-.22-2.84.81-3.23.82.24.34,1.39.52,1.88.33.88.43,1.84.54,2.76.09.73.55,1.39.48,2.29-.12,1.52.66,3.22.53,3.98s.07,1.26.07,1.94l.02,1.85c0,.19.16,2.88.14,2.78l.73,3.39.62,1.85,1.3,5.43c.27,1.14.27,2.4.31,3.52.01.38.14,1.04.18,1.46.02.22.48.53.7.65l1.83,1.01c.72.4,1.38,1.43,2.26,1.53l2.01.23c1.04.12,1.95-.14,2.92-.33,1.34-.26,2.65-.3,3.85-1.04l.79-1.03c.14-1.31.41-3.42-1.3-3.55-.73-.06-1.31-.03-1.99.26-.79.34-1.91.46-2.47-.31-.99-1.36-1.91-1.99-3.5-2.69-.3-.13-1.25-.14-1.22-.47.07-.72-.37-1.34-.38-1.86l-.05-4.01-.04-1.83v-2.03c0-.79-.25-1.48-.44-2.25-.7-2.95-.9-4.41-1.14-7.42l-.25-3.14c-.22-2.71.29-.41-.32-3.94l-.35-2.03c-.1-.58-.15-1.37-.13-1.94.04-.86-.06-1.55-.15-2.41-.1-1.01.57-2.13.11-3.2-.41-.96-.35-1.95-.4-3.03-.04-.85-.43-1.76-.65-2.57l-.64-2.39c-.29-1.06-.99-2.24-.73-3.33l.77-3.25c.12-.51.13-1.04.24-1.52l.38-1.53c.18-.73.33-1.44.47-2.18l.28-1.47.51-2.44c.42-2.03.47-1.2.74-3.48l.3-2.51.14-1.46c.05-.49.5-1.02.86-1.44l.12-1.47c.05-.64-.03-1.11-.13-1.81-.15-.86.92-2.77.8-3.29-.16-.66-.01-1.06.11-1.66l.32-1.57c.23-1.12.45-2.26.53-3.38.15-2.27.46-1.52.74-3.78l.52-4.22c.07-.55.17-1,.31-1.53.26-1,.34-2.08.49-3.15l.58-4.04c.16-1.09.34-2.12.56-3.19l.32-1.54c.6-2.91.17-2.8.78-5.46.23-1.01.44-2.03.56-3.07l.78-6.72c.06-.51-.05-1.09.19-1.5,1.07-1.8-.22-1.98.98-5.3.35-.97-.16-2.16.05-3.11.43-1.99.93-2.81.77-4.77.72-2.21.42-2.69.32-4.38-.02-.37.12-1.08.13-1.5.09-2.3-.05-2.8-.03-4.87l.04-4.52.12-1.27c.1-1.1.12-2.03-.06-3.14-.04-.27.42-2.22.37-3.55-.03-.97-.1-1.71.11-2.6.4-1.64-.23-3.43-.42-5.07-.14-1.16-.54-1.85-1.52-2.49-.4-.26-.76-.81-1.32-.79-2.95.12.09-.76-4.44.15-.5.1-.84.1-1.4.09-.49-.01-1.13.54-1.62.72-.69.26-1.05.63-1.54,1.13l-2.07,2.11c-.62.63-1.09.13-1.72-.16-.47-.22-1.33-.07-1.9-.13-1.22-.12-2.36-.23-3.56-.09-.46.05-.99.05-1.43,0l-2.89,1.92c-.36.24-1.03.8-1.29,1.13l-1.42,1.87-1.09,1.56-1.11,1.42c-.25.32-.48,1.11-.57,1.56-.17.94.55,2.06,1.35,2.37.92.36,1.32-.51,1.65-1.06.8-1.36,1.83-2.51,2.75-3.78.76-1.04,1.75-1.92,3.05-1.3.01.43.32,1.18.31,1.55-.02.81-.08,1.73-.19,2.45-.13.84-.48,1.28.17,2.03.52.6.28,1.76.25,2.53-.04.87.05,1.73-.22,2.48-.31.87-.45,1.62-.47,2.55-.01.74-.39,1.51-.48,2.18-.12.87-.32,1.5-.56,2.28-.46,1.53-.26,3.44-1.2,4.84-.45.66-.35,1.18-.62,1.96l-1.06,3.04c-.31.88-.64,1.68-1.33,2.32,0,2.1.03,1.92-.52,3.99-.43,1.63-1.35,3.14-1.68,4.79-.27,1.32-.7,2.42-1.21,3.65-.41,1.02-.46,2.11-1.26,3.04-.33.38-.52,1.02-.59,1.55-.11.88-.39,1.6-.7,2.41l-.69,1.8-1.81,5.41-.92,2.55-.42,1.3-1.05,2.79c-.21.55-.35,1.07-.63,1.59-.25.48-.37.91-.46,1.46-.21,1.26-1.01,2.04-1.68,4.03-.41,1.2-.87,2.3-1.4,3.46-.93,2.05-1.14,3.39-2.23,5.46l-1.38.53-1.83.82c-1.21.54-3.47,2.66-4.73,3.51-1.61,1.09-3.12,2.11-4.63,3.34l-2.4,1.96c-.53.44-1.03.83-1.46,1.36l-2.81,3.44c-.54.66-1.11,1.28-1.69,1.92-.7.77-1.18.93-2.17,2.19-.73.93-1.38,1.84-1.95,2.89-1.19,2.18-1.2,1.28-1.87,2.61-.27.54-.57,1.11-.94,1.58-.71.93-1.12,2-1.74,2.97s-1.35,1.63-1.51,2.87c-.09.68-.56,1.41-1.1,1.8l-.16,1c-.05.3-.05.76.08,1.03.31.63.89.19,1.68,1.08.71.81,1.2-.44,2.08-.53.42,1.01-.2,1.04.36,1.75.34.42.47-1.2.83-1.44.72-.47,1.07-1.11,1-2.01l1.03-2.02c.21-.41.6-.91.75-1.26.36-.85.6-1.55,1.23-2.27.36-.41.5-1.22.81-1.67l1.09-1.57,2.55-3.68,1.35-1.56c.2-.72.65-.94,1.04-1.38l3.24-3.63c.34-.38.68-.8,1.04-1.13l1.64-1.5c.57-.52,1.05-.93,1.54-1.62.36-.27,1.15-.71,1.59-.81l1.54-.36c.11-.03.35,0,.45.03.08.02-1.36,4.39-1.21,4.03l-2.12,4.85c-.18.41-.26.89-.4,1.31l-1.24,3.69c-.47,1.41-.73,2.57-1.29,3.93l-.96,2.3c-.37.9-.77,1.78-1.05,2.69-.63,2.07-1.36,3.87-2.41,5.76-.3.55-.56,1.42-.71,2.05l-.98,4.01-.31,1.71c-.17.92-.38,1.72-.76,2.53l-1.16,2.47-1.51,4.13c-.38,1.05-1.17,3.39-1.55,4.05-.68,1.18-1.18,2.26-1.68,3.51-.26.64-.67,1.25-.81,1.96s-.59,1.24-.92,1.87c-.39.75-.44,1.71-.79,2.52-.2.45-.78.94-.92,1.4l-.92,3.17-.6,1.58-2.68,6.35c-.54,1.28-.88,2.7-1.72,3.78-.49.62-.96,1.16-1.18,1.95-.07.26-.48.71-.58.97-.56,1.65-1.66,3.09-2.29,4.66l-1.21,3.01c-.65,1.61-1.14,3.16-2.12,4.66-.4.61-.72,1.35-1.08,2.02l-.66,1.2c0,.79-.62,1.29-.87,1.92-.47,1.21-.52,2.55-1.69,3.36-.04.42-.11.99-.28,1.28l-1.48,2.63c-.43.76-.88,1.47-1.22,2.33l-1.19,3.07c-.4,1.02-1.08,2.14-1.63,3.32l-.71,1.51c-.9,1.92.07.55-1.14,2.88l-.6,1.15c-.66,1.28-1.46,2.51-2.02,3.81s-.98,2.4-1.72,3.54c-.98,1.52-1.01,3.48-1.69,5.15l-1.82,4.42-1.15,2.9c-1.23,3.1-2.1,2.75-2.8,4.49-.4.99-1.15,1.75-1.58,2.65-1.03,2.17-2.38,3.96-4.07,5.67-.81.82-1.44,1.62-2.73,1.85-.9.16-1.57.71-2.29,1.27-1.39,1.09-3.82.85-4.17,2.03-.16.52-.2,1.27-.27,1.93,1.46,1.82,3.26,1.78,5.15.62.67-.41,1.39-.63,2.16-.69l1.91-.14c.94-.07,1.84-.08,2.8-.11l2.5-.09c.77-.03,1.69.17,2.39-.38.45-.35,1.1-1.1,1.05-1.85s-.31-1.66-.74-2.28-1.51-.57-2.14-.77c-.31-.35,0-.94.33-1.24.38-.35.56-.89.77-1.38.51-1.21,1.74-3.77,2.49-4.72.34-.43.55-.93.65-1.51s.39-1.02.63-1.51l.74-1.51,1.09-2.19c.28-.57.31-1.3.68-1.84l1.06-1.52c.55-.79.77-1.69,1.2-2.57l1.01-2.09c.52-1.07.94-2.12,1.54-3.16l.7-1.2c.22-.38,1.34-3.59,2.08-4.97.8-1.5,1.53-2.95,2.29-4.46l.98-1.96c.38-.75.48-1.78.94-2.47.4-.6.75-1.03.92-1.73.39-1.61,1.45-3.06,2.13-4.68l.8-1.9c.27-.65.96-1.29,1.12-1.95.15-.61.25-1.04.51-1.57.22-.44.38-1.04.63-1.45.53-.84.82-1.67,1.23-2.55l.87-1.88.79-1.72c.71-1.54,1.64-2.65,2.01-3.86.21-.71.41-1.33.65-2l.55-1.51c.1-.27.22-.7.3-.97.68-.53.72-1.21.92-1.96l.64-2.31c.24-.87,1.35-3.25,1.87-4.84,1.13-3.45.03-.34,1.4-3.14.41-.84.77-1.59,1.04-2.48.23-.74.74-1.41,1.01-2.08.34-.84.73-1.74,1-2.55.41-1.28.81-2.35,1.36-3.53l1.91-4.05c1.08-2.29.54-2.92,1.54-4.12.39-.47.47-1.08.72-1.63l1.51-3.27.7-1.64,1.59-4.2c.9-2.37,1.21-1.91,2.11-3.99.19-3.54.88-3.55,1.78-6.01.83-2.3,1.56-2.81,2.25-4.91.81-2.46,1.69-3.32,2.51-6.08.15-.51.23-1,.43-1.46.34-.78.67-1.55.91-2.36l.78-2.64c.68-2.31,1.41-4.11,1.93-6.21.14-.57.49-1.11.66-1.63.39-1.16.7-2.24,1.29-3.34.49-.92,1.16-3.59,1.76-3.86ZM180.63,138.16c.68.29,1.98.16,2.32-.46.37-.66.27-1.66.78-2.23.47-.52.84-1.21.56-1.78-.12-.26-.56-.54-.78-.51-.19.02-.57.24-.71.4l-1.39,1.47s-1.84,2.66-.79,3.11Z"/>
  <path d="M206.07,110.95c-.6.27-1.27,2.95-1.76,3.86-.59,1.1-.9,2.17-1.29,3.34-.18.52-.52,1.06-.66,1.63-.52,2.1-1.24,3.9-1.93,6.21l-.78,2.64c-.24.81-.57,1.58-.91,2.36-.2.46-.28.95-.43,1.46-.82,2.76-1.7,3.62-2.51,6.08-.69,2.1-1.42,2.61-2.25,4.91-.89,2.46-1.59,2.48-1.78,6.01-.89,2.08-1.21,1.62-2.11,3.99l-1.59,4.2-.7,1.64-1.51,3.27c-.26.55-.33,1.16-.72,1.63-1,1.21-.46,1.83-1.54,4.12l-1.91,4.05c-.56,1.18-.95,2.25-1.36,3.53-.26.82-.66,1.71-1,2.55-.27.67-.79,1.34-1.01,2.08-.27.89-.63,1.64-1.04,2.48-1.37,2.8-.27-.31-1.4,3.14-.52,1.59-1.63,3.97-1.87,4.84l-.64,2.31c-.21.75-.24,1.43-.92,1.96-.08.27-.2.7-.3.97l-.55,1.51c-.24.66-.44,1.29-.65,2-.36,1.2-1.3,2.32-2.01,3.86l-.79,1.72-.87,1.88c-.41.89-.7,1.71-1.23,2.55-.26.41-.42,1-.63,1.45-.26.53-.36.96-.51,1.57-.16.67-.84,1.31-1.12,1.95l-.8,1.9c-.68,1.62-1.75,3.07-2.13,4.68-.17.7-.52,1.13-.92,1.73-.46.69-.57,1.72-.94,2.47l-.98,1.96c-.76,1.51-1.49,2.96-2.29,4.46-.73,1.37-1.86,4.59-2.08,4.97l-.7,1.2c-.6,1.03-1.03,2.09-1.54,3.16l-1.01,2.09c-.42.87-.65,1.78-1.2,2.57l-1.06,1.52c-.37.54-.4,1.27-.68,1.84l-1.09,2.19-.74,1.51c-.24.49-.53.96-.63,1.51s-.32,1.08-.65,1.51c-.76.95-1.98,3.51-2.49,4.72-.21.49-.39,1.03-.77,1.38-.33.3-.64.88-.33,1.24.63.2,1.71.17,2.14.77s.69,1.51.74,2.28-.6,1.5-1.05,1.85c-.7.55-1.62.35-2.39.38l-2.5.09c-.96.03-1.86.04-2.8.11l-1.91.14c-.76.06-1.48.27-2.16.69-1.89,1.16-3.69,1.2-5.15-.62.07-.66.11-1.41.27-1.93.36-1.18,2.78-.94,4.17-2.03.72-.56,1.39-1.11,2.29-1.27,1.29-.23,1.92-1.03,2.73-1.85,1.68-1.7,3.04-3.5,4.07-5.67.43-.91,1.19-1.66,1.58-2.65.7-1.74,1.57-1.38,2.8-4.49l1.15-2.9,1.82-4.42c.69-1.67.71-3.63,1.69-5.15.74-1.14,1.18-2.3,1.72-3.54s1.36-2.54,2.02-3.81l.6-1.15c1.21-2.33.24-.96,1.14-2.88l.71-1.51c.55-1.18,1.24-2.31,1.63-3.32l1.19-3.07c.33-.86.78-1.57,1.22-2.33l1.48-2.63c.16-.29.23-.86.28-1.28,1.18-.81,1.22-2.15,1.69-3.36.24-.63.86-1.12.87-1.92l.66-1.2c.37-.67.68-1.41,1.08-2.02.98-1.5,1.47-3.04,2.12-4.66l1.21-3.01c.63-1.57,1.73-3.01,2.29-4.66.09-.27.5-.71.58-.97.22-.79.69-1.33,1.18-1.95.84-1.08,1.18-2.5,1.72-3.78l2.68-6.35.6-1.58.92-3.17c.13-.46.72-.94.92-1.4.35-.8.4-1.77.79-2.52.33-.64.77-1.15.92-1.87s.55-1.32.81-1.96c.5-1.25.99-2.34,1.68-3.51.38-.66,1.17-3,1.55-4.05l1.51-4.13,1.16-2.47c.38-.81.6-1.62.76-2.53l.31-1.71.98-4.01c.15-.63.41-1.5.71-2.05,1.04-1.89,1.78-3.69,2.41-5.76.28-.91.68-1.8,1.05-2.69l.96-2.3c.57-1.36.82-2.53,1.29-3.93l1.24-3.69c.14-.42.22-.9.4-1.31l2.12-4.85c-.16.36,1.29-4,1.21-4.03-.1-.03-.34-.06-.45-.03l-1.54.36c-.44.1-1.24.54-1.59.81-.49.68-.97,1.09-1.54,1.62l-1.64,1.5c-.36.33-.71.76-1.04,1.13l-3.24,3.63c-.39.44-.84.67-1.04,1.38l-1.35,1.56-2.55,3.68-1.09,1.57c-.31.45-.45,1.26-.81,1.67-.63.72-.87,1.42-1.23,2.27-.15.36-.54.86-.75,1.26l-1.03,2.02c.07.9-.28,1.54-1,2.01-.36.24-.49,1.86-.83,1.44-.56-.71.06-.74-.36-1.75-.88.09-1.37,1.34-2.08.53-.78-.89-1.37-.45-1.68-1.08-.14-.28-.13-.73-.08-1.03l.16-1c.54-.39,1.02-1.12,1.1-1.8.16-1.24.91-1.94,1.51-2.87s1.03-2.04,1.74-2.97c.36-.47.66-1.04.94-1.58.67-1.33.69-.43,1.87-2.61.57-1.05,1.22-1.97,1.95-2.89.99-1.26,1.48-1.43,2.17-2.19.58-.64,1.16-1.26,1.69-1.92l2.81-3.44c.43-.53.92-.93,1.46-1.36l2.4-1.96c1.51-1.24,3.02-2.26,4.63-3.34,1.26-.85,3.53-2.97,4.73-3.51l1.83-.82,1.38-.53c1.09-2.07,1.29-3.41,2.23-5.46.53-1.16.99-2.25,1.4-3.46.67-1.99,1.47-2.77,1.68-4.03.09-.55.21-.98.46-1.46.27-.52.42-1.04.63-1.59l1.05-2.79.42-1.3.92-2.55,1.81-5.41.69-1.8c.31-.81.59-1.53.7-2.41.07-.53.26-1.17.59-1.55.8-.93.85-2.03,1.26-3.04.5-1.23.94-2.33,1.21-3.65.33-1.65,1.25-3.16,1.68-4.79.55-2.07.51-1.89.52-3.99.69-.64,1.02-1.44,1.33-2.32l1.06-3.04c.27-.78.17-1.3.62-1.96.94-1.39.75-3.31,1.2-4.84.23-.78.44-1.42.56-2.28.09-.67.47-1.44.48-2.18.02-.93.16-1.67.47-2.55.27-.75.18-1.61.22-2.48.04-.77.27-1.93-.25-2.53-.66-.76-.3-1.19-.17-2.03.11-.72.17-1.64.19-2.45,0-.37-.3-1.12-.31-1.55-1.3-.62-2.29.26-3.05,1.3-.93,1.27-1.95,2.42-2.75,3.78-.32.55-.72,1.42-1.65,1.06-.8-.31-1.53-1.43-1.35-2.37.08-.46.32-1.25.57-1.56l1.11-1.42,1.09-1.56,1.42-1.87c.26-.33.93-.89,1.29-1.13l2.89-1.92c.44.04.97.05,1.43,0,1.2-.14,2.34-.03,3.56.09.57.06,1.43-.09,1.9.13.63.29,1.1.8,1.72.16l2.07-2.11c.49-.5.84-.87,1.54-1.13.49-.18,1.14-.74,1.62-.72.56.01.91.01,1.4-.09,4.53-.91,1.49-.03,4.44-.15.56-.02.93.53,1.32.79.97.64,1.38,1.32,1.52,2.49.19,1.64.82,3.43.42,5.07-.22.89-.15,1.63-.11,2.6.05,1.33-.41,3.28-.37,3.55.18,1.12.16,2.05.06,3.14l-.12,1.27-.04,4.52c-.02,2.07.12,2.58.03,4.87-.02.43-.15,1.13-.13,1.5.1,1.69.39,2.17-.32,4.38.17,1.96-.34,2.78-.77,4.77-.21.95.3,2.14-.05,3.11-1.19,3.32.09,3.5-.98,5.3-.24.41-.13.99-.19,1.5l-.78,6.72c-.12,1.03-.33,2.06-.56,3.07-.61,2.66-.18,2.55-.78,5.46l-.32,1.54c-.22,1.07-.4,2.1-.56,3.19l-.58,4.04c-.15,1.06-.23,2.14-.49,3.15-.14.54-.25.98-.31,1.53l-.52,4.22c-.28,2.26-.59,1.51-.74,3.78-.07,1.13-.3,2.27-.53,3.38l-.32,1.57c-.12.6-.27,1.01-.11,1.66.13.52-.95,2.43-.8,3.29.1.7.18,1.17.13,1.81l-.12,1.47c-.36.42-.81.94-.86,1.44l-.14,1.46-.3,2.51c-.27,2.28-.32,1.45-.74,3.48l-.51,2.44-.28,1.47c-.14.74-.29,1.45-.47,2.18l-.38,1.53c-.12.48-.12,1.01-.24,1.52l-.77,3.25c-.26,1.1.45,2.28.73,3.33l.64,2.39c.22.81.61,1.72.65,2.57.06,1.09,0,2.07.4,3.03.45,1.07-.22,2.19-.11,3.2.09.85.19,1.55.15,2.41-.02.57.03,1.36.13,1.94l.35,2.03c.61,3.53.11,1.23.32,3.94l.25,3.14c.24,3.02.43,4.48,1.14,7.42.18.77.43,1.46.43,2.25v2.03s.04,1.83.04,1.83l.05,4.01c0,.52.44,1.14.38,1.86-.03.33.92.34,1.22.47,1.59.7,2.52,1.33,3.5,2.69.56.77,1.68.65,2.47.31.68-.29,1.26-.32,1.99-.26,1.72.13,1.44,2.24,1.3,3.55l-.79,1.03c-1.2.74-2.52.78-3.85,1.04-.97.19-1.88.45-2.92.33l-2.01-.23c-.89-.1-1.54-1.13-2.26-1.53l-1.83-1.01c-.22-.12-.68-.42-.7-.65-.04-.42-.17-1.08-.18-1.46-.04-1.12-.04-2.38-.31-3.52l-1.3-5.43-.62-1.85-.73-3.39c.02.1-.14-2.59-.14-2.78l-.02-1.85c0-.67-.2-1.2-.07-1.94s-.65-2.46-.53-3.98c.07-.91-.39-1.56-.48-2.29-.11-.92-.22-1.87-.54-2.76-.18-.49.3-1.65-.52-1.88-1.03.39-.36.93-.81,3.23-.29,1.48-.22,2.24-.59,3.62l-.89,3.35c-.31,1.17-.54,2.3-.73,3.5-.12.28-.35.75-.42,1.06l-.47,1.89c-.12.5-.19,1.25-.19,1.79,0,.91-.25,1.6-.38,2.4l-.51,2.98c-.09.52-.21,1-.37,1.5l-.7,2.25c-.27.85-.3,1.71-.64,2.53-.38.9-.15,1.93-.27,2.89l-.59,4.6c-.19,1.51-.62,3.02-1.03,4.45-.2.71-.52,1.23-.64,2.02-.33,2.28-1.59,5.03-1.62,7.38,0,.39-.3.91-.36,1.27-.17.97-.3,1.8-.63,2.69-1.03,2.79-.2,1.71-1.04,3.83-.47,1.19-.46,2.55-.81,3.75-.33,1.11-.63,2.08-.84,3.25-.08.46-.19,1.24-.37,1.63-.36.74-.41,1.45-.58,2.29l-.47,2.27-1.11,6.19-.35,1.63-.69,3.07c-.12.52-.2,1.05-.37,1.53l-1.22,3.47c-.12.33-.25.76-.33,1.09l-.75,2.98-.29,1.3-.59,1.86c-.25.79-.3,1.51-.52,2.3l-.99,3.6c-.23.83-.36,1.45-.57,2.29l-.67,2.67c-.14.54-.19.96-.5,1.37l-.42.55c-.08.11-.43.3-.53.22l-.46-.39s-.25-.1-.28-.1h-.36c-.06.01-.12.31-.07.35l1.07.91c.4.74,0,1.48-.26,2.15l-.59,1.58c-.24.63-.37,1.24-.71,1.82-.25.42-.32.85-.33,1.4-.03,1.68-.92-.34-.26,4.25.13.93-.21,1.89-.48,2.78-.14.45-.23,1.18-.55,1.45l-1.03.87c-1.14.49-2.39.16-3.55.27-.5.05-.97.13-1.49.09l-3.6-.27c-.19-.01-3.46.67-4.35-.74-.33-.52-.57-1.02-.46-1.75.17-1.08,1.15-2.29,2.31-2.38.94-.07,1.69-.09,2.57-.52,1.01-.5-.35-2.2,1.28-2.92l.61-3.04,1.01-2.81c.45-1.26.29-2.9.94-4.24.28-.58.27-1.43.47-2.03l1.79-5.24c.35-1.01-.04-2.39.42-3.36.39-.84.91-1.57.81-2.58l.67-1.18.29-1.73c.2-1.2.25-2.61.89-3.65.37-.59.63-.97.68-1.71.23-3.25,1.22-3.44,1.43-5.8.07-.84.33-1.52.53-2.31l1.09-4.44c.57-2.33,1.15-4.35,1.95-6.61l1.02-2.85c.29-.82.35-1.93.44-2.85.12-1.18.61-2.21.84-3.34l.45-2.22c.15-.72.4-1.36.63-2.08.06-.18.12-2.05.58-3.6l.5-1.68.65-2.32.62-2.22c.09-.32.17-.87.24-1.18.44-.67.68-1.31.72-2.09.08-1.56.65-2.92,1.04-4.41l1.92-7.33c.22-.83.63-1.44.65-2.36,0-.48.08-1.28.27-1.66.45-.91.53-1.61.68-2.54l.82-5.06c.28-1.72.57-1.19.85-3.7.47-4.17,1.15-4.69,1.59-6.97l.79-4.11c.25-1.3.63-2.49.85-3.8l.41-2.4.29-1.61c.15-.83.43-1.65.36-2.49-.11-1.35.37-2.6.62-3.9l.67-3.45c.65-3.36.93-3.53,1.36-7.28l.27-2.38c.23-2.03-.05-3.8-1.12-5.52-.51-.83-.72-1.97-1.36-2.71-.53-.61-.87-1.1-.94-1.9s-.9-1.03-1.33-1.45c-.61-.6-1.12-.66-1.89-.93-.53-.19-1.2-.54-1.8-.81-.98-.45-1.81-2.65-5.36-2.7-.45,0-.72-.09-1.15-.23-1.26-.4-6.34-.59-7.63-.01ZM223.41,107.34c1.01.73,1.72,1.6,2.5,2.52.93,1.1,1.77,2.16,2.51,3.42.84,1.45.78,1.92,1.39,2.63.09.11.55.03.57-.1l.06-.5c.54-4.25.78-2.31,1.5-5.72.29-1.36.37-2.69.63-4.07l.49-2.57c.22-1.16.31-2.37.6-3.51.77-3.02.71-4,.87-7.23l.17-3.29c.03-.68.41-1.49.53-2.17l.26-1.46.72-6.82c.05-.47.15-.88.2-1.32l.5-4.29c.12-.98.58-1.96.53-2.98-.03-.71.15-1.15.39-1.83.49-1.4-.53-2.84-.11-4.32l-.05-.99c.31-.52.38-1.01.42-1.63.12-1.66.28-3.3.55-4.93.15-.87.35-1.68.42-2.57l.17-2.33c.1-1.41.53-2.87.41-4.2,0-.04.62-2.41.52-3.07-.14-.89-.18-1.55-.14-2.41s-.3-1.77.44-2.49c-.48-1.21-.08-2.31.05-3.45.22-1.88.26-2.35-.01-4.09l-.84-.66c-.06-.24.12-.81.33-.94s.71-.21,1.01-.3c.52-.15.94-.32,1.35-.03.15.11.62.1.67-.05.24-.79-.48-1.1-.19-3.25.11-.81.27-5.05-.49-5.4-.43.45-.88.83-1.16,1.21l-1.48,2.03c-1.28,1.76-1.93,3.37-3.27,4.81-.19,1.18-.89,2.1-1.5,3.04l-.99,1.53-.8,2.01c-.3.75-.48,1.41-.7,2.19-.1.35-.5.88-.53,1.28l-.12,1.79c-.06.82-.52,1.61-.85,2.38l-.14,1.1c-.4.46-.44,1.04-.63,1.61l-.55,1.64-.64,2.36c-.22.8-1.29,1.15-1.3,2.28,0,.53-.37,1.47-.49,2.02.03.2.31.64.24.83s-.46.43-.56.61c-.8,1.4-1,2.98-1.55,4.46l-1.19,3.2-1.11,3.07c-.32.88-.7,1.68-.85,2.61l-.29,1.73c-.18,1.06-.57,1.93-.8,2.97-.14.64-1.47,2.65-1.85,3.98-.4,1.4-.78,2.64-1.37,3.95-.26.57-.52,1.34-.87,1.79-.46.6-.56.98-.74,1.71s-.67,1.48-.72,2.33c-.04.59-.68,1.13-.77,1.59-.38,1.95-.78,1.71-1.47,3.43l-1.18,2.94-.45,1.59c-.26.91-.62,1.68-.84,2.62-.09.38-.36.96-.49,1.31.09.62.93.38,1.36.46l3.52.69c3.38.66,2.43,1.14,4.3,1.97,3.59,1.58,2.54,2.28,3.9,3.26ZM233.29,120.81c-.12,1.14-.1,2.25-.02,3.31l.87,1.35c.04.14.13.58.23.5.08-.06.27-.28.3-.38l.8-3.41.51-3.17c.24-1.46.35-2.88.7-4.31.25-1.01.52-2.09.58-3.12.08-1.29.04-2.43.48-3.64.31-.85.23-1.75.39-2.62l1.07-5.78.86-5.15c.14-.83.24-1.59.39-2.39l.53-2.79c.19-1-.12-2.19.18-3.16s.37-1.74.39-2.77c.02-1.16.61-2.31.83-3.44.09-.44.12-.95.17-1.39l.31-2.5.25-1.46.54-3.13.27-1.79c.33-2.14.5-2.63.56-5.02.01-.54.14-1.09.2-1.6l.35-2.95c.31-2.62.68-2.87.78-3.59.09-.67.1-1.35.17-2.01l.26-2.33c.18-1.63.23-3.11.46-4.73.08-.58-.02-1.4.03-2.04l.32-4.34c.08-1.04-.2-2.19.05-3.26.07-.3-.27-.97-.38-1.2-.76.66-.62,1.59-.78,2.46l-.3,1.7-.69,3.31-.54,3.12c-.35,2.05-.7,4.04-.84,6.16-.06.89.28,1.88-.02,2.78-.21.64-.33,1.25-.48,1.91-.21.93-.55,1.78-.21,2.72-.21.94-.43,1.87-.57,2.84-.15,1.02.12,2.2-.14,3.19-.21.78-.34,1.44-.45,2.24l-.37,2.6-.2,1.5c-.04.32-.29.92-.4,1.26.23,1.11.12,2.15-.15,3.24l-.87,3.51c-.13.52.13,1.33-.14,1.94-.32.72-.27,1.46-.48,2.22l-.54,2.01-.1,1.62c-.05.76-.08,1.51-.28,2.27-.41,1.51-.21,2.79-.65,5.02l-.32,1.64-.48,3.23-.18,1.55-.3,2.51-.25,1.54c.16,1.6-.29,1.94-.82,3.98-.18.7-.15,1.64-.59,2.19-.53.67-.28,1.26-.41,1.95-.17.96-.46,1.93-.56,2.93l-.33,3.17ZM212.19,107.78c1.52-.38,2.97.44,3.68-.13-2.16-1.52-4.22-1.29-6.8-1.2-.29.01-.83.3-1.18.36-.27.05-.59.62-.35.76.47.27.96.26,1.44.2,1.06-.13,2.12-.07,3.23,0ZM226.5,160.88c-.16.55-.2.97-.06,1.51,1-.67.69-2.39,1.46-3.84.02-3.1.24-1.79.97-4.86.75-3.16-.2-1.11,1.13-5.23,1.43-4.42.62-3.04,1.32-6.35.1-.48-.25-1.26-.2-1.78.06-.65.26-1.41-.32-1.89-.87.42.07.75-.41,2.33-.16.52-.27,1.01-.36,1.53l-.63,3.76c-.11.65-.36,1.39-.36,2.04.01,3.16-1.27,3.71-1.18,5.1.12,1.85-.38.88-.29,3.43-.8.76-.84,1.75-.63,2.76l-.43,1.5ZM225.92,165.27c.57-.7.66-1.11.53-1.82-.83-.16-.58,1.61-.53,1.82ZM224.11,173.28c.74-.42,1-1.36.42-1.91-.39.52-.57,1.19-.42,1.91ZM222.98,180.7l.33-1.34c.35-1.44.65-2.83.83-4.29.22-.29.32-.98.09-1.17-.59.07-.37.83-.49,1.17l-.74,1.92c-.28.73-.44,1.39-.43,2.2,0,.58-.16,1.11.41,1.51ZM219.85,193.42c-.01.14.23.52.31.45s.41-.28.44-.4l.59-2.44c.17-.71.33-1.19.05-1.95-.41.42-.5.77-.71,1.22-.25.54-.53,1.07-.58,1.69l-.11,1.43ZM218.95,200.05c.35-.32.19-1.08.33-1.43.36-.88.5-1.63.49-2.54l-.02-1.32c-.53,1.15-.79,2.28-1,3.59-.09.54-.6,1.32.21,1.71ZM207.49,237.75c.16-2.09.8-2.75.86-2.97.38-1.45.63-2.82,1.14-4.24.11-.3.07-1.03-.31-1.05-.34-.01-.49.59-.56.87l-.53,2.35-.61,2.64-.3,1.28c-.18.78-.4,1.52-.54,2.3.67-.2.79-.62.84-1.19ZM206.14,242.74c.23-.82.71-1.98.88-2.72.03-.15-.31-.62-.42-.53-.09.07-.25.27-.3.39l-.5,1.38c-.11.32-.09,1.04-.15,1.4-.77.74-.65,2.74-.34,2.58,1.04-.56.61-1.78.82-2.5ZM201.81,258.06c1.04-.42.87-1.23,1.08-1.96l.98-3.4c.16-.55.34-1.07.02-1.67-1.11.72-.91,2.86-1.23,3.63-.7,1.66-1.52,2.45-.85,3.4Z"/>
  <path d="M180.63,138.16c-1.05-.45.75-3.07.79-3.11l1.39-1.47c.14-.15.52-.37.71-.4.22-.03.65.25.78.51.28.57-.09,1.26-.56,1.78-.51.57-.41,1.56-.78,2.23-.34.62-1.64.75-2.32.46Z"/>
  <path class="cls-1" d="M223.41,107.34c-1.36-.98-.31-1.68-3.9-3.26-1.87-.82-.91-1.31-4.3-1.97l-3.52-.69c-.43-.08-1.28.16-1.36-.46.13-.35.39-.92.49-1.31.23-.94.58-1.71.84-2.62l.45-1.59,1.18-2.94c.69-1.72,1.09-1.47,1.47-3.43.09-.46.74-1,.77-1.59.05-.84.54-1.59.72-2.33s.28-1.11.74-1.71c.35-.45.61-1.22.87-1.79.59-1.31.97-2.55,1.37-3.95s1.71-3.34,1.85-3.98c.23-1.04.62-1.91.8-2.97l.29-1.73c.16-.93.53-1.72.85-2.61l1.11-3.07,1.19-3.2c.55-1.48.75-3.06,1.55-4.46.1-.18.49-.43.56-.61s-.21-.62-.24-.83c.12-.55.48-1.48.49-2.02.01-1.13,1.08-1.48,1.3-2.28l.64-2.36.55-1.64c.19-.57.24-1.15.63-1.61l.14-1.1c.32-.77.79-1.57.85-2.38l.12-1.79c.03-.41.43-.94.53-1.28.22-.77.4-1.43.7-2.19l.8-2.01.99-1.53c.61-.94,1.3-1.86,1.5-3.04,1.34-1.44,1.99-3.05,3.27-4.81l1.48-2.03c.28-.38.73-.75,1.16-1.21.76.36.6,4.59.49,5.4-.29,2.15.44,2.46.19,3.25-.05.16-.52.16-.67.05-.41-.29-.84-.12-1.35.03-.3.09-.79.17-1.01.3s-.39.7-.33.94l.84.66c.27,1.74.24,2.21.01,4.09-.13,1.14-.53,2.24-.05,3.45-.74.72-.4,1.63-.44,2.49s0,1.51.14,2.41c.1.66-.52,3.03-.52,3.07.12,1.34-.31,2.79-.41,4.2l-.17,2.33c-.06.88-.27,1.69-.42,2.57-.27,1.63-.43,3.26-.55,4.93-.05.61-.11,1.1-.42,1.63l.05.99c-.42,1.47.6,2.92.11,4.32-.24.67-.42,1.11-.39,1.83.05,1.02-.42,1.99-.53,2.98l-.5,4.29c-.05.44-.15.85-.2,1.32l-.72,6.82-.26,1.46c-.12.68-.5,1.49-.53,2.17l-.17,3.29c-.17,3.23-.11,4.2-.87,7.23-.29,1.14-.38,2.35-.6,3.51l-.49,2.57c-.26,1.38-.35,2.71-.63,4.07-.72,3.41-.97,1.47-1.5,5.72l-.06.5c-.02.13-.48.2-.57.1-.61-.72-.55-1.19-1.39-2.63-.73-1.26-1.58-2.32-2.51-3.42-.78-.92-1.49-1.79-2.5-2.52Z"/>
  <path class="cls-1" d="M233.29,120.81l.33-3.17c.1-1,.39-1.98.56-2.93.13-.69-.12-1.29.41-1.95.44-.55.41-1.5.59-2.19.53-2.04.98-2.38.82-3.98l.25-1.54.3-2.51.18-1.55.48-3.23.32-1.64c.44-2.24.24-3.51.65-5.02.21-.76.23-1.51.28-2.27l.1-1.62.54-2.01c.21-.77.17-1.5.48-2.22.26-.6,0-1.42.14-1.94l.87-3.51c.27-1.08.38-2.13.15-3.24.11-.33.36-.94.4-1.26l.2-1.5.37-2.6c.11-.8.24-1.46.45-2.24.27-.99,0-2.17.14-3.19s.36-1.89.57-2.84c-.34-.94,0-1.8.21-2.72.15-.66.26-1.27.48-1.91.3-.9-.03-1.89.02-2.78.14-2.13.49-4.11.84-6.16l.54-3.12.69-3.31.3-1.7c.15-.87.02-1.8.78-2.46.11.23.45.9.38,1.2-.25,1.07.03,2.23-.05,3.26l-.32,4.34c-.05.64.05,1.45-.03,2.04-.23,1.63-.28,3.1-.46,4.73l-.26,2.33c-.07.67-.08,1.34-.17,2.01-.1.71-.47.97-.78,3.59l-.35,2.95c-.06.51-.19,1.05-.2,1.6-.05,2.39-.23,2.88-.56,5.02l-.27,1.79-.54,3.13-.25,1.46-.31,2.5c-.06.44-.09.95-.17,1.39-.23,1.14-.81,2.28-.83,3.44-.02,1.03-.09,1.81-.39,2.77s.01,2.16-.18,3.16l-.53,2.79c-.15.8-.25,1.56-.39,2.39l-.86,5.15-1.07,5.78c-.16.87-.08,1.78-.39,2.62-.44,1.21-.41,2.35-.48,3.64-.06,1.03-.33,2.11-.58,3.12-.35,1.43-.46,2.85-.7,4.31l-.51,3.17-.8,3.41c-.02.1-.22.32-.3.38-.1.08-.19-.36-.23-.5l-.87-1.35c-.08-1.06-.1-2.17.02-3.31Z"/>
  <path class="cls-1" d="M226.5,160.88l.43-1.5c-.21-1.01-.17-2,.63-2.76-.09-2.55.41-1.58.29-3.43-.09-1.39,1.19-1.94,1.18-5.1,0-.65.25-1.39.36-2.04l.63-3.76c.09-.53.2-1.02.36-1.53.49-1.57-.46-1.91.41-2.33.58.48.38,1.23.32,1.89-.05.52.3,1.31.2,1.78-.69,3.31.12,1.93-1.32,6.35-1.34,4.12-.39,2.07-1.13,5.23-.72,3.07-.94,1.76-.97,4.86-.78,1.45-.46,3.18-1.46,3.84-.14-.54-.09-.96.06-1.51Z"/>
  <path class="cls-1" d="M212.19,107.78c-1.11-.08-2.17-.13-3.23,0-.48.06-.97.06-1.44-.2-.24-.14.08-.71.35-.76.35-.06.9-.35,1.18-.36,2.58-.09,4.65-.33,6.8,1.2-.71.57-2.15-.25-3.68.13Z"/>
  <path class="cls-1" d="M207.49,237.75c-.04.57-.17.99-.84,1.19.14-.79.36-1.52.54-2.3l.3-1.28.61-2.64.53-2.35c.06-.28.21-.88.56-.87.37.02.41.74.31,1.05-.51,1.42-.76,2.79-1.14,4.24-.06.23-.7.89-.86,2.97Z"/>
  <path class="cls-1" d="M201.81,258.06c-.68-.94.15-1.74.85-3.4.33-.78.13-2.92,1.23-3.63.32.6.14,1.12-.02,1.67l-.98,3.4c-.21.73-.04,1.54-1.08,1.96Z"/>
  <path class="cls-1" d="M222.98,180.7c-.58-.41-.4-.93-.41-1.51-.01-.81.15-1.47.43-2.2l.74-1.92c.13-.33-.1-1.1.49-1.17.23.19.12.87-.09,1.17-.19,1.46-.48,2.85-.83,4.29l-.33,1.34Z"/>
  <path class="cls-1" d="M206.14,242.74c-.21.73.22,1.94-.82,2.5-.31.17-.43-1.83.34-2.58.06-.36.03-1.08.15-1.4l.5-1.38c.05-.13.21-.32.3-.39.11-.09.45.38.42.53-.17.74-.64,1.9-.88,2.72Z"/>
  <path class="cls-1" d="M219.85,193.42l.11-1.43c.05-.62.33-1.15.58-1.69.21-.45.3-.8.71-1.22.28.76.13,1.25-.05,1.95l-.59,2.44c-.03.12-.36.33-.44.4s-.32-.31-.31-.45Z"/>
  <path class="cls-1" d="M218.95,200.05c-.8-.4-.3-1.17-.21-1.71.22-1.3.47-2.43,1-3.59l.02,1.32c.02.91-.13,1.66-.49,2.54-.14.35.02,1.11-.33,1.43Z"/>
  <path class="cls-1" d="M224.11,173.28c-.15-.72.03-1.39.42-1.91.58.55.32,1.49-.42,1.91Z"/>
  <path class="cls-1" d="M225.92,165.27c-.05-.21-.3-1.98.53-1.82.13.71.04,1.11-.53,1.82Z"/>
</svg>